<?xml version="1.0" standalone="no"?>
<svg width="567" height="496" viewBox="0 0 567 496" xmlns="http://www.w3.org/2000/svg">
<title>
../src/TagAndProbeZ/plots_mcZee_mcGJet_withEtaR9rhoReweight/hlt30//nvtxEE.svg
</title>
<desc>
Creator: ROOT Version 5.32/00
CreationDate: Fri Dec  5 12:49:22 2014</desc>
<defs>
</defs>
<rect x="0" y="0" width="567" height="496" fill="white"/>
<rect x="74" y="44" width="453" height="402" fill="white"/>
<rect x="74" y="44" width="453" height="402" fill="none" stroke="black"/>
<rect x="74" y="44" width="453" height="402" fill="white"/>
<rect x="74" y="44" width="453" height="402" fill="none" stroke="black"/>
<path d="M85,446h 4" fill="none" stroke="#ff0099"/>
<path d="M91,446h 5" fill="none" stroke="#ff0099"/>
<g stroke="#ff0099" stroke-width="1" fill="#ff0099">
<circle cx=" 90" cy=" 446" r=" 1.5"/>
</g>
<path d="M96,445h 4" fill="none" stroke="#ff0099"/>
<path d="M102,445h 5" fill="none" stroke="#ff0099"/>
<g stroke="#ff0099" stroke-width="1" fill="#ff0099">
<circle cx=" 101" cy=" 445" r=" 1.5"/>
</g>
<path d="M107,441h 4" fill="none" stroke="#ff0099"/>
<path d="M114,441h 4" fill="none" stroke="#ff0099"/>
<g stroke="#ff0099" stroke-width="1" fill="#ff0099">
<circle cx=" 112" cy=" 441" r=" 1.5"/>
</g>
<path d="M118,431h 4" fill="none" stroke="#ff0099"/>
<path d="M125,431h 4" fill="none" stroke="#ff0099"/>
<g stroke="#ff0099" stroke-width="1" fill="#ff0099">
<circle cx=" 123" cy=" 431" r=" 1.5"/>
</g>
<path d="M129,412h 4" fill="none" stroke="#ff0099"/>
<path d="M136,412h 4" fill="none" stroke="#ff0099"/>
<g stroke="#ff0099" stroke-width="1" fill="#ff0099">
<circle cx=" 135" cy=" 412" r=" 1.5"/>
</g>
<path d="M140,385h 4" fill="none" stroke="#ff0099"/>
<path d="M147,385h 4" fill="none" stroke="#ff0099"/>
<g stroke="#ff0099" stroke-width="1" fill="#ff0099">
<circle cx=" 146" cy=" 385" r=" 1.5"/>
</g>
<path d="M157,346" fill="none" stroke="#ff0099"/>
<path d="M157,344" fill="none" stroke="#ff0099"/>
<path d="M151,345h 5" fill="none" stroke="#ff0099"/>
<path d="M158,345h 4" fill="none" stroke="#ff0099"/>
<g stroke="#ff0099" stroke-width="1" fill="#ff0099">
<circle cx=" 157" cy=" 345" r=" 1.5"/>
</g>
<path d="M168,299" fill="none" stroke="#ff0099"/>
<path d="M168,297v -1" fill="none" stroke="#ff0099"/>
<path d="M162,298h 5" fill="none" stroke="#ff0099"/>
<path d="M169,298h 4" fill="none" stroke="#ff0099"/>
<g stroke="#ff0099" stroke-width="1" fill="#ff0099">
<circle cx=" 168" cy=" 298" r=" 1.5"/>
</g>
<path d="M179,248v -1" fill="none" stroke="#ff0099"/>
<path d="M179,245v -1" fill="none" stroke="#ff0099"/>
<path d="M173,246h 5" fill="none" stroke="#ff0099"/>
<path d="M180,246h 4" fill="none" stroke="#ff0099"/>
<g stroke="#ff0099" stroke-width="1" fill="#ff0099">
<circle cx=" 179" cy=" 246" r=" 1.5"/>
</g>
<path d="M190,195v -1" fill="none" stroke="#ff0099"/>
<path d="M190,191v -1" fill="none" stroke="#ff0099"/>
<path d="M184,192h 5" fill="none" stroke="#ff0099"/>
<path d="M191,192h 4" fill="none" stroke="#ff0099"/>
<g stroke="#ff0099" stroke-width="1" fill="#ff0099">
<circle cx=" 190" cy=" 192" r=" 1.5"/>
</g>
<path d="M201,154v -1" fill="none" stroke="#ff0099"/>
<path d="M201,150v -1" fill="none" stroke="#ff0099"/>
<path d="M195,151h 5" fill="none" stroke="#ff0099"/>
<path d="M202,151h 4" fill="none" stroke="#ff0099"/>
<g stroke="#ff0099" stroke-width="1" fill="#ff0099">
<circle cx=" 201" cy=" 151" r=" 1.5"/>
</g>
<path d="M212,121v -2" fill="none" stroke="#ff0099"/>
<path d="M212,117v -1" fill="none" stroke="#ff0099"/>
<path d="M206,118h 5" fill="none" stroke="#ff0099"/>
<path d="M213,118h 5" fill="none" stroke="#ff0099"/>
<g stroke="#ff0099" stroke-width="1" fill="#ff0099">
<circle cx=" 212" cy=" 118" r=" 1.5"/>
</g>
<path d="M223,87v -2" fill="none" stroke="#ff0099"/>
<path d="M223,83v -2" fill="none" stroke="#ff0099"/>
<path d="M218,84h 4" fill="none" stroke="#ff0099"/>
<path d="M224,84h 5" fill="none" stroke="#ff0099"/>
<g stroke="#ff0099" stroke-width="1" fill="#ff0099">
<circle cx=" 223" cy=" 84" r=" 1.5"/>
</g>
<path d="M234,74v -2" fill="none" stroke="#ff0099"/>
<path d="M234,70v -2" fill="none" stroke="#ff0099"/>
<path d="M229,71h 4" fill="none" stroke="#ff0099"/>
<path d="M235,71h 5" fill="none" stroke="#ff0099"/>
<g stroke="#ff0099" stroke-width="1" fill="#ff0099">
<circle cx=" 234" cy=" 71" r=" 1.5"/>
</g>
<path d="M245,69v -1" fill="none" stroke="#ff0099"/>
<path d="M245,65v -2" fill="none" stroke="#ff0099"/>
<path d="M240,66h 4" fill="none" stroke="#ff0099"/>
<path d="M246,66h 5" fill="none" stroke="#ff0099"/>
<g stroke="#ff0099" stroke-width="1" fill="#ff0099">
<circle cx=" 245" cy=" 66" r=" 1.5"/>
</g>
<path d="M256,72v -2" fill="none" stroke="#ff0099"/>
<path d="M256,67v -1" fill="none" stroke="#ff0099"/>
<path d="M251,69h 4" fill="none" stroke="#ff0099"/>
<path d="M257,69h 5" fill="none" stroke="#ff0099"/>
<g stroke="#ff0099" stroke-width="1" fill="#ff0099">
<circle cx=" 256" cy=" 69" r=" 1.5"/>
</g>
<path d="M267,80v -2" fill="none" stroke="#ff0099"/>
<path d="M267,75v -1" fill="none" stroke="#ff0099"/>
<path d="M262,77h 4" fill="none" stroke="#ff0099"/>
<path d="M268,77h 5" fill="none" stroke="#ff0099"/>
<g stroke="#ff0099" stroke-width="1" fill="#ff0099">
<circle cx=" 267" cy=" 77" r=" 1.5"/>
</g>
<path d="M278,99v -2" fill="none" stroke="#ff0099"/>
<path d="M278,95v -2" fill="none" stroke="#ff0099"/>
<path d="M273,96h 4" fill="none" stroke="#ff0099"/>
<path d="M279,96h 5" fill="none" stroke="#ff0099"/>
<g stroke="#ff0099" stroke-width="1" fill="#ff0099">
<circle cx=" 278" cy=" 96" r=" 1.5"/>
</g>
<path d="M289,130v -2" fill="none" stroke="#ff0099"/>
<path d="M289,126v -2" fill="none" stroke="#ff0099"/>
<path d="M284,127h 4" fill="none" stroke="#ff0099"/>
<path d="M291,127h 4" fill="none" stroke="#ff0099"/>
<g stroke="#ff0099" stroke-width="1" fill="#ff0099">
<circle cx=" 289" cy=" 127" r=" 1.5"/>
</g>
<path d="M300,160v -1" fill="none" stroke="#ff0099"/>
<path d="M300,156v -1" fill="none" stroke="#ff0099"/>
<path d="M295,158h 4" fill="none" stroke="#ff0099"/>
<path d="M302,158h 4" fill="none" stroke="#ff0099"/>
<g stroke="#ff0099" stroke-width="1" fill="#ff0099">
<circle cx=" 300" cy=" 158" r=" 1.5"/>
</g>
<path d="M312,192v -1" fill="none" stroke="#ff0099"/>
<path d="M312,188v -1" fill="none" stroke="#ff0099"/>
<path d="M306,189h 4" fill="none" stroke="#ff0099"/>
<path d="M313,189h 4" fill="none" stroke="#ff0099"/>
<g stroke="#ff0099" stroke-width="1" fill="#ff0099">
<circle cx=" 312" cy=" 189" r=" 1.5"/>
</g>
<path d="M323,234v -2" fill="none" stroke="#ff0099"/>
<path d="M323,230v -1" fill="none" stroke="#ff0099"/>
<path d="M317,231h 4" fill="none" stroke="#ff0099"/>
<path d="M324,231h 4" fill="none" stroke="#ff0099"/>
<g stroke="#ff0099" stroke-width="1" fill="#ff0099">
<circle cx=" 323" cy=" 231" r=" 1.5"/>
</g>
<path d="M334,266v -1" fill="none" stroke="#ff0099"/>
<path d="M334,263v -1" fill="none" stroke="#ff0099"/>
<path d="M328,264h 5" fill="none" stroke="#ff0099"/>
<path d="M335,264h 4" fill="none" stroke="#ff0099"/>
<g stroke="#ff0099" stroke-width="1" fill="#ff0099">
<circle cx=" 334" cy=" 264" r=" 1.5"/>
</g>
<path d="M345,301v -1" fill="none" stroke="#ff0099"/>
<path d="M345,298v -1" fill="none" stroke="#ff0099"/>
<path d="M339,299h 5" fill="none" stroke="#ff0099"/>
<path d="M346,299h 4" fill="none" stroke="#ff0099"/>
<g stroke="#ff0099" stroke-width="1" fill="#ff0099">
<circle cx=" 345" cy=" 299" r=" 1.5"/>
</g>
<path d="M356,328v -1" fill="none" stroke="#ff0099"/>
<path d="M356,325v -1" fill="none" stroke="#ff0099"/>
<path d="M350,326h 5" fill="none" stroke="#ff0099"/>
<path d="M357,326h 4" fill="none" stroke="#ff0099"/>
<g stroke="#ff0099" stroke-width="1" fill="#ff0099">
<circle cx=" 356" cy=" 326" r=" 1.5"/>
</g>
<path d="M367,356" fill="none" stroke="#ff0099"/>
<path d="M367,354v -1" fill="none" stroke="#ff0099"/>
<path d="M361,355h 5" fill="none" stroke="#ff0099"/>
<path d="M368,355h 4" fill="none" stroke="#ff0099"/>
<g stroke="#ff0099" stroke-width="1" fill="#ff0099">
<circle cx=" 367" cy=" 355" r=" 1.5"/>
</g>
<path d="M378,378" fill="none" stroke="#ff0099"/>
<path d="M378,376v -1" fill="none" stroke="#ff0099"/>
<path d="M372,377h 5" fill="none" stroke="#ff0099"/>
<path d="M379,377h 4" fill="none" stroke="#ff0099"/>
<g stroke="#ff0099" stroke-width="1" fill="#ff0099">
<circle cx=" 378" cy=" 377" r=" 1.5"/>
</g>
<path d="M389,394" fill="none" stroke="#ff0099"/>
<path d="M389,392" fill="none" stroke="#ff0099"/>
<path d="M383,393h 5" fill="none" stroke="#ff0099"/>
<path d="M390,393h 4" fill="none" stroke="#ff0099"/>
<g stroke="#ff0099" stroke-width="1" fill="#ff0099">
<circle cx=" 389" cy=" 393" r=" 1.5"/>
</g>
<path d="M394,407h 5" fill="none" stroke="#ff0099"/>
<path d="M401,407h 5" fill="none" stroke="#ff0099"/>
<g stroke="#ff0099" stroke-width="1" fill="#ff0099">
<circle cx=" 400" cy=" 407" r=" 1.5"/>
</g>
<path d="M406,418h 4" fill="none" stroke="#ff0099"/>
<path d="M412,418h 5" fill="none" stroke="#ff0099"/>
<g stroke="#ff0099" stroke-width="1" fill="#ff0099">
<circle cx=" 411" cy=" 418" r=" 1.5"/>
</g>
<path d="M417,427h 4" fill="none" stroke="#ff0099"/>
<path d="M423,427h 5" fill="none" stroke="#ff0099"/>
<g stroke="#ff0099" stroke-width="1" fill="#ff0099">
<circle cx=" 422" cy=" 427" r=" 1.5"/>
</g>
<path d="M428,434h 4" fill="none" stroke="#ff0099"/>
<path d="M434,434h 5" fill="none" stroke="#ff0099"/>
<g stroke="#ff0099" stroke-width="1" fill="#ff0099">
<circle cx=" 433" cy=" 434" r=" 1.5"/>
</g>
<path d="M439,437h 4" fill="none" stroke="#ff0099"/>
<path d="M445,437h 5" fill="none" stroke="#ff0099"/>
<g stroke="#ff0099" stroke-width="1" fill="#ff0099">
<circle cx=" 444" cy=" 437" r=" 1.5"/>
</g>
<path d="M450,440h 4" fill="none" stroke="#ff0099"/>
<path d="M456,440h 5" fill="none" stroke="#ff0099"/>
<g stroke="#ff0099" stroke-width="1" fill="#ff0099">
<circle cx=" 455" cy=" 440" r=" 1.5"/>
</g>
<path d="M461,442h 4" fill="none" stroke="#ff0099"/>
<path d="M468,442h 4" fill="none" stroke="#ff0099"/>
<g stroke="#ff0099" stroke-width="1" fill="#ff0099">
<circle cx=" 466" cy=" 442" r=" 1.5"/>
</g>
<path d="M472,444h 4" fill="none" stroke="#ff0099"/>
<path d="M479,444h 4" fill="none" stroke="#ff0099"/>
<g stroke="#ff0099" stroke-width="1" fill="#ff0099">
<circle cx=" 477" cy=" 444" r=" 1.5"/>
</g>
<path d="M483,444h 4" fill="none" stroke="#ff0099"/>
<path d="M490,444h 4" fill="none" stroke="#ff0099"/>
<g stroke="#ff0099" stroke-width="1" fill="#ff0099">
<circle cx=" 489" cy=" 444" r=" 1.5"/>
</g>
<path d="M494,445h 4" fill="none" stroke="#ff0099"/>
<path d="M501,445h 4" fill="none" stroke="#ff0099"/>
<g stroke="#ff0099" stroke-width="1" fill="#ff0099">
<circle cx=" 500" cy=" 445" r=" 1.5"/>
</g>
<path d="M505,446h 5" fill="none" stroke="#ff0099"/>
<path d="M512,446h 4" fill="none" stroke="#ff0099"/>
<g stroke="#ff0099" stroke-width="1" fill="#ff0099">
<circle cx=" 511" cy=" 446" r=" 1.5"/>
</g>
<path d="M516,445h 5" fill="none" stroke="#ff0099"/>
<path d="M523,445h 4" fill="none" stroke="#ff0099"/>
<g stroke="#ff0099" stroke-width="1" fill="#ff0099">
<circle cx=" 522" cy=" 445" r=" 1.5"/>
</g>
<path d="M74,446h 453" fill="none" stroke="black"/>
<path d="M79,434v 12" fill="none" stroke="black"/>
<path d="M90,440v 6" fill="none" stroke="black"/>
<path d="M101,440v 6" fill="none" stroke="black"/>
<path d="M112,440v 6" fill="none" stroke="black"/>
<path d="M123,440v 6" fill="none" stroke="black"/>
<path d="M135,434v 12" fill="none" stroke="black"/>
<path d="M146,440v 6" fill="none" stroke="black"/>
<path d="M157,440v 6" fill="none" stroke="black"/>
<path d="M168,440v 6" fill="none" stroke="black"/>
<path d="M179,440v 6" fill="none" stroke="black"/>
<path d="M190,434v 12" fill="none" stroke="black"/>
<path d="M201,440v 6" fill="none" stroke="black"/>
<path d="M212,440v 6" fill="none" stroke="black"/>
<path d="M223,440v 6" fill="none" stroke="black"/>
<path d="M234,440v 6" fill="none" stroke="black"/>
<path d="M245,434v 12" fill="none" stroke="black"/>
<path d="M256,440v 6" fill="none" stroke="black"/>
<path d="M267,440v 6" fill="none" stroke="black"/>
<path d="M278,440v 6" fill="none" stroke="black"/>
<path d="M289,440v 6" fill="none" stroke="black"/>
<path d="M300,434v 12" fill="none" stroke="black"/>
<path d="M312,440v 6" fill="none" stroke="black"/>
<path d="M323,440v 6" fill="none" stroke="black"/>
<path d="M334,440v 6" fill="none" stroke="black"/>
<path d="M345,440v 6" fill="none" stroke="black"/>
<path d="M356,434v 12" fill="none" stroke="black"/>
<path d="M367,440v 6" fill="none" stroke="black"/>
<path d="M378,440v 6" fill="none" stroke="black"/>
<path d="M389,440v 6" fill="none" stroke="black"/>
<path d="M400,440v 6" fill="none" stroke="black"/>
<path d="M411,434v 12" fill="none" stroke="black"/>
<path d="M422,440v 6" fill="none" stroke="black"/>
<path d="M433,440v 6" fill="none" stroke="black"/>
<path d="M444,440v 6" fill="none" stroke="black"/>
<path d="M455,440v 6" fill="none" stroke="black"/>
<path d="M466,434v 12" fill="none" stroke="black"/>
<path d="M477,440v 6" fill="none" stroke="black"/>
<path d="M489,440v 6" fill="none" stroke="black"/>
<path d="M500,440v 6" fill="none" stroke="black"/>
<path d="M511,440v 6" fill="none" stroke="black"/>
<path d="M522,434v 12" fill="none" stroke="black"/>
<path d="M79,434v 12" fill="none" stroke="black"/>
<path d="M522,434v 12" fill="none" stroke="black"/>
<text x="74" y="465" fill="black" font-size="18" font-family="Helvetica" font-weight="bold">
0
</text>
<text x="129" y="465" fill="black" font-size="18" font-family="Helvetica" font-weight="bold">
5
</text>
<text x="179" y="465" fill="black" font-size="18" font-family="Helvetica" font-weight="bold">
10
</text>
<text x="235" y="465" fill="black" font-size="18" font-family="Helvetica" font-weight="bold">
15
</text>
<text x="290" y="465" fill="black" font-size="18" font-family="Helvetica" font-weight="bold">
20
</text>
<text x="346" y="465" fill="black" font-size="18" font-family="Helvetica" font-weight="bold">
25
</text>
<text x="401" y="465" fill="black" font-size="18" font-family="Helvetica" font-weight="bold">
30
</text>
<text x="456" y="465" fill="black" font-size="18" font-family="Helvetica" font-weight="bold">
35
</text>
<text x="511" y="465" fill="black" font-size="18" font-family="Helvetica" font-weight="bold">
40
</text>
<path d="M74,44h 453" fill="none" stroke="black"/>
<path d="M79,56v -12" fill="none" stroke="black"/>
<path d="M90,50v -6" fill="none" stroke="black"/>
<path d="M101,50v -6" fill="none" stroke="black"/>
<path d="M112,50v -6" fill="none" stroke="black"/>
<path d="M123,50v -6" fill="none" stroke="black"/>
<path d="M135,56v -12" fill="none" stroke="black"/>
<path d="M146,50v -6" fill="none" stroke="black"/>
<path d="M157,50v -6" fill="none" stroke="black"/>
<path d="M168,50v -6" fill="none" stroke="black"/>
<path d="M179,50v -6" fill="none" stroke="black"/>
<path d="M190,56v -12" fill="none" stroke="black"/>
<path d="M201,50v -6" fill="none" stroke="black"/>
<path d="M212,50v -6" fill="none" stroke="black"/>
<path d="M223,50v -6" fill="none" stroke="black"/>
<path d="M234,50v -6" fill="none" stroke="black"/>
<path d="M245,56v -12" fill="none" stroke="black"/>
<path d="M256,50v -6" fill="none" stroke="black"/>
<path d="M267,50v -6" fill="none" stroke="black"/>
<path d="M278,50v -6" fill="none" stroke="black"/>
<path d="M289,50v -6" fill="none" stroke="black"/>
<path d="M300,56v -12" fill="none" stroke="black"/>
<path d="M312,50v -6" fill="none" stroke="black"/>
<path d="M323,50v -6" fill="none" stroke="black"/>
<path d="M334,50v -6" fill="none" stroke="black"/>
<path d="M345,50v -6" fill="none" stroke="black"/>
<path d="M356,56v -12" fill="none" stroke="black"/>
<path d="M367,50v -6" fill="none" stroke="black"/>
<path d="M378,50v -6" fill="none" stroke="black"/>
<path d="M389,50v -6" fill="none" stroke="black"/>
<path d="M400,50v -6" fill="none" stroke="black"/>
<path d="M411,56v -12" fill="none" stroke="black"/>
<path d="M422,50v -6" fill="none" stroke="black"/>
<path d="M433,50v -6" fill="none" stroke="black"/>
<path d="M444,50v -6" fill="none" stroke="black"/>
<path d="M455,50v -6" fill="none" stroke="black"/>
<path d="M466,56v -12" fill="none" stroke="black"/>
<path d="M477,50v -6" fill="none" stroke="black"/>
<path d="M489,50v -6" fill="none" stroke="black"/>
<path d="M500,50v -6" fill="none" stroke="black"/>
<path d="M511,50v -6" fill="none" stroke="black"/>
<path d="M522,56v -12" fill="none" stroke="black"/>
<path d="M79,56v -12" fill="none" stroke="black"/>
<path d="M522,56v -12" fill="none" stroke="black"/>
<path d="M74,446v -402" fill="none" stroke="black"/>
<path d="M87,446h -13" fill="none" stroke="black"/>
<path d="M81,435h -7" fill="none" stroke="black"/>
<path d="M81,424h -7" fill="none" stroke="black"/>
<path d="M81,413h -7" fill="none" stroke="black"/>
<path d="M81,402h -7" fill="none" stroke="black"/>
<path d="M87,391h -13" fill="none" stroke="black"/>
<path d="M81,380h -7" fill="none" stroke="black"/>
<path d="M81,369h -7" fill="none" stroke="black"/>
<path d="M81,358h -7" fill="none" stroke="black"/>
<path d="M81,347h -7" fill="none" stroke="black"/>
<path d="M87,336h -13" fill="none" stroke="black"/>
<path d="M81,325h -7" fill="none" stroke="black"/>
<path d="M81,314h -7" fill="none" stroke="black"/>
<path d="M81,302h -7" fill="none" stroke="black"/>
<path d="M81,291h -7" fill="none" stroke="black"/>
<path d="M87,280h -13" fill="none" stroke="black"/>
<path d="M81,269h -7" fill="none" stroke="black"/>
<path d="M81,258h -7" fill="none" stroke="black"/>
<path d="M81,247h -7" fill="none" stroke="black"/>
<path d="M81,236h -7" fill="none" stroke="black"/>
<path d="M87,225h -13" fill="none" stroke="black"/>
<path d="M81,214h -7" fill="none" stroke="black"/>
<path d="M81,203h -7" fill="none" stroke="black"/>
<path d="M81,192h -7" fill="none" stroke="black"/>
<path d="M81,181h -7" fill="none" stroke="black"/>
<path d="M87,170h -13" fill="none" stroke="black"/>
<path d="M81,159h -7" fill="none" stroke="black"/>
<path d="M81,148h -7" fill="none" stroke="black"/>
<path d="M81,136h -7" fill="none" stroke="black"/>
<path d="M81,125h -7" fill="none" stroke="black"/>
<path d="M87,114h -13" fill="none" stroke="black"/>
<path d="M81,103h -7" fill="none" stroke="black"/>
<path d="M81,92h -7" fill="none" stroke="black"/>
<path d="M81,81h -7" fill="none" stroke="black"/>
<path d="M81,70h -7" fill="none" stroke="black"/>
<path d="M87,59h -13" fill="none" stroke="black"/>
<path d="M87,59h -13" fill="none" stroke="black"/>
<path d="M81,48h -7" fill="none" stroke="black"/>
<text x="61" y="453" fill="black" font-size="18" font-family="Helvetica" font-weight="bold">
0
</text>
<text x="37" y="398" fill="black" font-size="18" font-family="Helvetica" font-weight="bold">
0.01
</text>
<text x="35" y="342" fill="black" font-size="18" font-family="Helvetica" font-weight="bold">
0.02
</text>
<text x="35" y="287" fill="black" font-size="18" font-family="Helvetica" font-weight="bold">
0.03
</text>
<text x="34" y="231" fill="black" font-size="18" font-family="Helvetica" font-weight="bold">
0.04
</text>
<text x="34" y="176" fill="black" font-size="18" font-family="Helvetica" font-weight="bold">
0.05
</text>
<text x="34" y="121" fill="black" font-size="18" font-family="Helvetica" font-weight="bold">
0.06
</text>
<text x="35" y="66" fill="black" font-size="18" font-family="Helvetica" font-weight="bold">
0.07
</text>
<path d="M90,446" fill="none" stroke="#99ff99" stroke-width="2"/>
<path d="M90,446" fill="none" stroke="#99ff99" stroke-width="2"/>
<g stroke="black" stroke-width="2" fill="none">
<line x1="89" y1="446" x2="90" y2="446"/>
</g>
<path d="M101,445" fill="none" stroke="#99ff99" stroke-width="2"/>
<path d="M101,445v -1" fill="none" stroke="#99ff99" stroke-width="2"/>
<g stroke="black" stroke-width="2" fill="none">
<line x1="100" y1="445" x2="101" y2="445"/>
</g>
<path d="M112,440" fill="none" stroke="#99ff99" stroke-width="2"/>
<path d="M112,440v -1" fill="none" stroke="#99ff99" stroke-width="2"/>
<g stroke="black" stroke-width="2" fill="none">
<line x1="111" y1="440" x2="112" y2="440"/>
</g>
<path d="M123,429v -1" fill="none" stroke="#99ff99" stroke-width="2"/>
<path d="M123,428v -1" fill="none" stroke="#99ff99" stroke-width="2"/>
<g stroke="black" stroke-width="2" fill="none">
<line x1="122" y1="428" x2="123" y2="428"/>
</g>
<path d="M135,405v -2" fill="none" stroke="#99ff99" stroke-width="2"/>
<path d="M135,403v -2" fill="none" stroke="#99ff99" stroke-width="2"/>
<g stroke="black" stroke-width="2" fill="none">
<line x1="134" y1="403" x2="135" y2="403"/>
</g>
<path d="M146,374v -3" fill="none" stroke="#99ff99" stroke-width="2"/>
<path d="M146,371v -2" fill="none" stroke="#99ff99" stroke-width="2"/>
<g stroke="black" stroke-width="2" fill="none">
<line x1="145" y1="371" x2="146" y2="371"/>
</g>
<path d="M157,335v -3" fill="none" stroke="#99ff99" stroke-width="2"/>
<path d="M157,332v -4" fill="none" stroke="#99ff99" stroke-width="2"/>
<g stroke="black" stroke-width="2" fill="none">
<line x1="156" y1="332" x2="157" y2="332"/>
</g>
<path d="M168,275v -4" fill="none" stroke="#99ff99" stroke-width="2"/>
<path d="M168,271v -4" fill="none" stroke="#99ff99" stroke-width="2"/>
<g stroke="black" stroke-width="2" fill="none">
<line x1="167" y1="271" x2="168" y2="271"/>
</g>
<path d="M179,220v -5" fill="none" stroke="#99ff99" stroke-width="2"/>
<path d="M179,215v -5" fill="none" stroke="#99ff99" stroke-width="2"/>
<g stroke="black" stroke-width="2" fill="none">
<line x1="178" y1="215" x2="179" y2="215"/>
</g>
<path d="M190,172v -6" fill="none" stroke="#99ff99" stroke-width="2"/>
<path d="M190,166v -5" fill="none" stroke="#99ff99" stroke-width="2"/>
<g stroke="black" stroke-width="2" fill="none">
<line x1="189" y1="166" x2="190" y2="166"/>
</g>
<path d="M201,133v -6" fill="none" stroke="#99ff99" stroke-width="2"/>
<path d="M201,127v -6" fill="none" stroke="#99ff99" stroke-width="2"/>
<g stroke="black" stroke-width="2" fill="none">
<line x1="200" y1="127" x2="201" y2="127"/>
</g>
<path d="M212,104v -6" fill="none" stroke="#99ff99" stroke-width="2"/>
<path d="M212,98v -5" fill="none" stroke="#99ff99" stroke-width="2"/>
<g stroke="black" stroke-width="2" fill="none">
<line x1="211" y1="98" x2="212" y2="98"/>
</g>
<path d="M223,81v -6" fill="none" stroke="#99ff99" stroke-width="2"/>
<path d="M223,75v -6" fill="none" stroke="#99ff99" stroke-width="2"/>
<g stroke="black" stroke-width="2" fill="none">
<line x1="222" y1="75" x2="223" y2="75"/>
</g>
<path d="M234,58v -7" fill="none" stroke="#99ff99" stroke-width="2"/>
<path d="M234,51v -6" fill="none" stroke="#99ff99" stroke-width="2"/>
<g stroke="black" stroke-width="2" fill="none">
<line x1="233" y1="51" x2="234" y2="51"/>
</g>
<path d="M245,63v -6" fill="none" stroke="#99ff99" stroke-width="2"/>
<path d="M245,57v -7" fill="none" stroke="#99ff99" stroke-width="2"/>
<g stroke="black" stroke-width="2" fill="none">
<line x1="244" y1="57" x2="245" y2="57"/>
</g>
<path d="M256,79v -6" fill="none" stroke="#99ff99" stroke-width="2"/>
<path d="M256,73v -6" fill="none" stroke="#99ff99" stroke-width="2"/>
<g stroke="black" stroke-width="2" fill="none">
<line x1="255" y1="73" x2="256" y2="73"/>
</g>
<path d="M267,91v -6" fill="none" stroke="#99ff99" stroke-width="2"/>
<path d="M267,85v -5" fill="none" stroke="#99ff99" stroke-width="2"/>
<g stroke="black" stroke-width="2" fill="none">
<line x1="266" y1="85" x2="267" y2="85"/>
</g>
<path d="M278,118v -6" fill="none" stroke="#99ff99" stroke-width="2"/>
<path d="M278,112v -5" fill="none" stroke="#99ff99" stroke-width="2"/>
<g stroke="black" stroke-width="2" fill="none">
<line x1="277" y1="112" x2="278" y2="112"/>
</g>
<path d="M289,144v -5" fill="none" stroke="#99ff99" stroke-width="2"/>
<path d="M289,139v -5" fill="none" stroke="#99ff99" stroke-width="2"/>
<g stroke="black" stroke-width="2" fill="none">
<line x1="288" y1="139" x2="289" y2="139"/>
</g>
<path d="M300,180v -5" fill="none" stroke="#99ff99" stroke-width="2"/>
<path d="M300,175v -5" fill="none" stroke="#99ff99" stroke-width="2"/>
<g stroke="black" stroke-width="2" fill="none">
<line x1="299" y1="175" x2="300" y2="175"/>
</g>
<path d="M312,214v -5" fill="none" stroke="#99ff99" stroke-width="2"/>
<path d="M312,209v -4" fill="none" stroke="#99ff99" stroke-width="2"/>
<g stroke="black" stroke-width="2" fill="none">
<line x1="311" y1="209" x2="312" y2="209"/>
</g>
<path d="M323,257v -3" fill="none" stroke="#99ff99" stroke-width="2"/>
<path d="M323,254v -4" fill="none" stroke="#99ff99" stroke-width="2"/>
<g stroke="black" stroke-width="2" fill="none">
<line x1="322" y1="254" x2="323" y2="254"/>
</g>
<path d="M334,288v -3" fill="none" stroke="#99ff99" stroke-width="2"/>
<path d="M334,285v -3" fill="none" stroke="#99ff99" stroke-width="2"/>
<g stroke="black" stroke-width="2" fill="none">
<line x1="333" y1="285" x2="334" y2="285"/>
</g>
<path d="M345,316v -3" fill="none" stroke="#99ff99" stroke-width="2"/>
<path d="M345,313v -3" fill="none" stroke="#99ff99" stroke-width="2"/>
<g stroke="black" stroke-width="2" fill="none">
<line x1="344" y1="313" x2="345" y2="313"/>
</g>
<path d="M356,342v -3" fill="none" stroke="#99ff99" stroke-width="2"/>
<path d="M356,339v -2" fill="none" stroke="#99ff99" stroke-width="2"/>
<g stroke="black" stroke-width="2" fill="none">
<line x1="355" y1="339" x2="356" y2="339"/>
</g>
<path d="M367,367v -2" fill="none" stroke="#99ff99" stroke-width="2"/>
<path d="M367,365v -3" fill="none" stroke="#99ff99" stroke-width="2"/>
<g stroke="black" stroke-width="2" fill="none">
<line x1="366" y1="365" x2="367" y2="365"/>
</g>
<path d="M378,390v -2" fill="none" stroke="#99ff99" stroke-width="2"/>
<path d="M378,388v -2" fill="none" stroke="#99ff99" stroke-width="2"/>
<g stroke="black" stroke-width="2" fill="none">
<line x1="377" y1="388" x2="378" y2="388"/>
</g>
<path d="M389,403v -2" fill="none" stroke="#99ff99" stroke-width="2"/>
<path d="M389,401v -1" fill="none" stroke="#99ff99" stroke-width="2"/>
<g stroke="black" stroke-width="2" fill="none">
<line x1="388" y1="401" x2="389" y2="401"/>
</g>
<path d="M400,417v -1" fill="none" stroke="#99ff99" stroke-width="2"/>
<path d="M400,416v -1" fill="none" stroke="#99ff99" stroke-width="2"/>
<g stroke="black" stroke-width="2" fill="none">
<line x1="399" y1="416" x2="400" y2="416"/>
</g>
<path d="M411,424v -1" fill="none" stroke="#99ff99" stroke-width="2"/>
<path d="M411,423v -1" fill="none" stroke="#99ff99" stroke-width="2"/>
<g stroke="black" stroke-width="2" fill="none">
<line x1="410" y1="423" x2="411" y2="423"/>
</g>
<path d="M422,432v -1" fill="none" stroke="#99ff99" stroke-width="2"/>
<path d="M422,431" fill="none" stroke="#99ff99" stroke-width="2"/>
<g stroke="black" stroke-width="2" fill="none">
<line x1="421" y1="431" x2="422" y2="431"/>
</g>
<path d="M433,436" fill="none" stroke="#99ff99" stroke-width="2"/>
<path d="M433,436v -1" fill="none" stroke="#99ff99" stroke-width="2"/>
<g stroke="black" stroke-width="2" fill="none">
<line x1="432" y1="436" x2="433" y2="436"/>
</g>
<path d="M444,439" fill="none" stroke="#99ff99" stroke-width="2"/>
<path d="M444,439" fill="none" stroke="#99ff99" stroke-width="2"/>
<g stroke="black" stroke-width="2" fill="none">
<line x1="443" y1="439" x2="444" y2="439"/>
</g>
<path d="M455,441" fill="none" stroke="#99ff99" stroke-width="2"/>
<path d="M455,441" fill="none" stroke="#99ff99" stroke-width="2"/>
<g stroke="black" stroke-width="2" fill="none">
<line x1="454" y1="441" x2="455" y2="441"/>
</g>
<path d="M466,444v -1" fill="none" stroke="#99ff99" stroke-width="2"/>
<path d="M466,443" fill="none" stroke="#99ff99" stroke-width="2"/>
<g stroke="black" stroke-width="2" fill="none">
<line x1="465" y1="443" x2="466" y2="443"/>
</g>
<path d="M477,445v -1" fill="none" stroke="#99ff99" stroke-width="2"/>
<path d="M477,444" fill="none" stroke="#99ff99" stroke-width="2"/>
<g stroke="black" stroke-width="2" fill="none">
<line x1="476" y1="444" x2="477" y2="444"/>
</g>
<path d="M489,445" fill="none" stroke="#99ff99" stroke-width="2"/>
<path d="M489,445" fill="none" stroke="#99ff99" stroke-width="2"/>
<g stroke="black" stroke-width="2" fill="none">
<line x1="488" y1="445" x2="489" y2="445"/>
</g>
<path d="M500,446" fill="none" stroke="#99ff99" stroke-width="2"/>
<path d="M500,446v -1" fill="none" stroke="#99ff99" stroke-width="2"/>
<g stroke="black" stroke-width="2" fill="none">
<line x1="499" y1="446" x2="500" y2="446"/>
</g>
<path d="M511,446" fill="none" stroke="#99ff99" stroke-width="2"/>
<path d="M511,446" fill="none" stroke="#99ff99" stroke-width="2"/>
<g stroke="black" stroke-width="2" fill="none">
<line x1="510" y1="446" x2="511" y2="446"/>
</g>
<path d="M522,446" fill="none" stroke="#99ff99" stroke-width="2"/>
<path d="M522,446" fill="none" stroke="#99ff99" stroke-width="2"/>
<g stroke="black" stroke-width="2" fill="none">
<line x1="521" y1="446" x2="522" y2="446"/>
</g>
<path d="M74,446h 22v -1h 11v -5h 11v -12h 11v -25h 11v -32h 11v -39h 11v -61h 11v -56h 11v -49h 11v -39h 11v -29h 12v -23h 11v -24h 11v 6h 11v 16h 11v 12h 11v 27h 11v 27h 11v 36h 11v 34h 11v 45h 11v 31h 11v 28h 11v 26h 11v 26h 11v 23h 11v 13h 11v
 15h 12v 7h 11v 8h 11v 5h 11v 3h 11v 2h 11v 2h 11v 1h 11v 1h 11v 1h 33z" fill="#99ff99"/>
<path d="M74,446h 22v -1h 11v -5h 11v -12h 11v -25h 11v -32h 11v -39h 11v -61h 11v -56h 11v -49h 11v -39h 11v -29h 12v -23h 11v -24h 11v 6h 11v 16h 11v 12h 11v 27h 11v 27h 11v 36h 11v 34h 11v 45h 11v 31h 11v 28h 11v 26h 11v 26h 11v 23h 11v 13h 11v
 15h 12v 7h 11v 8h 11v 5h 11v 3h 11v 2h 11v 2h 11v 1h 11v 1h 11v 1h 33" fill="none" stroke="#99ff99" stroke-width="2"/>
<path d="M85,446h 4" fill="none" stroke="#ff0099"/>
<path d="M91,446h 5" fill="none" stroke="#ff0099"/>
<g stroke="#ff0099" stroke-width="1" fill="#ff0099">
<circle cx=" 90" cy=" 446" r=" 1.5"/>
</g>
<path d="M96,445h 4" fill="none" stroke="#ff0099"/>
<path d="M102,445h 5" fill="none" stroke="#ff0099"/>
<g stroke="#ff0099" stroke-width="1" fill="#ff0099">
<circle cx=" 101" cy=" 445" r=" 1.5"/>
</g>
<path d="M107,441h 4" fill="none" stroke="#ff0099"/>
<path d="M114,441h 4" fill="none" stroke="#ff0099"/>
<g stroke="#ff0099" stroke-width="1" fill="#ff0099">
<circle cx=" 112" cy=" 441" r=" 1.5"/>
</g>
<path d="M118,431h 4" fill="none" stroke="#ff0099"/>
<path d="M125,431h 4" fill="none" stroke="#ff0099"/>
<g stroke="#ff0099" stroke-width="1" fill="#ff0099">
<circle cx=" 123" cy=" 431" r=" 1.5"/>
</g>
<path d="M129,412h 4" fill="none" stroke="#ff0099"/>
<path d="M136,412h 4" fill="none" stroke="#ff0099"/>
<g stroke="#ff0099" stroke-width="1" fill="#ff0099">
<circle cx=" 135" cy=" 412" r=" 1.5"/>
</g>
<path d="M140,385h 4" fill="none" stroke="#ff0099"/>
<path d="M147,385h 4" fill="none" stroke="#ff0099"/>
<g stroke="#ff0099" stroke-width="1" fill="#ff0099">
<circle cx=" 146" cy=" 385" r=" 1.5"/>
</g>
<path d="M157,346" fill="none" stroke="#ff0099"/>
<path d="M157,344" fill="none" stroke="#ff0099"/>
<path d="M151,345h 5" fill="none" stroke="#ff0099"/>
<path d="M158,345h 4" fill="none" stroke="#ff0099"/>
<g stroke="#ff0099" stroke-width="1" fill="#ff0099">
<circle cx=" 157" cy=" 345" r=" 1.5"/>
</g>
<path d="M168,299" fill="none" stroke="#ff0099"/>
<path d="M168,297v -1" fill="none" stroke="#ff0099"/>
<path d="M162,298h 5" fill="none" stroke="#ff0099"/>
<path d="M169,298h 4" fill="none" stroke="#ff0099"/>
<g stroke="#ff0099" stroke-width="1" fill="#ff0099">
<circle cx=" 168" cy=" 298" r=" 1.5"/>
</g>
<path d="M179,248v -1" fill="none" stroke="#ff0099"/>
<path d="M179,245v -1" fill="none" stroke="#ff0099"/>
<path d="M173,246h 5" fill="none" stroke="#ff0099"/>
<path d="M180,246h 4" fill="none" stroke="#ff0099"/>
<g stroke="#ff0099" stroke-width="1" fill="#ff0099">
<circle cx=" 179" cy=" 246" r=" 1.5"/>
</g>
<path d="M190,195v -1" fill="none" stroke="#ff0099"/>
<path d="M190,191v -1" fill="none" stroke="#ff0099"/>
<path d="M184,192h 5" fill="none" stroke="#ff0099"/>
<path d="M191,192h 4" fill="none" stroke="#ff0099"/>
<g stroke="#ff0099" stroke-width="1" fill="#ff0099">
<circle cx=" 190" cy=" 192" r=" 1.5"/>
</g>
<path d="M201,154v -1" fill="none" stroke="#ff0099"/>
<path d="M201,150v -1" fill="none" stroke="#ff0099"/>
<path d="M195,151h 5" fill="none" stroke="#ff0099"/>
<path d="M202,151h 4" fill="none" stroke="#ff0099"/>
<g stroke="#ff0099" stroke-width="1" fill="#ff0099">
<circle cx=" 201" cy=" 151" r=" 1.5"/>
</g>
<path d="M212,121v -2" fill="none" stroke="#ff0099"/>
<path d="M212,117v -1" fill="none" stroke="#ff0099"/>
<path d="M206,118h 5" fill="none" stroke="#ff0099"/>
<path d="M213,118h 5" fill="none" stroke="#ff0099"/>
<g stroke="#ff0099" stroke-width="1" fill="#ff0099">
<circle cx=" 212" cy=" 118" r=" 1.5"/>
</g>
<path d="M223,87v -2" fill="none" stroke="#ff0099"/>
<path d="M223,83v -2" fill="none" stroke="#ff0099"/>
<path d="M218,84h 4" fill="none" stroke="#ff0099"/>
<path d="M224,84h 5" fill="none" stroke="#ff0099"/>
<g stroke="#ff0099" stroke-width="1" fill="#ff0099">
<circle cx=" 223" cy=" 84" r=" 1.5"/>
</g>
<path d="M234,74v -2" fill="none" stroke="#ff0099"/>
<path d="M234,70v -2" fill="none" stroke="#ff0099"/>
<path d="M229,71h 4" fill="none" stroke="#ff0099"/>
<path d="M235,71h 5" fill="none" stroke="#ff0099"/>
<g stroke="#ff0099" stroke-width="1" fill="#ff0099">
<circle cx=" 234" cy=" 71" r=" 1.5"/>
</g>
<path d="M245,69v -1" fill="none" stroke="#ff0099"/>
<path d="M245,65v -2" fill="none" stroke="#ff0099"/>
<path d="M240,66h 4" fill="none" stroke="#ff0099"/>
<path d="M246,66h 5" fill="none" stroke="#ff0099"/>
<g stroke="#ff0099" stroke-width="1" fill="#ff0099">
<circle cx=" 245" cy=" 66" r=" 1.5"/>
</g>
<path d="M256,72v -2" fill="none" stroke="#ff0099"/>
<path d="M256,67v -1" fill="none" stroke="#ff0099"/>
<path d="M251,69h 4" fill="none" stroke="#ff0099"/>
<path d="M257,69h 5" fill="none" stroke="#ff0099"/>
<g stroke="#ff0099" stroke-width="1" fill="#ff0099">
<circle cx=" 256" cy=" 69" r=" 1.5"/>
</g>
<path d="M267,80v -2" fill="none" stroke="#ff0099"/>
<path d="M267,75v -1" fill="none" stroke="#ff0099"/>
<path d="M262,77h 4" fill="none" stroke="#ff0099"/>
<path d="M268,77h 5" fill="none" stroke="#ff0099"/>
<g stroke="#ff0099" stroke-width="1" fill="#ff0099">
<circle cx=" 267" cy=" 77" r=" 1.5"/>
</g>
<path d="M278,99v -2" fill="none" stroke="#ff0099"/>
<path d="M278,95v -2" fill="none" stroke="#ff0099"/>
<path d="M273,96h 4" fill="none" stroke="#ff0099"/>
<path d="M279,96h 5" fill="none" stroke="#ff0099"/>
<g stroke="#ff0099" stroke-width="1" fill="#ff0099">
<circle cx=" 278" cy=" 96" r=" 1.5"/>
</g>
<path d="M289,130v -2" fill="none" stroke="#ff0099"/>
<path d="M289,126v -2" fill="none" stroke="#ff0099"/>
<path d="M284,127h 4" fill="none" stroke="#ff0099"/>
<path d="M291,127h 4" fill="none" stroke="#ff0099"/>
<g stroke="#ff0099" stroke-width="1" fill="#ff0099">
<circle cx=" 289" cy=" 127" r=" 1.5"/>
</g>
<path d="M300,160v -1" fill="none" stroke="#ff0099"/>
<path d="M300,156v -1" fill="none" stroke="#ff0099"/>
<path d="M295,158h 4" fill="none" stroke="#ff0099"/>
<path d="M302,158h 4" fill="none" stroke="#ff0099"/>
<g stroke="#ff0099" stroke-width="1" fill="#ff0099">
<circle cx=" 300" cy=" 158" r=" 1.5"/>
</g>
<path d="M312,192v -1" fill="none" stroke="#ff0099"/>
<path d="M312,188v -1" fill="none" stroke="#ff0099"/>
<path d="M306,189h 4" fill="none" stroke="#ff0099"/>
<path d="M313,189h 4" fill="none" stroke="#ff0099"/>
<g stroke="#ff0099" stroke-width="1" fill="#ff0099">
<circle cx=" 312" cy=" 189" r=" 1.5"/>
</g>
<path d="M323,234v -2" fill="none" stroke="#ff0099"/>
<path d="M323,230v -1" fill="none" stroke="#ff0099"/>
<path d="M317,231h 4" fill="none" stroke="#ff0099"/>
<path d="M324,231h 4" fill="none" stroke="#ff0099"/>
<g stroke="#ff0099" stroke-width="1" fill="#ff0099">
<circle cx=" 323" cy=" 231" r=" 1.5"/>
</g>
<path d="M334,266v -1" fill="none" stroke="#ff0099"/>
<path d="M334,263v -1" fill="none" stroke="#ff0099"/>
<path d="M328,264h 5" fill="none" stroke="#ff0099"/>
<path d="M335,264h 4" fill="none" stroke="#ff0099"/>
<g stroke="#ff0099" stroke-width="1" fill="#ff0099">
<circle cx=" 334" cy=" 264" r=" 1.5"/>
</g>
<path d="M345,301v -1" fill="none" stroke="#ff0099"/>
<path d="M345,298v -1" fill="none" stroke="#ff0099"/>
<path d="M339,299h 5" fill="none" stroke="#ff0099"/>
<path d="M346,299h 4" fill="none" stroke="#ff0099"/>
<g stroke="#ff0099" stroke-width="1" fill="#ff0099">
<circle cx=" 345" cy=" 299" r=" 1.5"/>
</g>
<path d="M356,328v -1" fill="none" stroke="#ff0099"/>
<path d="M356,325v -1" fill="none" stroke="#ff0099"/>
<path d="M350,326h 5" fill="none" stroke="#ff0099"/>
<path d="M357,326h 4" fill="none" stroke="#ff0099"/>
<g stroke="#ff0099" stroke-width="1" fill="#ff0099">
<circle cx=" 356" cy=" 326" r=" 1.5"/>
</g>
<path d="M367,356" fill="none" stroke="#ff0099"/>
<path d="M367,354v -1" fill="none" stroke="#ff0099"/>
<path d="M361,355h 5" fill="none" stroke="#ff0099"/>
<path d="M368,355h 4" fill="none" stroke="#ff0099"/>
<g stroke="#ff0099" stroke-width="1" fill="#ff0099">
<circle cx=" 367" cy=" 355" r=" 1.5"/>
</g>
<path d="M378,378" fill="none" stroke="#ff0099"/>
<path d="M378,376v -1" fill="none" stroke="#ff0099"/>
<path d="M372,377h 5" fill="none" stroke="#ff0099"/>
<path d="M379,377h 4" fill="none" stroke="#ff0099"/>
<g stroke="#ff0099" stroke-width="1" fill="#ff0099">
<circle cx=" 378" cy=" 377" r=" 1.5"/>
</g>
<path d="M389,394" fill="none" stroke="#ff0099"/>
<path d="M389,392" fill="none" stroke="#ff0099"/>
<path d="M383,393h 5" fill="none" stroke="#ff0099"/>
<path d="M390,393h 4" fill="none" stroke="#ff0099"/>
<g stroke="#ff0099" stroke-width="1" fill="#ff0099">
<circle cx=" 389" cy=" 393" r=" 1.5"/>
</g>
<path d="M394,407h 5" fill="none" stroke="#ff0099"/>
<path d="M401,407h 5" fill="none" stroke="#ff0099"/>
<g stroke="#ff0099" stroke-width="1" fill="#ff0099">
<circle cx=" 400" cy=" 407" r=" 1.5"/>
</g>
<path d="M406,418h 4" fill="none" stroke="#ff0099"/>
<path d="M412,418h 5" fill="none" stroke="#ff0099"/>
<g stroke="#ff0099" stroke-width="1" fill="#ff0099">
<circle cx=" 411" cy=" 418" r=" 1.5"/>
</g>
<path d="M417,427h 4" fill="none" stroke="#ff0099"/>
<path d="M423,427h 5" fill="none" stroke="#ff0099"/>
<g stroke="#ff0099" stroke-width="1" fill="#ff0099">
<circle cx=" 422" cy=" 427" r=" 1.5"/>
</g>
<path d="M428,434h 4" fill="none" stroke="#ff0099"/>
<path d="M434,434h 5" fill="none" stroke="#ff0099"/>
<g stroke="#ff0099" stroke-width="1" fill="#ff0099">
<circle cx=" 433" cy=" 434" r=" 1.5"/>
</g>
<path d="M439,437h 4" fill="none" stroke="#ff0099"/>
<path d="M445,437h 5" fill="none" stroke="#ff0099"/>
<g stroke="#ff0099" stroke-width="1" fill="#ff0099">
<circle cx=" 444" cy=" 437" r=" 1.5"/>
</g>
<path d="M450,440h 4" fill="none" stroke="#ff0099"/>
<path d="M456,440h 5" fill="none" stroke="#ff0099"/>
<g stroke="#ff0099" stroke-width="1" fill="#ff0099">
<circle cx=" 455" cy=" 440" r=" 1.5"/>
</g>
<path d="M461,442h 4" fill="none" stroke="#ff0099"/>
<path d="M468,442h 4" fill="none" stroke="#ff0099"/>
<g stroke="#ff0099" stroke-width="1" fill="#ff0099">
<circle cx=" 466" cy=" 442" r=" 1.5"/>
</g>
<path d="M472,444h 4" fill="none" stroke="#ff0099"/>
<path d="M479,444h 4" fill="none" stroke="#ff0099"/>
<g stroke="#ff0099" stroke-width="1" fill="#ff0099">
<circle cx=" 477" cy=" 444" r=" 1.5"/>
</g>
<path d="M483,444h 4" fill="none" stroke="#ff0099"/>
<path d="M490,444h 4" fill="none" stroke="#ff0099"/>
<g stroke="#ff0099" stroke-width="1" fill="#ff0099">
<circle cx=" 489" cy=" 444" r=" 1.5"/>
</g>
<path d="M494,445h 4" fill="none" stroke="#ff0099"/>
<path d="M501,445h 4" fill="none" stroke="#ff0099"/>
<g stroke="#ff0099" stroke-width="1" fill="#ff0099">
<circle cx=" 500" cy=" 445" r=" 1.5"/>
</g>
<path d="M505,446h 5" fill="none" stroke="#ff0099"/>
<path d="M512,446h 4" fill="none" stroke="#ff0099"/>
<g stroke="#ff0099" stroke-width="1" fill="#ff0099">
<circle cx=" 511" cy=" 446" r=" 1.5"/>
</g>
<path d="M516,445h 5" fill="none" stroke="#ff0099"/>
<path d="M523,445h 4" fill="none" stroke="#ff0099"/>
<g stroke="#ff0099" stroke-width="1" fill="#ff0099">
<circle cx=" 522" cy=" 445" r=" 1.5"/>
</g>
<rect x="357" y="59" width="142" height="99" fill="white"/>
<text x="360" y="82" fill="black" font-size="17" font-family="Helvetica" font-weight="bold">
EE
</text>
<text x="457" y="115" fill="black" font-size="17" font-family="Helvetica" font-weight="bold">
 ee
</text>
<text x="440" y="115" fill="black" font-size="17" font-family="Times">
&#8594;
</text>
<text x="392" y="115" fill="black" font-size="17" font-family="Helvetica" font-weight="bold">
MC Z 
</text>
<path d="M362,109h 25" fill="none" stroke="#ff0099"/>
<g stroke="#ff0099" stroke-width="1" fill="#ff0099">
<circle cx=" 375" cy=" 109" r=" 1.5"/>
</g>
<text x="455" y="147" fill="black" font-size="17" font-family="Helvetica" font-weight="bold">
 + jet
</text>
<text x="447" y="147" fill="black" font-size="17" font-family="Times">
&#0947;
</text>
<text x="392" y="147" fill="black" font-size="17" font-family="Helvetica" font-weight="bold">
signal 
</text>
<path d="M362,154h 25v -24h -25z" fill="#99ff99"/>
<path d="M362,130h 25" fill="none" stroke="#99ff99" stroke-width="2"/>
<path d="M362,154h 25" fill="none" stroke="#99ff99" stroke-width="2"/>
<path d="M387,154v -24" fill="none" stroke="#99ff99" stroke-width="2"/>
<path d="M362,154v -24" fill="none" stroke="#99ff99" stroke-width="2"/>
<text x="300" y="34" fill="black" font-size="17" font-family="Helvetica" font-weight="bold">
=8 TeV
</text>
<text x="291" y="34" fill="black" font-size="17" font-family="Helvetica" font-weight="bold">
s
</text>
<path d="M285,25l 2, 10" fill="none" stroke="black" stroke-width="2"/>
<path d="M287,35l 2, -14" fill="none" stroke="black"/>
<path d="M289,21h 11" fill="none" stroke="black"/>
<text x="142" y="34" fill="black" font-size="17" font-family="Helvetica" font-weight="bold">
CMS Preliminary 
</text></svg>
