<?xml version="1.0" standalone="no"?>
<svg width="567" height="496" viewBox="0 0 567 496" xmlns="http://www.w3.org/2000/svg">
<title>
../src/TagAndProbeZ/plots_mcZee_mcGJet_withEtaR9rhoReweight/hlt30//ptPhotEB.svg
</title>
<desc>
Creator: ROOT Version 5.32/00
CreationDate: Fri Dec  5 12:49:10 2014</desc>
<defs>
</defs>
<rect x="0" y="0" width="567" height="496" fill="white"/>
<rect x="74" y="44" width="453" height="402" fill="white"/>
<rect x="74" y="44" width="453" height="402" fill="none" stroke="black"/>
<rect x="74" y="44" width="453" height="402" fill="white"/>
<rect x="74" y="44" width="453" height="402" fill="none" stroke="black"/>
<path d="M104,64h 3" fill="none" stroke="#ff0099"/>
<path d="M109,64h 2" fill="none" stroke="#ff0099"/>
<g stroke="#ff0099" stroke-width="1" fill="#ff0099">
<circle cx=" 108" cy=" 64" r=" 1.5"/>
</g>
<path d="M111,372h 3" fill="none" stroke="#ff0099"/>
<path d="M116,372h 3" fill="none" stroke="#ff0099"/>
<g stroke="#ff0099" stroke-width="1" fill="#ff0099">
<circle cx=" 115" cy=" 372" r=" 1.5"/>
</g>
<path d="M119,434h 3" fill="none" stroke="#ff0099"/>
<path d="M124,434h 3" fill="none" stroke="#ff0099"/>
<g stroke="#ff0099" stroke-width="1" fill="#ff0099">
<circle cx=" 123" cy=" 434" r=" 1.5"/>
</g>
<path d="M74,446h 453" fill="none" stroke="black"/>
<path d="M74,434v 12" fill="none" stroke="black"/>
<path d="M89,440v 6" fill="none" stroke="black"/>
<path d="M104,440v 6" fill="none" stroke="black"/>
<path d="M119,440v 6" fill="none" stroke="black"/>
<path d="M134,440v 6" fill="none" stroke="black"/>
<path d="M149,434v 12" fill="none" stroke="black"/>
<path d="M164,440v 6" fill="none" stroke="black"/>
<path d="M180,440v 6" fill="none" stroke="black"/>
<path d="M195,440v 6" fill="none" stroke="black"/>
<path d="M210,440v 6" fill="none" stroke="black"/>
<path d="M225,434v 12" fill="none" stroke="black"/>
<path d="M240,440v 6" fill="none" stroke="black"/>
<path d="M255,440v 6" fill="none" stroke="black"/>
<path d="M270,440v 6" fill="none" stroke="black"/>
<path d="M285,440v 6" fill="none" stroke="black"/>
<path d="M300,434v 12" fill="none" stroke="black"/>
<path d="M316,440v 6" fill="none" stroke="black"/>
<path d="M331,440v 6" fill="none" stroke="black"/>
<path d="M346,440v 6" fill="none" stroke="black"/>
<path d="M361,440v 6" fill="none" stroke="black"/>
<path d="M376,434v 12" fill="none" stroke="black"/>
<path d="M391,440v 6" fill="none" stroke="black"/>
<path d="M406,440v 6" fill="none" stroke="black"/>
<path d="M421,440v 6" fill="none" stroke="black"/>
<path d="M437,440v 6" fill="none" stroke="black"/>
<path d="M452,434v 12" fill="none" stroke="black"/>
<path d="M467,440v 6" fill="none" stroke="black"/>
<path d="M482,440v 6" fill="none" stroke="black"/>
<path d="M497,440v 6" fill="none" stroke="black"/>
<path d="M512,440v 6" fill="none" stroke="black"/>
<path d="M527,434v 12" fill="none" stroke="black"/>
<text x="68" y="465" fill="black" font-size="18" font-family="Helvetica" font-weight="bold">
0
</text>
<text x="134" y="465" fill="black" font-size="18" font-family="Helvetica" font-weight="bold">
100
</text>
<text x="209" y="465" fill="black" font-size="18" font-family="Helvetica" font-weight="bold">
200
</text>
<text x="285" y="465" fill="black" font-size="18" font-family="Helvetica" font-weight="bold">
300
</text>
<text x="360" y="465" fill="black" font-size="18" font-family="Helvetica" font-weight="bold">
400
</text>
<text x="436" y="465" fill="black" font-size="18" font-family="Helvetica" font-weight="bold">
500
</text>
<text x="512" y="465" fill="black" font-size="18" font-family="Helvetica" font-weight="bold">
600
</text>
<path d="M74,44h 453" fill="none" stroke="black"/>
<path d="M74,56v -12" fill="none" stroke="black"/>
<path d="M89,50v -6" fill="none" stroke="black"/>
<path d="M104,50v -6" fill="none" stroke="black"/>
<path d="M119,50v -6" fill="none" stroke="black"/>
<path d="M134,50v -6" fill="none" stroke="black"/>
<path d="M149,56v -12" fill="none" stroke="black"/>
<path d="M164,50v -6" fill="none" stroke="black"/>
<path d="M180,50v -6" fill="none" stroke="black"/>
<path d="M195,50v -6" fill="none" stroke="black"/>
<path d="M210,50v -6" fill="none" stroke="black"/>
<path d="M225,56v -12" fill="none" stroke="black"/>
<path d="M240,50v -6" fill="none" stroke="black"/>
<path d="M255,50v -6" fill="none" stroke="black"/>
<path d="M270,50v -6" fill="none" stroke="black"/>
<path d="M285,50v -6" fill="none" stroke="black"/>
<path d="M300,56v -12" fill="none" stroke="black"/>
<path d="M316,50v -6" fill="none" stroke="black"/>
<path d="M331,50v -6" fill="none" stroke="black"/>
<path d="M346,50v -6" fill="none" stroke="black"/>
<path d="M361,50v -6" fill="none" stroke="black"/>
<path d="M376,56v -12" fill="none" stroke="black"/>
<path d="M391,50v -6" fill="none" stroke="black"/>
<path d="M406,50v -6" fill="none" stroke="black"/>
<path d="M421,50v -6" fill="none" stroke="black"/>
<path d="M437,50v -6" fill="none" stroke="black"/>
<path d="M452,56v -12" fill="none" stroke="black"/>
<path d="M467,50v -6" fill="none" stroke="black"/>
<path d="M482,50v -6" fill="none" stroke="black"/>
<path d="M497,50v -6" fill="none" stroke="black"/>
<path d="M512,50v -6" fill="none" stroke="black"/>
<path d="M527,56v -12" fill="none" stroke="black"/>
<path d="M74,446v -402" fill="none" stroke="black"/>
<path d="M87,446h -13" fill="none" stroke="black"/>
<path d="M81,437h -7" fill="none" stroke="black"/>
<path d="M81,428h -7" fill="none" stroke="black"/>
<path d="M81,418h -7" fill="none" stroke="black"/>
<path d="M81,409h -7" fill="none" stroke="black"/>
<path d="M87,399h -13" fill="none" stroke="black"/>
<path d="M81,390h -7" fill="none" stroke="black"/>
<path d="M81,381h -7" fill="none" stroke="black"/>
<path d="M81,371h -7" fill="none" stroke="black"/>
<path d="M81,362h -7" fill="none" stroke="black"/>
<path d="M87,353h -13" fill="none" stroke="black"/>
<path d="M81,343h -7" fill="none" stroke="black"/>
<path d="M81,334h -7" fill="none" stroke="black"/>
<path d="M81,324h -7" fill="none" stroke="black"/>
<path d="M81,315h -7" fill="none" stroke="black"/>
<path d="M87,306h -13" fill="none" stroke="black"/>
<path d="M81,296h -7" fill="none" stroke="black"/>
<path d="M81,287h -7" fill="none" stroke="black"/>
<path d="M81,277h -7" fill="none" stroke="black"/>
<path d="M81,268h -7" fill="none" stroke="black"/>
<path d="M87,259h -13" fill="none" stroke="black"/>
<path d="M81,249h -7" fill="none" stroke="black"/>
<path d="M81,240h -7" fill="none" stroke="black"/>
<path d="M81,230h -7" fill="none" stroke="black"/>
<path d="M81,221h -7" fill="none" stroke="black"/>
<path d="M87,212h -13" fill="none" stroke="black"/>
<path d="M81,202h -7" fill="none" stroke="black"/>
<path d="M81,193h -7" fill="none" stroke="black"/>
<path d="M81,184h -7" fill="none" stroke="black"/>
<path d="M81,174h -7" fill="none" stroke="black"/>
<path d="M87,165h -13" fill="none" stroke="black"/>
<path d="M81,155h -7" fill="none" stroke="black"/>
<path d="M81,146h -7" fill="none" stroke="black"/>
<path d="M81,137h -7" fill="none" stroke="black"/>
<path d="M81,127h -7" fill="none" stroke="black"/>
<path d="M87,118h -13" fill="none" stroke="black"/>
<path d="M81,108h -7" fill="none" stroke="black"/>
<path d="M81,99h -7" fill="none" stroke="black"/>
<path d="M81,90h -7" fill="none" stroke="black"/>
<path d="M81,80h -7" fill="none" stroke="black"/>
<path d="M87,71h -13" fill="none" stroke="black"/>
<path d="M87,71h -13" fill="none" stroke="black"/>
<path d="M81,62h -7" fill="none" stroke="black"/>
<path d="M81,52h -7" fill="none" stroke="black"/>
<text x="61" y="453" fill="black" font-size="18" font-family="Helvetica" font-weight="bold">
0
</text>
<text x="47" y="406" fill="black" font-size="18" font-family="Helvetica" font-weight="bold">
0.1
</text>
<text x="45" y="359" fill="black" font-size="18" font-family="Helvetica" font-weight="bold">
0.2
</text>
<text x="45" y="312" fill="black" font-size="18" font-family="Helvetica" font-weight="bold">
0.3
</text>
<text x="44" y="265" fill="black" font-size="18" font-family="Helvetica" font-weight="bold">
0.4
</text>
<text x="45" y="218" fill="black" font-size="18" font-family="Helvetica" font-weight="bold">
0.5
</text>
<text x="45" y="172" fill="black" font-size="18" font-family="Helvetica" font-weight="bold">
0.6
</text>
<text x="45" y="124" fill="black" font-size="18" font-family="Helvetica" font-weight="bold">
0.7
</text>
<text x="45" y="78" fill="black" font-size="18" font-family="Helvetica" font-weight="bold">
0.8
</text>
<path d="M108,137v -1" fill="none" stroke="#99ff99" stroke-width="2"/>
<path d="M108,136v -2" fill="none" stroke="#99ff99" stroke-width="2"/>
<g stroke="black" stroke-width="2" fill="none">
<line x1="107" y1="136" x2="108" y2="136"/>
</g>
<path d="M115,322" fill="none" stroke="#99ff99" stroke-width="2"/>
<path d="M115,322v -1" fill="none" stroke="#99ff99" stroke-width="2"/>
<g stroke="black" stroke-width="2" fill="none">
<line x1="114" y1="322" x2="115" y2="322"/>
</g>
<path d="M123,413v -1" fill="none" stroke="#99ff99" stroke-width="2"/>
<path d="M123,412" fill="none" stroke="#99ff99" stroke-width="2"/>
<g stroke="black" stroke-width="2" fill="none">
<line x1="122" y1="412" x2="123" y2="412"/>
</g>
<path d="M74,446h 30v -310h 7v 186h 8v 90h 8v 34h 400z" fill="#99ff99"/>
<path d="M74,446h 30v -310h 7v 186h 8v 90h 8v 34h 400" fill="none" stroke="#99ff99" stroke-width="2"/>
<path d="M104,64h 3" fill="none" stroke="#ff0099"/>
<path d="M109,64h 2" fill="none" stroke="#ff0099"/>
<g stroke="#ff0099" stroke-width="1" fill="#ff0099">
<circle cx=" 108" cy=" 64" r=" 1.5"/>
</g>
<path d="M111,372h 3" fill="none" stroke="#ff0099"/>
<path d="M116,372h 3" fill="none" stroke="#ff0099"/>
<g stroke="#ff0099" stroke-width="1" fill="#ff0099">
<circle cx=" 115" cy=" 372" r=" 1.5"/>
</g>
<path d="M119,434h 3" fill="none" stroke="#ff0099"/>
<path d="M124,434h 3" fill="none" stroke="#ff0099"/>
<g stroke="#ff0099" stroke-width="1" fill="#ff0099">
<circle cx=" 123" cy=" 434" r=" 1.5"/>
</g>
<rect x="357" y="59" width="142" height="99" fill="white"/>
<text x="360" y="82" fill="black" font-size="17" font-family="Helvetica" font-weight="bold">
EB
</text>
<text x="457" y="115" fill="black" font-size="17" font-family="Helvetica" font-weight="bold">
 ee
</text>
<text x="440" y="115" fill="black" font-size="17" font-family="Times">
&#8594;
</text>
<text x="392" y="115" fill="black" font-size="17" font-family="Helvetica" font-weight="bold">
MC Z 
</text>
<path d="M362,109h 25" fill="none" stroke="#ff0099"/>
<g stroke="#ff0099" stroke-width="1" fill="#ff0099">
<circle cx=" 375" cy=" 109" r=" 1.5"/>
</g>
<text x="455" y="147" fill="black" font-size="17" font-family="Helvetica" font-weight="bold">
 + jet
</text>
<text x="447" y="147" fill="black" font-size="17" font-family="Times">
&#0947;
</text>
<text x="392" y="147" fill="black" font-size="17" font-family="Helvetica" font-weight="bold">
signal 
</text>
<path d="M362,154h 25v -24h -25z" fill="#99ff99"/>
<path d="M362,130h 25" fill="none" stroke="#99ff99" stroke-width="2"/>
<path d="M362,154h 25" fill="none" stroke="#99ff99" stroke-width="2"/>
<path d="M387,154v -24" fill="none" stroke="#99ff99" stroke-width="2"/>
<path d="M362,154v -24" fill="none" stroke="#99ff99" stroke-width="2"/>
<text x="300" y="34" fill="black" font-size="17" font-family="Helvetica" font-weight="bold">
=8 TeV
</text>
<text x="291" y="34" fill="black" font-size="17" font-family="Helvetica" font-weight="bold">
s
</text>
<path d="M285,25l 2, 10" fill="none" stroke="black" stroke-width="2"/>
<path d="M287,35l 2, -14" fill="none" stroke="black"/>
<path d="M289,21h 11" fill="none" stroke="black"/>
<text x="142" y="34" fill="black" font-size="17" font-family="Helvetica" font-weight="bold">
CMS Preliminary 
</text></svg>
