<?xml version="1.0" standalone="no"?>
<svg width="567" height="496" viewBox="0 0 567 496" xmlns="http://www.w3.org/2000/svg">
<title>
../src/TagAndProbeZ/plots_mcZee_mcGJet_withEtaR9rhoReweight/hlt30//r9PhotEB.svg
</title>
<desc>
Creator: ROOT Version 5.32/00
CreationDate: Fri Dec  5 12:49:11 2014</desc>
<defs>
</defs>
<rect x="0" y="0" width="567" height="496" fill="white"/>
<rect x="74" y="44" width="453" height="402" fill="white"/>
<rect x="74" y="44" width="453" height="402" fill="none" stroke="black"/>
<rect x="74" y="44" width="453" height="402" fill="white"/>
<rect x="74" y="44" width="453" height="402" fill="none" stroke="black"/>
<path d="M134,446h 3" fill="none" stroke="#ff0099"/>
<path d="M139,446h 3" fill="none" stroke="#ff0099"/>
<g stroke="#ff0099" stroke-width="1" fill="#ff0099">
<circle cx=" 138" cy=" 446" r=" 1.5"/>
</g>
<path d="M149,446h 3" fill="none" stroke="#ff0099"/>
<path d="M154,446h 3" fill="none" stroke="#ff0099"/>
<g stroke="#ff0099" stroke-width="1" fill="#ff0099">
<circle cx=" 153" cy=" 446" r=" 1.5"/>
</g>
<path d="M157,446h 2" fill="none" stroke="#ff0099"/>
<path d="M162,446h 2" fill="none" stroke="#ff0099"/>
<g stroke="#ff0099" stroke-width="1" fill="#ff0099">
<circle cx=" 161" cy=" 446" r=" 1.5"/>
</g>
<path d="M164,446h 3" fill="none" stroke="#ff0099"/>
<path d="M169,446h 3" fill="none" stroke="#ff0099"/>
<g stroke="#ff0099" stroke-width="1" fill="#ff0099">
<circle cx=" 168" cy=" 446" r=" 1.5"/>
</g>
<path d="M172,446h 3" fill="none" stroke="#ff0099"/>
<path d="M177,446h 3" fill="none" stroke="#ff0099"/>
<g stroke="#ff0099" stroke-width="1" fill="#ff0099">
<circle cx=" 176" cy=" 446" r=" 1.5"/>
</g>
<path d="M180,446h 2" fill="none" stroke="#ff0099"/>
<path d="M184,446h 3" fill="none" stroke="#ff0099"/>
<g stroke="#ff0099" stroke-width="1" fill="#ff0099">
<circle cx=" 183" cy=" 446" r=" 1.5"/>
</g>
<path d="M187,446h 3" fill="none" stroke="#ff0099"/>
<path d="M192,446h 3" fill="none" stroke="#ff0099"/>
<g stroke="#ff0099" stroke-width="1" fill="#ff0099">
<circle cx=" 191" cy=" 446" r=" 1.5"/>
</g>
<path d="M195,446h 2" fill="none" stroke="#ff0099"/>
<path d="M200,446h 2" fill="none" stroke="#ff0099"/>
<g stroke="#ff0099" stroke-width="1" fill="#ff0099">
<circle cx=" 198" cy=" 446" r=" 1.5"/>
</g>
<path d="M202,446h 3" fill="none" stroke="#ff0099"/>
<path d="M207,446h 3" fill="none" stroke="#ff0099"/>
<g stroke="#ff0099" stroke-width="1" fill="#ff0099">
<circle cx=" 206" cy=" 446" r=" 1.5"/>
</g>
<path d="M210,445h 2" fill="none" stroke="#ff0099"/>
<path d="M215,445h 2" fill="none" stroke="#ff0099"/>
<g stroke="#ff0099" stroke-width="1" fill="#ff0099">
<circle cx=" 214" cy=" 445" r=" 1.5"/>
</g>
<path d="M217,445h 3" fill="none" stroke="#ff0099"/>
<path d="M222,445h 3" fill="none" stroke="#ff0099"/>
<g stroke="#ff0099" stroke-width="1" fill="#ff0099">
<circle cx=" 221" cy=" 445" r=" 1.5"/>
</g>
<path d="M225,445h 3" fill="none" stroke="#ff0099"/>
<path d="M230,445h 2" fill="none" stroke="#ff0099"/>
<g stroke="#ff0099" stroke-width="1" fill="#ff0099">
<circle cx=" 229" cy=" 445" r=" 1.5"/>
</g>
<path d="M232,444h 3" fill="none" stroke="#ff0099"/>
<path d="M237,444h 3" fill="none" stroke="#ff0099"/>
<g stroke="#ff0099" stroke-width="1" fill="#ff0099">
<circle cx=" 236" cy=" 444" r=" 1.5"/>
</g>
<path d="M240,444h 3" fill="none" stroke="#ff0099"/>
<path d="M245,444h 3" fill="none" stroke="#ff0099"/>
<g stroke="#ff0099" stroke-width="1" fill="#ff0099">
<circle cx=" 244" cy=" 444" r=" 1.5"/>
</g>
<path d="M248,443h 2" fill="none" stroke="#ff0099"/>
<path d="M252,443h 3" fill="none" stroke="#ff0099"/>
<g stroke="#ff0099" stroke-width="1" fill="#ff0099">
<circle cx=" 251" cy=" 443" r=" 1.5"/>
</g>
<path d="M255,442h 3" fill="none" stroke="#ff0099"/>
<path d="M260,442h 3" fill="none" stroke="#ff0099"/>
<g stroke="#ff0099" stroke-width="1" fill="#ff0099">
<circle cx=" 259" cy=" 442" r=" 1.5"/>
</g>
<path d="M263,441h 2" fill="none" stroke="#ff0099"/>
<path d="M268,441h 2" fill="none" stroke="#ff0099"/>
<g stroke="#ff0099" stroke-width="1" fill="#ff0099">
<circle cx=" 266" cy=" 441" r=" 1.5"/>
</g>
<path d="M270,440h 3" fill="none" stroke="#ff0099"/>
<path d="M275,440h 3" fill="none" stroke="#ff0099"/>
<g stroke="#ff0099" stroke-width="1" fill="#ff0099">
<circle cx=" 274" cy=" 440" r=" 1.5"/>
</g>
<path d="M278,439h 2" fill="none" stroke="#ff0099"/>
<path d="M283,439h 2" fill="none" stroke="#ff0099"/>
<g stroke="#ff0099" stroke-width="1" fill="#ff0099">
<circle cx=" 282" cy=" 439" r=" 1.5"/>
</g>
<path d="M285,438h 3" fill="none" stroke="#ff0099"/>
<path d="M290,438h 3" fill="none" stroke="#ff0099"/>
<g stroke="#ff0099" stroke-width="1" fill="#ff0099">
<circle cx=" 289" cy=" 438" r=" 1.5"/>
</g>
<path d="M293,436h 3" fill="none" stroke="#ff0099"/>
<path d="M298,436h 2" fill="none" stroke="#ff0099"/>
<g stroke="#ff0099" stroke-width="1" fill="#ff0099">
<circle cx=" 297" cy=" 436" r=" 1.5"/>
</g>
<path d="M300,435h 3" fill="none" stroke="#ff0099"/>
<path d="M305,435h 3" fill="none" stroke="#ff0099"/>
<g stroke="#ff0099" stroke-width="1" fill="#ff0099">
<circle cx=" 304" cy=" 435" r=" 1.5"/>
</g>
<path d="M308,433h 3" fill="none" stroke="#ff0099"/>
<path d="M313,433h 3" fill="none" stroke="#ff0099"/>
<g stroke="#ff0099" stroke-width="1" fill="#ff0099">
<circle cx=" 312" cy=" 433" r=" 1.5"/>
</g>
<path d="M316,431h 2" fill="none" stroke="#ff0099"/>
<path d="M321,431h 2" fill="none" stroke="#ff0099"/>
<g stroke="#ff0099" stroke-width="1" fill="#ff0099">
<circle cx=" 319" cy=" 431" r=" 1.5"/>
</g>
<path d="M323,428h 3" fill="none" stroke="#ff0099"/>
<path d="M328,428h 3" fill="none" stroke="#ff0099"/>
<g stroke="#ff0099" stroke-width="1" fill="#ff0099">
<circle cx=" 327" cy=" 428" r=" 1.5"/>
</g>
<path d="M331,426h 2" fill="none" stroke="#ff0099"/>
<path d="M336,426h 2" fill="none" stroke="#ff0099"/>
<g stroke="#ff0099" stroke-width="1" fill="#ff0099">
<circle cx=" 334" cy=" 426" r=" 1.5"/>
</g>
<path d="M338,423h 3" fill="none" stroke="#ff0099"/>
<path d="M343,423h 3" fill="none" stroke="#ff0099"/>
<g stroke="#ff0099" stroke-width="1" fill="#ff0099">
<circle cx=" 342" cy=" 423" r=" 1.5"/>
</g>
<path d="M346,421h 2" fill="none" stroke="#ff0099"/>
<path d="M351,421h 2" fill="none" stroke="#ff0099"/>
<g stroke="#ff0099" stroke-width="1" fill="#ff0099">
<circle cx=" 350" cy=" 421" r=" 1.5"/>
</g>
<path d="M353,418h 3" fill="none" stroke="#ff0099"/>
<path d="M358,418h 3" fill="none" stroke="#ff0099"/>
<g stroke="#ff0099" stroke-width="1" fill="#ff0099">
<circle cx=" 357" cy=" 418" r=" 1.5"/>
</g>
<path d="M361,416h 3" fill="none" stroke="#ff0099"/>
<path d="M366,416h 3" fill="none" stroke="#ff0099"/>
<g stroke="#ff0099" stroke-width="1" fill="#ff0099">
<circle cx=" 365" cy=" 416" r=" 1.5"/>
</g>
<path d="M369,412h 2" fill="none" stroke="#ff0099"/>
<path d="M373,412h 3" fill="none" stroke="#ff0099"/>
<g stroke="#ff0099" stroke-width="1" fill="#ff0099">
<circle cx=" 372" cy=" 412" r=" 1.5"/>
</g>
<path d="M376,411h 3" fill="none" stroke="#ff0099"/>
<path d="M381,411h 3" fill="none" stroke="#ff0099"/>
<g stroke="#ff0099" stroke-width="1" fill="#ff0099">
<circle cx=" 380" cy=" 411" r=" 1.5"/>
</g>
<path d="M384,409h 2" fill="none" stroke="#ff0099"/>
<path d="M389,409h 2" fill="none" stroke="#ff0099"/>
<g stroke="#ff0099" stroke-width="1" fill="#ff0099">
<circle cx=" 387" cy=" 409" r=" 1.5"/>
</g>
<path d="M391,405h 3" fill="none" stroke="#ff0099"/>
<path d="M396,405h 3" fill="none" stroke="#ff0099"/>
<g stroke="#ff0099" stroke-width="1" fill="#ff0099">
<circle cx=" 395" cy=" 405" r=" 1.5"/>
</g>
<path d="M399,403h 2" fill="none" stroke="#ff0099"/>
<path d="M404,403h 2" fill="none" stroke="#ff0099"/>
<g stroke="#ff0099" stroke-width="1" fill="#ff0099">
<circle cx=" 403" cy=" 403" r=" 1.5"/>
</g>
<path d="M406,399h 3" fill="none" stroke="#ff0099"/>
<path d="M411,399h 3" fill="none" stroke="#ff0099"/>
<g stroke="#ff0099" stroke-width="1" fill="#ff0099">
<circle cx=" 410" cy=" 399" r=" 1.5"/>
</g>
<path d="M414,396h 2" fill="none" stroke="#ff0099"/>
<path d="M419,396h 2" fill="none" stroke="#ff0099"/>
<g stroke="#ff0099" stroke-width="1" fill="#ff0099">
<circle cx=" 418" cy=" 396" r=" 1.5"/>
</g>
<path d="M421,392h 3" fill="none" stroke="#ff0099"/>
<path d="M426,392h 3" fill="none" stroke="#ff0099"/>
<g stroke="#ff0099" stroke-width="1" fill="#ff0099">
<circle cx=" 425" cy=" 392" r=" 1.5"/>
</g>
<path d="M429,388h 3" fill="none" stroke="#ff0099"/>
<path d="M434,388h 3" fill="none" stroke="#ff0099"/>
<g stroke="#ff0099" stroke-width="1" fill="#ff0099">
<circle cx=" 433" cy=" 388" r=" 1.5"/>
</g>
<path d="M437,383h 2" fill="none" stroke="#ff0099"/>
<path d="M441,383h 3" fill="none" stroke="#ff0099"/>
<g stroke="#ff0099" stroke-width="1" fill="#ff0099">
<circle cx=" 440" cy=" 383" r=" 1.5"/>
</g>
<path d="M444,378h 3" fill="none" stroke="#ff0099"/>
<path d="M449,378h 3" fill="none" stroke="#ff0099"/>
<g stroke="#ff0099" stroke-width="1" fill="#ff0099">
<circle cx=" 448" cy=" 378" r=" 1.5"/>
</g>
<path d="M452,372h 2" fill="none" stroke="#ff0099"/>
<path d="M457,372h 2" fill="none" stroke="#ff0099"/>
<g stroke="#ff0099" stroke-width="1" fill="#ff0099">
<circle cx=" 455" cy=" 372" r=" 1.5"/>
</g>
<path d="M459,366h 3" fill="none" stroke="#ff0099"/>
<path d="M464,366h 3" fill="none" stroke="#ff0099"/>
<g stroke="#ff0099" stroke-width="1" fill="#ff0099">
<circle cx=" 463" cy=" 366" r=" 1.5"/>
</g>
<path d="M467,356h 2" fill="none" stroke="#ff0099"/>
<path d="M472,356h 2" fill="none" stroke="#ff0099"/>
<g stroke="#ff0099" stroke-width="1" fill="#ff0099">
<circle cx=" 471" cy=" 356" r=" 1.5"/>
</g>
<path d="M474,344h 3" fill="none" stroke="#ff0099"/>
<path d="M479,344h 3" fill="none" stroke="#ff0099"/>
<g stroke="#ff0099" stroke-width="1" fill="#ff0099">
<circle cx=" 478" cy=" 344" r=" 1.5"/>
</g>
<path d="M482,315h 3" fill="none" stroke="#ff0099"/>
<path d="M487,315h 2" fill="none" stroke="#ff0099"/>
<g stroke="#ff0099" stroke-width="1" fill="#ff0099">
<circle cx=" 486" cy=" 315" r=" 1.5"/>
</g>
<path d="M489,247h 3" fill="none" stroke="#ff0099"/>
<path d="M494,247h 3" fill="none" stroke="#ff0099"/>
<g stroke="#ff0099" stroke-width="1" fill="#ff0099">
<circle cx=" 493" cy=" 247" r=" 1.5"/>
</g>
<path d="M501,66" fill="none" stroke="#ff0099"/>
<path d="M501,64v -1" fill="none" stroke="#ff0099"/>
<path d="M497,65h 3" fill="none" stroke="#ff0099"/>
<path d="M502,65h 3" fill="none" stroke="#ff0099"/>
<g stroke="#ff0099" stroke-width="1" fill="#ff0099">
<circle cx=" 501" cy=" 65" r=" 1.5"/>
</g>
<path d="M505,91h 2" fill="none" stroke="#ff0099"/>
<path d="M509,91h 3" fill="none" stroke="#ff0099"/>
<g stroke="#ff0099" stroke-width="1" fill="#ff0099">
<circle cx=" 508" cy=" 91" r=" 1.5"/>
</g>
<path d="M512,430h 3" fill="none" stroke="#ff0099"/>
<path d="M517,430h 3" fill="none" stroke="#ff0099"/>
<g stroke="#ff0099" stroke-width="1" fill="#ff0099">
<circle cx=" 516" cy=" 430" r=" 1.5"/>
</g>
<path d="M520,446h 2" fill="none" stroke="#ff0099"/>
<path d="M525,446h 2" fill="none" stroke="#ff0099"/>
<g stroke="#ff0099" stroke-width="1" fill="#ff0099">
<circle cx=" 523" cy=" 446" r=" 1.5"/>
</g>
<path d="M74,446h 453" fill="none" stroke="black"/>
<path d="M74,434v 12" fill="none" stroke="black"/>
<path d="M83,440v 6" fill="none" stroke="black"/>
<path d="M92,440v 6" fill="none" stroke="black"/>
<path d="M101,440v 6" fill="none" stroke="black"/>
<path d="M110,440v 6" fill="none" stroke="black"/>
<path d="M119,434v 12" fill="none" stroke="black"/>
<path d="M128,440v 6" fill="none" stroke="black"/>
<path d="M137,440v 6" fill="none" stroke="black"/>
<path d="M146,440v 6" fill="none" stroke="black"/>
<path d="M155,440v 6" fill="none" stroke="black"/>
<path d="M164,434v 12" fill="none" stroke="black"/>
<path d="M173,440v 6" fill="none" stroke="black"/>
<path d="M183,440v 6" fill="none" stroke="black"/>
<path d="M192,440v 6" fill="none" stroke="black"/>
<path d="M201,440v 6" fill="none" stroke="black"/>
<path d="M210,434v 12" fill="none" stroke="black"/>
<path d="M219,440v 6" fill="none" stroke="black"/>
<path d="M228,440v 6" fill="none" stroke="black"/>
<path d="M237,440v 6" fill="none" stroke="black"/>
<path d="M246,440v 6" fill="none" stroke="black"/>
<path d="M255,434v 12" fill="none" stroke="black"/>
<path d="M264,440v 6" fill="none" stroke="black"/>
<path d="M273,440v 6" fill="none" stroke="black"/>
<path d="M282,440v 6" fill="none" stroke="black"/>
<path d="M291,440v 6" fill="none" stroke="black"/>
<path d="M300,434v 12" fill="none" stroke="black"/>
<path d="M310,440v 6" fill="none" stroke="black"/>
<path d="M319,440v 6" fill="none" stroke="black"/>
<path d="M328,440v 6" fill="none" stroke="black"/>
<path d="M337,440v 6" fill="none" stroke="black"/>
<path d="M346,434v 12" fill="none" stroke="black"/>
<path d="M355,440v 6" fill="none" stroke="black"/>
<path d="M364,440v 6" fill="none" stroke="black"/>
<path d="M373,440v 6" fill="none" stroke="black"/>
<path d="M382,440v 6" fill="none" stroke="black"/>
<path d="M391,434v 12" fill="none" stroke="black"/>
<path d="M400,440v 6" fill="none" stroke="black"/>
<path d="M409,440v 6" fill="none" stroke="black"/>
<path d="M418,440v 6" fill="none" stroke="black"/>
<path d="M427,440v 6" fill="none" stroke="black"/>
<path d="M437,434v 12" fill="none" stroke="black"/>
<path d="M446,440v 6" fill="none" stroke="black"/>
<path d="M455,440v 6" fill="none" stroke="black"/>
<path d="M464,440v 6" fill="none" stroke="black"/>
<path d="M473,440v 6" fill="none" stroke="black"/>
<path d="M482,434v 12" fill="none" stroke="black"/>
<path d="M491,440v 6" fill="none" stroke="black"/>
<path d="M500,440v 6" fill="none" stroke="black"/>
<path d="M509,440v 6" fill="none" stroke="black"/>
<path d="M518,440v 6" fill="none" stroke="black"/>
<path d="M527,434v 12" fill="none" stroke="black"/>
<text x="68" y="465" fill="black" font-size="18" font-family="Helvetica" font-weight="bold">
0
</text>
<text x="107" y="465" fill="black" font-size="18" font-family="Helvetica" font-weight="bold">
0.1
</text>
<text x="151" y="465" fill="black" font-size="18" font-family="Helvetica" font-weight="bold">
0.2
</text>
<text x="196" y="465" fill="black" font-size="18" font-family="Helvetica" font-weight="bold">
0.3
</text>
<text x="242" y="465" fill="black" font-size="18" font-family="Helvetica" font-weight="bold">
0.4
</text>
<text x="287" y="465" fill="black" font-size="18" font-family="Helvetica" font-weight="bold">
0.5
</text>
<text x="332" y="465" fill="black" font-size="18" font-family="Helvetica" font-weight="bold">
0.6
</text>
<text x="378" y="465" fill="black" font-size="18" font-family="Helvetica" font-weight="bold">
0.7
</text>
<text x="423" y="465" fill="black" font-size="18" font-family="Helvetica" font-weight="bold">
0.8
</text>
<text x="468" y="465" fill="black" font-size="18" font-family="Helvetica" font-weight="bold">
0.9
</text>
<text x="523" y="465" fill="black" font-size="18" font-family="Helvetica" font-weight="bold">
1
</text>
<path d="M74,44h 453" fill="none" stroke="black"/>
<path d="M74,56v -12" fill="none" stroke="black"/>
<path d="M83,50v -6" fill="none" stroke="black"/>
<path d="M92,50v -6" fill="none" stroke="black"/>
<path d="M101,50v -6" fill="none" stroke="black"/>
<path d="M110,50v -6" fill="none" stroke="black"/>
<path d="M119,56v -12" fill="none" stroke="black"/>
<path d="M128,50v -6" fill="none" stroke="black"/>
<path d="M137,50v -6" fill="none" stroke="black"/>
<path d="M146,50v -6" fill="none" stroke="black"/>
<path d="M155,50v -6" fill="none" stroke="black"/>
<path d="M164,56v -12" fill="none" stroke="black"/>
<path d="M173,50v -6" fill="none" stroke="black"/>
<path d="M183,50v -6" fill="none" stroke="black"/>
<path d="M192,50v -6" fill="none" stroke="black"/>
<path d="M201,50v -6" fill="none" stroke="black"/>
<path d="M210,56v -12" fill="none" stroke="black"/>
<path d="M219,50v -6" fill="none" stroke="black"/>
<path d="M228,50v -6" fill="none" stroke="black"/>
<path d="M237,50v -6" fill="none" stroke="black"/>
<path d="M246,50v -6" fill="none" stroke="black"/>
<path d="M255,56v -12" fill="none" stroke="black"/>
<path d="M264,50v -6" fill="none" stroke="black"/>
<path d="M273,50v -6" fill="none" stroke="black"/>
<path d="M282,50v -6" fill="none" stroke="black"/>
<path d="M291,50v -6" fill="none" stroke="black"/>
<path d="M300,56v -12" fill="none" stroke="black"/>
<path d="M310,50v -6" fill="none" stroke="black"/>
<path d="M319,50v -6" fill="none" stroke="black"/>
<path d="M328,50v -6" fill="none" stroke="black"/>
<path d="M337,50v -6" fill="none" stroke="black"/>
<path d="M346,56v -12" fill="none" stroke="black"/>
<path d="M355,50v -6" fill="none" stroke="black"/>
<path d="M364,50v -6" fill="none" stroke="black"/>
<path d="M373,50v -6" fill="none" stroke="black"/>
<path d="M382,50v -6" fill="none" stroke="black"/>
<path d="M391,56v -12" fill="none" stroke="black"/>
<path d="M400,50v -6" fill="none" stroke="black"/>
<path d="M409,50v -6" fill="none" stroke="black"/>
<path d="M418,50v -6" fill="none" stroke="black"/>
<path d="M427,50v -6" fill="none" stroke="black"/>
<path d="M437,56v -12" fill="none" stroke="black"/>
<path d="M446,50v -6" fill="none" stroke="black"/>
<path d="M455,50v -6" fill="none" stroke="black"/>
<path d="M464,50v -6" fill="none" stroke="black"/>
<path d="M473,50v -6" fill="none" stroke="black"/>
<path d="M482,56v -12" fill="none" stroke="black"/>
<path d="M491,50v -6" fill="none" stroke="black"/>
<path d="M500,50v -6" fill="none" stroke="black"/>
<path d="M509,50v -6" fill="none" stroke="black"/>
<path d="M518,50v -6" fill="none" stroke="black"/>
<path d="M527,56v -12" fill="none" stroke="black"/>
<path d="M74,446v -402" fill="none" stroke="black"/>
<path d="M87,446h -13" fill="none" stroke="black"/>
<path d="M81,435h -7" fill="none" stroke="black"/>
<path d="M81,424h -7" fill="none" stroke="black"/>
<path d="M81,413h -7" fill="none" stroke="black"/>
<path d="M87,402h -13" fill="none" stroke="black"/>
<path d="M81,391h -7" fill="none" stroke="black"/>
<path d="M81,380h -7" fill="none" stroke="black"/>
<path d="M81,369h -7" fill="none" stroke="black"/>
<path d="M87,358h -13" fill="none" stroke="black"/>
<path d="M81,347h -7" fill="none" stroke="black"/>
<path d="M81,336h -7" fill="none" stroke="black"/>
<path d="M81,325h -7" fill="none" stroke="black"/>
<path d="M87,314h -13" fill="none" stroke="black"/>
<path d="M81,303h -7" fill="none" stroke="black"/>
<path d="M81,292h -7" fill="none" stroke="black"/>
<path d="M81,281h -7" fill="none" stroke="black"/>
<path d="M87,270h -13" fill="none" stroke="black"/>
<path d="M81,259h -7" fill="none" stroke="black"/>
<path d="M81,248h -7" fill="none" stroke="black"/>
<path d="M81,237h -7" fill="none" stroke="black"/>
<path d="M87,226h -13" fill="none" stroke="black"/>
<path d="M81,215h -7" fill="none" stroke="black"/>
<path d="M81,204h -7" fill="none" stroke="black"/>
<path d="M81,193h -7" fill="none" stroke="black"/>
<path d="M87,182h -13" fill="none" stroke="black"/>
<path d="M81,170h -7" fill="none" stroke="black"/>
<path d="M81,159h -7" fill="none" stroke="black"/>
<path d="M81,148h -7" fill="none" stroke="black"/>
<path d="M87,137h -13" fill="none" stroke="black"/>
<path d="M81,126h -7" fill="none" stroke="black"/>
<path d="M81,115h -7" fill="none" stroke="black"/>
<path d="M81,104h -7" fill="none" stroke="black"/>
<path d="M87,93h -13" fill="none" stroke="black"/>
<path d="M81,82h -7" fill="none" stroke="black"/>
<path d="M81,71h -7" fill="none" stroke="black"/>
<path d="M81,60h -7" fill="none" stroke="black"/>
<path d="M87,49h -13" fill="none" stroke="black"/>
<path d="M87,49h -13" fill="none" stroke="black"/>
<text x="61" y="453" fill="black" font-size="18" font-family="Helvetica" font-weight="bold">
0
</text>
<text x="35" y="409" fill="black" font-size="18" font-family="Helvetica" font-weight="bold">
0.02
</text>
<text x="34" y="365" fill="black" font-size="18" font-family="Helvetica" font-weight="bold">
0.04
</text>
<text x="34" y="321" fill="black" font-size="18" font-family="Helvetica" font-weight="bold">
0.06
</text>
<text x="35" y="276" fill="black" font-size="18" font-family="Helvetica" font-weight="bold">
0.08
</text>
<text x="47" y="232" fill="black" font-size="18" font-family="Helvetica" font-weight="bold">
0.1
</text>
<text x="35" y="188" fill="black" font-size="18" font-family="Helvetica" font-weight="bold">
0.12
</text>
<text x="34" y="144" fill="black" font-size="18" font-family="Helvetica" font-weight="bold">
0.14
</text>
<text x="34" y="100" fill="black" font-size="18" font-family="Helvetica" font-weight="bold">
0.16
</text>
<text x="35" y="55" fill="black" font-size="18" font-family="Helvetica" font-weight="bold">
0.18
</text>
<path d="M146,446" fill="none" stroke="#99ff99" stroke-width="2"/>
<path d="M146,446" fill="none" stroke="#99ff99" stroke-width="2"/>
<g stroke="black" stroke-width="2" fill="none">
<line x1="145" y1="446" x2="146" y2="446"/>
</g>
<path d="M153,446" fill="none" stroke="#99ff99" stroke-width="2"/>
<path d="M153,446" fill="none" stroke="#99ff99" stroke-width="2"/>
<g stroke="black" stroke-width="2" fill="none">
<line x1="152" y1="446" x2="153" y2="446"/>
</g>
<path d="M161,446" fill="none" stroke="#99ff99" stroke-width="2"/>
<path d="M161,446" fill="none" stroke="#99ff99" stroke-width="2"/>
<g stroke="black" stroke-width="2" fill="none">
<line x1="160" y1="446" x2="161" y2="446"/>
</g>
<path d="M168,446" fill="none" stroke="#99ff99" stroke-width="2"/>
<path d="M168,446" fill="none" stroke="#99ff99" stroke-width="2"/>
<g stroke="black" stroke-width="2" fill="none">
<line x1="167" y1="446" x2="168" y2="446"/>
</g>
<path d="M176,446" fill="none" stroke="#99ff99" stroke-width="2"/>
<path d="M176,446" fill="none" stroke="#99ff99" stroke-width="2"/>
<g stroke="black" stroke-width="2" fill="none">
<line x1="175" y1="446" x2="176" y2="446"/>
</g>
<path d="M183,446" fill="none" stroke="#99ff99" stroke-width="2"/>
<path d="M183,446" fill="none" stroke="#99ff99" stroke-width="2"/>
<g stroke="black" stroke-width="2" fill="none">
<line x1="182" y1="446" x2="183" y2="446"/>
</g>
<path d="M191,446" fill="none" stroke="#99ff99" stroke-width="2"/>
<path d="M191,446" fill="none" stroke="#99ff99" stroke-width="2"/>
<g stroke="black" stroke-width="2" fill="none">
<line x1="190" y1="446" x2="191" y2="446"/>
</g>
<path d="M198,446" fill="none" stroke="#99ff99" stroke-width="2"/>
<path d="M198,446" fill="none" stroke="#99ff99" stroke-width="2"/>
<g stroke="black" stroke-width="2" fill="none">
<line x1="197" y1="446" x2="198" y2="446"/>
</g>
<path d="M206,446" fill="none" stroke="#99ff99" stroke-width="2"/>
<path d="M206,446" fill="none" stroke="#99ff99" stroke-width="2"/>
<g stroke="black" stroke-width="2" fill="none">
<line x1="205" y1="446" x2="206" y2="446"/>
</g>
<path d="M214,446" fill="none" stroke="#99ff99" stroke-width="2"/>
<path d="M214,446v -1" fill="none" stroke="#99ff99" stroke-width="2"/>
<g stroke="black" stroke-width="2" fill="none">
<line x1="213" y1="446" x2="214" y2="446"/>
</g>
<path d="M221,445" fill="none" stroke="#99ff99" stroke-width="2"/>
<path d="M221,445" fill="none" stroke="#99ff99" stroke-width="2"/>
<g stroke="black" stroke-width="2" fill="none">
<line x1="220" y1="445" x2="221" y2="445"/>
</g>
<path d="M229,445v -1" fill="none" stroke="#99ff99" stroke-width="2"/>
<path d="M229,444" fill="none" stroke="#99ff99" stroke-width="2"/>
<g stroke="black" stroke-width="2" fill="none">
<line x1="228" y1="444" x2="229" y2="444"/>
</g>
<path d="M236,444" fill="none" stroke="#99ff99" stroke-width="2"/>
<path d="M236,444" fill="none" stroke="#99ff99" stroke-width="2"/>
<g stroke="black" stroke-width="2" fill="none">
<line x1="235" y1="444" x2="236" y2="444"/>
</g>
<path d="M244,444v -1" fill="none" stroke="#99ff99" stroke-width="2"/>
<path d="M244,443" fill="none" stroke="#99ff99" stroke-width="2"/>
<g stroke="black" stroke-width="2" fill="none">
<line x1="243" y1="443" x2="244" y2="443"/>
</g>
<path d="M251,443" fill="none" stroke="#99ff99" stroke-width="2"/>
<path d="M251,443" fill="none" stroke="#99ff99" stroke-width="2"/>
<g stroke="black" stroke-width="2" fill="none">
<line x1="250" y1="443" x2="251" y2="443"/>
</g>
<path d="M259,442" fill="none" stroke="#99ff99" stroke-width="2"/>
<path d="M259,442v -1" fill="none" stroke="#99ff99" stroke-width="2"/>
<g stroke="black" stroke-width="2" fill="none">
<line x1="258" y1="442" x2="259" y2="442"/>
</g>
<path d="M266,442v -1" fill="none" stroke="#99ff99" stroke-width="2"/>
<path d="M266,441" fill="none" stroke="#99ff99" stroke-width="2"/>
<g stroke="black" stroke-width="2" fill="none">
<line x1="265" y1="441" x2="266" y2="441"/>
</g>
<path d="M274,441" fill="none" stroke="#99ff99" stroke-width="2"/>
<path d="M274,441v -1" fill="none" stroke="#99ff99" stroke-width="2"/>
<g stroke="black" stroke-width="2" fill="none">
<line x1="273" y1="441" x2="274" y2="441"/>
</g>
<path d="M282,440v -1" fill="none" stroke="#99ff99" stroke-width="2"/>
<path d="M282,439" fill="none" stroke="#99ff99" stroke-width="2"/>
<g stroke="black" stroke-width="2" fill="none">
<line x1="281" y1="439" x2="282" y2="439"/>
</g>
<path d="M289,439v -1" fill="none" stroke="#99ff99" stroke-width="2"/>
<path d="M289,438" fill="none" stroke="#99ff99" stroke-width="2"/>
<g stroke="black" stroke-width="2" fill="none">
<line x1="288" y1="438" x2="289" y2="438"/>
</g>
<path d="M297,437" fill="none" stroke="#99ff99" stroke-width="2"/>
<path d="M297,437v -1" fill="none" stroke="#99ff99" stroke-width="2"/>
<g stroke="black" stroke-width="2" fill="none">
<line x1="296" y1="437" x2="297" y2="437"/>
</g>
<path d="M304,437v -1" fill="none" stroke="#99ff99" stroke-width="2"/>
<path d="M304,436" fill="none" stroke="#99ff99" stroke-width="2"/>
<g stroke="black" stroke-width="2" fill="none">
<line x1="303" y1="436" x2="304" y2="436"/>
</g>
<path d="M312,435" fill="none" stroke="#99ff99" stroke-width="2"/>
<path d="M312,435v -1" fill="none" stroke="#99ff99" stroke-width="2"/>
<g stroke="black" stroke-width="2" fill="none">
<line x1="311" y1="435" x2="312" y2="435"/>
</g>
<path d="M319,434v -1" fill="none" stroke="#99ff99" stroke-width="2"/>
<path d="M319,433" fill="none" stroke="#99ff99" stroke-width="2"/>
<g stroke="black" stroke-width="2" fill="none">
<line x1="318" y1="433" x2="319" y2="433"/>
</g>
<path d="M327,433v -1" fill="none" stroke="#99ff99" stroke-width="2"/>
<path d="M327,432v -1" fill="none" stroke="#99ff99" stroke-width="2"/>
<g stroke="black" stroke-width="2" fill="none">
<line x1="326" y1="432" x2="327" y2="432"/>
</g>
<path d="M334,432v -1" fill="none" stroke="#99ff99" stroke-width="2"/>
<path d="M334,431v -1" fill="none" stroke="#99ff99" stroke-width="2"/>
<g stroke="black" stroke-width="2" fill="none">
<line x1="333" y1="431" x2="334" y2="431"/>
</g>
<path d="M342,431v -1" fill="none" stroke="#99ff99" stroke-width="2"/>
<path d="M342,430v -1" fill="none" stroke="#99ff99" stroke-width="2"/>
<g stroke="black" stroke-width="2" fill="none">
<line x1="341" y1="430" x2="342" y2="430"/>
</g>
<path d="M350,429" fill="none" stroke="#99ff99" stroke-width="2"/>
<path d="M350,429v -1" fill="none" stroke="#99ff99" stroke-width="2"/>
<g stroke="black" stroke-width="2" fill="none">
<line x1="349" y1="429" x2="350" y2="429"/>
</g>
<path d="M357,427" fill="none" stroke="#99ff99" stroke-width="2"/>
<path d="M357,427v -1" fill="none" stroke="#99ff99" stroke-width="2"/>
<g stroke="black" stroke-width="2" fill="none">
<line x1="356" y1="427" x2="357" y2="427"/>
</g>
<path d="M365,427v -1" fill="none" stroke="#99ff99" stroke-width="2"/>
<path d="M365,426" fill="none" stroke="#99ff99" stroke-width="2"/>
<g stroke="black" stroke-width="2" fill="none">
<line x1="364" y1="426" x2="365" y2="426"/>
</g>
<path d="M372,426v -1" fill="none" stroke="#99ff99" stroke-width="2"/>
<path d="M372,425" fill="none" stroke="#99ff99" stroke-width="2"/>
<g stroke="black" stroke-width="2" fill="none">
<line x1="371" y1="425" x2="372" y2="425"/>
</g>
<path d="M380,425v -1" fill="none" stroke="#99ff99" stroke-width="2"/>
<path d="M380,424" fill="none" stroke="#99ff99" stroke-width="2"/>
<g stroke="black" stroke-width="2" fill="none">
<line x1="379" y1="424" x2="380" y2="424"/>
</g>
<path d="M387,423v -1" fill="none" stroke="#99ff99" stroke-width="2"/>
<path d="M387,422v -1" fill="none" stroke="#99ff99" stroke-width="2"/>
<g stroke="black" stroke-width="2" fill="none">
<line x1="386" y1="422" x2="387" y2="422"/>
</g>
<path d="M395,421v -1" fill="none" stroke="#99ff99" stroke-width="2"/>
<path d="M395,420v -1" fill="none" stroke="#99ff99" stroke-width="2"/>
<g stroke="black" stroke-width="2" fill="none">
<line x1="394" y1="420" x2="395" y2="420"/>
</g>
<path d="M403,420" fill="none" stroke="#99ff99" stroke-width="2"/>
<path d="M403,420v -1" fill="none" stroke="#99ff99" stroke-width="2"/>
<g stroke="black" stroke-width="2" fill="none">
<line x1="402" y1="420" x2="403" y2="420"/>
</g>
<path d="M410,418" fill="none" stroke="#99ff99" stroke-width="2"/>
<path d="M410,418v -1" fill="none" stroke="#99ff99" stroke-width="2"/>
<g stroke="black" stroke-width="2" fill="none">
<line x1="409" y1="418" x2="410" y2="418"/>
</g>
<path d="M418,417v -1" fill="none" stroke="#99ff99" stroke-width="2"/>
<path d="M418,416v -1" fill="none" stroke="#99ff99" stroke-width="2"/>
<g stroke="black" stroke-width="2" fill="none">
<line x1="417" y1="416" x2="418" y2="416"/>
</g>
<path d="M425,415v -1" fill="none" stroke="#99ff99" stroke-width="2"/>
<path d="M425,414v -1" fill="none" stroke="#99ff99" stroke-width="2"/>
<g stroke="black" stroke-width="2" fill="none">
<line x1="424" y1="414" x2="425" y2="414"/>
</g>
<path d="M433,413v -1" fill="none" stroke="#99ff99" stroke-width="2"/>
<path d="M433,412v -1" fill="none" stroke="#99ff99" stroke-width="2"/>
<g stroke="black" stroke-width="2" fill="none">
<line x1="432" y1="412" x2="433" y2="412"/>
</g>
<path d="M440,413v -1" fill="none" stroke="#99ff99" stroke-width="2"/>
<path d="M440,412v -1" fill="none" stroke="#99ff99" stroke-width="2"/>
<g stroke="black" stroke-width="2" fill="none">
<line x1="439" y1="412" x2="440" y2="412"/>
</g>
<path d="M448,411v -1" fill="none" stroke="#99ff99" stroke-width="2"/>
<path d="M448,410v -1" fill="none" stroke="#99ff99" stroke-width="2"/>
<g stroke="black" stroke-width="2" fill="none">
<line x1="447" y1="410" x2="448" y2="410"/>
</g>
<path d="M455,406v -1" fill="none" stroke="#99ff99" stroke-width="2"/>
<path d="M455,405v -1" fill="none" stroke="#99ff99" stroke-width="2"/>
<g stroke="black" stroke-width="2" fill="none">
<line x1="454" y1="405" x2="455" y2="405"/>
</g>
<path d="M463,407v -1" fill="none" stroke="#99ff99" stroke-width="2"/>
<path d="M463,406v -1" fill="none" stroke="#99ff99" stroke-width="2"/>
<g stroke="black" stroke-width="2" fill="none">
<line x1="462" y1="406" x2="463" y2="406"/>
</g>
<path d="M471,402v -1" fill="none" stroke="#99ff99" stroke-width="2"/>
<path d="M471,401v -1" fill="none" stroke="#99ff99" stroke-width="2"/>
<g stroke="black" stroke-width="2" fill="none">
<line x1="470" y1="401" x2="471" y2="401"/>
</g>
<path d="M478,395v -1" fill="none" stroke="#99ff99" stroke-width="2"/>
<path d="M478,394v -1" fill="none" stroke="#99ff99" stroke-width="2"/>
<g stroke="black" stroke-width="2" fill="none">
<line x1="477" y1="394" x2="478" y2="394"/>
</g>
<path d="M486,381v -1" fill="none" stroke="#99ff99" stroke-width="2"/>
<path d="M486,380v -1" fill="none" stroke="#99ff99" stroke-width="2"/>
<g stroke="black" stroke-width="2" fill="none">
<line x1="485" y1="380" x2="486" y2="380"/>
</g>
<path d="M493,319v -2" fill="none" stroke="#99ff99" stroke-width="2"/>
<path d="M493,317v -1" fill="none" stroke="#99ff99" stroke-width="2"/>
<g stroke="black" stroke-width="2" fill="none">
<line x1="492" y1="317" x2="493" y2="317"/>
</g>
<path d="M516,379v -1" fill="none" stroke="#99ff99" stroke-width="2"/>
<path d="M516,378v -1" fill="none" stroke="#99ff99" stroke-width="2"/>
<g stroke="black" stroke-width="2" fill="none">
<line x1="515" y1="378" x2="516" y2="378"/>
</g>
<path d="M523,446" fill="none" stroke="#99ff99" stroke-width="2"/>
<path d="M523,446" fill="none" stroke="#99ff99" stroke-width="2"/>
<g stroke="black" stroke-width="2" fill="none">
<line x1="522" y1="446" x2="523" y2="446"/>
</g>
<path d="M74,446h 143v -1h 8v -1h 15v -1h 15v -1h 8v -1h 15v -2h 7v -1h 8v -1h 7v -1h 8v -1h 8v -2h 7v -1h 8v -1h 7v -1h 8v -1h 7v -2h 8v -1h 8v -1h 7v -1h 8v -2h 7v -2h 15v -2h 8v -2h 7v -2h 8v -2h 15v -2h 8v -5h 7v 1h 8v -5h 7v -7h 8v -14h 7v -63h
 8v -273h 15v 334h 8v 68h 7z" fill="#99ff99"/>
<path d="M74,446h 143v -1h 8v -1h 15v -1h 15v -1h 8v -1h 15v -2h 7v -1h 8v -1h 7v -1h 8v -1h 8v -2h 7v -1h 8v -1h 7v -1h 8v -1h 7v -2h 8v -1h 8v -1h 7v -1h 8v -2h 7v -2h 15v -2h 8v -2h 7v -2h 8v -2h 15v -2h 8v -5h 7v 1h 8v -5h 7v -7h 8v -14h 7v -63h
 8v -273" fill="none" stroke="#99ff99" stroke-width="2"/>
<path d="M512,44v 334" fill="none" stroke="#99ff99" stroke-width="2"/>
<path d="M512,378h 8v 68h 7" fill="none" stroke="#99ff99" stroke-width="2"/>
<path d="M134,446h 3" fill="none" stroke="#ff0099"/>
<path d="M139,446h 3" fill="none" stroke="#ff0099"/>
<g stroke="#ff0099" stroke-width="1" fill="#ff0099">
<circle cx=" 138" cy=" 446" r=" 1.5"/>
</g>
<path d="M149,446h 3" fill="none" stroke="#ff0099"/>
<path d="M154,446h 3" fill="none" stroke="#ff0099"/>
<g stroke="#ff0099" stroke-width="1" fill="#ff0099">
<circle cx=" 153" cy=" 446" r=" 1.5"/>
</g>
<path d="M157,446h 2" fill="none" stroke="#ff0099"/>
<path d="M162,446h 2" fill="none" stroke="#ff0099"/>
<g stroke="#ff0099" stroke-width="1" fill="#ff0099">
<circle cx=" 161" cy=" 446" r=" 1.5"/>
</g>
<path d="M164,446h 3" fill="none" stroke="#ff0099"/>
<path d="M169,446h 3" fill="none" stroke="#ff0099"/>
<g stroke="#ff0099" stroke-width="1" fill="#ff0099">
<circle cx=" 168" cy=" 446" r=" 1.5"/>
</g>
<path d="M172,446h 3" fill="none" stroke="#ff0099"/>
<path d="M177,446h 3" fill="none" stroke="#ff0099"/>
<g stroke="#ff0099" stroke-width="1" fill="#ff0099">
<circle cx=" 176" cy=" 446" r=" 1.5"/>
</g>
<path d="M180,446h 2" fill="none" stroke="#ff0099"/>
<path d="M184,446h 3" fill="none" stroke="#ff0099"/>
<g stroke="#ff0099" stroke-width="1" fill="#ff0099">
<circle cx=" 183" cy=" 446" r=" 1.5"/>
</g>
<path d="M187,446h 3" fill="none" stroke="#ff0099"/>
<path d="M192,446h 3" fill="none" stroke="#ff0099"/>
<g stroke="#ff0099" stroke-width="1" fill="#ff0099">
<circle cx=" 191" cy=" 446" r=" 1.5"/>
</g>
<path d="M195,446h 2" fill="none" stroke="#ff0099"/>
<path d="M200,446h 2" fill="none" stroke="#ff0099"/>
<g stroke="#ff0099" stroke-width="1" fill="#ff0099">
<circle cx=" 198" cy=" 446" r=" 1.5"/>
</g>
<path d="M202,446h 3" fill="none" stroke="#ff0099"/>
<path d="M207,446h 3" fill="none" stroke="#ff0099"/>
<g stroke="#ff0099" stroke-width="1" fill="#ff0099">
<circle cx=" 206" cy=" 446" r=" 1.5"/>
</g>
<path d="M210,445h 2" fill="none" stroke="#ff0099"/>
<path d="M215,445h 2" fill="none" stroke="#ff0099"/>
<g stroke="#ff0099" stroke-width="1" fill="#ff0099">
<circle cx=" 214" cy=" 445" r=" 1.5"/>
</g>
<path d="M217,445h 3" fill="none" stroke="#ff0099"/>
<path d="M222,445h 3" fill="none" stroke="#ff0099"/>
<g stroke="#ff0099" stroke-width="1" fill="#ff0099">
<circle cx=" 221" cy=" 445" r=" 1.5"/>
</g>
<path d="M225,445h 3" fill="none" stroke="#ff0099"/>
<path d="M230,445h 2" fill="none" stroke="#ff0099"/>
<g stroke="#ff0099" stroke-width="1" fill="#ff0099">
<circle cx=" 229" cy=" 445" r=" 1.5"/>
</g>
<path d="M232,444h 3" fill="none" stroke="#ff0099"/>
<path d="M237,444h 3" fill="none" stroke="#ff0099"/>
<g stroke="#ff0099" stroke-width="1" fill="#ff0099">
<circle cx=" 236" cy=" 444" r=" 1.5"/>
</g>
<path d="M240,444h 3" fill="none" stroke="#ff0099"/>
<path d="M245,444h 3" fill="none" stroke="#ff0099"/>
<g stroke="#ff0099" stroke-width="1" fill="#ff0099">
<circle cx=" 244" cy=" 444" r=" 1.5"/>
</g>
<path d="M248,443h 2" fill="none" stroke="#ff0099"/>
<path d="M252,443h 3" fill="none" stroke="#ff0099"/>
<g stroke="#ff0099" stroke-width="1" fill="#ff0099">
<circle cx=" 251" cy=" 443" r=" 1.5"/>
</g>
<path d="M255,442h 3" fill="none" stroke="#ff0099"/>
<path d="M260,442h 3" fill="none" stroke="#ff0099"/>
<g stroke="#ff0099" stroke-width="1" fill="#ff0099">
<circle cx=" 259" cy=" 442" r=" 1.5"/>
</g>
<path d="M263,441h 2" fill="none" stroke="#ff0099"/>
<path d="M268,441h 2" fill="none" stroke="#ff0099"/>
<g stroke="#ff0099" stroke-width="1" fill="#ff0099">
<circle cx=" 266" cy=" 441" r=" 1.5"/>
</g>
<path d="M270,440h 3" fill="none" stroke="#ff0099"/>
<path d="M275,440h 3" fill="none" stroke="#ff0099"/>
<g stroke="#ff0099" stroke-width="1" fill="#ff0099">
<circle cx=" 274" cy=" 440" r=" 1.5"/>
</g>
<path d="M278,439h 2" fill="none" stroke="#ff0099"/>
<path d="M283,439h 2" fill="none" stroke="#ff0099"/>
<g stroke="#ff0099" stroke-width="1" fill="#ff0099">
<circle cx=" 282" cy=" 439" r=" 1.5"/>
</g>
<path d="M285,438h 3" fill="none" stroke="#ff0099"/>
<path d="M290,438h 3" fill="none" stroke="#ff0099"/>
<g stroke="#ff0099" stroke-width="1" fill="#ff0099">
<circle cx=" 289" cy=" 438" r=" 1.5"/>
</g>
<path d="M293,436h 3" fill="none" stroke="#ff0099"/>
<path d="M298,436h 2" fill="none" stroke="#ff0099"/>
<g stroke="#ff0099" stroke-width="1" fill="#ff0099">
<circle cx=" 297" cy=" 436" r=" 1.5"/>
</g>
<path d="M300,435h 3" fill="none" stroke="#ff0099"/>
<path d="M305,435h 3" fill="none" stroke="#ff0099"/>
<g stroke="#ff0099" stroke-width="1" fill="#ff0099">
<circle cx=" 304" cy=" 435" r=" 1.5"/>
</g>
<path d="M308,433h 3" fill="none" stroke="#ff0099"/>
<path d="M313,433h 3" fill="none" stroke="#ff0099"/>
<g stroke="#ff0099" stroke-width="1" fill="#ff0099">
<circle cx=" 312" cy=" 433" r=" 1.5"/>
</g>
<path d="M316,431h 2" fill="none" stroke="#ff0099"/>
<path d="M321,431h 2" fill="none" stroke="#ff0099"/>
<g stroke="#ff0099" stroke-width="1" fill="#ff0099">
<circle cx=" 319" cy=" 431" r=" 1.5"/>
</g>
<path d="M323,428h 3" fill="none" stroke="#ff0099"/>
<path d="M328,428h 3" fill="none" stroke="#ff0099"/>
<g stroke="#ff0099" stroke-width="1" fill="#ff0099">
<circle cx=" 327" cy=" 428" r=" 1.5"/>
</g>
<path d="M331,426h 2" fill="none" stroke="#ff0099"/>
<path d="M336,426h 2" fill="none" stroke="#ff0099"/>
<g stroke="#ff0099" stroke-width="1" fill="#ff0099">
<circle cx=" 334" cy=" 426" r=" 1.5"/>
</g>
<path d="M338,423h 3" fill="none" stroke="#ff0099"/>
<path d="M343,423h 3" fill="none" stroke="#ff0099"/>
<g stroke="#ff0099" stroke-width="1" fill="#ff0099">
<circle cx=" 342" cy=" 423" r=" 1.5"/>
</g>
<path d="M346,421h 2" fill="none" stroke="#ff0099"/>
<path d="M351,421h 2" fill="none" stroke="#ff0099"/>
<g stroke="#ff0099" stroke-width="1" fill="#ff0099">
<circle cx=" 350" cy=" 421" r=" 1.5"/>
</g>
<path d="M353,418h 3" fill="none" stroke="#ff0099"/>
<path d="M358,418h 3" fill="none" stroke="#ff0099"/>
<g stroke="#ff0099" stroke-width="1" fill="#ff0099">
<circle cx=" 357" cy=" 418" r=" 1.5"/>
</g>
<path d="M361,416h 3" fill="none" stroke="#ff0099"/>
<path d="M366,416h 3" fill="none" stroke="#ff0099"/>
<g stroke="#ff0099" stroke-width="1" fill="#ff0099">
<circle cx=" 365" cy=" 416" r=" 1.5"/>
</g>
<path d="M369,412h 2" fill="none" stroke="#ff0099"/>
<path d="M373,412h 3" fill="none" stroke="#ff0099"/>
<g stroke="#ff0099" stroke-width="1" fill="#ff0099">
<circle cx=" 372" cy=" 412" r=" 1.5"/>
</g>
<path d="M376,411h 3" fill="none" stroke="#ff0099"/>
<path d="M381,411h 3" fill="none" stroke="#ff0099"/>
<g stroke="#ff0099" stroke-width="1" fill="#ff0099">
<circle cx=" 380" cy=" 411" r=" 1.5"/>
</g>
<path d="M384,409h 2" fill="none" stroke="#ff0099"/>
<path d="M389,409h 2" fill="none" stroke="#ff0099"/>
<g stroke="#ff0099" stroke-width="1" fill="#ff0099">
<circle cx=" 387" cy=" 409" r=" 1.5"/>
</g>
<path d="M391,405h 3" fill="none" stroke="#ff0099"/>
<path d="M396,405h 3" fill="none" stroke="#ff0099"/>
<g stroke="#ff0099" stroke-width="1" fill="#ff0099">
<circle cx=" 395" cy=" 405" r=" 1.5"/>
</g>
<path d="M399,403h 2" fill="none" stroke="#ff0099"/>
<path d="M404,403h 2" fill="none" stroke="#ff0099"/>
<g stroke="#ff0099" stroke-width="1" fill="#ff0099">
<circle cx=" 403" cy=" 403" r=" 1.5"/>
</g>
<path d="M406,399h 3" fill="none" stroke="#ff0099"/>
<path d="M411,399h 3" fill="none" stroke="#ff0099"/>
<g stroke="#ff0099" stroke-width="1" fill="#ff0099">
<circle cx=" 410" cy=" 399" r=" 1.5"/>
</g>
<path d="M414,396h 2" fill="none" stroke="#ff0099"/>
<path d="M419,396h 2" fill="none" stroke="#ff0099"/>
<g stroke="#ff0099" stroke-width="1" fill="#ff0099">
<circle cx=" 418" cy=" 396" r=" 1.5"/>
</g>
<path d="M421,392h 3" fill="none" stroke="#ff0099"/>
<path d="M426,392h 3" fill="none" stroke="#ff0099"/>
<g stroke="#ff0099" stroke-width="1" fill="#ff0099">
<circle cx=" 425" cy=" 392" r=" 1.5"/>
</g>
<path d="M429,388h 3" fill="none" stroke="#ff0099"/>
<path d="M434,388h 3" fill="none" stroke="#ff0099"/>
<g stroke="#ff0099" stroke-width="1" fill="#ff0099">
<circle cx=" 433" cy=" 388" r=" 1.5"/>
</g>
<path d="M437,383h 2" fill="none" stroke="#ff0099"/>
<path d="M441,383h 3" fill="none" stroke="#ff0099"/>
<g stroke="#ff0099" stroke-width="1" fill="#ff0099">
<circle cx=" 440" cy=" 383" r=" 1.5"/>
</g>
<path d="M444,378h 3" fill="none" stroke="#ff0099"/>
<path d="M449,378h 3" fill="none" stroke="#ff0099"/>
<g stroke="#ff0099" stroke-width="1" fill="#ff0099">
<circle cx=" 448" cy=" 378" r=" 1.5"/>
</g>
<path d="M452,372h 2" fill="none" stroke="#ff0099"/>
<path d="M457,372h 2" fill="none" stroke="#ff0099"/>
<g stroke="#ff0099" stroke-width="1" fill="#ff0099">
<circle cx=" 455" cy=" 372" r=" 1.5"/>
</g>
<path d="M459,366h 3" fill="none" stroke="#ff0099"/>
<path d="M464,366h 3" fill="none" stroke="#ff0099"/>
<g stroke="#ff0099" stroke-width="1" fill="#ff0099">
<circle cx=" 463" cy=" 366" r=" 1.5"/>
</g>
<path d="M467,356h 2" fill="none" stroke="#ff0099"/>
<path d="M472,356h 2" fill="none" stroke="#ff0099"/>
<g stroke="#ff0099" stroke-width="1" fill="#ff0099">
<circle cx=" 471" cy=" 356" r=" 1.5"/>
</g>
<path d="M474,344h 3" fill="none" stroke="#ff0099"/>
<path d="M479,344h 3" fill="none" stroke="#ff0099"/>
<g stroke="#ff0099" stroke-width="1" fill="#ff0099">
<circle cx=" 478" cy=" 344" r=" 1.5"/>
</g>
<path d="M482,315h 3" fill="none" stroke="#ff0099"/>
<path d="M487,315h 2" fill="none" stroke="#ff0099"/>
<g stroke="#ff0099" stroke-width="1" fill="#ff0099">
<circle cx=" 486" cy=" 315" r=" 1.5"/>
</g>
<path d="M489,247h 3" fill="none" stroke="#ff0099"/>
<path d="M494,247h 3" fill="none" stroke="#ff0099"/>
<g stroke="#ff0099" stroke-width="1" fill="#ff0099">
<circle cx=" 493" cy=" 247" r=" 1.5"/>
</g>
<path d="M501,66" fill="none" stroke="#ff0099"/>
<path d="M501,64v -1" fill="none" stroke="#ff0099"/>
<path d="M497,65h 3" fill="none" stroke="#ff0099"/>
<path d="M502,65h 3" fill="none" stroke="#ff0099"/>
<g stroke="#ff0099" stroke-width="1" fill="#ff0099">
<circle cx=" 501" cy=" 65" r=" 1.5"/>
</g>
<path d="M505,91h 2" fill="none" stroke="#ff0099"/>
<path d="M509,91h 3" fill="none" stroke="#ff0099"/>
<g stroke="#ff0099" stroke-width="1" fill="#ff0099">
<circle cx=" 508" cy=" 91" r=" 1.5"/>
</g>
<path d="M512,430h 3" fill="none" stroke="#ff0099"/>
<path d="M517,430h 3" fill="none" stroke="#ff0099"/>
<g stroke="#ff0099" stroke-width="1" fill="#ff0099">
<circle cx=" 516" cy=" 430" r=" 1.5"/>
</g>
<path d="M520,446h 2" fill="none" stroke="#ff0099"/>
<path d="M525,446h 2" fill="none" stroke="#ff0099"/>
<g stroke="#ff0099" stroke-width="1" fill="#ff0099">
<circle cx=" 523" cy=" 446" r=" 1.5"/>
</g>
<rect x="357" y="59" width="142" height="99" fill="white"/>
<text x="360" y="82" fill="black" font-size="17" font-family="Helvetica" font-weight="bold">
EB
</text>
<text x="457" y="115" fill="black" font-size="17" font-family="Helvetica" font-weight="bold">
 ee
</text>
<text x="440" y="115" fill="black" font-size="17" font-family="Times">
&#8594;
</text>
<text x="392" y="115" fill="black" font-size="17" font-family="Helvetica" font-weight="bold">
MC Z 
</text>
<path d="M362,109h 25" fill="none" stroke="#ff0099"/>
<g stroke="#ff0099" stroke-width="1" fill="#ff0099">
<circle cx=" 375" cy=" 109" r=" 1.5"/>
</g>
<text x="455" y="147" fill="black" font-size="17" font-family="Helvetica" font-weight="bold">
 + jet
</text>
<text x="447" y="147" fill="black" font-size="17" font-family="Times">
&#0947;
</text>
<text x="392" y="147" fill="black" font-size="17" font-family="Helvetica" font-weight="bold">
signal 
</text>
<path d="M362,154h 25v -24h -25z" fill="#99ff99"/>
<path d="M362,130h 25" fill="none" stroke="#99ff99" stroke-width="2"/>
<path d="M362,154h 25" fill="none" stroke="#99ff99" stroke-width="2"/>
<path d="M387,154v -24" fill="none" stroke="#99ff99" stroke-width="2"/>
<path d="M362,154v -24" fill="none" stroke="#99ff99" stroke-width="2"/>
<text x="300" y="34" fill="black" font-size="17" font-family="Helvetica" font-weight="bold">
=8 TeV
</text>
<text x="291" y="34" fill="black" font-size="17" font-family="Helvetica" font-weight="bold">
s
</text>
<path d="M285,25l 2, 10" fill="none" stroke="black" stroke-width="2"/>
<path d="M287,35l 2, -14" fill="none" stroke="black"/>
<path d="M289,21h 11" fill="none" stroke="black"/>
<text x="142" y="34" fill="black" font-size="17" font-family="Helvetica" font-weight="bold">
CMS Preliminary 
</text></svg>
