<?xml version="1.0" standalone="no"?>
<svg width="567" height="496" viewBox="0 0 567 496" xmlns="http://www.w3.org/2000/svg">
<title>
../src/TagAndProbeZ/plots_mcZee_mcGJet_withEtaW/hlt30//etaPhotEB.svg
</title>
<desc>
Creator: ROOT Version 5.32/00
CreationDate: Sat Sep 27 22:34:50 2014</desc>
<defs>
</defs>
<rect x="0" y="0" width="567" height="496" fill="white"/>
<rect x="74" y="44" width="453" height="402" fill="white"/>
<rect x="74" y="44" width="453" height="402" fill="none" stroke="black"/>
<rect x="74" y="44" width="453" height="402" fill="white"/>
<rect x="74" y="44" width="453" height="402" fill="none" stroke="black"/>
<path d="M191,291v -1" fill="none" stroke="#ff0099"/>
<path d="M191,288" fill="none" stroke="#ff0099"/>
<path d="M187,289h 3" fill="none" stroke="#ff0099"/>
<path d="M192,289h 3" fill="none" stroke="#ff0099"/>
<g stroke="#ff0099" stroke-width="1" fill="#ff0099">
<circle cx=" 191" cy=" 289" r=" 1.5"/>
</g>
<path d="M198,84v -2" fill="none" stroke="#ff0099"/>
<path d="M198,80v -1" fill="none" stroke="#ff0099"/>
<path d="M195,81h 2" fill="none" stroke="#ff0099"/>
<path d="M200,81h 2" fill="none" stroke="#ff0099"/>
<g stroke="#ff0099" stroke-width="1" fill="#ff0099">
<circle cx=" 198" cy=" 81" r=" 1.5"/>
</g>
<path d="M206,82v -1" fill="none" stroke="#ff0099"/>
<path d="M206,79v -2" fill="none" stroke="#ff0099"/>
<path d="M202,80h 3" fill="none" stroke="#ff0099"/>
<path d="M207,80h 3" fill="none" stroke="#ff0099"/>
<g stroke="#ff0099" stroke-width="1" fill="#ff0099">
<circle cx=" 206" cy=" 80" r=" 1.5"/>
</g>
<path d="M214,91v -1" fill="none" stroke="#ff0099"/>
<path d="M214,87v -1" fill="none" stroke="#ff0099"/>
<path d="M210,88h 2" fill="none" stroke="#ff0099"/>
<path d="M215,88h 2" fill="none" stroke="#ff0099"/>
<g stroke="#ff0099" stroke-width="1" fill="#ff0099">
<circle cx=" 214" cy=" 88" r=" 1.5"/>
</g>
<path d="M221,102v -1" fill="none" stroke="#ff0099"/>
<path d="M221,99v -2" fill="none" stroke="#ff0099"/>
<path d="M217,100h 3" fill="none" stroke="#ff0099"/>
<path d="M222,100h 3" fill="none" stroke="#ff0099"/>
<g stroke="#ff0099" stroke-width="1" fill="#ff0099">
<circle cx=" 221" cy=" 100" r=" 1.5"/>
</g>
<path d="M229,132v -1" fill="none" stroke="#ff0099"/>
<path d="M229,129v -1" fill="none" stroke="#ff0099"/>
<path d="M225,130h 3" fill="none" stroke="#ff0099"/>
<path d="M230,130h 2" fill="none" stroke="#ff0099"/>
<g stroke="#ff0099" stroke-width="1" fill="#ff0099">
<circle cx=" 229" cy=" 130" r=" 1.5"/>
</g>
<path d="M236,152v -1" fill="none" stroke="#ff0099"/>
<path d="M236,149v -1" fill="none" stroke="#ff0099"/>
<path d="M232,150h 3" fill="none" stroke="#ff0099"/>
<path d="M237,150h 3" fill="none" stroke="#ff0099"/>
<g stroke="#ff0099" stroke-width="1" fill="#ff0099">
<circle cx=" 236" cy=" 150" r=" 1.5"/>
</g>
<path d="M244,199" fill="none" stroke="#ff0099"/>
<path d="M244,197v -1" fill="none" stroke="#ff0099"/>
<path d="M240,198h 3" fill="none" stroke="#ff0099"/>
<path d="M245,198h 3" fill="none" stroke="#ff0099"/>
<g stroke="#ff0099" stroke-width="1" fill="#ff0099">
<circle cx=" 244" cy=" 198" r=" 1.5"/>
</g>
<path d="M251,186" fill="none" stroke="#ff0099"/>
<path d="M251,183" fill="none" stroke="#ff0099"/>
<path d="M248,185h 2" fill="none" stroke="#ff0099"/>
<path d="M252,185h 3" fill="none" stroke="#ff0099"/>
<g stroke="#ff0099" stroke-width="1" fill="#ff0099">
<circle cx=" 251" cy=" 185" r=" 1.5"/>
</g>
<path d="M259,188" fill="none" stroke="#ff0099"/>
<path d="M259,185" fill="none" stroke="#ff0099"/>
<path d="M255,187h 3" fill="none" stroke="#ff0099"/>
<path d="M260,187h 3" fill="none" stroke="#ff0099"/>
<g stroke="#ff0099" stroke-width="1" fill="#ff0099">
<circle cx=" 259" cy=" 187" r=" 1.5"/>
</g>
<path d="M266,193" fill="none" stroke="#ff0099"/>
<path d="M266,191v -1" fill="none" stroke="#ff0099"/>
<path d="M263,192h 2" fill="none" stroke="#ff0099"/>
<path d="M268,192h 2" fill="none" stroke="#ff0099"/>
<g stroke="#ff0099" stroke-width="1" fill="#ff0099">
<circle cx=" 266" cy=" 192" r=" 1.5"/>
</g>
<path d="M274,207v -1" fill="none" stroke="#ff0099"/>
<path d="M274,204" fill="none" stroke="#ff0099"/>
<path d="M270,205h 3" fill="none" stroke="#ff0099"/>
<path d="M275,205h 3" fill="none" stroke="#ff0099"/>
<g stroke="#ff0099" stroke-width="1" fill="#ff0099">
<circle cx=" 274" cy=" 205" r=" 1.5"/>
</g>
<path d="M282,208" fill="none" stroke="#ff0099"/>
<path d="M282,206" fill="none" stroke="#ff0099"/>
<path d="M278,207h 2" fill="none" stroke="#ff0099"/>
<path d="M283,207h 2" fill="none" stroke="#ff0099"/>
<g stroke="#ff0099" stroke-width="1" fill="#ff0099">
<circle cx=" 282" cy=" 207" r=" 1.5"/>
</g>
<path d="M289,223" fill="none" stroke="#ff0099"/>
<path d="M289,220" fill="none" stroke="#ff0099"/>
<path d="M285,221h 3" fill="none" stroke="#ff0099"/>
<path d="M290,221h 3" fill="none" stroke="#ff0099"/>
<g stroke="#ff0099" stroke-width="1" fill="#ff0099">
<circle cx=" 289" cy=" 221" r=" 1.5"/>
</g>
<path d="M297,227" fill="none" stroke="#ff0099"/>
<path d="M297,224" fill="none" stroke="#ff0099"/>
<path d="M293,226h 3" fill="none" stroke="#ff0099"/>
<path d="M298,226h 2" fill="none" stroke="#ff0099"/>
<g stroke="#ff0099" stroke-width="1" fill="#ff0099">
<circle cx=" 297" cy=" 226" r=" 1.5"/>
</g>
<path d="M304,223" fill="none" stroke="#ff0099"/>
<path d="M304,221v -1" fill="none" stroke="#ff0099"/>
<path d="M300,222h 3" fill="none" stroke="#ff0099"/>
<path d="M305,222h 3" fill="none" stroke="#ff0099"/>
<g stroke="#ff0099" stroke-width="1" fill="#ff0099">
<circle cx=" 304" cy=" 222" r=" 1.5"/>
</g>
<path d="M312,216" fill="none" stroke="#ff0099"/>
<path d="M312,214" fill="none" stroke="#ff0099"/>
<path d="M308,215h 3" fill="none" stroke="#ff0099"/>
<path d="M313,215h 3" fill="none" stroke="#ff0099"/>
<g stroke="#ff0099" stroke-width="1" fill="#ff0099">
<circle cx=" 312" cy=" 215" r=" 1.5"/>
</g>
<path d="M319,205v -1" fill="none" stroke="#ff0099"/>
<path d="M319,202" fill="none" stroke="#ff0099"/>
<path d="M316,203h 2" fill="none" stroke="#ff0099"/>
<path d="M321,203h 2" fill="none" stroke="#ff0099"/>
<g stroke="#ff0099" stroke-width="1" fill="#ff0099">
<circle cx=" 319" cy=" 203" r=" 1.5"/>
</g>
<path d="M327,199v -1" fill="none" stroke="#ff0099"/>
<path d="M327,196" fill="none" stroke="#ff0099"/>
<path d="M323,197h 3" fill="none" stroke="#ff0099"/>
<path d="M328,197h 3" fill="none" stroke="#ff0099"/>
<g stroke="#ff0099" stroke-width="1" fill="#ff0099">
<circle cx=" 327" cy=" 197" r=" 1.5"/>
</g>
<path d="M334,197" fill="none" stroke="#ff0099"/>
<path d="M334,195v -1" fill="none" stroke="#ff0099"/>
<path d="M331,196h 2" fill="none" stroke="#ff0099"/>
<path d="M336,196h 2" fill="none" stroke="#ff0099"/>
<g stroke="#ff0099" stroke-width="1" fill="#ff0099">
<circle cx=" 334" cy=" 196" r=" 1.5"/>
</g>
<path d="M342,191" fill="none" stroke="#ff0099"/>
<path d="M342,188" fill="none" stroke="#ff0099"/>
<path d="M338,190h 3" fill="none" stroke="#ff0099"/>
<path d="M343,190h 3" fill="none" stroke="#ff0099"/>
<g stroke="#ff0099" stroke-width="1" fill="#ff0099">
<circle cx=" 342" cy=" 190" r=" 1.5"/>
</g>
<path d="M350,184v -1" fill="none" stroke="#ff0099"/>
<path d="M350,181" fill="none" stroke="#ff0099"/>
<path d="M346,182h 2" fill="none" stroke="#ff0099"/>
<path d="M351,182h 2" fill="none" stroke="#ff0099"/>
<g stroke="#ff0099" stroke-width="1" fill="#ff0099">
<circle cx=" 350" cy=" 182" r=" 1.5"/>
</g>
<path d="M357,192v -1" fill="none" stroke="#ff0099"/>
<path d="M357,189" fill="none" stroke="#ff0099"/>
<path d="M353,190h 3" fill="none" stroke="#ff0099"/>
<path d="M358,190h 3" fill="none" stroke="#ff0099"/>
<g stroke="#ff0099" stroke-width="1" fill="#ff0099">
<circle cx=" 357" cy=" 190" r=" 1.5"/>
</g>
<path d="M365,152v -1" fill="none" stroke="#ff0099"/>
<path d="M365,149v -1" fill="none" stroke="#ff0099"/>
<path d="M361,150h 3" fill="none" stroke="#ff0099"/>
<path d="M366,150h 3" fill="none" stroke="#ff0099"/>
<g stroke="#ff0099" stroke-width="1" fill="#ff0099">
<circle cx=" 365" cy=" 150" r=" 1.5"/>
</g>
<path d="M372,130v -1" fill="none" stroke="#ff0099"/>
<path d="M372,127v -1" fill="none" stroke="#ff0099"/>
<path d="M369,128h 2" fill="none" stroke="#ff0099"/>
<path d="M373,128h 3" fill="none" stroke="#ff0099"/>
<g stroke="#ff0099" stroke-width="1" fill="#ff0099">
<circle cx=" 372" cy=" 128" r=" 1.5"/>
</g>
<path d="M380,101v -1" fill="none" stroke="#ff0099"/>
<path d="M380,98v -1" fill="none" stroke="#ff0099"/>
<path d="M376,99h 3" fill="none" stroke="#ff0099"/>
<path d="M381,99h 3" fill="none" stroke="#ff0099"/>
<g stroke="#ff0099" stroke-width="1" fill="#ff0099">
<circle cx=" 380" cy=" 99" r=" 1.5"/>
</g>
<path d="M387,90v -2" fill="none" stroke="#ff0099"/>
<path d="M387,86v -1" fill="none" stroke="#ff0099"/>
<path d="M384,87h 2" fill="none" stroke="#ff0099"/>
<path d="M389,87h 2" fill="none" stroke="#ff0099"/>
<g stroke="#ff0099" stroke-width="1" fill="#ff0099">
<circle cx=" 387" cy=" 87" r=" 1.5"/>
</g>
<path d="M395,69v -2" fill="none" stroke="#ff0099"/>
<path d="M395,65v -2" fill="none" stroke="#ff0099"/>
<path d="M391,66h 3" fill="none" stroke="#ff0099"/>
<path d="M396,66h 3" fill="none" stroke="#ff0099"/>
<g stroke="#ff0099" stroke-width="1" fill="#ff0099">
<circle cx=" 395" cy=" 66" r=" 1.5"/>
</g>
<path d="M403,79v -1" fill="none" stroke="#ff0099"/>
<path d="M403,75v -1" fill="none" stroke="#ff0099"/>
<path d="M399,76h 2" fill="none" stroke="#ff0099"/>
<path d="M404,76h 2" fill="none" stroke="#ff0099"/>
<g stroke="#ff0099" stroke-width="1" fill="#ff0099">
<circle cx=" 403" cy=" 76" r=" 1.5"/>
</g>
<path d="M410,292v -1" fill="none" stroke="#ff0099"/>
<path d="M410,289" fill="none" stroke="#ff0099"/>
<path d="M406,290h 3" fill="none" stroke="#ff0099"/>
<path d="M411,290h 3" fill="none" stroke="#ff0099"/>
<g stroke="#ff0099" stroke-width="1" fill="#ff0099">
<circle cx=" 410" cy=" 290" r=" 1.5"/>
</g>
<path d="M74,446h 453" fill="none" stroke="black"/>
<path d="M74,434v 12" fill="none" stroke="black"/>
<path d="M89,440v 6" fill="none" stroke="black"/>
<path d="M104,440v 6" fill="none" stroke="black"/>
<path d="M119,440v 6" fill="none" stroke="black"/>
<path d="M134,440v 6" fill="none" stroke="black"/>
<path d="M149,434v 12" fill="none" stroke="black"/>
<path d="M164,440v 6" fill="none" stroke="black"/>
<path d="M180,440v 6" fill="none" stroke="black"/>
<path d="M195,440v 6" fill="none" stroke="black"/>
<path d="M210,440v 6" fill="none" stroke="black"/>
<path d="M225,434v 12" fill="none" stroke="black"/>
<path d="M240,440v 6" fill="none" stroke="black"/>
<path d="M255,440v 6" fill="none" stroke="black"/>
<path d="M270,440v 6" fill="none" stroke="black"/>
<path d="M285,440v 6" fill="none" stroke="black"/>
<path d="M300,434v 12" fill="none" stroke="black"/>
<path d="M316,440v 6" fill="none" stroke="black"/>
<path d="M331,440v 6" fill="none" stroke="black"/>
<path d="M346,440v 6" fill="none" stroke="black"/>
<path d="M361,440v 6" fill="none" stroke="black"/>
<path d="M376,434v 12" fill="none" stroke="black"/>
<path d="M391,440v 6" fill="none" stroke="black"/>
<path d="M406,440v 6" fill="none" stroke="black"/>
<path d="M421,440v 6" fill="none" stroke="black"/>
<path d="M437,440v 6" fill="none" stroke="black"/>
<path d="M452,434v 12" fill="none" stroke="black"/>
<path d="M467,440v 6" fill="none" stroke="black"/>
<path d="M482,440v 6" fill="none" stroke="black"/>
<path d="M497,440v 6" fill="none" stroke="black"/>
<path d="M512,440v 6" fill="none" stroke="black"/>
<path d="M527,434v 12" fill="none" stroke="black"/>
<path d="M527,434v 12" fill="none" stroke="black"/>
<text x="65" y="465" fill="black" font-size="18" font-family="Helvetica" font-weight="bold">
-3
</text>
<text x="141" y="465" fill="black" font-size="18" font-family="Helvetica" font-weight="bold">
-2
</text>
<text x="218" y="465" fill="black" font-size="18" font-family="Helvetica" font-weight="bold">
-1
</text>
<text x="295" y="465" fill="black" font-size="18" font-family="Helvetica" font-weight="bold">
0
</text>
<text x="372" y="465" fill="black" font-size="18" font-family="Helvetica" font-weight="bold">
1
</text>
<text x="446" y="465" fill="black" font-size="18" font-family="Helvetica" font-weight="bold">
2
</text>
<text x="522" y="465" fill="black" font-size="18" font-family="Helvetica" font-weight="bold">
3
</text>
<path d="M74,44h 453" fill="none" stroke="black"/>
<path d="M74,56v -12" fill="none" stroke="black"/>
<path d="M89,50v -6" fill="none" stroke="black"/>
<path d="M104,50v -6" fill="none" stroke="black"/>
<path d="M119,50v -6" fill="none" stroke="black"/>
<path d="M134,50v -6" fill="none" stroke="black"/>
<path d="M149,56v -12" fill="none" stroke="black"/>
<path d="M164,50v -6" fill="none" stroke="black"/>
<path d="M180,50v -6" fill="none" stroke="black"/>
<path d="M195,50v -6" fill="none" stroke="black"/>
<path d="M210,50v -6" fill="none" stroke="black"/>
<path d="M225,56v -12" fill="none" stroke="black"/>
<path d="M240,50v -6" fill="none" stroke="black"/>
<path d="M255,50v -6" fill="none" stroke="black"/>
<path d="M270,50v -6" fill="none" stroke="black"/>
<path d="M285,50v -6" fill="none" stroke="black"/>
<path d="M300,56v -12" fill="none" stroke="black"/>
<path d="M316,50v -6" fill="none" stroke="black"/>
<path d="M331,50v -6" fill="none" stroke="black"/>
<path d="M346,50v -6" fill="none" stroke="black"/>
<path d="M361,50v -6" fill="none" stroke="black"/>
<path d="M376,56v -12" fill="none" stroke="black"/>
<path d="M391,50v -6" fill="none" stroke="black"/>
<path d="M406,50v -6" fill="none" stroke="black"/>
<path d="M421,50v -6" fill="none" stroke="black"/>
<path d="M437,50v -6" fill="none" stroke="black"/>
<path d="M452,56v -12" fill="none" stroke="black"/>
<path d="M467,50v -6" fill="none" stroke="black"/>
<path d="M482,50v -6" fill="none" stroke="black"/>
<path d="M497,50v -6" fill="none" stroke="black"/>
<path d="M512,50v -6" fill="none" stroke="black"/>
<path d="M527,56v -12" fill="none" stroke="black"/>
<path d="M527,56v -12" fill="none" stroke="black"/>
<path d="M74,446v -402" fill="none" stroke="black"/>
<path d="M87,446h -13" fill="none" stroke="black"/>
<path d="M81,438h -7" fill="none" stroke="black"/>
<path d="M81,430h -7" fill="none" stroke="black"/>
<path d="M81,421h -7" fill="none" stroke="black"/>
<path d="M81,413h -7" fill="none" stroke="black"/>
<path d="M87,405h -13" fill="none" stroke="black"/>
<path d="M81,396h -7" fill="none" stroke="black"/>
<path d="M81,388h -7" fill="none" stroke="black"/>
<path d="M81,379h -7" fill="none" stroke="black"/>
<path d="M81,371h -7" fill="none" stroke="black"/>
<path d="M87,363h -13" fill="none" stroke="black"/>
<path d="M81,354h -7" fill="none" stroke="black"/>
<path d="M81,346h -7" fill="none" stroke="black"/>
<path d="M81,338h -7" fill="none" stroke="black"/>
<path d="M81,329h -7" fill="none" stroke="black"/>
<path d="M87,321h -13" fill="none" stroke="black"/>
<path d="M81,313h -7" fill="none" stroke="black"/>
<path d="M81,304h -7" fill="none" stroke="black"/>
<path d="M81,296h -7" fill="none" stroke="black"/>
<path d="M81,288h -7" fill="none" stroke="black"/>
<path d="M87,279h -13" fill="none" stroke="black"/>
<path d="M81,271h -7" fill="none" stroke="black"/>
<path d="M81,262h -7" fill="none" stroke="black"/>
<path d="M81,254h -7" fill="none" stroke="black"/>
<path d="M81,246h -7" fill="none" stroke="black"/>
<path d="M87,237h -13" fill="none" stroke="black"/>
<path d="M81,229h -7" fill="none" stroke="black"/>
<path d="M81,221h -7" fill="none" stroke="black"/>
<path d="M81,212h -7" fill="none" stroke="black"/>
<path d="M81,204h -7" fill="none" stroke="black"/>
<path d="M87,196h -13" fill="none" stroke="black"/>
<path d="M81,187h -7" fill="none" stroke="black"/>
<path d="M81,179h -7" fill="none" stroke="black"/>
<path d="M81,170h -7" fill="none" stroke="black"/>
<path d="M81,162h -7" fill="none" stroke="black"/>
<path d="M87,154h -13" fill="none" stroke="black"/>
<path d="M81,145h -7" fill="none" stroke="black"/>
<path d="M81,137h -7" fill="none" stroke="black"/>
<path d="M81,129h -7" fill="none" stroke="black"/>
<path d="M81,120h -7" fill="none" stroke="black"/>
<path d="M87,112h -13" fill="none" stroke="black"/>
<path d="M81,104h -7" fill="none" stroke="black"/>
<path d="M81,95h -7" fill="none" stroke="black"/>
<path d="M81,87h -7" fill="none" stroke="black"/>
<path d="M81,78h -7" fill="none" stroke="black"/>
<path d="M87,70h -13" fill="none" stroke="black"/>
<path d="M87,70h -13" fill="none" stroke="black"/>
<path d="M81,62h -7" fill="none" stroke="black"/>
<path d="M81,53h -7" fill="none" stroke="black"/>
<path d="M81,45h -7" fill="none" stroke="black"/>
<text x="61" y="453" fill="black" font-size="18" font-family="Helvetica" font-weight="bold">
0
</text>
<text x="24" y="411" fill="black" font-size="18" font-family="Helvetica" font-weight="bold">
0.005
</text>
<text x="37" y="369" fill="black" font-size="18" font-family="Helvetica" font-weight="bold">
0.01
</text>
<text x="24" y="328" fill="black" font-size="18" font-family="Helvetica" font-weight="bold">
0.015
</text>
<text x="35" y="286" fill="black" font-size="18" font-family="Helvetica" font-weight="bold">
0.02
</text>
<text x="24" y="244" fill="black" font-size="18" font-family="Helvetica" font-weight="bold">
0.025
</text>
<text x="35" y="202" fill="black" font-size="18" font-family="Helvetica" font-weight="bold">
0.03
</text>
<text x="24" y="160" fill="black" font-size="18" font-family="Helvetica" font-weight="bold">
0.035
</text>
<text x="34" y="119" fill="black" font-size="18" font-family="Helvetica" font-weight="bold">
0.04
</text>
<text x="24" y="76" fill="black" font-size="18" font-family="Helvetica" font-weight="bold">
0.045
</text>
<path d="M191,328v -3" fill="none" stroke="#99ff99" stroke-width="2"/>
<path d="M191,325v -4" fill="none" stroke="#99ff99" stroke-width="2"/>
<g stroke="black" stroke-width="2" fill="none">
<line x1="190" y1="325" x2="191" y2="325"/>
</g>
<path d="M198,164v -5" fill="none" stroke="#99ff99" stroke-width="2"/>
<path d="M198,159v -6" fill="none" stroke="#99ff99" stroke-width="2"/>
<g stroke="black" stroke-width="2" fill="none">
<line x1="197" y1="159" x2="198" y2="159"/>
</g>
<path d="M206,167v -5" fill="none" stroke="#99ff99" stroke-width="2"/>
<path d="M206,162v -5" fill="none" stroke="#99ff99" stroke-width="2"/>
<g stroke="black" stroke-width="2" fill="none">
<line x1="205" y1="162" x2="206" y2="162"/>
</g>
<path d="M214,177v -5" fill="none" stroke="#99ff99" stroke-width="2"/>
<path d="M214,172v -5" fill="none" stroke="#99ff99" stroke-width="2"/>
<g stroke="black" stroke-width="2" fill="none">
<line x1="213" y1="172" x2="214" y2="172"/>
</g>
<path d="M221,162v -5" fill="none" stroke="#99ff99" stroke-width="2"/>
<path d="M221,157v -6" fill="none" stroke="#99ff99" stroke-width="2"/>
<g stroke="black" stroke-width="2" fill="none">
<line x1="220" y1="157" x2="221" y2="157"/>
</g>
<path d="M229,159v -6" fill="none" stroke="#99ff99" stroke-width="2"/>
<path d="M229,153v -6" fill="none" stroke="#99ff99" stroke-width="2"/>
<g stroke="black" stroke-width="2" fill="none">
<line x1="228" y1="153" x2="229" y2="153"/>
</g>
<path d="M236,155v -6" fill="none" stroke="#99ff99" stroke-width="2"/>
<path d="M236,149v -5" fill="none" stroke="#99ff99" stroke-width="2"/>
<g stroke="black" stroke-width="2" fill="none">
<line x1="235" y1="149" x2="236" y2="149"/>
</g>
<path d="M244,175v -5" fill="none" stroke="#99ff99" stroke-width="2"/>
<path d="M244,170v -5" fill="none" stroke="#99ff99" stroke-width="2"/>
<g stroke="black" stroke-width="2" fill="none">
<line x1="243" y1="170" x2="244" y2="170"/>
</g>
<path d="M251,155v -5" fill="none" stroke="#99ff99" stroke-width="2"/>
<path d="M251,150v -6" fill="none" stroke="#99ff99" stroke-width="2"/>
<g stroke="black" stroke-width="2" fill="none">
<line x1="250" y1="150" x2="251" y2="150"/>
</g>
<path d="M259,158v -5" fill="none" stroke="#99ff99" stroke-width="2"/>
<path d="M259,153v -6" fill="none" stroke="#99ff99" stroke-width="2"/>
<g stroke="black" stroke-width="2" fill="none">
<line x1="258" y1="153" x2="259" y2="153"/>
</g>
<path d="M266,151v -5" fill="none" stroke="#99ff99" stroke-width="2"/>
<path d="M266,146v -6" fill="none" stroke="#99ff99" stroke-width="2"/>
<g stroke="black" stroke-width="2" fill="none">
<line x1="265" y1="146" x2="266" y2="146"/>
</g>
<path d="M274,161v -5" fill="none" stroke="#99ff99" stroke-width="2"/>
<path d="M274,156v -6" fill="none" stroke="#99ff99" stroke-width="2"/>
<g stroke="black" stroke-width="2" fill="none">
<line x1="273" y1="156" x2="274" y2="156"/>
</g>
<path d="M282,158v -5" fill="none" stroke="#99ff99" stroke-width="2"/>
<path d="M282,153v -6" fill="none" stroke="#99ff99" stroke-width="2"/>
<g stroke="black" stroke-width="2" fill="none">
<line x1="281" y1="153" x2="282" y2="153"/>
</g>
<path d="M289,145v -6" fill="none" stroke="#99ff99" stroke-width="2"/>
<path d="M289,139v -5" fill="none" stroke="#99ff99" stroke-width="2"/>
<g stroke="black" stroke-width="2" fill="none">
<line x1="288" y1="139" x2="289" y2="139"/>
</g>
<path d="M297,168v -5" fill="none" stroke="#99ff99" stroke-width="2"/>
<path d="M297,163v -5" fill="none" stroke="#99ff99" stroke-width="2"/>
<g stroke="black" stroke-width="2" fill="none">
<line x1="296" y1="163" x2="297" y2="163"/>
</g>
<path d="M304,164v -6" fill="none" stroke="#99ff99" stroke-width="2"/>
<path d="M304,158v -5" fill="none" stroke="#99ff99" stroke-width="2"/>
<g stroke="black" stroke-width="2" fill="none">
<line x1="303" y1="158" x2="304" y2="158"/>
</g>
<path d="M312,153v -5" fill="none" stroke="#99ff99" stroke-width="2"/>
<path d="M312,148v -6" fill="none" stroke="#99ff99" stroke-width="2"/>
<g stroke="black" stroke-width="2" fill="none">
<line x1="311" y1="148" x2="312" y2="148"/>
</g>
<path d="M319,155v -5" fill="none" stroke="#99ff99" stroke-width="2"/>
<path d="M319,150v -6" fill="none" stroke="#99ff99" stroke-width="2"/>
<g stroke="black" stroke-width="2" fill="none">
<line x1="318" y1="150" x2="319" y2="150"/>
</g>
<path d="M327,161v -5" fill="none" stroke="#99ff99" stroke-width="2"/>
<path d="M327,156v -6" fill="none" stroke="#99ff99" stroke-width="2"/>
<g stroke="black" stroke-width="2" fill="none">
<line x1="326" y1="156" x2="327" y2="156"/>
</g>
<path d="M334,168v -5" fill="none" stroke="#99ff99" stroke-width="2"/>
<path d="M334,163v -5" fill="none" stroke="#99ff99" stroke-width="2"/>
<g stroke="black" stroke-width="2" fill="none">
<line x1="333" y1="163" x2="334" y2="163"/>
</g>
<path d="M342,161v -5" fill="none" stroke="#99ff99" stroke-width="2"/>
<path d="M342,156v -5" fill="none" stroke="#99ff99" stroke-width="2"/>
<g stroke="black" stroke-width="2" fill="none">
<line x1="341" y1="156" x2="342" y2="156"/>
</g>
<path d="M350,163v -5" fill="none" stroke="#99ff99" stroke-width="2"/>
<path d="M350,158v -5" fill="none" stroke="#99ff99" stroke-width="2"/>
<g stroke="black" stroke-width="2" fill="none">
<line x1="349" y1="158" x2="350" y2="158"/>
</g>
<path d="M357,179v -5" fill="none" stroke="#99ff99" stroke-width="2"/>
<path d="M357,174v -5" fill="none" stroke="#99ff99" stroke-width="2"/>
<g stroke="black" stroke-width="2" fill="none">
<line x1="356" y1="174" x2="357" y2="174"/>
</g>
<path d="M365,159v -5" fill="none" stroke="#99ff99" stroke-width="2"/>
<path d="M365,154v -5" fill="none" stroke="#99ff99" stroke-width="2"/>
<g stroke="black" stroke-width="2" fill="none">
<line x1="364" y1="154" x2="365" y2="154"/>
</g>
<path d="M372,159v -6" fill="none" stroke="#99ff99" stroke-width="2"/>
<path d="M372,153v -5" fill="none" stroke="#99ff99" stroke-width="2"/>
<g stroke="black" stroke-width="2" fill="none">
<line x1="371" y1="153" x2="372" y2="153"/>
</g>
<path d="M380,160v -5" fill="none" stroke="#99ff99" stroke-width="2"/>
<path d="M380,155v -5" fill="none" stroke="#99ff99" stroke-width="2"/>
<g stroke="black" stroke-width="2" fill="none">
<line x1="379" y1="155" x2="380" y2="155"/>
</g>
<path d="M387,173v -6" fill="none" stroke="#99ff99" stroke-width="2"/>
<path d="M387,167v -5" fill="none" stroke="#99ff99" stroke-width="2"/>
<g stroke="black" stroke-width="2" fill="none">
<line x1="386" y1="167" x2="387" y2="167"/>
</g>
<path d="M395,159v -5" fill="none" stroke="#99ff99" stroke-width="2"/>
<path d="M395,154v -6" fill="none" stroke="#99ff99" stroke-width="2"/>
<g stroke="black" stroke-width="2" fill="none">
<line x1="394" y1="154" x2="395" y2="154"/>
</g>
<path d="M403,158v -6" fill="none" stroke="#99ff99" stroke-width="2"/>
<path d="M403,152v -5" fill="none" stroke="#99ff99" stroke-width="2"/>
<g stroke="black" stroke-width="2" fill="none">
<line x1="402" y1="152" x2="403" y2="152"/>
</g>
<path d="M410,330v -3" fill="none" stroke="#99ff99" stroke-width="2"/>
<path d="M410,327v -3" fill="none" stroke="#99ff99" stroke-width="2"/>
<g stroke="black" stroke-width="2" fill="none">
<line x1="409" y1="327" x2="410" y2="327"/>
</g>
<path d="M74,446h 113v -121h 8v -166h 7v 3h 8v 10h 7v -15h 8v -4h 7v -4h 8v 21h 8v -20h 7v 3h 8v -7h 7v 10h 8v -3h 7v -14h 8v 24h 7v -5h 8v -10h 8v 2h 7v 6h 8v 7h 7v -7h 8v 2h 7v 16h 8v -20h 8v -1h 7v 2h 8v 12h 7v -13h 8v -2h 7v 175h 8v 119h 113z"
 fill="#99ff99"/>
<path d="M74,446h 113v -121h 8v -166h 7v 3h 8v 10h 7v -15h 8v -4h 7v -4h 8v 21h 8v -20h 7v 3h 8v -7h 7v 10h 8v -3h 7v -14h 8v 24h 7v -5h 8v -10h 8v 2h 7v 6h 8v 7h 7v -7h 8v 2h 7v 16h 8v -20h 8v -1h 7v 2h 8v 12h 7v -13h 8v -2h 7v 175h 8v 119h 113"
 fill="none" stroke="#99ff99" stroke-width="2"/>
<path d="M191,291v -1" fill="none" stroke="#ff0099"/>
<path d="M191,288" fill="none" stroke="#ff0099"/>
<path d="M187,289h 3" fill="none" stroke="#ff0099"/>
<path d="M192,289h 3" fill="none" stroke="#ff0099"/>
<g stroke="#ff0099" stroke-width="1" fill="#ff0099">
<circle cx=" 191" cy=" 289" r=" 1.5"/>
</g>
<path d="M198,84v -2" fill="none" stroke="#ff0099"/>
<path d="M198,80v -1" fill="none" stroke="#ff0099"/>
<path d="M195,81h 2" fill="none" stroke="#ff0099"/>
<path d="M200,81h 2" fill="none" stroke="#ff0099"/>
<g stroke="#ff0099" stroke-width="1" fill="#ff0099">
<circle cx=" 198" cy=" 81" r=" 1.5"/>
</g>
<path d="M206,82v -1" fill="none" stroke="#ff0099"/>
<path d="M206,79v -2" fill="none" stroke="#ff0099"/>
<path d="M202,80h 3" fill="none" stroke="#ff0099"/>
<path d="M207,80h 3" fill="none" stroke="#ff0099"/>
<g stroke="#ff0099" stroke-width="1" fill="#ff0099">
<circle cx=" 206" cy=" 80" r=" 1.5"/>
</g>
<path d="M214,91v -1" fill="none" stroke="#ff0099"/>
<path d="M214,87v -1" fill="none" stroke="#ff0099"/>
<path d="M210,88h 2" fill="none" stroke="#ff0099"/>
<path d="M215,88h 2" fill="none" stroke="#ff0099"/>
<g stroke="#ff0099" stroke-width="1" fill="#ff0099">
<circle cx=" 214" cy=" 88" r=" 1.5"/>
</g>
<path d="M221,102v -1" fill="none" stroke="#ff0099"/>
<path d="M221,99v -2" fill="none" stroke="#ff0099"/>
<path d="M217,100h 3" fill="none" stroke="#ff0099"/>
<path d="M222,100h 3" fill="none" stroke="#ff0099"/>
<g stroke="#ff0099" stroke-width="1" fill="#ff0099">
<circle cx=" 221" cy=" 100" r=" 1.5"/>
</g>
<path d="M229,132v -1" fill="none" stroke="#ff0099"/>
<path d="M229,129v -1" fill="none" stroke="#ff0099"/>
<path d="M225,130h 3" fill="none" stroke="#ff0099"/>
<path d="M230,130h 2" fill="none" stroke="#ff0099"/>
<g stroke="#ff0099" stroke-width="1" fill="#ff0099">
<circle cx=" 229" cy=" 130" r=" 1.5"/>
</g>
<path d="M236,152v -1" fill="none" stroke="#ff0099"/>
<path d="M236,149v -1" fill="none" stroke="#ff0099"/>
<path d="M232,150h 3" fill="none" stroke="#ff0099"/>
<path d="M237,150h 3" fill="none" stroke="#ff0099"/>
<g stroke="#ff0099" stroke-width="1" fill="#ff0099">
<circle cx=" 236" cy=" 150" r=" 1.5"/>
</g>
<path d="M244,199" fill="none" stroke="#ff0099"/>
<path d="M244,197v -1" fill="none" stroke="#ff0099"/>
<path d="M240,198h 3" fill="none" stroke="#ff0099"/>
<path d="M245,198h 3" fill="none" stroke="#ff0099"/>
<g stroke="#ff0099" stroke-width="1" fill="#ff0099">
<circle cx=" 244" cy=" 198" r=" 1.5"/>
</g>
<path d="M251,186" fill="none" stroke="#ff0099"/>
<path d="M251,183" fill="none" stroke="#ff0099"/>
<path d="M248,185h 2" fill="none" stroke="#ff0099"/>
<path d="M252,185h 3" fill="none" stroke="#ff0099"/>
<g stroke="#ff0099" stroke-width="1" fill="#ff0099">
<circle cx=" 251" cy=" 185" r=" 1.5"/>
</g>
<path d="M259,188" fill="none" stroke="#ff0099"/>
<path d="M259,185" fill="none" stroke="#ff0099"/>
<path d="M255,187h 3" fill="none" stroke="#ff0099"/>
<path d="M260,187h 3" fill="none" stroke="#ff0099"/>
<g stroke="#ff0099" stroke-width="1" fill="#ff0099">
<circle cx=" 259" cy=" 187" r=" 1.5"/>
</g>
<path d="M266,193" fill="none" stroke="#ff0099"/>
<path d="M266,191v -1" fill="none" stroke="#ff0099"/>
<path d="M263,192h 2" fill="none" stroke="#ff0099"/>
<path d="M268,192h 2" fill="none" stroke="#ff0099"/>
<g stroke="#ff0099" stroke-width="1" fill="#ff0099">
<circle cx=" 266" cy=" 192" r=" 1.5"/>
</g>
<path d="M274,207v -1" fill="none" stroke="#ff0099"/>
<path d="M274,204" fill="none" stroke="#ff0099"/>
<path d="M270,205h 3" fill="none" stroke="#ff0099"/>
<path d="M275,205h 3" fill="none" stroke="#ff0099"/>
<g stroke="#ff0099" stroke-width="1" fill="#ff0099">
<circle cx=" 274" cy=" 205" r=" 1.5"/>
</g>
<path d="M282,208" fill="none" stroke="#ff0099"/>
<path d="M282,206" fill="none" stroke="#ff0099"/>
<path d="M278,207h 2" fill="none" stroke="#ff0099"/>
<path d="M283,207h 2" fill="none" stroke="#ff0099"/>
<g stroke="#ff0099" stroke-width="1" fill="#ff0099">
<circle cx=" 282" cy=" 207" r=" 1.5"/>
</g>
<path d="M289,223" fill="none" stroke="#ff0099"/>
<path d="M289,220" fill="none" stroke="#ff0099"/>
<path d="M285,221h 3" fill="none" stroke="#ff0099"/>
<path d="M290,221h 3" fill="none" stroke="#ff0099"/>
<g stroke="#ff0099" stroke-width="1" fill="#ff0099">
<circle cx=" 289" cy=" 221" r=" 1.5"/>
</g>
<path d="M297,227" fill="none" stroke="#ff0099"/>
<path d="M297,224" fill="none" stroke="#ff0099"/>
<path d="M293,226h 3" fill="none" stroke="#ff0099"/>
<path d="M298,226h 2" fill="none" stroke="#ff0099"/>
<g stroke="#ff0099" stroke-width="1" fill="#ff0099">
<circle cx=" 297" cy=" 226" r=" 1.5"/>
</g>
<path d="M304,223" fill="none" stroke="#ff0099"/>
<path d="M304,221v -1" fill="none" stroke="#ff0099"/>
<path d="M300,222h 3" fill="none" stroke="#ff0099"/>
<path d="M305,222h 3" fill="none" stroke="#ff0099"/>
<g stroke="#ff0099" stroke-width="1" fill="#ff0099">
<circle cx=" 304" cy=" 222" r=" 1.5"/>
</g>
<path d="M312,216" fill="none" stroke="#ff0099"/>
<path d="M312,214" fill="none" stroke="#ff0099"/>
<path d="M308,215h 3" fill="none" stroke="#ff0099"/>
<path d="M313,215h 3" fill="none" stroke="#ff0099"/>
<g stroke="#ff0099" stroke-width="1" fill="#ff0099">
<circle cx=" 312" cy=" 215" r=" 1.5"/>
</g>
<path d="M319,205v -1" fill="none" stroke="#ff0099"/>
<path d="M319,202" fill="none" stroke="#ff0099"/>
<path d="M316,203h 2" fill="none" stroke="#ff0099"/>
<path d="M321,203h 2" fill="none" stroke="#ff0099"/>
<g stroke="#ff0099" stroke-width="1" fill="#ff0099">
<circle cx=" 319" cy=" 203" r=" 1.5"/>
</g>
<path d="M327,199v -1" fill="none" stroke="#ff0099"/>
<path d="M327,196" fill="none" stroke="#ff0099"/>
<path d="M323,197h 3" fill="none" stroke="#ff0099"/>
<path d="M328,197h 3" fill="none" stroke="#ff0099"/>
<g stroke="#ff0099" stroke-width="1" fill="#ff0099">
<circle cx=" 327" cy=" 197" r=" 1.5"/>
</g>
<path d="M334,197" fill="none" stroke="#ff0099"/>
<path d="M334,195v -1" fill="none" stroke="#ff0099"/>
<path d="M331,196h 2" fill="none" stroke="#ff0099"/>
<path d="M336,196h 2" fill="none" stroke="#ff0099"/>
<g stroke="#ff0099" stroke-width="1" fill="#ff0099">
<circle cx=" 334" cy=" 196" r=" 1.5"/>
</g>
<path d="M342,191" fill="none" stroke="#ff0099"/>
<path d="M342,188" fill="none" stroke="#ff0099"/>
<path d="M338,190h 3" fill="none" stroke="#ff0099"/>
<path d="M343,190h 3" fill="none" stroke="#ff0099"/>
<g stroke="#ff0099" stroke-width="1" fill="#ff0099">
<circle cx=" 342" cy=" 190" r=" 1.5"/>
</g>
<path d="M350,184v -1" fill="none" stroke="#ff0099"/>
<path d="M350,181" fill="none" stroke="#ff0099"/>
<path d="M346,182h 2" fill="none" stroke="#ff0099"/>
<path d="M351,182h 2" fill="none" stroke="#ff0099"/>
<g stroke="#ff0099" stroke-width="1" fill="#ff0099">
<circle cx=" 350" cy=" 182" r=" 1.5"/>
</g>
<path d="M357,192v -1" fill="none" stroke="#ff0099"/>
<path d="M357,189" fill="none" stroke="#ff0099"/>
<path d="M353,190h 3" fill="none" stroke="#ff0099"/>
<path d="M358,190h 3" fill="none" stroke="#ff0099"/>
<g stroke="#ff0099" stroke-width="1" fill="#ff0099">
<circle cx=" 357" cy=" 190" r=" 1.5"/>
</g>
<path d="M365,152v -1" fill="none" stroke="#ff0099"/>
<path d="M365,149v -1" fill="none" stroke="#ff0099"/>
<path d="M361,150h 3" fill="none" stroke="#ff0099"/>
<path d="M366,150h 3" fill="none" stroke="#ff0099"/>
<g stroke="#ff0099" stroke-width="1" fill="#ff0099">
<circle cx=" 365" cy=" 150" r=" 1.5"/>
</g>
<path d="M372,130v -1" fill="none" stroke="#ff0099"/>
<path d="M372,127v -1" fill="none" stroke="#ff0099"/>
<path d="M369,128h 2" fill="none" stroke="#ff0099"/>
<path d="M373,128h 3" fill="none" stroke="#ff0099"/>
<g stroke="#ff0099" stroke-width="1" fill="#ff0099">
<circle cx=" 372" cy=" 128" r=" 1.5"/>
</g>
<path d="M380,101v -1" fill="none" stroke="#ff0099"/>
<path d="M380,98v -1" fill="none" stroke="#ff0099"/>
<path d="M376,99h 3" fill="none" stroke="#ff0099"/>
<path d="M381,99h 3" fill="none" stroke="#ff0099"/>
<g stroke="#ff0099" stroke-width="1" fill="#ff0099">
<circle cx=" 380" cy=" 99" r=" 1.5"/>
</g>
<path d="M387,90v -2" fill="none" stroke="#ff0099"/>
<path d="M387,86v -1" fill="none" stroke="#ff0099"/>
<path d="M384,87h 2" fill="none" stroke="#ff0099"/>
<path d="M389,87h 2" fill="none" stroke="#ff0099"/>
<g stroke="#ff0099" stroke-width="1" fill="#ff0099">
<circle cx=" 387" cy=" 87" r=" 1.5"/>
</g>
<path d="M395,69v -2" fill="none" stroke="#ff0099"/>
<path d="M395,65v -2" fill="none" stroke="#ff0099"/>
<path d="M391,66h 3" fill="none" stroke="#ff0099"/>
<path d="M396,66h 3" fill="none" stroke="#ff0099"/>
<g stroke="#ff0099" stroke-width="1" fill="#ff0099">
<circle cx=" 395" cy=" 66" r=" 1.5"/>
</g>
<path d="M403,79v -1" fill="none" stroke="#ff0099"/>
<path d="M403,75v -1" fill="none" stroke="#ff0099"/>
<path d="M399,76h 2" fill="none" stroke="#ff0099"/>
<path d="M404,76h 2" fill="none" stroke="#ff0099"/>
<g stroke="#ff0099" stroke-width="1" fill="#ff0099">
<circle cx=" 403" cy=" 76" r=" 1.5"/>
</g>
<path d="M410,292v -1" fill="none" stroke="#ff0099"/>
<path d="M410,289" fill="none" stroke="#ff0099"/>
<path d="M406,290h 3" fill="none" stroke="#ff0099"/>
<path d="M411,290h 3" fill="none" stroke="#ff0099"/>
<g stroke="#ff0099" stroke-width="1" fill="#ff0099">
<circle cx=" 410" cy=" 290" r=" 1.5"/>
</g>
<rect x="357" y="59" width="142" height="99" fill="white"/>
<text x="360" y="82" fill="black" font-size="17" font-family="Helvetica" font-weight="bold">
EB
</text>
<text x="457" y="115" fill="black" font-size="17" font-family="Helvetica" font-weight="bold">
 ee
</text>
<text x="440" y="115" fill="black" font-size="17" font-family="Times">
&#8594;
</text>
<text x="392" y="115" fill="black" font-size="17" font-family="Helvetica" font-weight="bold">
MC Z 
</text>
<path d="M362,109h 25" fill="none" stroke="#ff0099"/>
<g stroke="#ff0099" stroke-width="1" fill="#ff0099">
<circle cx=" 375" cy=" 109" r=" 1.5"/>
</g>
<text x="455" y="147" fill="black" font-size="17" font-family="Helvetica" font-weight="bold">
 + jet
</text>
<text x="447" y="147" fill="black" font-size="17" font-family="Times">
&#0947;
</text>
<text x="392" y="147" fill="black" font-size="17" font-family="Helvetica" font-weight="bold">
signal 
</text>
<path d="M362,154h 25v -24h -25z" fill="#99ff99"/>
<path d="M362,130h 25" fill="none" stroke="#99ff99" stroke-width="2"/>
<path d="M362,154h 25" fill="none" stroke="#99ff99" stroke-width="2"/>
<path d="M387,154v -24" fill="none" stroke="#99ff99" stroke-width="2"/>
<path d="M362,154v -24" fill="none" stroke="#99ff99" stroke-width="2"/>
<text x="300" y="34" fill="black" font-size="17" font-family="Helvetica" font-weight="bold">
=8 TeV
</text>
<text x="291" y="34" fill="black" font-size="17" font-family="Helvetica" font-weight="bold">
s
</text>
<path d="M285,25l 2, 10" fill="none" stroke="black" stroke-width="2"/>
<path d="M287,35l 2, -14" fill="none" stroke="black"/>
<path d="M289,21h 11" fill="none" stroke="black"/>
<text x="142" y="34" fill="black" font-size="17" font-family="Helvetica" font-weight="bold">
CMS Preliminary 
</text></svg>
