<?xml version="1.0" standalone="no"?>
<svg width="567" height="496" viewBox="0 0 567 496" xmlns="http://www.w3.org/2000/svg">
<title>
../src/TagAndProbeZ/plots_mcZee_mcGJet_withEtaW/hlt30//etaPhotEE.svg
</title>
<desc>
Creator: ROOT Version 5.32/00
CreationDate: Sat Sep 27 22:34:46 2014</desc>
<defs>
</defs>
<rect x="0" y="0" width="567" height="496" fill="white"/>
<rect x="74" y="44" width="453" height="402" fill="white"/>
<rect x="74" y="44" width="453" height="402" fill="none" stroke="black"/>
<rect x="74" y="44" width="453" height="402" fill="white"/>
<rect x="74" y="44" width="453" height="402" fill="none" stroke="black"/>
<path d="M111,353h 3" fill="none" stroke="#ff0099"/>
<path d="M116,353h 3" fill="none" stroke="#ff0099"/>
<g stroke="#ff0099" stroke-width="1" fill="#ff0099">
<circle cx=" 115" cy=" 353" r=" 1.5"/>
</g>
<path d="M119,326h 3" fill="none" stroke="#ff0099"/>
<path d="M124,326h 3" fill="none" stroke="#ff0099"/>
<g stroke="#ff0099" stroke-width="1" fill="#ff0099">
<circle cx=" 123" cy=" 326" r=" 1.5"/>
</g>
<path d="M130,307" fill="none" stroke="#ff0099"/>
<path d="M130,304" fill="none" stroke="#ff0099"/>
<path d="M127,306h 2" fill="none" stroke="#ff0099"/>
<path d="M132,306h 2" fill="none" stroke="#ff0099"/>
<g stroke="#ff0099" stroke-width="1" fill="#ff0099">
<circle cx=" 130" cy=" 306" r=" 1.5"/>
</g>
<path d="M138,284" fill="none" stroke="#ff0099"/>
<path d="M138,282" fill="none" stroke="#ff0099"/>
<path d="M134,283h 3" fill="none" stroke="#ff0099"/>
<path d="M139,283h 3" fill="none" stroke="#ff0099"/>
<g stroke="#ff0099" stroke-width="1" fill="#ff0099">
<circle cx=" 138" cy=" 283" r=" 1.5"/>
</g>
<path d="M146,231" fill="none" stroke="#ff0099"/>
<path d="M146,228" fill="none" stroke="#ff0099"/>
<path d="M142,230h 2" fill="none" stroke="#ff0099"/>
<path d="M147,230h 2" fill="none" stroke="#ff0099"/>
<g stroke="#ff0099" stroke-width="1" fill="#ff0099">
<circle cx=" 146" cy=" 230" r=" 1.5"/>
</g>
<path d="M153,179v -1" fill="none" stroke="#ff0099"/>
<path d="M153,176v -1" fill="none" stroke="#ff0099"/>
<path d="M149,177h 3" fill="none" stroke="#ff0099"/>
<path d="M154,177h 3" fill="none" stroke="#ff0099"/>
<g stroke="#ff0099" stroke-width="1" fill="#ff0099">
<circle cx=" 153" cy=" 177" r=" 1.5"/>
</g>
<path d="M161,136v -1" fill="none" stroke="#ff0099"/>
<path d="M161,133v -2" fill="none" stroke="#ff0099"/>
<path d="M157,134h 2" fill="none" stroke="#ff0099"/>
<path d="M162,134h 2" fill="none" stroke="#ff0099"/>
<g stroke="#ff0099" stroke-width="1" fill="#ff0099">
<circle cx=" 161" cy=" 134" r=" 1.5"/>
</g>
<path d="M168,88v -2" fill="none" stroke="#ff0099"/>
<path d="M168,84v -2" fill="none" stroke="#ff0099"/>
<path d="M164,85h 3" fill="none" stroke="#ff0099"/>
<path d="M169,85h 3" fill="none" stroke="#ff0099"/>
<g stroke="#ff0099" stroke-width="1" fill="#ff0099">
<circle cx=" 168" cy=" 85" r=" 1.5"/>
</g>
<path d="M176,69v -1" fill="none" stroke="#ff0099"/>
<path d="M176,65v -2" fill="none" stroke="#ff0099"/>
<path d="M172,66h 3" fill="none" stroke="#ff0099"/>
<path d="M177,66h 3" fill="none" stroke="#ff0099"/>
<g stroke="#ff0099" stroke-width="1" fill="#ff0099">
<circle cx=" 176" cy=" 66" r=" 1.5"/>
</g>
<path d="M183,329v -1" fill="none" stroke="#ff0099"/>
<path d="M183,326v -1" fill="none" stroke="#ff0099"/>
<path d="M180,327h 2" fill="none" stroke="#ff0099"/>
<path d="M184,327h 3" fill="none" stroke="#ff0099"/>
<g stroke="#ff0099" stroke-width="1" fill="#ff0099">
<circle cx=" 183" cy=" 327" r=" 1.5"/>
</g>
<path d="M418,333v -1" fill="none" stroke="#ff0099"/>
<path d="M418,330v -1" fill="none" stroke="#ff0099"/>
<path d="M414,331h 2" fill="none" stroke="#ff0099"/>
<path d="M419,331h 2" fill="none" stroke="#ff0099"/>
<g stroke="#ff0099" stroke-width="1" fill="#ff0099">
<circle cx=" 418" cy=" 331" r=" 1.5"/>
</g>
<path d="M425,119v -1" fill="none" stroke="#ff0099"/>
<path d="M425,115v -1" fill="none" stroke="#ff0099"/>
<path d="M421,116h 3" fill="none" stroke="#ff0099"/>
<path d="M426,116h 3" fill="none" stroke="#ff0099"/>
<g stroke="#ff0099" stroke-width="1" fill="#ff0099">
<circle cx=" 425" cy=" 116" r=" 1.5"/>
</g>
<path d="M433,94v -2" fill="none" stroke="#ff0099"/>
<path d="M433,90v -2" fill="none" stroke="#ff0099"/>
<path d="M429,91h 3" fill="none" stroke="#ff0099"/>
<path d="M434,91h 3" fill="none" stroke="#ff0099"/>
<g stroke="#ff0099" stroke-width="1" fill="#ff0099">
<circle cx=" 433" cy=" 91" r=" 1.5"/>
</g>
<path d="M440,130v -1" fill="none" stroke="#ff0099"/>
<path d="M440,126v -1" fill="none" stroke="#ff0099"/>
<path d="M437,128h 2" fill="none" stroke="#ff0099"/>
<path d="M441,128h 3" fill="none" stroke="#ff0099"/>
<g stroke="#ff0099" stroke-width="1" fill="#ff0099">
<circle cx=" 440" cy=" 128" r=" 1.5"/>
</g>
<path d="M448,180v -1" fill="none" stroke="#ff0099"/>
<path d="M448,177v -1" fill="none" stroke="#ff0099"/>
<path d="M444,178h 3" fill="none" stroke="#ff0099"/>
<path d="M449,178h 3" fill="none" stroke="#ff0099"/>
<g stroke="#ff0099" stroke-width="1" fill="#ff0099">
<circle cx=" 448" cy=" 178" r=" 1.5"/>
</g>
<path d="M455,227v -1" fill="none" stroke="#ff0099"/>
<path d="M455,224v -1" fill="none" stroke="#ff0099"/>
<path d="M452,225h 2" fill="none" stroke="#ff0099"/>
<path d="M457,225h 2" fill="none" stroke="#ff0099"/>
<g stroke="#ff0099" stroke-width="1" fill="#ff0099">
<circle cx=" 455" cy=" 225" r=" 1.5"/>
</g>
<path d="M463,271" fill="none" stroke="#ff0099"/>
<path d="M463,269v -1" fill="none" stroke="#ff0099"/>
<path d="M459,270h 3" fill="none" stroke="#ff0099"/>
<path d="M464,270h 3" fill="none" stroke="#ff0099"/>
<g stroke="#ff0099" stroke-width="1" fill="#ff0099">
<circle cx=" 463" cy=" 270" r=" 1.5"/>
</g>
<path d="M471,303v -1" fill="none" stroke="#ff0099"/>
<path d="M471,300" fill="none" stroke="#ff0099"/>
<path d="M467,301h 2" fill="none" stroke="#ff0099"/>
<path d="M472,301h 2" fill="none" stroke="#ff0099"/>
<g stroke="#ff0099" stroke-width="1" fill="#ff0099">
<circle cx=" 471" cy=" 301" r=" 1.5"/>
</g>
<path d="M478,323" fill="none" stroke="#ff0099"/>
<path d="M478,321" fill="none" stroke="#ff0099"/>
<path d="M474,322h 3" fill="none" stroke="#ff0099"/>
<path d="M479,322h 3" fill="none" stroke="#ff0099"/>
<g stroke="#ff0099" stroke-width="1" fill="#ff0099">
<circle cx=" 478" cy=" 322" r=" 1.5"/>
</g>
<path d="M482,352h 3" fill="none" stroke="#ff0099"/>
<path d="M487,352h 2" fill="none" stroke="#ff0099"/>
<g stroke="#ff0099" stroke-width="1" fill="#ff0099">
<circle cx=" 486" cy=" 352" r=" 1.5"/>
</g>
<path d="M74,446h 453" fill="none" stroke="black"/>
<path d="M74,434v 12" fill="none" stroke="black"/>
<path d="M89,440v 6" fill="none" stroke="black"/>
<path d="M104,440v 6" fill="none" stroke="black"/>
<path d="M119,440v 6" fill="none" stroke="black"/>
<path d="M134,440v 6" fill="none" stroke="black"/>
<path d="M149,434v 12" fill="none" stroke="black"/>
<path d="M164,440v 6" fill="none" stroke="black"/>
<path d="M180,440v 6" fill="none" stroke="black"/>
<path d="M195,440v 6" fill="none" stroke="black"/>
<path d="M210,440v 6" fill="none" stroke="black"/>
<path d="M225,434v 12" fill="none" stroke="black"/>
<path d="M240,440v 6" fill="none" stroke="black"/>
<path d="M255,440v 6" fill="none" stroke="black"/>
<path d="M270,440v 6" fill="none" stroke="black"/>
<path d="M285,440v 6" fill="none" stroke="black"/>
<path d="M300,434v 12" fill="none" stroke="black"/>
<path d="M316,440v 6" fill="none" stroke="black"/>
<path d="M331,440v 6" fill="none" stroke="black"/>
<path d="M346,440v 6" fill="none" stroke="black"/>
<path d="M361,440v 6" fill="none" stroke="black"/>
<path d="M376,434v 12" fill="none" stroke="black"/>
<path d="M391,440v 6" fill="none" stroke="black"/>
<path d="M406,440v 6" fill="none" stroke="black"/>
<path d="M421,440v 6" fill="none" stroke="black"/>
<path d="M437,440v 6" fill="none" stroke="black"/>
<path d="M452,434v 12" fill="none" stroke="black"/>
<path d="M467,440v 6" fill="none" stroke="black"/>
<path d="M482,440v 6" fill="none" stroke="black"/>
<path d="M497,440v 6" fill="none" stroke="black"/>
<path d="M512,440v 6" fill="none" stroke="black"/>
<path d="M527,434v 12" fill="none" stroke="black"/>
<path d="M527,434v 12" fill="none" stroke="black"/>
<text x="65" y="465" fill="black" font-size="18" font-family="Helvetica" font-weight="bold">
-3
</text>
<text x="141" y="465" fill="black" font-size="18" font-family="Helvetica" font-weight="bold">
-2
</text>
<text x="218" y="465" fill="black" font-size="18" font-family="Helvetica" font-weight="bold">
-1
</text>
<text x="295" y="465" fill="black" font-size="18" font-family="Helvetica" font-weight="bold">
0
</text>
<text x="372" y="465" fill="black" font-size="18" font-family="Helvetica" font-weight="bold">
1
</text>
<text x="446" y="465" fill="black" font-size="18" font-family="Helvetica" font-weight="bold">
2
</text>
<text x="522" y="465" fill="black" font-size="18" font-family="Helvetica" font-weight="bold">
3
</text>
<path d="M74,44h 453" fill="none" stroke="black"/>
<path d="M74,56v -12" fill="none" stroke="black"/>
<path d="M89,50v -6" fill="none" stroke="black"/>
<path d="M104,50v -6" fill="none" stroke="black"/>
<path d="M119,50v -6" fill="none" stroke="black"/>
<path d="M134,50v -6" fill="none" stroke="black"/>
<path d="M149,56v -12" fill="none" stroke="black"/>
<path d="M164,50v -6" fill="none" stroke="black"/>
<path d="M180,50v -6" fill="none" stroke="black"/>
<path d="M195,50v -6" fill="none" stroke="black"/>
<path d="M210,50v -6" fill="none" stroke="black"/>
<path d="M225,56v -12" fill="none" stroke="black"/>
<path d="M240,50v -6" fill="none" stroke="black"/>
<path d="M255,50v -6" fill="none" stroke="black"/>
<path d="M270,50v -6" fill="none" stroke="black"/>
<path d="M285,50v -6" fill="none" stroke="black"/>
<path d="M300,56v -12" fill="none" stroke="black"/>
<path d="M316,50v -6" fill="none" stroke="black"/>
<path d="M331,50v -6" fill="none" stroke="black"/>
<path d="M346,50v -6" fill="none" stroke="black"/>
<path d="M361,50v -6" fill="none" stroke="black"/>
<path d="M376,56v -12" fill="none" stroke="black"/>
<path d="M391,50v -6" fill="none" stroke="black"/>
<path d="M406,50v -6" fill="none" stroke="black"/>
<path d="M421,50v -6" fill="none" stroke="black"/>
<path d="M437,50v -6" fill="none" stroke="black"/>
<path d="M452,56v -12" fill="none" stroke="black"/>
<path d="M467,50v -6" fill="none" stroke="black"/>
<path d="M482,50v -6" fill="none" stroke="black"/>
<path d="M497,50v -6" fill="none" stroke="black"/>
<path d="M512,50v -6" fill="none" stroke="black"/>
<path d="M527,56v -12" fill="none" stroke="black"/>
<path d="M527,56v -12" fill="none" stroke="black"/>
<path d="M74,446v -402" fill="none" stroke="black"/>
<path d="M87,446h -13" fill="none" stroke="black"/>
<path d="M81,438h -7" fill="none" stroke="black"/>
<path d="M81,429h -7" fill="none" stroke="black"/>
<path d="M81,420h -7" fill="none" stroke="black"/>
<path d="M81,412h -7" fill="none" stroke="black"/>
<path d="M87,403h -13" fill="none" stroke="black"/>
<path d="M81,394h -7" fill="none" stroke="black"/>
<path d="M81,386h -7" fill="none" stroke="black"/>
<path d="M81,377h -7" fill="none" stroke="black"/>
<path d="M81,368h -7" fill="none" stroke="black"/>
<path d="M87,360h -13" fill="none" stroke="black"/>
<path d="M81,351h -7" fill="none" stroke="black"/>
<path d="M81,343h -7" fill="none" stroke="black"/>
<path d="M81,334h -7" fill="none" stroke="black"/>
<path d="M81,325h -7" fill="none" stroke="black"/>
<path d="M87,317h -13" fill="none" stroke="black"/>
<path d="M81,308h -7" fill="none" stroke="black"/>
<path d="M81,299h -7" fill="none" stroke="black"/>
<path d="M81,291h -7" fill="none" stroke="black"/>
<path d="M81,282h -7" fill="none" stroke="black"/>
<path d="M87,273h -13" fill="none" stroke="black"/>
<path d="M81,265h -7" fill="none" stroke="black"/>
<path d="M81,256h -7" fill="none" stroke="black"/>
<path d="M81,247h -7" fill="none" stroke="black"/>
<path d="M81,239h -7" fill="none" stroke="black"/>
<path d="M87,230h -13" fill="none" stroke="black"/>
<path d="M81,221h -7" fill="none" stroke="black"/>
<path d="M81,213h -7" fill="none" stroke="black"/>
<path d="M81,204h -7" fill="none" stroke="black"/>
<path d="M81,195h -7" fill="none" stroke="black"/>
<path d="M87,187h -13" fill="none" stroke="black"/>
<path d="M81,178h -7" fill="none" stroke="black"/>
<path d="M81,169h -7" fill="none" stroke="black"/>
<path d="M81,161h -7" fill="none" stroke="black"/>
<path d="M81,152h -7" fill="none" stroke="black"/>
<path d="M87,143h -13" fill="none" stroke="black"/>
<path d="M81,135h -7" fill="none" stroke="black"/>
<path d="M81,126h -7" fill="none" stroke="black"/>
<path d="M81,118h -7" fill="none" stroke="black"/>
<path d="M81,109h -7" fill="none" stroke="black"/>
<path d="M87,100h -13" fill="none" stroke="black"/>
<path d="M81,92h -7" fill="none" stroke="black"/>
<path d="M81,83h -7" fill="none" stroke="black"/>
<path d="M81,74h -7" fill="none" stroke="black"/>
<path d="M81,66h -7" fill="none" stroke="black"/>
<path d="M87,57h -13" fill="none" stroke="black"/>
<path d="M87,57h -13" fill="none" stroke="black"/>
<path d="M81,48h -7" fill="none" stroke="black"/>
<text x="61" y="453" fill="black" font-size="18" font-family="Helvetica" font-weight="bold">
0
</text>
<text x="37" y="409" fill="black" font-size="18" font-family="Helvetica" font-weight="bold">
0.01
</text>
<text x="35" y="366" fill="black" font-size="18" font-family="Helvetica" font-weight="bold">
0.02
</text>
<text x="35" y="323" fill="black" font-size="18" font-family="Helvetica" font-weight="bold">
0.03
</text>
<text x="34" y="280" fill="black" font-size="18" font-family="Helvetica" font-weight="bold">
0.04
</text>
<text x="34" y="236" fill="black" font-size="18" font-family="Helvetica" font-weight="bold">
0.05
</text>
<text x="34" y="193" fill="black" font-size="18" font-family="Helvetica" font-weight="bold">
0.06
</text>
<text x="35" y="150" fill="black" font-size="18" font-family="Helvetica" font-weight="bold">
0.07
</text>
<text x="35" y="107" fill="black" font-size="18" font-family="Helvetica" font-weight="bold">
0.08
</text>
<text x="35" y="63" fill="black" font-size="18" font-family="Helvetica" font-weight="bold">
0.09
</text>
<path d="M115,259v -3" fill="none" stroke="#99ff99" stroke-width="2"/>
<path d="M115,256v -3" fill="none" stroke="#99ff99" stroke-width="2"/>
<g stroke="black" stroke-width="2" fill="none">
<line x1="114" y1="256" x2="115" y2="256"/>
</g>
<path d="M123,207v -5" fill="none" stroke="#99ff99" stroke-width="2"/>
<path d="M123,202v -5" fill="none" stroke="#99ff99" stroke-width="2"/>
<g stroke="black" stroke-width="2" fill="none">
<line x1="122" y1="202" x2="123" y2="202"/>
</g>
<path d="M130,214v -5" fill="none" stroke="#99ff99" stroke-width="2"/>
<path d="M130,209v -4" fill="none" stroke="#99ff99" stroke-width="2"/>
<g stroke="black" stroke-width="2" fill="none">
<line x1="129" y1="209" x2="130" y2="209"/>
</g>
<path d="M138,211v -5" fill="none" stroke="#99ff99" stroke-width="2"/>
<path d="M138,206v -4" fill="none" stroke="#99ff99" stroke-width="2"/>
<g stroke="black" stroke-width="2" fill="none">
<line x1="137" y1="206" x2="138" y2="206"/>
</g>
<path d="M146,218v -5" fill="none" stroke="#99ff99" stroke-width="2"/>
<path d="M146,213v -5" fill="none" stroke="#99ff99" stroke-width="2"/>
<g stroke="black" stroke-width="2" fill="none">
<line x1="145" y1="213" x2="146" y2="213"/>
</g>
<path d="M153,204v -5" fill="none" stroke="#99ff99" stroke-width="2"/>
<path d="M153,199v -5" fill="none" stroke="#99ff99" stroke-width="2"/>
<g stroke="black" stroke-width="2" fill="none">
<line x1="152" y1="199" x2="153" y2="199"/>
</g>
<path d="M161,224v -4" fill="none" stroke="#99ff99" stroke-width="2"/>
<path d="M161,220v -5" fill="none" stroke="#99ff99" stroke-width="2"/>
<g stroke="black" stroke-width="2" fill="none">
<line x1="160" y1="220" x2="161" y2="220"/>
</g>
<path d="M168,221v -5" fill="none" stroke="#99ff99" stroke-width="2"/>
<path d="M168,216v -4" fill="none" stroke="#99ff99" stroke-width="2"/>
<g stroke="black" stroke-width="2" fill="none">
<line x1="167" y1="216" x2="168" y2="216"/>
</g>
<path d="M176,224v -5" fill="none" stroke="#99ff99" stroke-width="2"/>
<path d="M176,219v -4" fill="none" stroke="#99ff99" stroke-width="2"/>
<g stroke="black" stroke-width="2" fill="none">
<line x1="175" y1="219" x2="176" y2="219"/>
</g>
<path d="M183,372v -3" fill="none" stroke="#99ff99" stroke-width="2"/>
<path d="M183,369v -3" fill="none" stroke="#99ff99" stroke-width="2"/>
<g stroke="black" stroke-width="2" fill="none">
<line x1="182" y1="369" x2="183" y2="369"/>
</g>
<path d="M418,379v -3" fill="none" stroke="#99ff99" stroke-width="2"/>
<path d="M418,376v -2" fill="none" stroke="#99ff99" stroke-width="2"/>
<g stroke="black" stroke-width="2" fill="none">
<line x1="417" y1="376" x2="418" y2="376"/>
</g>
<path d="M425,243v -4" fill="none" stroke="#99ff99" stroke-width="2"/>
<path d="M425,239v -4" fill="none" stroke="#99ff99" stroke-width="2"/>
<g stroke="black" stroke-width="2" fill="none">
<line x1="424" y1="239" x2="425" y2="239"/>
</g>
<path d="M433,223v -4" fill="none" stroke="#99ff99" stroke-width="2"/>
<path d="M433,219v -5" fill="none" stroke="#99ff99" stroke-width="2"/>
<g stroke="black" stroke-width="2" fill="none">
<line x1="432" y1="219" x2="433" y2="219"/>
</g>
<path d="M440,223v -5" fill="none" stroke="#99ff99" stroke-width="2"/>
<path d="M440,218v -4" fill="none" stroke="#99ff99" stroke-width="2"/>
<g stroke="black" stroke-width="2" fill="none">
<line x1="439" y1="218" x2="440" y2="218"/>
</g>
<path d="M448,212v -4" fill="none" stroke="#99ff99" stroke-width="2"/>
<path d="M448,208v -5" fill="none" stroke="#99ff99" stroke-width="2"/>
<g stroke="black" stroke-width="2" fill="none">
<line x1="447" y1="208" x2="448" y2="208"/>
</g>
<path d="M455,197v -4" fill="none" stroke="#99ff99" stroke-width="2"/>
<path d="M455,193v -5" fill="none" stroke="#99ff99" stroke-width="2"/>
<g stroke="black" stroke-width="2" fill="none">
<line x1="454" y1="193" x2="455" y2="193"/>
</g>
<path d="M463,207v -5" fill="none" stroke="#99ff99" stroke-width="2"/>
<path d="M463,202v -5" fill="none" stroke="#99ff99" stroke-width="2"/>
<g stroke="black" stroke-width="2" fill="none">
<line x1="462" y1="202" x2="463" y2="202"/>
</g>
<path d="M471,195v -5" fill="none" stroke="#99ff99" stroke-width="2"/>
<path d="M471,190v -5" fill="none" stroke="#99ff99" stroke-width="2"/>
<g stroke="black" stroke-width="2" fill="none">
<line x1="470" y1="190" x2="471" y2="190"/>
</g>
<path d="M478,194v -5" fill="none" stroke="#99ff99" stroke-width="2"/>
<path d="M478,189v -5" fill="none" stroke="#99ff99" stroke-width="2"/>
<g stroke="black" stroke-width="2" fill="none">
<line x1="477" y1="189" x2="478" y2="189"/>
</g>
<path d="M486,260v -3" fill="none" stroke="#99ff99" stroke-width="2"/>
<path d="M486,257v -3" fill="none" stroke="#99ff99" stroke-width="2"/>
<g stroke="black" stroke-width="2" fill="none">
<line x1="485" y1="257" x2="486" y2="257"/>
</g>
<path d="M74,446h 37v -190h 8v -54h 8v 7h 7v -3h 8v 7h 7v -14h 8v 21h 7v -4h 8v 3h 8v 150h 7v 77h 227v -70h 7v -137h 8v -20h 8v -1h 7v -10h 8v -15h 7v 9h 8v -12h 7v -1h 8v 68h 7v 189h 38z" fill="#99ff99"/>
<path d="M74,446h 37v -190h 8v -54h 8v 7h 7v -3h 8v 7h 7v -14h 8v 21h 7v -4h 8v 3h 8v 150h 7v 77h 227v -70h 7v -137h 8v -20h 8v -1h 7v -10h 8v -15h 7v 9h 8v -12h 7v -1h 8v 68h 7v 189h 38" fill="none" stroke="#99ff99" stroke-width="2"/>
<path d="M111,353h 3" fill="none" stroke="#ff0099"/>
<path d="M116,353h 3" fill="none" stroke="#ff0099"/>
<g stroke="#ff0099" stroke-width="1" fill="#ff0099">
<circle cx=" 115" cy=" 353" r=" 1.5"/>
</g>
<path d="M119,326h 3" fill="none" stroke="#ff0099"/>
<path d="M124,326h 3" fill="none" stroke="#ff0099"/>
<g stroke="#ff0099" stroke-width="1" fill="#ff0099">
<circle cx=" 123" cy=" 326" r=" 1.5"/>
</g>
<path d="M130,307" fill="none" stroke="#ff0099"/>
<path d="M130,304" fill="none" stroke="#ff0099"/>
<path d="M127,306h 2" fill="none" stroke="#ff0099"/>
<path d="M132,306h 2" fill="none" stroke="#ff0099"/>
<g stroke="#ff0099" stroke-width="1" fill="#ff0099">
<circle cx=" 130" cy=" 306" r=" 1.5"/>
</g>
<path d="M138,284" fill="none" stroke="#ff0099"/>
<path d="M138,282" fill="none" stroke="#ff0099"/>
<path d="M134,283h 3" fill="none" stroke="#ff0099"/>
<path d="M139,283h 3" fill="none" stroke="#ff0099"/>
<g stroke="#ff0099" stroke-width="1" fill="#ff0099">
<circle cx=" 138" cy=" 283" r=" 1.5"/>
</g>
<path d="M146,231" fill="none" stroke="#ff0099"/>
<path d="M146,228" fill="none" stroke="#ff0099"/>
<path d="M142,230h 2" fill="none" stroke="#ff0099"/>
<path d="M147,230h 2" fill="none" stroke="#ff0099"/>
<g stroke="#ff0099" stroke-width="1" fill="#ff0099">
<circle cx=" 146" cy=" 230" r=" 1.5"/>
</g>
<path d="M153,179v -1" fill="none" stroke="#ff0099"/>
<path d="M153,176v -1" fill="none" stroke="#ff0099"/>
<path d="M149,177h 3" fill="none" stroke="#ff0099"/>
<path d="M154,177h 3" fill="none" stroke="#ff0099"/>
<g stroke="#ff0099" stroke-width="1" fill="#ff0099">
<circle cx=" 153" cy=" 177" r=" 1.5"/>
</g>
<path d="M161,136v -1" fill="none" stroke="#ff0099"/>
<path d="M161,133v -2" fill="none" stroke="#ff0099"/>
<path d="M157,134h 2" fill="none" stroke="#ff0099"/>
<path d="M162,134h 2" fill="none" stroke="#ff0099"/>
<g stroke="#ff0099" stroke-width="1" fill="#ff0099">
<circle cx=" 161" cy=" 134" r=" 1.5"/>
</g>
<path d="M168,88v -2" fill="none" stroke="#ff0099"/>
<path d="M168,84v -2" fill="none" stroke="#ff0099"/>
<path d="M164,85h 3" fill="none" stroke="#ff0099"/>
<path d="M169,85h 3" fill="none" stroke="#ff0099"/>
<g stroke="#ff0099" stroke-width="1" fill="#ff0099">
<circle cx=" 168" cy=" 85" r=" 1.5"/>
</g>
<path d="M176,69v -1" fill="none" stroke="#ff0099"/>
<path d="M176,65v -2" fill="none" stroke="#ff0099"/>
<path d="M172,66h 3" fill="none" stroke="#ff0099"/>
<path d="M177,66h 3" fill="none" stroke="#ff0099"/>
<g stroke="#ff0099" stroke-width="1" fill="#ff0099">
<circle cx=" 176" cy=" 66" r=" 1.5"/>
</g>
<path d="M183,329v -1" fill="none" stroke="#ff0099"/>
<path d="M183,326v -1" fill="none" stroke="#ff0099"/>
<path d="M180,327h 2" fill="none" stroke="#ff0099"/>
<path d="M184,327h 3" fill="none" stroke="#ff0099"/>
<g stroke="#ff0099" stroke-width="1" fill="#ff0099">
<circle cx=" 183" cy=" 327" r=" 1.5"/>
</g>
<path d="M418,333v -1" fill="none" stroke="#ff0099"/>
<path d="M418,330v -1" fill="none" stroke="#ff0099"/>
<path d="M414,331h 2" fill="none" stroke="#ff0099"/>
<path d="M419,331h 2" fill="none" stroke="#ff0099"/>
<g stroke="#ff0099" stroke-width="1" fill="#ff0099">
<circle cx=" 418" cy=" 331" r=" 1.5"/>
</g>
<path d="M425,119v -1" fill="none" stroke="#ff0099"/>
<path d="M425,115v -1" fill="none" stroke="#ff0099"/>
<path d="M421,116h 3" fill="none" stroke="#ff0099"/>
<path d="M426,116h 3" fill="none" stroke="#ff0099"/>
<g stroke="#ff0099" stroke-width="1" fill="#ff0099">
<circle cx=" 425" cy=" 116" r=" 1.5"/>
</g>
<path d="M433,94v -2" fill="none" stroke="#ff0099"/>
<path d="M433,90v -2" fill="none" stroke="#ff0099"/>
<path d="M429,91h 3" fill="none" stroke="#ff0099"/>
<path d="M434,91h 3" fill="none" stroke="#ff0099"/>
<g stroke="#ff0099" stroke-width="1" fill="#ff0099">
<circle cx=" 433" cy=" 91" r=" 1.5"/>
</g>
<path d="M440,130v -1" fill="none" stroke="#ff0099"/>
<path d="M440,126v -1" fill="none" stroke="#ff0099"/>
<path d="M437,128h 2" fill="none" stroke="#ff0099"/>
<path d="M441,128h 3" fill="none" stroke="#ff0099"/>
<g stroke="#ff0099" stroke-width="1" fill="#ff0099">
<circle cx=" 440" cy=" 128" r=" 1.5"/>
</g>
<path d="M448,180v -1" fill="none" stroke="#ff0099"/>
<path d="M448,177v -1" fill="none" stroke="#ff0099"/>
<path d="M444,178h 3" fill="none" stroke="#ff0099"/>
<path d="M449,178h 3" fill="none" stroke="#ff0099"/>
<g stroke="#ff0099" stroke-width="1" fill="#ff0099">
<circle cx=" 448" cy=" 178" r=" 1.5"/>
</g>
<path d="M455,227v -1" fill="none" stroke="#ff0099"/>
<path d="M455,224v -1" fill="none" stroke="#ff0099"/>
<path d="M452,225h 2" fill="none" stroke="#ff0099"/>
<path d="M457,225h 2" fill="none" stroke="#ff0099"/>
<g stroke="#ff0099" stroke-width="1" fill="#ff0099">
<circle cx=" 455" cy=" 225" r=" 1.5"/>
</g>
<path d="M463,271" fill="none" stroke="#ff0099"/>
<path d="M463,269v -1" fill="none" stroke="#ff0099"/>
<path d="M459,270h 3" fill="none" stroke="#ff0099"/>
<path d="M464,270h 3" fill="none" stroke="#ff0099"/>
<g stroke="#ff0099" stroke-width="1" fill="#ff0099">
<circle cx=" 463" cy=" 270" r=" 1.5"/>
</g>
<path d="M471,303v -1" fill="none" stroke="#ff0099"/>
<path d="M471,300" fill="none" stroke="#ff0099"/>
<path d="M467,301h 2" fill="none" stroke="#ff0099"/>
<path d="M472,301h 2" fill="none" stroke="#ff0099"/>
<g stroke="#ff0099" stroke-width="1" fill="#ff0099">
<circle cx=" 471" cy=" 301" r=" 1.5"/>
</g>
<path d="M478,323" fill="none" stroke="#ff0099"/>
<path d="M478,321" fill="none" stroke="#ff0099"/>
<path d="M474,322h 3" fill="none" stroke="#ff0099"/>
<path d="M479,322h 3" fill="none" stroke="#ff0099"/>
<g stroke="#ff0099" stroke-width="1" fill="#ff0099">
<circle cx=" 478" cy=" 322" r=" 1.5"/>
</g>
<path d="M482,352h 3" fill="none" stroke="#ff0099"/>
<path d="M487,352h 2" fill="none" stroke="#ff0099"/>
<g stroke="#ff0099" stroke-width="1" fill="#ff0099">
<circle cx=" 486" cy=" 352" r=" 1.5"/>
</g>
<rect x="357" y="59" width="142" height="99" fill="white"/>
<text x="360" y="82" fill="black" font-size="17" font-family="Helvetica" font-weight="bold">
EE
</text>
<text x="457" y="115" fill="black" font-size="17" font-family="Helvetica" font-weight="bold">
 ee
</text>
<text x="440" y="115" fill="black" font-size="17" font-family="Times">
&#8594;
</text>
<text x="392" y="115" fill="black" font-size="17" font-family="Helvetica" font-weight="bold">
MC Z 
</text>
<path d="M362,109h 25" fill="none" stroke="#ff0099"/>
<g stroke="#ff0099" stroke-width="1" fill="#ff0099">
<circle cx=" 375" cy=" 109" r=" 1.5"/>
</g>
<text x="455" y="147" fill="black" font-size="17" font-family="Helvetica" font-weight="bold">
 + jet
</text>
<text x="447" y="147" fill="black" font-size="17" font-family="Times">
&#0947;
</text>
<text x="392" y="147" fill="black" font-size="17" font-family="Helvetica" font-weight="bold">
signal 
</text>
<path d="M362,154h 25v -24h -25z" fill="#99ff99"/>
<path d="M362,130h 25" fill="none" stroke="#99ff99" stroke-width="2"/>
<path d="M362,154h 25" fill="none" stroke="#99ff99" stroke-width="2"/>
<path d="M387,154v -24" fill="none" stroke="#99ff99" stroke-width="2"/>
<path d="M362,154v -24" fill="none" stroke="#99ff99" stroke-width="2"/>
<text x="300" y="34" fill="black" font-size="17" font-family="Helvetica" font-weight="bold">
=8 TeV
</text>
<text x="291" y="34" fill="black" font-size="17" font-family="Helvetica" font-weight="bold">
s
</text>
<path d="M285,25l 2, 10" fill="none" stroke="black" stroke-width="2"/>
<path d="M287,35l 2, -14" fill="none" stroke="black"/>
<path d="M289,21h 11" fill="none" stroke="black"/>
<text x="142" y="34" fill="black" font-size="17" font-family="Helvetica" font-weight="bold">
CMS Preliminary 
</text></svg>
