<?xml version="1.0" standalone="no"?>
<svg width="567" height="496" viewBox="0 0 567 496" xmlns="http://www.w3.org/2000/svg">
<title>
../src/TagAndProbeZ/plots_mcZee_mcGJet_withEtaW/hlt30//mvaIdPhotEE.svg
</title>
<desc>
Creator: ROOT Version 5.32/00
CreationDate: Sat Sep 27 22:34:53 2014</desc>
<defs>
</defs>
<rect x="0" y="0" width="567" height="496" fill="white"/>
<rect x="74" y="44" width="453" height="402" fill="white"/>
<rect x="74" y="44" width="453" height="402" fill="none" stroke="black"/>
<rect x="74" y="44" width="453" height="402" fill="white"/>
<rect x="74" y="44" width="453" height="402" fill="none" stroke="black"/>
<path d="M471,324" fill="none" stroke="#ff0099"/>
<path d="M471,321" fill="none" stroke="#ff0099"/>
<path d="M468,323h 1" fill="none" stroke="#ff0099"/>
<path d="M472,323h 1" fill="none" stroke="#ff0099"/>
<g stroke="#ff0099" stroke-width="1" fill="#ff0099">
<circle cx=" 471" cy=" 323" r=" 1.5"/>
</g>
<path d="M475,223" fill="none" stroke="#ff0099"/>
<path d="M475,220" fill="none" stroke="#ff0099"/>
<path d="M473,222h 1" fill="none" stroke="#ff0099"/>
<path d="M476,222h 1" fill="none" stroke="#ff0099"/>
<g stroke="#ff0099" stroke-width="1" fill="#ff0099">
<circle cx=" 475" cy=" 222" r=" 1.5"/>
</g>
<path d="M480,192" fill="none" stroke="#ff0099"/>
<path d="M480,189" fill="none" stroke="#ff0099"/>
<path d="M477,191h 1" fill="none" stroke="#ff0099"/>
<path d="M481,191h 1" fill="none" stroke="#ff0099"/>
<g stroke="#ff0099" stroke-width="1" fill="#ff0099">
<circle cx=" 480" cy=" 191" r=" 1.5"/>
</g>
<path d="M484,164v -1" fill="none" stroke="#ff0099"/>
<path d="M484,161v -1" fill="none" stroke="#ff0099"/>
<path d="M482,162h 1" fill="none" stroke="#ff0099"/>
<path d="M485,162h 1" fill="none" stroke="#ff0099"/>
<g stroke="#ff0099" stroke-width="1" fill="#ff0099">
<circle cx=" 484" cy=" 162" r=" 1.5"/>
</g>
<path d="M489,137v -1" fill="none" stroke="#ff0099"/>
<path d="M489,134v -1" fill="none" stroke="#ff0099"/>
<path d="M486,135h 2" fill="none" stroke="#ff0099"/>
<path d="M490,135h 1" fill="none" stroke="#ff0099"/>
<g stroke="#ff0099" stroke-width="1" fill="#ff0099">
<circle cx=" 489" cy=" 135" r=" 1.5"/>
</g>
<path d="M493,103v -1" fill="none" stroke="#ff0099"/>
<path d="M493,100v -1" fill="none" stroke="#ff0099"/>
<path d="M491,101h 1" fill="none" stroke="#ff0099"/>
<path d="M494,101h 1" fill="none" stroke="#ff0099"/>
<g stroke="#ff0099" stroke-width="1" fill="#ff0099">
<circle cx=" 493" cy=" 101" r=" 1.5"/>
</g>
<path d="M498,79v -1" fill="none" stroke="#ff0099"/>
<path d="M498,75v -1" fill="none" stroke="#ff0099"/>
<path d="M495,77h 2" fill="none" stroke="#ff0099"/>
<path d="M499,77h 1" fill="none" stroke="#ff0099"/>
<g stroke="#ff0099" stroke-width="1" fill="#ff0099">
<circle cx=" 498" cy=" 77" r=" 1.5"/>
</g>
<path d="M502,68v -1" fill="none" stroke="#ff0099"/>
<path d="M502,65v -2" fill="none" stroke="#ff0099"/>
<path d="M500,66h 1" fill="none" stroke="#ff0099"/>
<path d="M503,66h 2" fill="none" stroke="#ff0099"/>
<g stroke="#ff0099" stroke-width="1" fill="#ff0099">
<circle cx=" 502" cy=" 66" r=" 1.5"/>
</g>
<path d="M507,116v -1" fill="none" stroke="#ff0099"/>
<path d="M507,112v -1" fill="none" stroke="#ff0099"/>
<path d="M505,113h 1" fill="none" stroke="#ff0099"/>
<path d="M508,113h 1" fill="none" stroke="#ff0099"/>
<g stroke="#ff0099" stroke-width="1" fill="#ff0099">
<circle cx=" 507" cy=" 113" r=" 1.5"/>
</g>
<path d="M511,272v -1" fill="none" stroke="#ff0099"/>
<path d="M511,269" fill="none" stroke="#ff0099"/>
<path d="M509,270h 1" fill="none" stroke="#ff0099"/>
<path d="M513,270h 1" fill="none" stroke="#ff0099"/>
<g stroke="#ff0099" stroke-width="1" fill="#ff0099">
<circle cx=" 511" cy=" 270" r=" 1.5"/>
</g>
<path d="M514,403h 1" fill="none" stroke="#ff0099"/>
<path d="M517,403h 1" fill="none" stroke="#ff0099"/>
<g stroke="#ff0099" stroke-width="1" fill="#ff0099">
<circle cx=" 516" cy=" 403" r=" 1.5"/>
</g>
<path d="M518,443h 1" fill="none" stroke="#ff0099"/>
<path d="M522,443h 1" fill="none" stroke="#ff0099"/>
<g stroke="#ff0099" stroke-width="1" fill="#ff0099">
<circle cx=" 520" cy=" 443" r=" 1.5"/>
</g>
<path d="M523,445h 1" fill="none" stroke="#ff0099"/>
<path d="M526,445h 1" fill="none" stroke="#ff0099"/>
<g stroke="#ff0099" stroke-width="1" fill="#ff0099">
<circle cx=" 525" cy=" 445" r=" 1.5"/>
</g>
<path d="M74,446h 453" fill="none" stroke="black"/>
<path d="M74,434v 12" fill="none" stroke="black"/>
<path d="M83,440v 6" fill="none" stroke="black"/>
<path d="M92,440v 6" fill="none" stroke="black"/>
<path d="M101,440v 6" fill="none" stroke="black"/>
<path d="M110,440v 6" fill="none" stroke="black"/>
<path d="M119,434v 12" fill="none" stroke="black"/>
<path d="M128,440v 6" fill="none" stroke="black"/>
<path d="M137,440v 6" fill="none" stroke="black"/>
<path d="M146,440v 6" fill="none" stroke="black"/>
<path d="M155,440v 6" fill="none" stroke="black"/>
<path d="M164,434v 12" fill="none" stroke="black"/>
<path d="M173,440v 6" fill="none" stroke="black"/>
<path d="M183,440v 6" fill="none" stroke="black"/>
<path d="M192,440v 6" fill="none" stroke="black"/>
<path d="M201,440v 6" fill="none" stroke="black"/>
<path d="M210,434v 12" fill="none" stroke="black"/>
<path d="M219,440v 6" fill="none" stroke="black"/>
<path d="M228,440v 6" fill="none" stroke="black"/>
<path d="M237,440v 6" fill="none" stroke="black"/>
<path d="M246,440v 6" fill="none" stroke="black"/>
<path d="M255,434v 12" fill="none" stroke="black"/>
<path d="M264,440v 6" fill="none" stroke="black"/>
<path d="M273,440v 6" fill="none" stroke="black"/>
<path d="M282,440v 6" fill="none" stroke="black"/>
<path d="M291,440v 6" fill="none" stroke="black"/>
<path d="M300,434v 12" fill="none" stroke="black"/>
<path d="M310,440v 6" fill="none" stroke="black"/>
<path d="M319,440v 6" fill="none" stroke="black"/>
<path d="M328,440v 6" fill="none" stroke="black"/>
<path d="M337,440v 6" fill="none" stroke="black"/>
<path d="M346,434v 12" fill="none" stroke="black"/>
<path d="M355,440v 6" fill="none" stroke="black"/>
<path d="M364,440v 6" fill="none" stroke="black"/>
<path d="M373,440v 6" fill="none" stroke="black"/>
<path d="M382,440v 6" fill="none" stroke="black"/>
<path d="M391,434v 12" fill="none" stroke="black"/>
<path d="M400,440v 6" fill="none" stroke="black"/>
<path d="M409,440v 6" fill="none" stroke="black"/>
<path d="M418,440v 6" fill="none" stroke="black"/>
<path d="M427,440v 6" fill="none" stroke="black"/>
<path d="M437,434v 12" fill="none" stroke="black"/>
<path d="M446,440v 6" fill="none" stroke="black"/>
<path d="M455,440v 6" fill="none" stroke="black"/>
<path d="M464,440v 6" fill="none" stroke="black"/>
<path d="M473,440v 6" fill="none" stroke="black"/>
<path d="M482,434v 12" fill="none" stroke="black"/>
<path d="M491,440v 6" fill="none" stroke="black"/>
<path d="M500,440v 6" fill="none" stroke="black"/>
<path d="M509,440v 6" fill="none" stroke="black"/>
<path d="M518,440v 6" fill="none" stroke="black"/>
<path d="M527,434v 12" fill="none" stroke="black"/>
<text x="68" y="465" fill="black" font-size="18" font-family="Helvetica" font-weight="bold">
0
</text>
<text x="107" y="465" fill="black" font-size="18" font-family="Helvetica" font-weight="bold">
0.1
</text>
<text x="151" y="465" fill="black" font-size="18" font-family="Helvetica" font-weight="bold">
0.2
</text>
<text x="196" y="465" fill="black" font-size="18" font-family="Helvetica" font-weight="bold">
0.3
</text>
<text x="242" y="465" fill="black" font-size="18" font-family="Helvetica" font-weight="bold">
0.4
</text>
<text x="287" y="465" fill="black" font-size="18" font-family="Helvetica" font-weight="bold">
0.5
</text>
<text x="332" y="465" fill="black" font-size="18" font-family="Helvetica" font-weight="bold">
0.6
</text>
<text x="378" y="465" fill="black" font-size="18" font-family="Helvetica" font-weight="bold">
0.7
</text>
<text x="423" y="465" fill="black" font-size="18" font-family="Helvetica" font-weight="bold">
0.8
</text>
<text x="468" y="465" fill="black" font-size="18" font-family="Helvetica" font-weight="bold">
0.9
</text>
<text x="523" y="465" fill="black" font-size="18" font-family="Helvetica" font-weight="bold">
1
</text>
<path d="M74,44h 453" fill="none" stroke="black"/>
<path d="M74,56v -12" fill="none" stroke="black"/>
<path d="M83,50v -6" fill="none" stroke="black"/>
<path d="M92,50v -6" fill="none" stroke="black"/>
<path d="M101,50v -6" fill="none" stroke="black"/>
<path d="M110,50v -6" fill="none" stroke="black"/>
<path d="M119,56v -12" fill="none" stroke="black"/>
<path d="M128,50v -6" fill="none" stroke="black"/>
<path d="M137,50v -6" fill="none" stroke="black"/>
<path d="M146,50v -6" fill="none" stroke="black"/>
<path d="M155,50v -6" fill="none" stroke="black"/>
<path d="M164,56v -12" fill="none" stroke="black"/>
<path d="M173,50v -6" fill="none" stroke="black"/>
<path d="M183,50v -6" fill="none" stroke="black"/>
<path d="M192,50v -6" fill="none" stroke="black"/>
<path d="M201,50v -6" fill="none" stroke="black"/>
<path d="M210,56v -12" fill="none" stroke="black"/>
<path d="M219,50v -6" fill="none" stroke="black"/>
<path d="M228,50v -6" fill="none" stroke="black"/>
<path d="M237,50v -6" fill="none" stroke="black"/>
<path d="M246,50v -6" fill="none" stroke="black"/>
<path d="M255,56v -12" fill="none" stroke="black"/>
<path d="M264,50v -6" fill="none" stroke="black"/>
<path d="M273,50v -6" fill="none" stroke="black"/>
<path d="M282,50v -6" fill="none" stroke="black"/>
<path d="M291,50v -6" fill="none" stroke="black"/>
<path d="M300,56v -12" fill="none" stroke="black"/>
<path d="M310,50v -6" fill="none" stroke="black"/>
<path d="M319,50v -6" fill="none" stroke="black"/>
<path d="M328,50v -6" fill="none" stroke="black"/>
<path d="M337,50v -6" fill="none" stroke="black"/>
<path d="M346,56v -12" fill="none" stroke="black"/>
<path d="M355,50v -6" fill="none" stroke="black"/>
<path d="M364,50v -6" fill="none" stroke="black"/>
<path d="M373,50v -6" fill="none" stroke="black"/>
<path d="M382,50v -6" fill="none" stroke="black"/>
<path d="M391,56v -12" fill="none" stroke="black"/>
<path d="M400,50v -6" fill="none" stroke="black"/>
<path d="M409,50v -6" fill="none" stroke="black"/>
<path d="M418,50v -6" fill="none" stroke="black"/>
<path d="M427,50v -6" fill="none" stroke="black"/>
<path d="M437,56v -12" fill="none" stroke="black"/>
<path d="M446,50v -6" fill="none" stroke="black"/>
<path d="M455,50v -6" fill="none" stroke="black"/>
<path d="M464,50v -6" fill="none" stroke="black"/>
<path d="M473,50v -6" fill="none" stroke="black"/>
<path d="M482,56v -12" fill="none" stroke="black"/>
<path d="M491,50v -6" fill="none" stroke="black"/>
<path d="M500,50v -6" fill="none" stroke="black"/>
<path d="M509,50v -6" fill="none" stroke="black"/>
<path d="M518,50v -6" fill="none" stroke="black"/>
<path d="M527,56v -12" fill="none" stroke="black"/>
<path d="M74,446v -402" fill="none" stroke="black"/>
<path d="M87,446h -13" fill="none" stroke="black"/>
<path d="M81,432h -7" fill="none" stroke="black"/>
<path d="M81,418h -7" fill="none" stroke="black"/>
<path d="M81,404h -7" fill="none" stroke="black"/>
<path d="M87,389h -13" fill="none" stroke="black"/>
<path d="M81,375h -7" fill="none" stroke="black"/>
<path d="M81,361h -7" fill="none" stroke="black"/>
<path d="M81,347h -7" fill="none" stroke="black"/>
<path d="M87,332h -13" fill="none" stroke="black"/>
<path d="M81,318h -7" fill="none" stroke="black"/>
<path d="M81,304h -7" fill="none" stroke="black"/>
<path d="M81,289h -7" fill="none" stroke="black"/>
<path d="M87,275h -13" fill="none" stroke="black"/>
<path d="M81,261h -7" fill="none" stroke="black"/>
<path d="M81,247h -7" fill="none" stroke="black"/>
<path d="M81,232h -7" fill="none" stroke="black"/>
<path d="M87,218h -13" fill="none" stroke="black"/>
<path d="M81,204h -7" fill="none" stroke="black"/>
<path d="M81,190h -7" fill="none" stroke="black"/>
<path d="M81,175h -7" fill="none" stroke="black"/>
<path d="M87,161h -13" fill="none" stroke="black"/>
<path d="M81,147h -7" fill="none" stroke="black"/>
<path d="M81,133h -7" fill="none" stroke="black"/>
<path d="M81,118h -7" fill="none" stroke="black"/>
<path d="M87,104h -13" fill="none" stroke="black"/>
<path d="M81,90h -7" fill="none" stroke="black"/>
<path d="M81,76h -7" fill="none" stroke="black"/>
<path d="M81,61h -7" fill="none" stroke="black"/>
<path d="M87,47h -13" fill="none" stroke="black"/>
<path d="M87,47h -13" fill="none" stroke="black"/>
<text x="61" y="453" fill="black" font-size="18" font-family="Helvetica" font-weight="bold">
0
</text>
<text x="35" y="396" fill="black" font-size="18" font-family="Helvetica" font-weight="bold">
0.02
</text>
<text x="34" y="339" fill="black" font-size="18" font-family="Helvetica" font-weight="bold">
0.04
</text>
<text x="34" y="282" fill="black" font-size="18" font-family="Helvetica" font-weight="bold">
0.06
</text>
<text x="35" y="224" fill="black" font-size="18" font-family="Helvetica" font-weight="bold">
0.08
</text>
<text x="47" y="168" fill="black" font-size="18" font-family="Helvetica" font-weight="bold">
0.1
</text>
<text x="35" y="111" fill="black" font-size="18" font-family="Helvetica" font-weight="bold">
0.12
</text>
<text x="34" y="54" fill="black" font-size="18" font-family="Helvetica" font-weight="bold">
0.14
</text>
<path d="M471,387v -2" fill="none" stroke="#99ff99" stroke-width="2"/>
<path d="M471,385v -2" fill="none" stroke="#99ff99" stroke-width="2"/>
<g stroke="black" stroke-width="2" fill="none">
<line x1="470" y1="385" x2="471" y2="385"/>
</g>
<path d="M475,333v -3" fill="none" stroke="#99ff99" stroke-width="2"/>
<path d="M475,330v -2" fill="none" stroke="#99ff99" stroke-width="2"/>
<g stroke="black" stroke-width="2" fill="none">
<line x1="474" y1="330" x2="475" y2="330"/>
</g>
<path d="M480,315v -3" fill="none" stroke="#99ff99" stroke-width="2"/>
<path d="M480,312v -3" fill="none" stroke="#99ff99" stroke-width="2"/>
<g stroke="black" stroke-width="2" fill="none">
<line x1="479" y1="312" x2="480" y2="312"/>
</g>
<path d="M484,287v -3" fill="none" stroke="#99ff99" stroke-width="2"/>
<path d="M484,284v -3" fill="none" stroke="#99ff99" stroke-width="2"/>
<g stroke="black" stroke-width="2" fill="none">
<line x1="483" y1="284" x2="484" y2="284"/>
</g>
<path d="M489,264v -4" fill="none" stroke="#99ff99" stroke-width="2"/>
<path d="M489,260v -3" fill="none" stroke="#99ff99" stroke-width="2"/>
<g stroke="black" stroke-width="2" fill="none">
<line x1="488" y1="260" x2="489" y2="260"/>
</g>
<path d="M493,216v -4" fill="none" stroke="#99ff99" stroke-width="2"/>
<path d="M493,212v -4" fill="none" stroke="#99ff99" stroke-width="2"/>
<g stroke="black" stroke-width="2" fill="none">
<line x1="492" y1="212" x2="493" y2="212"/>
</g>
<path d="M498,167v -4" fill="none" stroke="#99ff99" stroke-width="2"/>
<path d="M498,163v -4" fill="none" stroke="#99ff99" stroke-width="2"/>
<g stroke="black" stroke-width="2" fill="none">
<line x1="497" y1="163" x2="498" y2="163"/>
</g>
<path d="M502,84v -5" fill="none" stroke="#99ff99" stroke-width="2"/>
<path d="M502,79v -4" fill="none" stroke="#99ff99" stroke-width="2"/>
<g stroke="black" stroke-width="2" fill="none">
<line x1="501" y1="79" x2="502" y2="79"/>
</g>
<path d="M516,156v -4" fill="none" stroke="#99ff99" stroke-width="2"/>
<path d="M516,152v -4" fill="none" stroke="#99ff99" stroke-width="2"/>
<g stroke="black" stroke-width="2" fill="none">
<line x1="515" y1="152" x2="516" y2="152"/>
</g>
<path d="M520,401v -1" fill="none" stroke="#99ff99" stroke-width="2"/>
<path d="M520,400v -2" fill="none" stroke="#99ff99" stroke-width="2"/>
<g stroke="black" stroke-width="2" fill="none">
<line x1="519" y1="400" x2="520" y2="400"/>
</g>
<path d="M525,443v -1" fill="none" stroke="#99ff99" stroke-width="2"/>
<path d="M525,442" fill="none" stroke="#99ff99" stroke-width="2"/>
<g stroke="black" stroke-width="2" fill="none">
<line x1="524" y1="442" x2="525" y2="442"/>
</g>
<path d="M74,446h 394v -61h 5v -55h 4v -18h 5v -28h 4v -24h 5v -48h 4v -49h 5v -84h 5v -35h 9v 108h 4v 248h 5v 42h 4v 4z" fill="#99ff99"/>
<path d="M74,446h 394v -61h 5v -55h 4v -18h 5v -28h 4v -24h 5v -48h 4v -49h 5v -84h 5v -35" fill="none" stroke="#99ff99" stroke-width="2"/>
<path d="M514,44v 108" fill="none" stroke="#99ff99" stroke-width="2"/>
<path d="M514,152h 4v 248h 5v 42h 4" fill="none" stroke="#99ff99" stroke-width="2"/>
<path d="M471,324" fill="none" stroke="#ff0099"/>
<path d="M471,321" fill="none" stroke="#ff0099"/>
<path d="M468,323h 1" fill="none" stroke="#ff0099"/>
<path d="M472,323h 1" fill="none" stroke="#ff0099"/>
<g stroke="#ff0099" stroke-width="1" fill="#ff0099">
<circle cx=" 471" cy=" 323" r=" 1.5"/>
</g>
<path d="M475,223" fill="none" stroke="#ff0099"/>
<path d="M475,220" fill="none" stroke="#ff0099"/>
<path d="M473,222h 1" fill="none" stroke="#ff0099"/>
<path d="M476,222h 1" fill="none" stroke="#ff0099"/>
<g stroke="#ff0099" stroke-width="1" fill="#ff0099">
<circle cx=" 475" cy=" 222" r=" 1.5"/>
</g>
<path d="M480,192" fill="none" stroke="#ff0099"/>
<path d="M480,189" fill="none" stroke="#ff0099"/>
<path d="M477,191h 1" fill="none" stroke="#ff0099"/>
<path d="M481,191h 1" fill="none" stroke="#ff0099"/>
<g stroke="#ff0099" stroke-width="1" fill="#ff0099">
<circle cx=" 480" cy=" 191" r=" 1.5"/>
</g>
<path d="M484,164v -1" fill="none" stroke="#ff0099"/>
<path d="M484,161v -1" fill="none" stroke="#ff0099"/>
<path d="M482,162h 1" fill="none" stroke="#ff0099"/>
<path d="M485,162h 1" fill="none" stroke="#ff0099"/>
<g stroke="#ff0099" stroke-width="1" fill="#ff0099">
<circle cx=" 484" cy=" 162" r=" 1.5"/>
</g>
<path d="M489,137v -1" fill="none" stroke="#ff0099"/>
<path d="M489,134v -1" fill="none" stroke="#ff0099"/>
<path d="M486,135h 2" fill="none" stroke="#ff0099"/>
<path d="M490,135h 1" fill="none" stroke="#ff0099"/>
<g stroke="#ff0099" stroke-width="1" fill="#ff0099">
<circle cx=" 489" cy=" 135" r=" 1.5"/>
</g>
<path d="M493,103v -1" fill="none" stroke="#ff0099"/>
<path d="M493,100v -1" fill="none" stroke="#ff0099"/>
<path d="M491,101h 1" fill="none" stroke="#ff0099"/>
<path d="M494,101h 1" fill="none" stroke="#ff0099"/>
<g stroke="#ff0099" stroke-width="1" fill="#ff0099">
<circle cx=" 493" cy=" 101" r=" 1.5"/>
</g>
<path d="M498,79v -1" fill="none" stroke="#ff0099"/>
<path d="M498,75v -1" fill="none" stroke="#ff0099"/>
<path d="M495,77h 2" fill="none" stroke="#ff0099"/>
<path d="M499,77h 1" fill="none" stroke="#ff0099"/>
<g stroke="#ff0099" stroke-width="1" fill="#ff0099">
<circle cx=" 498" cy=" 77" r=" 1.5"/>
</g>
<path d="M502,68v -1" fill="none" stroke="#ff0099"/>
<path d="M502,65v -2" fill="none" stroke="#ff0099"/>
<path d="M500,66h 1" fill="none" stroke="#ff0099"/>
<path d="M503,66h 2" fill="none" stroke="#ff0099"/>
<g stroke="#ff0099" stroke-width="1" fill="#ff0099">
<circle cx=" 502" cy=" 66" r=" 1.5"/>
</g>
<path d="M507,116v -1" fill="none" stroke="#ff0099"/>
<path d="M507,112v -1" fill="none" stroke="#ff0099"/>
<path d="M505,113h 1" fill="none" stroke="#ff0099"/>
<path d="M508,113h 1" fill="none" stroke="#ff0099"/>
<g stroke="#ff0099" stroke-width="1" fill="#ff0099">
<circle cx=" 507" cy=" 113" r=" 1.5"/>
</g>
<path d="M511,272v -1" fill="none" stroke="#ff0099"/>
<path d="M511,269" fill="none" stroke="#ff0099"/>
<path d="M509,270h 1" fill="none" stroke="#ff0099"/>
<path d="M513,270h 1" fill="none" stroke="#ff0099"/>
<g stroke="#ff0099" stroke-width="1" fill="#ff0099">
<circle cx=" 511" cy=" 270" r=" 1.5"/>
</g>
<path d="M514,403h 1" fill="none" stroke="#ff0099"/>
<path d="M517,403h 1" fill="none" stroke="#ff0099"/>
<g stroke="#ff0099" stroke-width="1" fill="#ff0099">
<circle cx=" 516" cy=" 403" r=" 1.5"/>
</g>
<path d="M518,443h 1" fill="none" stroke="#ff0099"/>
<path d="M522,443h 1" fill="none" stroke="#ff0099"/>
<g stroke="#ff0099" stroke-width="1" fill="#ff0099">
<circle cx=" 520" cy=" 443" r=" 1.5"/>
</g>
<path d="M523,445h 1" fill="none" stroke="#ff0099"/>
<path d="M526,445h 1" fill="none" stroke="#ff0099"/>
<g stroke="#ff0099" stroke-width="1" fill="#ff0099">
<circle cx=" 525" cy=" 445" r=" 1.5"/>
</g>
<rect x="357" y="59" width="142" height="99" fill="white"/>
<text x="360" y="82" fill="black" font-size="17" font-family="Helvetica" font-weight="bold">
EE
</text>
<text x="457" y="115" fill="black" font-size="17" font-family="Helvetica" font-weight="bold">
 ee
</text>
<text x="440" y="115" fill="black" font-size="17" font-family="Times">
&#8594;
</text>
<text x="392" y="115" fill="black" font-size="17" font-family="Helvetica" font-weight="bold">
MC Z 
</text>
<path d="M362,109h 25" fill="none" stroke="#ff0099"/>
<g stroke="#ff0099" stroke-width="1" fill="#ff0099">
<circle cx=" 375" cy=" 109" r=" 1.5"/>
</g>
<text x="455" y="147" fill="black" font-size="17" font-family="Helvetica" font-weight="bold">
 + jet
</text>
<text x="447" y="147" fill="black" font-size="17" font-family="Times">
&#0947;
</text>
<text x="392" y="147" fill="black" font-size="17" font-family="Helvetica" font-weight="bold">
signal 
</text>
<path d="M362,154h 25v -24h -25z" fill="#99ff99"/>
<path d="M362,130h 25" fill="none" stroke="#99ff99" stroke-width="2"/>
<path d="M362,154h 25" fill="none" stroke="#99ff99" stroke-width="2"/>
<path d="M387,154v -24" fill="none" stroke="#99ff99" stroke-width="2"/>
<path d="M362,154v -24" fill="none" stroke="#99ff99" stroke-width="2"/>
<text x="300" y="34" fill="black" font-size="17" font-family="Helvetica" font-weight="bold">
=8 TeV
</text>
<text x="291" y="34" fill="black" font-size="17" font-family="Helvetica" font-weight="bold">
s
</text>
<path d="M285,25l 2, 10" fill="none" stroke="black" stroke-width="2"/>
<path d="M287,35l 2, -14" fill="none" stroke="black"/>
<path d="M289,21h 11" fill="none" stroke="black"/>
<text x="142" y="34" fill="black" font-size="17" font-family="Helvetica" font-weight="bold">
CMS Preliminary 
</text></svg>
