<?xml version="1.0" standalone="no"?>
<svg width="567" height="496" viewBox="0 0 567 496" xmlns="http://www.w3.org/2000/svg">
<title>
../src/TagAndProbeZ/plots_mcZee_mcGJet_withEtaW/hlt30//nvtxEB.svg
</title>
<desc>
Creator: ROOT Version 5.32/00
CreationDate: Sat Sep 27 22:35:12 2014</desc>
<defs>
</defs>
<rect x="0" y="0" width="567" height="496" fill="white"/>
<rect x="74" y="44" width="453" height="402" fill="white"/>
<rect x="74" y="44" width="453" height="402" fill="none" stroke="black"/>
<rect x="74" y="44" width="453" height="402" fill="white"/>
<rect x="74" y="44" width="453" height="402" fill="none" stroke="black"/>
<path d="M85,446h 4" fill="none" stroke="#ff0099"/>
<path d="M91,446h 5" fill="none" stroke="#ff0099"/>
<g stroke="#ff0099" stroke-width="1" fill="#ff0099">
<circle cx=" 90" cy=" 446" r=" 1.5"/>
</g>
<path d="M96,443h 4" fill="none" stroke="#ff0099"/>
<path d="M102,443h 5" fill="none" stroke="#ff0099"/>
<g stroke="#ff0099" stroke-width="1" fill="#ff0099">
<circle cx=" 101" cy=" 443" r=" 1.5"/>
</g>
<path d="M107,436h 4" fill="none" stroke="#ff0099"/>
<path d="M114,436h 4" fill="none" stroke="#ff0099"/>
<g stroke="#ff0099" stroke-width="1" fill="#ff0099">
<circle cx=" 112" cy=" 436" r=" 1.5"/>
</g>
<path d="M118,418h 4" fill="none" stroke="#ff0099"/>
<path d="M125,418h 4" fill="none" stroke="#ff0099"/>
<g stroke="#ff0099" stroke-width="1" fill="#ff0099">
<circle cx=" 123" cy=" 418" r=" 1.5"/>
</g>
<path d="M129,387h 4" fill="none" stroke="#ff0099"/>
<path d="M136,387h 4" fill="none" stroke="#ff0099"/>
<g stroke="#ff0099" stroke-width="1" fill="#ff0099">
<circle cx=" 135" cy=" 387" r=" 1.5"/>
</g>
<path d="M140,344h 4" fill="none" stroke="#ff0099"/>
<path d="M147,344h 4" fill="none" stroke="#ff0099"/>
<g stroke="#ff0099" stroke-width="1" fill="#ff0099">
<circle cx=" 146" cy=" 344" r=" 1.5"/>
</g>
<path d="M151,290h 5" fill="none" stroke="#ff0099"/>
<path d="M158,290h 4" fill="none" stroke="#ff0099"/>
<g stroke="#ff0099" stroke-width="1" fill="#ff0099">
<circle cx=" 157" cy=" 290" r=" 1.5"/>
</g>
<path d="M168,235" fill="none" stroke="#ff0099"/>
<path d="M168,233v -1" fill="none" stroke="#ff0099"/>
<path d="M162,234h 5" fill="none" stroke="#ff0099"/>
<path d="M169,234h 4" fill="none" stroke="#ff0099"/>
<g stroke="#ff0099" stroke-width="1" fill="#ff0099">
<circle cx=" 168" cy=" 234" r=" 1.5"/>
</g>
<path d="M179,176v -1" fill="none" stroke="#ff0099"/>
<path d="M179,173" fill="none" stroke="#ff0099"/>
<path d="M173,174h 5" fill="none" stroke="#ff0099"/>
<path d="M180,174h 4" fill="none" stroke="#ff0099"/>
<g stroke="#ff0099" stroke-width="1" fill="#ff0099">
<circle cx=" 179" cy=" 174" r=" 1.5"/>
</g>
<path d="M190,126" fill="none" stroke="#ff0099"/>
<path d="M190,123" fill="none" stroke="#ff0099"/>
<path d="M184,124h 5" fill="none" stroke="#ff0099"/>
<path d="M191,124h 4" fill="none" stroke="#ff0099"/>
<g stroke="#ff0099" stroke-width="1" fill="#ff0099">
<circle cx=" 190" cy=" 124" r=" 1.5"/>
</g>
<path d="M201,93v -1" fill="none" stroke="#ff0099"/>
<path d="M201,90" fill="none" stroke="#ff0099"/>
<path d="M195,91h 5" fill="none" stroke="#ff0099"/>
<path d="M202,91h 4" fill="none" stroke="#ff0099"/>
<g stroke="#ff0099" stroke-width="1" fill="#ff0099">
<circle cx=" 201" cy=" 91" r=" 1.5"/>
</g>
<path d="M212,72v -1" fill="none" stroke="#ff0099"/>
<path d="M212,69v -1" fill="none" stroke="#ff0099"/>
<path d="M206,70h 5" fill="none" stroke="#ff0099"/>
<path d="M213,70h 5" fill="none" stroke="#ff0099"/>
<g stroke="#ff0099" stroke-width="1" fill="#ff0099">
<circle cx=" 212" cy=" 70" r=" 1.5"/>
</g>
<path d="M223,67v -1" fill="none" stroke="#ff0099"/>
<path d="M223,64v -1" fill="none" stroke="#ff0099"/>
<path d="M218,65h 4" fill="none" stroke="#ff0099"/>
<path d="M224,65h 5" fill="none" stroke="#ff0099"/>
<g stroke="#ff0099" stroke-width="1" fill="#ff0099">
<circle cx=" 223" cy=" 65" r=" 1.5"/>
</g>
<path d="M234,76" fill="none" stroke="#ff0099"/>
<path d="M234,73" fill="none" stroke="#ff0099"/>
<path d="M229,75h 4" fill="none" stroke="#ff0099"/>
<path d="M235,75h 5" fill="none" stroke="#ff0099"/>
<g stroke="#ff0099" stroke-width="1" fill="#ff0099">
<circle cx=" 234" cy=" 75" r=" 1.5"/>
</g>
<path d="M245,91" fill="none" stroke="#ff0099"/>
<path d="M245,88" fill="none" stroke="#ff0099"/>
<path d="M240,89h 4" fill="none" stroke="#ff0099"/>
<path d="M246,89h 5" fill="none" stroke="#ff0099"/>
<g stroke="#ff0099" stroke-width="1" fill="#ff0099">
<circle cx=" 245" cy=" 89" r=" 1.5"/>
</g>
<path d="M256,117v -1" fill="none" stroke="#ff0099"/>
<path d="M256,114" fill="none" stroke="#ff0099"/>
<path d="M251,115h 4" fill="none" stroke="#ff0099"/>
<path d="M257,115h 5" fill="none" stroke="#ff0099"/>
<g stroke="#ff0099" stroke-width="1" fill="#ff0099">
<circle cx=" 256" cy=" 115" r=" 1.5"/>
</g>
<path d="M267,147v -1" fill="none" stroke="#ff0099"/>
<path d="M267,144" fill="none" stroke="#ff0099"/>
<path d="M262,145h 4" fill="none" stroke="#ff0099"/>
<path d="M268,145h 5" fill="none" stroke="#ff0099"/>
<g stroke="#ff0099" stroke-width="1" fill="#ff0099">
<circle cx=" 267" cy=" 145" r=" 1.5"/>
</g>
<path d="M278,184" fill="none" stroke="#ff0099"/>
<path d="M278,182v -1" fill="none" stroke="#ff0099"/>
<path d="M273,183h 4" fill="none" stroke="#ff0099"/>
<path d="M279,183h 5" fill="none" stroke="#ff0099"/>
<g stroke="#ff0099" stroke-width="1" fill="#ff0099">
<circle cx=" 278" cy=" 183" r=" 1.5"/>
</g>
<path d="M289,225" fill="none" stroke="#ff0099"/>
<path d="M289,223v -1" fill="none" stroke="#ff0099"/>
<path d="M284,224h 4" fill="none" stroke="#ff0099"/>
<path d="M291,224h 4" fill="none" stroke="#ff0099"/>
<g stroke="#ff0099" stroke-width="1" fill="#ff0099">
<circle cx=" 289" cy=" 224" r=" 1.5"/>
</g>
<path d="M295,258h 4" fill="none" stroke="#ff0099"/>
<path d="M302,258h 4" fill="none" stroke="#ff0099"/>
<g stroke="#ff0099" stroke-width="1" fill="#ff0099">
<circle cx=" 300" cy=" 258" r=" 1.5"/>
</g>
<path d="M306,291h 4" fill="none" stroke="#ff0099"/>
<path d="M313,291h 4" fill="none" stroke="#ff0099"/>
<g stroke="#ff0099" stroke-width="1" fill="#ff0099">
<circle cx=" 312" cy=" 291" r=" 1.5"/>
</g>
<path d="M317,323h 4" fill="none" stroke="#ff0099"/>
<path d="M324,323h 4" fill="none" stroke="#ff0099"/>
<g stroke="#ff0099" stroke-width="1" fill="#ff0099">
<circle cx=" 323" cy=" 323" r=" 1.5"/>
</g>
<path d="M328,352h 5" fill="none" stroke="#ff0099"/>
<path d="M335,352h 4" fill="none" stroke="#ff0099"/>
<g stroke="#ff0099" stroke-width="1" fill="#ff0099">
<circle cx=" 334" cy=" 352" r=" 1.5"/>
</g>
<path d="M339,376h 5" fill="none" stroke="#ff0099"/>
<path d="M346,376h 4" fill="none" stroke="#ff0099"/>
<g stroke="#ff0099" stroke-width="1" fill="#ff0099">
<circle cx=" 345" cy=" 376" r=" 1.5"/>
</g>
<path d="M350,394h 5" fill="none" stroke="#ff0099"/>
<path d="M357,394h 4" fill="none" stroke="#ff0099"/>
<g stroke="#ff0099" stroke-width="1" fill="#ff0099">
<circle cx=" 356" cy=" 394" r=" 1.5"/>
</g>
<path d="M361,409h 5" fill="none" stroke="#ff0099"/>
<path d="M368,409h 4" fill="none" stroke="#ff0099"/>
<g stroke="#ff0099" stroke-width="1" fill="#ff0099">
<circle cx=" 367" cy=" 409" r=" 1.5"/>
</g>
<path d="M372,420h 5" fill="none" stroke="#ff0099"/>
<path d="M379,420h 4" fill="none" stroke="#ff0099"/>
<g stroke="#ff0099" stroke-width="1" fill="#ff0099">
<circle cx=" 378" cy=" 420" r=" 1.5"/>
</g>
<path d="M383,429h 5" fill="none" stroke="#ff0099"/>
<path d="M390,429h 4" fill="none" stroke="#ff0099"/>
<g stroke="#ff0099" stroke-width="1" fill="#ff0099">
<circle cx=" 389" cy=" 429" r=" 1.5"/>
</g>
<path d="M394,434h 5" fill="none" stroke="#ff0099"/>
<path d="M401,434h 5" fill="none" stroke="#ff0099"/>
<g stroke="#ff0099" stroke-width="1" fill="#ff0099">
<circle cx=" 400" cy=" 434" r=" 1.5"/>
</g>
<path d="M406,439h 4" fill="none" stroke="#ff0099"/>
<path d="M412,439h 5" fill="none" stroke="#ff0099"/>
<g stroke="#ff0099" stroke-width="1" fill="#ff0099">
<circle cx=" 411" cy=" 439" r=" 1.5"/>
</g>
<path d="M417,441h 4" fill="none" stroke="#ff0099"/>
<path d="M423,441h 5" fill="none" stroke="#ff0099"/>
<g stroke="#ff0099" stroke-width="1" fill="#ff0099">
<circle cx=" 422" cy=" 441" r=" 1.5"/>
</g>
<path d="M428,443h 4" fill="none" stroke="#ff0099"/>
<path d="M434,443h 5" fill="none" stroke="#ff0099"/>
<g stroke="#ff0099" stroke-width="1" fill="#ff0099">
<circle cx=" 433" cy=" 443" r=" 1.5"/>
</g>
<path d="M439,445h 4" fill="none" stroke="#ff0099"/>
<path d="M445,445h 5" fill="none" stroke="#ff0099"/>
<g stroke="#ff0099" stroke-width="1" fill="#ff0099">
<circle cx=" 444" cy=" 445" r=" 1.5"/>
</g>
<path d="M450,445h 4" fill="none" stroke="#ff0099"/>
<path d="M456,445h 5" fill="none" stroke="#ff0099"/>
<g stroke="#ff0099" stroke-width="1" fill="#ff0099">
<circle cx=" 455" cy=" 445" r=" 1.5"/>
</g>
<path d="M461,446h 4" fill="none" stroke="#ff0099"/>
<path d="M468,446h 4" fill="none" stroke="#ff0099"/>
<g stroke="#ff0099" stroke-width="1" fill="#ff0099">
<circle cx=" 466" cy=" 446" r=" 1.5"/>
</g>
<path d="M472,446h 4" fill="none" stroke="#ff0099"/>
<path d="M479,446h 4" fill="none" stroke="#ff0099"/>
<g stroke="#ff0099" stroke-width="1" fill="#ff0099">
<circle cx=" 477" cy=" 446" r=" 1.5"/>
</g>
<path d="M483,446h 4" fill="none" stroke="#ff0099"/>
<path d="M490,446h 4" fill="none" stroke="#ff0099"/>
<g stroke="#ff0099" stroke-width="1" fill="#ff0099">
<circle cx=" 489" cy=" 446" r=" 1.5"/>
</g>
<path d="M494,446h 4" fill="none" stroke="#ff0099"/>
<path d="M501,446h 4" fill="none" stroke="#ff0099"/>
<g stroke="#ff0099" stroke-width="1" fill="#ff0099">
<circle cx=" 500" cy=" 446" r=" 1.5"/>
</g>
<path d="M505,446h 5" fill="none" stroke="#ff0099"/>
<path d="M512,446h 4" fill="none" stroke="#ff0099"/>
<g stroke="#ff0099" stroke-width="1" fill="#ff0099">
<circle cx=" 511" cy=" 446" r=" 1.5"/>
</g>
<path d="M516,446h 5" fill="none" stroke="#ff0099"/>
<path d="M523,446h 4" fill="none" stroke="#ff0099"/>
<g stroke="#ff0099" stroke-width="1" fill="#ff0099">
<circle cx=" 522" cy=" 446" r=" 1.5"/>
</g>
<path d="M74,446h 453" fill="none" stroke="black"/>
<path d="M79,434v 12" fill="none" stroke="black"/>
<path d="M90,440v 6" fill="none" stroke="black"/>
<path d="M101,440v 6" fill="none" stroke="black"/>
<path d="M112,440v 6" fill="none" stroke="black"/>
<path d="M123,440v 6" fill="none" stroke="black"/>
<path d="M135,434v 12" fill="none" stroke="black"/>
<path d="M146,440v 6" fill="none" stroke="black"/>
<path d="M157,440v 6" fill="none" stroke="black"/>
<path d="M168,440v 6" fill="none" stroke="black"/>
<path d="M179,440v 6" fill="none" stroke="black"/>
<path d="M190,434v 12" fill="none" stroke="black"/>
<path d="M201,440v 6" fill="none" stroke="black"/>
<path d="M212,440v 6" fill="none" stroke="black"/>
<path d="M223,440v 6" fill="none" stroke="black"/>
<path d="M234,440v 6" fill="none" stroke="black"/>
<path d="M245,434v 12" fill="none" stroke="black"/>
<path d="M256,440v 6" fill="none" stroke="black"/>
<path d="M267,440v 6" fill="none" stroke="black"/>
<path d="M278,440v 6" fill="none" stroke="black"/>
<path d="M289,440v 6" fill="none" stroke="black"/>
<path d="M300,434v 12" fill="none" stroke="black"/>
<path d="M312,440v 6" fill="none" stroke="black"/>
<path d="M323,440v 6" fill="none" stroke="black"/>
<path d="M334,440v 6" fill="none" stroke="black"/>
<path d="M345,440v 6" fill="none" stroke="black"/>
<path d="M356,434v 12" fill="none" stroke="black"/>
<path d="M367,440v 6" fill="none" stroke="black"/>
<path d="M378,440v 6" fill="none" stroke="black"/>
<path d="M389,440v 6" fill="none" stroke="black"/>
<path d="M400,440v 6" fill="none" stroke="black"/>
<path d="M411,434v 12" fill="none" stroke="black"/>
<path d="M422,440v 6" fill="none" stroke="black"/>
<path d="M433,440v 6" fill="none" stroke="black"/>
<path d="M444,440v 6" fill="none" stroke="black"/>
<path d="M455,440v 6" fill="none" stroke="black"/>
<path d="M466,434v 12" fill="none" stroke="black"/>
<path d="M477,440v 6" fill="none" stroke="black"/>
<path d="M489,440v 6" fill="none" stroke="black"/>
<path d="M500,440v 6" fill="none" stroke="black"/>
<path d="M511,440v 6" fill="none" stroke="black"/>
<path d="M522,434v 12" fill="none" stroke="black"/>
<path d="M79,434v 12" fill="none" stroke="black"/>
<path d="M522,434v 12" fill="none" stroke="black"/>
<text x="74" y="465" fill="black" font-size="18" font-family="Helvetica" font-weight="bold">
0
</text>
<text x="129" y="465" fill="black" font-size="18" font-family="Helvetica" font-weight="bold">
5
</text>
<text x="179" y="465" fill="black" font-size="18" font-family="Helvetica" font-weight="bold">
10
</text>
<text x="235" y="465" fill="black" font-size="18" font-family="Helvetica" font-weight="bold">
15
</text>
<text x="290" y="465" fill="black" font-size="18" font-family="Helvetica" font-weight="bold">
20
</text>
<text x="346" y="465" fill="black" font-size="18" font-family="Helvetica" font-weight="bold">
25
</text>
<text x="401" y="465" fill="black" font-size="18" font-family="Helvetica" font-weight="bold">
30
</text>
<text x="456" y="465" fill="black" font-size="18" font-family="Helvetica" font-weight="bold">
35
</text>
<text x="511" y="465" fill="black" font-size="18" font-family="Helvetica" font-weight="bold">
40
</text>
<path d="M74,44h 453" fill="none" stroke="black"/>
<path d="M79,56v -12" fill="none" stroke="black"/>
<path d="M90,50v -6" fill="none" stroke="black"/>
<path d="M101,50v -6" fill="none" stroke="black"/>
<path d="M112,50v -6" fill="none" stroke="black"/>
<path d="M123,50v -6" fill="none" stroke="black"/>
<path d="M135,56v -12" fill="none" stroke="black"/>
<path d="M146,50v -6" fill="none" stroke="black"/>
<path d="M157,50v -6" fill="none" stroke="black"/>
<path d="M168,50v -6" fill="none" stroke="black"/>
<path d="M179,50v -6" fill="none" stroke="black"/>
<path d="M190,56v -12" fill="none" stroke="black"/>
<path d="M201,50v -6" fill="none" stroke="black"/>
<path d="M212,50v -6" fill="none" stroke="black"/>
<path d="M223,50v -6" fill="none" stroke="black"/>
<path d="M234,50v -6" fill="none" stroke="black"/>
<path d="M245,56v -12" fill="none" stroke="black"/>
<path d="M256,50v -6" fill="none" stroke="black"/>
<path d="M267,50v -6" fill="none" stroke="black"/>
<path d="M278,50v -6" fill="none" stroke="black"/>
<path d="M289,50v -6" fill="none" stroke="black"/>
<path d="M300,56v -12" fill="none" stroke="black"/>
<path d="M312,50v -6" fill="none" stroke="black"/>
<path d="M323,50v -6" fill="none" stroke="black"/>
<path d="M334,50v -6" fill="none" stroke="black"/>
<path d="M345,50v -6" fill="none" stroke="black"/>
<path d="M356,56v -12" fill="none" stroke="black"/>
<path d="M367,50v -6" fill="none" stroke="black"/>
<path d="M378,50v -6" fill="none" stroke="black"/>
<path d="M389,50v -6" fill="none" stroke="black"/>
<path d="M400,50v -6" fill="none" stroke="black"/>
<path d="M411,56v -12" fill="none" stroke="black"/>
<path d="M422,50v -6" fill="none" stroke="black"/>
<path d="M433,50v -6" fill="none" stroke="black"/>
<path d="M444,50v -6" fill="none" stroke="black"/>
<path d="M455,50v -6" fill="none" stroke="black"/>
<path d="M466,56v -12" fill="none" stroke="black"/>
<path d="M477,50v -6" fill="none" stroke="black"/>
<path d="M489,50v -6" fill="none" stroke="black"/>
<path d="M500,50v -6" fill="none" stroke="black"/>
<path d="M511,50v -6" fill="none" stroke="black"/>
<path d="M522,56v -12" fill="none" stroke="black"/>
<path d="M79,56v -12" fill="none" stroke="black"/>
<path d="M522,56v -12" fill="none" stroke="black"/>
<path d="M74,446v -402" fill="none" stroke="black"/>
<path d="M87,446h -13" fill="none" stroke="black"/>
<path d="M81,437h -7" fill="none" stroke="black"/>
<path d="M81,427h -7" fill="none" stroke="black"/>
<path d="M81,417h -7" fill="none" stroke="black"/>
<path d="M81,407h -7" fill="none" stroke="black"/>
<path d="M87,397h -13" fill="none" stroke="black"/>
<path d="M81,387h -7" fill="none" stroke="black"/>
<path d="M81,377h -7" fill="none" stroke="black"/>
<path d="M81,368h -7" fill="none" stroke="black"/>
<path d="M81,358h -7" fill="none" stroke="black"/>
<path d="M87,348h -13" fill="none" stroke="black"/>
<path d="M81,338h -7" fill="none" stroke="black"/>
<path d="M81,328h -7" fill="none" stroke="black"/>
<path d="M81,318h -7" fill="none" stroke="black"/>
<path d="M81,308h -7" fill="none" stroke="black"/>
<path d="M87,299h -13" fill="none" stroke="black"/>
<path d="M81,289h -7" fill="none" stroke="black"/>
<path d="M81,279h -7" fill="none" stroke="black"/>
<path d="M81,269h -7" fill="none" stroke="black"/>
<path d="M81,259h -7" fill="none" stroke="black"/>
<path d="M87,249h -13" fill="none" stroke="black"/>
<path d="M81,239h -7" fill="none" stroke="black"/>
<path d="M81,230h -7" fill="none" stroke="black"/>
<path d="M81,220h -7" fill="none" stroke="black"/>
<path d="M81,210h -7" fill="none" stroke="black"/>
<path d="M87,200h -13" fill="none" stroke="black"/>
<path d="M81,190h -7" fill="none" stroke="black"/>
<path d="M81,180h -7" fill="none" stroke="black"/>
<path d="M81,170h -7" fill="none" stroke="black"/>
<path d="M81,161h -7" fill="none" stroke="black"/>
<path d="M87,151h -13" fill="none" stroke="black"/>
<path d="M81,141h -7" fill="none" stroke="black"/>
<path d="M81,131h -7" fill="none" stroke="black"/>
<path d="M81,121h -7" fill="none" stroke="black"/>
<path d="M81,111h -7" fill="none" stroke="black"/>
<path d="M87,102h -13" fill="none" stroke="black"/>
<path d="M81,92h -7" fill="none" stroke="black"/>
<path d="M81,82h -7" fill="none" stroke="black"/>
<path d="M81,72h -7" fill="none" stroke="black"/>
<path d="M81,62h -7" fill="none" stroke="black"/>
<path d="M87,52h -13" fill="none" stroke="black"/>
<path d="M87,52h -13" fill="none" stroke="black"/>
<text x="61" y="453" fill="black" font-size="18" font-family="Helvetica" font-weight="bold">
0
</text>
<text x="37" y="404" fill="black" font-size="18" font-family="Helvetica" font-weight="bold">
0.01
</text>
<text x="35" y="354" fill="black" font-size="18" font-family="Helvetica" font-weight="bold">
0.02
</text>
<text x="35" y="305" fill="black" font-size="18" font-family="Helvetica" font-weight="bold">
0.03
</text>
<text x="34" y="256" fill="black" font-size="18" font-family="Helvetica" font-weight="bold">
0.04
</text>
<text x="34" y="207" fill="black" font-size="18" font-family="Helvetica" font-weight="bold">
0.05
</text>
<text x="34" y="157" fill="black" font-size="18" font-family="Helvetica" font-weight="bold">
0.06
</text>
<text x="35" y="108" fill="black" font-size="18" font-family="Helvetica" font-weight="bold">
0.07
</text>
<text x="35" y="59" fill="black" font-size="18" font-family="Helvetica" font-weight="bold">
0.08
</text>
<path d="M90,446" fill="none" stroke="#99ff99" stroke-width="2"/>
<path d="M90,446" fill="none" stroke="#99ff99" stroke-width="2"/>
<g stroke="black" stroke-width="2" fill="none">
<line x1="89" y1="446" x2="90" y2="446"/>
</g>
<path d="M101,445v -1" fill="none" stroke="#99ff99" stroke-width="2"/>
<path d="M101,444" fill="none" stroke="#99ff99" stroke-width="2"/>
<g stroke="black" stroke-width="2" fill="none">
<line x1="100" y1="444" x2="101" y2="444"/>
</g>
<path d="M112,439" fill="none" stroke="#99ff99" stroke-width="2"/>
<path d="M112,439v -1" fill="none" stroke="#99ff99" stroke-width="2"/>
<g stroke="black" stroke-width="2" fill="none">
<line x1="111" y1="439" x2="112" y2="439"/>
</g>
<path d="M123,427v -2" fill="none" stroke="#99ff99" stroke-width="2"/>
<path d="M123,425v -1" fill="none" stroke="#99ff99" stroke-width="2"/>
<g stroke="black" stroke-width="2" fill="none">
<line x1="122" y1="425" x2="123" y2="425"/>
</g>
<path d="M135,408v -2" fill="none" stroke="#99ff99" stroke-width="2"/>
<path d="M135,406v -1" fill="none" stroke="#99ff99" stroke-width="2"/>
<g stroke="black" stroke-width="2" fill="none">
<line x1="134" y1="406" x2="135" y2="406"/>
</g>
<path d="M146,374v -2" fill="none" stroke="#99ff99" stroke-width="2"/>
<path d="M146,372v -2" fill="none" stroke="#99ff99" stroke-width="2"/>
<g stroke="black" stroke-width="2" fill="none">
<line x1="145" y1="372" x2="146" y2="372"/>
</g>
<path d="M157,329v -3" fill="none" stroke="#99ff99" stroke-width="2"/>
<path d="M157,326v -3" fill="none" stroke="#99ff99" stroke-width="2"/>
<g stroke="black" stroke-width="2" fill="none">
<line x1="156" y1="326" x2="157" y2="326"/>
</g>
<path d="M168,282v -4" fill="none" stroke="#99ff99" stroke-width="2"/>
<path d="M168,278v -3" fill="none" stroke="#99ff99" stroke-width="2"/>
<g stroke="black" stroke-width="2" fill="none">
<line x1="167" y1="278" x2="168" y2="278"/>
</g>
<path d="M179,234v -4" fill="none" stroke="#99ff99" stroke-width="2"/>
<path d="M179,230v -4" fill="none" stroke="#99ff99" stroke-width="2"/>
<g stroke="black" stroke-width="2" fill="none">
<line x1="178" y1="230" x2="179" y2="230"/>
</g>
<path d="M190,187v -4" fill="none" stroke="#99ff99" stroke-width="2"/>
<path d="M190,183v -5" fill="none" stroke="#99ff99" stroke-width="2"/>
<g stroke="black" stroke-width="2" fill="none">
<line x1="189" y1="183" x2="190" y2="183"/>
</g>
<path d="M201,152v -4" fill="none" stroke="#99ff99" stroke-width="2"/>
<path d="M201,148v -5" fill="none" stroke="#99ff99" stroke-width="2"/>
<g stroke="black" stroke-width="2" fill="none">
<line x1="200" y1="148" x2="201" y2="148"/>
</g>
<path d="M212,131v -4" fill="none" stroke="#99ff99" stroke-width="2"/>
<path d="M212,127v -5" fill="none" stroke="#99ff99" stroke-width="2"/>
<g stroke="black" stroke-width="2" fill="none">
<line x1="211" y1="127" x2="212" y2="127"/>
</g>
<path d="M223,103v -4" fill="none" stroke="#99ff99" stroke-width="2"/>
<path d="M223,99v -5" fill="none" stroke="#99ff99" stroke-width="2"/>
<g stroke="black" stroke-width="2" fill="none">
<line x1="222" y1="99" x2="223" y2="99"/>
</g>
<path d="M234,99v -5" fill="none" stroke="#99ff99" stroke-width="2"/>
<path d="M234,94v -4" fill="none" stroke="#99ff99" stroke-width="2"/>
<g stroke="black" stroke-width="2" fill="none">
<line x1="233" y1="94" x2="234" y2="94"/>
</g>
<path d="M245,107v -5" fill="none" stroke="#99ff99" stroke-width="2"/>
<path d="M245,102v -4" fill="none" stroke="#99ff99" stroke-width="2"/>
<g stroke="black" stroke-width="2" fill="none">
<line x1="244" y1="102" x2="245" y2="102"/>
</g>
<path d="M256,123v -5" fill="none" stroke="#99ff99" stroke-width="2"/>
<path d="M256,118v -4" fill="none" stroke="#99ff99" stroke-width="2"/>
<g stroke="black" stroke-width="2" fill="none">
<line x1="255" y1="118" x2="256" y2="118"/>
</g>
<path d="M267,133v -4" fill="none" stroke="#99ff99" stroke-width="2"/>
<path d="M267,129v -5" fill="none" stroke="#99ff99" stroke-width="2"/>
<g stroke="black" stroke-width="2" fill="none">
<line x1="266" y1="129" x2="267" y2="129"/>
</g>
<path d="M278,158v -4" fill="none" stroke="#99ff99" stroke-width="2"/>
<path d="M278,154v -4" fill="none" stroke="#99ff99" stroke-width="2"/>
<g stroke="black" stroke-width="2" fill="none">
<line x1="277" y1="154" x2="278" y2="154"/>
</g>
<path d="M289,183v -4" fill="none" stroke="#99ff99" stroke-width="2"/>
<path d="M289,179v -4" fill="none" stroke="#99ff99" stroke-width="2"/>
<g stroke="black" stroke-width="2" fill="none">
<line x1="288" y1="179" x2="289" y2="179"/>
</g>
<path d="M300,223v -4" fill="none" stroke="#99ff99" stroke-width="2"/>
<path d="M300,219v -3" fill="none" stroke="#99ff99" stroke-width="2"/>
<g stroke="black" stroke-width="2" fill="none">
<line x1="299" y1="219" x2="300" y2="219"/>
</g>
<path d="M312,254v -3" fill="none" stroke="#99ff99" stroke-width="2"/>
<path d="M312,251v -3" fill="none" stroke="#99ff99" stroke-width="2"/>
<g stroke="black" stroke-width="2" fill="none">
<line x1="311" y1="251" x2="312" y2="251"/>
</g>
<path d="M323,283v -3" fill="none" stroke="#99ff99" stroke-width="2"/>
<path d="M323,280v -2" fill="none" stroke="#99ff99" stroke-width="2"/>
<g stroke="black" stroke-width="2" fill="none">
<line x1="322" y1="280" x2="323" y2="280"/>
</g>
<path d="M334,317v -2" fill="none" stroke="#99ff99" stroke-width="2"/>
<path d="M334,315v -3" fill="none" stroke="#99ff99" stroke-width="2"/>
<g stroke="black" stroke-width="2" fill="none">
<line x1="333" y1="315" x2="334" y2="315"/>
</g>
<path d="M345,341v -2" fill="none" stroke="#99ff99" stroke-width="2"/>
<path d="M345,339v -2" fill="none" stroke="#99ff99" stroke-width="2"/>
<g stroke="black" stroke-width="2" fill="none">
<line x1="344" y1="339" x2="345" y2="339"/>
</g>
<path d="M356,363v -2" fill="none" stroke="#99ff99" stroke-width="2"/>
<path d="M356,361v -2" fill="none" stroke="#99ff99" stroke-width="2"/>
<g stroke="black" stroke-width="2" fill="none">
<line x1="355" y1="361" x2="356" y2="361"/>
</g>
<path d="M367,382v -1" fill="none" stroke="#99ff99" stroke-width="2"/>
<path d="M367,381v -2" fill="none" stroke="#99ff99" stroke-width="2"/>
<g stroke="black" stroke-width="2" fill="none">
<line x1="366" y1="381" x2="367" y2="381"/>
</g>
<path d="M378,399v -1" fill="none" stroke="#99ff99" stroke-width="2"/>
<path d="M378,398v -2" fill="none" stroke="#99ff99" stroke-width="2"/>
<g stroke="black" stroke-width="2" fill="none">
<line x1="377" y1="398" x2="378" y2="398"/>
</g>
<path d="M389,411v -1" fill="none" stroke="#99ff99" stroke-width="2"/>
<path d="M389,410v -1" fill="none" stroke="#99ff99" stroke-width="2"/>
<g stroke="black" stroke-width="2" fill="none">
<line x1="388" y1="410" x2="389" y2="410"/>
</g>
<path d="M400,422v -1" fill="none" stroke="#99ff99" stroke-width="2"/>
<path d="M400,421v -1" fill="none" stroke="#99ff99" stroke-width="2"/>
<g stroke="black" stroke-width="2" fill="none">
<line x1="399" y1="421" x2="400" y2="421"/>
</g>
<path d="M411,429v -1" fill="none" stroke="#99ff99" stroke-width="2"/>
<path d="M411,428" fill="none" stroke="#99ff99" stroke-width="2"/>
<g stroke="black" stroke-width="2" fill="none">
<line x1="410" y1="428" x2="411" y2="428"/>
</g>
<path d="M422,435v -1" fill="none" stroke="#99ff99" stroke-width="2"/>
<path d="M422,434" fill="none" stroke="#99ff99" stroke-width="2"/>
<g stroke="black" stroke-width="2" fill="none">
<line x1="421" y1="434" x2="422" y2="434"/>
</g>
<path d="M433,438v -1" fill="none" stroke="#99ff99" stroke-width="2"/>
<path d="M433,437" fill="none" stroke="#99ff99" stroke-width="2"/>
<g stroke="black" stroke-width="2" fill="none">
<line x1="432" y1="437" x2="433" y2="437"/>
</g>
<path d="M444,441" fill="none" stroke="#99ff99" stroke-width="2"/>
<path d="M444,441v -1" fill="none" stroke="#99ff99" stroke-width="2"/>
<g stroke="black" stroke-width="2" fill="none">
<line x1="443" y1="441" x2="444" y2="441"/>
</g>
<path d="M455,443" fill="none" stroke="#99ff99" stroke-width="2"/>
<path d="M455,443" fill="none" stroke="#99ff99" stroke-width="2"/>
<g stroke="black" stroke-width="2" fill="none">
<line x1="454" y1="443" x2="455" y2="443"/>
</g>
<path d="M466,444" fill="none" stroke="#99ff99" stroke-width="2"/>
<path d="M466,444" fill="none" stroke="#99ff99" stroke-width="2"/>
<g stroke="black" stroke-width="2" fill="none">
<line x1="465" y1="444" x2="466" y2="444"/>
</g>
<path d="M477,445" fill="none" stroke="#99ff99" stroke-width="2"/>
<path d="M477,445" fill="none" stroke="#99ff99" stroke-width="2"/>
<g stroke="black" stroke-width="2" fill="none">
<line x1="476" y1="445" x2="477" y2="445"/>
</g>
<path d="M489,445" fill="none" stroke="#99ff99" stroke-width="2"/>
<path d="M489,445" fill="none" stroke="#99ff99" stroke-width="2"/>
<g stroke="black" stroke-width="2" fill="none">
<line x1="488" y1="445" x2="489" y2="445"/>
</g>
<path d="M500,446" fill="none" stroke="#99ff99" stroke-width="2"/>
<path d="M500,446" fill="none" stroke="#99ff99" stroke-width="2"/>
<g stroke="black" stroke-width="2" fill="none">
<line x1="499" y1="446" x2="500" y2="446"/>
</g>
<path d="M511,446" fill="none" stroke="#99ff99" stroke-width="2"/>
<path d="M511,446" fill="none" stroke="#99ff99" stroke-width="2"/>
<g stroke="black" stroke-width="2" fill="none">
<line x1="510" y1="446" x2="511" y2="446"/>
</g>
<path d="M522,446" fill="none" stroke="#99ff99" stroke-width="2"/>
<path d="M522,446" fill="none" stroke="#99ff99" stroke-width="2"/>
<g stroke="black" stroke-width="2" fill="none">
<line x1="521" y1="446" x2="522" y2="446"/>
</g>
<path d="M74,446h 22v -2h 11v -5h 11v -14h 11v -19h 11v -34h 11v -46h 11v -48h 11v -48h 11v -47h 11v -35h 11v -21h 12v -28h 11v -5h 11v 8h 11v 16h 11v 11h 11v 25h 11v 25h 11v 40h 11v 32h 11v 29h 11v 35h 11v 24h 11v 22h 11v 20h 11v 17h 11v 12h 11v 11h
 12v 7h 11v 6h 11v 3h 11v 4h 11v 2h 11v 1h 11v 1h 22v 1h 33z" fill="#99ff99"/>
<path d="M74,446h 22v -2h 11v -5h 11v -14h 11v -19h 11v -34h 11v -46h 11v -48h 11v -48h 11v -47h 11v -35h 11v -21h 12v -28h 11v -5h 11v 8h 11v 16h 11v 11h 11v 25h 11v 25h 11v 40h 11v 32h 11v 29h 11v 35h 11v 24h 11v 22h 11v 20h 11v 17h 11v 12h 11v 11h
 12v 7h 11v 6h 11v 3h 11v 4h 11v 2h 11v 1h 11v 1h 22v 1h 33" fill="none" stroke="#99ff99" stroke-width="2"/>
<path d="M85,446h 4" fill="none" stroke="#ff0099"/>
<path d="M91,446h 5" fill="none" stroke="#ff0099"/>
<g stroke="#ff0099" stroke-width="1" fill="#ff0099">
<circle cx=" 90" cy=" 446" r=" 1.5"/>
</g>
<path d="M96,443h 4" fill="none" stroke="#ff0099"/>
<path d="M102,443h 5" fill="none" stroke="#ff0099"/>
<g stroke="#ff0099" stroke-width="1" fill="#ff0099">
<circle cx=" 101" cy=" 443" r=" 1.5"/>
</g>
<path d="M107,436h 4" fill="none" stroke="#ff0099"/>
<path d="M114,436h 4" fill="none" stroke="#ff0099"/>
<g stroke="#ff0099" stroke-width="1" fill="#ff0099">
<circle cx=" 112" cy=" 436" r=" 1.5"/>
</g>
<path d="M118,418h 4" fill="none" stroke="#ff0099"/>
<path d="M125,418h 4" fill="none" stroke="#ff0099"/>
<g stroke="#ff0099" stroke-width="1" fill="#ff0099">
<circle cx=" 123" cy=" 418" r=" 1.5"/>
</g>
<path d="M129,387h 4" fill="none" stroke="#ff0099"/>
<path d="M136,387h 4" fill="none" stroke="#ff0099"/>
<g stroke="#ff0099" stroke-width="1" fill="#ff0099">
<circle cx=" 135" cy=" 387" r=" 1.5"/>
</g>
<path d="M140,344h 4" fill="none" stroke="#ff0099"/>
<path d="M147,344h 4" fill="none" stroke="#ff0099"/>
<g stroke="#ff0099" stroke-width="1" fill="#ff0099">
<circle cx=" 146" cy=" 344" r=" 1.5"/>
</g>
<path d="M151,290h 5" fill="none" stroke="#ff0099"/>
<path d="M158,290h 4" fill="none" stroke="#ff0099"/>
<g stroke="#ff0099" stroke-width="1" fill="#ff0099">
<circle cx=" 157" cy=" 290" r=" 1.5"/>
</g>
<path d="M168,235" fill="none" stroke="#ff0099"/>
<path d="M168,233v -1" fill="none" stroke="#ff0099"/>
<path d="M162,234h 5" fill="none" stroke="#ff0099"/>
<path d="M169,234h 4" fill="none" stroke="#ff0099"/>
<g stroke="#ff0099" stroke-width="1" fill="#ff0099">
<circle cx=" 168" cy=" 234" r=" 1.5"/>
</g>
<path d="M179,176v -1" fill="none" stroke="#ff0099"/>
<path d="M179,173" fill="none" stroke="#ff0099"/>
<path d="M173,174h 5" fill="none" stroke="#ff0099"/>
<path d="M180,174h 4" fill="none" stroke="#ff0099"/>
<g stroke="#ff0099" stroke-width="1" fill="#ff0099">
<circle cx=" 179" cy=" 174" r=" 1.5"/>
</g>
<path d="M190,126" fill="none" stroke="#ff0099"/>
<path d="M190,123" fill="none" stroke="#ff0099"/>
<path d="M184,124h 5" fill="none" stroke="#ff0099"/>
<path d="M191,124h 4" fill="none" stroke="#ff0099"/>
<g stroke="#ff0099" stroke-width="1" fill="#ff0099">
<circle cx=" 190" cy=" 124" r=" 1.5"/>
</g>
<path d="M201,93v -1" fill="none" stroke="#ff0099"/>
<path d="M201,90" fill="none" stroke="#ff0099"/>
<path d="M195,91h 5" fill="none" stroke="#ff0099"/>
<path d="M202,91h 4" fill="none" stroke="#ff0099"/>
<g stroke="#ff0099" stroke-width="1" fill="#ff0099">
<circle cx=" 201" cy=" 91" r=" 1.5"/>
</g>
<path d="M212,72v -1" fill="none" stroke="#ff0099"/>
<path d="M212,69v -1" fill="none" stroke="#ff0099"/>
<path d="M206,70h 5" fill="none" stroke="#ff0099"/>
<path d="M213,70h 5" fill="none" stroke="#ff0099"/>
<g stroke="#ff0099" stroke-width="1" fill="#ff0099">
<circle cx=" 212" cy=" 70" r=" 1.5"/>
</g>
<path d="M223,67v -1" fill="none" stroke="#ff0099"/>
<path d="M223,64v -1" fill="none" stroke="#ff0099"/>
<path d="M218,65h 4" fill="none" stroke="#ff0099"/>
<path d="M224,65h 5" fill="none" stroke="#ff0099"/>
<g stroke="#ff0099" stroke-width="1" fill="#ff0099">
<circle cx=" 223" cy=" 65" r=" 1.5"/>
</g>
<path d="M234,76" fill="none" stroke="#ff0099"/>
<path d="M234,73" fill="none" stroke="#ff0099"/>
<path d="M229,75h 4" fill="none" stroke="#ff0099"/>
<path d="M235,75h 5" fill="none" stroke="#ff0099"/>
<g stroke="#ff0099" stroke-width="1" fill="#ff0099">
<circle cx=" 234" cy=" 75" r=" 1.5"/>
</g>
<path d="M245,91" fill="none" stroke="#ff0099"/>
<path d="M245,88" fill="none" stroke="#ff0099"/>
<path d="M240,89h 4" fill="none" stroke="#ff0099"/>
<path d="M246,89h 5" fill="none" stroke="#ff0099"/>
<g stroke="#ff0099" stroke-width="1" fill="#ff0099">
<circle cx=" 245" cy=" 89" r=" 1.5"/>
</g>
<path d="M256,117v -1" fill="none" stroke="#ff0099"/>
<path d="M256,114" fill="none" stroke="#ff0099"/>
<path d="M251,115h 4" fill="none" stroke="#ff0099"/>
<path d="M257,115h 5" fill="none" stroke="#ff0099"/>
<g stroke="#ff0099" stroke-width="1" fill="#ff0099">
<circle cx=" 256" cy=" 115" r=" 1.5"/>
</g>
<path d="M267,147v -1" fill="none" stroke="#ff0099"/>
<path d="M267,144" fill="none" stroke="#ff0099"/>
<path d="M262,145h 4" fill="none" stroke="#ff0099"/>
<path d="M268,145h 5" fill="none" stroke="#ff0099"/>
<g stroke="#ff0099" stroke-width="1" fill="#ff0099">
<circle cx=" 267" cy=" 145" r=" 1.5"/>
</g>
<path d="M278,184" fill="none" stroke="#ff0099"/>
<path d="M278,182v -1" fill="none" stroke="#ff0099"/>
<path d="M273,183h 4" fill="none" stroke="#ff0099"/>
<path d="M279,183h 5" fill="none" stroke="#ff0099"/>
<g stroke="#ff0099" stroke-width="1" fill="#ff0099">
<circle cx=" 278" cy=" 183" r=" 1.5"/>
</g>
<path d="M289,225" fill="none" stroke="#ff0099"/>
<path d="M289,223v -1" fill="none" stroke="#ff0099"/>
<path d="M284,224h 4" fill="none" stroke="#ff0099"/>
<path d="M291,224h 4" fill="none" stroke="#ff0099"/>
<g stroke="#ff0099" stroke-width="1" fill="#ff0099">
<circle cx=" 289" cy=" 224" r=" 1.5"/>
</g>
<path d="M295,258h 4" fill="none" stroke="#ff0099"/>
<path d="M302,258h 4" fill="none" stroke="#ff0099"/>
<g stroke="#ff0099" stroke-width="1" fill="#ff0099">
<circle cx=" 300" cy=" 258" r=" 1.5"/>
</g>
<path d="M306,291h 4" fill="none" stroke="#ff0099"/>
<path d="M313,291h 4" fill="none" stroke="#ff0099"/>
<g stroke="#ff0099" stroke-width="1" fill="#ff0099">
<circle cx=" 312" cy=" 291" r=" 1.5"/>
</g>
<path d="M317,323h 4" fill="none" stroke="#ff0099"/>
<path d="M324,323h 4" fill="none" stroke="#ff0099"/>
<g stroke="#ff0099" stroke-width="1" fill="#ff0099">
<circle cx=" 323" cy=" 323" r=" 1.5"/>
</g>
<path d="M328,352h 5" fill="none" stroke="#ff0099"/>
<path d="M335,352h 4" fill="none" stroke="#ff0099"/>
<g stroke="#ff0099" stroke-width="1" fill="#ff0099">
<circle cx=" 334" cy=" 352" r=" 1.5"/>
</g>
<path d="M339,376h 5" fill="none" stroke="#ff0099"/>
<path d="M346,376h 4" fill="none" stroke="#ff0099"/>
<g stroke="#ff0099" stroke-width="1" fill="#ff0099">
<circle cx=" 345" cy=" 376" r=" 1.5"/>
</g>
<path d="M350,394h 5" fill="none" stroke="#ff0099"/>
<path d="M357,394h 4" fill="none" stroke="#ff0099"/>
<g stroke="#ff0099" stroke-width="1" fill="#ff0099">
<circle cx=" 356" cy=" 394" r=" 1.5"/>
</g>
<path d="M361,409h 5" fill="none" stroke="#ff0099"/>
<path d="M368,409h 4" fill="none" stroke="#ff0099"/>
<g stroke="#ff0099" stroke-width="1" fill="#ff0099">
<circle cx=" 367" cy=" 409" r=" 1.5"/>
</g>
<path d="M372,420h 5" fill="none" stroke="#ff0099"/>
<path d="M379,420h 4" fill="none" stroke="#ff0099"/>
<g stroke="#ff0099" stroke-width="1" fill="#ff0099">
<circle cx=" 378" cy=" 420" r=" 1.5"/>
</g>
<path d="M383,429h 5" fill="none" stroke="#ff0099"/>
<path d="M390,429h 4" fill="none" stroke="#ff0099"/>
<g stroke="#ff0099" stroke-width="1" fill="#ff0099">
<circle cx=" 389" cy=" 429" r=" 1.5"/>
</g>
<path d="M394,434h 5" fill="none" stroke="#ff0099"/>
<path d="M401,434h 5" fill="none" stroke="#ff0099"/>
<g stroke="#ff0099" stroke-width="1" fill="#ff0099">
<circle cx=" 400" cy=" 434" r=" 1.5"/>
</g>
<path d="M406,439h 4" fill="none" stroke="#ff0099"/>
<path d="M412,439h 5" fill="none" stroke="#ff0099"/>
<g stroke="#ff0099" stroke-width="1" fill="#ff0099">
<circle cx=" 411" cy=" 439" r=" 1.5"/>
</g>
<path d="M417,441h 4" fill="none" stroke="#ff0099"/>
<path d="M423,441h 5" fill="none" stroke="#ff0099"/>
<g stroke="#ff0099" stroke-width="1" fill="#ff0099">
<circle cx=" 422" cy=" 441" r=" 1.5"/>
</g>
<path d="M428,443h 4" fill="none" stroke="#ff0099"/>
<path d="M434,443h 5" fill="none" stroke="#ff0099"/>
<g stroke="#ff0099" stroke-width="1" fill="#ff0099">
<circle cx=" 433" cy=" 443" r=" 1.5"/>
</g>
<path d="M439,445h 4" fill="none" stroke="#ff0099"/>
<path d="M445,445h 5" fill="none" stroke="#ff0099"/>
<g stroke="#ff0099" stroke-width="1" fill="#ff0099">
<circle cx=" 444" cy=" 445" r=" 1.5"/>
</g>
<path d="M450,445h 4" fill="none" stroke="#ff0099"/>
<path d="M456,445h 5" fill="none" stroke="#ff0099"/>
<g stroke="#ff0099" stroke-width="1" fill="#ff0099">
<circle cx=" 455" cy=" 445" r=" 1.5"/>
</g>
<path d="M461,446h 4" fill="none" stroke="#ff0099"/>
<path d="M468,446h 4" fill="none" stroke="#ff0099"/>
<g stroke="#ff0099" stroke-width="1" fill="#ff0099">
<circle cx=" 466" cy=" 446" r=" 1.5"/>
</g>
<path d="M472,446h 4" fill="none" stroke="#ff0099"/>
<path d="M479,446h 4" fill="none" stroke="#ff0099"/>
<g stroke="#ff0099" stroke-width="1" fill="#ff0099">
<circle cx=" 477" cy=" 446" r=" 1.5"/>
</g>
<path d="M483,446h 4" fill="none" stroke="#ff0099"/>
<path d="M490,446h 4" fill="none" stroke="#ff0099"/>
<g stroke="#ff0099" stroke-width="1" fill="#ff0099">
<circle cx=" 489" cy=" 446" r=" 1.5"/>
</g>
<path d="M494,446h 4" fill="none" stroke="#ff0099"/>
<path d="M501,446h 4" fill="none" stroke="#ff0099"/>
<g stroke="#ff0099" stroke-width="1" fill="#ff0099">
<circle cx=" 500" cy=" 446" r=" 1.5"/>
</g>
<path d="M505,446h 5" fill="none" stroke="#ff0099"/>
<path d="M512,446h 4" fill="none" stroke="#ff0099"/>
<g stroke="#ff0099" stroke-width="1" fill="#ff0099">
<circle cx=" 511" cy=" 446" r=" 1.5"/>
</g>
<path d="M516,446h 5" fill="none" stroke="#ff0099"/>
<path d="M523,446h 4" fill="none" stroke="#ff0099"/>
<g stroke="#ff0099" stroke-width="1" fill="#ff0099">
<circle cx=" 522" cy=" 446" r=" 1.5"/>
</g>
<rect x="357" y="59" width="142" height="99" fill="white"/>
<text x="360" y="82" fill="black" font-size="17" font-family="Helvetica" font-weight="bold">
EB
</text>
<text x="457" y="115" fill="black" font-size="17" font-family="Helvetica" font-weight="bold">
 ee
</text>
<text x="440" y="115" fill="black" font-size="17" font-family="Times">
&#8594;
</text>
<text x="392" y="115" fill="black" font-size="17" font-family="Helvetica" font-weight="bold">
MC Z 
</text>
<path d="M362,109h 25" fill="none" stroke="#ff0099"/>
<g stroke="#ff0099" stroke-width="1" fill="#ff0099">
<circle cx=" 375" cy=" 109" r=" 1.5"/>
</g>
<text x="455" y="147" fill="black" font-size="17" font-family="Helvetica" font-weight="bold">
 + jet
</text>
<text x="447" y="147" fill="black" font-size="17" font-family="Times">
&#0947;
</text>
<text x="392" y="147" fill="black" font-size="17" font-family="Helvetica" font-weight="bold">
signal 
</text>
<path d="M362,154h 25v -24h -25z" fill="#99ff99"/>
<path d="M362,130h 25" fill="none" stroke="#99ff99" stroke-width="2"/>
<path d="M362,154h 25" fill="none" stroke="#99ff99" stroke-width="2"/>
<path d="M387,154v -24" fill="none" stroke="#99ff99" stroke-width="2"/>
<path d="M362,154v -24" fill="none" stroke="#99ff99" stroke-width="2"/>
<text x="300" y="34" fill="black" font-size="17" font-family="Helvetica" font-weight="bold">
=8 TeV
</text>
<text x="291" y="34" fill="black" font-size="17" font-family="Helvetica" font-weight="bold">
s
</text>
<path d="M285,25l 2, 10" fill="none" stroke="black" stroke-width="2"/>
<path d="M287,35l 2, -14" fill="none" stroke="black"/>
<path d="M289,21h 11" fill="none" stroke="black"/>
<text x="142" y="34" fill="black" font-size="17" font-family="Helvetica" font-weight="bold">
CMS Preliminary 
</text></svg>
