<?xml version="1.0" standalone="no"?>
<svg width="567" height="496" viewBox="0 0 567 496" xmlns="http://www.w3.org/2000/svg">
<title>
../src/TagAndProbeZ/plots_mcZee_mcGJet_withEtaW/hlt30//pid_pfIsoFPRPhoton03_preselAll.svg
</title>
<desc>
Creator: ROOT Version 5.32/00
CreationDate: Sat Sep 27 22:35:10 2014</desc>
<defs>
</defs>
<rect x="0" y="0" width="567" height="496" fill="white"/>
<rect x="74" y="44" width="453" height="402" fill="white"/>
<rect x="74" y="44" width="453" height="402" fill="none" stroke="black"/>
<rect x="74" y="44" width="453" height="402" fill="white"/>
<rect x="74" y="44" width="453" height="402" fill="none" stroke="black"/>
<path d="M74,64h 2" fill="none" stroke="#ff0099"/>
<path d="M79,64h 2" fill="none" stroke="#ff0099"/>
<g stroke="#ff0099" stroke-width="1" fill="#ff0099">
<circle cx=" 77" cy=" 64" r=" 1.5"/>
</g>
<path d="M81,420h 3" fill="none" stroke="#ff0099"/>
<path d="M86,420h 3" fill="none" stroke="#ff0099"/>
<g stroke="#ff0099" stroke-width="1" fill="#ff0099">
<circle cx=" 85" cy=" 420" r=" 1.5"/>
</g>
<path d="M89,378h 2" fill="none" stroke="#ff0099"/>
<path d="M94,378h 2" fill="none" stroke="#ff0099"/>
<g stroke="#ff0099" stroke-width="1" fill="#ff0099">
<circle cx=" 93" cy=" 378" r=" 1.5"/>
</g>
<path d="M96,372h 3" fill="none" stroke="#ff0099"/>
<path d="M101,372h 3" fill="none" stroke="#ff0099"/>
<g stroke="#ff0099" stroke-width="1" fill="#ff0099">
<circle cx=" 100" cy=" 372" r=" 1.5"/>
</g>
<path d="M104,387h 3" fill="none" stroke="#ff0099"/>
<path d="M109,387h 2" fill="none" stroke="#ff0099"/>
<g stroke="#ff0099" stroke-width="1" fill="#ff0099">
<circle cx=" 108" cy=" 387" r=" 1.5"/>
</g>
<path d="M111,392h 3" fill="none" stroke="#ff0099"/>
<path d="M116,392h 3" fill="none" stroke="#ff0099"/>
<g stroke="#ff0099" stroke-width="1" fill="#ff0099">
<circle cx=" 115" cy=" 392" r=" 1.5"/>
</g>
<path d="M119,396h 3" fill="none" stroke="#ff0099"/>
<path d="M124,396h 3" fill="none" stroke="#ff0099"/>
<g stroke="#ff0099" stroke-width="1" fill="#ff0099">
<circle cx=" 123" cy=" 396" r=" 1.5"/>
</g>
<path d="M127,400h 2" fill="none" stroke="#ff0099"/>
<path d="M132,400h 2" fill="none" stroke="#ff0099"/>
<g stroke="#ff0099" stroke-width="1" fill="#ff0099">
<circle cx=" 130" cy=" 400" r=" 1.5"/>
</g>
<path d="M134,404h 3" fill="none" stroke="#ff0099"/>
<path d="M139,404h 3" fill="none" stroke="#ff0099"/>
<g stroke="#ff0099" stroke-width="1" fill="#ff0099">
<circle cx=" 138" cy=" 404" r=" 1.5"/>
</g>
<path d="M142,408h 2" fill="none" stroke="#ff0099"/>
<path d="M147,408h 2" fill="none" stroke="#ff0099"/>
<g stroke="#ff0099" stroke-width="1" fill="#ff0099">
<circle cx=" 146" cy=" 408" r=" 1.5"/>
</g>
<path d="M149,412h 3" fill="none" stroke="#ff0099"/>
<path d="M154,412h 3" fill="none" stroke="#ff0099"/>
<g stroke="#ff0099" stroke-width="1" fill="#ff0099">
<circle cx=" 153" cy=" 412" r=" 1.5"/>
</g>
<path d="M157,415h 2" fill="none" stroke="#ff0099"/>
<path d="M162,415h 2" fill="none" stroke="#ff0099"/>
<g stroke="#ff0099" stroke-width="1" fill="#ff0099">
<circle cx=" 161" cy=" 415" r=" 1.5"/>
</g>
<path d="M164,418h 3" fill="none" stroke="#ff0099"/>
<path d="M169,418h 3" fill="none" stroke="#ff0099"/>
<g stroke="#ff0099" stroke-width="1" fill="#ff0099">
<circle cx=" 168" cy=" 418" r=" 1.5"/>
</g>
<path d="M172,421h 3" fill="none" stroke="#ff0099"/>
<path d="M177,421h 3" fill="none" stroke="#ff0099"/>
<g stroke="#ff0099" stroke-width="1" fill="#ff0099">
<circle cx=" 176" cy=" 421" r=" 1.5"/>
</g>
<path d="M180,424h 2" fill="none" stroke="#ff0099"/>
<path d="M184,424h 3" fill="none" stroke="#ff0099"/>
<g stroke="#ff0099" stroke-width="1" fill="#ff0099">
<circle cx=" 183" cy=" 424" r=" 1.5"/>
</g>
<path d="M187,426h 3" fill="none" stroke="#ff0099"/>
<path d="M192,426h 3" fill="none" stroke="#ff0099"/>
<g stroke="#ff0099" stroke-width="1" fill="#ff0099">
<circle cx=" 191" cy=" 426" r=" 1.5"/>
</g>
<path d="M195,428h 2" fill="none" stroke="#ff0099"/>
<path d="M200,428h 2" fill="none" stroke="#ff0099"/>
<g stroke="#ff0099" stroke-width="1" fill="#ff0099">
<circle cx=" 198" cy=" 428" r=" 1.5"/>
</g>
<path d="M202,430h 3" fill="none" stroke="#ff0099"/>
<path d="M207,430h 3" fill="none" stroke="#ff0099"/>
<g stroke="#ff0099" stroke-width="1" fill="#ff0099">
<circle cx=" 206" cy=" 430" r=" 1.5"/>
</g>
<path d="M210,432h 2" fill="none" stroke="#ff0099"/>
<path d="M215,432h 2" fill="none" stroke="#ff0099"/>
<g stroke="#ff0099" stroke-width="1" fill="#ff0099">
<circle cx=" 214" cy=" 432" r=" 1.5"/>
</g>
<path d="M217,433h 3" fill="none" stroke="#ff0099"/>
<path d="M222,433h 3" fill="none" stroke="#ff0099"/>
<g stroke="#ff0099" stroke-width="1" fill="#ff0099">
<circle cx=" 221" cy=" 433" r=" 1.5"/>
</g>
<path d="M225,435h 3" fill="none" stroke="#ff0099"/>
<path d="M230,435h 2" fill="none" stroke="#ff0099"/>
<g stroke="#ff0099" stroke-width="1" fill="#ff0099">
<circle cx=" 229" cy=" 435" r=" 1.5"/>
</g>
<path d="M232,436h 3" fill="none" stroke="#ff0099"/>
<path d="M237,436h 3" fill="none" stroke="#ff0099"/>
<g stroke="#ff0099" stroke-width="1" fill="#ff0099">
<circle cx=" 236" cy=" 436" r=" 1.5"/>
</g>
<path d="M240,437h 3" fill="none" stroke="#ff0099"/>
<path d="M245,437h 3" fill="none" stroke="#ff0099"/>
<g stroke="#ff0099" stroke-width="1" fill="#ff0099">
<circle cx=" 244" cy=" 437" r=" 1.5"/>
</g>
<path d="M248,438h 2" fill="none" stroke="#ff0099"/>
<path d="M252,438h 3" fill="none" stroke="#ff0099"/>
<g stroke="#ff0099" stroke-width="1" fill="#ff0099">
<circle cx=" 251" cy=" 438" r=" 1.5"/>
</g>
<path d="M255,439h 3" fill="none" stroke="#ff0099"/>
<path d="M260,439h 3" fill="none" stroke="#ff0099"/>
<g stroke="#ff0099" stroke-width="1" fill="#ff0099">
<circle cx=" 259" cy=" 439" r=" 1.5"/>
</g>
<path d="M263,440h 2" fill="none" stroke="#ff0099"/>
<path d="M268,440h 2" fill="none" stroke="#ff0099"/>
<g stroke="#ff0099" stroke-width="1" fill="#ff0099">
<circle cx=" 266" cy=" 440" r=" 1.5"/>
</g>
<path d="M270,441h 3" fill="none" stroke="#ff0099"/>
<path d="M275,441h 3" fill="none" stroke="#ff0099"/>
<g stroke="#ff0099" stroke-width="1" fill="#ff0099">
<circle cx=" 274" cy=" 441" r=" 1.5"/>
</g>
<path d="M278,441h 2" fill="none" stroke="#ff0099"/>
<path d="M283,441h 2" fill="none" stroke="#ff0099"/>
<g stroke="#ff0099" stroke-width="1" fill="#ff0099">
<circle cx=" 282" cy=" 441" r=" 1.5"/>
</g>
<path d="M285,442h 3" fill="none" stroke="#ff0099"/>
<path d="M290,442h 3" fill="none" stroke="#ff0099"/>
<g stroke="#ff0099" stroke-width="1" fill="#ff0099">
<circle cx=" 289" cy=" 442" r=" 1.5"/>
</g>
<path d="M293,442h 3" fill="none" stroke="#ff0099"/>
<path d="M298,442h 2" fill="none" stroke="#ff0099"/>
<g stroke="#ff0099" stroke-width="1" fill="#ff0099">
<circle cx=" 297" cy=" 442" r=" 1.5"/>
</g>
<path d="M300,443h 3" fill="none" stroke="#ff0099"/>
<path d="M305,443h 3" fill="none" stroke="#ff0099"/>
<g stroke="#ff0099" stroke-width="1" fill="#ff0099">
<circle cx=" 304" cy=" 443" r=" 1.5"/>
</g>
<path d="M308,443h 3" fill="none" stroke="#ff0099"/>
<path d="M313,443h 3" fill="none" stroke="#ff0099"/>
<g stroke="#ff0099" stroke-width="1" fill="#ff0099">
<circle cx=" 312" cy=" 443" r=" 1.5"/>
</g>
<path d="M316,443h 2" fill="none" stroke="#ff0099"/>
<path d="M321,443h 2" fill="none" stroke="#ff0099"/>
<g stroke="#ff0099" stroke-width="1" fill="#ff0099">
<circle cx=" 319" cy=" 443" r=" 1.5"/>
</g>
<path d="M323,444h 3" fill="none" stroke="#ff0099"/>
<path d="M328,444h 3" fill="none" stroke="#ff0099"/>
<g stroke="#ff0099" stroke-width="1" fill="#ff0099">
<circle cx=" 327" cy=" 444" r=" 1.5"/>
</g>
<path d="M331,444h 2" fill="none" stroke="#ff0099"/>
<path d="M336,444h 2" fill="none" stroke="#ff0099"/>
<g stroke="#ff0099" stroke-width="1" fill="#ff0099">
<circle cx=" 334" cy=" 444" r=" 1.5"/>
</g>
<path d="M338,444h 3" fill="none" stroke="#ff0099"/>
<path d="M343,444h 3" fill="none" stroke="#ff0099"/>
<g stroke="#ff0099" stroke-width="1" fill="#ff0099">
<circle cx=" 342" cy=" 444" r=" 1.5"/>
</g>
<path d="M346,444h 2" fill="none" stroke="#ff0099"/>
<path d="M351,444h 2" fill="none" stroke="#ff0099"/>
<g stroke="#ff0099" stroke-width="1" fill="#ff0099">
<circle cx=" 350" cy=" 444" r=" 1.5"/>
</g>
<path d="M353,445h 3" fill="none" stroke="#ff0099"/>
<path d="M358,445h 3" fill="none" stroke="#ff0099"/>
<g stroke="#ff0099" stroke-width="1" fill="#ff0099">
<circle cx=" 357" cy=" 445" r=" 1.5"/>
</g>
<path d="M361,445h 3" fill="none" stroke="#ff0099"/>
<path d="M366,445h 3" fill="none" stroke="#ff0099"/>
<g stroke="#ff0099" stroke-width="1" fill="#ff0099">
<circle cx=" 365" cy=" 445" r=" 1.5"/>
</g>
<path d="M369,445h 2" fill="none" stroke="#ff0099"/>
<path d="M373,445h 3" fill="none" stroke="#ff0099"/>
<g stroke="#ff0099" stroke-width="1" fill="#ff0099">
<circle cx=" 372" cy=" 445" r=" 1.5"/>
</g>
<path d="M376,445h 3" fill="none" stroke="#ff0099"/>
<path d="M381,445h 3" fill="none" stroke="#ff0099"/>
<g stroke="#ff0099" stroke-width="1" fill="#ff0099">
<circle cx=" 380" cy=" 445" r=" 1.5"/>
</g>
<path d="M384,445h 2" fill="none" stroke="#ff0099"/>
<path d="M389,445h 2" fill="none" stroke="#ff0099"/>
<g stroke="#ff0099" stroke-width="1" fill="#ff0099">
<circle cx=" 387" cy=" 445" r=" 1.5"/>
</g>
<path d="M391,445h 3" fill="none" stroke="#ff0099"/>
<path d="M396,445h 3" fill="none" stroke="#ff0099"/>
<g stroke="#ff0099" stroke-width="1" fill="#ff0099">
<circle cx=" 395" cy=" 445" r=" 1.5"/>
</g>
<path d="M399,445h 2" fill="none" stroke="#ff0099"/>
<path d="M404,445h 2" fill="none" stroke="#ff0099"/>
<g stroke="#ff0099" stroke-width="1" fill="#ff0099">
<circle cx=" 403" cy=" 445" r=" 1.5"/>
</g>
<path d="M406,446h 3" fill="none" stroke="#ff0099"/>
<path d="M411,446h 3" fill="none" stroke="#ff0099"/>
<g stroke="#ff0099" stroke-width="1" fill="#ff0099">
<circle cx=" 410" cy=" 446" r=" 1.5"/>
</g>
<path d="M414,446h 2" fill="none" stroke="#ff0099"/>
<path d="M419,446h 2" fill="none" stroke="#ff0099"/>
<g stroke="#ff0099" stroke-width="1" fill="#ff0099">
<circle cx=" 418" cy=" 446" r=" 1.5"/>
</g>
<path d="M421,446h 3" fill="none" stroke="#ff0099"/>
<path d="M426,446h 3" fill="none" stroke="#ff0099"/>
<g stroke="#ff0099" stroke-width="1" fill="#ff0099">
<circle cx=" 425" cy=" 446" r=" 1.5"/>
</g>
<path d="M429,446h 3" fill="none" stroke="#ff0099"/>
<path d="M434,446h 3" fill="none" stroke="#ff0099"/>
<g stroke="#ff0099" stroke-width="1" fill="#ff0099">
<circle cx=" 433" cy=" 446" r=" 1.5"/>
</g>
<path d="M437,446h 2" fill="none" stroke="#ff0099"/>
<path d="M441,446h 3" fill="none" stroke="#ff0099"/>
<g stroke="#ff0099" stroke-width="1" fill="#ff0099">
<circle cx=" 440" cy=" 446" r=" 1.5"/>
</g>
<path d="M444,446h 3" fill="none" stroke="#ff0099"/>
<path d="M449,446h 3" fill="none" stroke="#ff0099"/>
<g stroke="#ff0099" stroke-width="1" fill="#ff0099">
<circle cx=" 448" cy=" 446" r=" 1.5"/>
</g>
<path d="M452,446h 2" fill="none" stroke="#ff0099"/>
<path d="M457,446h 2" fill="none" stroke="#ff0099"/>
<g stroke="#ff0099" stroke-width="1" fill="#ff0099">
<circle cx=" 455" cy=" 446" r=" 1.5"/>
</g>
<path d="M459,446h 3" fill="none" stroke="#ff0099"/>
<path d="M464,446h 3" fill="none" stroke="#ff0099"/>
<g stroke="#ff0099" stroke-width="1" fill="#ff0099">
<circle cx=" 463" cy=" 446" r=" 1.5"/>
</g>
<path d="M467,446h 2" fill="none" stroke="#ff0099"/>
<path d="M472,446h 2" fill="none" stroke="#ff0099"/>
<g stroke="#ff0099" stroke-width="1" fill="#ff0099">
<circle cx=" 471" cy=" 446" r=" 1.5"/>
</g>
<path d="M474,446h 3" fill="none" stroke="#ff0099"/>
<path d="M479,446h 3" fill="none" stroke="#ff0099"/>
<g stroke="#ff0099" stroke-width="1" fill="#ff0099">
<circle cx=" 478" cy=" 446" r=" 1.5"/>
</g>
<path d="M482,446h 3" fill="none" stroke="#ff0099"/>
<path d="M487,446h 2" fill="none" stroke="#ff0099"/>
<g stroke="#ff0099" stroke-width="1" fill="#ff0099">
<circle cx=" 486" cy=" 446" r=" 1.5"/>
</g>
<path d="M489,446h 3" fill="none" stroke="#ff0099"/>
<path d="M494,446h 3" fill="none" stroke="#ff0099"/>
<g stroke="#ff0099" stroke-width="1" fill="#ff0099">
<circle cx=" 493" cy=" 446" r=" 1.5"/>
</g>
<path d="M497,446h 3" fill="none" stroke="#ff0099"/>
<path d="M502,446h 3" fill="none" stroke="#ff0099"/>
<g stroke="#ff0099" stroke-width="1" fill="#ff0099">
<circle cx=" 501" cy=" 446" r=" 1.5"/>
</g>
<path d="M505,446h 2" fill="none" stroke="#ff0099"/>
<path d="M509,446h 3" fill="none" stroke="#ff0099"/>
<g stroke="#ff0099" stroke-width="1" fill="#ff0099">
<circle cx=" 508" cy=" 446" r=" 1.5"/>
</g>
<path d="M512,446h 3" fill="none" stroke="#ff0099"/>
<path d="M517,446h 3" fill="none" stroke="#ff0099"/>
<g stroke="#ff0099" stroke-width="1" fill="#ff0099">
<circle cx=" 516" cy=" 446" r=" 1.5"/>
</g>
<path d="M520,446h 2" fill="none" stroke="#ff0099"/>
<path d="M525,446h 2" fill="none" stroke="#ff0099"/>
<g stroke="#ff0099" stroke-width="1" fill="#ff0099">
<circle cx=" 523" cy=" 446" r=" 1.5"/>
</g>
<path d="M74,446h 453" fill="none" stroke="black"/>
<path d="M74,434v 12" fill="none" stroke="black"/>
<path d="M89,440v 6" fill="none" stroke="black"/>
<path d="M104,440v 6" fill="none" stroke="black"/>
<path d="M119,440v 6" fill="none" stroke="black"/>
<path d="M134,440v 6" fill="none" stroke="black"/>
<path d="M149,434v 12" fill="none" stroke="black"/>
<path d="M164,440v 6" fill="none" stroke="black"/>
<path d="M180,440v 6" fill="none" stroke="black"/>
<path d="M195,440v 6" fill="none" stroke="black"/>
<path d="M210,440v 6" fill="none" stroke="black"/>
<path d="M225,434v 12" fill="none" stroke="black"/>
<path d="M240,440v 6" fill="none" stroke="black"/>
<path d="M255,440v 6" fill="none" stroke="black"/>
<path d="M270,440v 6" fill="none" stroke="black"/>
<path d="M285,440v 6" fill="none" stroke="black"/>
<path d="M300,434v 12" fill="none" stroke="black"/>
<path d="M316,440v 6" fill="none" stroke="black"/>
<path d="M331,440v 6" fill="none" stroke="black"/>
<path d="M346,440v 6" fill="none" stroke="black"/>
<path d="M361,440v 6" fill="none" stroke="black"/>
<path d="M376,434v 12" fill="none" stroke="black"/>
<path d="M391,440v 6" fill="none" stroke="black"/>
<path d="M406,440v 6" fill="none" stroke="black"/>
<path d="M421,440v 6" fill="none" stroke="black"/>
<path d="M437,440v 6" fill="none" stroke="black"/>
<path d="M452,434v 12" fill="none" stroke="black"/>
<path d="M467,440v 6" fill="none" stroke="black"/>
<path d="M482,440v 6" fill="none" stroke="black"/>
<path d="M497,440v 6" fill="none" stroke="black"/>
<path d="M512,440v 6" fill="none" stroke="black"/>
<path d="M527,434v 12" fill="none" stroke="black"/>
<text x="68" y="465" fill="black" font-size="18" font-family="Helvetica" font-weight="bold">
0
</text>
<text x="145" y="465" fill="black" font-size="18" font-family="Helvetica" font-weight="bold">
1
</text>
<text x="220" y="465" fill="black" font-size="18" font-family="Helvetica" font-weight="bold">
2
</text>
<text x="295" y="465" fill="black" font-size="18" font-family="Helvetica" font-weight="bold">
3
</text>
<text x="371" y="465" fill="black" font-size="18" font-family="Helvetica" font-weight="bold">
4
</text>
<text x="446" y="465" fill="black" font-size="18" font-family="Helvetica" font-weight="bold">
5
</text>
<text x="522" y="465" fill="black" font-size="18" font-family="Helvetica" font-weight="bold">
6
</text>
<path d="M74,44h 453" fill="none" stroke="black"/>
<path d="M74,56v -12" fill="none" stroke="black"/>
<path d="M89,50v -6" fill="none" stroke="black"/>
<path d="M104,50v -6" fill="none" stroke="black"/>
<path d="M119,50v -6" fill="none" stroke="black"/>
<path d="M134,50v -6" fill="none" stroke="black"/>
<path d="M149,56v -12" fill="none" stroke="black"/>
<path d="M164,50v -6" fill="none" stroke="black"/>
<path d="M180,50v -6" fill="none" stroke="black"/>
<path d="M195,50v -6" fill="none" stroke="black"/>
<path d="M210,50v -6" fill="none" stroke="black"/>
<path d="M225,56v -12" fill="none" stroke="black"/>
<path d="M240,50v -6" fill="none" stroke="black"/>
<path d="M255,50v -6" fill="none" stroke="black"/>
<path d="M270,50v -6" fill="none" stroke="black"/>
<path d="M285,50v -6" fill="none" stroke="black"/>
<path d="M300,56v -12" fill="none" stroke="black"/>
<path d="M316,50v -6" fill="none" stroke="black"/>
<path d="M331,50v -6" fill="none" stroke="black"/>
<path d="M346,50v -6" fill="none" stroke="black"/>
<path d="M361,50v -6" fill="none" stroke="black"/>
<path d="M376,56v -12" fill="none" stroke="black"/>
<path d="M391,50v -6" fill="none" stroke="black"/>
<path d="M406,50v -6" fill="none" stroke="black"/>
<path d="M421,50v -6" fill="none" stroke="black"/>
<path d="M437,50v -6" fill="none" stroke="black"/>
<path d="M452,56v -12" fill="none" stroke="black"/>
<path d="M467,50v -6" fill="none" stroke="black"/>
<path d="M482,50v -6" fill="none" stroke="black"/>
<path d="M497,50v -6" fill="none" stroke="black"/>
<path d="M512,50v -6" fill="none" stroke="black"/>
<path d="M527,56v -12" fill="none" stroke="black"/>
<path d="M74,446v -402" fill="none" stroke="black"/>
<path d="M87,446h -13" fill="none" stroke="black"/>
<path d="M81,435h -7" fill="none" stroke="black"/>
<path d="M81,423h -7" fill="none" stroke="black"/>
<path d="M81,411h -7" fill="none" stroke="black"/>
<path d="M81,400h -7" fill="none" stroke="black"/>
<path d="M87,388h -13" fill="none" stroke="black"/>
<path d="M81,376h -7" fill="none" stroke="black"/>
<path d="M81,364h -7" fill="none" stroke="black"/>
<path d="M81,353h -7" fill="none" stroke="black"/>
<path d="M81,341h -7" fill="none" stroke="black"/>
<path d="M87,329h -13" fill="none" stroke="black"/>
<path d="M81,318h -7" fill="none" stroke="black"/>
<path d="M81,306h -7" fill="none" stroke="black"/>
<path d="M81,294h -7" fill="none" stroke="black"/>
<path d="M81,282h -7" fill="none" stroke="black"/>
<path d="M87,271h -13" fill="none" stroke="black"/>
<path d="M81,259h -7" fill="none" stroke="black"/>
<path d="M81,247h -7" fill="none" stroke="black"/>
<path d="M81,236h -7" fill="none" stroke="black"/>
<path d="M81,224h -7" fill="none" stroke="black"/>
<path d="M87,212h -13" fill="none" stroke="black"/>
<path d="M81,200h -7" fill="none" stroke="black"/>
<path d="M81,189h -7" fill="none" stroke="black"/>
<path d="M81,177h -7" fill="none" stroke="black"/>
<path d="M81,165h -7" fill="none" stroke="black"/>
<path d="M87,154h -13" fill="none" stroke="black"/>
<path d="M81,142h -7" fill="none" stroke="black"/>
<path d="M81,130h -7" fill="none" stroke="black"/>
<path d="M81,118h -7" fill="none" stroke="black"/>
<path d="M81,107h -7" fill="none" stroke="black"/>
<path d="M87,95h -13" fill="none" stroke="black"/>
<path d="M87,95h -13" fill="none" stroke="black"/>
<path d="M81,83h -7" fill="none" stroke="black"/>
<path d="M81,72h -7" fill="none" stroke="black"/>
<path d="M81,60h -7" fill="none" stroke="black"/>
<path d="M81,48h -7" fill="none" stroke="black"/>
<text x="61" y="453" fill="black" font-size="18" font-family="Helvetica" font-weight="bold">
0
</text>
<text x="34" y="394" fill="black" font-size="18" font-family="Helvetica" font-weight="bold">
0.05
</text>
<text x="47" y="336" fill="black" font-size="18" font-family="Helvetica" font-weight="bold">
0.1
</text>
<text x="34" y="277" fill="black" font-size="18" font-family="Helvetica" font-weight="bold">
0.15
</text>
<text x="45" y="219" fill="black" font-size="18" font-family="Helvetica" font-weight="bold">
0.2
</text>
<text x="34" y="160" fill="black" font-size="18" font-family="Helvetica" font-weight="bold">
0.25
</text>
<text x="45" y="102" fill="black" font-size="18" font-family="Helvetica" font-weight="bold">
0.3
</text>
<path d="M77,63v -2" fill="none" stroke="#99ff99" stroke-width="2"/>
<path d="M77,61v -2" fill="none" stroke="#99ff99" stroke-width="2"/>
<g stroke="black" stroke-width="2" fill="none">
<line x1="76" y1="61" x2="77" y2="61"/>
</g>
<path d="M85,421" fill="none" stroke="#99ff99" stroke-width="2"/>
<path d="M85,421v -1" fill="none" stroke="#99ff99" stroke-width="2"/>
<g stroke="black" stroke-width="2" fill="none">
<line x1="84" y1="421" x2="85" y2="421"/>
</g>
<path d="M93,388" fill="none" stroke="#99ff99" stroke-width="2"/>
<path d="M93,388v -1" fill="none" stroke="#99ff99" stroke-width="2"/>
<g stroke="black" stroke-width="2" fill="none">
<line x1="92" y1="388" x2="93" y2="388"/>
</g>
<path d="M100,380v -1" fill="none" stroke="#99ff99" stroke-width="2"/>
<path d="M100,379" fill="none" stroke="#99ff99" stroke-width="2"/>
<g stroke="black" stroke-width="2" fill="none">
<line x1="99" y1="379" x2="100" y2="379"/>
</g>
<path d="M108,393" fill="none" stroke="#99ff99" stroke-width="2"/>
<path d="M108,393v -1" fill="none" stroke="#99ff99" stroke-width="2"/>
<g stroke="black" stroke-width="2" fill="none">
<line x1="107" y1="393" x2="108" y2="393"/>
</g>
<path d="M115,399v -1" fill="none" stroke="#99ff99" stroke-width="2"/>
<path d="M115,398" fill="none" stroke="#99ff99" stroke-width="2"/>
<g stroke="black" stroke-width="2" fill="none">
<line x1="114" y1="398" x2="115" y2="398"/>
</g>
<path d="M123,401v -1" fill="none" stroke="#99ff99" stroke-width="2"/>
<path d="M123,400v -1" fill="none" stroke="#99ff99" stroke-width="2"/>
<g stroke="black" stroke-width="2" fill="none">
<line x1="122" y1="400" x2="123" y2="400"/>
</g>
<path d="M130,403v -1" fill="none" stroke="#99ff99" stroke-width="2"/>
<path d="M130,402" fill="none" stroke="#99ff99" stroke-width="2"/>
<g stroke="black" stroke-width="2" fill="none">
<line x1="129" y1="402" x2="130" y2="402"/>
</g>
<path d="M138,407" fill="none" stroke="#99ff99" stroke-width="2"/>
<path d="M138,407v -1" fill="none" stroke="#99ff99" stroke-width="2"/>
<g stroke="black" stroke-width="2" fill="none">
<line x1="137" y1="407" x2="138" y2="407"/>
</g>
<path d="M146,410" fill="none" stroke="#99ff99" stroke-width="2"/>
<path d="M146,410v -1" fill="none" stroke="#99ff99" stroke-width="2"/>
<g stroke="black" stroke-width="2" fill="none">
<line x1="145" y1="410" x2="146" y2="410"/>
</g>
<path d="M153,413v -1" fill="none" stroke="#99ff99" stroke-width="2"/>
<path d="M153,412" fill="none" stroke="#99ff99" stroke-width="2"/>
<g stroke="black" stroke-width="2" fill="none">
<line x1="152" y1="412" x2="153" y2="412"/>
</g>
<path d="M161,416" fill="none" stroke="#99ff99" stroke-width="2"/>
<path d="M161,416v -1" fill="none" stroke="#99ff99" stroke-width="2"/>
<g stroke="black" stroke-width="2" fill="none">
<line x1="160" y1="416" x2="161" y2="416"/>
</g>
<path d="M168,419v -1" fill="none" stroke="#99ff99" stroke-width="2"/>
<path d="M168,418" fill="none" stroke="#99ff99" stroke-width="2"/>
<g stroke="black" stroke-width="2" fill="none">
<line x1="167" y1="418" x2="168" y2="418"/>
</g>
<path d="M176,421" fill="none" stroke="#99ff99" stroke-width="2"/>
<path d="M176,421v -1" fill="none" stroke="#99ff99" stroke-width="2"/>
<g stroke="black" stroke-width="2" fill="none">
<line x1="175" y1="421" x2="176" y2="421"/>
</g>
<path d="M183,423" fill="none" stroke="#99ff99" stroke-width="2"/>
<path d="M183,423v -1" fill="none" stroke="#99ff99" stroke-width="2"/>
<g stroke="black" stroke-width="2" fill="none">
<line x1="182" y1="423" x2="183" y2="423"/>
</g>
<path d="M191,426" fill="none" stroke="#99ff99" stroke-width="2"/>
<path d="M191,426v -1" fill="none" stroke="#99ff99" stroke-width="2"/>
<g stroke="black" stroke-width="2" fill="none">
<line x1="190" y1="426" x2="191" y2="426"/>
</g>
<path d="M198,428v -1" fill="none" stroke="#99ff99" stroke-width="2"/>
<path d="M198,427" fill="none" stroke="#99ff99" stroke-width="2"/>
<g stroke="black" stroke-width="2" fill="none">
<line x1="197" y1="427" x2="198" y2="427"/>
</g>
<path d="M206,429" fill="none" stroke="#99ff99" stroke-width="2"/>
<path d="M206,429v -1" fill="none" stroke="#99ff99" stroke-width="2"/>
<g stroke="black" stroke-width="2" fill="none">
<line x1="205" y1="429" x2="206" y2="429"/>
</g>
<path d="M214,431" fill="none" stroke="#99ff99" stroke-width="2"/>
<path d="M214,431v -1" fill="none" stroke="#99ff99" stroke-width="2"/>
<g stroke="black" stroke-width="2" fill="none">
<line x1="213" y1="431" x2="214" y2="431"/>
</g>
<path d="M221,432" fill="none" stroke="#99ff99" stroke-width="2"/>
<path d="M221,432" fill="none" stroke="#99ff99" stroke-width="2"/>
<g stroke="black" stroke-width="2" fill="none">
<line x1="220" y1="432" x2="221" y2="432"/>
</g>
<path d="M229,434v -1" fill="none" stroke="#99ff99" stroke-width="2"/>
<path d="M229,433" fill="none" stroke="#99ff99" stroke-width="2"/>
<g stroke="black" stroke-width="2" fill="none">
<line x1="228" y1="433" x2="229" y2="433"/>
</g>
<path d="M236,435v -1" fill="none" stroke="#99ff99" stroke-width="2"/>
<path d="M236,434" fill="none" stroke="#99ff99" stroke-width="2"/>
<g stroke="black" stroke-width="2" fill="none">
<line x1="235" y1="434" x2="236" y2="434"/>
</g>
<path d="M244,436" fill="none" stroke="#99ff99" stroke-width="2"/>
<path d="M244,436v -1" fill="none" stroke="#99ff99" stroke-width="2"/>
<g stroke="black" stroke-width="2" fill="none">
<line x1="243" y1="436" x2="244" y2="436"/>
</g>
<path d="M251,438v -1" fill="none" stroke="#99ff99" stroke-width="2"/>
<path d="M251,437" fill="none" stroke="#99ff99" stroke-width="2"/>
<g stroke="black" stroke-width="2" fill="none">
<line x1="250" y1="437" x2="251" y2="437"/>
</g>
<path d="M259,438" fill="none" stroke="#99ff99" stroke-width="2"/>
<path d="M259,438" fill="none" stroke="#99ff99" stroke-width="2"/>
<g stroke="black" stroke-width="2" fill="none">
<line x1="258" y1="438" x2="259" y2="438"/>
</g>
<path d="M266,438" fill="none" stroke="#99ff99" stroke-width="2"/>
<path d="M266,438" fill="none" stroke="#99ff99" stroke-width="2"/>
<g stroke="black" stroke-width="2" fill="none">
<line x1="265" y1="438" x2="266" y2="438"/>
</g>
<path d="M274,440" fill="none" stroke="#99ff99" stroke-width="2"/>
<path d="M274,440v -1" fill="none" stroke="#99ff99" stroke-width="2"/>
<g stroke="black" stroke-width="2" fill="none">
<line x1="273" y1="440" x2="274" y2="440"/>
</g>
<path d="M282,440" fill="none" stroke="#99ff99" stroke-width="2"/>
<path d="M282,440" fill="none" stroke="#99ff99" stroke-width="2"/>
<g stroke="black" stroke-width="2" fill="none">
<line x1="281" y1="440" x2="282" y2="440"/>
</g>
<path d="M289,441" fill="none" stroke="#99ff99" stroke-width="2"/>
<path d="M289,441" fill="none" stroke="#99ff99" stroke-width="2"/>
<g stroke="black" stroke-width="2" fill="none">
<line x1="288" y1="441" x2="289" y2="441"/>
</g>
<path d="M297,441" fill="none" stroke="#99ff99" stroke-width="2"/>
<path d="M297,441" fill="none" stroke="#99ff99" stroke-width="2"/>
<g stroke="black" stroke-width="2" fill="none">
<line x1="296" y1="441" x2="297" y2="441"/>
</g>
<path d="M304,442" fill="none" stroke="#99ff99" stroke-width="2"/>
<path d="M304,442" fill="none" stroke="#99ff99" stroke-width="2"/>
<g stroke="black" stroke-width="2" fill="none">
<line x1="303" y1="442" x2="304" y2="442"/>
</g>
<path d="M312,442" fill="none" stroke="#99ff99" stroke-width="2"/>
<path d="M312,442" fill="none" stroke="#99ff99" stroke-width="2"/>
<g stroke="black" stroke-width="2" fill="none">
<line x1="311" y1="442" x2="312" y2="442"/>
</g>
<path d="M319,443" fill="none" stroke="#99ff99" stroke-width="2"/>
<path d="M319,443v -1" fill="none" stroke="#99ff99" stroke-width="2"/>
<g stroke="black" stroke-width="2" fill="none">
<line x1="318" y1="443" x2="319" y2="443"/>
</g>
<path d="M327,443" fill="none" stroke="#99ff99" stroke-width="2"/>
<path d="M327,443v -1" fill="none" stroke="#99ff99" stroke-width="2"/>
<g stroke="black" stroke-width="2" fill="none">
<line x1="326" y1="443" x2="327" y2="443"/>
</g>
<path d="M334,443" fill="none" stroke="#99ff99" stroke-width="2"/>
<path d="M334,443" fill="none" stroke="#99ff99" stroke-width="2"/>
<g stroke="black" stroke-width="2" fill="none">
<line x1="333" y1="443" x2="334" y2="443"/>
</g>
<path d="M342,444" fill="none" stroke="#99ff99" stroke-width="2"/>
<path d="M342,444v -1" fill="none" stroke="#99ff99" stroke-width="2"/>
<g stroke="black" stroke-width="2" fill="none">
<line x1="341" y1="444" x2="342" y2="444"/>
</g>
<path d="M350,444" fill="none" stroke="#99ff99" stroke-width="2"/>
<path d="M350,444" fill="none" stroke="#99ff99" stroke-width="2"/>
<g stroke="black" stroke-width="2" fill="none">
<line x1="349" y1="444" x2="350" y2="444"/>
</g>
<path d="M357,444" fill="none" stroke="#99ff99" stroke-width="2"/>
<path d="M357,444" fill="none" stroke="#99ff99" stroke-width="2"/>
<g stroke="black" stroke-width="2" fill="none">
<line x1="356" y1="444" x2="357" y2="444"/>
</g>
<path d="M365,444" fill="none" stroke="#99ff99" stroke-width="2"/>
<path d="M365,444" fill="none" stroke="#99ff99" stroke-width="2"/>
<g stroke="black" stroke-width="2" fill="none">
<line x1="364" y1="444" x2="365" y2="444"/>
</g>
<path d="M372,444" fill="none" stroke="#99ff99" stroke-width="2"/>
<path d="M372,444" fill="none" stroke="#99ff99" stroke-width="2"/>
<g stroke="black" stroke-width="2" fill="none">
<line x1="371" y1="444" x2="372" y2="444"/>
</g>
<path d="M380,445" fill="none" stroke="#99ff99" stroke-width="2"/>
<path d="M380,445v -1" fill="none" stroke="#99ff99" stroke-width="2"/>
<g stroke="black" stroke-width="2" fill="none">
<line x1="379" y1="445" x2="380" y2="445"/>
</g>
<path d="M387,445" fill="none" stroke="#99ff99" stroke-width="2"/>
<path d="M387,445" fill="none" stroke="#99ff99" stroke-width="2"/>
<g stroke="black" stroke-width="2" fill="none">
<line x1="386" y1="445" x2="387" y2="445"/>
</g>
<path d="M395,445" fill="none" stroke="#99ff99" stroke-width="2"/>
<path d="M395,445" fill="none" stroke="#99ff99" stroke-width="2"/>
<g stroke="black" stroke-width="2" fill="none">
<line x1="394" y1="445" x2="395" y2="445"/>
</g>
<path d="M403,445" fill="none" stroke="#99ff99" stroke-width="2"/>
<path d="M403,445" fill="none" stroke="#99ff99" stroke-width="2"/>
<g stroke="black" stroke-width="2" fill="none">
<line x1="402" y1="445" x2="403" y2="445"/>
</g>
<path d="M410,445" fill="none" stroke="#99ff99" stroke-width="2"/>
<path d="M410,445" fill="none" stroke="#99ff99" stroke-width="2"/>
<g stroke="black" stroke-width="2" fill="none">
<line x1="409" y1="445" x2="410" y2="445"/>
</g>
<path d="M418,445" fill="none" stroke="#99ff99" stroke-width="2"/>
<path d="M418,445" fill="none" stroke="#99ff99" stroke-width="2"/>
<g stroke="black" stroke-width="2" fill="none">
<line x1="417" y1="445" x2="418" y2="445"/>
</g>
<path d="M425,445" fill="none" stroke="#99ff99" stroke-width="2"/>
<path d="M425,445" fill="none" stroke="#99ff99" stroke-width="2"/>
<g stroke="black" stroke-width="2" fill="none">
<line x1="424" y1="445" x2="425" y2="445"/>
</g>
<path d="M433,446v -1" fill="none" stroke="#99ff99" stroke-width="2"/>
<path d="M433,445" fill="none" stroke="#99ff99" stroke-width="2"/>
<g stroke="black" stroke-width="2" fill="none">
<line x1="432" y1="445" x2="433" y2="445"/>
</g>
<path d="M440,446" fill="none" stroke="#99ff99" stroke-width="2"/>
<path d="M440,446v -1" fill="none" stroke="#99ff99" stroke-width="2"/>
<g stroke="black" stroke-width="2" fill="none">
<line x1="439" y1="446" x2="440" y2="446"/>
</g>
<path d="M448,446" fill="none" stroke="#99ff99" stroke-width="2"/>
<path d="M448,446v -1" fill="none" stroke="#99ff99" stroke-width="2"/>
<g stroke="black" stroke-width="2" fill="none">
<line x1="447" y1="446" x2="448" y2="446"/>
</g>
<path d="M455,446" fill="none" stroke="#99ff99" stroke-width="2"/>
<path d="M455,446v -1" fill="none" stroke="#99ff99" stroke-width="2"/>
<g stroke="black" stroke-width="2" fill="none">
<line x1="454" y1="446" x2="455" y2="446"/>
</g>
<path d="M463,446" fill="none" stroke="#99ff99" stroke-width="2"/>
<path d="M463,446" fill="none" stroke="#99ff99" stroke-width="2"/>
<g stroke="black" stroke-width="2" fill="none">
<line x1="462" y1="446" x2="463" y2="446"/>
</g>
<path d="M471,446" fill="none" stroke="#99ff99" stroke-width="2"/>
<path d="M471,446" fill="none" stroke="#99ff99" stroke-width="2"/>
<g stroke="black" stroke-width="2" fill="none">
<line x1="470" y1="446" x2="471" y2="446"/>
</g>
<path d="M478,446" fill="none" stroke="#99ff99" stroke-width="2"/>
<path d="M478,446" fill="none" stroke="#99ff99" stroke-width="2"/>
<g stroke="black" stroke-width="2" fill="none">
<line x1="477" y1="446" x2="478" y2="446"/>
</g>
<path d="M486,446" fill="none" stroke="#99ff99" stroke-width="2"/>
<path d="M486,446" fill="none" stroke="#99ff99" stroke-width="2"/>
<g stroke="black" stroke-width="2" fill="none">
<line x1="485" y1="446" x2="486" y2="446"/>
</g>
<path d="M493,446" fill="none" stroke="#99ff99" stroke-width="2"/>
<path d="M493,446" fill="none" stroke="#99ff99" stroke-width="2"/>
<g stroke="black" stroke-width="2" fill="none">
<line x1="492" y1="446" x2="493" y2="446"/>
</g>
<path d="M501,446" fill="none" stroke="#99ff99" stroke-width="2"/>
<path d="M501,446" fill="none" stroke="#99ff99" stroke-width="2"/>
<g stroke="black" stroke-width="2" fill="none">
<line x1="500" y1="446" x2="501" y2="446"/>
</g>
<path d="M508,446" fill="none" stroke="#99ff99" stroke-width="2"/>
<path d="M508,446" fill="none" stroke="#99ff99" stroke-width="2"/>
<g stroke="black" stroke-width="2" fill="none">
<line x1="507" y1="446" x2="508" y2="446"/>
</g>
<path d="M516,446" fill="none" stroke="#99ff99" stroke-width="2"/>
<path d="M516,446" fill="none" stroke="#99ff99" stroke-width="2"/>
<g stroke="black" stroke-width="2" fill="none">
<line x1="515" y1="446" x2="516" y2="446"/>
</g>
<path d="M523,446" fill="none" stroke="#99ff99" stroke-width="2"/>
<path d="M523,446" fill="none" stroke="#99ff99" stroke-width="2"/>
<g stroke="black" stroke-width="2" fill="none">
<line x1="522" y1="446" x2="523" y2="446"/>
</g>
<path d="M74,446v -385h 7v 360h 8v -33h 7v -9h 8v 14h 7v 5h 8v 2h 8v 2h 7v 5h 8v 3h 7v 2h 8v 4h 7v 2h 8v 3h 8v 2h 7v 3h 8v 1h 7v 2h 8v 2h 7v 1h 8v 1h 7v 1h 8v 2h 8v 1h 7v 1h 15v 2h 15v 1h 15v 1h 16v 1h 22v 1h 38v 1h 61v 1h 90z" fill="#99ff99"/>
<path d="M74,61h 7v 360h 8v -33h 7v -9h 8v 14h 7v 5h 8v 2h 8v 2h 7v 5h 8v 3h 7v 2h 8v 4h 7v 2h 8v 3h 8v 2h 7v 3h 8v 1h 7v 2h 8v 2h 7v 1h 8v 1h 7v 1h 8v 2h 8v 1h 7v 1h 15v 2h 15v 1h 15v 1h 16v 1h 22v 1h 38v 1h 61v 1h 90" fill="none" stroke="#99ff99"
 stroke-width="2"/>
<path d="M74,64h 2" fill="none" stroke="#ff0099"/>
<path d="M79,64h 2" fill="none" stroke="#ff0099"/>
<g stroke="#ff0099" stroke-width="1" fill="#ff0099">
<circle cx=" 77" cy=" 64" r=" 1.5"/>
</g>
<path d="M81,420h 3" fill="none" stroke="#ff0099"/>
<path d="M86,420h 3" fill="none" stroke="#ff0099"/>
<g stroke="#ff0099" stroke-width="1" fill="#ff0099">
<circle cx=" 85" cy=" 420" r=" 1.5"/>
</g>
<path d="M89,378h 2" fill="none" stroke="#ff0099"/>
<path d="M94,378h 2" fill="none" stroke="#ff0099"/>
<g stroke="#ff0099" stroke-width="1" fill="#ff0099">
<circle cx=" 93" cy=" 378" r=" 1.5"/>
</g>
<path d="M96,372h 3" fill="none" stroke="#ff0099"/>
<path d="M101,372h 3" fill="none" stroke="#ff0099"/>
<g stroke="#ff0099" stroke-width="1" fill="#ff0099">
<circle cx=" 100" cy=" 372" r=" 1.5"/>
</g>
<path d="M104,387h 3" fill="none" stroke="#ff0099"/>
<path d="M109,387h 2" fill="none" stroke="#ff0099"/>
<g stroke="#ff0099" stroke-width="1" fill="#ff0099">
<circle cx=" 108" cy=" 387" r=" 1.5"/>
</g>
<path d="M111,392h 3" fill="none" stroke="#ff0099"/>
<path d="M116,392h 3" fill="none" stroke="#ff0099"/>
<g stroke="#ff0099" stroke-width="1" fill="#ff0099">
<circle cx=" 115" cy=" 392" r=" 1.5"/>
</g>
<path d="M119,396h 3" fill="none" stroke="#ff0099"/>
<path d="M124,396h 3" fill="none" stroke="#ff0099"/>
<g stroke="#ff0099" stroke-width="1" fill="#ff0099">
<circle cx=" 123" cy=" 396" r=" 1.5"/>
</g>
<path d="M127,400h 2" fill="none" stroke="#ff0099"/>
<path d="M132,400h 2" fill="none" stroke="#ff0099"/>
<g stroke="#ff0099" stroke-width="1" fill="#ff0099">
<circle cx=" 130" cy=" 400" r=" 1.5"/>
</g>
<path d="M134,404h 3" fill="none" stroke="#ff0099"/>
<path d="M139,404h 3" fill="none" stroke="#ff0099"/>
<g stroke="#ff0099" stroke-width="1" fill="#ff0099">
<circle cx=" 138" cy=" 404" r=" 1.5"/>
</g>
<path d="M142,408h 2" fill="none" stroke="#ff0099"/>
<path d="M147,408h 2" fill="none" stroke="#ff0099"/>
<g stroke="#ff0099" stroke-width="1" fill="#ff0099">
<circle cx=" 146" cy=" 408" r=" 1.5"/>
</g>
<path d="M149,412h 3" fill="none" stroke="#ff0099"/>
<path d="M154,412h 3" fill="none" stroke="#ff0099"/>
<g stroke="#ff0099" stroke-width="1" fill="#ff0099">
<circle cx=" 153" cy=" 412" r=" 1.5"/>
</g>
<path d="M157,415h 2" fill="none" stroke="#ff0099"/>
<path d="M162,415h 2" fill="none" stroke="#ff0099"/>
<g stroke="#ff0099" stroke-width="1" fill="#ff0099">
<circle cx=" 161" cy=" 415" r=" 1.5"/>
</g>
<path d="M164,418h 3" fill="none" stroke="#ff0099"/>
<path d="M169,418h 3" fill="none" stroke="#ff0099"/>
<g stroke="#ff0099" stroke-width="1" fill="#ff0099">
<circle cx=" 168" cy=" 418" r=" 1.5"/>
</g>
<path d="M172,421h 3" fill="none" stroke="#ff0099"/>
<path d="M177,421h 3" fill="none" stroke="#ff0099"/>
<g stroke="#ff0099" stroke-width="1" fill="#ff0099">
<circle cx=" 176" cy=" 421" r=" 1.5"/>
</g>
<path d="M180,424h 2" fill="none" stroke="#ff0099"/>
<path d="M184,424h 3" fill="none" stroke="#ff0099"/>
<g stroke="#ff0099" stroke-width="1" fill="#ff0099">
<circle cx=" 183" cy=" 424" r=" 1.5"/>
</g>
<path d="M187,426h 3" fill="none" stroke="#ff0099"/>
<path d="M192,426h 3" fill="none" stroke="#ff0099"/>
<g stroke="#ff0099" stroke-width="1" fill="#ff0099">
<circle cx=" 191" cy=" 426" r=" 1.5"/>
</g>
<path d="M195,428h 2" fill="none" stroke="#ff0099"/>
<path d="M200,428h 2" fill="none" stroke="#ff0099"/>
<g stroke="#ff0099" stroke-width="1" fill="#ff0099">
<circle cx=" 198" cy=" 428" r=" 1.5"/>
</g>
<path d="M202,430h 3" fill="none" stroke="#ff0099"/>
<path d="M207,430h 3" fill="none" stroke="#ff0099"/>
<g stroke="#ff0099" stroke-width="1" fill="#ff0099">
<circle cx=" 206" cy=" 430" r=" 1.5"/>
</g>
<path d="M210,432h 2" fill="none" stroke="#ff0099"/>
<path d="M215,432h 2" fill="none" stroke="#ff0099"/>
<g stroke="#ff0099" stroke-width="1" fill="#ff0099">
<circle cx=" 214" cy=" 432" r=" 1.5"/>
</g>
<path d="M217,433h 3" fill="none" stroke="#ff0099"/>
<path d="M222,433h 3" fill="none" stroke="#ff0099"/>
<g stroke="#ff0099" stroke-width="1" fill="#ff0099">
<circle cx=" 221" cy=" 433" r=" 1.5"/>
</g>
<path d="M225,435h 3" fill="none" stroke="#ff0099"/>
<path d="M230,435h 2" fill="none" stroke="#ff0099"/>
<g stroke="#ff0099" stroke-width="1" fill="#ff0099">
<circle cx=" 229" cy=" 435" r=" 1.5"/>
</g>
<path d="M232,436h 3" fill="none" stroke="#ff0099"/>
<path d="M237,436h 3" fill="none" stroke="#ff0099"/>
<g stroke="#ff0099" stroke-width="1" fill="#ff0099">
<circle cx=" 236" cy=" 436" r=" 1.5"/>
</g>
<path d="M240,437h 3" fill="none" stroke="#ff0099"/>
<path d="M245,437h 3" fill="none" stroke="#ff0099"/>
<g stroke="#ff0099" stroke-width="1" fill="#ff0099">
<circle cx=" 244" cy=" 437" r=" 1.5"/>
</g>
<path d="M248,438h 2" fill="none" stroke="#ff0099"/>
<path d="M252,438h 3" fill="none" stroke="#ff0099"/>
<g stroke="#ff0099" stroke-width="1" fill="#ff0099">
<circle cx=" 251" cy=" 438" r=" 1.5"/>
</g>
<path d="M255,439h 3" fill="none" stroke="#ff0099"/>
<path d="M260,439h 3" fill="none" stroke="#ff0099"/>
<g stroke="#ff0099" stroke-width="1" fill="#ff0099">
<circle cx=" 259" cy=" 439" r=" 1.5"/>
</g>
<path d="M263,440h 2" fill="none" stroke="#ff0099"/>
<path d="M268,440h 2" fill="none" stroke="#ff0099"/>
<g stroke="#ff0099" stroke-width="1" fill="#ff0099">
<circle cx=" 266" cy=" 440" r=" 1.5"/>
</g>
<path d="M270,441h 3" fill="none" stroke="#ff0099"/>
<path d="M275,441h 3" fill="none" stroke="#ff0099"/>
<g stroke="#ff0099" stroke-width="1" fill="#ff0099">
<circle cx=" 274" cy=" 441" r=" 1.5"/>
</g>
<path d="M278,441h 2" fill="none" stroke="#ff0099"/>
<path d="M283,441h 2" fill="none" stroke="#ff0099"/>
<g stroke="#ff0099" stroke-width="1" fill="#ff0099">
<circle cx=" 282" cy=" 441" r=" 1.5"/>
</g>
<path d="M285,442h 3" fill="none" stroke="#ff0099"/>
<path d="M290,442h 3" fill="none" stroke="#ff0099"/>
<g stroke="#ff0099" stroke-width="1" fill="#ff0099">
<circle cx=" 289" cy=" 442" r=" 1.5"/>
</g>
<path d="M293,442h 3" fill="none" stroke="#ff0099"/>
<path d="M298,442h 2" fill="none" stroke="#ff0099"/>
<g stroke="#ff0099" stroke-width="1" fill="#ff0099">
<circle cx=" 297" cy=" 442" r=" 1.5"/>
</g>
<path d="M300,443h 3" fill="none" stroke="#ff0099"/>
<path d="M305,443h 3" fill="none" stroke="#ff0099"/>
<g stroke="#ff0099" stroke-width="1" fill="#ff0099">
<circle cx=" 304" cy=" 443" r=" 1.5"/>
</g>
<path d="M308,443h 3" fill="none" stroke="#ff0099"/>
<path d="M313,443h 3" fill="none" stroke="#ff0099"/>
<g stroke="#ff0099" stroke-width="1" fill="#ff0099">
<circle cx=" 312" cy=" 443" r=" 1.5"/>
</g>
<path d="M316,443h 2" fill="none" stroke="#ff0099"/>
<path d="M321,443h 2" fill="none" stroke="#ff0099"/>
<g stroke="#ff0099" stroke-width="1" fill="#ff0099">
<circle cx=" 319" cy=" 443" r=" 1.5"/>
</g>
<path d="M323,444h 3" fill="none" stroke="#ff0099"/>
<path d="M328,444h 3" fill="none" stroke="#ff0099"/>
<g stroke="#ff0099" stroke-width="1" fill="#ff0099">
<circle cx=" 327" cy=" 444" r=" 1.5"/>
</g>
<path d="M331,444h 2" fill="none" stroke="#ff0099"/>
<path d="M336,444h 2" fill="none" stroke="#ff0099"/>
<g stroke="#ff0099" stroke-width="1" fill="#ff0099">
<circle cx=" 334" cy=" 444" r=" 1.5"/>
</g>
<path d="M338,444h 3" fill="none" stroke="#ff0099"/>
<path d="M343,444h 3" fill="none" stroke="#ff0099"/>
<g stroke="#ff0099" stroke-width="1" fill="#ff0099">
<circle cx=" 342" cy=" 444" r=" 1.5"/>
</g>
<path d="M346,444h 2" fill="none" stroke="#ff0099"/>
<path d="M351,444h 2" fill="none" stroke="#ff0099"/>
<g stroke="#ff0099" stroke-width="1" fill="#ff0099">
<circle cx=" 350" cy=" 444" r=" 1.5"/>
</g>
<path d="M353,445h 3" fill="none" stroke="#ff0099"/>
<path d="M358,445h 3" fill="none" stroke="#ff0099"/>
<g stroke="#ff0099" stroke-width="1" fill="#ff0099">
<circle cx=" 357" cy=" 445" r=" 1.5"/>
</g>
<path d="M361,445h 3" fill="none" stroke="#ff0099"/>
<path d="M366,445h 3" fill="none" stroke="#ff0099"/>
<g stroke="#ff0099" stroke-width="1" fill="#ff0099">
<circle cx=" 365" cy=" 445" r=" 1.5"/>
</g>
<path d="M369,445h 2" fill="none" stroke="#ff0099"/>
<path d="M373,445h 3" fill="none" stroke="#ff0099"/>
<g stroke="#ff0099" stroke-width="1" fill="#ff0099">
<circle cx=" 372" cy=" 445" r=" 1.5"/>
</g>
<path d="M376,445h 3" fill="none" stroke="#ff0099"/>
<path d="M381,445h 3" fill="none" stroke="#ff0099"/>
<g stroke="#ff0099" stroke-width="1" fill="#ff0099">
<circle cx=" 380" cy=" 445" r=" 1.5"/>
</g>
<path d="M384,445h 2" fill="none" stroke="#ff0099"/>
<path d="M389,445h 2" fill="none" stroke="#ff0099"/>
<g stroke="#ff0099" stroke-width="1" fill="#ff0099">
<circle cx=" 387" cy=" 445" r=" 1.5"/>
</g>
<path d="M391,445h 3" fill="none" stroke="#ff0099"/>
<path d="M396,445h 3" fill="none" stroke="#ff0099"/>
<g stroke="#ff0099" stroke-width="1" fill="#ff0099">
<circle cx=" 395" cy=" 445" r=" 1.5"/>
</g>
<path d="M399,445h 2" fill="none" stroke="#ff0099"/>
<path d="M404,445h 2" fill="none" stroke="#ff0099"/>
<g stroke="#ff0099" stroke-width="1" fill="#ff0099">
<circle cx=" 403" cy=" 445" r=" 1.5"/>
</g>
<path d="M406,446h 3" fill="none" stroke="#ff0099"/>
<path d="M411,446h 3" fill="none" stroke="#ff0099"/>
<g stroke="#ff0099" stroke-width="1" fill="#ff0099">
<circle cx=" 410" cy=" 446" r=" 1.5"/>
</g>
<path d="M414,446h 2" fill="none" stroke="#ff0099"/>
<path d="M419,446h 2" fill="none" stroke="#ff0099"/>
<g stroke="#ff0099" stroke-width="1" fill="#ff0099">
<circle cx=" 418" cy=" 446" r=" 1.5"/>
</g>
<path d="M421,446h 3" fill="none" stroke="#ff0099"/>
<path d="M426,446h 3" fill="none" stroke="#ff0099"/>
<g stroke="#ff0099" stroke-width="1" fill="#ff0099">
<circle cx=" 425" cy=" 446" r=" 1.5"/>
</g>
<path d="M429,446h 3" fill="none" stroke="#ff0099"/>
<path d="M434,446h 3" fill="none" stroke="#ff0099"/>
<g stroke="#ff0099" stroke-width="1" fill="#ff0099">
<circle cx=" 433" cy=" 446" r=" 1.5"/>
</g>
<path d="M437,446h 2" fill="none" stroke="#ff0099"/>
<path d="M441,446h 3" fill="none" stroke="#ff0099"/>
<g stroke="#ff0099" stroke-width="1" fill="#ff0099">
<circle cx=" 440" cy=" 446" r=" 1.5"/>
</g>
<path d="M444,446h 3" fill="none" stroke="#ff0099"/>
<path d="M449,446h 3" fill="none" stroke="#ff0099"/>
<g stroke="#ff0099" stroke-width="1" fill="#ff0099">
<circle cx=" 448" cy=" 446" r=" 1.5"/>
</g>
<path d="M452,446h 2" fill="none" stroke="#ff0099"/>
<path d="M457,446h 2" fill="none" stroke="#ff0099"/>
<g stroke="#ff0099" stroke-width="1" fill="#ff0099">
<circle cx=" 455" cy=" 446" r=" 1.5"/>
</g>
<path d="M459,446h 3" fill="none" stroke="#ff0099"/>
<path d="M464,446h 3" fill="none" stroke="#ff0099"/>
<g stroke="#ff0099" stroke-width="1" fill="#ff0099">
<circle cx=" 463" cy=" 446" r=" 1.5"/>
</g>
<path d="M467,446h 2" fill="none" stroke="#ff0099"/>
<path d="M472,446h 2" fill="none" stroke="#ff0099"/>
<g stroke="#ff0099" stroke-width="1" fill="#ff0099">
<circle cx=" 471" cy=" 446" r=" 1.5"/>
</g>
<path d="M474,446h 3" fill="none" stroke="#ff0099"/>
<path d="M479,446h 3" fill="none" stroke="#ff0099"/>
<g stroke="#ff0099" stroke-width="1" fill="#ff0099">
<circle cx=" 478" cy=" 446" r=" 1.5"/>
</g>
<path d="M482,446h 3" fill="none" stroke="#ff0099"/>
<path d="M487,446h 2" fill="none" stroke="#ff0099"/>
<g stroke="#ff0099" stroke-width="1" fill="#ff0099">
<circle cx=" 486" cy=" 446" r=" 1.5"/>
</g>
<path d="M489,446h 3" fill="none" stroke="#ff0099"/>
<path d="M494,446h 3" fill="none" stroke="#ff0099"/>
<g stroke="#ff0099" stroke-width="1" fill="#ff0099">
<circle cx=" 493" cy=" 446" r=" 1.5"/>
</g>
<path d="M497,446h 3" fill="none" stroke="#ff0099"/>
<path d="M502,446h 3" fill="none" stroke="#ff0099"/>
<g stroke="#ff0099" stroke-width="1" fill="#ff0099">
<circle cx=" 501" cy=" 446" r=" 1.5"/>
</g>
<path d="M505,446h 2" fill="none" stroke="#ff0099"/>
<path d="M509,446h 3" fill="none" stroke="#ff0099"/>
<g stroke="#ff0099" stroke-width="1" fill="#ff0099">
<circle cx=" 508" cy=" 446" r=" 1.5"/>
</g>
<path d="M512,446h 3" fill="none" stroke="#ff0099"/>
<path d="M517,446h 3" fill="none" stroke="#ff0099"/>
<g stroke="#ff0099" stroke-width="1" fill="#ff0099">
<circle cx=" 516" cy=" 446" r=" 1.5"/>
</g>
<path d="M520,446h 2" fill="none" stroke="#ff0099"/>
<path d="M525,446h 2" fill="none" stroke="#ff0099"/>
<g stroke="#ff0099" stroke-width="1" fill="#ff0099">
<circle cx=" 523" cy=" 446" r=" 1.5"/>
</g>
<rect x="357" y="59" width="142" height="99" fill="white"/>
<text x="360" y="82" fill="black" font-size="17" font-family="Helvetica" font-weight="bold">
All
</text>
<text x="457" y="115" fill="black" font-size="17" font-family="Helvetica" font-weight="bold">
 ee
</text>
<text x="440" y="115" fill="black" font-size="17" font-family="Times">
&#8594;
</text>
<text x="392" y="115" fill="black" font-size="17" font-family="Helvetica" font-weight="bold">
MC Z 
</text>
<path d="M362,109h 25" fill="none" stroke="#ff0099"/>
<g stroke="#ff0099" stroke-width="1" fill="#ff0099">
<circle cx=" 375" cy=" 109" r=" 1.5"/>
</g>
<text x="455" y="147" fill="black" font-size="17" font-family="Helvetica" font-weight="bold">
 + jet
</text>
<text x="447" y="147" fill="black" font-size="17" font-family="Times">
&#0947;
</text>
<text x="392" y="147" fill="black" font-size="17" font-family="Helvetica" font-weight="bold">
signal 
</text>
<path d="M362,154h 25v -24h -25z" fill="#99ff99"/>
<path d="M362,130h 25" fill="none" stroke="#99ff99" stroke-width="2"/>
<path d="M362,154h 25" fill="none" stroke="#99ff99" stroke-width="2"/>
<path d="M387,154v -24" fill="none" stroke="#99ff99" stroke-width="2"/>
<path d="M362,154v -24" fill="none" stroke="#99ff99" stroke-width="2"/>
<text x="300" y="34" fill="black" font-size="17" font-family="Helvetica" font-weight="bold">
=8 TeV
</text>
<text x="291" y="34" fill="black" font-size="17" font-family="Helvetica" font-weight="bold">
s
</text>
<path d="M285,25l 2, 10" fill="none" stroke="black" stroke-width="2"/>
<path d="M287,35l 2, -14" fill="none" stroke="black"/>
<path d="M289,21h 11" fill="none" stroke="black"/>
<text x="142" y="34" fill="black" font-size="17" font-family="Helvetica" font-weight="bold">
CMS Preliminary 
</text></svg>
