<?xml version="1.0" standalone="no"?>
<svg width="567" height="496" viewBox="0 0 567 496" xmlns="http://www.w3.org/2000/svg">
<title>
../src/TagAndProbeZ/plots_mcZee_mcGJet_withEtaW/hlt30//pid_pfIsoFPRPhoton03_preselEB.svg
</title>
<desc>
Creator: ROOT Version 5.32/00
CreationDate: Sat Sep 27 22:35:12 2014</desc>
<defs>
</defs>
<rect x="0" y="0" width="567" height="496" fill="white"/>
<rect x="74" y="44" width="453" height="402" fill="white"/>
<rect x="74" y="44" width="453" height="402" fill="none" stroke="black"/>
<rect x="74" y="44" width="453" height="402" fill="white"/>
<rect x="74" y="44" width="453" height="402" fill="none" stroke="black"/>
<path d="M74,64h 2" fill="none" stroke="#ff0099"/>
<path d="M79,64h 2" fill="none" stroke="#ff0099"/>
<g stroke="#ff0099" stroke-width="1" fill="#ff0099">
<circle cx=" 77" cy=" 64" r=" 1.5"/>
</g>
<path d="M81,417h 3" fill="none" stroke="#ff0099"/>
<path d="M86,417h 3" fill="none" stroke="#ff0099"/>
<g stroke="#ff0099" stroke-width="1" fill="#ff0099">
<circle cx=" 85" cy=" 417" r=" 1.5"/>
</g>
<path d="M89,355h 2" fill="none" stroke="#ff0099"/>
<path d="M94,355h 2" fill="none" stroke="#ff0099"/>
<g stroke="#ff0099" stroke-width="1" fill="#ff0099">
<circle cx=" 93" cy=" 355" r=" 1.5"/>
</g>
<path d="M96,329h 3" fill="none" stroke="#ff0099"/>
<path d="M101,329h 3" fill="none" stroke="#ff0099"/>
<g stroke="#ff0099" stroke-width="1" fill="#ff0099">
<circle cx=" 100" cy=" 329" r=" 1.5"/>
</g>
<path d="M104,353h 3" fill="none" stroke="#ff0099"/>
<path d="M109,353h 2" fill="none" stroke="#ff0099"/>
<g stroke="#ff0099" stroke-width="1" fill="#ff0099">
<circle cx=" 108" cy=" 353" r=" 1.5"/>
</g>
<path d="M111,361h 3" fill="none" stroke="#ff0099"/>
<path d="M116,361h 3" fill="none" stroke="#ff0099"/>
<g stroke="#ff0099" stroke-width="1" fill="#ff0099">
<circle cx=" 115" cy=" 361" r=" 1.5"/>
</g>
<path d="M119,366h 3" fill="none" stroke="#ff0099"/>
<path d="M124,366h 3" fill="none" stroke="#ff0099"/>
<g stroke="#ff0099" stroke-width="1" fill="#ff0099">
<circle cx=" 123" cy=" 366" r=" 1.5"/>
</g>
<path d="M127,372h 2" fill="none" stroke="#ff0099"/>
<path d="M132,372h 2" fill="none" stroke="#ff0099"/>
<g stroke="#ff0099" stroke-width="1" fill="#ff0099">
<circle cx=" 130" cy=" 372" r=" 1.5"/>
</g>
<path d="M134,379h 3" fill="none" stroke="#ff0099"/>
<path d="M139,379h 3" fill="none" stroke="#ff0099"/>
<g stroke="#ff0099" stroke-width="1" fill="#ff0099">
<circle cx=" 138" cy=" 379" r=" 1.5"/>
</g>
<path d="M142,385h 2" fill="none" stroke="#ff0099"/>
<path d="M147,385h 2" fill="none" stroke="#ff0099"/>
<g stroke="#ff0099" stroke-width="1" fill="#ff0099">
<circle cx=" 146" cy=" 385" r=" 1.5"/>
</g>
<path d="M149,391h 3" fill="none" stroke="#ff0099"/>
<path d="M154,391h 3" fill="none" stroke="#ff0099"/>
<g stroke="#ff0099" stroke-width="1" fill="#ff0099">
<circle cx=" 153" cy=" 391" r=" 1.5"/>
</g>
<path d="M157,397h 2" fill="none" stroke="#ff0099"/>
<path d="M162,397h 2" fill="none" stroke="#ff0099"/>
<g stroke="#ff0099" stroke-width="1" fill="#ff0099">
<circle cx=" 161" cy=" 397" r=" 1.5"/>
</g>
<path d="M164,401h 3" fill="none" stroke="#ff0099"/>
<path d="M169,401h 3" fill="none" stroke="#ff0099"/>
<g stroke="#ff0099" stroke-width="1" fill="#ff0099">
<circle cx=" 168" cy=" 401" r=" 1.5"/>
</g>
<path d="M172,406h 3" fill="none" stroke="#ff0099"/>
<path d="M177,406h 3" fill="none" stroke="#ff0099"/>
<g stroke="#ff0099" stroke-width="1" fill="#ff0099">
<circle cx=" 176" cy=" 406" r=" 1.5"/>
</g>
<path d="M180,410h 2" fill="none" stroke="#ff0099"/>
<path d="M184,410h 3" fill="none" stroke="#ff0099"/>
<g stroke="#ff0099" stroke-width="1" fill="#ff0099">
<circle cx=" 183" cy=" 410" r=" 1.5"/>
</g>
<path d="M187,414h 3" fill="none" stroke="#ff0099"/>
<path d="M192,414h 3" fill="none" stroke="#ff0099"/>
<g stroke="#ff0099" stroke-width="1" fill="#ff0099">
<circle cx=" 191" cy=" 414" r=" 1.5"/>
</g>
<path d="M195,417h 2" fill="none" stroke="#ff0099"/>
<path d="M200,417h 2" fill="none" stroke="#ff0099"/>
<g stroke="#ff0099" stroke-width="1" fill="#ff0099">
<circle cx=" 198" cy=" 417" r=" 1.5"/>
</g>
<path d="M202,420h 3" fill="none" stroke="#ff0099"/>
<path d="M207,420h 3" fill="none" stroke="#ff0099"/>
<g stroke="#ff0099" stroke-width="1" fill="#ff0099">
<circle cx=" 206" cy=" 420" r=" 1.5"/>
</g>
<path d="M210,424h 2" fill="none" stroke="#ff0099"/>
<path d="M215,424h 2" fill="none" stroke="#ff0099"/>
<g stroke="#ff0099" stroke-width="1" fill="#ff0099">
<circle cx=" 214" cy=" 424" r=" 1.5"/>
</g>
<path d="M217,426h 3" fill="none" stroke="#ff0099"/>
<path d="M222,426h 3" fill="none" stroke="#ff0099"/>
<g stroke="#ff0099" stroke-width="1" fill="#ff0099">
<circle cx=" 221" cy=" 426" r=" 1.5"/>
</g>
<path d="M225,428h 3" fill="none" stroke="#ff0099"/>
<path d="M230,428h 2" fill="none" stroke="#ff0099"/>
<g stroke="#ff0099" stroke-width="1" fill="#ff0099">
<circle cx=" 229" cy=" 428" r=" 1.5"/>
</g>
<path d="M232,430h 3" fill="none" stroke="#ff0099"/>
<path d="M237,430h 3" fill="none" stroke="#ff0099"/>
<g stroke="#ff0099" stroke-width="1" fill="#ff0099">
<circle cx=" 236" cy=" 430" r=" 1.5"/>
</g>
<path d="M240,432h 3" fill="none" stroke="#ff0099"/>
<path d="M245,432h 3" fill="none" stroke="#ff0099"/>
<g stroke="#ff0099" stroke-width="1" fill="#ff0099">
<circle cx=" 244" cy=" 432" r=" 1.5"/>
</g>
<path d="M248,433h 2" fill="none" stroke="#ff0099"/>
<path d="M252,433h 3" fill="none" stroke="#ff0099"/>
<g stroke="#ff0099" stroke-width="1" fill="#ff0099">
<circle cx=" 251" cy=" 433" r=" 1.5"/>
</g>
<path d="M255,435h 3" fill="none" stroke="#ff0099"/>
<path d="M260,435h 3" fill="none" stroke="#ff0099"/>
<g stroke="#ff0099" stroke-width="1" fill="#ff0099">
<circle cx=" 259" cy=" 435" r=" 1.5"/>
</g>
<path d="M263,436h 2" fill="none" stroke="#ff0099"/>
<path d="M268,436h 2" fill="none" stroke="#ff0099"/>
<g stroke="#ff0099" stroke-width="1" fill="#ff0099">
<circle cx=" 266" cy=" 436" r=" 1.5"/>
</g>
<path d="M270,437h 3" fill="none" stroke="#ff0099"/>
<path d="M275,437h 3" fill="none" stroke="#ff0099"/>
<g stroke="#ff0099" stroke-width="1" fill="#ff0099">
<circle cx=" 274" cy=" 437" r=" 1.5"/>
</g>
<path d="M278,438h 2" fill="none" stroke="#ff0099"/>
<path d="M283,438h 2" fill="none" stroke="#ff0099"/>
<g stroke="#ff0099" stroke-width="1" fill="#ff0099">
<circle cx=" 282" cy=" 438" r=" 1.5"/>
</g>
<path d="M285,439h 3" fill="none" stroke="#ff0099"/>
<path d="M290,439h 3" fill="none" stroke="#ff0099"/>
<g stroke="#ff0099" stroke-width="1" fill="#ff0099">
<circle cx=" 289" cy=" 439" r=" 1.5"/>
</g>
<path d="M293,440h 3" fill="none" stroke="#ff0099"/>
<path d="M298,440h 2" fill="none" stroke="#ff0099"/>
<g stroke="#ff0099" stroke-width="1" fill="#ff0099">
<circle cx=" 297" cy=" 440" r=" 1.5"/>
</g>
<path d="M300,441h 3" fill="none" stroke="#ff0099"/>
<path d="M305,441h 3" fill="none" stroke="#ff0099"/>
<g stroke="#ff0099" stroke-width="1" fill="#ff0099">
<circle cx=" 304" cy=" 441" r=" 1.5"/>
</g>
<path d="M308,441h 3" fill="none" stroke="#ff0099"/>
<path d="M313,441h 3" fill="none" stroke="#ff0099"/>
<g stroke="#ff0099" stroke-width="1" fill="#ff0099">
<circle cx=" 312" cy=" 441" r=" 1.5"/>
</g>
<path d="M316,442h 2" fill="none" stroke="#ff0099"/>
<path d="M321,442h 2" fill="none" stroke="#ff0099"/>
<g stroke="#ff0099" stroke-width="1" fill="#ff0099">
<circle cx=" 319" cy=" 442" r=" 1.5"/>
</g>
<path d="M323,442h 3" fill="none" stroke="#ff0099"/>
<path d="M328,442h 3" fill="none" stroke="#ff0099"/>
<g stroke="#ff0099" stroke-width="1" fill="#ff0099">
<circle cx=" 327" cy=" 442" r=" 1.5"/>
</g>
<path d="M331,443h 2" fill="none" stroke="#ff0099"/>
<path d="M336,443h 2" fill="none" stroke="#ff0099"/>
<g stroke="#ff0099" stroke-width="1" fill="#ff0099">
<circle cx=" 334" cy=" 443" r=" 1.5"/>
</g>
<path d="M338,443h 3" fill="none" stroke="#ff0099"/>
<path d="M343,443h 3" fill="none" stroke="#ff0099"/>
<g stroke="#ff0099" stroke-width="1" fill="#ff0099">
<circle cx=" 342" cy=" 443" r=" 1.5"/>
</g>
<path d="M346,444h 2" fill="none" stroke="#ff0099"/>
<path d="M351,444h 2" fill="none" stroke="#ff0099"/>
<g stroke="#ff0099" stroke-width="1" fill="#ff0099">
<circle cx=" 350" cy=" 444" r=" 1.5"/>
</g>
<path d="M353,444h 3" fill="none" stroke="#ff0099"/>
<path d="M358,444h 3" fill="none" stroke="#ff0099"/>
<g stroke="#ff0099" stroke-width="1" fill="#ff0099">
<circle cx=" 357" cy=" 444" r=" 1.5"/>
</g>
<path d="M361,444h 3" fill="none" stroke="#ff0099"/>
<path d="M366,444h 3" fill="none" stroke="#ff0099"/>
<g stroke="#ff0099" stroke-width="1" fill="#ff0099">
<circle cx=" 365" cy=" 444" r=" 1.5"/>
</g>
<path d="M369,444h 2" fill="none" stroke="#ff0099"/>
<path d="M373,444h 3" fill="none" stroke="#ff0099"/>
<g stroke="#ff0099" stroke-width="1" fill="#ff0099">
<circle cx=" 372" cy=" 444" r=" 1.5"/>
</g>
<path d="M376,444h 3" fill="none" stroke="#ff0099"/>
<path d="M381,444h 3" fill="none" stroke="#ff0099"/>
<g stroke="#ff0099" stroke-width="1" fill="#ff0099">
<circle cx=" 380" cy=" 444" r=" 1.5"/>
</g>
<path d="M384,445h 2" fill="none" stroke="#ff0099"/>
<path d="M389,445h 2" fill="none" stroke="#ff0099"/>
<g stroke="#ff0099" stroke-width="1" fill="#ff0099">
<circle cx=" 387" cy=" 445" r=" 1.5"/>
</g>
<path d="M391,445h 3" fill="none" stroke="#ff0099"/>
<path d="M396,445h 3" fill="none" stroke="#ff0099"/>
<g stroke="#ff0099" stroke-width="1" fill="#ff0099">
<circle cx=" 395" cy=" 445" r=" 1.5"/>
</g>
<path d="M399,445h 2" fill="none" stroke="#ff0099"/>
<path d="M404,445h 2" fill="none" stroke="#ff0099"/>
<g stroke="#ff0099" stroke-width="1" fill="#ff0099">
<circle cx=" 403" cy=" 445" r=" 1.5"/>
</g>
<path d="M406,445h 3" fill="none" stroke="#ff0099"/>
<path d="M411,445h 3" fill="none" stroke="#ff0099"/>
<g stroke="#ff0099" stroke-width="1" fill="#ff0099">
<circle cx=" 410" cy=" 445" r=" 1.5"/>
</g>
<path d="M414,445h 2" fill="none" stroke="#ff0099"/>
<path d="M419,445h 2" fill="none" stroke="#ff0099"/>
<g stroke="#ff0099" stroke-width="1" fill="#ff0099">
<circle cx=" 418" cy=" 445" r=" 1.5"/>
</g>
<path d="M421,445h 3" fill="none" stroke="#ff0099"/>
<path d="M426,445h 3" fill="none" stroke="#ff0099"/>
<g stroke="#ff0099" stroke-width="1" fill="#ff0099">
<circle cx=" 425" cy=" 445" r=" 1.5"/>
</g>
<path d="M429,445h 3" fill="none" stroke="#ff0099"/>
<path d="M434,445h 3" fill="none" stroke="#ff0099"/>
<g stroke="#ff0099" stroke-width="1" fill="#ff0099">
<circle cx=" 433" cy=" 445" r=" 1.5"/>
</g>
<path d="M437,446h 2" fill="none" stroke="#ff0099"/>
<path d="M441,446h 3" fill="none" stroke="#ff0099"/>
<g stroke="#ff0099" stroke-width="1" fill="#ff0099">
<circle cx=" 440" cy=" 446" r=" 1.5"/>
</g>
<path d="M444,446h 3" fill="none" stroke="#ff0099"/>
<path d="M449,446h 3" fill="none" stroke="#ff0099"/>
<g stroke="#ff0099" stroke-width="1" fill="#ff0099">
<circle cx=" 448" cy=" 446" r=" 1.5"/>
</g>
<path d="M452,446h 2" fill="none" stroke="#ff0099"/>
<path d="M457,446h 2" fill="none" stroke="#ff0099"/>
<g stroke="#ff0099" stroke-width="1" fill="#ff0099">
<circle cx=" 455" cy=" 446" r=" 1.5"/>
</g>
<path d="M459,446h 3" fill="none" stroke="#ff0099"/>
<path d="M464,446h 3" fill="none" stroke="#ff0099"/>
<g stroke="#ff0099" stroke-width="1" fill="#ff0099">
<circle cx=" 463" cy=" 446" r=" 1.5"/>
</g>
<path d="M467,446h 2" fill="none" stroke="#ff0099"/>
<path d="M472,446h 2" fill="none" stroke="#ff0099"/>
<g stroke="#ff0099" stroke-width="1" fill="#ff0099">
<circle cx=" 471" cy=" 446" r=" 1.5"/>
</g>
<path d="M474,446h 3" fill="none" stroke="#ff0099"/>
<path d="M479,446h 3" fill="none" stroke="#ff0099"/>
<g stroke="#ff0099" stroke-width="1" fill="#ff0099">
<circle cx=" 478" cy=" 446" r=" 1.5"/>
</g>
<path d="M482,446h 3" fill="none" stroke="#ff0099"/>
<path d="M487,446h 2" fill="none" stroke="#ff0099"/>
<g stroke="#ff0099" stroke-width="1" fill="#ff0099">
<circle cx=" 486" cy=" 446" r=" 1.5"/>
</g>
<path d="M489,446h 3" fill="none" stroke="#ff0099"/>
<path d="M494,446h 3" fill="none" stroke="#ff0099"/>
<g stroke="#ff0099" stroke-width="1" fill="#ff0099">
<circle cx=" 493" cy=" 446" r=" 1.5"/>
</g>
<path d="M497,446h 3" fill="none" stroke="#ff0099"/>
<path d="M502,446h 3" fill="none" stroke="#ff0099"/>
<g stroke="#ff0099" stroke-width="1" fill="#ff0099">
<circle cx=" 501" cy=" 446" r=" 1.5"/>
</g>
<path d="M505,446h 2" fill="none" stroke="#ff0099"/>
<path d="M509,446h 3" fill="none" stroke="#ff0099"/>
<g stroke="#ff0099" stroke-width="1" fill="#ff0099">
<circle cx=" 508" cy=" 446" r=" 1.5"/>
</g>
<path d="M512,446h 3" fill="none" stroke="#ff0099"/>
<path d="M517,446h 3" fill="none" stroke="#ff0099"/>
<g stroke="#ff0099" stroke-width="1" fill="#ff0099">
<circle cx=" 516" cy=" 446" r=" 1.5"/>
</g>
<path d="M520,446h 2" fill="none" stroke="#ff0099"/>
<path d="M525,446h 2" fill="none" stroke="#ff0099"/>
<g stroke="#ff0099" stroke-width="1" fill="#ff0099">
<circle cx=" 523" cy=" 446" r=" 1.5"/>
</g>
<path d="M74,446h 453" fill="none" stroke="black"/>
<path d="M74,434v 12" fill="none" stroke="black"/>
<path d="M89,440v 6" fill="none" stroke="black"/>
<path d="M104,440v 6" fill="none" stroke="black"/>
<path d="M119,440v 6" fill="none" stroke="black"/>
<path d="M134,440v 6" fill="none" stroke="black"/>
<path d="M149,434v 12" fill="none" stroke="black"/>
<path d="M164,440v 6" fill="none" stroke="black"/>
<path d="M180,440v 6" fill="none" stroke="black"/>
<path d="M195,440v 6" fill="none" stroke="black"/>
<path d="M210,440v 6" fill="none" stroke="black"/>
<path d="M225,434v 12" fill="none" stroke="black"/>
<path d="M240,440v 6" fill="none" stroke="black"/>
<path d="M255,440v 6" fill="none" stroke="black"/>
<path d="M270,440v 6" fill="none" stroke="black"/>
<path d="M285,440v 6" fill="none" stroke="black"/>
<path d="M300,434v 12" fill="none" stroke="black"/>
<path d="M316,440v 6" fill="none" stroke="black"/>
<path d="M331,440v 6" fill="none" stroke="black"/>
<path d="M346,440v 6" fill="none" stroke="black"/>
<path d="M361,440v 6" fill="none" stroke="black"/>
<path d="M376,434v 12" fill="none" stroke="black"/>
<path d="M391,440v 6" fill="none" stroke="black"/>
<path d="M406,440v 6" fill="none" stroke="black"/>
<path d="M421,440v 6" fill="none" stroke="black"/>
<path d="M437,440v 6" fill="none" stroke="black"/>
<path d="M452,434v 12" fill="none" stroke="black"/>
<path d="M467,440v 6" fill="none" stroke="black"/>
<path d="M482,440v 6" fill="none" stroke="black"/>
<path d="M497,440v 6" fill="none" stroke="black"/>
<path d="M512,440v 6" fill="none" stroke="black"/>
<path d="M527,434v 12" fill="none" stroke="black"/>
<text x="68" y="465" fill="black" font-size="18" font-family="Helvetica" font-weight="bold">
0
</text>
<text x="145" y="465" fill="black" font-size="18" font-family="Helvetica" font-weight="bold">
1
</text>
<text x="220" y="465" fill="black" font-size="18" font-family="Helvetica" font-weight="bold">
2
</text>
<text x="295" y="465" fill="black" font-size="18" font-family="Helvetica" font-weight="bold">
3
</text>
<text x="371" y="465" fill="black" font-size="18" font-family="Helvetica" font-weight="bold">
4
</text>
<text x="446" y="465" fill="black" font-size="18" font-family="Helvetica" font-weight="bold">
5
</text>
<text x="522" y="465" fill="black" font-size="18" font-family="Helvetica" font-weight="bold">
6
</text>
<path d="M74,44h 453" fill="none" stroke="black"/>
<path d="M74,56v -12" fill="none" stroke="black"/>
<path d="M89,50v -6" fill="none" stroke="black"/>
<path d="M104,50v -6" fill="none" stroke="black"/>
<path d="M119,50v -6" fill="none" stroke="black"/>
<path d="M134,50v -6" fill="none" stroke="black"/>
<path d="M149,56v -12" fill="none" stroke="black"/>
<path d="M164,50v -6" fill="none" stroke="black"/>
<path d="M180,50v -6" fill="none" stroke="black"/>
<path d="M195,50v -6" fill="none" stroke="black"/>
<path d="M210,50v -6" fill="none" stroke="black"/>
<path d="M225,56v -12" fill="none" stroke="black"/>
<path d="M240,50v -6" fill="none" stroke="black"/>
<path d="M255,50v -6" fill="none" stroke="black"/>
<path d="M270,50v -6" fill="none" stroke="black"/>
<path d="M285,50v -6" fill="none" stroke="black"/>
<path d="M300,56v -12" fill="none" stroke="black"/>
<path d="M316,50v -6" fill="none" stroke="black"/>
<path d="M331,50v -6" fill="none" stroke="black"/>
<path d="M346,50v -6" fill="none" stroke="black"/>
<path d="M361,50v -6" fill="none" stroke="black"/>
<path d="M376,56v -12" fill="none" stroke="black"/>
<path d="M391,50v -6" fill="none" stroke="black"/>
<path d="M406,50v -6" fill="none" stroke="black"/>
<path d="M421,50v -6" fill="none" stroke="black"/>
<path d="M437,50v -6" fill="none" stroke="black"/>
<path d="M452,56v -12" fill="none" stroke="black"/>
<path d="M467,50v -6" fill="none" stroke="black"/>
<path d="M482,50v -6" fill="none" stroke="black"/>
<path d="M497,50v -6" fill="none" stroke="black"/>
<path d="M512,50v -6" fill="none" stroke="black"/>
<path d="M527,56v -12" fill="none" stroke="black"/>
<path d="M74,446v -402" fill="none" stroke="black"/>
<path d="M87,446h -13" fill="none" stroke="black"/>
<path d="M81,438h -7" fill="none" stroke="black"/>
<path d="M81,430h -7" fill="none" stroke="black"/>
<path d="M81,422h -7" fill="none" stroke="black"/>
<path d="M87,414h -13" fill="none" stroke="black"/>
<path d="M81,406h -7" fill="none" stroke="black"/>
<path d="M81,398h -7" fill="none" stroke="black"/>
<path d="M81,390h -7" fill="none" stroke="black"/>
<path d="M87,382h -13" fill="none" stroke="black"/>
<path d="M81,374h -7" fill="none" stroke="black"/>
<path d="M81,366h -7" fill="none" stroke="black"/>
<path d="M81,358h -7" fill="none" stroke="black"/>
<path d="M87,350h -13" fill="none" stroke="black"/>
<path d="M81,342h -7" fill="none" stroke="black"/>
<path d="M81,334h -7" fill="none" stroke="black"/>
<path d="M81,326h -7" fill="none" stroke="black"/>
<path d="M87,318h -13" fill="none" stroke="black"/>
<path d="M81,310h -7" fill="none" stroke="black"/>
<path d="M81,302h -7" fill="none" stroke="black"/>
<path d="M81,293h -7" fill="none" stroke="black"/>
<path d="M87,285h -13" fill="none" stroke="black"/>
<path d="M81,277h -7" fill="none" stroke="black"/>
<path d="M81,269h -7" fill="none" stroke="black"/>
<path d="M81,261h -7" fill="none" stroke="black"/>
<path d="M87,253h -13" fill="none" stroke="black"/>
<path d="M81,245h -7" fill="none" stroke="black"/>
<path d="M81,237h -7" fill="none" stroke="black"/>
<path d="M81,229h -7" fill="none" stroke="black"/>
<path d="M87,221h -13" fill="none" stroke="black"/>
<path d="M81,213h -7" fill="none" stroke="black"/>
<path d="M81,205h -7" fill="none" stroke="black"/>
<path d="M81,197h -7" fill="none" stroke="black"/>
<path d="M87,189h -13" fill="none" stroke="black"/>
<path d="M81,181h -7" fill="none" stroke="black"/>
<path d="M81,173h -7" fill="none" stroke="black"/>
<path d="M81,165h -7" fill="none" stroke="black"/>
<path d="M87,157h -13" fill="none" stroke="black"/>
<path d="M81,149h -7" fill="none" stroke="black"/>
<path d="M81,141h -7" fill="none" stroke="black"/>
<path d="M81,133h -7" fill="none" stroke="black"/>
<path d="M87,125h -13" fill="none" stroke="black"/>
<path d="M81,116h -7" fill="none" stroke="black"/>
<path d="M81,108h -7" fill="none" stroke="black"/>
<path d="M81,100h -7" fill="none" stroke="black"/>
<path d="M87,92h -13" fill="none" stroke="black"/>
<path d="M81,84h -7" fill="none" stroke="black"/>
<path d="M81,76h -7" fill="none" stroke="black"/>
<path d="M81,68h -7" fill="none" stroke="black"/>
<path d="M87,60h -13" fill="none" stroke="black"/>
<path d="M87,60h -13" fill="none" stroke="black"/>
<path d="M81,52h -7" fill="none" stroke="black"/>
<text x="61" y="453" fill="black" font-size="18" font-family="Helvetica" font-weight="bold">
0
</text>
<text x="35" y="421" fill="black" font-size="18" font-family="Helvetica" font-weight="bold">
0.02
</text>
<text x="34" y="388" fill="black" font-size="18" font-family="Helvetica" font-weight="bold">
0.04
</text>
<text x="34" y="357" fill="black" font-size="18" font-family="Helvetica" font-weight="bold">
0.06
</text>
<text x="35" y="324" fill="black" font-size="18" font-family="Helvetica" font-weight="bold">
0.08
</text>
<text x="47" y="292" fill="black" font-size="18" font-family="Helvetica" font-weight="bold">
0.1
</text>
<text x="35" y="260" fill="black" font-size="18" font-family="Helvetica" font-weight="bold">
0.12
</text>
<text x="34" y="228" fill="black" font-size="18" font-family="Helvetica" font-weight="bold">
0.14
</text>
<text x="34" y="195" fill="black" font-size="18" font-family="Helvetica" font-weight="bold">
0.16
</text>
<text x="35" y="163" fill="black" font-size="18" font-family="Helvetica" font-weight="bold">
0.18
</text>
<text x="45" y="131" fill="black" font-size="18" font-family="Helvetica" font-weight="bold">
0.2
</text>
<text x="35" y="99" fill="black" font-size="18" font-family="Helvetica" font-weight="bold">
0.22
</text>
<text x="34" y="67" fill="black" font-size="18" font-family="Helvetica" font-weight="bold">
0.24
</text>
<path d="M77,94v -3" fill="none" stroke="#99ff99" stroke-width="2"/>
<path d="M77,91v -2" fill="none" stroke="#99ff99" stroke-width="2"/>
<g stroke="black" stroke-width="2" fill="none">
<line x1="76" y1="91" x2="77" y2="91"/>
</g>
<path d="M85,423v -1" fill="none" stroke="#99ff99" stroke-width="2"/>
<path d="M85,422" fill="none" stroke="#99ff99" stroke-width="2"/>
<g stroke="black" stroke-width="2" fill="none">
<line x1="84" y1="422" x2="85" y2="422"/>
</g>
<path d="M93,369v -1" fill="none" stroke="#99ff99" stroke-width="2"/>
<path d="M93,368v -1" fill="none" stroke="#99ff99" stroke-width="2"/>
<g stroke="black" stroke-width="2" fill="none">
<line x1="92" y1="368" x2="93" y2="368"/>
</g>
<path d="M100,336v -1" fill="none" stroke="#99ff99" stroke-width="2"/>
<path d="M100,335v -2" fill="none" stroke="#99ff99" stroke-width="2"/>
<g stroke="black" stroke-width="2" fill="none">
<line x1="99" y1="335" x2="100" y2="335"/>
</g>
<path d="M108,359v -1" fill="none" stroke="#99ff99" stroke-width="2"/>
<path d="M108,358v -2" fill="none" stroke="#99ff99" stroke-width="2"/>
<g stroke="black" stroke-width="2" fill="none">
<line x1="107" y1="358" x2="108" y2="358"/>
</g>
<path d="M115,367v -1" fill="none" stroke="#99ff99" stroke-width="2"/>
<path d="M115,366v -1" fill="none" stroke="#99ff99" stroke-width="2"/>
<g stroke="black" stroke-width="2" fill="none">
<line x1="114" y1="366" x2="115" y2="366"/>
</g>
<path d="M123,369v -1" fill="none" stroke="#99ff99" stroke-width="2"/>
<path d="M123,368v -1" fill="none" stroke="#99ff99" stroke-width="2"/>
<g stroke="black" stroke-width="2" fill="none">
<line x1="122" y1="368" x2="123" y2="368"/>
</g>
<path d="M130,372v -1" fill="none" stroke="#99ff99" stroke-width="2"/>
<path d="M130,371v -1" fill="none" stroke="#99ff99" stroke-width="2"/>
<g stroke="black" stroke-width="2" fill="none">
<line x1="129" y1="371" x2="130" y2="371"/>
</g>
<path d="M138,381v -1" fill="none" stroke="#99ff99" stroke-width="2"/>
<path d="M138,380v -1" fill="none" stroke="#99ff99" stroke-width="2"/>
<g stroke="black" stroke-width="2" fill="none">
<line x1="137" y1="380" x2="138" y2="380"/>
</g>
<path d="M146,386v -1" fill="none" stroke="#99ff99" stroke-width="2"/>
<path d="M146,385v -1" fill="none" stroke="#99ff99" stroke-width="2"/>
<g stroke="black" stroke-width="2" fill="none">
<line x1="145" y1="385" x2="146" y2="385"/>
</g>
<path d="M153,390v -1" fill="none" stroke="#99ff99" stroke-width="2"/>
<path d="M153,389v -1" fill="none" stroke="#99ff99" stroke-width="2"/>
<g stroke="black" stroke-width="2" fill="none">
<line x1="152" y1="389" x2="153" y2="389"/>
</g>
<path d="M161,397v -1" fill="none" stroke="#99ff99" stroke-width="2"/>
<path d="M161,396v -1" fill="none" stroke="#99ff99" stroke-width="2"/>
<g stroke="black" stroke-width="2" fill="none">
<line x1="160" y1="396" x2="161" y2="396"/>
</g>
<path d="M168,400v -1" fill="none" stroke="#99ff99" stroke-width="2"/>
<path d="M168,399v -1" fill="none" stroke="#99ff99" stroke-width="2"/>
<g stroke="black" stroke-width="2" fill="none">
<line x1="167" y1="399" x2="168" y2="399"/>
</g>
<path d="M176,405v -1" fill="none" stroke="#99ff99" stroke-width="2"/>
<path d="M176,404v -1" fill="none" stroke="#99ff99" stroke-width="2"/>
<g stroke="black" stroke-width="2" fill="none">
<line x1="175" y1="404" x2="176" y2="404"/>
</g>
<path d="M183,408v -1" fill="none" stroke="#99ff99" stroke-width="2"/>
<path d="M183,407v -1" fill="none" stroke="#99ff99" stroke-width="2"/>
<g stroke="black" stroke-width="2" fill="none">
<line x1="182" y1="407" x2="183" y2="407"/>
</g>
<path d="M191,412v -1" fill="none" stroke="#99ff99" stroke-width="2"/>
<path d="M191,411" fill="none" stroke="#99ff99" stroke-width="2"/>
<g stroke="black" stroke-width="2" fill="none">
<line x1="190" y1="411" x2="191" y2="411"/>
</g>
<path d="M198,415v -1" fill="none" stroke="#99ff99" stroke-width="2"/>
<path d="M198,414v -1" fill="none" stroke="#99ff99" stroke-width="2"/>
<g stroke="black" stroke-width="2" fill="none">
<line x1="197" y1="414" x2="198" y2="414"/>
</g>
<path d="M206,419v -1" fill="none" stroke="#99ff99" stroke-width="2"/>
<path d="M206,418v -1" fill="none" stroke="#99ff99" stroke-width="2"/>
<g stroke="black" stroke-width="2" fill="none">
<line x1="205" y1="418" x2="206" y2="418"/>
</g>
<path d="M214,421" fill="none" stroke="#99ff99" stroke-width="2"/>
<path d="M214,421v -1" fill="none" stroke="#99ff99" stroke-width="2"/>
<g stroke="black" stroke-width="2" fill="none">
<line x1="213" y1="421" x2="214" y2="421"/>
</g>
<path d="M221,423" fill="none" stroke="#99ff99" stroke-width="2"/>
<path d="M221,423v -1" fill="none" stroke="#99ff99" stroke-width="2"/>
<g stroke="black" stroke-width="2" fill="none">
<line x1="220" y1="423" x2="221" y2="423"/>
</g>
<path d="M229,426" fill="none" stroke="#99ff99" stroke-width="2"/>
<path d="M229,426v -1" fill="none" stroke="#99ff99" stroke-width="2"/>
<g stroke="black" stroke-width="2" fill="none">
<line x1="228" y1="426" x2="229" y2="426"/>
</g>
<path d="M236,427v -1" fill="none" stroke="#99ff99" stroke-width="2"/>
<path d="M236,426" fill="none" stroke="#99ff99" stroke-width="2"/>
<g stroke="black" stroke-width="2" fill="none">
<line x1="235" y1="426" x2="236" y2="426"/>
</g>
<path d="M244,429" fill="none" stroke="#99ff99" stroke-width="2"/>
<path d="M244,429v -1" fill="none" stroke="#99ff99" stroke-width="2"/>
<g stroke="black" stroke-width="2" fill="none">
<line x1="243" y1="429" x2="244" y2="429"/>
</g>
<path d="M251,431" fill="none" stroke="#99ff99" stroke-width="2"/>
<path d="M251,431v -1" fill="none" stroke="#99ff99" stroke-width="2"/>
<g stroke="black" stroke-width="2" fill="none">
<line x1="250" y1="431" x2="251" y2="431"/>
</g>
<path d="M259,432" fill="none" stroke="#99ff99" stroke-width="2"/>
<path d="M259,432v -1" fill="none" stroke="#99ff99" stroke-width="2"/>
<g stroke="black" stroke-width="2" fill="none">
<line x1="258" y1="432" x2="259" y2="432"/>
</g>
<path d="M266,434v -1" fill="none" stroke="#99ff99" stroke-width="2"/>
<path d="M266,433" fill="none" stroke="#99ff99" stroke-width="2"/>
<g stroke="black" stroke-width="2" fill="none">
<line x1="265" y1="433" x2="266" y2="433"/>
</g>
<path d="M274,436" fill="none" stroke="#99ff99" stroke-width="2"/>
<path d="M274,436v -1" fill="none" stroke="#99ff99" stroke-width="2"/>
<g stroke="black" stroke-width="2" fill="none">
<line x1="273" y1="436" x2="274" y2="436"/>
</g>
<path d="M282,437v -1" fill="none" stroke="#99ff99" stroke-width="2"/>
<path d="M282,436" fill="none" stroke="#99ff99" stroke-width="2"/>
<g stroke="black" stroke-width="2" fill="none">
<line x1="281" y1="436" x2="282" y2="436"/>
</g>
<path d="M289,438v -1" fill="none" stroke="#99ff99" stroke-width="2"/>
<path d="M289,437" fill="none" stroke="#99ff99" stroke-width="2"/>
<g stroke="black" stroke-width="2" fill="none">
<line x1="288" y1="437" x2="289" y2="437"/>
</g>
<path d="M297,439v -1" fill="none" stroke="#99ff99" stroke-width="2"/>
<path d="M297,438" fill="none" stroke="#99ff99" stroke-width="2"/>
<g stroke="black" stroke-width="2" fill="none">
<line x1="296" y1="438" x2="297" y2="438"/>
</g>
<path d="M304,440" fill="none" stroke="#99ff99" stroke-width="2"/>
<path d="M304,440v -1" fill="none" stroke="#99ff99" stroke-width="2"/>
<g stroke="black" stroke-width="2" fill="none">
<line x1="303" y1="440" x2="304" y2="440"/>
</g>
<path d="M312,440" fill="none" stroke="#99ff99" stroke-width="2"/>
<path d="M312,440" fill="none" stroke="#99ff99" stroke-width="2"/>
<g stroke="black" stroke-width="2" fill="none">
<line x1="311" y1="440" x2="312" y2="440"/>
</g>
<path d="M319,441" fill="none" stroke="#99ff99" stroke-width="2"/>
<path d="M319,441v -1" fill="none" stroke="#99ff99" stroke-width="2"/>
<g stroke="black" stroke-width="2" fill="none">
<line x1="318" y1="441" x2="319" y2="441"/>
</g>
<path d="M327,441" fill="none" stroke="#99ff99" stroke-width="2"/>
<path d="M327,441v -1" fill="none" stroke="#99ff99" stroke-width="2"/>
<g stroke="black" stroke-width="2" fill="none">
<line x1="326" y1="441" x2="327" y2="441"/>
</g>
<path d="M334,442v -1" fill="none" stroke="#99ff99" stroke-width="2"/>
<path d="M334,441" fill="none" stroke="#99ff99" stroke-width="2"/>
<g stroke="black" stroke-width="2" fill="none">
<line x1="333" y1="441" x2="334" y2="441"/>
</g>
<path d="M342,443" fill="none" stroke="#99ff99" stroke-width="2"/>
<path d="M342,443v -1" fill="none" stroke="#99ff99" stroke-width="2"/>
<g stroke="black" stroke-width="2" fill="none">
<line x1="341" y1="443" x2="342" y2="443"/>
</g>
<path d="M350,443v -1" fill="none" stroke="#99ff99" stroke-width="2"/>
<path d="M350,442" fill="none" stroke="#99ff99" stroke-width="2"/>
<g stroke="black" stroke-width="2" fill="none">
<line x1="349" y1="442" x2="350" y2="442"/>
</g>
<path d="M357,443" fill="none" stroke="#99ff99" stroke-width="2"/>
<path d="M357,443" fill="none" stroke="#99ff99" stroke-width="2"/>
<g stroke="black" stroke-width="2" fill="none">
<line x1="356" y1="443" x2="357" y2="443"/>
</g>
<path d="M365,444v -1" fill="none" stroke="#99ff99" stroke-width="2"/>
<path d="M365,443" fill="none" stroke="#99ff99" stroke-width="2"/>
<g stroke="black" stroke-width="2" fill="none">
<line x1="364" y1="443" x2="365" y2="443"/>
</g>
<path d="M372,444v -1" fill="none" stroke="#99ff99" stroke-width="2"/>
<path d="M372,443" fill="none" stroke="#99ff99" stroke-width="2"/>
<g stroke="black" stroke-width="2" fill="none">
<line x1="371" y1="443" x2="372" y2="443"/>
</g>
<path d="M380,444" fill="none" stroke="#99ff99" stroke-width="2"/>
<path d="M380,444" fill="none" stroke="#99ff99" stroke-width="2"/>
<g stroke="black" stroke-width="2" fill="none">
<line x1="379" y1="444" x2="380" y2="444"/>
</g>
<path d="M387,444" fill="none" stroke="#99ff99" stroke-width="2"/>
<path d="M387,444" fill="none" stroke="#99ff99" stroke-width="2"/>
<g stroke="black" stroke-width="2" fill="none">
<line x1="386" y1="444" x2="387" y2="444"/>
</g>
<path d="M395,444" fill="none" stroke="#99ff99" stroke-width="2"/>
<path d="M395,444" fill="none" stroke="#99ff99" stroke-width="2"/>
<g stroke="black" stroke-width="2" fill="none">
<line x1="394" y1="444" x2="395" y2="444"/>
</g>
<path d="M403,445" fill="none" stroke="#99ff99" stroke-width="2"/>
<path d="M403,445v -1" fill="none" stroke="#99ff99" stroke-width="2"/>
<g stroke="black" stroke-width="2" fill="none">
<line x1="402" y1="445" x2="403" y2="445"/>
</g>
<path d="M410,445" fill="none" stroke="#99ff99" stroke-width="2"/>
<path d="M410,445" fill="none" stroke="#99ff99" stroke-width="2"/>
<g stroke="black" stroke-width="2" fill="none">
<line x1="409" y1="445" x2="410" y2="445"/>
</g>
<path d="M418,445" fill="none" stroke="#99ff99" stroke-width="2"/>
<path d="M418,445" fill="none" stroke="#99ff99" stroke-width="2"/>
<g stroke="black" stroke-width="2" fill="none">
<line x1="417" y1="445" x2="418" y2="445"/>
</g>
<path d="M425,445" fill="none" stroke="#99ff99" stroke-width="2"/>
<path d="M425,445" fill="none" stroke="#99ff99" stroke-width="2"/>
<g stroke="black" stroke-width="2" fill="none">
<line x1="424" y1="445" x2="425" y2="445"/>
</g>
<path d="M433,445" fill="none" stroke="#99ff99" stroke-width="2"/>
<path d="M433,445" fill="none" stroke="#99ff99" stroke-width="2"/>
<g stroke="black" stroke-width="2" fill="none">
<line x1="432" y1="445" x2="433" y2="445"/>
</g>
<path d="M440,446v -1" fill="none" stroke="#99ff99" stroke-width="2"/>
<path d="M440,445" fill="none" stroke="#99ff99" stroke-width="2"/>
<g stroke="black" stroke-width="2" fill="none">
<line x1="439" y1="445" x2="440" y2="445"/>
</g>
<path d="M448,445" fill="none" stroke="#99ff99" stroke-width="2"/>
<path d="M448,445" fill="none" stroke="#99ff99" stroke-width="2"/>
<g stroke="black" stroke-width="2" fill="none">
<line x1="447" y1="445" x2="448" y2="445"/>
</g>
<path d="M455,446" fill="none" stroke="#99ff99" stroke-width="2"/>
<path d="M455,446v -1" fill="none" stroke="#99ff99" stroke-width="2"/>
<g stroke="black" stroke-width="2" fill="none">
<line x1="454" y1="446" x2="455" y2="446"/>
</g>
<path d="M463,446" fill="none" stroke="#99ff99" stroke-width="2"/>
<path d="M463,446v -1" fill="none" stroke="#99ff99" stroke-width="2"/>
<g stroke="black" stroke-width="2" fill="none">
<line x1="462" y1="446" x2="463" y2="446"/>
</g>
<path d="M471,446v -1" fill="none" stroke="#99ff99" stroke-width="2"/>
<path d="M471,445" fill="none" stroke="#99ff99" stroke-width="2"/>
<g stroke="black" stroke-width="2" fill="none">
<line x1="470" y1="445" x2="471" y2="445"/>
</g>
<path d="M478,446" fill="none" stroke="#99ff99" stroke-width="2"/>
<path d="M478,446v -1" fill="none" stroke="#99ff99" stroke-width="2"/>
<g stroke="black" stroke-width="2" fill="none">
<line x1="477" y1="446" x2="478" y2="446"/>
</g>
<path d="M486,446v -1" fill="none" stroke="#99ff99" stroke-width="2"/>
<path d="M486,445" fill="none" stroke="#99ff99" stroke-width="2"/>
<g stroke="black" stroke-width="2" fill="none">
<line x1="485" y1="445" x2="486" y2="445"/>
</g>
<path d="M493,446" fill="none" stroke="#99ff99" stroke-width="2"/>
<path d="M493,446" fill="none" stroke="#99ff99" stroke-width="2"/>
<g stroke="black" stroke-width="2" fill="none">
<line x1="492" y1="446" x2="493" y2="446"/>
</g>
<path d="M501,446" fill="none" stroke="#99ff99" stroke-width="2"/>
<path d="M501,446" fill="none" stroke="#99ff99" stroke-width="2"/>
<g stroke="black" stroke-width="2" fill="none">
<line x1="500" y1="446" x2="501" y2="446"/>
</g>
<path d="M508,446" fill="none" stroke="#99ff99" stroke-width="2"/>
<path d="M508,446" fill="none" stroke="#99ff99" stroke-width="2"/>
<g stroke="black" stroke-width="2" fill="none">
<line x1="507" y1="446" x2="508" y2="446"/>
</g>
<path d="M516,446" fill="none" stroke="#99ff99" stroke-width="2"/>
<path d="M516,446" fill="none" stroke="#99ff99" stroke-width="2"/>
<g stroke="black" stroke-width="2" fill="none">
<line x1="515" y1="446" x2="516" y2="446"/>
</g>
<path d="M523,446" fill="none" stroke="#99ff99" stroke-width="2"/>
<path d="M523,446" fill="none" stroke="#99ff99" stroke-width="2"/>
<g stroke="black" stroke-width="2" fill="none">
<line x1="522" y1="446" x2="523" y2="446"/>
</g>
<path d="M74,446v -355h 7v 331h 8v -54h 7v -33h 8v 23h 7v 8h 8v 2h 8v 3h 7v 9h 8v 5h 7v 4h 8v 7h 7v 3h 8v 5h 8v 3h 7v 4h 8v 3h 7v 4h 8v 3h 7v 2h 8v 3h 15v 3h 8v 2h 7v 1h 8v 1h 7v 3h 15v 1h 8v 1h 7v 2h 16v 1h 22v 2h 8v -1h 7v 1h 23v 1h 23v 1h 53v 1h
 15v -1h 7v 1h 8v -1h 7v 1h 38z" fill="#99ff99"/>
<path d="M74,91h 7v 331h 8v -54h 7v -33h 8v 23h 7v 8h 8v 2h 8v 3h 7v 9h 8v 5h 7v 4h 8v 7h 7v 3h 8v 5h 8v 3h 7v 4h 8v 3h 7v 4h 8v 3h 7v 2h 8v 3h 15v 3h 8v 2h 7v 1h 8v 1h 7v 3h 15v 1h 8v 1h 7v 2h 16v 1h 22v 2h 8v -1h 7v 1h 23v 1h 23v 1h 53v 1h 15v -1h
 7v 1h 8v -1h 7v 1h 38" fill="none" stroke="#99ff99" stroke-width="2"/>
<path d="M74,64h 2" fill="none" stroke="#ff0099"/>
<path d="M79,64h 2" fill="none" stroke="#ff0099"/>
<g stroke="#ff0099" stroke-width="1" fill="#ff0099">
<circle cx=" 77" cy=" 64" r=" 1.5"/>
</g>
<path d="M81,417h 3" fill="none" stroke="#ff0099"/>
<path d="M86,417h 3" fill="none" stroke="#ff0099"/>
<g stroke="#ff0099" stroke-width="1" fill="#ff0099">
<circle cx=" 85" cy=" 417" r=" 1.5"/>
</g>
<path d="M89,355h 2" fill="none" stroke="#ff0099"/>
<path d="M94,355h 2" fill="none" stroke="#ff0099"/>
<g stroke="#ff0099" stroke-width="1" fill="#ff0099">
<circle cx=" 93" cy=" 355" r=" 1.5"/>
</g>
<path d="M96,329h 3" fill="none" stroke="#ff0099"/>
<path d="M101,329h 3" fill="none" stroke="#ff0099"/>
<g stroke="#ff0099" stroke-width="1" fill="#ff0099">
<circle cx=" 100" cy=" 329" r=" 1.5"/>
</g>
<path d="M104,353h 3" fill="none" stroke="#ff0099"/>
<path d="M109,353h 2" fill="none" stroke="#ff0099"/>
<g stroke="#ff0099" stroke-width="1" fill="#ff0099">
<circle cx=" 108" cy=" 353" r=" 1.5"/>
</g>
<path d="M111,361h 3" fill="none" stroke="#ff0099"/>
<path d="M116,361h 3" fill="none" stroke="#ff0099"/>
<g stroke="#ff0099" stroke-width="1" fill="#ff0099">
<circle cx=" 115" cy=" 361" r=" 1.5"/>
</g>
<path d="M119,366h 3" fill="none" stroke="#ff0099"/>
<path d="M124,366h 3" fill="none" stroke="#ff0099"/>
<g stroke="#ff0099" stroke-width="1" fill="#ff0099">
<circle cx=" 123" cy=" 366" r=" 1.5"/>
</g>
<path d="M127,372h 2" fill="none" stroke="#ff0099"/>
<path d="M132,372h 2" fill="none" stroke="#ff0099"/>
<g stroke="#ff0099" stroke-width="1" fill="#ff0099">
<circle cx=" 130" cy=" 372" r=" 1.5"/>
</g>
<path d="M134,379h 3" fill="none" stroke="#ff0099"/>
<path d="M139,379h 3" fill="none" stroke="#ff0099"/>
<g stroke="#ff0099" stroke-width="1" fill="#ff0099">
<circle cx=" 138" cy=" 379" r=" 1.5"/>
</g>
<path d="M142,385h 2" fill="none" stroke="#ff0099"/>
<path d="M147,385h 2" fill="none" stroke="#ff0099"/>
<g stroke="#ff0099" stroke-width="1" fill="#ff0099">
<circle cx=" 146" cy=" 385" r=" 1.5"/>
</g>
<path d="M149,391h 3" fill="none" stroke="#ff0099"/>
<path d="M154,391h 3" fill="none" stroke="#ff0099"/>
<g stroke="#ff0099" stroke-width="1" fill="#ff0099">
<circle cx=" 153" cy=" 391" r=" 1.5"/>
</g>
<path d="M157,397h 2" fill="none" stroke="#ff0099"/>
<path d="M162,397h 2" fill="none" stroke="#ff0099"/>
<g stroke="#ff0099" stroke-width="1" fill="#ff0099">
<circle cx=" 161" cy=" 397" r=" 1.5"/>
</g>
<path d="M164,401h 3" fill="none" stroke="#ff0099"/>
<path d="M169,401h 3" fill="none" stroke="#ff0099"/>
<g stroke="#ff0099" stroke-width="1" fill="#ff0099">
<circle cx=" 168" cy=" 401" r=" 1.5"/>
</g>
<path d="M172,406h 3" fill="none" stroke="#ff0099"/>
<path d="M177,406h 3" fill="none" stroke="#ff0099"/>
<g stroke="#ff0099" stroke-width="1" fill="#ff0099">
<circle cx=" 176" cy=" 406" r=" 1.5"/>
</g>
<path d="M180,410h 2" fill="none" stroke="#ff0099"/>
<path d="M184,410h 3" fill="none" stroke="#ff0099"/>
<g stroke="#ff0099" stroke-width="1" fill="#ff0099">
<circle cx=" 183" cy=" 410" r=" 1.5"/>
</g>
<path d="M187,414h 3" fill="none" stroke="#ff0099"/>
<path d="M192,414h 3" fill="none" stroke="#ff0099"/>
<g stroke="#ff0099" stroke-width="1" fill="#ff0099">
<circle cx=" 191" cy=" 414" r=" 1.5"/>
</g>
<path d="M195,417h 2" fill="none" stroke="#ff0099"/>
<path d="M200,417h 2" fill="none" stroke="#ff0099"/>
<g stroke="#ff0099" stroke-width="1" fill="#ff0099">
<circle cx=" 198" cy=" 417" r=" 1.5"/>
</g>
<path d="M202,420h 3" fill="none" stroke="#ff0099"/>
<path d="M207,420h 3" fill="none" stroke="#ff0099"/>
<g stroke="#ff0099" stroke-width="1" fill="#ff0099">
<circle cx=" 206" cy=" 420" r=" 1.5"/>
</g>
<path d="M210,424h 2" fill="none" stroke="#ff0099"/>
<path d="M215,424h 2" fill="none" stroke="#ff0099"/>
<g stroke="#ff0099" stroke-width="1" fill="#ff0099">
<circle cx=" 214" cy=" 424" r=" 1.5"/>
</g>
<path d="M217,426h 3" fill="none" stroke="#ff0099"/>
<path d="M222,426h 3" fill="none" stroke="#ff0099"/>
<g stroke="#ff0099" stroke-width="1" fill="#ff0099">
<circle cx=" 221" cy=" 426" r=" 1.5"/>
</g>
<path d="M225,428h 3" fill="none" stroke="#ff0099"/>
<path d="M230,428h 2" fill="none" stroke="#ff0099"/>
<g stroke="#ff0099" stroke-width="1" fill="#ff0099">
<circle cx=" 229" cy=" 428" r=" 1.5"/>
</g>
<path d="M232,430h 3" fill="none" stroke="#ff0099"/>
<path d="M237,430h 3" fill="none" stroke="#ff0099"/>
<g stroke="#ff0099" stroke-width="1" fill="#ff0099">
<circle cx=" 236" cy=" 430" r=" 1.5"/>
</g>
<path d="M240,432h 3" fill="none" stroke="#ff0099"/>
<path d="M245,432h 3" fill="none" stroke="#ff0099"/>
<g stroke="#ff0099" stroke-width="1" fill="#ff0099">
<circle cx=" 244" cy=" 432" r=" 1.5"/>
</g>
<path d="M248,433h 2" fill="none" stroke="#ff0099"/>
<path d="M252,433h 3" fill="none" stroke="#ff0099"/>
<g stroke="#ff0099" stroke-width="1" fill="#ff0099">
<circle cx=" 251" cy=" 433" r=" 1.5"/>
</g>
<path d="M255,435h 3" fill="none" stroke="#ff0099"/>
<path d="M260,435h 3" fill="none" stroke="#ff0099"/>
<g stroke="#ff0099" stroke-width="1" fill="#ff0099">
<circle cx=" 259" cy=" 435" r=" 1.5"/>
</g>
<path d="M263,436h 2" fill="none" stroke="#ff0099"/>
<path d="M268,436h 2" fill="none" stroke="#ff0099"/>
<g stroke="#ff0099" stroke-width="1" fill="#ff0099">
<circle cx=" 266" cy=" 436" r=" 1.5"/>
</g>
<path d="M270,437h 3" fill="none" stroke="#ff0099"/>
<path d="M275,437h 3" fill="none" stroke="#ff0099"/>
<g stroke="#ff0099" stroke-width="1" fill="#ff0099">
<circle cx=" 274" cy=" 437" r=" 1.5"/>
</g>
<path d="M278,438h 2" fill="none" stroke="#ff0099"/>
<path d="M283,438h 2" fill="none" stroke="#ff0099"/>
<g stroke="#ff0099" stroke-width="1" fill="#ff0099">
<circle cx=" 282" cy=" 438" r=" 1.5"/>
</g>
<path d="M285,439h 3" fill="none" stroke="#ff0099"/>
<path d="M290,439h 3" fill="none" stroke="#ff0099"/>
<g stroke="#ff0099" stroke-width="1" fill="#ff0099">
<circle cx=" 289" cy=" 439" r=" 1.5"/>
</g>
<path d="M293,440h 3" fill="none" stroke="#ff0099"/>
<path d="M298,440h 2" fill="none" stroke="#ff0099"/>
<g stroke="#ff0099" stroke-width="1" fill="#ff0099">
<circle cx=" 297" cy=" 440" r=" 1.5"/>
</g>
<path d="M300,441h 3" fill="none" stroke="#ff0099"/>
<path d="M305,441h 3" fill="none" stroke="#ff0099"/>
<g stroke="#ff0099" stroke-width="1" fill="#ff0099">
<circle cx=" 304" cy=" 441" r=" 1.5"/>
</g>
<path d="M308,441h 3" fill="none" stroke="#ff0099"/>
<path d="M313,441h 3" fill="none" stroke="#ff0099"/>
<g stroke="#ff0099" stroke-width="1" fill="#ff0099">
<circle cx=" 312" cy=" 441" r=" 1.5"/>
</g>
<path d="M316,442h 2" fill="none" stroke="#ff0099"/>
<path d="M321,442h 2" fill="none" stroke="#ff0099"/>
<g stroke="#ff0099" stroke-width="1" fill="#ff0099">
<circle cx=" 319" cy=" 442" r=" 1.5"/>
</g>
<path d="M323,442h 3" fill="none" stroke="#ff0099"/>
<path d="M328,442h 3" fill="none" stroke="#ff0099"/>
<g stroke="#ff0099" stroke-width="1" fill="#ff0099">
<circle cx=" 327" cy=" 442" r=" 1.5"/>
</g>
<path d="M331,443h 2" fill="none" stroke="#ff0099"/>
<path d="M336,443h 2" fill="none" stroke="#ff0099"/>
<g stroke="#ff0099" stroke-width="1" fill="#ff0099">
<circle cx=" 334" cy=" 443" r=" 1.5"/>
</g>
<path d="M338,443h 3" fill="none" stroke="#ff0099"/>
<path d="M343,443h 3" fill="none" stroke="#ff0099"/>
<g stroke="#ff0099" stroke-width="1" fill="#ff0099">
<circle cx=" 342" cy=" 443" r=" 1.5"/>
</g>
<path d="M346,444h 2" fill="none" stroke="#ff0099"/>
<path d="M351,444h 2" fill="none" stroke="#ff0099"/>
<g stroke="#ff0099" stroke-width="1" fill="#ff0099">
<circle cx=" 350" cy=" 444" r=" 1.5"/>
</g>
<path d="M353,444h 3" fill="none" stroke="#ff0099"/>
<path d="M358,444h 3" fill="none" stroke="#ff0099"/>
<g stroke="#ff0099" stroke-width="1" fill="#ff0099">
<circle cx=" 357" cy=" 444" r=" 1.5"/>
</g>
<path d="M361,444h 3" fill="none" stroke="#ff0099"/>
<path d="M366,444h 3" fill="none" stroke="#ff0099"/>
<g stroke="#ff0099" stroke-width="1" fill="#ff0099">
<circle cx=" 365" cy=" 444" r=" 1.5"/>
</g>
<path d="M369,444h 2" fill="none" stroke="#ff0099"/>
<path d="M373,444h 3" fill="none" stroke="#ff0099"/>
<g stroke="#ff0099" stroke-width="1" fill="#ff0099">
<circle cx=" 372" cy=" 444" r=" 1.5"/>
</g>
<path d="M376,444h 3" fill="none" stroke="#ff0099"/>
<path d="M381,444h 3" fill="none" stroke="#ff0099"/>
<g stroke="#ff0099" stroke-width="1" fill="#ff0099">
<circle cx=" 380" cy=" 444" r=" 1.5"/>
</g>
<path d="M384,445h 2" fill="none" stroke="#ff0099"/>
<path d="M389,445h 2" fill="none" stroke="#ff0099"/>
<g stroke="#ff0099" stroke-width="1" fill="#ff0099">
<circle cx=" 387" cy=" 445" r=" 1.5"/>
</g>
<path d="M391,445h 3" fill="none" stroke="#ff0099"/>
<path d="M396,445h 3" fill="none" stroke="#ff0099"/>
<g stroke="#ff0099" stroke-width="1" fill="#ff0099">
<circle cx=" 395" cy=" 445" r=" 1.5"/>
</g>
<path d="M399,445h 2" fill="none" stroke="#ff0099"/>
<path d="M404,445h 2" fill="none" stroke="#ff0099"/>
<g stroke="#ff0099" stroke-width="1" fill="#ff0099">
<circle cx=" 403" cy=" 445" r=" 1.5"/>
</g>
<path d="M406,445h 3" fill="none" stroke="#ff0099"/>
<path d="M411,445h 3" fill="none" stroke="#ff0099"/>
<g stroke="#ff0099" stroke-width="1" fill="#ff0099">
<circle cx=" 410" cy=" 445" r=" 1.5"/>
</g>
<path d="M414,445h 2" fill="none" stroke="#ff0099"/>
<path d="M419,445h 2" fill="none" stroke="#ff0099"/>
<g stroke="#ff0099" stroke-width="1" fill="#ff0099">
<circle cx=" 418" cy=" 445" r=" 1.5"/>
</g>
<path d="M421,445h 3" fill="none" stroke="#ff0099"/>
<path d="M426,445h 3" fill="none" stroke="#ff0099"/>
<g stroke="#ff0099" stroke-width="1" fill="#ff0099">
<circle cx=" 425" cy=" 445" r=" 1.5"/>
</g>
<path d="M429,445h 3" fill="none" stroke="#ff0099"/>
<path d="M434,445h 3" fill="none" stroke="#ff0099"/>
<g stroke="#ff0099" stroke-width="1" fill="#ff0099">
<circle cx=" 433" cy=" 445" r=" 1.5"/>
</g>
<path d="M437,446h 2" fill="none" stroke="#ff0099"/>
<path d="M441,446h 3" fill="none" stroke="#ff0099"/>
<g stroke="#ff0099" stroke-width="1" fill="#ff0099">
<circle cx=" 440" cy=" 446" r=" 1.5"/>
</g>
<path d="M444,446h 3" fill="none" stroke="#ff0099"/>
<path d="M449,446h 3" fill="none" stroke="#ff0099"/>
<g stroke="#ff0099" stroke-width="1" fill="#ff0099">
<circle cx=" 448" cy=" 446" r=" 1.5"/>
</g>
<path d="M452,446h 2" fill="none" stroke="#ff0099"/>
<path d="M457,446h 2" fill="none" stroke="#ff0099"/>
<g stroke="#ff0099" stroke-width="1" fill="#ff0099">
<circle cx=" 455" cy=" 446" r=" 1.5"/>
</g>
<path d="M459,446h 3" fill="none" stroke="#ff0099"/>
<path d="M464,446h 3" fill="none" stroke="#ff0099"/>
<g stroke="#ff0099" stroke-width="1" fill="#ff0099">
<circle cx=" 463" cy=" 446" r=" 1.5"/>
</g>
<path d="M467,446h 2" fill="none" stroke="#ff0099"/>
<path d="M472,446h 2" fill="none" stroke="#ff0099"/>
<g stroke="#ff0099" stroke-width="1" fill="#ff0099">
<circle cx=" 471" cy=" 446" r=" 1.5"/>
</g>
<path d="M474,446h 3" fill="none" stroke="#ff0099"/>
<path d="M479,446h 3" fill="none" stroke="#ff0099"/>
<g stroke="#ff0099" stroke-width="1" fill="#ff0099">
<circle cx=" 478" cy=" 446" r=" 1.5"/>
</g>
<path d="M482,446h 3" fill="none" stroke="#ff0099"/>
<path d="M487,446h 2" fill="none" stroke="#ff0099"/>
<g stroke="#ff0099" stroke-width="1" fill="#ff0099">
<circle cx=" 486" cy=" 446" r=" 1.5"/>
</g>
<path d="M489,446h 3" fill="none" stroke="#ff0099"/>
<path d="M494,446h 3" fill="none" stroke="#ff0099"/>
<g stroke="#ff0099" stroke-width="1" fill="#ff0099">
<circle cx=" 493" cy=" 446" r=" 1.5"/>
</g>
<path d="M497,446h 3" fill="none" stroke="#ff0099"/>
<path d="M502,446h 3" fill="none" stroke="#ff0099"/>
<g stroke="#ff0099" stroke-width="1" fill="#ff0099">
<circle cx=" 501" cy=" 446" r=" 1.5"/>
</g>
<path d="M505,446h 2" fill="none" stroke="#ff0099"/>
<path d="M509,446h 3" fill="none" stroke="#ff0099"/>
<g stroke="#ff0099" stroke-width="1" fill="#ff0099">
<circle cx=" 508" cy=" 446" r=" 1.5"/>
</g>
<path d="M512,446h 3" fill="none" stroke="#ff0099"/>
<path d="M517,446h 3" fill="none" stroke="#ff0099"/>
<g stroke="#ff0099" stroke-width="1" fill="#ff0099">
<circle cx=" 516" cy=" 446" r=" 1.5"/>
</g>
<path d="M520,446h 2" fill="none" stroke="#ff0099"/>
<path d="M525,446h 2" fill="none" stroke="#ff0099"/>
<g stroke="#ff0099" stroke-width="1" fill="#ff0099">
<circle cx=" 523" cy=" 446" r=" 1.5"/>
</g>
<rect x="357" y="59" width="142" height="99" fill="white"/>
<text x="360" y="82" fill="black" font-size="17" font-family="Helvetica" font-weight="bold">
EB
</text>
<text x="457" y="115" fill="black" font-size="17" font-family="Helvetica" font-weight="bold">
 ee
</text>
<text x="440" y="115" fill="black" font-size="17" font-family="Times">
&#8594;
</text>
<text x="392" y="115" fill="black" font-size="17" font-family="Helvetica" font-weight="bold">
MC Z 
</text>
<path d="M362,109h 25" fill="none" stroke="#ff0099"/>
<g stroke="#ff0099" stroke-width="1" fill="#ff0099">
<circle cx=" 375" cy=" 109" r=" 1.5"/>
</g>
<text x="455" y="147" fill="black" font-size="17" font-family="Helvetica" font-weight="bold">
 + jet
</text>
<text x="447" y="147" fill="black" font-size="17" font-family="Times">
&#0947;
</text>
<text x="392" y="147" fill="black" font-size="17" font-family="Helvetica" font-weight="bold">
signal 
</text>
<path d="M362,154h 25v -24h -25z" fill="#99ff99"/>
<path d="M362,130h 25" fill="none" stroke="#99ff99" stroke-width="2"/>
<path d="M362,154h 25" fill="none" stroke="#99ff99" stroke-width="2"/>
<path d="M387,154v -24" fill="none" stroke="#99ff99" stroke-width="2"/>
<path d="M362,154v -24" fill="none" stroke="#99ff99" stroke-width="2"/>
<text x="300" y="34" fill="black" font-size="17" font-family="Helvetica" font-weight="bold">
=8 TeV
</text>
<text x="291" y="34" fill="black" font-size="17" font-family="Helvetica" font-weight="bold">
s
</text>
<path d="M285,25l 2, 10" fill="none" stroke="black" stroke-width="2"/>
<path d="M287,35l 2, -14" fill="none" stroke="black"/>
<path d="M289,21h 11" fill="none" stroke="black"/>
<text x="142" y="34" fill="black" font-size="17" font-family="Helvetica" font-weight="bold">
CMS Preliminary 
</text></svg>
