<?xml version="1.0" standalone="no"?>
<svg width="567" height="496" viewBox="0 0 567 496" xmlns="http://www.w3.org/2000/svg">
<title>
../src/TagAndProbeZ/plots_mcZee_mcGJet_withEtaW/hlt30//r9PhotAll.svg
</title>
<desc>
Creator: ROOT Version 5.32/00
CreationDate: Sat Sep 27 22:34:48 2014</desc>
<defs>
</defs>
<rect x="0" y="0" width="567" height="496" fill="white"/>
<rect x="74" y="44" width="453" height="402" fill="white"/>
<rect x="74" y="44" width="453" height="402" fill="none" stroke="black"/>
<rect x="74" y="44" width="453" height="402" fill="white"/>
<rect x="74" y="44" width="453" height="402" fill="none" stroke="black"/>
<path d="M74,428h 2" fill="none" stroke="#ff0099"/>
<path d="M79,428h 2" fill="none" stroke="#ff0099"/>
<g stroke="#ff0099" stroke-width="1" fill="#ff0099">
<circle cx=" 77" cy=" 428" r=" 1.5"/>
</g>
<path d="M89,428h 2" fill="none" stroke="#ff0099"/>
<path d="M94,428h 2" fill="none" stroke="#ff0099"/>
<g stroke="#ff0099" stroke-width="1" fill="#ff0099">
<circle cx=" 93" cy=" 428" r=" 1.5"/>
</g>
<path d="M96,428h 3" fill="none" stroke="#ff0099"/>
<path d="M101,428h 3" fill="none" stroke="#ff0099"/>
<g stroke="#ff0099" stroke-width="1" fill="#ff0099">
<circle cx=" 100" cy=" 428" r=" 1.5"/>
</g>
<path d="M104,428h 3" fill="none" stroke="#ff0099"/>
<path d="M109,428h 2" fill="none" stroke="#ff0099"/>
<g stroke="#ff0099" stroke-width="1" fill="#ff0099">
<circle cx=" 108" cy=" 428" r=" 1.5"/>
</g>
<path d="M111,428h 3" fill="none" stroke="#ff0099"/>
<path d="M116,428h 3" fill="none" stroke="#ff0099"/>
<g stroke="#ff0099" stroke-width="1" fill="#ff0099">
<circle cx=" 115" cy=" 428" r=" 1.5"/>
</g>
<path d="M119,428h 3" fill="none" stroke="#ff0099"/>
<path d="M124,428h 3" fill="none" stroke="#ff0099"/>
<g stroke="#ff0099" stroke-width="1" fill="#ff0099">
<circle cx=" 123" cy=" 428" r=" 1.5"/>
</g>
<path d="M127,428h 2" fill="none" stroke="#ff0099"/>
<path d="M132,428h 2" fill="none" stroke="#ff0099"/>
<g stroke="#ff0099" stroke-width="1" fill="#ff0099">
<circle cx=" 130" cy=" 428" r=" 1.5"/>
</g>
<path d="M134,428h 3" fill="none" stroke="#ff0099"/>
<path d="M139,428h 3" fill="none" stroke="#ff0099"/>
<g stroke="#ff0099" stroke-width="1" fill="#ff0099">
<circle cx=" 138" cy=" 428" r=" 1.5"/>
</g>
<path d="M142,428h 2" fill="none" stroke="#ff0099"/>
<path d="M147,428h 2" fill="none" stroke="#ff0099"/>
<g stroke="#ff0099" stroke-width="1" fill="#ff0099">
<circle cx=" 146" cy=" 428" r=" 1.5"/>
</g>
<path d="M149,428h 3" fill="none" stroke="#ff0099"/>
<path d="M154,428h 3" fill="none" stroke="#ff0099"/>
<g stroke="#ff0099" stroke-width="1" fill="#ff0099">
<circle cx=" 153" cy=" 428" r=" 1.5"/>
</g>
<path d="M157,428h 2" fill="none" stroke="#ff0099"/>
<path d="M162,428h 2" fill="none" stroke="#ff0099"/>
<g stroke="#ff0099" stroke-width="1" fill="#ff0099">
<circle cx=" 161" cy=" 428" r=" 1.5"/>
</g>
<path d="M164,428h 3" fill="none" stroke="#ff0099"/>
<path d="M169,428h 3" fill="none" stroke="#ff0099"/>
<g stroke="#ff0099" stroke-width="1" fill="#ff0099">
<circle cx=" 168" cy=" 428" r=" 1.5"/>
</g>
<path d="M172,428h 3" fill="none" stroke="#ff0099"/>
<path d="M177,428h 3" fill="none" stroke="#ff0099"/>
<g stroke="#ff0099" stroke-width="1" fill="#ff0099">
<circle cx=" 176" cy=" 428" r=" 1.5"/>
</g>
<path d="M180,428h 2" fill="none" stroke="#ff0099"/>
<path d="M184,428h 3" fill="none" stroke="#ff0099"/>
<g stroke="#ff0099" stroke-width="1" fill="#ff0099">
<circle cx=" 183" cy=" 428" r=" 1.5"/>
</g>
<path d="M187,428h 3" fill="none" stroke="#ff0099"/>
<path d="M192,428h 3" fill="none" stroke="#ff0099"/>
<g stroke="#ff0099" stroke-width="1" fill="#ff0099">
<circle cx=" 191" cy=" 428" r=" 1.5"/>
</g>
<path d="M195,428h 2" fill="none" stroke="#ff0099"/>
<path d="M200,428h 2" fill="none" stroke="#ff0099"/>
<g stroke="#ff0099" stroke-width="1" fill="#ff0099">
<circle cx=" 198" cy=" 428" r=" 1.5"/>
</g>
<path d="M202,427h 3" fill="none" stroke="#ff0099"/>
<path d="M207,427h 3" fill="none" stroke="#ff0099"/>
<g stroke="#ff0099" stroke-width="1" fill="#ff0099">
<circle cx=" 206" cy=" 427" r=" 1.5"/>
</g>
<path d="M210,427h 2" fill="none" stroke="#ff0099"/>
<path d="M215,427h 2" fill="none" stroke="#ff0099"/>
<g stroke="#ff0099" stroke-width="1" fill="#ff0099">
<circle cx=" 214" cy=" 427" r=" 1.5"/>
</g>
<path d="M217,427h 3" fill="none" stroke="#ff0099"/>
<path d="M222,427h 3" fill="none" stroke="#ff0099"/>
<g stroke="#ff0099" stroke-width="1" fill="#ff0099">
<circle cx=" 221" cy=" 427" r=" 1.5"/>
</g>
<path d="M225,426h 3" fill="none" stroke="#ff0099"/>
<path d="M230,426h 2" fill="none" stroke="#ff0099"/>
<g stroke="#ff0099" stroke-width="1" fill="#ff0099">
<circle cx=" 229" cy=" 426" r=" 1.5"/>
</g>
<path d="M232,426h 3" fill="none" stroke="#ff0099"/>
<path d="M237,426h 3" fill="none" stroke="#ff0099"/>
<g stroke="#ff0099" stroke-width="1" fill="#ff0099">
<circle cx=" 236" cy=" 426" r=" 1.5"/>
</g>
<path d="M240,425h 3" fill="none" stroke="#ff0099"/>
<path d="M245,425h 3" fill="none" stroke="#ff0099"/>
<g stroke="#ff0099" stroke-width="1" fill="#ff0099">
<circle cx=" 244" cy=" 425" r=" 1.5"/>
</g>
<path d="M248,424h 2" fill="none" stroke="#ff0099"/>
<path d="M252,424h 3" fill="none" stroke="#ff0099"/>
<g stroke="#ff0099" stroke-width="1" fill="#ff0099">
<circle cx=" 251" cy=" 424" r=" 1.5"/>
</g>
<path d="M255,424h 3" fill="none" stroke="#ff0099"/>
<path d="M260,424h 3" fill="none" stroke="#ff0099"/>
<g stroke="#ff0099" stroke-width="1" fill="#ff0099">
<circle cx=" 259" cy=" 424" r=" 1.5"/>
</g>
<path d="M263,422h 2" fill="none" stroke="#ff0099"/>
<path d="M268,422h 2" fill="none" stroke="#ff0099"/>
<g stroke="#ff0099" stroke-width="1" fill="#ff0099">
<circle cx=" 266" cy=" 422" r=" 1.5"/>
</g>
<path d="M270,421h 3" fill="none" stroke="#ff0099"/>
<path d="M275,421h 3" fill="none" stroke="#ff0099"/>
<g stroke="#ff0099" stroke-width="1" fill="#ff0099">
<circle cx=" 274" cy=" 421" r=" 1.5"/>
</g>
<path d="M278,420h 2" fill="none" stroke="#ff0099"/>
<path d="M283,420h 2" fill="none" stroke="#ff0099"/>
<g stroke="#ff0099" stroke-width="1" fill="#ff0099">
<circle cx=" 282" cy=" 420" r=" 1.5"/>
</g>
<path d="M285,419h 3" fill="none" stroke="#ff0099"/>
<path d="M290,419h 3" fill="none" stroke="#ff0099"/>
<g stroke="#ff0099" stroke-width="1" fill="#ff0099">
<circle cx=" 289" cy=" 419" r=" 1.5"/>
</g>
<path d="M293,417h 3" fill="none" stroke="#ff0099"/>
<path d="M298,417h 2" fill="none" stroke="#ff0099"/>
<g stroke="#ff0099" stroke-width="1" fill="#ff0099">
<circle cx=" 297" cy=" 417" r=" 1.5"/>
</g>
<path d="M300,416h 3" fill="none" stroke="#ff0099"/>
<path d="M305,416h 3" fill="none" stroke="#ff0099"/>
<g stroke="#ff0099" stroke-width="1" fill="#ff0099">
<circle cx=" 304" cy=" 416" r=" 1.5"/>
</g>
<path d="M308,414h 3" fill="none" stroke="#ff0099"/>
<path d="M313,414h 3" fill="none" stroke="#ff0099"/>
<g stroke="#ff0099" stroke-width="1" fill="#ff0099">
<circle cx=" 312" cy=" 414" r=" 1.5"/>
</g>
<path d="M316,412h 2" fill="none" stroke="#ff0099"/>
<path d="M321,412h 2" fill="none" stroke="#ff0099"/>
<g stroke="#ff0099" stroke-width="1" fill="#ff0099">
<circle cx=" 319" cy=" 412" r=" 1.5"/>
</g>
<path d="M323,409h 3" fill="none" stroke="#ff0099"/>
<path d="M328,409h 3" fill="none" stroke="#ff0099"/>
<g stroke="#ff0099" stroke-width="1" fill="#ff0099">
<circle cx=" 327" cy=" 409" r=" 1.5"/>
</g>
<path d="M331,406h 2" fill="none" stroke="#ff0099"/>
<path d="M336,406h 2" fill="none" stroke="#ff0099"/>
<g stroke="#ff0099" stroke-width="1" fill="#ff0099">
<circle cx=" 334" cy=" 406" r=" 1.5"/>
</g>
<path d="M338,404h 3" fill="none" stroke="#ff0099"/>
<path d="M343,404h 3" fill="none" stroke="#ff0099"/>
<g stroke="#ff0099" stroke-width="1" fill="#ff0099">
<circle cx=" 342" cy=" 404" r=" 1.5"/>
</g>
<path d="M346,402h 2" fill="none" stroke="#ff0099"/>
<path d="M351,402h 2" fill="none" stroke="#ff0099"/>
<g stroke="#ff0099" stroke-width="1" fill="#ff0099">
<circle cx=" 350" cy=" 402" r=" 1.5"/>
</g>
<path d="M353,399h 3" fill="none" stroke="#ff0099"/>
<path d="M358,399h 3" fill="none" stroke="#ff0099"/>
<g stroke="#ff0099" stroke-width="1" fill="#ff0099">
<circle cx=" 357" cy=" 399" r=" 1.5"/>
</g>
<path d="M361,397h 3" fill="none" stroke="#ff0099"/>
<path d="M366,397h 3" fill="none" stroke="#ff0099"/>
<g stroke="#ff0099" stroke-width="1" fill="#ff0099">
<circle cx=" 365" cy=" 397" r=" 1.5"/>
</g>
<path d="M369,393h 2" fill="none" stroke="#ff0099"/>
<path d="M373,393h 3" fill="none" stroke="#ff0099"/>
<g stroke="#ff0099" stroke-width="1" fill="#ff0099">
<circle cx=" 372" cy=" 393" r=" 1.5"/>
</g>
<path d="M376,391h 3" fill="none" stroke="#ff0099"/>
<path d="M381,391h 3" fill="none" stroke="#ff0099"/>
<g stroke="#ff0099" stroke-width="1" fill="#ff0099">
<circle cx=" 380" cy=" 391" r=" 1.5"/>
</g>
<path d="M384,387h 2" fill="none" stroke="#ff0099"/>
<path d="M389,387h 2" fill="none" stroke="#ff0099"/>
<g stroke="#ff0099" stroke-width="1" fill="#ff0099">
<circle cx=" 387" cy=" 387" r=" 1.5"/>
</g>
<path d="M391,384h 3" fill="none" stroke="#ff0099"/>
<path d="M396,384h 3" fill="none" stroke="#ff0099"/>
<g stroke="#ff0099" stroke-width="1" fill="#ff0099">
<circle cx=" 395" cy=" 384" r=" 1.5"/>
</g>
<path d="M399,380h 2" fill="none" stroke="#ff0099"/>
<path d="M404,380h 2" fill="none" stroke="#ff0099"/>
<g stroke="#ff0099" stroke-width="1" fill="#ff0099">
<circle cx=" 403" cy=" 380" r=" 1.5"/>
</g>
<path d="M406,376h 3" fill="none" stroke="#ff0099"/>
<path d="M411,376h 3" fill="none" stroke="#ff0099"/>
<g stroke="#ff0099" stroke-width="1" fill="#ff0099">
<circle cx=" 410" cy=" 376" r=" 1.5"/>
</g>
<path d="M414,371h 2" fill="none" stroke="#ff0099"/>
<path d="M419,371h 2" fill="none" stroke="#ff0099"/>
<g stroke="#ff0099" stroke-width="1" fill="#ff0099">
<circle cx=" 418" cy=" 371" r=" 1.5"/>
</g>
<path d="M421,366h 3" fill="none" stroke="#ff0099"/>
<path d="M426,366h 3" fill="none" stroke="#ff0099"/>
<g stroke="#ff0099" stroke-width="1" fill="#ff0099">
<circle cx=" 425" cy=" 366" r=" 1.5"/>
</g>
<path d="M429,361h 3" fill="none" stroke="#ff0099"/>
<path d="M434,361h 3" fill="none" stroke="#ff0099"/>
<g stroke="#ff0099" stroke-width="1" fill="#ff0099">
<circle cx=" 433" cy=" 361" r=" 1.5"/>
</g>
<path d="M437,354h 2" fill="none" stroke="#ff0099"/>
<path d="M441,354h 3" fill="none" stroke="#ff0099"/>
<g stroke="#ff0099" stroke-width="1" fill="#ff0099">
<circle cx=" 440" cy=" 354" r=" 1.5"/>
</g>
<path d="M444,346h 3" fill="none" stroke="#ff0099"/>
<path d="M449,346h 3" fill="none" stroke="#ff0099"/>
<g stroke="#ff0099" stroke-width="1" fill="#ff0099">
<circle cx=" 448" cy=" 346" r=" 1.5"/>
</g>
<path d="M452,337h 2" fill="none" stroke="#ff0099"/>
<path d="M457,337h 2" fill="none" stroke="#ff0099"/>
<g stroke="#ff0099" stroke-width="1" fill="#ff0099">
<circle cx=" 455" cy=" 337" r=" 1.5"/>
</g>
<path d="M459,327h 3" fill="none" stroke="#ff0099"/>
<path d="M464,327h 3" fill="none" stroke="#ff0099"/>
<g stroke="#ff0099" stroke-width="1" fill="#ff0099">
<circle cx=" 463" cy=" 327" r=" 1.5"/>
</g>
<path d="M467,313h 2" fill="none" stroke="#ff0099"/>
<path d="M472,313h 2" fill="none" stroke="#ff0099"/>
<g stroke="#ff0099" stroke-width="1" fill="#ff0099">
<circle cx=" 471" cy=" 313" r=" 1.5"/>
</g>
<path d="M474,295h 3" fill="none" stroke="#ff0099"/>
<path d="M479,295h 3" fill="none" stroke="#ff0099"/>
<g stroke="#ff0099" stroke-width="1" fill="#ff0099">
<circle cx=" 478" cy=" 295" r=" 1.5"/>
</g>
<path d="M482,265h 3" fill="none" stroke="#ff0099"/>
<path d="M487,265h 2" fill="none" stroke="#ff0099"/>
<g stroke="#ff0099" stroke-width="1" fill="#ff0099">
<circle cx=" 486" cy=" 265" r=" 1.5"/>
</g>
<path d="M489,207h 3" fill="none" stroke="#ff0099"/>
<path d="M494,207h 3" fill="none" stroke="#ff0099"/>
<g stroke="#ff0099" stroke-width="1" fill="#ff0099">
<circle cx=" 493" cy=" 207" r=" 1.5"/>
</g>
<path d="M497,64h 3" fill="none" stroke="#ff0099"/>
<path d="M502,64h 3" fill="none" stroke="#ff0099"/>
<g stroke="#ff0099" stroke-width="1" fill="#ff0099">
<circle cx=" 501" cy=" 64" r=" 1.5"/>
</g>
<path d="M505,67h 2" fill="none" stroke="#ff0099"/>
<path d="M509,67h 3" fill="none" stroke="#ff0099"/>
<g stroke="#ff0099" stroke-width="1" fill="#ff0099">
<circle cx=" 508" cy=" 67" r=" 1.5"/>
</g>
<path d="M512,373h 3" fill="none" stroke="#ff0099"/>
<path d="M517,373h 3" fill="none" stroke="#ff0099"/>
<g stroke="#ff0099" stroke-width="1" fill="#ff0099">
<circle cx=" 516" cy=" 373" r=" 1.5"/>
</g>
<path d="M520,427h 2" fill="none" stroke="#ff0099"/>
<path d="M525,427h 2" fill="none" stroke="#ff0099"/>
<g stroke="#ff0099" stroke-width="1" fill="#ff0099">
<circle cx=" 523" cy=" 427" r=" 1.5"/>
</g>
<path d="M74,446h 453" fill="none" stroke="black"/>
<path d="M74,434v 12" fill="none" stroke="black"/>
<path d="M83,440v 6" fill="none" stroke="black"/>
<path d="M92,440v 6" fill="none" stroke="black"/>
<path d="M101,440v 6" fill="none" stroke="black"/>
<path d="M110,440v 6" fill="none" stroke="black"/>
<path d="M119,434v 12" fill="none" stroke="black"/>
<path d="M128,440v 6" fill="none" stroke="black"/>
<path d="M137,440v 6" fill="none" stroke="black"/>
<path d="M146,440v 6" fill="none" stroke="black"/>
<path d="M155,440v 6" fill="none" stroke="black"/>
<path d="M164,434v 12" fill="none" stroke="black"/>
<path d="M173,440v 6" fill="none" stroke="black"/>
<path d="M183,440v 6" fill="none" stroke="black"/>
<path d="M192,440v 6" fill="none" stroke="black"/>
<path d="M201,440v 6" fill="none" stroke="black"/>
<path d="M210,434v 12" fill="none" stroke="black"/>
<path d="M219,440v 6" fill="none" stroke="black"/>
<path d="M228,440v 6" fill="none" stroke="black"/>
<path d="M237,440v 6" fill="none" stroke="black"/>
<path d="M246,440v 6" fill="none" stroke="black"/>
<path d="M255,434v 12" fill="none" stroke="black"/>
<path d="M264,440v 6" fill="none" stroke="black"/>
<path d="M273,440v 6" fill="none" stroke="black"/>
<path d="M282,440v 6" fill="none" stroke="black"/>
<path d="M291,440v 6" fill="none" stroke="black"/>
<path d="M300,434v 12" fill="none" stroke="black"/>
<path d="M310,440v 6" fill="none" stroke="black"/>
<path d="M319,440v 6" fill="none" stroke="black"/>
<path d="M328,440v 6" fill="none" stroke="black"/>
<path d="M337,440v 6" fill="none" stroke="black"/>
<path d="M346,434v 12" fill="none" stroke="black"/>
<path d="M355,440v 6" fill="none" stroke="black"/>
<path d="M364,440v 6" fill="none" stroke="black"/>
<path d="M373,440v 6" fill="none" stroke="black"/>
<path d="M382,440v 6" fill="none" stroke="black"/>
<path d="M391,434v 12" fill="none" stroke="black"/>
<path d="M400,440v 6" fill="none" stroke="black"/>
<path d="M409,440v 6" fill="none" stroke="black"/>
<path d="M418,440v 6" fill="none" stroke="black"/>
<path d="M427,440v 6" fill="none" stroke="black"/>
<path d="M437,434v 12" fill="none" stroke="black"/>
<path d="M446,440v 6" fill="none" stroke="black"/>
<path d="M455,440v 6" fill="none" stroke="black"/>
<path d="M464,440v 6" fill="none" stroke="black"/>
<path d="M473,440v 6" fill="none" stroke="black"/>
<path d="M482,434v 12" fill="none" stroke="black"/>
<path d="M491,440v 6" fill="none" stroke="black"/>
<path d="M500,440v 6" fill="none" stroke="black"/>
<path d="M509,440v 6" fill="none" stroke="black"/>
<path d="M518,440v 6" fill="none" stroke="black"/>
<path d="M527,434v 12" fill="none" stroke="black"/>
<text x="68" y="465" fill="black" font-size="18" font-family="Helvetica" font-weight="bold">
0
</text>
<text x="107" y="465" fill="black" font-size="18" font-family="Helvetica" font-weight="bold">
0.1
</text>
<text x="151" y="465" fill="black" font-size="18" font-family="Helvetica" font-weight="bold">
0.2
</text>
<text x="196" y="465" fill="black" font-size="18" font-family="Helvetica" font-weight="bold">
0.3
</text>
<text x="242" y="465" fill="black" font-size="18" font-family="Helvetica" font-weight="bold">
0.4
</text>
<text x="287" y="465" fill="black" font-size="18" font-family="Helvetica" font-weight="bold">
0.5
</text>
<text x="332" y="465" fill="black" font-size="18" font-family="Helvetica" font-weight="bold">
0.6
</text>
<text x="378" y="465" fill="black" font-size="18" font-family="Helvetica" font-weight="bold">
0.7
</text>
<text x="423" y="465" fill="black" font-size="18" font-family="Helvetica" font-weight="bold">
0.8
</text>
<text x="468" y="465" fill="black" font-size="18" font-family="Helvetica" font-weight="bold">
0.9
</text>
<text x="523" y="465" fill="black" font-size="18" font-family="Helvetica" font-weight="bold">
1
</text>
<path d="M74,44h 453" fill="none" stroke="black"/>
<path d="M74,56v -12" fill="none" stroke="black"/>
<path d="M83,50v -6" fill="none" stroke="black"/>
<path d="M92,50v -6" fill="none" stroke="black"/>
<path d="M101,50v -6" fill="none" stroke="black"/>
<path d="M110,50v -6" fill="none" stroke="black"/>
<path d="M119,56v -12" fill="none" stroke="black"/>
<path d="M128,50v -6" fill="none" stroke="black"/>
<path d="M137,50v -6" fill="none" stroke="black"/>
<path d="M146,50v -6" fill="none" stroke="black"/>
<path d="M155,50v -6" fill="none" stroke="black"/>
<path d="M164,56v -12" fill="none" stroke="black"/>
<path d="M173,50v -6" fill="none" stroke="black"/>
<path d="M183,50v -6" fill="none" stroke="black"/>
<path d="M192,50v -6" fill="none" stroke="black"/>
<path d="M201,50v -6" fill="none" stroke="black"/>
<path d="M210,56v -12" fill="none" stroke="black"/>
<path d="M219,50v -6" fill="none" stroke="black"/>
<path d="M228,50v -6" fill="none" stroke="black"/>
<path d="M237,50v -6" fill="none" stroke="black"/>
<path d="M246,50v -6" fill="none" stroke="black"/>
<path d="M255,56v -12" fill="none" stroke="black"/>
<path d="M264,50v -6" fill="none" stroke="black"/>
<path d="M273,50v -6" fill="none" stroke="black"/>
<path d="M282,50v -6" fill="none" stroke="black"/>
<path d="M291,50v -6" fill="none" stroke="black"/>
<path d="M300,56v -12" fill="none" stroke="black"/>
<path d="M310,50v -6" fill="none" stroke="black"/>
<path d="M319,50v -6" fill="none" stroke="black"/>
<path d="M328,50v -6" fill="none" stroke="black"/>
<path d="M337,50v -6" fill="none" stroke="black"/>
<path d="M346,56v -12" fill="none" stroke="black"/>
<path d="M355,50v -6" fill="none" stroke="black"/>
<path d="M364,50v -6" fill="none" stroke="black"/>
<path d="M373,50v -6" fill="none" stroke="black"/>
<path d="M382,50v -6" fill="none" stroke="black"/>
<path d="M391,56v -12" fill="none" stroke="black"/>
<path d="M400,50v -6" fill="none" stroke="black"/>
<path d="M409,50v -6" fill="none" stroke="black"/>
<path d="M418,50v -6" fill="none" stroke="black"/>
<path d="M427,50v -6" fill="none" stroke="black"/>
<path d="M437,56v -12" fill="none" stroke="black"/>
<path d="M446,50v -6" fill="none" stroke="black"/>
<path d="M455,50v -6" fill="none" stroke="black"/>
<path d="M464,50v -6" fill="none" stroke="black"/>
<path d="M473,50v -6" fill="none" stroke="black"/>
<path d="M482,56v -12" fill="none" stroke="black"/>
<path d="M491,50v -6" fill="none" stroke="black"/>
<path d="M500,50v -6" fill="none" stroke="black"/>
<path d="M509,50v -6" fill="none" stroke="black"/>
<path d="M518,50v -6" fill="none" stroke="black"/>
<path d="M527,56v -12" fill="none" stroke="black"/>
<path d="M74,446v -402" fill="none" stroke="black"/>
<path d="M87,428h -13" fill="none" stroke="black"/>
<path d="M81,416h -7" fill="none" stroke="black"/>
<path d="M81,404h -7" fill="none" stroke="black"/>
<path d="M81,391h -7" fill="none" stroke="black"/>
<path d="M87,379h -13" fill="none" stroke="black"/>
<path d="M81,367h -7" fill="none" stroke="black"/>
<path d="M81,354h -7" fill="none" stroke="black"/>
<path d="M81,342h -7" fill="none" stroke="black"/>
<path d="M87,330h -13" fill="none" stroke="black"/>
<path d="M81,317h -7" fill="none" stroke="black"/>
<path d="M81,305h -7" fill="none" stroke="black"/>
<path d="M81,293h -7" fill="none" stroke="black"/>
<path d="M87,280h -13" fill="none" stroke="black"/>
<path d="M81,268h -7" fill="none" stroke="black"/>
<path d="M81,256h -7" fill="none" stroke="black"/>
<path d="M81,244h -7" fill="none" stroke="black"/>
<path d="M87,231h -13" fill="none" stroke="black"/>
<path d="M81,219h -7" fill="none" stroke="black"/>
<path d="M81,207h -7" fill="none" stroke="black"/>
<path d="M81,194h -7" fill="none" stroke="black"/>
<path d="M87,182h -13" fill="none" stroke="black"/>
<path d="M81,170h -7" fill="none" stroke="black"/>
<path d="M81,157h -7" fill="none" stroke="black"/>
<path d="M81,145h -7" fill="none" stroke="black"/>
<path d="M87,133h -13" fill="none" stroke="black"/>
<path d="M81,120h -7" fill="none" stroke="black"/>
<path d="M81,108h -7" fill="none" stroke="black"/>
<path d="M81,96h -7" fill="none" stroke="black"/>
<path d="M87,84h -13" fill="none" stroke="black"/>
<path d="M87,428h -13" fill="none" stroke="black"/>
<path d="M81,440h -7" fill="none" stroke="black"/>
<path d="M87,84h -13" fill="none" stroke="black"/>
<path d="M81,71h -7" fill="none" stroke="black"/>
<path d="M81,59h -7" fill="none" stroke="black"/>
<path d="M81,47h -7" fill="none" stroke="black"/>
<text x="61" y="435" fill="black" font-size="18" font-family="Helvetica" font-weight="bold">
0
</text>
<text x="35" y="386" fill="black" font-size="18" font-family="Helvetica" font-weight="bold">
0.02
</text>
<text x="34" y="336" fill="black" font-size="18" font-family="Helvetica" font-weight="bold">
0.04
</text>
<text x="34" y="287" fill="black" font-size="18" font-family="Helvetica" font-weight="bold">
0.06
</text>
<text x="35" y="238" fill="black" font-size="18" font-family="Helvetica" font-weight="bold">
0.08
</text>
<text x="47" y="189" fill="black" font-size="18" font-family="Helvetica" font-weight="bold">
0.1
</text>
<text x="35" y="139" fill="black" font-size="18" font-family="Helvetica" font-weight="bold">
0.12
</text>
<text x="34" y="90" fill="black" font-size="18" font-family="Helvetica" font-weight="bold">
0.14
</text>
<path d="M77,428" fill="none" stroke="#99ff99" stroke-width="2"/>
<path d="M77,428" fill="none" stroke="#99ff99" stroke-width="2"/>
<g stroke="black" stroke-width="2" fill="none">
<line x1="76" y1="428" x2="77" y2="428"/>
</g>
<path d="M85,428" fill="none" stroke="#99ff99" stroke-width="2"/>
<path d="M85,428" fill="none" stroke="#99ff99" stroke-width="2"/>
<g stroke="black" stroke-width="2" fill="none">
<line x1="84" y1="428" x2="85" y2="428"/>
</g>
<path d="M93,428" fill="none" stroke="#99ff99" stroke-width="2"/>
<path d="M93,428" fill="none" stroke="#99ff99" stroke-width="2"/>
<g stroke="black" stroke-width="2" fill="none">
<line x1="92" y1="428" x2="93" y2="428"/>
</g>
<path d="M100,428" fill="none" stroke="#99ff99" stroke-width="2"/>
<path d="M100,428" fill="none" stroke="#99ff99" stroke-width="2"/>
<g stroke="black" stroke-width="2" fill="none">
<line x1="99" y1="428" x2="100" y2="428"/>
</g>
<path d="M108,428" fill="none" stroke="#99ff99" stroke-width="2"/>
<path d="M108,428" fill="none" stroke="#99ff99" stroke-width="2"/>
<g stroke="black" stroke-width="2" fill="none">
<line x1="107" y1="428" x2="108" y2="428"/>
</g>
<path d="M115,428" fill="none" stroke="#99ff99" stroke-width="2"/>
<path d="M115,428" fill="none" stroke="#99ff99" stroke-width="2"/>
<g stroke="black" stroke-width="2" fill="none">
<line x1="114" y1="428" x2="115" y2="428"/>
</g>
<path d="M123,428" fill="none" stroke="#99ff99" stroke-width="2"/>
<path d="M123,428" fill="none" stroke="#99ff99" stroke-width="2"/>
<g stroke="black" stroke-width="2" fill="none">
<line x1="122" y1="428" x2="123" y2="428"/>
</g>
<path d="M130,428" fill="none" stroke="#99ff99" stroke-width="2"/>
<path d="M130,428" fill="none" stroke="#99ff99" stroke-width="2"/>
<g stroke="black" stroke-width="2" fill="none">
<line x1="129" y1="428" x2="130" y2="428"/>
</g>
<path d="M138,428" fill="none" stroke="#99ff99" stroke-width="2"/>
<path d="M138,428" fill="none" stroke="#99ff99" stroke-width="2"/>
<g stroke="black" stroke-width="2" fill="none">
<line x1="137" y1="428" x2="138" y2="428"/>
</g>
<path d="M146,428" fill="none" stroke="#99ff99" stroke-width="2"/>
<path d="M146,428" fill="none" stroke="#99ff99" stroke-width="2"/>
<g stroke="black" stroke-width="2" fill="none">
<line x1="145" y1="428" x2="146" y2="428"/>
</g>
<path d="M153,428" fill="none" stroke="#99ff99" stroke-width="2"/>
<path d="M153,428" fill="none" stroke="#99ff99" stroke-width="2"/>
<g stroke="black" stroke-width="2" fill="none">
<line x1="152" y1="428" x2="153" y2="428"/>
</g>
<path d="M161,428" fill="none" stroke="#99ff99" stroke-width="2"/>
<path d="M161,428" fill="none" stroke="#99ff99" stroke-width="2"/>
<g stroke="black" stroke-width="2" fill="none">
<line x1="160" y1="428" x2="161" y2="428"/>
</g>
<path d="M168,428" fill="none" stroke="#99ff99" stroke-width="2"/>
<path d="M168,428" fill="none" stroke="#99ff99" stroke-width="2"/>
<g stroke="black" stroke-width="2" fill="none">
<line x1="167" y1="428" x2="168" y2="428"/>
</g>
<path d="M176,428" fill="none" stroke="#99ff99" stroke-width="2"/>
<path d="M176,428" fill="none" stroke="#99ff99" stroke-width="2"/>
<g stroke="black" stroke-width="2" fill="none">
<line x1="175" y1="428" x2="176" y2="428"/>
</g>
<path d="M183,428" fill="none" stroke="#99ff99" stroke-width="2"/>
<path d="M183,428" fill="none" stroke="#99ff99" stroke-width="2"/>
<g stroke="black" stroke-width="2" fill="none">
<line x1="182" y1="428" x2="183" y2="428"/>
</g>
<path d="M191,428" fill="none" stroke="#99ff99" stroke-width="2"/>
<path d="M191,428" fill="none" stroke="#99ff99" stroke-width="2"/>
<g stroke="black" stroke-width="2" fill="none">
<line x1="190" y1="428" x2="191" y2="428"/>
</g>
<path d="M198,428" fill="none" stroke="#99ff99" stroke-width="2"/>
<path d="M198,428" fill="none" stroke="#99ff99" stroke-width="2"/>
<g stroke="black" stroke-width="2" fill="none">
<line x1="197" y1="428" x2="198" y2="428"/>
</g>
<path d="M206,428" fill="none" stroke="#99ff99" stroke-width="2"/>
<path d="M206,428v -1" fill="none" stroke="#99ff99" stroke-width="2"/>
<g stroke="black" stroke-width="2" fill="none">
<line x1="205" y1="428" x2="206" y2="428"/>
</g>
<path d="M214,428v -1" fill="none" stroke="#99ff99" stroke-width="2"/>
<path d="M214,427" fill="none" stroke="#99ff99" stroke-width="2"/>
<g stroke="black" stroke-width="2" fill="none">
<line x1="213" y1="427" x2="214" y2="427"/>
</g>
<path d="M221,427" fill="none" stroke="#99ff99" stroke-width="2"/>
<path d="M221,427" fill="none" stroke="#99ff99" stroke-width="2"/>
<g stroke="black" stroke-width="2" fill="none">
<line x1="220" y1="427" x2="221" y2="427"/>
</g>
<path d="M229,427" fill="none" stroke="#99ff99" stroke-width="2"/>
<path d="M229,427v -1" fill="none" stroke="#99ff99" stroke-width="2"/>
<g stroke="black" stroke-width="2" fill="none">
<line x1="228" y1="427" x2="229" y2="427"/>
</g>
<path d="M236,426" fill="none" stroke="#99ff99" stroke-width="2"/>
<path d="M236,426" fill="none" stroke="#99ff99" stroke-width="2"/>
<g stroke="black" stroke-width="2" fill="none">
<line x1="235" y1="426" x2="236" y2="426"/>
</g>
<path d="M244,426" fill="none" stroke="#99ff99" stroke-width="2"/>
<path d="M244,426" fill="none" stroke="#99ff99" stroke-width="2"/>
<g stroke="black" stroke-width="2" fill="none">
<line x1="243" y1="426" x2="244" y2="426"/>
</g>
<path d="M251,426" fill="none" stroke="#99ff99" stroke-width="2"/>
<path d="M251,426v -1" fill="none" stroke="#99ff99" stroke-width="2"/>
<g stroke="black" stroke-width="2" fill="none">
<line x1="250" y1="426" x2="251" y2="426"/>
</g>
<path d="M259,425v -1" fill="none" stroke="#99ff99" stroke-width="2"/>
<path d="M259,424" fill="none" stroke="#99ff99" stroke-width="2"/>
<g stroke="black" stroke-width="2" fill="none">
<line x1="258" y1="424" x2="259" y2="424"/>
</g>
<path d="M266,424" fill="none" stroke="#99ff99" stroke-width="2"/>
<path d="M266,424" fill="none" stroke="#99ff99" stroke-width="2"/>
<g stroke="black" stroke-width="2" fill="none">
<line x1="265" y1="424" x2="266" y2="424"/>
</g>
<path d="M274,424" fill="none" stroke="#99ff99" stroke-width="2"/>
<path d="M274,424v -1" fill="none" stroke="#99ff99" stroke-width="2"/>
<g stroke="black" stroke-width="2" fill="none">
<line x1="273" y1="424" x2="274" y2="424"/>
</g>
<path d="M282,423" fill="none" stroke="#99ff99" stroke-width="2"/>
<path d="M282,423v -1" fill="none" stroke="#99ff99" stroke-width="2"/>
<g stroke="black" stroke-width="2" fill="none">
<line x1="281" y1="423" x2="282" y2="423"/>
</g>
<path d="M289,422" fill="none" stroke="#99ff99" stroke-width="2"/>
<path d="M289,422v -1" fill="none" stroke="#99ff99" stroke-width="2"/>
<g stroke="black" stroke-width="2" fill="none">
<line x1="288" y1="422" x2="289" y2="422"/>
</g>
<path d="M297,420" fill="none" stroke="#99ff99" stroke-width="2"/>
<path d="M297,420" fill="none" stroke="#99ff99" stroke-width="2"/>
<g stroke="black" stroke-width="2" fill="none">
<line x1="296" y1="420" x2="297" y2="420"/>
</g>
<path d="M304,420" fill="none" stroke="#99ff99" stroke-width="2"/>
<path d="M304,420" fill="none" stroke="#99ff99" stroke-width="2"/>
<g stroke="black" stroke-width="2" fill="none">
<line x1="303" y1="420" x2="304" y2="420"/>
</g>
<path d="M312,419" fill="none" stroke="#99ff99" stroke-width="2"/>
<path d="M312,419v -1" fill="none" stroke="#99ff99" stroke-width="2"/>
<g stroke="black" stroke-width="2" fill="none">
<line x1="311" y1="419" x2="312" y2="419"/>
</g>
<path d="M319,418" fill="none" stroke="#99ff99" stroke-width="2"/>
<path d="M319,418v -1" fill="none" stroke="#99ff99" stroke-width="2"/>
<g stroke="black" stroke-width="2" fill="none">
<line x1="318" y1="418" x2="319" y2="418"/>
</g>
<path d="M327,417v -1" fill="none" stroke="#99ff99" stroke-width="2"/>
<path d="M327,416" fill="none" stroke="#99ff99" stroke-width="2"/>
<g stroke="black" stroke-width="2" fill="none">
<line x1="326" y1="416" x2="327" y2="416"/>
</g>
<path d="M334,416v -1" fill="none" stroke="#99ff99" stroke-width="2"/>
<path d="M334,415" fill="none" stroke="#99ff99" stroke-width="2"/>
<g stroke="black" stroke-width="2" fill="none">
<line x1="333" y1="415" x2="334" y2="415"/>
</g>
<path d="M342,415v -1" fill="none" stroke="#99ff99" stroke-width="2"/>
<path d="M342,414" fill="none" stroke="#99ff99" stroke-width="2"/>
<g stroke="black" stroke-width="2" fill="none">
<line x1="341" y1="414" x2="342" y2="414"/>
</g>
<path d="M350,414v -1" fill="none" stroke="#99ff99" stroke-width="2"/>
<path d="M350,413v -1" fill="none" stroke="#99ff99" stroke-width="2"/>
<g stroke="black" stroke-width="2" fill="none">
<line x1="349" y1="413" x2="350" y2="413"/>
</g>
<path d="M357,412v -1" fill="none" stroke="#99ff99" stroke-width="2"/>
<path d="M357,411" fill="none" stroke="#99ff99" stroke-width="2"/>
<g stroke="black" stroke-width="2" fill="none">
<line x1="356" y1="411" x2="357" y2="411"/>
</g>
<path d="M365,411v -1" fill="none" stroke="#99ff99" stroke-width="2"/>
<path d="M365,410" fill="none" stroke="#99ff99" stroke-width="2"/>
<g stroke="black" stroke-width="2" fill="none">
<line x1="364" y1="410" x2="365" y2="410"/>
</g>
<path d="M372,411v -1" fill="none" stroke="#99ff99" stroke-width="2"/>
<path d="M372,410" fill="none" stroke="#99ff99" stroke-width="2"/>
<g stroke="black" stroke-width="2" fill="none">
<line x1="371" y1="410" x2="372" y2="410"/>
</g>
<path d="M380,409" fill="none" stroke="#99ff99" stroke-width="2"/>
<path d="M380,409v -1" fill="none" stroke="#99ff99" stroke-width="2"/>
<g stroke="black" stroke-width="2" fill="none">
<line x1="379" y1="409" x2="380" y2="409"/>
</g>
<path d="M387,407v -1" fill="none" stroke="#99ff99" stroke-width="2"/>
<path d="M387,406" fill="none" stroke="#99ff99" stroke-width="2"/>
<g stroke="black" stroke-width="2" fill="none">
<line x1="386" y1="406" x2="387" y2="406"/>
</g>
<path d="M395,405v -1" fill="none" stroke="#99ff99" stroke-width="2"/>
<path d="M395,404" fill="none" stroke="#99ff99" stroke-width="2"/>
<g stroke="black" stroke-width="2" fill="none">
<line x1="394" y1="404" x2="395" y2="404"/>
</g>
<path d="M403,404" fill="none" stroke="#99ff99" stroke-width="2"/>
<path d="M403,404v -1" fill="none" stroke="#99ff99" stroke-width="2"/>
<g stroke="black" stroke-width="2" fill="none">
<line x1="402" y1="404" x2="403" y2="404"/>
</g>
<path d="M410,402v -1" fill="none" stroke="#99ff99" stroke-width="2"/>
<path d="M410,401v -1" fill="none" stroke="#99ff99" stroke-width="2"/>
<g stroke="black" stroke-width="2" fill="none">
<line x1="409" y1="401" x2="410" y2="401"/>
</g>
<path d="M418,400v -1" fill="none" stroke="#99ff99" stroke-width="2"/>
<path d="M418,399" fill="none" stroke="#99ff99" stroke-width="2"/>
<g stroke="black" stroke-width="2" fill="none">
<line x1="417" y1="399" x2="418" y2="399"/>
</g>
<path d="M425,397v -1" fill="none" stroke="#99ff99" stroke-width="2"/>
<path d="M425,396v -1" fill="none" stroke="#99ff99" stroke-width="2"/>
<g stroke="black" stroke-width="2" fill="none">
<line x1="424" y1="396" x2="425" y2="396"/>
</g>
<path d="M433,394v -1" fill="none" stroke="#99ff99" stroke-width="2"/>
<path d="M433,393" fill="none" stroke="#99ff99" stroke-width="2"/>
<g stroke="black" stroke-width="2" fill="none">
<line x1="432" y1="393" x2="433" y2="393"/>
</g>
<path d="M440,393v -1" fill="none" stroke="#99ff99" stroke-width="2"/>
<path d="M440,392" fill="none" stroke="#99ff99" stroke-width="2"/>
<g stroke="black" stroke-width="2" fill="none">
<line x1="439" y1="392" x2="440" y2="392"/>
</g>
<path d="M448,389v -1" fill="none" stroke="#99ff99" stroke-width="2"/>
<path d="M448,388v -1" fill="none" stroke="#99ff99" stroke-width="2"/>
<g stroke="black" stroke-width="2" fill="none">
<line x1="447" y1="388" x2="448" y2="388"/>
</g>
<path d="M455,382v -1" fill="none" stroke="#99ff99" stroke-width="2"/>
<path d="M455,381v -1" fill="none" stroke="#99ff99" stroke-width="2"/>
<g stroke="black" stroke-width="2" fill="none">
<line x1="454" y1="381" x2="455" y2="381"/>
</g>
<path d="M463,380v -1" fill="none" stroke="#99ff99" stroke-width="2"/>
<path d="M463,379v -1" fill="none" stroke="#99ff99" stroke-width="2"/>
<g stroke="black" stroke-width="2" fill="none">
<line x1="462" y1="379" x2="463" y2="379"/>
</g>
<path d="M471,370v -1" fill="none" stroke="#99ff99" stroke-width="2"/>
<path d="M471,369v -1" fill="none" stroke="#99ff99" stroke-width="2"/>
<g stroke="black" stroke-width="2" fill="none">
<line x1="470" y1="369" x2="471" y2="369"/>
</g>
<path d="M478,357v -2" fill="none" stroke="#99ff99" stroke-width="2"/>
<path d="M478,355v -1" fill="none" stroke="#99ff99" stroke-width="2"/>
<g stroke="black" stroke-width="2" fill="none">
<line x1="477" y1="355" x2="478" y2="355"/>
</g>
<path d="M486,332v -1" fill="none" stroke="#99ff99" stroke-width="2"/>
<path d="M486,331v -2" fill="none" stroke="#99ff99" stroke-width="2"/>
<g stroke="black" stroke-width="2" fill="none">
<line x1="485" y1="331" x2="486" y2="331"/>
</g>
<path d="M493,266v -1" fill="none" stroke="#99ff99" stroke-width="2"/>
<path d="M493,265v -2" fill="none" stroke="#99ff99" stroke-width="2"/>
<g stroke="black" stroke-width="2" fill="none">
<line x1="492" y1="265" x2="493" y2="265"/>
</g>
<path d="M516,138v -2" fill="none" stroke="#99ff99" stroke-width="2"/>
<path d="M516,136v -2" fill="none" stroke="#99ff99" stroke-width="2"/>
<g stroke="black" stroke-width="2" fill="none">
<line x1="515" y1="136" x2="516" y2="136"/>
</g>
<path d="M523,417v -1" fill="none" stroke="#99ff99" stroke-width="2"/>
<path d="M523,416" fill="none" stroke="#99ff99" stroke-width="2"/>
<g stroke="black" stroke-width="2" fill="none">
<line x1="522" y1="416" x2="523" y2="416"/>
</g>
<path d="M74,428h 136v -1h 22v -1h 23v -2h 23v -1h 7v -1h 8v -2h 15v -1h 8v -1h 7v -2h 8v -1h 7v -1h 8v -1h 7v -2h 8v -1h 15v -1h 8v -3h 7v -2h 15v -3h 8v -2h 7v -3h 8v -3h 8v -1h 7v -4h 8v -7h 7v -2h 8v -10h 7v -14h 8v -24h 7v -66h 8v -221h 15v 92h
 8v 280h 7v 12z" fill="#99ff99"/>
<path d="M74,428h 136v -1h 22v -1h 23v -2h 23v -1h 7v -1h 8v -2h 15v -1h 8v -1h 7v -2h 8v -1h 7v -1h 8v -1h 7v -2h 8v -1h 15v -1h 8v -3h 7v -2h 15v -3h 8v -2h 7v -3h 8v -3h 8v -1h 7v -4h 8v -7h 7v -2h 8v -10h 7v -14h 8v -24h 7v -66h 8v -221"
 fill="none" stroke="#99ff99" stroke-width="2"/>
<path d="M512,44v 92" fill="none" stroke="#99ff99" stroke-width="2"/>
<path d="M512,136h 8v 280h 7" fill="none" stroke="#99ff99" stroke-width="2"/>
<path d="M74,428h 2" fill="none" stroke="#ff0099"/>
<path d="M79,428h 2" fill="none" stroke="#ff0099"/>
<g stroke="#ff0099" stroke-width="1" fill="#ff0099">
<circle cx=" 77" cy=" 428" r=" 1.5"/>
</g>
<path d="M89,428h 2" fill="none" stroke="#ff0099"/>
<path d="M94,428h 2" fill="none" stroke="#ff0099"/>
<g stroke="#ff0099" stroke-width="1" fill="#ff0099">
<circle cx=" 93" cy=" 428" r=" 1.5"/>
</g>
<path d="M96,428h 3" fill="none" stroke="#ff0099"/>
<path d="M101,428h 3" fill="none" stroke="#ff0099"/>
<g stroke="#ff0099" stroke-width="1" fill="#ff0099">
<circle cx=" 100" cy=" 428" r=" 1.5"/>
</g>
<path d="M104,428h 3" fill="none" stroke="#ff0099"/>
<path d="M109,428h 2" fill="none" stroke="#ff0099"/>
<g stroke="#ff0099" stroke-width="1" fill="#ff0099">
<circle cx=" 108" cy=" 428" r=" 1.5"/>
</g>
<path d="M111,428h 3" fill="none" stroke="#ff0099"/>
<path d="M116,428h 3" fill="none" stroke="#ff0099"/>
<g stroke="#ff0099" stroke-width="1" fill="#ff0099">
<circle cx=" 115" cy=" 428" r=" 1.5"/>
</g>
<path d="M119,428h 3" fill="none" stroke="#ff0099"/>
<path d="M124,428h 3" fill="none" stroke="#ff0099"/>
<g stroke="#ff0099" stroke-width="1" fill="#ff0099">
<circle cx=" 123" cy=" 428" r=" 1.5"/>
</g>
<path d="M127,428h 2" fill="none" stroke="#ff0099"/>
<path d="M132,428h 2" fill="none" stroke="#ff0099"/>
<g stroke="#ff0099" stroke-width="1" fill="#ff0099">
<circle cx=" 130" cy=" 428" r=" 1.5"/>
</g>
<path d="M134,428h 3" fill="none" stroke="#ff0099"/>
<path d="M139,428h 3" fill="none" stroke="#ff0099"/>
<g stroke="#ff0099" stroke-width="1" fill="#ff0099">
<circle cx=" 138" cy=" 428" r=" 1.5"/>
</g>
<path d="M142,428h 2" fill="none" stroke="#ff0099"/>
<path d="M147,428h 2" fill="none" stroke="#ff0099"/>
<g stroke="#ff0099" stroke-width="1" fill="#ff0099">
<circle cx=" 146" cy=" 428" r=" 1.5"/>
</g>
<path d="M149,428h 3" fill="none" stroke="#ff0099"/>
<path d="M154,428h 3" fill="none" stroke="#ff0099"/>
<g stroke="#ff0099" stroke-width="1" fill="#ff0099">
<circle cx=" 153" cy=" 428" r=" 1.5"/>
</g>
<path d="M157,428h 2" fill="none" stroke="#ff0099"/>
<path d="M162,428h 2" fill="none" stroke="#ff0099"/>
<g stroke="#ff0099" stroke-width="1" fill="#ff0099">
<circle cx=" 161" cy=" 428" r=" 1.5"/>
</g>
<path d="M164,428h 3" fill="none" stroke="#ff0099"/>
<path d="M169,428h 3" fill="none" stroke="#ff0099"/>
<g stroke="#ff0099" stroke-width="1" fill="#ff0099">
<circle cx=" 168" cy=" 428" r=" 1.5"/>
</g>
<path d="M172,428h 3" fill="none" stroke="#ff0099"/>
<path d="M177,428h 3" fill="none" stroke="#ff0099"/>
<g stroke="#ff0099" stroke-width="1" fill="#ff0099">
<circle cx=" 176" cy=" 428" r=" 1.5"/>
</g>
<path d="M180,428h 2" fill="none" stroke="#ff0099"/>
<path d="M184,428h 3" fill="none" stroke="#ff0099"/>
<g stroke="#ff0099" stroke-width="1" fill="#ff0099">
<circle cx=" 183" cy=" 428" r=" 1.5"/>
</g>
<path d="M187,428h 3" fill="none" stroke="#ff0099"/>
<path d="M192,428h 3" fill="none" stroke="#ff0099"/>
<g stroke="#ff0099" stroke-width="1" fill="#ff0099">
<circle cx=" 191" cy=" 428" r=" 1.5"/>
</g>
<path d="M195,428h 2" fill="none" stroke="#ff0099"/>
<path d="M200,428h 2" fill="none" stroke="#ff0099"/>
<g stroke="#ff0099" stroke-width="1" fill="#ff0099">
<circle cx=" 198" cy=" 428" r=" 1.5"/>
</g>
<path d="M202,427h 3" fill="none" stroke="#ff0099"/>
<path d="M207,427h 3" fill="none" stroke="#ff0099"/>
<g stroke="#ff0099" stroke-width="1" fill="#ff0099">
<circle cx=" 206" cy=" 427" r=" 1.5"/>
</g>
<path d="M210,427h 2" fill="none" stroke="#ff0099"/>
<path d="M215,427h 2" fill="none" stroke="#ff0099"/>
<g stroke="#ff0099" stroke-width="1" fill="#ff0099">
<circle cx=" 214" cy=" 427" r=" 1.5"/>
</g>
<path d="M217,427h 3" fill="none" stroke="#ff0099"/>
<path d="M222,427h 3" fill="none" stroke="#ff0099"/>
<g stroke="#ff0099" stroke-width="1" fill="#ff0099">
<circle cx=" 221" cy=" 427" r=" 1.5"/>
</g>
<path d="M225,426h 3" fill="none" stroke="#ff0099"/>
<path d="M230,426h 2" fill="none" stroke="#ff0099"/>
<g stroke="#ff0099" stroke-width="1" fill="#ff0099">
<circle cx=" 229" cy=" 426" r=" 1.5"/>
</g>
<path d="M232,426h 3" fill="none" stroke="#ff0099"/>
<path d="M237,426h 3" fill="none" stroke="#ff0099"/>
<g stroke="#ff0099" stroke-width="1" fill="#ff0099">
<circle cx=" 236" cy=" 426" r=" 1.5"/>
</g>
<path d="M240,425h 3" fill="none" stroke="#ff0099"/>
<path d="M245,425h 3" fill="none" stroke="#ff0099"/>
<g stroke="#ff0099" stroke-width="1" fill="#ff0099">
<circle cx=" 244" cy=" 425" r=" 1.5"/>
</g>
<path d="M248,424h 2" fill="none" stroke="#ff0099"/>
<path d="M252,424h 3" fill="none" stroke="#ff0099"/>
<g stroke="#ff0099" stroke-width="1" fill="#ff0099">
<circle cx=" 251" cy=" 424" r=" 1.5"/>
</g>
<path d="M255,424h 3" fill="none" stroke="#ff0099"/>
<path d="M260,424h 3" fill="none" stroke="#ff0099"/>
<g stroke="#ff0099" stroke-width="1" fill="#ff0099">
<circle cx=" 259" cy=" 424" r=" 1.5"/>
</g>
<path d="M263,422h 2" fill="none" stroke="#ff0099"/>
<path d="M268,422h 2" fill="none" stroke="#ff0099"/>
<g stroke="#ff0099" stroke-width="1" fill="#ff0099">
<circle cx=" 266" cy=" 422" r=" 1.5"/>
</g>
<path d="M270,421h 3" fill="none" stroke="#ff0099"/>
<path d="M275,421h 3" fill="none" stroke="#ff0099"/>
<g stroke="#ff0099" stroke-width="1" fill="#ff0099">
<circle cx=" 274" cy=" 421" r=" 1.5"/>
</g>
<path d="M278,420h 2" fill="none" stroke="#ff0099"/>
<path d="M283,420h 2" fill="none" stroke="#ff0099"/>
<g stroke="#ff0099" stroke-width="1" fill="#ff0099">
<circle cx=" 282" cy=" 420" r=" 1.5"/>
</g>
<path d="M285,419h 3" fill="none" stroke="#ff0099"/>
<path d="M290,419h 3" fill="none" stroke="#ff0099"/>
<g stroke="#ff0099" stroke-width="1" fill="#ff0099">
<circle cx=" 289" cy=" 419" r=" 1.5"/>
</g>
<path d="M293,417h 3" fill="none" stroke="#ff0099"/>
<path d="M298,417h 2" fill="none" stroke="#ff0099"/>
<g stroke="#ff0099" stroke-width="1" fill="#ff0099">
<circle cx=" 297" cy=" 417" r=" 1.5"/>
</g>
<path d="M300,416h 3" fill="none" stroke="#ff0099"/>
<path d="M305,416h 3" fill="none" stroke="#ff0099"/>
<g stroke="#ff0099" stroke-width="1" fill="#ff0099">
<circle cx=" 304" cy=" 416" r=" 1.5"/>
</g>
<path d="M308,414h 3" fill="none" stroke="#ff0099"/>
<path d="M313,414h 3" fill="none" stroke="#ff0099"/>
<g stroke="#ff0099" stroke-width="1" fill="#ff0099">
<circle cx=" 312" cy=" 414" r=" 1.5"/>
</g>
<path d="M316,412h 2" fill="none" stroke="#ff0099"/>
<path d="M321,412h 2" fill="none" stroke="#ff0099"/>
<g stroke="#ff0099" stroke-width="1" fill="#ff0099">
<circle cx=" 319" cy=" 412" r=" 1.5"/>
</g>
<path d="M323,409h 3" fill="none" stroke="#ff0099"/>
<path d="M328,409h 3" fill="none" stroke="#ff0099"/>
<g stroke="#ff0099" stroke-width="1" fill="#ff0099">
<circle cx=" 327" cy=" 409" r=" 1.5"/>
</g>
<path d="M331,406h 2" fill="none" stroke="#ff0099"/>
<path d="M336,406h 2" fill="none" stroke="#ff0099"/>
<g stroke="#ff0099" stroke-width="1" fill="#ff0099">
<circle cx=" 334" cy=" 406" r=" 1.5"/>
</g>
<path d="M338,404h 3" fill="none" stroke="#ff0099"/>
<path d="M343,404h 3" fill="none" stroke="#ff0099"/>
<g stroke="#ff0099" stroke-width="1" fill="#ff0099">
<circle cx=" 342" cy=" 404" r=" 1.5"/>
</g>
<path d="M346,402h 2" fill="none" stroke="#ff0099"/>
<path d="M351,402h 2" fill="none" stroke="#ff0099"/>
<g stroke="#ff0099" stroke-width="1" fill="#ff0099">
<circle cx=" 350" cy=" 402" r=" 1.5"/>
</g>
<path d="M353,399h 3" fill="none" stroke="#ff0099"/>
<path d="M358,399h 3" fill="none" stroke="#ff0099"/>
<g stroke="#ff0099" stroke-width="1" fill="#ff0099">
<circle cx=" 357" cy=" 399" r=" 1.5"/>
</g>
<path d="M361,397h 3" fill="none" stroke="#ff0099"/>
<path d="M366,397h 3" fill="none" stroke="#ff0099"/>
<g stroke="#ff0099" stroke-width="1" fill="#ff0099">
<circle cx=" 365" cy=" 397" r=" 1.5"/>
</g>
<path d="M369,393h 2" fill="none" stroke="#ff0099"/>
<path d="M373,393h 3" fill="none" stroke="#ff0099"/>
<g stroke="#ff0099" stroke-width="1" fill="#ff0099">
<circle cx=" 372" cy=" 393" r=" 1.5"/>
</g>
<path d="M376,391h 3" fill="none" stroke="#ff0099"/>
<path d="M381,391h 3" fill="none" stroke="#ff0099"/>
<g stroke="#ff0099" stroke-width="1" fill="#ff0099">
<circle cx=" 380" cy=" 391" r=" 1.5"/>
</g>
<path d="M384,387h 2" fill="none" stroke="#ff0099"/>
<path d="M389,387h 2" fill="none" stroke="#ff0099"/>
<g stroke="#ff0099" stroke-width="1" fill="#ff0099">
<circle cx=" 387" cy=" 387" r=" 1.5"/>
</g>
<path d="M391,384h 3" fill="none" stroke="#ff0099"/>
<path d="M396,384h 3" fill="none" stroke="#ff0099"/>
<g stroke="#ff0099" stroke-width="1" fill="#ff0099">
<circle cx=" 395" cy=" 384" r=" 1.5"/>
</g>
<path d="M399,380h 2" fill="none" stroke="#ff0099"/>
<path d="M404,380h 2" fill="none" stroke="#ff0099"/>
<g stroke="#ff0099" stroke-width="1" fill="#ff0099">
<circle cx=" 403" cy=" 380" r=" 1.5"/>
</g>
<path d="M406,376h 3" fill="none" stroke="#ff0099"/>
<path d="M411,376h 3" fill="none" stroke="#ff0099"/>
<g stroke="#ff0099" stroke-width="1" fill="#ff0099">
<circle cx=" 410" cy=" 376" r=" 1.5"/>
</g>
<path d="M414,371h 2" fill="none" stroke="#ff0099"/>
<path d="M419,371h 2" fill="none" stroke="#ff0099"/>
<g stroke="#ff0099" stroke-width="1" fill="#ff0099">
<circle cx=" 418" cy=" 371" r=" 1.5"/>
</g>
<path d="M421,366h 3" fill="none" stroke="#ff0099"/>
<path d="M426,366h 3" fill="none" stroke="#ff0099"/>
<g stroke="#ff0099" stroke-width="1" fill="#ff0099">
<circle cx=" 425" cy=" 366" r=" 1.5"/>
</g>
<path d="M429,361h 3" fill="none" stroke="#ff0099"/>
<path d="M434,361h 3" fill="none" stroke="#ff0099"/>
<g stroke="#ff0099" stroke-width="1" fill="#ff0099">
<circle cx=" 433" cy=" 361" r=" 1.5"/>
</g>
<path d="M437,354h 2" fill="none" stroke="#ff0099"/>
<path d="M441,354h 3" fill="none" stroke="#ff0099"/>
<g stroke="#ff0099" stroke-width="1" fill="#ff0099">
<circle cx=" 440" cy=" 354" r=" 1.5"/>
</g>
<path d="M444,346h 3" fill="none" stroke="#ff0099"/>
<path d="M449,346h 3" fill="none" stroke="#ff0099"/>
<g stroke="#ff0099" stroke-width="1" fill="#ff0099">
<circle cx=" 448" cy=" 346" r=" 1.5"/>
</g>
<path d="M452,337h 2" fill="none" stroke="#ff0099"/>
<path d="M457,337h 2" fill="none" stroke="#ff0099"/>
<g stroke="#ff0099" stroke-width="1" fill="#ff0099">
<circle cx=" 455" cy=" 337" r=" 1.5"/>
</g>
<path d="M459,327h 3" fill="none" stroke="#ff0099"/>
<path d="M464,327h 3" fill="none" stroke="#ff0099"/>
<g stroke="#ff0099" stroke-width="1" fill="#ff0099">
<circle cx=" 463" cy=" 327" r=" 1.5"/>
</g>
<path d="M467,313h 2" fill="none" stroke="#ff0099"/>
<path d="M472,313h 2" fill="none" stroke="#ff0099"/>
<g stroke="#ff0099" stroke-width="1" fill="#ff0099">
<circle cx=" 471" cy=" 313" r=" 1.5"/>
</g>
<path d="M474,295h 3" fill="none" stroke="#ff0099"/>
<path d="M479,295h 3" fill="none" stroke="#ff0099"/>
<g stroke="#ff0099" stroke-width="1" fill="#ff0099">
<circle cx=" 478" cy=" 295" r=" 1.5"/>
</g>
<path d="M482,265h 3" fill="none" stroke="#ff0099"/>
<path d="M487,265h 2" fill="none" stroke="#ff0099"/>
<g stroke="#ff0099" stroke-width="1" fill="#ff0099">
<circle cx=" 486" cy=" 265" r=" 1.5"/>
</g>
<path d="M489,207h 3" fill="none" stroke="#ff0099"/>
<path d="M494,207h 3" fill="none" stroke="#ff0099"/>
<g stroke="#ff0099" stroke-width="1" fill="#ff0099">
<circle cx=" 493" cy=" 207" r=" 1.5"/>
</g>
<path d="M497,64h 3" fill="none" stroke="#ff0099"/>
<path d="M502,64h 3" fill="none" stroke="#ff0099"/>
<g stroke="#ff0099" stroke-width="1" fill="#ff0099">
<circle cx=" 501" cy=" 64" r=" 1.5"/>
</g>
<path d="M505,67h 2" fill="none" stroke="#ff0099"/>
<path d="M509,67h 3" fill="none" stroke="#ff0099"/>
<g stroke="#ff0099" stroke-width="1" fill="#ff0099">
<circle cx=" 508" cy=" 67" r=" 1.5"/>
</g>
<path d="M512,373h 3" fill="none" stroke="#ff0099"/>
<path d="M517,373h 3" fill="none" stroke="#ff0099"/>
<g stroke="#ff0099" stroke-width="1" fill="#ff0099">
<circle cx=" 516" cy=" 373" r=" 1.5"/>
</g>
<path d="M520,427h 2" fill="none" stroke="#ff0099"/>
<path d="M525,427h 2" fill="none" stroke="#ff0099"/>
<g stroke="#ff0099" stroke-width="1" fill="#ff0099">
<circle cx=" 523" cy=" 427" r=" 1.5"/>
</g>
<rect x="357" y="59" width="142" height="99" fill="white"/>
<text x="360" y="82" fill="black" font-size="17" font-family="Helvetica" font-weight="bold">
All
</text>
<text x="457" y="115" fill="black" font-size="17" font-family="Helvetica" font-weight="bold">
 ee
</text>
<text x="440" y="115" fill="black" font-size="17" font-family="Times">
&#8594;
</text>
<text x="392" y="115" fill="black" font-size="17" font-family="Helvetica" font-weight="bold">
MC Z 
</text>
<path d="M362,109h 25" fill="none" stroke="#ff0099"/>
<g stroke="#ff0099" stroke-width="1" fill="#ff0099">
<circle cx=" 375" cy=" 109" r=" 1.5"/>
</g>
<text x="455" y="147" fill="black" font-size="17" font-family="Helvetica" font-weight="bold">
 + jet
</text>
<text x="447" y="147" fill="black" font-size="17" font-family="Times">
&#0947;
</text>
<text x="392" y="147" fill="black" font-size="17" font-family="Helvetica" font-weight="bold">
signal 
</text>
<path d="M362,154h 25v -24h -25z" fill="#99ff99"/>
<path d="M362,130h 25" fill="none" stroke="#99ff99" stroke-width="2"/>
<path d="M362,154h 25" fill="none" stroke="#99ff99" stroke-width="2"/>
<path d="M387,154v -24" fill="none" stroke="#99ff99" stroke-width="2"/>
<path d="M362,154v -24" fill="none" stroke="#99ff99" stroke-width="2"/>
<text x="300" y="34" fill="black" font-size="17" font-family="Helvetica" font-weight="bold">
=8 TeV
</text>
<text x="291" y="34" fill="black" font-size="17" font-family="Helvetica" font-weight="bold">
s
</text>
<path d="M285,25l 2, 10" fill="none" stroke="black" stroke-width="2"/>
<path d="M287,35l 2, -14" fill="none" stroke="black"/>
<path d="M289,21h 11" fill="none" stroke="black"/>
<text x="142" y="34" fill="black" font-size="17" font-family="Helvetica" font-weight="bold">
CMS Preliminary 
</text></svg>
