<?xml version="1.0" standalone="no"?>
<svg width="567" height="496" viewBox="0 0 567 496" xmlns="http://www.w3.org/2000/svg">
<title>
../src/TagAndProbeZ/plots_mcZee_mcGJet_withEtaW/hlt30//r9PhotEE.svg
</title>
<desc>
Creator: ROOT Version 5.32/00
CreationDate: Sat Sep 27 22:34:46 2014</desc>
<defs>
</defs>
<rect x="0" y="0" width="567" height="496" fill="white"/>
<rect x="74" y="44" width="453" height="402" fill="white"/>
<rect x="74" y="44" width="453" height="402" fill="none" stroke="black"/>
<rect x="74" y="44" width="453" height="402" fill="white"/>
<rect x="74" y="44" width="453" height="402" fill="none" stroke="black"/>
<path d="M74,428h 2" fill="none" stroke="#ff0099"/>
<path d="M79,428h 2" fill="none" stroke="#ff0099"/>
<g stroke="#ff0099" stroke-width="1" fill="#ff0099">
<circle cx=" 77" cy=" 428" r=" 1.5"/>
</g>
<path d="M89,428h 2" fill="none" stroke="#ff0099"/>
<path d="M94,428h 2" fill="none" stroke="#ff0099"/>
<g stroke="#ff0099" stroke-width="1" fill="#ff0099">
<circle cx=" 93" cy=" 428" r=" 1.5"/>
</g>
<path d="M96,428h 3" fill="none" stroke="#ff0099"/>
<path d="M101,428h 3" fill="none" stroke="#ff0099"/>
<g stroke="#ff0099" stroke-width="1" fill="#ff0099">
<circle cx=" 100" cy=" 428" r=" 1.5"/>
</g>
<path d="M104,428h 3" fill="none" stroke="#ff0099"/>
<path d="M109,428h 2" fill="none" stroke="#ff0099"/>
<g stroke="#ff0099" stroke-width="1" fill="#ff0099">
<circle cx=" 108" cy=" 428" r=" 1.5"/>
</g>
<path d="M111,428h 3" fill="none" stroke="#ff0099"/>
<path d="M116,428h 3" fill="none" stroke="#ff0099"/>
<g stroke="#ff0099" stroke-width="1" fill="#ff0099">
<circle cx=" 115" cy=" 428" r=" 1.5"/>
</g>
<path d="M119,428h 3" fill="none" stroke="#ff0099"/>
<path d="M124,428h 3" fill="none" stroke="#ff0099"/>
<g stroke="#ff0099" stroke-width="1" fill="#ff0099">
<circle cx=" 123" cy=" 428" r=" 1.5"/>
</g>
<path d="M127,428h 2" fill="none" stroke="#ff0099"/>
<path d="M132,428h 2" fill="none" stroke="#ff0099"/>
<g stroke="#ff0099" stroke-width="1" fill="#ff0099">
<circle cx=" 130" cy=" 428" r=" 1.5"/>
</g>
<path d="M134,428h 3" fill="none" stroke="#ff0099"/>
<path d="M139,428h 3" fill="none" stroke="#ff0099"/>
<g stroke="#ff0099" stroke-width="1" fill="#ff0099">
<circle cx=" 138" cy=" 428" r=" 1.5"/>
</g>
<path d="M142,428h 2" fill="none" stroke="#ff0099"/>
<path d="M147,428h 2" fill="none" stroke="#ff0099"/>
<g stroke="#ff0099" stroke-width="1" fill="#ff0099">
<circle cx=" 146" cy=" 428" r=" 1.5"/>
</g>
<path d="M149,428h 3" fill="none" stroke="#ff0099"/>
<path d="M154,428h 3" fill="none" stroke="#ff0099"/>
<g stroke="#ff0099" stroke-width="1" fill="#ff0099">
<circle cx=" 153" cy=" 428" r=" 1.5"/>
</g>
<path d="M157,428h 2" fill="none" stroke="#ff0099"/>
<path d="M162,428h 2" fill="none" stroke="#ff0099"/>
<g stroke="#ff0099" stroke-width="1" fill="#ff0099">
<circle cx=" 161" cy=" 428" r=" 1.5"/>
</g>
<path d="M164,428h 3" fill="none" stroke="#ff0099"/>
<path d="M169,428h 3" fill="none" stroke="#ff0099"/>
<g stroke="#ff0099" stroke-width="1" fill="#ff0099">
<circle cx=" 168" cy=" 428" r=" 1.5"/>
</g>
<path d="M172,428h 3" fill="none" stroke="#ff0099"/>
<path d="M177,428h 3" fill="none" stroke="#ff0099"/>
<g stroke="#ff0099" stroke-width="1" fill="#ff0099">
<circle cx=" 176" cy=" 428" r=" 1.5"/>
</g>
<path d="M180,428h 2" fill="none" stroke="#ff0099"/>
<path d="M184,428h 3" fill="none" stroke="#ff0099"/>
<g stroke="#ff0099" stroke-width="1" fill="#ff0099">
<circle cx=" 183" cy=" 428" r=" 1.5"/>
</g>
<path d="M187,428h 3" fill="none" stroke="#ff0099"/>
<path d="M192,428h 3" fill="none" stroke="#ff0099"/>
<g stroke="#ff0099" stroke-width="1" fill="#ff0099">
<circle cx=" 191" cy=" 428" r=" 1.5"/>
</g>
<path d="M195,428h 2" fill="none" stroke="#ff0099"/>
<path d="M200,428h 2" fill="none" stroke="#ff0099"/>
<g stroke="#ff0099" stroke-width="1" fill="#ff0099">
<circle cx=" 198" cy=" 428" r=" 1.5"/>
</g>
<path d="M202,428h 3" fill="none" stroke="#ff0099"/>
<path d="M207,428h 3" fill="none" stroke="#ff0099"/>
<g stroke="#ff0099" stroke-width="1" fill="#ff0099">
<circle cx=" 206" cy=" 428" r=" 1.5"/>
</g>
<path d="M210,428h 2" fill="none" stroke="#ff0099"/>
<path d="M215,428h 2" fill="none" stroke="#ff0099"/>
<g stroke="#ff0099" stroke-width="1" fill="#ff0099">
<circle cx=" 214" cy=" 428" r=" 1.5"/>
</g>
<path d="M217,428h 3" fill="none" stroke="#ff0099"/>
<path d="M222,428h 3" fill="none" stroke="#ff0099"/>
<g stroke="#ff0099" stroke-width="1" fill="#ff0099">
<circle cx=" 221" cy=" 428" r=" 1.5"/>
</g>
<path d="M225,428h 3" fill="none" stroke="#ff0099"/>
<path d="M230,428h 2" fill="none" stroke="#ff0099"/>
<g stroke="#ff0099" stroke-width="1" fill="#ff0099">
<circle cx=" 229" cy=" 428" r=" 1.5"/>
</g>
<path d="M232,428h 3" fill="none" stroke="#ff0099"/>
<path d="M237,428h 3" fill="none" stroke="#ff0099"/>
<g stroke="#ff0099" stroke-width="1" fill="#ff0099">
<circle cx=" 236" cy=" 428" r=" 1.5"/>
</g>
<path d="M240,428h 3" fill="none" stroke="#ff0099"/>
<path d="M245,428h 3" fill="none" stroke="#ff0099"/>
<g stroke="#ff0099" stroke-width="1" fill="#ff0099">
<circle cx=" 244" cy=" 428" r=" 1.5"/>
</g>
<path d="M248,427h 2" fill="none" stroke="#ff0099"/>
<path d="M252,427h 3" fill="none" stroke="#ff0099"/>
<g stroke="#ff0099" stroke-width="1" fill="#ff0099">
<circle cx=" 251" cy=" 427" r=" 1.5"/>
</g>
<path d="M255,428h 3" fill="none" stroke="#ff0099"/>
<path d="M260,428h 3" fill="none" stroke="#ff0099"/>
<g stroke="#ff0099" stroke-width="1" fill="#ff0099">
<circle cx=" 259" cy=" 428" r=" 1.5"/>
</g>
<path d="M263,427h 2" fill="none" stroke="#ff0099"/>
<path d="M268,427h 2" fill="none" stroke="#ff0099"/>
<g stroke="#ff0099" stroke-width="1" fill="#ff0099">
<circle cx=" 266" cy=" 427" r=" 1.5"/>
</g>
<path d="M270,427h 3" fill="none" stroke="#ff0099"/>
<path d="M275,427h 3" fill="none" stroke="#ff0099"/>
<g stroke="#ff0099" stroke-width="1" fill="#ff0099">
<circle cx=" 274" cy=" 427" r=" 1.5"/>
</g>
<path d="M278,427h 2" fill="none" stroke="#ff0099"/>
<path d="M283,427h 2" fill="none" stroke="#ff0099"/>
<g stroke="#ff0099" stroke-width="1" fill="#ff0099">
<circle cx=" 282" cy=" 427" r=" 1.5"/>
</g>
<path d="M285,427h 3" fill="none" stroke="#ff0099"/>
<path d="M290,427h 3" fill="none" stroke="#ff0099"/>
<g stroke="#ff0099" stroke-width="1" fill="#ff0099">
<circle cx=" 289" cy=" 427" r=" 1.5"/>
</g>
<path d="M293,427h 3" fill="none" stroke="#ff0099"/>
<path d="M298,427h 2" fill="none" stroke="#ff0099"/>
<g stroke="#ff0099" stroke-width="1" fill="#ff0099">
<circle cx=" 297" cy=" 427" r=" 1.5"/>
</g>
<path d="M300,426h 3" fill="none" stroke="#ff0099"/>
<path d="M305,426h 3" fill="none" stroke="#ff0099"/>
<g stroke="#ff0099" stroke-width="1" fill="#ff0099">
<circle cx=" 304" cy=" 426" r=" 1.5"/>
</g>
<path d="M308,425h 3" fill="none" stroke="#ff0099"/>
<path d="M313,425h 3" fill="none" stroke="#ff0099"/>
<g stroke="#ff0099" stroke-width="1" fill="#ff0099">
<circle cx=" 312" cy=" 425" r=" 1.5"/>
</g>
<path d="M316,425h 2" fill="none" stroke="#ff0099"/>
<path d="M321,425h 2" fill="none" stroke="#ff0099"/>
<g stroke="#ff0099" stroke-width="1" fill="#ff0099">
<circle cx=" 319" cy=" 425" r=" 1.5"/>
</g>
<path d="M323,425h 3" fill="none" stroke="#ff0099"/>
<path d="M328,425h 3" fill="none" stroke="#ff0099"/>
<g stroke="#ff0099" stroke-width="1" fill="#ff0099">
<circle cx=" 327" cy=" 425" r=" 1.5"/>
</g>
<path d="M331,425h 2" fill="none" stroke="#ff0099"/>
<path d="M336,425h 2" fill="none" stroke="#ff0099"/>
<g stroke="#ff0099" stroke-width="1" fill="#ff0099">
<circle cx=" 334" cy=" 425" r=" 1.5"/>
</g>
<path d="M338,423h 3" fill="none" stroke="#ff0099"/>
<path d="M343,423h 3" fill="none" stroke="#ff0099"/>
<g stroke="#ff0099" stroke-width="1" fill="#ff0099">
<circle cx=" 342" cy=" 423" r=" 1.5"/>
</g>
<path d="M346,423h 2" fill="none" stroke="#ff0099"/>
<path d="M351,423h 2" fill="none" stroke="#ff0099"/>
<g stroke="#ff0099" stroke-width="1" fill="#ff0099">
<circle cx=" 350" cy=" 423" r=" 1.5"/>
</g>
<path d="M353,422h 3" fill="none" stroke="#ff0099"/>
<path d="M358,422h 3" fill="none" stroke="#ff0099"/>
<g stroke="#ff0099" stroke-width="1" fill="#ff0099">
<circle cx=" 357" cy=" 422" r=" 1.5"/>
</g>
<path d="M361,422h 3" fill="none" stroke="#ff0099"/>
<path d="M366,422h 3" fill="none" stroke="#ff0099"/>
<g stroke="#ff0099" stroke-width="1" fill="#ff0099">
<circle cx=" 365" cy=" 422" r=" 1.5"/>
</g>
<path d="M369,421h 2" fill="none" stroke="#ff0099"/>
<path d="M373,421h 3" fill="none" stroke="#ff0099"/>
<g stroke="#ff0099" stroke-width="1" fill="#ff0099">
<circle cx=" 372" cy=" 421" r=" 1.5"/>
</g>
<path d="M376,421h 3" fill="none" stroke="#ff0099"/>
<path d="M381,421h 3" fill="none" stroke="#ff0099"/>
<g stroke="#ff0099" stroke-width="1" fill="#ff0099">
<circle cx=" 380" cy=" 421" r=" 1.5"/>
</g>
<path d="M384,419h 2" fill="none" stroke="#ff0099"/>
<path d="M389,419h 2" fill="none" stroke="#ff0099"/>
<g stroke="#ff0099" stroke-width="1" fill="#ff0099">
<circle cx=" 387" cy=" 419" r=" 1.5"/>
</g>
<path d="M391,417h 3" fill="none" stroke="#ff0099"/>
<path d="M396,417h 3" fill="none" stroke="#ff0099"/>
<g stroke="#ff0099" stroke-width="1" fill="#ff0099">
<circle cx=" 395" cy=" 417" r=" 1.5"/>
</g>
<path d="M399,416h 2" fill="none" stroke="#ff0099"/>
<path d="M404,416h 2" fill="none" stroke="#ff0099"/>
<g stroke="#ff0099" stroke-width="1" fill="#ff0099">
<circle cx=" 403" cy=" 416" r=" 1.5"/>
</g>
<path d="M406,414h 3" fill="none" stroke="#ff0099"/>
<path d="M411,414h 3" fill="none" stroke="#ff0099"/>
<g stroke="#ff0099" stroke-width="1" fill="#ff0099">
<circle cx=" 410" cy=" 414" r=" 1.5"/>
</g>
<path d="M414,413h 2" fill="none" stroke="#ff0099"/>
<path d="M419,413h 2" fill="none" stroke="#ff0099"/>
<g stroke="#ff0099" stroke-width="1" fill="#ff0099">
<circle cx=" 418" cy=" 413" r=" 1.5"/>
</g>
<path d="M421,410h 3" fill="none" stroke="#ff0099"/>
<path d="M426,410h 3" fill="none" stroke="#ff0099"/>
<g stroke="#ff0099" stroke-width="1" fill="#ff0099">
<circle cx=" 425" cy=" 410" r=" 1.5"/>
</g>
<path d="M429,407h 3" fill="none" stroke="#ff0099"/>
<path d="M434,407h 3" fill="none" stroke="#ff0099"/>
<g stroke="#ff0099" stroke-width="1" fill="#ff0099">
<circle cx=" 433" cy=" 407" r=" 1.5"/>
</g>
<path d="M437,404h 2" fill="none" stroke="#ff0099"/>
<path d="M441,404h 3" fill="none" stroke="#ff0099"/>
<g stroke="#ff0099" stroke-width="1" fill="#ff0099">
<circle cx=" 440" cy=" 404" r=" 1.5"/>
</g>
<path d="M444,396h 3" fill="none" stroke="#ff0099"/>
<path d="M449,396h 3" fill="none" stroke="#ff0099"/>
<g stroke="#ff0099" stroke-width="1" fill="#ff0099">
<circle cx=" 448" cy=" 396" r=" 1.5"/>
</g>
<path d="M452,390h 2" fill="none" stroke="#ff0099"/>
<path d="M457,390h 2" fill="none" stroke="#ff0099"/>
<g stroke="#ff0099" stroke-width="1" fill="#ff0099">
<circle cx=" 455" cy=" 390" r=" 1.5"/>
</g>
<path d="M459,378h 3" fill="none" stroke="#ff0099"/>
<path d="M464,378h 3" fill="none" stroke="#ff0099"/>
<g stroke="#ff0099" stroke-width="1" fill="#ff0099">
<circle cx=" 463" cy=" 378" r=" 1.5"/>
</g>
<path d="M467,368h 2" fill="none" stroke="#ff0099"/>
<path d="M472,368h 2" fill="none" stroke="#ff0099"/>
<g stroke="#ff0099" stroke-width="1" fill="#ff0099">
<circle cx=" 471" cy=" 368" r=" 1.5"/>
</g>
<path d="M474,351h 3" fill="none" stroke="#ff0099"/>
<path d="M479,351h 3" fill="none" stroke="#ff0099"/>
<g stroke="#ff0099" stroke-width="1" fill="#ff0099">
<circle cx=" 478" cy=" 351" r=" 1.5"/>
</g>
<path d="M482,323h 3" fill="none" stroke="#ff0099"/>
<path d="M487,323h 2" fill="none" stroke="#ff0099"/>
<g stroke="#ff0099" stroke-width="1" fill="#ff0099">
<circle cx=" 486" cy=" 323" r=" 1.5"/>
</g>
<path d="M489,258h 3" fill="none" stroke="#ff0099"/>
<path d="M494,258h 3" fill="none" stroke="#ff0099"/>
<g stroke="#ff0099" stroke-width="1" fill="#ff0099">
<circle cx=" 493" cy=" 258" r=" 1.5"/>
</g>
<path d="M501,157" fill="none" stroke="#ff0099"/>
<path d="M501,155v -1" fill="none" stroke="#ff0099"/>
<path d="M497,156h 3" fill="none" stroke="#ff0099"/>
<path d="M502,156h 3" fill="none" stroke="#ff0099"/>
<g stroke="#ff0099" stroke-width="1" fill="#ff0099">
<circle cx=" 501" cy=" 156" r=" 1.5"/>
</g>
<path d="M508,66" fill="none" stroke="#ff0099"/>
<path d="M508,64v -1" fill="none" stroke="#ff0099"/>
<path d="M505,65h 2" fill="none" stroke="#ff0099"/>
<path d="M509,65h 3" fill="none" stroke="#ff0099"/>
<g stroke="#ff0099" stroke-width="1" fill="#ff0099">
<circle cx=" 508" cy=" 65" r=" 1.5"/>
</g>
<path d="M512,272h 3" fill="none" stroke="#ff0099"/>
<path d="M517,272h 3" fill="none" stroke="#ff0099"/>
<g stroke="#ff0099" stroke-width="1" fill="#ff0099">
<circle cx=" 516" cy=" 272" r=" 1.5"/>
</g>
<path d="M520,425h 2" fill="none" stroke="#ff0099"/>
<path d="M525,425h 2" fill="none" stroke="#ff0099"/>
<g stroke="#ff0099" stroke-width="1" fill="#ff0099">
<circle cx=" 523" cy=" 425" r=" 1.5"/>
</g>
<path d="M74,446h 453" fill="none" stroke="black"/>
<path d="M74,434v 12" fill="none" stroke="black"/>
<path d="M83,440v 6" fill="none" stroke="black"/>
<path d="M92,440v 6" fill="none" stroke="black"/>
<path d="M101,440v 6" fill="none" stroke="black"/>
<path d="M110,440v 6" fill="none" stroke="black"/>
<path d="M119,434v 12" fill="none" stroke="black"/>
<path d="M128,440v 6" fill="none" stroke="black"/>
<path d="M137,440v 6" fill="none" stroke="black"/>
<path d="M146,440v 6" fill="none" stroke="black"/>
<path d="M155,440v 6" fill="none" stroke="black"/>
<path d="M164,434v 12" fill="none" stroke="black"/>
<path d="M173,440v 6" fill="none" stroke="black"/>
<path d="M183,440v 6" fill="none" stroke="black"/>
<path d="M192,440v 6" fill="none" stroke="black"/>
<path d="M201,440v 6" fill="none" stroke="black"/>
<path d="M210,434v 12" fill="none" stroke="black"/>
<path d="M219,440v 6" fill="none" stroke="black"/>
<path d="M228,440v 6" fill="none" stroke="black"/>
<path d="M237,440v 6" fill="none" stroke="black"/>
<path d="M246,440v 6" fill="none" stroke="black"/>
<path d="M255,434v 12" fill="none" stroke="black"/>
<path d="M264,440v 6" fill="none" stroke="black"/>
<path d="M273,440v 6" fill="none" stroke="black"/>
<path d="M282,440v 6" fill="none" stroke="black"/>
<path d="M291,440v 6" fill="none" stroke="black"/>
<path d="M300,434v 12" fill="none" stroke="black"/>
<path d="M310,440v 6" fill="none" stroke="black"/>
<path d="M319,440v 6" fill="none" stroke="black"/>
<path d="M328,440v 6" fill="none" stroke="black"/>
<path d="M337,440v 6" fill="none" stroke="black"/>
<path d="M346,434v 12" fill="none" stroke="black"/>
<path d="M355,440v 6" fill="none" stroke="black"/>
<path d="M364,440v 6" fill="none" stroke="black"/>
<path d="M373,440v 6" fill="none" stroke="black"/>
<path d="M382,440v 6" fill="none" stroke="black"/>
<path d="M391,434v 12" fill="none" stroke="black"/>
<path d="M400,440v 6" fill="none" stroke="black"/>
<path d="M409,440v 6" fill="none" stroke="black"/>
<path d="M418,440v 6" fill="none" stroke="black"/>
<path d="M427,440v 6" fill="none" stroke="black"/>
<path d="M437,434v 12" fill="none" stroke="black"/>
<path d="M446,440v 6" fill="none" stroke="black"/>
<path d="M455,440v 6" fill="none" stroke="black"/>
<path d="M464,440v 6" fill="none" stroke="black"/>
<path d="M473,440v 6" fill="none" stroke="black"/>
<path d="M482,434v 12" fill="none" stroke="black"/>
<path d="M491,440v 6" fill="none" stroke="black"/>
<path d="M500,440v 6" fill="none" stroke="black"/>
<path d="M509,440v 6" fill="none" stroke="black"/>
<path d="M518,440v 6" fill="none" stroke="black"/>
<path d="M527,434v 12" fill="none" stroke="black"/>
<text x="68" y="465" fill="black" font-size="18" font-family="Helvetica" font-weight="bold">
0
</text>
<text x="107" y="465" fill="black" font-size="18" font-family="Helvetica" font-weight="bold">
0.1
</text>
<text x="151" y="465" fill="black" font-size="18" font-family="Helvetica" font-weight="bold">
0.2
</text>
<text x="196" y="465" fill="black" font-size="18" font-family="Helvetica" font-weight="bold">
0.3
</text>
<text x="242" y="465" fill="black" font-size="18" font-family="Helvetica" font-weight="bold">
0.4
</text>
<text x="287" y="465" fill="black" font-size="18" font-family="Helvetica" font-weight="bold">
0.5
</text>
<text x="332" y="465" fill="black" font-size="18" font-family="Helvetica" font-weight="bold">
0.6
</text>
<text x="378" y="465" fill="black" font-size="18" font-family="Helvetica" font-weight="bold">
0.7
</text>
<text x="423" y="465" fill="black" font-size="18" font-family="Helvetica" font-weight="bold">
0.8
</text>
<text x="468" y="465" fill="black" font-size="18" font-family="Helvetica" font-weight="bold">
0.9
</text>
<text x="523" y="465" fill="black" font-size="18" font-family="Helvetica" font-weight="bold">
1
</text>
<path d="M74,44h 453" fill="none" stroke="black"/>
<path d="M74,56v -12" fill="none" stroke="black"/>
<path d="M83,50v -6" fill="none" stroke="black"/>
<path d="M92,50v -6" fill="none" stroke="black"/>
<path d="M101,50v -6" fill="none" stroke="black"/>
<path d="M110,50v -6" fill="none" stroke="black"/>
<path d="M119,56v -12" fill="none" stroke="black"/>
<path d="M128,50v -6" fill="none" stroke="black"/>
<path d="M137,50v -6" fill="none" stroke="black"/>
<path d="M146,50v -6" fill="none" stroke="black"/>
<path d="M155,50v -6" fill="none" stroke="black"/>
<path d="M164,56v -12" fill="none" stroke="black"/>
<path d="M173,50v -6" fill="none" stroke="black"/>
<path d="M183,50v -6" fill="none" stroke="black"/>
<path d="M192,50v -6" fill="none" stroke="black"/>
<path d="M201,50v -6" fill="none" stroke="black"/>
<path d="M210,56v -12" fill="none" stroke="black"/>
<path d="M219,50v -6" fill="none" stroke="black"/>
<path d="M228,50v -6" fill="none" stroke="black"/>
<path d="M237,50v -6" fill="none" stroke="black"/>
<path d="M246,50v -6" fill="none" stroke="black"/>
<path d="M255,56v -12" fill="none" stroke="black"/>
<path d="M264,50v -6" fill="none" stroke="black"/>
<path d="M273,50v -6" fill="none" stroke="black"/>
<path d="M282,50v -6" fill="none" stroke="black"/>
<path d="M291,50v -6" fill="none" stroke="black"/>
<path d="M300,56v -12" fill="none" stroke="black"/>
<path d="M310,50v -6" fill="none" stroke="black"/>
<path d="M319,50v -6" fill="none" stroke="black"/>
<path d="M328,50v -6" fill="none" stroke="black"/>
<path d="M337,50v -6" fill="none" stroke="black"/>
<path d="M346,56v -12" fill="none" stroke="black"/>
<path d="M355,50v -6" fill="none" stroke="black"/>
<path d="M364,50v -6" fill="none" stroke="black"/>
<path d="M373,50v -6" fill="none" stroke="black"/>
<path d="M382,50v -6" fill="none" stroke="black"/>
<path d="M391,56v -12" fill="none" stroke="black"/>
<path d="M400,50v -6" fill="none" stroke="black"/>
<path d="M409,50v -6" fill="none" stroke="black"/>
<path d="M418,50v -6" fill="none" stroke="black"/>
<path d="M427,50v -6" fill="none" stroke="black"/>
<path d="M437,56v -12" fill="none" stroke="black"/>
<path d="M446,50v -6" fill="none" stroke="black"/>
<path d="M455,50v -6" fill="none" stroke="black"/>
<path d="M464,50v -6" fill="none" stroke="black"/>
<path d="M473,50v -6" fill="none" stroke="black"/>
<path d="M482,56v -12" fill="none" stroke="black"/>
<path d="M491,50v -6" fill="none" stroke="black"/>
<path d="M500,50v -6" fill="none" stroke="black"/>
<path d="M509,50v -6" fill="none" stroke="black"/>
<path d="M518,50v -6" fill="none" stroke="black"/>
<path d="M527,56v -12" fill="none" stroke="black"/>
<path d="M74,446v -402" fill="none" stroke="black"/>
<path d="M87,428h -13" fill="none" stroke="black"/>
<path d="M81,413h -7" fill="none" stroke="black"/>
<path d="M81,398h -7" fill="none" stroke="black"/>
<path d="M81,383h -7" fill="none" stroke="black"/>
<path d="M81,368h -7" fill="none" stroke="black"/>
<path d="M87,353h -13" fill="none" stroke="black"/>
<path d="M81,337h -7" fill="none" stroke="black"/>
<path d="M81,322h -7" fill="none" stroke="black"/>
<path d="M81,307h -7" fill="none" stroke="black"/>
<path d="M81,292h -7" fill="none" stroke="black"/>
<path d="M87,277h -13" fill="none" stroke="black"/>
<path d="M81,262h -7" fill="none" stroke="black"/>
<path d="M81,247h -7" fill="none" stroke="black"/>
<path d="M81,232h -7" fill="none" stroke="black"/>
<path d="M81,217h -7" fill="none" stroke="black"/>
<path d="M87,201h -13" fill="none" stroke="black"/>
<path d="M81,186h -7" fill="none" stroke="black"/>
<path d="M81,171h -7" fill="none" stroke="black"/>
<path d="M81,156h -7" fill="none" stroke="black"/>
<path d="M81,141h -7" fill="none" stroke="black"/>
<path d="M87,126h -13" fill="none" stroke="black"/>
<path d="M81,111h -7" fill="none" stroke="black"/>
<path d="M81,96h -7" fill="none" stroke="black"/>
<path d="M81,80h -7" fill="none" stroke="black"/>
<path d="M81,65h -7" fill="none" stroke="black"/>
<path d="M87,50h -13" fill="none" stroke="black"/>
<path d="M87,428h -13" fill="none" stroke="black"/>
<path d="M81,443h -7" fill="none" stroke="black"/>
<path d="M87,50h -13" fill="none" stroke="black"/>
<text x="61" y="435" fill="black" font-size="18" font-family="Helvetica" font-weight="bold">
0
</text>
<text x="34" y="359" fill="black" font-size="18" font-family="Helvetica" font-weight="bold">
0.05
</text>
<text x="47" y="284" fill="black" font-size="18" font-family="Helvetica" font-weight="bold">
0.1
</text>
<text x="34" y="208" fill="black" font-size="18" font-family="Helvetica" font-weight="bold">
0.15
</text>
<text x="45" y="132" fill="black" font-size="18" font-family="Helvetica" font-weight="bold">
0.2
</text>
<text x="34" y="57" fill="black" font-size="18" font-family="Helvetica" font-weight="bold">
0.25
</text>
<path d="M77,428" fill="none" stroke="#99ff99" stroke-width="2"/>
<path d="M77,428" fill="none" stroke="#99ff99" stroke-width="2"/>
<g stroke="black" stroke-width="2" fill="none">
<line x1="76" y1="428" x2="77" y2="428"/>
</g>
<path d="M85,428" fill="none" stroke="#99ff99" stroke-width="2"/>
<path d="M85,428" fill="none" stroke="#99ff99" stroke-width="2"/>
<g stroke="black" stroke-width="2" fill="none">
<line x1="84" y1="428" x2="85" y2="428"/>
</g>
<path d="M93,428" fill="none" stroke="#99ff99" stroke-width="2"/>
<path d="M93,428" fill="none" stroke="#99ff99" stroke-width="2"/>
<g stroke="black" stroke-width="2" fill="none">
<line x1="92" y1="428" x2="93" y2="428"/>
</g>
<path d="M100,428" fill="none" stroke="#99ff99" stroke-width="2"/>
<path d="M100,428" fill="none" stroke="#99ff99" stroke-width="2"/>
<g stroke="black" stroke-width="2" fill="none">
<line x1="99" y1="428" x2="100" y2="428"/>
</g>
<path d="M108,428" fill="none" stroke="#99ff99" stroke-width="2"/>
<path d="M108,428" fill="none" stroke="#99ff99" stroke-width="2"/>
<g stroke="black" stroke-width="2" fill="none">
<line x1="107" y1="428" x2="108" y2="428"/>
</g>
<path d="M115,428" fill="none" stroke="#99ff99" stroke-width="2"/>
<path d="M115,428" fill="none" stroke="#99ff99" stroke-width="2"/>
<g stroke="black" stroke-width="2" fill="none">
<line x1="114" y1="428" x2="115" y2="428"/>
</g>
<path d="M123,428" fill="none" stroke="#99ff99" stroke-width="2"/>
<path d="M123,428" fill="none" stroke="#99ff99" stroke-width="2"/>
<g stroke="black" stroke-width="2" fill="none">
<line x1="122" y1="428" x2="123" y2="428"/>
</g>
<path d="M130,428" fill="none" stroke="#99ff99" stroke-width="2"/>
<path d="M130,428" fill="none" stroke="#99ff99" stroke-width="2"/>
<g stroke="black" stroke-width="2" fill="none">
<line x1="129" y1="428" x2="130" y2="428"/>
</g>
<path d="M138,428" fill="none" stroke="#99ff99" stroke-width="2"/>
<path d="M138,428" fill="none" stroke="#99ff99" stroke-width="2"/>
<g stroke="black" stroke-width="2" fill="none">
<line x1="137" y1="428" x2="138" y2="428"/>
</g>
<path d="M146,428" fill="none" stroke="#99ff99" stroke-width="2"/>
<path d="M146,428" fill="none" stroke="#99ff99" stroke-width="2"/>
<g stroke="black" stroke-width="2" fill="none">
<line x1="145" y1="428" x2="146" y2="428"/>
</g>
<path d="M153,428" fill="none" stroke="#99ff99" stroke-width="2"/>
<path d="M153,428" fill="none" stroke="#99ff99" stroke-width="2"/>
<g stroke="black" stroke-width="2" fill="none">
<line x1="152" y1="428" x2="153" y2="428"/>
</g>
<path d="M161,428" fill="none" stroke="#99ff99" stroke-width="2"/>
<path d="M161,428" fill="none" stroke="#99ff99" stroke-width="2"/>
<g stroke="black" stroke-width="2" fill="none">
<line x1="160" y1="428" x2="161" y2="428"/>
</g>
<path d="M168,428" fill="none" stroke="#99ff99" stroke-width="2"/>
<path d="M168,428" fill="none" stroke="#99ff99" stroke-width="2"/>
<g stroke="black" stroke-width="2" fill="none">
<line x1="167" y1="428" x2="168" y2="428"/>
</g>
<path d="M176,428" fill="none" stroke="#99ff99" stroke-width="2"/>
<path d="M176,428" fill="none" stroke="#99ff99" stroke-width="2"/>
<g stroke="black" stroke-width="2" fill="none">
<line x1="175" y1="428" x2="176" y2="428"/>
</g>
<path d="M183,428" fill="none" stroke="#99ff99" stroke-width="2"/>
<path d="M183,428" fill="none" stroke="#99ff99" stroke-width="2"/>
<g stroke="black" stroke-width="2" fill="none">
<line x1="182" y1="428" x2="183" y2="428"/>
</g>
<path d="M191,428" fill="none" stroke="#99ff99" stroke-width="2"/>
<path d="M191,428" fill="none" stroke="#99ff99" stroke-width="2"/>
<g stroke="black" stroke-width="2" fill="none">
<line x1="190" y1="428" x2="191" y2="428"/>
</g>
<path d="M198,428" fill="none" stroke="#99ff99" stroke-width="2"/>
<path d="M198,428" fill="none" stroke="#99ff99" stroke-width="2"/>
<g stroke="black" stroke-width="2" fill="none">
<line x1="197" y1="428" x2="198" y2="428"/>
</g>
<path d="M206,428" fill="none" stroke="#99ff99" stroke-width="2"/>
<path d="M206,428" fill="none" stroke="#99ff99" stroke-width="2"/>
<g stroke="black" stroke-width="2" fill="none">
<line x1="205" y1="428" x2="206" y2="428"/>
</g>
<path d="M214,428" fill="none" stroke="#99ff99" stroke-width="2"/>
<path d="M214,428" fill="none" stroke="#99ff99" stroke-width="2"/>
<g stroke="black" stroke-width="2" fill="none">
<line x1="213" y1="428" x2="214" y2="428"/>
</g>
<path d="M221,428" fill="none" stroke="#99ff99" stroke-width="2"/>
<path d="M221,428" fill="none" stroke="#99ff99" stroke-width="2"/>
<g stroke="black" stroke-width="2" fill="none">
<line x1="220" y1="428" x2="221" y2="428"/>
</g>
<path d="M229,428" fill="none" stroke="#99ff99" stroke-width="2"/>
<path d="M229,428" fill="none" stroke="#99ff99" stroke-width="2"/>
<g stroke="black" stroke-width="2" fill="none">
<line x1="228" y1="428" x2="229" y2="428"/>
</g>
<path d="M236,428" fill="none" stroke="#99ff99" stroke-width="2"/>
<path d="M236,428" fill="none" stroke="#99ff99" stroke-width="2"/>
<g stroke="black" stroke-width="2" fill="none">
<line x1="235" y1="428" x2="236" y2="428"/>
</g>
<path d="M244,428" fill="none" stroke="#99ff99" stroke-width="2"/>
<path d="M244,428" fill="none" stroke="#99ff99" stroke-width="2"/>
<g stroke="black" stroke-width="2" fill="none">
<line x1="243" y1="428" x2="244" y2="428"/>
</g>
<path d="M251,428" fill="none" stroke="#99ff99" stroke-width="2"/>
<path d="M251,428" fill="none" stroke="#99ff99" stroke-width="2"/>
<g stroke="black" stroke-width="2" fill="none">
<line x1="250" y1="428" x2="251" y2="428"/>
</g>
<path d="M259,428" fill="none" stroke="#99ff99" stroke-width="2"/>
<path d="M259,428" fill="none" stroke="#99ff99" stroke-width="2"/>
<g stroke="black" stroke-width="2" fill="none">
<line x1="258" y1="428" x2="259" y2="428"/>
</g>
<path d="M266,428" fill="none" stroke="#99ff99" stroke-width="2"/>
<path d="M266,428" fill="none" stroke="#99ff99" stroke-width="2"/>
<g stroke="black" stroke-width="2" fill="none">
<line x1="265" y1="428" x2="266" y2="428"/>
</g>
<path d="M274,428" fill="none" stroke="#99ff99" stroke-width="2"/>
<path d="M274,428" fill="none" stroke="#99ff99" stroke-width="2"/>
<g stroke="black" stroke-width="2" fill="none">
<line x1="273" y1="428" x2="274" y2="428"/>
</g>
<path d="M282,428" fill="none" stroke="#99ff99" stroke-width="2"/>
<path d="M282,428" fill="none" stroke="#99ff99" stroke-width="2"/>
<g stroke="black" stroke-width="2" fill="none">
<line x1="281" y1="428" x2="282" y2="428"/>
</g>
<path d="M289,428" fill="none" stroke="#99ff99" stroke-width="2"/>
<path d="M289,428" fill="none" stroke="#99ff99" stroke-width="2"/>
<g stroke="black" stroke-width="2" fill="none">
<line x1="288" y1="428" x2="289" y2="428"/>
</g>
<path d="M297,428v -1" fill="none" stroke="#99ff99" stroke-width="2"/>
<path d="M297,427" fill="none" stroke="#99ff99" stroke-width="2"/>
<g stroke="black" stroke-width="2" fill="none">
<line x1="296" y1="427" x2="297" y2="427"/>
</g>
<path d="M304,428v -1" fill="none" stroke="#99ff99" stroke-width="2"/>
<path d="M304,427" fill="none" stroke="#99ff99" stroke-width="2"/>
<g stroke="black" stroke-width="2" fill="none">
<line x1="303" y1="427" x2="304" y2="427"/>
</g>
<path d="M312,427" fill="none" stroke="#99ff99" stroke-width="2"/>
<path d="M312,427" fill="none" stroke="#99ff99" stroke-width="2"/>
<g stroke="black" stroke-width="2" fill="none">
<line x1="311" y1="427" x2="312" y2="427"/>
</g>
<path d="M319,427" fill="none" stroke="#99ff99" stroke-width="2"/>
<path d="M319,427" fill="none" stroke="#99ff99" stroke-width="2"/>
<g stroke="black" stroke-width="2" fill="none">
<line x1="318" y1="427" x2="319" y2="427"/>
</g>
<path d="M327,427v -1" fill="none" stroke="#99ff99" stroke-width="2"/>
<path d="M327,426" fill="none" stroke="#99ff99" stroke-width="2"/>
<g stroke="black" stroke-width="2" fill="none">
<line x1="326" y1="426" x2="327" y2="426"/>
</g>
<path d="M334,427" fill="none" stroke="#99ff99" stroke-width="2"/>
<path d="M334,427v -1" fill="none" stroke="#99ff99" stroke-width="2"/>
<g stroke="black" stroke-width="2" fill="none">
<line x1="333" y1="427" x2="334" y2="427"/>
</g>
<path d="M342,426" fill="none" stroke="#99ff99" stroke-width="2"/>
<path d="M342,426" fill="none" stroke="#99ff99" stroke-width="2"/>
<g stroke="black" stroke-width="2" fill="none">
<line x1="341" y1="426" x2="342" y2="426"/>
</g>
<path d="M350,426" fill="none" stroke="#99ff99" stroke-width="2"/>
<path d="M350,426" fill="none" stroke="#99ff99" stroke-width="2"/>
<g stroke="black" stroke-width="2" fill="none">
<line x1="349" y1="426" x2="350" y2="426"/>
</g>
<path d="M357,426" fill="none" stroke="#99ff99" stroke-width="2"/>
<path d="M357,426v -1" fill="none" stroke="#99ff99" stroke-width="2"/>
<g stroke="black" stroke-width="2" fill="none">
<line x1="356" y1="426" x2="357" y2="426"/>
</g>
<path d="M365,425" fill="none" stroke="#99ff99" stroke-width="2"/>
<path d="M365,425" fill="none" stroke="#99ff99" stroke-width="2"/>
<g stroke="black" stroke-width="2" fill="none">
<line x1="364" y1="425" x2="365" y2="425"/>
</g>
<path d="M372,425" fill="none" stroke="#99ff99" stroke-width="2"/>
<path d="M372,425" fill="none" stroke="#99ff99" stroke-width="2"/>
<g stroke="black" stroke-width="2" fill="none">
<line x1="371" y1="425" x2="372" y2="425"/>
</g>
<path d="M380,425" fill="none" stroke="#99ff99" stroke-width="2"/>
<path d="M380,425" fill="none" stroke="#99ff99" stroke-width="2"/>
<g stroke="black" stroke-width="2" fill="none">
<line x1="379" y1="425" x2="380" y2="425"/>
</g>
<path d="M387,424" fill="none" stroke="#99ff99" stroke-width="2"/>
<path d="M387,424" fill="none" stroke="#99ff99" stroke-width="2"/>
<g stroke="black" stroke-width="2" fill="none">
<line x1="386" y1="424" x2="387" y2="424"/>
</g>
<path d="M395,424" fill="none" stroke="#99ff99" stroke-width="2"/>
<path d="M395,424v -1" fill="none" stroke="#99ff99" stroke-width="2"/>
<g stroke="black" stroke-width="2" fill="none">
<line x1="394" y1="424" x2="395" y2="424"/>
</g>
<path d="M403,424v -1" fill="none" stroke="#99ff99" stroke-width="2"/>
<path d="M403,423" fill="none" stroke="#99ff99" stroke-width="2"/>
<g stroke="black" stroke-width="2" fill="none">
<line x1="402" y1="423" x2="403" y2="423"/>
</g>
<path d="M410,424v -1" fill="none" stroke="#99ff99" stroke-width="2"/>
<path d="M410,423" fill="none" stroke="#99ff99" stroke-width="2"/>
<g stroke="black" stroke-width="2" fill="none">
<line x1="409" y1="423" x2="410" y2="423"/>
</g>
<path d="M418,423v -1" fill="none" stroke="#99ff99" stroke-width="2"/>
<path d="M418,422" fill="none" stroke="#99ff99" stroke-width="2"/>
<g stroke="black" stroke-width="2" fill="none">
<line x1="417" y1="422" x2="418" y2="422"/>
</g>
<path d="M425,422v -1" fill="none" stroke="#99ff99" stroke-width="2"/>
<path d="M425,421" fill="none" stroke="#99ff99" stroke-width="2"/>
<g stroke="black" stroke-width="2" fill="none">
<line x1="424" y1="421" x2="425" y2="421"/>
</g>
<path d="M433,421v -1" fill="none" stroke="#99ff99" stroke-width="2"/>
<path d="M433,420" fill="none" stroke="#99ff99" stroke-width="2"/>
<g stroke="black" stroke-width="2" fill="none">
<line x1="432" y1="420" x2="433" y2="420"/>
</g>
<path d="M440,420v -1" fill="none" stroke="#99ff99" stroke-width="2"/>
<path d="M440,419" fill="none" stroke="#99ff99" stroke-width="2"/>
<g stroke="black" stroke-width="2" fill="none">
<line x1="439" y1="419" x2="440" y2="419"/>
</g>
<path d="M448,418v -1" fill="none" stroke="#99ff99" stroke-width="2"/>
<path d="M448,417" fill="none" stroke="#99ff99" stroke-width="2"/>
<g stroke="black" stroke-width="2" fill="none">
<line x1="447" y1="417" x2="448" y2="417"/>
</g>
<path d="M455,415" fill="none" stroke="#99ff99" stroke-width="2"/>
<path d="M455,415v -1" fill="none" stroke="#99ff99" stroke-width="2"/>
<g stroke="black" stroke-width="2" fill="none">
<line x1="454" y1="415" x2="455" y2="415"/>
</g>
<path d="M463,413v -1" fill="none" stroke="#99ff99" stroke-width="2"/>
<path d="M463,412" fill="none" stroke="#99ff99" stroke-width="2"/>
<g stroke="black" stroke-width="2" fill="none">
<line x1="462" y1="412" x2="463" y2="412"/>
</g>
<path d="M471,408v -1" fill="none" stroke="#99ff99" stroke-width="2"/>
<path d="M471,407v -1" fill="none" stroke="#99ff99" stroke-width="2"/>
<g stroke="black" stroke-width="2" fill="none">
<line x1="470" y1="407" x2="471" y2="407"/>
</g>
<path d="M478,400v -1" fill="none" stroke="#99ff99" stroke-width="2"/>
<path d="M478,399" fill="none" stroke="#99ff99" stroke-width="2"/>
<g stroke="black" stroke-width="2" fill="none">
<line x1="477" y1="399" x2="478" y2="399"/>
</g>
<path d="M486,385v -1" fill="none" stroke="#99ff99" stroke-width="2"/>
<path d="M486,384v -2" fill="none" stroke="#99ff99" stroke-width="2"/>
<g stroke="black" stroke-width="2" fill="none">
<line x1="485" y1="384" x2="486" y2="384"/>
</g>
<path d="M493,337v -2" fill="none" stroke="#99ff99" stroke-width="2"/>
<path d="M493,335v -2" fill="none" stroke="#99ff99" stroke-width="2"/>
<g stroke="black" stroke-width="2" fill="none">
<line x1="492" y1="335" x2="493" y2="335"/>
</g>
<path d="M501,219v -2" fill="none" stroke="#99ff99" stroke-width="2"/>
<path d="M501,217v -3" fill="none" stroke="#99ff99" stroke-width="2"/>
<g stroke="black" stroke-width="2" fill="none">
<line x1="500" y1="217" x2="501" y2="217"/>
</g>
<path d="M523,404v -1" fill="none" stroke="#99ff99" stroke-width="2"/>
<path d="M523,403" fill="none" stroke="#99ff99" stroke-width="2"/>
<g stroke="black" stroke-width="2" fill="none">
<line x1="522" y1="403" x2="523" y2="403"/>
</g>
<path d="M74,428h 219v -1h 30v -1h 8v 1h 7v -1h 23v -1h 23v -1h 15v -1h 15v -1h 7v -1h 8v -1h 8v -1h 7v -2h 8v -2h 7v -3h 8v -5h 7v -8h 8v -15h 7v -49h 8v -118h 8v -173h 15v 359h 7v 25z" fill="#99ff99"/>
<path d="M74,428h 219v -1h 30v -1h 8v 1h 7v -1h 23v -1h 23v -1h 15v -1h 15v -1h 7v -1h 8v -1h 8v -1h 7v -2h 8v -2h 7v -3h 8v -5h 7v -8h 8v -15h 7v -49h 8v -118h 8v -173" fill="none" stroke="#99ff99" stroke-width="2"/>
<path d="M520,44v 359" fill="none" stroke="#99ff99" stroke-width="2"/>
<path d="M520,403h 7" fill="none" stroke="#99ff99" stroke-width="2"/>
<path d="M74,428h 2" fill="none" stroke="#ff0099"/>
<path d="M79,428h 2" fill="none" stroke="#ff0099"/>
<g stroke="#ff0099" stroke-width="1" fill="#ff0099">
<circle cx=" 77" cy=" 428" r=" 1.5"/>
</g>
<path d="M89,428h 2" fill="none" stroke="#ff0099"/>
<path d="M94,428h 2" fill="none" stroke="#ff0099"/>
<g stroke="#ff0099" stroke-width="1" fill="#ff0099">
<circle cx=" 93" cy=" 428" r=" 1.5"/>
</g>
<path d="M96,428h 3" fill="none" stroke="#ff0099"/>
<path d="M101,428h 3" fill="none" stroke="#ff0099"/>
<g stroke="#ff0099" stroke-width="1" fill="#ff0099">
<circle cx=" 100" cy=" 428" r=" 1.5"/>
</g>
<path d="M104,428h 3" fill="none" stroke="#ff0099"/>
<path d="M109,428h 2" fill="none" stroke="#ff0099"/>
<g stroke="#ff0099" stroke-width="1" fill="#ff0099">
<circle cx=" 108" cy=" 428" r=" 1.5"/>
</g>
<path d="M111,428h 3" fill="none" stroke="#ff0099"/>
<path d="M116,428h 3" fill="none" stroke="#ff0099"/>
<g stroke="#ff0099" stroke-width="1" fill="#ff0099">
<circle cx=" 115" cy=" 428" r=" 1.5"/>
</g>
<path d="M119,428h 3" fill="none" stroke="#ff0099"/>
<path d="M124,428h 3" fill="none" stroke="#ff0099"/>
<g stroke="#ff0099" stroke-width="1" fill="#ff0099">
<circle cx=" 123" cy=" 428" r=" 1.5"/>
</g>
<path d="M127,428h 2" fill="none" stroke="#ff0099"/>
<path d="M132,428h 2" fill="none" stroke="#ff0099"/>
<g stroke="#ff0099" stroke-width="1" fill="#ff0099">
<circle cx=" 130" cy=" 428" r=" 1.5"/>
</g>
<path d="M134,428h 3" fill="none" stroke="#ff0099"/>
<path d="M139,428h 3" fill="none" stroke="#ff0099"/>
<g stroke="#ff0099" stroke-width="1" fill="#ff0099">
<circle cx=" 138" cy=" 428" r=" 1.5"/>
</g>
<path d="M142,428h 2" fill="none" stroke="#ff0099"/>
<path d="M147,428h 2" fill="none" stroke="#ff0099"/>
<g stroke="#ff0099" stroke-width="1" fill="#ff0099">
<circle cx=" 146" cy=" 428" r=" 1.5"/>
</g>
<path d="M149,428h 3" fill="none" stroke="#ff0099"/>
<path d="M154,428h 3" fill="none" stroke="#ff0099"/>
<g stroke="#ff0099" stroke-width="1" fill="#ff0099">
<circle cx=" 153" cy=" 428" r=" 1.5"/>
</g>
<path d="M157,428h 2" fill="none" stroke="#ff0099"/>
<path d="M162,428h 2" fill="none" stroke="#ff0099"/>
<g stroke="#ff0099" stroke-width="1" fill="#ff0099">
<circle cx=" 161" cy=" 428" r=" 1.5"/>
</g>
<path d="M164,428h 3" fill="none" stroke="#ff0099"/>
<path d="M169,428h 3" fill="none" stroke="#ff0099"/>
<g stroke="#ff0099" stroke-width="1" fill="#ff0099">
<circle cx=" 168" cy=" 428" r=" 1.5"/>
</g>
<path d="M172,428h 3" fill="none" stroke="#ff0099"/>
<path d="M177,428h 3" fill="none" stroke="#ff0099"/>
<g stroke="#ff0099" stroke-width="1" fill="#ff0099">
<circle cx=" 176" cy=" 428" r=" 1.5"/>
</g>
<path d="M180,428h 2" fill="none" stroke="#ff0099"/>
<path d="M184,428h 3" fill="none" stroke="#ff0099"/>
<g stroke="#ff0099" stroke-width="1" fill="#ff0099">
<circle cx=" 183" cy=" 428" r=" 1.5"/>
</g>
<path d="M187,428h 3" fill="none" stroke="#ff0099"/>
<path d="M192,428h 3" fill="none" stroke="#ff0099"/>
<g stroke="#ff0099" stroke-width="1" fill="#ff0099">
<circle cx=" 191" cy=" 428" r=" 1.5"/>
</g>
<path d="M195,428h 2" fill="none" stroke="#ff0099"/>
<path d="M200,428h 2" fill="none" stroke="#ff0099"/>
<g stroke="#ff0099" stroke-width="1" fill="#ff0099">
<circle cx=" 198" cy=" 428" r=" 1.5"/>
</g>
<path d="M202,428h 3" fill="none" stroke="#ff0099"/>
<path d="M207,428h 3" fill="none" stroke="#ff0099"/>
<g stroke="#ff0099" stroke-width="1" fill="#ff0099">
<circle cx=" 206" cy=" 428" r=" 1.5"/>
</g>
<path d="M210,428h 2" fill="none" stroke="#ff0099"/>
<path d="M215,428h 2" fill="none" stroke="#ff0099"/>
<g stroke="#ff0099" stroke-width="1" fill="#ff0099">
<circle cx=" 214" cy=" 428" r=" 1.5"/>
</g>
<path d="M217,428h 3" fill="none" stroke="#ff0099"/>
<path d="M222,428h 3" fill="none" stroke="#ff0099"/>
<g stroke="#ff0099" stroke-width="1" fill="#ff0099">
<circle cx=" 221" cy=" 428" r=" 1.5"/>
</g>
<path d="M225,428h 3" fill="none" stroke="#ff0099"/>
<path d="M230,428h 2" fill="none" stroke="#ff0099"/>
<g stroke="#ff0099" stroke-width="1" fill="#ff0099">
<circle cx=" 229" cy=" 428" r=" 1.5"/>
</g>
<path d="M232,428h 3" fill="none" stroke="#ff0099"/>
<path d="M237,428h 3" fill="none" stroke="#ff0099"/>
<g stroke="#ff0099" stroke-width="1" fill="#ff0099">
<circle cx=" 236" cy=" 428" r=" 1.5"/>
</g>
<path d="M240,428h 3" fill="none" stroke="#ff0099"/>
<path d="M245,428h 3" fill="none" stroke="#ff0099"/>
<g stroke="#ff0099" stroke-width="1" fill="#ff0099">
<circle cx=" 244" cy=" 428" r=" 1.5"/>
</g>
<path d="M248,427h 2" fill="none" stroke="#ff0099"/>
<path d="M252,427h 3" fill="none" stroke="#ff0099"/>
<g stroke="#ff0099" stroke-width="1" fill="#ff0099">
<circle cx=" 251" cy=" 427" r=" 1.5"/>
</g>
<path d="M255,428h 3" fill="none" stroke="#ff0099"/>
<path d="M260,428h 3" fill="none" stroke="#ff0099"/>
<g stroke="#ff0099" stroke-width="1" fill="#ff0099">
<circle cx=" 259" cy=" 428" r=" 1.5"/>
</g>
<path d="M263,427h 2" fill="none" stroke="#ff0099"/>
<path d="M268,427h 2" fill="none" stroke="#ff0099"/>
<g stroke="#ff0099" stroke-width="1" fill="#ff0099">
<circle cx=" 266" cy=" 427" r=" 1.5"/>
</g>
<path d="M270,427h 3" fill="none" stroke="#ff0099"/>
<path d="M275,427h 3" fill="none" stroke="#ff0099"/>
<g stroke="#ff0099" stroke-width="1" fill="#ff0099">
<circle cx=" 274" cy=" 427" r=" 1.5"/>
</g>
<path d="M278,427h 2" fill="none" stroke="#ff0099"/>
<path d="M283,427h 2" fill="none" stroke="#ff0099"/>
<g stroke="#ff0099" stroke-width="1" fill="#ff0099">
<circle cx=" 282" cy=" 427" r=" 1.5"/>
</g>
<path d="M285,427h 3" fill="none" stroke="#ff0099"/>
<path d="M290,427h 3" fill="none" stroke="#ff0099"/>
<g stroke="#ff0099" stroke-width="1" fill="#ff0099">
<circle cx=" 289" cy=" 427" r=" 1.5"/>
</g>
<path d="M293,427h 3" fill="none" stroke="#ff0099"/>
<path d="M298,427h 2" fill="none" stroke="#ff0099"/>
<g stroke="#ff0099" stroke-width="1" fill="#ff0099">
<circle cx=" 297" cy=" 427" r=" 1.5"/>
</g>
<path d="M300,426h 3" fill="none" stroke="#ff0099"/>
<path d="M305,426h 3" fill="none" stroke="#ff0099"/>
<g stroke="#ff0099" stroke-width="1" fill="#ff0099">
<circle cx=" 304" cy=" 426" r=" 1.5"/>
</g>
<path d="M308,425h 3" fill="none" stroke="#ff0099"/>
<path d="M313,425h 3" fill="none" stroke="#ff0099"/>
<g stroke="#ff0099" stroke-width="1" fill="#ff0099">
<circle cx=" 312" cy=" 425" r=" 1.5"/>
</g>
<path d="M316,425h 2" fill="none" stroke="#ff0099"/>
<path d="M321,425h 2" fill="none" stroke="#ff0099"/>
<g stroke="#ff0099" stroke-width="1" fill="#ff0099">
<circle cx=" 319" cy=" 425" r=" 1.5"/>
</g>
<path d="M323,425h 3" fill="none" stroke="#ff0099"/>
<path d="M328,425h 3" fill="none" stroke="#ff0099"/>
<g stroke="#ff0099" stroke-width="1" fill="#ff0099">
<circle cx=" 327" cy=" 425" r=" 1.5"/>
</g>
<path d="M331,425h 2" fill="none" stroke="#ff0099"/>
<path d="M336,425h 2" fill="none" stroke="#ff0099"/>
<g stroke="#ff0099" stroke-width="1" fill="#ff0099">
<circle cx=" 334" cy=" 425" r=" 1.5"/>
</g>
<path d="M338,423h 3" fill="none" stroke="#ff0099"/>
<path d="M343,423h 3" fill="none" stroke="#ff0099"/>
<g stroke="#ff0099" stroke-width="1" fill="#ff0099">
<circle cx=" 342" cy=" 423" r=" 1.5"/>
</g>
<path d="M346,423h 2" fill="none" stroke="#ff0099"/>
<path d="M351,423h 2" fill="none" stroke="#ff0099"/>
<g stroke="#ff0099" stroke-width="1" fill="#ff0099">
<circle cx=" 350" cy=" 423" r=" 1.5"/>
</g>
<path d="M353,422h 3" fill="none" stroke="#ff0099"/>
<path d="M358,422h 3" fill="none" stroke="#ff0099"/>
<g stroke="#ff0099" stroke-width="1" fill="#ff0099">
<circle cx=" 357" cy=" 422" r=" 1.5"/>
</g>
<path d="M361,422h 3" fill="none" stroke="#ff0099"/>
<path d="M366,422h 3" fill="none" stroke="#ff0099"/>
<g stroke="#ff0099" stroke-width="1" fill="#ff0099">
<circle cx=" 365" cy=" 422" r=" 1.5"/>
</g>
<path d="M369,421h 2" fill="none" stroke="#ff0099"/>
<path d="M373,421h 3" fill="none" stroke="#ff0099"/>
<g stroke="#ff0099" stroke-width="1" fill="#ff0099">
<circle cx=" 372" cy=" 421" r=" 1.5"/>
</g>
<path d="M376,421h 3" fill="none" stroke="#ff0099"/>
<path d="M381,421h 3" fill="none" stroke="#ff0099"/>
<g stroke="#ff0099" stroke-width="1" fill="#ff0099">
<circle cx=" 380" cy=" 421" r=" 1.5"/>
</g>
<path d="M384,419h 2" fill="none" stroke="#ff0099"/>
<path d="M389,419h 2" fill="none" stroke="#ff0099"/>
<g stroke="#ff0099" stroke-width="1" fill="#ff0099">
<circle cx=" 387" cy=" 419" r=" 1.5"/>
</g>
<path d="M391,417h 3" fill="none" stroke="#ff0099"/>
<path d="M396,417h 3" fill="none" stroke="#ff0099"/>
<g stroke="#ff0099" stroke-width="1" fill="#ff0099">
<circle cx=" 395" cy=" 417" r=" 1.5"/>
</g>
<path d="M399,416h 2" fill="none" stroke="#ff0099"/>
<path d="M404,416h 2" fill="none" stroke="#ff0099"/>
<g stroke="#ff0099" stroke-width="1" fill="#ff0099">
<circle cx=" 403" cy=" 416" r=" 1.5"/>
</g>
<path d="M406,414h 3" fill="none" stroke="#ff0099"/>
<path d="M411,414h 3" fill="none" stroke="#ff0099"/>
<g stroke="#ff0099" stroke-width="1" fill="#ff0099">
<circle cx=" 410" cy=" 414" r=" 1.5"/>
</g>
<path d="M414,413h 2" fill="none" stroke="#ff0099"/>
<path d="M419,413h 2" fill="none" stroke="#ff0099"/>
<g stroke="#ff0099" stroke-width="1" fill="#ff0099">
<circle cx=" 418" cy=" 413" r=" 1.5"/>
</g>
<path d="M421,410h 3" fill="none" stroke="#ff0099"/>
<path d="M426,410h 3" fill="none" stroke="#ff0099"/>
<g stroke="#ff0099" stroke-width="1" fill="#ff0099">
<circle cx=" 425" cy=" 410" r=" 1.5"/>
</g>
<path d="M429,407h 3" fill="none" stroke="#ff0099"/>
<path d="M434,407h 3" fill="none" stroke="#ff0099"/>
<g stroke="#ff0099" stroke-width="1" fill="#ff0099">
<circle cx=" 433" cy=" 407" r=" 1.5"/>
</g>
<path d="M437,404h 2" fill="none" stroke="#ff0099"/>
<path d="M441,404h 3" fill="none" stroke="#ff0099"/>
<g stroke="#ff0099" stroke-width="1" fill="#ff0099">
<circle cx=" 440" cy=" 404" r=" 1.5"/>
</g>
<path d="M444,396h 3" fill="none" stroke="#ff0099"/>
<path d="M449,396h 3" fill="none" stroke="#ff0099"/>
<g stroke="#ff0099" stroke-width="1" fill="#ff0099">
<circle cx=" 448" cy=" 396" r=" 1.5"/>
</g>
<path d="M452,390h 2" fill="none" stroke="#ff0099"/>
<path d="M457,390h 2" fill="none" stroke="#ff0099"/>
<g stroke="#ff0099" stroke-width="1" fill="#ff0099">
<circle cx=" 455" cy=" 390" r=" 1.5"/>
</g>
<path d="M459,378h 3" fill="none" stroke="#ff0099"/>
<path d="M464,378h 3" fill="none" stroke="#ff0099"/>
<g stroke="#ff0099" stroke-width="1" fill="#ff0099">
<circle cx=" 463" cy=" 378" r=" 1.5"/>
</g>
<path d="M467,368h 2" fill="none" stroke="#ff0099"/>
<path d="M472,368h 2" fill="none" stroke="#ff0099"/>
<g stroke="#ff0099" stroke-width="1" fill="#ff0099">
<circle cx=" 471" cy=" 368" r=" 1.5"/>
</g>
<path d="M474,351h 3" fill="none" stroke="#ff0099"/>
<path d="M479,351h 3" fill="none" stroke="#ff0099"/>
<g stroke="#ff0099" stroke-width="1" fill="#ff0099">
<circle cx=" 478" cy=" 351" r=" 1.5"/>
</g>
<path d="M482,323h 3" fill="none" stroke="#ff0099"/>
<path d="M487,323h 2" fill="none" stroke="#ff0099"/>
<g stroke="#ff0099" stroke-width="1" fill="#ff0099">
<circle cx=" 486" cy=" 323" r=" 1.5"/>
</g>
<path d="M489,258h 3" fill="none" stroke="#ff0099"/>
<path d="M494,258h 3" fill="none" stroke="#ff0099"/>
<g stroke="#ff0099" stroke-width="1" fill="#ff0099">
<circle cx=" 493" cy=" 258" r=" 1.5"/>
</g>
<path d="M501,157" fill="none" stroke="#ff0099"/>
<path d="M501,155v -1" fill="none" stroke="#ff0099"/>
<path d="M497,156h 3" fill="none" stroke="#ff0099"/>
<path d="M502,156h 3" fill="none" stroke="#ff0099"/>
<g stroke="#ff0099" stroke-width="1" fill="#ff0099">
<circle cx=" 501" cy=" 156" r=" 1.5"/>
</g>
<path d="M508,66" fill="none" stroke="#ff0099"/>
<path d="M508,64v -1" fill="none" stroke="#ff0099"/>
<path d="M505,65h 2" fill="none" stroke="#ff0099"/>
<path d="M509,65h 3" fill="none" stroke="#ff0099"/>
<g stroke="#ff0099" stroke-width="1" fill="#ff0099">
<circle cx=" 508" cy=" 65" r=" 1.5"/>
</g>
<path d="M512,272h 3" fill="none" stroke="#ff0099"/>
<path d="M517,272h 3" fill="none" stroke="#ff0099"/>
<g stroke="#ff0099" stroke-width="1" fill="#ff0099">
<circle cx=" 516" cy=" 272" r=" 1.5"/>
</g>
<path d="M520,425h 2" fill="none" stroke="#ff0099"/>
<path d="M525,425h 2" fill="none" stroke="#ff0099"/>
<g stroke="#ff0099" stroke-width="1" fill="#ff0099">
<circle cx=" 523" cy=" 425" r=" 1.5"/>
</g>
<rect x="357" y="59" width="142" height="99" fill="white"/>
<text x="360" y="82" fill="black" font-size="17" font-family="Helvetica" font-weight="bold">
EE
</text>
<text x="457" y="115" fill="black" font-size="17" font-family="Helvetica" font-weight="bold">
 ee
</text>
<text x="440" y="115" fill="black" font-size="17" font-family="Times">
&#8594;
</text>
<text x="392" y="115" fill="black" font-size="17" font-family="Helvetica" font-weight="bold">
MC Z 
</text>
<path d="M362,109h 25" fill="none" stroke="#ff0099"/>
<g stroke="#ff0099" stroke-width="1" fill="#ff0099">
<circle cx=" 375" cy=" 109" r=" 1.5"/>
</g>
<text x="455" y="147" fill="black" font-size="17" font-family="Helvetica" font-weight="bold">
 + jet
</text>
<text x="447" y="147" fill="black" font-size="17" font-family="Times">
&#0947;
</text>
<text x="392" y="147" fill="black" font-size="17" font-family="Helvetica" font-weight="bold">
signal 
</text>
<path d="M362,154h 25v -24h -25z" fill="#99ff99"/>
<path d="M362,130h 25" fill="none" stroke="#99ff99" stroke-width="2"/>
<path d="M362,154h 25" fill="none" stroke="#99ff99" stroke-width="2"/>
<path d="M387,154v -24" fill="none" stroke="#99ff99" stroke-width="2"/>
<path d="M362,154v -24" fill="none" stroke="#99ff99" stroke-width="2"/>
<text x="300" y="34" fill="black" font-size="17" font-family="Helvetica" font-weight="bold">
=8 TeV
</text>
<text x="291" y="34" fill="black" font-size="17" font-family="Helvetica" font-weight="bold">
s
</text>
<path d="M285,25l 2, 10" fill="none" stroke="black" stroke-width="2"/>
<path d="M287,35l 2, -14" fill="none" stroke="black"/>
<path d="M289,21h 11" fill="none" stroke="black"/>
<text x="142" y="34" fill="black" font-size="17" font-family="Helvetica" font-weight="bold">
CMS Preliminary 
</text></svg>
