<?xml version="1.0" standalone="no"?>
<svg width="567" height="496" viewBox="0 0 567 496" xmlns="http://www.w3.org/2000/svg">
<title>
../src/TagAndProbeZ/plots_mcZee_mcGJet_withEtaR9nvtxReweight/hlt90/etaPhotEB.svg
</title>
<desc>
Creator: ROOT Version 5.32/00
CreationDate: Sun Sep 28 15:21:27 2014</desc>
<defs>
</defs>
<rect x="0" y="0" width="567" height="496" fill="white"/>
<rect x="74" y="44" width="453" height="402" fill="white"/>
<rect x="74" y="44" width="453" height="402" fill="none" stroke="black"/>
<rect x="74" y="44" width="453" height="402" fill="white"/>
<rect x="74" y="44" width="453" height="402" fill="none" stroke="black"/>
<path d="M191,380v -10" fill="none" stroke="#ff0099"/>
<path d="M191,368v -10" fill="none" stroke="#ff0099"/>
<path d="M187,369h 3" fill="none" stroke="#ff0099"/>
<path d="M192,369h 3" fill="none" stroke="#ff0099"/>
<g stroke="#ff0099" stroke-width="1" fill="#ff0099">
<circle cx=" 191" cy=" 369" r=" 1.5"/>
</g>
<path d="M198,278v -17" fill="none" stroke="#ff0099"/>
<path d="M198,259v -17" fill="none" stroke="#ff0099"/>
<path d="M195,260h 2" fill="none" stroke="#ff0099"/>
<path d="M200,260h 2" fill="none" stroke="#ff0099"/>
<g stroke="#ff0099" stroke-width="1" fill="#ff0099">
<circle cx=" 198" cy=" 260" r=" 1.5"/>
</g>
<path d="M206,261v -17" fill="none" stroke="#ff0099"/>
<path d="M206,241v -17" fill="none" stroke="#ff0099"/>
<path d="M202,243h 3" fill="none" stroke="#ff0099"/>
<path d="M207,243h 3" fill="none" stroke="#ff0099"/>
<g stroke="#ff0099" stroke-width="1" fill="#ff0099">
<circle cx=" 206" cy=" 243" r=" 1.5"/>
</g>
<path d="M214,249v -17" fill="none" stroke="#ff0099"/>
<path d="M214,230v -17" fill="none" stroke="#ff0099"/>
<path d="M210,231h 2" fill="none" stroke="#ff0099"/>
<path d="M215,231h 2" fill="none" stroke="#ff0099"/>
<g stroke="#ff0099" stroke-width="1" fill="#ff0099">
<circle cx=" 214" cy=" 231" r=" 1.5"/>
</g>
<path d="M221,198v -22" fill="none" stroke="#ff0099"/>
<path d="M221,174v -22" fill="none" stroke="#ff0099"/>
<path d="M217,175h 3" fill="none" stroke="#ff0099"/>
<path d="M222,175h 3" fill="none" stroke="#ff0099"/>
<g stroke="#ff0099" stroke-width="1" fill="#ff0099">
<circle cx=" 221" cy=" 175" r=" 1.5"/>
</g>
<path d="M229,159v -26" fill="none" stroke="#ff0099"/>
<path d="M229,131v -26" fill="none" stroke="#ff0099"/>
<path d="M225,132h 3" fill="none" stroke="#ff0099"/>
<path d="M230,132h 2" fill="none" stroke="#ff0099"/>
<g stroke="#ff0099" stroke-width="1" fill="#ff0099">
<circle cx=" 229" cy=" 132" r=" 1.5"/>
</g>
<path d="M236,188v -23" fill="none" stroke="#ff0099"/>
<path d="M236,163v -23" fill="none" stroke="#ff0099"/>
<path d="M232,164h 3" fill="none" stroke="#ff0099"/>
<path d="M237,164h 3" fill="none" stroke="#ff0099"/>
<g stroke="#ff0099" stroke-width="1" fill="#ff0099">
<circle cx=" 236" cy=" 164" r=" 1.5"/>
</g>
<path d="M244,186v -21" fill="none" stroke="#ff0099"/>
<path d="M244,162v -21" fill="none" stroke="#ff0099"/>
<path d="M240,164h 3" fill="none" stroke="#ff0099"/>
<path d="M245,164h 3" fill="none" stroke="#ff0099"/>
<g stroke="#ff0099" stroke-width="1" fill="#ff0099">
<circle cx=" 244" cy=" 164" r=" 1.5"/>
</g>
<path d="M251,201v -20" fill="none" stroke="#ff0099"/>
<path d="M251,178v -19" fill="none" stroke="#ff0099"/>
<path d="M248,180h 2" fill="none" stroke="#ff0099"/>
<path d="M252,180h 3" fill="none" stroke="#ff0099"/>
<g stroke="#ff0099" stroke-width="1" fill="#ff0099">
<circle cx=" 251" cy=" 180" r=" 1.5"/>
</g>
<path d="M259,127v -22" fill="none" stroke="#ff0099"/>
<path d="M259,103v -23" fill="none" stroke="#ff0099"/>
<path d="M255,104h 3" fill="none" stroke="#ff0099"/>
<path d="M260,104h 3" fill="none" stroke="#ff0099"/>
<g stroke="#ff0099" stroke-width="1" fill="#ff0099">
<circle cx=" 259" cy=" 104" r=" 1.5"/>
</g>
<path d="M266,213v -19" fill="none" stroke="#ff0099"/>
<path d="M266,192v -19" fill="none" stroke="#ff0099"/>
<path d="M263,193h 2" fill="none" stroke="#ff0099"/>
<path d="M268,193h 2" fill="none" stroke="#ff0099"/>
<g stroke="#ff0099" stroke-width="1" fill="#ff0099">
<circle cx=" 266" cy=" 193" r=" 1.5"/>
</g>
<path d="M274,240v -18" fill="none" stroke="#ff0099"/>
<path d="M274,220v -18" fill="none" stroke="#ff0099"/>
<path d="M270,221h 3" fill="none" stroke="#ff0099"/>
<path d="M275,221h 3" fill="none" stroke="#ff0099"/>
<g stroke="#ff0099" stroke-width="1" fill="#ff0099">
<circle cx=" 274" cy=" 221" r=" 1.5"/>
</g>
<path d="M282,160v -20" fill="none" stroke="#ff0099"/>
<path d="M282,137v -20" fill="none" stroke="#ff0099"/>
<path d="M278,138h 2" fill="none" stroke="#ff0099"/>
<path d="M283,138h 2" fill="none" stroke="#ff0099"/>
<g stroke="#ff0099" stroke-width="1" fill="#ff0099">
<circle cx=" 282" cy=" 138" r=" 1.5"/>
</g>
<path d="M289,165v -19" fill="none" stroke="#ff0099"/>
<path d="M289,144v -20" fill="none" stroke="#ff0099"/>
<path d="M285,145h 3" fill="none" stroke="#ff0099"/>
<path d="M290,145h 3" fill="none" stroke="#ff0099"/>
<g stroke="#ff0099" stroke-width="1" fill="#ff0099">
<circle cx=" 289" cy=" 145" r=" 1.5"/>
</g>
<path d="M297,195v -19" fill="none" stroke="#ff0099"/>
<path d="M297,174v -18" fill="none" stroke="#ff0099"/>
<path d="M293,175h 3" fill="none" stroke="#ff0099"/>
<path d="M298,175h 2" fill="none" stroke="#ff0099"/>
<g stroke="#ff0099" stroke-width="1" fill="#ff0099">
<circle cx=" 297" cy=" 175" r=" 1.5"/>
</g>
<path d="M304,206v -18" fill="none" stroke="#ff0099"/>
<path d="M304,186v -19" fill="none" stroke="#ff0099"/>
<path d="M300,187h 3" fill="none" stroke="#ff0099"/>
<path d="M305,187h 3" fill="none" stroke="#ff0099"/>
<g stroke="#ff0099" stroke-width="1" fill="#ff0099">
<circle cx=" 304" cy=" 187" r=" 1.5"/>
</g>
<path d="M312,180v -20" fill="none" stroke="#ff0099"/>
<path d="M312,158v -20" fill="none" stroke="#ff0099"/>
<path d="M308,159h 3" fill="none" stroke="#ff0099"/>
<path d="M313,159h 3" fill="none" stroke="#ff0099"/>
<g stroke="#ff0099" stroke-width="1" fill="#ff0099">
<circle cx=" 312" cy=" 159" r=" 1.5"/>
</g>
<path d="M319,154v -21" fill="none" stroke="#ff0099"/>
<path d="M319,131v -20" fill="none" stroke="#ff0099"/>
<path d="M316,132h 2" fill="none" stroke="#ff0099"/>
<path d="M321,132h 2" fill="none" stroke="#ff0099"/>
<g stroke="#ff0099" stroke-width="1" fill="#ff0099">
<circle cx=" 319" cy=" 132" r=" 1.5"/>
</g>
<path d="M327,138v -21" fill="none" stroke="#ff0099"/>
<path d="M327,115v -22" fill="none" stroke="#ff0099"/>
<path d="M323,116h 3" fill="none" stroke="#ff0099"/>
<path d="M328,116h 3" fill="none" stroke="#ff0099"/>
<g stroke="#ff0099" stroke-width="1" fill="#ff0099">
<circle cx=" 327" cy=" 116" r=" 1.5"/>
</g>
<path d="M334,198v -21" fill="none" stroke="#ff0099"/>
<path d="M334,175v -21" fill="none" stroke="#ff0099"/>
<path d="M331,176h 2" fill="none" stroke="#ff0099"/>
<path d="M336,176h 2" fill="none" stroke="#ff0099"/>
<g stroke="#ff0099" stroke-width="1" fill="#ff0099">
<circle cx=" 334" cy=" 176" r=" 1.5"/>
</g>
<path d="M342,206v -20" fill="none" stroke="#ff0099"/>
<path d="M342,184v -19" fill="none" stroke="#ff0099"/>
<path d="M338,185h 3" fill="none" stroke="#ff0099"/>
<path d="M343,185h 3" fill="none" stroke="#ff0099"/>
<g stroke="#ff0099" stroke-width="1" fill="#ff0099">
<circle cx=" 342" cy=" 185" r=" 1.5"/>
</g>
<path d="M350,115v -25" fill="none" stroke="#ff0099"/>
<path d="M350,88v -25" fill="none" stroke="#ff0099"/>
<path d="M346,89h 2" fill="none" stroke="#ff0099"/>
<path d="M351,89h 2" fill="none" stroke="#ff0099"/>
<g stroke="#ff0099" stroke-width="1" fill="#ff0099">
<circle cx=" 350" cy=" 89" r=" 1.5"/>
</g>
<path d="M357,235v -19" fill="none" stroke="#ff0099"/>
<path d="M357,214v -20" fill="none" stroke="#ff0099"/>
<path d="M353,215h 3" fill="none" stroke="#ff0099"/>
<path d="M358,215h 3" fill="none" stroke="#ff0099"/>
<g stroke="#ff0099" stroke-width="1" fill="#ff0099">
<circle cx=" 357" cy=" 215" r=" 1.5"/>
</g>
<path d="M365,163v -23" fill="none" stroke="#ff0099"/>
<path d="M365,138v -23" fill="none" stroke="#ff0099"/>
<path d="M361,139h 3" fill="none" stroke="#ff0099"/>
<path d="M366,139h 3" fill="none" stroke="#ff0099"/>
<g stroke="#ff0099" stroke-width="1" fill="#ff0099">
<circle cx=" 365" cy=" 139" r=" 1.5"/>
</g>
<path d="M372,178v -24" fill="none" stroke="#ff0099"/>
<path d="M372,151v -24" fill="none" stroke="#ff0099"/>
<path d="M369,152h 2" fill="none" stroke="#ff0099"/>
<path d="M373,152h 3" fill="none" stroke="#ff0099"/>
<g stroke="#ff0099" stroke-width="1" fill="#ff0099">
<circle cx=" 372" cy=" 152" r=" 1.5"/>
</g>
<path d="M380,174v -22" fill="none" stroke="#ff0099"/>
<path d="M380,150v -23" fill="none" stroke="#ff0099"/>
<path d="M376,151h 3" fill="none" stroke="#ff0099"/>
<path d="M381,151h 3" fill="none" stroke="#ff0099"/>
<g stroke="#ff0099" stroke-width="1" fill="#ff0099">
<circle cx=" 380" cy=" 151" r=" 1.5"/>
</g>
<path d="M387,250v -19" fill="none" stroke="#ff0099"/>
<path d="M387,229v -19" fill="none" stroke="#ff0099"/>
<path d="M384,230h 2" fill="none" stroke="#ff0099"/>
<path d="M389,230h 2" fill="none" stroke="#ff0099"/>
<g stroke="#ff0099" stroke-width="1" fill="#ff0099">
<circle cx=" 387" cy=" 230" r=" 1.5"/>
</g>
<path d="M395,261v -17" fill="none" stroke="#ff0099"/>
<path d="M395,242v -18" fill="none" stroke="#ff0099"/>
<path d="M391,243h 3" fill="none" stroke="#ff0099"/>
<path d="M396,243h 3" fill="none" stroke="#ff0099"/>
<g stroke="#ff0099" stroke-width="1" fill="#ff0099">
<circle cx=" 395" cy=" 243" r=" 1.5"/>
</g>
<path d="M403,259v -20" fill="none" stroke="#ff0099"/>
<path d="M403,236v -20" fill="none" stroke="#ff0099"/>
<path d="M399,237h 2" fill="none" stroke="#ff0099"/>
<path d="M404,237h 2" fill="none" stroke="#ff0099"/>
<g stroke="#ff0099" stroke-width="1" fill="#ff0099">
<circle cx=" 403" cy=" 237" r=" 1.5"/>
</g>
<path d="M410,372v -11" fill="none" stroke="#ff0099"/>
<path d="M410,359v -11" fill="none" stroke="#ff0099"/>
<path d="M406,360h 3" fill="none" stroke="#ff0099"/>
<path d="M411,360h 3" fill="none" stroke="#ff0099"/>
<g stroke="#ff0099" stroke-width="1" fill="#ff0099">
<circle cx=" 410" cy=" 360" r=" 1.5"/>
</g>
<path d="M74,446h 453" fill="none" stroke="black"/>
<path d="M74,434v 12" fill="none" stroke="black"/>
<path d="M89,440v 6" fill="none" stroke="black"/>
<path d="M104,440v 6" fill="none" stroke="black"/>
<path d="M119,440v 6" fill="none" stroke="black"/>
<path d="M134,440v 6" fill="none" stroke="black"/>
<path d="M149,434v 12" fill="none" stroke="black"/>
<path d="M164,440v 6" fill="none" stroke="black"/>
<path d="M180,440v 6" fill="none" stroke="black"/>
<path d="M195,440v 6" fill="none" stroke="black"/>
<path d="M210,440v 6" fill="none" stroke="black"/>
<path d="M225,434v 12" fill="none" stroke="black"/>
<path d="M240,440v 6" fill="none" stroke="black"/>
<path d="M255,440v 6" fill="none" stroke="black"/>
<path d="M270,440v 6" fill="none" stroke="black"/>
<path d="M285,440v 6" fill="none" stroke="black"/>
<path d="M300,434v 12" fill="none" stroke="black"/>
<path d="M316,440v 6" fill="none" stroke="black"/>
<path d="M331,440v 6" fill="none" stroke="black"/>
<path d="M346,440v 6" fill="none" stroke="black"/>
<path d="M361,440v 6" fill="none" stroke="black"/>
<path d="M376,434v 12" fill="none" stroke="black"/>
<path d="M391,440v 6" fill="none" stroke="black"/>
<path d="M406,440v 6" fill="none" stroke="black"/>
<path d="M421,440v 6" fill="none" stroke="black"/>
<path d="M437,440v 6" fill="none" stroke="black"/>
<path d="M452,434v 12" fill="none" stroke="black"/>
<path d="M467,440v 6" fill="none" stroke="black"/>
<path d="M482,440v 6" fill="none" stroke="black"/>
<path d="M497,440v 6" fill="none" stroke="black"/>
<path d="M512,440v 6" fill="none" stroke="black"/>
<path d="M527,434v 12" fill="none" stroke="black"/>
<path d="M527,434v 12" fill="none" stroke="black"/>
<text x="65" y="465" fill="black" font-size="18" font-family="Helvetica" font-weight="bold">
-3
</text>
<text x="141" y="465" fill="black" font-size="18" font-family="Helvetica" font-weight="bold">
-2
</text>
<text x="218" y="465" fill="black" font-size="18" font-family="Helvetica" font-weight="bold">
-1
</text>
<text x="295" y="465" fill="black" font-size="18" font-family="Helvetica" font-weight="bold">
0
</text>
<text x="372" y="465" fill="black" font-size="18" font-family="Helvetica" font-weight="bold">
1
</text>
<text x="446" y="465" fill="black" font-size="18" font-family="Helvetica" font-weight="bold">
2
</text>
<text x="522" y="465" fill="black" font-size="18" font-family="Helvetica" font-weight="bold">
3
</text>
<path d="M74,44h 453" fill="none" stroke="black"/>
<path d="M74,56v -12" fill="none" stroke="black"/>
<path d="M89,50v -6" fill="none" stroke="black"/>
<path d="M104,50v -6" fill="none" stroke="black"/>
<path d="M119,50v -6" fill="none" stroke="black"/>
<path d="M134,50v -6" fill="none" stroke="black"/>
<path d="M149,56v -12" fill="none" stroke="black"/>
<path d="M164,50v -6" fill="none" stroke="black"/>
<path d="M180,50v -6" fill="none" stroke="black"/>
<path d="M195,50v -6" fill="none" stroke="black"/>
<path d="M210,50v -6" fill="none" stroke="black"/>
<path d="M225,56v -12" fill="none" stroke="black"/>
<path d="M240,50v -6" fill="none" stroke="black"/>
<path d="M255,50v -6" fill="none" stroke="black"/>
<path d="M270,50v -6" fill="none" stroke="black"/>
<path d="M285,50v -6" fill="none" stroke="black"/>
<path d="M300,56v -12" fill="none" stroke="black"/>
<path d="M316,50v -6" fill="none" stroke="black"/>
<path d="M331,50v -6" fill="none" stroke="black"/>
<path d="M346,50v -6" fill="none" stroke="black"/>
<path d="M361,50v -6" fill="none" stroke="black"/>
<path d="M376,56v -12" fill="none" stroke="black"/>
<path d="M391,50v -6" fill="none" stroke="black"/>
<path d="M406,50v -6" fill="none" stroke="black"/>
<path d="M421,50v -6" fill="none" stroke="black"/>
<path d="M437,50v -6" fill="none" stroke="black"/>
<path d="M452,56v -12" fill="none" stroke="black"/>
<path d="M467,50v -6" fill="none" stroke="black"/>
<path d="M482,50v -6" fill="none" stroke="black"/>
<path d="M497,50v -6" fill="none" stroke="black"/>
<path d="M512,50v -6" fill="none" stroke="black"/>
<path d="M527,56v -12" fill="none" stroke="black"/>
<path d="M527,56v -12" fill="none" stroke="black"/>
<path d="M74,446v -402" fill="none" stroke="black"/>
<path d="M87,446h -13" fill="none" stroke="black"/>
<path d="M81,431h -7" fill="none" stroke="black"/>
<path d="M81,415h -7" fill="none" stroke="black"/>
<path d="M81,400h -7" fill="none" stroke="black"/>
<path d="M81,385h -7" fill="none" stroke="black"/>
<path d="M87,369h -13" fill="none" stroke="black"/>
<path d="M81,354h -7" fill="none" stroke="black"/>
<path d="M81,338h -7" fill="none" stroke="black"/>
<path d="M81,323h -7" fill="none" stroke="black"/>
<path d="M81,307h -7" fill="none" stroke="black"/>
<path d="M87,292h -13" fill="none" stroke="black"/>
<path d="M81,276h -7" fill="none" stroke="black"/>
<path d="M81,261h -7" fill="none" stroke="black"/>
<path d="M81,245h -7" fill="none" stroke="black"/>
<path d="M81,230h -7" fill="none" stroke="black"/>
<path d="M87,215h -13" fill="none" stroke="black"/>
<path d="M81,199h -7" fill="none" stroke="black"/>
<path d="M81,184h -7" fill="none" stroke="black"/>
<path d="M81,168h -7" fill="none" stroke="black"/>
<path d="M81,153h -7" fill="none" stroke="black"/>
<path d="M87,137h -13" fill="none" stroke="black"/>
<path d="M81,122h -7" fill="none" stroke="black"/>
<path d="M81,106h -7" fill="none" stroke="black"/>
<path d="M81,91h -7" fill="none" stroke="black"/>
<path d="M81,75h -7" fill="none" stroke="black"/>
<path d="M87,60h -13" fill="none" stroke="black"/>
<path d="M87,60h -13" fill="none" stroke="black"/>
<path d="M81,45h -7" fill="none" stroke="black"/>
<text x="61" y="453" fill="black" font-size="18" font-family="Helvetica" font-weight="bold">
0
</text>
<text x="37" y="376" fill="black" font-size="18" font-family="Helvetica" font-weight="bold">
0.01
</text>
<text x="35" y="298" fill="black" font-size="18" font-family="Helvetica" font-weight="bold">
0.02
</text>
<text x="35" y="221" fill="black" font-size="18" font-family="Helvetica" font-weight="bold">
0.03
</text>
<text x="34" y="144" fill="black" font-size="18" font-family="Helvetica" font-weight="bold">
0.04
</text>
<text x="34" y="67" fill="black" font-size="18" font-family="Helvetica" font-weight="bold">
0.05
</text>
<path d="M191,335v -3" fill="none" stroke="#99ff99" stroke-width="2"/>
<path d="M191,332v -2" fill="none" stroke="#99ff99" stroke-width="2"/>
<g stroke="black" stroke-width="2" fill="none">
<line x1="190" y1="332" x2="191" y2="332"/>
</g>
<path d="M198,187v -4" fill="none" stroke="#99ff99" stroke-width="2"/>
<path d="M198,183v -4" fill="none" stroke="#99ff99" stroke-width="2"/>
<g stroke="black" stroke-width="2" fill="none">
<line x1="197" y1="183" x2="198" y2="183"/>
</g>
<path d="M206,185v -4" fill="none" stroke="#99ff99" stroke-width="2"/>
<path d="M206,181v -3" fill="none" stroke="#99ff99" stroke-width="2"/>
<g stroke="black" stroke-width="2" fill="none">
<line x1="205" y1="181" x2="206" y2="181"/>
</g>
<path d="M214,189v -8" fill="none" stroke="#99ff99" stroke-width="2"/>
<path d="M214,181v -8" fill="none" stroke="#99ff99" stroke-width="2"/>
<g stroke="black" stroke-width="2" fill="none">
<line x1="213" y1="181" x2="214" y2="181"/>
</g>
<path d="M221,175v -4" fill="none" stroke="#99ff99" stroke-width="2"/>
<path d="M221,171v -4" fill="none" stroke="#99ff99" stroke-width="2"/>
<g stroke="black" stroke-width="2" fill="none">
<line x1="220" y1="171" x2="221" y2="171"/>
</g>
<path d="M229,178v -4" fill="none" stroke="#99ff99" stroke-width="2"/>
<path d="M229,174v -4" fill="none" stroke="#99ff99" stroke-width="2"/>
<g stroke="black" stroke-width="2" fill="none">
<line x1="228" y1="174" x2="229" y2="174"/>
</g>
<path d="M236,175v -4" fill="none" stroke="#99ff99" stroke-width="2"/>
<path d="M236,171v -3" fill="none" stroke="#99ff99" stroke-width="2"/>
<g stroke="black" stroke-width="2" fill="none">
<line x1="235" y1="171" x2="236" y2="171"/>
</g>
<path d="M244,199v -4" fill="none" stroke="#99ff99" stroke-width="2"/>
<path d="M244,195v -4" fill="none" stroke="#99ff99" stroke-width="2"/>
<g stroke="black" stroke-width="2" fill="none">
<line x1="243" y1="195" x2="244" y2="195"/>
</g>
<path d="M251,174v -4" fill="none" stroke="#99ff99" stroke-width="2"/>
<path d="M251,170v -3" fill="none" stroke="#99ff99" stroke-width="2"/>
<g stroke="black" stroke-width="2" fill="none">
<line x1="250" y1="170" x2="251" y2="170"/>
</g>
<path d="M259,176v -3" fill="none" stroke="#99ff99" stroke-width="2"/>
<path d="M259,173v -4" fill="none" stroke="#99ff99" stroke-width="2"/>
<g stroke="black" stroke-width="2" fill="none">
<line x1="258" y1="173" x2="259" y2="173"/>
</g>
<path d="M266,190v -4" fill="none" stroke="#99ff99" stroke-width="2"/>
<path d="M266,186v -4" fill="none" stroke="#99ff99" stroke-width="2"/>
<g stroke="black" stroke-width="2" fill="none">
<line x1="265" y1="186" x2="266" y2="186"/>
</g>
<path d="M274,183v -3" fill="none" stroke="#99ff99" stroke-width="2"/>
<path d="M274,180v -4" fill="none" stroke="#99ff99" stroke-width="2"/>
<g stroke="black" stroke-width="2" fill="none">
<line x1="273" y1="180" x2="274" y2="180"/>
</g>
<path d="M282,186v -4" fill="none" stroke="#99ff99" stroke-width="2"/>
<path d="M282,182v -4" fill="none" stroke="#99ff99" stroke-width="2"/>
<g stroke="black" stroke-width="2" fill="none">
<line x1="281" y1="182" x2="282" y2="182"/>
</g>
<path d="M289,183v -4" fill="none" stroke="#99ff99" stroke-width="2"/>
<path d="M289,179v -4" fill="none" stroke="#99ff99" stroke-width="2"/>
<g stroke="black" stroke-width="2" fill="none">
<line x1="288" y1="179" x2="289" y2="179"/>
</g>
<path d="M297,196v -4" fill="none" stroke="#99ff99" stroke-width="2"/>
<path d="M297,192v -3" fill="none" stroke="#99ff99" stroke-width="2"/>
<g stroke="black" stroke-width="2" fill="none">
<line x1="296" y1="192" x2="297" y2="192"/>
</g>
<path d="M304,191v -4" fill="none" stroke="#99ff99" stroke-width="2"/>
<path d="M304,187v -3" fill="none" stroke="#99ff99" stroke-width="2"/>
<g stroke="black" stroke-width="2" fill="none">
<line x1="303" y1="187" x2="304" y2="187"/>
</g>
<path d="M312,184v -4" fill="none" stroke="#99ff99" stroke-width="2"/>
<path d="M312,180v -4" fill="none" stroke="#99ff99" stroke-width="2"/>
<g stroke="black" stroke-width="2" fill="none">
<line x1="311" y1="180" x2="312" y2="180"/>
</g>
<path d="M319,177v -4" fill="none" stroke="#99ff99" stroke-width="2"/>
<path d="M319,173v -4" fill="none" stroke="#99ff99" stroke-width="2"/>
<g stroke="black" stroke-width="2" fill="none">
<line x1="318" y1="173" x2="319" y2="173"/>
</g>
<path d="M327,179v -3" fill="none" stroke="#99ff99" stroke-width="2"/>
<path d="M327,176v -4" fill="none" stroke="#99ff99" stroke-width="2"/>
<g stroke="black" stroke-width="2" fill="none">
<line x1="326" y1="176" x2="327" y2="176"/>
</g>
<path d="M334,185v -12" fill="none" stroke="#99ff99" stroke-width="2"/>
<path d="M334,173v -12" fill="none" stroke="#99ff99" stroke-width="2"/>
<g stroke="black" stroke-width="2" fill="none">
<line x1="333" y1="173" x2="334" y2="173"/>
</g>
<path d="M342,176v -3" fill="none" stroke="#99ff99" stroke-width="2"/>
<path d="M342,173v -4" fill="none" stroke="#99ff99" stroke-width="2"/>
<g stroke="black" stroke-width="2" fill="none">
<line x1="341" y1="173" x2="342" y2="173"/>
</g>
<path d="M350,175v -3" fill="none" stroke="#99ff99" stroke-width="2"/>
<path d="M350,172v -4" fill="none" stroke="#99ff99" stroke-width="2"/>
<g stroke="black" stroke-width="2" fill="none">
<line x1="349" y1="172" x2="350" y2="172"/>
</g>
<path d="M357,199v -3" fill="none" stroke="#99ff99" stroke-width="2"/>
<path d="M357,196v -4" fill="none" stroke="#99ff99" stroke-width="2"/>
<g stroke="black" stroke-width="2" fill="none">
<line x1="356" y1="196" x2="357" y2="196"/>
</g>
<path d="M365,176v -4" fill="none" stroke="#99ff99" stroke-width="2"/>
<path d="M365,172v -4" fill="none" stroke="#99ff99" stroke-width="2"/>
<g stroke="black" stroke-width="2" fill="none">
<line x1="364" y1="172" x2="365" y2="172"/>
</g>
<path d="M372,175v -5" fill="none" stroke="#99ff99" stroke-width="2"/>
<path d="M372,170v -4" fill="none" stroke="#99ff99" stroke-width="2"/>
<g stroke="black" stroke-width="2" fill="none">
<line x1="371" y1="170" x2="372" y2="170"/>
</g>
<path d="M380,182v -3" fill="none" stroke="#99ff99" stroke-width="2"/>
<path d="M380,179v -4" fill="none" stroke="#99ff99" stroke-width="2"/>
<g stroke="black" stroke-width="2" fill="none">
<line x1="379" y1="179" x2="380" y2="179"/>
</g>
<path d="M387,193v -4" fill="none" stroke="#99ff99" stroke-width="2"/>
<path d="M387,189v -4" fill="none" stroke="#99ff99" stroke-width="2"/>
<g stroke="black" stroke-width="2" fill="none">
<line x1="386" y1="189" x2="387" y2="189"/>
</g>
<path d="M395,174v -4" fill="none" stroke="#99ff99" stroke-width="2"/>
<path d="M395,170v -4" fill="none" stroke="#99ff99" stroke-width="2"/>
<g stroke="black" stroke-width="2" fill="none">
<line x1="394" y1="170" x2="395" y2="170"/>
</g>
<path d="M403,175v -4" fill="none" stroke="#99ff99" stroke-width="2"/>
<path d="M403,171v -4" fill="none" stroke="#99ff99" stroke-width="2"/>
<g stroke="black" stroke-width="2" fill="none">
<line x1="402" y1="171" x2="403" y2="171"/>
</g>
<path d="M410,335v -2" fill="none" stroke="#99ff99" stroke-width="2"/>
<path d="M410,333v -3" fill="none" stroke="#99ff99" stroke-width="2"/>
<g stroke="black" stroke-width="2" fill="none">
<line x1="409" y1="333" x2="410" y2="333"/>
</g>
<path d="M74,446h 113v -114h 8v -149h 7v -2h 15v -10h 8v 3h 7v -3h 8v 24h 8v -25h 7v 3h 8v 13h 7v -6h 8v 2h 7v -3h 8v 13h 7v -5h 8v -7h 8v -7h 7v 3h 8v -3h 15v -1h 7v 24h 8v -24h 8v -2h 7v 9h 8v 10h 7v -19h 8v 1h 7v 162h 8v 113h 113z"
 fill="#99ff99"/>
<path d="M74,446h 113v -114h 8v -149h 7v -2h 15v -10h 8v 3h 7v -3h 8v 24h 8v -25h 7v 3h 8v 13h 7v -6h 8v 2h 7v -3h 8v 13h 7v -5h 8v -7h 8v -7h 7v 3h 8v -3h 15v -1h 7v 24h 8v -24h 8v -2h 7v 9h 8v 10h 7v -19h 8v 1h 7v 162h 8v 113h 113" fill="none"
 stroke="#99ff99" stroke-width="2"/>
<path d="M191,380v -10" fill="none" stroke="#ff0099"/>
<path d="M191,368v -10" fill="none" stroke="#ff0099"/>
<path d="M187,369h 3" fill="none" stroke="#ff0099"/>
<path d="M192,369h 3" fill="none" stroke="#ff0099"/>
<g stroke="#ff0099" stroke-width="1" fill="#ff0099">
<circle cx=" 191" cy=" 369" r=" 1.5"/>
</g>
<path d="M198,278v -17" fill="none" stroke="#ff0099"/>
<path d="M198,259v -17" fill="none" stroke="#ff0099"/>
<path d="M195,260h 2" fill="none" stroke="#ff0099"/>
<path d="M200,260h 2" fill="none" stroke="#ff0099"/>
<g stroke="#ff0099" stroke-width="1" fill="#ff0099">
<circle cx=" 198" cy=" 260" r=" 1.5"/>
</g>
<path d="M206,261v -17" fill="none" stroke="#ff0099"/>
<path d="M206,241v -17" fill="none" stroke="#ff0099"/>
<path d="M202,243h 3" fill="none" stroke="#ff0099"/>
<path d="M207,243h 3" fill="none" stroke="#ff0099"/>
<g stroke="#ff0099" stroke-width="1" fill="#ff0099">
<circle cx=" 206" cy=" 243" r=" 1.5"/>
</g>
<path d="M214,249v -17" fill="none" stroke="#ff0099"/>
<path d="M214,230v -17" fill="none" stroke="#ff0099"/>
<path d="M210,231h 2" fill="none" stroke="#ff0099"/>
<path d="M215,231h 2" fill="none" stroke="#ff0099"/>
<g stroke="#ff0099" stroke-width="1" fill="#ff0099">
<circle cx=" 214" cy=" 231" r=" 1.5"/>
</g>
<path d="M221,198v -22" fill="none" stroke="#ff0099"/>
<path d="M221,174v -22" fill="none" stroke="#ff0099"/>
<path d="M217,175h 3" fill="none" stroke="#ff0099"/>
<path d="M222,175h 3" fill="none" stroke="#ff0099"/>
<g stroke="#ff0099" stroke-width="1" fill="#ff0099">
<circle cx=" 221" cy=" 175" r=" 1.5"/>
</g>
<path d="M229,159v -26" fill="none" stroke="#ff0099"/>
<path d="M229,131v -26" fill="none" stroke="#ff0099"/>
<path d="M225,132h 3" fill="none" stroke="#ff0099"/>
<path d="M230,132h 2" fill="none" stroke="#ff0099"/>
<g stroke="#ff0099" stroke-width="1" fill="#ff0099">
<circle cx=" 229" cy=" 132" r=" 1.5"/>
</g>
<path d="M236,188v -23" fill="none" stroke="#ff0099"/>
<path d="M236,163v -23" fill="none" stroke="#ff0099"/>
<path d="M232,164h 3" fill="none" stroke="#ff0099"/>
<path d="M237,164h 3" fill="none" stroke="#ff0099"/>
<g stroke="#ff0099" stroke-width="1" fill="#ff0099">
<circle cx=" 236" cy=" 164" r=" 1.5"/>
</g>
<path d="M244,186v -21" fill="none" stroke="#ff0099"/>
<path d="M244,162v -21" fill="none" stroke="#ff0099"/>
<path d="M240,164h 3" fill="none" stroke="#ff0099"/>
<path d="M245,164h 3" fill="none" stroke="#ff0099"/>
<g stroke="#ff0099" stroke-width="1" fill="#ff0099">
<circle cx=" 244" cy=" 164" r=" 1.5"/>
</g>
<path d="M251,201v -20" fill="none" stroke="#ff0099"/>
<path d="M251,178v -19" fill="none" stroke="#ff0099"/>
<path d="M248,180h 2" fill="none" stroke="#ff0099"/>
<path d="M252,180h 3" fill="none" stroke="#ff0099"/>
<g stroke="#ff0099" stroke-width="1" fill="#ff0099">
<circle cx=" 251" cy=" 180" r=" 1.5"/>
</g>
<path d="M259,127v -22" fill="none" stroke="#ff0099"/>
<path d="M259,103v -23" fill="none" stroke="#ff0099"/>
<path d="M255,104h 3" fill="none" stroke="#ff0099"/>
<path d="M260,104h 3" fill="none" stroke="#ff0099"/>
<g stroke="#ff0099" stroke-width="1" fill="#ff0099">
<circle cx=" 259" cy=" 104" r=" 1.5"/>
</g>
<path d="M266,213v -19" fill="none" stroke="#ff0099"/>
<path d="M266,192v -19" fill="none" stroke="#ff0099"/>
<path d="M263,193h 2" fill="none" stroke="#ff0099"/>
<path d="M268,193h 2" fill="none" stroke="#ff0099"/>
<g stroke="#ff0099" stroke-width="1" fill="#ff0099">
<circle cx=" 266" cy=" 193" r=" 1.5"/>
</g>
<path d="M274,240v -18" fill="none" stroke="#ff0099"/>
<path d="M274,220v -18" fill="none" stroke="#ff0099"/>
<path d="M270,221h 3" fill="none" stroke="#ff0099"/>
<path d="M275,221h 3" fill="none" stroke="#ff0099"/>
<g stroke="#ff0099" stroke-width="1" fill="#ff0099">
<circle cx=" 274" cy=" 221" r=" 1.5"/>
</g>
<path d="M282,160v -20" fill="none" stroke="#ff0099"/>
<path d="M282,137v -20" fill="none" stroke="#ff0099"/>
<path d="M278,138h 2" fill="none" stroke="#ff0099"/>
<path d="M283,138h 2" fill="none" stroke="#ff0099"/>
<g stroke="#ff0099" stroke-width="1" fill="#ff0099">
<circle cx=" 282" cy=" 138" r=" 1.5"/>
</g>
<path d="M289,165v -19" fill="none" stroke="#ff0099"/>
<path d="M289,144v -20" fill="none" stroke="#ff0099"/>
<path d="M285,145h 3" fill="none" stroke="#ff0099"/>
<path d="M290,145h 3" fill="none" stroke="#ff0099"/>
<g stroke="#ff0099" stroke-width="1" fill="#ff0099">
<circle cx=" 289" cy=" 145" r=" 1.5"/>
</g>
<path d="M297,195v -19" fill="none" stroke="#ff0099"/>
<path d="M297,174v -18" fill="none" stroke="#ff0099"/>
<path d="M293,175h 3" fill="none" stroke="#ff0099"/>
<path d="M298,175h 2" fill="none" stroke="#ff0099"/>
<g stroke="#ff0099" stroke-width="1" fill="#ff0099">
<circle cx=" 297" cy=" 175" r=" 1.5"/>
</g>
<path d="M304,206v -18" fill="none" stroke="#ff0099"/>
<path d="M304,186v -19" fill="none" stroke="#ff0099"/>
<path d="M300,187h 3" fill="none" stroke="#ff0099"/>
<path d="M305,187h 3" fill="none" stroke="#ff0099"/>
<g stroke="#ff0099" stroke-width="1" fill="#ff0099">
<circle cx=" 304" cy=" 187" r=" 1.5"/>
</g>
<path d="M312,180v -20" fill="none" stroke="#ff0099"/>
<path d="M312,158v -20" fill="none" stroke="#ff0099"/>
<path d="M308,159h 3" fill="none" stroke="#ff0099"/>
<path d="M313,159h 3" fill="none" stroke="#ff0099"/>
<g stroke="#ff0099" stroke-width="1" fill="#ff0099">
<circle cx=" 312" cy=" 159" r=" 1.5"/>
</g>
<path d="M319,154v -21" fill="none" stroke="#ff0099"/>
<path d="M319,131v -20" fill="none" stroke="#ff0099"/>
<path d="M316,132h 2" fill="none" stroke="#ff0099"/>
<path d="M321,132h 2" fill="none" stroke="#ff0099"/>
<g stroke="#ff0099" stroke-width="1" fill="#ff0099">
<circle cx=" 319" cy=" 132" r=" 1.5"/>
</g>
<path d="M327,138v -21" fill="none" stroke="#ff0099"/>
<path d="M327,115v -22" fill="none" stroke="#ff0099"/>
<path d="M323,116h 3" fill="none" stroke="#ff0099"/>
<path d="M328,116h 3" fill="none" stroke="#ff0099"/>
<g stroke="#ff0099" stroke-width="1" fill="#ff0099">
<circle cx=" 327" cy=" 116" r=" 1.5"/>
</g>
<path d="M334,198v -21" fill="none" stroke="#ff0099"/>
<path d="M334,175v -21" fill="none" stroke="#ff0099"/>
<path d="M331,176h 2" fill="none" stroke="#ff0099"/>
<path d="M336,176h 2" fill="none" stroke="#ff0099"/>
<g stroke="#ff0099" stroke-width="1" fill="#ff0099">
<circle cx=" 334" cy=" 176" r=" 1.5"/>
</g>
<path d="M342,206v -20" fill="none" stroke="#ff0099"/>
<path d="M342,184v -19" fill="none" stroke="#ff0099"/>
<path d="M338,185h 3" fill="none" stroke="#ff0099"/>
<path d="M343,185h 3" fill="none" stroke="#ff0099"/>
<g stroke="#ff0099" stroke-width="1" fill="#ff0099">
<circle cx=" 342" cy=" 185" r=" 1.5"/>
</g>
<path d="M350,115v -25" fill="none" stroke="#ff0099"/>
<path d="M350,88v -25" fill="none" stroke="#ff0099"/>
<path d="M346,89h 2" fill="none" stroke="#ff0099"/>
<path d="M351,89h 2" fill="none" stroke="#ff0099"/>
<g stroke="#ff0099" stroke-width="1" fill="#ff0099">
<circle cx=" 350" cy=" 89" r=" 1.5"/>
</g>
<path d="M357,235v -19" fill="none" stroke="#ff0099"/>
<path d="M357,214v -20" fill="none" stroke="#ff0099"/>
<path d="M353,215h 3" fill="none" stroke="#ff0099"/>
<path d="M358,215h 3" fill="none" stroke="#ff0099"/>
<g stroke="#ff0099" stroke-width="1" fill="#ff0099">
<circle cx=" 357" cy=" 215" r=" 1.5"/>
</g>
<path d="M365,163v -23" fill="none" stroke="#ff0099"/>
<path d="M365,138v -23" fill="none" stroke="#ff0099"/>
<path d="M361,139h 3" fill="none" stroke="#ff0099"/>
<path d="M366,139h 3" fill="none" stroke="#ff0099"/>
<g stroke="#ff0099" stroke-width="1" fill="#ff0099">
<circle cx=" 365" cy=" 139" r=" 1.5"/>
</g>
<path d="M372,178v -24" fill="none" stroke="#ff0099"/>
<path d="M372,151v -24" fill="none" stroke="#ff0099"/>
<path d="M369,152h 2" fill="none" stroke="#ff0099"/>
<path d="M373,152h 3" fill="none" stroke="#ff0099"/>
<g stroke="#ff0099" stroke-width="1" fill="#ff0099">
<circle cx=" 372" cy=" 152" r=" 1.5"/>
</g>
<path d="M380,174v -22" fill="none" stroke="#ff0099"/>
<path d="M380,150v -23" fill="none" stroke="#ff0099"/>
<path d="M376,151h 3" fill="none" stroke="#ff0099"/>
<path d="M381,151h 3" fill="none" stroke="#ff0099"/>
<g stroke="#ff0099" stroke-width="1" fill="#ff0099">
<circle cx=" 380" cy=" 151" r=" 1.5"/>
</g>
<path d="M387,250v -19" fill="none" stroke="#ff0099"/>
<path d="M387,229v -19" fill="none" stroke="#ff0099"/>
<path d="M384,230h 2" fill="none" stroke="#ff0099"/>
<path d="M389,230h 2" fill="none" stroke="#ff0099"/>
<g stroke="#ff0099" stroke-width="1" fill="#ff0099">
<circle cx=" 387" cy=" 230" r=" 1.5"/>
</g>
<path d="M395,261v -17" fill="none" stroke="#ff0099"/>
<path d="M395,242v -18" fill="none" stroke="#ff0099"/>
<path d="M391,243h 3" fill="none" stroke="#ff0099"/>
<path d="M396,243h 3" fill="none" stroke="#ff0099"/>
<g stroke="#ff0099" stroke-width="1" fill="#ff0099">
<circle cx=" 395" cy=" 243" r=" 1.5"/>
</g>
<path d="M403,259v -20" fill="none" stroke="#ff0099"/>
<path d="M403,236v -20" fill="none" stroke="#ff0099"/>
<path d="M399,237h 2" fill="none" stroke="#ff0099"/>
<path d="M404,237h 2" fill="none" stroke="#ff0099"/>
<g stroke="#ff0099" stroke-width="1" fill="#ff0099">
<circle cx=" 403" cy=" 237" r=" 1.5"/>
</g>
<path d="M410,372v -11" fill="none" stroke="#ff0099"/>
<path d="M410,359v -11" fill="none" stroke="#ff0099"/>
<path d="M406,360h 3" fill="none" stroke="#ff0099"/>
<path d="M411,360h 3" fill="none" stroke="#ff0099"/>
<g stroke="#ff0099" stroke-width="1" fill="#ff0099">
<circle cx=" 410" cy=" 360" r=" 1.5"/>
</g>
<rect x="357" y="59" width="142" height="99" fill="white"/>
<text x="360" y="82" fill="black" font-size="17" font-family="Helvetica" font-weight="bold">
EB
</text>
<text x="457" y="115" fill="black" font-size="17" font-family="Helvetica" font-weight="bold">
 ee
</text>
<text x="440" y="115" fill="black" font-size="17" font-family="Times">
&#8594;
</text>
<text x="392" y="115" fill="black" font-size="17" font-family="Helvetica" font-weight="bold">
MC Z 
</text>
<path d="M362,109h 25" fill="none" stroke="#ff0099"/>
<g stroke="#ff0099" stroke-width="1" fill="#ff0099">
<circle cx=" 375" cy=" 109" r=" 1.5"/>
</g>
<text x="455" y="147" fill="black" font-size="17" font-family="Helvetica" font-weight="bold">
 + jet
</text>
<text x="447" y="147" fill="black" font-size="17" font-family="Times">
&#0947;
</text>
<text x="392" y="147" fill="black" font-size="17" font-family="Helvetica" font-weight="bold">
signal 
</text>
<path d="M362,154h 25v -24h -25z" fill="#99ff99"/>
<path d="M362,130h 25" fill="none" stroke="#99ff99" stroke-width="2"/>
<path d="M362,154h 25" fill="none" stroke="#99ff99" stroke-width="2"/>
<path d="M387,154v -24" fill="none" stroke="#99ff99" stroke-width="2"/>
<path d="M362,154v -24" fill="none" stroke="#99ff99" stroke-width="2"/>
<text x="300" y="34" fill="black" font-size="17" font-family="Helvetica" font-weight="bold">
=8 TeV
</text>
<text x="291" y="34" fill="black" font-size="17" font-family="Helvetica" font-weight="bold">
s
</text>
<path d="M285,25l 2, 10" fill="none" stroke="black" stroke-width="2"/>
<path d="M287,35l 2, -14" fill="none" stroke="black"/>
<path d="M289,21h 11" fill="none" stroke="black"/>
<text x="142" y="34" fill="black" font-size="17" font-family="Helvetica" font-weight="bold">
CMS Preliminary 
</text></svg>
