<?xml version="1.0" standalone="no"?>
<svg width="567" height="496" viewBox="0 0 567 496" xmlns="http://www.w3.org/2000/svg">
<title>
../src/TagAndProbeZ/plots_mcZee_mcGJet_withEtaR9nvtxReweight/hlt90/mvaIdPhotEB.svg
</title>
<desc>
Creator: ROOT Version 5.32/00
CreationDate: Sun Sep 28 15:21:32 2014</desc>
<defs>
</defs>
<rect x="0" y="0" width="567" height="496" fill="white"/>
<rect x="74" y="44" width="453" height="402" fill="white"/>
<rect x="74" y="44" width="453" height="402" fill="none" stroke="black"/>
<rect x="74" y="44" width="453" height="402" fill="white"/>
<rect x="74" y="44" width="453" height="402" fill="none" stroke="black"/>
<path d="M452,438v -1" fill="none" stroke="#ff0099"/>
<path d="M452,435" fill="none" stroke="#ff0099"/>
<path d="M450,436h 1" fill="none" stroke="#ff0099"/>
<path d="M454,436h 1" fill="none" stroke="#ff0099"/>
<g stroke="#ff0099" stroke-width="1" fill="#ff0099">
<circle cx=" 452" cy=" 436" r=" 1.5"/>
</g>
<path d="M457,425v -1" fill="none" stroke="#ff0099"/>
<path d="M457,422v -1" fill="none" stroke="#ff0099"/>
<path d="M455,423h 1" fill="none" stroke="#ff0099"/>
<path d="M458,423h 1" fill="none" stroke="#ff0099"/>
<g stroke="#ff0099" stroke-width="1" fill="#ff0099">
<circle cx=" 457" cy=" 423" r=" 1.5"/>
</g>
<path d="M461,422v -1" fill="none" stroke="#ff0099"/>
<path d="M461,418v -1" fill="none" stroke="#ff0099"/>
<path d="M459,419h 1" fill="none" stroke="#ff0099"/>
<path d="M463,419h 1" fill="none" stroke="#ff0099"/>
<g stroke="#ff0099" stroke-width="1" fill="#ff0099">
<circle cx=" 461" cy=" 419" r=" 1.5"/>
</g>
<path d="M466,409v -1" fill="none" stroke="#ff0099"/>
<path d="M466,405v -1" fill="none" stroke="#ff0099"/>
<path d="M464,406h 1" fill="none" stroke="#ff0099"/>
<path d="M467,406h 1" fill="none" stroke="#ff0099"/>
<g stroke="#ff0099" stroke-width="1" fill="#ff0099">
<circle cx=" 466" cy=" 406" r=" 1.5"/>
</g>
<path d="M471,402v -2" fill="none" stroke="#ff0099"/>
<path d="M471,398v -2" fill="none" stroke="#ff0099"/>
<path d="M468,399h 1" fill="none" stroke="#ff0099"/>
<path d="M472,399h 1" fill="none" stroke="#ff0099"/>
<g stroke="#ff0099" stroke-width="1" fill="#ff0099">
<circle cx=" 471" cy=" 399" r=" 1.5"/>
</g>
<path d="M475,394v -2" fill="none" stroke="#ff0099"/>
<path d="M475,389v -2" fill="none" stroke="#ff0099"/>
<path d="M473,390h 1" fill="none" stroke="#ff0099"/>
<path d="M476,390h 1" fill="none" stroke="#ff0099"/>
<g stroke="#ff0099" stroke-width="1" fill="#ff0099">
<circle cx=" 475" cy=" 390" r=" 1.5"/>
</g>
<path d="M480,369v -3" fill="none" stroke="#ff0099"/>
<path d="M480,364v -4" fill="none" stroke="#ff0099"/>
<path d="M477,365h 1" fill="none" stroke="#ff0099"/>
<path d="M481,365h 1" fill="none" stroke="#ff0099"/>
<g stroke="#ff0099" stroke-width="1" fill="#ff0099">
<circle cx=" 480" cy=" 365" r=" 1.5"/>
</g>
<path d="M484,351v -4" fill="none" stroke="#ff0099"/>
<path d="M484,345v -4" fill="none" stroke="#ff0099"/>
<path d="M482,346h 1" fill="none" stroke="#ff0099"/>
<path d="M485,346h 1" fill="none" stroke="#ff0099"/>
<g stroke="#ff0099" stroke-width="1" fill="#ff0099">
<circle cx=" 484" cy=" 346" r=" 1.5"/>
</g>
<path d="M489,324v -5" fill="none" stroke="#ff0099"/>
<path d="M489,317v -5" fill="none" stroke="#ff0099"/>
<path d="M486,318h 2" fill="none" stroke="#ff0099"/>
<path d="M490,318h 1" fill="none" stroke="#ff0099"/>
<g stroke="#ff0099" stroke-width="1" fill="#ff0099">
<circle cx=" 489" cy=" 318" r=" 1.5"/>
</g>
<path d="M493,243v -7" fill="none" stroke="#ff0099"/>
<path d="M493,234v -7" fill="none" stroke="#ff0099"/>
<path d="M491,235h 1" fill="none" stroke="#ff0099"/>
<path d="M494,235h 1" fill="none" stroke="#ff0099"/>
<g stroke="#ff0099" stroke-width="1" fill="#ff0099">
<circle cx=" 493" cy=" 235" r=" 1.5"/>
</g>
<path d="M498,130v -11" fill="none" stroke="#ff0099"/>
<path d="M498,117v -11" fill="none" stroke="#ff0099"/>
<path d="M495,118h 2" fill="none" stroke="#ff0099"/>
<path d="M499,118h 1" fill="none" stroke="#ff0099"/>
<g stroke="#ff0099" stroke-width="1" fill="#ff0099">
<circle cx=" 498" cy=" 118" r=" 1.5"/>
</g>
<path d="M502,90v -12" fill="none" stroke="#ff0099"/>
<path d="M502,75v -12" fill="none" stroke="#ff0099"/>
<path d="M500,77h 1" fill="none" stroke="#ff0099"/>
<path d="M503,77h 2" fill="none" stroke="#ff0099"/>
<g stroke="#ff0099" stroke-width="1" fill="#ff0099">
<circle cx=" 502" cy=" 77" r=" 1.5"/>
</g>
<path d="M507,232v -9" fill="none" stroke="#ff0099"/>
<path d="M507,220v -9" fill="none" stroke="#ff0099"/>
<path d="M505,222h 1" fill="none" stroke="#ff0099"/>
<path d="M508,222h 1" fill="none" stroke="#ff0099"/>
<g stroke="#ff0099" stroke-width="1" fill="#ff0099">
<circle cx=" 507" cy=" 222" r=" 1.5"/>
</g>
<path d="M511,425v -2" fill="none" stroke="#ff0099"/>
<path d="M511,420v -2" fill="none" stroke="#ff0099"/>
<path d="M509,421h 1" fill="none" stroke="#ff0099"/>
<path d="M513,421h 1" fill="none" stroke="#ff0099"/>
<g stroke="#ff0099" stroke-width="1" fill="#ff0099">
<circle cx=" 511" cy=" 421" r=" 1.5"/>
</g>
<path d="M514,445h 1" fill="none" stroke="#ff0099"/>
<path d="M517,445h 1" fill="none" stroke="#ff0099"/>
<g stroke="#ff0099" stroke-width="1" fill="#ff0099">
<circle cx=" 516" cy=" 445" r=" 1.5"/>
</g>
<path d="M518,446h 1" fill="none" stroke="#ff0099"/>
<path d="M522,446h 1" fill="none" stroke="#ff0099"/>
<g stroke="#ff0099" stroke-width="1" fill="#ff0099">
<circle cx=" 520" cy=" 446" r=" 1.5"/>
</g>
<path d="M74,446h 453" fill="none" stroke="black"/>
<path d="M74,434v 12" fill="none" stroke="black"/>
<path d="M83,440v 6" fill="none" stroke="black"/>
<path d="M92,440v 6" fill="none" stroke="black"/>
<path d="M101,440v 6" fill="none" stroke="black"/>
<path d="M110,440v 6" fill="none" stroke="black"/>
<path d="M119,434v 12" fill="none" stroke="black"/>
<path d="M128,440v 6" fill="none" stroke="black"/>
<path d="M137,440v 6" fill="none" stroke="black"/>
<path d="M146,440v 6" fill="none" stroke="black"/>
<path d="M155,440v 6" fill="none" stroke="black"/>
<path d="M164,434v 12" fill="none" stroke="black"/>
<path d="M173,440v 6" fill="none" stroke="black"/>
<path d="M183,440v 6" fill="none" stroke="black"/>
<path d="M192,440v 6" fill="none" stroke="black"/>
<path d="M201,440v 6" fill="none" stroke="black"/>
<path d="M210,434v 12" fill="none" stroke="black"/>
<path d="M219,440v 6" fill="none" stroke="black"/>
<path d="M228,440v 6" fill="none" stroke="black"/>
<path d="M237,440v 6" fill="none" stroke="black"/>
<path d="M246,440v 6" fill="none" stroke="black"/>
<path d="M255,434v 12" fill="none" stroke="black"/>
<path d="M264,440v 6" fill="none" stroke="black"/>
<path d="M273,440v 6" fill="none" stroke="black"/>
<path d="M282,440v 6" fill="none" stroke="black"/>
<path d="M291,440v 6" fill="none" stroke="black"/>
<path d="M300,434v 12" fill="none" stroke="black"/>
<path d="M310,440v 6" fill="none" stroke="black"/>
<path d="M319,440v 6" fill="none" stroke="black"/>
<path d="M328,440v 6" fill="none" stroke="black"/>
<path d="M337,440v 6" fill="none" stroke="black"/>
<path d="M346,434v 12" fill="none" stroke="black"/>
<path d="M355,440v 6" fill="none" stroke="black"/>
<path d="M364,440v 6" fill="none" stroke="black"/>
<path d="M373,440v 6" fill="none" stroke="black"/>
<path d="M382,440v 6" fill="none" stroke="black"/>
<path d="M391,434v 12" fill="none" stroke="black"/>
<path d="M400,440v 6" fill="none" stroke="black"/>
<path d="M409,440v 6" fill="none" stroke="black"/>
<path d="M418,440v 6" fill="none" stroke="black"/>
<path d="M427,440v 6" fill="none" stroke="black"/>
<path d="M437,434v 12" fill="none" stroke="black"/>
<path d="M446,440v 6" fill="none" stroke="black"/>
<path d="M455,440v 6" fill="none" stroke="black"/>
<path d="M464,440v 6" fill="none" stroke="black"/>
<path d="M473,440v 6" fill="none" stroke="black"/>
<path d="M482,434v 12" fill="none" stroke="black"/>
<path d="M491,440v 6" fill="none" stroke="black"/>
<path d="M500,440v 6" fill="none" stroke="black"/>
<path d="M509,440v 6" fill="none" stroke="black"/>
<path d="M518,440v 6" fill="none" stroke="black"/>
<path d="M527,434v 12" fill="none" stroke="black"/>
<text x="68" y="465" fill="black" font-size="18" font-family="Helvetica" font-weight="bold">
0
</text>
<text x="107" y="465" fill="black" font-size="18" font-family="Helvetica" font-weight="bold">
0.1
</text>
<text x="151" y="465" fill="black" font-size="18" font-family="Helvetica" font-weight="bold">
0.2
</text>
<text x="196" y="465" fill="black" font-size="18" font-family="Helvetica" font-weight="bold">
0.3
</text>
<text x="242" y="465" fill="black" font-size="18" font-family="Helvetica" font-weight="bold">
0.4
</text>
<text x="287" y="465" fill="black" font-size="18" font-family="Helvetica" font-weight="bold">
0.5
</text>
<text x="332" y="465" fill="black" font-size="18" font-family="Helvetica" font-weight="bold">
0.6
</text>
<text x="378" y="465" fill="black" font-size="18" font-family="Helvetica" font-weight="bold">
0.7
</text>
<text x="423" y="465" fill="black" font-size="18" font-family="Helvetica" font-weight="bold">
0.8
</text>
<text x="468" y="465" fill="black" font-size="18" font-family="Helvetica" font-weight="bold">
0.9
</text>
<text x="523" y="465" fill="black" font-size="18" font-family="Helvetica" font-weight="bold">
1
</text>
<path d="M74,44h 453" fill="none" stroke="black"/>
<path d="M74,56v -12" fill="none" stroke="black"/>
<path d="M83,50v -6" fill="none" stroke="black"/>
<path d="M92,50v -6" fill="none" stroke="black"/>
<path d="M101,50v -6" fill="none" stroke="black"/>
<path d="M110,50v -6" fill="none" stroke="black"/>
<path d="M119,56v -12" fill="none" stroke="black"/>
<path d="M128,50v -6" fill="none" stroke="black"/>
<path d="M137,50v -6" fill="none" stroke="black"/>
<path d="M146,50v -6" fill="none" stroke="black"/>
<path d="M155,50v -6" fill="none" stroke="black"/>
<path d="M164,56v -12" fill="none" stroke="black"/>
<path d="M173,50v -6" fill="none" stroke="black"/>
<path d="M183,50v -6" fill="none" stroke="black"/>
<path d="M192,50v -6" fill="none" stroke="black"/>
<path d="M201,50v -6" fill="none" stroke="black"/>
<path d="M210,56v -12" fill="none" stroke="black"/>
<path d="M219,50v -6" fill="none" stroke="black"/>
<path d="M228,50v -6" fill="none" stroke="black"/>
<path d="M237,50v -6" fill="none" stroke="black"/>
<path d="M246,50v -6" fill="none" stroke="black"/>
<path d="M255,56v -12" fill="none" stroke="black"/>
<path d="M264,50v -6" fill="none" stroke="black"/>
<path d="M273,50v -6" fill="none" stroke="black"/>
<path d="M282,50v -6" fill="none" stroke="black"/>
<path d="M291,50v -6" fill="none" stroke="black"/>
<path d="M300,56v -12" fill="none" stroke="black"/>
<path d="M310,50v -6" fill="none" stroke="black"/>
<path d="M319,50v -6" fill="none" stroke="black"/>
<path d="M328,50v -6" fill="none" stroke="black"/>
<path d="M337,50v -6" fill="none" stroke="black"/>
<path d="M346,56v -12" fill="none" stroke="black"/>
<path d="M355,50v -6" fill="none" stroke="black"/>
<path d="M364,50v -6" fill="none" stroke="black"/>
<path d="M373,50v -6" fill="none" stroke="black"/>
<path d="M382,50v -6" fill="none" stroke="black"/>
<path d="M391,56v -12" fill="none" stroke="black"/>
<path d="M400,50v -6" fill="none" stroke="black"/>
<path d="M409,50v -6" fill="none" stroke="black"/>
<path d="M418,50v -6" fill="none" stroke="black"/>
<path d="M427,50v -6" fill="none" stroke="black"/>
<path d="M437,56v -12" fill="none" stroke="black"/>
<path d="M446,50v -6" fill="none" stroke="black"/>
<path d="M455,50v -6" fill="none" stroke="black"/>
<path d="M464,50v -6" fill="none" stroke="black"/>
<path d="M473,50v -6" fill="none" stroke="black"/>
<path d="M482,56v -12" fill="none" stroke="black"/>
<path d="M491,50v -6" fill="none" stroke="black"/>
<path d="M500,50v -6" fill="none" stroke="black"/>
<path d="M509,50v -6" fill="none" stroke="black"/>
<path d="M518,50v -6" fill="none" stroke="black"/>
<path d="M527,56v -12" fill="none" stroke="black"/>
<path d="M74,446v -402" fill="none" stroke="black"/>
<path d="M87,446h -13" fill="none" stroke="black"/>
<path d="M81,438h -7" fill="none" stroke="black"/>
<path d="M81,430h -7" fill="none" stroke="black"/>
<path d="M81,421h -7" fill="none" stroke="black"/>
<path d="M87,413h -13" fill="none" stroke="black"/>
<path d="M81,405h -7" fill="none" stroke="black"/>
<path d="M81,396h -7" fill="none" stroke="black"/>
<path d="M81,388h -7" fill="none" stroke="black"/>
<path d="M87,379h -13" fill="none" stroke="black"/>
<path d="M81,371h -7" fill="none" stroke="black"/>
<path d="M81,363h -7" fill="none" stroke="black"/>
<path d="M81,354h -7" fill="none" stroke="black"/>
<path d="M87,346h -13" fill="none" stroke="black"/>
<path d="M81,338h -7" fill="none" stroke="black"/>
<path d="M81,329h -7" fill="none" stroke="black"/>
<path d="M81,321h -7" fill="none" stroke="black"/>
<path d="M87,312h -13" fill="none" stroke="black"/>
<path d="M81,304h -7" fill="none" stroke="black"/>
<path d="M81,296h -7" fill="none" stroke="black"/>
<path d="M81,287h -7" fill="none" stroke="black"/>
<path d="M87,279h -13" fill="none" stroke="black"/>
<path d="M81,271h -7" fill="none" stroke="black"/>
<path d="M81,262h -7" fill="none" stroke="black"/>
<path d="M81,254h -7" fill="none" stroke="black"/>
<path d="M87,245h -13" fill="none" stroke="black"/>
<path d="M81,237h -7" fill="none" stroke="black"/>
<path d="M81,229h -7" fill="none" stroke="black"/>
<path d="M81,220h -7" fill="none" stroke="black"/>
<path d="M87,212h -13" fill="none" stroke="black"/>
<path d="M81,204h -7" fill="none" stroke="black"/>
<path d="M81,195h -7" fill="none" stroke="black"/>
<path d="M81,187h -7" fill="none" stroke="black"/>
<path d="M87,178h -13" fill="none" stroke="black"/>
<path d="M81,170h -7" fill="none" stroke="black"/>
<path d="M81,162h -7" fill="none" stroke="black"/>
<path d="M81,153h -7" fill="none" stroke="black"/>
<path d="M87,145h -13" fill="none" stroke="black"/>
<path d="M81,137h -7" fill="none" stroke="black"/>
<path d="M81,128h -7" fill="none" stroke="black"/>
<path d="M81,120h -7" fill="none" stroke="black"/>
<path d="M87,111h -13" fill="none" stroke="black"/>
<path d="M81,103h -7" fill="none" stroke="black"/>
<path d="M81,95h -7" fill="none" stroke="black"/>
<path d="M81,86h -7" fill="none" stroke="black"/>
<path d="M87,78h -13" fill="none" stroke="black"/>
<path d="M81,70h -7" fill="none" stroke="black"/>
<path d="M81,61h -7" fill="none" stroke="black"/>
<path d="M81,53h -7" fill="none" stroke="black"/>
<path d="M87,45h -13" fill="none" stroke="black"/>
<path d="M87,45h -13" fill="none" stroke="black"/>
<text x="61" y="453" fill="black" font-size="18" font-family="Helvetica" font-weight="bold">
0
</text>
<text x="35" y="419" fill="black" font-size="18" font-family="Helvetica" font-weight="bold">
0.02
</text>
<text x="34" y="386" fill="black" font-size="18" font-family="Helvetica" font-weight="bold">
0.04
</text>
<text x="34" y="353" fill="black" font-size="18" font-family="Helvetica" font-weight="bold">
0.06
</text>
<text x="35" y="319" fill="black" font-size="18" font-family="Helvetica" font-weight="bold">
0.08
</text>
<text x="47" y="285" fill="black" font-size="18" font-family="Helvetica" font-weight="bold">
0.1
</text>
<text x="35" y="252" fill="black" font-size="18" font-family="Helvetica" font-weight="bold">
0.12
</text>
<text x="34" y="218" fill="black" font-size="18" font-family="Helvetica" font-weight="bold">
0.14
</text>
<text x="34" y="185" fill="black" font-size="18" font-family="Helvetica" font-weight="bold">
0.16
</text>
<text x="35" y="152" fill="black" font-size="18" font-family="Helvetica" font-weight="bold">
0.18
</text>
<text x="45" y="118" fill="black" font-size="18" font-family="Helvetica" font-weight="bold">
0.2
</text>
<text x="35" y="84" fill="black" font-size="18" font-family="Helvetica" font-weight="bold">
0.22
</text>
<text x="34" y="51" fill="black" font-size="18" font-family="Helvetica" font-weight="bold">
0.24
</text>
<path d="M452,439v -1" fill="none" stroke="#99ff99" stroke-width="2"/>
<path d="M452,438" fill="none" stroke="#99ff99" stroke-width="2"/>
<g stroke="black" stroke-width="2" fill="none">
<line x1="451" y1="438" x2="452" y2="438"/>
</g>
<path d="M457,425v -1" fill="none" stroke="#99ff99" stroke-width="2"/>
<path d="M457,424v -1" fill="none" stroke="#99ff99" stroke-width="2"/>
<g stroke="black" stroke-width="2" fill="none">
<line x1="456" y1="424" x2="457" y2="424"/>
</g>
<path d="M461,419" fill="none" stroke="#99ff99" stroke-width="2"/>
<path d="M461,419v -1" fill="none" stroke="#99ff99" stroke-width="2"/>
<g stroke="black" stroke-width="2" fill="none">
<line x1="460" y1="419" x2="461" y2="419"/>
</g>
<path d="M466,414" fill="none" stroke="#99ff99" stroke-width="2"/>
<path d="M466,414v -1" fill="none" stroke="#99ff99" stroke-width="2"/>
<g stroke="black" stroke-width="2" fill="none">
<line x1="465" y1="414" x2="466" y2="414"/>
</g>
<path d="M471,405v -1" fill="none" stroke="#99ff99" stroke-width="2"/>
<path d="M471,404" fill="none" stroke="#99ff99" stroke-width="2"/>
<g stroke="black" stroke-width="2" fill="none">
<line x1="470" y1="404" x2="471" y2="404"/>
</g>
<path d="M475,395v -1" fill="none" stroke="#99ff99" stroke-width="2"/>
<path d="M475,394v -1" fill="none" stroke="#99ff99" stroke-width="2"/>
<g stroke="black" stroke-width="2" fill="none">
<line x1="474" y1="394" x2="475" y2="394"/>
</g>
<path d="M480,378v -1" fill="none" stroke="#99ff99" stroke-width="2"/>
<path d="M480,377v -1" fill="none" stroke="#99ff99" stroke-width="2"/>
<g stroke="black" stroke-width="2" fill="none">
<line x1="479" y1="377" x2="480" y2="377"/>
</g>
<path d="M484,358v -1" fill="none" stroke="#99ff99" stroke-width="2"/>
<path d="M484,357v -1" fill="none" stroke="#99ff99" stroke-width="2"/>
<g stroke="black" stroke-width="2" fill="none">
<line x1="483" y1="357" x2="484" y2="357"/>
</g>
<path d="M489,328v -1" fill="none" stroke="#99ff99" stroke-width="2"/>
<path d="M489,327v -1" fill="none" stroke="#99ff99" stroke-width="2"/>
<g stroke="black" stroke-width="2" fill="none">
<line x1="488" y1="327" x2="489" y2="327"/>
</g>
<path d="M493,275v -1" fill="none" stroke="#99ff99" stroke-width="2"/>
<path d="M493,274v -2" fill="none" stroke="#99ff99" stroke-width="2"/>
<g stroke="black" stroke-width="2" fill="none">
<line x1="492" y1="274" x2="493" y2="274"/>
</g>
<path d="M498,173v -3" fill="none" stroke="#99ff99" stroke-width="2"/>
<path d="M498,170v -3" fill="none" stroke="#99ff99" stroke-width="2"/>
<g stroke="black" stroke-width="2" fill="none">
<line x1="497" y1="170" x2="498" y2="170"/>
</g>
<path d="M502,72v -2" fill="none" stroke="#99ff99" stroke-width="2"/>
<path d="M502,70v -2" fill="none" stroke="#99ff99" stroke-width="2"/>
<g stroke="black" stroke-width="2" fill="none">
<line x1="501" y1="70" x2="502" y2="70"/>
</g>
<path d="M507,143v -3" fill="none" stroke="#99ff99" stroke-width="2"/>
<path d="M507,140v -2" fill="none" stroke="#99ff99" stroke-width="2"/>
<g stroke="black" stroke-width="2" fill="none">
<line x1="506" y1="140" x2="507" y2="140"/>
</g>
<path d="M511,373v -1" fill="none" stroke="#99ff99" stroke-width="2"/>
<path d="M511,372v -1" fill="none" stroke="#99ff99" stroke-width="2"/>
<g stroke="black" stroke-width="2" fill="none">
<line x1="510" y1="372" x2="511" y2="372"/>
</g>
<path d="M516,441" fill="none" stroke="#99ff99" stroke-width="2"/>
<path d="M516,441v -1" fill="none" stroke="#99ff99" stroke-width="2"/>
<g stroke="black" stroke-width="2" fill="none">
<line x1="515" y1="441" x2="516" y2="441"/>
</g>
<path d="M520,446" fill="none" stroke="#99ff99" stroke-width="2"/>
<path d="M520,446" fill="none" stroke="#99ff99" stroke-width="2"/>
<g stroke="black" stroke-width="2" fill="none">
<line x1="519" y1="446" x2="520" y2="446"/>
</g>
<path d="M525,446" fill="none" stroke="#99ff99" stroke-width="2"/>
<path d="M525,446" fill="none" stroke="#99ff99" stroke-width="2"/>
<g stroke="black" stroke-width="2" fill="none">
<line x1="524" y1="446" x2="525" y2="446"/>
</g>
<path d="M74,446h 376v -8h 5v -14h 4v -5h 5v -5h 4v -10h 5v -10h 4v -17h 5v -20h 4v -30h 5v -53h 4v -104h 5v -100h 5v 70h 4v 232h 5v 69h 4v 5h 9z" fill="#99ff99"/>
<path d="M74,446h 376v -8h 5v -14h 4v -5h 5v -5h 4v -10h 5v -10h 4v -17h 5v -20h 4v -30h 5v -53h 4v -104h 5v -100h 5v 70h 4v 232h 5v 69h 4v 5h 9" fill="none" stroke="#99ff99" stroke-width="2"/>
<path d="M452,438v -1" fill="none" stroke="#ff0099"/>
<path d="M452,435" fill="none" stroke="#ff0099"/>
<path d="M450,436h 1" fill="none" stroke="#ff0099"/>
<path d="M454,436h 1" fill="none" stroke="#ff0099"/>
<g stroke="#ff0099" stroke-width="1" fill="#ff0099">
<circle cx=" 452" cy=" 436" r=" 1.5"/>
</g>
<path d="M457,425v -1" fill="none" stroke="#ff0099"/>
<path d="M457,422v -1" fill="none" stroke="#ff0099"/>
<path d="M455,423h 1" fill="none" stroke="#ff0099"/>
<path d="M458,423h 1" fill="none" stroke="#ff0099"/>
<g stroke="#ff0099" stroke-width="1" fill="#ff0099">
<circle cx=" 457" cy=" 423" r=" 1.5"/>
</g>
<path d="M461,422v -1" fill="none" stroke="#ff0099"/>
<path d="M461,418v -1" fill="none" stroke="#ff0099"/>
<path d="M459,419h 1" fill="none" stroke="#ff0099"/>
<path d="M463,419h 1" fill="none" stroke="#ff0099"/>
<g stroke="#ff0099" stroke-width="1" fill="#ff0099">
<circle cx=" 461" cy=" 419" r=" 1.5"/>
</g>
<path d="M466,409v -1" fill="none" stroke="#ff0099"/>
<path d="M466,405v -1" fill="none" stroke="#ff0099"/>
<path d="M464,406h 1" fill="none" stroke="#ff0099"/>
<path d="M467,406h 1" fill="none" stroke="#ff0099"/>
<g stroke="#ff0099" stroke-width="1" fill="#ff0099">
<circle cx=" 466" cy=" 406" r=" 1.5"/>
</g>
<path d="M471,402v -2" fill="none" stroke="#ff0099"/>
<path d="M471,398v -2" fill="none" stroke="#ff0099"/>
<path d="M468,399h 1" fill="none" stroke="#ff0099"/>
<path d="M472,399h 1" fill="none" stroke="#ff0099"/>
<g stroke="#ff0099" stroke-width="1" fill="#ff0099">
<circle cx=" 471" cy=" 399" r=" 1.5"/>
</g>
<path d="M475,394v -2" fill="none" stroke="#ff0099"/>
<path d="M475,389v -2" fill="none" stroke="#ff0099"/>
<path d="M473,390h 1" fill="none" stroke="#ff0099"/>
<path d="M476,390h 1" fill="none" stroke="#ff0099"/>
<g stroke="#ff0099" stroke-width="1" fill="#ff0099">
<circle cx=" 475" cy=" 390" r=" 1.5"/>
</g>
<path d="M480,369v -3" fill="none" stroke="#ff0099"/>
<path d="M480,364v -4" fill="none" stroke="#ff0099"/>
<path d="M477,365h 1" fill="none" stroke="#ff0099"/>
<path d="M481,365h 1" fill="none" stroke="#ff0099"/>
<g stroke="#ff0099" stroke-width="1" fill="#ff0099">
<circle cx=" 480" cy=" 365" r=" 1.5"/>
</g>
<path d="M484,351v -4" fill="none" stroke="#ff0099"/>
<path d="M484,345v -4" fill="none" stroke="#ff0099"/>
<path d="M482,346h 1" fill="none" stroke="#ff0099"/>
<path d="M485,346h 1" fill="none" stroke="#ff0099"/>
<g stroke="#ff0099" stroke-width="1" fill="#ff0099">
<circle cx=" 484" cy=" 346" r=" 1.5"/>
</g>
<path d="M489,324v -5" fill="none" stroke="#ff0099"/>
<path d="M489,317v -5" fill="none" stroke="#ff0099"/>
<path d="M486,318h 2" fill="none" stroke="#ff0099"/>
<path d="M490,318h 1" fill="none" stroke="#ff0099"/>
<g stroke="#ff0099" stroke-width="1" fill="#ff0099">
<circle cx=" 489" cy=" 318" r=" 1.5"/>
</g>
<path d="M493,243v -7" fill="none" stroke="#ff0099"/>
<path d="M493,234v -7" fill="none" stroke="#ff0099"/>
<path d="M491,235h 1" fill="none" stroke="#ff0099"/>
<path d="M494,235h 1" fill="none" stroke="#ff0099"/>
<g stroke="#ff0099" stroke-width="1" fill="#ff0099">
<circle cx=" 493" cy=" 235" r=" 1.5"/>
</g>
<path d="M498,130v -11" fill="none" stroke="#ff0099"/>
<path d="M498,117v -11" fill="none" stroke="#ff0099"/>
<path d="M495,118h 2" fill="none" stroke="#ff0099"/>
<path d="M499,118h 1" fill="none" stroke="#ff0099"/>
<g stroke="#ff0099" stroke-width="1" fill="#ff0099">
<circle cx=" 498" cy=" 118" r=" 1.5"/>
</g>
<path d="M502,90v -12" fill="none" stroke="#ff0099"/>
<path d="M502,75v -12" fill="none" stroke="#ff0099"/>
<path d="M500,77h 1" fill="none" stroke="#ff0099"/>
<path d="M503,77h 2" fill="none" stroke="#ff0099"/>
<g stroke="#ff0099" stroke-width="1" fill="#ff0099">
<circle cx=" 502" cy=" 77" r=" 1.5"/>
</g>
<path d="M507,232v -9" fill="none" stroke="#ff0099"/>
<path d="M507,220v -9" fill="none" stroke="#ff0099"/>
<path d="M505,222h 1" fill="none" stroke="#ff0099"/>
<path d="M508,222h 1" fill="none" stroke="#ff0099"/>
<g stroke="#ff0099" stroke-width="1" fill="#ff0099">
<circle cx=" 507" cy=" 222" r=" 1.5"/>
</g>
<path d="M511,425v -2" fill="none" stroke="#ff0099"/>
<path d="M511,420v -2" fill="none" stroke="#ff0099"/>
<path d="M509,421h 1" fill="none" stroke="#ff0099"/>
<path d="M513,421h 1" fill="none" stroke="#ff0099"/>
<g stroke="#ff0099" stroke-width="1" fill="#ff0099">
<circle cx=" 511" cy=" 421" r=" 1.5"/>
</g>
<path d="M514,445h 1" fill="none" stroke="#ff0099"/>
<path d="M517,445h 1" fill="none" stroke="#ff0099"/>
<g stroke="#ff0099" stroke-width="1" fill="#ff0099">
<circle cx=" 516" cy=" 445" r=" 1.5"/>
</g>
<path d="M518,446h 1" fill="none" stroke="#ff0099"/>
<path d="M522,446h 1" fill="none" stroke="#ff0099"/>
<g stroke="#ff0099" stroke-width="1" fill="#ff0099">
<circle cx=" 520" cy=" 446" r=" 1.5"/>
</g>
<rect x="357" y="59" width="142" height="99" fill="white"/>
<text x="360" y="82" fill="black" font-size="17" font-family="Helvetica" font-weight="bold">
EB
</text>
<text x="457" y="115" fill="black" font-size="17" font-family="Helvetica" font-weight="bold">
 ee
</text>
<text x="440" y="115" fill="black" font-size="17" font-family="Times">
&#8594;
</text>
<text x="392" y="115" fill="black" font-size="17" font-family="Helvetica" font-weight="bold">
MC Z 
</text>
<path d="M362,109h 25" fill="none" stroke="#ff0099"/>
<g stroke="#ff0099" stroke-width="1" fill="#ff0099">
<circle cx=" 375" cy=" 109" r=" 1.5"/>
</g>
<text x="455" y="147" fill="black" font-size="17" font-family="Helvetica" font-weight="bold">
 + jet
</text>
<text x="447" y="147" fill="black" font-size="17" font-family="Times">
&#0947;
</text>
<text x="392" y="147" fill="black" font-size="17" font-family="Helvetica" font-weight="bold">
signal 
</text>
<path d="M362,154h 25v -24h -25z" fill="#99ff99"/>
<path d="M362,130h 25" fill="none" stroke="#99ff99" stroke-width="2"/>
<path d="M362,154h 25" fill="none" stroke="#99ff99" stroke-width="2"/>
<path d="M387,154v -24" fill="none" stroke="#99ff99" stroke-width="2"/>
<path d="M362,154v -24" fill="none" stroke="#99ff99" stroke-width="2"/>
<text x="300" y="34" fill="black" font-size="17" font-family="Helvetica" font-weight="bold">
=8 TeV
</text>
<text x="291" y="34" fill="black" font-size="17" font-family="Helvetica" font-weight="bold">
s
</text>
<path d="M285,25l 2, 10" fill="none" stroke="black" stroke-width="2"/>
<path d="M287,35l 2, -14" fill="none" stroke="black"/>
<path d="M289,21h 11" fill="none" stroke="black"/>
<text x="142" y="34" fill="black" font-size="17" font-family="Helvetica" font-weight="bold">
CMS Preliminary 
</text></svg>
