<?xml version="1.0" standalone="no"?>
<svg width="567" height="496" viewBox="0 0 567 496" xmlns="http://www.w3.org/2000/svg">
<title>
../src/TagAndProbeZ/plots_mcZee_mcGJet_withEtaR9nvtxReweight/hlt90/mvaIdPhotEE.svg
</title>
<desc>
Creator: ROOT Version 5.32/00
CreationDate: Sun Sep 28 15:21:29 2014</desc>
<defs>
</defs>
<rect x="0" y="0" width="567" height="496" fill="white"/>
<rect x="74" y="44" width="453" height="402" fill="white"/>
<rect x="74" y="44" width="453" height="402" fill="none" stroke="black"/>
<rect x="74" y="44" width="453" height="402" fill="white"/>
<rect x="74" y="44" width="453" height="402" fill="none" stroke="black"/>
<path d="M471,434v -2" fill="none" stroke="#ff0099"/>
<path d="M471,430v -2" fill="none" stroke="#ff0099"/>
<path d="M468,431h 1" fill="none" stroke="#ff0099"/>
<path d="M472,431h 1" fill="none" stroke="#ff0099"/>
<g stroke="#ff0099" stroke-width="1" fill="#ff0099">
<circle cx=" 471" cy=" 431" r=" 1.5"/>
</g>
<path d="M475,426v -2" fill="none" stroke="#ff0099"/>
<path d="M475,421v -2" fill="none" stroke="#ff0099"/>
<path d="M473,423h 1" fill="none" stroke="#ff0099"/>
<path d="M476,423h 1" fill="none" stroke="#ff0099"/>
<g stroke="#ff0099" stroke-width="1" fill="#ff0099">
<circle cx=" 475" cy=" 423" r=" 1.5"/>
</g>
<path d="M480,412v -4" fill="none" stroke="#ff0099"/>
<path d="M480,406v -4" fill="none" stroke="#ff0099"/>
<path d="M477,407h 1" fill="none" stroke="#ff0099"/>
<path d="M481,407h 1" fill="none" stroke="#ff0099"/>
<g stroke="#ff0099" stroke-width="1" fill="#ff0099">
<circle cx=" 480" cy=" 407" r=" 1.5"/>
</g>
<path d="M484,401v -5" fill="none" stroke="#ff0099"/>
<path d="M484,394v -4" fill="none" stroke="#ff0099"/>
<path d="M482,395h 1" fill="none" stroke="#ff0099"/>
<path d="M485,395h 1" fill="none" stroke="#ff0099"/>
<g stroke="#ff0099" stroke-width="1" fill="#ff0099">
<circle cx=" 484" cy=" 395" r=" 1.5"/>
</g>
<path d="M489,387v -7" fill="none" stroke="#ff0099"/>
<path d="M489,378v -7" fill="none" stroke="#ff0099"/>
<path d="M486,379h 2" fill="none" stroke="#ff0099"/>
<path d="M490,379h 1" fill="none" stroke="#ff0099"/>
<g stroke="#ff0099" stroke-width="1" fill="#ff0099">
<circle cx=" 489" cy=" 379" r=" 1.5"/>
</g>
<path d="M493,337v -10" fill="none" stroke="#ff0099"/>
<path d="M493,325v -9" fill="none" stroke="#ff0099"/>
<path d="M491,326h 1" fill="none" stroke="#ff0099"/>
<path d="M494,326h 1" fill="none" stroke="#ff0099"/>
<g stroke="#ff0099" stroke-width="1" fill="#ff0099">
<circle cx=" 493" cy=" 326" r=" 1.5"/>
</g>
<path d="M498,350v -8" fill="none" stroke="#ff0099"/>
<path d="M498,340v -8" fill="none" stroke="#ff0099"/>
<path d="M495,341h 2" fill="none" stroke="#ff0099"/>
<path d="M499,341h 1" fill="none" stroke="#ff0099"/>
<g stroke="#ff0099" stroke-width="1" fill="#ff0099">
<circle cx=" 498" cy=" 341" r=" 1.5"/>
</g>
<path d="M502,190v -23" fill="none" stroke="#ff0099"/>
<path d="M502,165v -23" fill="none" stroke="#ff0099"/>
<path d="M500,166h 1" fill="none" stroke="#ff0099"/>
<path d="M503,166h 2" fill="none" stroke="#ff0099"/>
<g stroke="#ff0099" stroke-width="1" fill="#ff0099">
<circle cx=" 502" cy=" 166" r=" 1.5"/>
</g>
<path d="M507,119v -27" fill="none" stroke="#ff0099"/>
<path d="M507,90v -27" fill="none" stroke="#ff0099"/>
<path d="M505,91h 1" fill="none" stroke="#ff0099"/>
<path d="M508,91h 1" fill="none" stroke="#ff0099"/>
<g stroke="#ff0099" stroke-width="1" fill="#ff0099">
<circle cx=" 507" cy=" 91" r=" 1.5"/>
</g>
<path d="M511,178v -24" fill="none" stroke="#ff0099"/>
<path d="M511,152v -24" fill="none" stroke="#ff0099"/>
<path d="M509,153h 1" fill="none" stroke="#ff0099"/>
<path d="M513,153h 1" fill="none" stroke="#ff0099"/>
<g stroke="#ff0099" stroke-width="1" fill="#ff0099">
<circle cx=" 511" cy=" 153" r=" 1.5"/>
</g>
<path d="M516,330v -15" fill="none" stroke="#ff0099"/>
<path d="M516,312v -15" fill="none" stroke="#ff0099"/>
<path d="M514,314h 1" fill="none" stroke="#ff0099"/>
<path d="M517,314h 1" fill="none" stroke="#ff0099"/>
<g stroke="#ff0099" stroke-width="1" fill="#ff0099">
<circle cx=" 516" cy=" 314" r=" 1.5"/>
</g>
<path d="M520,439v -4" fill="none" stroke="#ff0099"/>
<path d="M520,433v -4" fill="none" stroke="#ff0099"/>
<path d="M518,434h 1" fill="none" stroke="#ff0099"/>
<path d="M522,434h 1" fill="none" stroke="#ff0099"/>
<g stroke="#ff0099" stroke-width="1" fill="#ff0099">
<circle cx=" 520" cy=" 434" r=" 1.5"/>
</g>
<path d="M74,446h 453" fill="none" stroke="black"/>
<path d="M74,434v 12" fill="none" stroke="black"/>
<path d="M83,440v 6" fill="none" stroke="black"/>
<path d="M92,440v 6" fill="none" stroke="black"/>
<path d="M101,440v 6" fill="none" stroke="black"/>
<path d="M110,440v 6" fill="none" stroke="black"/>
<path d="M119,434v 12" fill="none" stroke="black"/>
<path d="M128,440v 6" fill="none" stroke="black"/>
<path d="M137,440v 6" fill="none" stroke="black"/>
<path d="M146,440v 6" fill="none" stroke="black"/>
<path d="M155,440v 6" fill="none" stroke="black"/>
<path d="M164,434v 12" fill="none" stroke="black"/>
<path d="M173,440v 6" fill="none" stroke="black"/>
<path d="M183,440v 6" fill="none" stroke="black"/>
<path d="M192,440v 6" fill="none" stroke="black"/>
<path d="M201,440v 6" fill="none" stroke="black"/>
<path d="M210,434v 12" fill="none" stroke="black"/>
<path d="M219,440v 6" fill="none" stroke="black"/>
<path d="M228,440v 6" fill="none" stroke="black"/>
<path d="M237,440v 6" fill="none" stroke="black"/>
<path d="M246,440v 6" fill="none" stroke="black"/>
<path d="M255,434v 12" fill="none" stroke="black"/>
<path d="M264,440v 6" fill="none" stroke="black"/>
<path d="M273,440v 6" fill="none" stroke="black"/>
<path d="M282,440v 6" fill="none" stroke="black"/>
<path d="M291,440v 6" fill="none" stroke="black"/>
<path d="M300,434v 12" fill="none" stroke="black"/>
<path d="M310,440v 6" fill="none" stroke="black"/>
<path d="M319,440v 6" fill="none" stroke="black"/>
<path d="M328,440v 6" fill="none" stroke="black"/>
<path d="M337,440v 6" fill="none" stroke="black"/>
<path d="M346,434v 12" fill="none" stroke="black"/>
<path d="M355,440v 6" fill="none" stroke="black"/>
<path d="M364,440v 6" fill="none" stroke="black"/>
<path d="M373,440v 6" fill="none" stroke="black"/>
<path d="M382,440v 6" fill="none" stroke="black"/>
<path d="M391,434v 12" fill="none" stroke="black"/>
<path d="M400,440v 6" fill="none" stroke="black"/>
<path d="M409,440v 6" fill="none" stroke="black"/>
<path d="M418,440v 6" fill="none" stroke="black"/>
<path d="M427,440v 6" fill="none" stroke="black"/>
<path d="M437,434v 12" fill="none" stroke="black"/>
<path d="M446,440v 6" fill="none" stroke="black"/>
<path d="M455,440v 6" fill="none" stroke="black"/>
<path d="M464,440v 6" fill="none" stroke="black"/>
<path d="M473,440v 6" fill="none" stroke="black"/>
<path d="M482,434v 12" fill="none" stroke="black"/>
<path d="M491,440v 6" fill="none" stroke="black"/>
<path d="M500,440v 6" fill="none" stroke="black"/>
<path d="M509,440v 6" fill="none" stroke="black"/>
<path d="M518,440v 6" fill="none" stroke="black"/>
<path d="M527,434v 12" fill="none" stroke="black"/>
<text x="68" y="465" fill="black" font-size="18" font-family="Helvetica" font-weight="bold">
0
</text>
<text x="107" y="465" fill="black" font-size="18" font-family="Helvetica" font-weight="bold">
0.1
</text>
<text x="151" y="465" fill="black" font-size="18" font-family="Helvetica" font-weight="bold">
0.2
</text>
<text x="196" y="465" fill="black" font-size="18" font-family="Helvetica" font-weight="bold">
0.3
</text>
<text x="242" y="465" fill="black" font-size="18" font-family="Helvetica" font-weight="bold">
0.4
</text>
<text x="287" y="465" fill="black" font-size="18" font-family="Helvetica" font-weight="bold">
0.5
</text>
<text x="332" y="465" fill="black" font-size="18" font-family="Helvetica" font-weight="bold">
0.6
</text>
<text x="378" y="465" fill="black" font-size="18" font-family="Helvetica" font-weight="bold">
0.7
</text>
<text x="423" y="465" fill="black" font-size="18" font-family="Helvetica" font-weight="bold">
0.8
</text>
<text x="468" y="465" fill="black" font-size="18" font-family="Helvetica" font-weight="bold">
0.9
</text>
<text x="523" y="465" fill="black" font-size="18" font-family="Helvetica" font-weight="bold">
1
</text>
<path d="M74,44h 453" fill="none" stroke="black"/>
<path d="M74,56v -12" fill="none" stroke="black"/>
<path d="M83,50v -6" fill="none" stroke="black"/>
<path d="M92,50v -6" fill="none" stroke="black"/>
<path d="M101,50v -6" fill="none" stroke="black"/>
<path d="M110,50v -6" fill="none" stroke="black"/>
<path d="M119,56v -12" fill="none" stroke="black"/>
<path d="M128,50v -6" fill="none" stroke="black"/>
<path d="M137,50v -6" fill="none" stroke="black"/>
<path d="M146,50v -6" fill="none" stroke="black"/>
<path d="M155,50v -6" fill="none" stroke="black"/>
<path d="M164,56v -12" fill="none" stroke="black"/>
<path d="M173,50v -6" fill="none" stroke="black"/>
<path d="M183,50v -6" fill="none" stroke="black"/>
<path d="M192,50v -6" fill="none" stroke="black"/>
<path d="M201,50v -6" fill="none" stroke="black"/>
<path d="M210,56v -12" fill="none" stroke="black"/>
<path d="M219,50v -6" fill="none" stroke="black"/>
<path d="M228,50v -6" fill="none" stroke="black"/>
<path d="M237,50v -6" fill="none" stroke="black"/>
<path d="M246,50v -6" fill="none" stroke="black"/>
<path d="M255,56v -12" fill="none" stroke="black"/>
<path d="M264,50v -6" fill="none" stroke="black"/>
<path d="M273,50v -6" fill="none" stroke="black"/>
<path d="M282,50v -6" fill="none" stroke="black"/>
<path d="M291,50v -6" fill="none" stroke="black"/>
<path d="M300,56v -12" fill="none" stroke="black"/>
<path d="M310,50v -6" fill="none" stroke="black"/>
<path d="M319,50v -6" fill="none" stroke="black"/>
<path d="M328,50v -6" fill="none" stroke="black"/>
<path d="M337,50v -6" fill="none" stroke="black"/>
<path d="M346,56v -12" fill="none" stroke="black"/>
<path d="M355,50v -6" fill="none" stroke="black"/>
<path d="M364,50v -6" fill="none" stroke="black"/>
<path d="M373,50v -6" fill="none" stroke="black"/>
<path d="M382,50v -6" fill="none" stroke="black"/>
<path d="M391,56v -12" fill="none" stroke="black"/>
<path d="M400,50v -6" fill="none" stroke="black"/>
<path d="M409,50v -6" fill="none" stroke="black"/>
<path d="M418,50v -6" fill="none" stroke="black"/>
<path d="M427,50v -6" fill="none" stroke="black"/>
<path d="M437,56v -12" fill="none" stroke="black"/>
<path d="M446,50v -6" fill="none" stroke="black"/>
<path d="M455,50v -6" fill="none" stroke="black"/>
<path d="M464,50v -6" fill="none" stroke="black"/>
<path d="M473,50v -6" fill="none" stroke="black"/>
<path d="M482,56v -12" fill="none" stroke="black"/>
<path d="M491,50v -6" fill="none" stroke="black"/>
<path d="M500,50v -6" fill="none" stroke="black"/>
<path d="M509,50v -6" fill="none" stroke="black"/>
<path d="M518,50v -6" fill="none" stroke="black"/>
<path d="M527,56v -12" fill="none" stroke="black"/>
<path d="M74,446v -402" fill="none" stroke="black"/>
<path d="M87,446h -13" fill="none" stroke="black"/>
<path d="M81,431h -7" fill="none" stroke="black"/>
<path d="M81,416h -7" fill="none" stroke="black"/>
<path d="M81,401h -7" fill="none" stroke="black"/>
<path d="M81,386h -7" fill="none" stroke="black"/>
<path d="M87,372h -13" fill="none" stroke="black"/>
<path d="M81,357h -7" fill="none" stroke="black"/>
<path d="M81,342h -7" fill="none" stroke="black"/>
<path d="M81,327h -7" fill="none" stroke="black"/>
<path d="M81,312h -7" fill="none" stroke="black"/>
<path d="M87,297h -13" fill="none" stroke="black"/>
<path d="M81,282h -7" fill="none" stroke="black"/>
<path d="M81,267h -7" fill="none" stroke="black"/>
<path d="M81,252h -7" fill="none" stroke="black"/>
<path d="M81,237h -7" fill="none" stroke="black"/>
<path d="M87,222h -13" fill="none" stroke="black"/>
<path d="M81,207h -7" fill="none" stroke="black"/>
<path d="M81,192h -7" fill="none" stroke="black"/>
<path d="M81,177h -7" fill="none" stroke="black"/>
<path d="M81,162h -7" fill="none" stroke="black"/>
<path d="M87,147h -13" fill="none" stroke="black"/>
<path d="M81,132h -7" fill="none" stroke="black"/>
<path d="M81,117h -7" fill="none" stroke="black"/>
<path d="M81,102h -7" fill="none" stroke="black"/>
<path d="M81,87h -7" fill="none" stroke="black"/>
<path d="M87,72h -13" fill="none" stroke="black"/>
<path d="M87,72h -13" fill="none" stroke="black"/>
<path d="M81,57h -7" fill="none" stroke="black"/>
<text x="61" y="453" fill="black" font-size="18" font-family="Helvetica" font-weight="bold">
0
</text>
<text x="34" y="378" fill="black" font-size="18" font-family="Helvetica" font-weight="bold">
0.05
</text>
<text x="47" y="303" fill="black" font-size="18" font-family="Helvetica" font-weight="bold">
0.1
</text>
<text x="34" y="228" fill="black" font-size="18" font-family="Helvetica" font-weight="bold">
0.15
</text>
<text x="45" y="153" fill="black" font-size="18" font-family="Helvetica" font-weight="bold">
0.2
</text>
<text x="34" y="79" fill="black" font-size="18" font-family="Helvetica" font-weight="bold">
0.25
</text>
<path d="M471,434v -1" fill="none" stroke="#99ff99" stroke-width="2"/>
<path d="M471,433v -1" fill="none" stroke="#99ff99" stroke-width="2"/>
<g stroke="black" stroke-width="2" fill="none">
<line x1="470" y1="433" x2="471" y2="433"/>
</g>
<path d="M475,421v -1" fill="none" stroke="#99ff99" stroke-width="2"/>
<path d="M475,420v -1" fill="none" stroke="#99ff99" stroke-width="2"/>
<g stroke="black" stroke-width="2" fill="none">
<line x1="474" y1="420" x2="475" y2="420"/>
</g>
<path d="M480,409v -1" fill="none" stroke="#99ff99" stroke-width="2"/>
<path d="M480,408v -1" fill="none" stroke="#99ff99" stroke-width="2"/>
<g stroke="black" stroke-width="2" fill="none">
<line x1="479" y1="408" x2="480" y2="408"/>
</g>
<path d="M484,394v -2" fill="none" stroke="#99ff99" stroke-width="2"/>
<path d="M484,392v -1" fill="none" stroke="#99ff99" stroke-width="2"/>
<g stroke="black" stroke-width="2" fill="none">
<line x1="483" y1="392" x2="484" y2="392"/>
</g>
<path d="M489,378v -1" fill="none" stroke="#99ff99" stroke-width="2"/>
<path d="M489,377v -1" fill="none" stroke="#99ff99" stroke-width="2"/>
<g stroke="black" stroke-width="2" fill="none">
<line x1="488" y1="377" x2="489" y2="377"/>
</g>
<path d="M493,351v -3" fill="none" stroke="#99ff99" stroke-width="2"/>
<path d="M493,348v -3" fill="none" stroke="#99ff99" stroke-width="2"/>
<g stroke="black" stroke-width="2" fill="none">
<line x1="492" y1="348" x2="493" y2="348"/>
</g>
<path d="M498,316v -2" fill="none" stroke="#99ff99" stroke-width="2"/>
<path d="M498,314v -2" fill="none" stroke="#99ff99" stroke-width="2"/>
<g stroke="black" stroke-width="2" fill="none">
<line x1="497" y1="314" x2="498" y2="314"/>
</g>
<path d="M502,262v -2" fill="none" stroke="#99ff99" stroke-width="2"/>
<path d="M502,260v -2" fill="none" stroke="#99ff99" stroke-width="2"/>
<g stroke="black" stroke-width="2" fill="none">
<line x1="501" y1="260" x2="502" y2="260"/>
</g>
<path d="M507,182v -4" fill="none" stroke="#99ff99" stroke-width="2"/>
<path d="M507,178v -3" fill="none" stroke="#99ff99" stroke-width="2"/>
<g stroke="black" stroke-width="2" fill="none">
<line x1="506" y1="178" x2="507" y2="178"/>
</g>
<path d="M511,134v -4" fill="none" stroke="#99ff99" stroke-width="2"/>
<path d="M511,130v -4" fill="none" stroke="#99ff99" stroke-width="2"/>
<g stroke="black" stroke-width="2" fill="none">
<line x1="510" y1="130" x2="511" y2="130"/>
</g>
<path d="M516,198v -3" fill="none" stroke="#99ff99" stroke-width="2"/>
<path d="M516,195v -3" fill="none" stroke="#99ff99" stroke-width="2"/>
<g stroke="black" stroke-width="2" fill="none">
<line x1="515" y1="195" x2="516" y2="195"/>
</g>
<path d="M520,406" fill="none" stroke="#99ff99" stroke-width="2"/>
<path d="M520,406v -1" fill="none" stroke="#99ff99" stroke-width="2"/>
<g stroke="black" stroke-width="2" fill="none">
<line x1="519" y1="406" x2="520" y2="406"/>
</g>
<path d="M525,445" fill="none" stroke="#99ff99" stroke-width="2"/>
<path d="M525,445v -1" fill="none" stroke="#99ff99" stroke-width="2"/>
<g stroke="black" stroke-width="2" fill="none">
<line x1="524" y1="445" x2="525" y2="445"/>
</g>
<path d="M74,446h 394v -13h 5v -13h 4v -12h 5v -16h 4v -15h 5v -29h 4v -34h 5v -54h 5v -82h 4v -48h 5v 65h 4v 211h 5v 39h 4v 1z" fill="#99ff99"/>
<path d="M74,446h 394v -13h 5v -13h 4v -12h 5v -16h 4v -15h 5v -29h 4v -34h 5v -54h 5v -82h 4v -48h 5v 65h 4v 211h 5v 39h 4" fill="none" stroke="#99ff99" stroke-width="2"/>
<path d="M471,434v -2" fill="none" stroke="#ff0099"/>
<path d="M471,430v -2" fill="none" stroke="#ff0099"/>
<path d="M468,431h 1" fill="none" stroke="#ff0099"/>
<path d="M472,431h 1" fill="none" stroke="#ff0099"/>
<g stroke="#ff0099" stroke-width="1" fill="#ff0099">
<circle cx=" 471" cy=" 431" r=" 1.5"/>
</g>
<path d="M475,426v -2" fill="none" stroke="#ff0099"/>
<path d="M475,421v -2" fill="none" stroke="#ff0099"/>
<path d="M473,423h 1" fill="none" stroke="#ff0099"/>
<path d="M476,423h 1" fill="none" stroke="#ff0099"/>
<g stroke="#ff0099" stroke-width="1" fill="#ff0099">
<circle cx=" 475" cy=" 423" r=" 1.5"/>
</g>
<path d="M480,412v -4" fill="none" stroke="#ff0099"/>
<path d="M480,406v -4" fill="none" stroke="#ff0099"/>
<path d="M477,407h 1" fill="none" stroke="#ff0099"/>
<path d="M481,407h 1" fill="none" stroke="#ff0099"/>
<g stroke="#ff0099" stroke-width="1" fill="#ff0099">
<circle cx=" 480" cy=" 407" r=" 1.5"/>
</g>
<path d="M484,401v -5" fill="none" stroke="#ff0099"/>
<path d="M484,394v -4" fill="none" stroke="#ff0099"/>
<path d="M482,395h 1" fill="none" stroke="#ff0099"/>
<path d="M485,395h 1" fill="none" stroke="#ff0099"/>
<g stroke="#ff0099" stroke-width="1" fill="#ff0099">
<circle cx=" 484" cy=" 395" r=" 1.5"/>
</g>
<path d="M489,387v -7" fill="none" stroke="#ff0099"/>
<path d="M489,378v -7" fill="none" stroke="#ff0099"/>
<path d="M486,379h 2" fill="none" stroke="#ff0099"/>
<path d="M490,379h 1" fill="none" stroke="#ff0099"/>
<g stroke="#ff0099" stroke-width="1" fill="#ff0099">
<circle cx=" 489" cy=" 379" r=" 1.5"/>
</g>
<path d="M493,337v -10" fill="none" stroke="#ff0099"/>
<path d="M493,325v -9" fill="none" stroke="#ff0099"/>
<path d="M491,326h 1" fill="none" stroke="#ff0099"/>
<path d="M494,326h 1" fill="none" stroke="#ff0099"/>
<g stroke="#ff0099" stroke-width="1" fill="#ff0099">
<circle cx=" 493" cy=" 326" r=" 1.5"/>
</g>
<path d="M498,350v -8" fill="none" stroke="#ff0099"/>
<path d="M498,340v -8" fill="none" stroke="#ff0099"/>
<path d="M495,341h 2" fill="none" stroke="#ff0099"/>
<path d="M499,341h 1" fill="none" stroke="#ff0099"/>
<g stroke="#ff0099" stroke-width="1" fill="#ff0099">
<circle cx=" 498" cy=" 341" r=" 1.5"/>
</g>
<path d="M502,190v -23" fill="none" stroke="#ff0099"/>
<path d="M502,165v -23" fill="none" stroke="#ff0099"/>
<path d="M500,166h 1" fill="none" stroke="#ff0099"/>
<path d="M503,166h 2" fill="none" stroke="#ff0099"/>
<g stroke="#ff0099" stroke-width="1" fill="#ff0099">
<circle cx=" 502" cy=" 166" r=" 1.5"/>
</g>
<path d="M507,119v -27" fill="none" stroke="#ff0099"/>
<path d="M507,90v -27" fill="none" stroke="#ff0099"/>
<path d="M505,91h 1" fill="none" stroke="#ff0099"/>
<path d="M508,91h 1" fill="none" stroke="#ff0099"/>
<g stroke="#ff0099" stroke-width="1" fill="#ff0099">
<circle cx=" 507" cy=" 91" r=" 1.5"/>
</g>
<path d="M511,178v -24" fill="none" stroke="#ff0099"/>
<path d="M511,152v -24" fill="none" stroke="#ff0099"/>
<path d="M509,153h 1" fill="none" stroke="#ff0099"/>
<path d="M513,153h 1" fill="none" stroke="#ff0099"/>
<g stroke="#ff0099" stroke-width="1" fill="#ff0099">
<circle cx=" 511" cy=" 153" r=" 1.5"/>
</g>
<path d="M516,330v -15" fill="none" stroke="#ff0099"/>
<path d="M516,312v -15" fill="none" stroke="#ff0099"/>
<path d="M514,314h 1" fill="none" stroke="#ff0099"/>
<path d="M517,314h 1" fill="none" stroke="#ff0099"/>
<g stroke="#ff0099" stroke-width="1" fill="#ff0099">
<circle cx=" 516" cy=" 314" r=" 1.5"/>
</g>
<path d="M520,439v -4" fill="none" stroke="#ff0099"/>
<path d="M520,433v -4" fill="none" stroke="#ff0099"/>
<path d="M518,434h 1" fill="none" stroke="#ff0099"/>
<path d="M522,434h 1" fill="none" stroke="#ff0099"/>
<g stroke="#ff0099" stroke-width="1" fill="#ff0099">
<circle cx=" 520" cy=" 434" r=" 1.5"/>
</g>
<rect x="357" y="59" width="142" height="99" fill="white"/>
<text x="360" y="82" fill="black" font-size="17" font-family="Helvetica" font-weight="bold">
EE
</text>
<text x="457" y="115" fill="black" font-size="17" font-family="Helvetica" font-weight="bold">
 ee
</text>
<text x="440" y="115" fill="black" font-size="17" font-family="Times">
&#8594;
</text>
<text x="392" y="115" fill="black" font-size="17" font-family="Helvetica" font-weight="bold">
MC Z 
</text>
<path d="M362,109h 25" fill="none" stroke="#ff0099"/>
<g stroke="#ff0099" stroke-width="1" fill="#ff0099">
<circle cx=" 375" cy=" 109" r=" 1.5"/>
</g>
<text x="455" y="147" fill="black" font-size="17" font-family="Helvetica" font-weight="bold">
 + jet
</text>
<text x="447" y="147" fill="black" font-size="17" font-family="Times">
&#0947;
</text>
<text x="392" y="147" fill="black" font-size="17" font-family="Helvetica" font-weight="bold">
signal 
</text>
<path d="M362,154h 25v -24h -25z" fill="#99ff99"/>
<path d="M362,130h 25" fill="none" stroke="#99ff99" stroke-width="2"/>
<path d="M362,154h 25" fill="none" stroke="#99ff99" stroke-width="2"/>
<path d="M387,154v -24" fill="none" stroke="#99ff99" stroke-width="2"/>
<path d="M362,154v -24" fill="none" stroke="#99ff99" stroke-width="2"/>
<text x="300" y="34" fill="black" font-size="17" font-family="Helvetica" font-weight="bold">
=8 TeV
</text>
<text x="291" y="34" fill="black" font-size="17" font-family="Helvetica" font-weight="bold">
s
</text>
<path d="M285,25l 2, 10" fill="none" stroke="black" stroke-width="2"/>
<path d="M287,35l 2, -14" fill="none" stroke="black"/>
<path d="M289,21h 11" fill="none" stroke="black"/>
<text x="142" y="34" fill="black" font-size="17" font-family="Helvetica" font-weight="bold">
CMS Preliminary 
</text></svg>
