<?xml version="1.0" standalone="no"?>
<svg width="567" height="496" viewBox="0 0 567 496" xmlns="http://www.w3.org/2000/svg">
<title>
../src/TagAndProbeZ/plots_mcZee_mcGJet_withEtaR9nvtxReweight/hlt90/nvtxEE.svg
</title>
<desc>
Creator: ROOT Version 5.32/00
CreationDate: Sun Sep 28 15:21:41 2014</desc>
<defs>
</defs>
<rect x="0" y="0" width="567" height="496" fill="white"/>
<rect x="74" y="44" width="453" height="402" fill="white"/>
<rect x="74" y="44" width="453" height="402" fill="none" stroke="black"/>
<rect x="74" y="44" width="453" height="402" fill="white"/>
<rect x="74" y="44" width="453" height="402" fill="none" stroke="black"/>
<path d="M112,442v -3" fill="none" stroke="#ff0099"/>
<path d="M112,437v -2" fill="none" stroke="#ff0099"/>
<path d="M107,438h 4" fill="none" stroke="#ff0099"/>
<path d="M114,438h 4" fill="none" stroke="#ff0099"/>
<g stroke="#ff0099" stroke-width="1" fill="#ff0099">
<circle cx=" 112" cy=" 438" r=" 1.5"/>
</g>
<path d="M123,436v -12" fill="none" stroke="#ff0099"/>
<path d="M123,422v -11" fill="none" stroke="#ff0099"/>
<path d="M118,423h 4" fill="none" stroke="#ff0099"/>
<path d="M125,423h 4" fill="none" stroke="#ff0099"/>
<g stroke="#ff0099" stroke-width="1" fill="#ff0099">
<circle cx=" 123" cy=" 423" r=" 1.5"/>
</g>
<path d="M135,415v -14" fill="none" stroke="#ff0099"/>
<path d="M135,399v -13" fill="none" stroke="#ff0099"/>
<path d="M129,400h 4" fill="none" stroke="#ff0099"/>
<path d="M136,400h 4" fill="none" stroke="#ff0099"/>
<g stroke="#ff0099" stroke-width="1" fill="#ff0099">
<circle cx=" 135" cy=" 400" r=" 1.5"/>
</g>
<path d="M146,378v -18" fill="none" stroke="#ff0099"/>
<path d="M146,357v -18" fill="none" stroke="#ff0099"/>
<path d="M140,359h 4" fill="none" stroke="#ff0099"/>
<path d="M147,359h 4" fill="none" stroke="#ff0099"/>
<g stroke="#ff0099" stroke-width="1" fill="#ff0099">
<circle cx=" 146" cy=" 359" r=" 1.5"/>
</g>
<path d="M157,388v -17" fill="none" stroke="#ff0099"/>
<path d="M157,369v -17" fill="none" stroke="#ff0099"/>
<path d="M151,370h 5" fill="none" stroke="#ff0099"/>
<path d="M158,370h 4" fill="none" stroke="#ff0099"/>
<g stroke="#ff0099" stroke-width="1" fill="#ff0099">
<circle cx=" 157" cy=" 370" r=" 1.5"/>
</g>
<path d="M168,353v -22" fill="none" stroke="#ff0099"/>
<path d="M168,329v -21" fill="none" stroke="#ff0099"/>
<path d="M162,330h 5" fill="none" stroke="#ff0099"/>
<path d="M169,330h 4" fill="none" stroke="#ff0099"/>
<g stroke="#ff0099" stroke-width="1" fill="#ff0099">
<circle cx=" 168" cy=" 330" r=" 1.5"/>
</g>
<path d="M179,272v -29" fill="none" stroke="#ff0099"/>
<path d="M179,241v -30" fill="none" stroke="#ff0099"/>
<path d="M173,242h 5" fill="none" stroke="#ff0099"/>
<path d="M180,242h 4" fill="none" stroke="#ff0099"/>
<g stroke="#ff0099" stroke-width="1" fill="#ff0099">
<circle cx=" 179" cy=" 242" r=" 1.5"/>
</g>
<path d="M190,250v -35" fill="none" stroke="#ff0099"/>
<path d="M190,212v -35" fill="none" stroke="#ff0099"/>
<path d="M184,214h 5" fill="none" stroke="#ff0099"/>
<path d="M191,214h 4" fill="none" stroke="#ff0099"/>
<g stroke="#ff0099" stroke-width="1" fill="#ff0099">
<circle cx=" 190" cy=" 214" r=" 1.5"/>
</g>
<path d="M201,252v -30" fill="none" stroke="#ff0099"/>
<path d="M201,220v -30" fill="none" stroke="#ff0099"/>
<path d="M195,221h 5" fill="none" stroke="#ff0099"/>
<path d="M202,221h 4" fill="none" stroke="#ff0099"/>
<g stroke="#ff0099" stroke-width="1" fill="#ff0099">
<circle cx=" 201" cy=" 221" r=" 1.5"/>
</g>
<path d="M212,180v -37" fill="none" stroke="#ff0099"/>
<path d="M212,141v -38" fill="none" stroke="#ff0099"/>
<path d="M206,142h 5" fill="none" stroke="#ff0099"/>
<path d="M213,142h 5" fill="none" stroke="#ff0099"/>
<g stroke="#ff0099" stroke-width="1" fill="#ff0099">
<circle cx=" 212" cy=" 142" r=" 1.5"/>
</g>
<path d="M223,179v -36" fill="none" stroke="#ff0099"/>
<path d="M223,141v -36" fill="none" stroke="#ff0099"/>
<path d="M218,142h 4" fill="none" stroke="#ff0099"/>
<path d="M224,142h 5" fill="none" stroke="#ff0099"/>
<g stroke="#ff0099" stroke-width="1" fill="#ff0099">
<circle cx=" 223" cy=" 142" r=" 1.5"/>
</g>
<path d="M234,198v -36" fill="none" stroke="#ff0099"/>
<path d="M234,160v -37" fill="none" stroke="#ff0099"/>
<path d="M229,161h 4" fill="none" stroke="#ff0099"/>
<path d="M235,161h 5" fill="none" stroke="#ff0099"/>
<g stroke="#ff0099" stroke-width="1" fill="#ff0099">
<circle cx=" 234" cy=" 161" r=" 1.5"/>
</g>
<path d="M245,153v -42" fill="none" stroke="#ff0099"/>
<path d="M245,109v -41" fill="none" stroke="#ff0099"/>
<path d="M240,110h 4" fill="none" stroke="#ff0099"/>
<path d="M246,110h 5" fill="none" stroke="#ff0099"/>
<g stroke="#ff0099" stroke-width="1" fill="#ff0099">
<circle cx=" 245" cy=" 110" r=" 1.5"/>
</g>
<path d="M256,162v -43" fill="none" stroke="#ff0099"/>
<path d="M256,117v -42" fill="none" stroke="#ff0099"/>
<path d="M251,118h 4" fill="none" stroke="#ff0099"/>
<path d="M257,118h 5" fill="none" stroke="#ff0099"/>
<g stroke="#ff0099" stroke-width="1" fill="#ff0099">
<circle cx=" 256" cy=" 118" r=" 1.5"/>
</g>
<path d="M267,156v -39" fill="none" stroke="#ff0099"/>
<path d="M267,115v -39" fill="none" stroke="#ff0099"/>
<path d="M262,116h 4" fill="none" stroke="#ff0099"/>
<path d="M268,116h 5" fill="none" stroke="#ff0099"/>
<g stroke="#ff0099" stroke-width="1" fill="#ff0099">
<circle cx=" 267" cy=" 116" r=" 1.5"/>
</g>
<path d="M278,199v -34" fill="none" stroke="#ff0099"/>
<path d="M278,163v -34" fill="none" stroke="#ff0099"/>
<path d="M273,164h 4" fill="none" stroke="#ff0099"/>
<path d="M279,164h 5" fill="none" stroke="#ff0099"/>
<g stroke="#ff0099" stroke-width="1" fill="#ff0099">
<circle cx=" 278" cy=" 164" r=" 1.5"/>
</g>
<path d="M289,158v -46" fill="none" stroke="#ff0099"/>
<path d="M289,110v -47" fill="none" stroke="#ff0099"/>
<path d="M284,111h 4" fill="none" stroke="#ff0099"/>
<path d="M291,111h 4" fill="none" stroke="#ff0099"/>
<g stroke="#ff0099" stroke-width="1" fill="#ff0099">
<circle cx=" 289" cy=" 111" r=" 1.5"/>
</g>
<path d="M300,254v -36" fill="none" stroke="#ff0099"/>
<path d="M300,216v -37" fill="none" stroke="#ff0099"/>
<path d="M295,217h 4" fill="none" stroke="#ff0099"/>
<path d="M302,217h 4" fill="none" stroke="#ff0099"/>
<g stroke="#ff0099" stroke-width="1" fill="#ff0099">
<circle cx=" 300" cy=" 217" r=" 1.5"/>
</g>
<path d="M312,323v -27" fill="none" stroke="#ff0099"/>
<path d="M312,294v -27" fill="none" stroke="#ff0099"/>
<path d="M306,295h 4" fill="none" stroke="#ff0099"/>
<path d="M313,295h 4" fill="none" stroke="#ff0099"/>
<g stroke="#ff0099" stroke-width="1" fill="#ff0099">
<circle cx=" 312" cy=" 295" r=" 1.5"/>
</g>
<path d="M323,275v -41" fill="none" stroke="#ff0099"/>
<path d="M323,232v -41" fill="none" stroke="#ff0099"/>
<path d="M317,233h 4" fill="none" stroke="#ff0099"/>
<path d="M324,233h 4" fill="none" stroke="#ff0099"/>
<g stroke="#ff0099" stroke-width="1" fill="#ff0099">
<circle cx=" 323" cy=" 233" r=" 1.5"/>
</g>
<path d="M334,338v -25" fill="none" stroke="#ff0099"/>
<path d="M334,311v -25" fill="none" stroke="#ff0099"/>
<path d="M328,312h 5" fill="none" stroke="#ff0099"/>
<path d="M335,312h 4" fill="none" stroke="#ff0099"/>
<g stroke="#ff0099" stroke-width="1" fill="#ff0099">
<circle cx=" 334" cy=" 312" r=" 1.5"/>
</g>
<path d="M345,321v -37" fill="none" stroke="#ff0099"/>
<path d="M345,281v -37" fill="none" stroke="#ff0099"/>
<path d="M339,282h 5" fill="none" stroke="#ff0099"/>
<path d="M346,282h 4" fill="none" stroke="#ff0099"/>
<g stroke="#ff0099" stroke-width="1" fill="#ff0099">
<circle cx=" 345" cy=" 282" r=" 1.5"/>
</g>
<path d="M356,337v -36" fill="none" stroke="#ff0099"/>
<path d="M356,298v -36" fill="none" stroke="#ff0099"/>
<path d="M350,299h 5" fill="none" stroke="#ff0099"/>
<path d="M357,299h 4" fill="none" stroke="#ff0099"/>
<g stroke="#ff0099" stroke-width="1" fill="#ff0099">
<circle cx=" 356" cy=" 299" r=" 1.5"/>
</g>
<path d="M367,413v -20" fill="none" stroke="#ff0099"/>
<path d="M367,391v -20" fill="none" stroke="#ff0099"/>
<path d="M361,392h 5" fill="none" stroke="#ff0099"/>
<path d="M368,392h 4" fill="none" stroke="#ff0099"/>
<g stroke="#ff0099" stroke-width="1" fill="#ff0099">
<circle cx=" 367" cy=" 392" r=" 1.5"/>
</g>
<path d="M378,402v -18" fill="none" stroke="#ff0099"/>
<path d="M378,382v -18" fill="none" stroke="#ff0099"/>
<path d="M372,383h 5" fill="none" stroke="#ff0099"/>
<path d="M379,383h 4" fill="none" stroke="#ff0099"/>
<g stroke="#ff0099" stroke-width="1" fill="#ff0099">
<circle cx=" 378" cy=" 383" r=" 1.5"/>
</g>
<path d="M389,421v -10" fill="none" stroke="#ff0099"/>
<path d="M389,409v -10" fill="none" stroke="#ff0099"/>
<path d="M383,410h 5" fill="none" stroke="#ff0099"/>
<path d="M390,410h 4" fill="none" stroke="#ff0099"/>
<g stroke="#ff0099" stroke-width="1" fill="#ff0099">
<circle cx=" 389" cy=" 410" r=" 1.5"/>
</g>
<path d="M400,417v -16" fill="none" stroke="#ff0099"/>
<path d="M400,399v -16" fill="none" stroke="#ff0099"/>
<path d="M394,400h 5" fill="none" stroke="#ff0099"/>
<path d="M401,400h 5" fill="none" stroke="#ff0099"/>
<g stroke="#ff0099" stroke-width="1" fill="#ff0099">
<circle cx=" 400" cy=" 400" r=" 1.5"/>
</g>
<path d="M411,438v -4" fill="none" stroke="#ff0099"/>
<path d="M411,432v -4" fill="none" stroke="#ff0099"/>
<path d="M406,433h 4" fill="none" stroke="#ff0099"/>
<path d="M412,433h 5" fill="none" stroke="#ff0099"/>
<g stroke="#ff0099" stroke-width="1" fill="#ff0099">
<circle cx=" 411" cy=" 433" r=" 1.5"/>
</g>
<path d="M422,430v -22" fill="none" stroke="#ff0099"/>
<path d="M422,406v -22" fill="none" stroke="#ff0099"/>
<path d="M417,407h 4" fill="none" stroke="#ff0099"/>
<path d="M423,407h 5" fill="none" stroke="#ff0099"/>
<g stroke="#ff0099" stroke-width="1" fill="#ff0099">
<circle cx=" 422" cy=" 407" r=" 1.5"/>
</g>
<path d="M433,443v -2" fill="none" stroke="#ff0099"/>
<path d="M433,439v -2" fill="none" stroke="#ff0099"/>
<path d="M428,440h 4" fill="none" stroke="#ff0099"/>
<path d="M434,440h 5" fill="none" stroke="#ff0099"/>
<g stroke="#ff0099" stroke-width="1" fill="#ff0099">
<circle cx=" 433" cy=" 440" r=" 1.5"/>
</g>
<path d="M444,442v -2" fill="none" stroke="#ff0099"/>
<path d="M444,438v -1" fill="none" stroke="#ff0099"/>
<path d="M439,439h 4" fill="none" stroke="#ff0099"/>
<path d="M445,439h 5" fill="none" stroke="#ff0099"/>
<g stroke="#ff0099" stroke-width="1" fill="#ff0099">
<circle cx=" 444" cy=" 439" r=" 1.5"/>
</g>
<path d="M450,445h 4" fill="none" stroke="#ff0099"/>
<path d="M456,445h 5" fill="none" stroke="#ff0099"/>
<g stroke="#ff0099" stroke-width="1" fill="#ff0099">
<circle cx=" 455" cy=" 445" r=" 1.5"/>
</g>
<path d="M461,445h 4" fill="none" stroke="#ff0099"/>
<path d="M468,445h 4" fill="none" stroke="#ff0099"/>
<g stroke="#ff0099" stroke-width="1" fill="#ff0099">
<circle cx=" 466" cy=" 445" r=" 1.5"/>
</g>
<path d="M472,445h 4" fill="none" stroke="#ff0099"/>
<path d="M479,445h 4" fill="none" stroke="#ff0099"/>
<g stroke="#ff0099" stroke-width="1" fill="#ff0099">
<circle cx=" 477" cy=" 445" r=" 1.5"/>
</g>
<path d="M489,445v -1" fill="none" stroke="#ff0099"/>
<path d="M489,442v -1" fill="none" stroke="#ff0099"/>
<path d="M483,443h 4" fill="none" stroke="#ff0099"/>
<path d="M490,443h 4" fill="none" stroke="#ff0099"/>
<g stroke="#ff0099" stroke-width="1" fill="#ff0099">
<circle cx=" 489" cy=" 443" r=" 1.5"/>
</g>
<path d="M494,445h 4" fill="none" stroke="#ff0099"/>
<path d="M501,445h 4" fill="none" stroke="#ff0099"/>
<g stroke="#ff0099" stroke-width="1" fill="#ff0099">
<circle cx=" 500" cy=" 445" r=" 1.5"/>
</g>
<path d="M516,446h 5" fill="none" stroke="#ff0099"/>
<path d="M523,446h 4" fill="none" stroke="#ff0099"/>
<g stroke="#ff0099" stroke-width="1" fill="#ff0099">
<circle cx=" 522" cy=" 446" r=" 1.5"/>
</g>
<path d="M74,446h 453" fill="none" stroke="black"/>
<path d="M79,434v 12" fill="none" stroke="black"/>
<path d="M90,440v 6" fill="none" stroke="black"/>
<path d="M101,440v 6" fill="none" stroke="black"/>
<path d="M112,440v 6" fill="none" stroke="black"/>
<path d="M123,440v 6" fill="none" stroke="black"/>
<path d="M135,434v 12" fill="none" stroke="black"/>
<path d="M146,440v 6" fill="none" stroke="black"/>
<path d="M157,440v 6" fill="none" stroke="black"/>
<path d="M168,440v 6" fill="none" stroke="black"/>
<path d="M179,440v 6" fill="none" stroke="black"/>
<path d="M190,434v 12" fill="none" stroke="black"/>
<path d="M201,440v 6" fill="none" stroke="black"/>
<path d="M212,440v 6" fill="none" stroke="black"/>
<path d="M223,440v 6" fill="none" stroke="black"/>
<path d="M234,440v 6" fill="none" stroke="black"/>
<path d="M245,434v 12" fill="none" stroke="black"/>
<path d="M256,440v 6" fill="none" stroke="black"/>
<path d="M267,440v 6" fill="none" stroke="black"/>
<path d="M278,440v 6" fill="none" stroke="black"/>
<path d="M289,440v 6" fill="none" stroke="black"/>
<path d="M300,434v 12" fill="none" stroke="black"/>
<path d="M312,440v 6" fill="none" stroke="black"/>
<path d="M323,440v 6" fill="none" stroke="black"/>
<path d="M334,440v 6" fill="none" stroke="black"/>
<path d="M345,440v 6" fill="none" stroke="black"/>
<path d="M356,434v 12" fill="none" stroke="black"/>
<path d="M367,440v 6" fill="none" stroke="black"/>
<path d="M378,440v 6" fill="none" stroke="black"/>
<path d="M389,440v 6" fill="none" stroke="black"/>
<path d="M400,440v 6" fill="none" stroke="black"/>
<path d="M411,434v 12" fill="none" stroke="black"/>
<path d="M422,440v 6" fill="none" stroke="black"/>
<path d="M433,440v 6" fill="none" stroke="black"/>
<path d="M444,440v 6" fill="none" stroke="black"/>
<path d="M455,440v 6" fill="none" stroke="black"/>
<path d="M466,434v 12" fill="none" stroke="black"/>
<path d="M477,440v 6" fill="none" stroke="black"/>
<path d="M489,440v 6" fill="none" stroke="black"/>
<path d="M500,440v 6" fill="none" stroke="black"/>
<path d="M511,440v 6" fill="none" stroke="black"/>
<path d="M522,434v 12" fill="none" stroke="black"/>
<path d="M79,434v 12" fill="none" stroke="black"/>
<path d="M522,434v 12" fill="none" stroke="black"/>
<text x="74" y="465" fill="black" font-size="18" font-family="Helvetica" font-weight="bold">
0
</text>
<text x="129" y="465" fill="black" font-size="18" font-family="Helvetica" font-weight="bold">
5
</text>
<text x="179" y="465" fill="black" font-size="18" font-family="Helvetica" font-weight="bold">
10
</text>
<text x="235" y="465" fill="black" font-size="18" font-family="Helvetica" font-weight="bold">
15
</text>
<text x="290" y="465" fill="black" font-size="18" font-family="Helvetica" font-weight="bold">
20
</text>
<text x="346" y="465" fill="black" font-size="18" font-family="Helvetica" font-weight="bold">
25
</text>
<text x="401" y="465" fill="black" font-size="18" font-family="Helvetica" font-weight="bold">
30
</text>
<text x="456" y="465" fill="black" font-size="18" font-family="Helvetica" font-weight="bold">
35
</text>
<text x="511" y="465" fill="black" font-size="18" font-family="Helvetica" font-weight="bold">
40
</text>
<path d="M74,44h 453" fill="none" stroke="black"/>
<path d="M79,56v -12" fill="none" stroke="black"/>
<path d="M90,50v -6" fill="none" stroke="black"/>
<path d="M101,50v -6" fill="none" stroke="black"/>
<path d="M112,50v -6" fill="none" stroke="black"/>
<path d="M123,50v -6" fill="none" stroke="black"/>
<path d="M135,56v -12" fill="none" stroke="black"/>
<path d="M146,50v -6" fill="none" stroke="black"/>
<path d="M157,50v -6" fill="none" stroke="black"/>
<path d="M168,50v -6" fill="none" stroke="black"/>
<path d="M179,50v -6" fill="none" stroke="black"/>
<path d="M190,56v -12" fill="none" stroke="black"/>
<path d="M201,50v -6" fill="none" stroke="black"/>
<path d="M212,50v -6" fill="none" stroke="black"/>
<path d="M223,50v -6" fill="none" stroke="black"/>
<path d="M234,50v -6" fill="none" stroke="black"/>
<path d="M245,56v -12" fill="none" stroke="black"/>
<path d="M256,50v -6" fill="none" stroke="black"/>
<path d="M267,50v -6" fill="none" stroke="black"/>
<path d="M278,50v -6" fill="none" stroke="black"/>
<path d="M289,50v -6" fill="none" stroke="black"/>
<path d="M300,56v -12" fill="none" stroke="black"/>
<path d="M312,50v -6" fill="none" stroke="black"/>
<path d="M323,50v -6" fill="none" stroke="black"/>
<path d="M334,50v -6" fill="none" stroke="black"/>
<path d="M345,50v -6" fill="none" stroke="black"/>
<path d="M356,56v -12" fill="none" stroke="black"/>
<path d="M367,50v -6" fill="none" stroke="black"/>
<path d="M378,50v -6" fill="none" stroke="black"/>
<path d="M389,50v -6" fill="none" stroke="black"/>
<path d="M400,50v -6" fill="none" stroke="black"/>
<path d="M411,56v -12" fill="none" stroke="black"/>
<path d="M422,50v -6" fill="none" stroke="black"/>
<path d="M433,50v -6" fill="none" stroke="black"/>
<path d="M444,50v -6" fill="none" stroke="black"/>
<path d="M455,50v -6" fill="none" stroke="black"/>
<path d="M466,56v -12" fill="none" stroke="black"/>
<path d="M477,50v -6" fill="none" stroke="black"/>
<path d="M489,50v -6" fill="none" stroke="black"/>
<path d="M500,50v -6" fill="none" stroke="black"/>
<path d="M511,50v -6" fill="none" stroke="black"/>
<path d="M522,56v -12" fill="none" stroke="black"/>
<path d="M79,56v -12" fill="none" stroke="black"/>
<path d="M522,56v -12" fill="none" stroke="black"/>
<path d="M74,446v -402" fill="none" stroke="black"/>
<path d="M87,446h -13" fill="none" stroke="black"/>
<path d="M81,437h -7" fill="none" stroke="black"/>
<path d="M81,427h -7" fill="none" stroke="black"/>
<path d="M81,417h -7" fill="none" stroke="black"/>
<path d="M81,408h -7" fill="none" stroke="black"/>
<path d="M87,398h -13" fill="none" stroke="black"/>
<path d="M81,388h -7" fill="none" stroke="black"/>
<path d="M81,379h -7" fill="none" stroke="black"/>
<path d="M81,369h -7" fill="none" stroke="black"/>
<path d="M81,359h -7" fill="none" stroke="black"/>
<path d="M87,350h -13" fill="none" stroke="black"/>
<path d="M81,340h -7" fill="none" stroke="black"/>
<path d="M81,330h -7" fill="none" stroke="black"/>
<path d="M81,321h -7" fill="none" stroke="black"/>
<path d="M81,311h -7" fill="none" stroke="black"/>
<path d="M87,301h -13" fill="none" stroke="black"/>
<path d="M81,291h -7" fill="none" stroke="black"/>
<path d="M81,282h -7" fill="none" stroke="black"/>
<path d="M81,272h -7" fill="none" stroke="black"/>
<path d="M81,262h -7" fill="none" stroke="black"/>
<path d="M87,253h -13" fill="none" stroke="black"/>
<path d="M81,243h -7" fill="none" stroke="black"/>
<path d="M81,233h -7" fill="none" stroke="black"/>
<path d="M81,224h -7" fill="none" stroke="black"/>
<path d="M81,214h -7" fill="none" stroke="black"/>
<path d="M87,204h -13" fill="none" stroke="black"/>
<path d="M81,195h -7" fill="none" stroke="black"/>
<path d="M81,185h -7" fill="none" stroke="black"/>
<path d="M81,175h -7" fill="none" stroke="black"/>
<path d="M81,166h -7" fill="none" stroke="black"/>
<path d="M87,156h -13" fill="none" stroke="black"/>
<path d="M81,146h -7" fill="none" stroke="black"/>
<path d="M81,137h -7" fill="none" stroke="black"/>
<path d="M81,127h -7" fill="none" stroke="black"/>
<path d="M81,117h -7" fill="none" stroke="black"/>
<path d="M87,108h -13" fill="none" stroke="black"/>
<path d="M81,98h -7" fill="none" stroke="black"/>
<path d="M81,88h -7" fill="none" stroke="black"/>
<path d="M81,78h -7" fill="none" stroke="black"/>
<path d="M81,69h -7" fill="none" stroke="black"/>
<path d="M87,59h -13" fill="none" stroke="black"/>
<path d="M87,59h -13" fill="none" stroke="black"/>
<path d="M81,49h -7" fill="none" stroke="black"/>
<text x="61" y="453" fill="black" font-size="18" font-family="Helvetica" font-weight="bold">
0
</text>
<text x="37" y="404" fill="black" font-size="18" font-family="Helvetica" font-weight="bold">
0.01
</text>
<text x="35" y="356" fill="black" font-size="18" font-family="Helvetica" font-weight="bold">
0.02
</text>
<text x="35" y="308" fill="black" font-size="18" font-family="Helvetica" font-weight="bold">
0.03
</text>
<text x="34" y="259" fill="black" font-size="18" font-family="Helvetica" font-weight="bold">
0.04
</text>
<text x="34" y="211" fill="black" font-size="18" font-family="Helvetica" font-weight="bold">
0.05
</text>
<text x="34" y="162" fill="black" font-size="18" font-family="Helvetica" font-weight="bold">
0.06
</text>
<text x="35" y="114" fill="black" font-size="18" font-family="Helvetica" font-weight="bold">
0.07
</text>
<text x="35" y="66" fill="black" font-size="18" font-family="Helvetica" font-weight="bold">
0.08
</text>
<path d="M90,446" fill="none" stroke="#99ff99" stroke-width="2"/>
<path d="M90,446" fill="none" stroke="#99ff99" stroke-width="2"/>
<g stroke="black" stroke-width="2" fill="none">
<line x1="89" y1="446" x2="90" y2="446"/>
</g>
<path d="M101,444v -1" fill="none" stroke="#99ff99" stroke-width="2"/>
<path d="M101,443" fill="none" stroke="#99ff99" stroke-width="2"/>
<g stroke="black" stroke-width="2" fill="none">
<line x1="100" y1="443" x2="101" y2="443"/>
</g>
<path d="M112,440" fill="none" stroke="#99ff99" stroke-width="2"/>
<path d="M112,440v -1" fill="none" stroke="#99ff99" stroke-width="2"/>
<g stroke="black" stroke-width="2" fill="none">
<line x1="111" y1="440" x2="112" y2="440"/>
</g>
<path d="M123,429v -1" fill="none" stroke="#99ff99" stroke-width="2"/>
<path d="M123,428v -1" fill="none" stroke="#99ff99" stroke-width="2"/>
<g stroke="black" stroke-width="2" fill="none">
<line x1="122" y1="428" x2="123" y2="428"/>
</g>
<path d="M135,408v -1" fill="none" stroke="#99ff99" stroke-width="2"/>
<path d="M135,407v -2" fill="none" stroke="#99ff99" stroke-width="2"/>
<g stroke="black" stroke-width="2" fill="none">
<line x1="134" y1="407" x2="135" y2="407"/>
</g>
<path d="M146,383v -2" fill="none" stroke="#99ff99" stroke-width="2"/>
<path d="M146,381v -2" fill="none" stroke="#99ff99" stroke-width="2"/>
<g stroke="black" stroke-width="2" fill="none">
<line x1="145" y1="381" x2="146" y2="381"/>
</g>
<path d="M157,340v -3" fill="none" stroke="#99ff99" stroke-width="2"/>
<path d="M157,337v -3" fill="none" stroke="#99ff99" stroke-width="2"/>
<g stroke="black" stroke-width="2" fill="none">
<line x1="156" y1="337" x2="157" y2="337"/>
</g>
<path d="M168,291v -3" fill="none" stroke="#99ff99" stroke-width="2"/>
<path d="M168,288v -4" fill="none" stroke="#99ff99" stroke-width="2"/>
<g stroke="black" stroke-width="2" fill="none">
<line x1="167" y1="288" x2="168" y2="288"/>
</g>
<path d="M179,246v -4" fill="none" stroke="#99ff99" stroke-width="2"/>
<path d="M179,242v -4" fill="none" stroke="#99ff99" stroke-width="2"/>
<g stroke="black" stroke-width="2" fill="none">
<line x1="178" y1="242" x2="179" y2="242"/>
</g>
<path d="M190,206v -5" fill="none" stroke="#99ff99" stroke-width="2"/>
<path d="M190,201v -4" fill="none" stroke="#99ff99" stroke-width="2"/>
<g stroke="black" stroke-width="2" fill="none">
<line x1="189" y1="201" x2="190" y2="201"/>
</g>
<path d="M201,165v -5" fill="none" stroke="#99ff99" stroke-width="2"/>
<path d="M201,160v -5" fill="none" stroke="#99ff99" stroke-width="2"/>
<g stroke="black" stroke-width="2" fill="none">
<line x1="200" y1="160" x2="201" y2="160"/>
</g>
<path d="M212,132v -5" fill="none" stroke="#99ff99" stroke-width="2"/>
<path d="M212,127v -5" fill="none" stroke="#99ff99" stroke-width="2"/>
<g stroke="black" stroke-width="2" fill="none">
<line x1="211" y1="127" x2="212" y2="127"/>
</g>
<path d="M223,129v -5" fill="none" stroke="#99ff99" stroke-width="2"/>
<path d="M223,124v -4" fill="none" stroke="#99ff99" stroke-width="2"/>
<g stroke="black" stroke-width="2" fill="none">
<line x1="222" y1="124" x2="223" y2="124"/>
</g>
<path d="M234,109v -5" fill="none" stroke="#99ff99" stroke-width="2"/>
<path d="M234,104v -5" fill="none" stroke="#99ff99" stroke-width="2"/>
<g stroke="black" stroke-width="2" fill="none">
<line x1="233" y1="104" x2="234" y2="104"/>
</g>
<path d="M245,118v -4" fill="none" stroke="#99ff99" stroke-width="2"/>
<path d="M245,114v -5" fill="none" stroke="#99ff99" stroke-width="2"/>
<g stroke="black" stroke-width="2" fill="none">
<line x1="244" y1="114" x2="245" y2="114"/>
</g>
<path d="M256,122v -5" fill="none" stroke="#99ff99" stroke-width="2"/>
<path d="M256,117v -5" fill="none" stroke="#99ff99" stroke-width="2"/>
<g stroke="black" stroke-width="2" fill="none">
<line x1="255" y1="117" x2="256" y2="117"/>
</g>
<path d="M267,141v -5" fill="none" stroke="#99ff99" stroke-width="2"/>
<path d="M267,136v -4" fill="none" stroke="#99ff99" stroke-width="2"/>
<g stroke="black" stroke-width="2" fill="none">
<line x1="266" y1="136" x2="267" y2="136"/>
</g>
<path d="M278,166v -5" fill="none" stroke="#99ff99" stroke-width="2"/>
<path d="M278,161v -4" fill="none" stroke="#99ff99" stroke-width="2"/>
<g stroke="black" stroke-width="2" fill="none">
<line x1="277" y1="161" x2="278" y2="161"/>
</g>
<path d="M289,191v -4" fill="none" stroke="#99ff99" stroke-width="2"/>
<path d="M289,187v -4" fill="none" stroke="#99ff99" stroke-width="2"/>
<g stroke="black" stroke-width="2" fill="none">
<line x1="288" y1="187" x2="289" y2="187"/>
</g>
<path d="M300,223v -9" fill="none" stroke="#99ff99" stroke-width="2"/>
<path d="M300,214v -8" fill="none" stroke="#99ff99" stroke-width="2"/>
<g stroke="black" stroke-width="2" fill="none">
<line x1="299" y1="214" x2="300" y2="214"/>
</g>
<path d="M312,247v -10" fill="none" stroke="#99ff99" stroke-width="2"/>
<path d="M312,237v -11" fill="none" stroke="#99ff99" stroke-width="2"/>
<g stroke="black" stroke-width="2" fill="none">
<line x1="311" y1="237" x2="312" y2="237"/>
</g>
<path d="M323,281v -10" fill="none" stroke="#99ff99" stroke-width="2"/>
<path d="M323,271v -9" fill="none" stroke="#99ff99" stroke-width="2"/>
<g stroke="black" stroke-width="2" fill="none">
<line x1="322" y1="271" x2="323" y2="271"/>
</g>
<path d="M334,309v -3" fill="none" stroke="#99ff99" stroke-width="2"/>
<path d="M334,306v -3" fill="none" stroke="#99ff99" stroke-width="2"/>
<g stroke="black" stroke-width="2" fill="none">
<line x1="333" y1="306" x2="334" y2="306"/>
</g>
<path d="M345,335v -8" fill="none" stroke="#99ff99" stroke-width="2"/>
<path d="M345,327v -9" fill="none" stroke="#99ff99" stroke-width="2"/>
<g stroke="black" stroke-width="2" fill="none">
<line x1="344" y1="327" x2="345" y2="327"/>
</g>
<path d="M356,364v -2" fill="none" stroke="#99ff99" stroke-width="2"/>
<path d="M356,362v -2" fill="none" stroke="#99ff99" stroke-width="2"/>
<g stroke="black" stroke-width="2" fill="none">
<line x1="355" y1="362" x2="356" y2="362"/>
</g>
<path d="M367,382v -2" fill="none" stroke="#99ff99" stroke-width="2"/>
<path d="M367,380v -1" fill="none" stroke="#99ff99" stroke-width="2"/>
<g stroke="black" stroke-width="2" fill="none">
<line x1="366" y1="380" x2="367" y2="380"/>
</g>
<path d="M378,397v -2" fill="none" stroke="#99ff99" stroke-width="2"/>
<path d="M378,395v -1" fill="none" stroke="#99ff99" stroke-width="2"/>
<g stroke="black" stroke-width="2" fill="none">
<line x1="377" y1="395" x2="378" y2="395"/>
</g>
<path d="M389,409v -1" fill="none" stroke="#99ff99" stroke-width="2"/>
<path d="M389,408v -1" fill="none" stroke="#99ff99" stroke-width="2"/>
<g stroke="black" stroke-width="2" fill="none">
<line x1="388" y1="408" x2="389" y2="408"/>
</g>
<path d="M400,420v -1" fill="none" stroke="#99ff99" stroke-width="2"/>
<path d="M400,419v -1" fill="none" stroke="#99ff99" stroke-width="2"/>
<g stroke="black" stroke-width="2" fill="none">
<line x1="399" y1="419" x2="400" y2="419"/>
</g>
<path d="M411,428v -1" fill="none" stroke="#99ff99" stroke-width="2"/>
<path d="M411,427v -1" fill="none" stroke="#99ff99" stroke-width="2"/>
<g stroke="black" stroke-width="2" fill="none">
<line x1="410" y1="427" x2="411" y2="427"/>
</g>
<path d="M422,434v -1" fill="none" stroke="#99ff99" stroke-width="2"/>
<path d="M422,433v -1" fill="none" stroke="#99ff99" stroke-width="2"/>
<g stroke="black" stroke-width="2" fill="none">
<line x1="421" y1="433" x2="422" y2="433"/>
</g>
<path d="M433,438v -1" fill="none" stroke="#99ff99" stroke-width="2"/>
<path d="M433,437" fill="none" stroke="#99ff99" stroke-width="2"/>
<g stroke="black" stroke-width="2" fill="none">
<line x1="432" y1="437" x2="433" y2="437"/>
</g>
<path d="M444,441v -1" fill="none" stroke="#99ff99" stroke-width="2"/>
<path d="M444,440" fill="none" stroke="#99ff99" stroke-width="2"/>
<g stroke="black" stroke-width="2" fill="none">
<line x1="443" y1="440" x2="444" y2="440"/>
</g>
<path d="M455,443" fill="none" stroke="#99ff99" stroke-width="2"/>
<path d="M455,443" fill="none" stroke="#99ff99" stroke-width="2"/>
<g stroke="black" stroke-width="2" fill="none">
<line x1="454" y1="443" x2="455" y2="443"/>
</g>
<path d="M466,444" fill="none" stroke="#99ff99" stroke-width="2"/>
<path d="M466,444" fill="none" stroke="#99ff99" stroke-width="2"/>
<g stroke="black" stroke-width="2" fill="none">
<line x1="465" y1="444" x2="466" y2="444"/>
</g>
<path d="M477,445" fill="none" stroke="#99ff99" stroke-width="2"/>
<path d="M477,445" fill="none" stroke="#99ff99" stroke-width="2"/>
<g stroke="black" stroke-width="2" fill="none">
<line x1="476" y1="445" x2="477" y2="445"/>
</g>
<path d="M489,445" fill="none" stroke="#99ff99" stroke-width="2"/>
<path d="M489,445" fill="none" stroke="#99ff99" stroke-width="2"/>
<g stroke="black" stroke-width="2" fill="none">
<line x1="488" y1="445" x2="489" y2="445"/>
</g>
<path d="M500,446" fill="none" stroke="#99ff99" stroke-width="2"/>
<path d="M500,446" fill="none" stroke="#99ff99" stroke-width="2"/>
<g stroke="black" stroke-width="2" fill="none">
<line x1="499" y1="446" x2="500" y2="446"/>
</g>
<path d="M511,446" fill="none" stroke="#99ff99" stroke-width="2"/>
<path d="M511,446" fill="none" stroke="#99ff99" stroke-width="2"/>
<g stroke="black" stroke-width="2" fill="none">
<line x1="510" y1="446" x2="511" y2="446"/>
</g>
<path d="M522,446" fill="none" stroke="#99ff99" stroke-width="2"/>
<path d="M522,446" fill="none" stroke="#99ff99" stroke-width="2"/>
<g stroke="black" stroke-width="2" fill="none">
<line x1="521" y1="446" x2="522" y2="446"/>
</g>
<path d="M74,446h 22v -3h 11v -3h 11v -12h 11v -21h 11v -26h 11v -44h 11v -49h 11v -46h 11v -41h 11v -41h 11v -33h 12v -3h 11v -20h 11v 10h 11v 3h 11v 19h 11v 25h 11v 26h 11v 27h 11v 23h 11v 34h 11v 35h 11v 21h 11v 35h 11v 18h 11v 15h 11v 13h 11v 11h
 12v 8h 11v 6h 11v 4h 11v 3h 11v 3h 11v 1h 11v 1h 22v 1h 33z" fill="#99ff99"/>
<path d="M74,446h 22v -3h 11v -3h 11v -12h 11v -21h 11v -26h 11v -44h 11v -49h 11v -46h 11v -41h 11v -41h 11v -33h 12v -3h 11v -20h 11v 10h 11v 3h 11v 19h 11v 25h 11v 26h 11v 27h 11v 23h 11v 34h 11v 35h 11v 21h 11v 35h 11v 18h 11v 15h 11v 13h 11v 11h
 12v 8h 11v 6h 11v 4h 11v 3h 11v 3h 11v 1h 11v 1h 22v 1h 33" fill="none" stroke="#99ff99" stroke-width="2"/>
<path d="M112,442v -3" fill="none" stroke="#ff0099"/>
<path d="M112,437v -2" fill="none" stroke="#ff0099"/>
<path d="M107,438h 4" fill="none" stroke="#ff0099"/>
<path d="M114,438h 4" fill="none" stroke="#ff0099"/>
<g stroke="#ff0099" stroke-width="1" fill="#ff0099">
<circle cx=" 112" cy=" 438" r=" 1.5"/>
</g>
<path d="M123,436v -12" fill="none" stroke="#ff0099"/>
<path d="M123,422v -11" fill="none" stroke="#ff0099"/>
<path d="M118,423h 4" fill="none" stroke="#ff0099"/>
<path d="M125,423h 4" fill="none" stroke="#ff0099"/>
<g stroke="#ff0099" stroke-width="1" fill="#ff0099">
<circle cx=" 123" cy=" 423" r=" 1.5"/>
</g>
<path d="M135,415v -14" fill="none" stroke="#ff0099"/>
<path d="M135,399v -13" fill="none" stroke="#ff0099"/>
<path d="M129,400h 4" fill="none" stroke="#ff0099"/>
<path d="M136,400h 4" fill="none" stroke="#ff0099"/>
<g stroke="#ff0099" stroke-width="1" fill="#ff0099">
<circle cx=" 135" cy=" 400" r=" 1.5"/>
</g>
<path d="M146,378v -18" fill="none" stroke="#ff0099"/>
<path d="M146,357v -18" fill="none" stroke="#ff0099"/>
<path d="M140,359h 4" fill="none" stroke="#ff0099"/>
<path d="M147,359h 4" fill="none" stroke="#ff0099"/>
<g stroke="#ff0099" stroke-width="1" fill="#ff0099">
<circle cx=" 146" cy=" 359" r=" 1.5"/>
</g>
<path d="M157,388v -17" fill="none" stroke="#ff0099"/>
<path d="M157,369v -17" fill="none" stroke="#ff0099"/>
<path d="M151,370h 5" fill="none" stroke="#ff0099"/>
<path d="M158,370h 4" fill="none" stroke="#ff0099"/>
<g stroke="#ff0099" stroke-width="1" fill="#ff0099">
<circle cx=" 157" cy=" 370" r=" 1.5"/>
</g>
<path d="M168,353v -22" fill="none" stroke="#ff0099"/>
<path d="M168,329v -21" fill="none" stroke="#ff0099"/>
<path d="M162,330h 5" fill="none" stroke="#ff0099"/>
<path d="M169,330h 4" fill="none" stroke="#ff0099"/>
<g stroke="#ff0099" stroke-width="1" fill="#ff0099">
<circle cx=" 168" cy=" 330" r=" 1.5"/>
</g>
<path d="M179,272v -29" fill="none" stroke="#ff0099"/>
<path d="M179,241v -30" fill="none" stroke="#ff0099"/>
<path d="M173,242h 5" fill="none" stroke="#ff0099"/>
<path d="M180,242h 4" fill="none" stroke="#ff0099"/>
<g stroke="#ff0099" stroke-width="1" fill="#ff0099">
<circle cx=" 179" cy=" 242" r=" 1.5"/>
</g>
<path d="M190,250v -35" fill="none" stroke="#ff0099"/>
<path d="M190,212v -35" fill="none" stroke="#ff0099"/>
<path d="M184,214h 5" fill="none" stroke="#ff0099"/>
<path d="M191,214h 4" fill="none" stroke="#ff0099"/>
<g stroke="#ff0099" stroke-width="1" fill="#ff0099">
<circle cx=" 190" cy=" 214" r=" 1.5"/>
</g>
<path d="M201,252v -30" fill="none" stroke="#ff0099"/>
<path d="M201,220v -30" fill="none" stroke="#ff0099"/>
<path d="M195,221h 5" fill="none" stroke="#ff0099"/>
<path d="M202,221h 4" fill="none" stroke="#ff0099"/>
<g stroke="#ff0099" stroke-width="1" fill="#ff0099">
<circle cx=" 201" cy=" 221" r=" 1.5"/>
</g>
<path d="M212,180v -37" fill="none" stroke="#ff0099"/>
<path d="M212,141v -38" fill="none" stroke="#ff0099"/>
<path d="M206,142h 5" fill="none" stroke="#ff0099"/>
<path d="M213,142h 5" fill="none" stroke="#ff0099"/>
<g stroke="#ff0099" stroke-width="1" fill="#ff0099">
<circle cx=" 212" cy=" 142" r=" 1.5"/>
</g>
<path d="M223,179v -36" fill="none" stroke="#ff0099"/>
<path d="M223,141v -36" fill="none" stroke="#ff0099"/>
<path d="M218,142h 4" fill="none" stroke="#ff0099"/>
<path d="M224,142h 5" fill="none" stroke="#ff0099"/>
<g stroke="#ff0099" stroke-width="1" fill="#ff0099">
<circle cx=" 223" cy=" 142" r=" 1.5"/>
</g>
<path d="M234,198v -36" fill="none" stroke="#ff0099"/>
<path d="M234,160v -37" fill="none" stroke="#ff0099"/>
<path d="M229,161h 4" fill="none" stroke="#ff0099"/>
<path d="M235,161h 5" fill="none" stroke="#ff0099"/>
<g stroke="#ff0099" stroke-width="1" fill="#ff0099">
<circle cx=" 234" cy=" 161" r=" 1.5"/>
</g>
<path d="M245,153v -42" fill="none" stroke="#ff0099"/>
<path d="M245,109v -41" fill="none" stroke="#ff0099"/>
<path d="M240,110h 4" fill="none" stroke="#ff0099"/>
<path d="M246,110h 5" fill="none" stroke="#ff0099"/>
<g stroke="#ff0099" stroke-width="1" fill="#ff0099">
<circle cx=" 245" cy=" 110" r=" 1.5"/>
</g>
<path d="M256,162v -43" fill="none" stroke="#ff0099"/>
<path d="M256,117v -42" fill="none" stroke="#ff0099"/>
<path d="M251,118h 4" fill="none" stroke="#ff0099"/>
<path d="M257,118h 5" fill="none" stroke="#ff0099"/>
<g stroke="#ff0099" stroke-width="1" fill="#ff0099">
<circle cx=" 256" cy=" 118" r=" 1.5"/>
</g>
<path d="M267,156v -39" fill="none" stroke="#ff0099"/>
<path d="M267,115v -39" fill="none" stroke="#ff0099"/>
<path d="M262,116h 4" fill="none" stroke="#ff0099"/>
<path d="M268,116h 5" fill="none" stroke="#ff0099"/>
<g stroke="#ff0099" stroke-width="1" fill="#ff0099">
<circle cx=" 267" cy=" 116" r=" 1.5"/>
</g>
<path d="M278,199v -34" fill="none" stroke="#ff0099"/>
<path d="M278,163v -34" fill="none" stroke="#ff0099"/>
<path d="M273,164h 4" fill="none" stroke="#ff0099"/>
<path d="M279,164h 5" fill="none" stroke="#ff0099"/>
<g stroke="#ff0099" stroke-width="1" fill="#ff0099">
<circle cx=" 278" cy=" 164" r=" 1.5"/>
</g>
<path d="M289,158v -46" fill="none" stroke="#ff0099"/>
<path d="M289,110v -47" fill="none" stroke="#ff0099"/>
<path d="M284,111h 4" fill="none" stroke="#ff0099"/>
<path d="M291,111h 4" fill="none" stroke="#ff0099"/>
<g stroke="#ff0099" stroke-width="1" fill="#ff0099">
<circle cx=" 289" cy=" 111" r=" 1.5"/>
</g>
<path d="M300,254v -36" fill="none" stroke="#ff0099"/>
<path d="M300,216v -37" fill="none" stroke="#ff0099"/>
<path d="M295,217h 4" fill="none" stroke="#ff0099"/>
<path d="M302,217h 4" fill="none" stroke="#ff0099"/>
<g stroke="#ff0099" stroke-width="1" fill="#ff0099">
<circle cx=" 300" cy=" 217" r=" 1.5"/>
</g>
<path d="M312,323v -27" fill="none" stroke="#ff0099"/>
<path d="M312,294v -27" fill="none" stroke="#ff0099"/>
<path d="M306,295h 4" fill="none" stroke="#ff0099"/>
<path d="M313,295h 4" fill="none" stroke="#ff0099"/>
<g stroke="#ff0099" stroke-width="1" fill="#ff0099">
<circle cx=" 312" cy=" 295" r=" 1.5"/>
</g>
<path d="M323,275v -41" fill="none" stroke="#ff0099"/>
<path d="M323,232v -41" fill="none" stroke="#ff0099"/>
<path d="M317,233h 4" fill="none" stroke="#ff0099"/>
<path d="M324,233h 4" fill="none" stroke="#ff0099"/>
<g stroke="#ff0099" stroke-width="1" fill="#ff0099">
<circle cx=" 323" cy=" 233" r=" 1.5"/>
</g>
<path d="M334,338v -25" fill="none" stroke="#ff0099"/>
<path d="M334,311v -25" fill="none" stroke="#ff0099"/>
<path d="M328,312h 5" fill="none" stroke="#ff0099"/>
<path d="M335,312h 4" fill="none" stroke="#ff0099"/>
<g stroke="#ff0099" stroke-width="1" fill="#ff0099">
<circle cx=" 334" cy=" 312" r=" 1.5"/>
</g>
<path d="M345,321v -37" fill="none" stroke="#ff0099"/>
<path d="M345,281v -37" fill="none" stroke="#ff0099"/>
<path d="M339,282h 5" fill="none" stroke="#ff0099"/>
<path d="M346,282h 4" fill="none" stroke="#ff0099"/>
<g stroke="#ff0099" stroke-width="1" fill="#ff0099">
<circle cx=" 345" cy=" 282" r=" 1.5"/>
</g>
<path d="M356,337v -36" fill="none" stroke="#ff0099"/>
<path d="M356,298v -36" fill="none" stroke="#ff0099"/>
<path d="M350,299h 5" fill="none" stroke="#ff0099"/>
<path d="M357,299h 4" fill="none" stroke="#ff0099"/>
<g stroke="#ff0099" stroke-width="1" fill="#ff0099">
<circle cx=" 356" cy=" 299" r=" 1.5"/>
</g>
<path d="M367,413v -20" fill="none" stroke="#ff0099"/>
<path d="M367,391v -20" fill="none" stroke="#ff0099"/>
<path d="M361,392h 5" fill="none" stroke="#ff0099"/>
<path d="M368,392h 4" fill="none" stroke="#ff0099"/>
<g stroke="#ff0099" stroke-width="1" fill="#ff0099">
<circle cx=" 367" cy=" 392" r=" 1.5"/>
</g>
<path d="M378,402v -18" fill="none" stroke="#ff0099"/>
<path d="M378,382v -18" fill="none" stroke="#ff0099"/>
<path d="M372,383h 5" fill="none" stroke="#ff0099"/>
<path d="M379,383h 4" fill="none" stroke="#ff0099"/>
<g stroke="#ff0099" stroke-width="1" fill="#ff0099">
<circle cx=" 378" cy=" 383" r=" 1.5"/>
</g>
<path d="M389,421v -10" fill="none" stroke="#ff0099"/>
<path d="M389,409v -10" fill="none" stroke="#ff0099"/>
<path d="M383,410h 5" fill="none" stroke="#ff0099"/>
<path d="M390,410h 4" fill="none" stroke="#ff0099"/>
<g stroke="#ff0099" stroke-width="1" fill="#ff0099">
<circle cx=" 389" cy=" 410" r=" 1.5"/>
</g>
<path d="M400,417v -16" fill="none" stroke="#ff0099"/>
<path d="M400,399v -16" fill="none" stroke="#ff0099"/>
<path d="M394,400h 5" fill="none" stroke="#ff0099"/>
<path d="M401,400h 5" fill="none" stroke="#ff0099"/>
<g stroke="#ff0099" stroke-width="1" fill="#ff0099">
<circle cx=" 400" cy=" 400" r=" 1.5"/>
</g>
<path d="M411,438v -4" fill="none" stroke="#ff0099"/>
<path d="M411,432v -4" fill="none" stroke="#ff0099"/>
<path d="M406,433h 4" fill="none" stroke="#ff0099"/>
<path d="M412,433h 5" fill="none" stroke="#ff0099"/>
<g stroke="#ff0099" stroke-width="1" fill="#ff0099">
<circle cx=" 411" cy=" 433" r=" 1.5"/>
</g>
<path d="M422,430v -22" fill="none" stroke="#ff0099"/>
<path d="M422,406v -22" fill="none" stroke="#ff0099"/>
<path d="M417,407h 4" fill="none" stroke="#ff0099"/>
<path d="M423,407h 5" fill="none" stroke="#ff0099"/>
<g stroke="#ff0099" stroke-width="1" fill="#ff0099">
<circle cx=" 422" cy=" 407" r=" 1.5"/>
</g>
<path d="M433,443v -2" fill="none" stroke="#ff0099"/>
<path d="M433,439v -2" fill="none" stroke="#ff0099"/>
<path d="M428,440h 4" fill="none" stroke="#ff0099"/>
<path d="M434,440h 5" fill="none" stroke="#ff0099"/>
<g stroke="#ff0099" stroke-width="1" fill="#ff0099">
<circle cx=" 433" cy=" 440" r=" 1.5"/>
</g>
<path d="M444,442v -2" fill="none" stroke="#ff0099"/>
<path d="M444,438v -1" fill="none" stroke="#ff0099"/>
<path d="M439,439h 4" fill="none" stroke="#ff0099"/>
<path d="M445,439h 5" fill="none" stroke="#ff0099"/>
<g stroke="#ff0099" stroke-width="1" fill="#ff0099">
<circle cx=" 444" cy=" 439" r=" 1.5"/>
</g>
<path d="M450,445h 4" fill="none" stroke="#ff0099"/>
<path d="M456,445h 5" fill="none" stroke="#ff0099"/>
<g stroke="#ff0099" stroke-width="1" fill="#ff0099">
<circle cx=" 455" cy=" 445" r=" 1.5"/>
</g>
<path d="M461,445h 4" fill="none" stroke="#ff0099"/>
<path d="M468,445h 4" fill="none" stroke="#ff0099"/>
<g stroke="#ff0099" stroke-width="1" fill="#ff0099">
<circle cx=" 466" cy=" 445" r=" 1.5"/>
</g>
<path d="M472,445h 4" fill="none" stroke="#ff0099"/>
<path d="M479,445h 4" fill="none" stroke="#ff0099"/>
<g stroke="#ff0099" stroke-width="1" fill="#ff0099">
<circle cx=" 477" cy=" 445" r=" 1.5"/>
</g>
<path d="M489,445v -1" fill="none" stroke="#ff0099"/>
<path d="M489,442v -1" fill="none" stroke="#ff0099"/>
<path d="M483,443h 4" fill="none" stroke="#ff0099"/>
<path d="M490,443h 4" fill="none" stroke="#ff0099"/>
<g stroke="#ff0099" stroke-width="1" fill="#ff0099">
<circle cx=" 489" cy=" 443" r=" 1.5"/>
</g>
<path d="M494,445h 4" fill="none" stroke="#ff0099"/>
<path d="M501,445h 4" fill="none" stroke="#ff0099"/>
<g stroke="#ff0099" stroke-width="1" fill="#ff0099">
<circle cx=" 500" cy=" 445" r=" 1.5"/>
</g>
<path d="M516,446h 5" fill="none" stroke="#ff0099"/>
<path d="M523,446h 4" fill="none" stroke="#ff0099"/>
<g stroke="#ff0099" stroke-width="1" fill="#ff0099">
<circle cx=" 522" cy=" 446" r=" 1.5"/>
</g>
<rect x="357" y="59" width="142" height="99" fill="white"/>
<text x="360" y="82" fill="black" font-size="17" font-family="Helvetica" font-weight="bold">
EE
</text>
<text x="457" y="115" fill="black" font-size="17" font-family="Helvetica" font-weight="bold">
 ee
</text>
<text x="440" y="115" fill="black" font-size="17" font-family="Times">
&#8594;
</text>
<text x="392" y="115" fill="black" font-size="17" font-family="Helvetica" font-weight="bold">
MC Z 
</text>
<path d="M362,109h 25" fill="none" stroke="#ff0099"/>
<g stroke="#ff0099" stroke-width="1" fill="#ff0099">
<circle cx=" 375" cy=" 109" r=" 1.5"/>
</g>
<text x="455" y="147" fill="black" font-size="17" font-family="Helvetica" font-weight="bold">
 + jet
</text>
<text x="447" y="147" fill="black" font-size="17" font-family="Times">
&#0947;
</text>
<text x="392" y="147" fill="black" font-size="17" font-family="Helvetica" font-weight="bold">
signal 
</text>
<path d="M362,154h 25v -24h -25z" fill="#99ff99"/>
<path d="M362,130h 25" fill="none" stroke="#99ff99" stroke-width="2"/>
<path d="M362,154h 25" fill="none" stroke="#99ff99" stroke-width="2"/>
<path d="M387,154v -24" fill="none" stroke="#99ff99" stroke-width="2"/>
<path d="M362,154v -24" fill="none" stroke="#99ff99" stroke-width="2"/>
<text x="300" y="34" fill="black" font-size="17" font-family="Helvetica" font-weight="bold">
=8 TeV
</text>
<text x="291" y="34" fill="black" font-size="17" font-family="Helvetica" font-weight="bold">
s
</text>
<path d="M285,25l 2, 10" fill="none" stroke="black" stroke-width="2"/>
<path d="M287,35l 2, -14" fill="none" stroke="black"/>
<path d="M289,21h 11" fill="none" stroke="black"/>
<text x="142" y="34" fill="black" font-size="17" font-family="Helvetica" font-weight="bold">
CMS Preliminary 
</text></svg>
