<?xml version="1.0" standalone="no"?>
<svg width="567" height="496" viewBox="0 0 567 496" xmlns="http://www.w3.org/2000/svg">
<title>
../src/TagAndProbeZ/plots_mcZee_mcGJet_withEtaR9nvtxReweight/hlt90/nvtxAll.svg
</title>
<desc>
Creator: ROOT Version 5.32/00
CreationDate: Sun Sep 28 15:21:42 2014</desc>
<defs>
</defs>
<rect x="0" y="0" width="567" height="496" fill="white"/>
<rect x="74" y="44" width="453" height="402" fill="white"/>
<rect x="74" y="44" width="453" height="402" fill="none" stroke="black"/>
<rect x="74" y="44" width="453" height="402" fill="white"/>
<rect x="74" y="44" width="453" height="402" fill="none" stroke="black"/>
<path d="M85,428h 4" fill="none" stroke="#ff0099"/>
<path d="M91,428h 5" fill="none" stroke="#ff0099"/>
<g stroke="#ff0099" stroke-width="1" fill="#ff0099">
<circle cx=" 90" cy=" 428" r=" 1.5"/>
</g>
<path d="M96,428h 4" fill="none" stroke="#ff0099"/>
<path d="M102,428h 5" fill="none" stroke="#ff0099"/>
<g stroke="#ff0099" stroke-width="1" fill="#ff0099">
<circle cx=" 101" cy=" 428" r=" 1.5"/>
</g>
<path d="M112,423" fill="none" stroke="#ff0099"/>
<path d="M112,420" fill="none" stroke="#ff0099"/>
<path d="M107,421h 4" fill="none" stroke="#ff0099"/>
<path d="M114,421h 4" fill="none" stroke="#ff0099"/>
<g stroke="#ff0099" stroke-width="1" fill="#ff0099">
<circle cx=" 112" cy=" 421" r=" 1.5"/>
</g>
<path d="M123,416v -1" fill="none" stroke="#ff0099"/>
<path d="M123,412v -1" fill="none" stroke="#ff0099"/>
<path d="M118,413h 4" fill="none" stroke="#ff0099"/>
<path d="M125,413h 4" fill="none" stroke="#ff0099"/>
<g stroke="#ff0099" stroke-width="1" fill="#ff0099">
<circle cx=" 123" cy=" 413" r=" 1.5"/>
</g>
<path d="M135,396v -2" fill="none" stroke="#ff0099"/>
<path d="M135,392v -3" fill="none" stroke="#ff0099"/>
<path d="M129,393h 4" fill="none" stroke="#ff0099"/>
<path d="M136,393h 4" fill="none" stroke="#ff0099"/>
<g stroke="#ff0099" stroke-width="1" fill="#ff0099">
<circle cx=" 135" cy=" 393" r=" 1.5"/>
</g>
<path d="M146,369v -4" fill="none" stroke="#ff0099"/>
<path d="M146,363v -4" fill="none" stroke="#ff0099"/>
<path d="M140,364h 4" fill="none" stroke="#ff0099"/>
<path d="M147,364h 4" fill="none" stroke="#ff0099"/>
<g stroke="#ff0099" stroke-width="1" fill="#ff0099">
<circle cx=" 146" cy=" 364" r=" 1.5"/>
</g>
<path d="M157,352v -5" fill="none" stroke="#ff0099"/>
<path d="M157,345v -4" fill="none" stroke="#ff0099"/>
<path d="M151,346h 5" fill="none" stroke="#ff0099"/>
<path d="M158,346h 4" fill="none" stroke="#ff0099"/>
<g stroke="#ff0099" stroke-width="1" fill="#ff0099">
<circle cx=" 157" cy=" 346" r=" 1.5"/>
</g>
<path d="M168,313v -6" fill="none" stroke="#ff0099"/>
<path d="M168,305v -6" fill="none" stroke="#ff0099"/>
<path d="M162,306h 5" fill="none" stroke="#ff0099"/>
<path d="M169,306h 4" fill="none" stroke="#ff0099"/>
<g stroke="#ff0099" stroke-width="1" fill="#ff0099">
<circle cx=" 168" cy=" 306" r=" 1.5"/>
</g>
<path d="M179,245v -8" fill="none" stroke="#ff0099"/>
<path d="M179,234v -8" fill="none" stroke="#ff0099"/>
<path d="M173,235h 5" fill="none" stroke="#ff0099"/>
<path d="M180,235h 4" fill="none" stroke="#ff0099"/>
<g stroke="#ff0099" stroke-width="1" fill="#ff0099">
<circle cx=" 179" cy=" 235" r=" 1.5"/>
</g>
<path d="M190,225v -9" fill="none" stroke="#ff0099"/>
<path d="M190,214v -8" fill="none" stroke="#ff0099"/>
<path d="M184,215h 5" fill="none" stroke="#ff0099"/>
<path d="M191,215h 4" fill="none" stroke="#ff0099"/>
<g stroke="#ff0099" stroke-width="1" fill="#ff0099">
<circle cx=" 190" cy=" 215" r=" 1.5"/>
</g>
<path d="M201,185v -10" fill="none" stroke="#ff0099"/>
<path d="M201,173v -10" fill="none" stroke="#ff0099"/>
<path d="M195,174h 5" fill="none" stroke="#ff0099"/>
<path d="M202,174h 4" fill="none" stroke="#ff0099"/>
<g stroke="#ff0099" stroke-width="1" fill="#ff0099">
<circle cx=" 201" cy=" 174" r=" 1.5"/>
</g>
<path d="M212,147v -10" fill="none" stroke="#ff0099"/>
<path d="M212,135v -11" fill="none" stroke="#ff0099"/>
<path d="M206,136h 5" fill="none" stroke="#ff0099"/>
<path d="M213,136h 5" fill="none" stroke="#ff0099"/>
<g stroke="#ff0099" stroke-width="1" fill="#ff0099">
<circle cx=" 212" cy=" 136" r=" 1.5"/>
</g>
<path d="M223,135v -11" fill="none" stroke="#ff0099"/>
<path d="M223,122v -11" fill="none" stroke="#ff0099"/>
<path d="M218,123h 4" fill="none" stroke="#ff0099"/>
<path d="M224,123h 5" fill="none" stroke="#ff0099"/>
<g stroke="#ff0099" stroke-width="1" fill="#ff0099">
<circle cx=" 223" cy=" 123" r=" 1.5"/>
</g>
<path d="M234,130v -11" fill="none" stroke="#ff0099"/>
<path d="M234,117v -12" fill="none" stroke="#ff0099"/>
<path d="M229,118h 4" fill="none" stroke="#ff0099"/>
<path d="M235,118h 5" fill="none" stroke="#ff0099"/>
<g stroke="#ff0099" stroke-width="1" fill="#ff0099">
<circle cx=" 234" cy=" 118" r=" 1.5"/>
</g>
<path d="M245,122v -12" fill="none" stroke="#ff0099"/>
<path d="M245,108v -12" fill="none" stroke="#ff0099"/>
<path d="M240,109h 4" fill="none" stroke="#ff0099"/>
<path d="M246,109h 5" fill="none" stroke="#ff0099"/>
<g stroke="#ff0099" stroke-width="1" fill="#ff0099">
<circle cx=" 245" cy=" 109" r=" 1.5"/>
</g>
<path d="M256,132v -12" fill="none" stroke="#ff0099"/>
<path d="M256,118v -12" fill="none" stroke="#ff0099"/>
<path d="M251,119h 4" fill="none" stroke="#ff0099"/>
<path d="M257,119h 5" fill="none" stroke="#ff0099"/>
<g stroke="#ff0099" stroke-width="1" fill="#ff0099">
<circle cx=" 256" cy=" 119" r=" 1.5"/>
</g>
<path d="M267,91v -13" fill="none" stroke="#ff0099"/>
<path d="M267,76v -13" fill="none" stroke="#ff0099"/>
<path d="M262,77h 4" fill="none" stroke="#ff0099"/>
<path d="M268,77h 5" fill="none" stroke="#ff0099"/>
<g stroke="#ff0099" stroke-width="1" fill="#ff0099">
<circle cx=" 267" cy=" 77" r=" 1.5"/>
</g>
<path d="M278,145v -12" fill="none" stroke="#ff0099"/>
<path d="M278,131v -12" fill="none" stroke="#ff0099"/>
<path d="M273,132h 4" fill="none" stroke="#ff0099"/>
<path d="M279,132h 5" fill="none" stroke="#ff0099"/>
<g stroke="#ff0099" stroke-width="1" fill="#ff0099">
<circle cx=" 278" cy=" 132" r=" 1.5"/>
</g>
<path d="M289,154v -12" fill="none" stroke="#ff0099"/>
<path d="M289,140v -12" fill="none" stroke="#ff0099"/>
<path d="M284,141h 4" fill="none" stroke="#ff0099"/>
<path d="M291,141h 4" fill="none" stroke="#ff0099"/>
<g stroke="#ff0099" stroke-width="1" fill="#ff0099">
<circle cx=" 289" cy=" 141" r=" 1.5"/>
</g>
<path d="M300,218v -10" fill="none" stroke="#ff0099"/>
<path d="M300,206v -11" fill="none" stroke="#ff0099"/>
<path d="M295,207h 4" fill="none" stroke="#ff0099"/>
<path d="M302,207h 4" fill="none" stroke="#ff0099"/>
<g stroke="#ff0099" stroke-width="1" fill="#ff0099">
<circle cx=" 300" cy=" 207" r=" 1.5"/>
</g>
<path d="M312,247v -10" fill="none" stroke="#ff0099"/>
<path d="M312,235v -10" fill="none" stroke="#ff0099"/>
<path d="M306,236h 4" fill="none" stroke="#ff0099"/>
<path d="M313,236h 4" fill="none" stroke="#ff0099"/>
<g stroke="#ff0099" stroke-width="1" fill="#ff0099">
<circle cx=" 312" cy=" 236" r=" 1.5"/>
</g>
<path d="M323,267v -10" fill="none" stroke="#ff0099"/>
<path d="M323,255v -9" fill="none" stroke="#ff0099"/>
<path d="M317,256h 4" fill="none" stroke="#ff0099"/>
<path d="M324,256h 4" fill="none" stroke="#ff0099"/>
<g stroke="#ff0099" stroke-width="1" fill="#ff0099">
<circle cx=" 323" cy=" 256" r=" 1.5"/>
</g>
<path d="M334,280v -9" fill="none" stroke="#ff0099"/>
<path d="M334,269v -9" fill="none" stroke="#ff0099"/>
<path d="M328,270h 5" fill="none" stroke="#ff0099"/>
<path d="M335,270h 4" fill="none" stroke="#ff0099"/>
<g stroke="#ff0099" stroke-width="1" fill="#ff0099">
<circle cx=" 334" cy=" 270" r=" 1.5"/>
</g>
<path d="M345,327v -8" fill="none" stroke="#ff0099"/>
<path d="M345,317v -7" fill="none" stroke="#ff0099"/>
<path d="M339,318h 5" fill="none" stroke="#ff0099"/>
<path d="M346,318h 4" fill="none" stroke="#ff0099"/>
<g stroke="#ff0099" stroke-width="1" fill="#ff0099">
<circle cx=" 345" cy=" 318" r=" 1.5"/>
</g>
<path d="M356,328v -7" fill="none" stroke="#ff0099"/>
<path d="M356,319v -8" fill="none" stroke="#ff0099"/>
<path d="M350,320h 5" fill="none" stroke="#ff0099"/>
<path d="M357,320h 4" fill="none" stroke="#ff0099"/>
<g stroke="#ff0099" stroke-width="1" fill="#ff0099">
<circle cx=" 356" cy=" 320" r=" 1.5"/>
</g>
<path d="M367,352v -7" fill="none" stroke="#ff0099"/>
<path d="M367,343v -6" fill="none" stroke="#ff0099"/>
<path d="M361,344h 5" fill="none" stroke="#ff0099"/>
<path d="M368,344h 4" fill="none" stroke="#ff0099"/>
<g stroke="#ff0099" stroke-width="1" fill="#ff0099">
<circle cx=" 367" cy=" 344" r=" 1.5"/>
</g>
<path d="M378,370v -5" fill="none" stroke="#ff0099"/>
<path d="M378,362v -5" fill="none" stroke="#ff0099"/>
<path d="M372,364h 5" fill="none" stroke="#ff0099"/>
<path d="M379,364h 4" fill="none" stroke="#ff0099"/>
<g stroke="#ff0099" stroke-width="1" fill="#ff0099">
<circle cx=" 378" cy=" 364" r=" 1.5"/>
</g>
<path d="M389,373v -5" fill="none" stroke="#ff0099"/>
<path d="M389,366v -5" fill="none" stroke="#ff0099"/>
<path d="M383,367h 5" fill="none" stroke="#ff0099"/>
<path d="M390,367h 4" fill="none" stroke="#ff0099"/>
<g stroke="#ff0099" stroke-width="1" fill="#ff0099">
<circle cx=" 389" cy=" 367" r=" 1.5"/>
</g>
<path d="M400,389v -4" fill="none" stroke="#ff0099"/>
<path d="M400,382v -4" fill="none" stroke="#ff0099"/>
<path d="M394,384h 5" fill="none" stroke="#ff0099"/>
<path d="M401,384h 5" fill="none" stroke="#ff0099"/>
<g stroke="#ff0099" stroke-width="1" fill="#ff0099">
<circle cx=" 400" cy=" 384" r=" 1.5"/>
</g>
<path d="M411,408v -2" fill="none" stroke="#ff0099"/>
<path d="M411,404v -3" fill="none" stroke="#ff0099"/>
<path d="M406,405h 4" fill="none" stroke="#ff0099"/>
<path d="M412,405h 5" fill="none" stroke="#ff0099"/>
<g stroke="#ff0099" stroke-width="1" fill="#ff0099">
<circle cx=" 411" cy=" 405" r=" 1.5"/>
</g>
<path d="M422,414v -2" fill="none" stroke="#ff0099"/>
<path d="M422,410v -2" fill="none" stroke="#ff0099"/>
<path d="M417,411h 4" fill="none" stroke="#ff0099"/>
<path d="M423,411h 5" fill="none" stroke="#ff0099"/>
<g stroke="#ff0099" stroke-width="1" fill="#ff0099">
<circle cx=" 422" cy=" 411" r=" 1.5"/>
</g>
<path d="M433,418v -2" fill="none" stroke="#ff0099"/>
<path d="M433,414v -1" fill="none" stroke="#ff0099"/>
<path d="M428,415h 4" fill="none" stroke="#ff0099"/>
<path d="M434,415h 5" fill="none" stroke="#ff0099"/>
<g stroke="#ff0099" stroke-width="1" fill="#ff0099">
<circle cx=" 433" cy=" 415" r=" 1.5"/>
</g>
<path d="M444,418v -1" fill="none" stroke="#ff0099"/>
<path d="M444,414v -1" fill="none" stroke="#ff0099"/>
<path d="M439,415h 4" fill="none" stroke="#ff0099"/>
<path d="M445,415h 5" fill="none" stroke="#ff0099"/>
<g stroke="#ff0099" stroke-width="1" fill="#ff0099">
<circle cx=" 444" cy=" 415" r=" 1.5"/>
</g>
<path d="M455,422v -1" fill="none" stroke="#ff0099"/>
<path d="M455,419v -1" fill="none" stroke="#ff0099"/>
<path d="M450,420h 4" fill="none" stroke="#ff0099"/>
<path d="M456,420h 5" fill="none" stroke="#ff0099"/>
<g stroke="#ff0099" stroke-width="1" fill="#ff0099">
<circle cx=" 455" cy=" 420" r=" 1.5"/>
</g>
<path d="M466,424" fill="none" stroke="#ff0099"/>
<path d="M466,422v -1" fill="none" stroke="#ff0099"/>
<path d="M461,423h 4" fill="none" stroke="#ff0099"/>
<path d="M468,423h 4" fill="none" stroke="#ff0099"/>
<g stroke="#ff0099" stroke-width="1" fill="#ff0099">
<circle cx=" 466" cy=" 423" r=" 1.5"/>
</g>
<path d="M472,426h 4" fill="none" stroke="#ff0099"/>
<path d="M479,426h 4" fill="none" stroke="#ff0099"/>
<g stroke="#ff0099" stroke-width="1" fill="#ff0099">
<circle cx=" 477" cy=" 426" r=" 1.5"/>
</g>
<path d="M483,426h 4" fill="none" stroke="#ff0099"/>
<path d="M490,426h 4" fill="none" stroke="#ff0099"/>
<g stroke="#ff0099" stroke-width="1" fill="#ff0099">
<circle cx=" 489" cy=" 426" r=" 1.5"/>
</g>
<path d="M494,427h 4" fill="none" stroke="#ff0099"/>
<path d="M501,427h 4" fill="none" stroke="#ff0099"/>
<g stroke="#ff0099" stroke-width="1" fill="#ff0099">
<circle cx=" 500" cy=" 427" r=" 1.5"/>
</g>
<path d="M505,428h 5" fill="none" stroke="#ff0099"/>
<path d="M512,428h 4" fill="none" stroke="#ff0099"/>
<g stroke="#ff0099" stroke-width="1" fill="#ff0099">
<circle cx=" 511" cy=" 428" r=" 1.5"/>
</g>
<path d="M516,427h 5" fill="none" stroke="#ff0099"/>
<path d="M523,427h 4" fill="none" stroke="#ff0099"/>
<g stroke="#ff0099" stroke-width="1" fill="#ff0099">
<circle cx=" 522" cy=" 427" r=" 1.5"/>
</g>
<path d="M74,446h 453" fill="none" stroke="black"/>
<path d="M79,434v 12" fill="none" stroke="black"/>
<path d="M90,440v 6" fill="none" stroke="black"/>
<path d="M101,440v 6" fill="none" stroke="black"/>
<path d="M112,440v 6" fill="none" stroke="black"/>
<path d="M123,440v 6" fill="none" stroke="black"/>
<path d="M135,434v 12" fill="none" stroke="black"/>
<path d="M146,440v 6" fill="none" stroke="black"/>
<path d="M157,440v 6" fill="none" stroke="black"/>
<path d="M168,440v 6" fill="none" stroke="black"/>
<path d="M179,440v 6" fill="none" stroke="black"/>
<path d="M190,434v 12" fill="none" stroke="black"/>
<path d="M201,440v 6" fill="none" stroke="black"/>
<path d="M212,440v 6" fill="none" stroke="black"/>
<path d="M223,440v 6" fill="none" stroke="black"/>
<path d="M234,440v 6" fill="none" stroke="black"/>
<path d="M245,434v 12" fill="none" stroke="black"/>
<path d="M256,440v 6" fill="none" stroke="black"/>
<path d="M267,440v 6" fill="none" stroke="black"/>
<path d="M278,440v 6" fill="none" stroke="black"/>
<path d="M289,440v 6" fill="none" stroke="black"/>
<path d="M300,434v 12" fill="none" stroke="black"/>
<path d="M312,440v 6" fill="none" stroke="black"/>
<path d="M323,440v 6" fill="none" stroke="black"/>
<path d="M334,440v 6" fill="none" stroke="black"/>
<path d="M345,440v 6" fill="none" stroke="black"/>
<path d="M356,434v 12" fill="none" stroke="black"/>
<path d="M367,440v 6" fill="none" stroke="black"/>
<path d="M378,440v 6" fill="none" stroke="black"/>
<path d="M389,440v 6" fill="none" stroke="black"/>
<path d="M400,440v 6" fill="none" stroke="black"/>
<path d="M411,434v 12" fill="none" stroke="black"/>
<path d="M422,440v 6" fill="none" stroke="black"/>
<path d="M433,440v 6" fill="none" stroke="black"/>
<path d="M444,440v 6" fill="none" stroke="black"/>
<path d="M455,440v 6" fill="none" stroke="black"/>
<path d="M466,434v 12" fill="none" stroke="black"/>
<path d="M477,440v 6" fill="none" stroke="black"/>
<path d="M489,440v 6" fill="none" stroke="black"/>
<path d="M500,440v 6" fill="none" stroke="black"/>
<path d="M511,440v 6" fill="none" stroke="black"/>
<path d="M522,434v 12" fill="none" stroke="black"/>
<path d="M79,434v 12" fill="none" stroke="black"/>
<path d="M522,434v 12" fill="none" stroke="black"/>
<text x="74" y="465" fill="black" font-size="18" font-family="Helvetica" font-weight="bold">
0
</text>
<text x="129" y="465" fill="black" font-size="18" font-family="Helvetica" font-weight="bold">
5
</text>
<text x="179" y="465" fill="black" font-size="18" font-family="Helvetica" font-weight="bold">
10
</text>
<text x="235" y="465" fill="black" font-size="18" font-family="Helvetica" font-weight="bold">
15
</text>
<text x="290" y="465" fill="black" font-size="18" font-family="Helvetica" font-weight="bold">
20
</text>
<text x="346" y="465" fill="black" font-size="18" font-family="Helvetica" font-weight="bold">
25
</text>
<text x="401" y="465" fill="black" font-size="18" font-family="Helvetica" font-weight="bold">
30
</text>
<text x="456" y="465" fill="black" font-size="18" font-family="Helvetica" font-weight="bold">
35
</text>
<text x="511" y="465" fill="black" font-size="18" font-family="Helvetica" font-weight="bold">
40
</text>
<path d="M74,44h 453" fill="none" stroke="black"/>
<path d="M79,56v -12" fill="none" stroke="black"/>
<path d="M90,50v -6" fill="none" stroke="black"/>
<path d="M101,50v -6" fill="none" stroke="black"/>
<path d="M112,50v -6" fill="none" stroke="black"/>
<path d="M123,50v -6" fill="none" stroke="black"/>
<path d="M135,56v -12" fill="none" stroke="black"/>
<path d="M146,50v -6" fill="none" stroke="black"/>
<path d="M157,50v -6" fill="none" stroke="black"/>
<path d="M168,50v -6" fill="none" stroke="black"/>
<path d="M179,50v -6" fill="none" stroke="black"/>
<path d="M190,56v -12" fill="none" stroke="black"/>
<path d="M201,50v -6" fill="none" stroke="black"/>
<path d="M212,50v -6" fill="none" stroke="black"/>
<path d="M223,50v -6" fill="none" stroke="black"/>
<path d="M234,50v -6" fill="none" stroke="black"/>
<path d="M245,56v -12" fill="none" stroke="black"/>
<path d="M256,50v -6" fill="none" stroke="black"/>
<path d="M267,50v -6" fill="none" stroke="black"/>
<path d="M278,50v -6" fill="none" stroke="black"/>
<path d="M289,50v -6" fill="none" stroke="black"/>
<path d="M300,56v -12" fill="none" stroke="black"/>
<path d="M312,50v -6" fill="none" stroke="black"/>
<path d="M323,50v -6" fill="none" stroke="black"/>
<path d="M334,50v -6" fill="none" stroke="black"/>
<path d="M345,50v -6" fill="none" stroke="black"/>
<path d="M356,56v -12" fill="none" stroke="black"/>
<path d="M367,50v -6" fill="none" stroke="black"/>
<path d="M378,50v -6" fill="none" stroke="black"/>
<path d="M389,50v -6" fill="none" stroke="black"/>
<path d="M400,50v -6" fill="none" stroke="black"/>
<path d="M411,56v -12" fill="none" stroke="black"/>
<path d="M422,50v -6" fill="none" stroke="black"/>
<path d="M433,50v -6" fill="none" stroke="black"/>
<path d="M444,50v -6" fill="none" stroke="black"/>
<path d="M455,50v -6" fill="none" stroke="black"/>
<path d="M466,56v -12" fill="none" stroke="black"/>
<path d="M477,50v -6" fill="none" stroke="black"/>
<path d="M489,50v -6" fill="none" stroke="black"/>
<path d="M500,50v -6" fill="none" stroke="black"/>
<path d="M511,50v -6" fill="none" stroke="black"/>
<path d="M522,56v -12" fill="none" stroke="black"/>
<path d="M79,56v -12" fill="none" stroke="black"/>
<path d="M522,56v -12" fill="none" stroke="black"/>
<path d="M74,446v -402" fill="none" stroke="black"/>
<path d="M87,428h -13" fill="none" stroke="black"/>
<path d="M81,419h -7" fill="none" stroke="black"/>
<path d="M81,409h -7" fill="none" stroke="black"/>
<path d="M81,400h -7" fill="none" stroke="black"/>
<path d="M81,390h -7" fill="none" stroke="black"/>
<path d="M87,381h -13" fill="none" stroke="black"/>
<path d="M81,371h -7" fill="none" stroke="black"/>
<path d="M81,361h -7" fill="none" stroke="black"/>
<path d="M81,352h -7" fill="none" stroke="black"/>
<path d="M81,342h -7" fill="none" stroke="black"/>
<path d="M87,333h -13" fill="none" stroke="black"/>
<path d="M81,323h -7" fill="none" stroke="black"/>
<path d="M81,314h -7" fill="none" stroke="black"/>
<path d="M81,304h -7" fill="none" stroke="black"/>
<path d="M81,295h -7" fill="none" stroke="black"/>
<path d="M87,285h -13" fill="none" stroke="black"/>
<path d="M81,276h -7" fill="none" stroke="black"/>
<path d="M81,266h -7" fill="none" stroke="black"/>
<path d="M81,257h -7" fill="none" stroke="black"/>
<path d="M81,247h -7" fill="none" stroke="black"/>
<path d="M87,238h -13" fill="none" stroke="black"/>
<path d="M81,228h -7" fill="none" stroke="black"/>
<path d="M81,219h -7" fill="none" stroke="black"/>
<path d="M81,209h -7" fill="none" stroke="black"/>
<path d="M81,200h -7" fill="none" stroke="black"/>
<path d="M87,190h -13" fill="none" stroke="black"/>
<path d="M81,181h -7" fill="none" stroke="black"/>
<path d="M81,171h -7" fill="none" stroke="black"/>
<path d="M81,162h -7" fill="none" stroke="black"/>
<path d="M81,152h -7" fill="none" stroke="black"/>
<path d="M87,143h -13" fill="none" stroke="black"/>
<path d="M81,133h -7" fill="none" stroke="black"/>
<path d="M81,124h -7" fill="none" stroke="black"/>
<path d="M81,114h -7" fill="none" stroke="black"/>
<path d="M81,104h -7" fill="none" stroke="black"/>
<path d="M87,95h -13" fill="none" stroke="black"/>
<path d="M81,85h -7" fill="none" stroke="black"/>
<path d="M81,76h -7" fill="none" stroke="black"/>
<path d="M81,66h -7" fill="none" stroke="black"/>
<path d="M81,57h -7" fill="none" stroke="black"/>
<path d="M87,47h -13" fill="none" stroke="black"/>
<path d="M87,428h -13" fill="none" stroke="black"/>
<path d="M81,438h -7" fill="none" stroke="black"/>
<path d="M87,47h -13" fill="none" stroke="black"/>
<text x="61" y="435" fill="black" font-size="18" font-family="Helvetica" font-weight="bold">
0
</text>
<text x="37" y="387" fill="black" font-size="18" font-family="Helvetica" font-weight="bold">
0.01
</text>
<text x="35" y="339" fill="black" font-size="18" font-family="Helvetica" font-weight="bold">
0.02
</text>
<text x="35" y="292" fill="black" font-size="18" font-family="Helvetica" font-weight="bold">
0.03
</text>
<text x="34" y="244" fill="black" font-size="18" font-family="Helvetica" font-weight="bold">
0.04
</text>
<text x="34" y="197" fill="black" font-size="18" font-family="Helvetica" font-weight="bold">
0.05
</text>
<text x="34" y="149" fill="black" font-size="18" font-family="Helvetica" font-weight="bold">
0.06
</text>
<text x="35" y="102" fill="black" font-size="18" font-family="Helvetica" font-weight="bold">
0.07
</text>
<text x="35" y="54" fill="black" font-size="18" font-family="Helvetica" font-weight="bold">
0.08
</text>
<path d="M90,428" fill="none" stroke="#99ff99" stroke-width="2"/>
<path d="M90,428" fill="none" stroke="#99ff99" stroke-width="2"/>
<g stroke="black" stroke-width="2" fill="none">
<line x1="89" y1="428" x2="90" y2="428"/>
</g>
<path d="M101,426" fill="none" stroke="#99ff99" stroke-width="2"/>
<path d="M101,426" fill="none" stroke="#99ff99" stroke-width="2"/>
<g stroke="black" stroke-width="2" fill="none">
<line x1="100" y1="426" x2="101" y2="426"/>
</g>
<path d="M112,422v -1" fill="none" stroke="#99ff99" stroke-width="2"/>
<path d="M112,421" fill="none" stroke="#99ff99" stroke-width="2"/>
<g stroke="black" stroke-width="2" fill="none">
<line x1="111" y1="421" x2="112" y2="421"/>
</g>
<path d="M123,411" fill="none" stroke="#99ff99" stroke-width="2"/>
<path d="M123,411v -1" fill="none" stroke="#99ff99" stroke-width="2"/>
<g stroke="black" stroke-width="2" fill="none">
<line x1="122" y1="411" x2="123" y2="411"/>
</g>
<path d="M135,390v -1" fill="none" stroke="#99ff99" stroke-width="2"/>
<path d="M135,389" fill="none" stroke="#99ff99" stroke-width="2"/>
<g stroke="black" stroke-width="2" fill="none">
<line x1="134" y1="389" x2="135" y2="389"/>
</g>
<path d="M146,363v -1" fill="none" stroke="#99ff99" stroke-width="2"/>
<path d="M146,362v -2" fill="none" stroke="#99ff99" stroke-width="2"/>
<g stroke="black" stroke-width="2" fill="none">
<line x1="145" y1="362" x2="146" y2="362"/>
</g>
<path d="M157,323v -2" fill="none" stroke="#99ff99" stroke-width="2"/>
<path d="M157,321v -1" fill="none" stroke="#99ff99" stroke-width="2"/>
<g stroke="black" stroke-width="2" fill="none">
<line x1="156" y1="321" x2="157" y2="321"/>
</g>
<path d="M168,271v -6" fill="none" stroke="#99ff99" stroke-width="2"/>
<path d="M168,265v -6" fill="none" stroke="#99ff99" stroke-width="2"/>
<g stroke="black" stroke-width="2" fill="none">
<line x1="167" y1="265" x2="168" y2="265"/>
</g>
<path d="M179,227v -2" fill="none" stroke="#99ff99" stroke-width="2"/>
<path d="M179,225v -3" fill="none" stroke="#99ff99" stroke-width="2"/>
<g stroke="black" stroke-width="2" fill="none">
<line x1="178" y1="225" x2="179" y2="225"/>
</g>
<path d="M190,191v -3" fill="none" stroke="#99ff99" stroke-width="2"/>
<path d="M190,188v -2" fill="none" stroke="#99ff99" stroke-width="2"/>
<g stroke="black" stroke-width="2" fill="none">
<line x1="189" y1="188" x2="190" y2="188"/>
</g>
<path d="M201,151v -3" fill="none" stroke="#99ff99" stroke-width="2"/>
<path d="M201,148v -3" fill="none" stroke="#99ff99" stroke-width="2"/>
<g stroke="black" stroke-width="2" fill="none">
<line x1="200" y1="148" x2="201" y2="148"/>
</g>
<path d="M212,117v -3" fill="none" stroke="#99ff99" stroke-width="2"/>
<path d="M212,114v -2" fill="none" stroke="#99ff99" stroke-width="2"/>
<g stroke="black" stroke-width="2" fill="none">
<line x1="211" y1="114" x2="212" y2="114"/>
</g>
<path d="M223,109v -3" fill="none" stroke="#99ff99" stroke-width="2"/>
<path d="M223,106v -3" fill="none" stroke="#99ff99" stroke-width="2"/>
<g stroke="black" stroke-width="2" fill="none">
<line x1="222" y1="106" x2="223" y2="106"/>
</g>
<path d="M234,99v -3" fill="none" stroke="#99ff99" stroke-width="2"/>
<path d="M234,96v -3" fill="none" stroke="#99ff99" stroke-width="2"/>
<g stroke="black" stroke-width="2" fill="none">
<line x1="233" y1="96" x2="234" y2="96"/>
</g>
<path d="M245,97v -3" fill="none" stroke="#99ff99" stroke-width="2"/>
<path d="M245,94v -3" fill="none" stroke="#99ff99" stroke-width="2"/>
<g stroke="black" stroke-width="2" fill="none">
<line x1="244" y1="94" x2="245" y2="94"/>
</g>
<path d="M256,105v -3" fill="none" stroke="#99ff99" stroke-width="2"/>
<path d="M256,102v -2" fill="none" stroke="#99ff99" stroke-width="2"/>
<g stroke="black" stroke-width="2" fill="none">
<line x1="255" y1="102" x2="256" y2="102"/>
</g>
<path d="M267,126v -2" fill="none" stroke="#99ff99" stroke-width="2"/>
<path d="M267,124v -3" fill="none" stroke="#99ff99" stroke-width="2"/>
<g stroke="black" stroke-width="2" fill="none">
<line x1="266" y1="124" x2="267" y2="124"/>
</g>
<path d="M278,148v -3" fill="none" stroke="#99ff99" stroke-width="2"/>
<path d="M278,145v -3" fill="none" stroke="#99ff99" stroke-width="2"/>
<g stroke="black" stroke-width="2" fill="none">
<line x1="277" y1="145" x2="278" y2="145"/>
</g>
<path d="M289,173v -3" fill="none" stroke="#99ff99" stroke-width="2"/>
<path d="M289,170v -2" fill="none" stroke="#99ff99" stroke-width="2"/>
<g stroke="black" stroke-width="2" fill="none">
<line x1="288" y1="170" x2="289" y2="170"/>
</g>
<path d="M300,203v -3" fill="none" stroke="#99ff99" stroke-width="2"/>
<path d="M300,200v -4" fill="none" stroke="#99ff99" stroke-width="2"/>
<g stroke="black" stroke-width="2" fill="none">
<line x1="299" y1="200" x2="300" y2="200"/>
</g>
<path d="M312,233v -4" fill="none" stroke="#99ff99" stroke-width="2"/>
<path d="M312,229v -4" fill="none" stroke="#99ff99" stroke-width="2"/>
<g stroke="black" stroke-width="2" fill="none">
<line x1="311" y1="229" x2="312" y2="229"/>
</g>
<path d="M323,266v -4" fill="none" stroke="#99ff99" stroke-width="2"/>
<path d="M323,262v -3" fill="none" stroke="#99ff99" stroke-width="2"/>
<g stroke="black" stroke-width="2" fill="none">
<line x1="322" y1="262" x2="323" y2="262"/>
</g>
<path d="M334,293v -1" fill="none" stroke="#99ff99" stroke-width="2"/>
<path d="M334,292v -2" fill="none" stroke="#99ff99" stroke-width="2"/>
<g stroke="black" stroke-width="2" fill="none">
<line x1="333" y1="292" x2="334" y2="292"/>
</g>
<path d="M345,321v -4" fill="none" stroke="#99ff99" stroke-width="2"/>
<path d="M345,317v -3" fill="none" stroke="#99ff99" stroke-width="2"/>
<g stroke="black" stroke-width="2" fill="none">
<line x1="344" y1="317" x2="345" y2="317"/>
</g>
<path d="M356,344v -3" fill="none" stroke="#99ff99" stroke-width="2"/>
<path d="M356,341v -3" fill="none" stroke="#99ff99" stroke-width="2"/>
<g stroke="black" stroke-width="2" fill="none">
<line x1="355" y1="341" x2="356" y2="341"/>
</g>
<path d="M367,366v -1" fill="none" stroke="#99ff99" stroke-width="2"/>
<path d="M367,365v -1" fill="none" stroke="#99ff99" stroke-width="2"/>
<g stroke="black" stroke-width="2" fill="none">
<line x1="366" y1="365" x2="367" y2="365"/>
</g>
<path d="M378,379v -1" fill="none" stroke="#99ff99" stroke-width="2"/>
<path d="M378,378v -1" fill="none" stroke="#99ff99" stroke-width="2"/>
<g stroke="black" stroke-width="2" fill="none">
<line x1="377" y1="378" x2="378" y2="378"/>
</g>
<path d="M389,393v -1" fill="none" stroke="#99ff99" stroke-width="2"/>
<path d="M389,392v -1" fill="none" stroke="#99ff99" stroke-width="2"/>
<g stroke="black" stroke-width="2" fill="none">
<line x1="388" y1="392" x2="389" y2="392"/>
</g>
<path d="M400,403v -1" fill="none" stroke="#99ff99" stroke-width="2"/>
<path d="M400,402v -1" fill="none" stroke="#99ff99" stroke-width="2"/>
<g stroke="black" stroke-width="2" fill="none">
<line x1="399" y1="402" x2="400" y2="402"/>
</g>
<path d="M411,409" fill="none" stroke="#99ff99" stroke-width="2"/>
<path d="M411,409v -1" fill="none" stroke="#99ff99" stroke-width="2"/>
<g stroke="black" stroke-width="2" fill="none">
<line x1="410" y1="409" x2="411" y2="409"/>
</g>
<path d="M422,416v -1" fill="none" stroke="#99ff99" stroke-width="2"/>
<path d="M422,415" fill="none" stroke="#99ff99" stroke-width="2"/>
<g stroke="black" stroke-width="2" fill="none">
<line x1="421" y1="415" x2="422" y2="415"/>
</g>
<path d="M433,420v -1" fill="none" stroke="#99ff99" stroke-width="2"/>
<path d="M433,419" fill="none" stroke="#99ff99" stroke-width="2"/>
<g stroke="black" stroke-width="2" fill="none">
<line x1="432" y1="419" x2="433" y2="419"/>
</g>
<path d="M444,422" fill="none" stroke="#99ff99" stroke-width="2"/>
<path d="M444,422" fill="none" stroke="#99ff99" stroke-width="2"/>
<g stroke="black" stroke-width="2" fill="none">
<line x1="443" y1="422" x2="444" y2="422"/>
</g>
<path d="M455,424" fill="none" stroke="#99ff99" stroke-width="2"/>
<path d="M455,424" fill="none" stroke="#99ff99" stroke-width="2"/>
<g stroke="black" stroke-width="2" fill="none">
<line x1="454" y1="424" x2="455" y2="424"/>
</g>
<path d="M466,426v -1" fill="none" stroke="#99ff99" stroke-width="2"/>
<path d="M466,425" fill="none" stroke="#99ff99" stroke-width="2"/>
<g stroke="black" stroke-width="2" fill="none">
<line x1="465" y1="425" x2="466" y2="425"/>
</g>
<path d="M477,427" fill="none" stroke="#99ff99" stroke-width="2"/>
<path d="M477,427" fill="none" stroke="#99ff99" stroke-width="2"/>
<g stroke="black" stroke-width="2" fill="none">
<line x1="476" y1="427" x2="477" y2="427"/>
</g>
<path d="M489,427" fill="none" stroke="#99ff99" stroke-width="2"/>
<path d="M489,427" fill="none" stroke="#99ff99" stroke-width="2"/>
<g stroke="black" stroke-width="2" fill="none">
<line x1="488" y1="427" x2="489" y2="427"/>
</g>
<path d="M500,427" fill="none" stroke="#99ff99" stroke-width="2"/>
<path d="M500,427" fill="none" stroke="#99ff99" stroke-width="2"/>
<g stroke="black" stroke-width="2" fill="none">
<line x1="499" y1="427" x2="500" y2="427"/>
</g>
<path d="M511,428" fill="none" stroke="#99ff99" stroke-width="2"/>
<path d="M511,428" fill="none" stroke="#99ff99" stroke-width="2"/>
<g stroke="black" stroke-width="2" fill="none">
<line x1="510" y1="428" x2="511" y2="428"/>
</g>
<path d="M522,428" fill="none" stroke="#99ff99" stroke-width="2"/>
<path d="M522,428" fill="none" stroke="#99ff99" stroke-width="2"/>
<g stroke="black" stroke-width="2" fill="none">
<line x1="521" y1="428" x2="522" y2="428"/>
</g>
<path d="M74,428h 22v -2h 11v -5h 11v -10h 11v -22h 11v -27h 11v -41h 11v -56h 11v -40h 11v -37h 11v -40h 11v -34h 12v -8h 11v -10h 11v -2h 11v 8h 11v 22h 11v 21h 11v 25h 11v 30h 11v 29h 11v 33h 11v 30h 11v 25h 11v 24h 11v 24h 11v 13h 11v 14h 11v 10h
 12v 7h 11v 6h 11v 4h 11v 3h 11v 2h 11v 1h 11v 2h 33v 1h 22z" fill="#99ff99"/>
<path d="M74,428h 22v -2h 11v -5h 11v -10h 11v -22h 11v -27h 11v -41h 11v -56h 11v -40h 11v -37h 11v -40h 11v -34h 12v -8h 11v -10h 11v -2h 11v 8h 11v 22h 11v 21h 11v 25h 11v 30h 11v 29h 11v 33h 11v 30h 11v 25h 11v 24h 11v 24h 11v 13h 11v 14h 11v 10h
 12v 7h 11v 6h 11v 4h 11v 3h 11v 2h 11v 1h 11v 2h 33v 1h 22" fill="none" stroke="#99ff99" stroke-width="2"/>
<path d="M85,428h 4" fill="none" stroke="#ff0099"/>
<path d="M91,428h 5" fill="none" stroke="#ff0099"/>
<g stroke="#ff0099" stroke-width="1" fill="#ff0099">
<circle cx=" 90" cy=" 428" r=" 1.5"/>
</g>
<path d="M96,428h 4" fill="none" stroke="#ff0099"/>
<path d="M102,428h 5" fill="none" stroke="#ff0099"/>
<g stroke="#ff0099" stroke-width="1" fill="#ff0099">
<circle cx=" 101" cy=" 428" r=" 1.5"/>
</g>
<path d="M112,423" fill="none" stroke="#ff0099"/>
<path d="M112,420" fill="none" stroke="#ff0099"/>
<path d="M107,421h 4" fill="none" stroke="#ff0099"/>
<path d="M114,421h 4" fill="none" stroke="#ff0099"/>
<g stroke="#ff0099" stroke-width="1" fill="#ff0099">
<circle cx=" 112" cy=" 421" r=" 1.5"/>
</g>
<path d="M123,416v -1" fill="none" stroke="#ff0099"/>
<path d="M123,412v -1" fill="none" stroke="#ff0099"/>
<path d="M118,413h 4" fill="none" stroke="#ff0099"/>
<path d="M125,413h 4" fill="none" stroke="#ff0099"/>
<g stroke="#ff0099" stroke-width="1" fill="#ff0099">
<circle cx=" 123" cy=" 413" r=" 1.5"/>
</g>
<path d="M135,396v -2" fill="none" stroke="#ff0099"/>
<path d="M135,392v -3" fill="none" stroke="#ff0099"/>
<path d="M129,393h 4" fill="none" stroke="#ff0099"/>
<path d="M136,393h 4" fill="none" stroke="#ff0099"/>
<g stroke="#ff0099" stroke-width="1" fill="#ff0099">
<circle cx=" 135" cy=" 393" r=" 1.5"/>
</g>
<path d="M146,369v -4" fill="none" stroke="#ff0099"/>
<path d="M146,363v -4" fill="none" stroke="#ff0099"/>
<path d="M140,364h 4" fill="none" stroke="#ff0099"/>
<path d="M147,364h 4" fill="none" stroke="#ff0099"/>
<g stroke="#ff0099" stroke-width="1" fill="#ff0099">
<circle cx=" 146" cy=" 364" r=" 1.5"/>
</g>
<path d="M157,352v -5" fill="none" stroke="#ff0099"/>
<path d="M157,345v -4" fill="none" stroke="#ff0099"/>
<path d="M151,346h 5" fill="none" stroke="#ff0099"/>
<path d="M158,346h 4" fill="none" stroke="#ff0099"/>
<g stroke="#ff0099" stroke-width="1" fill="#ff0099">
<circle cx=" 157" cy=" 346" r=" 1.5"/>
</g>
<path d="M168,313v -6" fill="none" stroke="#ff0099"/>
<path d="M168,305v -6" fill="none" stroke="#ff0099"/>
<path d="M162,306h 5" fill="none" stroke="#ff0099"/>
<path d="M169,306h 4" fill="none" stroke="#ff0099"/>
<g stroke="#ff0099" stroke-width="1" fill="#ff0099">
<circle cx=" 168" cy=" 306" r=" 1.5"/>
</g>
<path d="M179,245v -8" fill="none" stroke="#ff0099"/>
<path d="M179,234v -8" fill="none" stroke="#ff0099"/>
<path d="M173,235h 5" fill="none" stroke="#ff0099"/>
<path d="M180,235h 4" fill="none" stroke="#ff0099"/>
<g stroke="#ff0099" stroke-width="1" fill="#ff0099">
<circle cx=" 179" cy=" 235" r=" 1.5"/>
</g>
<path d="M190,225v -9" fill="none" stroke="#ff0099"/>
<path d="M190,214v -8" fill="none" stroke="#ff0099"/>
<path d="M184,215h 5" fill="none" stroke="#ff0099"/>
<path d="M191,215h 4" fill="none" stroke="#ff0099"/>
<g stroke="#ff0099" stroke-width="1" fill="#ff0099">
<circle cx=" 190" cy=" 215" r=" 1.5"/>
</g>
<path d="M201,185v -10" fill="none" stroke="#ff0099"/>
<path d="M201,173v -10" fill="none" stroke="#ff0099"/>
<path d="M195,174h 5" fill="none" stroke="#ff0099"/>
<path d="M202,174h 4" fill="none" stroke="#ff0099"/>
<g stroke="#ff0099" stroke-width="1" fill="#ff0099">
<circle cx=" 201" cy=" 174" r=" 1.5"/>
</g>
<path d="M212,147v -10" fill="none" stroke="#ff0099"/>
<path d="M212,135v -11" fill="none" stroke="#ff0099"/>
<path d="M206,136h 5" fill="none" stroke="#ff0099"/>
<path d="M213,136h 5" fill="none" stroke="#ff0099"/>
<g stroke="#ff0099" stroke-width="1" fill="#ff0099">
<circle cx=" 212" cy=" 136" r=" 1.5"/>
</g>
<path d="M223,135v -11" fill="none" stroke="#ff0099"/>
<path d="M223,122v -11" fill="none" stroke="#ff0099"/>
<path d="M218,123h 4" fill="none" stroke="#ff0099"/>
<path d="M224,123h 5" fill="none" stroke="#ff0099"/>
<g stroke="#ff0099" stroke-width="1" fill="#ff0099">
<circle cx=" 223" cy=" 123" r=" 1.5"/>
</g>
<path d="M234,130v -11" fill="none" stroke="#ff0099"/>
<path d="M234,117v -12" fill="none" stroke="#ff0099"/>
<path d="M229,118h 4" fill="none" stroke="#ff0099"/>
<path d="M235,118h 5" fill="none" stroke="#ff0099"/>
<g stroke="#ff0099" stroke-width="1" fill="#ff0099">
<circle cx=" 234" cy=" 118" r=" 1.5"/>
</g>
<path d="M245,122v -12" fill="none" stroke="#ff0099"/>
<path d="M245,108v -12" fill="none" stroke="#ff0099"/>
<path d="M240,109h 4" fill="none" stroke="#ff0099"/>
<path d="M246,109h 5" fill="none" stroke="#ff0099"/>
<g stroke="#ff0099" stroke-width="1" fill="#ff0099">
<circle cx=" 245" cy=" 109" r=" 1.5"/>
</g>
<path d="M256,132v -12" fill="none" stroke="#ff0099"/>
<path d="M256,118v -12" fill="none" stroke="#ff0099"/>
<path d="M251,119h 4" fill="none" stroke="#ff0099"/>
<path d="M257,119h 5" fill="none" stroke="#ff0099"/>
<g stroke="#ff0099" stroke-width="1" fill="#ff0099">
<circle cx=" 256" cy=" 119" r=" 1.5"/>
</g>
<path d="M267,91v -13" fill="none" stroke="#ff0099"/>
<path d="M267,76v -13" fill="none" stroke="#ff0099"/>
<path d="M262,77h 4" fill="none" stroke="#ff0099"/>
<path d="M268,77h 5" fill="none" stroke="#ff0099"/>
<g stroke="#ff0099" stroke-width="1" fill="#ff0099">
<circle cx=" 267" cy=" 77" r=" 1.5"/>
</g>
<path d="M278,145v -12" fill="none" stroke="#ff0099"/>
<path d="M278,131v -12" fill="none" stroke="#ff0099"/>
<path d="M273,132h 4" fill="none" stroke="#ff0099"/>
<path d="M279,132h 5" fill="none" stroke="#ff0099"/>
<g stroke="#ff0099" stroke-width="1" fill="#ff0099">
<circle cx=" 278" cy=" 132" r=" 1.5"/>
</g>
<path d="M289,154v -12" fill="none" stroke="#ff0099"/>
<path d="M289,140v -12" fill="none" stroke="#ff0099"/>
<path d="M284,141h 4" fill="none" stroke="#ff0099"/>
<path d="M291,141h 4" fill="none" stroke="#ff0099"/>
<g stroke="#ff0099" stroke-width="1" fill="#ff0099">
<circle cx=" 289" cy=" 141" r=" 1.5"/>
</g>
<path d="M300,218v -10" fill="none" stroke="#ff0099"/>
<path d="M300,206v -11" fill="none" stroke="#ff0099"/>
<path d="M295,207h 4" fill="none" stroke="#ff0099"/>
<path d="M302,207h 4" fill="none" stroke="#ff0099"/>
<g stroke="#ff0099" stroke-width="1" fill="#ff0099">
<circle cx=" 300" cy=" 207" r=" 1.5"/>
</g>
<path d="M312,247v -10" fill="none" stroke="#ff0099"/>
<path d="M312,235v -10" fill="none" stroke="#ff0099"/>
<path d="M306,236h 4" fill="none" stroke="#ff0099"/>
<path d="M313,236h 4" fill="none" stroke="#ff0099"/>
<g stroke="#ff0099" stroke-width="1" fill="#ff0099">
<circle cx=" 312" cy=" 236" r=" 1.5"/>
</g>
<path d="M323,267v -10" fill="none" stroke="#ff0099"/>
<path d="M323,255v -9" fill="none" stroke="#ff0099"/>
<path d="M317,256h 4" fill="none" stroke="#ff0099"/>
<path d="M324,256h 4" fill="none" stroke="#ff0099"/>
<g stroke="#ff0099" stroke-width="1" fill="#ff0099">
<circle cx=" 323" cy=" 256" r=" 1.5"/>
</g>
<path d="M334,280v -9" fill="none" stroke="#ff0099"/>
<path d="M334,269v -9" fill="none" stroke="#ff0099"/>
<path d="M328,270h 5" fill="none" stroke="#ff0099"/>
<path d="M335,270h 4" fill="none" stroke="#ff0099"/>
<g stroke="#ff0099" stroke-width="1" fill="#ff0099">
<circle cx=" 334" cy=" 270" r=" 1.5"/>
</g>
<path d="M345,327v -8" fill="none" stroke="#ff0099"/>
<path d="M345,317v -7" fill="none" stroke="#ff0099"/>
<path d="M339,318h 5" fill="none" stroke="#ff0099"/>
<path d="M346,318h 4" fill="none" stroke="#ff0099"/>
<g stroke="#ff0099" stroke-width="1" fill="#ff0099">
<circle cx=" 345" cy=" 318" r=" 1.5"/>
</g>
<path d="M356,328v -7" fill="none" stroke="#ff0099"/>
<path d="M356,319v -8" fill="none" stroke="#ff0099"/>
<path d="M350,320h 5" fill="none" stroke="#ff0099"/>
<path d="M357,320h 4" fill="none" stroke="#ff0099"/>
<g stroke="#ff0099" stroke-width="1" fill="#ff0099">
<circle cx=" 356" cy=" 320" r=" 1.5"/>
</g>
<path d="M367,352v -7" fill="none" stroke="#ff0099"/>
<path d="M367,343v -6" fill="none" stroke="#ff0099"/>
<path d="M361,344h 5" fill="none" stroke="#ff0099"/>
<path d="M368,344h 4" fill="none" stroke="#ff0099"/>
<g stroke="#ff0099" stroke-width="1" fill="#ff0099">
<circle cx=" 367" cy=" 344" r=" 1.5"/>
</g>
<path d="M378,370v -5" fill="none" stroke="#ff0099"/>
<path d="M378,362v -5" fill="none" stroke="#ff0099"/>
<path d="M372,364h 5" fill="none" stroke="#ff0099"/>
<path d="M379,364h 4" fill="none" stroke="#ff0099"/>
<g stroke="#ff0099" stroke-width="1" fill="#ff0099">
<circle cx=" 378" cy=" 364" r=" 1.5"/>
</g>
<path d="M389,373v -5" fill="none" stroke="#ff0099"/>
<path d="M389,366v -5" fill="none" stroke="#ff0099"/>
<path d="M383,367h 5" fill="none" stroke="#ff0099"/>
<path d="M390,367h 4" fill="none" stroke="#ff0099"/>
<g stroke="#ff0099" stroke-width="1" fill="#ff0099">
<circle cx=" 389" cy=" 367" r=" 1.5"/>
</g>
<path d="M400,389v -4" fill="none" stroke="#ff0099"/>
<path d="M400,382v -4" fill="none" stroke="#ff0099"/>
<path d="M394,384h 5" fill="none" stroke="#ff0099"/>
<path d="M401,384h 5" fill="none" stroke="#ff0099"/>
<g stroke="#ff0099" stroke-width="1" fill="#ff0099">
<circle cx=" 400" cy=" 384" r=" 1.5"/>
</g>
<path d="M411,408v -2" fill="none" stroke="#ff0099"/>
<path d="M411,404v -3" fill="none" stroke="#ff0099"/>
<path d="M406,405h 4" fill="none" stroke="#ff0099"/>
<path d="M412,405h 5" fill="none" stroke="#ff0099"/>
<g stroke="#ff0099" stroke-width="1" fill="#ff0099">
<circle cx=" 411" cy=" 405" r=" 1.5"/>
</g>
<path d="M422,414v -2" fill="none" stroke="#ff0099"/>
<path d="M422,410v -2" fill="none" stroke="#ff0099"/>
<path d="M417,411h 4" fill="none" stroke="#ff0099"/>
<path d="M423,411h 5" fill="none" stroke="#ff0099"/>
<g stroke="#ff0099" stroke-width="1" fill="#ff0099">
<circle cx=" 422" cy=" 411" r=" 1.5"/>
</g>
<path d="M433,418v -2" fill="none" stroke="#ff0099"/>
<path d="M433,414v -1" fill="none" stroke="#ff0099"/>
<path d="M428,415h 4" fill="none" stroke="#ff0099"/>
<path d="M434,415h 5" fill="none" stroke="#ff0099"/>
<g stroke="#ff0099" stroke-width="1" fill="#ff0099">
<circle cx=" 433" cy=" 415" r=" 1.5"/>
</g>
<path d="M444,418v -1" fill="none" stroke="#ff0099"/>
<path d="M444,414v -1" fill="none" stroke="#ff0099"/>
<path d="M439,415h 4" fill="none" stroke="#ff0099"/>
<path d="M445,415h 5" fill="none" stroke="#ff0099"/>
<g stroke="#ff0099" stroke-width="1" fill="#ff0099">
<circle cx=" 444" cy=" 415" r=" 1.5"/>
</g>
<path d="M455,422v -1" fill="none" stroke="#ff0099"/>
<path d="M455,419v -1" fill="none" stroke="#ff0099"/>
<path d="M450,420h 4" fill="none" stroke="#ff0099"/>
<path d="M456,420h 5" fill="none" stroke="#ff0099"/>
<g stroke="#ff0099" stroke-width="1" fill="#ff0099">
<circle cx=" 455" cy=" 420" r=" 1.5"/>
</g>
<path d="M466,424" fill="none" stroke="#ff0099"/>
<path d="M466,422v -1" fill="none" stroke="#ff0099"/>
<path d="M461,423h 4" fill="none" stroke="#ff0099"/>
<path d="M468,423h 4" fill="none" stroke="#ff0099"/>
<g stroke="#ff0099" stroke-width="1" fill="#ff0099">
<circle cx=" 466" cy=" 423" r=" 1.5"/>
</g>
<path d="M472,426h 4" fill="none" stroke="#ff0099"/>
<path d="M479,426h 4" fill="none" stroke="#ff0099"/>
<g stroke="#ff0099" stroke-width="1" fill="#ff0099">
<circle cx=" 477" cy=" 426" r=" 1.5"/>
</g>
<path d="M483,426h 4" fill="none" stroke="#ff0099"/>
<path d="M490,426h 4" fill="none" stroke="#ff0099"/>
<g stroke="#ff0099" stroke-width="1" fill="#ff0099">
<circle cx=" 489" cy=" 426" r=" 1.5"/>
</g>
<path d="M494,427h 4" fill="none" stroke="#ff0099"/>
<path d="M501,427h 4" fill="none" stroke="#ff0099"/>
<g stroke="#ff0099" stroke-width="1" fill="#ff0099">
<circle cx=" 500" cy=" 427" r=" 1.5"/>
</g>
<path d="M505,428h 5" fill="none" stroke="#ff0099"/>
<path d="M512,428h 4" fill="none" stroke="#ff0099"/>
<g stroke="#ff0099" stroke-width="1" fill="#ff0099">
<circle cx=" 511" cy=" 428" r=" 1.5"/>
</g>
<path d="M516,427h 5" fill="none" stroke="#ff0099"/>
<path d="M523,427h 4" fill="none" stroke="#ff0099"/>
<g stroke="#ff0099" stroke-width="1" fill="#ff0099">
<circle cx=" 522" cy=" 427" r=" 1.5"/>
</g>
<rect x="357" y="59" width="142" height="99" fill="white"/>
<text x="360" y="82" fill="black" font-size="17" font-family="Helvetica" font-weight="bold">
All
</text>
<text x="457" y="115" fill="black" font-size="17" font-family="Helvetica" font-weight="bold">
 ee
</text>
<text x="440" y="115" fill="black" font-size="17" font-family="Times">
&#8594;
</text>
<text x="392" y="115" fill="black" font-size="17" font-family="Helvetica" font-weight="bold">
MC Z 
</text>
<path d="M362,109h 25" fill="none" stroke="#ff0099"/>
<g stroke="#ff0099" stroke-width="1" fill="#ff0099">
<circle cx=" 375" cy=" 109" r=" 1.5"/>
</g>
<text x="455" y="147" fill="black" font-size="17" font-family="Helvetica" font-weight="bold">
 + jet
</text>
<text x="447" y="147" fill="black" font-size="17" font-family="Times">
&#0947;
</text>
<text x="392" y="147" fill="black" font-size="17" font-family="Helvetica" font-weight="bold">
signal 
</text>
<path d="M362,154h 25v -24h -25z" fill="#99ff99"/>
<path d="M362,130h 25" fill="none" stroke="#99ff99" stroke-width="2"/>
<path d="M362,154h 25" fill="none" stroke="#99ff99" stroke-width="2"/>
<path d="M387,154v -24" fill="none" stroke="#99ff99" stroke-width="2"/>
<path d="M362,154v -24" fill="none" stroke="#99ff99" stroke-width="2"/>
<text x="300" y="34" fill="black" font-size="17" font-family="Helvetica" font-weight="bold">
=8 TeV
</text>
<text x="291" y="34" fill="black" font-size="17" font-family="Helvetica" font-weight="bold">
s
</text>
<path d="M285,25l 2, 10" fill="none" stroke="black" stroke-width="2"/>
<path d="M287,35l 2, -14" fill="none" stroke="black"/>
<path d="M289,21h 11" fill="none" stroke="black"/>
<text x="142" y="34" fill="black" font-size="17" font-family="Helvetica" font-weight="bold">
CMS Preliminary 
</text></svg>
