<?xml version="1.0" standalone="no"?>
<svg width="567" height="496" viewBox="0 0 567 496" xmlns="http://www.w3.org/2000/svg">
<title>
../src/TagAndProbeZ/plots_mcZee_mcGJet_withEtaR9nvtxReweight/hlt90/nvtxEB.svg
</title>
<desc>
Creator: ROOT Version 5.32/00
CreationDate: Sun Sep 28 15:21:44 2014</desc>
<defs>
</defs>
<rect x="0" y="0" width="567" height="496" fill="white"/>
<rect x="74" y="44" width="453" height="402" fill="white"/>
<rect x="74" y="44" width="453" height="402" fill="none" stroke="black"/>
<rect x="74" y="44" width="453" height="402" fill="white"/>
<rect x="74" y="44" width="453" height="402" fill="none" stroke="black"/>
<path d="M85,428h 4" fill="none" stroke="#ff0099"/>
<path d="M91,428h 5" fill="none" stroke="#ff0099"/>
<g stroke="#ff0099" stroke-width="1" fill="#ff0099">
<circle cx=" 90" cy=" 428" r=" 1.5"/>
</g>
<path d="M96,428h 4" fill="none" stroke="#ff0099"/>
<path d="M102,428h 5" fill="none" stroke="#ff0099"/>
<g stroke="#ff0099" stroke-width="1" fill="#ff0099">
<circle cx=" 101" cy=" 428" r=" 1.5"/>
</g>
<path d="M112,424" fill="none" stroke="#ff0099"/>
<path d="M112,422v -1" fill="none" stroke="#ff0099"/>
<path d="M107,423h 4" fill="none" stroke="#ff0099"/>
<path d="M114,423h 4" fill="none" stroke="#ff0099"/>
<g stroke="#ff0099" stroke-width="1" fill="#ff0099">
<circle cx=" 112" cy=" 423" r=" 1.5"/>
</g>
<path d="M123,413v -3" fill="none" stroke="#ff0099"/>
<path d="M123,408v -3" fill="none" stroke="#ff0099"/>
<path d="M118,409h 4" fill="none" stroke="#ff0099"/>
<path d="M125,409h 4" fill="none" stroke="#ff0099"/>
<g stroke="#ff0099" stroke-width="1" fill="#ff0099">
<circle cx=" 123" cy=" 409" r=" 1.5"/>
</g>
<path d="M135,391v -5" fill="none" stroke="#ff0099"/>
<path d="M135,384v -5" fill="none" stroke="#ff0099"/>
<path d="M129,385h 4" fill="none" stroke="#ff0099"/>
<path d="M136,385h 4" fill="none" stroke="#ff0099"/>
<g stroke="#ff0099" stroke-width="1" fill="#ff0099">
<circle cx=" 135" cy=" 385" r=" 1.5"/>
</g>
<path d="M146,363v -7" fill="none" stroke="#ff0099"/>
<path d="M146,354v -7" fill="none" stroke="#ff0099"/>
<path d="M140,355h 4" fill="none" stroke="#ff0099"/>
<path d="M147,355h 4" fill="none" stroke="#ff0099"/>
<g stroke="#ff0099" stroke-width="1" fill="#ff0099">
<circle cx=" 146" cy=" 355" r=" 1.5"/>
</g>
<path d="M157,342v -8" fill="none" stroke="#ff0099"/>
<path d="M157,332v -7" fill="none" stroke="#ff0099"/>
<path d="M151,333h 5" fill="none" stroke="#ff0099"/>
<path d="M158,333h 4" fill="none" stroke="#ff0099"/>
<g stroke="#ff0099" stroke-width="1" fill="#ff0099">
<circle cx=" 157" cy=" 333" r=" 1.5"/>
</g>
<path d="M168,286v -11" fill="none" stroke="#ff0099"/>
<path d="M168,272v -10" fill="none" stroke="#ff0099"/>
<path d="M162,274h 5" fill="none" stroke="#ff0099"/>
<path d="M169,274h 4" fill="none" stroke="#ff0099"/>
<g stroke="#ff0099" stroke-width="1" fill="#ff0099">
<circle cx=" 168" cy=" 274" r=" 1.5"/>
</g>
<path d="M179,238v -13" fill="none" stroke="#ff0099"/>
<path d="M179,223v -13" fill="none" stroke="#ff0099"/>
<path d="M173,224h 5" fill="none" stroke="#ff0099"/>
<path d="M180,224h 4" fill="none" stroke="#ff0099"/>
<g stroke="#ff0099" stroke-width="1" fill="#ff0099">
<circle cx=" 179" cy=" 224" r=" 1.5"/>
</g>
<path d="M190,200v -14" fill="none" stroke="#ff0099"/>
<path d="M190,184v -14" fill="none" stroke="#ff0099"/>
<path d="M184,185h 5" fill="none" stroke="#ff0099"/>
<path d="M191,185h 4" fill="none" stroke="#ff0099"/>
<g stroke="#ff0099" stroke-width="1" fill="#ff0099">
<circle cx=" 190" cy=" 185" r=" 1.5"/>
</g>
<path d="M201,180v -15" fill="none" stroke="#ff0099"/>
<path d="M201,163v -15" fill="none" stroke="#ff0099"/>
<path d="M195,164h 5" fill="none" stroke="#ff0099"/>
<path d="M202,164h 4" fill="none" stroke="#ff0099"/>
<g stroke="#ff0099" stroke-width="1" fill="#ff0099">
<circle cx=" 201" cy=" 164" r=" 1.5"/>
</g>
<path d="M212,153v -17" fill="none" stroke="#ff0099"/>
<path d="M212,134v -16" fill="none" stroke="#ff0099"/>
<path d="M206,135h 5" fill="none" stroke="#ff0099"/>
<path d="M213,135h 5" fill="none" stroke="#ff0099"/>
<g stroke="#ff0099" stroke-width="1" fill="#ff0099">
<circle cx=" 212" cy=" 135" r=" 1.5"/>
</g>
<path d="M223,115v -17" fill="none" stroke="#ff0099"/>
<path d="M223,95v -17" fill="none" stroke="#ff0099"/>
<path d="M218,96h 4" fill="none" stroke="#ff0099"/>
<path d="M224,96h 5" fill="none" stroke="#ff0099"/>
<g stroke="#ff0099" stroke-width="1" fill="#ff0099">
<circle cx=" 223" cy=" 96" r=" 1.5"/>
</g>
<path d="M234,101v -18" fill="none" stroke="#ff0099"/>
<path d="M234,81v -18" fill="none" stroke="#ff0099"/>
<path d="M229,82h 4" fill="none" stroke="#ff0099"/>
<path d="M235,82h 5" fill="none" stroke="#ff0099"/>
<g stroke="#ff0099" stroke-width="1" fill="#ff0099">
<circle cx=" 234" cy=" 82" r=" 1.5"/>
</g>
<path d="M245,113v -18" fill="none" stroke="#ff0099"/>
<path d="M245,93v -18" fill="none" stroke="#ff0099"/>
<path d="M240,94h 4" fill="none" stroke="#ff0099"/>
<path d="M246,94h 5" fill="none" stroke="#ff0099"/>
<g stroke="#ff0099" stroke-width="1" fill="#ff0099">
<circle cx=" 245" cy=" 94" r=" 1.5"/>
</g>
<path d="M256,152v -17" fill="none" stroke="#ff0099"/>
<path d="M256,133v -17" fill="none" stroke="#ff0099"/>
<path d="M251,134h 4" fill="none" stroke="#ff0099"/>
<path d="M257,134h 5" fill="none" stroke="#ff0099"/>
<g stroke="#ff0099" stroke-width="1" fill="#ff0099">
<circle cx=" 256" cy=" 134" r=" 1.5"/>
</g>
<path d="M267,105v -19" fill="none" stroke="#ff0099"/>
<path d="M267,84v -19" fill="none" stroke="#ff0099"/>
<path d="M262,85h 4" fill="none" stroke="#ff0099"/>
<path d="M268,85h 5" fill="none" stroke="#ff0099"/>
<g stroke="#ff0099" stroke-width="1" fill="#ff0099">
<circle cx=" 267" cy=" 85" r=" 1.5"/>
</g>
<path d="M278,158v -18" fill="none" stroke="#ff0099"/>
<path d="M278,138v -18" fill="none" stroke="#ff0099"/>
<path d="M273,139h 4" fill="none" stroke="#ff0099"/>
<path d="M279,139h 5" fill="none" stroke="#ff0099"/>
<g stroke="#ff0099" stroke-width="1" fill="#ff0099">
<circle cx=" 278" cy=" 139" r=" 1.5"/>
</g>
<path d="M289,171v -17" fill="none" stroke="#ff0099"/>
<path d="M289,152v -17" fill="none" stroke="#ff0099"/>
<path d="M284,153h 4" fill="none" stroke="#ff0099"/>
<path d="M291,153h 4" fill="none" stroke="#ff0099"/>
<g stroke="#ff0099" stroke-width="1" fill="#ff0099">
<circle cx=" 289" cy=" 153" r=" 1.5"/>
</g>
<path d="M300,203v -16" fill="none" stroke="#ff0099"/>
<path d="M300,185v -17" fill="none" stroke="#ff0099"/>
<path d="M295,186h 4" fill="none" stroke="#ff0099"/>
<path d="M302,186h 4" fill="none" stroke="#ff0099"/>
<g stroke="#ff0099" stroke-width="1" fill="#ff0099">
<circle cx=" 300" cy=" 186" r=" 1.5"/>
</g>
<path d="M312,266v -14" fill="none" stroke="#ff0099"/>
<path d="M312,250v -13" fill="none" stroke="#ff0099"/>
<path d="M306,251h 4" fill="none" stroke="#ff0099"/>
<path d="M313,251h 4" fill="none" stroke="#ff0099"/>
<g stroke="#ff0099" stroke-width="1" fill="#ff0099">
<circle cx=" 312" cy=" 251" r=" 1.5"/>
</g>
<path d="M323,263v -13" fill="none" stroke="#ff0099"/>
<path d="M323,248v -14" fill="none" stroke="#ff0099"/>
<path d="M317,249h 4" fill="none" stroke="#ff0099"/>
<path d="M324,249h 4" fill="none" stroke="#ff0099"/>
<g stroke="#ff0099" stroke-width="1" fill="#ff0099">
<circle cx=" 323" cy=" 249" r=" 1.5"/>
</g>
<path d="M334,289v -13" fill="none" stroke="#ff0099"/>
<path d="M334,273v -13" fill="none" stroke="#ff0099"/>
<path d="M328,275h 5" fill="none" stroke="#ff0099"/>
<path d="M335,275h 4" fill="none" stroke="#ff0099"/>
<g stroke="#ff0099" stroke-width="1" fill="#ff0099">
<circle cx=" 334" cy=" 275" r=" 1.5"/>
</g>
<path d="M345,350v -10" fill="none" stroke="#ff0099"/>
<path d="M345,338v -10" fill="none" stroke="#ff0099"/>
<path d="M339,339h 5" fill="none" stroke="#ff0099"/>
<path d="M346,339h 4" fill="none" stroke="#ff0099"/>
<g stroke="#ff0099" stroke-width="1" fill="#ff0099">
<circle cx=" 345" cy=" 339" r=" 1.5"/>
</g>
<path d="M356,333v -11" fill="none" stroke="#ff0099"/>
<path d="M356,320v -11" fill="none" stroke="#ff0099"/>
<path d="M350,321h 5" fill="none" stroke="#ff0099"/>
<path d="M357,321h 4" fill="none" stroke="#ff0099"/>
<g stroke="#ff0099" stroke-width="1" fill="#ff0099">
<circle cx=" 356" cy=" 321" r=" 1.5"/>
</g>
<path d="M367,354v -9" fill="none" stroke="#ff0099"/>
<path d="M367,343v -9" fill="none" stroke="#ff0099"/>
<path d="M361,344h 5" fill="none" stroke="#ff0099"/>
<path d="M368,344h 4" fill="none" stroke="#ff0099"/>
<g stroke="#ff0099" stroke-width="1" fill="#ff0099">
<circle cx=" 367" cy=" 344" r=" 1.5"/>
</g>
<path d="M378,376v -7" fill="none" stroke="#ff0099"/>
<path d="M378,367v -8" fill="none" stroke="#ff0099"/>
<path d="M372,368h 5" fill="none" stroke="#ff0099"/>
<path d="M379,368h 4" fill="none" stroke="#ff0099"/>
<g stroke="#ff0099" stroke-width="1" fill="#ff0099">
<circle cx=" 378" cy=" 368" r=" 1.5"/>
</g>
<path d="M389,381v -7" fill="none" stroke="#ff0099"/>
<path d="M389,372v -7" fill="none" stroke="#ff0099"/>
<path d="M383,373h 5" fill="none" stroke="#ff0099"/>
<path d="M390,373h 4" fill="none" stroke="#ff0099"/>
<g stroke="#ff0099" stroke-width="1" fill="#ff0099">
<circle cx=" 389" cy=" 373" r=" 1.5"/>
</g>
<path d="M400,393v -5" fill="none" stroke="#ff0099"/>
<path d="M400,385v -5" fill="none" stroke="#ff0099"/>
<path d="M394,386h 5" fill="none" stroke="#ff0099"/>
<path d="M401,386h 5" fill="none" stroke="#ff0099"/>
<g stroke="#ff0099" stroke-width="1" fill="#ff0099">
<circle cx=" 400" cy=" 386" r=" 1.5"/>
</g>
<path d="M411,412v -4" fill="none" stroke="#ff0099"/>
<path d="M411,406v -4" fill="none" stroke="#ff0099"/>
<path d="M406,407h 4" fill="none" stroke="#ff0099"/>
<path d="M412,407h 5" fill="none" stroke="#ff0099"/>
<g stroke="#ff0099" stroke-width="1" fill="#ff0099">
<circle cx=" 411" cy=" 407" r=" 1.5"/>
</g>
<path d="M422,417v -2" fill="none" stroke="#ff0099"/>
<path d="M422,412v -2" fill="none" stroke="#ff0099"/>
<path d="M417,414h 4" fill="none" stroke="#ff0099"/>
<path d="M423,414h 5" fill="none" stroke="#ff0099"/>
<g stroke="#ff0099" stroke-width="1" fill="#ff0099">
<circle cx=" 422" cy=" 414" r=" 1.5"/>
</g>
<path d="M433,419v -3" fill="none" stroke="#ff0099"/>
<path d="M433,413v -3" fill="none" stroke="#ff0099"/>
<path d="M428,415h 4" fill="none" stroke="#ff0099"/>
<path d="M434,415h 5" fill="none" stroke="#ff0099"/>
<g stroke="#ff0099" stroke-width="1" fill="#ff0099">
<circle cx=" 433" cy=" 415" r=" 1.5"/>
</g>
<path d="M444,418v -3" fill="none" stroke="#ff0099"/>
<path d="M444,413v -3" fill="none" stroke="#ff0099"/>
<path d="M439,414h 4" fill="none" stroke="#ff0099"/>
<path d="M445,414h 5" fill="none" stroke="#ff0099"/>
<g stroke="#ff0099" stroke-width="1" fill="#ff0099">
<circle cx=" 444" cy=" 414" r=" 1.5"/>
</g>
<path d="M455,420v -4" fill="none" stroke="#ff0099"/>
<path d="M455,413v -4" fill="none" stroke="#ff0099"/>
<path d="M450,414h 4" fill="none" stroke="#ff0099"/>
<path d="M456,414h 5" fill="none" stroke="#ff0099"/>
<g stroke="#ff0099" stroke-width="1" fill="#ff0099">
<circle cx=" 455" cy=" 414" r=" 1.5"/>
</g>
<path d="M466,425v -1" fill="none" stroke="#ff0099"/>
<path d="M466,422v -1" fill="none" stroke="#ff0099"/>
<path d="M461,423h 4" fill="none" stroke="#ff0099"/>
<path d="M468,423h 4" fill="none" stroke="#ff0099"/>
<g stroke="#ff0099" stroke-width="1" fill="#ff0099">
<circle cx=" 466" cy=" 423" r=" 1.5"/>
</g>
<path d="M472,427h 4" fill="none" stroke="#ff0099"/>
<path d="M479,427h 4" fill="none" stroke="#ff0099"/>
<g stroke="#ff0099" stroke-width="1" fill="#ff0099">
<circle cx=" 477" cy=" 427" r=" 1.5"/>
</g>
<path d="M489,428" fill="none" stroke="#ff0099"/>
<path d="M489,426" fill="none" stroke="#ff0099"/>
<path d="M483,427h 4" fill="none" stroke="#ff0099"/>
<path d="M490,427h 4" fill="none" stroke="#ff0099"/>
<g stroke="#ff0099" stroke-width="1" fill="#ff0099">
<circle cx=" 489" cy=" 427" r=" 1.5"/>
</g>
<path d="M500,428" fill="none" stroke="#ff0099"/>
<path d="M500,425" fill="none" stroke="#ff0099"/>
<path d="M494,426h 4" fill="none" stroke="#ff0099"/>
<path d="M501,426h 4" fill="none" stroke="#ff0099"/>
<g stroke="#ff0099" stroke-width="1" fill="#ff0099">
<circle cx=" 500" cy=" 426" r=" 1.5"/>
</g>
<path d="M505,428h 5" fill="none" stroke="#ff0099"/>
<path d="M512,428h 4" fill="none" stroke="#ff0099"/>
<g stroke="#ff0099" stroke-width="1" fill="#ff0099">
<circle cx=" 511" cy=" 428" r=" 1.5"/>
</g>
<path d="M516,428h 5" fill="none" stroke="#ff0099"/>
<path d="M523,428h 4" fill="none" stroke="#ff0099"/>
<g stroke="#ff0099" stroke-width="1" fill="#ff0099">
<circle cx=" 522" cy=" 428" r=" 1.5"/>
</g>
<path d="M74,446h 453" fill="none" stroke="black"/>
<path d="M79,434v 12" fill="none" stroke="black"/>
<path d="M90,440v 6" fill="none" stroke="black"/>
<path d="M101,440v 6" fill="none" stroke="black"/>
<path d="M112,440v 6" fill="none" stroke="black"/>
<path d="M123,440v 6" fill="none" stroke="black"/>
<path d="M135,434v 12" fill="none" stroke="black"/>
<path d="M146,440v 6" fill="none" stroke="black"/>
<path d="M157,440v 6" fill="none" stroke="black"/>
<path d="M168,440v 6" fill="none" stroke="black"/>
<path d="M179,440v 6" fill="none" stroke="black"/>
<path d="M190,434v 12" fill="none" stroke="black"/>
<path d="M201,440v 6" fill="none" stroke="black"/>
<path d="M212,440v 6" fill="none" stroke="black"/>
<path d="M223,440v 6" fill="none" stroke="black"/>
<path d="M234,440v 6" fill="none" stroke="black"/>
<path d="M245,434v 12" fill="none" stroke="black"/>
<path d="M256,440v 6" fill="none" stroke="black"/>
<path d="M267,440v 6" fill="none" stroke="black"/>
<path d="M278,440v 6" fill="none" stroke="black"/>
<path d="M289,440v 6" fill="none" stroke="black"/>
<path d="M300,434v 12" fill="none" stroke="black"/>
<path d="M312,440v 6" fill="none" stroke="black"/>
<path d="M323,440v 6" fill="none" stroke="black"/>
<path d="M334,440v 6" fill="none" stroke="black"/>
<path d="M345,440v 6" fill="none" stroke="black"/>
<path d="M356,434v 12" fill="none" stroke="black"/>
<path d="M367,440v 6" fill="none" stroke="black"/>
<path d="M378,440v 6" fill="none" stroke="black"/>
<path d="M389,440v 6" fill="none" stroke="black"/>
<path d="M400,440v 6" fill="none" stroke="black"/>
<path d="M411,434v 12" fill="none" stroke="black"/>
<path d="M422,440v 6" fill="none" stroke="black"/>
<path d="M433,440v 6" fill="none" stroke="black"/>
<path d="M444,440v 6" fill="none" stroke="black"/>
<path d="M455,440v 6" fill="none" stroke="black"/>
<path d="M466,434v 12" fill="none" stroke="black"/>
<path d="M477,440v 6" fill="none" stroke="black"/>
<path d="M489,440v 6" fill="none" stroke="black"/>
<path d="M500,440v 6" fill="none" stroke="black"/>
<path d="M511,440v 6" fill="none" stroke="black"/>
<path d="M522,434v 12" fill="none" stroke="black"/>
<path d="M79,434v 12" fill="none" stroke="black"/>
<path d="M522,434v 12" fill="none" stroke="black"/>
<text x="74" y="465" fill="black" font-size="18" font-family="Helvetica" font-weight="bold">
0
</text>
<text x="129" y="465" fill="black" font-size="18" font-family="Helvetica" font-weight="bold">
5
</text>
<text x="179" y="465" fill="black" font-size="18" font-family="Helvetica" font-weight="bold">
10
</text>
<text x="235" y="465" fill="black" font-size="18" font-family="Helvetica" font-weight="bold">
15
</text>
<text x="290" y="465" fill="black" font-size="18" font-family="Helvetica" font-weight="bold">
20
</text>
<text x="346" y="465" fill="black" font-size="18" font-family="Helvetica" font-weight="bold">
25
</text>
<text x="401" y="465" fill="black" font-size="18" font-family="Helvetica" font-weight="bold">
30
</text>
<text x="456" y="465" fill="black" font-size="18" font-family="Helvetica" font-weight="bold">
35
</text>
<text x="511" y="465" fill="black" font-size="18" font-family="Helvetica" font-weight="bold">
40
</text>
<path d="M74,44h 453" fill="none" stroke="black"/>
<path d="M79,56v -12" fill="none" stroke="black"/>
<path d="M90,50v -6" fill="none" stroke="black"/>
<path d="M101,50v -6" fill="none" stroke="black"/>
<path d="M112,50v -6" fill="none" stroke="black"/>
<path d="M123,50v -6" fill="none" stroke="black"/>
<path d="M135,56v -12" fill="none" stroke="black"/>
<path d="M146,50v -6" fill="none" stroke="black"/>
<path d="M157,50v -6" fill="none" stroke="black"/>
<path d="M168,50v -6" fill="none" stroke="black"/>
<path d="M179,50v -6" fill="none" stroke="black"/>
<path d="M190,56v -12" fill="none" stroke="black"/>
<path d="M201,50v -6" fill="none" stroke="black"/>
<path d="M212,50v -6" fill="none" stroke="black"/>
<path d="M223,50v -6" fill="none" stroke="black"/>
<path d="M234,50v -6" fill="none" stroke="black"/>
<path d="M245,56v -12" fill="none" stroke="black"/>
<path d="M256,50v -6" fill="none" stroke="black"/>
<path d="M267,50v -6" fill="none" stroke="black"/>
<path d="M278,50v -6" fill="none" stroke="black"/>
<path d="M289,50v -6" fill="none" stroke="black"/>
<path d="M300,56v -12" fill="none" stroke="black"/>
<path d="M312,50v -6" fill="none" stroke="black"/>
<path d="M323,50v -6" fill="none" stroke="black"/>
<path d="M334,50v -6" fill="none" stroke="black"/>
<path d="M345,50v -6" fill="none" stroke="black"/>
<path d="M356,56v -12" fill="none" stroke="black"/>
<path d="M367,50v -6" fill="none" stroke="black"/>
<path d="M378,50v -6" fill="none" stroke="black"/>
<path d="M389,50v -6" fill="none" stroke="black"/>
<path d="M400,50v -6" fill="none" stroke="black"/>
<path d="M411,56v -12" fill="none" stroke="black"/>
<path d="M422,50v -6" fill="none" stroke="black"/>
<path d="M433,50v -6" fill="none" stroke="black"/>
<path d="M444,50v -6" fill="none" stroke="black"/>
<path d="M455,50v -6" fill="none" stroke="black"/>
<path d="M466,56v -12" fill="none" stroke="black"/>
<path d="M477,50v -6" fill="none" stroke="black"/>
<path d="M489,50v -6" fill="none" stroke="black"/>
<path d="M500,50v -6" fill="none" stroke="black"/>
<path d="M511,50v -6" fill="none" stroke="black"/>
<path d="M522,56v -12" fill="none" stroke="black"/>
<path d="M79,56v -12" fill="none" stroke="black"/>
<path d="M522,56v -12" fill="none" stroke="black"/>
<path d="M74,446v -402" fill="none" stroke="black"/>
<path d="M87,428h -13" fill="none" stroke="black"/>
<path d="M81,418h -7" fill="none" stroke="black"/>
<path d="M81,409h -7" fill="none" stroke="black"/>
<path d="M81,399h -7" fill="none" stroke="black"/>
<path d="M81,389h -7" fill="none" stroke="black"/>
<path d="M87,379h -13" fill="none" stroke="black"/>
<path d="M81,370h -7" fill="none" stroke="black"/>
<path d="M81,360h -7" fill="none" stroke="black"/>
<path d="M81,350h -7" fill="none" stroke="black"/>
<path d="M81,340h -7" fill="none" stroke="black"/>
<path d="M87,330h -13" fill="none" stroke="black"/>
<path d="M81,321h -7" fill="none" stroke="black"/>
<path d="M81,311h -7" fill="none" stroke="black"/>
<path d="M81,301h -7" fill="none" stroke="black"/>
<path d="M81,291h -7" fill="none" stroke="black"/>
<path d="M87,282h -13" fill="none" stroke="black"/>
<path d="M81,272h -7" fill="none" stroke="black"/>
<path d="M81,262h -7" fill="none" stroke="black"/>
<path d="M81,252h -7" fill="none" stroke="black"/>
<path d="M81,243h -7" fill="none" stroke="black"/>
<path d="M87,233h -13" fill="none" stroke="black"/>
<path d="M81,223h -7" fill="none" stroke="black"/>
<path d="M81,213h -7" fill="none" stroke="black"/>
<path d="M81,203h -7" fill="none" stroke="black"/>
<path d="M81,194h -7" fill="none" stroke="black"/>
<path d="M87,184h -13" fill="none" stroke="black"/>
<path d="M81,174h -7" fill="none" stroke="black"/>
<path d="M81,164h -7" fill="none" stroke="black"/>
<path d="M81,155h -7" fill="none" stroke="black"/>
<path d="M81,145h -7" fill="none" stroke="black"/>
<path d="M87,135h -13" fill="none" stroke="black"/>
<path d="M81,125h -7" fill="none" stroke="black"/>
<path d="M81,116h -7" fill="none" stroke="black"/>
<path d="M81,106h -7" fill="none" stroke="black"/>
<path d="M81,96h -7" fill="none" stroke="black"/>
<path d="M87,86h -13" fill="none" stroke="black"/>
<path d="M87,428h -13" fill="none" stroke="black"/>
<path d="M81,438h -7" fill="none" stroke="black"/>
<path d="M87,86h -13" fill="none" stroke="black"/>
<path d="M81,76h -7" fill="none" stroke="black"/>
<path d="M81,67h -7" fill="none" stroke="black"/>
<path d="M81,57h -7" fill="none" stroke="black"/>
<path d="M81,47h -7" fill="none" stroke="black"/>
<text x="61" y="435" fill="black" font-size="18" font-family="Helvetica" font-weight="bold">
0
</text>
<text x="37" y="386" fill="black" font-size="18" font-family="Helvetica" font-weight="bold">
0.01
</text>
<text x="35" y="337" fill="black" font-size="18" font-family="Helvetica" font-weight="bold">
0.02
</text>
<text x="35" y="288" fill="black" font-size="18" font-family="Helvetica" font-weight="bold">
0.03
</text>
<text x="34" y="239" fill="black" font-size="18" font-family="Helvetica" font-weight="bold">
0.04
</text>
<text x="34" y="190" fill="black" font-size="18" font-family="Helvetica" font-weight="bold">
0.05
</text>
<text x="34" y="141" fill="black" font-size="18" font-family="Helvetica" font-weight="bold">
0.06
</text>
<text x="35" y="93" fill="black" font-size="18" font-family="Helvetica" font-weight="bold">
0.07
</text>
<path d="M90,428" fill="none" stroke="#99ff99" stroke-width="2"/>
<path d="M90,428" fill="none" stroke="#99ff99" stroke-width="2"/>
<g stroke="black" stroke-width="2" fill="none">
<line x1="89" y1="428" x2="90" y2="428"/>
</g>
<path d="M101,426" fill="none" stroke="#99ff99" stroke-width="2"/>
<path d="M101,426" fill="none" stroke="#99ff99" stroke-width="2"/>
<g stroke="black" stroke-width="2" fill="none">
<line x1="100" y1="426" x2="101" y2="426"/>
</g>
<path d="M112,422v -1" fill="none" stroke="#99ff99" stroke-width="2"/>
<path d="M112,421" fill="none" stroke="#99ff99" stroke-width="2"/>
<g stroke="black" stroke-width="2" fill="none">
<line x1="111" y1="421" x2="112" y2="421"/>
</g>
<path d="M123,411v -1" fill="none" stroke="#99ff99" stroke-width="2"/>
<path d="M123,410" fill="none" stroke="#99ff99" stroke-width="2"/>
<g stroke="black" stroke-width="2" fill="none">
<line x1="122" y1="410" x2="123" y2="410"/>
</g>
<path d="M135,389v -2" fill="none" stroke="#99ff99" stroke-width="2"/>
<path d="M135,387v -1" fill="none" stroke="#99ff99" stroke-width="2"/>
<g stroke="black" stroke-width="2" fill="none">
<line x1="134" y1="387" x2="135" y2="387"/>
</g>
<path d="M146,358v -1" fill="none" stroke="#99ff99" stroke-width="2"/>
<path d="M146,357v -2" fill="none" stroke="#99ff99" stroke-width="2"/>
<g stroke="black" stroke-width="2" fill="none">
<line x1="145" y1="357" x2="146" y2="357"/>
</g>
<path d="M157,318v -2" fill="none" stroke="#99ff99" stroke-width="2"/>
<path d="M157,316v -2" fill="none" stroke="#99ff99" stroke-width="2"/>
<g stroke="black" stroke-width="2" fill="none">
<line x1="156" y1="316" x2="157" y2="316"/>
</g>
<path d="M168,268v -8" fill="none" stroke="#99ff99" stroke-width="2"/>
<path d="M168,260v -7" fill="none" stroke="#99ff99" stroke-width="2"/>
<g stroke="black" stroke-width="2" fill="none">
<line x1="167" y1="260" x2="168" y2="260"/>
</g>
<path d="M179,219v -3" fill="none" stroke="#99ff99" stroke-width="2"/>
<path d="M179,216v -3" fill="none" stroke="#99ff99" stroke-width="2"/>
<g stroke="black" stroke-width="2" fill="none">
<line x1="178" y1="216" x2="179" y2="216"/>
</g>
<path d="M190,185v -3" fill="none" stroke="#99ff99" stroke-width="2"/>
<path d="M190,182v -3" fill="none" stroke="#99ff99" stroke-width="2"/>
<g stroke="black" stroke-width="2" fill="none">
<line x1="189" y1="182" x2="190" y2="182"/>
</g>
<path d="M201,143v -3" fill="none" stroke="#99ff99" stroke-width="2"/>
<path d="M201,140v -3" fill="none" stroke="#99ff99" stroke-width="2"/>
<g stroke="black" stroke-width="2" fill="none">
<line x1="200" y1="140" x2="201" y2="140"/>
</g>
<path d="M212,108v -4" fill="none" stroke="#99ff99" stroke-width="2"/>
<path d="M212,104v -3" fill="none" stroke="#99ff99" stroke-width="2"/>
<g stroke="black" stroke-width="2" fill="none">
<line x1="211" y1="104" x2="212" y2="104"/>
</g>
<path d="M223,97v -4" fill="none" stroke="#99ff99" stroke-width="2"/>
<path d="M223,93v -3" fill="none" stroke="#99ff99" stroke-width="2"/>
<g stroke="black" stroke-width="2" fill="none">
<line x1="222" y1="93" x2="223" y2="93"/>
</g>
<path d="M234,93v -3" fill="none" stroke="#99ff99" stroke-width="2"/>
<path d="M234,90v -4" fill="none" stroke="#99ff99" stroke-width="2"/>
<g stroke="black" stroke-width="2" fill="none">
<line x1="233" y1="90" x2="234" y2="90"/>
</g>
<path d="M245,85v -4" fill="none" stroke="#99ff99" stroke-width="2"/>
<path d="M245,81v -3" fill="none" stroke="#99ff99" stroke-width="2"/>
<g stroke="black" stroke-width="2" fill="none">
<line x1="244" y1="81" x2="245" y2="81"/>
</g>
<path d="M256,96v -4" fill="none" stroke="#99ff99" stroke-width="2"/>
<path d="M256,92v -3" fill="none" stroke="#99ff99" stroke-width="2"/>
<g stroke="black" stroke-width="2" fill="none">
<line x1="255" y1="92" x2="256" y2="92"/>
</g>
<path d="M267,121v -3" fill="none" stroke="#99ff99" stroke-width="2"/>
<path d="M267,118v -4" fill="none" stroke="#99ff99" stroke-width="2"/>
<g stroke="black" stroke-width="2" fill="none">
<line x1="266" y1="118" x2="267" y2="118"/>
</g>
<path d="M278,140v -3" fill="none" stroke="#99ff99" stroke-width="2"/>
<path d="M278,137v -3" fill="none" stroke="#99ff99" stroke-width="2"/>
<g stroke="black" stroke-width="2" fill="none">
<line x1="277" y1="137" x2="278" y2="137"/>
</g>
<path d="M289,166v -2" fill="none" stroke="#99ff99" stroke-width="2"/>
<path d="M289,164v -3" fill="none" stroke="#99ff99" stroke-width="2"/>
<g stroke="black" stroke-width="2" fill="none">
<line x1="288" y1="164" x2="289" y2="164"/>
</g>
<path d="M300,197v -3" fill="none" stroke="#99ff99" stroke-width="2"/>
<path d="M300,194v -3" fill="none" stroke="#99ff99" stroke-width="2"/>
<g stroke="black" stroke-width="2" fill="none">
<line x1="299" y1="194" x2="300" y2="194"/>
</g>
<path d="M312,232v -2" fill="none" stroke="#99ff99" stroke-width="2"/>
<path d="M312,230v -2" fill="none" stroke="#99ff99" stroke-width="2"/>
<g stroke="black" stroke-width="2" fill="none">
<line x1="311" y1="230" x2="312" y2="230"/>
</g>
<path d="M323,263v -2" fill="none" stroke="#99ff99" stroke-width="2"/>
<path d="M323,261v -2" fill="none" stroke="#99ff99" stroke-width="2"/>
<g stroke="black" stroke-width="2" fill="none">
<line x1="322" y1="261" x2="323" y2="261"/>
</g>
<path d="M334,291v -1" fill="none" stroke="#99ff99" stroke-width="2"/>
<path d="M334,290v -2" fill="none" stroke="#99ff99" stroke-width="2"/>
<g stroke="black" stroke-width="2" fill="none">
<line x1="333" y1="290" x2="334" y2="290"/>
</g>
<path d="M345,321v -1" fill="none" stroke="#99ff99" stroke-width="2"/>
<path d="M345,320v -2" fill="none" stroke="#99ff99" stroke-width="2"/>
<g stroke="black" stroke-width="2" fill="none">
<line x1="344" y1="320" x2="345" y2="320"/>
</g>
<path d="M356,342v -5" fill="none" stroke="#99ff99" stroke-width="2"/>
<path d="M356,337v -5" fill="none" stroke="#99ff99" stroke-width="2"/>
<g stroke="black" stroke-width="2" fill="none">
<line x1="355" y1="337" x2="356" y2="337"/>
</g>
<path d="M367,365v -1" fill="none" stroke="#99ff99" stroke-width="2"/>
<path d="M367,364v -1" fill="none" stroke="#99ff99" stroke-width="2"/>
<g stroke="black" stroke-width="2" fill="none">
<line x1="366" y1="364" x2="367" y2="364"/>
</g>
<path d="M378,379v -1" fill="none" stroke="#99ff99" stroke-width="2"/>
<path d="M378,378v -1" fill="none" stroke="#99ff99" stroke-width="2"/>
<g stroke="black" stroke-width="2" fill="none">
<line x1="377" y1="378" x2="378" y2="378"/>
</g>
<path d="M389,393v -1" fill="none" stroke="#99ff99" stroke-width="2"/>
<path d="M389,392" fill="none" stroke="#99ff99" stroke-width="2"/>
<g stroke="black" stroke-width="2" fill="none">
<line x1="388" y1="392" x2="389" y2="392"/>
</g>
<path d="M400,402" fill="none" stroke="#99ff99" stroke-width="2"/>
<path d="M400,402v -1" fill="none" stroke="#99ff99" stroke-width="2"/>
<g stroke="black" stroke-width="2" fill="none">
<line x1="399" y1="402" x2="400" y2="402"/>
</g>
<path d="M411,410v -1" fill="none" stroke="#99ff99" stroke-width="2"/>
<path d="M411,409" fill="none" stroke="#99ff99" stroke-width="2"/>
<g stroke="black" stroke-width="2" fill="none">
<line x1="410" y1="409" x2="411" y2="409"/>
</g>
<path d="M422,415" fill="none" stroke="#99ff99" stroke-width="2"/>
<path d="M422,415" fill="none" stroke="#99ff99" stroke-width="2"/>
<g stroke="black" stroke-width="2" fill="none">
<line x1="421" y1="415" x2="422" y2="415"/>
</g>
<path d="M433,420v -1" fill="none" stroke="#99ff99" stroke-width="2"/>
<path d="M433,419" fill="none" stroke="#99ff99" stroke-width="2"/>
<g stroke="black" stroke-width="2" fill="none">
<line x1="432" y1="419" x2="433" y2="419"/>
</g>
<path d="M444,422" fill="none" stroke="#99ff99" stroke-width="2"/>
<path d="M444,422" fill="none" stroke="#99ff99" stroke-width="2"/>
<g stroke="black" stroke-width="2" fill="none">
<line x1="443" y1="422" x2="444" y2="422"/>
</g>
<path d="M455,424" fill="none" stroke="#99ff99" stroke-width="2"/>
<path d="M455,424" fill="none" stroke="#99ff99" stroke-width="2"/>
<g stroke="black" stroke-width="2" fill="none">
<line x1="454" y1="424" x2="455" y2="424"/>
</g>
<path d="M466,426v -1" fill="none" stroke="#99ff99" stroke-width="2"/>
<path d="M466,425" fill="none" stroke="#99ff99" stroke-width="2"/>
<g stroke="black" stroke-width="2" fill="none">
<line x1="465" y1="425" x2="466" y2="425"/>
</g>
<path d="M477,427" fill="none" stroke="#99ff99" stroke-width="2"/>
<path d="M477,427" fill="none" stroke="#99ff99" stroke-width="2"/>
<g stroke="black" stroke-width="2" fill="none">
<line x1="476" y1="427" x2="477" y2="427"/>
</g>
<path d="M489,427" fill="none" stroke="#99ff99" stroke-width="2"/>
<path d="M489,427" fill="none" stroke="#99ff99" stroke-width="2"/>
<g stroke="black" stroke-width="2" fill="none">
<line x1="488" y1="427" x2="489" y2="427"/>
</g>
<path d="M500,427" fill="none" stroke="#99ff99" stroke-width="2"/>
<path d="M500,427" fill="none" stroke="#99ff99" stroke-width="2"/>
<g stroke="black" stroke-width="2" fill="none">
<line x1="499" y1="427" x2="500" y2="427"/>
</g>
<path d="M511,428" fill="none" stroke="#99ff99" stroke-width="2"/>
<path d="M511,428" fill="none" stroke="#99ff99" stroke-width="2"/>
<g stroke="black" stroke-width="2" fill="none">
<line x1="510" y1="428" x2="511" y2="428"/>
</g>
<path d="M522,428" fill="none" stroke="#99ff99" stroke-width="2"/>
<path d="M522,428" fill="none" stroke="#99ff99" stroke-width="2"/>
<g stroke="black" stroke-width="2" fill="none">
<line x1="521" y1="428" x2="522" y2="428"/>
</g>
<path d="M74,428h 22v -2h 11v -5h 11v -11h 11v -23h 11v -30h 11v -41h 11v -56h 11v -44h 11v -34h 11v -42h 11v -36h 12v -11h 11v -3h 11v -9h 11v 11h 11v 26h 11v 19h 11v 27h 11v 30h 11v 36h 11v 31h 11v 29h 11v 30h 11v 17h 11v 27h 11v 14h 11v 14h 11v
 10h 12v 7h 11v 6h 11v 4h 11v 3h 11v 2h 11v 1h 11v 2h 33v 1h 22z" fill="#99ff99"/>
<path d="M74,428h 22v -2h 11v -5h 11v -11h 11v -23h 11v -30h 11v -41h 11v -56h 11v -44h 11v -34h 11v -42h 11v -36h 12v -11h 11v -3h 11v -9h 11v 11h 11v 26h 11v 19h 11v 27h 11v 30h 11v 36h 11v 31h 11v 29h 11v 30h 11v 17h 11v 27h 11v 14h 11v 14h 11v
 10h 12v 7h 11v 6h 11v 4h 11v 3h 11v 2h 11v 1h 11v 2h 33v 1h 22" fill="none" stroke="#99ff99" stroke-width="2"/>
<path d="M85,428h 4" fill="none" stroke="#ff0099"/>
<path d="M91,428h 5" fill="none" stroke="#ff0099"/>
<g stroke="#ff0099" stroke-width="1" fill="#ff0099">
<circle cx=" 90" cy=" 428" r=" 1.5"/>
</g>
<path d="M96,428h 4" fill="none" stroke="#ff0099"/>
<path d="M102,428h 5" fill="none" stroke="#ff0099"/>
<g stroke="#ff0099" stroke-width="1" fill="#ff0099">
<circle cx=" 101" cy=" 428" r=" 1.5"/>
</g>
<path d="M112,424" fill="none" stroke="#ff0099"/>
<path d="M112,422v -1" fill="none" stroke="#ff0099"/>
<path d="M107,423h 4" fill="none" stroke="#ff0099"/>
<path d="M114,423h 4" fill="none" stroke="#ff0099"/>
<g stroke="#ff0099" stroke-width="1" fill="#ff0099">
<circle cx=" 112" cy=" 423" r=" 1.5"/>
</g>
<path d="M123,413v -3" fill="none" stroke="#ff0099"/>
<path d="M123,408v -3" fill="none" stroke="#ff0099"/>
<path d="M118,409h 4" fill="none" stroke="#ff0099"/>
<path d="M125,409h 4" fill="none" stroke="#ff0099"/>
<g stroke="#ff0099" stroke-width="1" fill="#ff0099">
<circle cx=" 123" cy=" 409" r=" 1.5"/>
</g>
<path d="M135,391v -5" fill="none" stroke="#ff0099"/>
<path d="M135,384v -5" fill="none" stroke="#ff0099"/>
<path d="M129,385h 4" fill="none" stroke="#ff0099"/>
<path d="M136,385h 4" fill="none" stroke="#ff0099"/>
<g stroke="#ff0099" stroke-width="1" fill="#ff0099">
<circle cx=" 135" cy=" 385" r=" 1.5"/>
</g>
<path d="M146,363v -7" fill="none" stroke="#ff0099"/>
<path d="M146,354v -7" fill="none" stroke="#ff0099"/>
<path d="M140,355h 4" fill="none" stroke="#ff0099"/>
<path d="M147,355h 4" fill="none" stroke="#ff0099"/>
<g stroke="#ff0099" stroke-width="1" fill="#ff0099">
<circle cx=" 146" cy=" 355" r=" 1.5"/>
</g>
<path d="M157,342v -8" fill="none" stroke="#ff0099"/>
<path d="M157,332v -7" fill="none" stroke="#ff0099"/>
<path d="M151,333h 5" fill="none" stroke="#ff0099"/>
<path d="M158,333h 4" fill="none" stroke="#ff0099"/>
<g stroke="#ff0099" stroke-width="1" fill="#ff0099">
<circle cx=" 157" cy=" 333" r=" 1.5"/>
</g>
<path d="M168,286v -11" fill="none" stroke="#ff0099"/>
<path d="M168,272v -10" fill="none" stroke="#ff0099"/>
<path d="M162,274h 5" fill="none" stroke="#ff0099"/>
<path d="M169,274h 4" fill="none" stroke="#ff0099"/>
<g stroke="#ff0099" stroke-width="1" fill="#ff0099">
<circle cx=" 168" cy=" 274" r=" 1.5"/>
</g>
<path d="M179,238v -13" fill="none" stroke="#ff0099"/>
<path d="M179,223v -13" fill="none" stroke="#ff0099"/>
<path d="M173,224h 5" fill="none" stroke="#ff0099"/>
<path d="M180,224h 4" fill="none" stroke="#ff0099"/>
<g stroke="#ff0099" stroke-width="1" fill="#ff0099">
<circle cx=" 179" cy=" 224" r=" 1.5"/>
</g>
<path d="M190,200v -14" fill="none" stroke="#ff0099"/>
<path d="M190,184v -14" fill="none" stroke="#ff0099"/>
<path d="M184,185h 5" fill="none" stroke="#ff0099"/>
<path d="M191,185h 4" fill="none" stroke="#ff0099"/>
<g stroke="#ff0099" stroke-width="1" fill="#ff0099">
<circle cx=" 190" cy=" 185" r=" 1.5"/>
</g>
<path d="M201,180v -15" fill="none" stroke="#ff0099"/>
<path d="M201,163v -15" fill="none" stroke="#ff0099"/>
<path d="M195,164h 5" fill="none" stroke="#ff0099"/>
<path d="M202,164h 4" fill="none" stroke="#ff0099"/>
<g stroke="#ff0099" stroke-width="1" fill="#ff0099">
<circle cx=" 201" cy=" 164" r=" 1.5"/>
</g>
<path d="M212,153v -17" fill="none" stroke="#ff0099"/>
<path d="M212,134v -16" fill="none" stroke="#ff0099"/>
<path d="M206,135h 5" fill="none" stroke="#ff0099"/>
<path d="M213,135h 5" fill="none" stroke="#ff0099"/>
<g stroke="#ff0099" stroke-width="1" fill="#ff0099">
<circle cx=" 212" cy=" 135" r=" 1.5"/>
</g>
<path d="M223,115v -17" fill="none" stroke="#ff0099"/>
<path d="M223,95v -17" fill="none" stroke="#ff0099"/>
<path d="M218,96h 4" fill="none" stroke="#ff0099"/>
<path d="M224,96h 5" fill="none" stroke="#ff0099"/>
<g stroke="#ff0099" stroke-width="1" fill="#ff0099">
<circle cx=" 223" cy=" 96" r=" 1.5"/>
</g>
<path d="M234,101v -18" fill="none" stroke="#ff0099"/>
<path d="M234,81v -18" fill="none" stroke="#ff0099"/>
<path d="M229,82h 4" fill="none" stroke="#ff0099"/>
<path d="M235,82h 5" fill="none" stroke="#ff0099"/>
<g stroke="#ff0099" stroke-width="1" fill="#ff0099">
<circle cx=" 234" cy=" 82" r=" 1.5"/>
</g>
<path d="M245,113v -18" fill="none" stroke="#ff0099"/>
<path d="M245,93v -18" fill="none" stroke="#ff0099"/>
<path d="M240,94h 4" fill="none" stroke="#ff0099"/>
<path d="M246,94h 5" fill="none" stroke="#ff0099"/>
<g stroke="#ff0099" stroke-width="1" fill="#ff0099">
<circle cx=" 245" cy=" 94" r=" 1.5"/>
</g>
<path d="M256,152v -17" fill="none" stroke="#ff0099"/>
<path d="M256,133v -17" fill="none" stroke="#ff0099"/>
<path d="M251,134h 4" fill="none" stroke="#ff0099"/>
<path d="M257,134h 5" fill="none" stroke="#ff0099"/>
<g stroke="#ff0099" stroke-width="1" fill="#ff0099">
<circle cx=" 256" cy=" 134" r=" 1.5"/>
</g>
<path d="M267,105v -19" fill="none" stroke="#ff0099"/>
<path d="M267,84v -19" fill="none" stroke="#ff0099"/>
<path d="M262,85h 4" fill="none" stroke="#ff0099"/>
<path d="M268,85h 5" fill="none" stroke="#ff0099"/>
<g stroke="#ff0099" stroke-width="1" fill="#ff0099">
<circle cx=" 267" cy=" 85" r=" 1.5"/>
</g>
<path d="M278,158v -18" fill="none" stroke="#ff0099"/>
<path d="M278,138v -18" fill="none" stroke="#ff0099"/>
<path d="M273,139h 4" fill="none" stroke="#ff0099"/>
<path d="M279,139h 5" fill="none" stroke="#ff0099"/>
<g stroke="#ff0099" stroke-width="1" fill="#ff0099">
<circle cx=" 278" cy=" 139" r=" 1.5"/>
</g>
<path d="M289,171v -17" fill="none" stroke="#ff0099"/>
<path d="M289,152v -17" fill="none" stroke="#ff0099"/>
<path d="M284,153h 4" fill="none" stroke="#ff0099"/>
<path d="M291,153h 4" fill="none" stroke="#ff0099"/>
<g stroke="#ff0099" stroke-width="1" fill="#ff0099">
<circle cx=" 289" cy=" 153" r=" 1.5"/>
</g>
<path d="M300,203v -16" fill="none" stroke="#ff0099"/>
<path d="M300,185v -17" fill="none" stroke="#ff0099"/>
<path d="M295,186h 4" fill="none" stroke="#ff0099"/>
<path d="M302,186h 4" fill="none" stroke="#ff0099"/>
<g stroke="#ff0099" stroke-width="1" fill="#ff0099">
<circle cx=" 300" cy=" 186" r=" 1.5"/>
</g>
<path d="M312,266v -14" fill="none" stroke="#ff0099"/>
<path d="M312,250v -13" fill="none" stroke="#ff0099"/>
<path d="M306,251h 4" fill="none" stroke="#ff0099"/>
<path d="M313,251h 4" fill="none" stroke="#ff0099"/>
<g stroke="#ff0099" stroke-width="1" fill="#ff0099">
<circle cx=" 312" cy=" 251" r=" 1.5"/>
</g>
<path d="M323,263v -13" fill="none" stroke="#ff0099"/>
<path d="M323,248v -14" fill="none" stroke="#ff0099"/>
<path d="M317,249h 4" fill="none" stroke="#ff0099"/>
<path d="M324,249h 4" fill="none" stroke="#ff0099"/>
<g stroke="#ff0099" stroke-width="1" fill="#ff0099">
<circle cx=" 323" cy=" 249" r=" 1.5"/>
</g>
<path d="M334,289v -13" fill="none" stroke="#ff0099"/>
<path d="M334,273v -13" fill="none" stroke="#ff0099"/>
<path d="M328,275h 5" fill="none" stroke="#ff0099"/>
<path d="M335,275h 4" fill="none" stroke="#ff0099"/>
<g stroke="#ff0099" stroke-width="1" fill="#ff0099">
<circle cx=" 334" cy=" 275" r=" 1.5"/>
</g>
<path d="M345,350v -10" fill="none" stroke="#ff0099"/>
<path d="M345,338v -10" fill="none" stroke="#ff0099"/>
<path d="M339,339h 5" fill="none" stroke="#ff0099"/>
<path d="M346,339h 4" fill="none" stroke="#ff0099"/>
<g stroke="#ff0099" stroke-width="1" fill="#ff0099">
<circle cx=" 345" cy=" 339" r=" 1.5"/>
</g>
<path d="M356,333v -11" fill="none" stroke="#ff0099"/>
<path d="M356,320v -11" fill="none" stroke="#ff0099"/>
<path d="M350,321h 5" fill="none" stroke="#ff0099"/>
<path d="M357,321h 4" fill="none" stroke="#ff0099"/>
<g stroke="#ff0099" stroke-width="1" fill="#ff0099">
<circle cx=" 356" cy=" 321" r=" 1.5"/>
</g>
<path d="M367,354v -9" fill="none" stroke="#ff0099"/>
<path d="M367,343v -9" fill="none" stroke="#ff0099"/>
<path d="M361,344h 5" fill="none" stroke="#ff0099"/>
<path d="M368,344h 4" fill="none" stroke="#ff0099"/>
<g stroke="#ff0099" stroke-width="1" fill="#ff0099">
<circle cx=" 367" cy=" 344" r=" 1.5"/>
</g>
<path d="M378,376v -7" fill="none" stroke="#ff0099"/>
<path d="M378,367v -8" fill="none" stroke="#ff0099"/>
<path d="M372,368h 5" fill="none" stroke="#ff0099"/>
<path d="M379,368h 4" fill="none" stroke="#ff0099"/>
<g stroke="#ff0099" stroke-width="1" fill="#ff0099">
<circle cx=" 378" cy=" 368" r=" 1.5"/>
</g>
<path d="M389,381v -7" fill="none" stroke="#ff0099"/>
<path d="M389,372v -7" fill="none" stroke="#ff0099"/>
<path d="M383,373h 5" fill="none" stroke="#ff0099"/>
<path d="M390,373h 4" fill="none" stroke="#ff0099"/>
<g stroke="#ff0099" stroke-width="1" fill="#ff0099">
<circle cx=" 389" cy=" 373" r=" 1.5"/>
</g>
<path d="M400,393v -5" fill="none" stroke="#ff0099"/>
<path d="M400,385v -5" fill="none" stroke="#ff0099"/>
<path d="M394,386h 5" fill="none" stroke="#ff0099"/>
<path d="M401,386h 5" fill="none" stroke="#ff0099"/>
<g stroke="#ff0099" stroke-width="1" fill="#ff0099">
<circle cx=" 400" cy=" 386" r=" 1.5"/>
</g>
<path d="M411,412v -4" fill="none" stroke="#ff0099"/>
<path d="M411,406v -4" fill="none" stroke="#ff0099"/>
<path d="M406,407h 4" fill="none" stroke="#ff0099"/>
<path d="M412,407h 5" fill="none" stroke="#ff0099"/>
<g stroke="#ff0099" stroke-width="1" fill="#ff0099">
<circle cx=" 411" cy=" 407" r=" 1.5"/>
</g>
<path d="M422,417v -2" fill="none" stroke="#ff0099"/>
<path d="M422,412v -2" fill="none" stroke="#ff0099"/>
<path d="M417,414h 4" fill="none" stroke="#ff0099"/>
<path d="M423,414h 5" fill="none" stroke="#ff0099"/>
<g stroke="#ff0099" stroke-width="1" fill="#ff0099">
<circle cx=" 422" cy=" 414" r=" 1.5"/>
</g>
<path d="M433,419v -3" fill="none" stroke="#ff0099"/>
<path d="M433,413v -3" fill="none" stroke="#ff0099"/>
<path d="M428,415h 4" fill="none" stroke="#ff0099"/>
<path d="M434,415h 5" fill="none" stroke="#ff0099"/>
<g stroke="#ff0099" stroke-width="1" fill="#ff0099">
<circle cx=" 433" cy=" 415" r=" 1.5"/>
</g>
<path d="M444,418v -3" fill="none" stroke="#ff0099"/>
<path d="M444,413v -3" fill="none" stroke="#ff0099"/>
<path d="M439,414h 4" fill="none" stroke="#ff0099"/>
<path d="M445,414h 5" fill="none" stroke="#ff0099"/>
<g stroke="#ff0099" stroke-width="1" fill="#ff0099">
<circle cx=" 444" cy=" 414" r=" 1.5"/>
</g>
<path d="M455,420v -4" fill="none" stroke="#ff0099"/>
<path d="M455,413v -4" fill="none" stroke="#ff0099"/>
<path d="M450,414h 4" fill="none" stroke="#ff0099"/>
<path d="M456,414h 5" fill="none" stroke="#ff0099"/>
<g stroke="#ff0099" stroke-width="1" fill="#ff0099">
<circle cx=" 455" cy=" 414" r=" 1.5"/>
</g>
<path d="M466,425v -1" fill="none" stroke="#ff0099"/>
<path d="M466,422v -1" fill="none" stroke="#ff0099"/>
<path d="M461,423h 4" fill="none" stroke="#ff0099"/>
<path d="M468,423h 4" fill="none" stroke="#ff0099"/>
<g stroke="#ff0099" stroke-width="1" fill="#ff0099">
<circle cx=" 466" cy=" 423" r=" 1.5"/>
</g>
<path d="M472,427h 4" fill="none" stroke="#ff0099"/>
<path d="M479,427h 4" fill="none" stroke="#ff0099"/>
<g stroke="#ff0099" stroke-width="1" fill="#ff0099">
<circle cx=" 477" cy=" 427" r=" 1.5"/>
</g>
<path d="M489,428" fill="none" stroke="#ff0099"/>
<path d="M489,426" fill="none" stroke="#ff0099"/>
<path d="M483,427h 4" fill="none" stroke="#ff0099"/>
<path d="M490,427h 4" fill="none" stroke="#ff0099"/>
<g stroke="#ff0099" stroke-width="1" fill="#ff0099">
<circle cx=" 489" cy=" 427" r=" 1.5"/>
</g>
<path d="M500,428" fill="none" stroke="#ff0099"/>
<path d="M500,425" fill="none" stroke="#ff0099"/>
<path d="M494,426h 4" fill="none" stroke="#ff0099"/>
<path d="M501,426h 4" fill="none" stroke="#ff0099"/>
<g stroke="#ff0099" stroke-width="1" fill="#ff0099">
<circle cx=" 500" cy=" 426" r=" 1.5"/>
</g>
<path d="M505,428h 5" fill="none" stroke="#ff0099"/>
<path d="M512,428h 4" fill="none" stroke="#ff0099"/>
<g stroke="#ff0099" stroke-width="1" fill="#ff0099">
<circle cx=" 511" cy=" 428" r=" 1.5"/>
</g>
<path d="M516,428h 5" fill="none" stroke="#ff0099"/>
<path d="M523,428h 4" fill="none" stroke="#ff0099"/>
<g stroke="#ff0099" stroke-width="1" fill="#ff0099">
<circle cx=" 522" cy=" 428" r=" 1.5"/>
</g>
<rect x="357" y="59" width="142" height="99" fill="white"/>
<text x="360" y="82" fill="black" font-size="17" font-family="Helvetica" font-weight="bold">
EB
</text>
<text x="457" y="115" fill="black" font-size="17" font-family="Helvetica" font-weight="bold">
 ee
</text>
<text x="440" y="115" fill="black" font-size="17" font-family="Times">
&#8594;
</text>
<text x="392" y="115" fill="black" font-size="17" font-family="Helvetica" font-weight="bold">
MC Z 
</text>
<path d="M362,109h 25" fill="none" stroke="#ff0099"/>
<g stroke="#ff0099" stroke-width="1" fill="#ff0099">
<circle cx=" 375" cy=" 109" r=" 1.5"/>
</g>
<text x="455" y="147" fill="black" font-size="17" font-family="Helvetica" font-weight="bold">
 + jet
</text>
<text x="447" y="147" fill="black" font-size="17" font-family="Times">
&#0947;
</text>
<text x="392" y="147" fill="black" font-size="17" font-family="Helvetica" font-weight="bold">
signal 
</text>
<path d="M362,154h 25v -24h -25z" fill="#99ff99"/>
<path d="M362,130h 25" fill="none" stroke="#99ff99" stroke-width="2"/>
<path d="M362,154h 25" fill="none" stroke="#99ff99" stroke-width="2"/>
<path d="M387,154v -24" fill="none" stroke="#99ff99" stroke-width="2"/>
<path d="M362,154v -24" fill="none" stroke="#99ff99" stroke-width="2"/>
<text x="300" y="34" fill="black" font-size="17" font-family="Helvetica" font-weight="bold">
=8 TeV
</text>
<text x="291" y="34" fill="black" font-size="17" font-family="Helvetica" font-weight="bold">
s
</text>
<path d="M285,25l 2, 10" fill="none" stroke="black" stroke-width="2"/>
<path d="M287,35l 2, -14" fill="none" stroke="black"/>
<path d="M289,21h 11" fill="none" stroke="black"/>
<text x="142" y="34" fill="black" font-size="17" font-family="Helvetica" font-weight="bold">
CMS Preliminary 
</text></svg>
