<?xml version="1.0" standalone="no"?>
<svg width="567" height="496" viewBox="0 0 567 496" xmlns="http://www.w3.org/2000/svg">
<title>
../src/TagAndProbeZ/plots_mcZee_mcGJet_withEtaR9nvtxReweight/hlt90/ptPhotAll_log.svg
</title>
<desc>
Creator: ROOT Version 5.32/00
CreationDate: Sun Sep 28 15:21:25 2014</desc>
<defs>
</defs>
<rect x="0" y="0" width="567" height="496" fill="white"/>
<rect x="0" y="0" width="567" height="347" fill="white"/>
<rect x="57" y="34" width="453" height="278" fill="white"/>
<rect x="57" y="34" width="453" height="278" fill="none" stroke="black"/>
<rect x="57" y="34" width="453" height="278" fill="white"/>
<rect x="57" y="34" width="453" height="278" fill="none" stroke="black"/>
<path d="M215,75h 3" fill="none" stroke="#ff0099"/>
<path d="M220,75h 3" fill="none" stroke="#ff0099"/>
<g stroke="#ff0099" stroke-width="1" fill="#ff0099">
<circle cx=" 219" cy=" 75" r=" 1.5"/>
</g>
<path d="M223,82h 3" fill="none" stroke="#ff0099"/>
<path d="M228,82h 3" fill="none" stroke="#ff0099"/>
<g stroke="#ff0099" stroke-width="1" fill="#ff0099">
<circle cx=" 227" cy=" 82" r=" 1.5"/>
</g>
<path d="M231,85h 2" fill="none" stroke="#ff0099"/>
<path d="M235,85h 3" fill="none" stroke="#ff0099"/>
<g stroke="#ff0099" stroke-width="1" fill="#ff0099">
<circle cx=" 234" cy=" 85" r=" 1.5"/>
</g>
<path d="M238,91h 3" fill="none" stroke="#ff0099"/>
<path d="M243,91h 3" fill="none" stroke="#ff0099"/>
<g stroke="#ff0099" stroke-width="1" fill="#ff0099">
<circle cx=" 242" cy=" 91" r=" 1.5"/>
</g>
<path d="M246,95h 2" fill="none" stroke="#ff0099"/>
<path d="M251,95h 2" fill="none" stroke="#ff0099"/>
<g stroke="#ff0099" stroke-width="1" fill="#ff0099">
<circle cx=" 249" cy=" 95" r=" 1.5"/>
</g>
<path d="M253,98h 3" fill="none" stroke="#ff0099"/>
<path d="M258,98h 3" fill="none" stroke="#ff0099"/>
<g stroke="#ff0099" stroke-width="1" fill="#ff0099">
<circle cx=" 257" cy=" 98" r=" 1.5"/>
</g>
<path d="M261,101h 2" fill="none" stroke="#ff0099"/>
<path d="M266,101h 2" fill="none" stroke="#ff0099"/>
<g stroke="#ff0099" stroke-width="1" fill="#ff0099">
<circle cx=" 265" cy=" 101" r=" 1.5"/>
</g>
<path d="M268,105h 3" fill="none" stroke="#ff0099"/>
<path d="M273,105h 3" fill="none" stroke="#ff0099"/>
<g stroke="#ff0099" stroke-width="1" fill="#ff0099">
<circle cx=" 272" cy=" 105" r=" 1.5"/>
</g>
<path d="M280,110" fill="none" stroke="#ff0099"/>
<path d="M280,108" fill="none" stroke="#ff0099"/>
<path d="M276,109h 3" fill="none" stroke="#ff0099"/>
<path d="M281,109h 2" fill="none" stroke="#ff0099"/>
<g stroke="#ff0099" stroke-width="1" fill="#ff0099">
<circle cx=" 280" cy=" 109" r=" 1.5"/>
</g>
<path d="M287,115" fill="none" stroke="#ff0099"/>
<path d="M287,113" fill="none" stroke="#ff0099"/>
<path d="M283,114h 3" fill="none" stroke="#ff0099"/>
<path d="M288,114h 3" fill="none" stroke="#ff0099"/>
<g stroke="#ff0099" stroke-width="1" fill="#ff0099">
<circle cx=" 287" cy=" 114" r=" 1.5"/>
</g>
<path d="M295,119v -1" fill="none" stroke="#ff0099"/>
<path d="M295,116" fill="none" stroke="#ff0099"/>
<path d="M291,117h 3" fill="none" stroke="#ff0099"/>
<path d="M296,117h 3" fill="none" stroke="#ff0099"/>
<g stroke="#ff0099" stroke-width="1" fill="#ff0099">
<circle cx=" 295" cy=" 117" r=" 1.5"/>
</g>
<path d="M302,122" fill="none" stroke="#ff0099"/>
<path d="M302,120v -1" fill="none" stroke="#ff0099"/>
<path d="M299,121h 2" fill="none" stroke="#ff0099"/>
<path d="M304,121h 2" fill="none" stroke="#ff0099"/>
<g stroke="#ff0099" stroke-width="1" fill="#ff0099">
<circle cx=" 302" cy=" 121" r=" 1.5"/>
</g>
<path d="M57,312h 453" fill="none" stroke="black"/>
<text x="472" y="336" fill="black" font-size="13" font-family="Helvetica" font-weight="bold">
 (GeV)
</text>
<text x="467" y="343" fill="black" font-size="9" font-family="Helvetica" font-weight="bold">
T
</text>
<text x="455" y="336" fill="black" font-size="13" font-family="Helvetica" font-weight="bold">
 p
</text>
<text x="449" y="336" fill="black" font-size="13" font-family="Times">
&#0947;
</text>
<path d="M57,304v 8" fill="none" stroke="black"/>
<path d="M72,308v 4" fill="none" stroke="black"/>
<path d="M87,308v 4" fill="none" stroke="black"/>
<path d="M102,308v 4" fill="none" stroke="black"/>
<path d="M117,308v 4" fill="none" stroke="black"/>
<path d="M132,304v 8" fill="none" stroke="black"/>
<path d="M147,308v 4" fill="none" stroke="black"/>
<path d="M163,308v 4" fill="none" stroke="black"/>
<path d="M178,308v 4" fill="none" stroke="black"/>
<path d="M193,308v 4" fill="none" stroke="black"/>
<path d="M208,304v 8" fill="none" stroke="black"/>
<path d="M223,308v 4" fill="none" stroke="black"/>
<path d="M238,308v 4" fill="none" stroke="black"/>
<path d="M253,308v 4" fill="none" stroke="black"/>
<path d="M268,308v 4" fill="none" stroke="black"/>
<path d="M283,304v 8" fill="none" stroke="black"/>
<path d="M299,308v 4" fill="none" stroke="black"/>
<path d="M314,308v 4" fill="none" stroke="black"/>
<path d="M329,308v 4" fill="none" stroke="black"/>
<path d="M344,308v 4" fill="none" stroke="black"/>
<path d="M359,304v 8" fill="none" stroke="black"/>
<path d="M374,308v 4" fill="none" stroke="black"/>
<path d="M389,308v 4" fill="none" stroke="black"/>
<path d="M404,308v 4" fill="none" stroke="black"/>
<path d="M420,308v 4" fill="none" stroke="black"/>
<path d="M435,304v 8" fill="none" stroke="black"/>
<path d="M450,308v 4" fill="none" stroke="black"/>
<path d="M465,308v 4" fill="none" stroke="black"/>
<path d="M480,308v 4" fill="none" stroke="black"/>
<path d="M495,308v 4" fill="none" stroke="black"/>
<path d="M510,304v 8" fill="none" stroke="black"/>
<text x="53" y="325" fill="black" font-size="13" font-family="Helvetica" font-weight="bold">
0
</text>
<text x="125" y="325" fill="black" font-size="13" font-family="Helvetica" font-weight="bold">
50
</text>
<text x="197" y="325" fill="black" font-size="13" font-family="Helvetica" font-weight="bold">
100
</text>
<text x="273" y="325" fill="black" font-size="13" font-family="Helvetica" font-weight="bold">
150
</text>
<text x="348" y="325" fill="black" font-size="13" font-family="Helvetica" font-weight="bold">
200
</text>
<text x="423" y="325" fill="black" font-size="13" font-family="Helvetica" font-weight="bold">
250
</text>
<text x="499" y="325" fill="black" font-size="13" font-family="Helvetica" font-weight="bold">
300
</text>
<path d="M57,312v -278" fill="none" stroke="black"/>
<g transform="rotate(-90,28,100)">
<text x="28" y="100" fill="black" font-size="13" font-family="Helvetica" font-weight="bold">
Entries/5.0
</text>
</g>
<path d="M63,312h -6" fill="none" stroke="black"/>
<path d="M70,309h -13" fill="none" stroke="black"/>
<text x="44" y="309" fill="black" font-size="9" font-family="Helvetica" font-weight="bold">
-5
</text>
<text x="30" y="316" fill="black" font-size="13" font-family="Helvetica" font-weight="bold">
10
</text>
<path d="M63,293h -6" fill="none" stroke="black"/>
<path d="M63,283h -6" fill="none" stroke="black"/>
<path d="M63,277h -6" fill="none" stroke="black"/>
<path d="M63,271h -6" fill="none" stroke="black"/>
<path d="M63,267h -6" fill="none" stroke="black"/>
<path d="M63,263h -6" fill="none" stroke="black"/>
<path d="M63,260h -6" fill="none" stroke="black"/>
<path d="M63,257h -6" fill="none" stroke="black"/>
<path d="M70,255h -13" fill="none" stroke="black"/>
<text x="44" y="255" fill="black" font-size="9" font-family="Helvetica" font-weight="bold">
-4
</text>
<text x="30" y="261" fill="black" font-size="13" font-family="Helvetica" font-weight="bold">
10
</text>
<path d="M63,238h -6" fill="none" stroke="black"/>
<path d="M63,229h -6" fill="none" stroke="black"/>
<path d="M63,222h -6" fill="none" stroke="black"/>
<path d="M63,217h -6" fill="none" stroke="black"/>
<path d="M63,212h -6" fill="none" stroke="black"/>
<path d="M63,209h -6" fill="none" stroke="black"/>
<path d="M63,206h -6" fill="none" stroke="black"/>
<path d="M63,203h -6" fill="none" stroke="black"/>
<path d="M70,200h -13" fill="none" stroke="black"/>
<text x="44" y="199" fill="black" font-size="9" font-family="Helvetica" font-weight="bold">
-3
</text>
<text x="30" y="206" fill="black" font-size="13" font-family="Helvetica" font-weight="bold">
10
</text>
<path d="M63,184h -6" fill="none" stroke="black"/>
<path d="M63,174h -6" fill="none" stroke="black"/>
<path d="M63,167h -6" fill="none" stroke="black"/>
<path d="M63,162h -6" fill="none" stroke="black"/>
<path d="M63,158h -6" fill="none" stroke="black"/>
<path d="M63,154h -6" fill="none" stroke="black"/>
<path d="M63,151h -6" fill="none" stroke="black"/>
<path d="M63,148h -6" fill="none" stroke="black"/>
<path d="M70,146h -13" fill="none" stroke="black"/>
<text x="44" y="145" fill="black" font-size="9" font-family="Helvetica" font-weight="bold">
-2
</text>
<text x="30" y="152" fill="black" font-size="13" font-family="Helvetica" font-weight="bold">
10
</text>
<path d="M63,129h -6" fill="none" stroke="black"/>
<path d="M63,120h -6" fill="none" stroke="black"/>
<path d="M63,113h -6" fill="none" stroke="black"/>
<path d="M63,108h -6" fill="none" stroke="black"/>
<path d="M63,103h -6" fill="none" stroke="black"/>
<path d="M63,100h -6" fill="none" stroke="black"/>
<path d="M63,96h -6" fill="none" stroke="black"/>
<path d="M63,94h -6" fill="none" stroke="black"/>
<path d="M70,91h -13" fill="none" stroke="black"/>
<text x="46" y="91" fill="black" font-size="9" font-family="Helvetica" font-weight="bold">
-1
</text>
<text x="31" y="97" fill="black" font-size="13" font-family="Helvetica" font-weight="bold">
10
</text>
<path d="M63,75h -6" fill="none" stroke="black"/>
<path d="M63,65h -6" fill="none" stroke="black"/>
<path d="M63,58h -6" fill="none" stroke="black"/>
<path d="M63,53h -6" fill="none" stroke="black"/>
<path d="M63,49h -6" fill="none" stroke="black"/>
<path d="M63,45h -6" fill="none" stroke="black"/>
<path d="M63,42h -6" fill="none" stroke="black"/>
<path d="M63,39h -6" fill="none" stroke="black"/>
<path d="M70,37h -13" fill="none" stroke="black"/>
<text x="52" y="43" text-anchor="end" fill="black" font-size="13" font-family="Helvetica" font-weight="bold">
1
</text>
<path d="M219,75" fill="none" stroke="#99ff99" stroke-width="2"/>
<path d="M219,75v -1" fill="none" stroke="#99ff99" stroke-width="2"/>
<g stroke="black" stroke-width="2" fill="none">
<line x1="218" y1="75" x2="219" y2="75"/>
</g>
<path d="M227,80" fill="none" stroke="#99ff99" stroke-width="2"/>
<path d="M227,80" fill="none" stroke="#99ff99" stroke-width="2"/>
<g stroke="black" stroke-width="2" fill="none">
<line x1="226" y1="80" x2="227" y2="80"/>
</g>
<path d="M234,85" fill="none" stroke="#99ff99" stroke-width="2"/>
<path d="M234,85" fill="none" stroke="#99ff99" stroke-width="2"/>
<g stroke="black" stroke-width="2" fill="none">
<line x1="233" y1="85" x2="234" y2="85"/>
</g>
<path d="M242,90" fill="none" stroke="#99ff99" stroke-width="2"/>
<path d="M242,90" fill="none" stroke="#99ff99" stroke-width="2"/>
<g stroke="black" stroke-width="2" fill="none">
<line x1="241" y1="90" x2="242" y2="90"/>
</g>
<path d="M249,95v -1" fill="none" stroke="#99ff99" stroke-width="2"/>
<path d="M249,94" fill="none" stroke="#99ff99" stroke-width="2"/>
<g stroke="black" stroke-width="2" fill="none">
<line x1="248" y1="94" x2="249" y2="94"/>
</g>
<path d="M257,99" fill="none" stroke="#99ff99" stroke-width="2"/>
<path d="M257,99" fill="none" stroke="#99ff99" stroke-width="2"/>
<g stroke="black" stroke-width="2" fill="none">
<line x1="256" y1="99" x2="257" y2="99"/>
</g>
<path d="M265,103" fill="none" stroke="#99ff99" stroke-width="2"/>
<path d="M265,103" fill="none" stroke="#99ff99" stroke-width="2"/>
<g stroke="black" stroke-width="2" fill="none">
<line x1="264" y1="103" x2="265" y2="103"/>
</g>
<path d="M272,108v -1" fill="none" stroke="#99ff99" stroke-width="2"/>
<path d="M272,107" fill="none" stroke="#99ff99" stroke-width="2"/>
<g stroke="black" stroke-width="2" fill="none">
<line x1="271" y1="107" x2="272" y2="107"/>
</g>
<path d="M280,112" fill="none" stroke="#99ff99" stroke-width="2"/>
<path d="M280,112" fill="none" stroke="#99ff99" stroke-width="2"/>
<g stroke="black" stroke-width="2" fill="none">
<line x1="279" y1="112" x2="280" y2="112"/>
</g>
<path d="M287,116" fill="none" stroke="#99ff99" stroke-width="2"/>
<path d="M287,116v -1" fill="none" stroke="#99ff99" stroke-width="2"/>
<g stroke="black" stroke-width="2" fill="none">
<line x1="286" y1="116" x2="287" y2="116"/>
</g>
<path d="M295,120v -1" fill="none" stroke="#99ff99" stroke-width="2"/>
<path d="M295,119" fill="none" stroke="#99ff99" stroke-width="2"/>
<g stroke="black" stroke-width="2" fill="none">
<line x1="294" y1="119" x2="295" y2="119"/>
</g>
<path d="M302,123" fill="none" stroke="#99ff99" stroke-width="2"/>
<path d="M302,123" fill="none" stroke="#99ff99" stroke-width="2"/>
<g stroke="black" stroke-width="2" fill="none">
<line x1="301" y1="123" x2="302" y2="123"/>
</g>
<path d="M57,312h 158v -237h 8v 5h 8v 5h 7v 5h 8v 4h 7v 5h 8v 4h 7v 4h 8v 5h 7v 4h 8v 3h 8v 4h 7v 189h 204z" fill="#99ff99"/>
<path d="M57,312h 158v -237h 8v 5h 8v 5h 7v 5h 8v 4h 7v 5h 8v 4h 7v 4h 8v 5h 7v 4h 8v 3h 8v 4h 7v 189h 204" fill="none" stroke="#99ff99" stroke-width="2"/>
<path d="M215,75h 3" fill="none" stroke="#ff0099"/>
<path d="M220,75h 3" fill="none" stroke="#ff0099"/>
<g stroke="#ff0099" stroke-width="1" fill="#ff0099">
<circle cx=" 219" cy=" 75" r=" 1.5"/>
</g>
<path d="M223,82h 3" fill="none" stroke="#ff0099"/>
<path d="M228,82h 3" fill="none" stroke="#ff0099"/>
<g stroke="#ff0099" stroke-width="1" fill="#ff0099">
<circle cx=" 227" cy=" 82" r=" 1.5"/>
</g>
<path d="M231,85h 2" fill="none" stroke="#ff0099"/>
<path d="M235,85h 3" fill="none" stroke="#ff0099"/>
<g stroke="#ff0099" stroke-width="1" fill="#ff0099">
<circle cx=" 234" cy=" 85" r=" 1.5"/>
</g>
<path d="M238,91h 3" fill="none" stroke="#ff0099"/>
<path d="M243,91h 3" fill="none" stroke="#ff0099"/>
<g stroke="#ff0099" stroke-width="1" fill="#ff0099">
<circle cx=" 242" cy=" 91" r=" 1.5"/>
</g>
<path d="M246,95h 2" fill="none" stroke="#ff0099"/>
<path d="M251,95h 2" fill="none" stroke="#ff0099"/>
<g stroke="#ff0099" stroke-width="1" fill="#ff0099">
<circle cx=" 249" cy=" 95" r=" 1.5"/>
</g>
<path d="M253,98h 3" fill="none" stroke="#ff0099"/>
<path d="M258,98h 3" fill="none" stroke="#ff0099"/>
<g stroke="#ff0099" stroke-width="1" fill="#ff0099">
<circle cx=" 257" cy=" 98" r=" 1.5"/>
</g>
<path d="M261,101h 2" fill="none" stroke="#ff0099"/>
<path d="M266,101h 2" fill="none" stroke="#ff0099"/>
<g stroke="#ff0099" stroke-width="1" fill="#ff0099">
<circle cx=" 265" cy=" 101" r=" 1.5"/>
</g>
<path d="M268,105h 3" fill="none" stroke="#ff0099"/>
<path d="M273,105h 3" fill="none" stroke="#ff0099"/>
<g stroke="#ff0099" stroke-width="1" fill="#ff0099">
<circle cx=" 272" cy=" 105" r=" 1.5"/>
</g>
<path d="M280,110" fill="none" stroke="#ff0099"/>
<path d="M280,108" fill="none" stroke="#ff0099"/>
<path d="M276,109h 3" fill="none" stroke="#ff0099"/>
<path d="M281,109h 2" fill="none" stroke="#ff0099"/>
<g stroke="#ff0099" stroke-width="1" fill="#ff0099">
<circle cx=" 280" cy=" 109" r=" 1.5"/>
</g>
<path d="M287,115" fill="none" stroke="#ff0099"/>
<path d="M287,113" fill="none" stroke="#ff0099"/>
<path d="M283,114h 3" fill="none" stroke="#ff0099"/>
<path d="M288,114h 3" fill="none" stroke="#ff0099"/>
<g stroke="#ff0099" stroke-width="1" fill="#ff0099">
<circle cx=" 287" cy=" 114" r=" 1.5"/>
</g>
<path d="M295,119v -1" fill="none" stroke="#ff0099"/>
<path d="M295,116" fill="none" stroke="#ff0099"/>
<path d="M291,117h 3" fill="none" stroke="#ff0099"/>
<path d="M296,117h 3" fill="none" stroke="#ff0099"/>
<g stroke="#ff0099" stroke-width="1" fill="#ff0099">
<circle cx=" 295" cy=" 117" r=" 1.5"/>
</g>
<path d="M302,122" fill="none" stroke="#ff0099"/>
<path d="M302,120v -1" fill="none" stroke="#ff0099"/>
<path d="M299,121h 2" fill="none" stroke="#ff0099"/>
<path d="M304,121h 2" fill="none" stroke="#ff0099"/>
<g stroke="#ff0099" stroke-width="1" fill="#ff0099">
<circle cx=" 302" cy=" 121" r=" 1.5"/>
</g>
<rect x="357" y="41" width="142" height="70" fill="white"/>
<text x="360" y="58" fill="black" font-size="12" font-family="Helvetica" font-weight="bold">
All
</text>
<text x="439" y="81" fill="black" font-size="12" font-family="Helvetica" font-weight="bold">
 ee
</text>
<text x="426" y="81" fill="black" font-size="12" font-family="Times">
&#8594;
</text>
<text x="392" y="81" fill="black" font-size="12" font-family="Helvetica" font-weight="bold">
MC Z 
</text>
<path d="M362,76h 25" fill="none" stroke="#ff0099"/>
<g stroke="#ff0099" stroke-width="1" fill="#ff0099">
<circle cx=" 375" cy=" 76" r=" 1.5"/>
</g>
<text x="438" y="102" fill="black" font-size="12" font-family="Helvetica" font-weight="bold">
 + jet
</text>
<text x="431" y="102" fill="black" font-size="12" font-family="Times">
&#0947;
</text>
<text x="392" y="102" fill="black" font-size="12" font-family="Helvetica" font-weight="bold">
signal 
</text>
<path d="M362,107h 25v -16h -25z" fill="#99ff99"/>
<path d="M362,91h 25" fill="none" stroke="#99ff99" stroke-width="2"/>
<path d="M362,107h 25" fill="none" stroke="#99ff99" stroke-width="2"/>
<path d="M387,107v -16" fill="none" stroke="#99ff99" stroke-width="2"/>
<path d="M362,107v -16" fill="none" stroke="#99ff99" stroke-width="2"/>
<text x="252" y="24" fill="black" font-size="12" font-family="Helvetica" font-weight="bold">
=8 TeV
</text>
<text x="246" y="24" fill="black" font-size="12" font-family="Helvetica" font-weight="bold">
s
</text>
<path d="M242,17l 1, 8" fill="none" stroke="black" stroke-width="2"/>
<path d="M243,25l 2, -11" fill="none" stroke="black"/>
<path d="M245,14h 7" fill="none" stroke="black"/>
<text x="142" y="24" fill="black" font-size="12" font-family="Helvetica" font-weight="bold">
CMS Preliminary 
</text>
<rect x="0" y="347" width="567" height="149" fill="white"/>
<rect x="57" y="362" width="453" height="104" fill="white"/>
<rect x="57" y="362" width="453" height="104" fill="none" stroke="black"/>
<rect x="57" y="362" width="453" height="104" fill="white"/>
<rect x="57" y="362" width="453" height="104" fill="none" stroke="black"/>
<path d="M57,466h 453" fill="none" stroke="black"/>
<path d="M57,466v -104" fill="none" stroke="black"/>
<path d="M510,455h -453" fill="none" stroke="black" stroke-dasharray=" 1, 2"/>
<path d="M510,436h -453" fill="none" stroke="black" stroke-dasharray=" 1, 2"/>
<path d="M510,418h -453" fill="none" stroke="black" stroke-dasharray=" 1, 2"/>
<path d="M510,399h -453" fill="none" stroke="black" stroke-dasharray=" 1, 2"/>
<path d="M510,381h -453" fill="none" stroke="black" stroke-dasharray=" 1, 2"/>
<path d="M510,362h -453" fill="none" stroke="black" stroke-dasharray=" 1, 2"/>
<path d="M510,455h -453" fill="none" stroke="black" stroke-dasharray=" 1, 2"/>
<path d="M215,437h 3" fill="none" stroke="#ff0099"/>
<path d="M220,437h 3" fill="none" stroke="#ff0099"/>
<g stroke="#ff0099" stroke-width="1" fill="#ff0099">
<circle cx=" 219" cy=" 437" r=" 1.5"/>
</g>
<path d="M223,440h 3" fill="none" stroke="#ff0099"/>
<path d="M228,440h 3" fill="none" stroke="#ff0099"/>
<g stroke="#ff0099" stroke-width="1" fill="#ff0099">
<circle cx=" 227" cy=" 440" r=" 1.5"/>
</g>
<path d="M231,437h 2" fill="none" stroke="#ff0099"/>
<path d="M235,437h 3" fill="none" stroke="#ff0099"/>
<g stroke="#ff0099" stroke-width="1" fill="#ff0099">
<circle cx=" 234" cy=" 437" r=" 1.5"/>
</g>
<path d="M242,440" fill="none" stroke="#ff0099"/>
<path d="M242,437" fill="none" stroke="#ff0099"/>
<path d="M238,439h 3" fill="none" stroke="#ff0099"/>
<path d="M243,439h 3" fill="none" stroke="#ff0099"/>
<g stroke="#ff0099" stroke-width="1" fill="#ff0099">
<circle cx=" 242" cy=" 439" r=" 1.5"/>
</g>
<path d="M249,439" fill="none" stroke="#ff0099"/>
<path d="M249,436" fill="none" stroke="#ff0099"/>
<path d="M246,437h 2" fill="none" stroke="#ff0099"/>
<path d="M251,437h 2" fill="none" stroke="#ff0099"/>
<g stroke="#ff0099" stroke-width="1" fill="#ff0099">
<circle cx=" 249" cy=" 437" r=" 1.5"/>
</g>
<path d="M257,436" fill="none" stroke="#ff0099"/>
<path d="M257,433" fill="none" stroke="#ff0099"/>
<path d="M253,434h 3" fill="none" stroke="#ff0099"/>
<path d="M258,434h 3" fill="none" stroke="#ff0099"/>
<g stroke="#ff0099" stroke-width="1" fill="#ff0099">
<circle cx=" 257" cy=" 434" r=" 1.5"/>
</g>
<path d="M265,435" fill="none" stroke="#ff0099"/>
<path d="M265,432" fill="none" stroke="#ff0099"/>
<path d="M261,433h 2" fill="none" stroke="#ff0099"/>
<path d="M266,433h 2" fill="none" stroke="#ff0099"/>
<g stroke="#ff0099" stroke-width="1" fill="#ff0099">
<circle cx=" 265" cy=" 433" r=" 1.5"/>
</g>
<path d="M272,434" fill="none" stroke="#ff0099"/>
<path d="M272,431" fill="none" stroke="#ff0099"/>
<path d="M268,433h 3" fill="none" stroke="#ff0099"/>
<path d="M273,433h 3" fill="none" stroke="#ff0099"/>
<g stroke="#ff0099" stroke-width="1" fill="#ff0099">
<circle cx=" 272" cy=" 433" r=" 1.5"/>
</g>
<path d="M280,434v -1" fill="none" stroke="#ff0099"/>
<path d="M280,430v -1" fill="none" stroke="#ff0099"/>
<path d="M276,432h 3" fill="none" stroke="#ff0099"/>
<path d="M281,432h 2" fill="none" stroke="#ff0099"/>
<g stroke="#ff0099" stroke-width="1" fill="#ff0099">
<circle cx=" 280" cy=" 432" r=" 1.5"/>
</g>
<path d="M287,436v -1" fill="none" stroke="#ff0099"/>
<path d="M287,432v -1" fill="none" stroke="#ff0099"/>
<path d="M283,433h 3" fill="none" stroke="#ff0099"/>
<path d="M288,433h 3" fill="none" stroke="#ff0099"/>
<g stroke="#ff0099" stroke-width="1" fill="#ff0099">
<circle cx=" 287" cy=" 433" r=" 1.5"/>
</g>
<path d="M295,435v -1" fill="none" stroke="#ff0099"/>
<path d="M295,432v -1" fill="none" stroke="#ff0099"/>
<path d="M291,433h 3" fill="none" stroke="#ff0099"/>
<path d="M296,433h 3" fill="none" stroke="#ff0099"/>
<g stroke="#ff0099" stroke-width="1" fill="#ff0099">
<circle cx=" 295" cy=" 433" r=" 1.5"/>
</g>
<path d="M302,436v -2" fill="none" stroke="#ff0099"/>
<path d="M302,432v -2" fill="none" stroke="#ff0099"/>
<path d="M299,433h 2" fill="none" stroke="#ff0099"/>
<path d="M304,433h 2" fill="none" stroke="#ff0099"/>
<g stroke="#ff0099" stroke-width="1" fill="#ff0099">
<circle cx=" 302" cy=" 433" r=" 1.5"/>
</g>
<path d="M57,466h 453" fill="none" stroke="black"/>
<text x="479" y="486" fill="black" font-size="11" font-family="Helvetica" font-weight="bold">
 (GeV)
</text>
<text x="474" y="493" fill="black" font-size="7" font-family="Helvetica" font-weight="bold">
T
</text>
<text x="464" y="486" fill="black" font-size="11" font-family="Helvetica" font-weight="bold">
 p
</text>
<text x="459" y="486" fill="black" font-size="11" font-family="Times">
&#0947;
</text>
<path d="M57,463v 3" fill="none" stroke="black"/>
<path d="M72,464v 2" fill="none" stroke="black"/>
<path d="M87,464v 2" fill="none" stroke="black"/>
<path d="M102,464v 2" fill="none" stroke="black"/>
<path d="M117,464v 2" fill="none" stroke="black"/>
<path d="M132,463v 3" fill="none" stroke="black"/>
<path d="M147,464v 2" fill="none" stroke="black"/>
<path d="M163,464v 2" fill="none" stroke="black"/>
<path d="M178,464v 2" fill="none" stroke="black"/>
<path d="M193,464v 2" fill="none" stroke="black"/>
<path d="M208,463v 3" fill="none" stroke="black"/>
<path d="M223,464v 2" fill="none" stroke="black"/>
<path d="M238,464v 2" fill="none" stroke="black"/>
<path d="M253,464v 2" fill="none" stroke="black"/>
<path d="M268,464v 2" fill="none" stroke="black"/>
<path d="M283,463v 3" fill="none" stroke="black"/>
<path d="M299,464v 2" fill="none" stroke="black"/>
<path d="M314,464v 2" fill="none" stroke="black"/>
<path d="M329,464v 2" fill="none" stroke="black"/>
<path d="M344,464v 2" fill="none" stroke="black"/>
<path d="M359,463v 3" fill="none" stroke="black"/>
<path d="M374,464v 2" fill="none" stroke="black"/>
<path d="M389,464v 2" fill="none" stroke="black"/>
<path d="M404,464v 2" fill="none" stroke="black"/>
<path d="M420,464v 2" fill="none" stroke="black"/>
<path d="M435,463v 3" fill="none" stroke="black"/>
<path d="M450,464v 2" fill="none" stroke="black"/>
<path d="M465,464v 2" fill="none" stroke="black"/>
<path d="M480,464v 2" fill="none" stroke="black"/>
<path d="M495,464v 2" fill="none" stroke="black"/>
<path d="M510,463v 3" fill="none" stroke="black"/>
<text x="54" y="475" fill="black" font-size="10" font-family="Helvetica" font-weight="bold">
0
</text>
<text x="126" y="475" fill="black" font-size="10" font-family="Helvetica" font-weight="bold">
50
</text>
<text x="200" y="475" fill="black" font-size="10" font-family="Helvetica" font-weight="bold">
100
</text>
<text x="275" y="475" fill="black" font-size="10" font-family="Helvetica" font-weight="bold">
150
</text>
<text x="351" y="475" fill="black" font-size="10" font-family="Helvetica" font-weight="bold">
200
</text>
<text x="426" y="475" fill="black" font-size="10" font-family="Helvetica" font-weight="bold">
250
</text>
<text x="502" y="475" fill="black" font-size="10" font-family="Helvetica" font-weight="bold">
300
</text>
<path d="M57,466v -104" fill="none" stroke="black"/>
<g transform="rotate(-90,34,365)">
<text x="34" y="365" fill="black" font-size="11" font-family="Helvetica" font-weight="bold">
)
</text>
</g>
<g transform="rotate(-90,34,371)">
<text x="34" y="371" fill="black" font-size="11" font-family="Times">
&#0947;
</text>
</g>
<g transform="rotate(-90,34,424)">
<text x="34" y="424" fill="black" font-size="11" font-family="Helvetica" font-weight="bold">
MC(e)/MC(
</text>
</g>
<path d="M69,455h -12" fill="none" stroke="black"/>
<path d="M63,451h -6" fill="none" stroke="black"/>
<path d="M63,448h -6" fill="none" stroke="black"/>
<path d="M63,444h -6" fill="none" stroke="black"/>
<path d="M63,440h -6" fill="none" stroke="black"/>
<path d="M69,436h -12" fill="none" stroke="black"/>
<path d="M63,433h -6" fill="none" stroke="black"/>
<path d="M63,429h -6" fill="none" stroke="black"/>
<path d="M63,425h -6" fill="none" stroke="black"/>
<path d="M63,422h -6" fill="none" stroke="black"/>
<path d="M69,418h -12" fill="none" stroke="black"/>
<path d="M63,414h -6" fill="none" stroke="black"/>
<path d="M63,410h -6" fill="none" stroke="black"/>
<path d="M63,407h -6" fill="none" stroke="black"/>
<path d="M63,403h -6" fill="none" stroke="black"/>
<path d="M69,399h -12" fill="none" stroke="black"/>
<path d="M63,395h -6" fill="none" stroke="black"/>
<path d="M63,392h -6" fill="none" stroke="black"/>
<path d="M63,388h -6" fill="none" stroke="black"/>
<path d="M63,384h -6" fill="none" stroke="black"/>
<path d="M69,381h -12" fill="none" stroke="black"/>
<path d="M63,377h -6" fill="none" stroke="black"/>
<path d="M63,373h -6" fill="none" stroke="black"/>
<path d="M63,369h -6" fill="none" stroke="black"/>
<path d="M63,366h -6" fill="none" stroke="black"/>
<path d="M69,362h -12" fill="none" stroke="black"/>
<path d="M69,455h -12" fill="none" stroke="black"/>
<path d="M63,459h -6" fill="none" stroke="black"/>
<path d="M63,462h -6" fill="none" stroke="black"/>
<path d="M63,466h -6" fill="none" stroke="black"/>
<text x="40" y="459" fill="black" font-size="10" font-family="Helvetica" font-weight="bold">
0.5
</text>
<text x="50" y="440" fill="black" font-size="10" font-family="Helvetica" font-weight="bold">
1
</text>
<text x="40" y="421" fill="black" font-size="10" font-family="Helvetica" font-weight="bold">
1.5
</text>
<text x="48" y="403" fill="black" font-size="10" font-family="Helvetica" font-weight="bold">
2
</text>
<text x="40" y="384" fill="black" font-size="10" font-family="Helvetica" font-weight="bold">
2.5
</text>
<text x="48" y="366" fill="black" font-size="10" font-family="Helvetica" font-weight="bold">
3
</text>
<path d="M57,436h 453" fill="none" stroke="#0000ff" stroke-width="2"/>
<path d="M215,437h 3" fill="none" stroke="#ff0099"/>
<path d="M220,437h 3" fill="none" stroke="#ff0099"/>
<g stroke="#ff0099" stroke-width="1" fill="#ff0099">
<circle cx=" 219" cy=" 437" r=" 1.5"/>
</g>
<path d="M223,440h 3" fill="none" stroke="#ff0099"/>
<path d="M228,440h 3" fill="none" stroke="#ff0099"/>
<g stroke="#ff0099" stroke-width="1" fill="#ff0099">
<circle cx=" 227" cy=" 440" r=" 1.5"/>
</g>
<path d="M231,437h 2" fill="none" stroke="#ff0099"/>
<path d="M235,437h 3" fill="none" stroke="#ff0099"/>
<g stroke="#ff0099" stroke-width="1" fill="#ff0099">
<circle cx=" 234" cy=" 437" r=" 1.5"/>
</g>
<path d="M242,440" fill="none" stroke="#ff0099"/>
<path d="M242,437" fill="none" stroke="#ff0099"/>
<path d="M238,439h 3" fill="none" stroke="#ff0099"/>
<path d="M243,439h 3" fill="none" stroke="#ff0099"/>
<g stroke="#ff0099" stroke-width="1" fill="#ff0099">
<circle cx=" 242" cy=" 439" r=" 1.5"/>
</g>
<path d="M249,439" fill="none" stroke="#ff0099"/>
<path d="M249,436" fill="none" stroke="#ff0099"/>
<path d="M246,437h 2" fill="none" stroke="#ff0099"/>
<path d="M251,437h 2" fill="none" stroke="#ff0099"/>
<g stroke="#ff0099" stroke-width="1" fill="#ff0099">
<circle cx=" 249" cy=" 437" r=" 1.5"/>
</g>
<path d="M257,436" fill="none" stroke="#ff0099"/>
<path d="M257,433" fill="none" stroke="#ff0099"/>
<path d="M253,434h 3" fill="none" stroke="#ff0099"/>
<path d="M258,434h 3" fill="none" stroke="#ff0099"/>
<g stroke="#ff0099" stroke-width="1" fill="#ff0099">
<circle cx=" 257" cy=" 434" r=" 1.5"/>
</g>
<path d="M265,435" fill="none" stroke="#ff0099"/>
<path d="M265,432" fill="none" stroke="#ff0099"/>
<path d="M261,433h 2" fill="none" stroke="#ff0099"/>
<path d="M266,433h 2" fill="none" stroke="#ff0099"/>
<g stroke="#ff0099" stroke-width="1" fill="#ff0099">
<circle cx=" 265" cy=" 433" r=" 1.5"/>
</g>
<path d="M272,434" fill="none" stroke="#ff0099"/>
<path d="M272,431" fill="none" stroke="#ff0099"/>
<path d="M268,433h 3" fill="none" stroke="#ff0099"/>
<path d="M273,433h 3" fill="none" stroke="#ff0099"/>
<g stroke="#ff0099" stroke-width="1" fill="#ff0099">
<circle cx=" 272" cy=" 433" r=" 1.5"/>
</g>
<path d="M280,434v -1" fill="none" stroke="#ff0099"/>
<path d="M280,430v -1" fill="none" stroke="#ff0099"/>
<path d="M276,432h 3" fill="none" stroke="#ff0099"/>
<path d="M281,432h 2" fill="none" stroke="#ff0099"/>
<g stroke="#ff0099" stroke-width="1" fill="#ff0099">
<circle cx=" 280" cy=" 432" r=" 1.5"/>
</g>
<path d="M287,436v -1" fill="none" stroke="#ff0099"/>
<path d="M287,432v -1" fill="none" stroke="#ff0099"/>
<path d="M283,433h 3" fill="none" stroke="#ff0099"/>
<path d="M288,433h 3" fill="none" stroke="#ff0099"/>
<g stroke="#ff0099" stroke-width="1" fill="#ff0099">
<circle cx=" 287" cy=" 433" r=" 1.5"/>
</g>
<path d="M295,435v -1" fill="none" stroke="#ff0099"/>
<path d="M295,432v -1" fill="none" stroke="#ff0099"/>
<path d="M291,433h 3" fill="none" stroke="#ff0099"/>
<path d="M296,433h 3" fill="none" stroke="#ff0099"/>
<g stroke="#ff0099" stroke-width="1" fill="#ff0099">
<circle cx=" 295" cy=" 433" r=" 1.5"/>
</g>
<path d="M302,436v -2" fill="none" stroke="#ff0099"/>
<path d="M302,432v -2" fill="none" stroke="#ff0099"/>
<path d="M299,433h 2" fill="none" stroke="#ff0099"/>
<path d="M304,433h 2" fill="none" stroke="#ff0099"/>
<g stroke="#ff0099" stroke-width="1" fill="#ff0099">
<circle cx=" 302" cy=" 433" r=" 1.5"/>
</g></svg>
