<?xml version="1.0" standalone="no"?>
<svg width="567" height="496" viewBox="0 0 567 496" xmlns="http://www.w3.org/2000/svg">
<title>
../src/TagAndProbeZ/plots_mcZee_mcGJet_withEtaR9nvtxReweight/hlt90/ptPhotEE.svg
</title>
<desc>
Creator: ROOT Version 5.32/00
CreationDate: Sun Sep 28 15:21:24 2014</desc>
<defs>
</defs>
<rect x="0" y="0" width="567" height="496" fill="white"/>
<rect x="74" y="44" width="453" height="402" fill="white"/>
<rect x="74" y="44" width="453" height="402" fill="none" stroke="black"/>
<rect x="74" y="44" width="453" height="402" fill="white"/>
<rect x="74" y="44" width="453" height="402" fill="none" stroke="black"/>
<path d="M236,120v -27" fill="none" stroke="#ff0099"/>
<path d="M236,90v -27" fill="none" stroke="#ff0099"/>
<path d="M232,92h 3" fill="none" stroke="#ff0099"/>
<path d="M237,92h 3" fill="none" stroke="#ff0099"/>
<g stroke="#ff0099" stroke-width="1" fill="#ff0099">
<circle cx=" 236" cy=" 92" r=" 1.5"/>
</g>
<path d="M244,168v -24" fill="none" stroke="#ff0099"/>
<path d="M244,142v -24" fill="none" stroke="#ff0099"/>
<path d="M240,143h 3" fill="none" stroke="#ff0099"/>
<path d="M245,143h 3" fill="none" stroke="#ff0099"/>
<g stroke="#ff0099" stroke-width="1" fill="#ff0099">
<circle cx=" 244" cy=" 143" r=" 1.5"/>
</g>
<path d="M251,211v -23" fill="none" stroke="#ff0099"/>
<path d="M251,186v -23" fill="none" stroke="#ff0099"/>
<path d="M248,187h 2" fill="none" stroke="#ff0099"/>
<path d="M252,187h 3" fill="none" stroke="#ff0099"/>
<g stroke="#ff0099" stroke-width="1" fill="#ff0099">
<circle cx=" 251" cy=" 187" r=" 1.5"/>
</g>
<path d="M259,231v -25" fill="none" stroke="#ff0099"/>
<path d="M259,203v -25" fill="none" stroke="#ff0099"/>
<path d="M255,204h 3" fill="none" stroke="#ff0099"/>
<path d="M260,204h 3" fill="none" stroke="#ff0099"/>
<g stroke="#ff0099" stroke-width="1" fill="#ff0099">
<circle cx=" 259" cy=" 204" r=" 1.5"/>
</g>
<path d="M266,267v -21" fill="none" stroke="#ff0099"/>
<path d="M266,244v -22" fill="none" stroke="#ff0099"/>
<path d="M263,245h 2" fill="none" stroke="#ff0099"/>
<path d="M268,245h 2" fill="none" stroke="#ff0099"/>
<g stroke="#ff0099" stroke-width="1" fill="#ff0099">
<circle cx=" 266" cy=" 245" r=" 1.5"/>
</g>
<path d="M274,311v -16" fill="none" stroke="#ff0099"/>
<path d="M274,292v -16" fill="none" stroke="#ff0099"/>
<path d="M270,293h 3" fill="none" stroke="#ff0099"/>
<path d="M275,293h 3" fill="none" stroke="#ff0099"/>
<g stroke="#ff0099" stroke-width="1" fill="#ff0099">
<circle cx=" 274" cy=" 293" r=" 1.5"/>
</g>
<path d="M282,350v -13" fill="none" stroke="#ff0099"/>
<path d="M282,334v -13" fill="none" stroke="#ff0099"/>
<path d="M278,336h 2" fill="none" stroke="#ff0099"/>
<path d="M283,336h 2" fill="none" stroke="#ff0099"/>
<g stroke="#ff0099" stroke-width="1" fill="#ff0099">
<circle cx=" 282" cy=" 336" r=" 1.5"/>
</g>
<path d="M289,344v -19" fill="none" stroke="#ff0099"/>
<path d="M289,323v -19" fill="none" stroke="#ff0099"/>
<path d="M285,324h 3" fill="none" stroke="#ff0099"/>
<path d="M290,324h 3" fill="none" stroke="#ff0099"/>
<g stroke="#ff0099" stroke-width="1" fill="#ff0099">
<circle cx=" 289" cy=" 324" r=" 1.5"/>
</g>
<path d="M297,363v -15" fill="none" stroke="#ff0099"/>
<path d="M297,346v -15" fill="none" stroke="#ff0099"/>
<path d="M293,347h 3" fill="none" stroke="#ff0099"/>
<path d="M298,347h 2" fill="none" stroke="#ff0099"/>
<g stroke="#ff0099" stroke-width="1" fill="#ff0099">
<circle cx=" 297" cy=" 347" r=" 1.5"/>
</g>
<path d="M304,394v -11" fill="none" stroke="#ff0099"/>
<path d="M304,381v -12" fill="none" stroke="#ff0099"/>
<path d="M300,382h 3" fill="none" stroke="#ff0099"/>
<path d="M305,382h 3" fill="none" stroke="#ff0099"/>
<g stroke="#ff0099" stroke-width="1" fill="#ff0099">
<circle cx=" 304" cy=" 382" r=" 1.5"/>
</g>
<path d="M312,404v -8" fill="none" stroke="#ff0099"/>
<path d="M312,394v -8" fill="none" stroke="#ff0099"/>
<path d="M308,395h 3" fill="none" stroke="#ff0099"/>
<path d="M313,395h 3" fill="none" stroke="#ff0099"/>
<g stroke="#ff0099" stroke-width="1" fill="#ff0099">
<circle cx=" 312" cy=" 395" r=" 1.5"/>
</g>
<path d="M319,398v -11" fill="none" stroke="#ff0099"/>
<path d="M319,385v -11" fill="none" stroke="#ff0099"/>
<path d="M316,386h 2" fill="none" stroke="#ff0099"/>
<path d="M321,386h 2" fill="none" stroke="#ff0099"/>
<g stroke="#ff0099" stroke-width="1" fill="#ff0099">
<circle cx=" 319" cy=" 386" r=" 1.5"/>
</g>
<path d="M74,446h 453" fill="none" stroke="black"/>
<path d="M74,434v 12" fill="none" stroke="black"/>
<path d="M89,440v 6" fill="none" stroke="black"/>
<path d="M104,440v 6" fill="none" stroke="black"/>
<path d="M119,440v 6" fill="none" stroke="black"/>
<path d="M134,440v 6" fill="none" stroke="black"/>
<path d="M149,434v 12" fill="none" stroke="black"/>
<path d="M164,440v 6" fill="none" stroke="black"/>
<path d="M180,440v 6" fill="none" stroke="black"/>
<path d="M195,440v 6" fill="none" stroke="black"/>
<path d="M210,440v 6" fill="none" stroke="black"/>
<path d="M225,434v 12" fill="none" stroke="black"/>
<path d="M240,440v 6" fill="none" stroke="black"/>
<path d="M255,440v 6" fill="none" stroke="black"/>
<path d="M270,440v 6" fill="none" stroke="black"/>
<path d="M285,440v 6" fill="none" stroke="black"/>
<path d="M300,434v 12" fill="none" stroke="black"/>
<path d="M316,440v 6" fill="none" stroke="black"/>
<path d="M331,440v 6" fill="none" stroke="black"/>
<path d="M346,440v 6" fill="none" stroke="black"/>
<path d="M361,440v 6" fill="none" stroke="black"/>
<path d="M376,434v 12" fill="none" stroke="black"/>
<path d="M391,440v 6" fill="none" stroke="black"/>
<path d="M406,440v 6" fill="none" stroke="black"/>
<path d="M421,440v 6" fill="none" stroke="black"/>
<path d="M437,440v 6" fill="none" stroke="black"/>
<path d="M452,434v 12" fill="none" stroke="black"/>
<path d="M467,440v 6" fill="none" stroke="black"/>
<path d="M482,440v 6" fill="none" stroke="black"/>
<path d="M497,440v 6" fill="none" stroke="black"/>
<path d="M512,440v 6" fill="none" stroke="black"/>
<path d="M527,434v 12" fill="none" stroke="black"/>
<text x="68" y="465" fill="black" font-size="18" font-family="Helvetica" font-weight="bold">
0
</text>
<text x="139" y="465" fill="black" font-size="18" font-family="Helvetica" font-weight="bold">
50
</text>
<text x="209" y="465" fill="black" font-size="18" font-family="Helvetica" font-weight="bold">
100
</text>
<text x="285" y="465" fill="black" font-size="18" font-family="Helvetica" font-weight="bold">
150
</text>
<text x="360" y="465" fill="black" font-size="18" font-family="Helvetica" font-weight="bold">
200
</text>
<text x="436" y="465" fill="black" font-size="18" font-family="Helvetica" font-weight="bold">
250
</text>
<text x="512" y="465" fill="black" font-size="18" font-family="Helvetica" font-weight="bold">
300
</text>
<path d="M74,44h 453" fill="none" stroke="black"/>
<path d="M74,56v -12" fill="none" stroke="black"/>
<path d="M89,50v -6" fill="none" stroke="black"/>
<path d="M104,50v -6" fill="none" stroke="black"/>
<path d="M119,50v -6" fill="none" stroke="black"/>
<path d="M134,50v -6" fill="none" stroke="black"/>
<path d="M149,56v -12" fill="none" stroke="black"/>
<path d="M164,50v -6" fill="none" stroke="black"/>
<path d="M180,50v -6" fill="none" stroke="black"/>
<path d="M195,50v -6" fill="none" stroke="black"/>
<path d="M210,50v -6" fill="none" stroke="black"/>
<path d="M225,56v -12" fill="none" stroke="black"/>
<path d="M240,50v -6" fill="none" stroke="black"/>
<path d="M255,50v -6" fill="none" stroke="black"/>
<path d="M270,50v -6" fill="none" stroke="black"/>
<path d="M285,50v -6" fill="none" stroke="black"/>
<path d="M300,56v -12" fill="none" stroke="black"/>
<path d="M316,50v -6" fill="none" stroke="black"/>
<path d="M331,50v -6" fill="none" stroke="black"/>
<path d="M346,50v -6" fill="none" stroke="black"/>
<path d="M361,50v -6" fill="none" stroke="black"/>
<path d="M376,56v -12" fill="none" stroke="black"/>
<path d="M391,50v -6" fill="none" stroke="black"/>
<path d="M406,50v -6" fill="none" stroke="black"/>
<path d="M421,50v -6" fill="none" stroke="black"/>
<path d="M437,50v -6" fill="none" stroke="black"/>
<path d="M452,56v -12" fill="none" stroke="black"/>
<path d="M467,50v -6" fill="none" stroke="black"/>
<path d="M482,50v -6" fill="none" stroke="black"/>
<path d="M497,50v -6" fill="none" stroke="black"/>
<path d="M512,50v -6" fill="none" stroke="black"/>
<path d="M527,56v -12" fill="none" stroke="black"/>
<path d="M74,446v -402" fill="none" stroke="black"/>
<path d="M87,446h -13" fill="none" stroke="black"/>
<path d="M81,436h -7" fill="none" stroke="black"/>
<path d="M81,426h -7" fill="none" stroke="black"/>
<path d="M81,416h -7" fill="none" stroke="black"/>
<path d="M87,406h -13" fill="none" stroke="black"/>
<path d="M81,396h -7" fill="none" stroke="black"/>
<path d="M81,386h -7" fill="none" stroke="black"/>
<path d="M81,376h -7" fill="none" stroke="black"/>
<path d="M87,365h -13" fill="none" stroke="black"/>
<path d="M81,355h -7" fill="none" stroke="black"/>
<path d="M81,345h -7" fill="none" stroke="black"/>
<path d="M81,335h -7" fill="none" stroke="black"/>
<path d="M87,325h -13" fill="none" stroke="black"/>
<path d="M81,315h -7" fill="none" stroke="black"/>
<path d="M81,305h -7" fill="none" stroke="black"/>
<path d="M81,295h -7" fill="none" stroke="black"/>
<path d="M87,285h -13" fill="none" stroke="black"/>
<path d="M81,274h -7" fill="none" stroke="black"/>
<path d="M81,264h -7" fill="none" stroke="black"/>
<path d="M81,254h -7" fill="none" stroke="black"/>
<path d="M87,244h -13" fill="none" stroke="black"/>
<path d="M81,234h -7" fill="none" stroke="black"/>
<path d="M81,224h -7" fill="none" stroke="black"/>
<path d="M81,214h -7" fill="none" stroke="black"/>
<path d="M87,204h -13" fill="none" stroke="black"/>
<path d="M81,194h -7" fill="none" stroke="black"/>
<path d="M81,183h -7" fill="none" stroke="black"/>
<path d="M81,173h -7" fill="none" stroke="black"/>
<path d="M87,163h -13" fill="none" stroke="black"/>
<path d="M81,153h -7" fill="none" stroke="black"/>
<path d="M81,143h -7" fill="none" stroke="black"/>
<path d="M81,133h -7" fill="none" stroke="black"/>
<path d="M87,123h -13" fill="none" stroke="black"/>
<path d="M81,113h -7" fill="none" stroke="black"/>
<path d="M81,103h -7" fill="none" stroke="black"/>
<path d="M81,92h -7" fill="none" stroke="black"/>
<path d="M87,82h -13" fill="none" stroke="black"/>
<path d="M87,82h -13" fill="none" stroke="black"/>
<path d="M81,72h -7" fill="none" stroke="black"/>
<path d="M81,62h -7" fill="none" stroke="black"/>
<path d="M81,52h -7" fill="none" stroke="black"/>
<text x="61" y="453" fill="black" font-size="18" font-family="Helvetica" font-weight="bold">
0
</text>
<text x="35" y="412" fill="black" font-size="18" font-family="Helvetica" font-weight="bold">
0.02
</text>
<text x="34" y="372" fill="black" font-size="18" font-family="Helvetica" font-weight="bold">
0.04
</text>
<text x="34" y="331" fill="black" font-size="18" font-family="Helvetica" font-weight="bold">
0.06
</text>
<text x="35" y="291" fill="black" font-size="18" font-family="Helvetica" font-weight="bold">
0.08
</text>
<text x="47" y="251" fill="black" font-size="18" font-family="Helvetica" font-weight="bold">
0.1
</text>
<text x="35" y="210" fill="black" font-size="18" font-family="Helvetica" font-weight="bold">
0.12
</text>
<text x="34" y="170" fill="black" font-size="18" font-family="Helvetica" font-weight="bold">
0.14
</text>
<text x="34" y="129" fill="black" font-size="18" font-family="Helvetica" font-weight="bold">
0.16
</text>
<text x="35" y="89" fill="black" font-size="18" font-family="Helvetica" font-weight="bold">
0.18
</text>
<path d="M244,123v -5" fill="none" stroke="#99ff99" stroke-width="2"/>
<path d="M244,118v -6" fill="none" stroke="#99ff99" stroke-width="2"/>
<g stroke="black" stroke-width="2" fill="none">
<line x1="243" y1="118" x2="244" y2="118"/>
</g>
<path d="M251,187v -4" fill="none" stroke="#99ff99" stroke-width="2"/>
<path d="M251,183v -4" fill="none" stroke="#99ff99" stroke-width="2"/>
<g stroke="black" stroke-width="2" fill="none">
<line x1="250" y1="183" x2="251" y2="183"/>
</g>
<path d="M259,235v -2" fill="none" stroke="#99ff99" stroke-width="2"/>
<path d="M259,233v -3" fill="none" stroke="#99ff99" stroke-width="2"/>
<g stroke="black" stroke-width="2" fill="none">
<line x1="258" y1="233" x2="259" y2="233"/>
</g>
<path d="M266,272v -2" fill="none" stroke="#99ff99" stroke-width="2"/>
<path d="M266,270v -2" fill="none" stroke="#99ff99" stroke-width="2"/>
<g stroke="black" stroke-width="2" fill="none">
<line x1="265" y1="270" x2="266" y2="270"/>
</g>
<path d="M274,303v -2" fill="none" stroke="#99ff99" stroke-width="2"/>
<path d="M274,301v -2" fill="none" stroke="#99ff99" stroke-width="2"/>
<g stroke="black" stroke-width="2" fill="none">
<line x1="273" y1="301" x2="274" y2="301"/>
</g>
<path d="M282,330v -1" fill="none" stroke="#99ff99" stroke-width="2"/>
<path d="M282,329v -2" fill="none" stroke="#99ff99" stroke-width="2"/>
<g stroke="black" stroke-width="2" fill="none">
<line x1="281" y1="329" x2="282" y2="329"/>
</g>
<path d="M289,347v -2" fill="none" stroke="#99ff99" stroke-width="2"/>
<path d="M289,345v -1" fill="none" stroke="#99ff99" stroke-width="2"/>
<g stroke="black" stroke-width="2" fill="none">
<line x1="288" y1="345" x2="289" y2="345"/>
</g>
<path d="M297,366v -1" fill="none" stroke="#99ff99" stroke-width="2"/>
<path d="M297,365v -1" fill="none" stroke="#99ff99" stroke-width="2"/>
<g stroke="black" stroke-width="2" fill="none">
<line x1="296" y1="365" x2="297" y2="365"/>
</g>
<path d="M304,376v -1" fill="none" stroke="#99ff99" stroke-width="2"/>
<path d="M304,375v -1" fill="none" stroke="#99ff99" stroke-width="2"/>
<g stroke="black" stroke-width="2" fill="none">
<line x1="303" y1="375" x2="304" y2="375"/>
</g>
<path d="M312,387v -1" fill="none" stroke="#99ff99" stroke-width="2"/>
<path d="M312,386v -1" fill="none" stroke="#99ff99" stroke-width="2"/>
<g stroke="black" stroke-width="2" fill="none">
<line x1="311" y1="386" x2="312" y2="386"/>
</g>
<path d="M319,398v -1" fill="none" stroke="#99ff99" stroke-width="2"/>
<path d="M319,397v -1" fill="none" stroke="#99ff99" stroke-width="2"/>
<g stroke="black" stroke-width="2" fill="none">
<line x1="318" y1="397" x2="319" y2="397"/>
</g>
<path d="M74,446h 158v -402h 8v 74h 8v 65h 7v 50h 8v 37h 7v 31h 8v 28h 7v 16h 8v 20h 7v 10h 8v 11h 8v 11h 7v 49h 204z" fill="#99ff99"/>
<path d="M74,446h 158v -402" fill="none" stroke="#99ff99" stroke-width="2"/>
<path d="M240,44v 74" fill="none" stroke="#99ff99" stroke-width="2"/>
<path d="M240,118h 8v 65h 7v 50h 8v 37h 7v 31h 8v 28h 7v 16h 8v 20h 7v 10h 8v 11h 8v 11h 7v 49h 204" fill="none" stroke="#99ff99" stroke-width="2"/>
<path d="M236,120v -27" fill="none" stroke="#ff0099"/>
<path d="M236,90v -27" fill="none" stroke="#ff0099"/>
<path d="M232,92h 3" fill="none" stroke="#ff0099"/>
<path d="M237,92h 3" fill="none" stroke="#ff0099"/>
<g stroke="#ff0099" stroke-width="1" fill="#ff0099">
<circle cx=" 236" cy=" 92" r=" 1.5"/>
</g>
<path d="M244,168v -24" fill="none" stroke="#ff0099"/>
<path d="M244,142v -24" fill="none" stroke="#ff0099"/>
<path d="M240,143h 3" fill="none" stroke="#ff0099"/>
<path d="M245,143h 3" fill="none" stroke="#ff0099"/>
<g stroke="#ff0099" stroke-width="1" fill="#ff0099">
<circle cx=" 244" cy=" 143" r=" 1.5"/>
</g>
<path d="M251,211v -23" fill="none" stroke="#ff0099"/>
<path d="M251,186v -23" fill="none" stroke="#ff0099"/>
<path d="M248,187h 2" fill="none" stroke="#ff0099"/>
<path d="M252,187h 3" fill="none" stroke="#ff0099"/>
<g stroke="#ff0099" stroke-width="1" fill="#ff0099">
<circle cx=" 251" cy=" 187" r=" 1.5"/>
</g>
<path d="M259,231v -25" fill="none" stroke="#ff0099"/>
<path d="M259,203v -25" fill="none" stroke="#ff0099"/>
<path d="M255,204h 3" fill="none" stroke="#ff0099"/>
<path d="M260,204h 3" fill="none" stroke="#ff0099"/>
<g stroke="#ff0099" stroke-width="1" fill="#ff0099">
<circle cx=" 259" cy=" 204" r=" 1.5"/>
</g>
<path d="M266,267v -21" fill="none" stroke="#ff0099"/>
<path d="M266,244v -22" fill="none" stroke="#ff0099"/>
<path d="M263,245h 2" fill="none" stroke="#ff0099"/>
<path d="M268,245h 2" fill="none" stroke="#ff0099"/>
<g stroke="#ff0099" stroke-width="1" fill="#ff0099">
<circle cx=" 266" cy=" 245" r=" 1.5"/>
</g>
<path d="M274,311v -16" fill="none" stroke="#ff0099"/>
<path d="M274,292v -16" fill="none" stroke="#ff0099"/>
<path d="M270,293h 3" fill="none" stroke="#ff0099"/>
<path d="M275,293h 3" fill="none" stroke="#ff0099"/>
<g stroke="#ff0099" stroke-width="1" fill="#ff0099">
<circle cx=" 274" cy=" 293" r=" 1.5"/>
</g>
<path d="M282,350v -13" fill="none" stroke="#ff0099"/>
<path d="M282,334v -13" fill="none" stroke="#ff0099"/>
<path d="M278,336h 2" fill="none" stroke="#ff0099"/>
<path d="M283,336h 2" fill="none" stroke="#ff0099"/>
<g stroke="#ff0099" stroke-width="1" fill="#ff0099">
<circle cx=" 282" cy=" 336" r=" 1.5"/>
</g>
<path d="M289,344v -19" fill="none" stroke="#ff0099"/>
<path d="M289,323v -19" fill="none" stroke="#ff0099"/>
<path d="M285,324h 3" fill="none" stroke="#ff0099"/>
<path d="M290,324h 3" fill="none" stroke="#ff0099"/>
<g stroke="#ff0099" stroke-width="1" fill="#ff0099">
<circle cx=" 289" cy=" 324" r=" 1.5"/>
</g>
<path d="M297,363v -15" fill="none" stroke="#ff0099"/>
<path d="M297,346v -15" fill="none" stroke="#ff0099"/>
<path d="M293,347h 3" fill="none" stroke="#ff0099"/>
<path d="M298,347h 2" fill="none" stroke="#ff0099"/>
<g stroke="#ff0099" stroke-width="1" fill="#ff0099">
<circle cx=" 297" cy=" 347" r=" 1.5"/>
</g>
<path d="M304,394v -11" fill="none" stroke="#ff0099"/>
<path d="M304,381v -12" fill="none" stroke="#ff0099"/>
<path d="M300,382h 3" fill="none" stroke="#ff0099"/>
<path d="M305,382h 3" fill="none" stroke="#ff0099"/>
<g stroke="#ff0099" stroke-width="1" fill="#ff0099">
<circle cx=" 304" cy=" 382" r=" 1.5"/>
</g>
<path d="M312,404v -8" fill="none" stroke="#ff0099"/>
<path d="M312,394v -8" fill="none" stroke="#ff0099"/>
<path d="M308,395h 3" fill="none" stroke="#ff0099"/>
<path d="M313,395h 3" fill="none" stroke="#ff0099"/>
<g stroke="#ff0099" stroke-width="1" fill="#ff0099">
<circle cx=" 312" cy=" 395" r=" 1.5"/>
</g>
<path d="M319,398v -11" fill="none" stroke="#ff0099"/>
<path d="M319,385v -11" fill="none" stroke="#ff0099"/>
<path d="M316,386h 2" fill="none" stroke="#ff0099"/>
<path d="M321,386h 2" fill="none" stroke="#ff0099"/>
<g stroke="#ff0099" stroke-width="1" fill="#ff0099">
<circle cx=" 319" cy=" 386" r=" 1.5"/>
</g>
<rect x="357" y="59" width="142" height="99" fill="white"/>
<text x="360" y="82" fill="black" font-size="17" font-family="Helvetica" font-weight="bold">
EE
</text>
<text x="457" y="115" fill="black" font-size="17" font-family="Helvetica" font-weight="bold">
 ee
</text>
<text x="440" y="115" fill="black" font-size="17" font-family="Times">
&#8594;
</text>
<text x="392" y="115" fill="black" font-size="17" font-family="Helvetica" font-weight="bold">
MC Z 
</text>
<path d="M362,109h 25" fill="none" stroke="#ff0099"/>
<g stroke="#ff0099" stroke-width="1" fill="#ff0099">
<circle cx=" 375" cy=" 109" r=" 1.5"/>
</g>
<text x="455" y="147" fill="black" font-size="17" font-family="Helvetica" font-weight="bold">
 + jet
</text>
<text x="447" y="147" fill="black" font-size="17" font-family="Times">
&#0947;
</text>
<text x="392" y="147" fill="black" font-size="17" font-family="Helvetica" font-weight="bold">
signal 
</text>
<path d="M362,154h 25v -24h -25z" fill="#99ff99"/>
<path d="M362,130h 25" fill="none" stroke="#99ff99" stroke-width="2"/>
<path d="M362,154h 25" fill="none" stroke="#99ff99" stroke-width="2"/>
<path d="M387,154v -24" fill="none" stroke="#99ff99" stroke-width="2"/>
<path d="M362,154v -24" fill="none" stroke="#99ff99" stroke-width="2"/>
<text x="300" y="34" fill="black" font-size="17" font-family="Helvetica" font-weight="bold">
=8 TeV
</text>
<text x="291" y="34" fill="black" font-size="17" font-family="Helvetica" font-weight="bold">
s
</text>
<path d="M285,25l 2, 10" fill="none" stroke="black" stroke-width="2"/>
<path d="M287,35l 2, -14" fill="none" stroke="black"/>
<path d="M289,21h 11" fill="none" stroke="black"/>
<text x="142" y="34" fill="black" font-size="17" font-family="Helvetica" font-weight="bold">
CMS Preliminary 
</text></svg>
