<?xml version="1.0" standalone="no"?>
<svg width="567" height="496" viewBox="0 0 567 496" xmlns="http://www.w3.org/2000/svg">
<title>
../src/TagAndProbeZ/plots_mcZee_mcGJet_withEtaR9rhoReweight/hlt90//etaPhotEB.svg
</title>
<desc>
Creator: ROOT Version 5.32/00
CreationDate: Wed Dec  3 10:37:46 2014</desc>
<defs>
</defs>
<rect x="0" y="0" width="567" height="496" fill="white"/>
<rect x="74" y="44" width="453" height="402" fill="white"/>
<rect x="74" y="44" width="453" height="402" fill="none" stroke="black"/>
<rect x="74" y="44" width="453" height="402" fill="white"/>
<rect x="74" y="44" width="453" height="402" fill="none" stroke="black"/>
<path d="M187,443h 3" fill="none" stroke="#ff0099"/>
<path d="M192,443h 3" fill="none" stroke="#ff0099"/>
<g stroke="#ff0099" stroke-width="1" fill="#ff0099">
<circle cx=" 191" cy=" 443" r=" 1.5"/>
</g>
<path d="M195,438h 2" fill="none" stroke="#ff0099"/>
<path d="M200,438h 2" fill="none" stroke="#ff0099"/>
<g stroke="#ff0099" stroke-width="1" fill="#ff0099">
<circle cx=" 198" cy=" 438" r=" 1.5"/>
</g>
<path d="M202,438h 3" fill="none" stroke="#ff0099"/>
<path d="M207,438h 3" fill="none" stroke="#ff0099"/>
<g stroke="#ff0099" stroke-width="1" fill="#ff0099">
<circle cx=" 206" cy=" 438" r=" 1.5"/>
</g>
<path d="M210,437h 2" fill="none" stroke="#ff0099"/>
<path d="M215,437h 2" fill="none" stroke="#ff0099"/>
<g stroke="#ff0099" stroke-width="1" fill="#ff0099">
<circle cx=" 214" cy=" 437" r=" 1.5"/>
</g>
<path d="M217,432h 3" fill="none" stroke="#ff0099"/>
<path d="M222,432h 3" fill="none" stroke="#ff0099"/>
<g stroke="#ff0099" stroke-width="1" fill="#ff0099">
<circle cx=" 221" cy=" 432" r=" 1.5"/>
</g>
<path d="M229,230v -1" fill="none" stroke="#ff0099"/>
<path d="M229,227v -1" fill="none" stroke="#ff0099"/>
<path d="M225,228h 3" fill="none" stroke="#ff0099"/>
<path d="M230,228h 2" fill="none" stroke="#ff0099"/>
<g stroke="#ff0099" stroke-width="1" fill="#ff0099">
<circle cx=" 229" cy=" 228" r=" 1.5"/>
</g>
<path d="M236,172v -1" fill="none" stroke="#ff0099"/>
<path d="M236,169v -1" fill="none" stroke="#ff0099"/>
<path d="M232,170h 3" fill="none" stroke="#ff0099"/>
<path d="M237,170h 3" fill="none" stroke="#ff0099"/>
<g stroke="#ff0099" stroke-width="1" fill="#ff0099">
<circle cx=" 236" cy=" 170" r=" 1.5"/>
</g>
<path d="M244,180" fill="none" stroke="#ff0099"/>
<path d="M244,177v -1" fill="none" stroke="#ff0099"/>
<path d="M240,178h 3" fill="none" stroke="#ff0099"/>
<path d="M245,178h 3" fill="none" stroke="#ff0099"/>
<g stroke="#ff0099" stroke-width="1" fill="#ff0099">
<circle cx=" 244" cy=" 178" r=" 1.5"/>
</g>
<path d="M251,133v -1" fill="none" stroke="#ff0099"/>
<path d="M251,130v -1" fill="none" stroke="#ff0099"/>
<path d="M248,131h 2" fill="none" stroke="#ff0099"/>
<path d="M252,131h 3" fill="none" stroke="#ff0099"/>
<g stroke="#ff0099" stroke-width="1" fill="#ff0099">
<circle cx=" 251" cy=" 131" r=" 1.5"/>
</g>
<path d="M259,116v -2" fill="none" stroke="#ff0099"/>
<path d="M259,112v -1" fill="none" stroke="#ff0099"/>
<path d="M255,113h 3" fill="none" stroke="#ff0099"/>
<path d="M260,113h 3" fill="none" stroke="#ff0099"/>
<g stroke="#ff0099" stroke-width="1" fill="#ff0099">
<circle cx=" 259" cy=" 113" r=" 1.5"/>
</g>
<path d="M266,139v -1" fill="none" stroke="#ff0099"/>
<path d="M266,136v -1" fill="none" stroke="#ff0099"/>
<path d="M263,137h 2" fill="none" stroke="#ff0099"/>
<path d="M268,137h 2" fill="none" stroke="#ff0099"/>
<g stroke="#ff0099" stroke-width="1" fill="#ff0099">
<circle cx=" 266" cy=" 137" r=" 1.5"/>
</g>
<path d="M274,112v -1" fill="none" stroke="#ff0099"/>
<path d="M274,109v -1" fill="none" stroke="#ff0099"/>
<path d="M270,110h 3" fill="none" stroke="#ff0099"/>
<path d="M275,110h 3" fill="none" stroke="#ff0099"/>
<g stroke="#ff0099" stroke-width="1" fill="#ff0099">
<circle cx=" 274" cy=" 110" r=" 1.5"/>
</g>
<path d="M282,94v -2" fill="none" stroke="#ff0099"/>
<path d="M282,90v -1" fill="none" stroke="#ff0099"/>
<path d="M278,91h 2" fill="none" stroke="#ff0099"/>
<path d="M283,91h 2" fill="none" stroke="#ff0099"/>
<g stroke="#ff0099" stroke-width="1" fill="#ff0099">
<circle cx=" 282" cy=" 91" r=" 1.5"/>
</g>
<path d="M289,68v -1" fill="none" stroke="#ff0099"/>
<path d="M289,65v -2" fill="none" stroke="#ff0099"/>
<path d="M285,66h 3" fill="none" stroke="#ff0099"/>
<path d="M290,66h 3" fill="none" stroke="#ff0099"/>
<g stroke="#ff0099" stroke-width="1" fill="#ff0099">
<circle cx=" 289" cy=" 66" r=" 1.5"/>
</g>
<path d="M297,103v -1" fill="none" stroke="#ff0099"/>
<path d="M297,100v -1" fill="none" stroke="#ff0099"/>
<path d="M293,101h 3" fill="none" stroke="#ff0099"/>
<path d="M298,101h 2" fill="none" stroke="#ff0099"/>
<g stroke="#ff0099" stroke-width="1" fill="#ff0099">
<circle cx=" 297" cy=" 101" r=" 1.5"/>
</g>
<path d="M304,90v -1" fill="none" stroke="#ff0099"/>
<path d="M304,86v -1" fill="none" stroke="#ff0099"/>
<path d="M300,87h 3" fill="none" stroke="#ff0099"/>
<path d="M305,87h 3" fill="none" stroke="#ff0099"/>
<g stroke="#ff0099" stroke-width="1" fill="#ff0099">
<circle cx=" 304" cy=" 87" r=" 1.5"/>
</g>
<path d="M312,72v -2" fill="none" stroke="#ff0099"/>
<path d="M312,68v -1" fill="none" stroke="#ff0099"/>
<path d="M308,69h 3" fill="none" stroke="#ff0099"/>
<path d="M313,69h 3" fill="none" stroke="#ff0099"/>
<g stroke="#ff0099" stroke-width="1" fill="#ff0099">
<circle cx=" 312" cy=" 69" r=" 1.5"/>
</g>
<path d="M319,91v -1" fill="none" stroke="#ff0099"/>
<path d="M319,87v -1" fill="none" stroke="#ff0099"/>
<path d="M316,89h 2" fill="none" stroke="#ff0099"/>
<path d="M321,89h 2" fill="none" stroke="#ff0099"/>
<g stroke="#ff0099" stroke-width="1" fill="#ff0099">
<circle cx=" 319" cy=" 89" r=" 1.5"/>
</g>
<path d="M327,107v -2" fill="none" stroke="#ff0099"/>
<path d="M327,103v -1" fill="none" stroke="#ff0099"/>
<path d="M323,104h 3" fill="none" stroke="#ff0099"/>
<path d="M328,104h 3" fill="none" stroke="#ff0099"/>
<g stroke="#ff0099" stroke-width="1" fill="#ff0099">
<circle cx=" 327" cy=" 104" r=" 1.5"/>
</g>
<path d="M334,139v -1" fill="none" stroke="#ff0099"/>
<path d="M334,136v -1" fill="none" stroke="#ff0099"/>
<path d="M331,137h 2" fill="none" stroke="#ff0099"/>
<path d="M336,137h 2" fill="none" stroke="#ff0099"/>
<g stroke="#ff0099" stroke-width="1" fill="#ff0099">
<circle cx=" 334" cy=" 137" r=" 1.5"/>
</g>
<path d="M342,120v -2" fill="none" stroke="#ff0099"/>
<path d="M342,116v -1" fill="none" stroke="#ff0099"/>
<path d="M338,117h 3" fill="none" stroke="#ff0099"/>
<path d="M343,117h 3" fill="none" stroke="#ff0099"/>
<g stroke="#ff0099" stroke-width="1" fill="#ff0099">
<circle cx=" 342" cy=" 117" r=" 1.5"/>
</g>
<path d="M350,128v -1" fill="none" stroke="#ff0099"/>
<path d="M350,125v -1" fill="none" stroke="#ff0099"/>
<path d="M346,126h 2" fill="none" stroke="#ff0099"/>
<path d="M351,126h 2" fill="none" stroke="#ff0099"/>
<g stroke="#ff0099" stroke-width="1" fill="#ff0099">
<circle cx=" 350" cy=" 126" r=" 1.5"/>
</g>
<path d="M357,183v -1" fill="none" stroke="#ff0099"/>
<path d="M357,180v -1" fill="none" stroke="#ff0099"/>
<path d="M353,181h 3" fill="none" stroke="#ff0099"/>
<path d="M358,181h 3" fill="none" stroke="#ff0099"/>
<g stroke="#ff0099" stroke-width="1" fill="#ff0099">
<circle cx=" 357" cy=" 181" r=" 1.5"/>
</g>
<path d="M365,180v -1" fill="none" stroke="#ff0099"/>
<path d="M365,177v -1" fill="none" stroke="#ff0099"/>
<path d="M361,178h 3" fill="none" stroke="#ff0099"/>
<path d="M366,178h 3" fill="none" stroke="#ff0099"/>
<g stroke="#ff0099" stroke-width="1" fill="#ff0099">
<circle cx=" 365" cy=" 178" r=" 1.5"/>
</g>
<path d="M372,227" fill="none" stroke="#ff0099"/>
<path d="M372,224" fill="none" stroke="#ff0099"/>
<path d="M369,225h 2" fill="none" stroke="#ff0099"/>
<path d="M373,225h 3" fill="none" stroke="#ff0099"/>
<g stroke="#ff0099" stroke-width="1" fill="#ff0099">
<circle cx=" 372" cy=" 225" r=" 1.5"/>
</g>
<path d="M376,432h 3" fill="none" stroke="#ff0099"/>
<path d="M381,432h 3" fill="none" stroke="#ff0099"/>
<g stroke="#ff0099" stroke-width="1" fill="#ff0099">
<circle cx=" 380" cy=" 432" r=" 1.5"/>
</g>
<path d="M384,437h 2" fill="none" stroke="#ff0099"/>
<path d="M389,437h 2" fill="none" stroke="#ff0099"/>
<g stroke="#ff0099" stroke-width="1" fill="#ff0099">
<circle cx=" 387" cy=" 437" r=" 1.5"/>
</g>
<path d="M391,437h 3" fill="none" stroke="#ff0099"/>
<path d="M396,437h 3" fill="none" stroke="#ff0099"/>
<g stroke="#ff0099" stroke-width="1" fill="#ff0099">
<circle cx=" 395" cy=" 437" r=" 1.5"/>
</g>
<path d="M399,438h 2" fill="none" stroke="#ff0099"/>
<path d="M404,438h 2" fill="none" stroke="#ff0099"/>
<g stroke="#ff0099" stroke-width="1" fill="#ff0099">
<circle cx=" 403" cy=" 438" r=" 1.5"/>
</g>
<path d="M406,442h 3" fill="none" stroke="#ff0099"/>
<path d="M411,442h 3" fill="none" stroke="#ff0099"/>
<g stroke="#ff0099" stroke-width="1" fill="#ff0099">
<circle cx=" 410" cy=" 442" r=" 1.5"/>
</g>
<path d="M74,446h 453" fill="none" stroke="black"/>
<path d="M74,434v 12" fill="none" stroke="black"/>
<path d="M89,440v 6" fill="none" stroke="black"/>
<path d="M104,440v 6" fill="none" stroke="black"/>
<path d="M119,440v 6" fill="none" stroke="black"/>
<path d="M134,440v 6" fill="none" stroke="black"/>
<path d="M149,434v 12" fill="none" stroke="black"/>
<path d="M164,440v 6" fill="none" stroke="black"/>
<path d="M180,440v 6" fill="none" stroke="black"/>
<path d="M195,440v 6" fill="none" stroke="black"/>
<path d="M210,440v 6" fill="none" stroke="black"/>
<path d="M225,434v 12" fill="none" stroke="black"/>
<path d="M240,440v 6" fill="none" stroke="black"/>
<path d="M255,440v 6" fill="none" stroke="black"/>
<path d="M270,440v 6" fill="none" stroke="black"/>
<path d="M285,440v 6" fill="none" stroke="black"/>
<path d="M300,434v 12" fill="none" stroke="black"/>
<path d="M316,440v 6" fill="none" stroke="black"/>
<path d="M331,440v 6" fill="none" stroke="black"/>
<path d="M346,440v 6" fill="none" stroke="black"/>
<path d="M361,440v 6" fill="none" stroke="black"/>
<path d="M376,434v 12" fill="none" stroke="black"/>
<path d="M391,440v 6" fill="none" stroke="black"/>
<path d="M406,440v 6" fill="none" stroke="black"/>
<path d="M421,440v 6" fill="none" stroke="black"/>
<path d="M437,440v 6" fill="none" stroke="black"/>
<path d="M452,434v 12" fill="none" stroke="black"/>
<path d="M467,440v 6" fill="none" stroke="black"/>
<path d="M482,440v 6" fill="none" stroke="black"/>
<path d="M497,440v 6" fill="none" stroke="black"/>
<path d="M512,440v 6" fill="none" stroke="black"/>
<path d="M527,434v 12" fill="none" stroke="black"/>
<path d="M527,434v 12" fill="none" stroke="black"/>
<text x="65" y="465" fill="black" font-size="18" font-family="Helvetica" font-weight="bold">
-3
</text>
<text x="141" y="465" fill="black" font-size="18" font-family="Helvetica" font-weight="bold">
-2
</text>
<text x="218" y="465" fill="black" font-size="18" font-family="Helvetica" font-weight="bold">
-1
</text>
<text x="295" y="465" fill="black" font-size="18" font-family="Helvetica" font-weight="bold">
0
</text>
<text x="372" y="465" fill="black" font-size="18" font-family="Helvetica" font-weight="bold">
1
</text>
<text x="446" y="465" fill="black" font-size="18" font-family="Helvetica" font-weight="bold">
2
</text>
<text x="522" y="465" fill="black" font-size="18" font-family="Helvetica" font-weight="bold">
3
</text>
<path d="M74,44h 453" fill="none" stroke="black"/>
<path d="M74,56v -12" fill="none" stroke="black"/>
<path d="M89,50v -6" fill="none" stroke="black"/>
<path d="M104,50v -6" fill="none" stroke="black"/>
<path d="M119,50v -6" fill="none" stroke="black"/>
<path d="M134,50v -6" fill="none" stroke="black"/>
<path d="M149,56v -12" fill="none" stroke="black"/>
<path d="M164,50v -6" fill="none" stroke="black"/>
<path d="M180,50v -6" fill="none" stroke="black"/>
<path d="M195,50v -6" fill="none" stroke="black"/>
<path d="M210,50v -6" fill="none" stroke="black"/>
<path d="M225,56v -12" fill="none" stroke="black"/>
<path d="M240,50v -6" fill="none" stroke="black"/>
<path d="M255,50v -6" fill="none" stroke="black"/>
<path d="M270,50v -6" fill="none" stroke="black"/>
<path d="M285,50v -6" fill="none" stroke="black"/>
<path d="M300,56v -12" fill="none" stroke="black"/>
<path d="M316,50v -6" fill="none" stroke="black"/>
<path d="M331,50v -6" fill="none" stroke="black"/>
<path d="M346,50v -6" fill="none" stroke="black"/>
<path d="M361,50v -6" fill="none" stroke="black"/>
<path d="M376,56v -12" fill="none" stroke="black"/>
<path d="M391,50v -6" fill="none" stroke="black"/>
<path d="M406,50v -6" fill="none" stroke="black"/>
<path d="M421,50v -6" fill="none" stroke="black"/>
<path d="M437,50v -6" fill="none" stroke="black"/>
<path d="M452,56v -12" fill="none" stroke="black"/>
<path d="M467,50v -6" fill="none" stroke="black"/>
<path d="M482,50v -6" fill="none" stroke="black"/>
<path d="M497,50v -6" fill="none" stroke="black"/>
<path d="M512,50v -6" fill="none" stroke="black"/>
<path d="M527,56v -12" fill="none" stroke="black"/>
<path d="M527,56v -12" fill="none" stroke="black"/>
<path d="M74,446v -402" fill="none" stroke="black"/>
<path d="M87,446h -13" fill="none" stroke="black"/>
<path d="M81,434h -7" fill="none" stroke="black"/>
<path d="M81,421h -7" fill="none" stroke="black"/>
<path d="M81,408h -7" fill="none" stroke="black"/>
<path d="M81,395h -7" fill="none" stroke="black"/>
<path d="M87,383h -13" fill="none" stroke="black"/>
<path d="M81,370h -7" fill="none" stroke="black"/>
<path d="M81,357h -7" fill="none" stroke="black"/>
<path d="M81,344h -7" fill="none" stroke="black"/>
<path d="M81,332h -7" fill="none" stroke="black"/>
<path d="M87,319h -13" fill="none" stroke="black"/>
<path d="M81,306h -7" fill="none" stroke="black"/>
<path d="M81,293h -7" fill="none" stroke="black"/>
<path d="M81,281h -7" fill="none" stroke="black"/>
<path d="M81,268h -7" fill="none" stroke="black"/>
<path d="M87,255h -13" fill="none" stroke="black"/>
<path d="M81,242h -7" fill="none" stroke="black"/>
<path d="M81,230h -7" fill="none" stroke="black"/>
<path d="M81,217h -7" fill="none" stroke="black"/>
<path d="M81,204h -7" fill="none" stroke="black"/>
<path d="M87,191h -13" fill="none" stroke="black"/>
<path d="M81,179h -7" fill="none" stroke="black"/>
<path d="M81,166h -7" fill="none" stroke="black"/>
<path d="M81,153h -7" fill="none" stroke="black"/>
<path d="M81,140h -7" fill="none" stroke="black"/>
<path d="M87,128h -13" fill="none" stroke="black"/>
<path d="M81,115h -7" fill="none" stroke="black"/>
<path d="M81,102h -7" fill="none" stroke="black"/>
<path d="M81,89h -7" fill="none" stroke="black"/>
<path d="M81,77h -7" fill="none" stroke="black"/>
<path d="M87,64h -13" fill="none" stroke="black"/>
<path d="M87,64h -13" fill="none" stroke="black"/>
<path d="M81,51h -7" fill="none" stroke="black"/>
<text x="61" y="453" fill="black" font-size="18" font-family="Helvetica" font-weight="bold">
0
</text>
<text x="37" y="389" fill="black" font-size="18" font-family="Helvetica" font-weight="bold">
0.01
</text>
<text x="35" y="325" fill="black" font-size="18" font-family="Helvetica" font-weight="bold">
0.02
</text>
<text x="35" y="261" fill="black" font-size="18" font-family="Helvetica" font-weight="bold">
0.03
</text>
<text x="34" y="198" fill="black" font-size="18" font-family="Helvetica" font-weight="bold">
0.04
</text>
<text x="34" y="134" fill="black" font-size="18" font-family="Helvetica" font-weight="bold">
0.05
</text>
<text x="34" y="70" fill="black" font-size="18" font-family="Helvetica" font-weight="bold">
0.06
</text>
<path d="M191,354v -2" fill="none" stroke="#99ff99" stroke-width="2"/>
<path d="M191,352v -2" fill="none" stroke="#99ff99" stroke-width="2"/>
<g stroke="black" stroke-width="2" fill="none">
<line x1="190" y1="352" x2="191" y2="352"/>
</g>
<path d="M198,232v -3" fill="none" stroke="#99ff99" stroke-width="2"/>
<path d="M198,229v -3" fill="none" stroke="#99ff99" stroke-width="2"/>
<g stroke="black" stroke-width="2" fill="none">
<line x1="197" y1="229" x2="198" y2="229"/>
</g>
<path d="M206,228v -3" fill="none" stroke="#99ff99" stroke-width="2"/>
<path d="M206,225v -3" fill="none" stroke="#99ff99" stroke-width="2"/>
<g stroke="black" stroke-width="2" fill="none">
<line x1="205" y1="225" x2="206" y2="225"/>
</g>
<path d="M214,233v -7" fill="none" stroke="#99ff99" stroke-width="2"/>
<path d="M214,226v -6" fill="none" stroke="#99ff99" stroke-width="2"/>
<g stroke="black" stroke-width="2" fill="none">
<line x1="213" y1="226" x2="214" y2="226"/>
</g>
<path d="M221,221v -4" fill="none" stroke="#99ff99" stroke-width="2"/>
<path d="M221,217v -3" fill="none" stroke="#99ff99" stroke-width="2"/>
<g stroke="black" stroke-width="2" fill="none">
<line x1="220" y1="217" x2="221" y2="217"/>
</g>
<path d="M229,226v -3" fill="none" stroke="#99ff99" stroke-width="2"/>
<path d="M229,223v -4" fill="none" stroke="#99ff99" stroke-width="2"/>
<g stroke="black" stroke-width="2" fill="none">
<line x1="228" y1="223" x2="229" y2="223"/>
</g>
<path d="M236,223v -3" fill="none" stroke="#99ff99" stroke-width="2"/>
<path d="M236,220v -3" fill="none" stroke="#99ff99" stroke-width="2"/>
<g stroke="black" stroke-width="2" fill="none">
<line x1="235" y1="220" x2="236" y2="220"/>
</g>
<path d="M244,242v -3" fill="none" stroke="#99ff99" stroke-width="2"/>
<path d="M244,239v -3" fill="none" stroke="#99ff99" stroke-width="2"/>
<g stroke="black" stroke-width="2" fill="none">
<line x1="243" y1="239" x2="244" y2="239"/>
</g>
<path d="M251,222v -3" fill="none" stroke="#99ff99" stroke-width="2"/>
<path d="M251,219v -3" fill="none" stroke="#99ff99" stroke-width="2"/>
<g stroke="black" stroke-width="2" fill="none">
<line x1="250" y1="219" x2="251" y2="219"/>
</g>
<path d="M259,225v -4" fill="none" stroke="#99ff99" stroke-width="2"/>
<path d="M259,221v -3" fill="none" stroke="#99ff99" stroke-width="2"/>
<g stroke="black" stroke-width="2" fill="none">
<line x1="258" y1="221" x2="259" y2="221"/>
</g>
<path d="M266,235v -3" fill="none" stroke="#99ff99" stroke-width="2"/>
<path d="M266,232v -3" fill="none" stroke="#99ff99" stroke-width="2"/>
<g stroke="black" stroke-width="2" fill="none">
<line x1="265" y1="232" x2="266" y2="232"/>
</g>
<path d="M274,231v -3" fill="none" stroke="#99ff99" stroke-width="2"/>
<path d="M274,228v -3" fill="none" stroke="#99ff99" stroke-width="2"/>
<g stroke="black" stroke-width="2" fill="none">
<line x1="273" y1="228" x2="274" y2="228"/>
</g>
<path d="M282,233v -3" fill="none" stroke="#99ff99" stroke-width="2"/>
<path d="M282,230v -3" fill="none" stroke="#99ff99" stroke-width="2"/>
<g stroke="black" stroke-width="2" fill="none">
<line x1="281" y1="230" x2="282" y2="230"/>
</g>
<path d="M289,229v -3" fill="none" stroke="#99ff99" stroke-width="2"/>
<path d="M289,226v -3" fill="none" stroke="#99ff99" stroke-width="2"/>
<g stroke="black" stroke-width="2" fill="none">
<line x1="288" y1="226" x2="289" y2="226"/>
</g>
<path d="M297,240v -3" fill="none" stroke="#99ff99" stroke-width="2"/>
<path d="M297,237v -3" fill="none" stroke="#99ff99" stroke-width="2"/>
<g stroke="black" stroke-width="2" fill="none">
<line x1="296" y1="237" x2="297" y2="237"/>
</g>
<path d="M304,238v -3" fill="none" stroke="#99ff99" stroke-width="2"/>
<path d="M304,235v -3" fill="none" stroke="#99ff99" stroke-width="2"/>
<g stroke="black" stroke-width="2" fill="none">
<line x1="303" y1="235" x2="304" y2="235"/>
</g>
<path d="M312,229v -3" fill="none" stroke="#99ff99" stroke-width="2"/>
<path d="M312,226v -3" fill="none" stroke="#99ff99" stroke-width="2"/>
<g stroke="black" stroke-width="2" fill="none">
<line x1="311" y1="226" x2="312" y2="226"/>
</g>
<path d="M319,224v -3" fill="none" stroke="#99ff99" stroke-width="2"/>
<path d="M319,221v -3" fill="none" stroke="#99ff99" stroke-width="2"/>
<g stroke="black" stroke-width="2" fill="none">
<line x1="318" y1="221" x2="319" y2="221"/>
</g>
<path d="M327,228v -3" fill="none" stroke="#99ff99" stroke-width="2"/>
<path d="M327,225v -3" fill="none" stroke="#99ff99" stroke-width="2"/>
<g stroke="black" stroke-width="2" fill="none">
<line x1="326" y1="225" x2="327" y2="225"/>
</g>
<path d="M334,229v -9" fill="none" stroke="#99ff99" stroke-width="2"/>
<path d="M334,220v -9" fill="none" stroke="#99ff99" stroke-width="2"/>
<g stroke="black" stroke-width="2" fill="none">
<line x1="333" y1="220" x2="334" y2="220"/>
</g>
<path d="M342,222v -3" fill="none" stroke="#99ff99" stroke-width="2"/>
<path d="M342,219v -3" fill="none" stroke="#99ff99" stroke-width="2"/>
<g stroke="black" stroke-width="2" fill="none">
<line x1="341" y1="219" x2="342" y2="219"/>
</g>
<path d="M350,221v -3" fill="none" stroke="#99ff99" stroke-width="2"/>
<path d="M350,218v -3" fill="none" stroke="#99ff99" stroke-width="2"/>
<g stroke="black" stroke-width="2" fill="none">
<line x1="349" y1="218" x2="350" y2="218"/>
</g>
<path d="M357,242v -3" fill="none" stroke="#99ff99" stroke-width="2"/>
<path d="M357,239v -3" fill="none" stroke="#99ff99" stroke-width="2"/>
<g stroke="black" stroke-width="2" fill="none">
<line x1="356" y1="239" x2="357" y2="239"/>
</g>
<path d="M365,222v -3" fill="none" stroke="#99ff99" stroke-width="2"/>
<path d="M365,219v -4" fill="none" stroke="#99ff99" stroke-width="2"/>
<g stroke="black" stroke-width="2" fill="none">
<line x1="364" y1="219" x2="365" y2="219"/>
</g>
<path d="M372,222v -4" fill="none" stroke="#99ff99" stroke-width="2"/>
<path d="M372,218v -3" fill="none" stroke="#99ff99" stroke-width="2"/>
<g stroke="black" stroke-width="2" fill="none">
<line x1="371" y1="218" x2="372" y2="218"/>
</g>
<path d="M380,228v -3" fill="none" stroke="#99ff99" stroke-width="2"/>
<path d="M380,225v -3" fill="none" stroke="#99ff99" stroke-width="2"/>
<g stroke="black" stroke-width="2" fill="none">
<line x1="379" y1="225" x2="380" y2="225"/>
</g>
<path d="M387,236v -3" fill="none" stroke="#99ff99" stroke-width="2"/>
<path d="M387,233v -4" fill="none" stroke="#99ff99" stroke-width="2"/>
<g stroke="black" stroke-width="2" fill="none">
<line x1="386" y1="233" x2="387" y2="233"/>
</g>
<path d="M395,224v -3" fill="none" stroke="#99ff99" stroke-width="2"/>
<path d="M395,221v -3" fill="none" stroke="#99ff99" stroke-width="2"/>
<g stroke="black" stroke-width="2" fill="none">
<line x1="394" y1="221" x2="395" y2="221"/>
</g>
<path d="M403,223v -4" fill="none" stroke="#99ff99" stroke-width="2"/>
<path d="M403,219v -3" fill="none" stroke="#99ff99" stroke-width="2"/>
<g stroke="black" stroke-width="2" fill="none">
<line x1="402" y1="219" x2="403" y2="219"/>
</g>
<path d="M410,356v -2" fill="none" stroke="#99ff99" stroke-width="2"/>
<path d="M410,354v -2" fill="none" stroke="#99ff99" stroke-width="2"/>
<g stroke="black" stroke-width="2" fill="none">
<line x1="409" y1="354" x2="410" y2="354"/>
</g>
<path d="M74,446h 113v -94h 8v -123h 7v -4h 8v 1h 7v -9h 8v 6h 7v -3h 8v 19h 8v -20h 7v 2h 8v 11h 7v -4h 8v 2h 7v -4h 8v 11h 7v -2h 8v -9h 8v -5h 7v 4h 8v -5h 7v -1h 8v -1h 7v 21h 8v -20h 8v -1h 7v 7h 8v 8h 7v -12h 8v -2h 7v 135h 8v 92h 113z"
 fill="#99ff99"/>
<path d="M74,446h 113v -94h 8v -123h 7v -4h 8v 1h 7v -9h 8v 6h 7v -3h 8v 19h 8v -20h 7v 2h 8v 11h 7v -4h 8v 2h 7v -4h 8v 11h 7v -2h 8v -9h 8v -5h 7v 4h 8v -5h 7v -1h 8v -1h 7v 21h 8v -20h 8v -1h 7v 7h 8v 8h 7v -12h 8v -2h 7v 135h 8v 92h 113"
 fill="none" stroke="#99ff99" stroke-width="2"/>
<path d="M187,443h 3" fill="none" stroke="#ff0099"/>
<path d="M192,443h 3" fill="none" stroke="#ff0099"/>
<g stroke="#ff0099" stroke-width="1" fill="#ff0099">
<circle cx=" 191" cy=" 443" r=" 1.5"/>
</g>
<path d="M195,438h 2" fill="none" stroke="#ff0099"/>
<path d="M200,438h 2" fill="none" stroke="#ff0099"/>
<g stroke="#ff0099" stroke-width="1" fill="#ff0099">
<circle cx=" 198" cy=" 438" r=" 1.5"/>
</g>
<path d="M202,438h 3" fill="none" stroke="#ff0099"/>
<path d="M207,438h 3" fill="none" stroke="#ff0099"/>
<g stroke="#ff0099" stroke-width="1" fill="#ff0099">
<circle cx=" 206" cy=" 438" r=" 1.5"/>
</g>
<path d="M210,437h 2" fill="none" stroke="#ff0099"/>
<path d="M215,437h 2" fill="none" stroke="#ff0099"/>
<g stroke="#ff0099" stroke-width="1" fill="#ff0099">
<circle cx=" 214" cy=" 437" r=" 1.5"/>
</g>
<path d="M217,432h 3" fill="none" stroke="#ff0099"/>
<path d="M222,432h 3" fill="none" stroke="#ff0099"/>
<g stroke="#ff0099" stroke-width="1" fill="#ff0099">
<circle cx=" 221" cy=" 432" r=" 1.5"/>
</g>
<path d="M229,230v -1" fill="none" stroke="#ff0099"/>
<path d="M229,227v -1" fill="none" stroke="#ff0099"/>
<path d="M225,228h 3" fill="none" stroke="#ff0099"/>
<path d="M230,228h 2" fill="none" stroke="#ff0099"/>
<g stroke="#ff0099" stroke-width="1" fill="#ff0099">
<circle cx=" 229" cy=" 228" r=" 1.5"/>
</g>
<path d="M236,172v -1" fill="none" stroke="#ff0099"/>
<path d="M236,169v -1" fill="none" stroke="#ff0099"/>
<path d="M232,170h 3" fill="none" stroke="#ff0099"/>
<path d="M237,170h 3" fill="none" stroke="#ff0099"/>
<g stroke="#ff0099" stroke-width="1" fill="#ff0099">
<circle cx=" 236" cy=" 170" r=" 1.5"/>
</g>
<path d="M244,180" fill="none" stroke="#ff0099"/>
<path d="M244,177v -1" fill="none" stroke="#ff0099"/>
<path d="M240,178h 3" fill="none" stroke="#ff0099"/>
<path d="M245,178h 3" fill="none" stroke="#ff0099"/>
<g stroke="#ff0099" stroke-width="1" fill="#ff0099">
<circle cx=" 244" cy=" 178" r=" 1.5"/>
</g>
<path d="M251,133v -1" fill="none" stroke="#ff0099"/>
<path d="M251,130v -1" fill="none" stroke="#ff0099"/>
<path d="M248,131h 2" fill="none" stroke="#ff0099"/>
<path d="M252,131h 3" fill="none" stroke="#ff0099"/>
<g stroke="#ff0099" stroke-width="1" fill="#ff0099">
<circle cx=" 251" cy=" 131" r=" 1.5"/>
</g>
<path d="M259,116v -2" fill="none" stroke="#ff0099"/>
<path d="M259,112v -1" fill="none" stroke="#ff0099"/>
<path d="M255,113h 3" fill="none" stroke="#ff0099"/>
<path d="M260,113h 3" fill="none" stroke="#ff0099"/>
<g stroke="#ff0099" stroke-width="1" fill="#ff0099">
<circle cx=" 259" cy=" 113" r=" 1.5"/>
</g>
<path d="M266,139v -1" fill="none" stroke="#ff0099"/>
<path d="M266,136v -1" fill="none" stroke="#ff0099"/>
<path d="M263,137h 2" fill="none" stroke="#ff0099"/>
<path d="M268,137h 2" fill="none" stroke="#ff0099"/>
<g stroke="#ff0099" stroke-width="1" fill="#ff0099">
<circle cx=" 266" cy=" 137" r=" 1.5"/>
</g>
<path d="M274,112v -1" fill="none" stroke="#ff0099"/>
<path d="M274,109v -1" fill="none" stroke="#ff0099"/>
<path d="M270,110h 3" fill="none" stroke="#ff0099"/>
<path d="M275,110h 3" fill="none" stroke="#ff0099"/>
<g stroke="#ff0099" stroke-width="1" fill="#ff0099">
<circle cx=" 274" cy=" 110" r=" 1.5"/>
</g>
<path d="M282,94v -2" fill="none" stroke="#ff0099"/>
<path d="M282,90v -1" fill="none" stroke="#ff0099"/>
<path d="M278,91h 2" fill="none" stroke="#ff0099"/>
<path d="M283,91h 2" fill="none" stroke="#ff0099"/>
<g stroke="#ff0099" stroke-width="1" fill="#ff0099">
<circle cx=" 282" cy=" 91" r=" 1.5"/>
</g>
<path d="M289,68v -1" fill="none" stroke="#ff0099"/>
<path d="M289,65v -2" fill="none" stroke="#ff0099"/>
<path d="M285,66h 3" fill="none" stroke="#ff0099"/>
<path d="M290,66h 3" fill="none" stroke="#ff0099"/>
<g stroke="#ff0099" stroke-width="1" fill="#ff0099">
<circle cx=" 289" cy=" 66" r=" 1.5"/>
</g>
<path d="M297,103v -1" fill="none" stroke="#ff0099"/>
<path d="M297,100v -1" fill="none" stroke="#ff0099"/>
<path d="M293,101h 3" fill="none" stroke="#ff0099"/>
<path d="M298,101h 2" fill="none" stroke="#ff0099"/>
<g stroke="#ff0099" stroke-width="1" fill="#ff0099">
<circle cx=" 297" cy=" 101" r=" 1.5"/>
</g>
<path d="M304,90v -1" fill="none" stroke="#ff0099"/>
<path d="M304,86v -1" fill="none" stroke="#ff0099"/>
<path d="M300,87h 3" fill="none" stroke="#ff0099"/>
<path d="M305,87h 3" fill="none" stroke="#ff0099"/>
<g stroke="#ff0099" stroke-width="1" fill="#ff0099">
<circle cx=" 304" cy=" 87" r=" 1.5"/>
</g>
<path d="M312,72v -2" fill="none" stroke="#ff0099"/>
<path d="M312,68v -1" fill="none" stroke="#ff0099"/>
<path d="M308,69h 3" fill="none" stroke="#ff0099"/>
<path d="M313,69h 3" fill="none" stroke="#ff0099"/>
<g stroke="#ff0099" stroke-width="1" fill="#ff0099">
<circle cx=" 312" cy=" 69" r=" 1.5"/>
</g>
<path d="M319,91v -1" fill="none" stroke="#ff0099"/>
<path d="M319,87v -1" fill="none" stroke="#ff0099"/>
<path d="M316,89h 2" fill="none" stroke="#ff0099"/>
<path d="M321,89h 2" fill="none" stroke="#ff0099"/>
<g stroke="#ff0099" stroke-width="1" fill="#ff0099">
<circle cx=" 319" cy=" 89" r=" 1.5"/>
</g>
<path d="M327,107v -2" fill="none" stroke="#ff0099"/>
<path d="M327,103v -1" fill="none" stroke="#ff0099"/>
<path d="M323,104h 3" fill="none" stroke="#ff0099"/>
<path d="M328,104h 3" fill="none" stroke="#ff0099"/>
<g stroke="#ff0099" stroke-width="1" fill="#ff0099">
<circle cx=" 327" cy=" 104" r=" 1.5"/>
</g>
<path d="M334,139v -1" fill="none" stroke="#ff0099"/>
<path d="M334,136v -1" fill="none" stroke="#ff0099"/>
<path d="M331,137h 2" fill="none" stroke="#ff0099"/>
<path d="M336,137h 2" fill="none" stroke="#ff0099"/>
<g stroke="#ff0099" stroke-width="1" fill="#ff0099">
<circle cx=" 334" cy=" 137" r=" 1.5"/>
</g>
<path d="M342,120v -2" fill="none" stroke="#ff0099"/>
<path d="M342,116v -1" fill="none" stroke="#ff0099"/>
<path d="M338,117h 3" fill="none" stroke="#ff0099"/>
<path d="M343,117h 3" fill="none" stroke="#ff0099"/>
<g stroke="#ff0099" stroke-width="1" fill="#ff0099">
<circle cx=" 342" cy=" 117" r=" 1.5"/>
</g>
<path d="M350,128v -1" fill="none" stroke="#ff0099"/>
<path d="M350,125v -1" fill="none" stroke="#ff0099"/>
<path d="M346,126h 2" fill="none" stroke="#ff0099"/>
<path d="M351,126h 2" fill="none" stroke="#ff0099"/>
<g stroke="#ff0099" stroke-width="1" fill="#ff0099">
<circle cx=" 350" cy=" 126" r=" 1.5"/>
</g>
<path d="M357,183v -1" fill="none" stroke="#ff0099"/>
<path d="M357,180v -1" fill="none" stroke="#ff0099"/>
<path d="M353,181h 3" fill="none" stroke="#ff0099"/>
<path d="M358,181h 3" fill="none" stroke="#ff0099"/>
<g stroke="#ff0099" stroke-width="1" fill="#ff0099">
<circle cx=" 357" cy=" 181" r=" 1.5"/>
</g>
<path d="M365,180v -1" fill="none" stroke="#ff0099"/>
<path d="M365,177v -1" fill="none" stroke="#ff0099"/>
<path d="M361,178h 3" fill="none" stroke="#ff0099"/>
<path d="M366,178h 3" fill="none" stroke="#ff0099"/>
<g stroke="#ff0099" stroke-width="1" fill="#ff0099">
<circle cx=" 365" cy=" 178" r=" 1.5"/>
</g>
<path d="M372,227" fill="none" stroke="#ff0099"/>
<path d="M372,224" fill="none" stroke="#ff0099"/>
<path d="M369,225h 2" fill="none" stroke="#ff0099"/>
<path d="M373,225h 3" fill="none" stroke="#ff0099"/>
<g stroke="#ff0099" stroke-width="1" fill="#ff0099">
<circle cx=" 372" cy=" 225" r=" 1.5"/>
</g>
<path d="M376,432h 3" fill="none" stroke="#ff0099"/>
<path d="M381,432h 3" fill="none" stroke="#ff0099"/>
<g stroke="#ff0099" stroke-width="1" fill="#ff0099">
<circle cx=" 380" cy=" 432" r=" 1.5"/>
</g>
<path d="M384,437h 2" fill="none" stroke="#ff0099"/>
<path d="M389,437h 2" fill="none" stroke="#ff0099"/>
<g stroke="#ff0099" stroke-width="1" fill="#ff0099">
<circle cx=" 387" cy=" 437" r=" 1.5"/>
</g>
<path d="M391,437h 3" fill="none" stroke="#ff0099"/>
<path d="M396,437h 3" fill="none" stroke="#ff0099"/>
<g stroke="#ff0099" stroke-width="1" fill="#ff0099">
<circle cx=" 395" cy=" 437" r=" 1.5"/>
</g>
<path d="M399,438h 2" fill="none" stroke="#ff0099"/>
<path d="M404,438h 2" fill="none" stroke="#ff0099"/>
<g stroke="#ff0099" stroke-width="1" fill="#ff0099">
<circle cx=" 403" cy=" 438" r=" 1.5"/>
</g>
<path d="M406,442h 3" fill="none" stroke="#ff0099"/>
<path d="M411,442h 3" fill="none" stroke="#ff0099"/>
<g stroke="#ff0099" stroke-width="1" fill="#ff0099">
<circle cx=" 410" cy=" 442" r=" 1.5"/>
</g>
<rect x="357" y="59" width="142" height="99" fill="white"/>
<text x="360" y="82" fill="black" font-size="17" font-family="Helvetica" font-weight="bold">
EB
</text>
<text x="457" y="115" fill="black" font-size="17" font-family="Helvetica" font-weight="bold">
 ee
</text>
<text x="440" y="115" fill="black" font-size="17" font-family="Times">
&#8594;
</text>
<text x="392" y="115" fill="black" font-size="17" font-family="Helvetica" font-weight="bold">
MC Z 
</text>
<path d="M362,109h 25" fill="none" stroke="#ff0099"/>
<g stroke="#ff0099" stroke-width="1" fill="#ff0099">
<circle cx=" 375" cy=" 109" r=" 1.5"/>
</g>
<text x="455" y="147" fill="black" font-size="17" font-family="Helvetica" font-weight="bold">
 + jet
</text>
<text x="447" y="147" fill="black" font-size="17" font-family="Times">
&#0947;
</text>
<text x="392" y="147" fill="black" font-size="17" font-family="Helvetica" font-weight="bold">
signal 
</text>
<path d="M362,154h 25v -24h -25z" fill="#99ff99"/>
<path d="M362,130h 25" fill="none" stroke="#99ff99" stroke-width="2"/>
<path d="M362,154h 25" fill="none" stroke="#99ff99" stroke-width="2"/>
<path d="M387,154v -24" fill="none" stroke="#99ff99" stroke-width="2"/>
<path d="M362,154v -24" fill="none" stroke="#99ff99" stroke-width="2"/>
<text x="300" y="34" fill="black" font-size="17" font-family="Helvetica" font-weight="bold">
=8 TeV
</text>
<text x="291" y="34" fill="black" font-size="17" font-family="Helvetica" font-weight="bold">
s
</text>
<path d="M285,25l 2, 10" fill="none" stroke="black" stroke-width="2"/>
<path d="M287,35l 2, -14" fill="none" stroke="black"/>
<path d="M289,21h 11" fill="none" stroke="black"/>
<text x="142" y="34" fill="black" font-size="17" font-family="Helvetica" font-weight="bold">
CMS Preliminary 
</text></svg>
