<?xml version="1.0" standalone="no"?>
<svg width="567" height="496" viewBox="0 0 567 496" xmlns="http://www.w3.org/2000/svg">
<title>
../src/TagAndProbeZ/plots_mcZee_mcGJet_withEtaR9rhoReweight/hlt90//etaPhotEE_log.svg
</title>
<desc>
Creator: ROOT Version 5.32/00
CreationDate: Wed Dec  3 10:37:44 2014</desc>
<defs>
</defs>
<rect x="0" y="0" width="567" height="496" fill="white"/>
<rect x="0" y="0" width="567" height="347" fill="white"/>
<rect x="57" y="34" width="453" height="278" fill="white"/>
<rect x="57" y="34" width="453" height="278" fill="none" stroke="black"/>
<rect x="57" y="34" width="453" height="278" fill="white"/>
<rect x="57" y="34" width="453" height="278" fill="none" stroke="black"/>
<path d="M94,141h 3" fill="none" stroke="#ff0099"/>
<path d="M99,141h 3" fill="none" stroke="#ff0099"/>
<g stroke="#ff0099" stroke-width="1" fill="#ff0099">
<circle cx=" 98" cy=" 141" r=" 1.5"/>
</g>
<path d="M102,133h 3" fill="none" stroke="#ff0099"/>
<path d="M107,133h 3" fill="none" stroke="#ff0099"/>
<g stroke="#ff0099" stroke-width="1" fill="#ff0099">
<circle cx=" 106" cy=" 133" r=" 1.5"/>
</g>
<path d="M110,133h 2" fill="none" stroke="#ff0099"/>
<path d="M115,133h 2" fill="none" stroke="#ff0099"/>
<g stroke="#ff0099" stroke-width="1" fill="#ff0099">
<circle cx=" 113" cy=" 133" r=" 1.5"/>
</g>
<path d="M117,133h 3" fill="none" stroke="#ff0099"/>
<path d="M122,133h 3" fill="none" stroke="#ff0099"/>
<g stroke="#ff0099" stroke-width="1" fill="#ff0099">
<circle cx=" 121" cy=" 133" r=" 1.5"/>
</g>
<path d="M125,137h 2" fill="none" stroke="#ff0099"/>
<path d="M130,137h 2" fill="none" stroke="#ff0099"/>
<g stroke="#ff0099" stroke-width="1" fill="#ff0099">
<circle cx=" 129" cy=" 137" r=" 1.5"/>
</g>
<path d="M132,68h 3" fill="none" stroke="#ff0099"/>
<path d="M137,68h 3" fill="none" stroke="#ff0099"/>
<g stroke="#ff0099" stroke-width="1" fill="#ff0099">
<circle cx=" 136" cy=" 68" r=" 1.5"/>
</g>
<path d="M140,72h 2" fill="none" stroke="#ff0099"/>
<path d="M145,72h 2" fill="none" stroke="#ff0099"/>
<g stroke="#ff0099" stroke-width="1" fill="#ff0099">
<circle cx=" 144" cy=" 72" r=" 1.5"/>
</g>
<path d="M147,74h 3" fill="none" stroke="#ff0099"/>
<path d="M152,74h 3" fill="none" stroke="#ff0099"/>
<g stroke="#ff0099" stroke-width="1" fill="#ff0099">
<circle cx=" 151" cy=" 74" r=" 1.5"/>
</g>
<path d="M155,71h 3" fill="none" stroke="#ff0099"/>
<path d="M160,71h 3" fill="none" stroke="#ff0099"/>
<g stroke="#ff0099" stroke-width="1" fill="#ff0099">
<circle cx=" 159" cy=" 71" r=" 1.5"/>
</g>
<path d="M163,90h 2" fill="none" stroke="#ff0099"/>
<path d="M167,90h 3" fill="none" stroke="#ff0099"/>
<g stroke="#ff0099" stroke-width="1" fill="#ff0099">
<circle cx=" 166" cy=" 90" r=" 1.5"/>
</g>
<path d="M397,90h 2" fill="none" stroke="#ff0099"/>
<path d="M402,90h 2" fill="none" stroke="#ff0099"/>
<g stroke="#ff0099" stroke-width="1" fill="#ff0099">
<circle cx=" 401" cy=" 90" r=" 1.5"/>
</g>
<path d="M404,72h 3" fill="none" stroke="#ff0099"/>
<path d="M409,72h 3" fill="none" stroke="#ff0099"/>
<g stroke="#ff0099" stroke-width="1" fill="#ff0099">
<circle cx=" 408" cy=" 72" r=" 1.5"/>
</g>
<path d="M412,74h 3" fill="none" stroke="#ff0099"/>
<path d="M417,74h 3" fill="none" stroke="#ff0099"/>
<g stroke="#ff0099" stroke-width="1" fill="#ff0099">
<circle cx=" 416" cy=" 74" r=" 1.5"/>
</g>
<path d="M420,72h 2" fill="none" stroke="#ff0099"/>
<path d="M424,72h 3" fill="none" stroke="#ff0099"/>
<g stroke="#ff0099" stroke-width="1" fill="#ff0099">
<circle cx=" 423" cy=" 72" r=" 1.5"/>
</g>
<path d="M427,67h 3" fill="none" stroke="#ff0099"/>
<path d="M432,67h 3" fill="none" stroke="#ff0099"/>
<g stroke="#ff0099" stroke-width="1" fill="#ff0099">
<circle cx=" 431" cy=" 67" r=" 1.5"/>
</g>
<path d="M435,137h 2" fill="none" stroke="#ff0099"/>
<path d="M440,137h 2" fill="none" stroke="#ff0099"/>
<g stroke="#ff0099" stroke-width="1" fill="#ff0099">
<circle cx=" 438" cy=" 137" r=" 1.5"/>
</g>
<path d="M442,134h 3" fill="none" stroke="#ff0099"/>
<path d="M447,134h 3" fill="none" stroke="#ff0099"/>
<g stroke="#ff0099" stroke-width="1" fill="#ff0099">
<circle cx=" 446" cy=" 134" r=" 1.5"/>
</g>
<path d="M450,134h 2" fill="none" stroke="#ff0099"/>
<path d="M455,134h 2" fill="none" stroke="#ff0099"/>
<g stroke="#ff0099" stroke-width="1" fill="#ff0099">
<circle cx=" 454" cy=" 134" r=" 1.5"/>
</g>
<path d="M457,134h 3" fill="none" stroke="#ff0099"/>
<path d="M462,134h 3" fill="none" stroke="#ff0099"/>
<g stroke="#ff0099" stroke-width="1" fill="#ff0099">
<circle cx=" 461" cy=" 134" r=" 1.5"/>
</g>
<path d="M465,141h 3" fill="none" stroke="#ff0099"/>
<path d="M470,141h 2" fill="none" stroke="#ff0099"/>
<g stroke="#ff0099" stroke-width="1" fill="#ff0099">
<circle cx=" 469" cy=" 141" r=" 1.5"/>
</g>
<path d="M57,312h 453" fill="none" stroke="black"/>
<text x="503" y="337" fill="black" font-size="13" font-family="Times">
&#0951;
</text>
<text x="499" y="337" fill="black" font-size="13" font-family="Helvetica" font-weight="bold">
 
</text>
<text x="492" y="337" fill="black" font-size="13" font-family="Times">
&#0947;
</text>
<path d="M57,304v 8" fill="none" stroke="black"/>
<path d="M72,308v 4" fill="none" stroke="black"/>
<path d="M87,308v 4" fill="none" stroke="black"/>
<path d="M102,308v 4" fill="none" stroke="black"/>
<path d="M117,308v 4" fill="none" stroke="black"/>
<path d="M132,304v 8" fill="none" stroke="black"/>
<path d="M147,308v 4" fill="none" stroke="black"/>
<path d="M163,308v 4" fill="none" stroke="black"/>
<path d="M178,308v 4" fill="none" stroke="black"/>
<path d="M193,308v 4" fill="none" stroke="black"/>
<path d="M208,304v 8" fill="none" stroke="black"/>
<path d="M223,308v 4" fill="none" stroke="black"/>
<path d="M238,308v 4" fill="none" stroke="black"/>
<path d="M253,308v 4" fill="none" stroke="black"/>
<path d="M268,308v 4" fill="none" stroke="black"/>
<path d="M283,304v 8" fill="none" stroke="black"/>
<path d="M299,308v 4" fill="none" stroke="black"/>
<path d="M314,308v 4" fill="none" stroke="black"/>
<path d="M329,308v 4" fill="none" stroke="black"/>
<path d="M344,308v 4" fill="none" stroke="black"/>
<path d="M359,304v 8" fill="none" stroke="black"/>
<path d="M374,308v 4" fill="none" stroke="black"/>
<path d="M389,308v 4" fill="none" stroke="black"/>
<path d="M404,308v 4" fill="none" stroke="black"/>
<path d="M420,308v 4" fill="none" stroke="black"/>
<path d="M435,304v 8" fill="none" stroke="black"/>
<path d="M450,308v 4" fill="none" stroke="black"/>
<path d="M465,308v 4" fill="none" stroke="black"/>
<path d="M480,308v 4" fill="none" stroke="black"/>
<path d="M495,308v 4" fill="none" stroke="black"/>
<path d="M510,304v 8" fill="none" stroke="black"/>
<text x="51" y="325" fill="black" font-size="13" font-family="Helvetica" font-weight="bold">
-3
</text>
<text x="126" y="325" fill="black" font-size="13" font-family="Helvetica" font-weight="bold">
-2
</text>
<text x="203" y="325" fill="black" font-size="13" font-family="Helvetica" font-weight="bold">
-1
</text>
<text x="280" y="325" fill="black" font-size="13" font-family="Helvetica" font-weight="bold">
0
</text>
<text x="356" y="325" fill="black" font-size="13" font-family="Helvetica" font-weight="bold">
1
</text>
<text x="431" y="325" fill="black" font-size="13" font-family="Helvetica" font-weight="bold">
2
</text>
<text x="507" y="325" fill="black" font-size="13" font-family="Helvetica" font-weight="bold">
3
</text>
<path d="M57,312v -278" fill="none" stroke="black"/>
<g transform="rotate(-90,28,99)">
<text x="28" y="99" fill="black" font-size="13" font-family="Helvetica" font-weight="bold">
Entries/0.1
</text>
</g>
<path d="M63,309h -6" fill="none" stroke="black"/>
<path d="M63,305h -6" fill="none" stroke="black"/>
<path d="M63,301h -6" fill="none" stroke="black"/>
<path d="M63,298h -6" fill="none" stroke="black"/>
<path d="M63,296h -6" fill="none" stroke="black"/>
<path d="M63,293h -6" fill="none" stroke="black"/>
<path d="M70,291h -13" fill="none" stroke="black"/>
<text x="44" y="291" fill="black" font-size="9" font-family="Helvetica" font-weight="bold">
-6
</text>
<text x="30" y="297" fill="black" font-size="13" font-family="Helvetica" font-weight="bold">
10
</text>
<path d="M63,278h -6" fill="none" stroke="black"/>
<path d="M63,271h -6" fill="none" stroke="black"/>
<path d="M63,265h -6" fill="none" stroke="black"/>
<path d="M63,261h -6" fill="none" stroke="black"/>
<path d="M63,257h -6" fill="none" stroke="black"/>
<path d="M63,254h -6" fill="none" stroke="black"/>
<path d="M63,252h -6" fill="none" stroke="black"/>
<path d="M63,250h -6" fill="none" stroke="black"/>
<path d="M70,248h -13" fill="none" stroke="black"/>
<text x="44" y="247" fill="black" font-size="9" font-family="Helvetica" font-weight="bold">
-5
</text>
<text x="30" y="254" fill="black" font-size="13" font-family="Helvetica" font-weight="bold">
10
</text>
<path d="M63,235h -6" fill="none" stroke="black"/>
<path d="M63,227h -6" fill="none" stroke="black"/>
<path d="M63,221h -6" fill="none" stroke="black"/>
<path d="M63,217h -6" fill="none" stroke="black"/>
<path d="M63,214h -6" fill="none" stroke="black"/>
<path d="M63,211h -6" fill="none" stroke="black"/>
<path d="M63,208h -6" fill="none" stroke="black"/>
<path d="M63,206h -6" fill="none" stroke="black"/>
<path d="M70,204h -13" fill="none" stroke="black"/>
<text x="44" y="204" fill="black" font-size="9" font-family="Helvetica" font-weight="bold">
-4
</text>
<text x="30" y="210" fill="black" font-size="13" font-family="Helvetica" font-weight="bold">
10
</text>
<path d="M63,191h -6" fill="none" stroke="black"/>
<path d="M63,183h -6" fill="none" stroke="black"/>
<path d="M63,178h -6" fill="none" stroke="black"/>
<path d="M63,173h -6" fill="none" stroke="black"/>
<path d="M63,170h -6" fill="none" stroke="black"/>
<path d="M63,167h -6" fill="none" stroke="black"/>
<path d="M63,165h -6" fill="none" stroke="black"/>
<path d="M63,162h -6" fill="none" stroke="black"/>
<path d="M70,160h -13" fill="none" stroke="black"/>
<text x="44" y="160" fill="black" font-size="9" font-family="Helvetica" font-weight="bold">
-3
</text>
<text x="30" y="166" fill="black" font-size="13" font-family="Helvetica" font-weight="bold">
10
</text>
<path d="M63,147h -6" fill="none" stroke="black"/>
<path d="M63,139h -6" fill="none" stroke="black"/>
<path d="M63,134h -6" fill="none" stroke="black"/>
<path d="M63,130h -6" fill="none" stroke="black"/>
<path d="M63,126h -6" fill="none" stroke="black"/>
<path d="M63,123h -6" fill="none" stroke="black"/>
<path d="M63,121h -6" fill="none" stroke="black"/>
<path d="M63,119h -6" fill="none" stroke="black"/>
<path d="M70,117h -13" fill="none" stroke="black"/>
<text x="44" y="116" fill="black" font-size="9" font-family="Helvetica" font-weight="bold">
-2
</text>
<text x="30" y="123" fill="black" font-size="13" font-family="Helvetica" font-weight="bold">
10
</text>
<path d="M63,103h -6" fill="none" stroke="black"/>
<path d="M63,96h -6" fill="none" stroke="black"/>
<path d="M63,90h -6" fill="none" stroke="black"/>
<path d="M63,86h -6" fill="none" stroke="black"/>
<path d="M63,83h -6" fill="none" stroke="black"/>
<path d="M63,80h -6" fill="none" stroke="black"/>
<path d="M63,77h -6" fill="none" stroke="black"/>
<path d="M63,75h -6" fill="none" stroke="black"/>
<path d="M70,73h -13" fill="none" stroke="black"/>
<text x="46" y="73" fill="black" font-size="9" font-family="Helvetica" font-weight="bold">
-1
</text>
<text x="31" y="79" fill="black" font-size="13" font-family="Helvetica" font-weight="bold">
10
</text>
<path d="M63,60h -6" fill="none" stroke="black"/>
<path d="M63,52h -6" fill="none" stroke="black"/>
<path d="M63,47h -6" fill="none" stroke="black"/>
<path d="M63,42h -6" fill="none" stroke="black"/>
<path d="M63,39h -6" fill="none" stroke="black"/>
<path d="M63,36h -6" fill="none" stroke="black"/>
<path d="M98,92" fill="none" stroke="#99ff99" stroke-width="2"/>
<path d="M98,92v -1" fill="none" stroke="#99ff99" stroke-width="2"/>
<g stroke="black" stroke-width="2" fill="none">
<line x1="97" y1="92" x2="98" y2="92"/>
</g>
<path d="M106,87v -1" fill="none" stroke="#99ff99" stroke-width="2"/>
<path d="M106,86v -1" fill="none" stroke="#99ff99" stroke-width="2"/>
<g stroke="black" stroke-width="2" fill="none">
<line x1="105" y1="86" x2="106" y2="86"/>
</g>
<path d="M113,86v -1" fill="none" stroke="#99ff99" stroke-width="2"/>
<path d="M113,85" fill="none" stroke="#99ff99" stroke-width="2"/>
<g stroke="black" stroke-width="2" fill="none">
<line x1="112" y1="85" x2="113" y2="85"/>
</g>
<path d="M121,86v -1" fill="none" stroke="#99ff99" stroke-width="2"/>
<path d="M121,85" fill="none" stroke="#99ff99" stroke-width="2"/>
<g stroke="black" stroke-width="2" fill="none">
<line x1="120" y1="85" x2="121" y2="85"/>
</g>
<path d="M129,85v -1" fill="none" stroke="#99ff99" stroke-width="2"/>
<path d="M129,84" fill="none" stroke="#99ff99" stroke-width="2"/>
<g stroke="black" stroke-width="2" fill="none">
<line x1="128" y1="84" x2="129" y2="84"/>
</g>
<path d="M136,84v -1" fill="none" stroke="#99ff99" stroke-width="2"/>
<path d="M136,83" fill="none" stroke="#99ff99" stroke-width="2"/>
<g stroke="black" stroke-width="2" fill="none">
<line x1="135" y1="83" x2="136" y2="83"/>
</g>
<path d="M144,84" fill="none" stroke="#99ff99" stroke-width="2"/>
<path d="M144,84" fill="none" stroke="#99ff99" stroke-width="2"/>
<g stroke="black" stroke-width="2" fill="none">
<line x1="143" y1="84" x2="144" y2="84"/>
</g>
<path d="M151,83v -1" fill="none" stroke="#99ff99" stroke-width="2"/>
<path d="M151,82" fill="none" stroke="#99ff99" stroke-width="2"/>
<g stroke="black" stroke-width="2" fill="none">
<line x1="150" y1="82" x2="151" y2="82"/>
</g>
<path d="M159,83" fill="none" stroke="#99ff99" stroke-width="2"/>
<path d="M159,83v -1" fill="none" stroke="#99ff99" stroke-width="2"/>
<g stroke="black" stroke-width="2" fill="none">
<line x1="158" y1="83" x2="159" y2="83"/>
</g>
<path d="M166,104" fill="none" stroke="#99ff99" stroke-width="2"/>
<path d="M166,104v -1" fill="none" stroke="#99ff99" stroke-width="2"/>
<g stroke="black" stroke-width="2" fill="none">
<line x1="165" y1="104" x2="166" y2="104"/>
</g>
<path d="M401,105v -1" fill="none" stroke="#99ff99" stroke-width="2"/>
<path d="M401,104v -1" fill="none" stroke="#99ff99" stroke-width="2"/>
<g stroke="black" stroke-width="2" fill="none">
<line x1="400" y1="104" x2="401" y2="104"/>
</g>
<path d="M408,84v -1" fill="none" stroke="#99ff99" stroke-width="2"/>
<path d="M408,83" fill="none" stroke="#99ff99" stroke-width="2"/>
<g stroke="black" stroke-width="2" fill="none">
<line x1="407" y1="83" x2="408" y2="83"/>
</g>
<path d="M416,84" fill="none" stroke="#99ff99" stroke-width="2"/>
<path d="M416,84" fill="none" stroke="#99ff99" stroke-width="2"/>
<g stroke="black" stroke-width="2" fill="none">
<line x1="415" y1="84" x2="416" y2="84"/>
</g>
<path d="M423,84v -1" fill="none" stroke="#99ff99" stroke-width="2"/>
<path d="M423,83" fill="none" stroke="#99ff99" stroke-width="2"/>
<g stroke="black" stroke-width="2" fill="none">
<line x1="422" y1="83" x2="423" y2="83"/>
</g>
<path d="M431,83" fill="none" stroke="#99ff99" stroke-width="2"/>
<path d="M431,83" fill="none" stroke="#99ff99" stroke-width="2"/>
<g stroke="black" stroke-width="2" fill="none">
<line x1="430" y1="83" x2="431" y2="83"/>
</g>
<path d="M438,84" fill="none" stroke="#99ff99" stroke-width="2"/>
<path d="M438,84v -1" fill="none" stroke="#99ff99" stroke-width="2"/>
<g stroke="black" stroke-width="2" fill="none">
<line x1="437" y1="84" x2="438" y2="84"/>
</g>
<path d="M446,85v -1" fill="none" stroke="#99ff99" stroke-width="2"/>
<path d="M446,84" fill="none" stroke="#99ff99" stroke-width="2"/>
<g stroke="black" stroke-width="2" fill="none">
<line x1="445" y1="84" x2="446" y2="84"/>
</g>
<path d="M454,86v -1" fill="none" stroke="#99ff99" stroke-width="2"/>
<path d="M454,85" fill="none" stroke="#99ff99" stroke-width="2"/>
<g stroke="black" stroke-width="2" fill="none">
<line x1="453" y1="85" x2="454" y2="85"/>
</g>
<path d="M461,86" fill="none" stroke="#99ff99" stroke-width="2"/>
<path d="M461,86v -1" fill="none" stroke="#99ff99" stroke-width="2"/>
<g stroke="black" stroke-width="2" fill="none">
<line x1="460" y1="86" x2="461" y2="86"/>
</g>
<path d="M469,92v -1" fill="none" stroke="#99ff99" stroke-width="2"/>
<path d="M469,91" fill="none" stroke="#99ff99" stroke-width="2"/>
<g stroke="black" stroke-width="2" fill="none">
<line x1="468" y1="91" x2="469" y2="91"/>
</g>
<path d="M57,312h 37v -220h 8v -6h 8v -1h 15v -1h 7v -1h 8v 1h 7v -2h 8v 1h 8v 21h 7v 208h 227v -208h 7v -21h 8v 1h 8v -1h 15v 1h 15v 1h 7v 1h 8v 5h 7v 221h 38z" fill="#99ff99"/>
<path d="M57,312h 37v -220h 8v -6h 8v -1h 15v -1h 7v -1h 8v 1h 7v -2h 8v 1h 8v 21h 7v 208h 227v -208h 7v -21h 8v 1h 8v -1h 15v 1h 15v 1h 7v 1h 8v 5h 7v 221h 38" fill="none" stroke="#99ff99" stroke-width="2"/>
<path d="M94,141h 3" fill="none" stroke="#ff0099"/>
<path d="M99,141h 3" fill="none" stroke="#ff0099"/>
<g stroke="#ff0099" stroke-width="1" fill="#ff0099">
<circle cx=" 98" cy=" 141" r=" 1.5"/>
</g>
<path d="M102,133h 3" fill="none" stroke="#ff0099"/>
<path d="M107,133h 3" fill="none" stroke="#ff0099"/>
<g stroke="#ff0099" stroke-width="1" fill="#ff0099">
<circle cx=" 106" cy=" 133" r=" 1.5"/>
</g>
<path d="M110,133h 2" fill="none" stroke="#ff0099"/>
<path d="M115,133h 2" fill="none" stroke="#ff0099"/>
<g stroke="#ff0099" stroke-width="1" fill="#ff0099">
<circle cx=" 113" cy=" 133" r=" 1.5"/>
</g>
<path d="M117,133h 3" fill="none" stroke="#ff0099"/>
<path d="M122,133h 3" fill="none" stroke="#ff0099"/>
<g stroke="#ff0099" stroke-width="1" fill="#ff0099">
<circle cx=" 121" cy=" 133" r=" 1.5"/>
</g>
<path d="M125,137h 2" fill="none" stroke="#ff0099"/>
<path d="M130,137h 2" fill="none" stroke="#ff0099"/>
<g stroke="#ff0099" stroke-width="1" fill="#ff0099">
<circle cx=" 129" cy=" 137" r=" 1.5"/>
</g>
<path d="M132,68h 3" fill="none" stroke="#ff0099"/>
<path d="M137,68h 3" fill="none" stroke="#ff0099"/>
<g stroke="#ff0099" stroke-width="1" fill="#ff0099">
<circle cx=" 136" cy=" 68" r=" 1.5"/>
</g>
<path d="M140,72h 2" fill="none" stroke="#ff0099"/>
<path d="M145,72h 2" fill="none" stroke="#ff0099"/>
<g stroke="#ff0099" stroke-width="1" fill="#ff0099">
<circle cx=" 144" cy=" 72" r=" 1.5"/>
</g>
<path d="M147,74h 3" fill="none" stroke="#ff0099"/>
<path d="M152,74h 3" fill="none" stroke="#ff0099"/>
<g stroke="#ff0099" stroke-width="1" fill="#ff0099">
<circle cx=" 151" cy=" 74" r=" 1.5"/>
</g>
<path d="M155,71h 3" fill="none" stroke="#ff0099"/>
<path d="M160,71h 3" fill="none" stroke="#ff0099"/>
<g stroke="#ff0099" stroke-width="1" fill="#ff0099">
<circle cx=" 159" cy=" 71" r=" 1.5"/>
</g>
<path d="M163,90h 2" fill="none" stroke="#ff0099"/>
<path d="M167,90h 3" fill="none" stroke="#ff0099"/>
<g stroke="#ff0099" stroke-width="1" fill="#ff0099">
<circle cx=" 166" cy=" 90" r=" 1.5"/>
</g>
<path d="M397,90h 2" fill="none" stroke="#ff0099"/>
<path d="M402,90h 2" fill="none" stroke="#ff0099"/>
<g stroke="#ff0099" stroke-width="1" fill="#ff0099">
<circle cx=" 401" cy=" 90" r=" 1.5"/>
</g>
<path d="M404,72h 3" fill="none" stroke="#ff0099"/>
<path d="M409,72h 3" fill="none" stroke="#ff0099"/>
<g stroke="#ff0099" stroke-width="1" fill="#ff0099">
<circle cx=" 408" cy=" 72" r=" 1.5"/>
</g>
<path d="M412,74h 3" fill="none" stroke="#ff0099"/>
<path d="M417,74h 3" fill="none" stroke="#ff0099"/>
<g stroke="#ff0099" stroke-width="1" fill="#ff0099">
<circle cx=" 416" cy=" 74" r=" 1.5"/>
</g>
<path d="M420,72h 2" fill="none" stroke="#ff0099"/>
<path d="M424,72h 3" fill="none" stroke="#ff0099"/>
<g stroke="#ff0099" stroke-width="1" fill="#ff0099">
<circle cx=" 423" cy=" 72" r=" 1.5"/>
</g>
<path d="M427,67h 3" fill="none" stroke="#ff0099"/>
<path d="M432,67h 3" fill="none" stroke="#ff0099"/>
<g stroke="#ff0099" stroke-width="1" fill="#ff0099">
<circle cx=" 431" cy=" 67" r=" 1.5"/>
</g>
<path d="M435,137h 2" fill="none" stroke="#ff0099"/>
<path d="M440,137h 2" fill="none" stroke="#ff0099"/>
<g stroke="#ff0099" stroke-width="1" fill="#ff0099">
<circle cx=" 438" cy=" 137" r=" 1.5"/>
</g>
<path d="M442,134h 3" fill="none" stroke="#ff0099"/>
<path d="M447,134h 3" fill="none" stroke="#ff0099"/>
<g stroke="#ff0099" stroke-width="1" fill="#ff0099">
<circle cx=" 446" cy=" 134" r=" 1.5"/>
</g>
<path d="M450,134h 2" fill="none" stroke="#ff0099"/>
<path d="M455,134h 2" fill="none" stroke="#ff0099"/>
<g stroke="#ff0099" stroke-width="1" fill="#ff0099">
<circle cx=" 454" cy=" 134" r=" 1.5"/>
</g>
<path d="M457,134h 3" fill="none" stroke="#ff0099"/>
<path d="M462,134h 3" fill="none" stroke="#ff0099"/>
<g stroke="#ff0099" stroke-width="1" fill="#ff0099">
<circle cx=" 461" cy=" 134" r=" 1.5"/>
</g>
<path d="M465,141h 3" fill="none" stroke="#ff0099"/>
<path d="M470,141h 2" fill="none" stroke="#ff0099"/>
<g stroke="#ff0099" stroke-width="1" fill="#ff0099">
<circle cx=" 469" cy=" 141" r=" 1.5"/>
</g>
<rect x="357" y="41" width="142" height="70" fill="white"/>
<text x="360" y="58" fill="black" font-size="12" font-family="Helvetica" font-weight="bold">
EE
</text>
<text x="439" y="81" fill="black" font-size="12" font-family="Helvetica" font-weight="bold">
 ee
</text>
<text x="426" y="81" fill="black" font-size="12" font-family="Times">
&#8594;
</text>
<text x="392" y="81" fill="black" font-size="12" font-family="Helvetica" font-weight="bold">
MC Z 
</text>
<path d="M362,76h 25" fill="none" stroke="#ff0099"/>
<g stroke="#ff0099" stroke-width="1" fill="#ff0099">
<circle cx=" 375" cy=" 76" r=" 1.5"/>
</g>
<text x="438" y="102" fill="black" font-size="12" font-family="Helvetica" font-weight="bold">
 + jet
</text>
<text x="431" y="102" fill="black" font-size="12" font-family="Times">
&#0947;
</text>
<text x="392" y="102" fill="black" font-size="12" font-family="Helvetica" font-weight="bold">
signal 
</text>
<path d="M362,107h 25v -16h -25z" fill="#99ff99"/>
<path d="M362,91h 25" fill="none" stroke="#99ff99" stroke-width="2"/>
<path d="M362,107h 25" fill="none" stroke="#99ff99" stroke-width="2"/>
<path d="M387,107v -16" fill="none" stroke="#99ff99" stroke-width="2"/>
<path d="M362,107v -16" fill="none" stroke="#99ff99" stroke-width="2"/>
<text x="252" y="24" fill="black" font-size="12" font-family="Helvetica" font-weight="bold">
=8 TeV
</text>
<text x="246" y="24" fill="black" font-size="12" font-family="Helvetica" font-weight="bold">
s
</text>
<path d="M242,17l 1, 8" fill="none" stroke="black" stroke-width="2"/>
<path d="M243,25l 2, -11" fill="none" stroke="black"/>
<path d="M245,14h 7" fill="none" stroke="black"/>
<text x="142" y="24" fill="black" font-size="12" font-family="Helvetica" font-weight="bold">
CMS Preliminary 
</text>
<rect x="0" y="347" width="567" height="149" fill="white"/>
<rect x="57" y="362" width="453" height="104" fill="white"/>
<rect x="57" y="362" width="453" height="104" fill="none" stroke="black"/>
<rect x="57" y="362" width="453" height="104" fill="white"/>
<rect x="57" y="362" width="453" height="104" fill="none" stroke="black"/>
<path d="M57,466h 453" fill="none" stroke="black"/>
<path d="M57,466v -104" fill="none" stroke="black"/>
<path d="M510,455h -453" fill="none" stroke="black" stroke-dasharray=" 1, 2"/>
<path d="M510,436h -453" fill="none" stroke="black" stroke-dasharray=" 1, 2"/>
<path d="M510,418h -453" fill="none" stroke="black" stroke-dasharray=" 1, 2"/>
<path d="M510,399h -453" fill="none" stroke="black" stroke-dasharray=" 1, 2"/>
<path d="M510,381h -453" fill="none" stroke="black" stroke-dasharray=" 1, 2"/>
<path d="M510,362h -453" fill="none" stroke="black" stroke-dasharray=" 1, 2"/>
<path d="M510,455h -453" fill="none" stroke="black" stroke-dasharray=" 1, 2"/>
<path d="M136,391v -1" fill="none" stroke="#ff0099"/>
<path d="M136,388v -1" fill="none" stroke="#ff0099"/>
<path d="M132,389h 3" fill="none" stroke="#ff0099"/>
<path d="M137,389h 3" fill="none" stroke="#ff0099"/>
<g stroke="#ff0099" stroke-width="1" fill="#ff0099">
<circle cx=" 136" cy=" 389" r=" 1.5"/>
</g>
<path d="M144,405v -1" fill="none" stroke="#ff0099"/>
<path d="M144,402" fill="none" stroke="#ff0099"/>
<path d="M140,403h 2" fill="none" stroke="#ff0099"/>
<path d="M145,403h 2" fill="none" stroke="#ff0099"/>
<g stroke="#ff0099" stroke-width="1" fill="#ff0099">
<circle cx=" 144" cy=" 403" r=" 1.5"/>
</g>
<path d="M151,419" fill="none" stroke="#ff0099"/>
<path d="M151,416" fill="none" stroke="#ff0099"/>
<path d="M147,418h 3" fill="none" stroke="#ff0099"/>
<path d="M152,418h 3" fill="none" stroke="#ff0099"/>
<g stroke="#ff0099" stroke-width="1" fill="#ff0099">
<circle cx=" 151" cy=" 418" r=" 1.5"/>
</g>
<path d="M159,407v -1" fill="none" stroke="#ff0099"/>
<path d="M159,404" fill="none" stroke="#ff0099"/>
<path d="M155,405h 3" fill="none" stroke="#ff0099"/>
<path d="M160,405h 3" fill="none" stroke="#ff0099"/>
<g stroke="#ff0099" stroke-width="1" fill="#ff0099">
<circle cx=" 159" cy=" 405" r=" 1.5"/>
</g>
<path d="M166,399v -3" fill="none" stroke="#ff0099"/>
<path d="M166,394v -2" fill="none" stroke="#ff0099"/>
<path d="M163,395h 2" fill="none" stroke="#ff0099"/>
<path d="M167,395h 3" fill="none" stroke="#ff0099"/>
<g stroke="#ff0099" stroke-width="1" fill="#ff0099">
<circle cx=" 166" cy=" 395" r=" 1.5"/>
</g>
<path d="M401,398v -3" fill="none" stroke="#ff0099"/>
<path d="M401,393v -2" fill="none" stroke="#ff0099"/>
<path d="M397,394h 2" fill="none" stroke="#ff0099"/>
<path d="M402,394h 2" fill="none" stroke="#ff0099"/>
<g stroke="#ff0099" stroke-width="1" fill="#ff0099">
<circle cx=" 401" cy=" 394" r=" 1.5"/>
</g>
<path d="M408,407v -1" fill="none" stroke="#ff0099"/>
<path d="M408,404v -1" fill="none" stroke="#ff0099"/>
<path d="M404,405h 3" fill="none" stroke="#ff0099"/>
<path d="M409,405h 3" fill="none" stroke="#ff0099"/>
<g stroke="#ff0099" stroke-width="1" fill="#ff0099">
<circle cx=" 408" cy=" 405" r=" 1.5"/>
</g>
<path d="M416,412" fill="none" stroke="#ff0099"/>
<path d="M416,410" fill="none" stroke="#ff0099"/>
<path d="M412,411h 3" fill="none" stroke="#ff0099"/>
<path d="M417,411h 3" fill="none" stroke="#ff0099"/>
<g stroke="#ff0099" stroke-width="1" fill="#ff0099">
<circle cx=" 416" cy=" 411" r=" 1.5"/>
</g>
<path d="M423,407v -1" fill="none" stroke="#ff0099"/>
<path d="M423,404" fill="none" stroke="#ff0099"/>
<path d="M420,405h 2" fill="none" stroke="#ff0099"/>
<path d="M424,405h 3" fill="none" stroke="#ff0099"/>
<g stroke="#ff0099" stroke-width="1" fill="#ff0099">
<circle cx=" 423" cy=" 405" r=" 1.5"/>
</g>
<path d="M431,389v -1" fill="none" stroke="#ff0099"/>
<path d="M431,386v -1" fill="none" stroke="#ff0099"/>
<path d="M427,387h 3" fill="none" stroke="#ff0099"/>
<path d="M432,387h 3" fill="none" stroke="#ff0099"/>
<g stroke="#ff0099" stroke-width="1" fill="#ff0099">
<circle cx=" 431" cy=" 387" r=" 1.5"/>
</g>
<path d="M57,466h 453" fill="none" stroke="black"/>
<text x="504" y="487" fill="black" font-size="11" font-family="Times">
&#0951;
</text>
<text x="501" y="487" fill="black" font-size="11" font-family="Helvetica" font-weight="bold">
 
</text>
<text x="495" y="487" fill="black" font-size="11" font-family="Times">
&#0947;
</text>
<path d="M57,463v 3" fill="none" stroke="black"/>
<path d="M72,464v 2" fill="none" stroke="black"/>
<path d="M87,464v 2" fill="none" stroke="black"/>
<path d="M102,464v 2" fill="none" stroke="black"/>
<path d="M117,464v 2" fill="none" stroke="black"/>
<path d="M132,463v 3" fill="none" stroke="black"/>
<path d="M147,464v 2" fill="none" stroke="black"/>
<path d="M163,464v 2" fill="none" stroke="black"/>
<path d="M178,464v 2" fill="none" stroke="black"/>
<path d="M193,464v 2" fill="none" stroke="black"/>
<path d="M208,463v 3" fill="none" stroke="black"/>
<path d="M223,464v 2" fill="none" stroke="black"/>
<path d="M238,464v 2" fill="none" stroke="black"/>
<path d="M253,464v 2" fill="none" stroke="black"/>
<path d="M268,464v 2" fill="none" stroke="black"/>
<path d="M283,463v 3" fill="none" stroke="black"/>
<path d="M299,464v 2" fill="none" stroke="black"/>
<path d="M314,464v 2" fill="none" stroke="black"/>
<path d="M329,464v 2" fill="none" stroke="black"/>
<path d="M344,464v 2" fill="none" stroke="black"/>
<path d="M359,463v 3" fill="none" stroke="black"/>
<path d="M374,464v 2" fill="none" stroke="black"/>
<path d="M389,464v 2" fill="none" stroke="black"/>
<path d="M404,464v 2" fill="none" stroke="black"/>
<path d="M420,464v 2" fill="none" stroke="black"/>
<path d="M435,463v 3" fill="none" stroke="black"/>
<path d="M450,464v 2" fill="none" stroke="black"/>
<path d="M465,464v 2" fill="none" stroke="black"/>
<path d="M480,464v 2" fill="none" stroke="black"/>
<path d="M495,464v 2" fill="none" stroke="black"/>
<path d="M510,463v 3" fill="none" stroke="black"/>
<text x="52" y="475" fill="black" font-size="10" font-family="Helvetica" font-weight="bold">
-3
</text>
<text x="128" y="475" fill="black" font-size="10" font-family="Helvetica" font-weight="bold">
-2
</text>
<text x="204" y="475" fill="black" font-size="10" font-family="Helvetica" font-weight="bold">
-1
</text>
<text x="281" y="475" fill="black" font-size="10" font-family="Helvetica" font-weight="bold">
0
</text>
<text x="356" y="475" fill="black" font-size="10" font-family="Helvetica" font-weight="bold">
1
</text>
<text x="431" y="475" fill="black" font-size="10" font-family="Helvetica" font-weight="bold">
2
</text>
<text x="507" y="475" fill="black" font-size="10" font-family="Helvetica" font-weight="bold">
3
</text>
<path d="M57,466v -104" fill="none" stroke="black"/>
<g transform="rotate(-90,34,365)">
<text x="34" y="365" fill="black" font-size="11" font-family="Helvetica" font-weight="bold">
)
</text>
</g>
<g transform="rotate(-90,34,371)">
<text x="34" y="371" fill="black" font-size="11" font-family="Times">
&#0947;
</text>
</g>
<g transform="rotate(-90,34,424)">
<text x="34" y="424" fill="black" font-size="11" font-family="Helvetica" font-weight="bold">
MC(e)/MC(
</text>
</g>
<path d="M69,455h -12" fill="none" stroke="black"/>
<path d="M63,451h -6" fill="none" stroke="black"/>
<path d="M63,448h -6" fill="none" stroke="black"/>
<path d="M63,444h -6" fill="none" stroke="black"/>
<path d="M63,440h -6" fill="none" stroke="black"/>
<path d="M69,436h -12" fill="none" stroke="black"/>
<path d="M63,433h -6" fill="none" stroke="black"/>
<path d="M63,429h -6" fill="none" stroke="black"/>
<path d="M63,425h -6" fill="none" stroke="black"/>
<path d="M63,422h -6" fill="none" stroke="black"/>
<path d="M69,418h -12" fill="none" stroke="black"/>
<path d="M63,414h -6" fill="none" stroke="black"/>
<path d="M63,410h -6" fill="none" stroke="black"/>
<path d="M63,407h -6" fill="none" stroke="black"/>
<path d="M63,403h -6" fill="none" stroke="black"/>
<path d="M69,399h -12" fill="none" stroke="black"/>
<path d="M63,395h -6" fill="none" stroke="black"/>
<path d="M63,392h -6" fill="none" stroke="black"/>
<path d="M63,388h -6" fill="none" stroke="black"/>
<path d="M63,384h -6" fill="none" stroke="black"/>
<path d="M69,381h -12" fill="none" stroke="black"/>
<path d="M63,377h -6" fill="none" stroke="black"/>
<path d="M63,373h -6" fill="none" stroke="black"/>
<path d="M63,369h -6" fill="none" stroke="black"/>
<path d="M63,366h -6" fill="none" stroke="black"/>
<path d="M69,362h -12" fill="none" stroke="black"/>
<path d="M69,455h -12" fill="none" stroke="black"/>
<path d="M63,459h -6" fill="none" stroke="black"/>
<path d="M63,462h -6" fill="none" stroke="black"/>
<path d="M63,466h -6" fill="none" stroke="black"/>
<text x="40" y="459" fill="black" font-size="10" font-family="Helvetica" font-weight="bold">
0.5
</text>
<text x="50" y="440" fill="black" font-size="10" font-family="Helvetica" font-weight="bold">
1
</text>
<text x="40" y="421" fill="black" font-size="10" font-family="Helvetica" font-weight="bold">
1.5
</text>
<text x="48" y="403" fill="black" font-size="10" font-family="Helvetica" font-weight="bold">
2
</text>
<text x="40" y="384" fill="black" font-size="10" font-family="Helvetica" font-weight="bold">
2.5
</text>
<text x="48" y="366" fill="black" font-size="10" font-family="Helvetica" font-weight="bold">
3
</text>
<path d="M57,436h 453" fill="none" stroke="#0000ff" stroke-width="2"/>
<path d="M136,391v -1" fill="none" stroke="#ff0099"/>
<path d="M136,388v -1" fill="none" stroke="#ff0099"/>
<path d="M132,389h 3" fill="none" stroke="#ff0099"/>
<path d="M137,389h 3" fill="none" stroke="#ff0099"/>
<g stroke="#ff0099" stroke-width="1" fill="#ff0099">
<circle cx=" 136" cy=" 389" r=" 1.5"/>
</g>
<path d="M144,405v -1" fill="none" stroke="#ff0099"/>
<path d="M144,402" fill="none" stroke="#ff0099"/>
<path d="M140,403h 2" fill="none" stroke="#ff0099"/>
<path d="M145,403h 2" fill="none" stroke="#ff0099"/>
<g stroke="#ff0099" stroke-width="1" fill="#ff0099">
<circle cx=" 144" cy=" 403" r=" 1.5"/>
</g>
<path d="M151,419" fill="none" stroke="#ff0099"/>
<path d="M151,416" fill="none" stroke="#ff0099"/>
<path d="M147,418h 3" fill="none" stroke="#ff0099"/>
<path d="M152,418h 3" fill="none" stroke="#ff0099"/>
<g stroke="#ff0099" stroke-width="1" fill="#ff0099">
<circle cx=" 151" cy=" 418" r=" 1.5"/>
</g>
<path d="M159,407v -1" fill="none" stroke="#ff0099"/>
<path d="M159,404" fill="none" stroke="#ff0099"/>
<path d="M155,405h 3" fill="none" stroke="#ff0099"/>
<path d="M160,405h 3" fill="none" stroke="#ff0099"/>
<g stroke="#ff0099" stroke-width="1" fill="#ff0099">
<circle cx=" 159" cy=" 405" r=" 1.5"/>
</g>
<path d="M166,399v -3" fill="none" stroke="#ff0099"/>
<path d="M166,394v -2" fill="none" stroke="#ff0099"/>
<path d="M163,395h 2" fill="none" stroke="#ff0099"/>
<path d="M167,395h 3" fill="none" stroke="#ff0099"/>
<g stroke="#ff0099" stroke-width="1" fill="#ff0099">
<circle cx=" 166" cy=" 395" r=" 1.5"/>
</g>
<path d="M401,398v -3" fill="none" stroke="#ff0099"/>
<path d="M401,393v -2" fill="none" stroke="#ff0099"/>
<path d="M397,394h 2" fill="none" stroke="#ff0099"/>
<path d="M402,394h 2" fill="none" stroke="#ff0099"/>
<g stroke="#ff0099" stroke-width="1" fill="#ff0099">
<circle cx=" 401" cy=" 394" r=" 1.5"/>
</g>
<path d="M408,407v -1" fill="none" stroke="#ff0099"/>
<path d="M408,404v -1" fill="none" stroke="#ff0099"/>
<path d="M404,405h 3" fill="none" stroke="#ff0099"/>
<path d="M409,405h 3" fill="none" stroke="#ff0099"/>
<g stroke="#ff0099" stroke-width="1" fill="#ff0099">
<circle cx=" 408" cy=" 405" r=" 1.5"/>
</g>
<path d="M416,412" fill="none" stroke="#ff0099"/>
<path d="M416,410" fill="none" stroke="#ff0099"/>
<path d="M412,411h 3" fill="none" stroke="#ff0099"/>
<path d="M417,411h 3" fill="none" stroke="#ff0099"/>
<g stroke="#ff0099" stroke-width="1" fill="#ff0099">
<circle cx=" 416" cy=" 411" r=" 1.5"/>
</g>
<path d="M423,407v -1" fill="none" stroke="#ff0099"/>
<path d="M423,404" fill="none" stroke="#ff0099"/>
<path d="M420,405h 2" fill="none" stroke="#ff0099"/>
<path d="M424,405h 3" fill="none" stroke="#ff0099"/>
<g stroke="#ff0099" stroke-width="1" fill="#ff0099">
<circle cx=" 423" cy=" 405" r=" 1.5"/>
</g>
<path d="M431,389v -1" fill="none" stroke="#ff0099"/>
<path d="M431,386v -1" fill="none" stroke="#ff0099"/>
<path d="M427,387h 3" fill="none" stroke="#ff0099"/>
<path d="M432,387h 3" fill="none" stroke="#ff0099"/>
<g stroke="#ff0099" stroke-width="1" fill="#ff0099">
<circle cx=" 431" cy=" 387" r=" 1.5"/>
</g></svg>
