<?xml version="1.0" standalone="no"?>
<svg width="567" height="496" viewBox="0 0 567 496" xmlns="http://www.w3.org/2000/svg">
<title>
../src/TagAndProbeZ/plots_mcZee_mcGJet_withEtaR9rhoReweight/hlt90//etaPhotEB_log.svg
</title>
<desc>
Creator: ROOT Version 5.32/00
CreationDate: Wed Dec  3 10:37:47 2014</desc>
<defs>
</defs>
<rect x="0" y="0" width="567" height="496" fill="white"/>
<rect x="0" y="0" width="567" height="347" fill="white"/>
<rect x="57" y="34" width="453" height="278" fill="white"/>
<rect x="57" y="34" width="453" height="278" fill="none" stroke="black"/>
<rect x="57" y="34" width="453" height="278" fill="white"/>
<rect x="57" y="34" width="453" height="278" fill="none" stroke="black"/>
<path d="M170,153h 3" fill="none" stroke="#ff0099"/>
<path d="M175,153h 3" fill="none" stroke="#ff0099"/>
<g stroke="#ff0099" stroke-width="1" fill="#ff0099">
<circle cx=" 174" cy=" 153" r=" 1.5"/>
</g>
<path d="M178,138h 2" fill="none" stroke="#ff0099"/>
<path d="M183,138h 2" fill="none" stroke="#ff0099"/>
<g stroke="#ff0099" stroke-width="1" fill="#ff0099">
<circle cx=" 181" cy=" 138" r=" 1.5"/>
</g>
<path d="M185,137h 3" fill="none" stroke="#ff0099"/>
<path d="M190,137h 3" fill="none" stroke="#ff0099"/>
<g stroke="#ff0099" stroke-width="1" fill="#ff0099">
<circle cx=" 189" cy=" 137" r=" 1.5"/>
</g>
<path d="M193,137h 2" fill="none" stroke="#ff0099"/>
<path d="M198,137h 2" fill="none" stroke="#ff0099"/>
<g stroke="#ff0099" stroke-width="1" fill="#ff0099">
<circle cx=" 197" cy=" 137" r=" 1.5"/>
</g>
<path d="M200,128h 3" fill="none" stroke="#ff0099"/>
<path d="M205,128h 3" fill="none" stroke="#ff0099"/>
<g stroke="#ff0099" stroke-width="1" fill="#ff0099">
<circle cx=" 204" cy=" 128" r=" 1.5"/>
</g>
<path d="M208,77h 3" fill="none" stroke="#ff0099"/>
<path d="M213,77h 2" fill="none" stroke="#ff0099"/>
<g stroke="#ff0099" stroke-width="1" fill="#ff0099">
<circle cx=" 212" cy=" 77" r=" 1.5"/>
</g>
<path d="M215,73h 3" fill="none" stroke="#ff0099"/>
<path d="M220,73h 3" fill="none" stroke="#ff0099"/>
<g stroke="#ff0099" stroke-width="1" fill="#ff0099">
<circle cx=" 219" cy=" 73" r=" 1.5"/>
</g>
<path d="M223,73h 3" fill="none" stroke="#ff0099"/>
<path d="M228,73h 3" fill="none" stroke="#ff0099"/>
<g stroke="#ff0099" stroke-width="1" fill="#ff0099">
<circle cx=" 227" cy=" 73" r=" 1.5"/>
</g>
<path d="M231,70h 2" fill="none" stroke="#ff0099"/>
<path d="M235,70h 3" fill="none" stroke="#ff0099"/>
<g stroke="#ff0099" stroke-width="1" fill="#ff0099">
<circle cx=" 234" cy=" 70" r=" 1.5"/>
</g>
<path d="M238,69h 3" fill="none" stroke="#ff0099"/>
<path d="M243,69h 3" fill="none" stroke="#ff0099"/>
<g stroke="#ff0099" stroke-width="1" fill="#ff0099">
<circle cx=" 242" cy=" 69" r=" 1.5"/>
</g>
<path d="M246,71h 2" fill="none" stroke="#ff0099"/>
<path d="M251,71h 2" fill="none" stroke="#ff0099"/>
<g stroke="#ff0099" stroke-width="1" fill="#ff0099">
<circle cx=" 249" cy=" 71" r=" 1.5"/>
</g>
<path d="M253,69h 3" fill="none" stroke="#ff0099"/>
<path d="M258,69h 3" fill="none" stroke="#ff0099"/>
<g stroke="#ff0099" stroke-width="1" fill="#ff0099">
<circle cx=" 257" cy=" 69" r=" 1.5"/>
</g>
<path d="M261,68h 2" fill="none" stroke="#ff0099"/>
<path d="M266,68h 2" fill="none" stroke="#ff0099"/>
<g stroke="#ff0099" stroke-width="1" fill="#ff0099">
<circle cx=" 265" cy=" 68" r=" 1.5"/>
</g>
<path d="M268,67h 3" fill="none" stroke="#ff0099"/>
<path d="M273,67h 3" fill="none" stroke="#ff0099"/>
<g stroke="#ff0099" stroke-width="1" fill="#ff0099">
<circle cx=" 272" cy=" 67" r=" 1.5"/>
</g>
<path d="M276,68h 3" fill="none" stroke="#ff0099"/>
<path d="M281,68h 2" fill="none" stroke="#ff0099"/>
<g stroke="#ff0099" stroke-width="1" fill="#ff0099">
<circle cx=" 280" cy=" 68" r=" 1.5"/>
</g>
<path d="M283,68h 3" fill="none" stroke="#ff0099"/>
<path d="M288,68h 3" fill="none" stroke="#ff0099"/>
<g stroke="#ff0099" stroke-width="1" fill="#ff0099">
<circle cx=" 287" cy=" 68" r=" 1.5"/>
</g>
<path d="M291,67h 3" fill="none" stroke="#ff0099"/>
<path d="M296,67h 3" fill="none" stroke="#ff0099"/>
<g stroke="#ff0099" stroke-width="1" fill="#ff0099">
<circle cx=" 295" cy=" 67" r=" 1.5"/>
</g>
<path d="M299,68h 2" fill="none" stroke="#ff0099"/>
<path d="M304,68h 2" fill="none" stroke="#ff0099"/>
<g stroke="#ff0099" stroke-width="1" fill="#ff0099">
<circle cx=" 302" cy=" 68" r=" 1.5"/>
</g>
<path d="M306,69h 3" fill="none" stroke="#ff0099"/>
<path d="M311,69h 3" fill="none" stroke="#ff0099"/>
<g stroke="#ff0099" stroke-width="1" fill="#ff0099">
<circle cx=" 310" cy=" 69" r=" 1.5"/>
</g>
<path d="M314,71h 2" fill="none" stroke="#ff0099"/>
<path d="M319,71h 2" fill="none" stroke="#ff0099"/>
<g stroke="#ff0099" stroke-width="1" fill="#ff0099">
<circle cx=" 317" cy=" 71" r=" 1.5"/>
</g>
<path d="M321,69h 3" fill="none" stroke="#ff0099"/>
<path d="M326,69h 3" fill="none" stroke="#ff0099"/>
<g stroke="#ff0099" stroke-width="1" fill="#ff0099">
<circle cx=" 325" cy=" 69" r=" 1.5"/>
</g>
<path d="M329,70h 2" fill="none" stroke="#ff0099"/>
<path d="M334,70h 2" fill="none" stroke="#ff0099"/>
<g stroke="#ff0099" stroke-width="1" fill="#ff0099">
<circle cx=" 333" cy=" 70" r=" 1.5"/>
</g>
<path d="M336,73h 3" fill="none" stroke="#ff0099"/>
<path d="M341,73h 3" fill="none" stroke="#ff0099"/>
<g stroke="#ff0099" stroke-width="1" fill="#ff0099">
<circle cx=" 340" cy=" 73" r=" 1.5"/>
</g>
<path d="M344,73h 3" fill="none" stroke="#ff0099"/>
<path d="M349,73h 2" fill="none" stroke="#ff0099"/>
<g stroke="#ff0099" stroke-width="1" fill="#ff0099">
<circle cx=" 348" cy=" 73" r=" 1.5"/>
</g>
<path d="M351,77h 3" fill="none" stroke="#ff0099"/>
<path d="M356,77h 3" fill="none" stroke="#ff0099"/>
<g stroke="#ff0099" stroke-width="1" fill="#ff0099">
<circle cx=" 355" cy=" 77" r=" 1.5"/>
</g>
<path d="M359,128h 3" fill="none" stroke="#ff0099"/>
<path d="M364,128h 3" fill="none" stroke="#ff0099"/>
<g stroke="#ff0099" stroke-width="1" fill="#ff0099">
<circle cx=" 363" cy=" 128" r=" 1.5"/>
</g>
<path d="M367,136h 2" fill="none" stroke="#ff0099"/>
<path d="M372,136h 2" fill="none" stroke="#ff0099"/>
<g stroke="#ff0099" stroke-width="1" fill="#ff0099">
<circle cx=" 370" cy=" 136" r=" 1.5"/>
</g>
<path d="M374,137h 3" fill="none" stroke="#ff0099"/>
<path d="M379,137h 3" fill="none" stroke="#ff0099"/>
<g stroke="#ff0099" stroke-width="1" fill="#ff0099">
<circle cx=" 378" cy=" 137" r=" 1.5"/>
</g>
<path d="M382,138h 2" fill="none" stroke="#ff0099"/>
<path d="M387,138h 2" fill="none" stroke="#ff0099"/>
<g stroke="#ff0099" stroke-width="1" fill="#ff0099">
<circle cx=" 386" cy=" 138" r=" 1.5"/>
</g>
<path d="M389,153h 3" fill="none" stroke="#ff0099"/>
<path d="M394,153h 3" fill="none" stroke="#ff0099"/>
<g stroke="#ff0099" stroke-width="1" fill="#ff0099">
<circle cx=" 393" cy=" 153" r=" 1.5"/>
</g>
<path d="M57,312h 453" fill="none" stroke="black"/>
<text x="503" y="337" fill="black" font-size="13" font-family="Times">
&#0951;
</text>
<text x="499" y="337" fill="black" font-size="13" font-family="Helvetica" font-weight="bold">
 
</text>
<text x="492" y="337" fill="black" font-size="13" font-family="Times">
&#0947;
</text>
<path d="M57,304v 8" fill="none" stroke="black"/>
<path d="M72,308v 4" fill="none" stroke="black"/>
<path d="M87,308v 4" fill="none" stroke="black"/>
<path d="M102,308v 4" fill="none" stroke="black"/>
<path d="M117,308v 4" fill="none" stroke="black"/>
<path d="M132,304v 8" fill="none" stroke="black"/>
<path d="M147,308v 4" fill="none" stroke="black"/>
<path d="M163,308v 4" fill="none" stroke="black"/>
<path d="M178,308v 4" fill="none" stroke="black"/>
<path d="M193,308v 4" fill="none" stroke="black"/>
<path d="M208,304v 8" fill="none" stroke="black"/>
<path d="M223,308v 4" fill="none" stroke="black"/>
<path d="M238,308v 4" fill="none" stroke="black"/>
<path d="M253,308v 4" fill="none" stroke="black"/>
<path d="M268,308v 4" fill="none" stroke="black"/>
<path d="M283,304v 8" fill="none" stroke="black"/>
<path d="M299,308v 4" fill="none" stroke="black"/>
<path d="M314,308v 4" fill="none" stroke="black"/>
<path d="M329,308v 4" fill="none" stroke="black"/>
<path d="M344,308v 4" fill="none" stroke="black"/>
<path d="M359,304v 8" fill="none" stroke="black"/>
<path d="M374,308v 4" fill="none" stroke="black"/>
<path d="M389,308v 4" fill="none" stroke="black"/>
<path d="M404,308v 4" fill="none" stroke="black"/>
<path d="M420,308v 4" fill="none" stroke="black"/>
<path d="M435,304v 8" fill="none" stroke="black"/>
<path d="M450,308v 4" fill="none" stroke="black"/>
<path d="M465,308v 4" fill="none" stroke="black"/>
<path d="M480,308v 4" fill="none" stroke="black"/>
<path d="M495,308v 4" fill="none" stroke="black"/>
<path d="M510,304v 8" fill="none" stroke="black"/>
<text x="51" y="325" fill="black" font-size="13" font-family="Helvetica" font-weight="bold">
-3
</text>
<text x="126" y="325" fill="black" font-size="13" font-family="Helvetica" font-weight="bold">
-2
</text>
<text x="203" y="325" fill="black" font-size="13" font-family="Helvetica" font-weight="bold">
-1
</text>
<text x="280" y="325" fill="black" font-size="13" font-family="Helvetica" font-weight="bold">
0
</text>
<text x="356" y="325" fill="black" font-size="13" font-family="Helvetica" font-weight="bold">
1
</text>
<text x="431" y="325" fill="black" font-size="13" font-family="Helvetica" font-weight="bold">
2
</text>
<text x="507" y="325" fill="black" font-size="13" font-family="Helvetica" font-weight="bold">
3
</text>
<path d="M57,312v -278" fill="none" stroke="black"/>
<g transform="rotate(-90,28,99)">
<text x="28" y="99" fill="black" font-size="13" font-family="Helvetica" font-weight="bold">
Entries/0.1
</text>
</g>
<path d="M63,303h -6" fill="none" stroke="black"/>
<path d="M63,295h -6" fill="none" stroke="black"/>
<path d="M63,290h -6" fill="none" stroke="black"/>
<path d="M63,286h -6" fill="none" stroke="black"/>
<path d="M63,282h -6" fill="none" stroke="black"/>
<path d="M63,279h -6" fill="none" stroke="black"/>
<path d="M63,277h -6" fill="none" stroke="black"/>
<path d="M63,275h -6" fill="none" stroke="black"/>
<path d="M70,273h -13" fill="none" stroke="black"/>
<text x="44" y="272" fill="black" font-size="9" font-family="Helvetica" font-weight="bold">
-6
</text>
<text x="30" y="279" fill="black" font-size="13" font-family="Helvetica" font-weight="bold">
10
</text>
<path d="M63,260h -6" fill="none" stroke="black"/>
<path d="M63,252h -6" fill="none" stroke="black"/>
<path d="M63,247h -6" fill="none" stroke="black"/>
<path d="M63,243h -6" fill="none" stroke="black"/>
<path d="M63,239h -6" fill="none" stroke="black"/>
<path d="M63,236h -6" fill="none" stroke="black"/>
<path d="M63,234h -6" fill="none" stroke="black"/>
<path d="M63,232h -6" fill="none" stroke="black"/>
<path d="M70,230h -13" fill="none" stroke="black"/>
<text x="44" y="228" fill="black" font-size="9" font-family="Helvetica" font-weight="bold">
-5
</text>
<text x="30" y="235" fill="black" font-size="13" font-family="Helvetica" font-weight="bold">
10
</text>
<path d="M63,217h -6" fill="none" stroke="black"/>
<path d="M63,209h -6" fill="none" stroke="black"/>
<path d="M63,204h -6" fill="none" stroke="black"/>
<path d="M63,199h -6" fill="none" stroke="black"/>
<path d="M63,196h -6" fill="none" stroke="black"/>
<path d="M63,193h -6" fill="none" stroke="black"/>
<path d="M63,191h -6" fill="none" stroke="black"/>
<path d="M63,188h -6" fill="none" stroke="black"/>
<path d="M70,186h -13" fill="none" stroke="black"/>
<text x="44" y="186" fill="black" font-size="9" font-family="Helvetica" font-weight="bold">
-4
</text>
<text x="30" y="193" fill="black" font-size="13" font-family="Helvetica" font-weight="bold">
10
</text>
<path d="M63,173h -6" fill="none" stroke="black"/>
<path d="M63,166h -6" fill="none" stroke="black"/>
<path d="M63,160h -6" fill="none" stroke="black"/>
<path d="M63,156h -6" fill="none" stroke="black"/>
<path d="M63,153h -6" fill="none" stroke="black"/>
<path d="M63,150h -6" fill="none" stroke="black"/>
<path d="M63,147h -6" fill="none" stroke="black"/>
<path d="M63,145h -6" fill="none" stroke="black"/>
<path d="M70,143h -13" fill="none" stroke="black"/>
<text x="44" y="143" fill="black" font-size="9" font-family="Helvetica" font-weight="bold">
-3
</text>
<text x="30" y="149" fill="black" font-size="13" font-family="Helvetica" font-weight="bold">
10
</text>
<path d="M63,130h -6" fill="none" stroke="black"/>
<path d="M63,123h -6" fill="none" stroke="black"/>
<path d="M63,117h -6" fill="none" stroke="black"/>
<path d="M63,113h -6" fill="none" stroke="black"/>
<path d="M63,110h -6" fill="none" stroke="black"/>
<path d="M63,107h -6" fill="none" stroke="black"/>
<path d="M63,104h -6" fill="none" stroke="black"/>
<path d="M63,102h -6" fill="none" stroke="black"/>
<path d="M70,100h -13" fill="none" stroke="black"/>
<text x="44" y="100" fill="black" font-size="9" font-family="Helvetica" font-weight="bold">
-2
</text>
<text x="30" y="106" fill="black" font-size="13" font-family="Helvetica" font-weight="bold">
10
</text>
<path d="M63,87h -6" fill="none" stroke="black"/>
<path d="M63,80h -6" fill="none" stroke="black"/>
<path d="M63,74h -6" fill="none" stroke="black"/>
<path d="M63,70h -6" fill="none" stroke="black"/>
<path d="M63,67h -6" fill="none" stroke="black"/>
<path d="M63,64h -6" fill="none" stroke="black"/>
<path d="M63,61h -6" fill="none" stroke="black"/>
<path d="M63,59h -6" fill="none" stroke="black"/>
<path d="M70,57h -13" fill="none" stroke="black"/>
<text x="46" y="57" fill="black" font-size="9" font-family="Helvetica" font-weight="bold">
-1
</text>
<text x="31" y="63" fill="black" font-size="13" font-family="Helvetica" font-weight="bold">
10
</text>
<path d="M63,44h -6" fill="none" stroke="black"/>
<path d="M63,36h -6" fill="none" stroke="black"/>
<path d="M174,93" fill="none" stroke="#99ff99" stroke-width="2"/>
<path d="M174,93v -1" fill="none" stroke="#99ff99" stroke-width="2"/>
<g stroke="black" stroke-width="2" fill="none">
<line x1="173" y1="93" x2="174" y2="93"/>
</g>
<path d="M181,77" fill="none" stroke="#99ff99" stroke-width="2"/>
<path d="M181,77" fill="none" stroke="#99ff99" stroke-width="2"/>
<g stroke="black" stroke-width="2" fill="none">
<line x1="180" y1="77" x2="181" y2="77"/>
</g>
<path d="M189,77" fill="none" stroke="#99ff99" stroke-width="2"/>
<path d="M189,77" fill="none" stroke="#99ff99" stroke-width="2"/>
<g stroke="black" stroke-width="2" fill="none">
<line x1="188" y1="77" x2="189" y2="77"/>
</g>
<path d="M197,78v -1" fill="none" stroke="#99ff99" stroke-width="2"/>
<path d="M197,77v -1" fill="none" stroke="#99ff99" stroke-width="2"/>
<g stroke="black" stroke-width="2" fill="none">
<line x1="196" y1="77" x2="197" y2="77"/>
</g>
<path d="M204,76" fill="none" stroke="#99ff99" stroke-width="2"/>
<path d="M204,76" fill="none" stroke="#99ff99" stroke-width="2"/>
<g stroke="black" stroke-width="2" fill="none">
<line x1="203" y1="76" x2="204" y2="76"/>
</g>
<path d="M212,77" fill="none" stroke="#99ff99" stroke-width="2"/>
<path d="M212,77v -1" fill="none" stroke="#99ff99" stroke-width="2"/>
<g stroke="black" stroke-width="2" fill="none">
<line x1="211" y1="77" x2="212" y2="77"/>
</g>
<path d="M219,77v -1" fill="none" stroke="#99ff99" stroke-width="2"/>
<path d="M219,76" fill="none" stroke="#99ff99" stroke-width="2"/>
<g stroke="black" stroke-width="2" fill="none">
<line x1="218" y1="76" x2="219" y2="76"/>
</g>
<path d="M227,78" fill="none" stroke="#99ff99" stroke-width="2"/>
<path d="M227,78" fill="none" stroke="#99ff99" stroke-width="2"/>
<g stroke="black" stroke-width="2" fill="none">
<line x1="226" y1="78" x2="227" y2="78"/>
</g>
<path d="M234,77v -1" fill="none" stroke="#99ff99" stroke-width="2"/>
<path d="M234,76" fill="none" stroke="#99ff99" stroke-width="2"/>
<g stroke="black" stroke-width="2" fill="none">
<line x1="233" y1="76" x2="234" y2="76"/>
</g>
<path d="M242,77" fill="none" stroke="#99ff99" stroke-width="2"/>
<path d="M242,77v -1" fill="none" stroke="#99ff99" stroke-width="2"/>
<g stroke="black" stroke-width="2" fill="none">
<line x1="241" y1="77" x2="242" y2="77"/>
</g>
<path d="M249,78v -1" fill="none" stroke="#99ff99" stroke-width="2"/>
<path d="M249,77" fill="none" stroke="#99ff99" stroke-width="2"/>
<g stroke="black" stroke-width="2" fill="none">
<line x1="248" y1="77" x2="249" y2="77"/>
</g>
<path d="M257,77" fill="none" stroke="#99ff99" stroke-width="2"/>
<path d="M257,77" fill="none" stroke="#99ff99" stroke-width="2"/>
<g stroke="black" stroke-width="2" fill="none">
<line x1="256" y1="77" x2="257" y2="77"/>
</g>
<path d="M265,77" fill="none" stroke="#99ff99" stroke-width="2"/>
<path d="M265,77" fill="none" stroke="#99ff99" stroke-width="2"/>
<g stroke="black" stroke-width="2" fill="none">
<line x1="264" y1="77" x2="265" y2="77"/>
</g>
<path d="M272,77" fill="none" stroke="#99ff99" stroke-width="2"/>
<path d="M272,77" fill="none" stroke="#99ff99" stroke-width="2"/>
<g stroke="black" stroke-width="2" fill="none">
<line x1="271" y1="77" x2="272" y2="77"/>
</g>
<path d="M280,78" fill="none" stroke="#99ff99" stroke-width="2"/>
<path d="M280,78" fill="none" stroke="#99ff99" stroke-width="2"/>
<g stroke="black" stroke-width="2" fill="none">
<line x1="279" y1="78" x2="280" y2="78"/>
</g>
<path d="M287,78" fill="none" stroke="#99ff99" stroke-width="2"/>
<path d="M287,78v -1" fill="none" stroke="#99ff99" stroke-width="2"/>
<g stroke="black" stroke-width="2" fill="none">
<line x1="286" y1="78" x2="287" y2="78"/>
</g>
<path d="M295,77" fill="none" stroke="#99ff99" stroke-width="2"/>
<path d="M295,77" fill="none" stroke="#99ff99" stroke-width="2"/>
<g stroke="black" stroke-width="2" fill="none">
<line x1="294" y1="77" x2="295" y2="77"/>
</g>
<path d="M302,77v -1" fill="none" stroke="#99ff99" stroke-width="2"/>
<path d="M302,76" fill="none" stroke="#99ff99" stroke-width="2"/>
<g stroke="black" stroke-width="2" fill="none">
<line x1="301" y1="76" x2="302" y2="76"/>
</g>
<path d="M310,77" fill="none" stroke="#99ff99" stroke-width="2"/>
<path d="M310,77" fill="none" stroke="#99ff99" stroke-width="2"/>
<g stroke="black" stroke-width="2" fill="none">
<line x1="309" y1="77" x2="310" y2="77"/>
</g>
<path d="M317,77v -1" fill="none" stroke="#99ff99" stroke-width="2"/>
<path d="M317,76" fill="none" stroke="#99ff99" stroke-width="2"/>
<g stroke="black" stroke-width="2" fill="none">
<line x1="316" y1="76" x2="317" y2="76"/>
</g>
<path d="M325,77v -1" fill="none" stroke="#99ff99" stroke-width="2"/>
<path d="M325,76" fill="none" stroke="#99ff99" stroke-width="2"/>
<g stroke="black" stroke-width="2" fill="none">
<line x1="324" y1="76" x2="325" y2="76"/>
</g>
<path d="M333,77v -1" fill="none" stroke="#99ff99" stroke-width="2"/>
<path d="M333,76" fill="none" stroke="#99ff99" stroke-width="2"/>
<g stroke="black" stroke-width="2" fill="none">
<line x1="332" y1="76" x2="333" y2="76"/>
</g>
<path d="M340,78" fill="none" stroke="#99ff99" stroke-width="2"/>
<path d="M340,78" fill="none" stroke="#99ff99" stroke-width="2"/>
<g stroke="black" stroke-width="2" fill="none">
<line x1="339" y1="78" x2="340" y2="78"/>
</g>
<path d="M348,77v -1" fill="none" stroke="#99ff99" stroke-width="2"/>
<path d="M348,76" fill="none" stroke="#99ff99" stroke-width="2"/>
<g stroke="black" stroke-width="2" fill="none">
<line x1="347" y1="76" x2="348" y2="76"/>
</g>
<path d="M355,77v -1" fill="none" stroke="#99ff99" stroke-width="2"/>
<path d="M355,76" fill="none" stroke="#99ff99" stroke-width="2"/>
<g stroke="black" stroke-width="2" fill="none">
<line x1="354" y1="76" x2="355" y2="76"/>
</g>
<path d="M363,77" fill="none" stroke="#99ff99" stroke-width="2"/>
<path d="M363,77" fill="none" stroke="#99ff99" stroke-width="2"/>
<g stroke="black" stroke-width="2" fill="none">
<line x1="362" y1="77" x2="363" y2="77"/>
</g>
<path d="M370,78v -1" fill="none" stroke="#99ff99" stroke-width="2"/>
<path d="M370,77" fill="none" stroke="#99ff99" stroke-width="2"/>
<g stroke="black" stroke-width="2" fill="none">
<line x1="369" y1="77" x2="370" y2="77"/>
</g>
<path d="M378,77v -1" fill="none" stroke="#99ff99" stroke-width="2"/>
<path d="M378,76" fill="none" stroke="#99ff99" stroke-width="2"/>
<g stroke="black" stroke-width="2" fill="none">
<line x1="377" y1="76" x2="378" y2="76"/>
</g>
<path d="M386,77v -1" fill="none" stroke="#99ff99" stroke-width="2"/>
<path d="M386,76" fill="none" stroke="#99ff99" stroke-width="2"/>
<g stroke="black" stroke-width="2" fill="none">
<line x1="385" y1="76" x2="386" y2="76"/>
</g>
<path d="M393,94v -1" fill="none" stroke="#99ff99" stroke-width="2"/>
<path d="M393,93" fill="none" stroke="#99ff99" stroke-width="2"/>
<g stroke="black" stroke-width="2" fill="none">
<line x1="392" y1="93" x2="393" y2="93"/>
</g>
<path d="M57,312h 113v -219h 8v -16h 22v -1h 8v 1h 7v -1h 8v 2h 8v -2h 7v 1h 38v 1h 15v -1h 8v -1h 7v 1h 8v -1h 22v 2h 8v -2h 15v 1h 15v -1h 15v 17h 8v 219h 113z" fill="#99ff99"/>
<path d="M57,312h 113v -219h 8v -16h 22v -1h 8v 1h 7v -1h 8v 2h 8v -2h 7v 1h 38v 1h 15v -1h 8v -1h 7v 1h 8v -1h 22v 2h 8v -2h 15v 1h 15v -1h 15v 17h 8v 219h 113" fill="none" stroke="#99ff99" stroke-width="2"/>
<path d="M170,153h 3" fill="none" stroke="#ff0099"/>
<path d="M175,153h 3" fill="none" stroke="#ff0099"/>
<g stroke="#ff0099" stroke-width="1" fill="#ff0099">
<circle cx=" 174" cy=" 153" r=" 1.5"/>
</g>
<path d="M178,138h 2" fill="none" stroke="#ff0099"/>
<path d="M183,138h 2" fill="none" stroke="#ff0099"/>
<g stroke="#ff0099" stroke-width="1" fill="#ff0099">
<circle cx=" 181" cy=" 138" r=" 1.5"/>
</g>
<path d="M185,137h 3" fill="none" stroke="#ff0099"/>
<path d="M190,137h 3" fill="none" stroke="#ff0099"/>
<g stroke="#ff0099" stroke-width="1" fill="#ff0099">
<circle cx=" 189" cy=" 137" r=" 1.5"/>
</g>
<path d="M193,137h 2" fill="none" stroke="#ff0099"/>
<path d="M198,137h 2" fill="none" stroke="#ff0099"/>
<g stroke="#ff0099" stroke-width="1" fill="#ff0099">
<circle cx=" 197" cy=" 137" r=" 1.5"/>
</g>
<path d="M200,128h 3" fill="none" stroke="#ff0099"/>
<path d="M205,128h 3" fill="none" stroke="#ff0099"/>
<g stroke="#ff0099" stroke-width="1" fill="#ff0099">
<circle cx=" 204" cy=" 128" r=" 1.5"/>
</g>
<path d="M208,77h 3" fill="none" stroke="#ff0099"/>
<path d="M213,77h 2" fill="none" stroke="#ff0099"/>
<g stroke="#ff0099" stroke-width="1" fill="#ff0099">
<circle cx=" 212" cy=" 77" r=" 1.5"/>
</g>
<path d="M215,73h 3" fill="none" stroke="#ff0099"/>
<path d="M220,73h 3" fill="none" stroke="#ff0099"/>
<g stroke="#ff0099" stroke-width="1" fill="#ff0099">
<circle cx=" 219" cy=" 73" r=" 1.5"/>
</g>
<path d="M223,73h 3" fill="none" stroke="#ff0099"/>
<path d="M228,73h 3" fill="none" stroke="#ff0099"/>
<g stroke="#ff0099" stroke-width="1" fill="#ff0099">
<circle cx=" 227" cy=" 73" r=" 1.5"/>
</g>
<path d="M231,70h 2" fill="none" stroke="#ff0099"/>
<path d="M235,70h 3" fill="none" stroke="#ff0099"/>
<g stroke="#ff0099" stroke-width="1" fill="#ff0099">
<circle cx=" 234" cy=" 70" r=" 1.5"/>
</g>
<path d="M238,69h 3" fill="none" stroke="#ff0099"/>
<path d="M243,69h 3" fill="none" stroke="#ff0099"/>
<g stroke="#ff0099" stroke-width="1" fill="#ff0099">
<circle cx=" 242" cy=" 69" r=" 1.5"/>
</g>
<path d="M246,71h 2" fill="none" stroke="#ff0099"/>
<path d="M251,71h 2" fill="none" stroke="#ff0099"/>
<g stroke="#ff0099" stroke-width="1" fill="#ff0099">
<circle cx=" 249" cy=" 71" r=" 1.5"/>
</g>
<path d="M253,69h 3" fill="none" stroke="#ff0099"/>
<path d="M258,69h 3" fill="none" stroke="#ff0099"/>
<g stroke="#ff0099" stroke-width="1" fill="#ff0099">
<circle cx=" 257" cy=" 69" r=" 1.5"/>
</g>
<path d="M261,68h 2" fill="none" stroke="#ff0099"/>
<path d="M266,68h 2" fill="none" stroke="#ff0099"/>
<g stroke="#ff0099" stroke-width="1" fill="#ff0099">
<circle cx=" 265" cy=" 68" r=" 1.5"/>
</g>
<path d="M268,67h 3" fill="none" stroke="#ff0099"/>
<path d="M273,67h 3" fill="none" stroke="#ff0099"/>
<g stroke="#ff0099" stroke-width="1" fill="#ff0099">
<circle cx=" 272" cy=" 67" r=" 1.5"/>
</g>
<path d="M276,68h 3" fill="none" stroke="#ff0099"/>
<path d="M281,68h 2" fill="none" stroke="#ff0099"/>
<g stroke="#ff0099" stroke-width="1" fill="#ff0099">
<circle cx=" 280" cy=" 68" r=" 1.5"/>
</g>
<path d="M283,68h 3" fill="none" stroke="#ff0099"/>
<path d="M288,68h 3" fill="none" stroke="#ff0099"/>
<g stroke="#ff0099" stroke-width="1" fill="#ff0099">
<circle cx=" 287" cy=" 68" r=" 1.5"/>
</g>
<path d="M291,67h 3" fill="none" stroke="#ff0099"/>
<path d="M296,67h 3" fill="none" stroke="#ff0099"/>
<g stroke="#ff0099" stroke-width="1" fill="#ff0099">
<circle cx=" 295" cy=" 67" r=" 1.5"/>
</g>
<path d="M299,68h 2" fill="none" stroke="#ff0099"/>
<path d="M304,68h 2" fill="none" stroke="#ff0099"/>
<g stroke="#ff0099" stroke-width="1" fill="#ff0099">
<circle cx=" 302" cy=" 68" r=" 1.5"/>
</g>
<path d="M306,69h 3" fill="none" stroke="#ff0099"/>
<path d="M311,69h 3" fill="none" stroke="#ff0099"/>
<g stroke="#ff0099" stroke-width="1" fill="#ff0099">
<circle cx=" 310" cy=" 69" r=" 1.5"/>
</g>
<path d="M314,71h 2" fill="none" stroke="#ff0099"/>
<path d="M319,71h 2" fill="none" stroke="#ff0099"/>
<g stroke="#ff0099" stroke-width="1" fill="#ff0099">
<circle cx=" 317" cy=" 71" r=" 1.5"/>
</g>
<path d="M321,69h 3" fill="none" stroke="#ff0099"/>
<path d="M326,69h 3" fill="none" stroke="#ff0099"/>
<g stroke="#ff0099" stroke-width="1" fill="#ff0099">
<circle cx=" 325" cy=" 69" r=" 1.5"/>
</g>
<path d="M329,70h 2" fill="none" stroke="#ff0099"/>
<path d="M334,70h 2" fill="none" stroke="#ff0099"/>
<g stroke="#ff0099" stroke-width="1" fill="#ff0099">
<circle cx=" 333" cy=" 70" r=" 1.5"/>
</g>
<path d="M336,73h 3" fill="none" stroke="#ff0099"/>
<path d="M341,73h 3" fill="none" stroke="#ff0099"/>
<g stroke="#ff0099" stroke-width="1" fill="#ff0099">
<circle cx=" 340" cy=" 73" r=" 1.5"/>
</g>
<path d="M344,73h 3" fill="none" stroke="#ff0099"/>
<path d="M349,73h 2" fill="none" stroke="#ff0099"/>
<g stroke="#ff0099" stroke-width="1" fill="#ff0099">
<circle cx=" 348" cy=" 73" r=" 1.5"/>
</g>
<path d="M351,77h 3" fill="none" stroke="#ff0099"/>
<path d="M356,77h 3" fill="none" stroke="#ff0099"/>
<g stroke="#ff0099" stroke-width="1" fill="#ff0099">
<circle cx=" 355" cy=" 77" r=" 1.5"/>
</g>
<path d="M359,128h 3" fill="none" stroke="#ff0099"/>
<path d="M364,128h 3" fill="none" stroke="#ff0099"/>
<g stroke="#ff0099" stroke-width="1" fill="#ff0099">
<circle cx=" 363" cy=" 128" r=" 1.5"/>
</g>
<path d="M367,136h 2" fill="none" stroke="#ff0099"/>
<path d="M372,136h 2" fill="none" stroke="#ff0099"/>
<g stroke="#ff0099" stroke-width="1" fill="#ff0099">
<circle cx=" 370" cy=" 136" r=" 1.5"/>
</g>
<path d="M374,137h 3" fill="none" stroke="#ff0099"/>
<path d="M379,137h 3" fill="none" stroke="#ff0099"/>
<g stroke="#ff0099" stroke-width="1" fill="#ff0099">
<circle cx=" 378" cy=" 137" r=" 1.5"/>
</g>
<path d="M382,138h 2" fill="none" stroke="#ff0099"/>
<path d="M387,138h 2" fill="none" stroke="#ff0099"/>
<g stroke="#ff0099" stroke-width="1" fill="#ff0099">
<circle cx=" 386" cy=" 138" r=" 1.5"/>
</g>
<path d="M389,153h 3" fill="none" stroke="#ff0099"/>
<path d="M394,153h 3" fill="none" stroke="#ff0099"/>
<g stroke="#ff0099" stroke-width="1" fill="#ff0099">
<circle cx=" 393" cy=" 153" r=" 1.5"/>
</g>
<rect x="357" y="41" width="142" height="70" fill="white"/>
<text x="360" y="58" fill="black" font-size="12" font-family="Helvetica" font-weight="bold">
EB
</text>
<text x="439" y="81" fill="black" font-size="12" font-family="Helvetica" font-weight="bold">
 ee
</text>
<text x="426" y="81" fill="black" font-size="12" font-family="Times">
&#8594;
</text>
<text x="392" y="81" fill="black" font-size="12" font-family="Helvetica" font-weight="bold">
MC Z 
</text>
<path d="M362,76h 25" fill="none" stroke="#ff0099"/>
<g stroke="#ff0099" stroke-width="1" fill="#ff0099">
<circle cx=" 375" cy=" 76" r=" 1.5"/>
</g>
<text x="438" y="102" fill="black" font-size="12" font-family="Helvetica" font-weight="bold">
 + jet
</text>
<text x="431" y="102" fill="black" font-size="12" font-family="Times">
&#0947;
</text>
<text x="392" y="102" fill="black" font-size="12" font-family="Helvetica" font-weight="bold">
signal 
</text>
<path d="M362,107h 25v -16h -25z" fill="#99ff99"/>
<path d="M362,91h 25" fill="none" stroke="#99ff99" stroke-width="2"/>
<path d="M362,107h 25" fill="none" stroke="#99ff99" stroke-width="2"/>
<path d="M387,107v -16" fill="none" stroke="#99ff99" stroke-width="2"/>
<path d="M362,107v -16" fill="none" stroke="#99ff99" stroke-width="2"/>
<text x="252" y="24" fill="black" font-size="12" font-family="Helvetica" font-weight="bold">
=8 TeV
</text>
<text x="246" y="24" fill="black" font-size="12" font-family="Helvetica" font-weight="bold">
s
</text>
<path d="M242,17l 1, 8" fill="none" stroke="black" stroke-width="2"/>
<path d="M243,25l 2, -11" fill="none" stroke="black"/>
<path d="M245,14h 7" fill="none" stroke="black"/>
<text x="142" y="24" fill="black" font-size="12" font-family="Helvetica" font-weight="bold">
CMS Preliminary 
</text>
<rect x="0" y="347" width="567" height="149" fill="white"/>
<rect x="57" y="362" width="453" height="104" fill="white"/>
<rect x="57" y="362" width="453" height="104" fill="none" stroke="black"/>
<rect x="57" y="362" width="453" height="104" fill="white"/>
<rect x="57" y="362" width="453" height="104" fill="none" stroke="black"/>
<path d="M57,466h 453" fill="none" stroke="black"/>
<path d="M57,466v -104" fill="none" stroke="black"/>
<path d="M510,455h -453" fill="none" stroke="black" stroke-dasharray=" 1, 2"/>
<path d="M510,436h -453" fill="none" stroke="black" stroke-dasharray=" 1, 2"/>
<path d="M510,418h -453" fill="none" stroke="black" stroke-dasharray=" 1, 2"/>
<path d="M510,399h -453" fill="none" stroke="black" stroke-dasharray=" 1, 2"/>
<path d="M510,381h -453" fill="none" stroke="black" stroke-dasharray=" 1, 2"/>
<path d="M510,362h -453" fill="none" stroke="black" stroke-dasharray=" 1, 2"/>
<path d="M510,455h -453" fill="none" stroke="black" stroke-dasharray=" 1, 2"/>
<path d="M208,437h 3" fill="none" stroke="#ff0099"/>
<path d="M213,437h 2" fill="none" stroke="#ff0099"/>
<g stroke="#ff0099" stroke-width="1" fill="#ff0099">
<circle cx=" 212" cy=" 437" r=" 1.5"/>
</g>
<path d="M215,428h 3" fill="none" stroke="#ff0099"/>
<path d="M220,428h 3" fill="none" stroke="#ff0099"/>
<g stroke="#ff0099" stroke-width="1" fill="#ff0099">
<circle cx=" 219" cy=" 428" r=" 1.5"/>
</g>
<path d="M223,426h 3" fill="none" stroke="#ff0099"/>
<path d="M228,426h 3" fill="none" stroke="#ff0099"/>
<g stroke="#ff0099" stroke-width="1" fill="#ff0099">
<circle cx=" 227" cy=" 426" r=" 1.5"/>
</g>
<path d="M231,422h 2" fill="none" stroke="#ff0099"/>
<path d="M235,422h 3" fill="none" stroke="#ff0099"/>
<g stroke="#ff0099" stroke-width="1" fill="#ff0099">
<circle cx=" 234" cy=" 422" r=" 1.5"/>
</g>
<path d="M238,419h 3" fill="none" stroke="#ff0099"/>
<path d="M243,419h 3" fill="none" stroke="#ff0099"/>
<g stroke="#ff0099" stroke-width="1" fill="#ff0099">
<circle cx=" 242" cy=" 419" r=" 1.5"/>
</g>
<path d="M246,420h 2" fill="none" stroke="#ff0099"/>
<path d="M251,420h 2" fill="none" stroke="#ff0099"/>
<g stroke="#ff0099" stroke-width="1" fill="#ff0099">
<circle cx=" 249" cy=" 420" r=" 1.5"/>
</g>
<path d="M253,416h 3" fill="none" stroke="#ff0099"/>
<path d="M258,416h 3" fill="none" stroke="#ff0099"/>
<g stroke="#ff0099" stroke-width="1" fill="#ff0099">
<circle cx=" 257" cy=" 416" r=" 1.5"/>
</g>
<path d="M261,413h 2" fill="none" stroke="#ff0099"/>
<path d="M266,413h 2" fill="none" stroke="#ff0099"/>
<g stroke="#ff0099" stroke-width="1" fill="#ff0099">
<circle cx=" 265" cy=" 413" r=" 1.5"/>
</g>
<path d="M268,409h 3" fill="none" stroke="#ff0099"/>
<path d="M273,409h 3" fill="none" stroke="#ff0099"/>
<g stroke="#ff0099" stroke-width="1" fill="#ff0099">
<circle cx=" 272" cy=" 409" r=" 1.5"/>
</g>
<path d="M276,412h 3" fill="none" stroke="#ff0099"/>
<path d="M281,412h 2" fill="none" stroke="#ff0099"/>
<g stroke="#ff0099" stroke-width="1" fill="#ff0099">
<circle cx=" 280" cy=" 412" r=" 1.5"/>
</g>
<path d="M283,411h 3" fill="none" stroke="#ff0099"/>
<path d="M288,411h 3" fill="none" stroke="#ff0099"/>
<g stroke="#ff0099" stroke-width="1" fill="#ff0099">
<circle cx=" 287" cy=" 411" r=" 1.5"/>
</g>
<path d="M291,410h 3" fill="none" stroke="#ff0099"/>
<path d="M296,410h 3" fill="none" stroke="#ff0099"/>
<g stroke="#ff0099" stroke-width="1" fill="#ff0099">
<circle cx=" 295" cy=" 410" r=" 1.5"/>
</g>
<path d="M299,415h 2" fill="none" stroke="#ff0099"/>
<path d="M304,415h 2" fill="none" stroke="#ff0099"/>
<g stroke="#ff0099" stroke-width="1" fill="#ff0099">
<circle cx=" 302" cy=" 415" r=" 1.5"/>
</g>
<path d="M306,416h 3" fill="none" stroke="#ff0099"/>
<path d="M311,416h 3" fill="none" stroke="#ff0099"/>
<g stroke="#ff0099" stroke-width="1" fill="#ff0099">
<circle cx=" 310" cy=" 416" r=" 1.5"/>
</g>
<path d="M317,425v -1" fill="none" stroke="#ff0099"/>
<path d="M317,422v -1" fill="none" stroke="#ff0099"/>
<path d="M314,423h 2" fill="none" stroke="#ff0099"/>
<path d="M319,423h 2" fill="none" stroke="#ff0099"/>
<g stroke="#ff0099" stroke-width="1" fill="#ff0099">
<circle cx=" 317" cy=" 423" r=" 1.5"/>
</g>
<path d="M321,420h 3" fill="none" stroke="#ff0099"/>
<path d="M326,420h 3" fill="none" stroke="#ff0099"/>
<g stroke="#ff0099" stroke-width="1" fill="#ff0099">
<circle cx=" 325" cy=" 420" r=" 1.5"/>
</g>
<path d="M329,421h 2" fill="none" stroke="#ff0099"/>
<path d="M334,421h 2" fill="none" stroke="#ff0099"/>
<g stroke="#ff0099" stroke-width="1" fill="#ff0099">
<circle cx=" 333" cy=" 421" r=" 1.5"/>
</g>
<path d="M336,426h 3" fill="none" stroke="#ff0099"/>
<path d="M341,426h 3" fill="none" stroke="#ff0099"/>
<g stroke="#ff0099" stroke-width="1" fill="#ff0099">
<circle cx=" 340" cy=" 426" r=" 1.5"/>
</g>
<path d="M344,430h 3" fill="none" stroke="#ff0099"/>
<path d="M349,430h 2" fill="none" stroke="#ff0099"/>
<g stroke="#ff0099" stroke-width="1" fill="#ff0099">
<circle cx=" 348" cy=" 430" r=" 1.5"/>
</g>
<path d="M351,438h 3" fill="none" stroke="#ff0099"/>
<path d="M356,438h 3" fill="none" stroke="#ff0099"/>
<g stroke="#ff0099" stroke-width="1" fill="#ff0099">
<circle cx=" 355" cy=" 438" r=" 1.5"/>
</g>
<path d="M57,466h 453" fill="none" stroke="black"/>
<text x="504" y="487" fill="black" font-size="11" font-family="Times">
&#0951;
</text>
<text x="501" y="487" fill="black" font-size="11" font-family="Helvetica" font-weight="bold">
 
</text>
<text x="495" y="487" fill="black" font-size="11" font-family="Times">
&#0947;
</text>
<path d="M57,463v 3" fill="none" stroke="black"/>
<path d="M72,464v 2" fill="none" stroke="black"/>
<path d="M87,464v 2" fill="none" stroke="black"/>
<path d="M102,464v 2" fill="none" stroke="black"/>
<path d="M117,464v 2" fill="none" stroke="black"/>
<path d="M132,463v 3" fill="none" stroke="black"/>
<path d="M147,464v 2" fill="none" stroke="black"/>
<path d="M163,464v 2" fill="none" stroke="black"/>
<path d="M178,464v 2" fill="none" stroke="black"/>
<path d="M193,464v 2" fill="none" stroke="black"/>
<path d="M208,463v 3" fill="none" stroke="black"/>
<path d="M223,464v 2" fill="none" stroke="black"/>
<path d="M238,464v 2" fill="none" stroke="black"/>
<path d="M253,464v 2" fill="none" stroke="black"/>
<path d="M268,464v 2" fill="none" stroke="black"/>
<path d="M283,463v 3" fill="none" stroke="black"/>
<path d="M299,464v 2" fill="none" stroke="black"/>
<path d="M314,464v 2" fill="none" stroke="black"/>
<path d="M329,464v 2" fill="none" stroke="black"/>
<path d="M344,464v 2" fill="none" stroke="black"/>
<path d="M359,463v 3" fill="none" stroke="black"/>
<path d="M374,464v 2" fill="none" stroke="black"/>
<path d="M389,464v 2" fill="none" stroke="black"/>
<path d="M404,464v 2" fill="none" stroke="black"/>
<path d="M420,464v 2" fill="none" stroke="black"/>
<path d="M435,463v 3" fill="none" stroke="black"/>
<path d="M450,464v 2" fill="none" stroke="black"/>
<path d="M465,464v 2" fill="none" stroke="black"/>
<path d="M480,464v 2" fill="none" stroke="black"/>
<path d="M495,464v 2" fill="none" stroke="black"/>
<path d="M510,463v 3" fill="none" stroke="black"/>
<text x="52" y="475" fill="black" font-size="10" font-family="Helvetica" font-weight="bold">
-3
</text>
<text x="128" y="475" fill="black" font-size="10" font-family="Helvetica" font-weight="bold">
-2
</text>
<text x="204" y="475" fill="black" font-size="10" font-family="Helvetica" font-weight="bold">
-1
</text>
<text x="281" y="475" fill="black" font-size="10" font-family="Helvetica" font-weight="bold">
0
</text>
<text x="356" y="475" fill="black" font-size="10" font-family="Helvetica" font-weight="bold">
1
</text>
<text x="431" y="475" fill="black" font-size="10" font-family="Helvetica" font-weight="bold">
2
</text>
<text x="507" y="475" fill="black" font-size="10" font-family="Helvetica" font-weight="bold">
3
</text>
<path d="M57,466v -104" fill="none" stroke="black"/>
<g transform="rotate(-90,34,365)">
<text x="34" y="365" fill="black" font-size="11" font-family="Helvetica" font-weight="bold">
)
</text>
</g>
<g transform="rotate(-90,34,371)">
<text x="34" y="371" fill="black" font-size="11" font-family="Times">
&#0947;
</text>
</g>
<g transform="rotate(-90,34,424)">
<text x="34" y="424" fill="black" font-size="11" font-family="Helvetica" font-weight="bold">
MC(e)/MC(
</text>
</g>
<path d="M69,455h -12" fill="none" stroke="black"/>
<path d="M63,451h -6" fill="none" stroke="black"/>
<path d="M63,448h -6" fill="none" stroke="black"/>
<path d="M63,444h -6" fill="none" stroke="black"/>
<path d="M63,440h -6" fill="none" stroke="black"/>
<path d="M69,436h -12" fill="none" stroke="black"/>
<path d="M63,433h -6" fill="none" stroke="black"/>
<path d="M63,429h -6" fill="none" stroke="black"/>
<path d="M63,425h -6" fill="none" stroke="black"/>
<path d="M63,422h -6" fill="none" stroke="black"/>
<path d="M69,418h -12" fill="none" stroke="black"/>
<path d="M63,414h -6" fill="none" stroke="black"/>
<path d="M63,410h -6" fill="none" stroke="black"/>
<path d="M63,407h -6" fill="none" stroke="black"/>
<path d="M63,403h -6" fill="none" stroke="black"/>
<path d="M69,399h -12" fill="none" stroke="black"/>
<path d="M63,395h -6" fill="none" stroke="black"/>
<path d="M63,392h -6" fill="none" stroke="black"/>
<path d="M63,388h -6" fill="none" stroke="black"/>
<path d="M63,384h -6" fill="none" stroke="black"/>
<path d="M69,381h -12" fill="none" stroke="black"/>
<path d="M63,377h -6" fill="none" stroke="black"/>
<path d="M63,373h -6" fill="none" stroke="black"/>
<path d="M63,369h -6" fill="none" stroke="black"/>
<path d="M63,366h -6" fill="none" stroke="black"/>
<path d="M69,362h -12" fill="none" stroke="black"/>
<path d="M69,455h -12" fill="none" stroke="black"/>
<path d="M63,459h -6" fill="none" stroke="black"/>
<path d="M63,462h -6" fill="none" stroke="black"/>
<path d="M63,466h -6" fill="none" stroke="black"/>
<text x="40" y="459" fill="black" font-size="10" font-family="Helvetica" font-weight="bold">
0.5
</text>
<text x="50" y="440" fill="black" font-size="10" font-family="Helvetica" font-weight="bold">
1
</text>
<text x="40" y="421" fill="black" font-size="10" font-family="Helvetica" font-weight="bold">
1.5
</text>
<text x="48" y="403" fill="black" font-size="10" font-family="Helvetica" font-weight="bold">
2
</text>
<text x="40" y="384" fill="black" font-size="10" font-family="Helvetica" font-weight="bold">
2.5
</text>
<text x="48" y="366" fill="black" font-size="10" font-family="Helvetica" font-weight="bold">
3
</text>
<path d="M57,436h 453" fill="none" stroke="#0000ff" stroke-width="2"/>
<path d="M208,437h 3" fill="none" stroke="#ff0099"/>
<path d="M213,437h 2" fill="none" stroke="#ff0099"/>
<g stroke="#ff0099" stroke-width="1" fill="#ff0099">
<circle cx=" 212" cy=" 437" r=" 1.5"/>
</g>
<path d="M215,428h 3" fill="none" stroke="#ff0099"/>
<path d="M220,428h 3" fill="none" stroke="#ff0099"/>
<g stroke="#ff0099" stroke-width="1" fill="#ff0099">
<circle cx=" 219" cy=" 428" r=" 1.5"/>
</g>
<path d="M223,426h 3" fill="none" stroke="#ff0099"/>
<path d="M228,426h 3" fill="none" stroke="#ff0099"/>
<g stroke="#ff0099" stroke-width="1" fill="#ff0099">
<circle cx=" 227" cy=" 426" r=" 1.5"/>
</g>
<path d="M231,422h 2" fill="none" stroke="#ff0099"/>
<path d="M235,422h 3" fill="none" stroke="#ff0099"/>
<g stroke="#ff0099" stroke-width="1" fill="#ff0099">
<circle cx=" 234" cy=" 422" r=" 1.5"/>
</g>
<path d="M238,419h 3" fill="none" stroke="#ff0099"/>
<path d="M243,419h 3" fill="none" stroke="#ff0099"/>
<g stroke="#ff0099" stroke-width="1" fill="#ff0099">
<circle cx=" 242" cy=" 419" r=" 1.5"/>
</g>
<path d="M246,420h 2" fill="none" stroke="#ff0099"/>
<path d="M251,420h 2" fill="none" stroke="#ff0099"/>
<g stroke="#ff0099" stroke-width="1" fill="#ff0099">
<circle cx=" 249" cy=" 420" r=" 1.5"/>
</g>
<path d="M253,416h 3" fill="none" stroke="#ff0099"/>
<path d="M258,416h 3" fill="none" stroke="#ff0099"/>
<g stroke="#ff0099" stroke-width="1" fill="#ff0099">
<circle cx=" 257" cy=" 416" r=" 1.5"/>
</g>
<path d="M261,413h 2" fill="none" stroke="#ff0099"/>
<path d="M266,413h 2" fill="none" stroke="#ff0099"/>
<g stroke="#ff0099" stroke-width="1" fill="#ff0099">
<circle cx=" 265" cy=" 413" r=" 1.5"/>
</g>
<path d="M268,409h 3" fill="none" stroke="#ff0099"/>
<path d="M273,409h 3" fill="none" stroke="#ff0099"/>
<g stroke="#ff0099" stroke-width="1" fill="#ff0099">
<circle cx=" 272" cy=" 409" r=" 1.5"/>
</g>
<path d="M276,412h 3" fill="none" stroke="#ff0099"/>
<path d="M281,412h 2" fill="none" stroke="#ff0099"/>
<g stroke="#ff0099" stroke-width="1" fill="#ff0099">
<circle cx=" 280" cy=" 412" r=" 1.5"/>
</g>
<path d="M283,411h 3" fill="none" stroke="#ff0099"/>
<path d="M288,411h 3" fill="none" stroke="#ff0099"/>
<g stroke="#ff0099" stroke-width="1" fill="#ff0099">
<circle cx=" 287" cy=" 411" r=" 1.5"/>
</g>
<path d="M291,410h 3" fill="none" stroke="#ff0099"/>
<path d="M296,410h 3" fill="none" stroke="#ff0099"/>
<g stroke="#ff0099" stroke-width="1" fill="#ff0099">
<circle cx=" 295" cy=" 410" r=" 1.5"/>
</g>
<path d="M299,415h 2" fill="none" stroke="#ff0099"/>
<path d="M304,415h 2" fill="none" stroke="#ff0099"/>
<g stroke="#ff0099" stroke-width="1" fill="#ff0099">
<circle cx=" 302" cy=" 415" r=" 1.5"/>
</g>
<path d="M306,416h 3" fill="none" stroke="#ff0099"/>
<path d="M311,416h 3" fill="none" stroke="#ff0099"/>
<g stroke="#ff0099" stroke-width="1" fill="#ff0099">
<circle cx=" 310" cy=" 416" r=" 1.5"/>
</g>
<path d="M317,425v -1" fill="none" stroke="#ff0099"/>
<path d="M317,422v -1" fill="none" stroke="#ff0099"/>
<path d="M314,423h 2" fill="none" stroke="#ff0099"/>
<path d="M319,423h 2" fill="none" stroke="#ff0099"/>
<g stroke="#ff0099" stroke-width="1" fill="#ff0099">
<circle cx=" 317" cy=" 423" r=" 1.5"/>
</g>
<path d="M321,420h 3" fill="none" stroke="#ff0099"/>
<path d="M326,420h 3" fill="none" stroke="#ff0099"/>
<g stroke="#ff0099" stroke-width="1" fill="#ff0099">
<circle cx=" 325" cy=" 420" r=" 1.5"/>
</g>
<path d="M329,421h 2" fill="none" stroke="#ff0099"/>
<path d="M334,421h 2" fill="none" stroke="#ff0099"/>
<g stroke="#ff0099" stroke-width="1" fill="#ff0099">
<circle cx=" 333" cy=" 421" r=" 1.5"/>
</g>
<path d="M336,426h 3" fill="none" stroke="#ff0099"/>
<path d="M341,426h 3" fill="none" stroke="#ff0099"/>
<g stroke="#ff0099" stroke-width="1" fill="#ff0099">
<circle cx=" 340" cy=" 426" r=" 1.5"/>
</g>
<path d="M344,430h 3" fill="none" stroke="#ff0099"/>
<path d="M349,430h 2" fill="none" stroke="#ff0099"/>
<g stroke="#ff0099" stroke-width="1" fill="#ff0099">
<circle cx=" 348" cy=" 430" r=" 1.5"/>
</g>
<path d="M351,438h 3" fill="none" stroke="#ff0099"/>
<path d="M356,438h 3" fill="none" stroke="#ff0099"/>
<g stroke="#ff0099" stroke-width="1" fill="#ff0099">
<circle cx=" 355" cy=" 438" r=" 1.5"/>
</g></svg>
