<?xml version="1.0" standalone="no"?>
<svg width="567" height="496" viewBox="0 0 567 496" xmlns="http://www.w3.org/2000/svg">
<title>
../src/TagAndProbeZ/plots_mcZee_mcGJet_withEtaR9rhoReweight/hlt90//nvtxEB.svg
</title>
<desc>
Creator: ROOT Version 5.32/00
CreationDate: Wed Dec  3 10:38:07 2014</desc>
<defs>
</defs>
<rect x="0" y="0" width="567" height="496" fill="white"/>
<rect x="74" y="44" width="453" height="402" fill="white"/>
<rect x="74" y="44" width="453" height="402" fill="none" stroke="black"/>
<rect x="74" y="44" width="453" height="402" fill="white"/>
<rect x="74" y="44" width="453" height="402" fill="none" stroke="black"/>
<path d="M85,446h 4" fill="none" stroke="#ff0099"/>
<path d="M91,446h 5" fill="none" stroke="#ff0099"/>
<g stroke="#ff0099" stroke-width="1" fill="#ff0099">
<circle cx=" 90" cy=" 446" r=" 1.5"/>
</g>
<path d="M96,444h 4" fill="none" stroke="#ff0099"/>
<path d="M102,444h 5" fill="none" stroke="#ff0099"/>
<g stroke="#ff0099" stroke-width="1" fill="#ff0099">
<circle cx=" 101" cy=" 444" r=" 1.5"/>
</g>
<path d="M107,440h 4" fill="none" stroke="#ff0099"/>
<path d="M114,440h 4" fill="none" stroke="#ff0099"/>
<g stroke="#ff0099" stroke-width="1" fill="#ff0099">
<circle cx=" 112" cy=" 440" r=" 1.5"/>
</g>
<path d="M118,427h 4" fill="none" stroke="#ff0099"/>
<path d="M125,427h 4" fill="none" stroke="#ff0099"/>
<g stroke="#ff0099" stroke-width="1" fill="#ff0099">
<circle cx=" 123" cy=" 427" r=" 1.5"/>
</g>
<path d="M129,404h 4" fill="none" stroke="#ff0099"/>
<path d="M136,404h 4" fill="none" stroke="#ff0099"/>
<g stroke="#ff0099" stroke-width="1" fill="#ff0099">
<circle cx=" 135" cy=" 404" r=" 1.5"/>
</g>
<path d="M140,369h 4" fill="none" stroke="#ff0099"/>
<path d="M147,369h 4" fill="none" stroke="#ff0099"/>
<g stroke="#ff0099" stroke-width="1" fill="#ff0099">
<circle cx=" 146" cy=" 369" r=" 1.5"/>
</g>
<path d="M157,325" fill="none" stroke="#ff0099"/>
<path d="M157,323" fill="none" stroke="#ff0099"/>
<path d="M151,324h 5" fill="none" stroke="#ff0099"/>
<path d="M158,324h 4" fill="none" stroke="#ff0099"/>
<g stroke="#ff0099" stroke-width="1" fill="#ff0099">
<circle cx=" 157" cy=" 324" r=" 1.5"/>
</g>
<path d="M168,273" fill="none" stroke="#ff0099"/>
<path d="M168,271" fill="none" stroke="#ff0099"/>
<path d="M162,272h 5" fill="none" stroke="#ff0099"/>
<path d="M169,272h 4" fill="none" stroke="#ff0099"/>
<g stroke="#ff0099" stroke-width="1" fill="#ff0099">
<circle cx=" 168" cy=" 272" r=" 1.5"/>
</g>
<path d="M179,214" fill="none" stroke="#ff0099"/>
<path d="M179,211" fill="none" stroke="#ff0099"/>
<path d="M173,212h 5" fill="none" stroke="#ff0099"/>
<path d="M180,212h 4" fill="none" stroke="#ff0099"/>
<g stroke="#ff0099" stroke-width="1" fill="#ff0099">
<circle cx=" 179" cy=" 212" r=" 1.5"/>
</g>
<path d="M190,163" fill="none" stroke="#ff0099"/>
<path d="M190,160" fill="none" stroke="#ff0099"/>
<path d="M184,161h 5" fill="none" stroke="#ff0099"/>
<path d="M191,161h 4" fill="none" stroke="#ff0099"/>
<g stroke="#ff0099" stroke-width="1" fill="#ff0099">
<circle cx=" 190" cy=" 161" r=" 1.5"/>
</g>
<path d="M201,125v -1" fill="none" stroke="#ff0099"/>
<path d="M201,121" fill="none" stroke="#ff0099"/>
<path d="M195,123h 5" fill="none" stroke="#ff0099"/>
<path d="M202,123h 4" fill="none" stroke="#ff0099"/>
<g stroke="#ff0099" stroke-width="1" fill="#ff0099">
<circle cx=" 201" cy=" 123" r=" 1.5"/>
</g>
<path d="M212,92v -1" fill="none" stroke="#ff0099"/>
<path d="M212,89v -1" fill="none" stroke="#ff0099"/>
<path d="M206,90h 5" fill="none" stroke="#ff0099"/>
<path d="M213,90h 5" fill="none" stroke="#ff0099"/>
<g stroke="#ff0099" stroke-width="1" fill="#ff0099">
<circle cx=" 212" cy=" 90" r=" 1.5"/>
</g>
<path d="M223,74v -1" fill="none" stroke="#ff0099"/>
<path d="M223,71v -1" fill="none" stroke="#ff0099"/>
<path d="M218,72h 4" fill="none" stroke="#ff0099"/>
<path d="M224,72h 5" fill="none" stroke="#ff0099"/>
<g stroke="#ff0099" stroke-width="1" fill="#ff0099">
<circle cx=" 223" cy=" 72" r=" 1.5"/>
</g>
<path d="M234,68v -1" fill="none" stroke="#ff0099"/>
<path d="M234,65v -2" fill="none" stroke="#ff0099"/>
<path d="M229,66h 4" fill="none" stroke="#ff0099"/>
<path d="M235,66h 5" fill="none" stroke="#ff0099"/>
<g stroke="#ff0099" stroke-width="1" fill="#ff0099">
<circle cx=" 234" cy=" 66" r=" 1.5"/>
</g>
<path d="M245,71v -1" fill="none" stroke="#ff0099"/>
<path d="M245,67v -1" fill="none" stroke="#ff0099"/>
<path d="M240,69h 4" fill="none" stroke="#ff0099"/>
<path d="M246,69h 5" fill="none" stroke="#ff0099"/>
<g stroke="#ff0099" stroke-width="1" fill="#ff0099">
<circle cx=" 245" cy=" 69" r=" 1.5"/>
</g>
<path d="M256,87v -1" fill="none" stroke="#ff0099"/>
<path d="M256,84v -1" fill="none" stroke="#ff0099"/>
<path d="M251,85h 4" fill="none" stroke="#ff0099"/>
<path d="M257,85h 5" fill="none" stroke="#ff0099"/>
<g stroke="#ff0099" stroke-width="1" fill="#ff0099">
<circle cx=" 256" cy=" 85" r=" 1.5"/>
</g>
<path d="M267,104v -1" fill="none" stroke="#ff0099"/>
<path d="M267,100v -1" fill="none" stroke="#ff0099"/>
<path d="M262,101h 4" fill="none" stroke="#ff0099"/>
<path d="M268,101h 5" fill="none" stroke="#ff0099"/>
<g stroke="#ff0099" stroke-width="1" fill="#ff0099">
<circle cx=" 267" cy=" 101" r=" 1.5"/>
</g>
<path d="M278,138v -1" fill="none" stroke="#ff0099"/>
<path d="M278,135v -1" fill="none" stroke="#ff0099"/>
<path d="M273,136h 4" fill="none" stroke="#ff0099"/>
<path d="M279,136h 5" fill="none" stroke="#ff0099"/>
<g stroke="#ff0099" stroke-width="1" fill="#ff0099">
<circle cx=" 278" cy=" 136" r=" 1.5"/>
</g>
<path d="M289,172v -1" fill="none" stroke="#ff0099"/>
<path d="M289,169v -1" fill="none" stroke="#ff0099"/>
<path d="M284,170h 4" fill="none" stroke="#ff0099"/>
<path d="M291,170h 4" fill="none" stroke="#ff0099"/>
<g stroke="#ff0099" stroke-width="1" fill="#ff0099">
<circle cx=" 289" cy=" 170" r=" 1.5"/>
</g>
<path d="M300,204" fill="none" stroke="#ff0099"/>
<path d="M300,202v -1" fill="none" stroke="#ff0099"/>
<path d="M295,203h 4" fill="none" stroke="#ff0099"/>
<path d="M302,203h 4" fill="none" stroke="#ff0099"/>
<g stroke="#ff0099" stroke-width="1" fill="#ff0099">
<circle cx=" 300" cy=" 203" r=" 1.5"/>
</g>
<path d="M312,241v -1" fill="none" stroke="#ff0099"/>
<path d="M312,238v -1" fill="none" stroke="#ff0099"/>
<path d="M306,239h 4" fill="none" stroke="#ff0099"/>
<path d="M313,239h 4" fill="none" stroke="#ff0099"/>
<g stroke="#ff0099" stroke-width="1" fill="#ff0099">
<circle cx=" 312" cy=" 239" r=" 1.5"/>
</g>
<path d="M323,278" fill="none" stroke="#ff0099"/>
<path d="M323,275" fill="none" stroke="#ff0099"/>
<path d="M317,277h 4" fill="none" stroke="#ff0099"/>
<path d="M324,277h 4" fill="none" stroke="#ff0099"/>
<g stroke="#ff0099" stroke-width="1" fill="#ff0099">
<circle cx=" 323" cy=" 277" r=" 1.5"/>
</g>
<path d="M334,310" fill="none" stroke="#ff0099"/>
<path d="M334,308" fill="none" stroke="#ff0099"/>
<path d="M328,309h 5" fill="none" stroke="#ff0099"/>
<path d="M335,309h 4" fill="none" stroke="#ff0099"/>
<g stroke="#ff0099" stroke-width="1" fill="#ff0099">
<circle cx=" 334" cy=" 309" r=" 1.5"/>
</g>
<path d="M345,340" fill="none" stroke="#ff0099"/>
<path d="M345,337" fill="none" stroke="#ff0099"/>
<path d="M339,338h 5" fill="none" stroke="#ff0099"/>
<path d="M346,338h 4" fill="none" stroke="#ff0099"/>
<g stroke="#ff0099" stroke-width="1" fill="#ff0099">
<circle cx=" 345" cy=" 338" r=" 1.5"/>
</g>
<path d="M350,362h 5" fill="none" stroke="#ff0099"/>
<path d="M357,362h 4" fill="none" stroke="#ff0099"/>
<g stroke="#ff0099" stroke-width="1" fill="#ff0099">
<circle cx=" 356" cy=" 362" r=" 1.5"/>
</g>
<path d="M361,384h 5" fill="none" stroke="#ff0099"/>
<path d="M368,384h 4" fill="none" stroke="#ff0099"/>
<g stroke="#ff0099" stroke-width="1" fill="#ff0099">
<circle cx=" 367" cy=" 384" r=" 1.5"/>
</g>
<path d="M372,401h 5" fill="none" stroke="#ff0099"/>
<path d="M379,401h 4" fill="none" stroke="#ff0099"/>
<g stroke="#ff0099" stroke-width="1" fill="#ff0099">
<circle cx=" 378" cy=" 401" r=" 1.5"/>
</g>
<path d="M383,413h 5" fill="none" stroke="#ff0099"/>
<path d="M390,413h 4" fill="none" stroke="#ff0099"/>
<g stroke="#ff0099" stroke-width="1" fill="#ff0099">
<circle cx=" 389" cy=" 413" r=" 1.5"/>
</g>
<path d="M394,424h 5" fill="none" stroke="#ff0099"/>
<path d="M401,424h 5" fill="none" stroke="#ff0099"/>
<g stroke="#ff0099" stroke-width="1" fill="#ff0099">
<circle cx=" 400" cy=" 424" r=" 1.5"/>
</g>
<path d="M406,430h 4" fill="none" stroke="#ff0099"/>
<path d="M412,430h 5" fill="none" stroke="#ff0099"/>
<g stroke="#ff0099" stroke-width="1" fill="#ff0099">
<circle cx=" 411" cy=" 430" r=" 1.5"/>
</g>
<path d="M417,435h 4" fill="none" stroke="#ff0099"/>
<path d="M423,435h 5" fill="none" stroke="#ff0099"/>
<g stroke="#ff0099" stroke-width="1" fill="#ff0099">
<circle cx=" 422" cy=" 435" r=" 1.5"/>
</g>
<path d="M428,440h 4" fill="none" stroke="#ff0099"/>
<path d="M434,440h 5" fill="none" stroke="#ff0099"/>
<g stroke="#ff0099" stroke-width="1" fill="#ff0099">
<circle cx=" 433" cy=" 440" r=" 1.5"/>
</g>
<path d="M439,442h 4" fill="none" stroke="#ff0099"/>
<path d="M445,442h 5" fill="none" stroke="#ff0099"/>
<g stroke="#ff0099" stroke-width="1" fill="#ff0099">
<circle cx=" 444" cy=" 442" r=" 1.5"/>
</g>
<path d="M450,443h 4" fill="none" stroke="#ff0099"/>
<path d="M456,443h 5" fill="none" stroke="#ff0099"/>
<g stroke="#ff0099" stroke-width="1" fill="#ff0099">
<circle cx=" 455" cy=" 443" r=" 1.5"/>
</g>
<path d="M461,444h 4" fill="none" stroke="#ff0099"/>
<path d="M468,444h 4" fill="none" stroke="#ff0099"/>
<g stroke="#ff0099" stroke-width="1" fill="#ff0099">
<circle cx=" 466" cy=" 444" r=" 1.5"/>
</g>
<path d="M472,445h 4" fill="none" stroke="#ff0099"/>
<path d="M479,445h 4" fill="none" stroke="#ff0099"/>
<g stroke="#ff0099" stroke-width="1" fill="#ff0099">
<circle cx=" 477" cy=" 445" r=" 1.5"/>
</g>
<path d="M483,446h 4" fill="none" stroke="#ff0099"/>
<path d="M490,446h 4" fill="none" stroke="#ff0099"/>
<g stroke="#ff0099" stroke-width="1" fill="#ff0099">
<circle cx=" 489" cy=" 446" r=" 1.5"/>
</g>
<path d="M494,446h 4" fill="none" stroke="#ff0099"/>
<path d="M501,446h 4" fill="none" stroke="#ff0099"/>
<g stroke="#ff0099" stroke-width="1" fill="#ff0099">
<circle cx=" 500" cy=" 446" r=" 1.5"/>
</g>
<path d="M505,446h 5" fill="none" stroke="#ff0099"/>
<path d="M512,446h 4" fill="none" stroke="#ff0099"/>
<g stroke="#ff0099" stroke-width="1" fill="#ff0099">
<circle cx=" 511" cy=" 446" r=" 1.5"/>
</g>
<path d="M516,446h 5" fill="none" stroke="#ff0099"/>
<path d="M523,446h 4" fill="none" stroke="#ff0099"/>
<g stroke="#ff0099" stroke-width="1" fill="#ff0099">
<circle cx=" 522" cy=" 446" r=" 1.5"/>
</g>
<path d="M74,446h 453" fill="none" stroke="black"/>
<path d="M79,434v 12" fill="none" stroke="black"/>
<path d="M90,440v 6" fill="none" stroke="black"/>
<path d="M101,440v 6" fill="none" stroke="black"/>
<path d="M112,440v 6" fill="none" stroke="black"/>
<path d="M123,440v 6" fill="none" stroke="black"/>
<path d="M135,434v 12" fill="none" stroke="black"/>
<path d="M146,440v 6" fill="none" stroke="black"/>
<path d="M157,440v 6" fill="none" stroke="black"/>
<path d="M168,440v 6" fill="none" stroke="black"/>
<path d="M179,440v 6" fill="none" stroke="black"/>
<path d="M190,434v 12" fill="none" stroke="black"/>
<path d="M201,440v 6" fill="none" stroke="black"/>
<path d="M212,440v 6" fill="none" stroke="black"/>
<path d="M223,440v 6" fill="none" stroke="black"/>
<path d="M234,440v 6" fill="none" stroke="black"/>
<path d="M245,434v 12" fill="none" stroke="black"/>
<path d="M256,440v 6" fill="none" stroke="black"/>
<path d="M267,440v 6" fill="none" stroke="black"/>
<path d="M278,440v 6" fill="none" stroke="black"/>
<path d="M289,440v 6" fill="none" stroke="black"/>
<path d="M300,434v 12" fill="none" stroke="black"/>
<path d="M312,440v 6" fill="none" stroke="black"/>
<path d="M323,440v 6" fill="none" stroke="black"/>
<path d="M334,440v 6" fill="none" stroke="black"/>
<path d="M345,440v 6" fill="none" stroke="black"/>
<path d="M356,434v 12" fill="none" stroke="black"/>
<path d="M367,440v 6" fill="none" stroke="black"/>
<path d="M378,440v 6" fill="none" stroke="black"/>
<path d="M389,440v 6" fill="none" stroke="black"/>
<path d="M400,440v 6" fill="none" stroke="black"/>
<path d="M411,434v 12" fill="none" stroke="black"/>
<path d="M422,440v 6" fill="none" stroke="black"/>
<path d="M433,440v 6" fill="none" stroke="black"/>
<path d="M444,440v 6" fill="none" stroke="black"/>
<path d="M455,440v 6" fill="none" stroke="black"/>
<path d="M466,434v 12" fill="none" stroke="black"/>
<path d="M477,440v 6" fill="none" stroke="black"/>
<path d="M489,440v 6" fill="none" stroke="black"/>
<path d="M500,440v 6" fill="none" stroke="black"/>
<path d="M511,440v 6" fill="none" stroke="black"/>
<path d="M522,434v 12" fill="none" stroke="black"/>
<path d="M79,434v 12" fill="none" stroke="black"/>
<path d="M522,434v 12" fill="none" stroke="black"/>
<text x="74" y="465" fill="black" font-size="18" font-family="Helvetica" font-weight="bold">
0
</text>
<text x="129" y="465" fill="black" font-size="18" font-family="Helvetica" font-weight="bold">
5
</text>
<text x="179" y="465" fill="black" font-size="18" font-family="Helvetica" font-weight="bold">
10
</text>
<text x="235" y="465" fill="black" font-size="18" font-family="Helvetica" font-weight="bold">
15
</text>
<text x="290" y="465" fill="black" font-size="18" font-family="Helvetica" font-weight="bold">
20
</text>
<text x="346" y="465" fill="black" font-size="18" font-family="Helvetica" font-weight="bold">
25
</text>
<text x="401" y="465" fill="black" font-size="18" font-family="Helvetica" font-weight="bold">
30
</text>
<text x="456" y="465" fill="black" font-size="18" font-family="Helvetica" font-weight="bold">
35
</text>
<text x="511" y="465" fill="black" font-size="18" font-family="Helvetica" font-weight="bold">
40
</text>
<path d="M74,44h 453" fill="none" stroke="black"/>
<path d="M79,56v -12" fill="none" stroke="black"/>
<path d="M90,50v -6" fill="none" stroke="black"/>
<path d="M101,50v -6" fill="none" stroke="black"/>
<path d="M112,50v -6" fill="none" stroke="black"/>
<path d="M123,50v -6" fill="none" stroke="black"/>
<path d="M135,56v -12" fill="none" stroke="black"/>
<path d="M146,50v -6" fill="none" stroke="black"/>
<path d="M157,50v -6" fill="none" stroke="black"/>
<path d="M168,50v -6" fill="none" stroke="black"/>
<path d="M179,50v -6" fill="none" stroke="black"/>
<path d="M190,56v -12" fill="none" stroke="black"/>
<path d="M201,50v -6" fill="none" stroke="black"/>
<path d="M212,50v -6" fill="none" stroke="black"/>
<path d="M223,50v -6" fill="none" stroke="black"/>
<path d="M234,50v -6" fill="none" stroke="black"/>
<path d="M245,56v -12" fill="none" stroke="black"/>
<path d="M256,50v -6" fill="none" stroke="black"/>
<path d="M267,50v -6" fill="none" stroke="black"/>
<path d="M278,50v -6" fill="none" stroke="black"/>
<path d="M289,50v -6" fill="none" stroke="black"/>
<path d="M300,56v -12" fill="none" stroke="black"/>
<path d="M312,50v -6" fill="none" stroke="black"/>
<path d="M323,50v -6" fill="none" stroke="black"/>
<path d="M334,50v -6" fill="none" stroke="black"/>
<path d="M345,50v -6" fill="none" stroke="black"/>
<path d="M356,56v -12" fill="none" stroke="black"/>
<path d="M367,50v -6" fill="none" stroke="black"/>
<path d="M378,50v -6" fill="none" stroke="black"/>
<path d="M389,50v -6" fill="none" stroke="black"/>
<path d="M400,50v -6" fill="none" stroke="black"/>
<path d="M411,56v -12" fill="none" stroke="black"/>
<path d="M422,50v -6" fill="none" stroke="black"/>
<path d="M433,50v -6" fill="none" stroke="black"/>
<path d="M444,50v -6" fill="none" stroke="black"/>
<path d="M455,50v -6" fill="none" stroke="black"/>
<path d="M466,56v -12" fill="none" stroke="black"/>
<path d="M477,50v -6" fill="none" stroke="black"/>
<path d="M489,50v -6" fill="none" stroke="black"/>
<path d="M500,50v -6" fill="none" stroke="black"/>
<path d="M511,50v -6" fill="none" stroke="black"/>
<path d="M522,56v -12" fill="none" stroke="black"/>
<path d="M79,56v -12" fill="none" stroke="black"/>
<path d="M522,56v -12" fill="none" stroke="black"/>
<path d="M74,446v -402" fill="none" stroke="black"/>
<path d="M87,446h -13" fill="none" stroke="black"/>
<path d="M81,436h -7" fill="none" stroke="black"/>
<path d="M81,425h -7" fill="none" stroke="black"/>
<path d="M81,415h -7" fill="none" stroke="black"/>
<path d="M81,405h -7" fill="none" stroke="black"/>
<path d="M87,394h -13" fill="none" stroke="black"/>
<path d="M81,384h -7" fill="none" stroke="black"/>
<path d="M81,373h -7" fill="none" stroke="black"/>
<path d="M81,363h -7" fill="none" stroke="black"/>
<path d="M81,352h -7" fill="none" stroke="black"/>
<path d="M87,342h -13" fill="none" stroke="black"/>
<path d="M81,331h -7" fill="none" stroke="black"/>
<path d="M81,321h -7" fill="none" stroke="black"/>
<path d="M81,310h -7" fill="none" stroke="black"/>
<path d="M81,300h -7" fill="none" stroke="black"/>
<path d="M87,289h -13" fill="none" stroke="black"/>
<path d="M81,279h -7" fill="none" stroke="black"/>
<path d="M81,268h -7" fill="none" stroke="black"/>
<path d="M81,258h -7" fill="none" stroke="black"/>
<path d="M81,248h -7" fill="none" stroke="black"/>
<path d="M87,237h -13" fill="none" stroke="black"/>
<path d="M81,227h -7" fill="none" stroke="black"/>
<path d="M81,216h -7" fill="none" stroke="black"/>
<path d="M81,206h -7" fill="none" stroke="black"/>
<path d="M81,195h -7" fill="none" stroke="black"/>
<path d="M87,185h -13" fill="none" stroke="black"/>
<path d="M81,174h -7" fill="none" stroke="black"/>
<path d="M81,164h -7" fill="none" stroke="black"/>
<path d="M81,153h -7" fill="none" stroke="black"/>
<path d="M81,143h -7" fill="none" stroke="black"/>
<path d="M87,132h -13" fill="none" stroke="black"/>
<path d="M81,122h -7" fill="none" stroke="black"/>
<path d="M81,111h -7" fill="none" stroke="black"/>
<path d="M81,101h -7" fill="none" stroke="black"/>
<path d="M81,91h -7" fill="none" stroke="black"/>
<path d="M87,80h -13" fill="none" stroke="black"/>
<path d="M87,80h -13" fill="none" stroke="black"/>
<path d="M81,70h -7" fill="none" stroke="black"/>
<path d="M81,59h -7" fill="none" stroke="black"/>
<path d="M81,49h -7" fill="none" stroke="black"/>
<text x="61" y="453" fill="black" font-size="18" font-family="Helvetica" font-weight="bold">
0
</text>
<text x="37" y="400" fill="black" font-size="18" font-family="Helvetica" font-weight="bold">
0.01
</text>
<text x="35" y="348" fill="black" font-size="18" font-family="Helvetica" font-weight="bold">
0.02
</text>
<text x="35" y="296" fill="black" font-size="18" font-family="Helvetica" font-weight="bold">
0.03
</text>
<text x="34" y="244" fill="black" font-size="18" font-family="Helvetica" font-weight="bold">
0.04
</text>
<text x="34" y="191" fill="black" font-size="18" font-family="Helvetica" font-weight="bold">
0.05
</text>
<text x="34" y="139" fill="black" font-size="18" font-family="Helvetica" font-weight="bold">
0.06
</text>
<text x="35" y="87" fill="black" font-size="18" font-family="Helvetica" font-weight="bold">
0.07
</text>
<path d="M90,446" fill="none" stroke="#99ff99" stroke-width="2"/>
<path d="M90,446" fill="none" stroke="#99ff99" stroke-width="2"/>
<g stroke="black" stroke-width="2" fill="none">
<line x1="89" y1="446" x2="90" y2="446"/>
</g>
<path d="M101,444" fill="none" stroke="#99ff99" stroke-width="2"/>
<path d="M101,444" fill="none" stroke="#99ff99" stroke-width="2"/>
<g stroke="black" stroke-width="2" fill="none">
<line x1="100" y1="444" x2="101" y2="444"/>
</g>
<path d="M112,439" fill="none" stroke="#99ff99" stroke-width="2"/>
<path d="M112,439v -1" fill="none" stroke="#99ff99" stroke-width="2"/>
<g stroke="black" stroke-width="2" fill="none">
<line x1="111" y1="439" x2="112" y2="439"/>
</g>
<path d="M123,428v -1" fill="none" stroke="#99ff99" stroke-width="2"/>
<path d="M123,427" fill="none" stroke="#99ff99" stroke-width="2"/>
<g stroke="black" stroke-width="2" fill="none">
<line x1="122" y1="427" x2="123" y2="427"/>
</g>
<path d="M135,405v -2" fill="none" stroke="#99ff99" stroke-width="2"/>
<path d="M135,403v -1" fill="none" stroke="#99ff99" stroke-width="2"/>
<g stroke="black" stroke-width="2" fill="none">
<line x1="134" y1="403" x2="135" y2="403"/>
</g>
<path d="M146,373v -2" fill="none" stroke="#99ff99" stroke-width="2"/>
<path d="M146,371v -1" fill="none" stroke="#99ff99" stroke-width="2"/>
<g stroke="black" stroke-width="2" fill="none">
<line x1="145" y1="371" x2="146" y2="371"/>
</g>
<path d="M157,331v -2" fill="none" stroke="#99ff99" stroke-width="2"/>
<path d="M157,329v -2" fill="none" stroke="#99ff99" stroke-width="2"/>
<g stroke="black" stroke-width="2" fill="none">
<line x1="156" y1="329" x2="157" y2="329"/>
</g>
<path d="M168,277v -8" fill="none" stroke="#99ff99" stroke-width="2"/>
<path d="M168,269v -8" fill="none" stroke="#99ff99" stroke-width="2"/>
<g stroke="black" stroke-width="2" fill="none">
<line x1="167" y1="269" x2="168" y2="269"/>
</g>
<path d="M179,223v -4" fill="none" stroke="#99ff99" stroke-width="2"/>
<path d="M179,219v -3" fill="none" stroke="#99ff99" stroke-width="2"/>
<g stroke="black" stroke-width="2" fill="none">
<line x1="178" y1="219" x2="179" y2="219"/>
</g>
<path d="M190,187v -4" fill="none" stroke="#99ff99" stroke-width="2"/>
<path d="M190,183v -3" fill="none" stroke="#99ff99" stroke-width="2"/>
<g stroke="black" stroke-width="2" fill="none">
<line x1="189" y1="183" x2="190" y2="183"/>
</g>
<path d="M201,143v -4" fill="none" stroke="#99ff99" stroke-width="2"/>
<path d="M201,139v -3" fill="none" stroke="#99ff99" stroke-width="2"/>
<g stroke="black" stroke-width="2" fill="none">
<line x1="200" y1="139" x2="201" y2="139"/>
</g>
<path d="M212,105v -4" fill="none" stroke="#99ff99" stroke-width="2"/>
<path d="M212,101v -4" fill="none" stroke="#99ff99" stroke-width="2"/>
<g stroke="black" stroke-width="2" fill="none">
<line x1="211" y1="101" x2="212" y2="101"/>
</g>
<path d="M223,92v -3" fill="none" stroke="#99ff99" stroke-width="2"/>
<path d="M223,89v -4" fill="none" stroke="#99ff99" stroke-width="2"/>
<g stroke="black" stroke-width="2" fill="none">
<line x1="222" y1="89" x2="223" y2="89"/>
</g>
<path d="M234,88v -3" fill="none" stroke="#99ff99" stroke-width="2"/>
<path d="M234,85v -4" fill="none" stroke="#99ff99" stroke-width="2"/>
<g stroke="black" stroke-width="2" fill="none">
<line x1="233" y1="85" x2="234" y2="85"/>
</g>
<path d="M245,78v -4" fill="none" stroke="#99ff99" stroke-width="2"/>
<path d="M245,74v -4" fill="none" stroke="#99ff99" stroke-width="2"/>
<g stroke="black" stroke-width="2" fill="none">
<line x1="244" y1="74" x2="245" y2="74"/>
</g>
<path d="M256,92v -4" fill="none" stroke="#99ff99" stroke-width="2"/>
<path d="M256,88v -4" fill="none" stroke="#99ff99" stroke-width="2"/>
<g stroke="black" stroke-width="2" fill="none">
<line x1="255" y1="88" x2="256" y2="88"/>
</g>
<path d="M267,114v -3" fill="none" stroke="#99ff99" stroke-width="2"/>
<path d="M267,111v -4" fill="none" stroke="#99ff99" stroke-width="2"/>
<g stroke="black" stroke-width="2" fill="none">
<line x1="266" y1="111" x2="267" y2="111"/>
</g>
<path d="M278,136v -4" fill="none" stroke="#99ff99" stroke-width="2"/>
<path d="M278,132v -3" fill="none" stroke="#99ff99" stroke-width="2"/>
<g stroke="black" stroke-width="2" fill="none">
<line x1="277" y1="132" x2="278" y2="132"/>
</g>
<path d="M289,165v -3" fill="none" stroke="#99ff99" stroke-width="2"/>
<path d="M289,162v -3" fill="none" stroke="#99ff99" stroke-width="2"/>
<g stroke="black" stroke-width="2" fill="none">
<line x1="288" y1="162" x2="289" y2="162"/>
</g>
<path d="M300,199v -3" fill="none" stroke="#99ff99" stroke-width="2"/>
<path d="M300,196v -3" fill="none" stroke="#99ff99" stroke-width="2"/>
<g stroke="black" stroke-width="2" fill="none">
<line x1="299" y1="196" x2="300" y2="196"/>
</g>
<path d="M312,235v -3" fill="none" stroke="#99ff99" stroke-width="2"/>
<path d="M312,232v -2" fill="none" stroke="#99ff99" stroke-width="2"/>
<g stroke="black" stroke-width="2" fill="none">
<line x1="311" y1="232" x2="312" y2="232"/>
</g>
<path d="M323,268v -2" fill="none" stroke="#99ff99" stroke-width="2"/>
<path d="M323,266v -2" fill="none" stroke="#99ff99" stroke-width="2"/>
<g stroke="black" stroke-width="2" fill="none">
<line x1="322" y1="266" x2="323" y2="266"/>
</g>
<path d="M334,299v -2" fill="none" stroke="#99ff99" stroke-width="2"/>
<path d="M334,297v -2" fill="none" stroke="#99ff99" stroke-width="2"/>
<g stroke="black" stroke-width="2" fill="none">
<line x1="333" y1="297" x2="334" y2="297"/>
</g>
<path d="M345,330v -2" fill="none" stroke="#99ff99" stroke-width="2"/>
<path d="M345,328v -1" fill="none" stroke="#99ff99" stroke-width="2"/>
<g stroke="black" stroke-width="2" fill="none">
<line x1="344" y1="328" x2="345" y2="328"/>
</g>
<path d="M356,353v -5" fill="none" stroke="#99ff99" stroke-width="2"/>
<path d="M356,348v -5" fill="none" stroke="#99ff99" stroke-width="2"/>
<g stroke="black" stroke-width="2" fill="none">
<line x1="355" y1="348" x2="356" y2="348"/>
</g>
<path d="M367,379v -1" fill="none" stroke="#99ff99" stroke-width="2"/>
<path d="M367,378v -2" fill="none" stroke="#99ff99" stroke-width="2"/>
<g stroke="black" stroke-width="2" fill="none">
<line x1="366" y1="378" x2="367" y2="378"/>
</g>
<path d="M378,393v -1" fill="none" stroke="#99ff99" stroke-width="2"/>
<path d="M378,392v -1" fill="none" stroke="#99ff99" stroke-width="2"/>
<g stroke="black" stroke-width="2" fill="none">
<line x1="377" y1="392" x2="378" y2="392"/>
</g>
<path d="M389,409v -1" fill="none" stroke="#99ff99" stroke-width="2"/>
<path d="M389,408v -1" fill="none" stroke="#99ff99" stroke-width="2"/>
<g stroke="black" stroke-width="2" fill="none">
<line x1="388" y1="408" x2="389" y2="408"/>
</g>
<path d="M400,419v -1" fill="none" stroke="#99ff99" stroke-width="2"/>
<path d="M400,418v -1" fill="none" stroke="#99ff99" stroke-width="2"/>
<g stroke="black" stroke-width="2" fill="none">
<line x1="399" y1="418" x2="400" y2="418"/>
</g>
<path d="M411,426" fill="none" stroke="#99ff99" stroke-width="2"/>
<path d="M411,426v -1" fill="none" stroke="#99ff99" stroke-width="2"/>
<g stroke="black" stroke-width="2" fill="none">
<line x1="410" y1="426" x2="411" y2="426"/>
</g>
<path d="M422,433v -1" fill="none" stroke="#99ff99" stroke-width="2"/>
<path d="M422,432" fill="none" stroke="#99ff99" stroke-width="2"/>
<g stroke="black" stroke-width="2" fill="none">
<line x1="421" y1="432" x2="422" y2="432"/>
</g>
<path d="M433,437" fill="none" stroke="#99ff99" stroke-width="2"/>
<path d="M433,437v -1" fill="none" stroke="#99ff99" stroke-width="2"/>
<g stroke="black" stroke-width="2" fill="none">
<line x1="432" y1="437" x2="433" y2="437"/>
</g>
<path d="M444,440" fill="none" stroke="#99ff99" stroke-width="2"/>
<path d="M444,440v -1" fill="none" stroke="#99ff99" stroke-width="2"/>
<g stroke="black" stroke-width="2" fill="none">
<line x1="443" y1="440" x2="444" y2="440"/>
</g>
<path d="M455,442" fill="none" stroke="#99ff99" stroke-width="2"/>
<path d="M455,442" fill="none" stroke="#99ff99" stroke-width="2"/>
<g stroke="black" stroke-width="2" fill="none">
<line x1="454" y1="442" x2="455" y2="442"/>
</g>
<path d="M466,444v -1" fill="none" stroke="#99ff99" stroke-width="2"/>
<path d="M466,443" fill="none" stroke="#99ff99" stroke-width="2"/>
<g stroke="black" stroke-width="2" fill="none">
<line x1="465" y1="443" x2="466" y2="443"/>
</g>
<path d="M477,445" fill="none" stroke="#99ff99" stroke-width="2"/>
<path d="M477,445" fill="none" stroke="#99ff99" stroke-width="2"/>
<g stroke="black" stroke-width="2" fill="none">
<line x1="476" y1="445" x2="477" y2="445"/>
</g>
<path d="M489,445" fill="none" stroke="#99ff99" stroke-width="2"/>
<path d="M489,445" fill="none" stroke="#99ff99" stroke-width="2"/>
<g stroke="black" stroke-width="2" fill="none">
<line x1="488" y1="445" x2="489" y2="445"/>
</g>
<path d="M500,446" fill="none" stroke="#99ff99" stroke-width="2"/>
<path d="M500,446" fill="none" stroke="#99ff99" stroke-width="2"/>
<g stroke="black" stroke-width="2" fill="none">
<line x1="499" y1="446" x2="500" y2="446"/>
</g>
<path d="M511,446" fill="none" stroke="#99ff99" stroke-width="2"/>
<path d="M511,446" fill="none" stroke="#99ff99" stroke-width="2"/>
<g stroke="black" stroke-width="2" fill="none">
<line x1="510" y1="446" x2="511" y2="446"/>
</g>
<path d="M522,446" fill="none" stroke="#99ff99" stroke-width="2"/>
<path d="M522,446" fill="none" stroke="#99ff99" stroke-width="2"/>
<g stroke="black" stroke-width="2" fill="none">
<line x1="521" y1="446" x2="522" y2="446"/>
</g>
<path d="M74,446h 22v -2h 11v -5h 11v -12h 11v -24h 11v -32h 11v -42h 11v -60h 11v -50h 11v -36h 11v -44h 11v -38h 12v -12h 11v -4h 11v -11h 11v 14h 11v 23h 11v 21h 11v 30h 11v 34h 11v 36h 11v 34h 11v 31h 11v 31h 11v 20h 11v 30h 11v 14h 11v 16h 11v
 10h 12v 8h 11v 6h 11v 5h 11v 3h 11v 2h 11v 1h 11v 2h 22v 1h 33z" fill="#99ff99"/>
<path d="M74,446h 22v -2h 11v -5h 11v -12h 11v -24h 11v -32h 11v -42h 11v -60h 11v -50h 11v -36h 11v -44h 11v -38h 12v -12h 11v -4h 11v -11h 11v 14h 11v 23h 11v 21h 11v 30h 11v 34h 11v 36h 11v 34h 11v 31h 11v 31h 11v 20h 11v 30h 11v 14h 11v 16h 11v
 10h 12v 8h 11v 6h 11v 5h 11v 3h 11v 2h 11v 1h 11v 2h 22v 1h 33" fill="none" stroke="#99ff99" stroke-width="2"/>
<path d="M85,446h 4" fill="none" stroke="#ff0099"/>
<path d="M91,446h 5" fill="none" stroke="#ff0099"/>
<g stroke="#ff0099" stroke-width="1" fill="#ff0099">
<circle cx=" 90" cy=" 446" r=" 1.5"/>
</g>
<path d="M96,444h 4" fill="none" stroke="#ff0099"/>
<path d="M102,444h 5" fill="none" stroke="#ff0099"/>
<g stroke="#ff0099" stroke-width="1" fill="#ff0099">
<circle cx=" 101" cy=" 444" r=" 1.5"/>
</g>
<path d="M107,440h 4" fill="none" stroke="#ff0099"/>
<path d="M114,440h 4" fill="none" stroke="#ff0099"/>
<g stroke="#ff0099" stroke-width="1" fill="#ff0099">
<circle cx=" 112" cy=" 440" r=" 1.5"/>
</g>
<path d="M118,427h 4" fill="none" stroke="#ff0099"/>
<path d="M125,427h 4" fill="none" stroke="#ff0099"/>
<g stroke="#ff0099" stroke-width="1" fill="#ff0099">
<circle cx=" 123" cy=" 427" r=" 1.5"/>
</g>
<path d="M129,404h 4" fill="none" stroke="#ff0099"/>
<path d="M136,404h 4" fill="none" stroke="#ff0099"/>
<g stroke="#ff0099" stroke-width="1" fill="#ff0099">
<circle cx=" 135" cy=" 404" r=" 1.5"/>
</g>
<path d="M140,369h 4" fill="none" stroke="#ff0099"/>
<path d="M147,369h 4" fill="none" stroke="#ff0099"/>
<g stroke="#ff0099" stroke-width="1" fill="#ff0099">
<circle cx=" 146" cy=" 369" r=" 1.5"/>
</g>
<path d="M157,325" fill="none" stroke="#ff0099"/>
<path d="M157,323" fill="none" stroke="#ff0099"/>
<path d="M151,324h 5" fill="none" stroke="#ff0099"/>
<path d="M158,324h 4" fill="none" stroke="#ff0099"/>
<g stroke="#ff0099" stroke-width="1" fill="#ff0099">
<circle cx=" 157" cy=" 324" r=" 1.5"/>
</g>
<path d="M168,273" fill="none" stroke="#ff0099"/>
<path d="M168,271" fill="none" stroke="#ff0099"/>
<path d="M162,272h 5" fill="none" stroke="#ff0099"/>
<path d="M169,272h 4" fill="none" stroke="#ff0099"/>
<g stroke="#ff0099" stroke-width="1" fill="#ff0099">
<circle cx=" 168" cy=" 272" r=" 1.5"/>
</g>
<path d="M179,214" fill="none" stroke="#ff0099"/>
<path d="M179,211" fill="none" stroke="#ff0099"/>
<path d="M173,212h 5" fill="none" stroke="#ff0099"/>
<path d="M180,212h 4" fill="none" stroke="#ff0099"/>
<g stroke="#ff0099" stroke-width="1" fill="#ff0099">
<circle cx=" 179" cy=" 212" r=" 1.5"/>
</g>
<path d="M190,163" fill="none" stroke="#ff0099"/>
<path d="M190,160" fill="none" stroke="#ff0099"/>
<path d="M184,161h 5" fill="none" stroke="#ff0099"/>
<path d="M191,161h 4" fill="none" stroke="#ff0099"/>
<g stroke="#ff0099" stroke-width="1" fill="#ff0099">
<circle cx=" 190" cy=" 161" r=" 1.5"/>
</g>
<path d="M201,125v -1" fill="none" stroke="#ff0099"/>
<path d="M201,121" fill="none" stroke="#ff0099"/>
<path d="M195,123h 5" fill="none" stroke="#ff0099"/>
<path d="M202,123h 4" fill="none" stroke="#ff0099"/>
<g stroke="#ff0099" stroke-width="1" fill="#ff0099">
<circle cx=" 201" cy=" 123" r=" 1.5"/>
</g>
<path d="M212,92v -1" fill="none" stroke="#ff0099"/>
<path d="M212,89v -1" fill="none" stroke="#ff0099"/>
<path d="M206,90h 5" fill="none" stroke="#ff0099"/>
<path d="M213,90h 5" fill="none" stroke="#ff0099"/>
<g stroke="#ff0099" stroke-width="1" fill="#ff0099">
<circle cx=" 212" cy=" 90" r=" 1.5"/>
</g>
<path d="M223,74v -1" fill="none" stroke="#ff0099"/>
<path d="M223,71v -1" fill="none" stroke="#ff0099"/>
<path d="M218,72h 4" fill="none" stroke="#ff0099"/>
<path d="M224,72h 5" fill="none" stroke="#ff0099"/>
<g stroke="#ff0099" stroke-width="1" fill="#ff0099">
<circle cx=" 223" cy=" 72" r=" 1.5"/>
</g>
<path d="M234,68v -1" fill="none" stroke="#ff0099"/>
<path d="M234,65v -2" fill="none" stroke="#ff0099"/>
<path d="M229,66h 4" fill="none" stroke="#ff0099"/>
<path d="M235,66h 5" fill="none" stroke="#ff0099"/>
<g stroke="#ff0099" stroke-width="1" fill="#ff0099">
<circle cx=" 234" cy=" 66" r=" 1.5"/>
</g>
<path d="M245,71v -1" fill="none" stroke="#ff0099"/>
<path d="M245,67v -1" fill="none" stroke="#ff0099"/>
<path d="M240,69h 4" fill="none" stroke="#ff0099"/>
<path d="M246,69h 5" fill="none" stroke="#ff0099"/>
<g stroke="#ff0099" stroke-width="1" fill="#ff0099">
<circle cx=" 245" cy=" 69" r=" 1.5"/>
</g>
<path d="M256,87v -1" fill="none" stroke="#ff0099"/>
<path d="M256,84v -1" fill="none" stroke="#ff0099"/>
<path d="M251,85h 4" fill="none" stroke="#ff0099"/>
<path d="M257,85h 5" fill="none" stroke="#ff0099"/>
<g stroke="#ff0099" stroke-width="1" fill="#ff0099">
<circle cx=" 256" cy=" 85" r=" 1.5"/>
</g>
<path d="M267,104v -1" fill="none" stroke="#ff0099"/>
<path d="M267,100v -1" fill="none" stroke="#ff0099"/>
<path d="M262,101h 4" fill="none" stroke="#ff0099"/>
<path d="M268,101h 5" fill="none" stroke="#ff0099"/>
<g stroke="#ff0099" stroke-width="1" fill="#ff0099">
<circle cx=" 267" cy=" 101" r=" 1.5"/>
</g>
<path d="M278,138v -1" fill="none" stroke="#ff0099"/>
<path d="M278,135v -1" fill="none" stroke="#ff0099"/>
<path d="M273,136h 4" fill="none" stroke="#ff0099"/>
<path d="M279,136h 5" fill="none" stroke="#ff0099"/>
<g stroke="#ff0099" stroke-width="1" fill="#ff0099">
<circle cx=" 278" cy=" 136" r=" 1.5"/>
</g>
<path d="M289,172v -1" fill="none" stroke="#ff0099"/>
<path d="M289,169v -1" fill="none" stroke="#ff0099"/>
<path d="M284,170h 4" fill="none" stroke="#ff0099"/>
<path d="M291,170h 4" fill="none" stroke="#ff0099"/>
<g stroke="#ff0099" stroke-width="1" fill="#ff0099">
<circle cx=" 289" cy=" 170" r=" 1.5"/>
</g>
<path d="M300,204" fill="none" stroke="#ff0099"/>
<path d="M300,202v -1" fill="none" stroke="#ff0099"/>
<path d="M295,203h 4" fill="none" stroke="#ff0099"/>
<path d="M302,203h 4" fill="none" stroke="#ff0099"/>
<g stroke="#ff0099" stroke-width="1" fill="#ff0099">
<circle cx=" 300" cy=" 203" r=" 1.5"/>
</g>
<path d="M312,241v -1" fill="none" stroke="#ff0099"/>
<path d="M312,238v -1" fill="none" stroke="#ff0099"/>
<path d="M306,239h 4" fill="none" stroke="#ff0099"/>
<path d="M313,239h 4" fill="none" stroke="#ff0099"/>
<g stroke="#ff0099" stroke-width="1" fill="#ff0099">
<circle cx=" 312" cy=" 239" r=" 1.5"/>
</g>
<path d="M323,278" fill="none" stroke="#ff0099"/>
<path d="M323,275" fill="none" stroke="#ff0099"/>
<path d="M317,277h 4" fill="none" stroke="#ff0099"/>
<path d="M324,277h 4" fill="none" stroke="#ff0099"/>
<g stroke="#ff0099" stroke-width="1" fill="#ff0099">
<circle cx=" 323" cy=" 277" r=" 1.5"/>
</g>
<path d="M334,310" fill="none" stroke="#ff0099"/>
<path d="M334,308" fill="none" stroke="#ff0099"/>
<path d="M328,309h 5" fill="none" stroke="#ff0099"/>
<path d="M335,309h 4" fill="none" stroke="#ff0099"/>
<g stroke="#ff0099" stroke-width="1" fill="#ff0099">
<circle cx=" 334" cy=" 309" r=" 1.5"/>
</g>
<path d="M345,340" fill="none" stroke="#ff0099"/>
<path d="M345,337" fill="none" stroke="#ff0099"/>
<path d="M339,338h 5" fill="none" stroke="#ff0099"/>
<path d="M346,338h 4" fill="none" stroke="#ff0099"/>
<g stroke="#ff0099" stroke-width="1" fill="#ff0099">
<circle cx=" 345" cy=" 338" r=" 1.5"/>
</g>
<path d="M350,362h 5" fill="none" stroke="#ff0099"/>
<path d="M357,362h 4" fill="none" stroke="#ff0099"/>
<g stroke="#ff0099" stroke-width="1" fill="#ff0099">
<circle cx=" 356" cy=" 362" r=" 1.5"/>
</g>
<path d="M361,384h 5" fill="none" stroke="#ff0099"/>
<path d="M368,384h 4" fill="none" stroke="#ff0099"/>
<g stroke="#ff0099" stroke-width="1" fill="#ff0099">
<circle cx=" 367" cy=" 384" r=" 1.5"/>
</g>
<path d="M372,401h 5" fill="none" stroke="#ff0099"/>
<path d="M379,401h 4" fill="none" stroke="#ff0099"/>
<g stroke="#ff0099" stroke-width="1" fill="#ff0099">
<circle cx=" 378" cy=" 401" r=" 1.5"/>
</g>
<path d="M383,413h 5" fill="none" stroke="#ff0099"/>
<path d="M390,413h 4" fill="none" stroke="#ff0099"/>
<g stroke="#ff0099" stroke-width="1" fill="#ff0099">
<circle cx=" 389" cy=" 413" r=" 1.5"/>
</g>
<path d="M394,424h 5" fill="none" stroke="#ff0099"/>
<path d="M401,424h 5" fill="none" stroke="#ff0099"/>
<g stroke="#ff0099" stroke-width="1" fill="#ff0099">
<circle cx=" 400" cy=" 424" r=" 1.5"/>
</g>
<path d="M406,430h 4" fill="none" stroke="#ff0099"/>
<path d="M412,430h 5" fill="none" stroke="#ff0099"/>
<g stroke="#ff0099" stroke-width="1" fill="#ff0099">
<circle cx=" 411" cy=" 430" r=" 1.5"/>
</g>
<path d="M417,435h 4" fill="none" stroke="#ff0099"/>
<path d="M423,435h 5" fill="none" stroke="#ff0099"/>
<g stroke="#ff0099" stroke-width="1" fill="#ff0099">
<circle cx=" 422" cy=" 435" r=" 1.5"/>
</g>
<path d="M428,440h 4" fill="none" stroke="#ff0099"/>
<path d="M434,440h 5" fill="none" stroke="#ff0099"/>
<g stroke="#ff0099" stroke-width="1" fill="#ff0099">
<circle cx=" 433" cy=" 440" r=" 1.5"/>
</g>
<path d="M439,442h 4" fill="none" stroke="#ff0099"/>
<path d="M445,442h 5" fill="none" stroke="#ff0099"/>
<g stroke="#ff0099" stroke-width="1" fill="#ff0099">
<circle cx=" 444" cy=" 442" r=" 1.5"/>
</g>
<path d="M450,443h 4" fill="none" stroke="#ff0099"/>
<path d="M456,443h 5" fill="none" stroke="#ff0099"/>
<g stroke="#ff0099" stroke-width="1" fill="#ff0099">
<circle cx=" 455" cy=" 443" r=" 1.5"/>
</g>
<path d="M461,444h 4" fill="none" stroke="#ff0099"/>
<path d="M468,444h 4" fill="none" stroke="#ff0099"/>
<g stroke="#ff0099" stroke-width="1" fill="#ff0099">
<circle cx=" 466" cy=" 444" r=" 1.5"/>
</g>
<path d="M472,445h 4" fill="none" stroke="#ff0099"/>
<path d="M479,445h 4" fill="none" stroke="#ff0099"/>
<g stroke="#ff0099" stroke-width="1" fill="#ff0099">
<circle cx=" 477" cy=" 445" r=" 1.5"/>
</g>
<path d="M483,446h 4" fill="none" stroke="#ff0099"/>
<path d="M490,446h 4" fill="none" stroke="#ff0099"/>
<g stroke="#ff0099" stroke-width="1" fill="#ff0099">
<circle cx=" 489" cy=" 446" r=" 1.5"/>
</g>
<path d="M494,446h 4" fill="none" stroke="#ff0099"/>
<path d="M501,446h 4" fill="none" stroke="#ff0099"/>
<g stroke="#ff0099" stroke-width="1" fill="#ff0099">
<circle cx=" 500" cy=" 446" r=" 1.5"/>
</g>
<path d="M505,446h 5" fill="none" stroke="#ff0099"/>
<path d="M512,446h 4" fill="none" stroke="#ff0099"/>
<g stroke="#ff0099" stroke-width="1" fill="#ff0099">
<circle cx=" 511" cy=" 446" r=" 1.5"/>
</g>
<path d="M516,446h 5" fill="none" stroke="#ff0099"/>
<path d="M523,446h 4" fill="none" stroke="#ff0099"/>
<g stroke="#ff0099" stroke-width="1" fill="#ff0099">
<circle cx=" 522" cy=" 446" r=" 1.5"/>
</g>
<rect x="357" y="59" width="142" height="99" fill="white"/>
<text x="360" y="82" fill="black" font-size="17" font-family="Helvetica" font-weight="bold">
EB
</text>
<text x="457" y="115" fill="black" font-size="17" font-family="Helvetica" font-weight="bold">
 ee
</text>
<text x="440" y="115" fill="black" font-size="17" font-family="Times">
&#8594;
</text>
<text x="392" y="115" fill="black" font-size="17" font-family="Helvetica" font-weight="bold">
MC Z 
</text>
<path d="M362,109h 25" fill="none" stroke="#ff0099"/>
<g stroke="#ff0099" stroke-width="1" fill="#ff0099">
<circle cx=" 375" cy=" 109" r=" 1.5"/>
</g>
<text x="455" y="147" fill="black" font-size="17" font-family="Helvetica" font-weight="bold">
 + jet
</text>
<text x="447" y="147" fill="black" font-size="17" font-family="Times">
&#0947;
</text>
<text x="392" y="147" fill="black" font-size="17" font-family="Helvetica" font-weight="bold">
signal 
</text>
<path d="M362,154h 25v -24h -25z" fill="#99ff99"/>
<path d="M362,130h 25" fill="none" stroke="#99ff99" stroke-width="2"/>
<path d="M362,154h 25" fill="none" stroke="#99ff99" stroke-width="2"/>
<path d="M387,154v -24" fill="none" stroke="#99ff99" stroke-width="2"/>
<path d="M362,154v -24" fill="none" stroke="#99ff99" stroke-width="2"/>
<text x="300" y="34" fill="black" font-size="17" font-family="Helvetica" font-weight="bold">
=8 TeV
</text>
<text x="291" y="34" fill="black" font-size="17" font-family="Helvetica" font-weight="bold">
s
</text>
<path d="M285,25l 2, 10" fill="none" stroke="black" stroke-width="2"/>
<path d="M287,35l 2, -14" fill="none" stroke="black"/>
<path d="M289,21h 11" fill="none" stroke="black"/>
<text x="142" y="34" fill="black" font-size="17" font-family="Helvetica" font-weight="bold">
CMS Preliminary 
</text></svg>
