<?xml version="1.0" standalone="no"?>
<svg width="567" height="496" viewBox="0 0 567 496" xmlns="http://www.w3.org/2000/svg">
<title>
../src/TagAndProbeZ/plots_mcZee_mcGJet_withwithEtaR9rhoReweight/hlt90/pid_pfIsoFPRCharged03_preselAll.svg
</title>
<desc>
Creator: ROOT Version 5.32/00
CreationDate: Wed Oct  1 11:18:50 2014</desc>
<defs>
</defs>
<rect x="0" y="0" width="567" height="496" fill="white"/>
<rect x="74" y="44" width="453" height="402" fill="white"/>
<rect x="74" y="44" width="453" height="402" fill="none" stroke="black"/>
<rect x="74" y="44" width="453" height="402" fill="white"/>
<rect x="74" y="44" width="453" height="402" fill="none" stroke="black"/>
<path d="M77,73v -4" fill="none" stroke="#ff0099"/>
<path d="M77,67v -4" fill="none" stroke="#ff0099"/>
<path d="M74,68h 2" fill="none" stroke="#ff0099"/>
<path d="M79,68h 2" fill="none" stroke="#ff0099"/>
<g stroke="#ff0099" stroke-width="1" fill="#ff0099">
<circle cx=" 77" cy=" 68" r=" 1.5"/>
</g>
<path d="M81,427h 3" fill="none" stroke="#ff0099"/>
<path d="M86,427h 3" fill="none" stroke="#ff0099"/>
<g stroke="#ff0099" stroke-width="1" fill="#ff0099">
<circle cx=" 85" cy=" 427" r=" 1.5"/>
</g>
<path d="M89,418h 2" fill="none" stroke="#ff0099"/>
<path d="M94,418h 2" fill="none" stroke="#ff0099"/>
<g stroke="#ff0099" stroke-width="1" fill="#ff0099">
<circle cx=" 93" cy=" 418" r=" 1.5"/>
</g>
<path d="M96,414h 3" fill="none" stroke="#ff0099"/>
<path d="M101,414h 3" fill="none" stroke="#ff0099"/>
<g stroke="#ff0099" stroke-width="1" fill="#ff0099">
<circle cx=" 100" cy=" 414" r=" 1.5"/>
</g>
<path d="M104,413h 3" fill="none" stroke="#ff0099"/>
<path d="M109,413h 2" fill="none" stroke="#ff0099"/>
<g stroke="#ff0099" stroke-width="1" fill="#ff0099">
<circle cx=" 108" cy=" 413" r=" 1.5"/>
</g>
<path d="M111,415h 3" fill="none" stroke="#ff0099"/>
<path d="M116,415h 3" fill="none" stroke="#ff0099"/>
<g stroke="#ff0099" stroke-width="1" fill="#ff0099">
<circle cx=" 115" cy=" 415" r=" 1.5"/>
</g>
<path d="M119,417h 3" fill="none" stroke="#ff0099"/>
<path d="M124,417h 3" fill="none" stroke="#ff0099"/>
<g stroke="#ff0099" stroke-width="1" fill="#ff0099">
<circle cx=" 123" cy=" 417" r=" 1.5"/>
</g>
<path d="M127,419h 2" fill="none" stroke="#ff0099"/>
<path d="M132,419h 2" fill="none" stroke="#ff0099"/>
<g stroke="#ff0099" stroke-width="1" fill="#ff0099">
<circle cx=" 130" cy=" 419" r=" 1.5"/>
</g>
<path d="M134,420h 3" fill="none" stroke="#ff0099"/>
<path d="M139,420h 3" fill="none" stroke="#ff0099"/>
<g stroke="#ff0099" stroke-width="1" fill="#ff0099">
<circle cx=" 138" cy=" 420" r=" 1.5"/>
</g>
<path d="M142,422h 2" fill="none" stroke="#ff0099"/>
<path d="M147,422h 2" fill="none" stroke="#ff0099"/>
<g stroke="#ff0099" stroke-width="1" fill="#ff0099">
<circle cx=" 146" cy=" 422" r=" 1.5"/>
</g>
<path d="M149,422h 3" fill="none" stroke="#ff0099"/>
<path d="M154,422h 3" fill="none" stroke="#ff0099"/>
<g stroke="#ff0099" stroke-width="1" fill="#ff0099">
<circle cx=" 153" cy=" 422" r=" 1.5"/>
</g>
<path d="M157,423h 2" fill="none" stroke="#ff0099"/>
<path d="M162,423h 2" fill="none" stroke="#ff0099"/>
<g stroke="#ff0099" stroke-width="1" fill="#ff0099">
<circle cx=" 161" cy=" 423" r=" 1.5"/>
</g>
<path d="M164,424h 3" fill="none" stroke="#ff0099"/>
<path d="M169,424h 3" fill="none" stroke="#ff0099"/>
<g stroke="#ff0099" stroke-width="1" fill="#ff0099">
<circle cx=" 168" cy=" 424" r=" 1.5"/>
</g>
<path d="M172,425h 3" fill="none" stroke="#ff0099"/>
<path d="M177,425h 3" fill="none" stroke="#ff0099"/>
<g stroke="#ff0099" stroke-width="1" fill="#ff0099">
<circle cx=" 176" cy=" 425" r=" 1.5"/>
</g>
<path d="M180,426h 2" fill="none" stroke="#ff0099"/>
<path d="M184,426h 3" fill="none" stroke="#ff0099"/>
<g stroke="#ff0099" stroke-width="1" fill="#ff0099">
<circle cx=" 183" cy=" 426" r=" 1.5"/>
</g>
<path d="M187,425h 3" fill="none" stroke="#ff0099"/>
<path d="M192,425h 3" fill="none" stroke="#ff0099"/>
<g stroke="#ff0099" stroke-width="1" fill="#ff0099">
<circle cx=" 191" cy=" 425" r=" 1.5"/>
</g>
<path d="M195,426h 2" fill="none" stroke="#ff0099"/>
<path d="M200,426h 2" fill="none" stroke="#ff0099"/>
<g stroke="#ff0099" stroke-width="1" fill="#ff0099">
<circle cx=" 198" cy=" 426" r=" 1.5"/>
</g>
<path d="M202,426h 3" fill="none" stroke="#ff0099"/>
<path d="M207,426h 3" fill="none" stroke="#ff0099"/>
<g stroke="#ff0099" stroke-width="1" fill="#ff0099">
<circle cx=" 206" cy=" 426" r=" 1.5"/>
</g>
<path d="M210,426h 2" fill="none" stroke="#ff0099"/>
<path d="M215,426h 2" fill="none" stroke="#ff0099"/>
<g stroke="#ff0099" stroke-width="1" fill="#ff0099">
<circle cx=" 214" cy=" 426" r=" 1.5"/>
</g>
<path d="M217,427h 3" fill="none" stroke="#ff0099"/>
<path d="M222,427h 3" fill="none" stroke="#ff0099"/>
<g stroke="#ff0099" stroke-width="1" fill="#ff0099">
<circle cx=" 221" cy=" 427" r=" 1.5"/>
</g>
<path d="M225,426h 3" fill="none" stroke="#ff0099"/>
<path d="M230,426h 2" fill="none" stroke="#ff0099"/>
<g stroke="#ff0099" stroke-width="1" fill="#ff0099">
<circle cx=" 229" cy=" 426" r=" 1.5"/>
</g>
<path d="M232,427h 3" fill="none" stroke="#ff0099"/>
<path d="M237,427h 3" fill="none" stroke="#ff0099"/>
<g stroke="#ff0099" stroke-width="1" fill="#ff0099">
<circle cx=" 236" cy=" 427" r=" 1.5"/>
</g>
<path d="M240,427h 3" fill="none" stroke="#ff0099"/>
<path d="M245,427h 3" fill="none" stroke="#ff0099"/>
<g stroke="#ff0099" stroke-width="1" fill="#ff0099">
<circle cx=" 244" cy=" 427" r=" 1.5"/>
</g>
<path d="M248,427h 2" fill="none" stroke="#ff0099"/>
<path d="M252,427h 3" fill="none" stroke="#ff0099"/>
<g stroke="#ff0099" stroke-width="1" fill="#ff0099">
<circle cx=" 251" cy=" 427" r=" 1.5"/>
</g>
<path d="M255,427h 3" fill="none" stroke="#ff0099"/>
<path d="M260,427h 3" fill="none" stroke="#ff0099"/>
<g stroke="#ff0099" stroke-width="1" fill="#ff0099">
<circle cx=" 259" cy=" 427" r=" 1.5"/>
</g>
<path d="M263,427h 2" fill="none" stroke="#ff0099"/>
<path d="M268,427h 2" fill="none" stroke="#ff0099"/>
<g stroke="#ff0099" stroke-width="1" fill="#ff0099">
<circle cx=" 266" cy=" 427" r=" 1.5"/>
</g>
<path d="M270,427h 3" fill="none" stroke="#ff0099"/>
<path d="M275,427h 3" fill="none" stroke="#ff0099"/>
<g stroke="#ff0099" stroke-width="1" fill="#ff0099">
<circle cx=" 274" cy=" 427" r=" 1.5"/>
</g>
<path d="M278,427h 2" fill="none" stroke="#ff0099"/>
<path d="M283,427h 2" fill="none" stroke="#ff0099"/>
<g stroke="#ff0099" stroke-width="1" fill="#ff0099">
<circle cx=" 282" cy=" 427" r=" 1.5"/>
</g>
<path d="M285,428h 3" fill="none" stroke="#ff0099"/>
<path d="M290,428h 3" fill="none" stroke="#ff0099"/>
<g stroke="#ff0099" stroke-width="1" fill="#ff0099">
<circle cx=" 289" cy=" 428" r=" 1.5"/>
</g>
<path d="M293,428h 3" fill="none" stroke="#ff0099"/>
<path d="M298,428h 2" fill="none" stroke="#ff0099"/>
<g stroke="#ff0099" stroke-width="1" fill="#ff0099">
<circle cx=" 297" cy=" 428" r=" 1.5"/>
</g>
<path d="M300,427h 3" fill="none" stroke="#ff0099"/>
<path d="M305,427h 3" fill="none" stroke="#ff0099"/>
<g stroke="#ff0099" stroke-width="1" fill="#ff0099">
<circle cx=" 304" cy=" 427" r=" 1.5"/>
</g>
<path d="M308,428h 3" fill="none" stroke="#ff0099"/>
<path d="M313,428h 3" fill="none" stroke="#ff0099"/>
<g stroke="#ff0099" stroke-width="1" fill="#ff0099">
<circle cx=" 312" cy=" 428" r=" 1.5"/>
</g>
<path d="M316,428h 2" fill="none" stroke="#ff0099"/>
<path d="M321,428h 2" fill="none" stroke="#ff0099"/>
<g stroke="#ff0099" stroke-width="1" fill="#ff0099">
<circle cx=" 319" cy=" 428" r=" 1.5"/>
</g>
<path d="M323,428h 3" fill="none" stroke="#ff0099"/>
<path d="M328,428h 3" fill="none" stroke="#ff0099"/>
<g stroke="#ff0099" stroke-width="1" fill="#ff0099">
<circle cx=" 327" cy=" 428" r=" 1.5"/>
</g>
<path d="M331,428h 2" fill="none" stroke="#ff0099"/>
<path d="M336,428h 2" fill="none" stroke="#ff0099"/>
<g stroke="#ff0099" stroke-width="1" fill="#ff0099">
<circle cx=" 334" cy=" 428" r=" 1.5"/>
</g>
<path d="M338,428h 3" fill="none" stroke="#ff0099"/>
<path d="M343,428h 3" fill="none" stroke="#ff0099"/>
<g stroke="#ff0099" stroke-width="1" fill="#ff0099">
<circle cx=" 342" cy=" 428" r=" 1.5"/>
</g>
<path d="M346,428h 2" fill="none" stroke="#ff0099"/>
<path d="M351,428h 2" fill="none" stroke="#ff0099"/>
<g stroke="#ff0099" stroke-width="1" fill="#ff0099">
<circle cx=" 350" cy=" 428" r=" 1.5"/>
</g>
<path d="M353,428h 3" fill="none" stroke="#ff0099"/>
<path d="M358,428h 3" fill="none" stroke="#ff0099"/>
<g stroke="#ff0099" stroke-width="1" fill="#ff0099">
<circle cx=" 357" cy=" 428" r=" 1.5"/>
</g>
<path d="M361,428h 3" fill="none" stroke="#ff0099"/>
<path d="M366,428h 3" fill="none" stroke="#ff0099"/>
<g stroke="#ff0099" stroke-width="1" fill="#ff0099">
<circle cx=" 365" cy=" 428" r=" 1.5"/>
</g>
<path d="M369,428h 2" fill="none" stroke="#ff0099"/>
<path d="M373,428h 3" fill="none" stroke="#ff0099"/>
<g stroke="#ff0099" stroke-width="1" fill="#ff0099">
<circle cx=" 372" cy=" 428" r=" 1.5"/>
</g>
<path d="M376,428h 3" fill="none" stroke="#ff0099"/>
<path d="M381,428h 3" fill="none" stroke="#ff0099"/>
<g stroke="#ff0099" stroke-width="1" fill="#ff0099">
<circle cx=" 380" cy=" 428" r=" 1.5"/>
</g>
<path d="M384,428h 2" fill="none" stroke="#ff0099"/>
<path d="M389,428h 2" fill="none" stroke="#ff0099"/>
<g stroke="#ff0099" stroke-width="1" fill="#ff0099">
<circle cx=" 387" cy=" 428" r=" 1.5"/>
</g>
<path d="M391,428h 3" fill="none" stroke="#ff0099"/>
<path d="M396,428h 3" fill="none" stroke="#ff0099"/>
<g stroke="#ff0099" stroke-width="1" fill="#ff0099">
<circle cx=" 395" cy=" 428" r=" 1.5"/>
</g>
<path d="M399,428h 2" fill="none" stroke="#ff0099"/>
<path d="M404,428h 2" fill="none" stroke="#ff0099"/>
<g stroke="#ff0099" stroke-width="1" fill="#ff0099">
<circle cx=" 403" cy=" 428" r=" 1.5"/>
</g>
<path d="M406,428h 3" fill="none" stroke="#ff0099"/>
<path d="M411,428h 3" fill="none" stroke="#ff0099"/>
<g stroke="#ff0099" stroke-width="1" fill="#ff0099">
<circle cx=" 410" cy=" 428" r=" 1.5"/>
</g>
<path d="M414,428h 2" fill="none" stroke="#ff0099"/>
<path d="M419,428h 2" fill="none" stroke="#ff0099"/>
<g stroke="#ff0099" stroke-width="1" fill="#ff0099">
<circle cx=" 418" cy=" 428" r=" 1.5"/>
</g>
<path d="M421,428h 3" fill="none" stroke="#ff0099"/>
<path d="M426,428h 3" fill="none" stroke="#ff0099"/>
<g stroke="#ff0099" stroke-width="1" fill="#ff0099">
<circle cx=" 425" cy=" 428" r=" 1.5"/>
</g>
<path d="M429,428h 3" fill="none" stroke="#ff0099"/>
<path d="M434,428h 3" fill="none" stroke="#ff0099"/>
<g stroke="#ff0099" stroke-width="1" fill="#ff0099">
<circle cx=" 433" cy=" 428" r=" 1.5"/>
</g>
<path d="M437,428h 2" fill="none" stroke="#ff0099"/>
<path d="M441,428h 3" fill="none" stroke="#ff0099"/>
<g stroke="#ff0099" stroke-width="1" fill="#ff0099">
<circle cx=" 440" cy=" 428" r=" 1.5"/>
</g>
<path d="M444,428h 3" fill="none" stroke="#ff0099"/>
<path d="M449,428h 3" fill="none" stroke="#ff0099"/>
<g stroke="#ff0099" stroke-width="1" fill="#ff0099">
<circle cx=" 448" cy=" 428" r=" 1.5"/>
</g>
<path d="M452,428h 2" fill="none" stroke="#ff0099"/>
<path d="M457,428h 2" fill="none" stroke="#ff0099"/>
<g stroke="#ff0099" stroke-width="1" fill="#ff0099">
<circle cx=" 455" cy=" 428" r=" 1.5"/>
</g>
<path d="M459,428h 3" fill="none" stroke="#ff0099"/>
<path d="M464,428h 3" fill="none" stroke="#ff0099"/>
<g stroke="#ff0099" stroke-width="1" fill="#ff0099">
<circle cx=" 463" cy=" 428" r=" 1.5"/>
</g>
<path d="M474,428h 3" fill="none" stroke="#ff0099"/>
<path d="M479,428h 3" fill="none" stroke="#ff0099"/>
<g stroke="#ff0099" stroke-width="1" fill="#ff0099">
<circle cx=" 478" cy=" 428" r=" 1.5"/>
</g>
<path d="M482,428h 3" fill="none" stroke="#ff0099"/>
<path d="M487,428h 2" fill="none" stroke="#ff0099"/>
<g stroke="#ff0099" stroke-width="1" fill="#ff0099">
<circle cx=" 486" cy=" 428" r=" 1.5"/>
</g>
<path d="M497,428h 3" fill="none" stroke="#ff0099"/>
<path d="M502,428h 3" fill="none" stroke="#ff0099"/>
<g stroke="#ff0099" stroke-width="1" fill="#ff0099">
<circle cx=" 501" cy=" 428" r=" 1.5"/>
</g>
<path d="M505,428h 2" fill="none" stroke="#ff0099"/>
<path d="M509,428h 3" fill="none" stroke="#ff0099"/>
<g stroke="#ff0099" stroke-width="1" fill="#ff0099">
<circle cx=" 508" cy=" 428" r=" 1.5"/>
</g>
<path d="M74,446h 453" fill="none" stroke="black"/>
<path d="M74,434v 12" fill="none" stroke="black"/>
<path d="M89,440v 6" fill="none" stroke="black"/>
<path d="M104,440v 6" fill="none" stroke="black"/>
<path d="M119,440v 6" fill="none" stroke="black"/>
<path d="M134,440v 6" fill="none" stroke="black"/>
<path d="M149,434v 12" fill="none" stroke="black"/>
<path d="M164,440v 6" fill="none" stroke="black"/>
<path d="M180,440v 6" fill="none" stroke="black"/>
<path d="M195,440v 6" fill="none" stroke="black"/>
<path d="M210,440v 6" fill="none" stroke="black"/>
<path d="M225,434v 12" fill="none" stroke="black"/>
<path d="M240,440v 6" fill="none" stroke="black"/>
<path d="M255,440v 6" fill="none" stroke="black"/>
<path d="M270,440v 6" fill="none" stroke="black"/>
<path d="M285,440v 6" fill="none" stroke="black"/>
<path d="M300,434v 12" fill="none" stroke="black"/>
<path d="M316,440v 6" fill="none" stroke="black"/>
<path d="M331,440v 6" fill="none" stroke="black"/>
<path d="M346,440v 6" fill="none" stroke="black"/>
<path d="M361,440v 6" fill="none" stroke="black"/>
<path d="M376,434v 12" fill="none" stroke="black"/>
<path d="M391,440v 6" fill="none" stroke="black"/>
<path d="M406,440v 6" fill="none" stroke="black"/>
<path d="M421,440v 6" fill="none" stroke="black"/>
<path d="M437,440v 6" fill="none" stroke="black"/>
<path d="M452,434v 12" fill="none" stroke="black"/>
<path d="M467,440v 6" fill="none" stroke="black"/>
<path d="M482,440v 6" fill="none" stroke="black"/>
<path d="M497,440v 6" fill="none" stroke="black"/>
<path d="M512,440v 6" fill="none" stroke="black"/>
<path d="M527,434v 12" fill="none" stroke="black"/>
<text x="68" y="465" fill="black" font-size="18" font-family="Helvetica" font-weight="bold">
0
</text>
<text x="145" y="465" fill="black" font-size="18" font-family="Helvetica" font-weight="bold">
1
</text>
<text x="220" y="465" fill="black" font-size="18" font-family="Helvetica" font-weight="bold">
2
</text>
<text x="295" y="465" fill="black" font-size="18" font-family="Helvetica" font-weight="bold">
3
</text>
<text x="371" y="465" fill="black" font-size="18" font-family="Helvetica" font-weight="bold">
4
</text>
<text x="446" y="465" fill="black" font-size="18" font-family="Helvetica" font-weight="bold">
5
</text>
<text x="522" y="465" fill="black" font-size="18" font-family="Helvetica" font-weight="bold">
6
</text>
<path d="M74,44h 453" fill="none" stroke="black"/>
<path d="M74,56v -12" fill="none" stroke="black"/>
<path d="M89,50v -6" fill="none" stroke="black"/>
<path d="M104,50v -6" fill="none" stroke="black"/>
<path d="M119,50v -6" fill="none" stroke="black"/>
<path d="M134,50v -6" fill="none" stroke="black"/>
<path d="M149,56v -12" fill="none" stroke="black"/>
<path d="M164,50v -6" fill="none" stroke="black"/>
<path d="M180,50v -6" fill="none" stroke="black"/>
<path d="M195,50v -6" fill="none" stroke="black"/>
<path d="M210,50v -6" fill="none" stroke="black"/>
<path d="M225,56v -12" fill="none" stroke="black"/>
<path d="M240,50v -6" fill="none" stroke="black"/>
<path d="M255,50v -6" fill="none" stroke="black"/>
<path d="M270,50v -6" fill="none" stroke="black"/>
<path d="M285,50v -6" fill="none" stroke="black"/>
<path d="M300,56v -12" fill="none" stroke="black"/>
<path d="M316,50v -6" fill="none" stroke="black"/>
<path d="M331,50v -6" fill="none" stroke="black"/>
<path d="M346,50v -6" fill="none" stroke="black"/>
<path d="M361,50v -6" fill="none" stroke="black"/>
<path d="M376,56v -12" fill="none" stroke="black"/>
<path d="M391,50v -6" fill="none" stroke="black"/>
<path d="M406,50v -6" fill="none" stroke="black"/>
<path d="M421,50v -6" fill="none" stroke="black"/>
<path d="M437,50v -6" fill="none" stroke="black"/>
<path d="M452,56v -12" fill="none" stroke="black"/>
<path d="M467,50v -6" fill="none" stroke="black"/>
<path d="M482,50v -6" fill="none" stroke="black"/>
<path d="M497,50v -6" fill="none" stroke="black"/>
<path d="M512,50v -6" fill="none" stroke="black"/>
<path d="M527,56v -12" fill="none" stroke="black"/>
<path d="M74,446v -402" fill="none" stroke="black"/>
<path d="M87,428h -13" fill="none" stroke="black"/>
<path d="M81,418h -7" fill="none" stroke="black"/>
<path d="M81,408h -7" fill="none" stroke="black"/>
<path d="M81,399h -7" fill="none" stroke="black"/>
<path d="M81,389h -7" fill="none" stroke="black"/>
<path d="M87,379h -13" fill="none" stroke="black"/>
<path d="M81,369h -7" fill="none" stroke="black"/>
<path d="M81,359h -7" fill="none" stroke="black"/>
<path d="M81,349h -7" fill="none" stroke="black"/>
<path d="M81,339h -7" fill="none" stroke="black"/>
<path d="M87,330h -13" fill="none" stroke="black"/>
<path d="M81,320h -7" fill="none" stroke="black"/>
<path d="M81,310h -7" fill="none" stroke="black"/>
<path d="M81,300h -7" fill="none" stroke="black"/>
<path d="M81,290h -7" fill="none" stroke="black"/>
<path d="M87,280h -13" fill="none" stroke="black"/>
<path d="M81,270h -7" fill="none" stroke="black"/>
<path d="M81,260h -7" fill="none" stroke="black"/>
<path d="M81,251h -7" fill="none" stroke="black"/>
<path d="M81,241h -7" fill="none" stroke="black"/>
<path d="M87,231h -13" fill="none" stroke="black"/>
<path d="M81,221h -7" fill="none" stroke="black"/>
<path d="M81,211h -7" fill="none" stroke="black"/>
<path d="M81,201h -7" fill="none" stroke="black"/>
<path d="M81,191h -7" fill="none" stroke="black"/>
<path d="M87,182h -13" fill="none" stroke="black"/>
<path d="M81,172h -7" fill="none" stroke="black"/>
<path d="M81,162h -7" fill="none" stroke="black"/>
<path d="M81,152h -7" fill="none" stroke="black"/>
<path d="M81,142h -7" fill="none" stroke="black"/>
<path d="M87,132h -13" fill="none" stroke="black"/>
<path d="M81,122h -7" fill="none" stroke="black"/>
<path d="M81,113h -7" fill="none" stroke="black"/>
<path d="M81,103h -7" fill="none" stroke="black"/>
<path d="M81,93h -7" fill="none" stroke="black"/>
<path d="M87,83h -13" fill="none" stroke="black"/>
<path d="M87,428h -13" fill="none" stroke="black"/>
<path d="M81,438h -7" fill="none" stroke="black"/>
<path d="M87,83h -13" fill="none" stroke="black"/>
<path d="M81,73h -7" fill="none" stroke="black"/>
<path d="M81,63h -7" fill="none" stroke="black"/>
<path d="M81,53h -7" fill="none" stroke="black"/>
<text x="61" y="435" fill="black" font-size="18" font-family="Helvetica" font-weight="bold">
0
</text>
<text x="47" y="386" fill="black" font-size="18" font-family="Helvetica" font-weight="bold">
0.1
</text>
<text x="45" y="336" fill="black" font-size="18" font-family="Helvetica" font-weight="bold">
0.2
</text>
<text x="45" y="287" fill="black" font-size="18" font-family="Helvetica" font-weight="bold">
0.3
</text>
<text x="44" y="238" fill="black" font-size="18" font-family="Helvetica" font-weight="bold">
0.4
</text>
<text x="45" y="188" fill="black" font-size="18" font-family="Helvetica" font-weight="bold">
0.5
</text>
<text x="45" y="139" fill="black" font-size="18" font-family="Helvetica" font-weight="bold">
0.6
</text>
<text x="45" y="90" fill="black" font-size="18" font-family="Helvetica" font-weight="bold">
0.7
</text>
<path d="M77,73v -1" fill="none" stroke="#99ff99" stroke-width="2"/>
<path d="M77,72v -2" fill="none" stroke="#99ff99" stroke-width="2"/>
<g stroke="black" stroke-width="2" fill="none">
<line x1="76" y1="72" x2="77" y2="72"/>
</g>
<path d="M85,427" fill="none" stroke="#99ff99" stroke-width="2"/>
<path d="M85,427" fill="none" stroke="#99ff99" stroke-width="2"/>
<g stroke="black" stroke-width="2" fill="none">
<line x1="84" y1="427" x2="85" y2="427"/>
</g>
<path d="M93,418" fill="none" stroke="#99ff99" stroke-width="2"/>
<path d="M93,418" fill="none" stroke="#99ff99" stroke-width="2"/>
<g stroke="black" stroke-width="2" fill="none">
<line x1="92" y1="418" x2="93" y2="418"/>
</g>
<path d="M100,415" fill="none" stroke="#99ff99" stroke-width="2"/>
<path d="M100,415v -1" fill="none" stroke="#99ff99" stroke-width="2"/>
<g stroke="black" stroke-width="2" fill="none">
<line x1="99" y1="415" x2="100" y2="415"/>
</g>
<path d="M108,415v -1" fill="none" stroke="#99ff99" stroke-width="2"/>
<path d="M108,414" fill="none" stroke="#99ff99" stroke-width="2"/>
<g stroke="black" stroke-width="2" fill="none">
<line x1="107" y1="414" x2="108" y2="414"/>
</g>
<path d="M115,416v -1" fill="none" stroke="#99ff99" stroke-width="2"/>
<path d="M115,415" fill="none" stroke="#99ff99" stroke-width="2"/>
<g stroke="black" stroke-width="2" fill="none">
<line x1="114" y1="415" x2="115" y2="415"/>
</g>
<path d="M123,418" fill="none" stroke="#99ff99" stroke-width="2"/>
<path d="M123,418v -1" fill="none" stroke="#99ff99" stroke-width="2"/>
<g stroke="black" stroke-width="2" fill="none">
<line x1="122" y1="418" x2="123" y2="418"/>
</g>
<path d="M130,419" fill="none" stroke="#99ff99" stroke-width="2"/>
<path d="M130,419v -1" fill="none" stroke="#99ff99" stroke-width="2"/>
<g stroke="black" stroke-width="2" fill="none">
<line x1="129" y1="419" x2="130" y2="419"/>
</g>
<path d="M138,420" fill="none" stroke="#99ff99" stroke-width="2"/>
<path d="M138,420v -1" fill="none" stroke="#99ff99" stroke-width="2"/>
<g stroke="black" stroke-width="2" fill="none">
<line x1="137" y1="420" x2="138" y2="420"/>
</g>
<path d="M146,422" fill="none" stroke="#99ff99" stroke-width="2"/>
<path d="M146,422v -1" fill="none" stroke="#99ff99" stroke-width="2"/>
<g stroke="black" stroke-width="2" fill="none">
<line x1="145" y1="422" x2="146" y2="422"/>
</g>
<path d="M153,422" fill="none" stroke="#99ff99" stroke-width="2"/>
<path d="M153,422" fill="none" stroke="#99ff99" stroke-width="2"/>
<g stroke="black" stroke-width="2" fill="none">
<line x1="152" y1="422" x2="153" y2="422"/>
</g>
<path d="M161,423" fill="none" stroke="#99ff99" stroke-width="2"/>
<path d="M161,423" fill="none" stroke="#99ff99" stroke-width="2"/>
<g stroke="black" stroke-width="2" fill="none">
<line x1="160" y1="423" x2="161" y2="423"/>
</g>
<path d="M168,424" fill="none" stroke="#99ff99" stroke-width="2"/>
<path d="M168,424" fill="none" stroke="#99ff99" stroke-width="2"/>
<g stroke="black" stroke-width="2" fill="none">
<line x1="167" y1="424" x2="168" y2="424"/>
</g>
<path d="M176,424" fill="none" stroke="#99ff99" stroke-width="2"/>
<path d="M176,424" fill="none" stroke="#99ff99" stroke-width="2"/>
<g stroke="black" stroke-width="2" fill="none">
<line x1="175" y1="424" x2="176" y2="424"/>
</g>
<path d="M183,425" fill="none" stroke="#99ff99" stroke-width="2"/>
<path d="M183,425" fill="none" stroke="#99ff99" stroke-width="2"/>
<g stroke="black" stroke-width="2" fill="none">
<line x1="182" y1="425" x2="183" y2="425"/>
</g>
<path d="M191,425" fill="none" stroke="#99ff99" stroke-width="2"/>
<path d="M191,425" fill="none" stroke="#99ff99" stroke-width="2"/>
<g stroke="black" stroke-width="2" fill="none">
<line x1="190" y1="425" x2="191" y2="425"/>
</g>
<path d="M198,425" fill="none" stroke="#99ff99" stroke-width="2"/>
<path d="M198,425" fill="none" stroke="#99ff99" stroke-width="2"/>
<g stroke="black" stroke-width="2" fill="none">
<line x1="197" y1="425" x2="198" y2="425"/>
</g>
<path d="M206,426" fill="none" stroke="#99ff99" stroke-width="2"/>
<path d="M206,426" fill="none" stroke="#99ff99" stroke-width="2"/>
<g stroke="black" stroke-width="2" fill="none">
<line x1="205" y1="426" x2="206" y2="426"/>
</g>
<path d="M214,426" fill="none" stroke="#99ff99" stroke-width="2"/>
<path d="M214,426" fill="none" stroke="#99ff99" stroke-width="2"/>
<g stroke="black" stroke-width="2" fill="none">
<line x1="213" y1="426" x2="214" y2="426"/>
</g>
<path d="M221,426" fill="none" stroke="#99ff99" stroke-width="2"/>
<path d="M221,426" fill="none" stroke="#99ff99" stroke-width="2"/>
<g stroke="black" stroke-width="2" fill="none">
<line x1="220" y1="426" x2="221" y2="426"/>
</g>
<path d="M229,427v -1" fill="none" stroke="#99ff99" stroke-width="2"/>
<path d="M229,426" fill="none" stroke="#99ff99" stroke-width="2"/>
<g stroke="black" stroke-width="2" fill="none">
<line x1="228" y1="426" x2="229" y2="426"/>
</g>
<path d="M236,427" fill="none" stroke="#99ff99" stroke-width="2"/>
<path d="M236,427" fill="none" stroke="#99ff99" stroke-width="2"/>
<g stroke="black" stroke-width="2" fill="none">
<line x1="235" y1="427" x2="236" y2="427"/>
</g>
<path d="M244,427" fill="none" stroke="#99ff99" stroke-width="2"/>
<path d="M244,427" fill="none" stroke="#99ff99" stroke-width="2"/>
<g stroke="black" stroke-width="2" fill="none">
<line x1="243" y1="427" x2="244" y2="427"/>
</g>
<path d="M251,427" fill="none" stroke="#99ff99" stroke-width="2"/>
<path d="M251,427" fill="none" stroke="#99ff99" stroke-width="2"/>
<g stroke="black" stroke-width="2" fill="none">
<line x1="250" y1="427" x2="251" y2="427"/>
</g>
<path d="M259,427" fill="none" stroke="#99ff99" stroke-width="2"/>
<path d="M259,427" fill="none" stroke="#99ff99" stroke-width="2"/>
<g stroke="black" stroke-width="2" fill="none">
<line x1="258" y1="427" x2="259" y2="427"/>
</g>
<path d="M266,427" fill="none" stroke="#99ff99" stroke-width="2"/>
<path d="M266,427" fill="none" stroke="#99ff99" stroke-width="2"/>
<g stroke="black" stroke-width="2" fill="none">
<line x1="265" y1="427" x2="266" y2="427"/>
</g>
<path d="M274,427" fill="none" stroke="#99ff99" stroke-width="2"/>
<path d="M274,427" fill="none" stroke="#99ff99" stroke-width="2"/>
<g stroke="black" stroke-width="2" fill="none">
<line x1="273" y1="427" x2="274" y2="427"/>
</g>
<path d="M282,427" fill="none" stroke="#99ff99" stroke-width="2"/>
<path d="M282,427" fill="none" stroke="#99ff99" stroke-width="2"/>
<g stroke="black" stroke-width="2" fill="none">
<line x1="281" y1="427" x2="282" y2="427"/>
</g>
<path d="M289,427" fill="none" stroke="#99ff99" stroke-width="2"/>
<path d="M289,427" fill="none" stroke="#99ff99" stroke-width="2"/>
<g stroke="black" stroke-width="2" fill="none">
<line x1="288" y1="427" x2="289" y2="427"/>
</g>
<path d="M297,428" fill="none" stroke="#99ff99" stroke-width="2"/>
<path d="M297,428" fill="none" stroke="#99ff99" stroke-width="2"/>
<g stroke="black" stroke-width="2" fill="none">
<line x1="296" y1="428" x2="297" y2="428"/>
</g>
<path d="M304,428" fill="none" stroke="#99ff99" stroke-width="2"/>
<path d="M304,428" fill="none" stroke="#99ff99" stroke-width="2"/>
<g stroke="black" stroke-width="2" fill="none">
<line x1="303" y1="428" x2="304" y2="428"/>
</g>
<path d="M312,428" fill="none" stroke="#99ff99" stroke-width="2"/>
<path d="M312,428v -1" fill="none" stroke="#99ff99" stroke-width="2"/>
<g stroke="black" stroke-width="2" fill="none">
<line x1="311" y1="428" x2="312" y2="428"/>
</g>
<path d="M319,428" fill="none" stroke="#99ff99" stroke-width="2"/>
<path d="M319,428" fill="none" stroke="#99ff99" stroke-width="2"/>
<g stroke="black" stroke-width="2" fill="none">
<line x1="318" y1="428" x2="319" y2="428"/>
</g>
<path d="M327,428" fill="none" stroke="#99ff99" stroke-width="2"/>
<path d="M327,428" fill="none" stroke="#99ff99" stroke-width="2"/>
<g stroke="black" stroke-width="2" fill="none">
<line x1="326" y1="428" x2="327" y2="428"/>
</g>
<path d="M334,428" fill="none" stroke="#99ff99" stroke-width="2"/>
<path d="M334,428" fill="none" stroke="#99ff99" stroke-width="2"/>
<g stroke="black" stroke-width="2" fill="none">
<line x1="333" y1="428" x2="334" y2="428"/>
</g>
<path d="M342,428" fill="none" stroke="#99ff99" stroke-width="2"/>
<path d="M342,428" fill="none" stroke="#99ff99" stroke-width="2"/>
<g stroke="black" stroke-width="2" fill="none">
<line x1="341" y1="428" x2="342" y2="428"/>
</g>
<path d="M350,428" fill="none" stroke="#99ff99" stroke-width="2"/>
<path d="M350,428" fill="none" stroke="#99ff99" stroke-width="2"/>
<g stroke="black" stroke-width="2" fill="none">
<line x1="349" y1="428" x2="350" y2="428"/>
</g>
<path d="M357,428" fill="none" stroke="#99ff99" stroke-width="2"/>
<path d="M357,428" fill="none" stroke="#99ff99" stroke-width="2"/>
<g stroke="black" stroke-width="2" fill="none">
<line x1="356" y1="428" x2="357" y2="428"/>
</g>
<path d="M365,428" fill="none" stroke="#99ff99" stroke-width="2"/>
<path d="M365,428" fill="none" stroke="#99ff99" stroke-width="2"/>
<g stroke="black" stroke-width="2" fill="none">
<line x1="364" y1="428" x2="365" y2="428"/>
</g>
<path d="M372,428" fill="none" stroke="#99ff99" stroke-width="2"/>
<path d="M372,428" fill="none" stroke="#99ff99" stroke-width="2"/>
<g stroke="black" stroke-width="2" fill="none">
<line x1="371" y1="428" x2="372" y2="428"/>
</g>
<path d="M380,428" fill="none" stroke="#99ff99" stroke-width="2"/>
<path d="M380,428" fill="none" stroke="#99ff99" stroke-width="2"/>
<g stroke="black" stroke-width="2" fill="none">
<line x1="379" y1="428" x2="380" y2="428"/>
</g>
<path d="M387,428" fill="none" stroke="#99ff99" stroke-width="2"/>
<path d="M387,428" fill="none" stroke="#99ff99" stroke-width="2"/>
<g stroke="black" stroke-width="2" fill="none">
<line x1="386" y1="428" x2="387" y2="428"/>
</g>
<path d="M395,428" fill="none" stroke="#99ff99" stroke-width="2"/>
<path d="M395,428" fill="none" stroke="#99ff99" stroke-width="2"/>
<g stroke="black" stroke-width="2" fill="none">
<line x1="394" y1="428" x2="395" y2="428"/>
</g>
<path d="M403,428" fill="none" stroke="#99ff99" stroke-width="2"/>
<path d="M403,428" fill="none" stroke="#99ff99" stroke-width="2"/>
<g stroke="black" stroke-width="2" fill="none">
<line x1="402" y1="428" x2="403" y2="428"/>
</g>
<path d="M410,428" fill="none" stroke="#99ff99" stroke-width="2"/>
<path d="M410,428" fill="none" stroke="#99ff99" stroke-width="2"/>
<g stroke="black" stroke-width="2" fill="none">
<line x1="409" y1="428" x2="410" y2="428"/>
</g>
<path d="M418,428" fill="none" stroke="#99ff99" stroke-width="2"/>
<path d="M418,428" fill="none" stroke="#99ff99" stroke-width="2"/>
<g stroke="black" stroke-width="2" fill="none">
<line x1="417" y1="428" x2="418" y2="428"/>
</g>
<path d="M425,428" fill="none" stroke="#99ff99" stroke-width="2"/>
<path d="M425,428" fill="none" stroke="#99ff99" stroke-width="2"/>
<g stroke="black" stroke-width="2" fill="none">
<line x1="424" y1="428" x2="425" y2="428"/>
</g>
<path d="M433,428" fill="none" stroke="#99ff99" stroke-width="2"/>
<path d="M433,428" fill="none" stroke="#99ff99" stroke-width="2"/>
<g stroke="black" stroke-width="2" fill="none">
<line x1="432" y1="428" x2="433" y2="428"/>
</g>
<path d="M440,428" fill="none" stroke="#99ff99" stroke-width="2"/>
<path d="M440,428" fill="none" stroke="#99ff99" stroke-width="2"/>
<g stroke="black" stroke-width="2" fill="none">
<line x1="439" y1="428" x2="440" y2="428"/>
</g>
<path d="M448,428" fill="none" stroke="#99ff99" stroke-width="2"/>
<path d="M448,428" fill="none" stroke="#99ff99" stroke-width="2"/>
<g stroke="black" stroke-width="2" fill="none">
<line x1="447" y1="428" x2="448" y2="428"/>
</g>
<path d="M455,428" fill="none" stroke="#99ff99" stroke-width="2"/>
<path d="M455,428" fill="none" stroke="#99ff99" stroke-width="2"/>
<g stroke="black" stroke-width="2" fill="none">
<line x1="454" y1="428" x2="455" y2="428"/>
</g>
<path d="M463,428" fill="none" stroke="#99ff99" stroke-width="2"/>
<path d="M463,428" fill="none" stroke="#99ff99" stroke-width="2"/>
<g stroke="black" stroke-width="2" fill="none">
<line x1="462" y1="428" x2="463" y2="428"/>
</g>
<path d="M471,428" fill="none" stroke="#99ff99" stroke-width="2"/>
<path d="M471,428" fill="none" stroke="#99ff99" stroke-width="2"/>
<g stroke="black" stroke-width="2" fill="none">
<line x1="470" y1="428" x2="471" y2="428"/>
</g>
<path d="M478,428" fill="none" stroke="#99ff99" stroke-width="2"/>
<path d="M478,428" fill="none" stroke="#99ff99" stroke-width="2"/>
<g stroke="black" stroke-width="2" fill="none">
<line x1="477" y1="428" x2="478" y2="428"/>
</g>
<path d="M486,428" fill="none" stroke="#99ff99" stroke-width="2"/>
<path d="M486,428" fill="none" stroke="#99ff99" stroke-width="2"/>
<g stroke="black" stroke-width="2" fill="none">
<line x1="485" y1="428" x2="486" y2="428"/>
</g>
<path d="M493,428" fill="none" stroke="#99ff99" stroke-width="2"/>
<path d="M493,428" fill="none" stroke="#99ff99" stroke-width="2"/>
<g stroke="black" stroke-width="2" fill="none">
<line x1="492" y1="428" x2="493" y2="428"/>
</g>
<path d="M501,428" fill="none" stroke="#99ff99" stroke-width="2"/>
<path d="M501,428" fill="none" stroke="#99ff99" stroke-width="2"/>
<g stroke="black" stroke-width="2" fill="none">
<line x1="500" y1="428" x2="501" y2="428"/>
</g>
<path d="M508,428" fill="none" stroke="#99ff99" stroke-width="2"/>
<path d="M508,428" fill="none" stroke="#99ff99" stroke-width="2"/>
<g stroke="black" stroke-width="2" fill="none">
<line x1="507" y1="428" x2="508" y2="428"/>
</g>
<path d="M516,428" fill="none" stroke="#99ff99" stroke-width="2"/>
<path d="M516,428" fill="none" stroke="#99ff99" stroke-width="2"/>
<g stroke="black" stroke-width="2" fill="none">
<line x1="515" y1="428" x2="516" y2="428"/>
</g>
<path d="M523,428" fill="none" stroke="#99ff99" stroke-width="2"/>
<path d="M523,428" fill="none" stroke="#99ff99" stroke-width="2"/>
<g stroke="black" stroke-width="2" fill="none">
<line x1="522" y1="428" x2="523" y2="428"/>
</g>
<path d="M74,428v -356h 7v 355h 8v -9h 7v -3h 8v -1h 7v 1h 8v 3h 8v 1h 7v 1h 8v 2h 15v 1h 7v 1h 16v 1h 22v 1h 30v 1h 61v 1h 234z" fill="#99ff99"/>
<path d="M74,72h 7v 355h 8v -9h 7v -3h 8v -1h 7v 1h 8v 3h 8v 1h 7v 1h 8v 2h 15v 1h 7v 1h 16v 1h 22v 1h 30v 1h 61v 1h 234" fill="none" stroke="#99ff99" stroke-width="2"/>
<path d="M77,73v -4" fill="none" stroke="#ff0099"/>
<path d="M77,67v -4" fill="none" stroke="#ff0099"/>
<path d="M74,68h 2" fill="none" stroke="#ff0099"/>
<path d="M79,68h 2" fill="none" stroke="#ff0099"/>
<g stroke="#ff0099" stroke-width="1" fill="#ff0099">
<circle cx=" 77" cy=" 68" r=" 1.5"/>
</g>
<path d="M81,427h 3" fill="none" stroke="#ff0099"/>
<path d="M86,427h 3" fill="none" stroke="#ff0099"/>
<g stroke="#ff0099" stroke-width="1" fill="#ff0099">
<circle cx=" 85" cy=" 427" r=" 1.5"/>
</g>
<path d="M89,418h 2" fill="none" stroke="#ff0099"/>
<path d="M94,418h 2" fill="none" stroke="#ff0099"/>
<g stroke="#ff0099" stroke-width="1" fill="#ff0099">
<circle cx=" 93" cy=" 418" r=" 1.5"/>
</g>
<path d="M96,414h 3" fill="none" stroke="#ff0099"/>
<path d="M101,414h 3" fill="none" stroke="#ff0099"/>
<g stroke="#ff0099" stroke-width="1" fill="#ff0099">
<circle cx=" 100" cy=" 414" r=" 1.5"/>
</g>
<path d="M104,413h 3" fill="none" stroke="#ff0099"/>
<path d="M109,413h 2" fill="none" stroke="#ff0099"/>
<g stroke="#ff0099" stroke-width="1" fill="#ff0099">
<circle cx=" 108" cy=" 413" r=" 1.5"/>
</g>
<path d="M111,415h 3" fill="none" stroke="#ff0099"/>
<path d="M116,415h 3" fill="none" stroke="#ff0099"/>
<g stroke="#ff0099" stroke-width="1" fill="#ff0099">
<circle cx=" 115" cy=" 415" r=" 1.5"/>
</g>
<path d="M119,417h 3" fill="none" stroke="#ff0099"/>
<path d="M124,417h 3" fill="none" stroke="#ff0099"/>
<g stroke="#ff0099" stroke-width="1" fill="#ff0099">
<circle cx=" 123" cy=" 417" r=" 1.5"/>
</g>
<path d="M127,419h 2" fill="none" stroke="#ff0099"/>
<path d="M132,419h 2" fill="none" stroke="#ff0099"/>
<g stroke="#ff0099" stroke-width="1" fill="#ff0099">
<circle cx=" 130" cy=" 419" r=" 1.5"/>
</g>
<path d="M134,420h 3" fill="none" stroke="#ff0099"/>
<path d="M139,420h 3" fill="none" stroke="#ff0099"/>
<g stroke="#ff0099" stroke-width="1" fill="#ff0099">
<circle cx=" 138" cy=" 420" r=" 1.5"/>
</g>
<path d="M142,422h 2" fill="none" stroke="#ff0099"/>
<path d="M147,422h 2" fill="none" stroke="#ff0099"/>
<g stroke="#ff0099" stroke-width="1" fill="#ff0099">
<circle cx=" 146" cy=" 422" r=" 1.5"/>
</g>
<path d="M149,422h 3" fill="none" stroke="#ff0099"/>
<path d="M154,422h 3" fill="none" stroke="#ff0099"/>
<g stroke="#ff0099" stroke-width="1" fill="#ff0099">
<circle cx=" 153" cy=" 422" r=" 1.5"/>
</g>
<path d="M157,423h 2" fill="none" stroke="#ff0099"/>
<path d="M162,423h 2" fill="none" stroke="#ff0099"/>
<g stroke="#ff0099" stroke-width="1" fill="#ff0099">
<circle cx=" 161" cy=" 423" r=" 1.5"/>
</g>
<path d="M164,424h 3" fill="none" stroke="#ff0099"/>
<path d="M169,424h 3" fill="none" stroke="#ff0099"/>
<g stroke="#ff0099" stroke-width="1" fill="#ff0099">
<circle cx=" 168" cy=" 424" r=" 1.5"/>
</g>
<path d="M172,425h 3" fill="none" stroke="#ff0099"/>
<path d="M177,425h 3" fill="none" stroke="#ff0099"/>
<g stroke="#ff0099" stroke-width="1" fill="#ff0099">
<circle cx=" 176" cy=" 425" r=" 1.5"/>
</g>
<path d="M180,426h 2" fill="none" stroke="#ff0099"/>
<path d="M184,426h 3" fill="none" stroke="#ff0099"/>
<g stroke="#ff0099" stroke-width="1" fill="#ff0099">
<circle cx=" 183" cy=" 426" r=" 1.5"/>
</g>
<path d="M187,425h 3" fill="none" stroke="#ff0099"/>
<path d="M192,425h 3" fill="none" stroke="#ff0099"/>
<g stroke="#ff0099" stroke-width="1" fill="#ff0099">
<circle cx=" 191" cy=" 425" r=" 1.5"/>
</g>
<path d="M195,426h 2" fill="none" stroke="#ff0099"/>
<path d="M200,426h 2" fill="none" stroke="#ff0099"/>
<g stroke="#ff0099" stroke-width="1" fill="#ff0099">
<circle cx=" 198" cy=" 426" r=" 1.5"/>
</g>
<path d="M202,426h 3" fill="none" stroke="#ff0099"/>
<path d="M207,426h 3" fill="none" stroke="#ff0099"/>
<g stroke="#ff0099" stroke-width="1" fill="#ff0099">
<circle cx=" 206" cy=" 426" r=" 1.5"/>
</g>
<path d="M210,426h 2" fill="none" stroke="#ff0099"/>
<path d="M215,426h 2" fill="none" stroke="#ff0099"/>
<g stroke="#ff0099" stroke-width="1" fill="#ff0099">
<circle cx=" 214" cy=" 426" r=" 1.5"/>
</g>
<path d="M217,427h 3" fill="none" stroke="#ff0099"/>
<path d="M222,427h 3" fill="none" stroke="#ff0099"/>
<g stroke="#ff0099" stroke-width="1" fill="#ff0099">
<circle cx=" 221" cy=" 427" r=" 1.5"/>
</g>
<path d="M225,426h 3" fill="none" stroke="#ff0099"/>
<path d="M230,426h 2" fill="none" stroke="#ff0099"/>
<g stroke="#ff0099" stroke-width="1" fill="#ff0099">
<circle cx=" 229" cy=" 426" r=" 1.5"/>
</g>
<path d="M232,427h 3" fill="none" stroke="#ff0099"/>
<path d="M237,427h 3" fill="none" stroke="#ff0099"/>
<g stroke="#ff0099" stroke-width="1" fill="#ff0099">
<circle cx=" 236" cy=" 427" r=" 1.5"/>
</g>
<path d="M240,427h 3" fill="none" stroke="#ff0099"/>
<path d="M245,427h 3" fill="none" stroke="#ff0099"/>
<g stroke="#ff0099" stroke-width="1" fill="#ff0099">
<circle cx=" 244" cy=" 427" r=" 1.5"/>
</g>
<path d="M248,427h 2" fill="none" stroke="#ff0099"/>
<path d="M252,427h 3" fill="none" stroke="#ff0099"/>
<g stroke="#ff0099" stroke-width="1" fill="#ff0099">
<circle cx=" 251" cy=" 427" r=" 1.5"/>
</g>
<path d="M255,427h 3" fill="none" stroke="#ff0099"/>
<path d="M260,427h 3" fill="none" stroke="#ff0099"/>
<g stroke="#ff0099" stroke-width="1" fill="#ff0099">
<circle cx=" 259" cy=" 427" r=" 1.5"/>
</g>
<path d="M263,427h 2" fill="none" stroke="#ff0099"/>
<path d="M268,427h 2" fill="none" stroke="#ff0099"/>
<g stroke="#ff0099" stroke-width="1" fill="#ff0099">
<circle cx=" 266" cy=" 427" r=" 1.5"/>
</g>
<path d="M270,427h 3" fill="none" stroke="#ff0099"/>
<path d="M275,427h 3" fill="none" stroke="#ff0099"/>
<g stroke="#ff0099" stroke-width="1" fill="#ff0099">
<circle cx=" 274" cy=" 427" r=" 1.5"/>
</g>
<path d="M278,427h 2" fill="none" stroke="#ff0099"/>
<path d="M283,427h 2" fill="none" stroke="#ff0099"/>
<g stroke="#ff0099" stroke-width="1" fill="#ff0099">
<circle cx=" 282" cy=" 427" r=" 1.5"/>
</g>
<path d="M285,428h 3" fill="none" stroke="#ff0099"/>
<path d="M290,428h 3" fill="none" stroke="#ff0099"/>
<g stroke="#ff0099" stroke-width="1" fill="#ff0099">
<circle cx=" 289" cy=" 428" r=" 1.5"/>
</g>
<path d="M293,428h 3" fill="none" stroke="#ff0099"/>
<path d="M298,428h 2" fill="none" stroke="#ff0099"/>
<g stroke="#ff0099" stroke-width="1" fill="#ff0099">
<circle cx=" 297" cy=" 428" r=" 1.5"/>
</g>
<path d="M300,427h 3" fill="none" stroke="#ff0099"/>
<path d="M305,427h 3" fill="none" stroke="#ff0099"/>
<g stroke="#ff0099" stroke-width="1" fill="#ff0099">
<circle cx=" 304" cy=" 427" r=" 1.5"/>
</g>
<path d="M308,428h 3" fill="none" stroke="#ff0099"/>
<path d="M313,428h 3" fill="none" stroke="#ff0099"/>
<g stroke="#ff0099" stroke-width="1" fill="#ff0099">
<circle cx=" 312" cy=" 428" r=" 1.5"/>
</g>
<path d="M316,428h 2" fill="none" stroke="#ff0099"/>
<path d="M321,428h 2" fill="none" stroke="#ff0099"/>
<g stroke="#ff0099" stroke-width="1" fill="#ff0099">
<circle cx=" 319" cy=" 428" r=" 1.5"/>
</g>
<path d="M323,428h 3" fill="none" stroke="#ff0099"/>
<path d="M328,428h 3" fill="none" stroke="#ff0099"/>
<g stroke="#ff0099" stroke-width="1" fill="#ff0099">
<circle cx=" 327" cy=" 428" r=" 1.5"/>
</g>
<path d="M331,428h 2" fill="none" stroke="#ff0099"/>
<path d="M336,428h 2" fill="none" stroke="#ff0099"/>
<g stroke="#ff0099" stroke-width="1" fill="#ff0099">
<circle cx=" 334" cy=" 428" r=" 1.5"/>
</g>
<path d="M338,428h 3" fill="none" stroke="#ff0099"/>
<path d="M343,428h 3" fill="none" stroke="#ff0099"/>
<g stroke="#ff0099" stroke-width="1" fill="#ff0099">
<circle cx=" 342" cy=" 428" r=" 1.5"/>
</g>
<path d="M346,428h 2" fill="none" stroke="#ff0099"/>
<path d="M351,428h 2" fill="none" stroke="#ff0099"/>
<g stroke="#ff0099" stroke-width="1" fill="#ff0099">
<circle cx=" 350" cy=" 428" r=" 1.5"/>
</g>
<path d="M353,428h 3" fill="none" stroke="#ff0099"/>
<path d="M358,428h 3" fill="none" stroke="#ff0099"/>
<g stroke="#ff0099" stroke-width="1" fill="#ff0099">
<circle cx=" 357" cy=" 428" r=" 1.5"/>
</g>
<path d="M361,428h 3" fill="none" stroke="#ff0099"/>
<path d="M366,428h 3" fill="none" stroke="#ff0099"/>
<g stroke="#ff0099" stroke-width="1" fill="#ff0099">
<circle cx=" 365" cy=" 428" r=" 1.5"/>
</g>
<path d="M369,428h 2" fill="none" stroke="#ff0099"/>
<path d="M373,428h 3" fill="none" stroke="#ff0099"/>
<g stroke="#ff0099" stroke-width="1" fill="#ff0099">
<circle cx=" 372" cy=" 428" r=" 1.5"/>
</g>
<path d="M376,428h 3" fill="none" stroke="#ff0099"/>
<path d="M381,428h 3" fill="none" stroke="#ff0099"/>
<g stroke="#ff0099" stroke-width="1" fill="#ff0099">
<circle cx=" 380" cy=" 428" r=" 1.5"/>
</g>
<path d="M384,428h 2" fill="none" stroke="#ff0099"/>
<path d="M389,428h 2" fill="none" stroke="#ff0099"/>
<g stroke="#ff0099" stroke-width="1" fill="#ff0099">
<circle cx=" 387" cy=" 428" r=" 1.5"/>
</g>
<path d="M391,428h 3" fill="none" stroke="#ff0099"/>
<path d="M396,428h 3" fill="none" stroke="#ff0099"/>
<g stroke="#ff0099" stroke-width="1" fill="#ff0099">
<circle cx=" 395" cy=" 428" r=" 1.5"/>
</g>
<path d="M399,428h 2" fill="none" stroke="#ff0099"/>
<path d="M404,428h 2" fill="none" stroke="#ff0099"/>
<g stroke="#ff0099" stroke-width="1" fill="#ff0099">
<circle cx=" 403" cy=" 428" r=" 1.5"/>
</g>
<path d="M406,428h 3" fill="none" stroke="#ff0099"/>
<path d="M411,428h 3" fill="none" stroke="#ff0099"/>
<g stroke="#ff0099" stroke-width="1" fill="#ff0099">
<circle cx=" 410" cy=" 428" r=" 1.5"/>
</g>
<path d="M414,428h 2" fill="none" stroke="#ff0099"/>
<path d="M419,428h 2" fill="none" stroke="#ff0099"/>
<g stroke="#ff0099" stroke-width="1" fill="#ff0099">
<circle cx=" 418" cy=" 428" r=" 1.5"/>
</g>
<path d="M421,428h 3" fill="none" stroke="#ff0099"/>
<path d="M426,428h 3" fill="none" stroke="#ff0099"/>
<g stroke="#ff0099" stroke-width="1" fill="#ff0099">
<circle cx=" 425" cy=" 428" r=" 1.5"/>
</g>
<path d="M429,428h 3" fill="none" stroke="#ff0099"/>
<path d="M434,428h 3" fill="none" stroke="#ff0099"/>
<g stroke="#ff0099" stroke-width="1" fill="#ff0099">
<circle cx=" 433" cy=" 428" r=" 1.5"/>
</g>
<path d="M437,428h 2" fill="none" stroke="#ff0099"/>
<path d="M441,428h 3" fill="none" stroke="#ff0099"/>
<g stroke="#ff0099" stroke-width="1" fill="#ff0099">
<circle cx=" 440" cy=" 428" r=" 1.5"/>
</g>
<path d="M444,428h 3" fill="none" stroke="#ff0099"/>
<path d="M449,428h 3" fill="none" stroke="#ff0099"/>
<g stroke="#ff0099" stroke-width="1" fill="#ff0099">
<circle cx=" 448" cy=" 428" r=" 1.5"/>
</g>
<path d="M452,428h 2" fill="none" stroke="#ff0099"/>
<path d="M457,428h 2" fill="none" stroke="#ff0099"/>
<g stroke="#ff0099" stroke-width="1" fill="#ff0099">
<circle cx=" 455" cy=" 428" r=" 1.5"/>
</g>
<path d="M459,428h 3" fill="none" stroke="#ff0099"/>
<path d="M464,428h 3" fill="none" stroke="#ff0099"/>
<g stroke="#ff0099" stroke-width="1" fill="#ff0099">
<circle cx=" 463" cy=" 428" r=" 1.5"/>
</g>
<path d="M474,428h 3" fill="none" stroke="#ff0099"/>
<path d="M479,428h 3" fill="none" stroke="#ff0099"/>
<g stroke="#ff0099" stroke-width="1" fill="#ff0099">
<circle cx=" 478" cy=" 428" r=" 1.5"/>
</g>
<path d="M482,428h 3" fill="none" stroke="#ff0099"/>
<path d="M487,428h 2" fill="none" stroke="#ff0099"/>
<g stroke="#ff0099" stroke-width="1" fill="#ff0099">
<circle cx=" 486" cy=" 428" r=" 1.5"/>
</g>
<path d="M497,428h 3" fill="none" stroke="#ff0099"/>
<path d="M502,428h 3" fill="none" stroke="#ff0099"/>
<g stroke="#ff0099" stroke-width="1" fill="#ff0099">
<circle cx=" 501" cy=" 428" r=" 1.5"/>
</g>
<path d="M505,428h 2" fill="none" stroke="#ff0099"/>
<path d="M509,428h 3" fill="none" stroke="#ff0099"/>
<g stroke="#ff0099" stroke-width="1" fill="#ff0099">
<circle cx=" 508" cy=" 428" r=" 1.5"/>
</g>
<rect x="357" y="59" width="142" height="99" fill="white"/>
<text x="360" y="82" fill="black" font-size="17" font-family="Helvetica" font-weight="bold">
All
</text>
<text x="457" y="115" fill="black" font-size="17" font-family="Helvetica" font-weight="bold">
 ee
</text>
<text x="440" y="115" fill="black" font-size="17" font-family="Times">
&#8594;
</text>
<text x="392" y="115" fill="black" font-size="17" font-family="Helvetica" font-weight="bold">
MC Z 
</text>
<path d="M362,109h 25" fill="none" stroke="#ff0099"/>
<g stroke="#ff0099" stroke-width="1" fill="#ff0099">
<circle cx=" 375" cy=" 109" r=" 1.5"/>
</g>
<text x="455" y="147" fill="black" font-size="17" font-family="Helvetica" font-weight="bold">
 + jet
</text>
<text x="447" y="147" fill="black" font-size="17" font-family="Times">
&#0947;
</text>
<text x="392" y="147" fill="black" font-size="17" font-family="Helvetica" font-weight="bold">
signal 
</text>
<path d="M362,154h 25v -24h -25z" fill="#99ff99"/>
<path d="M362,130h 25" fill="none" stroke="#99ff99" stroke-width="2"/>
<path d="M362,154h 25" fill="none" stroke="#99ff99" stroke-width="2"/>
<path d="M387,154v -24" fill="none" stroke="#99ff99" stroke-width="2"/>
<path d="M362,154v -24" fill="none" stroke="#99ff99" stroke-width="2"/>
<text x="300" y="34" fill="black" font-size="17" font-family="Helvetica" font-weight="bold">
=8 TeV
</text>
<text x="291" y="34" fill="black" font-size="17" font-family="Helvetica" font-weight="bold">
s
</text>
<path d="M285,25l 2, 10" fill="none" stroke="black" stroke-width="2"/>
<path d="M287,35l 2, -14" fill="none" stroke="black"/>
<path d="M289,21h 11" fill="none" stroke="black"/>
<text x="142" y="34" fill="black" font-size="17" font-family="Helvetica" font-weight="bold">
CMS Preliminary 
</text></svg>
