<?xml version="1.0" standalone="no"?>
<svg width="567" height="496" viewBox="0 0 567 496" xmlns="http://www.w3.org/2000/svg">
<title>
../src/TagAndProbeZ/plots_mcZee_mcGJet_withEtaR9rhoReweight/hlt90//ptPhotEB_log.svg
</title>
<desc>
Creator: ROOT Version 5.32/00
CreationDate: Wed Dec  3 10:37:47 2014</desc>
<defs>
</defs>
<rect x="0" y="0" width="567" height="496" fill="white"/>
<rect x="0" y="0" width="567" height="347" fill="white"/>
<rect x="57" y="34" width="453" height="278" fill="white"/>
<rect x="57" y="34" width="453" height="278" fill="none" stroke="black"/>
<rect x="57" y="34" width="453" height="278" fill="white"/>
<rect x="57" y="34" width="453" height="278" fill="none" stroke="black"/>
<path d="M87,62h 3" fill="none" stroke="#ff0099"/>
<path d="M92,62h 2" fill="none" stroke="#ff0099"/>
<g stroke="#ff0099" stroke-width="1" fill="#ff0099">
<circle cx=" 91" cy=" 62" r=" 1.5"/>
</g>
<path d="M94,86h 3" fill="none" stroke="#ff0099"/>
<path d="M99,86h 3" fill="none" stroke="#ff0099"/>
<g stroke="#ff0099" stroke-width="1" fill="#ff0099">
<circle cx=" 98" cy=" 86" r=" 1.5"/>
</g>
<path d="M102,114h 3" fill="none" stroke="#ff0099"/>
<path d="M107,114h 3" fill="none" stroke="#ff0099"/>
<g stroke="#ff0099" stroke-width="1" fill="#ff0099">
<circle cx=" 106" cy=" 114" r=" 1.5"/>
</g>
<path d="M57,312h 453" fill="none" stroke="black"/>
<text x="472" y="336" fill="black" font-size="13" font-family="Helvetica" font-weight="bold">
 (GeV)
</text>
<text x="467" y="343" fill="black" font-size="9" font-family="Helvetica" font-weight="bold">
T
</text>
<text x="455" y="336" fill="black" font-size="13" font-family="Helvetica" font-weight="bold">
 p
</text>
<text x="449" y="336" fill="black" font-size="13" font-family="Times">
&#0947;
</text>
<path d="M57,304v 8" fill="none" stroke="black"/>
<path d="M72,308v 4" fill="none" stroke="black"/>
<path d="M87,308v 4" fill="none" stroke="black"/>
<path d="M102,308v 4" fill="none" stroke="black"/>
<path d="M117,308v 4" fill="none" stroke="black"/>
<path d="M132,304v 8" fill="none" stroke="black"/>
<path d="M147,308v 4" fill="none" stroke="black"/>
<path d="M163,308v 4" fill="none" stroke="black"/>
<path d="M178,308v 4" fill="none" stroke="black"/>
<path d="M193,308v 4" fill="none" stroke="black"/>
<path d="M208,304v 8" fill="none" stroke="black"/>
<path d="M223,308v 4" fill="none" stroke="black"/>
<path d="M238,308v 4" fill="none" stroke="black"/>
<path d="M253,308v 4" fill="none" stroke="black"/>
<path d="M268,308v 4" fill="none" stroke="black"/>
<path d="M283,304v 8" fill="none" stroke="black"/>
<path d="M299,308v 4" fill="none" stroke="black"/>
<path d="M314,308v 4" fill="none" stroke="black"/>
<path d="M329,308v 4" fill="none" stroke="black"/>
<path d="M344,308v 4" fill="none" stroke="black"/>
<path d="M359,304v 8" fill="none" stroke="black"/>
<path d="M374,308v 4" fill="none" stroke="black"/>
<path d="M389,308v 4" fill="none" stroke="black"/>
<path d="M404,308v 4" fill="none" stroke="black"/>
<path d="M420,308v 4" fill="none" stroke="black"/>
<path d="M435,304v 8" fill="none" stroke="black"/>
<path d="M450,308v 4" fill="none" stroke="black"/>
<path d="M465,308v 4" fill="none" stroke="black"/>
<path d="M480,308v 4" fill="none" stroke="black"/>
<path d="M495,308v 4" fill="none" stroke="black"/>
<path d="M510,304v 8" fill="none" stroke="black"/>
<text x="53" y="325" fill="black" font-size="13" font-family="Helvetica" font-weight="bold">
0
</text>
<text x="121" y="325" fill="black" font-size="13" font-family="Helvetica" font-weight="bold">
100
</text>
<text x="197" y="325" fill="black" font-size="13" font-family="Helvetica" font-weight="bold">
200
</text>
<text x="273" y="325" fill="black" font-size="13" font-family="Helvetica" font-weight="bold">
300
</text>
<text x="348" y="325" fill="black" font-size="13" font-family="Helvetica" font-weight="bold">
400
</text>
<text x="423" y="325" fill="black" font-size="13" font-family="Helvetica" font-weight="bold">
500
</text>
<text x="499" y="325" fill="black" font-size="13" font-family="Helvetica" font-weight="bold">
600
</text>
<path d="M57,312v -278" fill="none" stroke="black"/>
<g transform="rotate(-90,28,108)">
<text x="28" y="108" fill="black" font-size="13" font-family="Helvetica" font-weight="bold">
Entries/10.0
</text>
</g>
<path d="M63,304h -6" fill="none" stroke="black"/>
<path d="M63,298h -6" fill="none" stroke="black"/>
<path d="M63,293h -6" fill="none" stroke="black"/>
<path d="M63,290h -6" fill="none" stroke="black"/>
<path d="M63,287h -6" fill="none" stroke="black"/>
<path d="M63,284h -6" fill="none" stroke="black"/>
<path d="M63,282h -6" fill="none" stroke="black"/>
<path d="M63,280h -6" fill="none" stroke="black"/>
<path d="M70,279h -13" fill="none" stroke="black"/>
<text x="44" y="278" fill="black" font-size="9" font-family="Helvetica" font-weight="bold">
-6
</text>
<text x="30" y="285" fill="black" font-size="13" font-family="Helvetica" font-weight="bold">
10
</text>
<path d="M63,268h -6" fill="none" stroke="black"/>
<path d="M63,261h -6" fill="none" stroke="black"/>
<path d="M63,257h -6" fill="none" stroke="black"/>
<path d="M63,253h -6" fill="none" stroke="black"/>
<path d="M63,250h -6" fill="none" stroke="black"/>
<path d="M63,248h -6" fill="none" stroke="black"/>
<path d="M63,245h -6" fill="none" stroke="black"/>
<path d="M63,244h -6" fill="none" stroke="black"/>
<path d="M70,242h -13" fill="none" stroke="black"/>
<text x="44" y="241" fill="black" font-size="9" font-family="Helvetica" font-weight="bold">
-5
</text>
<text x="30" y="248" fill="black" font-size="13" font-family="Helvetica" font-weight="bold">
10
</text>
<path d="M63,231h -6" fill="none" stroke="black"/>
<path d="M63,224h -6" fill="none" stroke="black"/>
<path d="M63,220h -6" fill="none" stroke="black"/>
<path d="M63,216h -6" fill="none" stroke="black"/>
<path d="M63,213h -6" fill="none" stroke="black"/>
<path d="M63,211h -6" fill="none" stroke="black"/>
<path d="M63,209h -6" fill="none" stroke="black"/>
<path d="M63,207h -6" fill="none" stroke="black"/>
<path d="M70,205h -13" fill="none" stroke="black"/>
<text x="44" y="205" fill="black" font-size="9" font-family="Helvetica" font-weight="bold">
-4
</text>
<text x="30" y="211" fill="black" font-size="13" font-family="Helvetica" font-weight="bold">
10
</text>
<path d="M63,194h -6" fill="none" stroke="black"/>
<path d="M63,188h -6" fill="none" stroke="black"/>
<path d="M63,183h -6" fill="none" stroke="black"/>
<path d="M63,180h -6" fill="none" stroke="black"/>
<path d="M63,177h -6" fill="none" stroke="black"/>
<path d="M63,174h -6" fill="none" stroke="black"/>
<path d="M63,172h -6" fill="none" stroke="black"/>
<path d="M63,170h -6" fill="none" stroke="black"/>
<path d="M70,168h -13" fill="none" stroke="black"/>
<text x="44" y="168" fill="black" font-size="9" font-family="Helvetica" font-weight="bold">
-3
</text>
<text x="30" y="174" fill="black" font-size="13" font-family="Helvetica" font-weight="bold">
10
</text>
<path d="M63,157h -6" fill="none" stroke="black"/>
<path d="M63,151h -6" fill="none" stroke="black"/>
<path d="M63,146h -6" fill="none" stroke="black"/>
<path d="M63,143h -6" fill="none" stroke="black"/>
<path d="M63,140h -6" fill="none" stroke="black"/>
<path d="M63,137h -6" fill="none" stroke="black"/>
<path d="M63,135h -6" fill="none" stroke="black"/>
<path d="M63,133h -6" fill="none" stroke="black"/>
<path d="M70,132h -13" fill="none" stroke="black"/>
<text x="44" y="132" fill="black" font-size="9" font-family="Helvetica" font-weight="bold">
-2
</text>
<text x="30" y="138" fill="black" font-size="13" font-family="Helvetica" font-weight="bold">
10
</text>
<path d="M63,121h -6" fill="none" stroke="black"/>
<path d="M63,114h -6" fill="none" stroke="black"/>
<path d="M63,110h -6" fill="none" stroke="black"/>
<path d="M63,106h -6" fill="none" stroke="black"/>
<path d="M63,103h -6" fill="none" stroke="black"/>
<path d="M63,101h -6" fill="none" stroke="black"/>
<path d="M63,99h -6" fill="none" stroke="black"/>
<path d="M63,97h -6" fill="none" stroke="black"/>
<path d="M70,95h -13" fill="none" stroke="black"/>
<text x="46" y="95" fill="black" font-size="9" font-family="Helvetica" font-weight="bold">
-1
</text>
<text x="31" y="101" fill="black" font-size="13" font-family="Helvetica" font-weight="bold">
10
</text>
<path d="M63,84h -6" fill="none" stroke="black"/>
<path d="M63,78h -6" fill="none" stroke="black"/>
<path d="M63,73h -6" fill="none" stroke="black"/>
<path d="M63,69h -6" fill="none" stroke="black"/>
<path d="M63,66h -6" fill="none" stroke="black"/>
<path d="M63,64h -6" fill="none" stroke="black"/>
<path d="M63,62h -6" fill="none" stroke="black"/>
<path d="M63,60h -6" fill="none" stroke="black"/>
<path d="M70,58h -13" fill="none" stroke="black"/>
<text x="52" y="64" text-anchor="end" fill="black" font-size="13" font-family="Helvetica" font-weight="bold">
1
</text>
<path d="M63,47h -6" fill="none" stroke="black"/>
<path d="M63,41h -6" fill="none" stroke="black"/>
<path d="M63,36h -6" fill="none" stroke="black"/>
<path d="M136,85v -1" fill="none" stroke="#99ff99" stroke-width="2"/>
<path d="M136,84" fill="none" stroke="#99ff99" stroke-width="2"/>
<g stroke="black" stroke-width="2" fill="none">
<line x1="135" y1="84" x2="136" y2="84"/>
</g>
<path d="M144,78" fill="none" stroke="#99ff99" stroke-width="2"/>
<path d="M144,78" fill="none" stroke="#99ff99" stroke-width="2"/>
<g stroke="black" stroke-width="2" fill="none">
<line x1="143" y1="78" x2="144" y2="78"/>
</g>
<path d="M151,85" fill="none" stroke="#99ff99" stroke-width="2"/>
<path d="M151,85v -1" fill="none" stroke="#99ff99" stroke-width="2"/>
<g stroke="black" stroke-width="2" fill="none">
<line x1="150" y1="85" x2="151" y2="85"/>
</g>
<path d="M159,90" fill="none" stroke="#99ff99" stroke-width="2"/>
<path d="M159,90" fill="none" stroke="#99ff99" stroke-width="2"/>
<g stroke="black" stroke-width="2" fill="none">
<line x1="158" y1="90" x2="159" y2="90"/>
</g>
<path d="M166,96" fill="none" stroke="#99ff99" stroke-width="2"/>
<path d="M166,96" fill="none" stroke="#99ff99" stroke-width="2"/>
<g stroke="black" stroke-width="2" fill="none">
<line x1="165" y1="96" x2="166" y2="96"/>
</g>
<path d="M174,101" fill="none" stroke="#99ff99" stroke-width="2"/>
<path d="M174,101" fill="none" stroke="#99ff99" stroke-width="2"/>
<g stroke="black" stroke-width="2" fill="none">
<line x1="173" y1="101" x2="174" y2="101"/>
</g>
<path d="M181,116" fill="none" stroke="#99ff99" stroke-width="2"/>
<path d="M181,116v -1" fill="none" stroke="#99ff99" stroke-width="2"/>
<g stroke="black" stroke-width="2" fill="none">
<line x1="180" y1="116" x2="181" y2="116"/>
</g>
<path d="M57,312h 75v -228h 8v -6h 7v 7h 8v 5h 8v 6h 7v 5h 8v 15h 7v 196h 325z" fill="#99ff99"/>
<path d="M57,312h 75v -228h 8v -6h 7v 7h 8v 5h 8v 6h 7v 5h 8v 15h 7v 196h 325" fill="none" stroke="#99ff99" stroke-width="2"/>
<path d="M87,62h 3" fill="none" stroke="#ff0099"/>
<path d="M92,62h 2" fill="none" stroke="#ff0099"/>
<g stroke="#ff0099" stroke-width="1" fill="#ff0099">
<circle cx=" 91" cy=" 62" r=" 1.5"/>
</g>
<path d="M94,86h 3" fill="none" stroke="#ff0099"/>
<path d="M99,86h 3" fill="none" stroke="#ff0099"/>
<g stroke="#ff0099" stroke-width="1" fill="#ff0099">
<circle cx=" 98" cy=" 86" r=" 1.5"/>
</g>
<path d="M102,114h 3" fill="none" stroke="#ff0099"/>
<path d="M107,114h 3" fill="none" stroke="#ff0099"/>
<g stroke="#ff0099" stroke-width="1" fill="#ff0099">
<circle cx=" 106" cy=" 114" r=" 1.5"/>
</g>
<rect x="357" y="41" width="142" height="70" fill="white"/>
<text x="360" y="58" fill="black" font-size="12" font-family="Helvetica" font-weight="bold">
EB
</text>
<text x="439" y="81" fill="black" font-size="12" font-family="Helvetica" font-weight="bold">
 ee
</text>
<text x="426" y="81" fill="black" font-size="12" font-family="Times">
&#8594;
</text>
<text x="392" y="81" fill="black" font-size="12" font-family="Helvetica" font-weight="bold">
MC Z 
</text>
<path d="M362,76h 25" fill="none" stroke="#ff0099"/>
<g stroke="#ff0099" stroke-width="1" fill="#ff0099">
<circle cx=" 375" cy=" 76" r=" 1.5"/>
</g>
<text x="438" y="102" fill="black" font-size="12" font-family="Helvetica" font-weight="bold">
 + jet
</text>
<text x="431" y="102" fill="black" font-size="12" font-family="Times">
&#0947;
</text>
<text x="392" y="102" fill="black" font-size="12" font-family="Helvetica" font-weight="bold">
signal 
</text>
<path d="M362,107h 25v -16h -25z" fill="#99ff99"/>
<path d="M362,91h 25" fill="none" stroke="#99ff99" stroke-width="2"/>
<path d="M362,107h 25" fill="none" stroke="#99ff99" stroke-width="2"/>
<path d="M387,107v -16" fill="none" stroke="#99ff99" stroke-width="2"/>
<path d="M362,107v -16" fill="none" stroke="#99ff99" stroke-width="2"/>
<text x="252" y="24" fill="black" font-size="12" font-family="Helvetica" font-weight="bold">
=8 TeV
</text>
<text x="246" y="24" fill="black" font-size="12" font-family="Helvetica" font-weight="bold">
s
</text>
<path d="M242,17l 1, 8" fill="none" stroke="black" stroke-width="2"/>
<path d="M243,25l 2, -11" fill="none" stroke="black"/>
<path d="M245,14h 7" fill="none" stroke="black"/>
<text x="142" y="24" fill="black" font-size="12" font-family="Helvetica" font-weight="bold">
CMS Preliminary 
</text>
<rect x="0" y="347" width="567" height="149" fill="white"/>
<rect x="57" y="362" width="453" height="104" fill="white"/>
<rect x="57" y="362" width="453" height="104" fill="none" stroke="black"/>
<rect x="57" y="362" width="453" height="104" fill="white"/>
<rect x="57" y="362" width="453" height="104" fill="none" stroke="black"/>
<path d="M57,466h 453" fill="none" stroke="black"/>
<path d="M57,466v -104" fill="none" stroke="black"/>
<path d="M510,455h -453" fill="none" stroke="black" stroke-dasharray=" 1, 2"/>
<path d="M510,436h -453" fill="none" stroke="black" stroke-dasharray=" 1, 2"/>
<path d="M510,418h -453" fill="none" stroke="black" stroke-dasharray=" 1, 2"/>
<path d="M510,399h -453" fill="none" stroke="black" stroke-dasharray=" 1, 2"/>
<path d="M510,381h -453" fill="none" stroke="black" stroke-dasharray=" 1, 2"/>
<path d="M510,362h -453" fill="none" stroke="black" stroke-dasharray=" 1, 2"/>
<path d="M510,455h -453" fill="none" stroke="black" stroke-dasharray=" 1, 2"/>
<path d="M57,466h 453" fill="none" stroke="black"/>
<text x="479" y="486" fill="black" font-size="11" font-family="Helvetica" font-weight="bold">
 (GeV)
</text>
<text x="474" y="493" fill="black" font-size="7" font-family="Helvetica" font-weight="bold">
T
</text>
<text x="464" y="486" fill="black" font-size="11" font-family="Helvetica" font-weight="bold">
 p
</text>
<text x="459" y="486" fill="black" font-size="11" font-family="Times">
&#0947;
</text>
<path d="M57,463v 3" fill="none" stroke="black"/>
<path d="M72,464v 2" fill="none" stroke="black"/>
<path d="M87,464v 2" fill="none" stroke="black"/>
<path d="M102,464v 2" fill="none" stroke="black"/>
<path d="M117,464v 2" fill="none" stroke="black"/>
<path d="M132,463v 3" fill="none" stroke="black"/>
<path d="M147,464v 2" fill="none" stroke="black"/>
<path d="M163,464v 2" fill="none" stroke="black"/>
<path d="M178,464v 2" fill="none" stroke="black"/>
<path d="M193,464v 2" fill="none" stroke="black"/>
<path d="M208,463v 3" fill="none" stroke="black"/>
<path d="M223,464v 2" fill="none" stroke="black"/>
<path d="M238,464v 2" fill="none" stroke="black"/>
<path d="M253,464v 2" fill="none" stroke="black"/>
<path d="M268,464v 2" fill="none" stroke="black"/>
<path d="M283,463v 3" fill="none" stroke="black"/>
<path d="M299,464v 2" fill="none" stroke="black"/>
<path d="M314,464v 2" fill="none" stroke="black"/>
<path d="M329,464v 2" fill="none" stroke="black"/>
<path d="M344,464v 2" fill="none" stroke="black"/>
<path d="M359,463v 3" fill="none" stroke="black"/>
<path d="M374,464v 2" fill="none" stroke="black"/>
<path d="M389,464v 2" fill="none" stroke="black"/>
<path d="M404,464v 2" fill="none" stroke="black"/>
<path d="M420,464v 2" fill="none" stroke="black"/>
<path d="M435,463v 3" fill="none" stroke="black"/>
<path d="M450,464v 2" fill="none" stroke="black"/>
<path d="M465,464v 2" fill="none" stroke="black"/>
<path d="M480,464v 2" fill="none" stroke="black"/>
<path d="M495,464v 2" fill="none" stroke="black"/>
<path d="M510,463v 3" fill="none" stroke="black"/>
<text x="54" y="475" fill="black" font-size="10" font-family="Helvetica" font-weight="bold">
0
</text>
<text x="124" y="475" fill="black" font-size="10" font-family="Helvetica" font-weight="bold">
100
</text>
<text x="200" y="475" fill="black" font-size="10" font-family="Helvetica" font-weight="bold">
200
</text>
<text x="275" y="475" fill="black" font-size="10" font-family="Helvetica" font-weight="bold">
300
</text>
<text x="351" y="475" fill="black" font-size="10" font-family="Helvetica" font-weight="bold">
400
</text>
<text x="426" y="475" fill="black" font-size="10" font-family="Helvetica" font-weight="bold">
500
</text>
<text x="502" y="475" fill="black" font-size="10" font-family="Helvetica" font-weight="bold">
600
</text>
<path d="M57,466v -104" fill="none" stroke="black"/>
<g transform="rotate(-90,34,365)">
<text x="34" y="365" fill="black" font-size="11" font-family="Helvetica" font-weight="bold">
)
</text>
</g>
<g transform="rotate(-90,34,371)">
<text x="34" y="371" fill="black" font-size="11" font-family="Times">
&#0947;
</text>
</g>
<g transform="rotate(-90,34,424)">
<text x="34" y="424" fill="black" font-size="11" font-family="Helvetica" font-weight="bold">
MC(e)/MC(
</text>
</g>
<path d="M69,455h -12" fill="none" stroke="black"/>
<path d="M63,451h -6" fill="none" stroke="black"/>
<path d="M63,448h -6" fill="none" stroke="black"/>
<path d="M63,444h -6" fill="none" stroke="black"/>
<path d="M63,440h -6" fill="none" stroke="black"/>
<path d="M69,436h -12" fill="none" stroke="black"/>
<path d="M63,433h -6" fill="none" stroke="black"/>
<path d="M63,429h -6" fill="none" stroke="black"/>
<path d="M63,425h -6" fill="none" stroke="black"/>
<path d="M63,422h -6" fill="none" stroke="black"/>
<path d="M69,418h -12" fill="none" stroke="black"/>
<path d="M63,414h -6" fill="none" stroke="black"/>
<path d="M63,410h -6" fill="none" stroke="black"/>
<path d="M63,407h -6" fill="none" stroke="black"/>
<path d="M63,403h -6" fill="none" stroke="black"/>
<path d="M69,399h -12" fill="none" stroke="black"/>
<path d="M63,395h -6" fill="none" stroke="black"/>
<path d="M63,392h -6" fill="none" stroke="black"/>
<path d="M63,388h -6" fill="none" stroke="black"/>
<path d="M63,384h -6" fill="none" stroke="black"/>
<path d="M69,381h -12" fill="none" stroke="black"/>
<path d="M63,377h -6" fill="none" stroke="black"/>
<path d="M63,373h -6" fill="none" stroke="black"/>
<path d="M63,369h -6" fill="none" stroke="black"/>
<path d="M63,366h -6" fill="none" stroke="black"/>
<path d="M69,362h -12" fill="none" stroke="black"/>
<path d="M69,455h -12" fill="none" stroke="black"/>
<path d="M63,459h -6" fill="none" stroke="black"/>
<path d="M63,462h -6" fill="none" stroke="black"/>
<path d="M63,466h -6" fill="none" stroke="black"/>
<text x="40" y="459" fill="black" font-size="10" font-family="Helvetica" font-weight="bold">
0.5
</text>
<text x="50" y="440" fill="black" font-size="10" font-family="Helvetica" font-weight="bold">
1
</text>
<text x="40" y="421" fill="black" font-size="10" font-family="Helvetica" font-weight="bold">
1.5
</text>
<text x="48" y="403" fill="black" font-size="10" font-family="Helvetica" font-weight="bold">
2
</text>
<text x="40" y="384" fill="black" font-size="10" font-family="Helvetica" font-weight="bold">
2.5
</text>
<text x="48" y="366" fill="black" font-size="10" font-family="Helvetica" font-weight="bold">
3
</text>
<path d="M57,436h 453" fill="none" stroke="#0000ff" stroke-width="2"/></svg>
