<?xml version="1.0" standalone="no"?>
<svg width="567" height="496" viewBox="0 0 567 496" xmlns="http://www.w3.org/2000/svg">
<title>
../src/TagAndProbeZ/plots_mcZee_mcGJet_withEtaR9rhoReweight/hlt90//ptPhotEB.svg
</title>
<desc>
Creator: ROOT Version 5.32/00
CreationDate: Wed Dec  3 10:37:46 2014</desc>
<defs>
</defs>
<rect x="0" y="0" width="567" height="496" fill="white"/>
<rect x="74" y="44" width="453" height="402" fill="white"/>
<rect x="74" y="44" width="453" height="402" fill="none" stroke="black"/>
<rect x="74" y="44" width="453" height="402" fill="white"/>
<rect x="74" y="44" width="453" height="402" fill="none" stroke="black"/>
<path d="M104,64h 3" fill="none" stroke="#ff0099"/>
<path d="M109,64h 2" fill="none" stroke="#ff0099"/>
<g stroke="#ff0099" stroke-width="1" fill="#ff0099">
<circle cx=" 108" cy=" 64" r=" 1.5"/>
</g>
<path d="M111,365h 3" fill="none" stroke="#ff0099"/>
<path d="M116,365h 3" fill="none" stroke="#ff0099"/>
<g stroke="#ff0099" stroke-width="1" fill="#ff0099">
<circle cx=" 115" cy=" 365" r=" 1.5"/>
</g>
<path d="M119,432h 3" fill="none" stroke="#ff0099"/>
<path d="M124,432h 3" fill="none" stroke="#ff0099"/>
<g stroke="#ff0099" stroke-width="1" fill="#ff0099">
<circle cx=" 123" cy=" 432" r=" 1.5"/>
</g>
<path d="M74,446h 453" fill="none" stroke="black"/>
<path d="M74,434v 12" fill="none" stroke="black"/>
<path d="M89,440v 6" fill="none" stroke="black"/>
<path d="M104,440v 6" fill="none" stroke="black"/>
<path d="M119,440v 6" fill="none" stroke="black"/>
<path d="M134,440v 6" fill="none" stroke="black"/>
<path d="M149,434v 12" fill="none" stroke="black"/>
<path d="M164,440v 6" fill="none" stroke="black"/>
<path d="M180,440v 6" fill="none" stroke="black"/>
<path d="M195,440v 6" fill="none" stroke="black"/>
<path d="M210,440v 6" fill="none" stroke="black"/>
<path d="M225,434v 12" fill="none" stroke="black"/>
<path d="M240,440v 6" fill="none" stroke="black"/>
<path d="M255,440v 6" fill="none" stroke="black"/>
<path d="M270,440v 6" fill="none" stroke="black"/>
<path d="M285,440v 6" fill="none" stroke="black"/>
<path d="M300,434v 12" fill="none" stroke="black"/>
<path d="M316,440v 6" fill="none" stroke="black"/>
<path d="M331,440v 6" fill="none" stroke="black"/>
<path d="M346,440v 6" fill="none" stroke="black"/>
<path d="M361,440v 6" fill="none" stroke="black"/>
<path d="M376,434v 12" fill="none" stroke="black"/>
<path d="M391,440v 6" fill="none" stroke="black"/>
<path d="M406,440v 6" fill="none" stroke="black"/>
<path d="M421,440v 6" fill="none" stroke="black"/>
<path d="M437,440v 6" fill="none" stroke="black"/>
<path d="M452,434v 12" fill="none" stroke="black"/>
<path d="M467,440v 6" fill="none" stroke="black"/>
<path d="M482,440v 6" fill="none" stroke="black"/>
<path d="M497,440v 6" fill="none" stroke="black"/>
<path d="M512,440v 6" fill="none" stroke="black"/>
<path d="M527,434v 12" fill="none" stroke="black"/>
<text x="68" y="465" fill="black" font-size="18" font-family="Helvetica" font-weight="bold">
0
</text>
<text x="134" y="465" fill="black" font-size="18" font-family="Helvetica" font-weight="bold">
100
</text>
<text x="209" y="465" fill="black" font-size="18" font-family="Helvetica" font-weight="bold">
200
</text>
<text x="285" y="465" fill="black" font-size="18" font-family="Helvetica" font-weight="bold">
300
</text>
<text x="360" y="465" fill="black" font-size="18" font-family="Helvetica" font-weight="bold">
400
</text>
<text x="436" y="465" fill="black" font-size="18" font-family="Helvetica" font-weight="bold">
500
</text>
<text x="512" y="465" fill="black" font-size="18" font-family="Helvetica" font-weight="bold">
600
</text>
<path d="M74,44h 453" fill="none" stroke="black"/>
<path d="M74,56v -12" fill="none" stroke="black"/>
<path d="M89,50v -6" fill="none" stroke="black"/>
<path d="M104,50v -6" fill="none" stroke="black"/>
<path d="M119,50v -6" fill="none" stroke="black"/>
<path d="M134,50v -6" fill="none" stroke="black"/>
<path d="M149,56v -12" fill="none" stroke="black"/>
<path d="M164,50v -6" fill="none" stroke="black"/>
<path d="M180,50v -6" fill="none" stroke="black"/>
<path d="M195,50v -6" fill="none" stroke="black"/>
<path d="M210,50v -6" fill="none" stroke="black"/>
<path d="M225,56v -12" fill="none" stroke="black"/>
<path d="M240,50v -6" fill="none" stroke="black"/>
<path d="M255,50v -6" fill="none" stroke="black"/>
<path d="M270,50v -6" fill="none" stroke="black"/>
<path d="M285,50v -6" fill="none" stroke="black"/>
<path d="M300,56v -12" fill="none" stroke="black"/>
<path d="M316,50v -6" fill="none" stroke="black"/>
<path d="M331,50v -6" fill="none" stroke="black"/>
<path d="M346,50v -6" fill="none" stroke="black"/>
<path d="M361,50v -6" fill="none" stroke="black"/>
<path d="M376,56v -12" fill="none" stroke="black"/>
<path d="M391,50v -6" fill="none" stroke="black"/>
<path d="M406,50v -6" fill="none" stroke="black"/>
<path d="M421,50v -6" fill="none" stroke="black"/>
<path d="M437,50v -6" fill="none" stroke="black"/>
<path d="M452,56v -12" fill="none" stroke="black"/>
<path d="M467,50v -6" fill="none" stroke="black"/>
<path d="M482,50v -6" fill="none" stroke="black"/>
<path d="M497,50v -6" fill="none" stroke="black"/>
<path d="M512,50v -6" fill="none" stroke="black"/>
<path d="M527,56v -12" fill="none" stroke="black"/>
<path d="M74,446v -402" fill="none" stroke="black"/>
<path d="M87,446h -13" fill="none" stroke="black"/>
<path d="M81,437h -7" fill="none" stroke="black"/>
<path d="M81,427h -7" fill="none" stroke="black"/>
<path d="M81,418h -7" fill="none" stroke="black"/>
<path d="M81,408h -7" fill="none" stroke="black"/>
<path d="M87,399h -13" fill="none" stroke="black"/>
<path d="M81,389h -7" fill="none" stroke="black"/>
<path d="M81,379h -7" fill="none" stroke="black"/>
<path d="M81,370h -7" fill="none" stroke="black"/>
<path d="M81,360h -7" fill="none" stroke="black"/>
<path d="M87,351h -13" fill="none" stroke="black"/>
<path d="M81,341h -7" fill="none" stroke="black"/>
<path d="M81,332h -7" fill="none" stroke="black"/>
<path d="M81,322h -7" fill="none" stroke="black"/>
<path d="M81,312h -7" fill="none" stroke="black"/>
<path d="M87,303h -13" fill="none" stroke="black"/>
<path d="M81,293h -7" fill="none" stroke="black"/>
<path d="M81,284h -7" fill="none" stroke="black"/>
<path d="M81,274h -7" fill="none" stroke="black"/>
<path d="M81,265h -7" fill="none" stroke="black"/>
<path d="M87,255h -13" fill="none" stroke="black"/>
<path d="M81,245h -7" fill="none" stroke="black"/>
<path d="M81,236h -7" fill="none" stroke="black"/>
<path d="M81,226h -7" fill="none" stroke="black"/>
<path d="M81,217h -7" fill="none" stroke="black"/>
<path d="M87,207h -13" fill="none" stroke="black"/>
<path d="M81,198h -7" fill="none" stroke="black"/>
<path d="M81,188h -7" fill="none" stroke="black"/>
<path d="M81,179h -7" fill="none" stroke="black"/>
<path d="M81,169h -7" fill="none" stroke="black"/>
<path d="M87,159h -13" fill="none" stroke="black"/>
<path d="M81,150h -7" fill="none" stroke="black"/>
<path d="M81,140h -7" fill="none" stroke="black"/>
<path d="M81,131h -7" fill="none" stroke="black"/>
<path d="M81,121h -7" fill="none" stroke="black"/>
<path d="M87,112h -13" fill="none" stroke="black"/>
<path d="M81,102h -7" fill="none" stroke="black"/>
<path d="M81,92h -7" fill="none" stroke="black"/>
<path d="M81,83h -7" fill="none" stroke="black"/>
<path d="M81,73h -7" fill="none" stroke="black"/>
<path d="M87,64h -13" fill="none" stroke="black"/>
<path d="M87,64h -13" fill="none" stroke="black"/>
<path d="M81,54h -7" fill="none" stroke="black"/>
<path d="M81,45h -7" fill="none" stroke="black"/>
<text x="61" y="453" fill="black" font-size="18" font-family="Helvetica" font-weight="bold">
0
</text>
<text x="47" y="405" fill="black" font-size="18" font-family="Helvetica" font-weight="bold">
0.1
</text>
<text x="45" y="357" fill="black" font-size="18" font-family="Helvetica" font-weight="bold">
0.2
</text>
<text x="45" y="309" fill="black" font-size="18" font-family="Helvetica" font-weight="bold">
0.3
</text>
<text x="44" y="261" fill="black" font-size="18" font-family="Helvetica" font-weight="bold">
0.4
</text>
<text x="45" y="214" fill="black" font-size="18" font-family="Helvetica" font-weight="bold">
0.5
</text>
<text x="45" y="166" fill="black" font-size="18" font-family="Helvetica" font-weight="bold">
0.6
</text>
<text x="45" y="118" fill="black" font-size="18" font-family="Helvetica" font-weight="bold">
0.7
</text>
<text x="45" y="70" fill="black" font-size="18" font-family="Helvetica" font-weight="bold">
0.8
</text>
<path d="M153,354v -1" fill="none" stroke="#99ff99" stroke-width="2"/>
<path d="M153,353v -1" fill="none" stroke="#99ff99" stroke-width="2"/>
<g stroke="black" stroke-width="2" fill="none">
<line x1="152" y1="353" x2="153" y2="353"/>
</g>
<path d="M161,309v -1" fill="none" stroke="#99ff99" stroke-width="2"/>
<path d="M161,308v -1" fill="none" stroke="#99ff99" stroke-width="2"/>
<g stroke="black" stroke-width="2" fill="none">
<line x1="160" y1="308" x2="161" y2="308"/>
</g>
<path d="M168,355v -1" fill="none" stroke="#99ff99" stroke-width="2"/>
<path d="M168,354" fill="none" stroke="#99ff99" stroke-width="2"/>
<g stroke="black" stroke-width="2" fill="none">
<line x1="167" y1="354" x2="168" y2="354"/>
</g>
<path d="M176,383v -1" fill="none" stroke="#99ff99" stroke-width="2"/>
<path d="M176,382" fill="none" stroke="#99ff99" stroke-width="2"/>
<g stroke="black" stroke-width="2" fill="none">
<line x1="175" y1="382" x2="176" y2="382"/>
</g>
<path d="M183,402v -1" fill="none" stroke="#99ff99" stroke-width="2"/>
<path d="M183,401" fill="none" stroke="#99ff99" stroke-width="2"/>
<g stroke="black" stroke-width="2" fill="none">
<line x1="182" y1="401" x2="183" y2="401"/>
</g>
<path d="M191,414" fill="none" stroke="#99ff99" stroke-width="2"/>
<path d="M191,414" fill="none" stroke="#99ff99" stroke-width="2"/>
<g stroke="black" stroke-width="2" fill="none">
<line x1="190" y1="414" x2="191" y2="414"/>
</g>
<path d="M198,433" fill="none" stroke="#99ff99" stroke-width="2"/>
<path d="M198,433" fill="none" stroke="#99ff99" stroke-width="2"/>
<g stroke="black" stroke-width="2" fill="none">
<line x1="197" y1="433" x2="198" y2="433"/>
</g>
<path d="M74,446h 75v -93h 8v -45h 7v 46h 8v 28h 8v 19h 7v 13h 8v 19h 7v 13h 325z" fill="#99ff99"/>
<path d="M74,446h 75v -93h 8v -45h 7v 46h 8v 28h 8v 19h 7v 13h 8v 19h 7v 13h 325" fill="none" stroke="#99ff99" stroke-width="2"/>
<path d="M104,64h 3" fill="none" stroke="#ff0099"/>
<path d="M109,64h 2" fill="none" stroke="#ff0099"/>
<g stroke="#ff0099" stroke-width="1" fill="#ff0099">
<circle cx=" 108" cy=" 64" r=" 1.5"/>
</g>
<path d="M111,365h 3" fill="none" stroke="#ff0099"/>
<path d="M116,365h 3" fill="none" stroke="#ff0099"/>
<g stroke="#ff0099" stroke-width="1" fill="#ff0099">
<circle cx=" 115" cy=" 365" r=" 1.5"/>
</g>
<path d="M119,432h 3" fill="none" stroke="#ff0099"/>
<path d="M124,432h 3" fill="none" stroke="#ff0099"/>
<g stroke="#ff0099" stroke-width="1" fill="#ff0099">
<circle cx=" 123" cy=" 432" r=" 1.5"/>
</g>
<rect x="357" y="59" width="142" height="99" fill="white"/>
<text x="360" y="82" fill="black" font-size="17" font-family="Helvetica" font-weight="bold">
EB
</text>
<text x="457" y="115" fill="black" font-size="17" font-family="Helvetica" font-weight="bold">
 ee
</text>
<text x="440" y="115" fill="black" font-size="17" font-family="Times">
&#8594;
</text>
<text x="392" y="115" fill="black" font-size="17" font-family="Helvetica" font-weight="bold">
MC Z 
</text>
<path d="M362,109h 25" fill="none" stroke="#ff0099"/>
<g stroke="#ff0099" stroke-width="1" fill="#ff0099">
<circle cx=" 375" cy=" 109" r=" 1.5"/>
</g>
<text x="455" y="147" fill="black" font-size="17" font-family="Helvetica" font-weight="bold">
 + jet
</text>
<text x="447" y="147" fill="black" font-size="17" font-family="Times">
&#0947;
</text>
<text x="392" y="147" fill="black" font-size="17" font-family="Helvetica" font-weight="bold">
signal 
</text>
<path d="M362,154h 25v -24h -25z" fill="#99ff99"/>
<path d="M362,130h 25" fill="none" stroke="#99ff99" stroke-width="2"/>
<path d="M362,154h 25" fill="none" stroke="#99ff99" stroke-width="2"/>
<path d="M387,154v -24" fill="none" stroke="#99ff99" stroke-width="2"/>
<path d="M362,154v -24" fill="none" stroke="#99ff99" stroke-width="2"/>
<text x="300" y="34" fill="black" font-size="17" font-family="Helvetica" font-weight="bold">
=8 TeV
</text>
<text x="291" y="34" fill="black" font-size="17" font-family="Helvetica" font-weight="bold">
s
</text>
<path d="M285,25l 2, 10" fill="none" stroke="black" stroke-width="2"/>
<path d="M287,35l 2, -14" fill="none" stroke="black"/>
<path d="M289,21h 11" fill="none" stroke="black"/>
<text x="142" y="34" fill="black" font-size="17" font-family="Helvetica" font-weight="bold">
CMS Preliminary 
</text></svg>
