<?xml version="1.0" standalone="no"?>
<svg width="567" height="496" viewBox="0 0 567 496" xmlns="http://www.w3.org/2000/svg">
<title>
../src/TagAndProbeZ/plots_mcZee_mcGJet_withwithEtaR9rhoReweight/hlt90/ptPhotAll_log.svg
</title>
<desc>
Creator: ROOT Version 5.32/00
CreationDate: Wed Oct  1 11:18:45 2014</desc>
<defs>
</defs>
<rect x="0" y="0" width="567" height="496" fill="white"/>
<rect x="0" y="0" width="567" height="347" fill="white"/>
<rect x="57" y="34" width="453" height="278" fill="white"/>
<rect x="57" y="34" width="453" height="278" fill="none" stroke="black"/>
<rect x="57" y="34" width="453" height="278" fill="white"/>
<rect x="57" y="34" width="453" height="278" fill="none" stroke="black"/>
<path d="M215,69h 3" fill="none" stroke="#ff0099"/>
<path d="M220,69h 3" fill="none" stroke="#ff0099"/>
<g stroke="#ff0099" stroke-width="1" fill="#ff0099">
<circle cx=" 219" cy=" 69" r=" 1.5"/>
</g>
<path d="M223,75h 3" fill="none" stroke="#ff0099"/>
<path d="M228,75h 3" fill="none" stroke="#ff0099"/>
<g stroke="#ff0099" stroke-width="1" fill="#ff0099">
<circle cx=" 227" cy=" 75" r=" 1.5"/>
</g>
<path d="M231,77h 2" fill="none" stroke="#ff0099"/>
<path d="M235,77h 3" fill="none" stroke="#ff0099"/>
<g stroke="#ff0099" stroke-width="1" fill="#ff0099">
<circle cx=" 234" cy=" 77" r=" 1.5"/>
</g>
<path d="M238,82h 3" fill="none" stroke="#ff0099"/>
<path d="M243,82h 3" fill="none" stroke="#ff0099"/>
<g stroke="#ff0099" stroke-width="1" fill="#ff0099">
<circle cx=" 242" cy=" 82" r=" 1.5"/>
</g>
<path d="M246,86h 2" fill="none" stroke="#ff0099"/>
<path d="M251,86h 2" fill="none" stroke="#ff0099"/>
<g stroke="#ff0099" stroke-width="1" fill="#ff0099">
<circle cx=" 249" cy=" 86" r=" 1.5"/>
</g>
<path d="M253,88h 3" fill="none" stroke="#ff0099"/>
<path d="M258,88h 3" fill="none" stroke="#ff0099"/>
<g stroke="#ff0099" stroke-width="1" fill="#ff0099">
<circle cx=" 257" cy=" 88" r=" 1.5"/>
</g>
<path d="M261,91h 2" fill="none" stroke="#ff0099"/>
<path d="M266,91h 2" fill="none" stroke="#ff0099"/>
<g stroke="#ff0099" stroke-width="1" fill="#ff0099">
<circle cx=" 265" cy=" 91" r=" 1.5"/>
</g>
<path d="M268,94h 3" fill="none" stroke="#ff0099"/>
<path d="M273,94h 3" fill="none" stroke="#ff0099"/>
<g stroke="#ff0099" stroke-width="1" fill="#ff0099">
<circle cx=" 272" cy=" 94" r=" 1.5"/>
</g>
<path d="M276,98h 3" fill="none" stroke="#ff0099"/>
<path d="M281,98h 2" fill="none" stroke="#ff0099"/>
<g stroke="#ff0099" stroke-width="1" fill="#ff0099">
<circle cx=" 280" cy=" 98" r=" 1.5"/>
</g>
<path d="M283,102h 3" fill="none" stroke="#ff0099"/>
<path d="M288,102h 3" fill="none" stroke="#ff0099"/>
<g stroke="#ff0099" stroke-width="1" fill="#ff0099">
<circle cx=" 287" cy=" 102" r=" 1.5"/>
</g>
<path d="M295,107v -1" fill="none" stroke="#ff0099"/>
<path d="M295,104" fill="none" stroke="#ff0099"/>
<path d="M291,105h 3" fill="none" stroke="#ff0099"/>
<path d="M296,105h 3" fill="none" stroke="#ff0099"/>
<g stroke="#ff0099" stroke-width="1" fill="#ff0099">
<circle cx=" 295" cy=" 105" r=" 1.5"/>
</g>
<path d="M302,110" fill="none" stroke="#ff0099"/>
<path d="M302,107" fill="none" stroke="#ff0099"/>
<path d="M299,108h 2" fill="none" stroke="#ff0099"/>
<path d="M304,108h 2" fill="none" stroke="#ff0099"/>
<g stroke="#ff0099" stroke-width="1" fill="#ff0099">
<circle cx=" 302" cy=" 108" r=" 1.5"/>
</g>
<path d="M57,312h 453" fill="none" stroke="black"/>
<text x="472" y="336" fill="black" font-size="13" font-family="Helvetica" font-weight="bold">
 (GeV)
</text>
<text x="467" y="343" fill="black" font-size="9" font-family="Helvetica" font-weight="bold">
T
</text>
<text x="455" y="336" fill="black" font-size="13" font-family="Helvetica" font-weight="bold">
 p
</text>
<text x="449" y="336" fill="black" font-size="13" font-family="Times">
&#0947;
</text>
<path d="M57,304v 8" fill="none" stroke="black"/>
<path d="M72,308v 4" fill="none" stroke="black"/>
<path d="M87,308v 4" fill="none" stroke="black"/>
<path d="M102,308v 4" fill="none" stroke="black"/>
<path d="M117,308v 4" fill="none" stroke="black"/>
<path d="M132,304v 8" fill="none" stroke="black"/>
<path d="M147,308v 4" fill="none" stroke="black"/>
<path d="M163,308v 4" fill="none" stroke="black"/>
<path d="M178,308v 4" fill="none" stroke="black"/>
<path d="M193,308v 4" fill="none" stroke="black"/>
<path d="M208,304v 8" fill="none" stroke="black"/>
<path d="M223,308v 4" fill="none" stroke="black"/>
<path d="M238,308v 4" fill="none" stroke="black"/>
<path d="M253,308v 4" fill="none" stroke="black"/>
<path d="M268,308v 4" fill="none" stroke="black"/>
<path d="M283,304v 8" fill="none" stroke="black"/>
<path d="M299,308v 4" fill="none" stroke="black"/>
<path d="M314,308v 4" fill="none" stroke="black"/>
<path d="M329,308v 4" fill="none" stroke="black"/>
<path d="M344,308v 4" fill="none" stroke="black"/>
<path d="M359,304v 8" fill="none" stroke="black"/>
<path d="M374,308v 4" fill="none" stroke="black"/>
<path d="M389,308v 4" fill="none" stroke="black"/>
<path d="M404,308v 4" fill="none" stroke="black"/>
<path d="M420,308v 4" fill="none" stroke="black"/>
<path d="M435,304v 8" fill="none" stroke="black"/>
<path d="M450,308v 4" fill="none" stroke="black"/>
<path d="M465,308v 4" fill="none" stroke="black"/>
<path d="M480,308v 4" fill="none" stroke="black"/>
<path d="M495,308v 4" fill="none" stroke="black"/>
<path d="M510,304v 8" fill="none" stroke="black"/>
<text x="53" y="325" fill="black" font-size="13" font-family="Helvetica" font-weight="bold">
0
</text>
<text x="125" y="325" fill="black" font-size="13" font-family="Helvetica" font-weight="bold">
50
</text>
<text x="197" y="325" fill="black" font-size="13" font-family="Helvetica" font-weight="bold">
100
</text>
<text x="273" y="325" fill="black" font-size="13" font-family="Helvetica" font-weight="bold">
150
</text>
<text x="348" y="325" fill="black" font-size="13" font-family="Helvetica" font-weight="bold">
200
</text>
<text x="423" y="325" fill="black" font-size="13" font-family="Helvetica" font-weight="bold">
250
</text>
<text x="499" y="325" fill="black" font-size="13" font-family="Helvetica" font-weight="bold">
300
</text>
<path d="M57,312v -278" fill="none" stroke="black"/>
<g transform="rotate(-90,28,100)">
<text x="28" y="100" fill="black" font-size="13" font-family="Helvetica" font-weight="bold">
Entries/5.0
</text>
</g>
<path d="M63,299h -6" fill="none" stroke="black"/>
<path d="M63,291h -6" fill="none" stroke="black"/>
<path d="M63,285h -6" fill="none" stroke="black"/>
<path d="M63,281h -6" fill="none" stroke="black"/>
<path d="M63,277h -6" fill="none" stroke="black"/>
<path d="M63,274h -6" fill="none" stroke="black"/>
<path d="M63,272h -6" fill="none" stroke="black"/>
<path d="M63,269h -6" fill="none" stroke="black"/>
<path d="M70,267h -13" fill="none" stroke="black"/>
<text x="44" y="266" fill="black" font-size="9" font-family="Helvetica" font-weight="bold">
-5
</text>
<text x="30" y="273" fill="black" font-size="13" font-family="Helvetica" font-weight="bold">
10
</text>
<path d="M63,253h -6" fill="none" stroke="black"/>
<path d="M63,245h -6" fill="none" stroke="black"/>
<path d="M63,239h -6" fill="none" stroke="black"/>
<path d="M63,235h -6" fill="none" stroke="black"/>
<path d="M63,231h -6" fill="none" stroke="black"/>
<path d="M63,228h -6" fill="none" stroke="black"/>
<path d="M63,225h -6" fill="none" stroke="black"/>
<path d="M63,223h -6" fill="none" stroke="black"/>
<path d="M70,221h -13" fill="none" stroke="black"/>
<text x="44" y="221" fill="black" font-size="9" font-family="Helvetica" font-weight="bold">
-4
</text>
<text x="30" y="227" fill="black" font-size="13" font-family="Helvetica" font-weight="bold">
10
</text>
<path d="M63,207h -6" fill="none" stroke="black"/>
<path d="M63,199h -6" fill="none" stroke="black"/>
<path d="M63,193h -6" fill="none" stroke="black"/>
<path d="M63,189h -6" fill="none" stroke="black"/>
<path d="M63,185h -6" fill="none" stroke="black"/>
<path d="M63,182h -6" fill="none" stroke="black"/>
<path d="M63,179h -6" fill="none" stroke="black"/>
<path d="M63,177h -6" fill="none" stroke="black"/>
<path d="M70,175h -13" fill="none" stroke="black"/>
<text x="44" y="174" fill="black" font-size="9" font-family="Helvetica" font-weight="bold">
-3
</text>
<text x="30" y="181" fill="black" font-size="13" font-family="Helvetica" font-weight="bold">
10
</text>
<path d="M63,161h -6" fill="none" stroke="black"/>
<path d="M63,153h -6" fill="none" stroke="black"/>
<path d="M63,147h -6" fill="none" stroke="black"/>
<path d="M63,143h -6" fill="none" stroke="black"/>
<path d="M63,139h -6" fill="none" stroke="black"/>
<path d="M63,136h -6" fill="none" stroke="black"/>
<path d="M63,133h -6" fill="none" stroke="black"/>
<path d="M63,131h -6" fill="none" stroke="black"/>
<path d="M70,129h -13" fill="none" stroke="black"/>
<text x="44" y="128" fill="black" font-size="9" font-family="Helvetica" font-weight="bold">
-2
</text>
<text x="30" y="135" fill="black" font-size="13" font-family="Helvetica" font-weight="bold">
10
</text>
<path d="M63,115h -6" fill="none" stroke="black"/>
<path d="M63,107h -6" fill="none" stroke="black"/>
<path d="M63,101h -6" fill="none" stroke="black"/>
<path d="M63,96h -6" fill="none" stroke="black"/>
<path d="M63,93h -6" fill="none" stroke="black"/>
<path d="M63,90h -6" fill="none" stroke="black"/>
<path d="M63,87h -6" fill="none" stroke="black"/>
<path d="M63,85h -6" fill="none" stroke="black"/>
<path d="M70,83h -13" fill="none" stroke="black"/>
<text x="46" y="82" fill="black" font-size="9" font-family="Helvetica" font-weight="bold">
-1
</text>
<text x="31" y="88" fill="black" font-size="13" font-family="Helvetica" font-weight="bold">
10
</text>
<path d="M63,69h -6" fill="none" stroke="black"/>
<path d="M63,61h -6" fill="none" stroke="black"/>
<path d="M63,55h -6" fill="none" stroke="black"/>
<path d="M63,50h -6" fill="none" stroke="black"/>
<path d="M63,47h -6" fill="none" stroke="black"/>
<path d="M63,44h -6" fill="none" stroke="black"/>
<path d="M63,41h -6" fill="none" stroke="black"/>
<path d="M63,39h -6" fill="none" stroke="black"/>
<path d="M70,36h -13" fill="none" stroke="black"/>
<text x="52" y="42" text-anchor="end" fill="black" font-size="13" font-family="Helvetica" font-weight="bold">
1
</text>
<path d="M219,69" fill="none" stroke="#99ff99" stroke-width="2"/>
<path d="M219,69v -1" fill="none" stroke="#99ff99" stroke-width="2"/>
<g stroke="black" stroke-width="2" fill="none">
<line x1="218" y1="69" x2="219" y2="69"/>
</g>
<path d="M227,73" fill="none" stroke="#99ff99" stroke-width="2"/>
<path d="M227,73" fill="none" stroke="#99ff99" stroke-width="2"/>
<g stroke="black" stroke-width="2" fill="none">
<line x1="226" y1="73" x2="227" y2="73"/>
</g>
<path d="M234,78v -1" fill="none" stroke="#99ff99" stroke-width="2"/>
<path d="M234,77" fill="none" stroke="#99ff99" stroke-width="2"/>
<g stroke="black" stroke-width="2" fill="none">
<line x1="233" y1="77" x2="234" y2="77"/>
</g>
<path d="M242,82" fill="none" stroke="#99ff99" stroke-width="2"/>
<path d="M242,82v -1" fill="none" stroke="#99ff99" stroke-width="2"/>
<g stroke="black" stroke-width="2" fill="none">
<line x1="241" y1="82" x2="242" y2="82"/>
</g>
<path d="M249,85" fill="none" stroke="#99ff99" stroke-width="2"/>
<path d="M249,85" fill="none" stroke="#99ff99" stroke-width="2"/>
<g stroke="black" stroke-width="2" fill="none">
<line x1="248" y1="85" x2="249" y2="85"/>
</g>
<path d="M257,89" fill="none" stroke="#99ff99" stroke-width="2"/>
<path d="M257,89" fill="none" stroke="#99ff99" stroke-width="2"/>
<g stroke="black" stroke-width="2" fill="none">
<line x1="256" y1="89" x2="257" y2="89"/>
</g>
<path d="M265,93" fill="none" stroke="#99ff99" stroke-width="2"/>
<path d="M265,93" fill="none" stroke="#99ff99" stroke-width="2"/>
<g stroke="black" stroke-width="2" fill="none">
<line x1="264" y1="93" x2="265" y2="93"/>
</g>
<path d="M272,96" fill="none" stroke="#99ff99" stroke-width="2"/>
<path d="M272,96" fill="none" stroke="#99ff99" stroke-width="2"/>
<g stroke="black" stroke-width="2" fill="none">
<line x1="271" y1="96" x2="272" y2="96"/>
</g>
<path d="M280,100" fill="none" stroke="#99ff99" stroke-width="2"/>
<path d="M280,100" fill="none" stroke="#99ff99" stroke-width="2"/>
<g stroke="black" stroke-width="2" fill="none">
<line x1="279" y1="100" x2="280" y2="100"/>
</g>
<path d="M287,103" fill="none" stroke="#99ff99" stroke-width="2"/>
<path d="M287,103" fill="none" stroke="#99ff99" stroke-width="2"/>
<g stroke="black" stroke-width="2" fill="none">
<line x1="286" y1="103" x2="287" y2="103"/>
</g>
<path d="M295,107v -1" fill="none" stroke="#99ff99" stroke-width="2"/>
<path d="M295,106" fill="none" stroke="#99ff99" stroke-width="2"/>
<g stroke="black" stroke-width="2" fill="none">
<line x1="294" y1="106" x2="295" y2="106"/>
</g>
<path d="M302,110" fill="none" stroke="#99ff99" stroke-width="2"/>
<path d="M302,110v -1" fill="none" stroke="#99ff99" stroke-width="2"/>
<g stroke="black" stroke-width="2" fill="none">
<line x1="301" y1="110" x2="302" y2="110"/>
</g>
<path d="M57,312h 158v -243h 8v 4h 8v 4h 7v 5h 8v 3h 7v 4h 8v 4h 7v 3h 8v 4h 7v 3h 8v 3h 8v 4h 7v 202h 204z" fill="#99ff99"/>
<path d="M57,312h 158v -243h 8v 4h 8v 4h 7v 5h 8v 3h 7v 4h 8v 4h 7v 3h 8v 4h 7v 3h 8v 3h 8v 4h 7v 202h 204" fill="none" stroke="#99ff99" stroke-width="2"/>
<path d="M215,69h 3" fill="none" stroke="#ff0099"/>
<path d="M220,69h 3" fill="none" stroke="#ff0099"/>
<g stroke="#ff0099" stroke-width="1" fill="#ff0099">
<circle cx=" 219" cy=" 69" r=" 1.5"/>
</g>
<path d="M223,75h 3" fill="none" stroke="#ff0099"/>
<path d="M228,75h 3" fill="none" stroke="#ff0099"/>
<g stroke="#ff0099" stroke-width="1" fill="#ff0099">
<circle cx=" 227" cy=" 75" r=" 1.5"/>
</g>
<path d="M231,77h 2" fill="none" stroke="#ff0099"/>
<path d="M235,77h 3" fill="none" stroke="#ff0099"/>
<g stroke="#ff0099" stroke-width="1" fill="#ff0099">
<circle cx=" 234" cy=" 77" r=" 1.5"/>
</g>
<path d="M238,82h 3" fill="none" stroke="#ff0099"/>
<path d="M243,82h 3" fill="none" stroke="#ff0099"/>
<g stroke="#ff0099" stroke-width="1" fill="#ff0099">
<circle cx=" 242" cy=" 82" r=" 1.5"/>
</g>
<path d="M246,86h 2" fill="none" stroke="#ff0099"/>
<path d="M251,86h 2" fill="none" stroke="#ff0099"/>
<g stroke="#ff0099" stroke-width="1" fill="#ff0099">
<circle cx=" 249" cy=" 86" r=" 1.5"/>
</g>
<path d="M253,88h 3" fill="none" stroke="#ff0099"/>
<path d="M258,88h 3" fill="none" stroke="#ff0099"/>
<g stroke="#ff0099" stroke-width="1" fill="#ff0099">
<circle cx=" 257" cy=" 88" r=" 1.5"/>
</g>
<path d="M261,91h 2" fill="none" stroke="#ff0099"/>
<path d="M266,91h 2" fill="none" stroke="#ff0099"/>
<g stroke="#ff0099" stroke-width="1" fill="#ff0099">
<circle cx=" 265" cy=" 91" r=" 1.5"/>
</g>
<path d="M268,94h 3" fill="none" stroke="#ff0099"/>
<path d="M273,94h 3" fill="none" stroke="#ff0099"/>
<g stroke="#ff0099" stroke-width="1" fill="#ff0099">
<circle cx=" 272" cy=" 94" r=" 1.5"/>
</g>
<path d="M276,98h 3" fill="none" stroke="#ff0099"/>
<path d="M281,98h 2" fill="none" stroke="#ff0099"/>
<g stroke="#ff0099" stroke-width="1" fill="#ff0099">
<circle cx=" 280" cy=" 98" r=" 1.5"/>
</g>
<path d="M283,102h 3" fill="none" stroke="#ff0099"/>
<path d="M288,102h 3" fill="none" stroke="#ff0099"/>
<g stroke="#ff0099" stroke-width="1" fill="#ff0099">
<circle cx=" 287" cy=" 102" r=" 1.5"/>
</g>
<path d="M295,107v -1" fill="none" stroke="#ff0099"/>
<path d="M295,104" fill="none" stroke="#ff0099"/>
<path d="M291,105h 3" fill="none" stroke="#ff0099"/>
<path d="M296,105h 3" fill="none" stroke="#ff0099"/>
<g stroke="#ff0099" stroke-width="1" fill="#ff0099">
<circle cx=" 295" cy=" 105" r=" 1.5"/>
</g>
<path d="M302,110" fill="none" stroke="#ff0099"/>
<path d="M302,107" fill="none" stroke="#ff0099"/>
<path d="M299,108h 2" fill="none" stroke="#ff0099"/>
<path d="M304,108h 2" fill="none" stroke="#ff0099"/>
<g stroke="#ff0099" stroke-width="1" fill="#ff0099">
<circle cx=" 302" cy=" 108" r=" 1.5"/>
</g>
<rect x="357" y="41" width="142" height="70" fill="white"/>
<text x="360" y="58" fill="black" font-size="12" font-family="Helvetica" font-weight="bold">
All
</text>
<text x="439" y="81" fill="black" font-size="12" font-family="Helvetica" font-weight="bold">
 ee
</text>
<text x="426" y="81" fill="black" font-size="12" font-family="Times">
&#8594;
</text>
<text x="392" y="81" fill="black" font-size="12" font-family="Helvetica" font-weight="bold">
MC Z 
</text>
<path d="M362,76h 25" fill="none" stroke="#ff0099"/>
<g stroke="#ff0099" stroke-width="1" fill="#ff0099">
<circle cx=" 375" cy=" 76" r=" 1.5"/>
</g>
<text x="438" y="102" fill="black" font-size="12" font-family="Helvetica" font-weight="bold">
 + jet
</text>
<text x="431" y="102" fill="black" font-size="12" font-family="Times">
&#0947;
</text>
<text x="392" y="102" fill="black" font-size="12" font-family="Helvetica" font-weight="bold">
signal 
</text>
<path d="M362,107h 25v -16h -25z" fill="#99ff99"/>
<path d="M362,91h 25" fill="none" stroke="#99ff99" stroke-width="2"/>
<path d="M362,107h 25" fill="none" stroke="#99ff99" stroke-width="2"/>
<path d="M387,107v -16" fill="none" stroke="#99ff99" stroke-width="2"/>
<path d="M362,107v -16" fill="none" stroke="#99ff99" stroke-width="2"/>
<text x="252" y="24" fill="black" font-size="12" font-family="Helvetica" font-weight="bold">
=8 TeV
</text>
<text x="246" y="24" fill="black" font-size="12" font-family="Helvetica" font-weight="bold">
s
</text>
<path d="M242,17l 1, 8" fill="none" stroke="black" stroke-width="2"/>
<path d="M243,25l 2, -11" fill="none" stroke="black"/>
<path d="M245,14h 7" fill="none" stroke="black"/>
<text x="142" y="24" fill="black" font-size="12" font-family="Helvetica" font-weight="bold">
CMS Preliminary 
</text>
<rect x="0" y="347" width="567" height="149" fill="white"/>
<rect x="57" y="362" width="453" height="104" fill="white"/>
<rect x="57" y="362" width="453" height="104" fill="none" stroke="black"/>
<rect x="57" y="362" width="453" height="104" fill="white"/>
<rect x="57" y="362" width="453" height="104" fill="none" stroke="black"/>
<path d="M57,466h 453" fill="none" stroke="black"/>
<path d="M57,466v -104" fill="none" stroke="black"/>
<path d="M510,455h -453" fill="none" stroke="black" stroke-dasharray=" 1, 2"/>
<path d="M510,436h -453" fill="none" stroke="black" stroke-dasharray=" 1, 2"/>
<path d="M510,418h -453" fill="none" stroke="black" stroke-dasharray=" 1, 2"/>
<path d="M510,399h -453" fill="none" stroke="black" stroke-dasharray=" 1, 2"/>
<path d="M510,381h -453" fill="none" stroke="black" stroke-dasharray=" 1, 2"/>
<path d="M510,362h -453" fill="none" stroke="black" stroke-dasharray=" 1, 2"/>
<path d="M510,455h -453" fill="none" stroke="black" stroke-dasharray=" 1, 2"/>
<path d="M215,437h 3" fill="none" stroke="#ff0099"/>
<path d="M220,437h 3" fill="none" stroke="#ff0099"/>
<g stroke="#ff0099" stroke-width="1" fill="#ff0099">
<circle cx=" 219" cy=" 437" r=" 1.5"/>
</g>
<path d="M223,440h 3" fill="none" stroke="#ff0099"/>
<path d="M228,440h 3" fill="none" stroke="#ff0099"/>
<g stroke="#ff0099" stroke-width="1" fill="#ff0099">
<circle cx=" 227" cy=" 440" r=" 1.5"/>
</g>
<path d="M231,437h 2" fill="none" stroke="#ff0099"/>
<path d="M235,437h 3" fill="none" stroke="#ff0099"/>
<g stroke="#ff0099" stroke-width="1" fill="#ff0099">
<circle cx=" 234" cy=" 437" r=" 1.5"/>
</g>
<path d="M242,439" fill="none" stroke="#ff0099"/>
<path d="M242,437" fill="none" stroke="#ff0099"/>
<path d="M238,438h 3" fill="none" stroke="#ff0099"/>
<path d="M243,438h 3" fill="none" stroke="#ff0099"/>
<g stroke="#ff0099" stroke-width="1" fill="#ff0099">
<circle cx=" 242" cy=" 438" r=" 1.5"/>
</g>
<path d="M249,439v -1" fill="none" stroke="#ff0099"/>
<path d="M249,436" fill="none" stroke="#ff0099"/>
<path d="M246,437h 2" fill="none" stroke="#ff0099"/>
<path d="M251,437h 2" fill="none" stroke="#ff0099"/>
<g stroke="#ff0099" stroke-width="1" fill="#ff0099">
<circle cx=" 249" cy=" 437" r=" 1.5"/>
</g>
<path d="M257,435" fill="none" stroke="#ff0099"/>
<path d="M257,433v -1" fill="none" stroke="#ff0099"/>
<path d="M253,434h 3" fill="none" stroke="#ff0099"/>
<path d="M258,434h 3" fill="none" stroke="#ff0099"/>
<g stroke="#ff0099" stroke-width="1" fill="#ff0099">
<circle cx=" 257" cy=" 434" r=" 1.5"/>
</g>
<path d="M265,435" fill="none" stroke="#ff0099"/>
<path d="M265,432" fill="none" stroke="#ff0099"/>
<path d="M261,434h 2" fill="none" stroke="#ff0099"/>
<path d="M266,434h 2" fill="none" stroke="#ff0099"/>
<g stroke="#ff0099" stroke-width="1" fill="#ff0099">
<circle cx=" 265" cy=" 434" r=" 1.5"/>
</g>
<path d="M272,434v -1" fill="none" stroke="#ff0099"/>
<path d="M272,431v -1" fill="none" stroke="#ff0099"/>
<path d="M268,432h 3" fill="none" stroke="#ff0099"/>
<path d="M273,432h 3" fill="none" stroke="#ff0099"/>
<g stroke="#ff0099" stroke-width="1" fill="#ff0099">
<circle cx=" 272" cy=" 432" r=" 1.5"/>
</g>
<path d="M280,435v -1" fill="none" stroke="#ff0099"/>
<path d="M280,432v -1" fill="none" stroke="#ff0099"/>
<path d="M276,433h 3" fill="none" stroke="#ff0099"/>
<path d="M281,433h 2" fill="none" stroke="#ff0099"/>
<g stroke="#ff0099" stroke-width="1" fill="#ff0099">
<circle cx=" 280" cy=" 433" r=" 1.5"/>
</g>
<path d="M287,437v -1" fill="none" stroke="#ff0099"/>
<path d="M287,434v -1" fill="none" stroke="#ff0099"/>
<path d="M283,435h 3" fill="none" stroke="#ff0099"/>
<path d="M288,435h 3" fill="none" stroke="#ff0099"/>
<g stroke="#ff0099" stroke-width="1" fill="#ff0099">
<circle cx=" 287" cy=" 435" r=" 1.5"/>
</g>
<path d="M295,437v -2" fill="none" stroke="#ff0099"/>
<path d="M295,433v -1" fill="none" stroke="#ff0099"/>
<path d="M291,434h 3" fill="none" stroke="#ff0099"/>
<path d="M296,434h 3" fill="none" stroke="#ff0099"/>
<g stroke="#ff0099" stroke-width="1" fill="#ff0099">
<circle cx=" 295" cy=" 434" r=" 1.5"/>
</g>
<path d="M302,437v -2" fill="none" stroke="#ff0099"/>
<path d="M302,433v -1" fill="none" stroke="#ff0099"/>
<path d="M299,434h 2" fill="none" stroke="#ff0099"/>
<path d="M304,434h 2" fill="none" stroke="#ff0099"/>
<g stroke="#ff0099" stroke-width="1" fill="#ff0099">
<circle cx=" 302" cy=" 434" r=" 1.5"/>
</g>
<path d="M57,466h 453" fill="none" stroke="black"/>
<text x="479" y="486" fill="black" font-size="11" font-family="Helvetica" font-weight="bold">
 (GeV)
</text>
<text x="474" y="493" fill="black" font-size="7" font-family="Helvetica" font-weight="bold">
T
</text>
<text x="464" y="486" fill="black" font-size="11" font-family="Helvetica" font-weight="bold">
 p
</text>
<text x="459" y="486" fill="black" font-size="11" font-family="Times">
&#0947;
</text>
<path d="M57,463v 3" fill="none" stroke="black"/>
<path d="M72,464v 2" fill="none" stroke="black"/>
<path d="M87,464v 2" fill="none" stroke="black"/>
<path d="M102,464v 2" fill="none" stroke="black"/>
<path d="M117,464v 2" fill="none" stroke="black"/>
<path d="M132,463v 3" fill="none" stroke="black"/>
<path d="M147,464v 2" fill="none" stroke="black"/>
<path d="M163,464v 2" fill="none" stroke="black"/>
<path d="M178,464v 2" fill="none" stroke="black"/>
<path d="M193,464v 2" fill="none" stroke="black"/>
<path d="M208,463v 3" fill="none" stroke="black"/>
<path d="M223,464v 2" fill="none" stroke="black"/>
<path d="M238,464v 2" fill="none" stroke="black"/>
<path d="M253,464v 2" fill="none" stroke="black"/>
<path d="M268,464v 2" fill="none" stroke="black"/>
<path d="M283,463v 3" fill="none" stroke="black"/>
<path d="M299,464v 2" fill="none" stroke="black"/>
<path d="M314,464v 2" fill="none" stroke="black"/>
<path d="M329,464v 2" fill="none" stroke="black"/>
<path d="M344,464v 2" fill="none" stroke="black"/>
<path d="M359,463v 3" fill="none" stroke="black"/>
<path d="M374,464v 2" fill="none" stroke="black"/>
<path d="M389,464v 2" fill="none" stroke="black"/>
<path d="M404,464v 2" fill="none" stroke="black"/>
<path d="M420,464v 2" fill="none" stroke="black"/>
<path d="M435,463v 3" fill="none" stroke="black"/>
<path d="M450,464v 2" fill="none" stroke="black"/>
<path d="M465,464v 2" fill="none" stroke="black"/>
<path d="M480,464v 2" fill="none" stroke="black"/>
<path d="M495,464v 2" fill="none" stroke="black"/>
<path d="M510,463v 3" fill="none" stroke="black"/>
<text x="54" y="475" fill="black" font-size="10" font-family="Helvetica" font-weight="bold">
0
</text>
<text x="126" y="475" fill="black" font-size="10" font-family="Helvetica" font-weight="bold">
50
</text>
<text x="200" y="475" fill="black" font-size="10" font-family="Helvetica" font-weight="bold">
100
</text>
<text x="275" y="475" fill="black" font-size="10" font-family="Helvetica" font-weight="bold">
150
</text>
<text x="351" y="475" fill="black" font-size="10" font-family="Helvetica" font-weight="bold">
200
</text>
<text x="426" y="475" fill="black" font-size="10" font-family="Helvetica" font-weight="bold">
250
</text>
<text x="502" y="475" fill="black" font-size="10" font-family="Helvetica" font-weight="bold">
300
</text>
<path d="M57,466v -104" fill="none" stroke="black"/>
<g transform="rotate(-90,34,365)">
<text x="34" y="365" fill="black" font-size="11" font-family="Helvetica" font-weight="bold">
)
</text>
</g>
<g transform="rotate(-90,34,371)">
<text x="34" y="371" fill="black" font-size="11" font-family="Times">
&#0947;
</text>
</g>
<g transform="rotate(-90,34,424)">
<text x="34" y="424" fill="black" font-size="11" font-family="Helvetica" font-weight="bold">
MC(e)/MC(
</text>
</g>
<path d="M69,455h -12" fill="none" stroke="black"/>
<path d="M63,451h -6" fill="none" stroke="black"/>
<path d="M63,448h -6" fill="none" stroke="black"/>
<path d="M63,444h -6" fill="none" stroke="black"/>
<path d="M63,440h -6" fill="none" stroke="black"/>
<path d="M69,436h -12" fill="none" stroke="black"/>
<path d="M63,433h -6" fill="none" stroke="black"/>
<path d="M63,429h -6" fill="none" stroke="black"/>
<path d="M63,425h -6" fill="none" stroke="black"/>
<path d="M63,422h -6" fill="none" stroke="black"/>
<path d="M69,418h -12" fill="none" stroke="black"/>
<path d="M63,414h -6" fill="none" stroke="black"/>
<path d="M63,410h -6" fill="none" stroke="black"/>
<path d="M63,407h -6" fill="none" stroke="black"/>
<path d="M63,403h -6" fill="none" stroke="black"/>
<path d="M69,399h -12" fill="none" stroke="black"/>
<path d="M63,395h -6" fill="none" stroke="black"/>
<path d="M63,392h -6" fill="none" stroke="black"/>
<path d="M63,388h -6" fill="none" stroke="black"/>
<path d="M63,384h -6" fill="none" stroke="black"/>
<path d="M69,381h -12" fill="none" stroke="black"/>
<path d="M63,377h -6" fill="none" stroke="black"/>
<path d="M63,373h -6" fill="none" stroke="black"/>
<path d="M63,369h -6" fill="none" stroke="black"/>
<path d="M63,366h -6" fill="none" stroke="black"/>
<path d="M69,362h -12" fill="none" stroke="black"/>
<path d="M69,455h -12" fill="none" stroke="black"/>
<path d="M63,459h -6" fill="none" stroke="black"/>
<path d="M63,462h -6" fill="none" stroke="black"/>
<path d="M63,466h -6" fill="none" stroke="black"/>
<text x="40" y="459" fill="black" font-size="10" font-family="Helvetica" font-weight="bold">
0.5
</text>
<text x="50" y="440" fill="black" font-size="10" font-family="Helvetica" font-weight="bold">
1
</text>
<text x="40" y="421" fill="black" font-size="10" font-family="Helvetica" font-weight="bold">
1.5
</text>
<text x="48" y="403" fill="black" font-size="10" font-family="Helvetica" font-weight="bold">
2
</text>
<text x="40" y="384" fill="black" font-size="10" font-family="Helvetica" font-weight="bold">
2.5
</text>
<text x="48" y="366" fill="black" font-size="10" font-family="Helvetica" font-weight="bold">
3
</text>
<path d="M57,436h 453" fill="none" stroke="#0000ff" stroke-width="2"/>
<path d="M215,437h 3" fill="none" stroke="#ff0099"/>
<path d="M220,437h 3" fill="none" stroke="#ff0099"/>
<g stroke="#ff0099" stroke-width="1" fill="#ff0099">
<circle cx=" 219" cy=" 437" r=" 1.5"/>
</g>
<path d="M223,440h 3" fill="none" stroke="#ff0099"/>
<path d="M228,440h 3" fill="none" stroke="#ff0099"/>
<g stroke="#ff0099" stroke-width="1" fill="#ff0099">
<circle cx=" 227" cy=" 440" r=" 1.5"/>
</g>
<path d="M231,437h 2" fill="none" stroke="#ff0099"/>
<path d="M235,437h 3" fill="none" stroke="#ff0099"/>
<g stroke="#ff0099" stroke-width="1" fill="#ff0099">
<circle cx=" 234" cy=" 437" r=" 1.5"/>
</g>
<path d="M242,439" fill="none" stroke="#ff0099"/>
<path d="M242,437" fill="none" stroke="#ff0099"/>
<path d="M238,438h 3" fill="none" stroke="#ff0099"/>
<path d="M243,438h 3" fill="none" stroke="#ff0099"/>
<g stroke="#ff0099" stroke-width="1" fill="#ff0099">
<circle cx=" 242" cy=" 438" r=" 1.5"/>
</g>
<path d="M249,439v -1" fill="none" stroke="#ff0099"/>
<path d="M249,436" fill="none" stroke="#ff0099"/>
<path d="M246,437h 2" fill="none" stroke="#ff0099"/>
<path d="M251,437h 2" fill="none" stroke="#ff0099"/>
<g stroke="#ff0099" stroke-width="1" fill="#ff0099">
<circle cx=" 249" cy=" 437" r=" 1.5"/>
</g>
<path d="M257,435" fill="none" stroke="#ff0099"/>
<path d="M257,433v -1" fill="none" stroke="#ff0099"/>
<path d="M253,434h 3" fill="none" stroke="#ff0099"/>
<path d="M258,434h 3" fill="none" stroke="#ff0099"/>
<g stroke="#ff0099" stroke-width="1" fill="#ff0099">
<circle cx=" 257" cy=" 434" r=" 1.5"/>
</g>
<path d="M265,435" fill="none" stroke="#ff0099"/>
<path d="M265,432" fill="none" stroke="#ff0099"/>
<path d="M261,434h 2" fill="none" stroke="#ff0099"/>
<path d="M266,434h 2" fill="none" stroke="#ff0099"/>
<g stroke="#ff0099" stroke-width="1" fill="#ff0099">
<circle cx=" 265" cy=" 434" r=" 1.5"/>
</g>
<path d="M272,434v -1" fill="none" stroke="#ff0099"/>
<path d="M272,431v -1" fill="none" stroke="#ff0099"/>
<path d="M268,432h 3" fill="none" stroke="#ff0099"/>
<path d="M273,432h 3" fill="none" stroke="#ff0099"/>
<g stroke="#ff0099" stroke-width="1" fill="#ff0099">
<circle cx=" 272" cy=" 432" r=" 1.5"/>
</g>
<path d="M280,435v -1" fill="none" stroke="#ff0099"/>
<path d="M280,432v -1" fill="none" stroke="#ff0099"/>
<path d="M276,433h 3" fill="none" stroke="#ff0099"/>
<path d="M281,433h 2" fill="none" stroke="#ff0099"/>
<g stroke="#ff0099" stroke-width="1" fill="#ff0099">
<circle cx=" 280" cy=" 433" r=" 1.5"/>
</g>
<path d="M287,437v -1" fill="none" stroke="#ff0099"/>
<path d="M287,434v -1" fill="none" stroke="#ff0099"/>
<path d="M283,435h 3" fill="none" stroke="#ff0099"/>
<path d="M288,435h 3" fill="none" stroke="#ff0099"/>
<g stroke="#ff0099" stroke-width="1" fill="#ff0099">
<circle cx=" 287" cy=" 435" r=" 1.5"/>
</g>
<path d="M295,437v -2" fill="none" stroke="#ff0099"/>
<path d="M295,433v -1" fill="none" stroke="#ff0099"/>
<path d="M291,434h 3" fill="none" stroke="#ff0099"/>
<path d="M296,434h 3" fill="none" stroke="#ff0099"/>
<g stroke="#ff0099" stroke-width="1" fill="#ff0099">
<circle cx=" 295" cy=" 434" r=" 1.5"/>
</g>
<path d="M302,437v -2" fill="none" stroke="#ff0099"/>
<path d="M302,433v -1" fill="none" stroke="#ff0099"/>
<path d="M299,434h 2" fill="none" stroke="#ff0099"/>
<path d="M304,434h 2" fill="none" stroke="#ff0099"/>
<g stroke="#ff0099" stroke-width="1" fill="#ff0099">
<circle cx=" 302" cy=" 434" r=" 1.5"/>
</g></svg>
