<?xml version="1.0" standalone="no"?>
<svg width="567" height="496" viewBox="0 0 567 496" xmlns="http://www.w3.org/2000/svg">
<title>
plots_mcZee_mcGJet_withEtaR9rhoIsoReweight/hlt150/combinedPfIsoFPR03PhotEE.svg
</title>
<desc>
Creator: ROOT Version 5.32/00
CreationDate: Sun Nov 30 15:46:50 2014</desc>
<defs>
</defs>
<rect x="0" y="0" width="567" height="496" fill="white"/>
<rect x="74" y="44" width="453" height="402" fill="white"/>
<rect x="74" y="44" width="453" height="402" fill="none" stroke="black"/>
<rect x="74" y="44" width="453" height="402" fill="white"/>
<rect x="74" y="44" width="453" height="402" fill="none" stroke="black"/>
<path d="M77,366v -9" fill="none" stroke="#ff0099"/>
<path d="M77,355v -8" fill="none" stroke="#ff0099"/>
<path d="M74,356h 2" fill="none" stroke="#ff0099"/>
<path d="M79,356h 2" fill="none" stroke="#ff0099"/>
<g stroke="#ff0099" stroke-width="1" fill="#ff0099">
<circle cx=" 77" cy=" 356" r=" 1.5"/>
</g>
<path d="M85,369v -6" fill="none" stroke="#ff0099"/>
<path d="M85,361v -6" fill="none" stroke="#ff0099"/>
<path d="M81,362h 3" fill="none" stroke="#ff0099"/>
<path d="M86,362h 3" fill="none" stroke="#ff0099"/>
<g stroke="#ff0099" stroke-width="1" fill="#ff0099">
<circle cx=" 85" cy=" 362" r=" 1.5"/>
</g>
<path d="M93,349v -9" fill="none" stroke="#ff0099"/>
<path d="M93,338v -9" fill="none" stroke="#ff0099"/>
<path d="M89,339h 2" fill="none" stroke="#ff0099"/>
<path d="M94,339h 2" fill="none" stroke="#ff0099"/>
<g stroke="#ff0099" stroke-width="1" fill="#ff0099">
<circle cx=" 93" cy=" 339" r=" 1.5"/>
</g>
<path d="M100,333v -8" fill="none" stroke="#ff0099"/>
<path d="M100,322v -8" fill="none" stroke="#ff0099"/>
<path d="M96,323h 3" fill="none" stroke="#ff0099"/>
<path d="M101,323h 3" fill="none" stroke="#ff0099"/>
<g stroke="#ff0099" stroke-width="1" fill="#ff0099">
<circle cx=" 100" cy=" 323" r=" 1.5"/>
</g>
<path d="M108,298v -11" fill="none" stroke="#ff0099"/>
<path d="M108,285v -11" fill="none" stroke="#ff0099"/>
<path d="M104,286h 3" fill="none" stroke="#ff0099"/>
<path d="M109,286h 2" fill="none" stroke="#ff0099"/>
<g stroke="#ff0099" stroke-width="1" fill="#ff0099">
<circle cx=" 108" cy=" 286" r=" 1.5"/>
</g>
<path d="M115,260v -13" fill="none" stroke="#ff0099"/>
<path d="M115,244v -14" fill="none" stroke="#ff0099"/>
<path d="M111,245h 3" fill="none" stroke="#ff0099"/>
<path d="M116,245h 3" fill="none" stroke="#ff0099"/>
<g stroke="#ff0099" stroke-width="1" fill="#ff0099">
<circle cx=" 115" cy=" 245" r=" 1.5"/>
</g>
<path d="M123,252v -12" fill="none" stroke="#ff0099"/>
<path d="M123,238v -12" fill="none" stroke="#ff0099"/>
<path d="M119,239h 3" fill="none" stroke="#ff0099"/>
<path d="M124,239h 3" fill="none" stroke="#ff0099"/>
<g stroke="#ff0099" stroke-width="1" fill="#ff0099">
<circle cx=" 123" cy=" 239" r=" 1.5"/>
</g>
<path d="M130,214v -11" fill="none" stroke="#ff0099"/>
<path d="M130,201v -11" fill="none" stroke="#ff0099"/>
<path d="M127,202h 2" fill="none" stroke="#ff0099"/>
<path d="M132,202h 2" fill="none" stroke="#ff0099"/>
<g stroke="#ff0099" stroke-width="1" fill="#ff0099">
<circle cx=" 130" cy=" 202" r=" 1.5"/>
</g>
<path d="M138,114v -16" fill="none" stroke="#ff0099"/>
<path d="M138,96v -15" fill="none" stroke="#ff0099"/>
<path d="M134,97h 3" fill="none" stroke="#ff0099"/>
<path d="M139,97h 3" fill="none" stroke="#ff0099"/>
<g stroke="#ff0099" stroke-width="1" fill="#ff0099">
<circle cx=" 138" cy=" 97" r=" 1.5"/>
</g>
<path d="M146,148v -11" fill="none" stroke="#ff0099"/>
<path d="M146,134v -11" fill="none" stroke="#ff0099"/>
<path d="M142,136h 2" fill="none" stroke="#ff0099"/>
<path d="M147,136h 2" fill="none" stroke="#ff0099"/>
<g stroke="#ff0099" stroke-width="1" fill="#ff0099">
<circle cx=" 146" cy=" 136" r=" 1.5"/>
</g>
<path d="M153,99v -14" fill="none" stroke="#ff0099"/>
<path d="M153,82v -14" fill="none" stroke="#ff0099"/>
<path d="M149,84h 3" fill="none" stroke="#ff0099"/>
<path d="M154,84h 3" fill="none" stroke="#ff0099"/>
<g stroke="#ff0099" stroke-width="1" fill="#ff0099">
<circle cx=" 153" cy=" 84" r=" 1.5"/>
</g>
<path d="M161,91v -13" fill="none" stroke="#ff0099"/>
<path d="M161,76v -13" fill="none" stroke="#ff0099"/>
<path d="M157,77h 2" fill="none" stroke="#ff0099"/>
<path d="M162,77h 2" fill="none" stroke="#ff0099"/>
<g stroke="#ff0099" stroke-width="1" fill="#ff0099">
<circle cx=" 161" cy=" 77" r=" 1.5"/>
</g>
<path d="M168,161v -11" fill="none" stroke="#ff0099"/>
<path d="M168,148v -11" fill="none" stroke="#ff0099"/>
<path d="M164,149h 3" fill="none" stroke="#ff0099"/>
<path d="M169,149h 3" fill="none" stroke="#ff0099"/>
<g stroke="#ff0099" stroke-width="1" fill="#ff0099">
<circle cx=" 168" cy=" 149" r=" 1.5"/>
</g>
<path d="M176,239v -9" fill="none" stroke="#ff0099"/>
<path d="M176,228v -8" fill="none" stroke="#ff0099"/>
<path d="M172,229h 3" fill="none" stroke="#ff0099"/>
<path d="M177,229h 3" fill="none" stroke="#ff0099"/>
<g stroke="#ff0099" stroke-width="1" fill="#ff0099">
<circle cx=" 176" cy=" 229" r=" 1.5"/>
</g>
<path d="M183,274v -8" fill="none" stroke="#ff0099"/>
<path d="M183,263v -8" fill="none" stroke="#ff0099"/>
<path d="M180,264h 2" fill="none" stroke="#ff0099"/>
<path d="M184,264h 3" fill="none" stroke="#ff0099"/>
<g stroke="#ff0099" stroke-width="1" fill="#ff0099">
<circle cx=" 183" cy=" 264" r=" 1.5"/>
</g>
<path d="M191,330v -7" fill="none" stroke="#ff0099"/>
<path d="M191,321v -7" fill="none" stroke="#ff0099"/>
<path d="M187,322h 3" fill="none" stroke="#ff0099"/>
<path d="M192,322h 3" fill="none" stroke="#ff0099"/>
<g stroke="#ff0099" stroke-width="1" fill="#ff0099">
<circle cx=" 191" cy=" 322" r=" 1.5"/>
</g>
<path d="M198,358v -5" fill="none" stroke="#ff0099"/>
<path d="M198,350v -4" fill="none" stroke="#ff0099"/>
<path d="M195,352h 2" fill="none" stroke="#ff0099"/>
<path d="M200,352h 2" fill="none" stroke="#ff0099"/>
<g stroke="#ff0099" stroke-width="1" fill="#ff0099">
<circle cx=" 198" cy=" 352" r=" 1.5"/>
</g>
<path d="M206,386v -4" fill="none" stroke="#ff0099"/>
<path d="M206,380v -4" fill="none" stroke="#ff0099"/>
<path d="M202,381h 3" fill="none" stroke="#ff0099"/>
<path d="M207,381h 3" fill="none" stroke="#ff0099"/>
<g stroke="#ff0099" stroke-width="1" fill="#ff0099">
<circle cx=" 206" cy=" 381" r=" 1.5"/>
</g>
<path d="M214,389v -5" fill="none" stroke="#ff0099"/>
<path d="M214,382v -6" fill="none" stroke="#ff0099"/>
<path d="M210,383h 2" fill="none" stroke="#ff0099"/>
<path d="M215,383h 2" fill="none" stroke="#ff0099"/>
<g stroke="#ff0099" stroke-width="1" fill="#ff0099">
<circle cx=" 214" cy=" 383" r=" 1.5"/>
</g>
<path d="M221,405v -3" fill="none" stroke="#ff0099"/>
<path d="M221,400v -3" fill="none" stroke="#ff0099"/>
<path d="M217,401h 3" fill="none" stroke="#ff0099"/>
<path d="M222,401h 3" fill="none" stroke="#ff0099"/>
<g stroke="#ff0099" stroke-width="1" fill="#ff0099">
<circle cx=" 221" cy=" 401" r=" 1.5"/>
</g>
<path d="M229,413v -1" fill="none" stroke="#ff0099"/>
<path d="M229,409v -1" fill="none" stroke="#ff0099"/>
<path d="M225,410h 3" fill="none" stroke="#ff0099"/>
<path d="M230,410h 2" fill="none" stroke="#ff0099"/>
<g stroke="#ff0099" stroke-width="1" fill="#ff0099">
<circle cx=" 229" cy=" 410" r=" 1.5"/>
</g>
<path d="M236,413v -1" fill="none" stroke="#ff0099"/>
<path d="M236,410v -2" fill="none" stroke="#ff0099"/>
<path d="M232,411h 3" fill="none" stroke="#ff0099"/>
<path d="M237,411h 3" fill="none" stroke="#ff0099"/>
<g stroke="#ff0099" stroke-width="1" fill="#ff0099">
<circle cx=" 236" cy=" 411" r=" 1.5"/>
</g>
<path d="M244,417" fill="none" stroke="#ff0099"/>
<path d="M244,414" fill="none" stroke="#ff0099"/>
<path d="M240,416h 3" fill="none" stroke="#ff0099"/>
<path d="M245,416h 3" fill="none" stroke="#ff0099"/>
<g stroke="#ff0099" stroke-width="1" fill="#ff0099">
<circle cx=" 244" cy=" 416" r=" 1.5"/>
</g>
<path d="M251,419v -3" fill="none" stroke="#ff0099"/>
<path d="M251,414v -3" fill="none" stroke="#ff0099"/>
<path d="M248,415h 2" fill="none" stroke="#ff0099"/>
<path d="M252,415h 3" fill="none" stroke="#ff0099"/>
<g stroke="#ff0099" stroke-width="1" fill="#ff0099">
<circle cx=" 251" cy=" 415" r=" 1.5"/>
</g>
<path d="M259,421v -2" fill="none" stroke="#ff0099"/>
<path d="M259,417v -3" fill="none" stroke="#ff0099"/>
<path d="M255,418h 3" fill="none" stroke="#ff0099"/>
<path d="M260,418h 3" fill="none" stroke="#ff0099"/>
<g stroke="#ff0099" stroke-width="1" fill="#ff0099">
<circle cx=" 259" cy=" 418" r=" 1.5"/>
</g>
<path d="M266,423v -1" fill="none" stroke="#ff0099"/>
<path d="M266,419v -1" fill="none" stroke="#ff0099"/>
<path d="M263,420h 2" fill="none" stroke="#ff0099"/>
<path d="M268,420h 2" fill="none" stroke="#ff0099"/>
<g stroke="#ff0099" stroke-width="1" fill="#ff0099">
<circle cx=" 266" cy=" 420" r=" 1.5"/>
</g>
<path d="M274,424" fill="none" stroke="#ff0099"/>
<path d="M274,421" fill="none" stroke="#ff0099"/>
<path d="M270,423h 3" fill="none" stroke="#ff0099"/>
<path d="M275,423h 3" fill="none" stroke="#ff0099"/>
<g stroke="#ff0099" stroke-width="1" fill="#ff0099">
<circle cx=" 274" cy=" 423" r=" 1.5"/>
</g>
<path d="M278,425h 2" fill="none" stroke="#ff0099"/>
<path d="M283,425h 2" fill="none" stroke="#ff0099"/>
<g stroke="#ff0099" stroke-width="1" fill="#ff0099">
<circle cx=" 282" cy=" 425" r=" 1.5"/>
</g>
<path d="M285,425h 3" fill="none" stroke="#ff0099"/>
<path d="M290,425h 3" fill="none" stroke="#ff0099"/>
<g stroke="#ff0099" stroke-width="1" fill="#ff0099">
<circle cx=" 289" cy=" 425" r=" 1.5"/>
</g>
<path d="M297,425" fill="none" stroke="#ff0099"/>
<path d="M297,423v -1" fill="none" stroke="#ff0099"/>
<path d="M293,424h 3" fill="none" stroke="#ff0099"/>
<path d="M298,424h 2" fill="none" stroke="#ff0099"/>
<g stroke="#ff0099" stroke-width="1" fill="#ff0099">
<circle cx=" 297" cy=" 424" r=" 1.5"/>
</g>
<path d="M304,426v -9" fill="none" stroke="#ff0099"/>
<path d="M304,414v -10" fill="none" stroke="#ff0099"/>
<path d="M300,415h 3" fill="none" stroke="#ff0099"/>
<path d="M305,415h 3" fill="none" stroke="#ff0099"/>
<g stroke="#ff0099" stroke-width="1" fill="#ff0099">
<circle cx=" 304" cy=" 415" r=" 1.5"/>
</g>
<path d="M312,427v -1" fill="none" stroke="#ff0099"/>
<path d="M312,424" fill="none" stroke="#ff0099"/>
<path d="M308,425h 3" fill="none" stroke="#ff0099"/>
<path d="M313,425h 3" fill="none" stroke="#ff0099"/>
<g stroke="#ff0099" stroke-width="1" fill="#ff0099">
<circle cx=" 312" cy=" 425" r=" 1.5"/>
</g>
<path d="M319,425v -2" fill="none" stroke="#ff0099"/>
<path d="M319,421v -3" fill="none" stroke="#ff0099"/>
<path d="M316,422h 2" fill="none" stroke="#ff0099"/>
<path d="M321,422h 2" fill="none" stroke="#ff0099"/>
<g stroke="#ff0099" stroke-width="1" fill="#ff0099">
<circle cx=" 319" cy=" 422" r=" 1.5"/>
</g>
<path d="M323,428h 3" fill="none" stroke="#ff0099"/>
<path d="M328,428h 3" fill="none" stroke="#ff0099"/>
<g stroke="#ff0099" stroke-width="1" fill="#ff0099">
<circle cx=" 327" cy=" 428" r=" 1.5"/>
</g>
<path d="M331,428h 2" fill="none" stroke="#ff0099"/>
<path d="M336,428h 2" fill="none" stroke="#ff0099"/>
<g stroke="#ff0099" stroke-width="1" fill="#ff0099">
<circle cx=" 334" cy=" 428" r=" 1.5"/>
</g>
<path d="M338,428h 3" fill="none" stroke="#ff0099"/>
<path d="M343,428h 3" fill="none" stroke="#ff0099"/>
<g stroke="#ff0099" stroke-width="1" fill="#ff0099">
<circle cx=" 342" cy=" 428" r=" 1.5"/>
</g>
<path d="M350,427" fill="none" stroke="#ff0099"/>
<path d="M350,424" fill="none" stroke="#ff0099"/>
<path d="M346,425h 2" fill="none" stroke="#ff0099"/>
<path d="M351,425h 2" fill="none" stroke="#ff0099"/>
<g stroke="#ff0099" stroke-width="1" fill="#ff0099">
<circle cx=" 350" cy=" 425" r=" 1.5"/>
</g>
<path d="M353,428h 3" fill="none" stroke="#ff0099"/>
<path d="M358,428h 3" fill="none" stroke="#ff0099"/>
<g stroke="#ff0099" stroke-width="1" fill="#ff0099">
<circle cx=" 357" cy=" 428" r=" 1.5"/>
</g>
<path d="M376,428h 3" fill="none" stroke="#ff0099"/>
<path d="M381,428h 3" fill="none" stroke="#ff0099"/>
<g stroke="#ff0099" stroke-width="1" fill="#ff0099">
<circle cx=" 380" cy=" 428" r=" 1.5"/>
</g>
<path d="M391,428h 3" fill="none" stroke="#ff0099"/>
<path d="M396,428h 3" fill="none" stroke="#ff0099"/>
<g stroke="#ff0099" stroke-width="1" fill="#ff0099">
<circle cx=" 395" cy=" 428" r=" 1.5"/>
</g>
<path d="M399,428h 2" fill="none" stroke="#ff0099"/>
<path d="M404,428h 2" fill="none" stroke="#ff0099"/>
<g stroke="#ff0099" stroke-width="1" fill="#ff0099">
<circle cx=" 403" cy=" 428" r=" 1.5"/>
</g>
<path d="M414,428h 2" fill="none" stroke="#ff0099"/>
<path d="M419,428h 2" fill="none" stroke="#ff0099"/>
<g stroke="#ff0099" stroke-width="1" fill="#ff0099">
<circle cx=" 418" cy=" 428" r=" 1.5"/>
</g>
<path d="M421,428h 3" fill="none" stroke="#ff0099"/>
<path d="M426,428h 3" fill="none" stroke="#ff0099"/>
<g stroke="#ff0099" stroke-width="1" fill="#ff0099">
<circle cx=" 425" cy=" 428" r=" 1.5"/>
</g>
<path d="M478,428" fill="none" stroke="#ff0099"/>
<path d="M478,425" fill="none" stroke="#ff0099"/>
<path d="M474,427h 3" fill="none" stroke="#ff0099"/>
<path d="M479,427h 3" fill="none" stroke="#ff0099"/>
<g stroke="#ff0099" stroke-width="1" fill="#ff0099">
<circle cx=" 478" cy=" 427" r=" 1.5"/>
</g>
<path d="M74,446h 453" fill="none" stroke="black"/>
<path d="M96,434v 12" fill="none" stroke="black"/>
<path d="M108,440v 6" fill="none" stroke="black"/>
<path d="M119,440v 6" fill="none" stroke="black"/>
<path d="M130,440v 6" fill="none" stroke="black"/>
<path d="M142,434v 12" fill="none" stroke="black"/>
<path d="M153,440v 6" fill="none" stroke="black"/>
<path d="M164,440v 6" fill="none" stroke="black"/>
<path d="M176,440v 6" fill="none" stroke="black"/>
<path d="M187,434v 12" fill="none" stroke="black"/>
<path d="M198,440v 6" fill="none" stroke="black"/>
<path d="M210,440v 6" fill="none" stroke="black"/>
<path d="M221,440v 6" fill="none" stroke="black"/>
<path d="M232,434v 12" fill="none" stroke="black"/>
<path d="M244,440v 6" fill="none" stroke="black"/>
<path d="M255,440v 6" fill="none" stroke="black"/>
<path d="M266,440v 6" fill="none" stroke="black"/>
<path d="M278,434v 12" fill="none" stroke="black"/>
<path d="M289,440v 6" fill="none" stroke="black"/>
<path d="M300,440v 6" fill="none" stroke="black"/>
<path d="M312,440v 6" fill="none" stroke="black"/>
<path d="M323,434v 12" fill="none" stroke="black"/>
<path d="M334,440v 6" fill="none" stroke="black"/>
<path d="M346,440v 6" fill="none" stroke="black"/>
<path d="M357,440v 6" fill="none" stroke="black"/>
<path d="M369,434v 12" fill="none" stroke="black"/>
<path d="M380,440v 6" fill="none" stroke="black"/>
<path d="M391,440v 6" fill="none" stroke="black"/>
<path d="M403,440v 6" fill="none" stroke="black"/>
<path d="M414,434v 12" fill="none" stroke="black"/>
<path d="M425,440v 6" fill="none" stroke="black"/>
<path d="M437,440v 6" fill="none" stroke="black"/>
<path d="M448,440v 6" fill="none" stroke="black"/>
<path d="M459,434v 12" fill="none" stroke="black"/>
<path d="M471,440v 6" fill="none" stroke="black"/>
<path d="M482,440v 6" fill="none" stroke="black"/>
<path d="M493,440v 6" fill="none" stroke="black"/>
<path d="M505,434v 12" fill="none" stroke="black"/>
<path d="M96,434v 12" fill="none" stroke="black"/>
<path d="M85,440v 6" fill="none" stroke="black"/>
<path d="M74,440v 6" fill="none" stroke="black"/>
<path d="M505,434v 12" fill="none" stroke="black"/>
<path d="M516,440v 6" fill="none" stroke="black"/>
<text x="88" y="465" fill="black" font-size="18" font-family="Helvetica" font-weight="bold">
-4
</text>
<text x="134" y="465" fill="black" font-size="18" font-family="Helvetica" font-weight="bold">
-2
</text>
<text x="182" y="465" fill="black" font-size="18" font-family="Helvetica" font-weight="bold">
0
</text>
<text x="227" y="465" fill="black" font-size="18" font-family="Helvetica" font-weight="bold">
2
</text>
<text x="273" y="465" fill="black" font-size="18" font-family="Helvetica" font-weight="bold">
4
</text>
<text x="318" y="465" fill="black" font-size="18" font-family="Helvetica" font-weight="bold">
6
</text>
<text x="363" y="465" fill="black" font-size="18" font-family="Helvetica" font-weight="bold">
8
</text>
<text x="404" y="465" fill="black" font-size="18" font-family="Helvetica" font-weight="bold">
10
</text>
<text x="449" y="465" fill="black" font-size="18" font-family="Helvetica" font-weight="bold">
12
</text>
<text x="494" y="465" fill="black" font-size="18" font-family="Helvetica" font-weight="bold">
14
</text>
<path d="M74,44h 453" fill="none" stroke="black"/>
<path d="M96,56v -12" fill="none" stroke="black"/>
<path d="M108,50v -6" fill="none" stroke="black"/>
<path d="M119,50v -6" fill="none" stroke="black"/>
<path d="M130,50v -6" fill="none" stroke="black"/>
<path d="M142,56v -12" fill="none" stroke="black"/>
<path d="M153,50v -6" fill="none" stroke="black"/>
<path d="M164,50v -6" fill="none" stroke="black"/>
<path d="M176,50v -6" fill="none" stroke="black"/>
<path d="M187,56v -12" fill="none" stroke="black"/>
<path d="M198,50v -6" fill="none" stroke="black"/>
<path d="M210,50v -6" fill="none" stroke="black"/>
<path d="M221,50v -6" fill="none" stroke="black"/>
<path d="M232,56v -12" fill="none" stroke="black"/>
<path d="M244,50v -6" fill="none" stroke="black"/>
<path d="M255,50v -6" fill="none" stroke="black"/>
<path d="M266,50v -6" fill="none" stroke="black"/>
<path d="M278,56v -12" fill="none" stroke="black"/>
<path d="M289,50v -6" fill="none" stroke="black"/>
<path d="M300,50v -6" fill="none" stroke="black"/>
<path d="M312,50v -6" fill="none" stroke="black"/>
<path d="M323,56v -12" fill="none" stroke="black"/>
<path d="M334,50v -6" fill="none" stroke="black"/>
<path d="M346,50v -6" fill="none" stroke="black"/>
<path d="M357,50v -6" fill="none" stroke="black"/>
<path d="M369,56v -12" fill="none" stroke="black"/>
<path d="M380,50v -6" fill="none" stroke="black"/>
<path d="M391,50v -6" fill="none" stroke="black"/>
<path d="M403,50v -6" fill="none" stroke="black"/>
<path d="M414,56v -12" fill="none" stroke="black"/>
<path d="M425,50v -6" fill="none" stroke="black"/>
<path d="M437,50v -6" fill="none" stroke="black"/>
<path d="M448,50v -6" fill="none" stroke="black"/>
<path d="M459,56v -12" fill="none" stroke="black"/>
<path d="M471,50v -6" fill="none" stroke="black"/>
<path d="M482,50v -6" fill="none" stroke="black"/>
<path d="M493,50v -6" fill="none" stroke="black"/>
<path d="M505,56v -12" fill="none" stroke="black"/>
<path d="M96,56v -12" fill="none" stroke="black"/>
<path d="M85,50v -6" fill="none" stroke="black"/>
<path d="M74,50v -6" fill="none" stroke="black"/>
<path d="M505,56v -12" fill="none" stroke="black"/>
<path d="M516,50v -6" fill="none" stroke="black"/>
<path d="M74,446v -402" fill="none" stroke="black"/>
<path d="M87,428h -13" fill="none" stroke="black"/>
<path d="M81,411h -7" fill="none" stroke="black"/>
<path d="M81,394h -7" fill="none" stroke="black"/>
<path d="M81,376h -7" fill="none" stroke="black"/>
<path d="M87,359h -13" fill="none" stroke="black"/>
<path d="M81,342h -7" fill="none" stroke="black"/>
<path d="M81,324h -7" fill="none" stroke="black"/>
<path d="M81,307h -7" fill="none" stroke="black"/>
<path d="M87,290h -13" fill="none" stroke="black"/>
<path d="M81,272h -7" fill="none" stroke="black"/>
<path d="M81,255h -7" fill="none" stroke="black"/>
<path d="M81,238h -7" fill="none" stroke="black"/>
<path d="M87,221h -13" fill="none" stroke="black"/>
<path d="M81,203h -7" fill="none" stroke="black"/>
<path d="M81,186h -7" fill="none" stroke="black"/>
<path d="M81,169h -7" fill="none" stroke="black"/>
<path d="M87,151h -13" fill="none" stroke="black"/>
<path d="M81,134h -7" fill="none" stroke="black"/>
<path d="M81,117h -7" fill="none" stroke="black"/>
<path d="M81,100h -7" fill="none" stroke="black"/>
<path d="M87,82h -13" fill="none" stroke="black"/>
<path d="M87,428h -13" fill="none" stroke="black"/>
<path d="M81,445h -7" fill="none" stroke="black"/>
<path d="M87,82h -13" fill="none" stroke="black"/>
<path d="M81,65h -7" fill="none" stroke="black"/>
<path d="M81,48h -7" fill="none" stroke="black"/>
<text x="61" y="435" fill="black" font-size="18" font-family="Helvetica" font-weight="bold">
0
</text>
<text x="35" y="366" fill="black" font-size="18" font-family="Helvetica" font-weight="bold">
0.02
</text>
<text x="34" y="296" fill="black" font-size="18" font-family="Helvetica" font-weight="bold">
0.04
</text>
<text x="34" y="227" fill="black" font-size="18" font-family="Helvetica" font-weight="bold">
0.06
</text>
<text x="35" y="158" fill="black" font-size="18" font-family="Helvetica" font-weight="bold">
0.08
</text>
<text x="47" y="89" fill="black" font-size="18" font-family="Helvetica" font-weight="bold">
0.1
</text>
<path d="M77,394v -3" fill="none" stroke="#99ff99" stroke-width="2"/>
<path d="M77,391v -3" fill="none" stroke="#99ff99" stroke-width="2"/>
<g stroke="black" stroke-width="2" fill="none">
<line x1="76" y1="391" x2="77" y2="391"/>
</g>
<path d="M85,385" fill="none" stroke="#99ff99" stroke-width="2"/>
<path d="M85,385v -1" fill="none" stroke="#99ff99" stroke-width="2"/>
<g stroke="black" stroke-width="2" fill="none">
<line x1="84" y1="385" x2="85" y2="385"/>
</g>
<path d="M93,372v -1" fill="none" stroke="#99ff99" stroke-width="2"/>
<path d="M93,371v -1" fill="none" stroke="#99ff99" stroke-width="2"/>
<g stroke="black" stroke-width="2" fill="none">
<line x1="92" y1="371" x2="93" y2="371"/>
</g>
<path d="M100,354v -2" fill="none" stroke="#99ff99" stroke-width="2"/>
<path d="M100,352v -3" fill="none" stroke="#99ff99" stroke-width="2"/>
<g stroke="black" stroke-width="2" fill="none">
<line x1="99" y1="352" x2="100" y2="352"/>
</g>
<path d="M108,331v -1" fill="none" stroke="#99ff99" stroke-width="2"/>
<path d="M108,330v -1" fill="none" stroke="#99ff99" stroke-width="2"/>
<g stroke="black" stroke-width="2" fill="none">
<line x1="107" y1="330" x2="108" y2="330"/>
</g>
<path d="M115,301v -1" fill="none" stroke="#99ff99" stroke-width="2"/>
<path d="M115,300v -2" fill="none" stroke="#99ff99" stroke-width="2"/>
<g stroke="black" stroke-width="2" fill="none">
<line x1="114" y1="300" x2="115" y2="300"/>
</g>
<path d="M123,261v -4" fill="none" stroke="#99ff99" stroke-width="2"/>
<path d="M123,257v -4" fill="none" stroke="#99ff99" stroke-width="2"/>
<g stroke="black" stroke-width="2" fill="none">
<line x1="122" y1="257" x2="123" y2="257"/>
</g>
<path d="M130,211v -5" fill="none" stroke="#99ff99" stroke-width="2"/>
<path d="M130,206v -6" fill="none" stroke="#99ff99" stroke-width="2"/>
<g stroke="black" stroke-width="2" fill="none">
<line x1="129" y1="206" x2="130" y2="206"/>
</g>
<path d="M138,163v -5" fill="none" stroke="#99ff99" stroke-width="2"/>
<path d="M138,158v -5" fill="none" stroke="#99ff99" stroke-width="2"/>
<g stroke="black" stroke-width="2" fill="none">
<line x1="137" y1="158" x2="138" y2="158"/>
</g>
<path d="M146,117v -6" fill="none" stroke="#99ff99" stroke-width="2"/>
<path d="M146,111v -6" fill="none" stroke="#99ff99" stroke-width="2"/>
<g stroke="black" stroke-width="2" fill="none">
<line x1="145" y1="111" x2="146" y2="111"/>
</g>
<path d="M153,94v -4" fill="none" stroke="#99ff99" stroke-width="2"/>
<path d="M153,90v -3" fill="none" stroke="#99ff99" stroke-width="2"/>
<g stroke="black" stroke-width="2" fill="none">
<line x1="152" y1="90" x2="153" y2="90"/>
</g>
<path d="M161,85v -5" fill="none" stroke="#99ff99" stroke-width="2"/>
<path d="M161,80v -5" fill="none" stroke="#99ff99" stroke-width="2"/>
<g stroke="black" stroke-width="2" fill="none">
<line x1="160" y1="80" x2="161" y2="80"/>
</g>
<path d="M168,125v -5" fill="none" stroke="#99ff99" stroke-width="2"/>
<path d="M168,120v -5" fill="none" stroke="#99ff99" stroke-width="2"/>
<g stroke="black" stroke-width="2" fill="none">
<line x1="167" y1="120" x2="168" y2="120"/>
</g>
<path d="M176,187v -4" fill="none" stroke="#99ff99" stroke-width="2"/>
<path d="M176,183v -3" fill="none" stroke="#99ff99" stroke-width="2"/>
<g stroke="black" stroke-width="2" fill="none">
<line x1="175" y1="183" x2="176" y2="183"/>
</g>
<path d="M183,253v -2" fill="none" stroke="#99ff99" stroke-width="2"/>
<path d="M183,251v -1" fill="none" stroke="#99ff99" stroke-width="2"/>
<g stroke="black" stroke-width="2" fill="none">
<line x1="182" y1="251" x2="183" y2="251"/>
</g>
<path d="M191,291v -3" fill="none" stroke="#99ff99" stroke-width="2"/>
<path d="M191,288v -4" fill="none" stroke="#99ff99" stroke-width="2"/>
<g stroke="black" stroke-width="2" fill="none">
<line x1="190" y1="288" x2="191" y2="288"/>
</g>
<path d="M198,321v -3" fill="none" stroke="#99ff99" stroke-width="2"/>
<path d="M198,318v -4" fill="none" stroke="#99ff99" stroke-width="2"/>
<g stroke="black" stroke-width="2" fill="none">
<line x1="197" y1="318" x2="198" y2="318"/>
</g>
<path d="M206,351v -1" fill="none" stroke="#99ff99" stroke-width="2"/>
<path d="M206,350v -1" fill="none" stroke="#99ff99" stroke-width="2"/>
<g stroke="black" stroke-width="2" fill="none">
<line x1="205" y1="350" x2="206" y2="350"/>
</g>
<path d="M214,368v -1" fill="none" stroke="#99ff99" stroke-width="2"/>
<path d="M214,367v -1" fill="none" stroke="#99ff99" stroke-width="2"/>
<g stroke="black" stroke-width="2" fill="none">
<line x1="213" y1="367" x2="214" y2="367"/>
</g>
<path d="M221,381v -3" fill="none" stroke="#99ff99" stroke-width="2"/>
<path d="M221,378v -3" fill="none" stroke="#99ff99" stroke-width="2"/>
<g stroke="black" stroke-width="2" fill="none">
<line x1="220" y1="378" x2="221" y2="378"/>
</g>
<path d="M229,395v -1" fill="none" stroke="#99ff99" stroke-width="2"/>
<path d="M229,394v -1" fill="none" stroke="#99ff99" stroke-width="2"/>
<g stroke="black" stroke-width="2" fill="none">
<line x1="228" y1="394" x2="229" y2="394"/>
</g>
<path d="M236,401v -1" fill="none" stroke="#99ff99" stroke-width="2"/>
<path d="M236,400v -1" fill="none" stroke="#99ff99" stroke-width="2"/>
<g stroke="black" stroke-width="2" fill="none">
<line x1="235" y1="400" x2="236" y2="400"/>
</g>
<path d="M244,408v -1" fill="none" stroke="#99ff99" stroke-width="2"/>
<path d="M244,407v -1" fill="none" stroke="#99ff99" stroke-width="2"/>
<g stroke="black" stroke-width="2" fill="none">
<line x1="243" y1="407" x2="244" y2="407"/>
</g>
<path d="M251,411" fill="none" stroke="#99ff99" stroke-width="2"/>
<path d="M251,411v -1" fill="none" stroke="#99ff99" stroke-width="2"/>
<g stroke="black" stroke-width="2" fill="none">
<line x1="250" y1="411" x2="251" y2="411"/>
</g>
<path d="M259,415v -1" fill="none" stroke="#99ff99" stroke-width="2"/>
<path d="M259,414" fill="none" stroke="#99ff99" stroke-width="2"/>
<g stroke="black" stroke-width="2" fill="none">
<line x1="258" y1="414" x2="259" y2="414"/>
</g>
<path d="M266,417" fill="none" stroke="#99ff99" stroke-width="2"/>
<path d="M266,417v -1" fill="none" stroke="#99ff99" stroke-width="2"/>
<g stroke="black" stroke-width="2" fill="none">
<line x1="265" y1="417" x2="266" y2="417"/>
</g>
<path d="M274,420v -1" fill="none" stroke="#99ff99" stroke-width="2"/>
<path d="M274,419" fill="none" stroke="#99ff99" stroke-width="2"/>
<g stroke="black" stroke-width="2" fill="none">
<line x1="273" y1="419" x2="274" y2="419"/>
</g>
<path d="M282,421" fill="none" stroke="#99ff99" stroke-width="2"/>
<path d="M282,421" fill="none" stroke="#99ff99" stroke-width="2"/>
<g stroke="black" stroke-width="2" fill="none">
<line x1="281" y1="421" x2="282" y2="421"/>
</g>
<path d="M289,422" fill="none" stroke="#99ff99" stroke-width="2"/>
<path d="M289,422v -1" fill="none" stroke="#99ff99" stroke-width="2"/>
<g stroke="black" stroke-width="2" fill="none">
<line x1="288" y1="422" x2="289" y2="422"/>
</g>
<path d="M297,424v -1" fill="none" stroke="#99ff99" stroke-width="2"/>
<path d="M297,423" fill="none" stroke="#99ff99" stroke-width="2"/>
<g stroke="black" stroke-width="2" fill="none">
<line x1="296" y1="423" x2="297" y2="423"/>
</g>
<path d="M304,424" fill="none" stroke="#99ff99" stroke-width="2"/>
<path d="M304,424" fill="none" stroke="#99ff99" stroke-width="2"/>
<g stroke="black" stroke-width="2" fill="none">
<line x1="303" y1="424" x2="304" y2="424"/>
</g>
<path d="M312,425v -1" fill="none" stroke="#99ff99" stroke-width="2"/>
<path d="M312,424" fill="none" stroke="#99ff99" stroke-width="2"/>
<g stroke="black" stroke-width="2" fill="none">
<line x1="311" y1="424" x2="312" y2="424"/>
</g>
<path d="M319,425" fill="none" stroke="#99ff99" stroke-width="2"/>
<path d="M319,425" fill="none" stroke="#99ff99" stroke-width="2"/>
<g stroke="black" stroke-width="2" fill="none">
<line x1="318" y1="425" x2="319" y2="425"/>
</g>
<path d="M327,426" fill="none" stroke="#99ff99" stroke-width="2"/>
<path d="M327,426" fill="none" stroke="#99ff99" stroke-width="2"/>
<g stroke="black" stroke-width="2" fill="none">
<line x1="326" y1="426" x2="327" y2="426"/>
</g>
<path d="M334,426" fill="none" stroke="#99ff99" stroke-width="2"/>
<path d="M334,426" fill="none" stroke="#99ff99" stroke-width="2"/>
<g stroke="black" stroke-width="2" fill="none">
<line x1="333" y1="426" x2="334" y2="426"/>
</g>
<path d="M342,427" fill="none" stroke="#99ff99" stroke-width="2"/>
<path d="M342,427v -1" fill="none" stroke="#99ff99" stroke-width="2"/>
<g stroke="black" stroke-width="2" fill="none">
<line x1="341" y1="427" x2="342" y2="427"/>
</g>
<path d="M350,427" fill="none" stroke="#99ff99" stroke-width="2"/>
<path d="M350,427" fill="none" stroke="#99ff99" stroke-width="2"/>
<g stroke="black" stroke-width="2" fill="none">
<line x1="349" y1="427" x2="350" y2="427"/>
</g>
<path d="M357,427" fill="none" stroke="#99ff99" stroke-width="2"/>
<path d="M357,427" fill="none" stroke="#99ff99" stroke-width="2"/>
<g stroke="black" stroke-width="2" fill="none">
<line x1="356" y1="427" x2="357" y2="427"/>
</g>
<path d="M365,427" fill="none" stroke="#99ff99" stroke-width="2"/>
<path d="M365,427" fill="none" stroke="#99ff99" stroke-width="2"/>
<g stroke="black" stroke-width="2" fill="none">
<line x1="364" y1="427" x2="365" y2="427"/>
</g>
<path d="M372,427" fill="none" stroke="#99ff99" stroke-width="2"/>
<path d="M372,427" fill="none" stroke="#99ff99" stroke-width="2"/>
<g stroke="black" stroke-width="2" fill="none">
<line x1="371" y1="427" x2="372" y2="427"/>
</g>
<path d="M380,428v -1" fill="none" stroke="#99ff99" stroke-width="2"/>
<path d="M380,427" fill="none" stroke="#99ff99" stroke-width="2"/>
<g stroke="black" stroke-width="2" fill="none">
<line x1="379" y1="427" x2="380" y2="427"/>
</g>
<path d="M387,427" fill="none" stroke="#99ff99" stroke-width="2"/>
<path d="M387,427" fill="none" stroke="#99ff99" stroke-width="2"/>
<g stroke="black" stroke-width="2" fill="none">
<line x1="386" y1="427" x2="387" y2="427"/>
</g>
<path d="M395,428" fill="none" stroke="#99ff99" stroke-width="2"/>
<path d="M395,428" fill="none" stroke="#99ff99" stroke-width="2"/>
<g stroke="black" stroke-width="2" fill="none">
<line x1="394" y1="428" x2="395" y2="428"/>
</g>
<path d="M403,428" fill="none" stroke="#99ff99" stroke-width="2"/>
<path d="M403,428" fill="none" stroke="#99ff99" stroke-width="2"/>
<g stroke="black" stroke-width="2" fill="none">
<line x1="402" y1="428" x2="403" y2="428"/>
</g>
<path d="M410,428" fill="none" stroke="#99ff99" stroke-width="2"/>
<path d="M410,428v -1" fill="none" stroke="#99ff99" stroke-width="2"/>
<g stroke="black" stroke-width="2" fill="none">
<line x1="409" y1="428" x2="410" y2="428"/>
</g>
<path d="M418,428" fill="none" stroke="#99ff99" stroke-width="2"/>
<path d="M418,428" fill="none" stroke="#99ff99" stroke-width="2"/>
<g stroke="black" stroke-width="2" fill="none">
<line x1="417" y1="428" x2="418" y2="428"/>
</g>
<path d="M425,428" fill="none" stroke="#99ff99" stroke-width="2"/>
<path d="M425,428" fill="none" stroke="#99ff99" stroke-width="2"/>
<g stroke="black" stroke-width="2" fill="none">
<line x1="424" y1="428" x2="425" y2="428"/>
</g>
<path d="M433,428" fill="none" stroke="#99ff99" stroke-width="2"/>
<path d="M433,428" fill="none" stroke="#99ff99" stroke-width="2"/>
<g stroke="black" stroke-width="2" fill="none">
<line x1="432" y1="428" x2="433" y2="428"/>
</g>
<path d="M440,428" fill="none" stroke="#99ff99" stroke-width="2"/>
<path d="M440,428" fill="none" stroke="#99ff99" stroke-width="2"/>
<g stroke="black" stroke-width="2" fill="none">
<line x1="439" y1="428" x2="440" y2="428"/>
</g>
<path d="M448,428" fill="none" stroke="#99ff99" stroke-width="2"/>
<path d="M448,428" fill="none" stroke="#99ff99" stroke-width="2"/>
<g stroke="black" stroke-width="2" fill="none">
<line x1="447" y1="428" x2="448" y2="428"/>
</g>
<path d="M455,428" fill="none" stroke="#99ff99" stroke-width="2"/>
<path d="M455,428" fill="none" stroke="#99ff99" stroke-width="2"/>
<g stroke="black" stroke-width="2" fill="none">
<line x1="454" y1="428" x2="455" y2="428"/>
</g>
<path d="M463,428" fill="none" stroke="#99ff99" stroke-width="2"/>
<path d="M463,428" fill="none" stroke="#99ff99" stroke-width="2"/>
<g stroke="black" stroke-width="2" fill="none">
<line x1="462" y1="428" x2="463" y2="428"/>
</g>
<path d="M471,428" fill="none" stroke="#99ff99" stroke-width="2"/>
<path d="M471,428" fill="none" stroke="#99ff99" stroke-width="2"/>
<g stroke="black" stroke-width="2" fill="none">
<line x1="470" y1="428" x2="471" y2="428"/>
</g>
<path d="M478,428" fill="none" stroke="#99ff99" stroke-width="2"/>
<path d="M478,428" fill="none" stroke="#99ff99" stroke-width="2"/>
<g stroke="black" stroke-width="2" fill="none">
<line x1="477" y1="428" x2="478" y2="428"/>
</g>
<path d="M486,428" fill="none" stroke="#99ff99" stroke-width="2"/>
<path d="M486,428" fill="none" stroke="#99ff99" stroke-width="2"/>
<g stroke="black" stroke-width="2" fill="none">
<line x1="485" y1="428" x2="486" y2="428"/>
</g>
<path d="M493,428" fill="none" stroke="#99ff99" stroke-width="2"/>
<path d="M493,428" fill="none" stroke="#99ff99" stroke-width="2"/>
<g stroke="black" stroke-width="2" fill="none">
<line x1="492" y1="428" x2="493" y2="428"/>
</g>
<path d="M501,428" fill="none" stroke="#99ff99" stroke-width="2"/>
<path d="M501,428" fill="none" stroke="#99ff99" stroke-width="2"/>
<g stroke="black" stroke-width="2" fill="none">
<line x1="500" y1="428" x2="501" y2="428"/>
</g>
<path d="M508,428" fill="none" stroke="#99ff99" stroke-width="2"/>
<path d="M508,428" fill="none" stroke="#99ff99" stroke-width="2"/>
<g stroke="black" stroke-width="2" fill="none">
<line x1="507" y1="428" x2="508" y2="428"/>
</g>
<path d="M516,428" fill="none" stroke="#99ff99" stroke-width="2"/>
<path d="M516,428" fill="none" stroke="#99ff99" stroke-width="2"/>
<g stroke="black" stroke-width="2" fill="none">
<line x1="515" y1="428" x2="516" y2="428"/>
</g>
<path d="M523,428" fill="none" stroke="#99ff99" stroke-width="2"/>
<path d="M523,428" fill="none" stroke="#99ff99" stroke-width="2"/>
<g stroke="black" stroke-width="2" fill="none">
<line x1="522" y1="428" x2="523" y2="428"/>
</g>
<path d="M527,428h -453v -37h 7v -6h 8v -14h 7v -19h 8v -22h 7v -30h 8v -43h 8v -51h 7v -48h 8v -47h 7v -21h 8v -10h 7v 40h 8v 63h 8v 68h 7v 37h 8v 30h 7v 32h 8v 17h 7v 11h 8v 16h 7v 6h 8v 7h 8v 4h 7v 3h 8v 3h 7v 2h 8v 2h 7v 1h 8v 1h 7v 1h 16v 1h 7v
 1h 15v 1h 53v 1h 136z" fill="#99ff99"/>
<path d="M74,391h 7v -6h 8v -14h 7v -19h 8v -22h 7v -30h 8v -43h 8v -51h 7v -48h 8v -47h 7v -21h 8v -10h 7v 40h 8v 63h 8v 68h 7v 37h 8v 30h 7v 32h 8v 17h 7v 11h 8v 16h 7v 6h 8v 7h 8v 4h 7v 3h 8v 3h 7v 2h 8v 2h 7v 1h 8v 1h 7v 1h 16v 1h 7v 1h 15v 1h
 53v 1h 136" fill="none" stroke="#99ff99" stroke-width="2"/>
<path d="M77,366v -9" fill="none" stroke="#ff0099"/>
<path d="M77,355v -8" fill="none" stroke="#ff0099"/>
<path d="M74,356h 2" fill="none" stroke="#ff0099"/>
<path d="M79,356h 2" fill="none" stroke="#ff0099"/>
<g stroke="#ff0099" stroke-width="1" fill="#ff0099">
<circle cx=" 77" cy=" 356" r=" 1.5"/>
</g>
<path d="M85,369v -6" fill="none" stroke="#ff0099"/>
<path d="M85,361v -6" fill="none" stroke="#ff0099"/>
<path d="M81,362h 3" fill="none" stroke="#ff0099"/>
<path d="M86,362h 3" fill="none" stroke="#ff0099"/>
<g stroke="#ff0099" stroke-width="1" fill="#ff0099">
<circle cx=" 85" cy=" 362" r=" 1.5"/>
</g>
<path d="M93,349v -9" fill="none" stroke="#ff0099"/>
<path d="M93,338v -9" fill="none" stroke="#ff0099"/>
<path d="M89,339h 2" fill="none" stroke="#ff0099"/>
<path d="M94,339h 2" fill="none" stroke="#ff0099"/>
<g stroke="#ff0099" stroke-width="1" fill="#ff0099">
<circle cx=" 93" cy=" 339" r=" 1.5"/>
</g>
<path d="M100,333v -8" fill="none" stroke="#ff0099"/>
<path d="M100,322v -8" fill="none" stroke="#ff0099"/>
<path d="M96,323h 3" fill="none" stroke="#ff0099"/>
<path d="M101,323h 3" fill="none" stroke="#ff0099"/>
<g stroke="#ff0099" stroke-width="1" fill="#ff0099">
<circle cx=" 100" cy=" 323" r=" 1.5"/>
</g>
<path d="M108,298v -11" fill="none" stroke="#ff0099"/>
<path d="M108,285v -11" fill="none" stroke="#ff0099"/>
<path d="M104,286h 3" fill="none" stroke="#ff0099"/>
<path d="M109,286h 2" fill="none" stroke="#ff0099"/>
<g stroke="#ff0099" stroke-width="1" fill="#ff0099">
<circle cx=" 108" cy=" 286" r=" 1.5"/>
</g>
<path d="M115,260v -13" fill="none" stroke="#ff0099"/>
<path d="M115,244v -14" fill="none" stroke="#ff0099"/>
<path d="M111,245h 3" fill="none" stroke="#ff0099"/>
<path d="M116,245h 3" fill="none" stroke="#ff0099"/>
<g stroke="#ff0099" stroke-width="1" fill="#ff0099">
<circle cx=" 115" cy=" 245" r=" 1.5"/>
</g>
<path d="M123,252v -12" fill="none" stroke="#ff0099"/>
<path d="M123,238v -12" fill="none" stroke="#ff0099"/>
<path d="M119,239h 3" fill="none" stroke="#ff0099"/>
<path d="M124,239h 3" fill="none" stroke="#ff0099"/>
<g stroke="#ff0099" stroke-width="1" fill="#ff0099">
<circle cx=" 123" cy=" 239" r=" 1.5"/>
</g>
<path d="M130,214v -11" fill="none" stroke="#ff0099"/>
<path d="M130,201v -11" fill="none" stroke="#ff0099"/>
<path d="M127,202h 2" fill="none" stroke="#ff0099"/>
<path d="M132,202h 2" fill="none" stroke="#ff0099"/>
<g stroke="#ff0099" stroke-width="1" fill="#ff0099">
<circle cx=" 130" cy=" 202" r=" 1.5"/>
</g>
<path d="M138,114v -16" fill="none" stroke="#ff0099"/>
<path d="M138,96v -15" fill="none" stroke="#ff0099"/>
<path d="M134,97h 3" fill="none" stroke="#ff0099"/>
<path d="M139,97h 3" fill="none" stroke="#ff0099"/>
<g stroke="#ff0099" stroke-width="1" fill="#ff0099">
<circle cx=" 138" cy=" 97" r=" 1.5"/>
</g>
<path d="M146,148v -11" fill="none" stroke="#ff0099"/>
<path d="M146,134v -11" fill="none" stroke="#ff0099"/>
<path d="M142,136h 2" fill="none" stroke="#ff0099"/>
<path d="M147,136h 2" fill="none" stroke="#ff0099"/>
<g stroke="#ff0099" stroke-width="1" fill="#ff0099">
<circle cx=" 146" cy=" 136" r=" 1.5"/>
</g>
<path d="M153,99v -14" fill="none" stroke="#ff0099"/>
<path d="M153,82v -14" fill="none" stroke="#ff0099"/>
<path d="M149,84h 3" fill="none" stroke="#ff0099"/>
<path d="M154,84h 3" fill="none" stroke="#ff0099"/>
<g stroke="#ff0099" stroke-width="1" fill="#ff0099">
<circle cx=" 153" cy=" 84" r=" 1.5"/>
</g>
<path d="M161,91v -13" fill="none" stroke="#ff0099"/>
<path d="M161,76v -13" fill="none" stroke="#ff0099"/>
<path d="M157,77h 2" fill="none" stroke="#ff0099"/>
<path d="M162,77h 2" fill="none" stroke="#ff0099"/>
<g stroke="#ff0099" stroke-width="1" fill="#ff0099">
<circle cx=" 161" cy=" 77" r=" 1.5"/>
</g>
<path d="M168,161v -11" fill="none" stroke="#ff0099"/>
<path d="M168,148v -11" fill="none" stroke="#ff0099"/>
<path d="M164,149h 3" fill="none" stroke="#ff0099"/>
<path d="M169,149h 3" fill="none" stroke="#ff0099"/>
<g stroke="#ff0099" stroke-width="1" fill="#ff0099">
<circle cx=" 168" cy=" 149" r=" 1.5"/>
</g>
<path d="M176,239v -9" fill="none" stroke="#ff0099"/>
<path d="M176,228v -8" fill="none" stroke="#ff0099"/>
<path d="M172,229h 3" fill="none" stroke="#ff0099"/>
<path d="M177,229h 3" fill="none" stroke="#ff0099"/>
<g stroke="#ff0099" stroke-width="1" fill="#ff0099">
<circle cx=" 176" cy=" 229" r=" 1.5"/>
</g>
<path d="M183,274v -8" fill="none" stroke="#ff0099"/>
<path d="M183,263v -8" fill="none" stroke="#ff0099"/>
<path d="M180,264h 2" fill="none" stroke="#ff0099"/>
<path d="M184,264h 3" fill="none" stroke="#ff0099"/>
<g stroke="#ff0099" stroke-width="1" fill="#ff0099">
<circle cx=" 183" cy=" 264" r=" 1.5"/>
</g>
<path d="M191,330v -7" fill="none" stroke="#ff0099"/>
<path d="M191,321v -7" fill="none" stroke="#ff0099"/>
<path d="M187,322h 3" fill="none" stroke="#ff0099"/>
<path d="M192,322h 3" fill="none" stroke="#ff0099"/>
<g stroke="#ff0099" stroke-width="1" fill="#ff0099">
<circle cx=" 191" cy=" 322" r=" 1.5"/>
</g>
<path d="M198,358v -5" fill="none" stroke="#ff0099"/>
<path d="M198,350v -4" fill="none" stroke="#ff0099"/>
<path d="M195,352h 2" fill="none" stroke="#ff0099"/>
<path d="M200,352h 2" fill="none" stroke="#ff0099"/>
<g stroke="#ff0099" stroke-width="1" fill="#ff0099">
<circle cx=" 198" cy=" 352" r=" 1.5"/>
</g>
<path d="M206,386v -4" fill="none" stroke="#ff0099"/>
<path d="M206,380v -4" fill="none" stroke="#ff0099"/>
<path d="M202,381h 3" fill="none" stroke="#ff0099"/>
<path d="M207,381h 3" fill="none" stroke="#ff0099"/>
<g stroke="#ff0099" stroke-width="1" fill="#ff0099">
<circle cx=" 206" cy=" 381" r=" 1.5"/>
</g>
<path d="M214,389v -5" fill="none" stroke="#ff0099"/>
<path d="M214,382v -6" fill="none" stroke="#ff0099"/>
<path d="M210,383h 2" fill="none" stroke="#ff0099"/>
<path d="M215,383h 2" fill="none" stroke="#ff0099"/>
<g stroke="#ff0099" stroke-width="1" fill="#ff0099">
<circle cx=" 214" cy=" 383" r=" 1.5"/>
</g>
<path d="M221,405v -3" fill="none" stroke="#ff0099"/>
<path d="M221,400v -3" fill="none" stroke="#ff0099"/>
<path d="M217,401h 3" fill="none" stroke="#ff0099"/>
<path d="M222,401h 3" fill="none" stroke="#ff0099"/>
<g stroke="#ff0099" stroke-width="1" fill="#ff0099">
<circle cx=" 221" cy=" 401" r=" 1.5"/>
</g>
<path d="M229,413v -1" fill="none" stroke="#ff0099"/>
<path d="M229,409v -1" fill="none" stroke="#ff0099"/>
<path d="M225,410h 3" fill="none" stroke="#ff0099"/>
<path d="M230,410h 2" fill="none" stroke="#ff0099"/>
<g stroke="#ff0099" stroke-width="1" fill="#ff0099">
<circle cx=" 229" cy=" 410" r=" 1.5"/>
</g>
<path d="M236,413v -1" fill="none" stroke="#ff0099"/>
<path d="M236,410v -2" fill="none" stroke="#ff0099"/>
<path d="M232,411h 3" fill="none" stroke="#ff0099"/>
<path d="M237,411h 3" fill="none" stroke="#ff0099"/>
<g stroke="#ff0099" stroke-width="1" fill="#ff0099">
<circle cx=" 236" cy=" 411" r=" 1.5"/>
</g>
<path d="M244,417" fill="none" stroke="#ff0099"/>
<path d="M244,414" fill="none" stroke="#ff0099"/>
<path d="M240,416h 3" fill="none" stroke="#ff0099"/>
<path d="M245,416h 3" fill="none" stroke="#ff0099"/>
<g stroke="#ff0099" stroke-width="1" fill="#ff0099">
<circle cx=" 244" cy=" 416" r=" 1.5"/>
</g>
<path d="M251,419v -3" fill="none" stroke="#ff0099"/>
<path d="M251,414v -3" fill="none" stroke="#ff0099"/>
<path d="M248,415h 2" fill="none" stroke="#ff0099"/>
<path d="M252,415h 3" fill="none" stroke="#ff0099"/>
<g stroke="#ff0099" stroke-width="1" fill="#ff0099">
<circle cx=" 251" cy=" 415" r=" 1.5"/>
</g>
<path d="M259,421v -2" fill="none" stroke="#ff0099"/>
<path d="M259,417v -3" fill="none" stroke="#ff0099"/>
<path d="M255,418h 3" fill="none" stroke="#ff0099"/>
<path d="M260,418h 3" fill="none" stroke="#ff0099"/>
<g stroke="#ff0099" stroke-width="1" fill="#ff0099">
<circle cx=" 259" cy=" 418" r=" 1.5"/>
</g>
<path d="M266,423v -1" fill="none" stroke="#ff0099"/>
<path d="M266,419v -1" fill="none" stroke="#ff0099"/>
<path d="M263,420h 2" fill="none" stroke="#ff0099"/>
<path d="M268,420h 2" fill="none" stroke="#ff0099"/>
<g stroke="#ff0099" stroke-width="1" fill="#ff0099">
<circle cx=" 266" cy=" 420" r=" 1.5"/>
</g>
<path d="M274,424" fill="none" stroke="#ff0099"/>
<path d="M274,421" fill="none" stroke="#ff0099"/>
<path d="M270,423h 3" fill="none" stroke="#ff0099"/>
<path d="M275,423h 3" fill="none" stroke="#ff0099"/>
<g stroke="#ff0099" stroke-width="1" fill="#ff0099">
<circle cx=" 274" cy=" 423" r=" 1.5"/>
</g>
<path d="M278,425h 2" fill="none" stroke="#ff0099"/>
<path d="M283,425h 2" fill="none" stroke="#ff0099"/>
<g stroke="#ff0099" stroke-width="1" fill="#ff0099">
<circle cx=" 282" cy=" 425" r=" 1.5"/>
</g>
<path d="M285,425h 3" fill="none" stroke="#ff0099"/>
<path d="M290,425h 3" fill="none" stroke="#ff0099"/>
<g stroke="#ff0099" stroke-width="1" fill="#ff0099">
<circle cx=" 289" cy=" 425" r=" 1.5"/>
</g>
<path d="M297,425" fill="none" stroke="#ff0099"/>
<path d="M297,423v -1" fill="none" stroke="#ff0099"/>
<path d="M293,424h 3" fill="none" stroke="#ff0099"/>
<path d="M298,424h 2" fill="none" stroke="#ff0099"/>
<g stroke="#ff0099" stroke-width="1" fill="#ff0099">
<circle cx=" 297" cy=" 424" r=" 1.5"/>
</g>
<path d="M304,426v -9" fill="none" stroke="#ff0099"/>
<path d="M304,414v -10" fill="none" stroke="#ff0099"/>
<path d="M300,415h 3" fill="none" stroke="#ff0099"/>
<path d="M305,415h 3" fill="none" stroke="#ff0099"/>
<g stroke="#ff0099" stroke-width="1" fill="#ff0099">
<circle cx=" 304" cy=" 415" r=" 1.5"/>
</g>
<path d="M312,427v -1" fill="none" stroke="#ff0099"/>
<path d="M312,424" fill="none" stroke="#ff0099"/>
<path d="M308,425h 3" fill="none" stroke="#ff0099"/>
<path d="M313,425h 3" fill="none" stroke="#ff0099"/>
<g stroke="#ff0099" stroke-width="1" fill="#ff0099">
<circle cx=" 312" cy=" 425" r=" 1.5"/>
</g>
<path d="M319,425v -2" fill="none" stroke="#ff0099"/>
<path d="M319,421v -3" fill="none" stroke="#ff0099"/>
<path d="M316,422h 2" fill="none" stroke="#ff0099"/>
<path d="M321,422h 2" fill="none" stroke="#ff0099"/>
<g stroke="#ff0099" stroke-width="1" fill="#ff0099">
<circle cx=" 319" cy=" 422" r=" 1.5"/>
</g>
<path d="M323,428h 3" fill="none" stroke="#ff0099"/>
<path d="M328,428h 3" fill="none" stroke="#ff0099"/>
<g stroke="#ff0099" stroke-width="1" fill="#ff0099">
<circle cx=" 327" cy=" 428" r=" 1.5"/>
</g>
<path d="M331,428h 2" fill="none" stroke="#ff0099"/>
<path d="M336,428h 2" fill="none" stroke="#ff0099"/>
<g stroke="#ff0099" stroke-width="1" fill="#ff0099">
<circle cx=" 334" cy=" 428" r=" 1.5"/>
</g>
<path d="M338,428h 3" fill="none" stroke="#ff0099"/>
<path d="M343,428h 3" fill="none" stroke="#ff0099"/>
<g stroke="#ff0099" stroke-width="1" fill="#ff0099">
<circle cx=" 342" cy=" 428" r=" 1.5"/>
</g>
<path d="M350,427" fill="none" stroke="#ff0099"/>
<path d="M350,424" fill="none" stroke="#ff0099"/>
<path d="M346,425h 2" fill="none" stroke="#ff0099"/>
<path d="M351,425h 2" fill="none" stroke="#ff0099"/>
<g stroke="#ff0099" stroke-width="1" fill="#ff0099">
<circle cx=" 350" cy=" 425" r=" 1.5"/>
</g>
<path d="M353,428h 3" fill="none" stroke="#ff0099"/>
<path d="M358,428h 3" fill="none" stroke="#ff0099"/>
<g stroke="#ff0099" stroke-width="1" fill="#ff0099">
<circle cx=" 357" cy=" 428" r=" 1.5"/>
</g>
<path d="M376,428h 3" fill="none" stroke="#ff0099"/>
<path d="M381,428h 3" fill="none" stroke="#ff0099"/>
<g stroke="#ff0099" stroke-width="1" fill="#ff0099">
<circle cx=" 380" cy=" 428" r=" 1.5"/>
</g>
<path d="M391,428h 3" fill="none" stroke="#ff0099"/>
<path d="M396,428h 3" fill="none" stroke="#ff0099"/>
<g stroke="#ff0099" stroke-width="1" fill="#ff0099">
<circle cx=" 395" cy=" 428" r=" 1.5"/>
</g>
<path d="M399,428h 2" fill="none" stroke="#ff0099"/>
<path d="M404,428h 2" fill="none" stroke="#ff0099"/>
<g stroke="#ff0099" stroke-width="1" fill="#ff0099">
<circle cx=" 403" cy=" 428" r=" 1.5"/>
</g>
<path d="M414,428h 2" fill="none" stroke="#ff0099"/>
<path d="M419,428h 2" fill="none" stroke="#ff0099"/>
<g stroke="#ff0099" stroke-width="1" fill="#ff0099">
<circle cx=" 418" cy=" 428" r=" 1.5"/>
</g>
<path d="M421,428h 3" fill="none" stroke="#ff0099"/>
<path d="M426,428h 3" fill="none" stroke="#ff0099"/>
<g stroke="#ff0099" stroke-width="1" fill="#ff0099">
<circle cx=" 425" cy=" 428" r=" 1.5"/>
</g>
<path d="M478,428" fill="none" stroke="#ff0099"/>
<path d="M478,425" fill="none" stroke="#ff0099"/>
<path d="M474,427h 3" fill="none" stroke="#ff0099"/>
<path d="M479,427h 3" fill="none" stroke="#ff0099"/>
<g stroke="#ff0099" stroke-width="1" fill="#ff0099">
<circle cx=" 478" cy=" 427" r=" 1.5"/>
</g>
<rect x="357" y="59" width="142" height="99" fill="white"/>
<text x="360" y="82" fill="black" font-size="17" font-family="Helvetica" font-weight="bold">
EE
</text>
<text x="457" y="115" fill="black" font-size="17" font-family="Helvetica" font-weight="bold">
 ee
</text>
<text x="440" y="115" fill="black" font-size="17" font-family="Times">
&#8594;
</text>
<text x="392" y="115" fill="black" font-size="17" font-family="Helvetica" font-weight="bold">
MC Z 
</text>
<path d="M362,109h 25" fill="none" stroke="#ff0099"/>
<g stroke="#ff0099" stroke-width="1" fill="#ff0099">
<circle cx=" 375" cy=" 109" r=" 1.5"/>
</g>
<text x="455" y="147" fill="black" font-size="17" font-family="Helvetica" font-weight="bold">
 + jet
</text>
<text x="447" y="147" fill="black" font-size="17" font-family="Times">
&#0947;
</text>
<text x="392" y="147" fill="black" font-size="17" font-family="Helvetica" font-weight="bold">
signal 
</text>
<path d="M362,154h 25v -24h -25z" fill="#99ff99"/>
<path d="M362,130h 25" fill="none" stroke="#99ff99" stroke-width="2"/>
<path d="M362,154h 25" fill="none" stroke="#99ff99" stroke-width="2"/>
<path d="M387,154v -24" fill="none" stroke="#99ff99" stroke-width="2"/>
<path d="M362,154v -24" fill="none" stroke="#99ff99" stroke-width="2"/>
<text x="300" y="34" fill="black" font-size="17" font-family="Helvetica" font-weight="bold">
=8 TeV
</text>
<text x="291" y="34" fill="black" font-size="17" font-family="Helvetica" font-weight="bold">
s
</text>
<path d="M285,25l 2, 10" fill="none" stroke="black" stroke-width="2"/>
<path d="M287,35l 2, -14" fill="none" stroke="black"/>
<path d="M289,21h 11" fill="none" stroke="black"/>
<text x="142" y="34" fill="black" font-size="17" font-family="Helvetica" font-weight="bold">
CMS Preliminary 
</text></svg>
