<?xml version="1.0" standalone="no"?>
<svg width="567" height="496" viewBox="0 0 567 496" xmlns="http://www.w3.org/2000/svg">
<title>
plots_mcZee_mcGJet_withEtaR9rhoIsoReweight/hlt150/etaPhotEE.svg
</title>
<desc>
Creator: ROOT Version 5.32/00
CreationDate: Sun Nov 30 15:46:40 2014</desc>
<defs>
</defs>
<rect x="0" y="0" width="567" height="496" fill="white"/>
<rect x="74" y="44" width="453" height="402" fill="white"/>
<rect x="74" y="44" width="453" height="402" fill="none" stroke="black"/>
<rect x="74" y="44" width="453" height="402" fill="white"/>
<rect x="74" y="44" width="453" height="402" fill="none" stroke="black"/>
<path d="M115,198v -17" fill="none" stroke="#ff0099"/>
<path d="M115,178v -17" fill="none" stroke="#ff0099"/>
<path d="M111,180h 3" fill="none" stroke="#ff0099"/>
<path d="M116,180h 3" fill="none" stroke="#ff0099"/>
<g stroke="#ff0099" stroke-width="1" fill="#ff0099">
<circle cx=" 115" cy=" 180" r=" 1.5"/>
</g>
<path d="M123,162v -19" fill="none" stroke="#ff0099"/>
<path d="M123,141v -19" fill="none" stroke="#ff0099"/>
<path d="M119,142h 3" fill="none" stroke="#ff0099"/>
<path d="M124,142h 3" fill="none" stroke="#ff0099"/>
<g stroke="#ff0099" stroke-width="1" fill="#ff0099">
<circle cx=" 123" cy=" 142" r=" 1.5"/>
</g>
<path d="M130,178v -18" fill="none" stroke="#ff0099"/>
<path d="M130,158v -18" fill="none" stroke="#ff0099"/>
<path d="M127,159h 2" fill="none" stroke="#ff0099"/>
<path d="M132,159h 2" fill="none" stroke="#ff0099"/>
<g stroke="#ff0099" stroke-width="1" fill="#ff0099">
<circle cx=" 130" cy=" 159" r=" 1.5"/>
</g>
<path d="M138,148v -19" fill="none" stroke="#ff0099"/>
<path d="M138,126v -19" fill="none" stroke="#ff0099"/>
<path d="M134,127h 3" fill="none" stroke="#ff0099"/>
<path d="M139,127h 3" fill="none" stroke="#ff0099"/>
<g stroke="#ff0099" stroke-width="1" fill="#ff0099">
<circle cx=" 138" cy=" 127" r=" 1.5"/>
</g>
<path d="M146,122v -19" fill="none" stroke="#ff0099"/>
<path d="M146,100v -19" fill="none" stroke="#ff0099"/>
<path d="M142,101h 2" fill="none" stroke="#ff0099"/>
<path d="M147,101h 2" fill="none" stroke="#ff0099"/>
<g stroke="#ff0099" stroke-width="1" fill="#ff0099">
<circle cx=" 146" cy=" 101" r=" 1.5"/>
</g>
<path d="M153,195v -15" fill="none" stroke="#ff0099"/>
<path d="M153,178v -15" fill="none" stroke="#ff0099"/>
<path d="M149,179h 3" fill="none" stroke="#ff0099"/>
<path d="M154,179h 3" fill="none" stroke="#ff0099"/>
<g stroke="#ff0099" stroke-width="1" fill="#ff0099">
<circle cx=" 153" cy=" 179" r=" 1.5"/>
</g>
<path d="M161,195v -14" fill="none" stroke="#ff0099"/>
<path d="M161,179v -14" fill="none" stroke="#ff0099"/>
<path d="M157,180h 2" fill="none" stroke="#ff0099"/>
<path d="M162,180h 2" fill="none" stroke="#ff0099"/>
<g stroke="#ff0099" stroke-width="1" fill="#ff0099">
<circle cx=" 161" cy=" 180" r=" 1.5"/>
</g>
<path d="M168,161v -18" fill="none" stroke="#ff0099"/>
<path d="M168,141v -18" fill="none" stroke="#ff0099"/>
<path d="M164,142h 3" fill="none" stroke="#ff0099"/>
<path d="M169,142h 3" fill="none" stroke="#ff0099"/>
<g stroke="#ff0099" stroke-width="1" fill="#ff0099">
<circle cx=" 168" cy=" 142" r=" 1.5"/>
</g>
<path d="M176,145v -21" fill="none" stroke="#ff0099"/>
<path d="M176,122v -21" fill="none" stroke="#ff0099"/>
<path d="M172,123h 3" fill="none" stroke="#ff0099"/>
<path d="M177,123h 3" fill="none" stroke="#ff0099"/>
<g stroke="#ff0099" stroke-width="1" fill="#ff0099">
<circle cx=" 176" cy=" 123" r=" 1.5"/>
</g>
<path d="M183,373v -7" fill="none" stroke="#ff0099"/>
<path d="M183,364v -6" fill="none" stroke="#ff0099"/>
<path d="M180,365h 2" fill="none" stroke="#ff0099"/>
<path d="M184,365h 3" fill="none" stroke="#ff0099"/>
<g stroke="#ff0099" stroke-width="1" fill="#ff0099">
<circle cx=" 183" cy=" 365" r=" 1.5"/>
</g>
<path d="M418,360v -10" fill="none" stroke="#ff0099"/>
<path d="M418,348v -9" fill="none" stroke="#ff0099"/>
<path d="M414,349h 2" fill="none" stroke="#ff0099"/>
<path d="M419,349h 2" fill="none" stroke="#ff0099"/>
<g stroke="#ff0099" stroke-width="1" fill="#ff0099">
<circle cx=" 418" cy=" 349" r=" 1.5"/>
</g>
<path d="M425,139v -25" fill="none" stroke="#ff0099"/>
<path d="M425,112v -24" fill="none" stroke="#ff0099"/>
<path d="M421,113h 3" fill="none" stroke="#ff0099"/>
<path d="M426,113h 3" fill="none" stroke="#ff0099"/>
<g stroke="#ff0099" stroke-width="1" fill="#ff0099">
<circle cx=" 425" cy=" 113" r=" 1.5"/>
</g>
<path d="M433,158v -16" fill="none" stroke="#ff0099"/>
<path d="M433,140v -16" fill="none" stroke="#ff0099"/>
<path d="M429,141h 3" fill="none" stroke="#ff0099"/>
<path d="M434,141h 3" fill="none" stroke="#ff0099"/>
<g stroke="#ff0099" stroke-width="1" fill="#ff0099">
<circle cx=" 433" cy=" 141" r=" 1.5"/>
</g>
<path d="M440,173v -14" fill="none" stroke="#ff0099"/>
<path d="M440,157v -14" fill="none" stroke="#ff0099"/>
<path d="M437,158h 2" fill="none" stroke="#ff0099"/>
<path d="M441,158h 3" fill="none" stroke="#ff0099"/>
<g stroke="#ff0099" stroke-width="1" fill="#ff0099">
<circle cx=" 440" cy=" 158" r=" 1.5"/>
</g>
<path d="M448,157v -19" fill="none" stroke="#ff0099"/>
<path d="M448,135v -19" fill="none" stroke="#ff0099"/>
<path d="M444,137h 3" fill="none" stroke="#ff0099"/>
<path d="M449,137h 3" fill="none" stroke="#ff0099"/>
<g stroke="#ff0099" stroke-width="1" fill="#ff0099">
<circle cx=" 448" cy=" 137" r=" 1.5"/>
</g>
<path d="M455,120v -19" fill="none" stroke="#ff0099"/>
<path d="M455,99v -19" fill="none" stroke="#ff0099"/>
<path d="M452,100h 2" fill="none" stroke="#ff0099"/>
<path d="M457,100h 2" fill="none" stroke="#ff0099"/>
<g stroke="#ff0099" stroke-width="1" fill="#ff0099">
<circle cx=" 455" cy=" 100" r=" 1.5"/>
</g>
<path d="M463,145v -17" fill="none" stroke="#ff0099"/>
<path d="M463,125v -17" fill="none" stroke="#ff0099"/>
<path d="M459,126h 3" fill="none" stroke="#ff0099"/>
<path d="M464,126h 3" fill="none" stroke="#ff0099"/>
<g stroke="#ff0099" stroke-width="1" fill="#ff0099">
<circle cx=" 463" cy=" 126" r=" 1.5"/>
</g>
<path d="M471,107v -20" fill="none" stroke="#ff0099"/>
<path d="M471,84v -21" fill="none" stroke="#ff0099"/>
<path d="M467,85h 2" fill="none" stroke="#ff0099"/>
<path d="M472,85h 2" fill="none" stroke="#ff0099"/>
<g stroke="#ff0099" stroke-width="1" fill="#ff0099">
<circle cx=" 471" cy=" 85" r=" 1.5"/>
</g>
<path d="M478,137v -19" fill="none" stroke="#ff0099"/>
<path d="M478,116v -19" fill="none" stroke="#ff0099"/>
<path d="M474,117h 3" fill="none" stroke="#ff0099"/>
<path d="M479,117h 3" fill="none" stroke="#ff0099"/>
<g stroke="#ff0099" stroke-width="1" fill="#ff0099">
<circle cx=" 478" cy=" 117" r=" 1.5"/>
</g>
<path d="M486,211v -20" fill="none" stroke="#ff0099"/>
<path d="M486,189v -19" fill="none" stroke="#ff0099"/>
<path d="M482,190h 3" fill="none" stroke="#ff0099"/>
<path d="M487,190h 2" fill="none" stroke="#ff0099"/>
<g stroke="#ff0099" stroke-width="1" fill="#ff0099">
<circle cx=" 486" cy=" 190" r=" 1.5"/>
</g>
<path d="M74,446h 453" fill="none" stroke="black"/>
<path d="M74,434v 12" fill="none" stroke="black"/>
<path d="M89,440v 6" fill="none" stroke="black"/>
<path d="M104,440v 6" fill="none" stroke="black"/>
<path d="M119,440v 6" fill="none" stroke="black"/>
<path d="M134,440v 6" fill="none" stroke="black"/>
<path d="M149,434v 12" fill="none" stroke="black"/>
<path d="M164,440v 6" fill="none" stroke="black"/>
<path d="M180,440v 6" fill="none" stroke="black"/>
<path d="M195,440v 6" fill="none" stroke="black"/>
<path d="M210,440v 6" fill="none" stroke="black"/>
<path d="M225,434v 12" fill="none" stroke="black"/>
<path d="M240,440v 6" fill="none" stroke="black"/>
<path d="M255,440v 6" fill="none" stroke="black"/>
<path d="M270,440v 6" fill="none" stroke="black"/>
<path d="M285,440v 6" fill="none" stroke="black"/>
<path d="M300,434v 12" fill="none" stroke="black"/>
<path d="M316,440v 6" fill="none" stroke="black"/>
<path d="M331,440v 6" fill="none" stroke="black"/>
<path d="M346,440v 6" fill="none" stroke="black"/>
<path d="M361,440v 6" fill="none" stroke="black"/>
<path d="M376,434v 12" fill="none" stroke="black"/>
<path d="M391,440v 6" fill="none" stroke="black"/>
<path d="M406,440v 6" fill="none" stroke="black"/>
<path d="M421,440v 6" fill="none" stroke="black"/>
<path d="M437,440v 6" fill="none" stroke="black"/>
<path d="M452,434v 12" fill="none" stroke="black"/>
<path d="M467,440v 6" fill="none" stroke="black"/>
<path d="M482,440v 6" fill="none" stroke="black"/>
<path d="M497,440v 6" fill="none" stroke="black"/>
<path d="M512,440v 6" fill="none" stroke="black"/>
<path d="M527,434v 12" fill="none" stroke="black"/>
<path d="M527,434v 12" fill="none" stroke="black"/>
<text x="65" y="465" fill="black" font-size="18" font-family="Helvetica" font-weight="bold">
-3
</text>
<text x="141" y="465" fill="black" font-size="18" font-family="Helvetica" font-weight="bold">
-2
</text>
<text x="218" y="465" fill="black" font-size="18" font-family="Helvetica" font-weight="bold">
-1
</text>
<text x="295" y="465" fill="black" font-size="18" font-family="Helvetica" font-weight="bold">
0
</text>
<text x="372" y="465" fill="black" font-size="18" font-family="Helvetica" font-weight="bold">
1
</text>
<text x="446" y="465" fill="black" font-size="18" font-family="Helvetica" font-weight="bold">
2
</text>
<text x="522" y="465" fill="black" font-size="18" font-family="Helvetica" font-weight="bold">
3
</text>
<path d="M74,44h 453" fill="none" stroke="black"/>
<path d="M74,56v -12" fill="none" stroke="black"/>
<path d="M89,50v -6" fill="none" stroke="black"/>
<path d="M104,50v -6" fill="none" stroke="black"/>
<path d="M119,50v -6" fill="none" stroke="black"/>
<path d="M134,50v -6" fill="none" stroke="black"/>
<path d="M149,56v -12" fill="none" stroke="black"/>
<path d="M164,50v -6" fill="none" stroke="black"/>
<path d="M180,50v -6" fill="none" stroke="black"/>
<path d="M195,50v -6" fill="none" stroke="black"/>
<path d="M210,50v -6" fill="none" stroke="black"/>
<path d="M225,56v -12" fill="none" stroke="black"/>
<path d="M240,50v -6" fill="none" stroke="black"/>
<path d="M255,50v -6" fill="none" stroke="black"/>
<path d="M270,50v -6" fill="none" stroke="black"/>
<path d="M285,50v -6" fill="none" stroke="black"/>
<path d="M300,56v -12" fill="none" stroke="black"/>
<path d="M316,50v -6" fill="none" stroke="black"/>
<path d="M331,50v -6" fill="none" stroke="black"/>
<path d="M346,50v -6" fill="none" stroke="black"/>
<path d="M361,50v -6" fill="none" stroke="black"/>
<path d="M376,56v -12" fill="none" stroke="black"/>
<path d="M391,50v -6" fill="none" stroke="black"/>
<path d="M406,50v -6" fill="none" stroke="black"/>
<path d="M421,50v -6" fill="none" stroke="black"/>
<path d="M437,50v -6" fill="none" stroke="black"/>
<path d="M452,56v -12" fill="none" stroke="black"/>
<path d="M467,50v -6" fill="none" stroke="black"/>
<path d="M482,50v -6" fill="none" stroke="black"/>
<path d="M497,50v -6" fill="none" stroke="black"/>
<path d="M512,50v -6" fill="none" stroke="black"/>
<path d="M527,56v -12" fill="none" stroke="black"/>
<path d="M527,56v -12" fill="none" stroke="black"/>
<path d="M74,446v -402" fill="none" stroke="black"/>
<path d="M87,446h -13" fill="none" stroke="black"/>
<path d="M81,435h -7" fill="none" stroke="black"/>
<path d="M81,424h -7" fill="none" stroke="black"/>
<path d="M81,412h -7" fill="none" stroke="black"/>
<path d="M81,401h -7" fill="none" stroke="black"/>
<path d="M87,389h -13" fill="none" stroke="black"/>
<path d="M81,378h -7" fill="none" stroke="black"/>
<path d="M81,366h -7" fill="none" stroke="black"/>
<path d="M81,355h -7" fill="none" stroke="black"/>
<path d="M81,344h -7" fill="none" stroke="black"/>
<path d="M87,332h -13" fill="none" stroke="black"/>
<path d="M81,321h -7" fill="none" stroke="black"/>
<path d="M81,309h -7" fill="none" stroke="black"/>
<path d="M81,298h -7" fill="none" stroke="black"/>
<path d="M81,286h -7" fill="none" stroke="black"/>
<path d="M87,275h -13" fill="none" stroke="black"/>
<path d="M81,264h -7" fill="none" stroke="black"/>
<path d="M81,252h -7" fill="none" stroke="black"/>
<path d="M81,241h -7" fill="none" stroke="black"/>
<path d="M81,229h -7" fill="none" stroke="black"/>
<path d="M87,218h -13" fill="none" stroke="black"/>
<path d="M81,207h -7" fill="none" stroke="black"/>
<path d="M81,195h -7" fill="none" stroke="black"/>
<path d="M81,184h -7" fill="none" stroke="black"/>
<path d="M81,172h -7" fill="none" stroke="black"/>
<path d="M87,161h -13" fill="none" stroke="black"/>
<path d="M81,149h -7" fill="none" stroke="black"/>
<path d="M81,138h -7" fill="none" stroke="black"/>
<path d="M81,127h -7" fill="none" stroke="black"/>
<path d="M81,115h -7" fill="none" stroke="black"/>
<path d="M87,104h -13" fill="none" stroke="black"/>
<path d="M81,92h -7" fill="none" stroke="black"/>
<path d="M81,81h -7" fill="none" stroke="black"/>
<path d="M81,69h -7" fill="none" stroke="black"/>
<path d="M81,58h -7" fill="none" stroke="black"/>
<path d="M87,47h -13" fill="none" stroke="black"/>
<path d="M87,47h -13" fill="none" stroke="black"/>
<text x="61" y="453" fill="black" font-size="18" font-family="Helvetica" font-weight="bold">
0
</text>
<text x="37" y="396" fill="black" font-size="18" font-family="Helvetica" font-weight="bold">
0.01
</text>
<text x="35" y="339" fill="black" font-size="18" font-family="Helvetica" font-weight="bold">
0.02
</text>
<text x="35" y="281" fill="black" font-size="18" font-family="Helvetica" font-weight="bold">
0.03
</text>
<text x="34" y="224" fill="black" font-size="18" font-family="Helvetica" font-weight="bold">
0.04
</text>
<text x="34" y="168" fill="black" font-size="18" font-family="Helvetica" font-weight="bold">
0.05
</text>
<text x="34" y="110" fill="black" font-size="18" font-family="Helvetica" font-weight="bold">
0.06
</text>
<text x="35" y="53" fill="black" font-size="18" font-family="Helvetica" font-weight="bold">
0.07
</text>
<path d="M115,305v -2" fill="none" stroke="#99ff99" stroke-width="2"/>
<path d="M115,303v -2" fill="none" stroke="#99ff99" stroke-width="2"/>
<g stroke="black" stroke-width="2" fill="none">
<line x1="114" y1="303" x2="115" y2="303"/>
</g>
<path d="M123,253v -4" fill="none" stroke="#99ff99" stroke-width="2"/>
<path d="M123,249v -4" fill="none" stroke="#99ff99" stroke-width="2"/>
<g stroke="black" stroke-width="2" fill="none">
<line x1="122" y1="249" x2="123" y2="249"/>
</g>
<path d="M130,212v -7" fill="none" stroke="#99ff99" stroke-width="2"/>
<path d="M130,205v -6" fill="none" stroke="#99ff99" stroke-width="2"/>
<g stroke="black" stroke-width="2" fill="none">
<line x1="129" y1="205" x2="130" y2="205"/>
</g>
<path d="M138,173v -8" fill="none" stroke="#99ff99" stroke-width="2"/>
<path d="M138,165v -7" fill="none" stroke="#99ff99" stroke-width="2"/>
<g stroke="black" stroke-width="2" fill="none">
<line x1="137" y1="165" x2="138" y2="165"/>
</g>
<path d="M146,134v -6" fill="none" stroke="#99ff99" stroke-width="2"/>
<path d="M146,128v -6" fill="none" stroke="#99ff99" stroke-width="2"/>
<g stroke="black" stroke-width="2" fill="none">
<line x1="145" y1="128" x2="146" y2="128"/>
</g>
<path d="M153,99v -7" fill="none" stroke="#99ff99" stroke-width="2"/>
<path d="M153,92v -7" fill="none" stroke="#99ff99" stroke-width="2"/>
<g stroke="black" stroke-width="2" fill="none">
<line x1="152" y1="92" x2="153" y2="92"/>
</g>
<path d="M161,69v -8" fill="none" stroke="#99ff99" stroke-width="2"/>
<path d="M161,61v -8" fill="none" stroke="#99ff99" stroke-width="2"/>
<g stroke="black" stroke-width="2" fill="none">
<line x1="160" y1="61" x2="161" y2="61"/>
</g>
<path d="M183,315v -5" fill="none" stroke="#99ff99" stroke-width="2"/>
<path d="M183,310v -4" fill="none" stroke="#99ff99" stroke-width="2"/>
<g stroke="black" stroke-width="2" fill="none">
<line x1="182" y1="310" x2="183" y2="310"/>
</g>
<path d="M418,322v -2" fill="none" stroke="#99ff99" stroke-width="2"/>
<path d="M418,320v -2" fill="none" stroke="#99ff99" stroke-width="2"/>
<g stroke="black" stroke-width="2" fill="none">
<line x1="417" y1="320" x2="418" y2="320"/>
</g>
<path d="M425,65v -3" fill="none" stroke="#99ff99" stroke-width="2"/>
<path d="M425,62v -4" fill="none" stroke="#99ff99" stroke-width="2"/>
<g stroke="black" stroke-width="2" fill="none">
<line x1="424" y1="62" x2="425" y2="62"/>
</g>
<path d="M433,70v -7" fill="none" stroke="#99ff99" stroke-width="2"/>
<path d="M433,63v -8" fill="none" stroke="#99ff99" stroke-width="2"/>
<g stroke="black" stroke-width="2" fill="none">
<line x1="432" y1="63" x2="433" y2="63"/>
</g>
<path d="M440,78v -4" fill="none" stroke="#99ff99" stroke-width="2"/>
<path d="M440,74v -4" fill="none" stroke="#99ff99" stroke-width="2"/>
<g stroke="black" stroke-width="2" fill="none">
<line x1="439" y1="74" x2="440" y2="74"/>
</g>
<path d="M448,95v -7" fill="none" stroke="#99ff99" stroke-width="2"/>
<path d="M448,88v -7" fill="none" stroke="#99ff99" stroke-width="2"/>
<g stroke="black" stroke-width="2" fill="none">
<line x1="447" y1="88" x2="448" y2="88"/>
</g>
<path d="M455,133v -6" fill="none" stroke="#99ff99" stroke-width="2"/>
<path d="M455,127v -5" fill="none" stroke="#99ff99" stroke-width="2"/>
<g stroke="black" stroke-width="2" fill="none">
<line x1="454" y1="127" x2="455" y2="127"/>
</g>
<path d="M463,168v -5" fill="none" stroke="#99ff99" stroke-width="2"/>
<path d="M463,163v -6" fill="none" stroke="#99ff99" stroke-width="2"/>
<g stroke="black" stroke-width="2" fill="none">
<line x1="462" y1="163" x2="463" y2="163"/>
</g>
<path d="M471,204v -3" fill="none" stroke="#99ff99" stroke-width="2"/>
<path d="M471,201v -3" fill="none" stroke="#99ff99" stroke-width="2"/>
<g stroke="black" stroke-width="2" fill="none">
<line x1="470" y1="201" x2="471" y2="201"/>
</g>
<path d="M478,240v -9" fill="none" stroke="#99ff99" stroke-width="2"/>
<path d="M478,231v -9" fill="none" stroke="#99ff99" stroke-width="2"/>
<g stroke="black" stroke-width="2" fill="none">
<line x1="477" y1="231" x2="478" y2="231"/>
</g>
<path d="M486,297v -5" fill="none" stroke="#99ff99" stroke-width="2"/>
<path d="M486,292v -6" fill="none" stroke="#99ff99" stroke-width="2"/>
<g stroke="black" stroke-width="2" fill="none">
<line x1="485" y1="292" x2="486" y2="292"/>
</g>
<path d="M74,446h 37v -143h 8v -54h 8v -44h 7v -40h 8v -37h 7v -36h 8v -31h 7v -17h 16v 266h 7v 136h 227v -126h 7v -258h 8v 1h 8v 11h 7v 14h 8v 39h 7v 36h 8v 38h 7v 30h 8v 61h 7v 154h 38z" fill="#99ff99"/>
<path d="M74,446h 37v -143h 8v -54h 8v -44h 7v -40h 8v -37h 7v -36h 8v -31h 7v -17" fill="none" stroke="#99ff99" stroke-width="2"/>
<path d="M180,44v 266" fill="none" stroke="#99ff99" stroke-width="2"/>
<path d="M180,310h 7v 136h 227v -126h 7v -258h 8v 1h 8v 11h 7v 14h 8v 39h 7v 36h 8v 38h 7v 30h 8v 61h 7v 154h 38" fill="none" stroke="#99ff99" stroke-width="2"/>
<path d="M115,198v -17" fill="none" stroke="#ff0099"/>
<path d="M115,178v -17" fill="none" stroke="#ff0099"/>
<path d="M111,180h 3" fill="none" stroke="#ff0099"/>
<path d="M116,180h 3" fill="none" stroke="#ff0099"/>
<g stroke="#ff0099" stroke-width="1" fill="#ff0099">
<circle cx=" 115" cy=" 180" r=" 1.5"/>
</g>
<path d="M123,162v -19" fill="none" stroke="#ff0099"/>
<path d="M123,141v -19" fill="none" stroke="#ff0099"/>
<path d="M119,142h 3" fill="none" stroke="#ff0099"/>
<path d="M124,142h 3" fill="none" stroke="#ff0099"/>
<g stroke="#ff0099" stroke-width="1" fill="#ff0099">
<circle cx=" 123" cy=" 142" r=" 1.5"/>
</g>
<path d="M130,178v -18" fill="none" stroke="#ff0099"/>
<path d="M130,158v -18" fill="none" stroke="#ff0099"/>
<path d="M127,159h 2" fill="none" stroke="#ff0099"/>
<path d="M132,159h 2" fill="none" stroke="#ff0099"/>
<g stroke="#ff0099" stroke-width="1" fill="#ff0099">
<circle cx=" 130" cy=" 159" r=" 1.5"/>
</g>
<path d="M138,148v -19" fill="none" stroke="#ff0099"/>
<path d="M138,126v -19" fill="none" stroke="#ff0099"/>
<path d="M134,127h 3" fill="none" stroke="#ff0099"/>
<path d="M139,127h 3" fill="none" stroke="#ff0099"/>
<g stroke="#ff0099" stroke-width="1" fill="#ff0099">
<circle cx=" 138" cy=" 127" r=" 1.5"/>
</g>
<path d="M146,122v -19" fill="none" stroke="#ff0099"/>
<path d="M146,100v -19" fill="none" stroke="#ff0099"/>
<path d="M142,101h 2" fill="none" stroke="#ff0099"/>
<path d="M147,101h 2" fill="none" stroke="#ff0099"/>
<g stroke="#ff0099" stroke-width="1" fill="#ff0099">
<circle cx=" 146" cy=" 101" r=" 1.5"/>
</g>
<path d="M153,195v -15" fill="none" stroke="#ff0099"/>
<path d="M153,178v -15" fill="none" stroke="#ff0099"/>
<path d="M149,179h 3" fill="none" stroke="#ff0099"/>
<path d="M154,179h 3" fill="none" stroke="#ff0099"/>
<g stroke="#ff0099" stroke-width="1" fill="#ff0099">
<circle cx=" 153" cy=" 179" r=" 1.5"/>
</g>
<path d="M161,195v -14" fill="none" stroke="#ff0099"/>
<path d="M161,179v -14" fill="none" stroke="#ff0099"/>
<path d="M157,180h 2" fill="none" stroke="#ff0099"/>
<path d="M162,180h 2" fill="none" stroke="#ff0099"/>
<g stroke="#ff0099" stroke-width="1" fill="#ff0099">
<circle cx=" 161" cy=" 180" r=" 1.5"/>
</g>
<path d="M168,161v -18" fill="none" stroke="#ff0099"/>
<path d="M168,141v -18" fill="none" stroke="#ff0099"/>
<path d="M164,142h 3" fill="none" stroke="#ff0099"/>
<path d="M169,142h 3" fill="none" stroke="#ff0099"/>
<g stroke="#ff0099" stroke-width="1" fill="#ff0099">
<circle cx=" 168" cy=" 142" r=" 1.5"/>
</g>
<path d="M176,145v -21" fill="none" stroke="#ff0099"/>
<path d="M176,122v -21" fill="none" stroke="#ff0099"/>
<path d="M172,123h 3" fill="none" stroke="#ff0099"/>
<path d="M177,123h 3" fill="none" stroke="#ff0099"/>
<g stroke="#ff0099" stroke-width="1" fill="#ff0099">
<circle cx=" 176" cy=" 123" r=" 1.5"/>
</g>
<path d="M183,373v -7" fill="none" stroke="#ff0099"/>
<path d="M183,364v -6" fill="none" stroke="#ff0099"/>
<path d="M180,365h 2" fill="none" stroke="#ff0099"/>
<path d="M184,365h 3" fill="none" stroke="#ff0099"/>
<g stroke="#ff0099" stroke-width="1" fill="#ff0099">
<circle cx=" 183" cy=" 365" r=" 1.5"/>
</g>
<path d="M418,360v -10" fill="none" stroke="#ff0099"/>
<path d="M418,348v -9" fill="none" stroke="#ff0099"/>
<path d="M414,349h 2" fill="none" stroke="#ff0099"/>
<path d="M419,349h 2" fill="none" stroke="#ff0099"/>
<g stroke="#ff0099" stroke-width="1" fill="#ff0099">
<circle cx=" 418" cy=" 349" r=" 1.5"/>
</g>
<path d="M425,139v -25" fill="none" stroke="#ff0099"/>
<path d="M425,112v -24" fill="none" stroke="#ff0099"/>
<path d="M421,113h 3" fill="none" stroke="#ff0099"/>
<path d="M426,113h 3" fill="none" stroke="#ff0099"/>
<g stroke="#ff0099" stroke-width="1" fill="#ff0099">
<circle cx=" 425" cy=" 113" r=" 1.5"/>
</g>
<path d="M433,158v -16" fill="none" stroke="#ff0099"/>
<path d="M433,140v -16" fill="none" stroke="#ff0099"/>
<path d="M429,141h 3" fill="none" stroke="#ff0099"/>
<path d="M434,141h 3" fill="none" stroke="#ff0099"/>
<g stroke="#ff0099" stroke-width="1" fill="#ff0099">
<circle cx=" 433" cy=" 141" r=" 1.5"/>
</g>
<path d="M440,173v -14" fill="none" stroke="#ff0099"/>
<path d="M440,157v -14" fill="none" stroke="#ff0099"/>
<path d="M437,158h 2" fill="none" stroke="#ff0099"/>
<path d="M441,158h 3" fill="none" stroke="#ff0099"/>
<g stroke="#ff0099" stroke-width="1" fill="#ff0099">
<circle cx=" 440" cy=" 158" r=" 1.5"/>
</g>
<path d="M448,157v -19" fill="none" stroke="#ff0099"/>
<path d="M448,135v -19" fill="none" stroke="#ff0099"/>
<path d="M444,137h 3" fill="none" stroke="#ff0099"/>
<path d="M449,137h 3" fill="none" stroke="#ff0099"/>
<g stroke="#ff0099" stroke-width="1" fill="#ff0099">
<circle cx=" 448" cy=" 137" r=" 1.5"/>
</g>
<path d="M455,120v -19" fill="none" stroke="#ff0099"/>
<path d="M455,99v -19" fill="none" stroke="#ff0099"/>
<path d="M452,100h 2" fill="none" stroke="#ff0099"/>
<path d="M457,100h 2" fill="none" stroke="#ff0099"/>
<g stroke="#ff0099" stroke-width="1" fill="#ff0099">
<circle cx=" 455" cy=" 100" r=" 1.5"/>
</g>
<path d="M463,145v -17" fill="none" stroke="#ff0099"/>
<path d="M463,125v -17" fill="none" stroke="#ff0099"/>
<path d="M459,126h 3" fill="none" stroke="#ff0099"/>
<path d="M464,126h 3" fill="none" stroke="#ff0099"/>
<g stroke="#ff0099" stroke-width="1" fill="#ff0099">
<circle cx=" 463" cy=" 126" r=" 1.5"/>
</g>
<path d="M471,107v -20" fill="none" stroke="#ff0099"/>
<path d="M471,84v -21" fill="none" stroke="#ff0099"/>
<path d="M467,85h 2" fill="none" stroke="#ff0099"/>
<path d="M472,85h 2" fill="none" stroke="#ff0099"/>
<g stroke="#ff0099" stroke-width="1" fill="#ff0099">
<circle cx=" 471" cy=" 85" r=" 1.5"/>
</g>
<path d="M478,137v -19" fill="none" stroke="#ff0099"/>
<path d="M478,116v -19" fill="none" stroke="#ff0099"/>
<path d="M474,117h 3" fill="none" stroke="#ff0099"/>
<path d="M479,117h 3" fill="none" stroke="#ff0099"/>
<g stroke="#ff0099" stroke-width="1" fill="#ff0099">
<circle cx=" 478" cy=" 117" r=" 1.5"/>
</g>
<path d="M486,211v -20" fill="none" stroke="#ff0099"/>
<path d="M486,189v -19" fill="none" stroke="#ff0099"/>
<path d="M482,190h 3" fill="none" stroke="#ff0099"/>
<path d="M487,190h 2" fill="none" stroke="#ff0099"/>
<g stroke="#ff0099" stroke-width="1" fill="#ff0099">
<circle cx=" 486" cy=" 190" r=" 1.5"/>
</g>
<rect x="357" y="59" width="142" height="99" fill="white"/>
<text x="360" y="82" fill="black" font-size="17" font-family="Helvetica" font-weight="bold">
EE
</text>
<text x="457" y="115" fill="black" font-size="17" font-family="Helvetica" font-weight="bold">
 ee
</text>
<text x="440" y="115" fill="black" font-size="17" font-family="Times">
&#8594;
</text>
<text x="392" y="115" fill="black" font-size="17" font-family="Helvetica" font-weight="bold">
MC Z 
</text>
<path d="M362,109h 25" fill="none" stroke="#ff0099"/>
<g stroke="#ff0099" stroke-width="1" fill="#ff0099">
<circle cx=" 375" cy=" 109" r=" 1.5"/>
</g>
<text x="455" y="147" fill="black" font-size="17" font-family="Helvetica" font-weight="bold">
 + jet
</text>
<text x="447" y="147" fill="black" font-size="17" font-family="Times">
&#0947;
</text>
<text x="392" y="147" fill="black" font-size="17" font-family="Helvetica" font-weight="bold">
signal 
</text>
<path d="M362,154h 25v -24h -25z" fill="#99ff99"/>
<path d="M362,130h 25" fill="none" stroke="#99ff99" stroke-width="2"/>
<path d="M362,154h 25" fill="none" stroke="#99ff99" stroke-width="2"/>
<path d="M387,154v -24" fill="none" stroke="#99ff99" stroke-width="2"/>
<path d="M362,154v -24" fill="none" stroke="#99ff99" stroke-width="2"/>
<text x="300" y="34" fill="black" font-size="17" font-family="Helvetica" font-weight="bold">
=8 TeV
</text>
<text x="291" y="34" fill="black" font-size="17" font-family="Helvetica" font-weight="bold">
s
</text>
<path d="M285,25l 2, 10" fill="none" stroke="black" stroke-width="2"/>
<path d="M287,35l 2, -14" fill="none" stroke="black"/>
<path d="M289,21h 11" fill="none" stroke="black"/>
<text x="142" y="34" fill="black" font-size="17" font-family="Helvetica" font-weight="bold">
CMS Preliminary 
</text></svg>
