<?xml version="1.0" standalone="no"?>
<svg width="567" height="496" viewBox="0 0 567 496" xmlns="http://www.w3.org/2000/svg">
<title>
plots_mcZee_mcGJet_withEtaR9rhoIsoReweight/hlt150/etaPhotEE_log.svg
</title>
<desc>
Creator: ROOT Version 5.32/00
CreationDate: Sun Nov 30 15:46:40 2014</desc>
<defs>
</defs>
<rect x="0" y="0" width="567" height="496" fill="white"/>
<rect x="0" y="0" width="567" height="347" fill="white"/>
<rect x="57" y="34" width="453" height="278" fill="white"/>
<rect x="57" y="34" width="453" height="278" fill="none" stroke="black"/>
<rect x="57" y="34" width="453" height="278" fill="white"/>
<rect x="57" y="34" width="453" height="278" fill="none" stroke="black"/>
<path d="M98,82v -1" fill="none" stroke="#ff0099"/>
<path d="M98,79" fill="none" stroke="#ff0099"/>
<path d="M94,80h 3" fill="none" stroke="#ff0099"/>
<path d="M99,80h 3" fill="none" stroke="#ff0099"/>
<g stroke="#ff0099" stroke-width="1" fill="#ff0099">
<circle cx=" 98" cy=" 80" r=" 1.5"/>
</g>
<path d="M106,79v -1" fill="none" stroke="#ff0099"/>
<path d="M106,76" fill="none" stroke="#ff0099"/>
<path d="M102,77h 3" fill="none" stroke="#ff0099"/>
<path d="M107,77h 3" fill="none" stroke="#ff0099"/>
<g stroke="#ff0099" stroke-width="1" fill="#ff0099">
<circle cx=" 106" cy=" 77" r=" 1.5"/>
</g>
<path d="M113,80" fill="none" stroke="#ff0099"/>
<path d="M113,77" fill="none" stroke="#ff0099"/>
<path d="M110,78h 2" fill="none" stroke="#ff0099"/>
<path d="M115,78h 2" fill="none" stroke="#ff0099"/>
<g stroke="#ff0099" stroke-width="1" fill="#ff0099">
<circle cx=" 113" cy=" 78" r=" 1.5"/>
</g>
<path d="M121,78v -1" fill="none" stroke="#ff0099"/>
<path d="M121,75" fill="none" stroke="#ff0099"/>
<path d="M117,76h 3" fill="none" stroke="#ff0099"/>
<path d="M122,76h 3" fill="none" stroke="#ff0099"/>
<g stroke="#ff0099" stroke-width="1" fill="#ff0099">
<circle cx=" 121" cy=" 76" r=" 1.5"/>
</g>
<path d="M129,76v -1" fill="none" stroke="#ff0099"/>
<path d="M129,73" fill="none" stroke="#ff0099"/>
<path d="M125,74h 2" fill="none" stroke="#ff0099"/>
<path d="M130,74h 2" fill="none" stroke="#ff0099"/>
<g stroke="#ff0099" stroke-width="1" fill="#ff0099">
<circle cx=" 129" cy=" 74" r=" 1.5"/>
</g>
<path d="M136,82v -1" fill="none" stroke="#ff0099"/>
<path d="M136,79" fill="none" stroke="#ff0099"/>
<path d="M132,80h 3" fill="none" stroke="#ff0099"/>
<path d="M137,80h 3" fill="none" stroke="#ff0099"/>
<g stroke="#ff0099" stroke-width="1" fill="#ff0099">
<circle cx=" 136" cy=" 80" r=" 1.5"/>
</g>
<path d="M144,82v -1" fill="none" stroke="#ff0099"/>
<path d="M144,79" fill="none" stroke="#ff0099"/>
<path d="M140,80h 2" fill="none" stroke="#ff0099"/>
<path d="M145,80h 2" fill="none" stroke="#ff0099"/>
<g stroke="#ff0099" stroke-width="1" fill="#ff0099">
<circle cx=" 144" cy=" 80" r=" 1.5"/>
</g>
<path d="M151,79v -1" fill="none" stroke="#ff0099"/>
<path d="M151,76" fill="none" stroke="#ff0099"/>
<path d="M147,77h 3" fill="none" stroke="#ff0099"/>
<path d="M152,77h 3" fill="none" stroke="#ff0099"/>
<g stroke="#ff0099" stroke-width="1" fill="#ff0099">
<circle cx=" 151" cy=" 77" r=" 1.5"/>
</g>
<path d="M159,77" fill="none" stroke="#ff0099"/>
<path d="M159,75v -1" fill="none" stroke="#ff0099"/>
<path d="M155,76h 3" fill="none" stroke="#ff0099"/>
<path d="M160,76h 3" fill="none" stroke="#ff0099"/>
<g stroke="#ff0099" stroke-width="1" fill="#ff0099">
<circle cx=" 159" cy=" 76" r=" 1.5"/>
</g>
<path d="M166,109v -1" fill="none" stroke="#ff0099"/>
<path d="M166,106v -1" fill="none" stroke="#ff0099"/>
<path d="M163,107h 2" fill="none" stroke="#ff0099"/>
<path d="M167,107h 3" fill="none" stroke="#ff0099"/>
<g stroke="#ff0099" stroke-width="1" fill="#ff0099">
<circle cx=" 166" cy=" 107" r=" 1.5"/>
</g>
<path d="M401,106v -2" fill="none" stroke="#ff0099"/>
<path d="M401,102v -1" fill="none" stroke="#ff0099"/>
<path d="M397,103h 2" fill="none" stroke="#ff0099"/>
<path d="M402,103h 2" fill="none" stroke="#ff0099"/>
<g stroke="#ff0099" stroke-width="1" fill="#ff0099">
<circle cx=" 401" cy=" 103" r=" 1.5"/>
</g>
<path d="M408,77v -1" fill="none" stroke="#ff0099"/>
<path d="M408,74v -1" fill="none" stroke="#ff0099"/>
<path d="M404,75h 3" fill="none" stroke="#ff0099"/>
<path d="M409,75h 3" fill="none" stroke="#ff0099"/>
<g stroke="#ff0099" stroke-width="1" fill="#ff0099">
<circle cx=" 408" cy=" 75" r=" 1.5"/>
</g>
<path d="M416,78" fill="none" stroke="#ff0099"/>
<path d="M416,76" fill="none" stroke="#ff0099"/>
<path d="M412,77h 3" fill="none" stroke="#ff0099"/>
<path d="M417,77h 3" fill="none" stroke="#ff0099"/>
<g stroke="#ff0099" stroke-width="1" fill="#ff0099">
<circle cx=" 416" cy=" 77" r=" 1.5"/>
</g>
<path d="M423,80" fill="none" stroke="#ff0099"/>
<path d="M423,77" fill="none" stroke="#ff0099"/>
<path d="M420,78h 2" fill="none" stroke="#ff0099"/>
<path d="M424,78h 3" fill="none" stroke="#ff0099"/>
<g stroke="#ff0099" stroke-width="1" fill="#ff0099">
<circle cx=" 423" cy=" 78" r=" 1.5"/>
</g>
<path d="M431,78" fill="none" stroke="#ff0099"/>
<path d="M431,76v -1" fill="none" stroke="#ff0099"/>
<path d="M427,77h 3" fill="none" stroke="#ff0099"/>
<path d="M432,77h 3" fill="none" stroke="#ff0099"/>
<g stroke="#ff0099" stroke-width="1" fill="#ff0099">
<circle cx=" 431" cy=" 77" r=" 1.5"/>
</g>
<path d="M438,76v -1" fill="none" stroke="#ff0099"/>
<path d="M438,73" fill="none" stroke="#ff0099"/>
<path d="M435,74h 2" fill="none" stroke="#ff0099"/>
<path d="M440,74h 2" fill="none" stroke="#ff0099"/>
<g stroke="#ff0099" stroke-width="1" fill="#ff0099">
<circle cx=" 438" cy=" 74" r=" 1.5"/>
</g>
<path d="M446,77" fill="none" stroke="#ff0099"/>
<path d="M446,75" fill="none" stroke="#ff0099"/>
<path d="M442,76h 3" fill="none" stroke="#ff0099"/>
<path d="M447,76h 3" fill="none" stroke="#ff0099"/>
<g stroke="#ff0099" stroke-width="1" fill="#ff0099">
<circle cx=" 446" cy=" 76" r=" 1.5"/>
</g>
<path d="M454,75v -1" fill="none" stroke="#ff0099"/>
<path d="M454,72" fill="none" stroke="#ff0099"/>
<path d="M450,73h 2" fill="none" stroke="#ff0099"/>
<path d="M455,73h 2" fill="none" stroke="#ff0099"/>
<g stroke="#ff0099" stroke-width="1" fill="#ff0099">
<circle cx=" 454" cy=" 73" r=" 1.5"/>
</g>
<path d="M461,77" fill="none" stroke="#ff0099"/>
<path d="M461,74" fill="none" stroke="#ff0099"/>
<path d="M457,75h 3" fill="none" stroke="#ff0099"/>
<path d="M462,75h 3" fill="none" stroke="#ff0099"/>
<g stroke="#ff0099" stroke-width="1" fill="#ff0099">
<circle cx=" 461" cy=" 75" r=" 1.5"/>
</g>
<path d="M469,83v -1" fill="none" stroke="#ff0099"/>
<path d="M469,80v -1" fill="none" stroke="#ff0099"/>
<path d="M465,81h 3" fill="none" stroke="#ff0099"/>
<path d="M470,81h 2" fill="none" stroke="#ff0099"/>
<g stroke="#ff0099" stroke-width="1" fill="#ff0099">
<circle cx=" 469" cy=" 81" r=" 1.5"/>
</g>
<path d="M57,312h 453" fill="none" stroke="black"/>
<text x="503" y="337" fill="black" font-size="13" font-family="Times">
&#0951;
</text>
<text x="499" y="337" fill="black" font-size="13" font-family="Helvetica" font-weight="bold">
 
</text>
<text x="492" y="337" fill="black" font-size="13" font-family="Times">
&#0947;
</text>
<path d="M57,304v 8" fill="none" stroke="black"/>
<path d="M72,308v 4" fill="none" stroke="black"/>
<path d="M87,308v 4" fill="none" stroke="black"/>
<path d="M102,308v 4" fill="none" stroke="black"/>
<path d="M117,308v 4" fill="none" stroke="black"/>
<path d="M132,304v 8" fill="none" stroke="black"/>
<path d="M147,308v 4" fill="none" stroke="black"/>
<path d="M163,308v 4" fill="none" stroke="black"/>
<path d="M178,308v 4" fill="none" stroke="black"/>
<path d="M193,308v 4" fill="none" stroke="black"/>
<path d="M208,304v 8" fill="none" stroke="black"/>
<path d="M223,308v 4" fill="none" stroke="black"/>
<path d="M238,308v 4" fill="none" stroke="black"/>
<path d="M253,308v 4" fill="none" stroke="black"/>
<path d="M268,308v 4" fill="none" stroke="black"/>
<path d="M283,304v 8" fill="none" stroke="black"/>
<path d="M299,308v 4" fill="none" stroke="black"/>
<path d="M314,308v 4" fill="none" stroke="black"/>
<path d="M329,308v 4" fill="none" stroke="black"/>
<path d="M344,308v 4" fill="none" stroke="black"/>
<path d="M359,304v 8" fill="none" stroke="black"/>
<path d="M374,308v 4" fill="none" stroke="black"/>
<path d="M389,308v 4" fill="none" stroke="black"/>
<path d="M404,308v 4" fill="none" stroke="black"/>
<path d="M420,308v 4" fill="none" stroke="black"/>
<path d="M435,304v 8" fill="none" stroke="black"/>
<path d="M450,308v 4" fill="none" stroke="black"/>
<path d="M465,308v 4" fill="none" stroke="black"/>
<path d="M480,308v 4" fill="none" stroke="black"/>
<path d="M495,308v 4" fill="none" stroke="black"/>
<path d="M510,304v 8" fill="none" stroke="black"/>
<text x="51" y="325" fill="black" font-size="13" font-family="Helvetica" font-weight="bold">
-3
</text>
<text x="126" y="325" fill="black" font-size="13" font-family="Helvetica" font-weight="bold">
-2
</text>
<text x="203" y="325" fill="black" font-size="13" font-family="Helvetica" font-weight="bold">
-1
</text>
<text x="280" y="325" fill="black" font-size="13" font-family="Helvetica" font-weight="bold">
0
</text>
<text x="356" y="325" fill="black" font-size="13" font-family="Helvetica" font-weight="bold">
1
</text>
<text x="431" y="325" fill="black" font-size="13" font-family="Helvetica" font-weight="bold">
2
</text>
<text x="507" y="325" fill="black" font-size="13" font-family="Helvetica" font-weight="bold">
3
</text>
<path d="M57,312v -278" fill="none" stroke="black"/>
<g transform="rotate(-90,28,99)">
<text x="28" y="99" fill="black" font-size="13" font-family="Helvetica" font-weight="bold">
Entries/0.1
</text>
</g>
<path d="M63,307h -6" fill="none" stroke="black"/>
<path d="M63,298h -6" fill="none" stroke="black"/>
<path d="M63,292h -6" fill="none" stroke="black"/>
<path d="M63,287h -6" fill="none" stroke="black"/>
<path d="M63,282h -6" fill="none" stroke="black"/>
<path d="M63,279h -6" fill="none" stroke="black"/>
<path d="M63,276h -6" fill="none" stroke="black"/>
<path d="M63,273h -6" fill="none" stroke="black"/>
<path d="M70,271h -13" fill="none" stroke="black"/>
<text x="44" y="270" fill="black" font-size="9" font-family="Helvetica" font-weight="bold">
-5
</text>
<text x="30" y="277" fill="black" font-size="13" font-family="Helvetica" font-weight="bold">
10
</text>
<path d="M63,255h -6" fill="none" stroke="black"/>
<path d="M63,246h -6" fill="none" stroke="black"/>
<path d="M63,240h -6" fill="none" stroke="black"/>
<path d="M63,235h -6" fill="none" stroke="black"/>
<path d="M63,230h -6" fill="none" stroke="black"/>
<path d="M63,227h -6" fill="none" stroke="black"/>
<path d="M63,224h -6" fill="none" stroke="black"/>
<path d="M63,221h -6" fill="none" stroke="black"/>
<path d="M70,219h -13" fill="none" stroke="black"/>
<text x="44" y="219" fill="black" font-size="9" font-family="Helvetica" font-weight="bold">
-4
</text>
<text x="30" y="225" fill="black" font-size="13" font-family="Helvetica" font-weight="bold">
10
</text>
<path d="M63,203h -6" fill="none" stroke="black"/>
<path d="M63,194h -6" fill="none" stroke="black"/>
<path d="M63,188h -6" fill="none" stroke="black"/>
<path d="M63,183h -6" fill="none" stroke="black"/>
<path d="M63,178h -6" fill="none" stroke="black"/>
<path d="M63,175h -6" fill="none" stroke="black"/>
<path d="M63,172h -6" fill="none" stroke="black"/>
<path d="M63,169h -6" fill="none" stroke="black"/>
<path d="M70,167h -13" fill="none" stroke="black"/>
<text x="44" y="166" fill="black" font-size="9" font-family="Helvetica" font-weight="bold">
-3
</text>
<text x="30" y="173" fill="black" font-size="13" font-family="Helvetica" font-weight="bold">
10
</text>
<path d="M63,151h -6" fill="none" stroke="black"/>
<path d="M63,142h -6" fill="none" stroke="black"/>
<path d="M63,136h -6" fill="none" stroke="black"/>
<path d="M63,131h -6" fill="none" stroke="black"/>
<path d="M63,126h -6" fill="none" stroke="black"/>
<path d="M63,123h -6" fill="none" stroke="black"/>
<path d="M63,120h -6" fill="none" stroke="black"/>
<path d="M63,117h -6" fill="none" stroke="black"/>
<path d="M70,115h -13" fill="none" stroke="black"/>
<text x="44" y="115" fill="black" font-size="9" font-family="Helvetica" font-weight="bold">
-2
</text>
<text x="30" y="121" fill="black" font-size="13" font-family="Helvetica" font-weight="bold">
10
</text>
<path d="M63,99h -6" fill="none" stroke="black"/>
<path d="M63,90h -6" fill="none" stroke="black"/>
<path d="M63,84h -6" fill="none" stroke="black"/>
<path d="M63,79h -6" fill="none" stroke="black"/>
<path d="M63,74h -6" fill="none" stroke="black"/>
<path d="M63,71h -6" fill="none" stroke="black"/>
<path d="M63,68h -6" fill="none" stroke="black"/>
<path d="M63,65h -6" fill="none" stroke="black"/>
<path d="M70,63h -13" fill="none" stroke="black"/>
<text x="46" y="63" fill="black" font-size="9" font-family="Helvetica" font-weight="bold">
-1
</text>
<text x="31" y="69" fill="black" font-size="13" font-family="Helvetica" font-weight="bold">
10
</text>
<path d="M63,47h -6" fill="none" stroke="black"/>
<path d="M63,38h -6" fill="none" stroke="black"/>
<path d="M98,94" fill="none" stroke="#99ff99" stroke-width="2"/>
<path d="M98,94" fill="none" stroke="#99ff99" stroke-width="2"/>
<g stroke="black" stroke-width="2" fill="none">
<line x1="97" y1="94" x2="98" y2="94"/>
</g>
<path d="M106,87" fill="none" stroke="#99ff99" stroke-width="2"/>
<path d="M106,87v -1" fill="none" stroke="#99ff99" stroke-width="2"/>
<g stroke="black" stroke-width="2" fill="none">
<line x1="105" y1="87" x2="106" y2="87"/>
</g>
<path d="M113,83v -1" fill="none" stroke="#99ff99" stroke-width="2"/>
<path d="M113,82" fill="none" stroke="#99ff99" stroke-width="2"/>
<g stroke="black" stroke-width="2" fill="none">
<line x1="112" y1="82" x2="113" y2="82"/>
</g>
<path d="M121,80v -1" fill="none" stroke="#99ff99" stroke-width="2"/>
<path d="M121,79v -1" fill="none" stroke="#99ff99" stroke-width="2"/>
<g stroke="black" stroke-width="2" fill="none">
<line x1="120" y1="79" x2="121" y2="79"/>
</g>
<path d="M129,77v -1" fill="none" stroke="#99ff99" stroke-width="2"/>
<path d="M129,76" fill="none" stroke="#99ff99" stroke-width="2"/>
<g stroke="black" stroke-width="2" fill="none">
<line x1="128" y1="76" x2="129" y2="76"/>
</g>
<path d="M136,74" fill="none" stroke="#99ff99" stroke-width="2"/>
<path d="M136,74v -1" fill="none" stroke="#99ff99" stroke-width="2"/>
<g stroke="black" stroke-width="2" fill="none">
<line x1="135" y1="74" x2="136" y2="74"/>
</g>
<path d="M144,72" fill="none" stroke="#99ff99" stroke-width="2"/>
<path d="M144,72v -1" fill="none" stroke="#99ff99" stroke-width="2"/>
<g stroke="black" stroke-width="2" fill="none">
<line x1="143" y1="72" x2="144" y2="72"/>
</g>
<path d="M151,71" fill="none" stroke="#99ff99" stroke-width="2"/>
<path d="M151,71v -1" fill="none" stroke="#99ff99" stroke-width="2"/>
<g stroke="black" stroke-width="2" fill="none">
<line x1="150" y1="71" x2="151" y2="71"/>
</g>
<path d="M159,71" fill="none" stroke="#99ff99" stroke-width="2"/>
<path d="M159,71v -1" fill="none" stroke="#99ff99" stroke-width="2"/>
<g stroke="black" stroke-width="2" fill="none">
<line x1="158" y1="71" x2="159" y2="71"/>
</g>
<path d="M166,96v -1" fill="none" stroke="#99ff99" stroke-width="2"/>
<path d="M166,95" fill="none" stroke="#99ff99" stroke-width="2"/>
<g stroke="black" stroke-width="2" fill="none">
<line x1="165" y1="95" x2="166" y2="95"/>
</g>
<path d="M401,97" fill="none" stroke="#99ff99" stroke-width="2"/>
<path d="M401,97" fill="none" stroke="#99ff99" stroke-width="2"/>
<g stroke="black" stroke-width="2" fill="none">
<line x1="400" y1="97" x2="401" y2="97"/>
</g>
<path d="M408,72" fill="none" stroke="#99ff99" stroke-width="2"/>
<path d="M408,72" fill="none" stroke="#99ff99" stroke-width="2"/>
<g stroke="black" stroke-width="2" fill="none">
<line x1="407" y1="72" x2="408" y2="72"/>
</g>
<path d="M416,72" fill="none" stroke="#99ff99" stroke-width="2"/>
<path d="M416,72v -1" fill="none" stroke="#99ff99" stroke-width="2"/>
<g stroke="black" stroke-width="2" fill="none">
<line x1="415" y1="72" x2="416" y2="72"/>
</g>
<path d="M423,73" fill="none" stroke="#99ff99" stroke-width="2"/>
<path d="M423,73v -1" fill="none" stroke="#99ff99" stroke-width="2"/>
<g stroke="black" stroke-width="2" fill="none">
<line x1="422" y1="73" x2="423" y2="73"/>
</g>
<path d="M431,74v -1" fill="none" stroke="#99ff99" stroke-width="2"/>
<path d="M431,73" fill="none" stroke="#99ff99" stroke-width="2"/>
<g stroke="black" stroke-width="2" fill="none">
<line x1="430" y1="73" x2="431" y2="73"/>
</g>
<path d="M438,76" fill="none" stroke="#99ff99" stroke-width="2"/>
<path d="M438,76" fill="none" stroke="#99ff99" stroke-width="2"/>
<g stroke="black" stroke-width="2" fill="none">
<line x1="437" y1="76" x2="438" y2="76"/>
</g>
<path d="M446,79" fill="none" stroke="#99ff99" stroke-width="2"/>
<path d="M446,79v -1" fill="none" stroke="#99ff99" stroke-width="2"/>
<g stroke="black" stroke-width="2" fill="none">
<line x1="445" y1="79" x2="446" y2="79"/>
</g>
<path d="M454,82" fill="none" stroke="#99ff99" stroke-width="2"/>
<path d="M454,82" fill="none" stroke="#99ff99" stroke-width="2"/>
<g stroke="black" stroke-width="2" fill="none">
<line x1="453" y1="82" x2="454" y2="82"/>
</g>
<path d="M461,86v -1" fill="none" stroke="#99ff99" stroke-width="2"/>
<path d="M461,85v -1" fill="none" stroke="#99ff99" stroke-width="2"/>
<g stroke="black" stroke-width="2" fill="none">
<line x1="460" y1="85" x2="461" y2="85"/>
</g>
<path d="M469,93v -1" fill="none" stroke="#99ff99" stroke-width="2"/>
<path d="M469,92" fill="none" stroke="#99ff99" stroke-width="2"/>
<g stroke="black" stroke-width="2" fill="none">
<line x1="468" y1="92" x2="469" y2="92"/>
</g>
<path d="M57,312h 37v -218h 8v -7h 8v -5h 7v -3h 8v -3h 7v -2h 8v -2h 7v -1h 16v 24h 7v 217h 227v -215h 7v -25h 16v 1h 15v 3h 7v 3h 8v 3h 7v 3h 8v 7h 7v 220h 38z" fill="#99ff99"/>
<path d="M57,312h 37v -218h 8v -7h 8v -5h 7v -3h 8v -3h 7v -2h 8v -2h 7v -1h 16v 24h 7v 217h 227v -215h 7v -25h 16v 1h 15v 3h 7v 3h 8v 3h 7v 3h 8v 7h 7v 220h 38" fill="none" stroke="#99ff99" stroke-width="2"/>
<path d="M98,82v -1" fill="none" stroke="#ff0099"/>
<path d="M98,79" fill="none" stroke="#ff0099"/>
<path d="M94,80h 3" fill="none" stroke="#ff0099"/>
<path d="M99,80h 3" fill="none" stroke="#ff0099"/>
<g stroke="#ff0099" stroke-width="1" fill="#ff0099">
<circle cx=" 98" cy=" 80" r=" 1.5"/>
</g>
<path d="M106,79v -1" fill="none" stroke="#ff0099"/>
<path d="M106,76" fill="none" stroke="#ff0099"/>
<path d="M102,77h 3" fill="none" stroke="#ff0099"/>
<path d="M107,77h 3" fill="none" stroke="#ff0099"/>
<g stroke="#ff0099" stroke-width="1" fill="#ff0099">
<circle cx=" 106" cy=" 77" r=" 1.5"/>
</g>
<path d="M113,80" fill="none" stroke="#ff0099"/>
<path d="M113,77" fill="none" stroke="#ff0099"/>
<path d="M110,78h 2" fill="none" stroke="#ff0099"/>
<path d="M115,78h 2" fill="none" stroke="#ff0099"/>
<g stroke="#ff0099" stroke-width="1" fill="#ff0099">
<circle cx=" 113" cy=" 78" r=" 1.5"/>
</g>
<path d="M121,78v -1" fill="none" stroke="#ff0099"/>
<path d="M121,75" fill="none" stroke="#ff0099"/>
<path d="M117,76h 3" fill="none" stroke="#ff0099"/>
<path d="M122,76h 3" fill="none" stroke="#ff0099"/>
<g stroke="#ff0099" stroke-width="1" fill="#ff0099">
<circle cx=" 121" cy=" 76" r=" 1.5"/>
</g>
<path d="M129,76v -1" fill="none" stroke="#ff0099"/>
<path d="M129,73" fill="none" stroke="#ff0099"/>
<path d="M125,74h 2" fill="none" stroke="#ff0099"/>
<path d="M130,74h 2" fill="none" stroke="#ff0099"/>
<g stroke="#ff0099" stroke-width="1" fill="#ff0099">
<circle cx=" 129" cy=" 74" r=" 1.5"/>
</g>
<path d="M136,82v -1" fill="none" stroke="#ff0099"/>
<path d="M136,79" fill="none" stroke="#ff0099"/>
<path d="M132,80h 3" fill="none" stroke="#ff0099"/>
<path d="M137,80h 3" fill="none" stroke="#ff0099"/>
<g stroke="#ff0099" stroke-width="1" fill="#ff0099">
<circle cx=" 136" cy=" 80" r=" 1.5"/>
</g>
<path d="M144,82v -1" fill="none" stroke="#ff0099"/>
<path d="M144,79" fill="none" stroke="#ff0099"/>
<path d="M140,80h 2" fill="none" stroke="#ff0099"/>
<path d="M145,80h 2" fill="none" stroke="#ff0099"/>
<g stroke="#ff0099" stroke-width="1" fill="#ff0099">
<circle cx=" 144" cy=" 80" r=" 1.5"/>
</g>
<path d="M151,79v -1" fill="none" stroke="#ff0099"/>
<path d="M151,76" fill="none" stroke="#ff0099"/>
<path d="M147,77h 3" fill="none" stroke="#ff0099"/>
<path d="M152,77h 3" fill="none" stroke="#ff0099"/>
<g stroke="#ff0099" stroke-width="1" fill="#ff0099">
<circle cx=" 151" cy=" 77" r=" 1.5"/>
</g>
<path d="M159,77" fill="none" stroke="#ff0099"/>
<path d="M159,75v -1" fill="none" stroke="#ff0099"/>
<path d="M155,76h 3" fill="none" stroke="#ff0099"/>
<path d="M160,76h 3" fill="none" stroke="#ff0099"/>
<g stroke="#ff0099" stroke-width="1" fill="#ff0099">
<circle cx=" 159" cy=" 76" r=" 1.5"/>
</g>
<path d="M166,109v -1" fill="none" stroke="#ff0099"/>
<path d="M166,106v -1" fill="none" stroke="#ff0099"/>
<path d="M163,107h 2" fill="none" stroke="#ff0099"/>
<path d="M167,107h 3" fill="none" stroke="#ff0099"/>
<g stroke="#ff0099" stroke-width="1" fill="#ff0099">
<circle cx=" 166" cy=" 107" r=" 1.5"/>
</g>
<path d="M401,106v -2" fill="none" stroke="#ff0099"/>
<path d="M401,102v -1" fill="none" stroke="#ff0099"/>
<path d="M397,103h 2" fill="none" stroke="#ff0099"/>
<path d="M402,103h 2" fill="none" stroke="#ff0099"/>
<g stroke="#ff0099" stroke-width="1" fill="#ff0099">
<circle cx=" 401" cy=" 103" r=" 1.5"/>
</g>
<path d="M408,77v -1" fill="none" stroke="#ff0099"/>
<path d="M408,74v -1" fill="none" stroke="#ff0099"/>
<path d="M404,75h 3" fill="none" stroke="#ff0099"/>
<path d="M409,75h 3" fill="none" stroke="#ff0099"/>
<g stroke="#ff0099" stroke-width="1" fill="#ff0099">
<circle cx=" 408" cy=" 75" r=" 1.5"/>
</g>
<path d="M416,78" fill="none" stroke="#ff0099"/>
<path d="M416,76" fill="none" stroke="#ff0099"/>
<path d="M412,77h 3" fill="none" stroke="#ff0099"/>
<path d="M417,77h 3" fill="none" stroke="#ff0099"/>
<g stroke="#ff0099" stroke-width="1" fill="#ff0099">
<circle cx=" 416" cy=" 77" r=" 1.5"/>
</g>
<path d="M423,80" fill="none" stroke="#ff0099"/>
<path d="M423,77" fill="none" stroke="#ff0099"/>
<path d="M420,78h 2" fill="none" stroke="#ff0099"/>
<path d="M424,78h 3" fill="none" stroke="#ff0099"/>
<g stroke="#ff0099" stroke-width="1" fill="#ff0099">
<circle cx=" 423" cy=" 78" r=" 1.5"/>
</g>
<path d="M431,78" fill="none" stroke="#ff0099"/>
<path d="M431,76v -1" fill="none" stroke="#ff0099"/>
<path d="M427,77h 3" fill="none" stroke="#ff0099"/>
<path d="M432,77h 3" fill="none" stroke="#ff0099"/>
<g stroke="#ff0099" stroke-width="1" fill="#ff0099">
<circle cx=" 431" cy=" 77" r=" 1.5"/>
</g>
<path d="M438,76v -1" fill="none" stroke="#ff0099"/>
<path d="M438,73" fill="none" stroke="#ff0099"/>
<path d="M435,74h 2" fill="none" stroke="#ff0099"/>
<path d="M440,74h 2" fill="none" stroke="#ff0099"/>
<g stroke="#ff0099" stroke-width="1" fill="#ff0099">
<circle cx=" 438" cy=" 74" r=" 1.5"/>
</g>
<path d="M446,77" fill="none" stroke="#ff0099"/>
<path d="M446,75" fill="none" stroke="#ff0099"/>
<path d="M442,76h 3" fill="none" stroke="#ff0099"/>
<path d="M447,76h 3" fill="none" stroke="#ff0099"/>
<g stroke="#ff0099" stroke-width="1" fill="#ff0099">
<circle cx=" 446" cy=" 76" r=" 1.5"/>
</g>
<path d="M454,75v -1" fill="none" stroke="#ff0099"/>
<path d="M454,72" fill="none" stroke="#ff0099"/>
<path d="M450,73h 2" fill="none" stroke="#ff0099"/>
<path d="M455,73h 2" fill="none" stroke="#ff0099"/>
<g stroke="#ff0099" stroke-width="1" fill="#ff0099">
<circle cx=" 454" cy=" 73" r=" 1.5"/>
</g>
<path d="M461,77" fill="none" stroke="#ff0099"/>
<path d="M461,74" fill="none" stroke="#ff0099"/>
<path d="M457,75h 3" fill="none" stroke="#ff0099"/>
<path d="M462,75h 3" fill="none" stroke="#ff0099"/>
<g stroke="#ff0099" stroke-width="1" fill="#ff0099">
<circle cx=" 461" cy=" 75" r=" 1.5"/>
</g>
<path d="M469,83v -1" fill="none" stroke="#ff0099"/>
<path d="M469,80v -1" fill="none" stroke="#ff0099"/>
<path d="M465,81h 3" fill="none" stroke="#ff0099"/>
<path d="M470,81h 2" fill="none" stroke="#ff0099"/>
<g stroke="#ff0099" stroke-width="1" fill="#ff0099">
<circle cx=" 469" cy=" 81" r=" 1.5"/>
</g>
<rect x="357" y="41" width="142" height="70" fill="white"/>
<text x="360" y="58" fill="black" font-size="12" font-family="Helvetica" font-weight="bold">
EE
</text>
<text x="439" y="81" fill="black" font-size="12" font-family="Helvetica" font-weight="bold">
 ee
</text>
<text x="426" y="81" fill="black" font-size="12" font-family="Times">
&#8594;
</text>
<text x="392" y="81" fill="black" font-size="12" font-family="Helvetica" font-weight="bold">
MC Z 
</text>
<path d="M362,76h 25" fill="none" stroke="#ff0099"/>
<g stroke="#ff0099" stroke-width="1" fill="#ff0099">
<circle cx=" 375" cy=" 76" r=" 1.5"/>
</g>
<text x="438" y="102" fill="black" font-size="12" font-family="Helvetica" font-weight="bold">
 + jet
</text>
<text x="431" y="102" fill="black" font-size="12" font-family="Times">
&#0947;
</text>
<text x="392" y="102" fill="black" font-size="12" font-family="Helvetica" font-weight="bold">
signal 
</text>
<path d="M362,107h 25v -16h -25z" fill="#99ff99"/>
<path d="M362,91h 25" fill="none" stroke="#99ff99" stroke-width="2"/>
<path d="M362,107h 25" fill="none" stroke="#99ff99" stroke-width="2"/>
<path d="M387,107v -16" fill="none" stroke="#99ff99" stroke-width="2"/>
<path d="M362,107v -16" fill="none" stroke="#99ff99" stroke-width="2"/>
<text x="252" y="24" fill="black" font-size="12" font-family="Helvetica" font-weight="bold">
=8 TeV
</text>
<text x="246" y="24" fill="black" font-size="12" font-family="Helvetica" font-weight="bold">
s
</text>
<path d="M242,17l 1, 8" fill="none" stroke="black" stroke-width="2"/>
<path d="M243,25l 2, -11" fill="none" stroke="black"/>
<path d="M245,14h 7" fill="none" stroke="black"/>
<text x="142" y="24" fill="black" font-size="12" font-family="Helvetica" font-weight="bold">
CMS Preliminary 
</text>
<rect x="0" y="347" width="567" height="149" fill="white"/>
<rect x="57" y="362" width="453" height="104" fill="white"/>
<rect x="57" y="362" width="453" height="104" fill="none" stroke="black"/>
<rect x="57" y="362" width="453" height="104" fill="white"/>
<rect x="57" y="362" width="453" height="104" fill="none" stroke="black"/>
<path d="M57,466h 453" fill="none" stroke="black"/>
<path d="M57,466v -104" fill="none" stroke="black"/>
<path d="M510,455h -453" fill="none" stroke="black" stroke-dasharray=" 1, 2"/>
<path d="M510,436h -453" fill="none" stroke="black" stroke-dasharray=" 1, 2"/>
<path d="M510,418h -453" fill="none" stroke="black" stroke-dasharray=" 1, 2"/>
<path d="M510,399h -453" fill="none" stroke="black" stroke-dasharray=" 1, 2"/>
<path d="M510,381h -453" fill="none" stroke="black" stroke-dasharray=" 1, 2"/>
<path d="M510,362h -453" fill="none" stroke="black" stroke-dasharray=" 1, 2"/>
<path d="M510,455h -453" fill="none" stroke="black" stroke-dasharray=" 1, 2"/>
<path d="M98,409v -3" fill="none" stroke="#ff0099"/>
<path d="M98,403v -3" fill="none" stroke="#ff0099"/>
<path d="M94,405h 3" fill="none" stroke="#ff0099"/>
<path d="M99,405h 3" fill="none" stroke="#ff0099"/>
<g stroke="#ff0099" stroke-width="1" fill="#ff0099">
<circle cx=" 98" cy=" 405" r=" 1.5"/>
</g>
<path d="M106,420v -3" fill="none" stroke="#ff0099"/>
<path d="M106,415v -3" fill="none" stroke="#ff0099"/>
<path d="M102,416h 3" fill="none" stroke="#ff0099"/>
<path d="M107,416h 3" fill="none" stroke="#ff0099"/>
<g stroke="#ff0099" stroke-width="1" fill="#ff0099">
<circle cx=" 106" cy=" 416" r=" 1.5"/>
</g>
<path d="M113,432v -2" fill="none" stroke="#ff0099"/>
<path d="M113,428v -2" fill="none" stroke="#ff0099"/>
<path d="M110,429h 2" fill="none" stroke="#ff0099"/>
<path d="M115,429h 2" fill="none" stroke="#ff0099"/>
<g stroke="#ff0099" stroke-width="1" fill="#ff0099">
<circle cx=" 113" cy=" 429" r=" 1.5"/>
</g>
<path d="M121,434v -1" fill="none" stroke="#ff0099"/>
<path d="M121,430v -2" fill="none" stroke="#ff0099"/>
<path d="M117,431h 3" fill="none" stroke="#ff0099"/>
<path d="M122,431h 3" fill="none" stroke="#ff0099"/>
<g stroke="#ff0099" stroke-width="1" fill="#ff0099">
<circle cx=" 121" cy=" 431" r=" 1.5"/>
</g>
<path d="M129,436v -2" fill="none" stroke="#ff0099"/>
<path d="M129,432v -1" fill="none" stroke="#ff0099"/>
<path d="M125,433h 2" fill="none" stroke="#ff0099"/>
<path d="M130,433h 2" fill="none" stroke="#ff0099"/>
<g stroke="#ff0099" stroke-width="1" fill="#ff0099">
<circle cx=" 129" cy=" 433" r=" 1.5"/>
</g>
<path d="M136,447" fill="none" stroke="#ff0099"/>
<path d="M136,444" fill="none" stroke="#ff0099"/>
<path d="M132,446h 3" fill="none" stroke="#ff0099"/>
<path d="M137,446h 3" fill="none" stroke="#ff0099"/>
<g stroke="#ff0099" stroke-width="1" fill="#ff0099">
<circle cx=" 136" cy=" 446" r=" 1.5"/>
</g>
<path d="M144,450v -1" fill="none" stroke="#ff0099"/>
<path d="M144,447v -1" fill="none" stroke="#ff0099"/>
<path d="M140,448h 2" fill="none" stroke="#ff0099"/>
<path d="M145,448h 2" fill="none" stroke="#ff0099"/>
<g stroke="#ff0099" stroke-width="1" fill="#ff0099">
<circle cx=" 144" cy=" 448" r=" 1.5"/>
</g>
<path d="M151,447" fill="none" stroke="#ff0099"/>
<path d="M151,444" fill="none" stroke="#ff0099"/>
<path d="M147,446h 3" fill="none" stroke="#ff0099"/>
<path d="M152,446h 3" fill="none" stroke="#ff0099"/>
<g stroke="#ff0099" stroke-width="1" fill="#ff0099">
<circle cx=" 151" cy=" 446" r=" 1.5"/>
</g>
<path d="M159,446v -1" fill="none" stroke="#ff0099"/>
<path d="M159,443v -1" fill="none" stroke="#ff0099"/>
<path d="M155,444h 3" fill="none" stroke="#ff0099"/>
<path d="M160,444h 3" fill="none" stroke="#ff0099"/>
<g stroke="#ff0099" stroke-width="1" fill="#ff0099">
<circle cx=" 159" cy=" 444" r=" 1.5"/>
</g>
<path d="M166,454v -1" fill="none" stroke="#ff0099"/>
<path d="M166,450v -1" fill="none" stroke="#ff0099"/>
<path d="M163,451h 2" fill="none" stroke="#ff0099"/>
<path d="M167,451h 3" fill="none" stroke="#ff0099"/>
<g stroke="#ff0099" stroke-width="1" fill="#ff0099">
<circle cx=" 166" cy=" 451" r=" 1.5"/>
</g>
<path d="M401,448v -2" fill="none" stroke="#ff0099"/>
<path d="M401,444v -2" fill="none" stroke="#ff0099"/>
<path d="M397,445h 2" fill="none" stroke="#ff0099"/>
<path d="M402,445h 2" fill="none" stroke="#ff0099"/>
<g stroke="#ff0099" stroke-width="1" fill="#ff0099">
<circle cx=" 401" cy=" 445" r=" 1.5"/>
</g>
<path d="M408,444v -1" fill="none" stroke="#ff0099"/>
<path d="M408,440v -1" fill="none" stroke="#ff0099"/>
<path d="M404,441h 3" fill="none" stroke="#ff0099"/>
<path d="M409,441h 3" fill="none" stroke="#ff0099"/>
<g stroke="#ff0099" stroke-width="1" fill="#ff0099">
<circle cx=" 408" cy=" 441" r=" 1.5"/>
</g>
<path d="M416,446v -1" fill="none" stroke="#ff0099"/>
<path d="M416,443v -1" fill="none" stroke="#ff0099"/>
<path d="M412,444h 3" fill="none" stroke="#ff0099"/>
<path d="M417,444h 3" fill="none" stroke="#ff0099"/>
<g stroke="#ff0099" stroke-width="1" fill="#ff0099">
<circle cx=" 416" cy=" 444" r=" 1.5"/>
</g>
<path d="M423,446" fill="none" stroke="#ff0099"/>
<path d="M423,444v -1" fill="none" stroke="#ff0099"/>
<path d="M420,445h 2" fill="none" stroke="#ff0099"/>
<path d="M424,445h 3" fill="none" stroke="#ff0099"/>
<g stroke="#ff0099" stroke-width="1" fill="#ff0099">
<circle cx=" 423" cy=" 445" r=" 1.5"/>
</g>
<path d="M431,444v -1" fill="none" stroke="#ff0099"/>
<path d="M431,440v -1" fill="none" stroke="#ff0099"/>
<path d="M427,441h 3" fill="none" stroke="#ff0099"/>
<path d="M432,441h 3" fill="none" stroke="#ff0099"/>
<g stroke="#ff0099" stroke-width="1" fill="#ff0099">
<circle cx=" 431" cy=" 441" r=" 1.5"/>
</g>
<path d="M438,436v -2" fill="none" stroke="#ff0099"/>
<path d="M438,432v -1" fill="none" stroke="#ff0099"/>
<path d="M435,433h 2" fill="none" stroke="#ff0099"/>
<path d="M440,433h 2" fill="none" stroke="#ff0099"/>
<g stroke="#ff0099" stroke-width="1" fill="#ff0099">
<circle cx=" 438" cy=" 433" r=" 1.5"/>
</g>
<path d="M446,434v -1" fill="none" stroke="#ff0099"/>
<path d="M446,431v -2" fill="none" stroke="#ff0099"/>
<path d="M442,432h 3" fill="none" stroke="#ff0099"/>
<path d="M447,432h 3" fill="none" stroke="#ff0099"/>
<g stroke="#ff0099" stroke-width="1" fill="#ff0099">
<circle cx=" 446" cy=" 432" r=" 1.5"/>
</g>
<path d="M454,422v -2" fill="none" stroke="#ff0099"/>
<path d="M454,418v -3" fill="none" stroke="#ff0099"/>
<path d="M450,419h 2" fill="none" stroke="#ff0099"/>
<path d="M455,419h 2" fill="none" stroke="#ff0099"/>
<g stroke="#ff0099" stroke-width="1" fill="#ff0099">
<circle cx=" 454" cy=" 419" r=" 1.5"/>
</g>
<path d="M461,421v -3" fill="none" stroke="#ff0099"/>
<path d="M461,416v -3" fill="none" stroke="#ff0099"/>
<path d="M457,417h 3" fill="none" stroke="#ff0099"/>
<path d="M462,417h 3" fill="none" stroke="#ff0099"/>
<g stroke="#ff0099" stroke-width="1" fill="#ff0099">
<circle cx=" 461" cy=" 417" r=" 1.5"/>
</g>
<path d="M469,417v -4" fill="none" stroke="#ff0099"/>
<path d="M469,411v -4" fill="none" stroke="#ff0099"/>
<path d="M465,412h 3" fill="none" stroke="#ff0099"/>
<path d="M470,412h 2" fill="none" stroke="#ff0099"/>
<g stroke="#ff0099" stroke-width="1" fill="#ff0099">
<circle cx=" 469" cy=" 412" r=" 1.5"/>
</g>
<path d="M57,466h 453" fill="none" stroke="black"/>
<text x="504" y="487" fill="black" font-size="11" font-family="Times">
&#0951;
</text>
<text x="501" y="487" fill="black" font-size="11" font-family="Helvetica" font-weight="bold">
 
</text>
<text x="495" y="487" fill="black" font-size="11" font-family="Times">
&#0947;
</text>
<path d="M57,463v 3" fill="none" stroke="black"/>
<path d="M72,464v 2" fill="none" stroke="black"/>
<path d="M87,464v 2" fill="none" stroke="black"/>
<path d="M102,464v 2" fill="none" stroke="black"/>
<path d="M117,464v 2" fill="none" stroke="black"/>
<path d="M132,463v 3" fill="none" stroke="black"/>
<path d="M147,464v 2" fill="none" stroke="black"/>
<path d="M163,464v 2" fill="none" stroke="black"/>
<path d="M178,464v 2" fill="none" stroke="black"/>
<path d="M193,464v 2" fill="none" stroke="black"/>
<path d="M208,463v 3" fill="none" stroke="black"/>
<path d="M223,464v 2" fill="none" stroke="black"/>
<path d="M238,464v 2" fill="none" stroke="black"/>
<path d="M253,464v 2" fill="none" stroke="black"/>
<path d="M268,464v 2" fill="none" stroke="black"/>
<path d="M283,463v 3" fill="none" stroke="black"/>
<path d="M299,464v 2" fill="none" stroke="black"/>
<path d="M314,464v 2" fill="none" stroke="black"/>
<path d="M329,464v 2" fill="none" stroke="black"/>
<path d="M344,464v 2" fill="none" stroke="black"/>
<path d="M359,463v 3" fill="none" stroke="black"/>
<path d="M374,464v 2" fill="none" stroke="black"/>
<path d="M389,464v 2" fill="none" stroke="black"/>
<path d="M404,464v 2" fill="none" stroke="black"/>
<path d="M420,464v 2" fill="none" stroke="black"/>
<path d="M435,463v 3" fill="none" stroke="black"/>
<path d="M450,464v 2" fill="none" stroke="black"/>
<path d="M465,464v 2" fill="none" stroke="black"/>
<path d="M480,464v 2" fill="none" stroke="black"/>
<path d="M495,464v 2" fill="none" stroke="black"/>
<path d="M510,463v 3" fill="none" stroke="black"/>
<text x="52" y="475" fill="black" font-size="10" font-family="Helvetica" font-weight="bold">
-3
</text>
<text x="128" y="475" fill="black" font-size="10" font-family="Helvetica" font-weight="bold">
-2
</text>
<text x="204" y="475" fill="black" font-size="10" font-family="Helvetica" font-weight="bold">
-1
</text>
<text x="281" y="475" fill="black" font-size="10" font-family="Helvetica" font-weight="bold">
0
</text>
<text x="356" y="475" fill="black" font-size="10" font-family="Helvetica" font-weight="bold">
1
</text>
<text x="431" y="475" fill="black" font-size="10" font-family="Helvetica" font-weight="bold">
2
</text>
<text x="507" y="475" fill="black" font-size="10" font-family="Helvetica" font-weight="bold">
3
</text>
<path d="M57,466v -104" fill="none" stroke="black"/>
<g transform="rotate(-90,34,365)">
<text x="34" y="365" fill="black" font-size="11" font-family="Helvetica" font-weight="bold">
)
</text>
</g>
<g transform="rotate(-90,34,371)">
<text x="34" y="371" fill="black" font-size="11" font-family="Times">
&#0947;
</text>
</g>
<g transform="rotate(-90,34,424)">
<text x="34" y="424" fill="black" font-size="11" font-family="Helvetica" font-weight="bold">
MC(e)/MC(
</text>
</g>
<path d="M69,455h -12" fill="none" stroke="black"/>
<path d="M63,451h -6" fill="none" stroke="black"/>
<path d="M63,448h -6" fill="none" stroke="black"/>
<path d="M63,444h -6" fill="none" stroke="black"/>
<path d="M63,440h -6" fill="none" stroke="black"/>
<path d="M69,436h -12" fill="none" stroke="black"/>
<path d="M63,433h -6" fill="none" stroke="black"/>
<path d="M63,429h -6" fill="none" stroke="black"/>
<path d="M63,425h -6" fill="none" stroke="black"/>
<path d="M63,422h -6" fill="none" stroke="black"/>
<path d="M69,418h -12" fill="none" stroke="black"/>
<path d="M63,414h -6" fill="none" stroke="black"/>
<path d="M63,410h -6" fill="none" stroke="black"/>
<path d="M63,407h -6" fill="none" stroke="black"/>
<path d="M63,403h -6" fill="none" stroke="black"/>
<path d="M69,399h -12" fill="none" stroke="black"/>
<path d="M63,395h -6" fill="none" stroke="black"/>
<path d="M63,392h -6" fill="none" stroke="black"/>
<path d="M63,388h -6" fill="none" stroke="black"/>
<path d="M63,384h -6" fill="none" stroke="black"/>
<path d="M69,381h -12" fill="none" stroke="black"/>
<path d="M63,377h -6" fill="none" stroke="black"/>
<path d="M63,373h -6" fill="none" stroke="black"/>
<path d="M63,369h -6" fill="none" stroke="black"/>
<path d="M63,366h -6" fill="none" stroke="black"/>
<path d="M69,362h -12" fill="none" stroke="black"/>
<path d="M69,455h -12" fill="none" stroke="black"/>
<path d="M63,459h -6" fill="none" stroke="black"/>
<path d="M63,462h -6" fill="none" stroke="black"/>
<path d="M63,466h -6" fill="none" stroke="black"/>
<text x="40" y="459" fill="black" font-size="10" font-family="Helvetica" font-weight="bold">
0.5
</text>
<text x="50" y="440" fill="black" font-size="10" font-family="Helvetica" font-weight="bold">
1
</text>
<text x="40" y="421" fill="black" font-size="10" font-family="Helvetica" font-weight="bold">
1.5
</text>
<text x="48" y="403" fill="black" font-size="10" font-family="Helvetica" font-weight="bold">
2
</text>
<text x="40" y="384" fill="black" font-size="10" font-family="Helvetica" font-weight="bold">
2.5
</text>
<text x="48" y="366" fill="black" font-size="10" font-family="Helvetica" font-weight="bold">
3
</text>
<path d="M57,436h 453" fill="none" stroke="#0000ff" stroke-width="2"/>
<path d="M98,409v -3" fill="none" stroke="#ff0099"/>
<path d="M98,403v -3" fill="none" stroke="#ff0099"/>
<path d="M94,405h 3" fill="none" stroke="#ff0099"/>
<path d="M99,405h 3" fill="none" stroke="#ff0099"/>
<g stroke="#ff0099" stroke-width="1" fill="#ff0099">
<circle cx=" 98" cy=" 405" r=" 1.5"/>
</g>
<path d="M106,420v -3" fill="none" stroke="#ff0099"/>
<path d="M106,415v -3" fill="none" stroke="#ff0099"/>
<path d="M102,416h 3" fill="none" stroke="#ff0099"/>
<path d="M107,416h 3" fill="none" stroke="#ff0099"/>
<g stroke="#ff0099" stroke-width="1" fill="#ff0099">
<circle cx=" 106" cy=" 416" r=" 1.5"/>
</g>
<path d="M113,432v -2" fill="none" stroke="#ff0099"/>
<path d="M113,428v -2" fill="none" stroke="#ff0099"/>
<path d="M110,429h 2" fill="none" stroke="#ff0099"/>
<path d="M115,429h 2" fill="none" stroke="#ff0099"/>
<g stroke="#ff0099" stroke-width="1" fill="#ff0099">
<circle cx=" 113" cy=" 429" r=" 1.5"/>
</g>
<path d="M121,434v -1" fill="none" stroke="#ff0099"/>
<path d="M121,430v -2" fill="none" stroke="#ff0099"/>
<path d="M117,431h 3" fill="none" stroke="#ff0099"/>
<path d="M122,431h 3" fill="none" stroke="#ff0099"/>
<g stroke="#ff0099" stroke-width="1" fill="#ff0099">
<circle cx=" 121" cy=" 431" r=" 1.5"/>
</g>
<path d="M129,436v -2" fill="none" stroke="#ff0099"/>
<path d="M129,432v -1" fill="none" stroke="#ff0099"/>
<path d="M125,433h 2" fill="none" stroke="#ff0099"/>
<path d="M130,433h 2" fill="none" stroke="#ff0099"/>
<g stroke="#ff0099" stroke-width="1" fill="#ff0099">
<circle cx=" 129" cy=" 433" r=" 1.5"/>
</g>
<path d="M136,447" fill="none" stroke="#ff0099"/>
<path d="M136,444" fill="none" stroke="#ff0099"/>
<path d="M132,446h 3" fill="none" stroke="#ff0099"/>
<path d="M137,446h 3" fill="none" stroke="#ff0099"/>
<g stroke="#ff0099" stroke-width="1" fill="#ff0099">
<circle cx=" 136" cy=" 446" r=" 1.5"/>
</g>
<path d="M144,450v -1" fill="none" stroke="#ff0099"/>
<path d="M144,447v -1" fill="none" stroke="#ff0099"/>
<path d="M140,448h 2" fill="none" stroke="#ff0099"/>
<path d="M145,448h 2" fill="none" stroke="#ff0099"/>
<g stroke="#ff0099" stroke-width="1" fill="#ff0099">
<circle cx=" 144" cy=" 448" r=" 1.5"/>
</g>
<path d="M151,447" fill="none" stroke="#ff0099"/>
<path d="M151,444" fill="none" stroke="#ff0099"/>
<path d="M147,446h 3" fill="none" stroke="#ff0099"/>
<path d="M152,446h 3" fill="none" stroke="#ff0099"/>
<g stroke="#ff0099" stroke-width="1" fill="#ff0099">
<circle cx=" 151" cy=" 446" r=" 1.5"/>
</g>
<path d="M159,446v -1" fill="none" stroke="#ff0099"/>
<path d="M159,443v -1" fill="none" stroke="#ff0099"/>
<path d="M155,444h 3" fill="none" stroke="#ff0099"/>
<path d="M160,444h 3" fill="none" stroke="#ff0099"/>
<g stroke="#ff0099" stroke-width="1" fill="#ff0099">
<circle cx=" 159" cy=" 444" r=" 1.5"/>
</g>
<path d="M166,454v -1" fill="none" stroke="#ff0099"/>
<path d="M166,450v -1" fill="none" stroke="#ff0099"/>
<path d="M163,451h 2" fill="none" stroke="#ff0099"/>
<path d="M167,451h 3" fill="none" stroke="#ff0099"/>
<g stroke="#ff0099" stroke-width="1" fill="#ff0099">
<circle cx=" 166" cy=" 451" r=" 1.5"/>
</g>
<path d="M401,448v -2" fill="none" stroke="#ff0099"/>
<path d="M401,444v -2" fill="none" stroke="#ff0099"/>
<path d="M397,445h 2" fill="none" stroke="#ff0099"/>
<path d="M402,445h 2" fill="none" stroke="#ff0099"/>
<g stroke="#ff0099" stroke-width="1" fill="#ff0099">
<circle cx=" 401" cy=" 445" r=" 1.5"/>
</g>
<path d="M408,444v -1" fill="none" stroke="#ff0099"/>
<path d="M408,440v -1" fill="none" stroke="#ff0099"/>
<path d="M404,441h 3" fill="none" stroke="#ff0099"/>
<path d="M409,441h 3" fill="none" stroke="#ff0099"/>
<g stroke="#ff0099" stroke-width="1" fill="#ff0099">
<circle cx=" 408" cy=" 441" r=" 1.5"/>
</g>
<path d="M416,446v -1" fill="none" stroke="#ff0099"/>
<path d="M416,443v -1" fill="none" stroke="#ff0099"/>
<path d="M412,444h 3" fill="none" stroke="#ff0099"/>
<path d="M417,444h 3" fill="none" stroke="#ff0099"/>
<g stroke="#ff0099" stroke-width="1" fill="#ff0099">
<circle cx=" 416" cy=" 444" r=" 1.5"/>
</g>
<path d="M423,446" fill="none" stroke="#ff0099"/>
<path d="M423,444v -1" fill="none" stroke="#ff0099"/>
<path d="M420,445h 2" fill="none" stroke="#ff0099"/>
<path d="M424,445h 3" fill="none" stroke="#ff0099"/>
<g stroke="#ff0099" stroke-width="1" fill="#ff0099">
<circle cx=" 423" cy=" 445" r=" 1.5"/>
</g>
<path d="M431,444v -1" fill="none" stroke="#ff0099"/>
<path d="M431,440v -1" fill="none" stroke="#ff0099"/>
<path d="M427,441h 3" fill="none" stroke="#ff0099"/>
<path d="M432,441h 3" fill="none" stroke="#ff0099"/>
<g stroke="#ff0099" stroke-width="1" fill="#ff0099">
<circle cx=" 431" cy=" 441" r=" 1.5"/>
</g>
<path d="M438,436v -2" fill="none" stroke="#ff0099"/>
<path d="M438,432v -1" fill="none" stroke="#ff0099"/>
<path d="M435,433h 2" fill="none" stroke="#ff0099"/>
<path d="M440,433h 2" fill="none" stroke="#ff0099"/>
<g stroke="#ff0099" stroke-width="1" fill="#ff0099">
<circle cx=" 438" cy=" 433" r=" 1.5"/>
</g>
<path d="M446,434v -1" fill="none" stroke="#ff0099"/>
<path d="M446,431v -2" fill="none" stroke="#ff0099"/>
<path d="M442,432h 3" fill="none" stroke="#ff0099"/>
<path d="M447,432h 3" fill="none" stroke="#ff0099"/>
<g stroke="#ff0099" stroke-width="1" fill="#ff0099">
<circle cx=" 446" cy=" 432" r=" 1.5"/>
</g>
<path d="M454,422v -2" fill="none" stroke="#ff0099"/>
<path d="M454,418v -3" fill="none" stroke="#ff0099"/>
<path d="M450,419h 2" fill="none" stroke="#ff0099"/>
<path d="M455,419h 2" fill="none" stroke="#ff0099"/>
<g stroke="#ff0099" stroke-width="1" fill="#ff0099">
<circle cx=" 454" cy=" 419" r=" 1.5"/>
</g>
<path d="M461,421v -3" fill="none" stroke="#ff0099"/>
<path d="M461,416v -3" fill="none" stroke="#ff0099"/>
<path d="M457,417h 3" fill="none" stroke="#ff0099"/>
<path d="M462,417h 3" fill="none" stroke="#ff0099"/>
<g stroke="#ff0099" stroke-width="1" fill="#ff0099">
<circle cx=" 461" cy=" 417" r=" 1.5"/>
</g>
<path d="M469,417v -4" fill="none" stroke="#ff0099"/>
<path d="M469,411v -4" fill="none" stroke="#ff0099"/>
<path d="M465,412h 3" fill="none" stroke="#ff0099"/>
<path d="M470,412h 2" fill="none" stroke="#ff0099"/>
<g stroke="#ff0099" stroke-width="1" fill="#ff0099">
<circle cx=" 469" cy=" 412" r=" 1.5"/>
</g></svg>
