<?xml version="1.0" standalone="no"?>
<svg width="567" height="496" viewBox="0 0 567 496" xmlns="http://www.w3.org/2000/svg">
<title>
plots_mcZee_mcGJet_withEtaR9rhoIsoReweight/hlt150/mvaIdPhotEE.svg
</title>
<desc>
Creator: ROOT Version 5.32/00
CreationDate: Sun Nov 30 15:46:45 2014</desc>
<defs>
</defs>
<rect x="0" y="0" width="567" height="496" fill="white"/>
<rect x="74" y="44" width="453" height="402" fill="white"/>
<rect x="74" y="44" width="453" height="402" fill="none" stroke="black"/>
<rect x="74" y="44" width="453" height="402" fill="white"/>
<rect x="74" y="44" width="453" height="402" fill="none" stroke="black"/>
<path d="M471,407v -1" fill="none" stroke="#ff0099"/>
<path d="M471,404v -1" fill="none" stroke="#ff0099"/>
<path d="M467,405h 2" fill="none" stroke="#ff0099"/>
<path d="M472,405h 2" fill="none" stroke="#ff0099"/>
<g stroke="#ff0099" stroke-width="1" fill="#ff0099">
<circle cx=" 471" cy=" 405" r=" 1.5"/>
</g>
<path d="M478,360v -2" fill="none" stroke="#ff0099"/>
<path d="M478,356v -2" fill="none" stroke="#ff0099"/>
<path d="M474,357h 3" fill="none" stroke="#ff0099"/>
<path d="M479,357h 3" fill="none" stroke="#ff0099"/>
<g stroke="#ff0099" stroke-width="1" fill="#ff0099">
<circle cx=" 478" cy=" 357" r=" 1.5"/>
</g>
<path d="M486,332v -3" fill="none" stroke="#ff0099"/>
<path d="M486,327v -3" fill="none" stroke="#ff0099"/>
<path d="M482,328h 3" fill="none" stroke="#ff0099"/>
<path d="M487,328h 2" fill="none" stroke="#ff0099"/>
<g stroke="#ff0099" stroke-width="1" fill="#ff0099">
<circle cx=" 486" cy=" 328" r=" 1.5"/>
</g>
<path d="M493,289v -3" fill="none" stroke="#ff0099"/>
<path d="M493,283v -3" fill="none" stroke="#ff0099"/>
<path d="M489,285h 3" fill="none" stroke="#ff0099"/>
<path d="M494,285h 3" fill="none" stroke="#ff0099"/>
<g stroke="#ff0099" stroke-width="1" fill="#ff0099">
<circle cx=" 493" cy=" 285" r=" 1.5"/>
</g>
<path d="M501,180v -6" fill="none" stroke="#ff0099"/>
<path d="M501,172v -7" fill="none" stroke="#ff0099"/>
<path d="M497,173h 3" fill="none" stroke="#ff0099"/>
<path d="M502,173h 3" fill="none" stroke="#ff0099"/>
<g stroke="#ff0099" stroke-width="1" fill="#ff0099">
<circle cx=" 501" cy=" 173" r=" 1.5"/>
</g>
<path d="M508,87v -11" fill="none" stroke="#ff0099"/>
<path d="M508,74v -11" fill="none" stroke="#ff0099"/>
<path d="M505,75h 2" fill="none" stroke="#ff0099"/>
<path d="M509,75h 3" fill="none" stroke="#ff0099"/>
<g stroke="#ff0099" stroke-width="1" fill="#ff0099">
<circle cx=" 508" cy=" 75" r=" 1.5"/>
</g>
<path d="M516,323v -6" fill="none" stroke="#ff0099"/>
<path d="M516,314v -6" fill="none" stroke="#ff0099"/>
<path d="M512,316h 3" fill="none" stroke="#ff0099"/>
<path d="M517,316h 3" fill="none" stroke="#ff0099"/>
<g stroke="#ff0099" stroke-width="1" fill="#ff0099">
<circle cx=" 516" cy=" 316" r=" 1.5"/>
</g>
<path d="M523,444v -1" fill="none" stroke="#ff0099"/>
<path d="M523,441v -1" fill="none" stroke="#ff0099"/>
<path d="M520,442h 2" fill="none" stroke="#ff0099"/>
<path d="M525,442h 2" fill="none" stroke="#ff0099"/>
<g stroke="#ff0099" stroke-width="1" fill="#ff0099">
<circle cx=" 523" cy=" 442" r=" 1.5"/>
</g>
<path d="M74,446h 453" fill="none" stroke="black"/>
<path d="M74,434v 12" fill="none" stroke="black"/>
<path d="M83,440v 6" fill="none" stroke="black"/>
<path d="M92,440v 6" fill="none" stroke="black"/>
<path d="M101,440v 6" fill="none" stroke="black"/>
<path d="M110,440v 6" fill="none" stroke="black"/>
<path d="M119,434v 12" fill="none" stroke="black"/>
<path d="M128,440v 6" fill="none" stroke="black"/>
<path d="M137,440v 6" fill="none" stroke="black"/>
<path d="M146,440v 6" fill="none" stroke="black"/>
<path d="M155,440v 6" fill="none" stroke="black"/>
<path d="M164,434v 12" fill="none" stroke="black"/>
<path d="M173,440v 6" fill="none" stroke="black"/>
<path d="M183,440v 6" fill="none" stroke="black"/>
<path d="M192,440v 6" fill="none" stroke="black"/>
<path d="M201,440v 6" fill="none" stroke="black"/>
<path d="M210,434v 12" fill="none" stroke="black"/>
<path d="M219,440v 6" fill="none" stroke="black"/>
<path d="M228,440v 6" fill="none" stroke="black"/>
<path d="M237,440v 6" fill="none" stroke="black"/>
<path d="M246,440v 6" fill="none" stroke="black"/>
<path d="M255,434v 12" fill="none" stroke="black"/>
<path d="M264,440v 6" fill="none" stroke="black"/>
<path d="M273,440v 6" fill="none" stroke="black"/>
<path d="M282,440v 6" fill="none" stroke="black"/>
<path d="M291,440v 6" fill="none" stroke="black"/>
<path d="M300,434v 12" fill="none" stroke="black"/>
<path d="M310,440v 6" fill="none" stroke="black"/>
<path d="M319,440v 6" fill="none" stroke="black"/>
<path d="M328,440v 6" fill="none" stroke="black"/>
<path d="M337,440v 6" fill="none" stroke="black"/>
<path d="M346,434v 12" fill="none" stroke="black"/>
<path d="M355,440v 6" fill="none" stroke="black"/>
<path d="M364,440v 6" fill="none" stroke="black"/>
<path d="M373,440v 6" fill="none" stroke="black"/>
<path d="M382,440v 6" fill="none" stroke="black"/>
<path d="M391,434v 12" fill="none" stroke="black"/>
<path d="M400,440v 6" fill="none" stroke="black"/>
<path d="M409,440v 6" fill="none" stroke="black"/>
<path d="M418,440v 6" fill="none" stroke="black"/>
<path d="M427,440v 6" fill="none" stroke="black"/>
<path d="M437,434v 12" fill="none" stroke="black"/>
<path d="M446,440v 6" fill="none" stroke="black"/>
<path d="M455,440v 6" fill="none" stroke="black"/>
<path d="M464,440v 6" fill="none" stroke="black"/>
<path d="M473,440v 6" fill="none" stroke="black"/>
<path d="M482,434v 12" fill="none" stroke="black"/>
<path d="M491,440v 6" fill="none" stroke="black"/>
<path d="M500,440v 6" fill="none" stroke="black"/>
<path d="M509,440v 6" fill="none" stroke="black"/>
<path d="M518,440v 6" fill="none" stroke="black"/>
<path d="M527,434v 12" fill="none" stroke="black"/>
<text x="68" y="465" fill="black" font-size="18" font-family="Helvetica" font-weight="bold">
0
</text>
<text x="107" y="465" fill="black" font-size="18" font-family="Helvetica" font-weight="bold">
0.1
</text>
<text x="151" y="465" fill="black" font-size="18" font-family="Helvetica" font-weight="bold">
0.2
</text>
<text x="196" y="465" fill="black" font-size="18" font-family="Helvetica" font-weight="bold">
0.3
</text>
<text x="242" y="465" fill="black" font-size="18" font-family="Helvetica" font-weight="bold">
0.4
</text>
<text x="287" y="465" fill="black" font-size="18" font-family="Helvetica" font-weight="bold">
0.5
</text>
<text x="332" y="465" fill="black" font-size="18" font-family="Helvetica" font-weight="bold">
0.6
</text>
<text x="378" y="465" fill="black" font-size="18" font-family="Helvetica" font-weight="bold">
0.7
</text>
<text x="423" y="465" fill="black" font-size="18" font-family="Helvetica" font-weight="bold">
0.8
</text>
<text x="468" y="465" fill="black" font-size="18" font-family="Helvetica" font-weight="bold">
0.9
</text>
<text x="523" y="465" fill="black" font-size="18" font-family="Helvetica" font-weight="bold">
1
</text>
<path d="M74,44h 453" fill="none" stroke="black"/>
<path d="M74,56v -12" fill="none" stroke="black"/>
<path d="M83,50v -6" fill="none" stroke="black"/>
<path d="M92,50v -6" fill="none" stroke="black"/>
<path d="M101,50v -6" fill="none" stroke="black"/>
<path d="M110,50v -6" fill="none" stroke="black"/>
<path d="M119,56v -12" fill="none" stroke="black"/>
<path d="M128,50v -6" fill="none" stroke="black"/>
<path d="M137,50v -6" fill="none" stroke="black"/>
<path d="M146,50v -6" fill="none" stroke="black"/>
<path d="M155,50v -6" fill="none" stroke="black"/>
<path d="M164,56v -12" fill="none" stroke="black"/>
<path d="M173,50v -6" fill="none" stroke="black"/>
<path d="M183,50v -6" fill="none" stroke="black"/>
<path d="M192,50v -6" fill="none" stroke="black"/>
<path d="M201,50v -6" fill="none" stroke="black"/>
<path d="M210,56v -12" fill="none" stroke="black"/>
<path d="M219,50v -6" fill="none" stroke="black"/>
<path d="M228,50v -6" fill="none" stroke="black"/>
<path d="M237,50v -6" fill="none" stroke="black"/>
<path d="M246,50v -6" fill="none" stroke="black"/>
<path d="M255,56v -12" fill="none" stroke="black"/>
<path d="M264,50v -6" fill="none" stroke="black"/>
<path d="M273,50v -6" fill="none" stroke="black"/>
<path d="M282,50v -6" fill="none" stroke="black"/>
<path d="M291,50v -6" fill="none" stroke="black"/>
<path d="M300,56v -12" fill="none" stroke="black"/>
<path d="M310,50v -6" fill="none" stroke="black"/>
<path d="M319,50v -6" fill="none" stroke="black"/>
<path d="M328,50v -6" fill="none" stroke="black"/>
<path d="M337,50v -6" fill="none" stroke="black"/>
<path d="M346,56v -12" fill="none" stroke="black"/>
<path d="M355,50v -6" fill="none" stroke="black"/>
<path d="M364,50v -6" fill="none" stroke="black"/>
<path d="M373,50v -6" fill="none" stroke="black"/>
<path d="M382,50v -6" fill="none" stroke="black"/>
<path d="M391,56v -12" fill="none" stroke="black"/>
<path d="M400,50v -6" fill="none" stroke="black"/>
<path d="M409,50v -6" fill="none" stroke="black"/>
<path d="M418,50v -6" fill="none" stroke="black"/>
<path d="M427,50v -6" fill="none" stroke="black"/>
<path d="M437,56v -12" fill="none" stroke="black"/>
<path d="M446,50v -6" fill="none" stroke="black"/>
<path d="M455,50v -6" fill="none" stroke="black"/>
<path d="M464,50v -6" fill="none" stroke="black"/>
<path d="M473,50v -6" fill="none" stroke="black"/>
<path d="M482,56v -12" fill="none" stroke="black"/>
<path d="M491,50v -6" fill="none" stroke="black"/>
<path d="M500,50v -6" fill="none" stroke="black"/>
<path d="M509,50v -6" fill="none" stroke="black"/>
<path d="M518,50v -6" fill="none" stroke="black"/>
<path d="M527,56v -12" fill="none" stroke="black"/>
<path d="M74,446v -402" fill="none" stroke="black"/>
<path d="M87,446h -13" fill="none" stroke="black"/>
<path d="M81,434h -7" fill="none" stroke="black"/>
<path d="M81,423h -7" fill="none" stroke="black"/>
<path d="M81,411h -7" fill="none" stroke="black"/>
<path d="M81,399h -7" fill="none" stroke="black"/>
<path d="M87,387h -13" fill="none" stroke="black"/>
<path d="M81,375h -7" fill="none" stroke="black"/>
<path d="M81,363h -7" fill="none" stroke="black"/>
<path d="M81,351h -7" fill="none" stroke="black"/>
<path d="M81,339h -7" fill="none" stroke="black"/>
<path d="M87,327h -13" fill="none" stroke="black"/>
<path d="M81,315h -7" fill="none" stroke="black"/>
<path d="M81,303h -7" fill="none" stroke="black"/>
<path d="M81,292h -7" fill="none" stroke="black"/>
<path d="M81,280h -7" fill="none" stroke="black"/>
<path d="M87,268h -13" fill="none" stroke="black"/>
<path d="M81,256h -7" fill="none" stroke="black"/>
<path d="M81,244h -7" fill="none" stroke="black"/>
<path d="M81,232h -7" fill="none" stroke="black"/>
<path d="M81,220h -7" fill="none" stroke="black"/>
<path d="M87,208h -13" fill="none" stroke="black"/>
<path d="M81,196h -7" fill="none" stroke="black"/>
<path d="M81,184h -7" fill="none" stroke="black"/>
<path d="M81,172h -7" fill="none" stroke="black"/>
<path d="M81,161h -7" fill="none" stroke="black"/>
<path d="M87,149h -13" fill="none" stroke="black"/>
<path d="M81,137h -7" fill="none" stroke="black"/>
<path d="M81,125h -7" fill="none" stroke="black"/>
<path d="M81,113h -7" fill="none" stroke="black"/>
<path d="M81,101h -7" fill="none" stroke="black"/>
<path d="M87,89h -13" fill="none" stroke="black"/>
<path d="M87,89h -13" fill="none" stroke="black"/>
<path d="M81,77h -7" fill="none" stroke="black"/>
<path d="M81,65h -7" fill="none" stroke="black"/>
<path d="M81,53h -7" fill="none" stroke="black"/>
<text x="61" y="453" fill="black" font-size="18" font-family="Helvetica" font-weight="bold">
0
</text>
<text x="34" y="394" fill="black" font-size="18" font-family="Helvetica" font-weight="bold">
0.05
</text>
<text x="47" y="334" fill="black" font-size="18" font-family="Helvetica" font-weight="bold">
0.1
</text>
<text x="34" y="274" fill="black" font-size="18" font-family="Helvetica" font-weight="bold">
0.15
</text>
<text x="45" y="215" fill="black" font-size="18" font-family="Helvetica" font-weight="bold">
0.2
</text>
<text x="34" y="155" fill="black" font-size="18" font-family="Helvetica" font-weight="bold">
0.25
</text>
<text x="45" y="96" fill="black" font-size="18" font-family="Helvetica" font-weight="bold">
0.3
</text>
<path d="M471,437v -1" fill="none" stroke="#99ff99" stroke-width="2"/>
<path d="M471,436v -1" fill="none" stroke="#99ff99" stroke-width="2"/>
<g stroke="black" stroke-width="2" fill="none">
<line x1="470" y1="436" x2="471" y2="436"/>
</g>
<path d="M478,418v -2" fill="none" stroke="#99ff99" stroke-width="2"/>
<path d="M478,416v -1" fill="none" stroke="#99ff99" stroke-width="2"/>
<g stroke="black" stroke-width="2" fill="none">
<line x1="477" y1="416" x2="478" y2="416"/>
</g>
<path d="M486,392v -1" fill="none" stroke="#99ff99" stroke-width="2"/>
<path d="M486,391" fill="none" stroke="#99ff99" stroke-width="2"/>
<g stroke="black" stroke-width="2" fill="none">
<line x1="485" y1="391" x2="486" y2="391"/>
</g>
<path d="M493,339v -1" fill="none" stroke="#99ff99" stroke-width="2"/>
<path d="M493,338v -1" fill="none" stroke="#99ff99" stroke-width="2"/>
<g stroke="black" stroke-width="2" fill="none">
<line x1="492" y1="338" x2="493" y2="338"/>
</g>
<path d="M501,232v -3" fill="none" stroke="#99ff99" stroke-width="2"/>
<path d="M501,229v -2" fill="none" stroke="#99ff99" stroke-width="2"/>
<g stroke="black" stroke-width="2" fill="none">
<line x1="500" y1="229" x2="501" y2="229"/>
</g>
<path d="M508,53v -3" fill="none" stroke="#99ff99" stroke-width="2"/>
<path d="M508,50v -3" fill="none" stroke="#99ff99" stroke-width="2"/>
<g stroke="black" stroke-width="2" fill="none">
<line x1="507" y1="50" x2="508" y2="50"/>
</g>
<path d="M516,88v -3" fill="none" stroke="#99ff99" stroke-width="2"/>
<path d="M516,85v -2" fill="none" stroke="#99ff99" stroke-width="2"/>
<g stroke="black" stroke-width="2" fill="none">
<line x1="515" y1="85" x2="516" y2="85"/>
</g>
<path d="M523,434v -1" fill="none" stroke="#99ff99" stroke-width="2"/>
<path d="M523,433" fill="none" stroke="#99ff99" stroke-width="2"/>
<g stroke="black" stroke-width="2" fill="none">
<line x1="522" y1="433" x2="523" y2="433"/>
</g>
<path d="M74,446h 393v -10h 7v -20h 8v -25h 7v -53h 8v -109h 8v -179h 7v 35h 8v 348h 7v 13z" fill="#99ff99"/>
<path d="M74,446h 393v -10h 7v -20h 8v -25h 7v -53h 8v -109h 8v -179h 7v 35h 8v 348h 7" fill="none" stroke="#99ff99" stroke-width="2"/>
<path d="M471,407v -1" fill="none" stroke="#ff0099"/>
<path d="M471,404v -1" fill="none" stroke="#ff0099"/>
<path d="M467,405h 2" fill="none" stroke="#ff0099"/>
<path d="M472,405h 2" fill="none" stroke="#ff0099"/>
<g stroke="#ff0099" stroke-width="1" fill="#ff0099">
<circle cx=" 471" cy=" 405" r=" 1.5"/>
</g>
<path d="M478,360v -2" fill="none" stroke="#ff0099"/>
<path d="M478,356v -2" fill="none" stroke="#ff0099"/>
<path d="M474,357h 3" fill="none" stroke="#ff0099"/>
<path d="M479,357h 3" fill="none" stroke="#ff0099"/>
<g stroke="#ff0099" stroke-width="1" fill="#ff0099">
<circle cx=" 478" cy=" 357" r=" 1.5"/>
</g>
<path d="M486,332v -3" fill="none" stroke="#ff0099"/>
<path d="M486,327v -3" fill="none" stroke="#ff0099"/>
<path d="M482,328h 3" fill="none" stroke="#ff0099"/>
<path d="M487,328h 2" fill="none" stroke="#ff0099"/>
<g stroke="#ff0099" stroke-width="1" fill="#ff0099">
<circle cx=" 486" cy=" 328" r=" 1.5"/>
</g>
<path d="M493,289v -3" fill="none" stroke="#ff0099"/>
<path d="M493,283v -3" fill="none" stroke="#ff0099"/>
<path d="M489,285h 3" fill="none" stroke="#ff0099"/>
<path d="M494,285h 3" fill="none" stroke="#ff0099"/>
<g stroke="#ff0099" stroke-width="1" fill="#ff0099">
<circle cx=" 493" cy=" 285" r=" 1.5"/>
</g>
<path d="M501,180v -6" fill="none" stroke="#ff0099"/>
<path d="M501,172v -7" fill="none" stroke="#ff0099"/>
<path d="M497,173h 3" fill="none" stroke="#ff0099"/>
<path d="M502,173h 3" fill="none" stroke="#ff0099"/>
<g stroke="#ff0099" stroke-width="1" fill="#ff0099">
<circle cx=" 501" cy=" 173" r=" 1.5"/>
</g>
<path d="M508,87v -11" fill="none" stroke="#ff0099"/>
<path d="M508,74v -11" fill="none" stroke="#ff0099"/>
<path d="M505,75h 2" fill="none" stroke="#ff0099"/>
<path d="M509,75h 3" fill="none" stroke="#ff0099"/>
<g stroke="#ff0099" stroke-width="1" fill="#ff0099">
<circle cx=" 508" cy=" 75" r=" 1.5"/>
</g>
<path d="M516,323v -6" fill="none" stroke="#ff0099"/>
<path d="M516,314v -6" fill="none" stroke="#ff0099"/>
<path d="M512,316h 3" fill="none" stroke="#ff0099"/>
<path d="M517,316h 3" fill="none" stroke="#ff0099"/>
<g stroke="#ff0099" stroke-width="1" fill="#ff0099">
<circle cx=" 516" cy=" 316" r=" 1.5"/>
</g>
<path d="M523,444v -1" fill="none" stroke="#ff0099"/>
<path d="M523,441v -1" fill="none" stroke="#ff0099"/>
<path d="M520,442h 2" fill="none" stroke="#ff0099"/>
<path d="M525,442h 2" fill="none" stroke="#ff0099"/>
<g stroke="#ff0099" stroke-width="1" fill="#ff0099">
<circle cx=" 523" cy=" 442" r=" 1.5"/>
</g>
<rect x="357" y="59" width="142" height="99" fill="white"/>
<text x="360" y="82" fill="black" font-size="17" font-family="Helvetica" font-weight="bold">
EE
</text>
<text x="457" y="115" fill="black" font-size="17" font-family="Helvetica" font-weight="bold">
 ee
</text>
<text x="440" y="115" fill="black" font-size="17" font-family="Times">
&#8594;
</text>
<text x="392" y="115" fill="black" font-size="17" font-family="Helvetica" font-weight="bold">
MC Z 
</text>
<path d="M362,109h 25" fill="none" stroke="#ff0099"/>
<g stroke="#ff0099" stroke-width="1" fill="#ff0099">
<circle cx=" 375" cy=" 109" r=" 1.5"/>
</g>
<text x="455" y="147" fill="black" font-size="17" font-family="Helvetica" font-weight="bold">
 + jet
</text>
<text x="447" y="147" fill="black" font-size="17" font-family="Times">
&#0947;
</text>
<text x="392" y="147" fill="black" font-size="17" font-family="Helvetica" font-weight="bold">
signal 
</text>
<path d="M362,154h 25v -24h -25z" fill="#99ff99"/>
<path d="M362,130h 25" fill="none" stroke="#99ff99" stroke-width="2"/>
<path d="M362,154h 25" fill="none" stroke="#99ff99" stroke-width="2"/>
<path d="M387,154v -24" fill="none" stroke="#99ff99" stroke-width="2"/>
<path d="M362,154v -24" fill="none" stroke="#99ff99" stroke-width="2"/>
<text x="300" y="34" fill="black" font-size="17" font-family="Helvetica" font-weight="bold">
=8 TeV
</text>
<text x="291" y="34" fill="black" font-size="17" font-family="Helvetica" font-weight="bold">
s
</text>
<path d="M285,25l 2, 10" fill="none" stroke="black" stroke-width="2"/>
<path d="M287,35l 2, -14" fill="none" stroke="black"/>
<path d="M289,21h 11" fill="none" stroke="black"/>
<text x="142" y="34" fill="black" font-size="17" font-family="Helvetica" font-weight="bold">
CMS Preliminary 
</text></svg>
