<?xml version="1.0" standalone="no"?>
<svg width="567" height="496" viewBox="0 0 567 496" xmlns="http://www.w3.org/2000/svg">
<title>
plots_mcZee_mcGJet_withEtaR9rhoIsoReweight/hlt150/mvaIdPhotEB_log.svg
</title>
<desc>
Creator: ROOT Version 5.32/00
CreationDate: Sun Nov 30 15:46:48 2014</desc>
<defs>
</defs>
<rect x="0" y="0" width="567" height="496" fill="white"/>
<rect x="0" y="0" width="567" height="347" fill="white"/>
<rect x="57" y="34" width="453" height="278" fill="white"/>
<rect x="57" y="34" width="453" height="278" fill="none" stroke="black"/>
<rect x="57" y="34" width="453" height="278" fill="white"/>
<rect x="57" y="34" width="453" height="278" fill="none" stroke="black"/>
<path d="M435,105h 2" fill="none" stroke="#ff0099"/>
<path d="M440,105h 2" fill="none" stroke="#ff0099"/>
<g stroke="#ff0099" stroke-width="1" fill="#ff0099">
<circle cx=" 438" cy=" 105" r=" 1.5"/>
</g>
<path d="M442,97h 3" fill="none" stroke="#ff0099"/>
<path d="M447,97h 3" fill="none" stroke="#ff0099"/>
<g stroke="#ff0099" stroke-width="1" fill="#ff0099">
<circle cx=" 446" cy=" 97" r=" 1.5"/>
</g>
<path d="M450,92h 2" fill="none" stroke="#ff0099"/>
<path d="M455,92h 2" fill="none" stroke="#ff0099"/>
<g stroke="#ff0099" stroke-width="1" fill="#ff0099">
<circle cx=" 454" cy=" 92" r=" 1.5"/>
</g>
<path d="M457,87h 3" fill="none" stroke="#ff0099"/>
<path d="M462,87h 3" fill="none" stroke="#ff0099"/>
<g stroke="#ff0099" stroke-width="1" fill="#ff0099">
<circle cx=" 461" cy=" 87" r=" 1.5"/>
</g>
<path d="M465,81h 3" fill="none" stroke="#ff0099"/>
<path d="M470,81h 2" fill="none" stroke="#ff0099"/>
<g stroke="#ff0099" stroke-width="1" fill="#ff0099">
<circle cx=" 469" cy=" 81" r=" 1.5"/>
</g>
<path d="M472,73h 3" fill="none" stroke="#ff0099"/>
<path d="M477,73h 3" fill="none" stroke="#ff0099"/>
<g stroke="#ff0099" stroke-width="1" fill="#ff0099">
<circle cx=" 476" cy=" 73" r=" 1.5"/>
</g>
<path d="M480,67h 3" fill="none" stroke="#ff0099"/>
<path d="M485,67h 3" fill="none" stroke="#ff0099"/>
<g stroke="#ff0099" stroke-width="1" fill="#ff0099">
<circle cx=" 484" cy=" 67" r=" 1.5"/>
</g>
<path d="M488,81h 2" fill="none" stroke="#ff0099"/>
<path d="M492,81h 3" fill="none" stroke="#ff0099"/>
<g stroke="#ff0099" stroke-width="1" fill="#ff0099">
<circle cx=" 491" cy=" 81" r=" 1.5"/>
</g>
<path d="M499,144v -1" fill="none" stroke="#ff0099"/>
<path d="M499,140" fill="none" stroke="#ff0099"/>
<path d="M495,142h 3" fill="none" stroke="#ff0099"/>
<path d="M500,142h 3" fill="none" stroke="#ff0099"/>
<g stroke="#ff0099" stroke-width="1" fill="#ff0099">
<circle cx=" 499" cy=" 142" r=" 1.5"/>
</g>
<path d="M506,203v -7" fill="none" stroke="#ff0099"/>
<path d="M506,194v -4" fill="none" stroke="#ff0099"/>
<path d="M503,195h 2" fill="none" stroke="#ff0099"/>
<path d="M508,195h 2" fill="none" stroke="#ff0099"/>
<g stroke="#ff0099" stroke-width="1" fill="#ff0099">
<circle cx=" 506" cy=" 195" r=" 1.5"/>
</g>
<path d="M57,312h 453" fill="none" stroke="black"/>
<text x="434" y="338" fill="black" font-size="13" font-family="Helvetica" font-weight="bold">
 MVA output
</text>
<text x="427" y="338" fill="black" font-size="13" font-family="Times">
&#0947;
</text>
<path d="M57,304v 8" fill="none" stroke="black"/>
<path d="M66,308v 4" fill="none" stroke="black"/>
<path d="M75,308v 4" fill="none" stroke="black"/>
<path d="M84,308v 4" fill="none" stroke="black"/>
<path d="M93,308v 4" fill="none" stroke="black"/>
<path d="M102,304v 8" fill="none" stroke="black"/>
<path d="M111,308v 4" fill="none" stroke="black"/>
<path d="M120,308v 4" fill="none" stroke="black"/>
<path d="M129,308v 4" fill="none" stroke="black"/>
<path d="M138,308v 4" fill="none" stroke="black"/>
<path d="M147,304v 8" fill="none" stroke="black"/>
<path d="M156,308v 4" fill="none" stroke="black"/>
<path d="M166,308v 4" fill="none" stroke="black"/>
<path d="M175,308v 4" fill="none" stroke="black"/>
<path d="M184,308v 4" fill="none" stroke="black"/>
<path d="M193,304v 8" fill="none" stroke="black"/>
<path d="M202,308v 4" fill="none" stroke="black"/>
<path d="M211,308v 4" fill="none" stroke="black"/>
<path d="M220,308v 4" fill="none" stroke="black"/>
<path d="M229,308v 4" fill="none" stroke="black"/>
<path d="M238,304v 8" fill="none" stroke="black"/>
<path d="M247,308v 4" fill="none" stroke="black"/>
<path d="M256,308v 4" fill="none" stroke="black"/>
<path d="M265,308v 4" fill="none" stroke="black"/>
<path d="M274,308v 4" fill="none" stroke="black"/>
<path d="M283,304v 8" fill="none" stroke="black"/>
<path d="M293,308v 4" fill="none" stroke="black"/>
<path d="M302,308v 4" fill="none" stroke="black"/>
<path d="M311,308v 4" fill="none" stroke="black"/>
<path d="M320,308v 4" fill="none" stroke="black"/>
<path d="M329,304v 8" fill="none" stroke="black"/>
<path d="M338,308v 4" fill="none" stroke="black"/>
<path d="M347,308v 4" fill="none" stroke="black"/>
<path d="M356,308v 4" fill="none" stroke="black"/>
<path d="M365,308v 4" fill="none" stroke="black"/>
<path d="M374,304v 8" fill="none" stroke="black"/>
<path d="M383,308v 4" fill="none" stroke="black"/>
<path d="M392,308v 4" fill="none" stroke="black"/>
<path d="M401,308v 4" fill="none" stroke="black"/>
<path d="M410,308v 4" fill="none" stroke="black"/>
<path d="M420,304v 8" fill="none" stroke="black"/>
<path d="M429,308v 4" fill="none" stroke="black"/>
<path d="M438,308v 4" fill="none" stroke="black"/>
<path d="M447,308v 4" fill="none" stroke="black"/>
<path d="M456,308v 4" fill="none" stroke="black"/>
<path d="M465,304v 8" fill="none" stroke="black"/>
<path d="M474,308v 4" fill="none" stroke="black"/>
<path d="M483,308v 4" fill="none" stroke="black"/>
<path d="M492,308v 4" fill="none" stroke="black"/>
<path d="M501,308v 4" fill="none" stroke="black"/>
<path d="M510,304v 8" fill="none" stroke="black"/>
<text x="53" y="325" fill="black" font-size="13" font-family="Helvetica" font-weight="bold">
0
</text>
<text x="93" y="325" fill="black" font-size="13" font-family="Helvetica" font-weight="bold">
0.1
</text>
<text x="138" y="325" fill="black" font-size="13" font-family="Helvetica" font-weight="bold">
0.2
</text>
<text x="183" y="325" fill="black" font-size="13" font-family="Helvetica" font-weight="bold">
0.3
</text>
<text x="229" y="325" fill="black" font-size="13" font-family="Helvetica" font-weight="bold">
0.4
</text>
<text x="274" y="325" fill="black" font-size="13" font-family="Helvetica" font-weight="bold">
0.5
</text>
<text x="319" y="325" fill="black" font-size="13" font-family="Helvetica" font-weight="bold">
0.6
</text>
<text x="365" y="325" fill="black" font-size="13" font-family="Helvetica" font-weight="bold">
0.7
</text>
<text x="410" y="325" fill="black" font-size="13" font-family="Helvetica" font-weight="bold">
0.8
</text>
<text x="455" y="325" fill="black" font-size="13" font-family="Helvetica" font-weight="bold">
0.9
</text>
<text x="507" y="325" fill="black" font-size="13" font-family="Helvetica" font-weight="bold">
1
</text>
<path d="M57,312v -278" fill="none" stroke="black"/>
<g transform="rotate(-90,28,187)">
<text x="28" y="187" fill="black" font-size="13" font-family="Helvetica" font-weight="bold">
Entries/0.0166666666667
</text>
</g>
<path d="M63,312h -6" fill="none" stroke="black"/>
<path d="M63,310h -6" fill="none" stroke="black"/>
<path d="M63,307h -6" fill="none" stroke="black"/>
<path d="M70,305h -13" fill="none" stroke="black"/>
<text x="44" y="305" fill="black" font-size="9" font-family="Helvetica" font-weight="bold">
-6
</text>
<text x="30" y="312" fill="black" font-size="13" font-family="Helvetica" font-weight="bold">
10
</text>
<path d="M63,292h -6" fill="none" stroke="black"/>
<path d="M63,284h -6" fill="none" stroke="black"/>
<path d="M63,279h -6" fill="none" stroke="black"/>
<path d="M63,275h -6" fill="none" stroke="black"/>
<path d="M63,271h -6" fill="none" stroke="black"/>
<path d="M63,268h -6" fill="none" stroke="black"/>
<path d="M63,266h -6" fill="none" stroke="black"/>
<path d="M63,264h -6" fill="none" stroke="black"/>
<path d="M70,262h -13" fill="none" stroke="black"/>
<text x="44" y="261" fill="black" font-size="9" font-family="Helvetica" font-weight="bold">
-5
</text>
<text x="30" y="268" fill="black" font-size="13" font-family="Helvetica" font-weight="bold">
10
</text>
<path d="M63,248h -6" fill="none" stroke="black"/>
<path d="M63,241h -6" fill="none" stroke="black"/>
<path d="M63,235h -6" fill="none" stroke="black"/>
<path d="M63,231h -6" fill="none" stroke="black"/>
<path d="M63,227h -6" fill="none" stroke="black"/>
<path d="M63,224h -6" fill="none" stroke="black"/>
<path d="M63,222h -6" fill="none" stroke="black"/>
<path d="M63,220h -6" fill="none" stroke="black"/>
<path d="M70,218h -13" fill="none" stroke="black"/>
<text x="44" y="218" fill="black" font-size="9" font-family="Helvetica" font-weight="bold">
-4
</text>
<text x="30" y="224" fill="black" font-size="13" font-family="Helvetica" font-weight="bold">
10
</text>
<path d="M63,204h -6" fill="none" stroke="black"/>
<path d="M63,197h -6" fill="none" stroke="black"/>
<path d="M63,191h -6" fill="none" stroke="black"/>
<path d="M63,187h -6" fill="none" stroke="black"/>
<path d="M63,184h -6" fill="none" stroke="black"/>
<path d="M63,181h -6" fill="none" stroke="black"/>
<path d="M63,178h -6" fill="none" stroke="black"/>
<path d="M63,176h -6" fill="none" stroke="black"/>
<path d="M70,174h -13" fill="none" stroke="black"/>
<text x="44" y="173" fill="black" font-size="9" font-family="Helvetica" font-weight="bold">
-3
</text>
<text x="30" y="180" fill="black" font-size="13" font-family="Helvetica" font-weight="bold">
10
</text>
<path d="M63,161h -6" fill="none" stroke="black"/>
<path d="M63,153h -6" fill="none" stroke="black"/>
<path d="M63,147h -6" fill="none" stroke="black"/>
<path d="M63,143h -6" fill="none" stroke="black"/>
<path d="M63,140h -6" fill="none" stroke="black"/>
<path d="M63,137h -6" fill="none" stroke="black"/>
<path d="M63,134h -6" fill="none" stroke="black"/>
<path d="M63,132h -6" fill="none" stroke="black"/>
<path d="M70,130h -13" fill="none" stroke="black"/>
<text x="44" y="129" fill="black" font-size="9" font-family="Helvetica" font-weight="bold">
-2
</text>
<text x="30" y="136" fill="black" font-size="13" font-family="Helvetica" font-weight="bold">
10
</text>
<path d="M63,117h -6" fill="none" stroke="black"/>
<path d="M63,109h -6" fill="none" stroke="black"/>
<path d="M63,104h -6" fill="none" stroke="black"/>
<path d="M63,99h -6" fill="none" stroke="black"/>
<path d="M63,96h -6" fill="none" stroke="black"/>
<path d="M63,93h -6" fill="none" stroke="black"/>
<path d="M63,90h -6" fill="none" stroke="black"/>
<path d="M63,88h -6" fill="none" stroke="black"/>
<path d="M70,86h -13" fill="none" stroke="black"/>
<text x="46" y="86" fill="black" font-size="9" font-family="Helvetica" font-weight="bold">
-1
</text>
<text x="31" y="92" fill="black" font-size="13" font-family="Helvetica" font-weight="bold">
10
</text>
<path d="M63,73h -6" fill="none" stroke="black"/>
<path d="M63,65h -6" fill="none" stroke="black"/>
<path d="M63,60h -6" fill="none" stroke="black"/>
<path d="M63,55h -6" fill="none" stroke="black"/>
<path d="M63,52h -6" fill="none" stroke="black"/>
<path d="M63,49h -6" fill="none" stroke="black"/>
<path d="M63,46h -6" fill="none" stroke="black"/>
<path d="M63,44h -6" fill="none" stroke="black"/>
<path d="M70,42h -13" fill="none" stroke="black"/>
<text x="52" y="48" text-anchor="end" fill="black" font-size="13" font-family="Helvetica" font-weight="bold">
1
</text>
<path d="M438,129" fill="none" stroke="#99ff99" stroke-width="2"/>
<path d="M438,129v -1" fill="none" stroke="#99ff99" stroke-width="2"/>
<g stroke="black" stroke-width="2" fill="none">
<line x1="437" y1="129" x2="438" y2="129"/>
</g>
<path d="M446,118v -1" fill="none" stroke="#99ff99" stroke-width="2"/>
<path d="M446,117" fill="none" stroke="#99ff99" stroke-width="2"/>
<g stroke="black" stroke-width="2" fill="none">
<line x1="445" y1="117" x2="446" y2="117"/>
</g>
<path d="M454,109v -1" fill="none" stroke="#99ff99" stroke-width="2"/>
<path d="M454,108" fill="none" stroke="#99ff99" stroke-width="2"/>
<g stroke="black" stroke-width="2" fill="none">
<line x1="453" y1="108" x2="454" y2="108"/>
</g>
<path d="M461,100" fill="none" stroke="#99ff99" stroke-width="2"/>
<path d="M461,100" fill="none" stroke="#99ff99" stroke-width="2"/>
<g stroke="black" stroke-width="2" fill="none">
<line x1="460" y1="100" x2="461" y2="100"/>
</g>
<path d="M469,90v -1" fill="none" stroke="#99ff99" stroke-width="2"/>
<path d="M469,89" fill="none" stroke="#99ff99" stroke-width="2"/>
<g stroke="black" stroke-width="2" fill="none">
<line x1="468" y1="89" x2="469" y2="89"/>
</g>
<path d="M476,76" fill="none" stroke="#99ff99" stroke-width="2"/>
<path d="M476,76" fill="none" stroke="#99ff99" stroke-width="2"/>
<g stroke="black" stroke-width="2" fill="none">
<line x1="475" y1="76" x2="476" y2="76"/>
</g>
<path d="M484,61" fill="none" stroke="#99ff99" stroke-width="2"/>
<path d="M484,61" fill="none" stroke="#99ff99" stroke-width="2"/>
<g stroke="black" stroke-width="2" fill="none">
<line x1="483" y1="61" x2="484" y2="61"/>
</g>
<path d="M491,69" fill="none" stroke="#99ff99" stroke-width="2"/>
<path d="M491,69" fill="none" stroke="#99ff99" stroke-width="2"/>
<g stroke="black" stroke-width="2" fill="none">
<line x1="490" y1="69" x2="491" y2="69"/>
</g>
<path d="M499,133v -1" fill="none" stroke="#99ff99" stroke-width="2"/>
<path d="M499,132" fill="none" stroke="#99ff99" stroke-width="2"/>
<g stroke="black" stroke-width="2" fill="none">
<line x1="498" y1="132" x2="499" y2="132"/>
</g>
<path d="M506,214v -2" fill="none" stroke="#99ff99" stroke-width="2"/>
<path d="M506,212v -2" fill="none" stroke="#99ff99" stroke-width="2"/>
<g stroke="black" stroke-width="2" fill="none">
<line x1="505" y1="212" x2="506" y2="212"/>
</g>
<path d="M57,312h 378v -183h 7v -12h 8v -9h 7v -8h 8v -11h 7v -13h 8v -15h 8v 8h 7v 63h 8v 80h 7v 100z" fill="#99ff99"/>
<path d="M57,312h 378v -183h 7v -12h 8v -9h 7v -8h 8v -11h 7v -13h 8v -15h 8v 8h 7v 63h 8v 80h 7" fill="none" stroke="#99ff99" stroke-width="2"/>
<path d="M435,105h 2" fill="none" stroke="#ff0099"/>
<path d="M440,105h 2" fill="none" stroke="#ff0099"/>
<g stroke="#ff0099" stroke-width="1" fill="#ff0099">
<circle cx=" 438" cy=" 105" r=" 1.5"/>
</g>
<path d="M442,97h 3" fill="none" stroke="#ff0099"/>
<path d="M447,97h 3" fill="none" stroke="#ff0099"/>
<g stroke="#ff0099" stroke-width="1" fill="#ff0099">
<circle cx=" 446" cy=" 97" r=" 1.5"/>
</g>
<path d="M450,92h 2" fill="none" stroke="#ff0099"/>
<path d="M455,92h 2" fill="none" stroke="#ff0099"/>
<g stroke="#ff0099" stroke-width="1" fill="#ff0099">
<circle cx=" 454" cy=" 92" r=" 1.5"/>
</g>
<path d="M457,87h 3" fill="none" stroke="#ff0099"/>
<path d="M462,87h 3" fill="none" stroke="#ff0099"/>
<g stroke="#ff0099" stroke-width="1" fill="#ff0099">
<circle cx=" 461" cy=" 87" r=" 1.5"/>
</g>
<path d="M465,81h 3" fill="none" stroke="#ff0099"/>
<path d="M470,81h 2" fill="none" stroke="#ff0099"/>
<g stroke="#ff0099" stroke-width="1" fill="#ff0099">
<circle cx=" 469" cy=" 81" r=" 1.5"/>
</g>
<path d="M472,73h 3" fill="none" stroke="#ff0099"/>
<path d="M477,73h 3" fill="none" stroke="#ff0099"/>
<g stroke="#ff0099" stroke-width="1" fill="#ff0099">
<circle cx=" 476" cy=" 73" r=" 1.5"/>
</g>
<path d="M480,67h 3" fill="none" stroke="#ff0099"/>
<path d="M485,67h 3" fill="none" stroke="#ff0099"/>
<g stroke="#ff0099" stroke-width="1" fill="#ff0099">
<circle cx=" 484" cy=" 67" r=" 1.5"/>
</g>
<path d="M488,81h 2" fill="none" stroke="#ff0099"/>
<path d="M492,81h 3" fill="none" stroke="#ff0099"/>
<g stroke="#ff0099" stroke-width="1" fill="#ff0099">
<circle cx=" 491" cy=" 81" r=" 1.5"/>
</g>
<path d="M499,144v -1" fill="none" stroke="#ff0099"/>
<path d="M499,140" fill="none" stroke="#ff0099"/>
<path d="M495,142h 3" fill="none" stroke="#ff0099"/>
<path d="M500,142h 3" fill="none" stroke="#ff0099"/>
<g stroke="#ff0099" stroke-width="1" fill="#ff0099">
<circle cx=" 499" cy=" 142" r=" 1.5"/>
</g>
<path d="M506,203v -7" fill="none" stroke="#ff0099"/>
<path d="M506,194v -4" fill="none" stroke="#ff0099"/>
<path d="M503,195h 2" fill="none" stroke="#ff0099"/>
<path d="M508,195h 2" fill="none" stroke="#ff0099"/>
<g stroke="#ff0099" stroke-width="1" fill="#ff0099">
<circle cx=" 506" cy=" 195" r=" 1.5"/>
</g>
<rect x="357" y="41" width="142" height="70" fill="white"/>
<text x="360" y="58" fill="black" font-size="12" font-family="Helvetica" font-weight="bold">
EB
</text>
<text x="439" y="81" fill="black" font-size="12" font-family="Helvetica" font-weight="bold">
 ee
</text>
<text x="426" y="81" fill="black" font-size="12" font-family="Times">
&#8594;
</text>
<text x="392" y="81" fill="black" font-size="12" font-family="Helvetica" font-weight="bold">
MC Z 
</text>
<path d="M362,76h 25" fill="none" stroke="#ff0099"/>
<g stroke="#ff0099" stroke-width="1" fill="#ff0099">
<circle cx=" 375" cy=" 76" r=" 1.5"/>
</g>
<text x="438" y="102" fill="black" font-size="12" font-family="Helvetica" font-weight="bold">
 + jet
</text>
<text x="431" y="102" fill="black" font-size="12" font-family="Times">
&#0947;
</text>
<text x="392" y="102" fill="black" font-size="12" font-family="Helvetica" font-weight="bold">
signal 
</text>
<path d="M362,107h 25v -16h -25z" fill="#99ff99"/>
<path d="M362,91h 25" fill="none" stroke="#99ff99" stroke-width="2"/>
<path d="M362,107h 25" fill="none" stroke="#99ff99" stroke-width="2"/>
<path d="M387,107v -16" fill="none" stroke="#99ff99" stroke-width="2"/>
<path d="M362,107v -16" fill="none" stroke="#99ff99" stroke-width="2"/>
<text x="252" y="24" fill="black" font-size="12" font-family="Helvetica" font-weight="bold">
=8 TeV
</text>
<text x="246" y="24" fill="black" font-size="12" font-family="Helvetica" font-weight="bold">
s
</text>
<path d="M242,17l 1, 8" fill="none" stroke="black" stroke-width="2"/>
<path d="M243,25l 2, -11" fill="none" stroke="black"/>
<path d="M245,14h 7" fill="none" stroke="black"/>
<text x="142" y="24" fill="black" font-size="12" font-family="Helvetica" font-weight="bold">
CMS Preliminary 
</text>
<rect x="0" y="347" width="567" height="149" fill="white"/>
<rect x="57" y="362" width="453" height="104" fill="white"/>
<rect x="57" y="362" width="453" height="104" fill="none" stroke="black"/>
<rect x="57" y="362" width="453" height="104" fill="white"/>
<rect x="57" y="362" width="453" height="104" fill="none" stroke="black"/>
<path d="M57,466h 453" fill="none" stroke="black"/>
<path d="M57,466v -104" fill="none" stroke="black"/>
<path d="M510,455h -453" fill="none" stroke="black" stroke-dasharray=" 1, 2"/>
<path d="M510,436h -453" fill="none" stroke="black" stroke-dasharray=" 1, 2"/>
<path d="M510,418h -453" fill="none" stroke="black" stroke-dasharray=" 1, 2"/>
<path d="M510,399h -453" fill="none" stroke="black" stroke-dasharray=" 1, 2"/>
<path d="M510,381h -453" fill="none" stroke="black" stroke-dasharray=" 1, 2"/>
<path d="M510,362h -453" fill="none" stroke="black" stroke-dasharray=" 1, 2"/>
<path d="M510,455h -453" fill="none" stroke="black" stroke-dasharray=" 1, 2"/>
<path d="M446,372v -2" fill="none" stroke="#ff0099"/>
<path d="M446,368v -2" fill="none" stroke="#ff0099"/>
<path d="M442,369h 3" fill="none" stroke="#ff0099"/>
<path d="M447,369h 3" fill="none" stroke="#ff0099"/>
<g stroke="#ff0099" stroke-width="1" fill="#ff0099">
<circle cx=" 446" cy=" 369" r=" 1.5"/>
</g>
<path d="M454,387v -1" fill="none" stroke="#ff0099"/>
<path d="M454,384v -1" fill="none" stroke="#ff0099"/>
<path d="M450,385h 2" fill="none" stroke="#ff0099"/>
<path d="M455,385h 2" fill="none" stroke="#ff0099"/>
<g stroke="#ff0099" stroke-width="1" fill="#ff0099">
<circle cx=" 454" cy=" 385" r=" 1.5"/>
</g>
<path d="M461,401v -1" fill="none" stroke="#ff0099"/>
<path d="M461,398" fill="none" stroke="#ff0099"/>
<path d="M457,399h 3" fill="none" stroke="#ff0099"/>
<path d="M462,399h 3" fill="none" stroke="#ff0099"/>
<g stroke="#ff0099" stroke-width="1" fill="#ff0099">
<circle cx=" 461" cy=" 399" r=" 1.5"/>
</g>
<path d="M465,415h 3" fill="none" stroke="#ff0099"/>
<path d="M470,415h 2" fill="none" stroke="#ff0099"/>
<g stroke="#ff0099" stroke-width="1" fill="#ff0099">
<circle cx=" 469" cy=" 415" r=" 1.5"/>
</g>
<path d="M472,429h 3" fill="none" stroke="#ff0099"/>
<path d="M477,429h 3" fill="none" stroke="#ff0099"/>
<g stroke="#ff0099" stroke-width="1" fill="#ff0099">
<circle cx=" 476" cy=" 429" r=" 1.5"/>
</g>
<path d="M480,447h 3" fill="none" stroke="#ff0099"/>
<path d="M485,447h 3" fill="none" stroke="#ff0099"/>
<g stroke="#ff0099" stroke-width="1" fill="#ff0099">
<circle cx=" 484" cy=" 447" r=" 1.5"/>
</g>
<path d="M488,454h 2" fill="none" stroke="#ff0099"/>
<path d="M492,454h 3" fill="none" stroke="#ff0099"/>
<g stroke="#ff0099" stroke-width="1" fill="#ff0099">
<circle cx=" 491" cy=" 454" r=" 1.5"/>
</g>
<path d="M499,453v -1" fill="none" stroke="#ff0099"/>
<path d="M499,449v -1" fill="none" stroke="#ff0099"/>
<path d="M495,451h 3" fill="none" stroke="#ff0099"/>
<path d="M500,451h 3" fill="none" stroke="#ff0099"/>
<g stroke="#ff0099" stroke-width="1" fill="#ff0099">
<circle cx=" 499" cy=" 451" r=" 1.5"/>
</g>
<path d="M506,415v -30" fill="none" stroke="#ff0099"/>
<path d="M506,382v -20" fill="none" stroke="#ff0099"/>
<path d="M503,383h 2" fill="none" stroke="#ff0099"/>
<path d="M508,383h 2" fill="none" stroke="#ff0099"/>
<g stroke="#ff0099" stroke-width="1" fill="#ff0099">
<circle cx=" 506" cy=" 383" r=" 1.5"/>
</g>
<path d="M57,466h 453" fill="none" stroke="black"/>
<text x="447" y="488" fill="black" font-size="11" font-family="Helvetica" font-weight="bold">
 MVA output
</text>
<text x="442" y="488" fill="black" font-size="11" font-family="Times">
&#0947;
</text>
<path d="M57,463v 3" fill="none" stroke="black"/>
<path d="M66,464v 2" fill="none" stroke="black"/>
<path d="M75,464v 2" fill="none" stroke="black"/>
<path d="M84,464v 2" fill="none" stroke="black"/>
<path d="M93,464v 2" fill="none" stroke="black"/>
<path d="M102,463v 3" fill="none" stroke="black"/>
<path d="M111,464v 2" fill="none" stroke="black"/>
<path d="M120,464v 2" fill="none" stroke="black"/>
<path d="M129,464v 2" fill="none" stroke="black"/>
<path d="M138,464v 2" fill="none" stroke="black"/>
<path d="M147,463v 3" fill="none" stroke="black"/>
<path d="M156,464v 2" fill="none" stroke="black"/>
<path d="M166,464v 2" fill="none" stroke="black"/>
<path d="M175,464v 2" fill="none" stroke="black"/>
<path d="M184,464v 2" fill="none" stroke="black"/>
<path d="M193,463v 3" fill="none" stroke="black"/>
<path d="M202,464v 2" fill="none" stroke="black"/>
<path d="M211,464v 2" fill="none" stroke="black"/>
<path d="M220,464v 2" fill="none" stroke="black"/>
<path d="M229,464v 2" fill="none" stroke="black"/>
<path d="M238,463v 3" fill="none" stroke="black"/>
<path d="M247,464v 2" fill="none" stroke="black"/>
<path d="M256,464v 2" fill="none" stroke="black"/>
<path d="M265,464v 2" fill="none" stroke="black"/>
<path d="M274,464v 2" fill="none" stroke="black"/>
<path d="M283,463v 3" fill="none" stroke="black"/>
<path d="M293,464v 2" fill="none" stroke="black"/>
<path d="M302,464v 2" fill="none" stroke="black"/>
<path d="M311,464v 2" fill="none" stroke="black"/>
<path d="M320,464v 2" fill="none" stroke="black"/>
<path d="M329,463v 3" fill="none" stroke="black"/>
<path d="M338,464v 2" fill="none" stroke="black"/>
<path d="M347,464v 2" fill="none" stroke="black"/>
<path d="M356,464v 2" fill="none" stroke="black"/>
<path d="M365,464v 2" fill="none" stroke="black"/>
<path d="M374,463v 3" fill="none" stroke="black"/>
<path d="M383,464v 2" fill="none" stroke="black"/>
<path d="M392,464v 2" fill="none" stroke="black"/>
<path d="M401,464v 2" fill="none" stroke="black"/>
<path d="M410,464v 2" fill="none" stroke="black"/>
<path d="M420,463v 3" fill="none" stroke="black"/>
<path d="M429,464v 2" fill="none" stroke="black"/>
<path d="M438,464v 2" fill="none" stroke="black"/>
<path d="M447,464v 2" fill="none" stroke="black"/>
<path d="M456,464v 2" fill="none" stroke="black"/>
<path d="M465,463v 3" fill="none" stroke="black"/>
<path d="M474,464v 2" fill="none" stroke="black"/>
<path d="M483,464v 2" fill="none" stroke="black"/>
<path d="M492,464v 2" fill="none" stroke="black"/>
<path d="M501,464v 2" fill="none" stroke="black"/>
<path d="M510,463v 3" fill="none" stroke="black"/>
<text x="54" y="475" fill="black" font-size="10" font-family="Helvetica" font-weight="bold">
0
</text>
<text x="96" y="475" fill="black" font-size="10" font-family="Helvetica" font-weight="bold">
0.1
</text>
<text x="140" y="475" fill="black" font-size="10" font-family="Helvetica" font-weight="bold">
0.2
</text>
<text x="186" y="475" fill="black" font-size="10" font-family="Helvetica" font-weight="bold">
0.3
</text>
<text x="231" y="475" fill="black" font-size="10" font-family="Helvetica" font-weight="bold">
0.4
</text>
<text x="277" y="475" fill="black" font-size="10" font-family="Helvetica" font-weight="bold">
0.5
</text>
<text x="322" y="475" fill="black" font-size="10" font-family="Helvetica" font-weight="bold">
0.6
</text>
<text x="367" y="475" fill="black" font-size="10" font-family="Helvetica" font-weight="bold">
0.7
</text>
<text x="413" y="475" fill="black" font-size="10" font-family="Helvetica" font-weight="bold">
0.8
</text>
<text x="458" y="475" fill="black" font-size="10" font-family="Helvetica" font-weight="bold">
0.9
</text>
<text x="508" y="475" fill="black" font-size="10" font-family="Helvetica" font-weight="bold">
1
</text>
<path d="M57,466v -104" fill="none" stroke="black"/>
<g transform="rotate(-90,34,365)">
<text x="34" y="365" fill="black" font-size="11" font-family="Helvetica" font-weight="bold">
)
</text>
</g>
<g transform="rotate(-90,34,371)">
<text x="34" y="371" fill="black" font-size="11" font-family="Times">
&#0947;
</text>
</g>
<g transform="rotate(-90,34,424)">
<text x="34" y="424" fill="black" font-size="11" font-family="Helvetica" font-weight="bold">
MC(e)/MC(
</text>
</g>
<path d="M69,455h -12" fill="none" stroke="black"/>
<path d="M63,451h -6" fill="none" stroke="black"/>
<path d="M63,448h -6" fill="none" stroke="black"/>
<path d="M63,444h -6" fill="none" stroke="black"/>
<path d="M63,440h -6" fill="none" stroke="black"/>
<path d="M69,436h -12" fill="none" stroke="black"/>
<path d="M63,433h -6" fill="none" stroke="black"/>
<path d="M63,429h -6" fill="none" stroke="black"/>
<path d="M63,425h -6" fill="none" stroke="black"/>
<path d="M63,422h -6" fill="none" stroke="black"/>
<path d="M69,418h -12" fill="none" stroke="black"/>
<path d="M63,414h -6" fill="none" stroke="black"/>
<path d="M63,410h -6" fill="none" stroke="black"/>
<path d="M63,407h -6" fill="none" stroke="black"/>
<path d="M63,403h -6" fill="none" stroke="black"/>
<path d="M69,399h -12" fill="none" stroke="black"/>
<path d="M63,395h -6" fill="none" stroke="black"/>
<path d="M63,392h -6" fill="none" stroke="black"/>
<path d="M63,388h -6" fill="none" stroke="black"/>
<path d="M63,384h -6" fill="none" stroke="black"/>
<path d="M69,381h -12" fill="none" stroke="black"/>
<path d="M63,377h -6" fill="none" stroke="black"/>
<path d="M63,373h -6" fill="none" stroke="black"/>
<path d="M63,369h -6" fill="none" stroke="black"/>
<path d="M63,366h -6" fill="none" stroke="black"/>
<path d="M69,362h -12" fill="none" stroke="black"/>
<path d="M69,455h -12" fill="none" stroke="black"/>
<path d="M63,459h -6" fill="none" stroke="black"/>
<path d="M63,462h -6" fill="none" stroke="black"/>
<path d="M63,466h -6" fill="none" stroke="black"/>
<text x="40" y="459" fill="black" font-size="10" font-family="Helvetica" font-weight="bold">
0.5
</text>
<text x="50" y="440" fill="black" font-size="10" font-family="Helvetica" font-weight="bold">
1
</text>
<text x="40" y="421" fill="black" font-size="10" font-family="Helvetica" font-weight="bold">
1.5
</text>
<text x="48" y="403" fill="black" font-size="10" font-family="Helvetica" font-weight="bold">
2
</text>
<text x="40" y="384" fill="black" font-size="10" font-family="Helvetica" font-weight="bold">
2.5
</text>
<text x="48" y="366" fill="black" font-size="10" font-family="Helvetica" font-weight="bold">
3
</text>
<path d="M57,436h 453" fill="none" stroke="#0000ff" stroke-width="2"/>
<path d="M446,372v -2" fill="none" stroke="#ff0099"/>
<path d="M446,368v -2" fill="none" stroke="#ff0099"/>
<path d="M442,369h 3" fill="none" stroke="#ff0099"/>
<path d="M447,369h 3" fill="none" stroke="#ff0099"/>
<g stroke="#ff0099" stroke-width="1" fill="#ff0099">
<circle cx=" 446" cy=" 369" r=" 1.5"/>
</g>
<path d="M454,387v -1" fill="none" stroke="#ff0099"/>
<path d="M454,384v -1" fill="none" stroke="#ff0099"/>
<path d="M450,385h 2" fill="none" stroke="#ff0099"/>
<path d="M455,385h 2" fill="none" stroke="#ff0099"/>
<g stroke="#ff0099" stroke-width="1" fill="#ff0099">
<circle cx=" 454" cy=" 385" r=" 1.5"/>
</g>
<path d="M461,401v -1" fill="none" stroke="#ff0099"/>
<path d="M461,398" fill="none" stroke="#ff0099"/>
<path d="M457,399h 3" fill="none" stroke="#ff0099"/>
<path d="M462,399h 3" fill="none" stroke="#ff0099"/>
<g stroke="#ff0099" stroke-width="1" fill="#ff0099">
<circle cx=" 461" cy=" 399" r=" 1.5"/>
</g>
<path d="M465,415h 3" fill="none" stroke="#ff0099"/>
<path d="M470,415h 2" fill="none" stroke="#ff0099"/>
<g stroke="#ff0099" stroke-width="1" fill="#ff0099">
<circle cx=" 469" cy=" 415" r=" 1.5"/>
</g>
<path d="M472,429h 3" fill="none" stroke="#ff0099"/>
<path d="M477,429h 3" fill="none" stroke="#ff0099"/>
<g stroke="#ff0099" stroke-width="1" fill="#ff0099">
<circle cx=" 476" cy=" 429" r=" 1.5"/>
</g>
<path d="M480,447h 3" fill="none" stroke="#ff0099"/>
<path d="M485,447h 3" fill="none" stroke="#ff0099"/>
<g stroke="#ff0099" stroke-width="1" fill="#ff0099">
<circle cx=" 484" cy=" 447" r=" 1.5"/>
</g>
<path d="M488,454h 2" fill="none" stroke="#ff0099"/>
<path d="M492,454h 3" fill="none" stroke="#ff0099"/>
<g stroke="#ff0099" stroke-width="1" fill="#ff0099">
<circle cx=" 491" cy=" 454" r=" 1.5"/>
</g>
<path d="M499,453v -1" fill="none" stroke="#ff0099"/>
<path d="M499,449v -1" fill="none" stroke="#ff0099"/>
<path d="M495,451h 3" fill="none" stroke="#ff0099"/>
<path d="M500,451h 3" fill="none" stroke="#ff0099"/>
<g stroke="#ff0099" stroke-width="1" fill="#ff0099">
<circle cx=" 499" cy=" 451" r=" 1.5"/>
</g>
<path d="M506,415v -30" fill="none" stroke="#ff0099"/>
<path d="M506,382v -20" fill="none" stroke="#ff0099"/>
<path d="M503,383h 2" fill="none" stroke="#ff0099"/>
<path d="M508,383h 2" fill="none" stroke="#ff0099"/>
<g stroke="#ff0099" stroke-width="1" fill="#ff0099">
<circle cx=" 506" cy=" 383" r=" 1.5"/>
</g></svg>
