<?xml version="1.0" standalone="no"?>
<svg width="567" height="496" viewBox="0 0 567 496" xmlns="http://www.w3.org/2000/svg">
<title>
plots_mcZee_mcGJet_withEtaR9rhoIsoReweight/hlt150/mvaIdPhotEB.svg
</title>
<desc>
Creator: ROOT Version 5.32/00
CreationDate: Sun Nov 30 15:46:48 2014</desc>
<defs>
</defs>
<rect x="0" y="0" width="567" height="496" fill="white"/>
<rect x="74" y="44" width="453" height="402" fill="white"/>
<rect x="74" y="44" width="453" height="402" fill="none" stroke="black"/>
<rect x="74" y="44" width="453" height="402" fill="white"/>
<rect x="74" y="44" width="453" height="402" fill="none" stroke="black"/>
<path d="M455,396" fill="none" stroke="#ff0099"/>
<path d="M455,394" fill="none" stroke="#ff0099"/>
<path d="M452,395h 2" fill="none" stroke="#ff0099"/>
<path d="M457,395h 2" fill="none" stroke="#ff0099"/>
<g stroke="#ff0099" stroke-width="1" fill="#ff0099">
<circle cx=" 455" cy=" 395" r=" 1.5"/>
</g>
<path d="M463,371v -1" fill="none" stroke="#ff0099"/>
<path d="M463,368" fill="none" stroke="#ff0099"/>
<path d="M459,369h 3" fill="none" stroke="#ff0099"/>
<path d="M464,369h 3" fill="none" stroke="#ff0099"/>
<g stroke="#ff0099" stroke-width="1" fill="#ff0099">
<circle cx=" 463" cy=" 369" r=" 1.5"/>
</g>
<path d="M471,345" fill="none" stroke="#ff0099"/>
<path d="M471,342" fill="none" stroke="#ff0099"/>
<path d="M467,344h 2" fill="none" stroke="#ff0099"/>
<path d="M472,344h 2" fill="none" stroke="#ff0099"/>
<g stroke="#ff0099" stroke-width="1" fill="#ff0099">
<circle cx=" 471" cy=" 344" r=" 1.5"/>
</g>
<path d="M478,314v -2" fill="none" stroke="#ff0099"/>
<path d="M478,310v -1" fill="none" stroke="#ff0099"/>
<path d="M474,311h 3" fill="none" stroke="#ff0099"/>
<path d="M479,311h 3" fill="none" stroke="#ff0099"/>
<g stroke="#ff0099" stroke-width="1" fill="#ff0099">
<circle cx=" 478" cy=" 311" r=" 1.5"/>
</g>
<path d="M486,262v -2" fill="none" stroke="#ff0099"/>
<path d="M486,258v -1" fill="none" stroke="#ff0099"/>
<path d="M482,259h 3" fill="none" stroke="#ff0099"/>
<path d="M487,259h 2" fill="none" stroke="#ff0099"/>
<g stroke="#ff0099" stroke-width="1" fill="#ff0099">
<circle cx=" 486" cy=" 259" r=" 1.5"/>
</g>
<path d="M493,167v -2" fill="none" stroke="#ff0099"/>
<path d="M493,162v -2" fill="none" stroke="#ff0099"/>
<path d="M489,164h 3" fill="none" stroke="#ff0099"/>
<path d="M494,164h 3" fill="none" stroke="#ff0099"/>
<g stroke="#ff0099" stroke-width="1" fill="#ff0099">
<circle cx=" 493" cy=" 164" r=" 1.5"/>
</g>
<path d="M501,74v -4" fill="none" stroke="#ff0099"/>
<path d="M501,68v -5" fill="none" stroke="#ff0099"/>
<path d="M497,69h 3" fill="none" stroke="#ff0099"/>
<path d="M502,69h 3" fill="none" stroke="#ff0099"/>
<g stroke="#ff0099" stroke-width="1" fill="#ff0099">
<circle cx=" 501" cy=" 69" r=" 1.5"/>
</g>
<path d="M508,271v -3" fill="none" stroke="#ff0099"/>
<path d="M508,266v -3" fill="none" stroke="#ff0099"/>
<path d="M505,267h 2" fill="none" stroke="#ff0099"/>
<path d="M509,267h 3" fill="none" stroke="#ff0099"/>
<g stroke="#ff0099" stroke-width="1" fill="#ff0099">
<circle cx=" 508" cy=" 267" r=" 1.5"/>
</g>
<path d="M512,439h 3" fill="none" stroke="#ff0099"/>
<path d="M517,439h 3" fill="none" stroke="#ff0099"/>
<g stroke="#ff0099" stroke-width="1" fill="#ff0099">
<circle cx=" 516" cy=" 439" r=" 1.5"/>
</g>
<path d="M520,446h 2" fill="none" stroke="#ff0099"/>
<path d="M525,446h 2" fill="none" stroke="#ff0099"/>
<g stroke="#ff0099" stroke-width="1" fill="#ff0099">
<circle cx=" 523" cy=" 446" r=" 1.5"/>
</g>
<path d="M74,446h 453" fill="none" stroke="black"/>
<path d="M74,434v 12" fill="none" stroke="black"/>
<path d="M83,440v 6" fill="none" stroke="black"/>
<path d="M92,440v 6" fill="none" stroke="black"/>
<path d="M101,440v 6" fill="none" stroke="black"/>
<path d="M110,440v 6" fill="none" stroke="black"/>
<path d="M119,434v 12" fill="none" stroke="black"/>
<path d="M128,440v 6" fill="none" stroke="black"/>
<path d="M137,440v 6" fill="none" stroke="black"/>
<path d="M146,440v 6" fill="none" stroke="black"/>
<path d="M155,440v 6" fill="none" stroke="black"/>
<path d="M164,434v 12" fill="none" stroke="black"/>
<path d="M173,440v 6" fill="none" stroke="black"/>
<path d="M183,440v 6" fill="none" stroke="black"/>
<path d="M192,440v 6" fill="none" stroke="black"/>
<path d="M201,440v 6" fill="none" stroke="black"/>
<path d="M210,434v 12" fill="none" stroke="black"/>
<path d="M219,440v 6" fill="none" stroke="black"/>
<path d="M228,440v 6" fill="none" stroke="black"/>
<path d="M237,440v 6" fill="none" stroke="black"/>
<path d="M246,440v 6" fill="none" stroke="black"/>
<path d="M255,434v 12" fill="none" stroke="black"/>
<path d="M264,440v 6" fill="none" stroke="black"/>
<path d="M273,440v 6" fill="none" stroke="black"/>
<path d="M282,440v 6" fill="none" stroke="black"/>
<path d="M291,440v 6" fill="none" stroke="black"/>
<path d="M300,434v 12" fill="none" stroke="black"/>
<path d="M310,440v 6" fill="none" stroke="black"/>
<path d="M319,440v 6" fill="none" stroke="black"/>
<path d="M328,440v 6" fill="none" stroke="black"/>
<path d="M337,440v 6" fill="none" stroke="black"/>
<path d="M346,434v 12" fill="none" stroke="black"/>
<path d="M355,440v 6" fill="none" stroke="black"/>
<path d="M364,440v 6" fill="none" stroke="black"/>
<path d="M373,440v 6" fill="none" stroke="black"/>
<path d="M382,440v 6" fill="none" stroke="black"/>
<path d="M391,434v 12" fill="none" stroke="black"/>
<path d="M400,440v 6" fill="none" stroke="black"/>
<path d="M409,440v 6" fill="none" stroke="black"/>
<path d="M418,440v 6" fill="none" stroke="black"/>
<path d="M427,440v 6" fill="none" stroke="black"/>
<path d="M437,434v 12" fill="none" stroke="black"/>
<path d="M446,440v 6" fill="none" stroke="black"/>
<path d="M455,440v 6" fill="none" stroke="black"/>
<path d="M464,440v 6" fill="none" stroke="black"/>
<path d="M473,440v 6" fill="none" stroke="black"/>
<path d="M482,434v 12" fill="none" stroke="black"/>
<path d="M491,440v 6" fill="none" stroke="black"/>
<path d="M500,440v 6" fill="none" stroke="black"/>
<path d="M509,440v 6" fill="none" stroke="black"/>
<path d="M518,440v 6" fill="none" stroke="black"/>
<path d="M527,434v 12" fill="none" stroke="black"/>
<text x="68" y="465" fill="black" font-size="18" font-family="Helvetica" font-weight="bold">
0
</text>
<text x="107" y="465" fill="black" font-size="18" font-family="Helvetica" font-weight="bold">
0.1
</text>
<text x="151" y="465" fill="black" font-size="18" font-family="Helvetica" font-weight="bold">
0.2
</text>
<text x="196" y="465" fill="black" font-size="18" font-family="Helvetica" font-weight="bold">
0.3
</text>
<text x="242" y="465" fill="black" font-size="18" font-family="Helvetica" font-weight="bold">
0.4
</text>
<text x="287" y="465" fill="black" font-size="18" font-family="Helvetica" font-weight="bold">
0.5
</text>
<text x="332" y="465" fill="black" font-size="18" font-family="Helvetica" font-weight="bold">
0.6
</text>
<text x="378" y="465" fill="black" font-size="18" font-family="Helvetica" font-weight="bold">
0.7
</text>
<text x="423" y="465" fill="black" font-size="18" font-family="Helvetica" font-weight="bold">
0.8
</text>
<text x="468" y="465" fill="black" font-size="18" font-family="Helvetica" font-weight="bold">
0.9
</text>
<text x="523" y="465" fill="black" font-size="18" font-family="Helvetica" font-weight="bold">
1
</text>
<path d="M74,44h 453" fill="none" stroke="black"/>
<path d="M74,56v -12" fill="none" stroke="black"/>
<path d="M83,50v -6" fill="none" stroke="black"/>
<path d="M92,50v -6" fill="none" stroke="black"/>
<path d="M101,50v -6" fill="none" stroke="black"/>
<path d="M110,50v -6" fill="none" stroke="black"/>
<path d="M119,56v -12" fill="none" stroke="black"/>
<path d="M128,50v -6" fill="none" stroke="black"/>
<path d="M137,50v -6" fill="none" stroke="black"/>
<path d="M146,50v -6" fill="none" stroke="black"/>
<path d="M155,50v -6" fill="none" stroke="black"/>
<path d="M164,56v -12" fill="none" stroke="black"/>
<path d="M173,50v -6" fill="none" stroke="black"/>
<path d="M183,50v -6" fill="none" stroke="black"/>
<path d="M192,50v -6" fill="none" stroke="black"/>
<path d="M201,50v -6" fill="none" stroke="black"/>
<path d="M210,56v -12" fill="none" stroke="black"/>
<path d="M219,50v -6" fill="none" stroke="black"/>
<path d="M228,50v -6" fill="none" stroke="black"/>
<path d="M237,50v -6" fill="none" stroke="black"/>
<path d="M246,50v -6" fill="none" stroke="black"/>
<path d="M255,56v -12" fill="none" stroke="black"/>
<path d="M264,50v -6" fill="none" stroke="black"/>
<path d="M273,50v -6" fill="none" stroke="black"/>
<path d="M282,50v -6" fill="none" stroke="black"/>
<path d="M291,50v -6" fill="none" stroke="black"/>
<path d="M300,56v -12" fill="none" stroke="black"/>
<path d="M310,50v -6" fill="none" stroke="black"/>
<path d="M319,50v -6" fill="none" stroke="black"/>
<path d="M328,50v -6" fill="none" stroke="black"/>
<path d="M337,50v -6" fill="none" stroke="black"/>
<path d="M346,56v -12" fill="none" stroke="black"/>
<path d="M355,50v -6" fill="none" stroke="black"/>
<path d="M364,50v -6" fill="none" stroke="black"/>
<path d="M373,50v -6" fill="none" stroke="black"/>
<path d="M382,50v -6" fill="none" stroke="black"/>
<path d="M391,56v -12" fill="none" stroke="black"/>
<path d="M400,50v -6" fill="none" stroke="black"/>
<path d="M409,50v -6" fill="none" stroke="black"/>
<path d="M418,50v -6" fill="none" stroke="black"/>
<path d="M427,50v -6" fill="none" stroke="black"/>
<path d="M437,56v -12" fill="none" stroke="black"/>
<path d="M446,50v -6" fill="none" stroke="black"/>
<path d="M455,50v -6" fill="none" stroke="black"/>
<path d="M464,50v -6" fill="none" stroke="black"/>
<path d="M473,50v -6" fill="none" stroke="black"/>
<path d="M482,56v -12" fill="none" stroke="black"/>
<path d="M491,50v -6" fill="none" stroke="black"/>
<path d="M500,50v -6" fill="none" stroke="black"/>
<path d="M509,50v -6" fill="none" stroke="black"/>
<path d="M518,50v -6" fill="none" stroke="black"/>
<path d="M527,56v -12" fill="none" stroke="black"/>
<path d="M74,446v -402" fill="none" stroke="black"/>
<path d="M87,446h -13" fill="none" stroke="black"/>
<path d="M81,432h -7" fill="none" stroke="black"/>
<path d="M81,418h -7" fill="none" stroke="black"/>
<path d="M81,404h -7" fill="none" stroke="black"/>
<path d="M81,390h -7" fill="none" stroke="black"/>
<path d="M87,376h -13" fill="none" stroke="black"/>
<path d="M81,362h -7" fill="none" stroke="black"/>
<path d="M81,348h -7" fill="none" stroke="black"/>
<path d="M81,334h -7" fill="none" stroke="black"/>
<path d="M81,320h -7" fill="none" stroke="black"/>
<path d="M87,306h -13" fill="none" stroke="black"/>
<path d="M81,292h -7" fill="none" stroke="black"/>
<path d="M81,278h -7" fill="none" stroke="black"/>
<path d="M81,264h -7" fill="none" stroke="black"/>
<path d="M81,250h -7" fill="none" stroke="black"/>
<path d="M87,236h -13" fill="none" stroke="black"/>
<path d="M81,222h -7" fill="none" stroke="black"/>
<path d="M81,208h -7" fill="none" stroke="black"/>
<path d="M81,194h -7" fill="none" stroke="black"/>
<path d="M81,180h -7" fill="none" stroke="black"/>
<path d="M87,166h -13" fill="none" stroke="black"/>
<path d="M81,152h -7" fill="none" stroke="black"/>
<path d="M81,138h -7" fill="none" stroke="black"/>
<path d="M81,124h -7" fill="none" stroke="black"/>
<path d="M81,110h -7" fill="none" stroke="black"/>
<path d="M87,96h -13" fill="none" stroke="black"/>
<path d="M87,96h -13" fill="none" stroke="black"/>
<path d="M81,82h -7" fill="none" stroke="black"/>
<path d="M81,68h -7" fill="none" stroke="black"/>
<path d="M81,54h -7" fill="none" stroke="black"/>
<text x="61" y="453" fill="black" font-size="18" font-family="Helvetica" font-weight="bold">
0
</text>
<text x="34" y="383" fill="black" font-size="18" font-family="Helvetica" font-weight="bold">
0.05
</text>
<text x="47" y="313" fill="black" font-size="18" font-family="Helvetica" font-weight="bold">
0.1
</text>
<text x="34" y="243" fill="black" font-size="18" font-family="Helvetica" font-weight="bold">
0.15
</text>
<text x="45" y="173" fill="black" font-size="18" font-family="Helvetica" font-weight="bold">
0.2
</text>
<text x="34" y="103" fill="black" font-size="18" font-family="Helvetica" font-weight="bold">
0.25
</text>
<path d="M455,432v -1" fill="none" stroke="#99ff99" stroke-width="2"/>
<path d="M455,431" fill="none" stroke="#99ff99" stroke-width="2"/>
<g stroke="black" stroke-width="2" fill="none">
<line x1="454" y1="431" x2="455" y2="431"/>
</g>
<path d="M463,420v -1" fill="none" stroke="#99ff99" stroke-width="2"/>
<path d="M463,419v -1" fill="none" stroke="#99ff99" stroke-width="2"/>
<g stroke="black" stroke-width="2" fill="none">
<line x1="462" y1="419" x2="463" y2="419"/>
</g>
<path d="M471,404v -1" fill="none" stroke="#99ff99" stroke-width="2"/>
<path d="M471,403v -1" fill="none" stroke="#99ff99" stroke-width="2"/>
<g stroke="black" stroke-width="2" fill="none">
<line x1="470" y1="403" x2="471" y2="403"/>
</g>
<path d="M478,379" fill="none" stroke="#99ff99" stroke-width="2"/>
<path d="M478,379v -1" fill="none" stroke="#99ff99" stroke-width="2"/>
<g stroke="black" stroke-width="2" fill="none">
<line x1="477" y1="379" x2="478" y2="379"/>
</g>
<path d="M486,330v -1" fill="none" stroke="#99ff99" stroke-width="2"/>
<path d="M486,329v -2" fill="none" stroke="#99ff99" stroke-width="2"/>
<g stroke="black" stroke-width="2" fill="none">
<line x1="485" y1="329" x2="486" y2="329"/>
</g>
<path d="M493,211v -1" fill="none" stroke="#99ff99" stroke-width="2"/>
<path d="M493,210v -1" fill="none" stroke="#99ff99" stroke-width="2"/>
<g stroke="black" stroke-width="2" fill="none">
<line x1="492" y1="210" x2="493" y2="210"/>
</g>
<path d="M508,100v -2" fill="none" stroke="#99ff99" stroke-width="2"/>
<path d="M508,98v -1" fill="none" stroke="#99ff99" stroke-width="2"/>
<g stroke="black" stroke-width="2" fill="none">
<line x1="507" y1="98" x2="508" y2="98"/>
</g>
<path d="M516,434" fill="none" stroke="#99ff99" stroke-width="2"/>
<path d="M516,434" fill="none" stroke="#99ff99" stroke-width="2"/>
<g stroke="black" stroke-width="2" fill="none">
<line x1="515" y1="434" x2="516" y2="434"/>
</g>
<path d="M523,446" fill="none" stroke="#99ff99" stroke-width="2"/>
<path d="M523,446" fill="none" stroke="#99ff99" stroke-width="2"/>
<g stroke="black" stroke-width="2" fill="none">
<line x1="522" y1="446" x2="523" y2="446"/>
</g>
<path d="M74,446h 378v -15h 7v -12h 8v -16h 7v -24h 8v -50h 7v -119h 8v -166h 8v 54h 7v 336h 8v 12h 7z" fill="#99ff99"/>
<path d="M74,446h 378v -15h 7v -12h 8v -16h 7v -24h 8v -50h 7v -119h 8v -166" fill="none" stroke="#99ff99" stroke-width="2"/>
<path d="M505,44v 54" fill="none" stroke="#99ff99" stroke-width="2"/>
<path d="M505,98h 7v 336h 8v 12h 7" fill="none" stroke="#99ff99" stroke-width="2"/>
<path d="M455,396" fill="none" stroke="#ff0099"/>
<path d="M455,394" fill="none" stroke="#ff0099"/>
<path d="M452,395h 2" fill="none" stroke="#ff0099"/>
<path d="M457,395h 2" fill="none" stroke="#ff0099"/>
<g stroke="#ff0099" stroke-width="1" fill="#ff0099">
<circle cx=" 455" cy=" 395" r=" 1.5"/>
</g>
<path d="M463,371v -1" fill="none" stroke="#ff0099"/>
<path d="M463,368" fill="none" stroke="#ff0099"/>
<path d="M459,369h 3" fill="none" stroke="#ff0099"/>
<path d="M464,369h 3" fill="none" stroke="#ff0099"/>
<g stroke="#ff0099" stroke-width="1" fill="#ff0099">
<circle cx=" 463" cy=" 369" r=" 1.5"/>
</g>
<path d="M471,345" fill="none" stroke="#ff0099"/>
<path d="M471,342" fill="none" stroke="#ff0099"/>
<path d="M467,344h 2" fill="none" stroke="#ff0099"/>
<path d="M472,344h 2" fill="none" stroke="#ff0099"/>
<g stroke="#ff0099" stroke-width="1" fill="#ff0099">
<circle cx=" 471" cy=" 344" r=" 1.5"/>
</g>
<path d="M478,314v -2" fill="none" stroke="#ff0099"/>
<path d="M478,310v -1" fill="none" stroke="#ff0099"/>
<path d="M474,311h 3" fill="none" stroke="#ff0099"/>
<path d="M479,311h 3" fill="none" stroke="#ff0099"/>
<g stroke="#ff0099" stroke-width="1" fill="#ff0099">
<circle cx=" 478" cy=" 311" r=" 1.5"/>
</g>
<path d="M486,262v -2" fill="none" stroke="#ff0099"/>
<path d="M486,258v -1" fill="none" stroke="#ff0099"/>
<path d="M482,259h 3" fill="none" stroke="#ff0099"/>
<path d="M487,259h 2" fill="none" stroke="#ff0099"/>
<g stroke="#ff0099" stroke-width="1" fill="#ff0099">
<circle cx=" 486" cy=" 259" r=" 1.5"/>
</g>
<path d="M493,167v -2" fill="none" stroke="#ff0099"/>
<path d="M493,162v -2" fill="none" stroke="#ff0099"/>
<path d="M489,164h 3" fill="none" stroke="#ff0099"/>
<path d="M494,164h 3" fill="none" stroke="#ff0099"/>
<g stroke="#ff0099" stroke-width="1" fill="#ff0099">
<circle cx=" 493" cy=" 164" r=" 1.5"/>
</g>
<path d="M501,74v -4" fill="none" stroke="#ff0099"/>
<path d="M501,68v -5" fill="none" stroke="#ff0099"/>
<path d="M497,69h 3" fill="none" stroke="#ff0099"/>
<path d="M502,69h 3" fill="none" stroke="#ff0099"/>
<g stroke="#ff0099" stroke-width="1" fill="#ff0099">
<circle cx=" 501" cy=" 69" r=" 1.5"/>
</g>
<path d="M508,271v -3" fill="none" stroke="#ff0099"/>
<path d="M508,266v -3" fill="none" stroke="#ff0099"/>
<path d="M505,267h 2" fill="none" stroke="#ff0099"/>
<path d="M509,267h 3" fill="none" stroke="#ff0099"/>
<g stroke="#ff0099" stroke-width="1" fill="#ff0099">
<circle cx=" 508" cy=" 267" r=" 1.5"/>
</g>
<path d="M512,439h 3" fill="none" stroke="#ff0099"/>
<path d="M517,439h 3" fill="none" stroke="#ff0099"/>
<g stroke="#ff0099" stroke-width="1" fill="#ff0099">
<circle cx=" 516" cy=" 439" r=" 1.5"/>
</g>
<path d="M520,446h 2" fill="none" stroke="#ff0099"/>
<path d="M525,446h 2" fill="none" stroke="#ff0099"/>
<g stroke="#ff0099" stroke-width="1" fill="#ff0099">
<circle cx=" 523" cy=" 446" r=" 1.5"/>
</g>
<rect x="357" y="59" width="142" height="99" fill="white"/>
<text x="360" y="82" fill="black" font-size="17" font-family="Helvetica" font-weight="bold">
EB
</text>
<text x="457" y="115" fill="black" font-size="17" font-family="Helvetica" font-weight="bold">
 ee
</text>
<text x="440" y="115" fill="black" font-size="17" font-family="Times">
&#8594;
</text>
<text x="392" y="115" fill="black" font-size="17" font-family="Helvetica" font-weight="bold">
MC Z 
</text>
<path d="M362,109h 25" fill="none" stroke="#ff0099"/>
<g stroke="#ff0099" stroke-width="1" fill="#ff0099">
<circle cx=" 375" cy=" 109" r=" 1.5"/>
</g>
<text x="455" y="147" fill="black" font-size="17" font-family="Helvetica" font-weight="bold">
 + jet
</text>
<text x="447" y="147" fill="black" font-size="17" font-family="Times">
&#0947;
</text>
<text x="392" y="147" fill="black" font-size="17" font-family="Helvetica" font-weight="bold">
signal 
</text>
<path d="M362,154h 25v -24h -25z" fill="#99ff99"/>
<path d="M362,130h 25" fill="none" stroke="#99ff99" stroke-width="2"/>
<path d="M362,154h 25" fill="none" stroke="#99ff99" stroke-width="2"/>
<path d="M387,154v -24" fill="none" stroke="#99ff99" stroke-width="2"/>
<path d="M362,154v -24" fill="none" stroke="#99ff99" stroke-width="2"/>
<text x="300" y="34" fill="black" font-size="17" font-family="Helvetica" font-weight="bold">
=8 TeV
</text>
<text x="291" y="34" fill="black" font-size="17" font-family="Helvetica" font-weight="bold">
s
</text>
<path d="M285,25l 2, 10" fill="none" stroke="black" stroke-width="2"/>
<path d="M287,35l 2, -14" fill="none" stroke="black"/>
<path d="M289,21h 11" fill="none" stroke="black"/>
<text x="142" y="34" fill="black" font-size="17" font-family="Helvetica" font-weight="bold">
CMS Preliminary 
</text></svg>
