<?xml version="1.0" standalone="no"?>
<svg width="567" height="496" viewBox="0 0 567 496" xmlns="http://www.w3.org/2000/svg">
<title>
plots_mcZee_mcGJet_withEtaR9rhoIsoReweight/hlt150/nvtxEB.svg
</title>
<desc>
Creator: ROOT Version 5.32/00
CreationDate: Sun Nov 30 15:46:58 2014</desc>
<defs>
</defs>
<rect x="0" y="0" width="567" height="496" fill="white"/>
<rect x="74" y="44" width="453" height="402" fill="white"/>
<rect x="74" y="44" width="453" height="402" fill="none" stroke="black"/>
<rect x="74" y="44" width="453" height="402" fill="white"/>
<rect x="74" y="44" width="453" height="402" fill="none" stroke="black"/>
<path d="M85,428h 4" fill="none" stroke="#ff0099"/>
<path d="M91,428h 5" fill="none" stroke="#ff0099"/>
<g stroke="#ff0099" stroke-width="1" fill="#ff0099">
<circle cx=" 90" cy=" 428" r=" 1.5"/>
</g>
<path d="M96,427h 4" fill="none" stroke="#ff0099"/>
<path d="M102,427h 5" fill="none" stroke="#ff0099"/>
<g stroke="#ff0099" stroke-width="1" fill="#ff0099">
<circle cx=" 101" cy=" 427" r=" 1.5"/>
</g>
<path d="M107,420h 4" fill="none" stroke="#ff0099"/>
<path d="M114,420h 4" fill="none" stroke="#ff0099"/>
<g stroke="#ff0099" stroke-width="1" fill="#ff0099">
<circle cx=" 112" cy=" 420" r=" 1.5"/>
</g>
<path d="M123,415" fill="none" stroke="#ff0099"/>
<path d="M123,412" fill="none" stroke="#ff0099"/>
<path d="M118,413h 4" fill="none" stroke="#ff0099"/>
<path d="M125,413h 4" fill="none" stroke="#ff0099"/>
<g stroke="#ff0099" stroke-width="1" fill="#ff0099">
<circle cx=" 123" cy=" 413" r=" 1.5"/>
</g>
<path d="M135,386v -2" fill="none" stroke="#ff0099"/>
<path d="M135,382v -1" fill="none" stroke="#ff0099"/>
<path d="M129,383h 4" fill="none" stroke="#ff0099"/>
<path d="M136,383h 4" fill="none" stroke="#ff0099"/>
<g stroke="#ff0099" stroke-width="1" fill="#ff0099">
<circle cx=" 135" cy=" 383" r=" 1.5"/>
</g>
<path d="M146,359v -2" fill="none" stroke="#ff0099"/>
<path d="M146,355v -2" fill="none" stroke="#ff0099"/>
<path d="M140,356h 4" fill="none" stroke="#ff0099"/>
<path d="M147,356h 4" fill="none" stroke="#ff0099"/>
<g stroke="#ff0099" stroke-width="1" fill="#ff0099">
<circle cx=" 146" cy=" 356" r=" 1.5"/>
</g>
<path d="M157,318v -3" fill="none" stroke="#ff0099"/>
<path d="M157,312v -3" fill="none" stroke="#ff0099"/>
<path d="M151,314h 5" fill="none" stroke="#ff0099"/>
<path d="M158,314h 4" fill="none" stroke="#ff0099"/>
<g stroke="#ff0099" stroke-width="1" fill="#ff0099">
<circle cx=" 157" cy=" 314" r=" 1.5"/>
</g>
<path d="M168,273v -4" fill="none" stroke="#ff0099"/>
<path d="M168,267v -4" fill="none" stroke="#ff0099"/>
<path d="M162,268h 5" fill="none" stroke="#ff0099"/>
<path d="M169,268h 4" fill="none" stroke="#ff0099"/>
<g stroke="#ff0099" stroke-width="1" fill="#ff0099">
<circle cx=" 168" cy=" 268" r=" 1.5"/>
</g>
<path d="M179,220v -4" fill="none" stroke="#ff0099"/>
<path d="M179,213v -4" fill="none" stroke="#ff0099"/>
<path d="M173,215h 5" fill="none" stroke="#ff0099"/>
<path d="M180,215h 4" fill="none" stroke="#ff0099"/>
<g stroke="#ff0099" stroke-width="1" fill="#ff0099">
<circle cx=" 179" cy=" 215" r=" 1.5"/>
</g>
<path d="M190,178v -5" fill="none" stroke="#ff0099"/>
<path d="M190,171v -5" fill="none" stroke="#ff0099"/>
<path d="M184,172h 5" fill="none" stroke="#ff0099"/>
<path d="M191,172h 4" fill="none" stroke="#ff0099"/>
<g stroke="#ff0099" stroke-width="1" fill="#ff0099">
<circle cx=" 190" cy=" 172" r=" 1.5"/>
</g>
<path d="M201,131v -6" fill="none" stroke="#ff0099"/>
<path d="M201,123v -6" fill="none" stroke="#ff0099"/>
<path d="M195,124h 5" fill="none" stroke="#ff0099"/>
<path d="M202,124h 4" fill="none" stroke="#ff0099"/>
<g stroke="#ff0099" stroke-width="1" fill="#ff0099">
<circle cx=" 201" cy=" 124" r=" 1.5"/>
</g>
<path d="M212,97v -6" fill="none" stroke="#ff0099"/>
<path d="M212,89v -7" fill="none" stroke="#ff0099"/>
<path d="M206,90h 5" fill="none" stroke="#ff0099"/>
<path d="M213,90h 5" fill="none" stroke="#ff0099"/>
<g stroke="#ff0099" stroke-width="1" fill="#ff0099">
<circle cx=" 212" cy=" 90" r=" 1.5"/>
</g>
<path d="M223,85v -7" fill="none" stroke="#ff0099"/>
<path d="M223,76v -7" fill="none" stroke="#ff0099"/>
<path d="M218,77h 4" fill="none" stroke="#ff0099"/>
<path d="M224,77h 5" fill="none" stroke="#ff0099"/>
<g stroke="#ff0099" stroke-width="1" fill="#ff0099">
<circle cx=" 223" cy=" 77" r=" 1.5"/>
</g>
<path d="M234,84v -7" fill="none" stroke="#ff0099"/>
<path d="M234,75v -7" fill="none" stroke="#ff0099"/>
<path d="M229,76h 4" fill="none" stroke="#ff0099"/>
<path d="M235,76h 5" fill="none" stroke="#ff0099"/>
<g stroke="#ff0099" stroke-width="1" fill="#ff0099">
<circle cx=" 234" cy=" 76" r=" 1.5"/>
</g>
<path d="M245,79v -6" fill="none" stroke="#ff0099"/>
<path d="M245,70v -7" fill="none" stroke="#ff0099"/>
<path d="M240,71h 4" fill="none" stroke="#ff0099"/>
<path d="M246,71h 5" fill="none" stroke="#ff0099"/>
<g stroke="#ff0099" stroke-width="1" fill="#ff0099">
<circle cx=" 245" cy=" 71" r=" 1.5"/>
</g>
<path d="M256,95v -7" fill="none" stroke="#ff0099"/>
<path d="M256,86v -7" fill="none" stroke="#ff0099"/>
<path d="M251,87h 4" fill="none" stroke="#ff0099"/>
<path d="M257,87h 5" fill="none" stroke="#ff0099"/>
<g stroke="#ff0099" stroke-width="1" fill="#ff0099">
<circle cx=" 256" cy=" 87" r=" 1.5"/>
</g>
<path d="M267,123v -6" fill="none" stroke="#ff0099"/>
<path d="M267,114v -6" fill="none" stroke="#ff0099"/>
<path d="M262,116h 4" fill="none" stroke="#ff0099"/>
<path d="M268,116h 5" fill="none" stroke="#ff0099"/>
<g stroke="#ff0099" stroke-width="1" fill="#ff0099">
<circle cx=" 267" cy=" 116" r=" 1.5"/>
</g>
<path d="M278,145v -6" fill="none" stroke="#ff0099"/>
<path d="M278,137v -7" fill="none" stroke="#ff0099"/>
<path d="M273,138h 4" fill="none" stroke="#ff0099"/>
<path d="M279,138h 5" fill="none" stroke="#ff0099"/>
<g stroke="#ff0099" stroke-width="1" fill="#ff0099">
<circle cx=" 278" cy=" 138" r=" 1.5"/>
</g>
<path d="M289,184v -6" fill="none" stroke="#ff0099"/>
<path d="M289,176v -6" fill="none" stroke="#ff0099"/>
<path d="M284,177h 4" fill="none" stroke="#ff0099"/>
<path d="M291,177h 4" fill="none" stroke="#ff0099"/>
<g stroke="#ff0099" stroke-width="1" fill="#ff0099">
<circle cx=" 289" cy=" 177" r=" 1.5"/>
</g>
<path d="M300,207v -6" fill="none" stroke="#ff0099"/>
<path d="M300,198v -6" fill="none" stroke="#ff0099"/>
<path d="M295,199h 4" fill="none" stroke="#ff0099"/>
<path d="M302,199h 4" fill="none" stroke="#ff0099"/>
<g stroke="#ff0099" stroke-width="1" fill="#ff0099">
<circle cx=" 300" cy=" 199" r=" 1.5"/>
</g>
<path d="M312,238v -6" fill="none" stroke="#ff0099"/>
<path d="M312,230v -5" fill="none" stroke="#ff0099"/>
<path d="M306,231h 4" fill="none" stroke="#ff0099"/>
<path d="M313,231h 4" fill="none" stroke="#ff0099"/>
<g stroke="#ff0099" stroke-width="1" fill="#ff0099">
<circle cx=" 312" cy=" 231" r=" 1.5"/>
</g>
<path d="M323,271v -5" fill="none" stroke="#ff0099"/>
<path d="M323,264v -6" fill="none" stroke="#ff0099"/>
<path d="M317,265h 4" fill="none" stroke="#ff0099"/>
<path d="M324,265h 4" fill="none" stroke="#ff0099"/>
<g stroke="#ff0099" stroke-width="1" fill="#ff0099">
<circle cx=" 323" cy=" 265" r=" 1.5"/>
</g>
<path d="M334,286v -5" fill="none" stroke="#ff0099"/>
<path d="M334,278v -5" fill="none" stroke="#ff0099"/>
<path d="M328,280h 5" fill="none" stroke="#ff0099"/>
<path d="M335,280h 4" fill="none" stroke="#ff0099"/>
<g stroke="#ff0099" stroke-width="1" fill="#ff0099">
<circle cx=" 334" cy=" 280" r=" 1.5"/>
</g>
<path d="M345,330v -5" fill="none" stroke="#ff0099"/>
<path d="M345,323v -4" fill="none" stroke="#ff0099"/>
<path d="M339,324h 5" fill="none" stroke="#ff0099"/>
<path d="M346,324h 4" fill="none" stroke="#ff0099"/>
<g stroke="#ff0099" stroke-width="1" fill="#ff0099">
<circle cx=" 345" cy=" 324" r=" 1.5"/>
</g>
<path d="M356,349v -4" fill="none" stroke="#ff0099"/>
<path d="M356,343v -4" fill="none" stroke="#ff0099"/>
<path d="M350,344h 5" fill="none" stroke="#ff0099"/>
<path d="M357,344h 4" fill="none" stroke="#ff0099"/>
<g stroke="#ff0099" stroke-width="1" fill="#ff0099">
<circle cx=" 356" cy=" 344" r=" 1.5"/>
</g>
<path d="M367,369v -3" fill="none" stroke="#ff0099"/>
<path d="M367,364v -3" fill="none" stroke="#ff0099"/>
<path d="M361,365h 5" fill="none" stroke="#ff0099"/>
<path d="M368,365h 4" fill="none" stroke="#ff0099"/>
<g stroke="#ff0099" stroke-width="1" fill="#ff0099">
<circle cx=" 367" cy=" 365" r=" 1.5"/>
</g>
<path d="M378,385v -3" fill="none" stroke="#ff0099"/>
<path d="M378,380v -3" fill="none" stroke="#ff0099"/>
<path d="M372,381h 5" fill="none" stroke="#ff0099"/>
<path d="M379,381h 4" fill="none" stroke="#ff0099"/>
<g stroke="#ff0099" stroke-width="1" fill="#ff0099">
<circle cx=" 378" cy=" 381" r=" 1.5"/>
</g>
<path d="M389,396v -2" fill="none" stroke="#ff0099"/>
<path d="M389,391v -2" fill="none" stroke="#ff0099"/>
<path d="M383,392h 5" fill="none" stroke="#ff0099"/>
<path d="M390,392h 4" fill="none" stroke="#ff0099"/>
<g stroke="#ff0099" stroke-width="1" fill="#ff0099">
<circle cx=" 389" cy=" 392" r=" 1.5"/>
</g>
<path d="M400,403v -2" fill="none" stroke="#ff0099"/>
<path d="M400,399v -2" fill="none" stroke="#ff0099"/>
<path d="M394,400h 5" fill="none" stroke="#ff0099"/>
<path d="M401,400h 5" fill="none" stroke="#ff0099"/>
<g stroke="#ff0099" stroke-width="1" fill="#ff0099">
<circle cx=" 400" cy=" 400" r=" 1.5"/>
</g>
<path d="M411,417v -1" fill="none" stroke="#ff0099"/>
<path d="M411,414v -1" fill="none" stroke="#ff0099"/>
<path d="M406,415h 4" fill="none" stroke="#ff0099"/>
<path d="M412,415h 5" fill="none" stroke="#ff0099"/>
<g stroke="#ff0099" stroke-width="1" fill="#ff0099">
<circle cx=" 411" cy=" 415" r=" 1.5"/>
</g>
<path d="M422,418v -3" fill="none" stroke="#ff0099"/>
<path d="M422,413v -3" fill="none" stroke="#ff0099"/>
<path d="M417,414h 4" fill="none" stroke="#ff0099"/>
<path d="M423,414h 5" fill="none" stroke="#ff0099"/>
<g stroke="#ff0099" stroke-width="1" fill="#ff0099">
<circle cx=" 422" cy=" 414" r=" 1.5"/>
</g>
<path d="M433,422" fill="none" stroke="#ff0099"/>
<path d="M433,419" fill="none" stroke="#ff0099"/>
<path d="M428,420h 4" fill="none" stroke="#ff0099"/>
<path d="M434,420h 5" fill="none" stroke="#ff0099"/>
<g stroke="#ff0099" stroke-width="1" fill="#ff0099">
<circle cx=" 433" cy=" 420" r=" 1.5"/>
</g>
<path d="M444,422v -1" fill="none" stroke="#ff0099"/>
<path d="M444,419v -1" fill="none" stroke="#ff0099"/>
<path d="M439,420h 4" fill="none" stroke="#ff0099"/>
<path d="M445,420h 5" fill="none" stroke="#ff0099"/>
<g stroke="#ff0099" stroke-width="1" fill="#ff0099">
<circle cx=" 444" cy=" 420" r=" 1.5"/>
</g>
<path d="M450,425h 4" fill="none" stroke="#ff0099"/>
<path d="M456,425h 5" fill="none" stroke="#ff0099"/>
<g stroke="#ff0099" stroke-width="1" fill="#ff0099">
<circle cx=" 455" cy=" 425" r=" 1.5"/>
</g>
<path d="M461,426h 4" fill="none" stroke="#ff0099"/>
<path d="M468,426h 4" fill="none" stroke="#ff0099"/>
<g stroke="#ff0099" stroke-width="1" fill="#ff0099">
<circle cx=" 466" cy=" 426" r=" 1.5"/>
</g>
<path d="M472,428h 4" fill="none" stroke="#ff0099"/>
<path d="M479,428h 4" fill="none" stroke="#ff0099"/>
<g stroke="#ff0099" stroke-width="1" fill="#ff0099">
<circle cx=" 477" cy=" 428" r=" 1.5"/>
</g>
<path d="M483,428h 4" fill="none" stroke="#ff0099"/>
<path d="M490,428h 4" fill="none" stroke="#ff0099"/>
<g stroke="#ff0099" stroke-width="1" fill="#ff0099">
<circle cx=" 489" cy=" 428" r=" 1.5"/>
</g>
<path d="M494,428h 4" fill="none" stroke="#ff0099"/>
<path d="M501,428h 4" fill="none" stroke="#ff0099"/>
<g stroke="#ff0099" stroke-width="1" fill="#ff0099">
<circle cx=" 500" cy=" 428" r=" 1.5"/>
</g>
<path d="M505,428h 5" fill="none" stroke="#ff0099"/>
<path d="M512,428h 4" fill="none" stroke="#ff0099"/>
<g stroke="#ff0099" stroke-width="1" fill="#ff0099">
<circle cx=" 511" cy=" 428" r=" 1.5"/>
</g>
<path d="M516,428h 5" fill="none" stroke="#ff0099"/>
<path d="M523,428h 4" fill="none" stroke="#ff0099"/>
<g stroke="#ff0099" stroke-width="1" fill="#ff0099">
<circle cx=" 522" cy=" 428" r=" 1.5"/>
</g>
<path d="M74,446h 453" fill="none" stroke="black"/>
<path d="M79,434v 12" fill="none" stroke="black"/>
<path d="M90,440v 6" fill="none" stroke="black"/>
<path d="M101,440v 6" fill="none" stroke="black"/>
<path d="M112,440v 6" fill="none" stroke="black"/>
<path d="M123,440v 6" fill="none" stroke="black"/>
<path d="M135,434v 12" fill="none" stroke="black"/>
<path d="M146,440v 6" fill="none" stroke="black"/>
<path d="M157,440v 6" fill="none" stroke="black"/>
<path d="M168,440v 6" fill="none" stroke="black"/>
<path d="M179,440v 6" fill="none" stroke="black"/>
<path d="M190,434v 12" fill="none" stroke="black"/>
<path d="M201,440v 6" fill="none" stroke="black"/>
<path d="M212,440v 6" fill="none" stroke="black"/>
<path d="M223,440v 6" fill="none" stroke="black"/>
<path d="M234,440v 6" fill="none" stroke="black"/>
<path d="M245,434v 12" fill="none" stroke="black"/>
<path d="M256,440v 6" fill="none" stroke="black"/>
<path d="M267,440v 6" fill="none" stroke="black"/>
<path d="M278,440v 6" fill="none" stroke="black"/>
<path d="M289,440v 6" fill="none" stroke="black"/>
<path d="M300,434v 12" fill="none" stroke="black"/>
<path d="M312,440v 6" fill="none" stroke="black"/>
<path d="M323,440v 6" fill="none" stroke="black"/>
<path d="M334,440v 6" fill="none" stroke="black"/>
<path d="M345,440v 6" fill="none" stroke="black"/>
<path d="M356,434v 12" fill="none" stroke="black"/>
<path d="M367,440v 6" fill="none" stroke="black"/>
<path d="M378,440v 6" fill="none" stroke="black"/>
<path d="M389,440v 6" fill="none" stroke="black"/>
<path d="M400,440v 6" fill="none" stroke="black"/>
<path d="M411,434v 12" fill="none" stroke="black"/>
<path d="M422,440v 6" fill="none" stroke="black"/>
<path d="M433,440v 6" fill="none" stroke="black"/>
<path d="M444,440v 6" fill="none" stroke="black"/>
<path d="M455,440v 6" fill="none" stroke="black"/>
<path d="M466,434v 12" fill="none" stroke="black"/>
<path d="M477,440v 6" fill="none" stroke="black"/>
<path d="M489,440v 6" fill="none" stroke="black"/>
<path d="M500,440v 6" fill="none" stroke="black"/>
<path d="M511,440v 6" fill="none" stroke="black"/>
<path d="M522,434v 12" fill="none" stroke="black"/>
<path d="M79,434v 12" fill="none" stroke="black"/>
<path d="M522,434v 12" fill="none" stroke="black"/>
<text x="74" y="465" fill="black" font-size="18" font-family="Helvetica" font-weight="bold">
0
</text>
<text x="129" y="465" fill="black" font-size="18" font-family="Helvetica" font-weight="bold">
5
</text>
<text x="179" y="465" fill="black" font-size="18" font-family="Helvetica" font-weight="bold">
10
</text>
<text x="235" y="465" fill="black" font-size="18" font-family="Helvetica" font-weight="bold">
15
</text>
<text x="290" y="465" fill="black" font-size="18" font-family="Helvetica" font-weight="bold">
20
</text>
<text x="346" y="465" fill="black" font-size="18" font-family="Helvetica" font-weight="bold">
25
</text>
<text x="401" y="465" fill="black" font-size="18" font-family="Helvetica" font-weight="bold">
30
</text>
<text x="456" y="465" fill="black" font-size="18" font-family="Helvetica" font-weight="bold">
35
</text>
<text x="511" y="465" fill="black" font-size="18" font-family="Helvetica" font-weight="bold">
40
</text>
<path d="M74,44h 453" fill="none" stroke="black"/>
<path d="M79,56v -12" fill="none" stroke="black"/>
<path d="M90,50v -6" fill="none" stroke="black"/>
<path d="M101,50v -6" fill="none" stroke="black"/>
<path d="M112,50v -6" fill="none" stroke="black"/>
<path d="M123,50v -6" fill="none" stroke="black"/>
<path d="M135,56v -12" fill="none" stroke="black"/>
<path d="M146,50v -6" fill="none" stroke="black"/>
<path d="M157,50v -6" fill="none" stroke="black"/>
<path d="M168,50v -6" fill="none" stroke="black"/>
<path d="M179,50v -6" fill="none" stroke="black"/>
<path d="M190,56v -12" fill="none" stroke="black"/>
<path d="M201,50v -6" fill="none" stroke="black"/>
<path d="M212,50v -6" fill="none" stroke="black"/>
<path d="M223,50v -6" fill="none" stroke="black"/>
<path d="M234,50v -6" fill="none" stroke="black"/>
<path d="M245,56v -12" fill="none" stroke="black"/>
<path d="M256,50v -6" fill="none" stroke="black"/>
<path d="M267,50v -6" fill="none" stroke="black"/>
<path d="M278,50v -6" fill="none" stroke="black"/>
<path d="M289,50v -6" fill="none" stroke="black"/>
<path d="M300,56v -12" fill="none" stroke="black"/>
<path d="M312,50v -6" fill="none" stroke="black"/>
<path d="M323,50v -6" fill="none" stroke="black"/>
<path d="M334,50v -6" fill="none" stroke="black"/>
<path d="M345,50v -6" fill="none" stroke="black"/>
<path d="M356,56v -12" fill="none" stroke="black"/>
<path d="M367,50v -6" fill="none" stroke="black"/>
<path d="M378,50v -6" fill="none" stroke="black"/>
<path d="M389,50v -6" fill="none" stroke="black"/>
<path d="M400,50v -6" fill="none" stroke="black"/>
<path d="M411,56v -12" fill="none" stroke="black"/>
<path d="M422,50v -6" fill="none" stroke="black"/>
<path d="M433,50v -6" fill="none" stroke="black"/>
<path d="M444,50v -6" fill="none" stroke="black"/>
<path d="M455,50v -6" fill="none" stroke="black"/>
<path d="M466,56v -12" fill="none" stroke="black"/>
<path d="M477,50v -6" fill="none" stroke="black"/>
<path d="M489,50v -6" fill="none" stroke="black"/>
<path d="M500,50v -6" fill="none" stroke="black"/>
<path d="M511,50v -6" fill="none" stroke="black"/>
<path d="M522,56v -12" fill="none" stroke="black"/>
<path d="M79,56v -12" fill="none" stroke="black"/>
<path d="M522,56v -12" fill="none" stroke="black"/>
<path d="M74,446v -402" fill="none" stroke="black"/>
<path d="M87,428h -13" fill="none" stroke="black"/>
<path d="M81,418h -7" fill="none" stroke="black"/>
<path d="M81,408h -7" fill="none" stroke="black"/>
<path d="M81,399h -7" fill="none" stroke="black"/>
<path d="M81,389h -7" fill="none" stroke="black"/>
<path d="M87,379h -13" fill="none" stroke="black"/>
<path d="M81,369h -7" fill="none" stroke="black"/>
<path d="M81,359h -7" fill="none" stroke="black"/>
<path d="M81,349h -7" fill="none" stroke="black"/>
<path d="M81,339h -7" fill="none" stroke="black"/>
<path d="M87,329h -13" fill="none" stroke="black"/>
<path d="M81,320h -7" fill="none" stroke="black"/>
<path d="M81,310h -7" fill="none" stroke="black"/>
<path d="M81,300h -7" fill="none" stroke="black"/>
<path d="M81,290h -7" fill="none" stroke="black"/>
<path d="M87,280h -13" fill="none" stroke="black"/>
<path d="M81,270h -7" fill="none" stroke="black"/>
<path d="M81,260h -7" fill="none" stroke="black"/>
<path d="M81,251h -7" fill="none" stroke="black"/>
<path d="M81,241h -7" fill="none" stroke="black"/>
<path d="M87,231h -13" fill="none" stroke="black"/>
<path d="M81,221h -7" fill="none" stroke="black"/>
<path d="M81,211h -7" fill="none" stroke="black"/>
<path d="M81,201h -7" fill="none" stroke="black"/>
<path d="M81,191h -7" fill="none" stroke="black"/>
<path d="M87,182h -13" fill="none" stroke="black"/>
<path d="M81,172h -7" fill="none" stroke="black"/>
<path d="M81,162h -7" fill="none" stroke="black"/>
<path d="M81,152h -7" fill="none" stroke="black"/>
<path d="M81,142h -7" fill="none" stroke="black"/>
<path d="M87,132h -13" fill="none" stroke="black"/>
<path d="M81,122h -7" fill="none" stroke="black"/>
<path d="M81,112h -7" fill="none" stroke="black"/>
<path d="M81,103h -7" fill="none" stroke="black"/>
<path d="M81,93h -7" fill="none" stroke="black"/>
<path d="M87,83h -13" fill="none" stroke="black"/>
<path d="M87,428h -13" fill="none" stroke="black"/>
<path d="M81,438h -7" fill="none" stroke="black"/>
<path d="M87,83h -13" fill="none" stroke="black"/>
<path d="M81,73h -7" fill="none" stroke="black"/>
<path d="M81,63h -7" fill="none" stroke="black"/>
<path d="M81,53h -7" fill="none" stroke="black"/>
<text x="61" y="435" fill="black" font-size="18" font-family="Helvetica" font-weight="bold">
0
</text>
<text x="37" y="386" fill="black" font-size="18" font-family="Helvetica" font-weight="bold">
0.01
</text>
<text x="35" y="336" fill="black" font-size="18" font-family="Helvetica" font-weight="bold">
0.02
</text>
<text x="35" y="287" fill="black" font-size="18" font-family="Helvetica" font-weight="bold">
0.03
</text>
<text x="34" y="238" fill="black" font-size="18" font-family="Helvetica" font-weight="bold">
0.04
</text>
<text x="34" y="188" fill="black" font-size="18" font-family="Helvetica" font-weight="bold">
0.05
</text>
<text x="34" y="139" fill="black" font-size="18" font-family="Helvetica" font-weight="bold">
0.06
</text>
<text x="35" y="90" fill="black" font-size="18" font-family="Helvetica" font-weight="bold">
0.07
</text>
<path d="M90,428" fill="none" stroke="#99ff99" stroke-width="2"/>
<path d="M90,428" fill="none" stroke="#99ff99" stroke-width="2"/>
<g stroke="black" stroke-width="2" fill="none">
<line x1="89" y1="428" x2="90" y2="428"/>
</g>
<path d="M101,426" fill="none" stroke="#99ff99" stroke-width="2"/>
<path d="M101,426" fill="none" stroke="#99ff99" stroke-width="2"/>
<g stroke="black" stroke-width="2" fill="none">
<line x1="100" y1="426" x2="101" y2="426"/>
</g>
<path d="M112,421v -1" fill="none" stroke="#99ff99" stroke-width="2"/>
<path d="M112,420" fill="none" stroke="#99ff99" stroke-width="2"/>
<g stroke="black" stroke-width="2" fill="none">
<line x1="111" y1="420" x2="112" y2="420"/>
</g>
<path d="M123,410v -2" fill="none" stroke="#99ff99" stroke-width="2"/>
<path d="M123,408v -1" fill="none" stroke="#99ff99" stroke-width="2"/>
<g stroke="black" stroke-width="2" fill="none">
<line x1="122" y1="408" x2="123" y2="408"/>
</g>
<path d="M135,388v -1" fill="none" stroke="#99ff99" stroke-width="2"/>
<path d="M135,387" fill="none" stroke="#99ff99" stroke-width="2"/>
<g stroke="black" stroke-width="2" fill="none">
<line x1="134" y1="387" x2="135" y2="387"/>
</g>
<path d="M146,356v -3" fill="none" stroke="#99ff99" stroke-width="2"/>
<path d="M146,353v -3" fill="none" stroke="#99ff99" stroke-width="2"/>
<g stroke="black" stroke-width="2" fill="none">
<line x1="145" y1="353" x2="146" y2="353"/>
</g>
<path d="M157,315v -2" fill="none" stroke="#99ff99" stroke-width="2"/>
<path d="M157,313v -2" fill="none" stroke="#99ff99" stroke-width="2"/>
<g stroke="black" stroke-width="2" fill="none">
<line x1="156" y1="313" x2="157" y2="313"/>
</g>
<path d="M168,271v -1" fill="none" stroke="#99ff99" stroke-width="2"/>
<path d="M168,270v -2" fill="none" stroke="#99ff99" stroke-width="2"/>
<g stroke="black" stroke-width="2" fill="none">
<line x1="167" y1="270" x2="168" y2="270"/>
</g>
<path d="M179,221v -2" fill="none" stroke="#99ff99" stroke-width="2"/>
<path d="M179,219v -3" fill="none" stroke="#99ff99" stroke-width="2"/>
<g stroke="black" stroke-width="2" fill="none">
<line x1="178" y1="219" x2="179" y2="219"/>
</g>
<path d="M190,174v -4" fill="none" stroke="#99ff99" stroke-width="2"/>
<path d="M190,170v -4" fill="none" stroke="#99ff99" stroke-width="2"/>
<g stroke="black" stroke-width="2" fill="none">
<line x1="189" y1="170" x2="190" y2="170"/>
</g>
<path d="M201,138v -1" fill="none" stroke="#99ff99" stroke-width="2"/>
<path d="M201,137v -2" fill="none" stroke="#99ff99" stroke-width="2"/>
<g stroke="black" stroke-width="2" fill="none">
<line x1="200" y1="137" x2="201" y2="137"/>
</g>
<path d="M212,110v -3" fill="none" stroke="#99ff99" stroke-width="2"/>
<path d="M212,107v -3" fill="none" stroke="#99ff99" stroke-width="2"/>
<g stroke="black" stroke-width="2" fill="none">
<line x1="211" y1="107" x2="212" y2="107"/>
</g>
<path d="M223,88v -3" fill="none" stroke="#99ff99" stroke-width="2"/>
<path d="M223,85v -4" fill="none" stroke="#99ff99" stroke-width="2"/>
<g stroke="black" stroke-width="2" fill="none">
<line x1="222" y1="85" x2="223" y2="85"/>
</g>
<path d="M234,84v -4" fill="none" stroke="#99ff99" stroke-width="2"/>
<path d="M234,80v -3" fill="none" stroke="#99ff99" stroke-width="2"/>
<g stroke="black" stroke-width="2" fill="none">
<line x1="233" y1="80" x2="234" y2="80"/>
</g>
<path d="M245,83v -2" fill="none" stroke="#99ff99" stroke-width="2"/>
<path d="M245,81v -3" fill="none" stroke="#99ff99" stroke-width="2"/>
<g stroke="black" stroke-width="2" fill="none">
<line x1="244" y1="81" x2="245" y2="81"/>
</g>
<path d="M256,98v -3" fill="none" stroke="#99ff99" stroke-width="2"/>
<path d="M256,95v -4" fill="none" stroke="#99ff99" stroke-width="2"/>
<g stroke="black" stroke-width="2" fill="none">
<line x1="255" y1="95" x2="256" y2="95"/>
</g>
<path d="M267,113v -3" fill="none" stroke="#99ff99" stroke-width="2"/>
<path d="M267,110v -4" fill="none" stroke="#99ff99" stroke-width="2"/>
<g stroke="black" stroke-width="2" fill="none">
<line x1="266" y1="110" x2="267" y2="110"/>
</g>
<path d="M278,139v -3" fill="none" stroke="#99ff99" stroke-width="2"/>
<path d="M278,136v -3" fill="none" stroke="#99ff99" stroke-width="2"/>
<g stroke="black" stroke-width="2" fill="none">
<line x1="277" y1="136" x2="278" y2="136"/>
</g>
<path d="M289,167v -3" fill="none" stroke="#99ff99" stroke-width="2"/>
<path d="M289,164v -2" fill="none" stroke="#99ff99" stroke-width="2"/>
<g stroke="black" stroke-width="2" fill="none">
<line x1="288" y1="164" x2="289" y2="164"/>
</g>
<path d="M300,198v -3" fill="none" stroke="#99ff99" stroke-width="2"/>
<path d="M300,195v -2" fill="none" stroke="#99ff99" stroke-width="2"/>
<g stroke="black" stroke-width="2" fill="none">
<line x1="299" y1="195" x2="300" y2="195"/>
</g>
<path d="M312,228v -2" fill="none" stroke="#99ff99" stroke-width="2"/>
<path d="M312,226v -2" fill="none" stroke="#99ff99" stroke-width="2"/>
<g stroke="black" stroke-width="2" fill="none">
<line x1="311" y1="226" x2="312" y2="226"/>
</g>
<path d="M323,261v -2" fill="none" stroke="#99ff99" stroke-width="2"/>
<path d="M323,259v -3" fill="none" stroke="#99ff99" stroke-width="2"/>
<g stroke="black" stroke-width="2" fill="none">
<line x1="322" y1="259" x2="323" y2="259"/>
</g>
<path d="M334,289v -3" fill="none" stroke="#99ff99" stroke-width="2"/>
<path d="M334,286v -2" fill="none" stroke="#99ff99" stroke-width="2"/>
<g stroke="black" stroke-width="2" fill="none">
<line x1="333" y1="286" x2="334" y2="286"/>
</g>
<path d="M345,316v -3" fill="none" stroke="#99ff99" stroke-width="2"/>
<path d="M345,313v -2" fill="none" stroke="#99ff99" stroke-width="2"/>
<g stroke="black" stroke-width="2" fill="none">
<line x1="344" y1="313" x2="345" y2="313"/>
</g>
<path d="M356,341v -1" fill="none" stroke="#99ff99" stroke-width="2"/>
<path d="M356,340v -1" fill="none" stroke="#99ff99" stroke-width="2"/>
<g stroke="black" stroke-width="2" fill="none">
<line x1="355" y1="340" x2="356" y2="340"/>
</g>
<path d="M367,363v -1" fill="none" stroke="#99ff99" stroke-width="2"/>
<path d="M367,362" fill="none" stroke="#99ff99" stroke-width="2"/>
<g stroke="black" stroke-width="2" fill="none">
<line x1="366" y1="362" x2="367" y2="362"/>
</g>
<path d="M378,379v -1" fill="none" stroke="#99ff99" stroke-width="2"/>
<path d="M378,378v -1" fill="none" stroke="#99ff99" stroke-width="2"/>
<g stroke="black" stroke-width="2" fill="none">
<line x1="377" y1="378" x2="378" y2="378"/>
</g>
<path d="M389,392v -1" fill="none" stroke="#99ff99" stroke-width="2"/>
<path d="M389,391v -1" fill="none" stroke="#99ff99" stroke-width="2"/>
<g stroke="black" stroke-width="2" fill="none">
<line x1="388" y1="391" x2="389" y2="391"/>
</g>
<path d="M400,402" fill="none" stroke="#99ff99" stroke-width="2"/>
<path d="M400,402" fill="none" stroke="#99ff99" stroke-width="2"/>
<g stroke="black" stroke-width="2" fill="none">
<line x1="399" y1="402" x2="400" y2="402"/>
</g>
<path d="M411,410" fill="none" stroke="#99ff99" stroke-width="2"/>
<path d="M411,410v -1" fill="none" stroke="#99ff99" stroke-width="2"/>
<g stroke="black" stroke-width="2" fill="none">
<line x1="410" y1="410" x2="411" y2="410"/>
</g>
<path d="M422,415" fill="none" stroke="#99ff99" stroke-width="2"/>
<path d="M422,415" fill="none" stroke="#99ff99" stroke-width="2"/>
<g stroke="black" stroke-width="2" fill="none">
<line x1="421" y1="415" x2="422" y2="415"/>
</g>
<path d="M433,419" fill="none" stroke="#99ff99" stroke-width="2"/>
<path d="M433,419" fill="none" stroke="#99ff99" stroke-width="2"/>
<g stroke="black" stroke-width="2" fill="none">
<line x1="432" y1="419" x2="433" y2="419"/>
</g>
<path d="M444,422" fill="none" stroke="#99ff99" stroke-width="2"/>
<path d="M444,422" fill="none" stroke="#99ff99" stroke-width="2"/>
<g stroke="black" stroke-width="2" fill="none">
<line x1="443" y1="422" x2="444" y2="422"/>
</g>
<path d="M455,424" fill="none" stroke="#99ff99" stroke-width="2"/>
<path d="M455,424" fill="none" stroke="#99ff99" stroke-width="2"/>
<g stroke="black" stroke-width="2" fill="none">
<line x1="454" y1="424" x2="455" y2="424"/>
</g>
<path d="M466,426v -1" fill="none" stroke="#99ff99" stroke-width="2"/>
<path d="M466,425" fill="none" stroke="#99ff99" stroke-width="2"/>
<g stroke="black" stroke-width="2" fill="none">
<line x1="465" y1="425" x2="466" y2="425"/>
</g>
<path d="M477,426" fill="none" stroke="#99ff99" stroke-width="2"/>
<path d="M477,426" fill="none" stroke="#99ff99" stroke-width="2"/>
<g stroke="black" stroke-width="2" fill="none">
<line x1="476" y1="426" x2="477" y2="426"/>
</g>
<path d="M489,427" fill="none" stroke="#99ff99" stroke-width="2"/>
<path d="M489,427" fill="none" stroke="#99ff99" stroke-width="2"/>
<g stroke="black" stroke-width="2" fill="none">
<line x1="488" y1="427" x2="489" y2="427"/>
</g>
<path d="M500,427" fill="none" stroke="#99ff99" stroke-width="2"/>
<path d="M500,427" fill="none" stroke="#99ff99" stroke-width="2"/>
<g stroke="black" stroke-width="2" fill="none">
<line x1="499" y1="427" x2="500" y2="427"/>
</g>
<path d="M511,428v -1" fill="none" stroke="#99ff99" stroke-width="2"/>
<path d="M511,427" fill="none" stroke="#99ff99" stroke-width="2"/>
<g stroke="black" stroke-width="2" fill="none">
<line x1="510" y1="427" x2="511" y2="427"/>
</g>
<path d="M522,428" fill="none" stroke="#99ff99" stroke-width="2"/>
<path d="M522,428" fill="none" stroke="#99ff99" stroke-width="2"/>
<g stroke="black" stroke-width="2" fill="none">
<line x1="521" y1="428" x2="522" y2="428"/>
</g>
<path d="M74,428h 22v -2h 11v -6h 11v -12h 11v -21h 11v -34h 11v -40h 11v -43h 11v -51h 11v -49h 11v -33h 11v -30h 12v -22h 11v -5h 11v 1h 11v 14h 11v 15h 11v 26h 11v 28h 11v 31h 11v 31h 11v 33h 11v 27h 11v 27h 11v 27h 11v 22h 11v 16h 11v 13h 11v 11h
 12v 8h 11v 5h 11v 4h 11v 3h 11v 2h 11v 1h 11v 1h 11v 1h 33v 1h 11z" fill="#99ff99"/>
<path d="M74,428h 22v -2h 11v -6h 11v -12h 11v -21h 11v -34h 11v -40h 11v -43h 11v -51h 11v -49h 11v -33h 11v -30h 12v -22h 11v -5h 11v 1h 11v 14h 11v 15h 11v 26h 11v 28h 11v 31h 11v 31h 11v 33h 11v 27h 11v 27h 11v 27h 11v 22h 11v 16h 11v 13h 11v 11h
 12v 8h 11v 5h 11v 4h 11v 3h 11v 2h 11v 1h 11v 1h 11v 1h 33v 1h 11" fill="none" stroke="#99ff99" stroke-width="2"/>
<path d="M85,428h 4" fill="none" stroke="#ff0099"/>
<path d="M91,428h 5" fill="none" stroke="#ff0099"/>
<g stroke="#ff0099" stroke-width="1" fill="#ff0099">
<circle cx=" 90" cy=" 428" r=" 1.5"/>
</g>
<path d="M96,427h 4" fill="none" stroke="#ff0099"/>
<path d="M102,427h 5" fill="none" stroke="#ff0099"/>
<g stroke="#ff0099" stroke-width="1" fill="#ff0099">
<circle cx=" 101" cy=" 427" r=" 1.5"/>
</g>
<path d="M107,420h 4" fill="none" stroke="#ff0099"/>
<path d="M114,420h 4" fill="none" stroke="#ff0099"/>
<g stroke="#ff0099" stroke-width="1" fill="#ff0099">
<circle cx=" 112" cy=" 420" r=" 1.5"/>
</g>
<path d="M123,415" fill="none" stroke="#ff0099"/>
<path d="M123,412" fill="none" stroke="#ff0099"/>
<path d="M118,413h 4" fill="none" stroke="#ff0099"/>
<path d="M125,413h 4" fill="none" stroke="#ff0099"/>
<g stroke="#ff0099" stroke-width="1" fill="#ff0099">
<circle cx=" 123" cy=" 413" r=" 1.5"/>
</g>
<path d="M135,386v -2" fill="none" stroke="#ff0099"/>
<path d="M135,382v -1" fill="none" stroke="#ff0099"/>
<path d="M129,383h 4" fill="none" stroke="#ff0099"/>
<path d="M136,383h 4" fill="none" stroke="#ff0099"/>
<g stroke="#ff0099" stroke-width="1" fill="#ff0099">
<circle cx=" 135" cy=" 383" r=" 1.5"/>
</g>
<path d="M146,359v -2" fill="none" stroke="#ff0099"/>
<path d="M146,355v -2" fill="none" stroke="#ff0099"/>
<path d="M140,356h 4" fill="none" stroke="#ff0099"/>
<path d="M147,356h 4" fill="none" stroke="#ff0099"/>
<g stroke="#ff0099" stroke-width="1" fill="#ff0099">
<circle cx=" 146" cy=" 356" r=" 1.5"/>
</g>
<path d="M157,318v -3" fill="none" stroke="#ff0099"/>
<path d="M157,312v -3" fill="none" stroke="#ff0099"/>
<path d="M151,314h 5" fill="none" stroke="#ff0099"/>
<path d="M158,314h 4" fill="none" stroke="#ff0099"/>
<g stroke="#ff0099" stroke-width="1" fill="#ff0099">
<circle cx=" 157" cy=" 314" r=" 1.5"/>
</g>
<path d="M168,273v -4" fill="none" stroke="#ff0099"/>
<path d="M168,267v -4" fill="none" stroke="#ff0099"/>
<path d="M162,268h 5" fill="none" stroke="#ff0099"/>
<path d="M169,268h 4" fill="none" stroke="#ff0099"/>
<g stroke="#ff0099" stroke-width="1" fill="#ff0099">
<circle cx=" 168" cy=" 268" r=" 1.5"/>
</g>
<path d="M179,220v -4" fill="none" stroke="#ff0099"/>
<path d="M179,213v -4" fill="none" stroke="#ff0099"/>
<path d="M173,215h 5" fill="none" stroke="#ff0099"/>
<path d="M180,215h 4" fill="none" stroke="#ff0099"/>
<g stroke="#ff0099" stroke-width="1" fill="#ff0099">
<circle cx=" 179" cy=" 215" r=" 1.5"/>
</g>
<path d="M190,178v -5" fill="none" stroke="#ff0099"/>
<path d="M190,171v -5" fill="none" stroke="#ff0099"/>
<path d="M184,172h 5" fill="none" stroke="#ff0099"/>
<path d="M191,172h 4" fill="none" stroke="#ff0099"/>
<g stroke="#ff0099" stroke-width="1" fill="#ff0099">
<circle cx=" 190" cy=" 172" r=" 1.5"/>
</g>
<path d="M201,131v -6" fill="none" stroke="#ff0099"/>
<path d="M201,123v -6" fill="none" stroke="#ff0099"/>
<path d="M195,124h 5" fill="none" stroke="#ff0099"/>
<path d="M202,124h 4" fill="none" stroke="#ff0099"/>
<g stroke="#ff0099" stroke-width="1" fill="#ff0099">
<circle cx=" 201" cy=" 124" r=" 1.5"/>
</g>
<path d="M212,97v -6" fill="none" stroke="#ff0099"/>
<path d="M212,89v -7" fill="none" stroke="#ff0099"/>
<path d="M206,90h 5" fill="none" stroke="#ff0099"/>
<path d="M213,90h 5" fill="none" stroke="#ff0099"/>
<g stroke="#ff0099" stroke-width="1" fill="#ff0099">
<circle cx=" 212" cy=" 90" r=" 1.5"/>
</g>
<path d="M223,85v -7" fill="none" stroke="#ff0099"/>
<path d="M223,76v -7" fill="none" stroke="#ff0099"/>
<path d="M218,77h 4" fill="none" stroke="#ff0099"/>
<path d="M224,77h 5" fill="none" stroke="#ff0099"/>
<g stroke="#ff0099" stroke-width="1" fill="#ff0099">
<circle cx=" 223" cy=" 77" r=" 1.5"/>
</g>
<path d="M234,84v -7" fill="none" stroke="#ff0099"/>
<path d="M234,75v -7" fill="none" stroke="#ff0099"/>
<path d="M229,76h 4" fill="none" stroke="#ff0099"/>
<path d="M235,76h 5" fill="none" stroke="#ff0099"/>
<g stroke="#ff0099" stroke-width="1" fill="#ff0099">
<circle cx=" 234" cy=" 76" r=" 1.5"/>
</g>
<path d="M245,79v -6" fill="none" stroke="#ff0099"/>
<path d="M245,70v -7" fill="none" stroke="#ff0099"/>
<path d="M240,71h 4" fill="none" stroke="#ff0099"/>
<path d="M246,71h 5" fill="none" stroke="#ff0099"/>
<g stroke="#ff0099" stroke-width="1" fill="#ff0099">
<circle cx=" 245" cy=" 71" r=" 1.5"/>
</g>
<path d="M256,95v -7" fill="none" stroke="#ff0099"/>
<path d="M256,86v -7" fill="none" stroke="#ff0099"/>
<path d="M251,87h 4" fill="none" stroke="#ff0099"/>
<path d="M257,87h 5" fill="none" stroke="#ff0099"/>
<g stroke="#ff0099" stroke-width="1" fill="#ff0099">
<circle cx=" 256" cy=" 87" r=" 1.5"/>
</g>
<path d="M267,123v -6" fill="none" stroke="#ff0099"/>
<path d="M267,114v -6" fill="none" stroke="#ff0099"/>
<path d="M262,116h 4" fill="none" stroke="#ff0099"/>
<path d="M268,116h 5" fill="none" stroke="#ff0099"/>
<g stroke="#ff0099" stroke-width="1" fill="#ff0099">
<circle cx=" 267" cy=" 116" r=" 1.5"/>
</g>
<path d="M278,145v -6" fill="none" stroke="#ff0099"/>
<path d="M278,137v -7" fill="none" stroke="#ff0099"/>
<path d="M273,138h 4" fill="none" stroke="#ff0099"/>
<path d="M279,138h 5" fill="none" stroke="#ff0099"/>
<g stroke="#ff0099" stroke-width="1" fill="#ff0099">
<circle cx=" 278" cy=" 138" r=" 1.5"/>
</g>
<path d="M289,184v -6" fill="none" stroke="#ff0099"/>
<path d="M289,176v -6" fill="none" stroke="#ff0099"/>
<path d="M284,177h 4" fill="none" stroke="#ff0099"/>
<path d="M291,177h 4" fill="none" stroke="#ff0099"/>
<g stroke="#ff0099" stroke-width="1" fill="#ff0099">
<circle cx=" 289" cy=" 177" r=" 1.5"/>
</g>
<path d="M300,207v -6" fill="none" stroke="#ff0099"/>
<path d="M300,198v -6" fill="none" stroke="#ff0099"/>
<path d="M295,199h 4" fill="none" stroke="#ff0099"/>
<path d="M302,199h 4" fill="none" stroke="#ff0099"/>
<g stroke="#ff0099" stroke-width="1" fill="#ff0099">
<circle cx=" 300" cy=" 199" r=" 1.5"/>
</g>
<path d="M312,238v -6" fill="none" stroke="#ff0099"/>
<path d="M312,230v -5" fill="none" stroke="#ff0099"/>
<path d="M306,231h 4" fill="none" stroke="#ff0099"/>
<path d="M313,231h 4" fill="none" stroke="#ff0099"/>
<g stroke="#ff0099" stroke-width="1" fill="#ff0099">
<circle cx=" 312" cy=" 231" r=" 1.5"/>
</g>
<path d="M323,271v -5" fill="none" stroke="#ff0099"/>
<path d="M323,264v -6" fill="none" stroke="#ff0099"/>
<path d="M317,265h 4" fill="none" stroke="#ff0099"/>
<path d="M324,265h 4" fill="none" stroke="#ff0099"/>
<g stroke="#ff0099" stroke-width="1" fill="#ff0099">
<circle cx=" 323" cy=" 265" r=" 1.5"/>
</g>
<path d="M334,286v -5" fill="none" stroke="#ff0099"/>
<path d="M334,278v -5" fill="none" stroke="#ff0099"/>
<path d="M328,280h 5" fill="none" stroke="#ff0099"/>
<path d="M335,280h 4" fill="none" stroke="#ff0099"/>
<g stroke="#ff0099" stroke-width="1" fill="#ff0099">
<circle cx=" 334" cy=" 280" r=" 1.5"/>
</g>
<path d="M345,330v -5" fill="none" stroke="#ff0099"/>
<path d="M345,323v -4" fill="none" stroke="#ff0099"/>
<path d="M339,324h 5" fill="none" stroke="#ff0099"/>
<path d="M346,324h 4" fill="none" stroke="#ff0099"/>
<g stroke="#ff0099" stroke-width="1" fill="#ff0099">
<circle cx=" 345" cy=" 324" r=" 1.5"/>
</g>
<path d="M356,349v -4" fill="none" stroke="#ff0099"/>
<path d="M356,343v -4" fill="none" stroke="#ff0099"/>
<path d="M350,344h 5" fill="none" stroke="#ff0099"/>
<path d="M357,344h 4" fill="none" stroke="#ff0099"/>
<g stroke="#ff0099" stroke-width="1" fill="#ff0099">
<circle cx=" 356" cy=" 344" r=" 1.5"/>
</g>
<path d="M367,369v -3" fill="none" stroke="#ff0099"/>
<path d="M367,364v -3" fill="none" stroke="#ff0099"/>
<path d="M361,365h 5" fill="none" stroke="#ff0099"/>
<path d="M368,365h 4" fill="none" stroke="#ff0099"/>
<g stroke="#ff0099" stroke-width="1" fill="#ff0099">
<circle cx=" 367" cy=" 365" r=" 1.5"/>
</g>
<path d="M378,385v -3" fill="none" stroke="#ff0099"/>
<path d="M378,380v -3" fill="none" stroke="#ff0099"/>
<path d="M372,381h 5" fill="none" stroke="#ff0099"/>
<path d="M379,381h 4" fill="none" stroke="#ff0099"/>
<g stroke="#ff0099" stroke-width="1" fill="#ff0099">
<circle cx=" 378" cy=" 381" r=" 1.5"/>
</g>
<path d="M389,396v -2" fill="none" stroke="#ff0099"/>
<path d="M389,391v -2" fill="none" stroke="#ff0099"/>
<path d="M383,392h 5" fill="none" stroke="#ff0099"/>
<path d="M390,392h 4" fill="none" stroke="#ff0099"/>
<g stroke="#ff0099" stroke-width="1" fill="#ff0099">
<circle cx=" 389" cy=" 392" r=" 1.5"/>
</g>
<path d="M400,403v -2" fill="none" stroke="#ff0099"/>
<path d="M400,399v -2" fill="none" stroke="#ff0099"/>
<path d="M394,400h 5" fill="none" stroke="#ff0099"/>
<path d="M401,400h 5" fill="none" stroke="#ff0099"/>
<g stroke="#ff0099" stroke-width="1" fill="#ff0099">
<circle cx=" 400" cy=" 400" r=" 1.5"/>
</g>
<path d="M411,417v -1" fill="none" stroke="#ff0099"/>
<path d="M411,414v -1" fill="none" stroke="#ff0099"/>
<path d="M406,415h 4" fill="none" stroke="#ff0099"/>
<path d="M412,415h 5" fill="none" stroke="#ff0099"/>
<g stroke="#ff0099" stroke-width="1" fill="#ff0099">
<circle cx=" 411" cy=" 415" r=" 1.5"/>
</g>
<path d="M422,418v -3" fill="none" stroke="#ff0099"/>
<path d="M422,413v -3" fill="none" stroke="#ff0099"/>
<path d="M417,414h 4" fill="none" stroke="#ff0099"/>
<path d="M423,414h 5" fill="none" stroke="#ff0099"/>
<g stroke="#ff0099" stroke-width="1" fill="#ff0099">
<circle cx=" 422" cy=" 414" r=" 1.5"/>
</g>
<path d="M433,422" fill="none" stroke="#ff0099"/>
<path d="M433,419" fill="none" stroke="#ff0099"/>
<path d="M428,420h 4" fill="none" stroke="#ff0099"/>
<path d="M434,420h 5" fill="none" stroke="#ff0099"/>
<g stroke="#ff0099" stroke-width="1" fill="#ff0099">
<circle cx=" 433" cy=" 420" r=" 1.5"/>
</g>
<path d="M444,422v -1" fill="none" stroke="#ff0099"/>
<path d="M444,419v -1" fill="none" stroke="#ff0099"/>
<path d="M439,420h 4" fill="none" stroke="#ff0099"/>
<path d="M445,420h 5" fill="none" stroke="#ff0099"/>
<g stroke="#ff0099" stroke-width="1" fill="#ff0099">
<circle cx=" 444" cy=" 420" r=" 1.5"/>
</g>
<path d="M450,425h 4" fill="none" stroke="#ff0099"/>
<path d="M456,425h 5" fill="none" stroke="#ff0099"/>
<g stroke="#ff0099" stroke-width="1" fill="#ff0099">
<circle cx=" 455" cy=" 425" r=" 1.5"/>
</g>
<path d="M461,426h 4" fill="none" stroke="#ff0099"/>
<path d="M468,426h 4" fill="none" stroke="#ff0099"/>
<g stroke="#ff0099" stroke-width="1" fill="#ff0099">
<circle cx=" 466" cy=" 426" r=" 1.5"/>
</g>
<path d="M472,428h 4" fill="none" stroke="#ff0099"/>
<path d="M479,428h 4" fill="none" stroke="#ff0099"/>
<g stroke="#ff0099" stroke-width="1" fill="#ff0099">
<circle cx=" 477" cy=" 428" r=" 1.5"/>
</g>
<path d="M483,428h 4" fill="none" stroke="#ff0099"/>
<path d="M490,428h 4" fill="none" stroke="#ff0099"/>
<g stroke="#ff0099" stroke-width="1" fill="#ff0099">
<circle cx=" 489" cy=" 428" r=" 1.5"/>
</g>
<path d="M494,428h 4" fill="none" stroke="#ff0099"/>
<path d="M501,428h 4" fill="none" stroke="#ff0099"/>
<g stroke="#ff0099" stroke-width="1" fill="#ff0099">
<circle cx=" 500" cy=" 428" r=" 1.5"/>
</g>
<path d="M505,428h 5" fill="none" stroke="#ff0099"/>
<path d="M512,428h 4" fill="none" stroke="#ff0099"/>
<g stroke="#ff0099" stroke-width="1" fill="#ff0099">
<circle cx=" 511" cy=" 428" r=" 1.5"/>
</g>
<path d="M516,428h 5" fill="none" stroke="#ff0099"/>
<path d="M523,428h 4" fill="none" stroke="#ff0099"/>
<g stroke="#ff0099" stroke-width="1" fill="#ff0099">
<circle cx=" 522" cy=" 428" r=" 1.5"/>
</g>
<rect x="357" y="59" width="142" height="99" fill="white"/>
<text x="360" y="82" fill="black" font-size="17" font-family="Helvetica" font-weight="bold">
EB
</text>
<text x="457" y="115" fill="black" font-size="17" font-family="Helvetica" font-weight="bold">
 ee
</text>
<text x="440" y="115" fill="black" font-size="17" font-family="Times">
&#8594;
</text>
<text x="392" y="115" fill="black" font-size="17" font-family="Helvetica" font-weight="bold">
MC Z 
</text>
<path d="M362,109h 25" fill="none" stroke="#ff0099"/>
<g stroke="#ff0099" stroke-width="1" fill="#ff0099">
<circle cx=" 375" cy=" 109" r=" 1.5"/>
</g>
<text x="455" y="147" fill="black" font-size="17" font-family="Helvetica" font-weight="bold">
 + jet
</text>
<text x="447" y="147" fill="black" font-size="17" font-family="Times">
&#0947;
</text>
<text x="392" y="147" fill="black" font-size="17" font-family="Helvetica" font-weight="bold">
signal 
</text>
<path d="M362,154h 25v -24h -25z" fill="#99ff99"/>
<path d="M362,130h 25" fill="none" stroke="#99ff99" stroke-width="2"/>
<path d="M362,154h 25" fill="none" stroke="#99ff99" stroke-width="2"/>
<path d="M387,154v -24" fill="none" stroke="#99ff99" stroke-width="2"/>
<path d="M362,154v -24" fill="none" stroke="#99ff99" stroke-width="2"/>
<text x="300" y="34" fill="black" font-size="17" font-family="Helvetica" font-weight="bold">
=8 TeV
</text>
<text x="291" y="34" fill="black" font-size="17" font-family="Helvetica" font-weight="bold">
s
</text>
<path d="M285,25l 2, 10" fill="none" stroke="black" stroke-width="2"/>
<path d="M287,35l 2, -14" fill="none" stroke="black"/>
<path d="M289,21h 11" fill="none" stroke="black"/>
<text x="142" y="34" fill="black" font-size="17" font-family="Helvetica" font-weight="bold">
CMS Preliminary 
</text></svg>
