<?xml version="1.0" standalone="no"?>
<svg width="567" height="496" viewBox="0 0 567 496" xmlns="http://www.w3.org/2000/svg">
<title>
plots_mcZee_mcGJet_withEtaR9rhoIsoReweight/hlt150/pid_pfIsoNeutrals03ForCiCEE.svg
</title>
<desc>
Creator: ROOT Version 5.32/00
CreationDate: Sun Nov 30 15:46:51 2014</desc>
<defs>
</defs>
<rect x="0" y="0" width="567" height="496" fill="white"/>
<rect x="74" y="44" width="453" height="402" fill="white"/>
<rect x="74" y="44" width="453" height="402" fill="none" stroke="black"/>
<rect x="74" y="44" width="453" height="402" fill="white"/>
<rect x="74" y="44" width="453" height="402" fill="none" stroke="black"/>
<path d="M77,77v -6" fill="none" stroke="#ff0099"/>
<path d="M77,69v -6" fill="none" stroke="#ff0099"/>
<path d="M74,70h 2" fill="none" stroke="#ff0099"/>
<path d="M79,70h 2" fill="none" stroke="#ff0099"/>
<g stroke="#ff0099" stroke-width="1" fill="#ff0099">
<circle cx=" 77" cy=" 70" r=" 1.5"/>
</g>
<path d="M81,446h 3" fill="none" stroke="#ff0099"/>
<path d="M86,446h 3" fill="none" stroke="#ff0099"/>
<g stroke="#ff0099" stroke-width="1" fill="#ff0099">
<circle cx=" 85" cy=" 446" r=" 1.5"/>
</g>
<path d="M89,445h 2" fill="none" stroke="#ff0099"/>
<path d="M94,445h 2" fill="none" stroke="#ff0099"/>
<g stroke="#ff0099" stroke-width="1" fill="#ff0099">
<circle cx=" 93" cy=" 445" r=" 1.5"/>
</g>
<path d="M96,442h 3" fill="none" stroke="#ff0099"/>
<path d="M101,442h 3" fill="none" stroke="#ff0099"/>
<g stroke="#ff0099" stroke-width="1" fill="#ff0099">
<circle cx=" 100" cy=" 442" r=" 1.5"/>
</g>
<path d="M104,440h 3" fill="none" stroke="#ff0099"/>
<path d="M109,440h 2" fill="none" stroke="#ff0099"/>
<g stroke="#ff0099" stroke-width="1" fill="#ff0099">
<circle cx=" 108" cy=" 440" r=" 1.5"/>
</g>
<path d="M115,435v -1" fill="none" stroke="#ff0099"/>
<path d="M115,432" fill="none" stroke="#ff0099"/>
<path d="M111,433h 3" fill="none" stroke="#ff0099"/>
<path d="M116,433h 3" fill="none" stroke="#ff0099"/>
<g stroke="#ff0099" stroke-width="1" fill="#ff0099">
<circle cx=" 115" cy=" 433" r=" 1.5"/>
</g>
<path d="M123,435" fill="none" stroke="#ff0099"/>
<path d="M123,432" fill="none" stroke="#ff0099"/>
<path d="M119,433h 3" fill="none" stroke="#ff0099"/>
<path d="M124,433h 3" fill="none" stroke="#ff0099"/>
<g stroke="#ff0099" stroke-width="1" fill="#ff0099">
<circle cx=" 123" cy=" 433" r=" 1.5"/>
</g>
<path d="M127,432h 2" fill="none" stroke="#ff0099"/>
<path d="M132,432h 2" fill="none" stroke="#ff0099"/>
<g stroke="#ff0099" stroke-width="1" fill="#ff0099">
<circle cx=" 130" cy=" 432" r=" 1.5"/>
</g>
<path d="M138,434" fill="none" stroke="#ff0099"/>
<path d="M138,431" fill="none" stroke="#ff0099"/>
<path d="M134,433h 3" fill="none" stroke="#ff0099"/>
<path d="M139,433h 3" fill="none" stroke="#ff0099"/>
<g stroke="#ff0099" stroke-width="1" fill="#ff0099">
<circle cx=" 138" cy=" 433" r=" 1.5"/>
</g>
<path d="M142,434h 2" fill="none" stroke="#ff0099"/>
<path d="M147,434h 2" fill="none" stroke="#ff0099"/>
<g stroke="#ff0099" stroke-width="1" fill="#ff0099">
<circle cx=" 146" cy=" 434" r=" 1.5"/>
</g>
<path d="M149,436h 3" fill="none" stroke="#ff0099"/>
<path d="M154,436h 3" fill="none" stroke="#ff0099"/>
<g stroke="#ff0099" stroke-width="1" fill="#ff0099">
<circle cx=" 153" cy=" 436" r=" 1.5"/>
</g>
<path d="M157,440h 2" fill="none" stroke="#ff0099"/>
<path d="M162,440h 2" fill="none" stroke="#ff0099"/>
<g stroke="#ff0099" stroke-width="1" fill="#ff0099">
<circle cx=" 161" cy=" 440" r=" 1.5"/>
</g>
<path d="M164,442h 3" fill="none" stroke="#ff0099"/>
<path d="M169,442h 3" fill="none" stroke="#ff0099"/>
<g stroke="#ff0099" stroke-width="1" fill="#ff0099">
<circle cx=" 168" cy=" 442" r=" 1.5"/>
</g>
<path d="M172,442h 3" fill="none" stroke="#ff0099"/>
<path d="M177,442h 3" fill="none" stroke="#ff0099"/>
<g stroke="#ff0099" stroke-width="1" fill="#ff0099">
<circle cx=" 176" cy=" 442" r=" 1.5"/>
</g>
<path d="M180,441h 2" fill="none" stroke="#ff0099"/>
<path d="M184,441h 3" fill="none" stroke="#ff0099"/>
<g stroke="#ff0099" stroke-width="1" fill="#ff0099">
<circle cx=" 183" cy=" 441" r=" 1.5"/>
</g>
<path d="M187,442h 3" fill="none" stroke="#ff0099"/>
<path d="M192,442h 3" fill="none" stroke="#ff0099"/>
<g stroke="#ff0099" stroke-width="1" fill="#ff0099">
<circle cx=" 191" cy=" 442" r=" 1.5"/>
</g>
<path d="M195,442h 2" fill="none" stroke="#ff0099"/>
<path d="M200,442h 2" fill="none" stroke="#ff0099"/>
<g stroke="#ff0099" stroke-width="1" fill="#ff0099">
<circle cx=" 198" cy=" 442" r=" 1.5"/>
</g>
<path d="M202,440h 3" fill="none" stroke="#ff0099"/>
<path d="M207,440h 3" fill="none" stroke="#ff0099"/>
<g stroke="#ff0099" stroke-width="1" fill="#ff0099">
<circle cx=" 206" cy=" 440" r=" 1.5"/>
</g>
<path d="M210,442h 2" fill="none" stroke="#ff0099"/>
<path d="M215,442h 2" fill="none" stroke="#ff0099"/>
<g stroke="#ff0099" stroke-width="1" fill="#ff0099">
<circle cx=" 214" cy=" 442" r=" 1.5"/>
</g>
<path d="M217,444h 3" fill="none" stroke="#ff0099"/>
<path d="M222,444h 3" fill="none" stroke="#ff0099"/>
<g stroke="#ff0099" stroke-width="1" fill="#ff0099">
<circle cx=" 221" cy=" 444" r=" 1.5"/>
</g>
<path d="M225,443h 3" fill="none" stroke="#ff0099"/>
<path d="M230,443h 2" fill="none" stroke="#ff0099"/>
<g stroke="#ff0099" stroke-width="1" fill="#ff0099">
<circle cx=" 229" cy=" 443" r=" 1.5"/>
</g>
<path d="M232,443h 3" fill="none" stroke="#ff0099"/>
<path d="M237,443h 3" fill="none" stroke="#ff0099"/>
<g stroke="#ff0099" stroke-width="1" fill="#ff0099">
<circle cx=" 236" cy=" 443" r=" 1.5"/>
</g>
<path d="M240,444h 3" fill="none" stroke="#ff0099"/>
<path d="M245,444h 3" fill="none" stroke="#ff0099"/>
<g stroke="#ff0099" stroke-width="1" fill="#ff0099">
<circle cx=" 244" cy=" 444" r=" 1.5"/>
</g>
<path d="M248,443h 2" fill="none" stroke="#ff0099"/>
<path d="M252,443h 3" fill="none" stroke="#ff0099"/>
<g stroke="#ff0099" stroke-width="1" fill="#ff0099">
<circle cx=" 251" cy=" 443" r=" 1.5"/>
</g>
<path d="M255,444h 3" fill="none" stroke="#ff0099"/>
<path d="M260,444h 3" fill="none" stroke="#ff0099"/>
<g stroke="#ff0099" stroke-width="1" fill="#ff0099">
<circle cx=" 259" cy=" 444" r=" 1.5"/>
</g>
<path d="M263,444h 2" fill="none" stroke="#ff0099"/>
<path d="M268,444h 2" fill="none" stroke="#ff0099"/>
<g stroke="#ff0099" stroke-width="1" fill="#ff0099">
<circle cx=" 266" cy=" 444" r=" 1.5"/>
</g>
<path d="M270,444h 3" fill="none" stroke="#ff0099"/>
<path d="M275,444h 3" fill="none" stroke="#ff0099"/>
<g stroke="#ff0099" stroke-width="1" fill="#ff0099">
<circle cx=" 274" cy=" 444" r=" 1.5"/>
</g>
<path d="M278,445h 2" fill="none" stroke="#ff0099"/>
<path d="M283,445h 2" fill="none" stroke="#ff0099"/>
<g stroke="#ff0099" stroke-width="1" fill="#ff0099">
<circle cx=" 282" cy=" 445" r=" 1.5"/>
</g>
<path d="M285,445h 3" fill="none" stroke="#ff0099"/>
<path d="M290,445h 3" fill="none" stroke="#ff0099"/>
<g stroke="#ff0099" stroke-width="1" fill="#ff0099">
<circle cx=" 289" cy=" 445" r=" 1.5"/>
</g>
<path d="M293,445h 3" fill="none" stroke="#ff0099"/>
<path d="M298,445h 2" fill="none" stroke="#ff0099"/>
<g stroke="#ff0099" stroke-width="1" fill="#ff0099">
<circle cx=" 297" cy=" 445" r=" 1.5"/>
</g>
<path d="M300,445h 3" fill="none" stroke="#ff0099"/>
<path d="M305,445h 3" fill="none" stroke="#ff0099"/>
<g stroke="#ff0099" stroke-width="1" fill="#ff0099">
<circle cx=" 304" cy=" 445" r=" 1.5"/>
</g>
<path d="M308,445h 3" fill="none" stroke="#ff0099"/>
<path d="M313,445h 3" fill="none" stroke="#ff0099"/>
<g stroke="#ff0099" stroke-width="1" fill="#ff0099">
<circle cx=" 312" cy=" 445" r=" 1.5"/>
</g>
<path d="M316,445h 2" fill="none" stroke="#ff0099"/>
<path d="M321,445h 2" fill="none" stroke="#ff0099"/>
<g stroke="#ff0099" stroke-width="1" fill="#ff0099">
<circle cx=" 319" cy=" 445" r=" 1.5"/>
</g>
<path d="M323,445h 3" fill="none" stroke="#ff0099"/>
<path d="M328,445h 3" fill="none" stroke="#ff0099"/>
<g stroke="#ff0099" stroke-width="1" fill="#ff0099">
<circle cx=" 327" cy=" 445" r=" 1.5"/>
</g>
<path d="M331,446h 2" fill="none" stroke="#ff0099"/>
<path d="M336,446h 2" fill="none" stroke="#ff0099"/>
<g stroke="#ff0099" stroke-width="1" fill="#ff0099">
<circle cx=" 334" cy=" 446" r=" 1.5"/>
</g>
<path d="M338,445h 3" fill="none" stroke="#ff0099"/>
<path d="M343,445h 3" fill="none" stroke="#ff0099"/>
<g stroke="#ff0099" stroke-width="1" fill="#ff0099">
<circle cx=" 342" cy=" 445" r=" 1.5"/>
</g>
<path d="M346,446h 2" fill="none" stroke="#ff0099"/>
<path d="M351,446h 2" fill="none" stroke="#ff0099"/>
<g stroke="#ff0099" stroke-width="1" fill="#ff0099">
<circle cx=" 350" cy=" 446" r=" 1.5"/>
</g>
<path d="M353,446h 3" fill="none" stroke="#ff0099"/>
<path d="M358,446h 3" fill="none" stroke="#ff0099"/>
<g stroke="#ff0099" stroke-width="1" fill="#ff0099">
<circle cx=" 357" cy=" 446" r=" 1.5"/>
</g>
<path d="M361,445h 3" fill="none" stroke="#ff0099"/>
<path d="M366,445h 3" fill="none" stroke="#ff0099"/>
<g stroke="#ff0099" stroke-width="1" fill="#ff0099">
<circle cx=" 365" cy=" 445" r=" 1.5"/>
</g>
<path d="M369,446h 2" fill="none" stroke="#ff0099"/>
<path d="M373,446h 3" fill="none" stroke="#ff0099"/>
<g stroke="#ff0099" stroke-width="1" fill="#ff0099">
<circle cx=" 372" cy=" 446" r=" 1.5"/>
</g>
<path d="M376,446h 3" fill="none" stroke="#ff0099"/>
<path d="M381,446h 3" fill="none" stroke="#ff0099"/>
<g stroke="#ff0099" stroke-width="1" fill="#ff0099">
<circle cx=" 380" cy=" 446" r=" 1.5"/>
</g>
<path d="M384,445h 2" fill="none" stroke="#ff0099"/>
<path d="M389,445h 2" fill="none" stroke="#ff0099"/>
<g stroke="#ff0099" stroke-width="1" fill="#ff0099">
<circle cx=" 387" cy=" 445" r=" 1.5"/>
</g>
<path d="M391,446h 3" fill="none" stroke="#ff0099"/>
<path d="M396,446h 3" fill="none" stroke="#ff0099"/>
<g stroke="#ff0099" stroke-width="1" fill="#ff0099">
<circle cx=" 395" cy=" 446" r=" 1.5"/>
</g>
<path d="M403,446v -1" fill="none" stroke="#ff0099"/>
<path d="M403,443v -1" fill="none" stroke="#ff0099"/>
<path d="M399,444h 2" fill="none" stroke="#ff0099"/>
<path d="M404,444h 2" fill="none" stroke="#ff0099"/>
<g stroke="#ff0099" stroke-width="1" fill="#ff0099">
<circle cx=" 403" cy=" 444" r=" 1.5"/>
</g>
<path d="M406,446h 3" fill="none" stroke="#ff0099"/>
<path d="M411,446h 3" fill="none" stroke="#ff0099"/>
<g stroke="#ff0099" stroke-width="1" fill="#ff0099">
<circle cx=" 410" cy=" 446" r=" 1.5"/>
</g>
<path d="M414,446h 2" fill="none" stroke="#ff0099"/>
<path d="M419,446h 2" fill="none" stroke="#ff0099"/>
<g stroke="#ff0099" stroke-width="1" fill="#ff0099">
<circle cx=" 418" cy=" 446" r=" 1.5"/>
</g>
<path d="M421,446h 3" fill="none" stroke="#ff0099"/>
<path d="M426,446h 3" fill="none" stroke="#ff0099"/>
<g stroke="#ff0099" stroke-width="1" fill="#ff0099">
<circle cx=" 425" cy=" 446" r=" 1.5"/>
</g>
<path d="M429,446h 3" fill="none" stroke="#ff0099"/>
<path d="M434,446h 3" fill="none" stroke="#ff0099"/>
<g stroke="#ff0099" stroke-width="1" fill="#ff0099">
<circle cx=" 433" cy=" 446" r=" 1.5"/>
</g>
<path d="M437,446h 2" fill="none" stroke="#ff0099"/>
<path d="M441,446h 3" fill="none" stroke="#ff0099"/>
<g stroke="#ff0099" stroke-width="1" fill="#ff0099">
<circle cx=" 440" cy=" 446" r=" 1.5"/>
</g>
<path d="M444,446h 3" fill="none" stroke="#ff0099"/>
<path d="M449,446h 3" fill="none" stroke="#ff0099"/>
<g stroke="#ff0099" stroke-width="1" fill="#ff0099">
<circle cx=" 448" cy=" 446" r=" 1.5"/>
</g>
<path d="M452,446h 2" fill="none" stroke="#ff0099"/>
<path d="M457,446h 2" fill="none" stroke="#ff0099"/>
<g stroke="#ff0099" stroke-width="1" fill="#ff0099">
<circle cx=" 455" cy=" 446" r=" 1.5"/>
</g>
<path d="M459,446h 3" fill="none" stroke="#ff0099"/>
<path d="M464,446h 3" fill="none" stroke="#ff0099"/>
<g stroke="#ff0099" stroke-width="1" fill="#ff0099">
<circle cx=" 463" cy=" 446" r=" 1.5"/>
</g>
<path d="M467,446h 2" fill="none" stroke="#ff0099"/>
<path d="M472,446h 2" fill="none" stroke="#ff0099"/>
<g stroke="#ff0099" stroke-width="1" fill="#ff0099">
<circle cx=" 471" cy=" 446" r=" 1.5"/>
</g>
<path d="M474,446h 3" fill="none" stroke="#ff0099"/>
<path d="M479,446h 3" fill="none" stroke="#ff0099"/>
<g stroke="#ff0099" stroke-width="1" fill="#ff0099">
<circle cx=" 478" cy=" 446" r=" 1.5"/>
</g>
<path d="M482,446h 3" fill="none" stroke="#ff0099"/>
<path d="M487,446h 2" fill="none" stroke="#ff0099"/>
<g stroke="#ff0099" stroke-width="1" fill="#ff0099">
<circle cx=" 486" cy=" 446" r=" 1.5"/>
</g>
<path d="M489,446h 3" fill="none" stroke="#ff0099"/>
<path d="M494,446h 3" fill="none" stroke="#ff0099"/>
<g stroke="#ff0099" stroke-width="1" fill="#ff0099">
<circle cx=" 493" cy=" 446" r=" 1.5"/>
</g>
<path d="M497,446h 3" fill="none" stroke="#ff0099"/>
<path d="M502,446h 3" fill="none" stroke="#ff0099"/>
<g stroke="#ff0099" stroke-width="1" fill="#ff0099">
<circle cx=" 501" cy=" 446" r=" 1.5"/>
</g>
<path d="M505,446h 2" fill="none" stroke="#ff0099"/>
<path d="M509,446h 3" fill="none" stroke="#ff0099"/>
<g stroke="#ff0099" stroke-width="1" fill="#ff0099">
<circle cx=" 508" cy=" 446" r=" 1.5"/>
</g>
<path d="M512,446h 3" fill="none" stroke="#ff0099"/>
<path d="M517,446h 3" fill="none" stroke="#ff0099"/>
<g stroke="#ff0099" stroke-width="1" fill="#ff0099">
<circle cx=" 516" cy=" 446" r=" 1.5"/>
</g>
<path d="M520,446h 2" fill="none" stroke="#ff0099"/>
<path d="M525,446h 2" fill="none" stroke="#ff0099"/>
<g stroke="#ff0099" stroke-width="1" fill="#ff0099">
<circle cx=" 523" cy=" 446" r=" 1.5"/>
</g>
<path d="M74,446h 453" fill="none" stroke="black"/>
<path d="M74,434v 12" fill="none" stroke="black"/>
<path d="M89,440v 6" fill="none" stroke="black"/>
<path d="M104,440v 6" fill="none" stroke="black"/>
<path d="M119,440v 6" fill="none" stroke="black"/>
<path d="M134,440v 6" fill="none" stroke="black"/>
<path d="M149,434v 12" fill="none" stroke="black"/>
<path d="M164,440v 6" fill="none" stroke="black"/>
<path d="M180,440v 6" fill="none" stroke="black"/>
<path d="M195,440v 6" fill="none" stroke="black"/>
<path d="M210,440v 6" fill="none" stroke="black"/>
<path d="M225,434v 12" fill="none" stroke="black"/>
<path d="M240,440v 6" fill="none" stroke="black"/>
<path d="M255,440v 6" fill="none" stroke="black"/>
<path d="M270,440v 6" fill="none" stroke="black"/>
<path d="M285,440v 6" fill="none" stroke="black"/>
<path d="M300,434v 12" fill="none" stroke="black"/>
<path d="M316,440v 6" fill="none" stroke="black"/>
<path d="M331,440v 6" fill="none" stroke="black"/>
<path d="M346,440v 6" fill="none" stroke="black"/>
<path d="M361,440v 6" fill="none" stroke="black"/>
<path d="M376,434v 12" fill="none" stroke="black"/>
<path d="M391,440v 6" fill="none" stroke="black"/>
<path d="M406,440v 6" fill="none" stroke="black"/>
<path d="M421,440v 6" fill="none" stroke="black"/>
<path d="M437,440v 6" fill="none" stroke="black"/>
<path d="M452,434v 12" fill="none" stroke="black"/>
<path d="M467,440v 6" fill="none" stroke="black"/>
<path d="M482,440v 6" fill="none" stroke="black"/>
<path d="M497,440v 6" fill="none" stroke="black"/>
<path d="M512,440v 6" fill="none" stroke="black"/>
<path d="M527,434v 12" fill="none" stroke="black"/>
<text x="68" y="465" fill="black" font-size="18" font-family="Helvetica" font-weight="bold">
0
</text>
<text x="145" y="465" fill="black" font-size="18" font-family="Helvetica" font-weight="bold">
1
</text>
<text x="220" y="465" fill="black" font-size="18" font-family="Helvetica" font-weight="bold">
2
</text>
<text x="295" y="465" fill="black" font-size="18" font-family="Helvetica" font-weight="bold">
3
</text>
<text x="371" y="465" fill="black" font-size="18" font-family="Helvetica" font-weight="bold">
4
</text>
<text x="446" y="465" fill="black" font-size="18" font-family="Helvetica" font-weight="bold">
5
</text>
<text x="522" y="465" fill="black" font-size="18" font-family="Helvetica" font-weight="bold">
6
</text>
<path d="M74,44h 453" fill="none" stroke="black"/>
<path d="M74,56v -12" fill="none" stroke="black"/>
<path d="M89,50v -6" fill="none" stroke="black"/>
<path d="M104,50v -6" fill="none" stroke="black"/>
<path d="M119,50v -6" fill="none" stroke="black"/>
<path d="M134,50v -6" fill="none" stroke="black"/>
<path d="M149,56v -12" fill="none" stroke="black"/>
<path d="M164,50v -6" fill="none" stroke="black"/>
<path d="M180,50v -6" fill="none" stroke="black"/>
<path d="M195,50v -6" fill="none" stroke="black"/>
<path d="M210,50v -6" fill="none" stroke="black"/>
<path d="M225,56v -12" fill="none" stroke="black"/>
<path d="M240,50v -6" fill="none" stroke="black"/>
<path d="M255,50v -6" fill="none" stroke="black"/>
<path d="M270,50v -6" fill="none" stroke="black"/>
<path d="M285,50v -6" fill="none" stroke="black"/>
<path d="M300,56v -12" fill="none" stroke="black"/>
<path d="M316,50v -6" fill="none" stroke="black"/>
<path d="M331,50v -6" fill="none" stroke="black"/>
<path d="M346,50v -6" fill="none" stroke="black"/>
<path d="M361,50v -6" fill="none" stroke="black"/>
<path d="M376,56v -12" fill="none" stroke="black"/>
<path d="M391,50v -6" fill="none" stroke="black"/>
<path d="M406,50v -6" fill="none" stroke="black"/>
<path d="M421,50v -6" fill="none" stroke="black"/>
<path d="M437,50v -6" fill="none" stroke="black"/>
<path d="M452,56v -12" fill="none" stroke="black"/>
<path d="M467,50v -6" fill="none" stroke="black"/>
<path d="M482,50v -6" fill="none" stroke="black"/>
<path d="M497,50v -6" fill="none" stroke="black"/>
<path d="M512,50v -6" fill="none" stroke="black"/>
<path d="M527,56v -12" fill="none" stroke="black"/>
<path d="M74,446v -402" fill="none" stroke="black"/>
<path d="M87,446h -13" fill="none" stroke="black"/>
<path d="M81,435h -7" fill="none" stroke="black"/>
<path d="M81,424h -7" fill="none" stroke="black"/>
<path d="M81,414h -7" fill="none" stroke="black"/>
<path d="M81,403h -7" fill="none" stroke="black"/>
<path d="M87,392h -13" fill="none" stroke="black"/>
<path d="M81,381h -7" fill="none" stroke="black"/>
<path d="M81,370h -7" fill="none" stroke="black"/>
<path d="M81,359h -7" fill="none" stroke="black"/>
<path d="M81,348h -7" fill="none" stroke="black"/>
<path d="M87,337h -13" fill="none" stroke="black"/>
<path d="M81,326h -7" fill="none" stroke="black"/>
<path d="M81,315h -7" fill="none" stroke="black"/>
<path d="M81,304h -7" fill="none" stroke="black"/>
<path d="M81,293h -7" fill="none" stroke="black"/>
<path d="M87,282h -13" fill="none" stroke="black"/>
<path d="M81,271h -7" fill="none" stroke="black"/>
<path d="M81,260h -7" fill="none" stroke="black"/>
<path d="M81,249h -7" fill="none" stroke="black"/>
<path d="M81,238h -7" fill="none" stroke="black"/>
<path d="M87,227h -13" fill="none" stroke="black"/>
<path d="M81,216h -7" fill="none" stroke="black"/>
<path d="M81,205h -7" fill="none" stroke="black"/>
<path d="M81,194h -7" fill="none" stroke="black"/>
<path d="M81,183h -7" fill="none" stroke="black"/>
<path d="M87,173h -13" fill="none" stroke="black"/>
<path d="M81,162h -7" fill="none" stroke="black"/>
<path d="M81,151h -7" fill="none" stroke="black"/>
<path d="M81,140h -7" fill="none" stroke="black"/>
<path d="M81,129h -7" fill="none" stroke="black"/>
<path d="M87,118h -13" fill="none" stroke="black"/>
<path d="M81,107h -7" fill="none" stroke="black"/>
<path d="M81,96h -7" fill="none" stroke="black"/>
<path d="M81,85h -7" fill="none" stroke="black"/>
<path d="M81,74h -7" fill="none" stroke="black"/>
<path d="M87,63h -13" fill="none" stroke="black"/>
<path d="M87,63h -13" fill="none" stroke="black"/>
<path d="M81,52h -7" fill="none" stroke="black"/>
<text x="61" y="453" fill="black" font-size="18" font-family="Helvetica" font-weight="bold">
0
</text>
<text x="47" y="398" fill="black" font-size="18" font-family="Helvetica" font-weight="bold">
0.1
</text>
<text x="45" y="343" fill="black" font-size="18" font-family="Helvetica" font-weight="bold">
0.2
</text>
<text x="45" y="289" fill="black" font-size="18" font-family="Helvetica" font-weight="bold">
0.3
</text>
<text x="44" y="234" fill="black" font-size="18" font-family="Helvetica" font-weight="bold">
0.4
</text>
<text x="45" y="179" fill="black" font-size="18" font-family="Helvetica" font-weight="bold">
0.5
</text>
<text x="45" y="124" fill="black" font-size="18" font-family="Helvetica" font-weight="bold">
0.6
</text>
<text x="45" y="70" fill="black" font-size="18" font-family="Helvetica" font-weight="bold">
0.7
</text>
<path d="M77,152v -2" fill="none" stroke="#99ff99" stroke-width="2"/>
<path d="M77,150v -2" fill="none" stroke="#99ff99" stroke-width="2"/>
<g stroke="black" stroke-width="2" fill="none">
<line x1="76" y1="150" x2="77" y2="150"/>
</g>
<path d="M85,446" fill="none" stroke="#99ff99" stroke-width="2"/>
<path d="M85,446" fill="none" stroke="#99ff99" stroke-width="2"/>
<g stroke="black" stroke-width="2" fill="none">
<line x1="84" y1="446" x2="85" y2="446"/>
</g>
<path d="M93,445" fill="none" stroke="#99ff99" stroke-width="2"/>
<path d="M93,445" fill="none" stroke="#99ff99" stroke-width="2"/>
<g stroke="black" stroke-width="2" fill="none">
<line x1="92" y1="445" x2="93" y2="445"/>
</g>
<path d="M100,443" fill="none" stroke="#99ff99" stroke-width="2"/>
<path d="M100,443v -1" fill="none" stroke="#99ff99" stroke-width="2"/>
<g stroke="black" stroke-width="2" fill="none">
<line x1="99" y1="443" x2="100" y2="443"/>
</g>
<path d="M108,441v -1" fill="none" stroke="#99ff99" stroke-width="2"/>
<path d="M108,440" fill="none" stroke="#99ff99" stroke-width="2"/>
<g stroke="black" stroke-width="2" fill="none">
<line x1="107" y1="440" x2="108" y2="440"/>
</g>
<path d="M115,437" fill="none" stroke="#99ff99" stroke-width="2"/>
<path d="M115,437" fill="none" stroke="#99ff99" stroke-width="2"/>
<g stroke="black" stroke-width="2" fill="none">
<line x1="114" y1="437" x2="115" y2="437"/>
</g>
<path d="M123,435" fill="none" stroke="#99ff99" stroke-width="2"/>
<path d="M123,435" fill="none" stroke="#99ff99" stroke-width="2"/>
<g stroke="black" stroke-width="2" fill="none">
<line x1="122" y1="435" x2="123" y2="435"/>
</g>
<path d="M130,427" fill="none" stroke="#99ff99" stroke-width="2"/>
<path d="M130,427v -1" fill="none" stroke="#99ff99" stroke-width="2"/>
<g stroke="black" stroke-width="2" fill="none">
<line x1="129" y1="427" x2="130" y2="427"/>
</g>
<path d="M138,428" fill="none" stroke="#99ff99" stroke-width="2"/>
<path d="M138,428" fill="none" stroke="#99ff99" stroke-width="2"/>
<g stroke="black" stroke-width="2" fill="none">
<line x1="137" y1="428" x2="138" y2="428"/>
</g>
<path d="M146,428" fill="none" stroke="#99ff99" stroke-width="2"/>
<path d="M146,428" fill="none" stroke="#99ff99" stroke-width="2"/>
<g stroke="black" stroke-width="2" fill="none">
<line x1="145" y1="428" x2="146" y2="428"/>
</g>
<path d="M153,434" fill="none" stroke="#99ff99" stroke-width="2"/>
<path d="M153,434" fill="none" stroke="#99ff99" stroke-width="2"/>
<g stroke="black" stroke-width="2" fill="none">
<line x1="152" y1="434" x2="153" y2="434"/>
</g>
<path d="M161,438" fill="none" stroke="#99ff99" stroke-width="2"/>
<path d="M161,438v -1" fill="none" stroke="#99ff99" stroke-width="2"/>
<g stroke="black" stroke-width="2" fill="none">
<line x1="160" y1="438" x2="161" y2="438"/>
</g>
<path d="M168,439v -1" fill="none" stroke="#99ff99" stroke-width="2"/>
<path d="M168,438" fill="none" stroke="#99ff99" stroke-width="2"/>
<g stroke="black" stroke-width="2" fill="none">
<line x1="167" y1="438" x2="168" y2="438"/>
</g>
<path d="M176,439" fill="none" stroke="#99ff99" stroke-width="2"/>
<path d="M176,439v -1" fill="none" stroke="#99ff99" stroke-width="2"/>
<g stroke="black" stroke-width="2" fill="none">
<line x1="175" y1="439" x2="176" y2="439"/>
</g>
<path d="M183,439" fill="none" stroke="#99ff99" stroke-width="2"/>
<path d="M183,439" fill="none" stroke="#99ff99" stroke-width="2"/>
<g stroke="black" stroke-width="2" fill="none">
<line x1="182" y1="439" x2="183" y2="439"/>
</g>
<path d="M191,439" fill="none" stroke="#99ff99" stroke-width="2"/>
<path d="M191,439v -1" fill="none" stroke="#99ff99" stroke-width="2"/>
<g stroke="black" stroke-width="2" fill="none">
<line x1="190" y1="439" x2="191" y2="439"/>
</g>
<path d="M198,439" fill="none" stroke="#99ff99" stroke-width="2"/>
<path d="M198,439" fill="none" stroke="#99ff99" stroke-width="2"/>
<g stroke="black" stroke-width="2" fill="none">
<line x1="197" y1="439" x2="198" y2="439"/>
</g>
<path d="M206,440" fill="none" stroke="#99ff99" stroke-width="2"/>
<path d="M206,440v -1" fill="none" stroke="#99ff99" stroke-width="2"/>
<g stroke="black" stroke-width="2" fill="none">
<line x1="205" y1="440" x2="206" y2="440"/>
</g>
<path d="M214,440v -1" fill="none" stroke="#99ff99" stroke-width="2"/>
<path d="M214,439" fill="none" stroke="#99ff99" stroke-width="2"/>
<g stroke="black" stroke-width="2" fill="none">
<line x1="213" y1="439" x2="214" y2="439"/>
</g>
<path d="M221,440" fill="none" stroke="#99ff99" stroke-width="2"/>
<path d="M221,440v -1" fill="none" stroke="#99ff99" stroke-width="2"/>
<g stroke="black" stroke-width="2" fill="none">
<line x1="220" y1="440" x2="221" y2="440"/>
</g>
<path d="M229,441" fill="none" stroke="#99ff99" stroke-width="2"/>
<path d="M229,441v -1" fill="none" stroke="#99ff99" stroke-width="2"/>
<g stroke="black" stroke-width="2" fill="none">
<line x1="228" y1="441" x2="229" y2="441"/>
</g>
<path d="M236,441" fill="none" stroke="#99ff99" stroke-width="2"/>
<path d="M236,441v -1" fill="none" stroke="#99ff99" stroke-width="2"/>
<g stroke="black" stroke-width="2" fill="none">
<line x1="235" y1="441" x2="236" y2="441"/>
</g>
<path d="M244,442" fill="none" stroke="#99ff99" stroke-width="2"/>
<path d="M244,442v -1" fill="none" stroke="#99ff99" stroke-width="2"/>
<g stroke="black" stroke-width="2" fill="none">
<line x1="243" y1="442" x2="244" y2="442"/>
</g>
<path d="M251,442" fill="none" stroke="#99ff99" stroke-width="2"/>
<path d="M251,442v -1" fill="none" stroke="#99ff99" stroke-width="2"/>
<g stroke="black" stroke-width="2" fill="none">
<line x1="250" y1="442" x2="251" y2="442"/>
</g>
<path d="M259,442" fill="none" stroke="#99ff99" stroke-width="2"/>
<path d="M259,442" fill="none" stroke="#99ff99" stroke-width="2"/>
<g stroke="black" stroke-width="2" fill="none">
<line x1="258" y1="442" x2="259" y2="442"/>
</g>
<path d="M266,443" fill="none" stroke="#99ff99" stroke-width="2"/>
<path d="M266,443v -1" fill="none" stroke="#99ff99" stroke-width="2"/>
<g stroke="black" stroke-width="2" fill="none">
<line x1="265" y1="443" x2="266" y2="443"/>
</g>
<path d="M274,443" fill="none" stroke="#99ff99" stroke-width="2"/>
<path d="M274,443" fill="none" stroke="#99ff99" stroke-width="2"/>
<g stroke="black" stroke-width="2" fill="none">
<line x1="273" y1="443" x2="274" y2="443"/>
</g>
<path d="M282,443" fill="none" stroke="#99ff99" stroke-width="2"/>
<path d="M282,443" fill="none" stroke="#99ff99" stroke-width="2"/>
<g stroke="black" stroke-width="2" fill="none">
<line x1="281" y1="443" x2="282" y2="443"/>
</g>
<path d="M289,443" fill="none" stroke="#99ff99" stroke-width="2"/>
<path d="M289,443" fill="none" stroke="#99ff99" stroke-width="2"/>
<g stroke="black" stroke-width="2" fill="none">
<line x1="288" y1="443" x2="289" y2="443"/>
</g>
<path d="M297,443" fill="none" stroke="#99ff99" stroke-width="2"/>
<path d="M297,443" fill="none" stroke="#99ff99" stroke-width="2"/>
<g stroke="black" stroke-width="2" fill="none">
<line x1="296" y1="443" x2="297" y2="443"/>
</g>
<path d="M304,443" fill="none" stroke="#99ff99" stroke-width="2"/>
<path d="M304,443" fill="none" stroke="#99ff99" stroke-width="2"/>
<g stroke="black" stroke-width="2" fill="none">
<line x1="303" y1="443" x2="304" y2="443"/>
</g>
<path d="M312,444" fill="none" stroke="#99ff99" stroke-width="2"/>
<path d="M312,444" fill="none" stroke="#99ff99" stroke-width="2"/>
<g stroke="black" stroke-width="2" fill="none">
<line x1="311" y1="444" x2="312" y2="444"/>
</g>
<path d="M319,444" fill="none" stroke="#99ff99" stroke-width="2"/>
<path d="M319,444" fill="none" stroke="#99ff99" stroke-width="2"/>
<g stroke="black" stroke-width="2" fill="none">
<line x1="318" y1="444" x2="319" y2="444"/>
</g>
<path d="M327,444" fill="none" stroke="#99ff99" stroke-width="2"/>
<path d="M327,444" fill="none" stroke="#99ff99" stroke-width="2"/>
<g stroke="black" stroke-width="2" fill="none">
<line x1="326" y1="444" x2="327" y2="444"/>
</g>
<path d="M334,444" fill="none" stroke="#99ff99" stroke-width="2"/>
<path d="M334,444" fill="none" stroke="#99ff99" stroke-width="2"/>
<g stroke="black" stroke-width="2" fill="none">
<line x1="333" y1="444" x2="334" y2="444"/>
</g>
<path d="M342,444" fill="none" stroke="#99ff99" stroke-width="2"/>
<path d="M342,444" fill="none" stroke="#99ff99" stroke-width="2"/>
<g stroke="black" stroke-width="2" fill="none">
<line x1="341" y1="444" x2="342" y2="444"/>
</g>
<path d="M350,444" fill="none" stroke="#99ff99" stroke-width="2"/>
<path d="M350,444" fill="none" stroke="#99ff99" stroke-width="2"/>
<g stroke="black" stroke-width="2" fill="none">
<line x1="349" y1="444" x2="350" y2="444"/>
</g>
<path d="M357,445" fill="none" stroke="#99ff99" stroke-width="2"/>
<path d="M357,445" fill="none" stroke="#99ff99" stroke-width="2"/>
<g stroke="black" stroke-width="2" fill="none">
<line x1="356" y1="445" x2="357" y2="445"/>
</g>
<path d="M365,445" fill="none" stroke="#99ff99" stroke-width="2"/>
<path d="M365,445" fill="none" stroke="#99ff99" stroke-width="2"/>
<g stroke="black" stroke-width="2" fill="none">
<line x1="364" y1="445" x2="365" y2="445"/>
</g>
<path d="M372,445" fill="none" stroke="#99ff99" stroke-width="2"/>
<path d="M372,445" fill="none" stroke="#99ff99" stroke-width="2"/>
<g stroke="black" stroke-width="2" fill="none">
<line x1="371" y1="445" x2="372" y2="445"/>
</g>
<path d="M380,445" fill="none" stroke="#99ff99" stroke-width="2"/>
<path d="M380,445" fill="none" stroke="#99ff99" stroke-width="2"/>
<g stroke="black" stroke-width="2" fill="none">
<line x1="379" y1="445" x2="380" y2="445"/>
</g>
<path d="M387,445" fill="none" stroke="#99ff99" stroke-width="2"/>
<path d="M387,445" fill="none" stroke="#99ff99" stroke-width="2"/>
<g stroke="black" stroke-width="2" fill="none">
<line x1="386" y1="445" x2="387" y2="445"/>
</g>
<path d="M395,445" fill="none" stroke="#99ff99" stroke-width="2"/>
<path d="M395,445" fill="none" stroke="#99ff99" stroke-width="2"/>
<g stroke="black" stroke-width="2" fill="none">
<line x1="394" y1="445" x2="395" y2="445"/>
</g>
<path d="M403,445" fill="none" stroke="#99ff99" stroke-width="2"/>
<path d="M403,445" fill="none" stroke="#99ff99" stroke-width="2"/>
<g stroke="black" stroke-width="2" fill="none">
<line x1="402" y1="445" x2="403" y2="445"/>
</g>
<path d="M410,445" fill="none" stroke="#99ff99" stroke-width="2"/>
<path d="M410,445" fill="none" stroke="#99ff99" stroke-width="2"/>
<g stroke="black" stroke-width="2" fill="none">
<line x1="409" y1="445" x2="410" y2="445"/>
</g>
<path d="M418,445" fill="none" stroke="#99ff99" stroke-width="2"/>
<path d="M418,445" fill="none" stroke="#99ff99" stroke-width="2"/>
<g stroke="black" stroke-width="2" fill="none">
<line x1="417" y1="445" x2="418" y2="445"/>
</g>
<path d="M425,445" fill="none" stroke="#99ff99" stroke-width="2"/>
<path d="M425,445" fill="none" stroke="#99ff99" stroke-width="2"/>
<g stroke="black" stroke-width="2" fill="none">
<line x1="424" y1="445" x2="425" y2="445"/>
</g>
<path d="M433,445" fill="none" stroke="#99ff99" stroke-width="2"/>
<path d="M433,445" fill="none" stroke="#99ff99" stroke-width="2"/>
<g stroke="black" stroke-width="2" fill="none">
<line x1="432" y1="445" x2="433" y2="445"/>
</g>
<path d="M440,445" fill="none" stroke="#99ff99" stroke-width="2"/>
<path d="M440,445" fill="none" stroke="#99ff99" stroke-width="2"/>
<g stroke="black" stroke-width="2" fill="none">
<line x1="439" y1="445" x2="440" y2="445"/>
</g>
<path d="M448,446v -1" fill="none" stroke="#99ff99" stroke-width="2"/>
<path d="M448,445" fill="none" stroke="#99ff99" stroke-width="2"/>
<g stroke="black" stroke-width="2" fill="none">
<line x1="447" y1="445" x2="448" y2="445"/>
</g>
<path d="M455,446v -1" fill="none" stroke="#99ff99" stroke-width="2"/>
<path d="M455,445" fill="none" stroke="#99ff99" stroke-width="2"/>
<g stroke="black" stroke-width="2" fill="none">
<line x1="454" y1="445" x2="455" y2="445"/>
</g>
<path d="M463,446" fill="none" stroke="#99ff99" stroke-width="2"/>
<path d="M463,446" fill="none" stroke="#99ff99" stroke-width="2"/>
<g stroke="black" stroke-width="2" fill="none">
<line x1="462" y1="446" x2="463" y2="446"/>
</g>
<path d="M471,446" fill="none" stroke="#99ff99" stroke-width="2"/>
<path d="M471,446" fill="none" stroke="#99ff99" stroke-width="2"/>
<g stroke="black" stroke-width="2" fill="none">
<line x1="470" y1="446" x2="471" y2="446"/>
</g>
<path d="M478,446" fill="none" stroke="#99ff99" stroke-width="2"/>
<path d="M478,446" fill="none" stroke="#99ff99" stroke-width="2"/>
<g stroke="black" stroke-width="2" fill="none">
<line x1="477" y1="446" x2="478" y2="446"/>
</g>
<path d="M486,446" fill="none" stroke="#99ff99" stroke-width="2"/>
<path d="M486,446" fill="none" stroke="#99ff99" stroke-width="2"/>
<g stroke="black" stroke-width="2" fill="none">
<line x1="485" y1="446" x2="486" y2="446"/>
</g>
<path d="M493,446" fill="none" stroke="#99ff99" stroke-width="2"/>
<path d="M493,446" fill="none" stroke="#99ff99" stroke-width="2"/>
<g stroke="black" stroke-width="2" fill="none">
<line x1="492" y1="446" x2="493" y2="446"/>
</g>
<path d="M501,446" fill="none" stroke="#99ff99" stroke-width="2"/>
<path d="M501,446" fill="none" stroke="#99ff99" stroke-width="2"/>
<g stroke="black" stroke-width="2" fill="none">
<line x1="500" y1="446" x2="501" y2="446"/>
</g>
<path d="M508,446" fill="none" stroke="#99ff99" stroke-width="2"/>
<path d="M508,446" fill="none" stroke="#99ff99" stroke-width="2"/>
<g stroke="black" stroke-width="2" fill="none">
<line x1="507" y1="446" x2="508" y2="446"/>
</g>
<path d="M516,446" fill="none" stroke="#99ff99" stroke-width="2"/>
<path d="M516,446" fill="none" stroke="#99ff99" stroke-width="2"/>
<g stroke="black" stroke-width="2" fill="none">
<line x1="515" y1="446" x2="516" y2="446"/>
</g>
<path d="M523,446" fill="none" stroke="#99ff99" stroke-width="2"/>
<path d="M523,446" fill="none" stroke="#99ff99" stroke-width="2"/>
<g stroke="black" stroke-width="2" fill="none">
<line x1="522" y1="446" x2="523" y2="446"/>
</g>
<path d="M74,446v -296h 7v 296h 8v -1h 7v -2h 8v -3h 7v -3h 8v -2h 8v -8h 7v 1h 15v 6h 8v 4h 15v 1h 30v 1h 8v -1h 7v 1h 8v 1h 15v 1h 23v 1h 45v 1h 45v 1h 106v 1h 68z" fill="#99ff99"/>
<path d="M74,150h 7v 296h 8v -1h 7v -2h 8v -3h 7v -3h 8v -2h 8v -8h 7v 1h 15v 6h 8v 4h 15v 1h 30v 1h 8v -1h 7v 1h 8v 1h 15v 1h 23v 1h 45v 1h 45v 1h 106v 1h 68" fill="none" stroke="#99ff99" stroke-width="2"/>
<path d="M77,77v -6" fill="none" stroke="#ff0099"/>
<path d="M77,69v -6" fill="none" stroke="#ff0099"/>
<path d="M74,70h 2" fill="none" stroke="#ff0099"/>
<path d="M79,70h 2" fill="none" stroke="#ff0099"/>
<g stroke="#ff0099" stroke-width="1" fill="#ff0099">
<circle cx=" 77" cy=" 70" r=" 1.5"/>
</g>
<path d="M81,446h 3" fill="none" stroke="#ff0099"/>
<path d="M86,446h 3" fill="none" stroke="#ff0099"/>
<g stroke="#ff0099" stroke-width="1" fill="#ff0099">
<circle cx=" 85" cy=" 446" r=" 1.5"/>
</g>
<path d="M89,445h 2" fill="none" stroke="#ff0099"/>
<path d="M94,445h 2" fill="none" stroke="#ff0099"/>
<g stroke="#ff0099" stroke-width="1" fill="#ff0099">
<circle cx=" 93" cy=" 445" r=" 1.5"/>
</g>
<path d="M96,442h 3" fill="none" stroke="#ff0099"/>
<path d="M101,442h 3" fill="none" stroke="#ff0099"/>
<g stroke="#ff0099" stroke-width="1" fill="#ff0099">
<circle cx=" 100" cy=" 442" r=" 1.5"/>
</g>
<path d="M104,440h 3" fill="none" stroke="#ff0099"/>
<path d="M109,440h 2" fill="none" stroke="#ff0099"/>
<g stroke="#ff0099" stroke-width="1" fill="#ff0099">
<circle cx=" 108" cy=" 440" r=" 1.5"/>
</g>
<path d="M115,435v -1" fill="none" stroke="#ff0099"/>
<path d="M115,432" fill="none" stroke="#ff0099"/>
<path d="M111,433h 3" fill="none" stroke="#ff0099"/>
<path d="M116,433h 3" fill="none" stroke="#ff0099"/>
<g stroke="#ff0099" stroke-width="1" fill="#ff0099">
<circle cx=" 115" cy=" 433" r=" 1.5"/>
</g>
<path d="M123,435" fill="none" stroke="#ff0099"/>
<path d="M123,432" fill="none" stroke="#ff0099"/>
<path d="M119,433h 3" fill="none" stroke="#ff0099"/>
<path d="M124,433h 3" fill="none" stroke="#ff0099"/>
<g stroke="#ff0099" stroke-width="1" fill="#ff0099">
<circle cx=" 123" cy=" 433" r=" 1.5"/>
</g>
<path d="M127,432h 2" fill="none" stroke="#ff0099"/>
<path d="M132,432h 2" fill="none" stroke="#ff0099"/>
<g stroke="#ff0099" stroke-width="1" fill="#ff0099">
<circle cx=" 130" cy=" 432" r=" 1.5"/>
</g>
<path d="M138,434" fill="none" stroke="#ff0099"/>
<path d="M138,431" fill="none" stroke="#ff0099"/>
<path d="M134,433h 3" fill="none" stroke="#ff0099"/>
<path d="M139,433h 3" fill="none" stroke="#ff0099"/>
<g stroke="#ff0099" stroke-width="1" fill="#ff0099">
<circle cx=" 138" cy=" 433" r=" 1.5"/>
</g>
<path d="M142,434h 2" fill="none" stroke="#ff0099"/>
<path d="M147,434h 2" fill="none" stroke="#ff0099"/>
<g stroke="#ff0099" stroke-width="1" fill="#ff0099">
<circle cx=" 146" cy=" 434" r=" 1.5"/>
</g>
<path d="M149,436h 3" fill="none" stroke="#ff0099"/>
<path d="M154,436h 3" fill="none" stroke="#ff0099"/>
<g stroke="#ff0099" stroke-width="1" fill="#ff0099">
<circle cx=" 153" cy=" 436" r=" 1.5"/>
</g>
<path d="M157,440h 2" fill="none" stroke="#ff0099"/>
<path d="M162,440h 2" fill="none" stroke="#ff0099"/>
<g stroke="#ff0099" stroke-width="1" fill="#ff0099">
<circle cx=" 161" cy=" 440" r=" 1.5"/>
</g>
<path d="M164,442h 3" fill="none" stroke="#ff0099"/>
<path d="M169,442h 3" fill="none" stroke="#ff0099"/>
<g stroke="#ff0099" stroke-width="1" fill="#ff0099">
<circle cx=" 168" cy=" 442" r=" 1.5"/>
</g>
<path d="M172,442h 3" fill="none" stroke="#ff0099"/>
<path d="M177,442h 3" fill="none" stroke="#ff0099"/>
<g stroke="#ff0099" stroke-width="1" fill="#ff0099">
<circle cx=" 176" cy=" 442" r=" 1.5"/>
</g>
<path d="M180,441h 2" fill="none" stroke="#ff0099"/>
<path d="M184,441h 3" fill="none" stroke="#ff0099"/>
<g stroke="#ff0099" stroke-width="1" fill="#ff0099">
<circle cx=" 183" cy=" 441" r=" 1.5"/>
</g>
<path d="M187,442h 3" fill="none" stroke="#ff0099"/>
<path d="M192,442h 3" fill="none" stroke="#ff0099"/>
<g stroke="#ff0099" stroke-width="1" fill="#ff0099">
<circle cx=" 191" cy=" 442" r=" 1.5"/>
</g>
<path d="M195,442h 2" fill="none" stroke="#ff0099"/>
<path d="M200,442h 2" fill="none" stroke="#ff0099"/>
<g stroke="#ff0099" stroke-width="1" fill="#ff0099">
<circle cx=" 198" cy=" 442" r=" 1.5"/>
</g>
<path d="M202,440h 3" fill="none" stroke="#ff0099"/>
<path d="M207,440h 3" fill="none" stroke="#ff0099"/>
<g stroke="#ff0099" stroke-width="1" fill="#ff0099">
<circle cx=" 206" cy=" 440" r=" 1.5"/>
</g>
<path d="M210,442h 2" fill="none" stroke="#ff0099"/>
<path d="M215,442h 2" fill="none" stroke="#ff0099"/>
<g stroke="#ff0099" stroke-width="1" fill="#ff0099">
<circle cx=" 214" cy=" 442" r=" 1.5"/>
</g>
<path d="M217,444h 3" fill="none" stroke="#ff0099"/>
<path d="M222,444h 3" fill="none" stroke="#ff0099"/>
<g stroke="#ff0099" stroke-width="1" fill="#ff0099">
<circle cx=" 221" cy=" 444" r=" 1.5"/>
</g>
<path d="M225,443h 3" fill="none" stroke="#ff0099"/>
<path d="M230,443h 2" fill="none" stroke="#ff0099"/>
<g stroke="#ff0099" stroke-width="1" fill="#ff0099">
<circle cx=" 229" cy=" 443" r=" 1.5"/>
</g>
<path d="M232,443h 3" fill="none" stroke="#ff0099"/>
<path d="M237,443h 3" fill="none" stroke="#ff0099"/>
<g stroke="#ff0099" stroke-width="1" fill="#ff0099">
<circle cx=" 236" cy=" 443" r=" 1.5"/>
</g>
<path d="M240,444h 3" fill="none" stroke="#ff0099"/>
<path d="M245,444h 3" fill="none" stroke="#ff0099"/>
<g stroke="#ff0099" stroke-width="1" fill="#ff0099">
<circle cx=" 244" cy=" 444" r=" 1.5"/>
</g>
<path d="M248,443h 2" fill="none" stroke="#ff0099"/>
<path d="M252,443h 3" fill="none" stroke="#ff0099"/>
<g stroke="#ff0099" stroke-width="1" fill="#ff0099">
<circle cx=" 251" cy=" 443" r=" 1.5"/>
</g>
<path d="M255,444h 3" fill="none" stroke="#ff0099"/>
<path d="M260,444h 3" fill="none" stroke="#ff0099"/>
<g stroke="#ff0099" stroke-width="1" fill="#ff0099">
<circle cx=" 259" cy=" 444" r=" 1.5"/>
</g>
<path d="M263,444h 2" fill="none" stroke="#ff0099"/>
<path d="M268,444h 2" fill="none" stroke="#ff0099"/>
<g stroke="#ff0099" stroke-width="1" fill="#ff0099">
<circle cx=" 266" cy=" 444" r=" 1.5"/>
</g>
<path d="M270,444h 3" fill="none" stroke="#ff0099"/>
<path d="M275,444h 3" fill="none" stroke="#ff0099"/>
<g stroke="#ff0099" stroke-width="1" fill="#ff0099">
<circle cx=" 274" cy=" 444" r=" 1.5"/>
</g>
<path d="M278,445h 2" fill="none" stroke="#ff0099"/>
<path d="M283,445h 2" fill="none" stroke="#ff0099"/>
<g stroke="#ff0099" stroke-width="1" fill="#ff0099">
<circle cx=" 282" cy=" 445" r=" 1.5"/>
</g>
<path d="M285,445h 3" fill="none" stroke="#ff0099"/>
<path d="M290,445h 3" fill="none" stroke="#ff0099"/>
<g stroke="#ff0099" stroke-width="1" fill="#ff0099">
<circle cx=" 289" cy=" 445" r=" 1.5"/>
</g>
<path d="M293,445h 3" fill="none" stroke="#ff0099"/>
<path d="M298,445h 2" fill="none" stroke="#ff0099"/>
<g stroke="#ff0099" stroke-width="1" fill="#ff0099">
<circle cx=" 297" cy=" 445" r=" 1.5"/>
</g>
<path d="M300,445h 3" fill="none" stroke="#ff0099"/>
<path d="M305,445h 3" fill="none" stroke="#ff0099"/>
<g stroke="#ff0099" stroke-width="1" fill="#ff0099">
<circle cx=" 304" cy=" 445" r=" 1.5"/>
</g>
<path d="M308,445h 3" fill="none" stroke="#ff0099"/>
<path d="M313,445h 3" fill="none" stroke="#ff0099"/>
<g stroke="#ff0099" stroke-width="1" fill="#ff0099">
<circle cx=" 312" cy=" 445" r=" 1.5"/>
</g>
<path d="M316,445h 2" fill="none" stroke="#ff0099"/>
<path d="M321,445h 2" fill="none" stroke="#ff0099"/>
<g stroke="#ff0099" stroke-width="1" fill="#ff0099">
<circle cx=" 319" cy=" 445" r=" 1.5"/>
</g>
<path d="M323,445h 3" fill="none" stroke="#ff0099"/>
<path d="M328,445h 3" fill="none" stroke="#ff0099"/>
<g stroke="#ff0099" stroke-width="1" fill="#ff0099">
<circle cx=" 327" cy=" 445" r=" 1.5"/>
</g>
<path d="M331,446h 2" fill="none" stroke="#ff0099"/>
<path d="M336,446h 2" fill="none" stroke="#ff0099"/>
<g stroke="#ff0099" stroke-width="1" fill="#ff0099">
<circle cx=" 334" cy=" 446" r=" 1.5"/>
</g>
<path d="M338,445h 3" fill="none" stroke="#ff0099"/>
<path d="M343,445h 3" fill="none" stroke="#ff0099"/>
<g stroke="#ff0099" stroke-width="1" fill="#ff0099">
<circle cx=" 342" cy=" 445" r=" 1.5"/>
</g>
<path d="M346,446h 2" fill="none" stroke="#ff0099"/>
<path d="M351,446h 2" fill="none" stroke="#ff0099"/>
<g stroke="#ff0099" stroke-width="1" fill="#ff0099">
<circle cx=" 350" cy=" 446" r=" 1.5"/>
</g>
<path d="M353,446h 3" fill="none" stroke="#ff0099"/>
<path d="M358,446h 3" fill="none" stroke="#ff0099"/>
<g stroke="#ff0099" stroke-width="1" fill="#ff0099">
<circle cx=" 357" cy=" 446" r=" 1.5"/>
</g>
<path d="M361,445h 3" fill="none" stroke="#ff0099"/>
<path d="M366,445h 3" fill="none" stroke="#ff0099"/>
<g stroke="#ff0099" stroke-width="1" fill="#ff0099">
<circle cx=" 365" cy=" 445" r=" 1.5"/>
</g>
<path d="M369,446h 2" fill="none" stroke="#ff0099"/>
<path d="M373,446h 3" fill="none" stroke="#ff0099"/>
<g stroke="#ff0099" stroke-width="1" fill="#ff0099">
<circle cx=" 372" cy=" 446" r=" 1.5"/>
</g>
<path d="M376,446h 3" fill="none" stroke="#ff0099"/>
<path d="M381,446h 3" fill="none" stroke="#ff0099"/>
<g stroke="#ff0099" stroke-width="1" fill="#ff0099">
<circle cx=" 380" cy=" 446" r=" 1.5"/>
</g>
<path d="M384,445h 2" fill="none" stroke="#ff0099"/>
<path d="M389,445h 2" fill="none" stroke="#ff0099"/>
<g stroke="#ff0099" stroke-width="1" fill="#ff0099">
<circle cx=" 387" cy=" 445" r=" 1.5"/>
</g>
<path d="M391,446h 3" fill="none" stroke="#ff0099"/>
<path d="M396,446h 3" fill="none" stroke="#ff0099"/>
<g stroke="#ff0099" stroke-width="1" fill="#ff0099">
<circle cx=" 395" cy=" 446" r=" 1.5"/>
</g>
<path d="M403,446v -1" fill="none" stroke="#ff0099"/>
<path d="M403,443v -1" fill="none" stroke="#ff0099"/>
<path d="M399,444h 2" fill="none" stroke="#ff0099"/>
<path d="M404,444h 2" fill="none" stroke="#ff0099"/>
<g stroke="#ff0099" stroke-width="1" fill="#ff0099">
<circle cx=" 403" cy=" 444" r=" 1.5"/>
</g>
<path d="M406,446h 3" fill="none" stroke="#ff0099"/>
<path d="M411,446h 3" fill="none" stroke="#ff0099"/>
<g stroke="#ff0099" stroke-width="1" fill="#ff0099">
<circle cx=" 410" cy=" 446" r=" 1.5"/>
</g>
<path d="M414,446h 2" fill="none" stroke="#ff0099"/>
<path d="M419,446h 2" fill="none" stroke="#ff0099"/>
<g stroke="#ff0099" stroke-width="1" fill="#ff0099">
<circle cx=" 418" cy=" 446" r=" 1.5"/>
</g>
<path d="M421,446h 3" fill="none" stroke="#ff0099"/>
<path d="M426,446h 3" fill="none" stroke="#ff0099"/>
<g stroke="#ff0099" stroke-width="1" fill="#ff0099">
<circle cx=" 425" cy=" 446" r=" 1.5"/>
</g>
<path d="M429,446h 3" fill="none" stroke="#ff0099"/>
<path d="M434,446h 3" fill="none" stroke="#ff0099"/>
<g stroke="#ff0099" stroke-width="1" fill="#ff0099">
<circle cx=" 433" cy=" 446" r=" 1.5"/>
</g>
<path d="M437,446h 2" fill="none" stroke="#ff0099"/>
<path d="M441,446h 3" fill="none" stroke="#ff0099"/>
<g stroke="#ff0099" stroke-width="1" fill="#ff0099">
<circle cx=" 440" cy=" 446" r=" 1.5"/>
</g>
<path d="M444,446h 3" fill="none" stroke="#ff0099"/>
<path d="M449,446h 3" fill="none" stroke="#ff0099"/>
<g stroke="#ff0099" stroke-width="1" fill="#ff0099">
<circle cx=" 448" cy=" 446" r=" 1.5"/>
</g>
<path d="M452,446h 2" fill="none" stroke="#ff0099"/>
<path d="M457,446h 2" fill="none" stroke="#ff0099"/>
<g stroke="#ff0099" stroke-width="1" fill="#ff0099">
<circle cx=" 455" cy=" 446" r=" 1.5"/>
</g>
<path d="M459,446h 3" fill="none" stroke="#ff0099"/>
<path d="M464,446h 3" fill="none" stroke="#ff0099"/>
<g stroke="#ff0099" stroke-width="1" fill="#ff0099">
<circle cx=" 463" cy=" 446" r=" 1.5"/>
</g>
<path d="M467,446h 2" fill="none" stroke="#ff0099"/>
<path d="M472,446h 2" fill="none" stroke="#ff0099"/>
<g stroke="#ff0099" stroke-width="1" fill="#ff0099">
<circle cx=" 471" cy=" 446" r=" 1.5"/>
</g>
<path d="M474,446h 3" fill="none" stroke="#ff0099"/>
<path d="M479,446h 3" fill="none" stroke="#ff0099"/>
<g stroke="#ff0099" stroke-width="1" fill="#ff0099">
<circle cx=" 478" cy=" 446" r=" 1.5"/>
</g>
<path d="M482,446h 3" fill="none" stroke="#ff0099"/>
<path d="M487,446h 2" fill="none" stroke="#ff0099"/>
<g stroke="#ff0099" stroke-width="1" fill="#ff0099">
<circle cx=" 486" cy=" 446" r=" 1.5"/>
</g>
<path d="M489,446h 3" fill="none" stroke="#ff0099"/>
<path d="M494,446h 3" fill="none" stroke="#ff0099"/>
<g stroke="#ff0099" stroke-width="1" fill="#ff0099">
<circle cx=" 493" cy=" 446" r=" 1.5"/>
</g>
<path d="M497,446h 3" fill="none" stroke="#ff0099"/>
<path d="M502,446h 3" fill="none" stroke="#ff0099"/>
<g stroke="#ff0099" stroke-width="1" fill="#ff0099">
<circle cx=" 501" cy=" 446" r=" 1.5"/>
</g>
<path d="M505,446h 2" fill="none" stroke="#ff0099"/>
<path d="M509,446h 3" fill="none" stroke="#ff0099"/>
<g stroke="#ff0099" stroke-width="1" fill="#ff0099">
<circle cx=" 508" cy=" 446" r=" 1.5"/>
</g>
<path d="M512,446h 3" fill="none" stroke="#ff0099"/>
<path d="M517,446h 3" fill="none" stroke="#ff0099"/>
<g stroke="#ff0099" stroke-width="1" fill="#ff0099">
<circle cx=" 516" cy=" 446" r=" 1.5"/>
</g>
<path d="M520,446h 2" fill="none" stroke="#ff0099"/>
<path d="M525,446h 2" fill="none" stroke="#ff0099"/>
<g stroke="#ff0099" stroke-width="1" fill="#ff0099">
<circle cx=" 523" cy=" 446" r=" 1.5"/>
</g>
<rect x="357" y="59" width="142" height="99" fill="white"/>
<text x="360" y="82" fill="black" font-size="17" font-family="Helvetica" font-weight="bold">
EE
</text>
<text x="457" y="115" fill="black" font-size="17" font-family="Helvetica" font-weight="bold">
 ee
</text>
<text x="440" y="115" fill="black" font-size="17" font-family="Times">
&#8594;
</text>
<text x="392" y="115" fill="black" font-size="17" font-family="Helvetica" font-weight="bold">
MC Z 
</text>
<path d="M362,109h 25" fill="none" stroke="#ff0099"/>
<g stroke="#ff0099" stroke-width="1" fill="#ff0099">
<circle cx=" 375" cy=" 109" r=" 1.5"/>
</g>
<text x="455" y="147" fill="black" font-size="17" font-family="Helvetica" font-weight="bold">
 + jet
</text>
<text x="447" y="147" fill="black" font-size="17" font-family="Times">
&#0947;
</text>
<text x="392" y="147" fill="black" font-size="17" font-family="Helvetica" font-weight="bold">
signal 
</text>
<path d="M362,154h 25v -24h -25z" fill="#99ff99"/>
<path d="M362,130h 25" fill="none" stroke="#99ff99" stroke-width="2"/>
<path d="M362,154h 25" fill="none" stroke="#99ff99" stroke-width="2"/>
<path d="M387,154v -24" fill="none" stroke="#99ff99" stroke-width="2"/>
<path d="M362,154v -24" fill="none" stroke="#99ff99" stroke-width="2"/>
<text x="300" y="34" fill="black" font-size="17" font-family="Helvetica" font-weight="bold">
=8 TeV
</text>
<text x="291" y="34" fill="black" font-size="17" font-family="Helvetica" font-weight="bold">
s
</text>
<path d="M285,25l 2, 10" fill="none" stroke="black" stroke-width="2"/>
<path d="M287,35l 2, -14" fill="none" stroke="black"/>
<path d="M289,21h 11" fill="none" stroke="black"/>
<text x="142" y="34" fill="black" font-size="17" font-family="Helvetica" font-weight="bold">
CMS Preliminary 
</text></svg>
