<?xml version="1.0" standalone="no"?>
<svg width="567" height="496" viewBox="0 0 567 496" xmlns="http://www.w3.org/2000/svg">
<title>
plots_mcZee_mcGJet_withEtaR9rhoIsoReweight/hlt150/ptPhotEB.svg
</title>
<desc>
Creator: ROOT Version 5.32/00
CreationDate: Sun Nov 30 15:46:43 2014</desc>
<defs>
</defs>
<rect x="0" y="0" width="567" height="496" fill="white"/>
<rect x="74" y="44" width="453" height="402" fill="white"/>
<rect x="74" y="44" width="453" height="402" fill="none" stroke="black"/>
<rect x="74" y="44" width="453" height="402" fill="white"/>
<rect x="74" y="44" width="453" height="402" fill="none" stroke="black"/>
<path d="M108,68v -1" fill="none" stroke="#ff0099"/>
<path d="M108,65v -2" fill="none" stroke="#ff0099"/>
<path d="M104,66h 3" fill="none" stroke="#ff0099"/>
<path d="M109,66h 2" fill="none" stroke="#ff0099"/>
<g stroke="#ff0099" stroke-width="1" fill="#ff0099">
<circle cx=" 108" cy=" 66" r=" 1.5"/>
</g>
<path d="M115,285v -1" fill="none" stroke="#ff0099"/>
<path d="M115,282v -1" fill="none" stroke="#ff0099"/>
<path d="M111,283h 3" fill="none" stroke="#ff0099"/>
<path d="M116,283h 3" fill="none" stroke="#ff0099"/>
<g stroke="#ff0099" stroke-width="1" fill="#ff0099">
<circle cx=" 115" cy=" 283" r=" 1.5"/>
</g>
<path d="M123,402v -1" fill="none" stroke="#ff0099"/>
<path d="M123,399" fill="none" stroke="#ff0099"/>
<path d="M119,400h 3" fill="none" stroke="#ff0099"/>
<path d="M124,400h 3" fill="none" stroke="#ff0099"/>
<g stroke="#ff0099" stroke-width="1" fill="#ff0099">
<circle cx=" 123" cy=" 400" r=" 1.5"/>
</g>
<path d="M74,446h 453" fill="none" stroke="black"/>
<path d="M74,434v 12" fill="none" stroke="black"/>
<path d="M89,440v 6" fill="none" stroke="black"/>
<path d="M104,440v 6" fill="none" stroke="black"/>
<path d="M119,440v 6" fill="none" stroke="black"/>
<path d="M134,440v 6" fill="none" stroke="black"/>
<path d="M149,434v 12" fill="none" stroke="black"/>
<path d="M164,440v 6" fill="none" stroke="black"/>
<path d="M180,440v 6" fill="none" stroke="black"/>
<path d="M195,440v 6" fill="none" stroke="black"/>
<path d="M210,440v 6" fill="none" stroke="black"/>
<path d="M225,434v 12" fill="none" stroke="black"/>
<path d="M240,440v 6" fill="none" stroke="black"/>
<path d="M255,440v 6" fill="none" stroke="black"/>
<path d="M270,440v 6" fill="none" stroke="black"/>
<path d="M285,440v 6" fill="none" stroke="black"/>
<path d="M300,434v 12" fill="none" stroke="black"/>
<path d="M316,440v 6" fill="none" stroke="black"/>
<path d="M331,440v 6" fill="none" stroke="black"/>
<path d="M346,440v 6" fill="none" stroke="black"/>
<path d="M361,440v 6" fill="none" stroke="black"/>
<path d="M376,434v 12" fill="none" stroke="black"/>
<path d="M391,440v 6" fill="none" stroke="black"/>
<path d="M406,440v 6" fill="none" stroke="black"/>
<path d="M421,440v 6" fill="none" stroke="black"/>
<path d="M437,440v 6" fill="none" stroke="black"/>
<path d="M452,434v 12" fill="none" stroke="black"/>
<path d="M467,440v 6" fill="none" stroke="black"/>
<path d="M482,440v 6" fill="none" stroke="black"/>
<path d="M497,440v 6" fill="none" stroke="black"/>
<path d="M512,440v 6" fill="none" stroke="black"/>
<path d="M527,434v 12" fill="none" stroke="black"/>
<text x="68" y="465" fill="black" font-size="18" font-family="Helvetica" font-weight="bold">
0
</text>
<text x="134" y="465" fill="black" font-size="18" font-family="Helvetica" font-weight="bold">
100
</text>
<text x="209" y="465" fill="black" font-size="18" font-family="Helvetica" font-weight="bold">
200
</text>
<text x="285" y="465" fill="black" font-size="18" font-family="Helvetica" font-weight="bold">
300
</text>
<text x="360" y="465" fill="black" font-size="18" font-family="Helvetica" font-weight="bold">
400
</text>
<text x="436" y="465" fill="black" font-size="18" font-family="Helvetica" font-weight="bold">
500
</text>
<text x="512" y="465" fill="black" font-size="18" font-family="Helvetica" font-weight="bold">
600
</text>
<path d="M74,44h 453" fill="none" stroke="black"/>
<path d="M74,56v -12" fill="none" stroke="black"/>
<path d="M89,50v -6" fill="none" stroke="black"/>
<path d="M104,50v -6" fill="none" stroke="black"/>
<path d="M119,50v -6" fill="none" stroke="black"/>
<path d="M134,50v -6" fill="none" stroke="black"/>
<path d="M149,56v -12" fill="none" stroke="black"/>
<path d="M164,50v -6" fill="none" stroke="black"/>
<path d="M180,50v -6" fill="none" stroke="black"/>
<path d="M195,50v -6" fill="none" stroke="black"/>
<path d="M210,50v -6" fill="none" stroke="black"/>
<path d="M225,56v -12" fill="none" stroke="black"/>
<path d="M240,50v -6" fill="none" stroke="black"/>
<path d="M255,50v -6" fill="none" stroke="black"/>
<path d="M270,50v -6" fill="none" stroke="black"/>
<path d="M285,50v -6" fill="none" stroke="black"/>
<path d="M300,56v -12" fill="none" stroke="black"/>
<path d="M316,50v -6" fill="none" stroke="black"/>
<path d="M331,50v -6" fill="none" stroke="black"/>
<path d="M346,50v -6" fill="none" stroke="black"/>
<path d="M361,50v -6" fill="none" stroke="black"/>
<path d="M376,56v -12" fill="none" stroke="black"/>
<path d="M391,50v -6" fill="none" stroke="black"/>
<path d="M406,50v -6" fill="none" stroke="black"/>
<path d="M421,50v -6" fill="none" stroke="black"/>
<path d="M437,50v -6" fill="none" stroke="black"/>
<path d="M452,56v -12" fill="none" stroke="black"/>
<path d="M467,50v -6" fill="none" stroke="black"/>
<path d="M482,50v -6" fill="none" stroke="black"/>
<path d="M497,50v -6" fill="none" stroke="black"/>
<path d="M512,50v -6" fill="none" stroke="black"/>
<path d="M527,56v -12" fill="none" stroke="black"/>
<path d="M74,446v -402" fill="none" stroke="black"/>
<path d="M87,446h -13" fill="none" stroke="black"/>
<path d="M81,435h -7" fill="none" stroke="black"/>
<path d="M81,423h -7" fill="none" stroke="black"/>
<path d="M81,411h -7" fill="none" stroke="black"/>
<path d="M81,399h -7" fill="none" stroke="black"/>
<path d="M87,387h -13" fill="none" stroke="black"/>
<path d="M81,376h -7" fill="none" stroke="black"/>
<path d="M81,364h -7" fill="none" stroke="black"/>
<path d="M81,352h -7" fill="none" stroke="black"/>
<path d="M81,340h -7" fill="none" stroke="black"/>
<path d="M87,328h -13" fill="none" stroke="black"/>
<path d="M81,317h -7" fill="none" stroke="black"/>
<path d="M81,305h -7" fill="none" stroke="black"/>
<path d="M81,293h -7" fill="none" stroke="black"/>
<path d="M81,281h -7" fill="none" stroke="black"/>
<path d="M87,269h -13" fill="none" stroke="black"/>
<path d="M81,258h -7" fill="none" stroke="black"/>
<path d="M81,246h -7" fill="none" stroke="black"/>
<path d="M81,234h -7" fill="none" stroke="black"/>
<path d="M81,222h -7" fill="none" stroke="black"/>
<path d="M87,210h -13" fill="none" stroke="black"/>
<path d="M81,199h -7" fill="none" stroke="black"/>
<path d="M81,187h -7" fill="none" stroke="black"/>
<path d="M81,175h -7" fill="none" stroke="black"/>
<path d="M81,163h -7" fill="none" stroke="black"/>
<path d="M87,151h -13" fill="none" stroke="black"/>
<path d="M81,140h -7" fill="none" stroke="black"/>
<path d="M81,128h -7" fill="none" stroke="black"/>
<path d="M81,116h -7" fill="none" stroke="black"/>
<path d="M81,104h -7" fill="none" stroke="black"/>
<path d="M87,92h -13" fill="none" stroke="black"/>
<path d="M87,92h -13" fill="none" stroke="black"/>
<path d="M81,81h -7" fill="none" stroke="black"/>
<path d="M81,69h -7" fill="none" stroke="black"/>
<path d="M81,57h -7" fill="none" stroke="black"/>
<path d="M81,45h -7" fill="none" stroke="black"/>
<text x="61" y="453" fill="black" font-size="18" font-family="Helvetica" font-weight="bold">
0
</text>
<text x="47" y="394" fill="black" font-size="18" font-family="Helvetica" font-weight="bold">
0.1
</text>
<text x="45" y="335" fill="black" font-size="18" font-family="Helvetica" font-weight="bold">
0.2
</text>
<text x="45" y="276" fill="black" font-size="18" font-family="Helvetica" font-weight="bold">
0.3
</text>
<text x="44" y="217" fill="black" font-size="18" font-family="Helvetica" font-weight="bold">
0.4
</text>
<text x="45" y="158" fill="black" font-size="18" font-family="Helvetica" font-weight="bold">
0.5
</text>
<text x="45" y="99" fill="black" font-size="18" font-family="Helvetica" font-weight="bold">
0.6
</text>
<path d="M214,326" fill="none" stroke="#99ff99" stroke-width="2"/>
<path d="M214,326v -1" fill="none" stroke="#99ff99" stroke-width="2"/>
<g stroke="black" stroke-width="2" fill="none">
<line x1="213" y1="326" x2="214" y2="326"/>
</g>
<path d="M221,354v -1" fill="none" stroke="#99ff99" stroke-width="2"/>
<path d="M221,353" fill="none" stroke="#99ff99" stroke-width="2"/>
<g stroke="black" stroke-width="2" fill="none">
<line x1="220" y1="353" x2="221" y2="353"/>
</g>
<path d="M229,375v -1" fill="none" stroke="#99ff99" stroke-width="2"/>
<path d="M229,374v -1" fill="none" stroke="#99ff99" stroke-width="2"/>
<g stroke="black" stroke-width="2" fill="none">
<line x1="228" y1="374" x2="229" y2="374"/>
</g>
<path d="M236,390" fill="none" stroke="#99ff99" stroke-width="2"/>
<path d="M236,390" fill="none" stroke="#99ff99" stroke-width="2"/>
<g stroke="black" stroke-width="2" fill="none">
<line x1="235" y1="390" x2="236" y2="390"/>
</g>
<path d="M244,401" fill="none" stroke="#99ff99" stroke-width="2"/>
<path d="M244,401v -1" fill="none" stroke="#99ff99" stroke-width="2"/>
<g stroke="black" stroke-width="2" fill="none">
<line x1="243" y1="401" x2="244" y2="401"/>
</g>
<path d="M251,411" fill="none" stroke="#99ff99" stroke-width="2"/>
<path d="M251,411v -1" fill="none" stroke="#99ff99" stroke-width="2"/>
<g stroke="black" stroke-width="2" fill="none">
<line x1="250" y1="411" x2="251" y2="411"/>
</g>
<path d="M259,417" fill="none" stroke="#99ff99" stroke-width="2"/>
<path d="M259,417" fill="none" stroke="#99ff99" stroke-width="2"/>
<g stroke="black" stroke-width="2" fill="none">
<line x1="258" y1="417" x2="259" y2="417"/>
</g>
<path d="M266,423v -1" fill="none" stroke="#99ff99" stroke-width="2"/>
<path d="M266,422" fill="none" stroke="#99ff99" stroke-width="2"/>
<g stroke="black" stroke-width="2" fill="none">
<line x1="265" y1="422" x2="266" y2="422"/>
</g>
<path d="M274,427" fill="none" stroke="#99ff99" stroke-width="2"/>
<path d="M274,427" fill="none" stroke="#99ff99" stroke-width="2"/>
<g stroke="black" stroke-width="2" fill="none">
<line x1="273" y1="427" x2="274" y2="427"/>
</g>
<path d="M282,430" fill="none" stroke="#99ff99" stroke-width="2"/>
<path d="M282,430" fill="none" stroke="#99ff99" stroke-width="2"/>
<g stroke="black" stroke-width="2" fill="none">
<line x1="281" y1="430" x2="282" y2="430"/>
</g>
<path d="M289,433" fill="none" stroke="#99ff99" stroke-width="2"/>
<path d="M289,433" fill="none" stroke="#99ff99" stroke-width="2"/>
<g stroke="black" stroke-width="2" fill="none">
<line x1="288" y1="433" x2="289" y2="433"/>
</g>
<path d="M297,436" fill="none" stroke="#99ff99" stroke-width="2"/>
<path d="M297,436" fill="none" stroke="#99ff99" stroke-width="2"/>
<g stroke="black" stroke-width="2" fill="none">
<line x1="296" y1="436" x2="297" y2="436"/>
</g>
<path d="M304,438" fill="none" stroke="#99ff99" stroke-width="2"/>
<path d="M304,438" fill="none" stroke="#99ff99" stroke-width="2"/>
<g stroke="black" stroke-width="2" fill="none">
<line x1="303" y1="438" x2="304" y2="438"/>
</g>
<path d="M312,439" fill="none" stroke="#99ff99" stroke-width="2"/>
<path d="M312,439" fill="none" stroke="#99ff99" stroke-width="2"/>
<g stroke="black" stroke-width="2" fill="none">
<line x1="311" y1="439" x2="312" y2="439"/>
</g>
<path d="M319,440" fill="none" stroke="#99ff99" stroke-width="2"/>
<path d="M319,440" fill="none" stroke="#99ff99" stroke-width="2"/>
<g stroke="black" stroke-width="2" fill="none">
<line x1="318" y1="440" x2="319" y2="440"/>
</g>
<path d="M327,441" fill="none" stroke="#99ff99" stroke-width="2"/>
<path d="M327,441" fill="none" stroke="#99ff99" stroke-width="2"/>
<g stroke="black" stroke-width="2" fill="none">
<line x1="326" y1="441" x2="327" y2="441"/>
</g>
<path d="M334,442" fill="none" stroke="#99ff99" stroke-width="2"/>
<path d="M334,442" fill="none" stroke="#99ff99" stroke-width="2"/>
<g stroke="black" stroke-width="2" fill="none">
<line x1="333" y1="442" x2="334" y2="442"/>
</g>
<path d="M342,443" fill="none" stroke="#99ff99" stroke-width="2"/>
<path d="M342,443" fill="none" stroke="#99ff99" stroke-width="2"/>
<g stroke="black" stroke-width="2" fill="none">
<line x1="341" y1="443" x2="342" y2="443"/>
</g>
<path d="M350,443" fill="none" stroke="#99ff99" stroke-width="2"/>
<path d="M350,443" fill="none" stroke="#99ff99" stroke-width="2"/>
<g stroke="black" stroke-width="2" fill="none">
<line x1="349" y1="443" x2="350" y2="443"/>
</g>
<path d="M357,444" fill="none" stroke="#99ff99" stroke-width="2"/>
<path d="M357,444" fill="none" stroke="#99ff99" stroke-width="2"/>
<g stroke="black" stroke-width="2" fill="none">
<line x1="356" y1="444" x2="357" y2="444"/>
</g>
<path d="M365,444" fill="none" stroke="#99ff99" stroke-width="2"/>
<path d="M365,444" fill="none" stroke="#99ff99" stroke-width="2"/>
<g stroke="black" stroke-width="2" fill="none">
<line x1="364" y1="444" x2="365" y2="444"/>
</g>
<path d="M372,444" fill="none" stroke="#99ff99" stroke-width="2"/>
<path d="M372,444" fill="none" stroke="#99ff99" stroke-width="2"/>
<g stroke="black" stroke-width="2" fill="none">
<line x1="371" y1="444" x2="372" y2="444"/>
</g>
<path d="M380,445" fill="none" stroke="#99ff99" stroke-width="2"/>
<path d="M380,445" fill="none" stroke="#99ff99" stroke-width="2"/>
<g stroke="black" stroke-width="2" fill="none">
<line x1="379" y1="445" x2="380" y2="445"/>
</g>
<path d="M387,445" fill="none" stroke="#99ff99" stroke-width="2"/>
<path d="M387,445" fill="none" stroke="#99ff99" stroke-width="2"/>
<g stroke="black" stroke-width="2" fill="none">
<line x1="386" y1="445" x2="387" y2="445"/>
</g>
<path d="M395,445" fill="none" stroke="#99ff99" stroke-width="2"/>
<path d="M395,445" fill="none" stroke="#99ff99" stroke-width="2"/>
<g stroke="black" stroke-width="2" fill="none">
<line x1="394" y1="445" x2="395" y2="445"/>
</g>
<path d="M403,445" fill="none" stroke="#99ff99" stroke-width="2"/>
<path d="M403,445" fill="none" stroke="#99ff99" stroke-width="2"/>
<g stroke="black" stroke-width="2" fill="none">
<line x1="402" y1="445" x2="403" y2="445"/>
</g>
<path d="M410,445" fill="none" stroke="#99ff99" stroke-width="2"/>
<path d="M410,445" fill="none" stroke="#99ff99" stroke-width="2"/>
<g stroke="black" stroke-width="2" fill="none">
<line x1="409" y1="445" x2="410" y2="445"/>
</g>
<path d="M418,446" fill="none" stroke="#99ff99" stroke-width="2"/>
<path d="M418,446" fill="none" stroke="#99ff99" stroke-width="2"/>
<g stroke="black" stroke-width="2" fill="none">
<line x1="417" y1="446" x2="418" y2="446"/>
</g>
<path d="M425,446" fill="none" stroke="#99ff99" stroke-width="2"/>
<path d="M425,446" fill="none" stroke="#99ff99" stroke-width="2"/>
<g stroke="black" stroke-width="2" fill="none">
<line x1="424" y1="446" x2="425" y2="446"/>
</g>
<path d="M433,446" fill="none" stroke="#99ff99" stroke-width="2"/>
<path d="M433,446" fill="none" stroke="#99ff99" stroke-width="2"/>
<g stroke="black" stroke-width="2" fill="none">
<line x1="432" y1="446" x2="433" y2="446"/>
</g>
<path d="M440,446" fill="none" stroke="#99ff99" stroke-width="2"/>
<path d="M440,446" fill="none" stroke="#99ff99" stroke-width="2"/>
<g stroke="black" stroke-width="2" fill="none">
<line x1="439" y1="446" x2="440" y2="446"/>
</g>
<path d="M448,446" fill="none" stroke="#99ff99" stroke-width="2"/>
<path d="M448,446" fill="none" stroke="#99ff99" stroke-width="2"/>
<g stroke="black" stroke-width="2" fill="none">
<line x1="447" y1="446" x2="448" y2="446"/>
</g>
<path d="M455,446" fill="none" stroke="#99ff99" stroke-width="2"/>
<path d="M455,446" fill="none" stroke="#99ff99" stroke-width="2"/>
<g stroke="black" stroke-width="2" fill="none">
<line x1="454" y1="446" x2="455" y2="446"/>
</g>
<path d="M463,446" fill="none" stroke="#99ff99" stroke-width="2"/>
<path d="M463,446" fill="none" stroke="#99ff99" stroke-width="2"/>
<g stroke="black" stroke-width="2" fill="none">
<line x1="462" y1="446" x2="463" y2="446"/>
</g>
<path d="M471,446" fill="none" stroke="#99ff99" stroke-width="2"/>
<path d="M471,446" fill="none" stroke="#99ff99" stroke-width="2"/>
<g stroke="black" stroke-width="2" fill="none">
<line x1="470" y1="446" x2="471" y2="446"/>
</g>
<path d="M478,446" fill="none" stroke="#99ff99" stroke-width="2"/>
<path d="M478,446" fill="none" stroke="#99ff99" stroke-width="2"/>
<g stroke="black" stroke-width="2" fill="none">
<line x1="477" y1="446" x2="478" y2="446"/>
</g>
<path d="M486,446" fill="none" stroke="#99ff99" stroke-width="2"/>
<path d="M486,446" fill="none" stroke="#99ff99" stroke-width="2"/>
<g stroke="black" stroke-width="2" fill="none">
<line x1="485" y1="446" x2="486" y2="446"/>
</g>
<path d="M493,446" fill="none" stroke="#99ff99" stroke-width="2"/>
<path d="M493,446" fill="none" stroke="#99ff99" stroke-width="2"/>
<g stroke="black" stroke-width="2" fill="none">
<line x1="492" y1="446" x2="493" y2="446"/>
</g>
<path d="M501,446" fill="none" stroke="#99ff99" stroke-width="2"/>
<path d="M501,446" fill="none" stroke="#99ff99" stroke-width="2"/>
<g stroke="black" stroke-width="2" fill="none">
<line x1="500" y1="446" x2="501" y2="446"/>
</g>
<path d="M508,446" fill="none" stroke="#99ff99" stroke-width="2"/>
<path d="M508,446" fill="none" stroke="#99ff99" stroke-width="2"/>
<g stroke="black" stroke-width="2" fill="none">
<line x1="507" y1="446" x2="508" y2="446"/>
</g>
<path d="M516,446" fill="none" stroke="#99ff99" stroke-width="2"/>
<path d="M516,446" fill="none" stroke="#99ff99" stroke-width="2"/>
<g stroke="black" stroke-width="2" fill="none">
<line x1="515" y1="446" x2="516" y2="446"/>
</g>
<path d="M523,446" fill="none" stroke="#99ff99" stroke-width="2"/>
<path d="M523,446" fill="none" stroke="#99ff99" stroke-width="2"/>
<g stroke="black" stroke-width="2" fill="none">
<line x1="522" y1="446" x2="523" y2="446"/>
</g>
<path d="M74,446h 136v -120h 7v 27h 8v 21h 7v 16h 8v 11h 8v 10h 7v 6h 8v 5h 7v 5h 8v 3h 7v 3h 8v 3h 7v 2h 8v 1h 8v 1h 7v 1h 8v 1h 7v 1h 15v 1h 23v 1h 38v 1h 113z" fill="#99ff99"/>
<path d="M74,446h 136v -120h 7v 27h 8v 21h 7v 16h 8v 11h 8v 10h 7v 6h 8v 5h 7v 5h 8v 3h 7v 3h 8v 3h 7v 2h 8v 1h 8v 1h 7v 1h 8v 1h 7v 1h 15v 1h 23v 1h 38v 1h 113" fill="none" stroke="#99ff99" stroke-width="2"/>
<path d="M108,68v -1" fill="none" stroke="#ff0099"/>
<path d="M108,65v -2" fill="none" stroke="#ff0099"/>
<path d="M104,66h 3" fill="none" stroke="#ff0099"/>
<path d="M109,66h 2" fill="none" stroke="#ff0099"/>
<g stroke="#ff0099" stroke-width="1" fill="#ff0099">
<circle cx=" 108" cy=" 66" r=" 1.5"/>
</g>
<path d="M115,285v -1" fill="none" stroke="#ff0099"/>
<path d="M115,282v -1" fill="none" stroke="#ff0099"/>
<path d="M111,283h 3" fill="none" stroke="#ff0099"/>
<path d="M116,283h 3" fill="none" stroke="#ff0099"/>
<g stroke="#ff0099" stroke-width="1" fill="#ff0099">
<circle cx=" 115" cy=" 283" r=" 1.5"/>
</g>
<path d="M123,402v -1" fill="none" stroke="#ff0099"/>
<path d="M123,399" fill="none" stroke="#ff0099"/>
<path d="M119,400h 3" fill="none" stroke="#ff0099"/>
<path d="M124,400h 3" fill="none" stroke="#ff0099"/>
<g stroke="#ff0099" stroke-width="1" fill="#ff0099">
<circle cx=" 123" cy=" 400" r=" 1.5"/>
</g>
<rect x="357" y="59" width="142" height="99" fill="white"/>
<text x="360" y="82" fill="black" font-size="17" font-family="Helvetica" font-weight="bold">
EB
</text>
<text x="457" y="115" fill="black" font-size="17" font-family="Helvetica" font-weight="bold">
 ee
</text>
<text x="440" y="115" fill="black" font-size="17" font-family="Times">
&#8594;
</text>
<text x="392" y="115" fill="black" font-size="17" font-family="Helvetica" font-weight="bold">
MC Z 
</text>
<path d="M362,109h 25" fill="none" stroke="#ff0099"/>
<g stroke="#ff0099" stroke-width="1" fill="#ff0099">
<circle cx=" 375" cy=" 109" r=" 1.5"/>
</g>
<text x="455" y="147" fill="black" font-size="17" font-family="Helvetica" font-weight="bold">
 + jet
</text>
<text x="447" y="147" fill="black" font-size="17" font-family="Times">
&#0947;
</text>
<text x="392" y="147" fill="black" font-size="17" font-family="Helvetica" font-weight="bold">
signal 
</text>
<path d="M362,154h 25v -24h -25z" fill="#99ff99"/>
<path d="M362,130h 25" fill="none" stroke="#99ff99" stroke-width="2"/>
<path d="M362,154h 25" fill="none" stroke="#99ff99" stroke-width="2"/>
<path d="M387,154v -24" fill="none" stroke="#99ff99" stroke-width="2"/>
<path d="M362,154v -24" fill="none" stroke="#99ff99" stroke-width="2"/>
<text x="300" y="34" fill="black" font-size="17" font-family="Helvetica" font-weight="bold">
=8 TeV
</text>
<text x="291" y="34" fill="black" font-size="17" font-family="Helvetica" font-weight="bold">
s
</text>
<path d="M285,25l 2, 10" fill="none" stroke="black" stroke-width="2"/>
<path d="M287,35l 2, -14" fill="none" stroke="black"/>
<path d="M289,21h 11" fill="none" stroke="black"/>
<text x="142" y="34" fill="black" font-size="17" font-family="Helvetica" font-weight="bold">
CMS Preliminary 
</text></svg>
