<?xml version="1.0" standalone="no"?>
<svg width="567" height="496" viewBox="0 0 567 496" xmlns="http://www.w3.org/2000/svg">
<title>
plots_mcZee_mcGJet_withEtaR9rhoIsoReweight/hlt150/r9PhotEE_log.svg
</title>
<desc>
Creator: ROOT Version 5.32/00
CreationDate: Sun Nov 30 15:46:41 2014</desc>
<defs>
</defs>
<rect x="0" y="0" width="567" height="496" fill="white"/>
<rect x="0" y="0" width="567" height="347" fill="white"/>
<rect x="57" y="34" width="453" height="278" fill="white"/>
<rect x="57" y="34" width="453" height="278" fill="none" stroke="black"/>
<rect x="57" y="34" width="453" height="278" fill="white"/>
<rect x="57" y="34" width="453" height="278" fill="none" stroke="black"/>
<path d="M265,268v -18" fill="none" stroke="#ff0099"/>
<path d="M265,248v -9" fill="none" stroke="#ff0099"/>
<path d="M261,249h 2" fill="none" stroke="#ff0099"/>
<path d="M266,249h 2" fill="none" stroke="#ff0099"/>
<g stroke="#ff0099" stroke-width="1" fill="#ff0099">
<circle cx=" 265" cy=" 249" r=" 1.5"/>
</g>
<path d="M295,272v -12" fill="none" stroke="#ff0099"/>
<path d="M295,258v -7" fill="none" stroke="#ff0099"/>
<path d="M291,259h 3" fill="none" stroke="#ff0099"/>
<path d="M296,259h 3" fill="none" stroke="#ff0099"/>
<g stroke="#ff0099" stroke-width="1" fill="#ff0099">
<circle cx=" 295" cy=" 259" r=" 1.5"/>
</g>
<path d="M302,220v -5" fill="none" stroke="#ff0099"/>
<path d="M302,213v -4" fill="none" stroke="#ff0099"/>
<path d="M299,214h 2" fill="none" stroke="#ff0099"/>
<path d="M304,214h 2" fill="none" stroke="#ff0099"/>
<g stroke="#ff0099" stroke-width="1" fill="#ff0099">
<circle cx=" 302" cy=" 214" r=" 1.5"/>
</g>
<path d="M310,222v -7" fill="none" stroke="#ff0099"/>
<path d="M310,213v -5" fill="none" stroke="#ff0099"/>
<path d="M306,214h 3" fill="none" stroke="#ff0099"/>
<path d="M311,214h 3" fill="none" stroke="#ff0099"/>
<g stroke="#ff0099" stroke-width="1" fill="#ff0099">
<circle cx=" 310" cy=" 214" r=" 1.5"/>
</g>
<path d="M317,225v -7" fill="none" stroke="#ff0099"/>
<path d="M317,215v -4" fill="none" stroke="#ff0099"/>
<path d="M314,217h 2" fill="none" stroke="#ff0099"/>
<path d="M319,217h 2" fill="none" stroke="#ff0099"/>
<g stroke="#ff0099" stroke-width="1" fill="#ff0099">
<circle cx=" 317" cy=" 217" r=" 1.5"/>
</g>
<path d="M325,177v -5" fill="none" stroke="#ff0099"/>
<path d="M325,170v -3" fill="none" stroke="#ff0099"/>
<path d="M321,171h 3" fill="none" stroke="#ff0099"/>
<path d="M326,171h 3" fill="none" stroke="#ff0099"/>
<g stroke="#ff0099" stroke-width="1" fill="#ff0099">
<circle cx=" 325" cy=" 171" r=" 1.5"/>
</g>
<path d="M333,202v -4" fill="none" stroke="#ff0099"/>
<path d="M333,196v -3" fill="none" stroke="#ff0099"/>
<path d="M329,197h 2" fill="none" stroke="#ff0099"/>
<path d="M334,197h 2" fill="none" stroke="#ff0099"/>
<g stroke="#ff0099" stroke-width="1" fill="#ff0099">
<circle cx=" 333" cy=" 197" r=" 1.5"/>
</g>
<path d="M340,176v -3" fill="none" stroke="#ff0099"/>
<path d="M340,171v -2" fill="none" stroke="#ff0099"/>
<path d="M336,172h 3" fill="none" stroke="#ff0099"/>
<path d="M341,172h 3" fill="none" stroke="#ff0099"/>
<g stroke="#ff0099" stroke-width="1" fill="#ff0099">
<circle cx=" 340" cy=" 172" r=" 1.5"/>
</g>
<path d="M348,186v -4" fill="none" stroke="#ff0099"/>
<path d="M348,179v -3" fill="none" stroke="#ff0099"/>
<path d="M344,180h 3" fill="none" stroke="#ff0099"/>
<path d="M349,180h 2" fill="none" stroke="#ff0099"/>
<g stroke="#ff0099" stroke-width="1" fill="#ff0099">
<circle cx=" 348" cy=" 180" r=" 1.5"/>
</g>
<path d="M355,173v -2" fill="none" stroke="#ff0099"/>
<path d="M355,169v -2" fill="none" stroke="#ff0099"/>
<path d="M351,170h 3" fill="none" stroke="#ff0099"/>
<path d="M356,170h 3" fill="none" stroke="#ff0099"/>
<g stroke="#ff0099" stroke-width="1" fill="#ff0099">
<circle cx=" 355" cy=" 170" r=" 1.5"/>
</g>
<path d="M363,176v -3" fill="none" stroke="#ff0099"/>
<path d="M363,171v -3" fill="none" stroke="#ff0099"/>
<path d="M359,172h 3" fill="none" stroke="#ff0099"/>
<path d="M364,172h 3" fill="none" stroke="#ff0099"/>
<g stroke="#ff0099" stroke-width="1" fill="#ff0099">
<circle cx=" 363" cy=" 172" r=" 1.5"/>
</g>
<path d="M370,163v -2" fill="none" stroke="#ff0099"/>
<path d="M370,159v -2" fill="none" stroke="#ff0099"/>
<path d="M367,160h 2" fill="none" stroke="#ff0099"/>
<path d="M372,160h 2" fill="none" stroke="#ff0099"/>
<g stroke="#ff0099" stroke-width="1" fill="#ff0099">
<circle cx=" 370" cy=" 160" r=" 1.5"/>
</g>
<path d="M378,172v -3" fill="none" stroke="#ff0099"/>
<path d="M378,167v -2" fill="none" stroke="#ff0099"/>
<path d="M374,168h 3" fill="none" stroke="#ff0099"/>
<path d="M379,168h 3" fill="none" stroke="#ff0099"/>
<g stroke="#ff0099" stroke-width="1" fill="#ff0099">
<circle cx=" 378" cy=" 168" r=" 1.5"/>
</g>
<path d="M386,163v -2" fill="none" stroke="#ff0099"/>
<path d="M386,159v -1" fill="none" stroke="#ff0099"/>
<path d="M382,160h 2" fill="none" stroke="#ff0099"/>
<path d="M387,160h 2" fill="none" stroke="#ff0099"/>
<g stroke="#ff0099" stroke-width="1" fill="#ff0099">
<circle cx=" 386" cy=" 160" r=" 1.5"/>
</g>
<path d="M393,153v -1" fill="none" stroke="#ff0099"/>
<path d="M393,150v -1" fill="none" stroke="#ff0099"/>
<path d="M389,151h 3" fill="none" stroke="#ff0099"/>
<path d="M394,151h 3" fill="none" stroke="#ff0099"/>
<g stroke="#ff0099" stroke-width="1" fill="#ff0099">
<circle cx=" 393" cy=" 151" r=" 1.5"/>
</g>
<path d="M401,156v -2" fill="none" stroke="#ff0099"/>
<path d="M401,152v -1" fill="none" stroke="#ff0099"/>
<path d="M397,153h 2" fill="none" stroke="#ff0099"/>
<path d="M402,153h 2" fill="none" stroke="#ff0099"/>
<g stroke="#ff0099" stroke-width="1" fill="#ff0099">
<circle cx=" 401" cy=" 153" r=" 1.5"/>
</g>
<path d="M408,153v -1" fill="none" stroke="#ff0099"/>
<path d="M408,150v -1" fill="none" stroke="#ff0099"/>
<path d="M404,151h 3" fill="none" stroke="#ff0099"/>
<path d="M409,151h 3" fill="none" stroke="#ff0099"/>
<g stroke="#ff0099" stroke-width="1" fill="#ff0099">
<circle cx=" 408" cy=" 151" r=" 1.5"/>
</g>
<path d="M416,149v -1" fill="none" stroke="#ff0099"/>
<path d="M416,146v -1" fill="none" stroke="#ff0099"/>
<path d="M412,147h 3" fill="none" stroke="#ff0099"/>
<path d="M417,147h 3" fill="none" stroke="#ff0099"/>
<g stroke="#ff0099" stroke-width="1" fill="#ff0099">
<circle cx=" 416" cy=" 147" r=" 1.5"/>
</g>
<path d="M423,150v -1" fill="none" stroke="#ff0099"/>
<path d="M423,147v -1" fill="none" stroke="#ff0099"/>
<path d="M420,148h 2" fill="none" stroke="#ff0099"/>
<path d="M424,148h 3" fill="none" stroke="#ff0099"/>
<g stroke="#ff0099" stroke-width="1" fill="#ff0099">
<circle cx=" 423" cy=" 148" r=" 1.5"/>
</g>
<path d="M431,142" fill="none" stroke="#ff0099"/>
<path d="M431,140v -1" fill="none" stroke="#ff0099"/>
<path d="M427,141h 3" fill="none" stroke="#ff0099"/>
<path d="M432,141h 3" fill="none" stroke="#ff0099"/>
<g stroke="#ff0099" stroke-width="1" fill="#ff0099">
<circle cx=" 431" cy=" 141" r=" 1.5"/>
</g>
<path d="M438,141v -1" fill="none" stroke="#ff0099"/>
<path d="M438,138" fill="none" stroke="#ff0099"/>
<path d="M435,139h 2" fill="none" stroke="#ff0099"/>
<path d="M440,139h 2" fill="none" stroke="#ff0099"/>
<g stroke="#ff0099" stroke-width="1" fill="#ff0099">
<circle cx=" 438" cy=" 139" r=" 1.5"/>
</g>
<path d="M446,137" fill="none" stroke="#ff0099"/>
<path d="M446,134" fill="none" stroke="#ff0099"/>
<path d="M442,136h 3" fill="none" stroke="#ff0099"/>
<path d="M447,136h 3" fill="none" stroke="#ff0099"/>
<g stroke="#ff0099" stroke-width="1" fill="#ff0099">
<circle cx=" 446" cy=" 136" r=" 1.5"/>
</g>
<path d="M450,133h 2" fill="none" stroke="#ff0099"/>
<path d="M455,133h 2" fill="none" stroke="#ff0099"/>
<g stroke="#ff0099" stroke-width="1" fill="#ff0099">
<circle cx=" 454" cy=" 133" r=" 1.5"/>
</g>
<path d="M457,125h 3" fill="none" stroke="#ff0099"/>
<path d="M462,125h 3" fill="none" stroke="#ff0099"/>
<g stroke="#ff0099" stroke-width="1" fill="#ff0099">
<circle cx=" 461" cy=" 125" r=" 1.5"/>
</g>
<path d="M465,119h 3" fill="none" stroke="#ff0099"/>
<path d="M470,119h 2" fill="none" stroke="#ff0099"/>
<g stroke="#ff0099" stroke-width="1" fill="#ff0099">
<circle cx=" 469" cy=" 119" r=" 1.5"/>
</g>
<path d="M472,107h 3" fill="none" stroke="#ff0099"/>
<path d="M477,107h 3" fill="none" stroke="#ff0099"/>
<g stroke="#ff0099" stroke-width="1" fill="#ff0099">
<circle cx=" 476" cy=" 107" r=" 1.5"/>
</g>
<path d="M480,92h 3" fill="none" stroke="#ff0099"/>
<path d="M485,92h 3" fill="none" stroke="#ff0099"/>
<g stroke="#ff0099" stroke-width="1" fill="#ff0099">
<circle cx=" 484" cy=" 92" r=" 1.5"/>
</g>
<path d="M488,73h 2" fill="none" stroke="#ff0099"/>
<path d="M492,73h 3" fill="none" stroke="#ff0099"/>
<g stroke="#ff0099" stroke-width="1" fill="#ff0099">
<circle cx=" 491" cy=" 73" r=" 1.5"/>
</g>
<path d="M495,68h 3" fill="none" stroke="#ff0099"/>
<path d="M500,68h 3" fill="none" stroke="#ff0099"/>
<g stroke="#ff0099" stroke-width="1" fill="#ff0099">
<circle cx=" 499" cy=" 68" r=" 1.5"/>
</g>
<path d="M506,224v -4" fill="none" stroke="#ff0099"/>
<path d="M506,218v -3" fill="none" stroke="#ff0099"/>
<path d="M503,219h 2" fill="none" stroke="#ff0099"/>
<path d="M508,219h 2" fill="none" stroke="#ff0099"/>
<g stroke="#ff0099" stroke-width="1" fill="#ff0099">
<circle cx=" 506" cy=" 219" r=" 1.5"/>
</g>
<path d="M57,312h 453" fill="none" stroke="black"/>
<text x="437" y="338" fill="black" font-size="13" font-family="Helvetica" font-weight="bold">
R=0.3 (GeV)
</text>
<text x="429" y="338" fill="black" font-size="13" font-family="Times">
&#0916;
</text>
<text x="360" y="338" fill="black" font-size="13" font-family="Helvetica" font-weight="bold">
R9 Photon 
</text>
<path d="M57,304v 8" fill="none" stroke="black"/>
<path d="M66,308v 4" fill="none" stroke="black"/>
<path d="M75,308v 4" fill="none" stroke="black"/>
<path d="M84,308v 4" fill="none" stroke="black"/>
<path d="M93,308v 4" fill="none" stroke="black"/>
<path d="M102,304v 8" fill="none" stroke="black"/>
<path d="M111,308v 4" fill="none" stroke="black"/>
<path d="M120,308v 4" fill="none" stroke="black"/>
<path d="M129,308v 4" fill="none" stroke="black"/>
<path d="M138,308v 4" fill="none" stroke="black"/>
<path d="M147,304v 8" fill="none" stroke="black"/>
<path d="M156,308v 4" fill="none" stroke="black"/>
<path d="M166,308v 4" fill="none" stroke="black"/>
<path d="M175,308v 4" fill="none" stroke="black"/>
<path d="M184,308v 4" fill="none" stroke="black"/>
<path d="M193,304v 8" fill="none" stroke="black"/>
<path d="M202,308v 4" fill="none" stroke="black"/>
<path d="M211,308v 4" fill="none" stroke="black"/>
<path d="M220,308v 4" fill="none" stroke="black"/>
<path d="M229,308v 4" fill="none" stroke="black"/>
<path d="M238,304v 8" fill="none" stroke="black"/>
<path d="M247,308v 4" fill="none" stroke="black"/>
<path d="M256,308v 4" fill="none" stroke="black"/>
<path d="M265,308v 4" fill="none" stroke="black"/>
<path d="M274,308v 4" fill="none" stroke="black"/>
<path d="M283,304v 8" fill="none" stroke="black"/>
<path d="M293,308v 4" fill="none" stroke="black"/>
<path d="M302,308v 4" fill="none" stroke="black"/>
<path d="M311,308v 4" fill="none" stroke="black"/>
<path d="M320,308v 4" fill="none" stroke="black"/>
<path d="M329,304v 8" fill="none" stroke="black"/>
<path d="M338,308v 4" fill="none" stroke="black"/>
<path d="M347,308v 4" fill="none" stroke="black"/>
<path d="M356,308v 4" fill="none" stroke="black"/>
<path d="M365,308v 4" fill="none" stroke="black"/>
<path d="M374,304v 8" fill="none" stroke="black"/>
<path d="M383,308v 4" fill="none" stroke="black"/>
<path d="M392,308v 4" fill="none" stroke="black"/>
<path d="M401,308v 4" fill="none" stroke="black"/>
<path d="M410,308v 4" fill="none" stroke="black"/>
<path d="M420,304v 8" fill="none" stroke="black"/>
<path d="M429,308v 4" fill="none" stroke="black"/>
<path d="M438,308v 4" fill="none" stroke="black"/>
<path d="M447,308v 4" fill="none" stroke="black"/>
<path d="M456,308v 4" fill="none" stroke="black"/>
<path d="M465,304v 8" fill="none" stroke="black"/>
<path d="M474,308v 4" fill="none" stroke="black"/>
<path d="M483,308v 4" fill="none" stroke="black"/>
<path d="M492,308v 4" fill="none" stroke="black"/>
<path d="M501,308v 4" fill="none" stroke="black"/>
<path d="M510,304v 8" fill="none" stroke="black"/>
<text x="53" y="325" fill="black" font-size="13" font-family="Helvetica" font-weight="bold">
0
</text>
<text x="93" y="325" fill="black" font-size="13" font-family="Helvetica" font-weight="bold">
0.1
</text>
<text x="138" y="325" fill="black" font-size="13" font-family="Helvetica" font-weight="bold">
0.2
</text>
<text x="183" y="325" fill="black" font-size="13" font-family="Helvetica" font-weight="bold">
0.3
</text>
<text x="229" y="325" fill="black" font-size="13" font-family="Helvetica" font-weight="bold">
0.4
</text>
<text x="274" y="325" fill="black" font-size="13" font-family="Helvetica" font-weight="bold">
0.5
</text>
<text x="319" y="325" fill="black" font-size="13" font-family="Helvetica" font-weight="bold">
0.6
</text>
<text x="365" y="325" fill="black" font-size="13" font-family="Helvetica" font-weight="bold">
0.7
</text>
<text x="410" y="325" fill="black" font-size="13" font-family="Helvetica" font-weight="bold">
0.8
</text>
<text x="455" y="325" fill="black" font-size="13" font-family="Helvetica" font-weight="bold">
0.9
</text>
<text x="507" y="325" fill="black" font-size="13" font-family="Helvetica" font-weight="bold">
1
</text>
<path d="M57,312v -278" fill="none" stroke="black"/>
<g transform="rotate(-90,28,187)">
<text x="28" y="187" fill="black" font-size="13" font-family="Helvetica" font-weight="bold">
Entries/0.0166666666667
</text>
</g>
<path d="M63,308h -6" fill="none" stroke="black"/>
<path d="M63,300h -6" fill="none" stroke="black"/>
<path d="M63,294h -6" fill="none" stroke="black"/>
<path d="M63,290h -6" fill="none" stroke="black"/>
<path d="M63,286h -6" fill="none" stroke="black"/>
<path d="M63,283h -6" fill="none" stroke="black"/>
<path d="M63,281h -6" fill="none" stroke="black"/>
<path d="M63,278h -6" fill="none" stroke="black"/>
<path d="M70,276h -13" fill="none" stroke="black"/>
<text x="44" y="275" fill="black" font-size="9" font-family="Helvetica" font-weight="bold">
-5
</text>
<text x="30" y="282" fill="black" font-size="13" font-family="Helvetica" font-weight="bold">
10
</text>
<path d="M63,263h -6" fill="none" stroke="black"/>
<path d="M63,255h -6" fill="none" stroke="black"/>
<path d="M63,249h -6" fill="none" stroke="black"/>
<path d="M63,245h -6" fill="none" stroke="black"/>
<path d="M63,241h -6" fill="none" stroke="black"/>
<path d="M63,238h -6" fill="none" stroke="black"/>
<path d="M63,235h -6" fill="none" stroke="black"/>
<path d="M63,233h -6" fill="none" stroke="black"/>
<path d="M70,231h -13" fill="none" stroke="black"/>
<text x="44" y="231" fill="black" font-size="9" font-family="Helvetica" font-weight="bold">
-4
</text>
<text x="30" y="237" fill="black" font-size="13" font-family="Helvetica" font-weight="bold">
10
</text>
<path d="M63,217h -6" fill="none" stroke="black"/>
<path d="M63,209h -6" fill="none" stroke="black"/>
<path d="M63,204h -6" fill="none" stroke="black"/>
<path d="M63,199h -6" fill="none" stroke="black"/>
<path d="M63,196h -6" fill="none" stroke="black"/>
<path d="M63,193h -6" fill="none" stroke="black"/>
<path d="M63,190h -6" fill="none" stroke="black"/>
<path d="M63,188h -6" fill="none" stroke="black"/>
<path d="M70,186h -13" fill="none" stroke="black"/>
<text x="44" y="185" fill="black" font-size="9" font-family="Helvetica" font-weight="bold">
-3
</text>
<text x="30" y="191" fill="black" font-size="13" font-family="Helvetica" font-weight="bold">
10
</text>
<path d="M63,172h -6" fill="none" stroke="black"/>
<path d="M63,164h -6" fill="none" stroke="black"/>
<path d="M63,158h -6" fill="none" stroke="black"/>
<path d="M63,154h -6" fill="none" stroke="black"/>
<path d="M63,150h -6" fill="none" stroke="black"/>
<path d="M63,147h -6" fill="none" stroke="black"/>
<path d="M63,145h -6" fill="none" stroke="black"/>
<path d="M63,142h -6" fill="none" stroke="black"/>
<path d="M70,140h -13" fill="none" stroke="black"/>
<text x="44" y="140" fill="black" font-size="9" font-family="Helvetica" font-weight="bold">
-2
</text>
<text x="30" y="146" fill="black" font-size="13" font-family="Helvetica" font-weight="bold">
10
</text>
<path d="M63,127h -6" fill="none" stroke="black"/>
<path d="M63,119h -6" fill="none" stroke="black"/>
<path d="M63,113h -6" fill="none" stroke="black"/>
<path d="M63,109h -6" fill="none" stroke="black"/>
<path d="M63,105h -6" fill="none" stroke="black"/>
<path d="M63,102h -6" fill="none" stroke="black"/>
<path d="M63,99h -6" fill="none" stroke="black"/>
<path d="M63,97h -6" fill="none" stroke="black"/>
<path d="M70,95h -13" fill="none" stroke="black"/>
<text x="46" y="95" fill="black" font-size="9" font-family="Helvetica" font-weight="bold">
-1
</text>
<text x="31" y="101" fill="black" font-size="13" font-family="Helvetica" font-weight="bold">
10
</text>
<path d="M63,81h -6" fill="none" stroke="black"/>
<path d="M63,73h -6" fill="none" stroke="black"/>
<path d="M63,68h -6" fill="none" stroke="black"/>
<path d="M63,63h -6" fill="none" stroke="black"/>
<path d="M63,60h -6" fill="none" stroke="black"/>
<path d="M63,57h -6" fill="none" stroke="black"/>
<path d="M63,54h -6" fill="none" stroke="black"/>
<path d="M63,52h -6" fill="none" stroke="black"/>
<path d="M70,50h -13" fill="none" stroke="black"/>
<text x="52" y="56" text-anchor="end" fill="black" font-size="13" font-family="Helvetica" font-weight="bold">
1
</text>
<path d="M63,36h -6" fill="none" stroke="black"/>
<path d="M242,312v -12" fill="none" stroke="#99ff99" stroke-width="2"/>
<path d="M242,300v -13" fill="none" stroke="#99ff99" stroke-width="2"/>
<g stroke="black" stroke-width="2" fill="none">
<line x1="241" y1="300" x2="242" y2="300"/>
</g>
<path d="M280,312v -10" fill="none" stroke="#99ff99" stroke-width="2"/>
<path d="M280,302v -13" fill="none" stroke="#99ff99" stroke-width="2"/>
<g stroke="black" stroke-width="2" fill="none">
<line x1="279" y1="302" x2="280" y2="302"/>
</g>
<path d="M287,312v -10" fill="none" stroke="#99ff99" stroke-width="2"/>
<path d="M287,302v -13" fill="none" stroke="#99ff99" stroke-width="2"/>
<g stroke="black" stroke-width="2" fill="none">
<line x1="286" y1="302" x2="287" y2="302"/>
</g>
<path d="M310,312v -21" fill="none" stroke="#99ff99" stroke-width="2"/>
<path d="M310,291v -11" fill="none" stroke="#99ff99" stroke-width="2"/>
<g stroke="black" stroke-width="2" fill="none">
<line x1="309" y1="291" x2="310" y2="291"/>
</g>
<path d="M333,301v -16" fill="none" stroke="#99ff99" stroke-width="2"/>
<path d="M333,285v -9" fill="none" stroke="#99ff99" stroke-width="2"/>
<g stroke="black" stroke-width="2" fill="none">
<line x1="332" y1="285" x2="333" y2="285"/>
</g>
<path d="M340,312v -8" fill="none" stroke="#99ff99" stroke-width="2"/>
<path d="M340,304v -14" fill="none" stroke="#99ff99" stroke-width="2"/>
<g stroke="black" stroke-width="2" fill="none">
<line x1="339" y1="304" x2="340" y2="304"/>
</g>
<path d="M348,303v -32" fill="none" stroke="#99ff99" stroke-width="2"/>
<path d="M348,271v -12" fill="none" stroke="#99ff99" stroke-width="2"/>
<g stroke="black" stroke-width="2" fill="none">
<line x1="347" y1="271" x2="348" y2="271"/>
</g>
<path d="M355,288v -14" fill="none" stroke="#99ff99" stroke-width="2"/>
<path d="M355,274v -8" fill="none" stroke="#99ff99" stroke-width="2"/>
<g stroke="black" stroke-width="2" fill="none">
<line x1="354" y1="274" x2="355" y2="274"/>
</g>
<path d="M363,260v -10" fill="none" stroke="#99ff99" stroke-width="2"/>
<path d="M363,250v -6" fill="none" stroke="#99ff99" stroke-width="2"/>
<g stroke="black" stroke-width="2" fill="none">
<line x1="362" y1="250" x2="363" y2="250"/>
</g>
<path d="M370,267v -11" fill="none" stroke="#99ff99" stroke-width="2"/>
<path d="M370,256v -7" fill="none" stroke="#99ff99" stroke-width="2"/>
<g stroke="black" stroke-width="2" fill="none">
<line x1="369" y1="256" x2="370" y2="256"/>
</g>
<path d="M378,242v -12" fill="none" stroke="#99ff99" stroke-width="2"/>
<path d="M378,230v -7" fill="none" stroke="#99ff99" stroke-width="2"/>
<g stroke="black" stroke-width="2" fill="none">
<line x1="377" y1="230" x2="378" y2="230"/>
</g>
<path d="M386,241v -7" fill="none" stroke="#99ff99" stroke-width="2"/>
<path d="M386,234v -5" fill="none" stroke="#99ff99" stroke-width="2"/>
<g stroke="black" stroke-width="2" fill="none">
<line x1="385" y1="234" x2="386" y2="234"/>
</g>
<path d="M393,232v -6" fill="none" stroke="#99ff99" stroke-width="2"/>
<path d="M393,226v -5" fill="none" stroke="#99ff99" stroke-width="2"/>
<g stroke="black" stroke-width="2" fill="none">
<line x1="392" y1="226" x2="393" y2="226"/>
</g>
<path d="M401,222v -4" fill="none" stroke="#99ff99" stroke-width="2"/>
<path d="M401,218v -3" fill="none" stroke="#99ff99" stroke-width="2"/>
<g stroke="black" stroke-width="2" fill="none">
<line x1="400" y1="218" x2="401" y2="218"/>
</g>
<path d="M408,215v -3" fill="none" stroke="#99ff99" stroke-width="2"/>
<path d="M408,212v -3" fill="none" stroke="#99ff99" stroke-width="2"/>
<g stroke="black" stroke-width="2" fill="none">
<line x1="407" y1="212" x2="408" y2="212"/>
</g>
<path d="M416,205v -2" fill="none" stroke="#99ff99" stroke-width="2"/>
<path d="M416,203v -2" fill="none" stroke="#99ff99" stroke-width="2"/>
<g stroke="black" stroke-width="2" fill="none">
<line x1="415" y1="203" x2="416" y2="203"/>
</g>
<path d="M423,193v -1" fill="none" stroke="#99ff99" stroke-width="2"/>
<path d="M423,192v -2" fill="none" stroke="#99ff99" stroke-width="2"/>
<g stroke="black" stroke-width="2" fill="none">
<line x1="422" y1="192" x2="423" y2="192"/>
</g>
<path d="M431,183v -1" fill="none" stroke="#99ff99" stroke-width="2"/>
<path d="M431,182v -1" fill="none" stroke="#99ff99" stroke-width="2"/>
<g stroke="black" stroke-width="2" fill="none">
<line x1="430" y1="182" x2="431" y2="182"/>
</g>
<path d="M438,172v -1" fill="none" stroke="#99ff99" stroke-width="2"/>
<path d="M438,171v -1" fill="none" stroke="#99ff99" stroke-width="2"/>
<g stroke="black" stroke-width="2" fill="none">
<line x1="437" y1="171" x2="438" y2="171"/>
</g>
<path d="M446,162v -1" fill="none" stroke="#99ff99" stroke-width="2"/>
<path d="M446,161v -1" fill="none" stroke="#99ff99" stroke-width="2"/>
<g stroke="black" stroke-width="2" fill="none">
<line x1="445" y1="161" x2="446" y2="161"/>
</g>
<path d="M454,149" fill="none" stroke="#99ff99" stroke-width="2"/>
<path d="M454,149v -1" fill="none" stroke="#99ff99" stroke-width="2"/>
<g stroke="black" stroke-width="2" fill="none">
<line x1="453" y1="149" x2="454" y2="149"/>
</g>
<path d="M461,139v -1" fill="none" stroke="#99ff99" stroke-width="2"/>
<path d="M461,138" fill="none" stroke="#99ff99" stroke-width="2"/>
<g stroke="black" stroke-width="2" fill="none">
<line x1="460" y1="138" x2="461" y2="138"/>
</g>
<path d="M469,127" fill="none" stroke="#99ff99" stroke-width="2"/>
<path d="M469,127v -1" fill="none" stroke="#99ff99" stroke-width="2"/>
<g stroke="black" stroke-width="2" fill="none">
<line x1="468" y1="127" x2="469" y2="127"/>
</g>
<path d="M476,115v -1" fill="none" stroke="#99ff99" stroke-width="2"/>
<path d="M476,114" fill="none" stroke="#99ff99" stroke-width="2"/>
<g stroke="black" stroke-width="2" fill="none">
<line x1="475" y1="114" x2="476" y2="114"/>
</g>
<path d="M484,99" fill="none" stroke="#99ff99" stroke-width="2"/>
<path d="M484,99v -1" fill="none" stroke="#99ff99" stroke-width="2"/>
<g stroke="black" stroke-width="2" fill="none">
<line x1="483" y1="99" x2="484" y2="99"/>
</g>
<path d="M491,81v -1" fill="none" stroke="#99ff99" stroke-width="2"/>
<path d="M491,80" fill="none" stroke="#99ff99" stroke-width="2"/>
<g stroke="black" stroke-width="2" fill="none">
<line x1="490" y1="80" x2="491" y2="80"/>
</g>
<path d="M499,59" fill="none" stroke="#99ff99" stroke-width="2"/>
<path d="M499,59" fill="none" stroke="#99ff99" stroke-width="2"/>
<g stroke="black" stroke-width="2" fill="none">
<line x1="498" y1="59" x2="499" y2="59"/>
</g>
<path d="M506,130v -1" fill="none" stroke="#99ff99" stroke-width="2"/>
<path d="M506,129" fill="none" stroke="#99ff99" stroke-width="2"/>
<g stroke="black" stroke-width="2" fill="none">
<line x1="505" y1="129" x2="506" y2="129"/>
</g>
<path d="M57,312h 181v -12h 8v 12h 30v -10h 15v 10h 15v -21h 8v 21h 15v -27h 7v 19h 8v -33h 7v 3h 8v -24h 8v 6h 7v -26h 8v 4h 7v -8h 8v -8h 7v -6h 8v -9h 8v -11h 7v -10h 8v -11h 7v -10h 8v -12h 7v -11h 8v -11h 7v -13h 8v -15h 8v -19h 7v -21h 8v 70h
 7v 183z" fill="#99ff99"/>
<path d="M57,312h 181v -12h 8v 12h 30v -10h 15v 10h 15v -21h 8v 21h 15v -27h 7v 19h 8v -33h 7v 3h 8v -24h 8v 6h 7v -26h 8v 4h 7v -8h 8v -8h 7v -6h 8v -9h 8v -11h 7v -10h 8v -11h 7v -10h 8v -12h 7v -11h 8v -11h 7v -13h 8v -15h 8v -19h 7v -21h 8v 70h
 7" fill="none" stroke="#99ff99" stroke-width="2"/>
<path d="M265,268v -18" fill="none" stroke="#ff0099"/>
<path d="M265,248v -9" fill="none" stroke="#ff0099"/>
<path d="M261,249h 2" fill="none" stroke="#ff0099"/>
<path d="M266,249h 2" fill="none" stroke="#ff0099"/>
<g stroke="#ff0099" stroke-width="1" fill="#ff0099">
<circle cx=" 265" cy=" 249" r=" 1.5"/>
</g>
<path d="M295,272v -12" fill="none" stroke="#ff0099"/>
<path d="M295,258v -7" fill="none" stroke="#ff0099"/>
<path d="M291,259h 3" fill="none" stroke="#ff0099"/>
<path d="M296,259h 3" fill="none" stroke="#ff0099"/>
<g stroke="#ff0099" stroke-width="1" fill="#ff0099">
<circle cx=" 295" cy=" 259" r=" 1.5"/>
</g>
<path d="M302,220v -5" fill="none" stroke="#ff0099"/>
<path d="M302,213v -4" fill="none" stroke="#ff0099"/>
<path d="M299,214h 2" fill="none" stroke="#ff0099"/>
<path d="M304,214h 2" fill="none" stroke="#ff0099"/>
<g stroke="#ff0099" stroke-width="1" fill="#ff0099">
<circle cx=" 302" cy=" 214" r=" 1.5"/>
</g>
<path d="M310,222v -7" fill="none" stroke="#ff0099"/>
<path d="M310,213v -5" fill="none" stroke="#ff0099"/>
<path d="M306,214h 3" fill="none" stroke="#ff0099"/>
<path d="M311,214h 3" fill="none" stroke="#ff0099"/>
<g stroke="#ff0099" stroke-width="1" fill="#ff0099">
<circle cx=" 310" cy=" 214" r=" 1.5"/>
</g>
<path d="M317,225v -7" fill="none" stroke="#ff0099"/>
<path d="M317,215v -4" fill="none" stroke="#ff0099"/>
<path d="M314,217h 2" fill="none" stroke="#ff0099"/>
<path d="M319,217h 2" fill="none" stroke="#ff0099"/>
<g stroke="#ff0099" stroke-width="1" fill="#ff0099">
<circle cx=" 317" cy=" 217" r=" 1.5"/>
</g>
<path d="M325,177v -5" fill="none" stroke="#ff0099"/>
<path d="M325,170v -3" fill="none" stroke="#ff0099"/>
<path d="M321,171h 3" fill="none" stroke="#ff0099"/>
<path d="M326,171h 3" fill="none" stroke="#ff0099"/>
<g stroke="#ff0099" stroke-width="1" fill="#ff0099">
<circle cx=" 325" cy=" 171" r=" 1.5"/>
</g>
<path d="M333,202v -4" fill="none" stroke="#ff0099"/>
<path d="M333,196v -3" fill="none" stroke="#ff0099"/>
<path d="M329,197h 2" fill="none" stroke="#ff0099"/>
<path d="M334,197h 2" fill="none" stroke="#ff0099"/>
<g stroke="#ff0099" stroke-width="1" fill="#ff0099">
<circle cx=" 333" cy=" 197" r=" 1.5"/>
</g>
<path d="M340,176v -3" fill="none" stroke="#ff0099"/>
<path d="M340,171v -2" fill="none" stroke="#ff0099"/>
<path d="M336,172h 3" fill="none" stroke="#ff0099"/>
<path d="M341,172h 3" fill="none" stroke="#ff0099"/>
<g stroke="#ff0099" stroke-width="1" fill="#ff0099">
<circle cx=" 340" cy=" 172" r=" 1.5"/>
</g>
<path d="M348,186v -4" fill="none" stroke="#ff0099"/>
<path d="M348,179v -3" fill="none" stroke="#ff0099"/>
<path d="M344,180h 3" fill="none" stroke="#ff0099"/>
<path d="M349,180h 2" fill="none" stroke="#ff0099"/>
<g stroke="#ff0099" stroke-width="1" fill="#ff0099">
<circle cx=" 348" cy=" 180" r=" 1.5"/>
</g>
<path d="M355,173v -2" fill="none" stroke="#ff0099"/>
<path d="M355,169v -2" fill="none" stroke="#ff0099"/>
<path d="M351,170h 3" fill="none" stroke="#ff0099"/>
<path d="M356,170h 3" fill="none" stroke="#ff0099"/>
<g stroke="#ff0099" stroke-width="1" fill="#ff0099">
<circle cx=" 355" cy=" 170" r=" 1.5"/>
</g>
<path d="M363,176v -3" fill="none" stroke="#ff0099"/>
<path d="M363,171v -3" fill="none" stroke="#ff0099"/>
<path d="M359,172h 3" fill="none" stroke="#ff0099"/>
<path d="M364,172h 3" fill="none" stroke="#ff0099"/>
<g stroke="#ff0099" stroke-width="1" fill="#ff0099">
<circle cx=" 363" cy=" 172" r=" 1.5"/>
</g>
<path d="M370,163v -2" fill="none" stroke="#ff0099"/>
<path d="M370,159v -2" fill="none" stroke="#ff0099"/>
<path d="M367,160h 2" fill="none" stroke="#ff0099"/>
<path d="M372,160h 2" fill="none" stroke="#ff0099"/>
<g stroke="#ff0099" stroke-width="1" fill="#ff0099">
<circle cx=" 370" cy=" 160" r=" 1.5"/>
</g>
<path d="M378,172v -3" fill="none" stroke="#ff0099"/>
<path d="M378,167v -2" fill="none" stroke="#ff0099"/>
<path d="M374,168h 3" fill="none" stroke="#ff0099"/>
<path d="M379,168h 3" fill="none" stroke="#ff0099"/>
<g stroke="#ff0099" stroke-width="1" fill="#ff0099">
<circle cx=" 378" cy=" 168" r=" 1.5"/>
</g>
<path d="M386,163v -2" fill="none" stroke="#ff0099"/>
<path d="M386,159v -1" fill="none" stroke="#ff0099"/>
<path d="M382,160h 2" fill="none" stroke="#ff0099"/>
<path d="M387,160h 2" fill="none" stroke="#ff0099"/>
<g stroke="#ff0099" stroke-width="1" fill="#ff0099">
<circle cx=" 386" cy=" 160" r=" 1.5"/>
</g>
<path d="M393,153v -1" fill="none" stroke="#ff0099"/>
<path d="M393,150v -1" fill="none" stroke="#ff0099"/>
<path d="M389,151h 3" fill="none" stroke="#ff0099"/>
<path d="M394,151h 3" fill="none" stroke="#ff0099"/>
<g stroke="#ff0099" stroke-width="1" fill="#ff0099">
<circle cx=" 393" cy=" 151" r=" 1.5"/>
</g>
<path d="M401,156v -2" fill="none" stroke="#ff0099"/>
<path d="M401,152v -1" fill="none" stroke="#ff0099"/>
<path d="M397,153h 2" fill="none" stroke="#ff0099"/>
<path d="M402,153h 2" fill="none" stroke="#ff0099"/>
<g stroke="#ff0099" stroke-width="1" fill="#ff0099">
<circle cx=" 401" cy=" 153" r=" 1.5"/>
</g>
<path d="M408,153v -1" fill="none" stroke="#ff0099"/>
<path d="M408,150v -1" fill="none" stroke="#ff0099"/>
<path d="M404,151h 3" fill="none" stroke="#ff0099"/>
<path d="M409,151h 3" fill="none" stroke="#ff0099"/>
<g stroke="#ff0099" stroke-width="1" fill="#ff0099">
<circle cx=" 408" cy=" 151" r=" 1.5"/>
</g>
<path d="M416,149v -1" fill="none" stroke="#ff0099"/>
<path d="M416,146v -1" fill="none" stroke="#ff0099"/>
<path d="M412,147h 3" fill="none" stroke="#ff0099"/>
<path d="M417,147h 3" fill="none" stroke="#ff0099"/>
<g stroke="#ff0099" stroke-width="1" fill="#ff0099">
<circle cx=" 416" cy=" 147" r=" 1.5"/>
</g>
<path d="M423,150v -1" fill="none" stroke="#ff0099"/>
<path d="M423,147v -1" fill="none" stroke="#ff0099"/>
<path d="M420,148h 2" fill="none" stroke="#ff0099"/>
<path d="M424,148h 3" fill="none" stroke="#ff0099"/>
<g stroke="#ff0099" stroke-width="1" fill="#ff0099">
<circle cx=" 423" cy=" 148" r=" 1.5"/>
</g>
<path d="M431,142" fill="none" stroke="#ff0099"/>
<path d="M431,140v -1" fill="none" stroke="#ff0099"/>
<path d="M427,141h 3" fill="none" stroke="#ff0099"/>
<path d="M432,141h 3" fill="none" stroke="#ff0099"/>
<g stroke="#ff0099" stroke-width="1" fill="#ff0099">
<circle cx=" 431" cy=" 141" r=" 1.5"/>
</g>
<path d="M438,141v -1" fill="none" stroke="#ff0099"/>
<path d="M438,138" fill="none" stroke="#ff0099"/>
<path d="M435,139h 2" fill="none" stroke="#ff0099"/>
<path d="M440,139h 2" fill="none" stroke="#ff0099"/>
<g stroke="#ff0099" stroke-width="1" fill="#ff0099">
<circle cx=" 438" cy=" 139" r=" 1.5"/>
</g>
<path d="M446,137" fill="none" stroke="#ff0099"/>
<path d="M446,134" fill="none" stroke="#ff0099"/>
<path d="M442,136h 3" fill="none" stroke="#ff0099"/>
<path d="M447,136h 3" fill="none" stroke="#ff0099"/>
<g stroke="#ff0099" stroke-width="1" fill="#ff0099">
<circle cx=" 446" cy=" 136" r=" 1.5"/>
</g>
<path d="M450,133h 2" fill="none" stroke="#ff0099"/>
<path d="M455,133h 2" fill="none" stroke="#ff0099"/>
<g stroke="#ff0099" stroke-width="1" fill="#ff0099">
<circle cx=" 454" cy=" 133" r=" 1.5"/>
</g>
<path d="M457,125h 3" fill="none" stroke="#ff0099"/>
<path d="M462,125h 3" fill="none" stroke="#ff0099"/>
<g stroke="#ff0099" stroke-width="1" fill="#ff0099">
<circle cx=" 461" cy=" 125" r=" 1.5"/>
</g>
<path d="M465,119h 3" fill="none" stroke="#ff0099"/>
<path d="M470,119h 2" fill="none" stroke="#ff0099"/>
<g stroke="#ff0099" stroke-width="1" fill="#ff0099">
<circle cx=" 469" cy=" 119" r=" 1.5"/>
</g>
<path d="M472,107h 3" fill="none" stroke="#ff0099"/>
<path d="M477,107h 3" fill="none" stroke="#ff0099"/>
<g stroke="#ff0099" stroke-width="1" fill="#ff0099">
<circle cx=" 476" cy=" 107" r=" 1.5"/>
</g>
<path d="M480,92h 3" fill="none" stroke="#ff0099"/>
<path d="M485,92h 3" fill="none" stroke="#ff0099"/>
<g stroke="#ff0099" stroke-width="1" fill="#ff0099">
<circle cx=" 484" cy=" 92" r=" 1.5"/>
</g>
<path d="M488,73h 2" fill="none" stroke="#ff0099"/>
<path d="M492,73h 3" fill="none" stroke="#ff0099"/>
<g stroke="#ff0099" stroke-width="1" fill="#ff0099">
<circle cx=" 491" cy=" 73" r=" 1.5"/>
</g>
<path d="M495,68h 3" fill="none" stroke="#ff0099"/>
<path d="M500,68h 3" fill="none" stroke="#ff0099"/>
<g stroke="#ff0099" stroke-width="1" fill="#ff0099">
<circle cx=" 499" cy=" 68" r=" 1.5"/>
</g>
<path d="M506,224v -4" fill="none" stroke="#ff0099"/>
<path d="M506,218v -3" fill="none" stroke="#ff0099"/>
<path d="M503,219h 2" fill="none" stroke="#ff0099"/>
<path d="M508,219h 2" fill="none" stroke="#ff0099"/>
<g stroke="#ff0099" stroke-width="1" fill="#ff0099">
<circle cx=" 506" cy=" 219" r=" 1.5"/>
</g>
<rect x="357" y="41" width="142" height="70" fill="white"/>
<text x="360" y="58" fill="black" font-size="12" font-family="Helvetica" font-weight="bold">
EE
</text>
<text x="439" y="81" fill="black" font-size="12" font-family="Helvetica" font-weight="bold">
 ee
</text>
<text x="426" y="81" fill="black" font-size="12" font-family="Times">
&#8594;
</text>
<text x="392" y="81" fill="black" font-size="12" font-family="Helvetica" font-weight="bold">
MC Z 
</text>
<path d="M362,76h 25" fill="none" stroke="#ff0099"/>
<g stroke="#ff0099" stroke-width="1" fill="#ff0099">
<circle cx=" 375" cy=" 76" r=" 1.5"/>
</g>
<text x="438" y="102" fill="black" font-size="12" font-family="Helvetica" font-weight="bold">
 + jet
</text>
<text x="431" y="102" fill="black" font-size="12" font-family="Times">
&#0947;
</text>
<text x="392" y="102" fill="black" font-size="12" font-family="Helvetica" font-weight="bold">
signal 
</text>
<path d="M362,107h 25v -16h -25z" fill="#99ff99"/>
<path d="M362,91h 25" fill="none" stroke="#99ff99" stroke-width="2"/>
<path d="M362,107h 25" fill="none" stroke="#99ff99" stroke-width="2"/>
<path d="M387,107v -16" fill="none" stroke="#99ff99" stroke-width="2"/>
<path d="M362,107v -16" fill="none" stroke="#99ff99" stroke-width="2"/>
<text x="252" y="24" fill="black" font-size="12" font-family="Helvetica" font-weight="bold">
=8 TeV
</text>
<text x="246" y="24" fill="black" font-size="12" font-family="Helvetica" font-weight="bold">
s
</text>
<path d="M242,17l 1, 8" fill="none" stroke="black" stroke-width="2"/>
<path d="M243,25l 2, -11" fill="none" stroke="black"/>
<path d="M245,14h 7" fill="none" stroke="black"/>
<text x="142" y="24" fill="black" font-size="12" font-family="Helvetica" font-weight="bold">
CMS Preliminary 
</text>
<rect x="0" y="347" width="567" height="149" fill="white"/>
<rect x="57" y="362" width="453" height="104" fill="white"/>
<rect x="57" y="362" width="453" height="104" fill="none" stroke="black"/>
<rect x="57" y="362" width="453" height="104" fill="white"/>
<rect x="57" y="362" width="453" height="104" fill="none" stroke="black"/>
<path d="M57,466h 453" fill="none" stroke="black"/>
<path d="M57,466v -104" fill="none" stroke="black"/>
<path d="M510,455h -453" fill="none" stroke="black" stroke-dasharray=" 1, 2"/>
<path d="M510,436h -453" fill="none" stroke="black" stroke-dasharray=" 1, 2"/>
<path d="M510,418h -453" fill="none" stroke="black" stroke-dasharray=" 1, 2"/>
<path d="M510,399h -453" fill="none" stroke="black" stroke-dasharray=" 1, 2"/>
<path d="M510,381h -453" fill="none" stroke="black" stroke-dasharray=" 1, 2"/>
<path d="M510,362h -453" fill="none" stroke="black" stroke-dasharray=" 1, 2"/>
<path d="M510,455h -453" fill="none" stroke="black" stroke-dasharray=" 1, 2"/>
<path d="M454,396v -4" fill="none" stroke="#ff0099"/>
<path d="M454,389v -4" fill="none" stroke="#ff0099"/>
<path d="M450,390h 2" fill="none" stroke="#ff0099"/>
<path d="M455,390h 2" fill="none" stroke="#ff0099"/>
<g stroke="#ff0099" stroke-width="1" fill="#ff0099">
<circle cx=" 454" cy=" 390" r=" 1.5"/>
</g>
<path d="M461,404v -2" fill="none" stroke="#ff0099"/>
<path d="M461,399v -2" fill="none" stroke="#ff0099"/>
<path d="M457,401h 3" fill="none" stroke="#ff0099"/>
<path d="M462,401h 3" fill="none" stroke="#ff0099"/>
<g stroke="#ff0099" stroke-width="1" fill="#ff0099">
<circle cx=" 461" cy=" 401" r=" 1.5"/>
</g>
<path d="M469,422v -1" fill="none" stroke="#ff0099"/>
<path d="M469,418v -1" fill="none" stroke="#ff0099"/>
<path d="M465,420h 3" fill="none" stroke="#ff0099"/>
<path d="M470,420h 2" fill="none" stroke="#ff0099"/>
<g stroke="#ff0099" stroke-width="1" fill="#ff0099">
<circle cx=" 469" cy=" 420" r=" 1.5"/>
</g>
<path d="M476,423v -1" fill="none" stroke="#ff0099"/>
<path d="M476,420v -1" fill="none" stroke="#ff0099"/>
<path d="M472,421h 3" fill="none" stroke="#ff0099"/>
<path d="M477,421h 3" fill="none" stroke="#ff0099"/>
<g stroke="#ff0099" stroke-width="1" fill="#ff0099">
<circle cx=" 476" cy=" 421" r=" 1.5"/>
</g>
<path d="M484,423" fill="none" stroke="#ff0099"/>
<path d="M484,420" fill="none" stroke="#ff0099"/>
<path d="M480,421h 3" fill="none" stroke="#ff0099"/>
<path d="M485,421h 3" fill="none" stroke="#ff0099"/>
<g stroke="#ff0099" stroke-width="1" fill="#ff0099">
<circle cx=" 484" cy=" 421" r=" 1.5"/>
</g>
<path d="M491,422" fill="none" stroke="#ff0099"/>
<path d="M491,420" fill="none" stroke="#ff0099"/>
<path d="M488,421h 2" fill="none" stroke="#ff0099"/>
<path d="M492,421h 3" fill="none" stroke="#ff0099"/>
<g stroke="#ff0099" stroke-width="1" fill="#ff0099">
<circle cx=" 491" cy=" 421" r=" 1.5"/>
</g>
<path d="M495,450h 3" fill="none" stroke="#ff0099"/>
<path d="M500,450h 3" fill="none" stroke="#ff0099"/>
<g stroke="#ff0099" stroke-width="1" fill="#ff0099">
<circle cx=" 499" cy=" 450" r=" 1.5"/>
</g>
<path d="M57,466h 453" fill="none" stroke="black"/>
<text x="449" y="489" fill="black" font-size="11" font-family="Helvetica" font-weight="bold">
R=0.3 (GeV)
</text>
<text x="442" y="489" fill="black" font-size="11" font-family="Times">
&#0916;
</text>
<text x="386" y="489" fill="black" font-size="11" font-family="Helvetica" font-weight="bold">
R9 Photon 
</text>
<path d="M57,463v 3" fill="none" stroke="black"/>
<path d="M66,464v 2" fill="none" stroke="black"/>
<path d="M75,464v 2" fill="none" stroke="black"/>
<path d="M84,464v 2" fill="none" stroke="black"/>
<path d="M93,464v 2" fill="none" stroke="black"/>
<path d="M102,463v 3" fill="none" stroke="black"/>
<path d="M111,464v 2" fill="none" stroke="black"/>
<path d="M120,464v 2" fill="none" stroke="black"/>
<path d="M129,464v 2" fill="none" stroke="black"/>
<path d="M138,464v 2" fill="none" stroke="black"/>
<path d="M147,463v 3" fill="none" stroke="black"/>
<path d="M156,464v 2" fill="none" stroke="black"/>
<path d="M166,464v 2" fill="none" stroke="black"/>
<path d="M175,464v 2" fill="none" stroke="black"/>
<path d="M184,464v 2" fill="none" stroke="black"/>
<path d="M193,463v 3" fill="none" stroke="black"/>
<path d="M202,464v 2" fill="none" stroke="black"/>
<path d="M211,464v 2" fill="none" stroke="black"/>
<path d="M220,464v 2" fill="none" stroke="black"/>
<path d="M229,464v 2" fill="none" stroke="black"/>
<path d="M238,463v 3" fill="none" stroke="black"/>
<path d="M247,464v 2" fill="none" stroke="black"/>
<path d="M256,464v 2" fill="none" stroke="black"/>
<path d="M265,464v 2" fill="none" stroke="black"/>
<path d="M274,464v 2" fill="none" stroke="black"/>
<path d="M283,463v 3" fill="none" stroke="black"/>
<path d="M293,464v 2" fill="none" stroke="black"/>
<path d="M302,464v 2" fill="none" stroke="black"/>
<path d="M311,464v 2" fill="none" stroke="black"/>
<path d="M320,464v 2" fill="none" stroke="black"/>
<path d="M329,463v 3" fill="none" stroke="black"/>
<path d="M338,464v 2" fill="none" stroke="black"/>
<path d="M347,464v 2" fill="none" stroke="black"/>
<path d="M356,464v 2" fill="none" stroke="black"/>
<path d="M365,464v 2" fill="none" stroke="black"/>
<path d="M374,463v 3" fill="none" stroke="black"/>
<path d="M383,464v 2" fill="none" stroke="black"/>
<path d="M392,464v 2" fill="none" stroke="black"/>
<path d="M401,464v 2" fill="none" stroke="black"/>
<path d="M410,464v 2" fill="none" stroke="black"/>
<path d="M420,463v 3" fill="none" stroke="black"/>
<path d="M429,464v 2" fill="none" stroke="black"/>
<path d="M438,464v 2" fill="none" stroke="black"/>
<path d="M447,464v 2" fill="none" stroke="black"/>
<path d="M456,464v 2" fill="none" stroke="black"/>
<path d="M465,463v 3" fill="none" stroke="black"/>
<path d="M474,464v 2" fill="none" stroke="black"/>
<path d="M483,464v 2" fill="none" stroke="black"/>
<path d="M492,464v 2" fill="none" stroke="black"/>
<path d="M501,464v 2" fill="none" stroke="black"/>
<path d="M510,463v 3" fill="none" stroke="black"/>
<text x="54" y="475" fill="black" font-size="10" font-family="Helvetica" font-weight="bold">
0
</text>
<text x="96" y="475" fill="black" font-size="10" font-family="Helvetica" font-weight="bold">
0.1
</text>
<text x="140" y="475" fill="black" font-size="10" font-family="Helvetica" font-weight="bold">
0.2
</text>
<text x="186" y="475" fill="black" font-size="10" font-family="Helvetica" font-weight="bold">
0.3
</text>
<text x="231" y="475" fill="black" font-size="10" font-family="Helvetica" font-weight="bold">
0.4
</text>
<text x="277" y="475" fill="black" font-size="10" font-family="Helvetica" font-weight="bold">
0.5
</text>
<text x="322" y="475" fill="black" font-size="10" font-family="Helvetica" font-weight="bold">
0.6
</text>
<text x="367" y="475" fill="black" font-size="10" font-family="Helvetica" font-weight="bold">
0.7
</text>
<text x="413" y="475" fill="black" font-size="10" font-family="Helvetica" font-weight="bold">
0.8
</text>
<text x="458" y="475" fill="black" font-size="10" font-family="Helvetica" font-weight="bold">
0.9
</text>
<text x="508" y="475" fill="black" font-size="10" font-family="Helvetica" font-weight="bold">
1
</text>
<path d="M57,466v -104" fill="none" stroke="black"/>
<g transform="rotate(-90,34,365)">
<text x="34" y="365" fill="black" font-size="11" font-family="Helvetica" font-weight="bold">
)
</text>
</g>
<g transform="rotate(-90,34,371)">
<text x="34" y="371" fill="black" font-size="11" font-family="Times">
&#0947;
</text>
</g>
<g transform="rotate(-90,34,424)">
<text x="34" y="424" fill="black" font-size="11" font-family="Helvetica" font-weight="bold">
MC(e)/MC(
</text>
</g>
<path d="M69,455h -12" fill="none" stroke="black"/>
<path d="M63,451h -6" fill="none" stroke="black"/>
<path d="M63,448h -6" fill="none" stroke="black"/>
<path d="M63,444h -6" fill="none" stroke="black"/>
<path d="M63,440h -6" fill="none" stroke="black"/>
<path d="M69,436h -12" fill="none" stroke="black"/>
<path d="M63,433h -6" fill="none" stroke="black"/>
<path d="M63,429h -6" fill="none" stroke="black"/>
<path d="M63,425h -6" fill="none" stroke="black"/>
<path d="M63,422h -6" fill="none" stroke="black"/>
<path d="M69,418h -12" fill="none" stroke="black"/>
<path d="M63,414h -6" fill="none" stroke="black"/>
<path d="M63,410h -6" fill="none" stroke="black"/>
<path d="M63,407h -6" fill="none" stroke="black"/>
<path d="M63,403h -6" fill="none" stroke="black"/>
<path d="M69,399h -12" fill="none" stroke="black"/>
<path d="M63,395h -6" fill="none" stroke="black"/>
<path d="M63,392h -6" fill="none" stroke="black"/>
<path d="M63,388h -6" fill="none" stroke="black"/>
<path d="M63,384h -6" fill="none" stroke="black"/>
<path d="M69,381h -12" fill="none" stroke="black"/>
<path d="M63,377h -6" fill="none" stroke="black"/>
<path d="M63,373h -6" fill="none" stroke="black"/>
<path d="M63,369h -6" fill="none" stroke="black"/>
<path d="M63,366h -6" fill="none" stroke="black"/>
<path d="M69,362h -12" fill="none" stroke="black"/>
<path d="M69,455h -12" fill="none" stroke="black"/>
<path d="M63,459h -6" fill="none" stroke="black"/>
<path d="M63,462h -6" fill="none" stroke="black"/>
<path d="M63,466h -6" fill="none" stroke="black"/>
<text x="40" y="459" fill="black" font-size="10" font-family="Helvetica" font-weight="bold">
0.5
</text>
<text x="50" y="440" fill="black" font-size="10" font-family="Helvetica" font-weight="bold">
1
</text>
<text x="40" y="421" fill="black" font-size="10" font-family="Helvetica" font-weight="bold">
1.5
</text>
<text x="48" y="403" fill="black" font-size="10" font-family="Helvetica" font-weight="bold">
2
</text>
<text x="40" y="384" fill="black" font-size="10" font-family="Helvetica" font-weight="bold">
2.5
</text>
<text x="48" y="366" fill="black" font-size="10" font-family="Helvetica" font-weight="bold">
3
</text>
<path d="M57,436h 453" fill="none" stroke="#0000ff" stroke-width="2"/>
<path d="M454,396v -4" fill="none" stroke="#ff0099"/>
<path d="M454,389v -4" fill="none" stroke="#ff0099"/>
<path d="M450,390h 2" fill="none" stroke="#ff0099"/>
<path d="M455,390h 2" fill="none" stroke="#ff0099"/>
<g stroke="#ff0099" stroke-width="1" fill="#ff0099">
<circle cx=" 454" cy=" 390" r=" 1.5"/>
</g>
<path d="M461,404v -2" fill="none" stroke="#ff0099"/>
<path d="M461,399v -2" fill="none" stroke="#ff0099"/>
<path d="M457,401h 3" fill="none" stroke="#ff0099"/>
<path d="M462,401h 3" fill="none" stroke="#ff0099"/>
<g stroke="#ff0099" stroke-width="1" fill="#ff0099">
<circle cx=" 461" cy=" 401" r=" 1.5"/>
</g>
<path d="M469,422v -1" fill="none" stroke="#ff0099"/>
<path d="M469,418v -1" fill="none" stroke="#ff0099"/>
<path d="M465,420h 3" fill="none" stroke="#ff0099"/>
<path d="M470,420h 2" fill="none" stroke="#ff0099"/>
<g stroke="#ff0099" stroke-width="1" fill="#ff0099">
<circle cx=" 469" cy=" 420" r=" 1.5"/>
</g>
<path d="M476,423v -1" fill="none" stroke="#ff0099"/>
<path d="M476,420v -1" fill="none" stroke="#ff0099"/>
<path d="M472,421h 3" fill="none" stroke="#ff0099"/>
<path d="M477,421h 3" fill="none" stroke="#ff0099"/>
<g stroke="#ff0099" stroke-width="1" fill="#ff0099">
<circle cx=" 476" cy=" 421" r=" 1.5"/>
</g>
<path d="M484,423" fill="none" stroke="#ff0099"/>
<path d="M484,420" fill="none" stroke="#ff0099"/>
<path d="M480,421h 3" fill="none" stroke="#ff0099"/>
<path d="M485,421h 3" fill="none" stroke="#ff0099"/>
<g stroke="#ff0099" stroke-width="1" fill="#ff0099">
<circle cx=" 484" cy=" 421" r=" 1.5"/>
</g>
<path d="M491,422" fill="none" stroke="#ff0099"/>
<path d="M491,420" fill="none" stroke="#ff0099"/>
<path d="M488,421h 2" fill="none" stroke="#ff0099"/>
<path d="M492,421h 3" fill="none" stroke="#ff0099"/>
<g stroke="#ff0099" stroke-width="1" fill="#ff0099">
<circle cx=" 491" cy=" 421" r=" 1.5"/>
</g>
<path d="M495,450h 3" fill="none" stroke="#ff0099"/>
<path d="M500,450h 3" fill="none" stroke="#ff0099"/>
<g stroke="#ff0099" stroke-width="1" fill="#ff0099">
<circle cx=" 499" cy=" 450" r=" 1.5"/>
</g></svg>
