<?xml version="1.0" standalone="no"?>
<svg width="567" height="496" viewBox="0 0 567 496" xmlns="http://www.w3.org/2000/svg">
<title>
../src/TagAndProbeZ/plots_mcZee_mcGJet_withEtaR9Reweight//etaPhotEB.svg
</title>
<desc>
Creator: ROOT Version 5.32/00
CreationDate: Sat Sep 27 23:34:19 2014</desc>
<defs>
</defs>
<rect x="0" y="0" width="567" height="496" fill="white"/>
<rect x="74" y="44" width="453" height="402" fill="white"/>
<rect x="74" y="44" width="453" height="402" fill="none" stroke="black"/>
<rect x="74" y="44" width="453" height="402" fill="white"/>
<rect x="74" y="44" width="453" height="402" fill="none" stroke="black"/>
<path d="M191,329" fill="none" stroke="#ff0099"/>
<path d="M191,327v -1" fill="none" stroke="#ff0099"/>
<path d="M187,328h 3" fill="none" stroke="#ff0099"/>
<path d="M192,328h 3" fill="none" stroke="#ff0099"/>
<g stroke="#ff0099" stroke-width="1" fill="#ff0099">
<circle cx=" 191" cy=" 328" r=" 1.5"/>
</g>
<path d="M198,180v -2" fill="none" stroke="#ff0099"/>
<path d="M198,176v -1" fill="none" stroke="#ff0099"/>
<path d="M195,177h 2" fill="none" stroke="#ff0099"/>
<path d="M200,177h 2" fill="none" stroke="#ff0099"/>
<g stroke="#ff0099" stroke-width="1" fill="#ff0099">
<circle cx=" 198" cy=" 177" r=" 1.5"/>
</g>
<path d="M206,179v -1" fill="none" stroke="#ff0099"/>
<path d="M206,175v -1" fill="none" stroke="#ff0099"/>
<path d="M202,177h 3" fill="none" stroke="#ff0099"/>
<path d="M207,177h 3" fill="none" stroke="#ff0099"/>
<g stroke="#ff0099" stroke-width="1" fill="#ff0099">
<circle cx=" 206" cy=" 177" r=" 1.5"/>
</g>
<path d="M214,183v -1" fill="none" stroke="#ff0099"/>
<path d="M214,180v -1" fill="none" stroke="#ff0099"/>
<path d="M210,181h 2" fill="none" stroke="#ff0099"/>
<path d="M215,181h 2" fill="none" stroke="#ff0099"/>
<g stroke="#ff0099" stroke-width="1" fill="#ff0099">
<circle cx=" 214" cy=" 181" r=" 1.5"/>
</g>
<path d="M221,145v -2" fill="none" stroke="#ff0099"/>
<path d="M221,141v -1" fill="none" stroke="#ff0099"/>
<path d="M217,142h 3" fill="none" stroke="#ff0099"/>
<path d="M222,142h 3" fill="none" stroke="#ff0099"/>
<g stroke="#ff0099" stroke-width="1" fill="#ff0099">
<circle cx=" 221" cy=" 142" r=" 1.5"/>
</g>
<path d="M229,117v -2" fill="none" stroke="#ff0099"/>
<path d="M229,113v -2" fill="none" stroke="#ff0099"/>
<path d="M225,114h 3" fill="none" stroke="#ff0099"/>
<path d="M230,114h 2" fill="none" stroke="#ff0099"/>
<g stroke="#ff0099" stroke-width="1" fill="#ff0099">
<circle cx=" 229" cy=" 114" r=" 1.5"/>
</g>
<path d="M236,81v -2" fill="none" stroke="#ff0099"/>
<path d="M236,77v -2" fill="none" stroke="#ff0099"/>
<path d="M232,78h 3" fill="none" stroke="#ff0099"/>
<path d="M237,78h 3" fill="none" stroke="#ff0099"/>
<g stroke="#ff0099" stroke-width="1" fill="#ff0099">
<circle cx=" 236" cy=" 78" r=" 1.5"/>
</g>
<path d="M244,121v -1" fill="none" stroke="#ff0099"/>
<path d="M244,117v -1" fill="none" stroke="#ff0099"/>
<path d="M240,119h 3" fill="none" stroke="#ff0099"/>
<path d="M245,119h 3" fill="none" stroke="#ff0099"/>
<g stroke="#ff0099" stroke-width="1" fill="#ff0099">
<circle cx=" 244" cy=" 119" r=" 1.5"/>
</g>
<path d="M251,79v -2" fill="none" stroke="#ff0099"/>
<path d="M251,75v -2" fill="none" stroke="#ff0099"/>
<path d="M248,76h 2" fill="none" stroke="#ff0099"/>
<path d="M252,76h 3" fill="none" stroke="#ff0099"/>
<g stroke="#ff0099" stroke-width="1" fill="#ff0099">
<circle cx=" 251" cy=" 76" r=" 1.5"/>
</g>
<path d="M259,75v -2" fill="none" stroke="#ff0099"/>
<path d="M259,71v -1" fill="none" stroke="#ff0099"/>
<path d="M255,72h 3" fill="none" stroke="#ff0099"/>
<path d="M260,72h 3" fill="none" stroke="#ff0099"/>
<g stroke="#ff0099" stroke-width="1" fill="#ff0099">
<circle cx=" 259" cy=" 72" r=" 1.5"/>
</g>
<path d="M266,88v -1" fill="none" stroke="#ff0099"/>
<path d="M266,84v -1" fill="none" stroke="#ff0099"/>
<path d="M263,85h 2" fill="none" stroke="#ff0099"/>
<path d="M268,85h 2" fill="none" stroke="#ff0099"/>
<g stroke="#ff0099" stroke-width="1" fill="#ff0099">
<circle cx=" 266" cy=" 85" r=" 1.5"/>
</g>
<path d="M274,83v -1" fill="none" stroke="#ff0099"/>
<path d="M274,79v -1" fill="none" stroke="#ff0099"/>
<path d="M270,81h 3" fill="none" stroke="#ff0099"/>
<path d="M275,81h 3" fill="none" stroke="#ff0099"/>
<g stroke="#ff0099" stroke-width="1" fill="#ff0099">
<circle cx=" 274" cy=" 81" r=" 1.5"/>
</g>
<path d="M282,79v -2" fill="none" stroke="#ff0099"/>
<path d="M282,75v -1" fill="none" stroke="#ff0099"/>
<path d="M278,76h 2" fill="none" stroke="#ff0099"/>
<path d="M283,76h 2" fill="none" stroke="#ff0099"/>
<g stroke="#ff0099" stroke-width="1" fill="#ff0099">
<circle cx=" 282" cy=" 76" r=" 1.5"/>
</g>
<path d="M289,77v -1" fill="none" stroke="#ff0099"/>
<path d="M289,73v -1" fill="none" stroke="#ff0099"/>
<path d="M285,75h 3" fill="none" stroke="#ff0099"/>
<path d="M290,75h 3" fill="none" stroke="#ff0099"/>
<g stroke="#ff0099" stroke-width="1" fill="#ff0099">
<circle cx=" 289" cy=" 75" r=" 1.5"/>
</g>
<path d="M297,90v -1" fill="none" stroke="#ff0099"/>
<path d="M297,86v -1" fill="none" stroke="#ff0099"/>
<path d="M293,87h 3" fill="none" stroke="#ff0099"/>
<path d="M298,87h 2" fill="none" stroke="#ff0099"/>
<g stroke="#ff0099" stroke-width="1" fill="#ff0099">
<circle cx=" 297" cy=" 87" r=" 1.5"/>
</g>
<path d="M304,77v -1" fill="none" stroke="#ff0099"/>
<path d="M304,73v -1" fill="none" stroke="#ff0099"/>
<path d="M300,75h 3" fill="none" stroke="#ff0099"/>
<path d="M305,75h 3" fill="none" stroke="#ff0099"/>
<g stroke="#ff0099" stroke-width="1" fill="#ff0099">
<circle cx=" 304" cy=" 75" r=" 1.5"/>
</g>
<path d="M312,69v -2" fill="none" stroke="#ff0099"/>
<path d="M312,65v -2" fill="none" stroke="#ff0099"/>
<path d="M308,66h 3" fill="none" stroke="#ff0099"/>
<path d="M313,66h 3" fill="none" stroke="#ff0099"/>
<g stroke="#ff0099" stroke-width="1" fill="#ff0099">
<circle cx=" 312" cy=" 66" r=" 1.5"/>
</g>
<path d="M319,73v -2" fill="none" stroke="#ff0099"/>
<path d="M319,69v -1" fill="none" stroke="#ff0099"/>
<path d="M316,70h 2" fill="none" stroke="#ff0099"/>
<path d="M321,70h 2" fill="none" stroke="#ff0099"/>
<g stroke="#ff0099" stroke-width="1" fill="#ff0099">
<circle cx=" 319" cy=" 70" r=" 1.5"/>
</g>
<path d="M327,78v -2" fill="none" stroke="#ff0099"/>
<path d="M327,74v -2" fill="none" stroke="#ff0099"/>
<path d="M323,75h 3" fill="none" stroke="#ff0099"/>
<path d="M328,75h 3" fill="none" stroke="#ff0099"/>
<g stroke="#ff0099" stroke-width="1" fill="#ff0099">
<circle cx=" 327" cy=" 75" r=" 1.5"/>
</g>
<path d="M334,90v -2" fill="none" stroke="#ff0099"/>
<path d="M334,86v -2" fill="none" stroke="#ff0099"/>
<path d="M331,87h 2" fill="none" stroke="#ff0099"/>
<path d="M336,87h 2" fill="none" stroke="#ff0099"/>
<g stroke="#ff0099" stroke-width="1" fill="#ff0099">
<circle cx=" 334" cy=" 87" r=" 1.5"/>
</g>
<path d="M342,76v -1" fill="none" stroke="#ff0099"/>
<path d="M342,72v -1" fill="none" stroke="#ff0099"/>
<path d="M338,73h 3" fill="none" stroke="#ff0099"/>
<path d="M343,73h 3" fill="none" stroke="#ff0099"/>
<g stroke="#ff0099" stroke-width="1" fill="#ff0099">
<circle cx=" 342" cy=" 73" r=" 1.5"/>
</g>
<path d="M350,77v -2" fill="none" stroke="#ff0099"/>
<path d="M350,73v -1" fill="none" stroke="#ff0099"/>
<path d="M346,74h 2" fill="none" stroke="#ff0099"/>
<path d="M351,74h 2" fill="none" stroke="#ff0099"/>
<g stroke="#ff0099" stroke-width="1" fill="#ff0099">
<circle cx=" 350" cy=" 74" r=" 1.5"/>
</g>
<path d="M357,116v -2" fill="none" stroke="#ff0099"/>
<path d="M357,112v -2" fill="none" stroke="#ff0099"/>
<path d="M353,113h 3" fill="none" stroke="#ff0099"/>
<path d="M358,113h 3" fill="none" stroke="#ff0099"/>
<g stroke="#ff0099" stroke-width="1" fill="#ff0099">
<circle cx=" 357" cy=" 113" r=" 1.5"/>
</g>
<path d="M365,86v -2" fill="none" stroke="#ff0099"/>
<path d="M365,82v -2" fill="none" stroke="#ff0099"/>
<path d="M361,83h 3" fill="none" stroke="#ff0099"/>
<path d="M366,83h 3" fill="none" stroke="#ff0099"/>
<g stroke="#ff0099" stroke-width="1" fill="#ff0099">
<circle cx=" 365" cy=" 83" r=" 1.5"/>
</g>
<path d="M372,113v -2" fill="none" stroke="#ff0099"/>
<path d="M372,109v -2" fill="none" stroke="#ff0099"/>
<path d="M369,110h 2" fill="none" stroke="#ff0099"/>
<path d="M373,110h 3" fill="none" stroke="#ff0099"/>
<g stroke="#ff0099" stroke-width="1" fill="#ff0099">
<circle cx=" 372" cy=" 110" r=" 1.5"/>
</g>
<path d="M380,144v -2" fill="none" stroke="#ff0099"/>
<path d="M380,140v -2" fill="none" stroke="#ff0099"/>
<path d="M376,141h 3" fill="none" stroke="#ff0099"/>
<path d="M381,141h 3" fill="none" stroke="#ff0099"/>
<g stroke="#ff0099" stroke-width="1" fill="#ff0099">
<circle cx=" 380" cy=" 141" r=" 1.5"/>
</g>
<path d="M387,183v -2" fill="none" stroke="#ff0099"/>
<path d="M387,179v -1" fill="none" stroke="#ff0099"/>
<path d="M384,180h 2" fill="none" stroke="#ff0099"/>
<path d="M389,180h 2" fill="none" stroke="#ff0099"/>
<g stroke="#ff0099" stroke-width="1" fill="#ff0099">
<circle cx=" 387" cy=" 180" r=" 1.5"/>
</g>
<path d="M395,171v -1" fill="none" stroke="#ff0099"/>
<path d="M395,168v -1" fill="none" stroke="#ff0099"/>
<path d="M391,169h 3" fill="none" stroke="#ff0099"/>
<path d="M396,169h 3" fill="none" stroke="#ff0099"/>
<g stroke="#ff0099" stroke-width="1" fill="#ff0099">
<circle cx=" 395" cy=" 169" r=" 1.5"/>
</g>
<path d="M403,177v -1" fill="none" stroke="#ff0099"/>
<path d="M403,174v -1" fill="none" stroke="#ff0099"/>
<path d="M399,175h 2" fill="none" stroke="#ff0099"/>
<path d="M404,175h 2" fill="none" stroke="#ff0099"/>
<g stroke="#ff0099" stroke-width="1" fill="#ff0099">
<circle cx=" 403" cy=" 175" r=" 1.5"/>
</g>
<path d="M410,332" fill="none" stroke="#ff0099"/>
<path d="M410,330v -1" fill="none" stroke="#ff0099"/>
<path d="M406,331h 3" fill="none" stroke="#ff0099"/>
<path d="M411,331h 3" fill="none" stroke="#ff0099"/>
<g stroke="#ff0099" stroke-width="1" fill="#ff0099">
<circle cx=" 410" cy=" 331" r=" 1.5"/>
</g>
<path d="M74,446h 453" fill="none" stroke="black"/>
<path d="M74,434v 12" fill="none" stroke="black"/>
<path d="M89,440v 6" fill="none" stroke="black"/>
<path d="M104,440v 6" fill="none" stroke="black"/>
<path d="M119,440v 6" fill="none" stroke="black"/>
<path d="M134,440v 6" fill="none" stroke="black"/>
<path d="M149,434v 12" fill="none" stroke="black"/>
<path d="M164,440v 6" fill="none" stroke="black"/>
<path d="M180,440v 6" fill="none" stroke="black"/>
<path d="M195,440v 6" fill="none" stroke="black"/>
<path d="M210,440v 6" fill="none" stroke="black"/>
<path d="M225,434v 12" fill="none" stroke="black"/>
<path d="M240,440v 6" fill="none" stroke="black"/>
<path d="M255,440v 6" fill="none" stroke="black"/>
<path d="M270,440v 6" fill="none" stroke="black"/>
<path d="M285,440v 6" fill="none" stroke="black"/>
<path d="M300,434v 12" fill="none" stroke="black"/>
<path d="M316,440v 6" fill="none" stroke="black"/>
<path d="M331,440v 6" fill="none" stroke="black"/>
<path d="M346,440v 6" fill="none" stroke="black"/>
<path d="M361,440v 6" fill="none" stroke="black"/>
<path d="M376,434v 12" fill="none" stroke="black"/>
<path d="M391,440v 6" fill="none" stroke="black"/>
<path d="M406,440v 6" fill="none" stroke="black"/>
<path d="M421,440v 6" fill="none" stroke="black"/>
<path d="M437,440v 6" fill="none" stroke="black"/>
<path d="M452,434v 12" fill="none" stroke="black"/>
<path d="M467,440v 6" fill="none" stroke="black"/>
<path d="M482,440v 6" fill="none" stroke="black"/>
<path d="M497,440v 6" fill="none" stroke="black"/>
<path d="M512,440v 6" fill="none" stroke="black"/>
<path d="M527,434v 12" fill="none" stroke="black"/>
<path d="M527,434v 12" fill="none" stroke="black"/>
<text x="65" y="465" fill="black" font-size="18" font-family="Helvetica" font-weight="bold">
-3
</text>
<text x="141" y="465" fill="black" font-size="18" font-family="Helvetica" font-weight="bold">
-2
</text>
<text x="218" y="465" fill="black" font-size="18" font-family="Helvetica" font-weight="bold">
-1
</text>
<text x="295" y="465" fill="black" font-size="18" font-family="Helvetica" font-weight="bold">
0
</text>
<text x="372" y="465" fill="black" font-size="18" font-family="Helvetica" font-weight="bold">
1
</text>
<text x="446" y="465" fill="black" font-size="18" font-family="Helvetica" font-weight="bold">
2
</text>
<text x="522" y="465" fill="black" font-size="18" font-family="Helvetica" font-weight="bold">
3
</text>
<path d="M74,44h 453" fill="none" stroke="black"/>
<path d="M74,56v -12" fill="none" stroke="black"/>
<path d="M89,50v -6" fill="none" stroke="black"/>
<path d="M104,50v -6" fill="none" stroke="black"/>
<path d="M119,50v -6" fill="none" stroke="black"/>
<path d="M134,50v -6" fill="none" stroke="black"/>
<path d="M149,56v -12" fill="none" stroke="black"/>
<path d="M164,50v -6" fill="none" stroke="black"/>
<path d="M180,50v -6" fill="none" stroke="black"/>
<path d="M195,50v -6" fill="none" stroke="black"/>
<path d="M210,50v -6" fill="none" stroke="black"/>
<path d="M225,56v -12" fill="none" stroke="black"/>
<path d="M240,50v -6" fill="none" stroke="black"/>
<path d="M255,50v -6" fill="none" stroke="black"/>
<path d="M270,50v -6" fill="none" stroke="black"/>
<path d="M285,50v -6" fill="none" stroke="black"/>
<path d="M300,56v -12" fill="none" stroke="black"/>
<path d="M316,50v -6" fill="none" stroke="black"/>
<path d="M331,50v -6" fill="none" stroke="black"/>
<path d="M346,50v -6" fill="none" stroke="black"/>
<path d="M361,50v -6" fill="none" stroke="black"/>
<path d="M376,56v -12" fill="none" stroke="black"/>
<path d="M391,50v -6" fill="none" stroke="black"/>
<path d="M406,50v -6" fill="none" stroke="black"/>
<path d="M421,50v -6" fill="none" stroke="black"/>
<path d="M437,50v -6" fill="none" stroke="black"/>
<path d="M452,56v -12" fill="none" stroke="black"/>
<path d="M467,50v -6" fill="none" stroke="black"/>
<path d="M482,50v -6" fill="none" stroke="black"/>
<path d="M497,50v -6" fill="none" stroke="black"/>
<path d="M512,50v -6" fill="none" stroke="black"/>
<path d="M527,56v -12" fill="none" stroke="black"/>
<path d="M527,56v -12" fill="none" stroke="black"/>
<path d="M74,446v -402" fill="none" stroke="black"/>
<path d="M87,446h -13" fill="none" stroke="black"/>
<path d="M81,437h -7" fill="none" stroke="black"/>
<path d="M81,427h -7" fill="none" stroke="black"/>
<path d="M81,417h -7" fill="none" stroke="black"/>
<path d="M81,408h -7" fill="none" stroke="black"/>
<path d="M87,398h -13" fill="none" stroke="black"/>
<path d="M81,388h -7" fill="none" stroke="black"/>
<path d="M81,378h -7" fill="none" stroke="black"/>
<path d="M81,369h -7" fill="none" stroke="black"/>
<path d="M81,359h -7" fill="none" stroke="black"/>
<path d="M87,349h -13" fill="none" stroke="black"/>
<path d="M81,340h -7" fill="none" stroke="black"/>
<path d="M81,330h -7" fill="none" stroke="black"/>
<path d="M81,320h -7" fill="none" stroke="black"/>
<path d="M81,311h -7" fill="none" stroke="black"/>
<path d="M87,301h -13" fill="none" stroke="black"/>
<path d="M81,291h -7" fill="none" stroke="black"/>
<path d="M81,281h -7" fill="none" stroke="black"/>
<path d="M81,272h -7" fill="none" stroke="black"/>
<path d="M81,262h -7" fill="none" stroke="black"/>
<path d="M87,252h -13" fill="none" stroke="black"/>
<path d="M81,243h -7" fill="none" stroke="black"/>
<path d="M81,233h -7" fill="none" stroke="black"/>
<path d="M81,223h -7" fill="none" stroke="black"/>
<path d="M81,214h -7" fill="none" stroke="black"/>
<path d="M87,204h -13" fill="none" stroke="black"/>
<path d="M81,194h -7" fill="none" stroke="black"/>
<path d="M81,184h -7" fill="none" stroke="black"/>
<path d="M81,175h -7" fill="none" stroke="black"/>
<path d="M81,165h -7" fill="none" stroke="black"/>
<path d="M87,155h -13" fill="none" stroke="black"/>
<path d="M81,146h -7" fill="none" stroke="black"/>
<path d="M81,136h -7" fill="none" stroke="black"/>
<path d="M81,126h -7" fill="none" stroke="black"/>
<path d="M81,117h -7" fill="none" stroke="black"/>
<path d="M87,107h -13" fill="none" stroke="black"/>
<path d="M81,97h -7" fill="none" stroke="black"/>
<path d="M81,87h -7" fill="none" stroke="black"/>
<path d="M81,78h -7" fill="none" stroke="black"/>
<path d="M81,68h -7" fill="none" stroke="black"/>
<path d="M87,58h -13" fill="none" stroke="black"/>
<path d="M87,58h -13" fill="none" stroke="black"/>
<path d="M81,49h -7" fill="none" stroke="black"/>
<text x="61" y="453" fill="black" font-size="18" font-family="Helvetica" font-weight="bold">
0
</text>
<text x="24" y="404" fill="black" font-size="18" font-family="Helvetica" font-weight="bold">
0.005
</text>
<text x="37" y="356" fill="black" font-size="18" font-family="Helvetica" font-weight="bold">
0.01
</text>
<text x="24" y="308" fill="black" font-size="18" font-family="Helvetica" font-weight="bold">
0.015
</text>
<text x="35" y="259" fill="black" font-size="18" font-family="Helvetica" font-weight="bold">
0.02
</text>
<text x="24" y="210" fill="black" font-size="18" font-family="Helvetica" font-weight="bold">
0.025
</text>
<text x="35" y="162" fill="black" font-size="18" font-family="Helvetica" font-weight="bold">
0.03
</text>
<text x="24" y="113" fill="black" font-size="18" font-family="Helvetica" font-weight="bold">
0.035
</text>
<text x="34" y="65" fill="black" font-size="18" font-family="Helvetica" font-weight="bold">
0.04
</text>
<path d="M191,309v -4" fill="none" stroke="#99ff99" stroke-width="2"/>
<path d="M191,305v -4" fill="none" stroke="#99ff99" stroke-width="2"/>
<g stroke="black" stroke-width="2" fill="none">
<line x1="190" y1="305" x2="191" y2="305"/>
</g>
<path d="M198,119v -6" fill="none" stroke="#99ff99" stroke-width="2"/>
<path d="M198,113v -7" fill="none" stroke="#99ff99" stroke-width="2"/>
<g stroke="black" stroke-width="2" fill="none">
<line x1="197" y1="113" x2="198" y2="113"/>
</g>
<path d="M206,123v -6" fill="none" stroke="#99ff99" stroke-width="2"/>
<path d="M206,117v -6" fill="none" stroke="#99ff99" stroke-width="2"/>
<g stroke="black" stroke-width="2" fill="none">
<line x1="205" y1="117" x2="206" y2="117"/>
</g>
<path d="M214,134v -6" fill="none" stroke="#99ff99" stroke-width="2"/>
<path d="M214,128v -6" fill="none" stroke="#99ff99" stroke-width="2"/>
<g stroke="black" stroke-width="2" fill="none">
<line x1="213" y1="128" x2="214" y2="128"/>
</g>
<path d="M221,116v -6" fill="none" stroke="#99ff99" stroke-width="2"/>
<path d="M221,110v -6" fill="none" stroke="#99ff99" stroke-width="2"/>
<g stroke="black" stroke-width="2" fill="none">
<line x1="220" y1="110" x2="221" y2="110"/>
</g>
<path d="M229,112v -6" fill="none" stroke="#99ff99" stroke-width="2"/>
<path d="M229,106v -6" fill="none" stroke="#99ff99" stroke-width="2"/>
<g stroke="black" stroke-width="2" fill="none">
<line x1="228" y1="106" x2="229" y2="106"/>
</g>
<path d="M236,108v -6" fill="none" stroke="#99ff99" stroke-width="2"/>
<path d="M236,102v -7" fill="none" stroke="#99ff99" stroke-width="2"/>
<g stroke="black" stroke-width="2" fill="none">
<line x1="235" y1="102" x2="236" y2="102"/>
</g>
<path d="M244,132v -6" fill="none" stroke="#99ff99" stroke-width="2"/>
<path d="M244,126v -7" fill="none" stroke="#99ff99" stroke-width="2"/>
<g stroke="black" stroke-width="2" fill="none">
<line x1="243" y1="126" x2="244" y2="126"/>
</g>
<path d="M251,109v -7" fill="none" stroke="#99ff99" stroke-width="2"/>
<path d="M251,102v -6" fill="none" stroke="#99ff99" stroke-width="2"/>
<g stroke="black" stroke-width="2" fill="none">
<line x1="250" y1="102" x2="251" y2="102"/>
</g>
<path d="M259,112v -6" fill="none" stroke="#99ff99" stroke-width="2"/>
<path d="M259,106v -6" fill="none" stroke="#99ff99" stroke-width="2"/>
<g stroke="black" stroke-width="2" fill="none">
<line x1="258" y1="106" x2="259" y2="106"/>
</g>
<path d="M266,104v -7" fill="none" stroke="#99ff99" stroke-width="2"/>
<path d="M266,97v -6" fill="none" stroke="#99ff99" stroke-width="2"/>
<g stroke="black" stroke-width="2" fill="none">
<line x1="265" y1="97" x2="266" y2="97"/>
</g>
<path d="M274,115v -6" fill="none" stroke="#99ff99" stroke-width="2"/>
<path d="M274,109v -6" fill="none" stroke="#99ff99" stroke-width="2"/>
<g stroke="black" stroke-width="2" fill="none">
<line x1="273" y1="109" x2="274" y2="109"/>
</g>
<path d="M282,112v -6" fill="none" stroke="#99ff99" stroke-width="2"/>
<path d="M282,106v -6" fill="none" stroke="#99ff99" stroke-width="2"/>
<g stroke="black" stroke-width="2" fill="none">
<line x1="281" y1="106" x2="282" y2="106"/>
</g>
<path d="M289,97v -7" fill="none" stroke="#99ff99" stroke-width="2"/>
<path d="M289,90v -7" fill="none" stroke="#99ff99" stroke-width="2"/>
<g stroke="black" stroke-width="2" fill="none">
<line x1="288" y1="90" x2="289" y2="90"/>
</g>
<path d="M297,124v -6" fill="none" stroke="#99ff99" stroke-width="2"/>
<path d="M297,118v -6" fill="none" stroke="#99ff99" stroke-width="2"/>
<g stroke="black" stroke-width="2" fill="none">
<line x1="296" y1="118" x2="297" y2="118"/>
</g>
<path d="M304,118v -6" fill="none" stroke="#99ff99" stroke-width="2"/>
<path d="M304,112v -6" fill="none" stroke="#99ff99" stroke-width="2"/>
<g stroke="black" stroke-width="2" fill="none">
<line x1="303" y1="112" x2="304" y2="112"/>
</g>
<path d="M312,106v -6" fill="none" stroke="#99ff99" stroke-width="2"/>
<path d="M312,100v -6" fill="none" stroke="#99ff99" stroke-width="2"/>
<g stroke="black" stroke-width="2" fill="none">
<line x1="311" y1="100" x2="312" y2="100"/>
</g>
<path d="M319,108v -6" fill="none" stroke="#99ff99" stroke-width="2"/>
<path d="M319,102v -6" fill="none" stroke="#99ff99" stroke-width="2"/>
<g stroke="black" stroke-width="2" fill="none">
<line x1="318" y1="102" x2="319" y2="102"/>
</g>
<path d="M327,115v -6" fill="none" stroke="#99ff99" stroke-width="2"/>
<path d="M327,109v -6" fill="none" stroke="#99ff99" stroke-width="2"/>
<g stroke="black" stroke-width="2" fill="none">
<line x1="326" y1="109" x2="327" y2="109"/>
</g>
<path d="M334,123v -6" fill="none" stroke="#99ff99" stroke-width="2"/>
<path d="M334,117v -6" fill="none" stroke="#99ff99" stroke-width="2"/>
<g stroke="black" stroke-width="2" fill="none">
<line x1="333" y1="117" x2="334" y2="117"/>
</g>
<path d="M342,115v -6" fill="none" stroke="#99ff99" stroke-width="2"/>
<path d="M342,109v -6" fill="none" stroke="#99ff99" stroke-width="2"/>
<g stroke="black" stroke-width="2" fill="none">
<line x1="341" y1="109" x2="342" y2="109"/>
</g>
<path d="M350,118v -6" fill="none" stroke="#99ff99" stroke-width="2"/>
<path d="M350,112v -6" fill="none" stroke="#99ff99" stroke-width="2"/>
<g stroke="black" stroke-width="2" fill="none">
<line x1="349" y1="112" x2="350" y2="112"/>
</g>
<path d="M357,136v -6" fill="none" stroke="#99ff99" stroke-width="2"/>
<path d="M357,130v -6" fill="none" stroke="#99ff99" stroke-width="2"/>
<g stroke="black" stroke-width="2" fill="none">
<line x1="356" y1="130" x2="357" y2="130"/>
</g>
<path d="M365,113v -6" fill="none" stroke="#99ff99" stroke-width="2"/>
<path d="M365,107v -6" fill="none" stroke="#99ff99" stroke-width="2"/>
<g stroke="black" stroke-width="2" fill="none">
<line x1="364" y1="107" x2="365" y2="107"/>
</g>
<path d="M372,113v -7" fill="none" stroke="#99ff99" stroke-width="2"/>
<path d="M372,106v -6" fill="none" stroke="#99ff99" stroke-width="2"/>
<g stroke="black" stroke-width="2" fill="none">
<line x1="371" y1="106" x2="372" y2="106"/>
</g>
<path d="M380,115v -7" fill="none" stroke="#99ff99" stroke-width="2"/>
<path d="M380,108v -6" fill="none" stroke="#99ff99" stroke-width="2"/>
<g stroke="black" stroke-width="2" fill="none">
<line x1="379" y1="108" x2="380" y2="108"/>
</g>
<path d="M387,129v -6" fill="none" stroke="#99ff99" stroke-width="2"/>
<path d="M387,123v -7" fill="none" stroke="#99ff99" stroke-width="2"/>
<g stroke="black" stroke-width="2" fill="none">
<line x1="386" y1="123" x2="387" y2="123"/>
</g>
<path d="M395,113v -6" fill="none" stroke="#99ff99" stroke-width="2"/>
<path d="M395,107v -6" fill="none" stroke="#99ff99" stroke-width="2"/>
<g stroke="black" stroke-width="2" fill="none">
<line x1="394" y1="107" x2="395" y2="107"/>
</g>
<path d="M403,112v -7" fill="none" stroke="#99ff99" stroke-width="2"/>
<path d="M403,105v -6" fill="none" stroke="#99ff99" stroke-width="2"/>
<g stroke="black" stroke-width="2" fill="none">
<line x1="402" y1="105" x2="403" y2="105"/>
</g>
<path d="M410,312v -4" fill="none" stroke="#99ff99" stroke-width="2"/>
<path d="M410,308v -4" fill="none" stroke="#99ff99" stroke-width="2"/>
<g stroke="black" stroke-width="2" fill="none">
<line x1="409" y1="308" x2="410" y2="308"/>
</g>
<path d="M74,446h 113v -141h 8v -192h 7v 4h 8v 11h 7v -18h 8v -4h 7v -4h 8v 24h 8v -24h 7v 4h 8v -9h 7v 12h 8v -3h 7v -16h 8v 28h 7v -6h 8v -12h 8v 2h 7v 7h 8v 8h 7v -8h 8v 3h 7v 18h 8v -23h 8v -1h 7v 2h 8v 15h 7v -16h 8v -2h 7v 203h 8v 138h 113z"
 fill="#99ff99"/>
<path d="M74,446h 113v -141h 8v -192h 7v 4h 8v 11h 7v -18h 8v -4h 7v -4h 8v 24h 8v -24h 7v 4h 8v -9h 7v 12h 8v -3h 7v -16h 8v 28h 7v -6h 8v -12h 8v 2h 7v 7h 8v 8h 7v -8h 8v 3h 7v 18h 8v -23h 8v -1h 7v 2h 8v 15h 7v -16h 8v -2h 7v 203h 8v 138h 113"
 fill="none" stroke="#99ff99" stroke-width="2"/>
<path d="M191,329" fill="none" stroke="#ff0099"/>
<path d="M191,327v -1" fill="none" stroke="#ff0099"/>
<path d="M187,328h 3" fill="none" stroke="#ff0099"/>
<path d="M192,328h 3" fill="none" stroke="#ff0099"/>
<g stroke="#ff0099" stroke-width="1" fill="#ff0099">
<circle cx=" 191" cy=" 328" r=" 1.5"/>
</g>
<path d="M198,180v -2" fill="none" stroke="#ff0099"/>
<path d="M198,176v -1" fill="none" stroke="#ff0099"/>
<path d="M195,177h 2" fill="none" stroke="#ff0099"/>
<path d="M200,177h 2" fill="none" stroke="#ff0099"/>
<g stroke="#ff0099" stroke-width="1" fill="#ff0099">
<circle cx=" 198" cy=" 177" r=" 1.5"/>
</g>
<path d="M206,179v -1" fill="none" stroke="#ff0099"/>
<path d="M206,175v -1" fill="none" stroke="#ff0099"/>
<path d="M202,177h 3" fill="none" stroke="#ff0099"/>
<path d="M207,177h 3" fill="none" stroke="#ff0099"/>
<g stroke="#ff0099" stroke-width="1" fill="#ff0099">
<circle cx=" 206" cy=" 177" r=" 1.5"/>
</g>
<path d="M214,183v -1" fill="none" stroke="#ff0099"/>
<path d="M214,180v -1" fill="none" stroke="#ff0099"/>
<path d="M210,181h 2" fill="none" stroke="#ff0099"/>
<path d="M215,181h 2" fill="none" stroke="#ff0099"/>
<g stroke="#ff0099" stroke-width="1" fill="#ff0099">
<circle cx=" 214" cy=" 181" r=" 1.5"/>
</g>
<path d="M221,145v -2" fill="none" stroke="#ff0099"/>
<path d="M221,141v -1" fill="none" stroke="#ff0099"/>
<path d="M217,142h 3" fill="none" stroke="#ff0099"/>
<path d="M222,142h 3" fill="none" stroke="#ff0099"/>
<g stroke="#ff0099" stroke-width="1" fill="#ff0099">
<circle cx=" 221" cy=" 142" r=" 1.5"/>
</g>
<path d="M229,117v -2" fill="none" stroke="#ff0099"/>
<path d="M229,113v -2" fill="none" stroke="#ff0099"/>
<path d="M225,114h 3" fill="none" stroke="#ff0099"/>
<path d="M230,114h 2" fill="none" stroke="#ff0099"/>
<g stroke="#ff0099" stroke-width="1" fill="#ff0099">
<circle cx=" 229" cy=" 114" r=" 1.5"/>
</g>
<path d="M236,81v -2" fill="none" stroke="#ff0099"/>
<path d="M236,77v -2" fill="none" stroke="#ff0099"/>
<path d="M232,78h 3" fill="none" stroke="#ff0099"/>
<path d="M237,78h 3" fill="none" stroke="#ff0099"/>
<g stroke="#ff0099" stroke-width="1" fill="#ff0099">
<circle cx=" 236" cy=" 78" r=" 1.5"/>
</g>
<path d="M244,121v -1" fill="none" stroke="#ff0099"/>
<path d="M244,117v -1" fill="none" stroke="#ff0099"/>
<path d="M240,119h 3" fill="none" stroke="#ff0099"/>
<path d="M245,119h 3" fill="none" stroke="#ff0099"/>
<g stroke="#ff0099" stroke-width="1" fill="#ff0099">
<circle cx=" 244" cy=" 119" r=" 1.5"/>
</g>
<path d="M251,79v -2" fill="none" stroke="#ff0099"/>
<path d="M251,75v -2" fill="none" stroke="#ff0099"/>
<path d="M248,76h 2" fill="none" stroke="#ff0099"/>
<path d="M252,76h 3" fill="none" stroke="#ff0099"/>
<g stroke="#ff0099" stroke-width="1" fill="#ff0099">
<circle cx=" 251" cy=" 76" r=" 1.5"/>
</g>
<path d="M259,75v -2" fill="none" stroke="#ff0099"/>
<path d="M259,71v -1" fill="none" stroke="#ff0099"/>
<path d="M255,72h 3" fill="none" stroke="#ff0099"/>
<path d="M260,72h 3" fill="none" stroke="#ff0099"/>
<g stroke="#ff0099" stroke-width="1" fill="#ff0099">
<circle cx=" 259" cy=" 72" r=" 1.5"/>
</g>
<path d="M266,88v -1" fill="none" stroke="#ff0099"/>
<path d="M266,84v -1" fill="none" stroke="#ff0099"/>
<path d="M263,85h 2" fill="none" stroke="#ff0099"/>
<path d="M268,85h 2" fill="none" stroke="#ff0099"/>
<g stroke="#ff0099" stroke-width="1" fill="#ff0099">
<circle cx=" 266" cy=" 85" r=" 1.5"/>
</g>
<path d="M274,83v -1" fill="none" stroke="#ff0099"/>
<path d="M274,79v -1" fill="none" stroke="#ff0099"/>
<path d="M270,81h 3" fill="none" stroke="#ff0099"/>
<path d="M275,81h 3" fill="none" stroke="#ff0099"/>
<g stroke="#ff0099" stroke-width="1" fill="#ff0099">
<circle cx=" 274" cy=" 81" r=" 1.5"/>
</g>
<path d="M282,79v -2" fill="none" stroke="#ff0099"/>
<path d="M282,75v -1" fill="none" stroke="#ff0099"/>
<path d="M278,76h 2" fill="none" stroke="#ff0099"/>
<path d="M283,76h 2" fill="none" stroke="#ff0099"/>
<g stroke="#ff0099" stroke-width="1" fill="#ff0099">
<circle cx=" 282" cy=" 76" r=" 1.5"/>
</g>
<path d="M289,77v -1" fill="none" stroke="#ff0099"/>
<path d="M289,73v -1" fill="none" stroke="#ff0099"/>
<path d="M285,75h 3" fill="none" stroke="#ff0099"/>
<path d="M290,75h 3" fill="none" stroke="#ff0099"/>
<g stroke="#ff0099" stroke-width="1" fill="#ff0099">
<circle cx=" 289" cy=" 75" r=" 1.5"/>
</g>
<path d="M297,90v -1" fill="none" stroke="#ff0099"/>
<path d="M297,86v -1" fill="none" stroke="#ff0099"/>
<path d="M293,87h 3" fill="none" stroke="#ff0099"/>
<path d="M298,87h 2" fill="none" stroke="#ff0099"/>
<g stroke="#ff0099" stroke-width="1" fill="#ff0099">
<circle cx=" 297" cy=" 87" r=" 1.5"/>
</g>
<path d="M304,77v -1" fill="none" stroke="#ff0099"/>
<path d="M304,73v -1" fill="none" stroke="#ff0099"/>
<path d="M300,75h 3" fill="none" stroke="#ff0099"/>
<path d="M305,75h 3" fill="none" stroke="#ff0099"/>
<g stroke="#ff0099" stroke-width="1" fill="#ff0099">
<circle cx=" 304" cy=" 75" r=" 1.5"/>
</g>
<path d="M312,69v -2" fill="none" stroke="#ff0099"/>
<path d="M312,65v -2" fill="none" stroke="#ff0099"/>
<path d="M308,66h 3" fill="none" stroke="#ff0099"/>
<path d="M313,66h 3" fill="none" stroke="#ff0099"/>
<g stroke="#ff0099" stroke-width="1" fill="#ff0099">
<circle cx=" 312" cy=" 66" r=" 1.5"/>
</g>
<path d="M319,73v -2" fill="none" stroke="#ff0099"/>
<path d="M319,69v -1" fill="none" stroke="#ff0099"/>
<path d="M316,70h 2" fill="none" stroke="#ff0099"/>
<path d="M321,70h 2" fill="none" stroke="#ff0099"/>
<g stroke="#ff0099" stroke-width="1" fill="#ff0099">
<circle cx=" 319" cy=" 70" r=" 1.5"/>
</g>
<path d="M327,78v -2" fill="none" stroke="#ff0099"/>
<path d="M327,74v -2" fill="none" stroke="#ff0099"/>
<path d="M323,75h 3" fill="none" stroke="#ff0099"/>
<path d="M328,75h 3" fill="none" stroke="#ff0099"/>
<g stroke="#ff0099" stroke-width="1" fill="#ff0099">
<circle cx=" 327" cy=" 75" r=" 1.5"/>
</g>
<path d="M334,90v -2" fill="none" stroke="#ff0099"/>
<path d="M334,86v -2" fill="none" stroke="#ff0099"/>
<path d="M331,87h 2" fill="none" stroke="#ff0099"/>
<path d="M336,87h 2" fill="none" stroke="#ff0099"/>
<g stroke="#ff0099" stroke-width="1" fill="#ff0099">
<circle cx=" 334" cy=" 87" r=" 1.5"/>
</g>
<path d="M342,76v -1" fill="none" stroke="#ff0099"/>
<path d="M342,72v -1" fill="none" stroke="#ff0099"/>
<path d="M338,73h 3" fill="none" stroke="#ff0099"/>
<path d="M343,73h 3" fill="none" stroke="#ff0099"/>
<g stroke="#ff0099" stroke-width="1" fill="#ff0099">
<circle cx=" 342" cy=" 73" r=" 1.5"/>
</g>
<path d="M350,77v -2" fill="none" stroke="#ff0099"/>
<path d="M350,73v -1" fill="none" stroke="#ff0099"/>
<path d="M346,74h 2" fill="none" stroke="#ff0099"/>
<path d="M351,74h 2" fill="none" stroke="#ff0099"/>
<g stroke="#ff0099" stroke-width="1" fill="#ff0099">
<circle cx=" 350" cy=" 74" r=" 1.5"/>
</g>
<path d="M357,116v -2" fill="none" stroke="#ff0099"/>
<path d="M357,112v -2" fill="none" stroke="#ff0099"/>
<path d="M353,113h 3" fill="none" stroke="#ff0099"/>
<path d="M358,113h 3" fill="none" stroke="#ff0099"/>
<g stroke="#ff0099" stroke-width="1" fill="#ff0099">
<circle cx=" 357" cy=" 113" r=" 1.5"/>
</g>
<path d="M365,86v -2" fill="none" stroke="#ff0099"/>
<path d="M365,82v -2" fill="none" stroke="#ff0099"/>
<path d="M361,83h 3" fill="none" stroke="#ff0099"/>
<path d="M366,83h 3" fill="none" stroke="#ff0099"/>
<g stroke="#ff0099" stroke-width="1" fill="#ff0099">
<circle cx=" 365" cy=" 83" r=" 1.5"/>
</g>
<path d="M372,113v -2" fill="none" stroke="#ff0099"/>
<path d="M372,109v -2" fill="none" stroke="#ff0099"/>
<path d="M369,110h 2" fill="none" stroke="#ff0099"/>
<path d="M373,110h 3" fill="none" stroke="#ff0099"/>
<g stroke="#ff0099" stroke-width="1" fill="#ff0099">
<circle cx=" 372" cy=" 110" r=" 1.5"/>
</g>
<path d="M380,144v -2" fill="none" stroke="#ff0099"/>
<path d="M380,140v -2" fill="none" stroke="#ff0099"/>
<path d="M376,141h 3" fill="none" stroke="#ff0099"/>
<path d="M381,141h 3" fill="none" stroke="#ff0099"/>
<g stroke="#ff0099" stroke-width="1" fill="#ff0099">
<circle cx=" 380" cy=" 141" r=" 1.5"/>
</g>
<path d="M387,183v -2" fill="none" stroke="#ff0099"/>
<path d="M387,179v -1" fill="none" stroke="#ff0099"/>
<path d="M384,180h 2" fill="none" stroke="#ff0099"/>
<path d="M389,180h 2" fill="none" stroke="#ff0099"/>
<g stroke="#ff0099" stroke-width="1" fill="#ff0099">
<circle cx=" 387" cy=" 180" r=" 1.5"/>
</g>
<path d="M395,171v -1" fill="none" stroke="#ff0099"/>
<path d="M395,168v -1" fill="none" stroke="#ff0099"/>
<path d="M391,169h 3" fill="none" stroke="#ff0099"/>
<path d="M396,169h 3" fill="none" stroke="#ff0099"/>
<g stroke="#ff0099" stroke-width="1" fill="#ff0099">
<circle cx=" 395" cy=" 169" r=" 1.5"/>
</g>
<path d="M403,177v -1" fill="none" stroke="#ff0099"/>
<path d="M403,174v -1" fill="none" stroke="#ff0099"/>
<path d="M399,175h 2" fill="none" stroke="#ff0099"/>
<path d="M404,175h 2" fill="none" stroke="#ff0099"/>
<g stroke="#ff0099" stroke-width="1" fill="#ff0099">
<circle cx=" 403" cy=" 175" r=" 1.5"/>
</g>
<path d="M410,332" fill="none" stroke="#ff0099"/>
<path d="M410,330v -1" fill="none" stroke="#ff0099"/>
<path d="M406,331h 3" fill="none" stroke="#ff0099"/>
<path d="M411,331h 3" fill="none" stroke="#ff0099"/>
<g stroke="#ff0099" stroke-width="1" fill="#ff0099">
<circle cx=" 410" cy=" 331" r=" 1.5"/>
</g>
<rect x="357" y="59" width="142" height="99" fill="white"/>
<text x="360" y="82" fill="black" font-size="17" font-family="Helvetica" font-weight="bold">
EB
</text>
<text x="457" y="115" fill="black" font-size="17" font-family="Helvetica" font-weight="bold">
 ee
</text>
<text x="440" y="115" fill="black" font-size="17" font-family="Times">
&#8594;
</text>
<text x="392" y="115" fill="black" font-size="17" font-family="Helvetica" font-weight="bold">
MC Z 
</text>
<path d="M362,109h 25" fill="none" stroke="#ff0099"/>
<g stroke="#ff0099" stroke-width="1" fill="#ff0099">
<circle cx=" 375" cy=" 109" r=" 1.5"/>
</g>
<text x="455" y="147" fill="black" font-size="17" font-family="Helvetica" font-weight="bold">
 + jet
</text>
<text x="447" y="147" fill="black" font-size="17" font-family="Times">
&#0947;
</text>
<text x="392" y="147" fill="black" font-size="17" font-family="Helvetica" font-weight="bold">
signal 
</text>
<path d="M362,154h 25v -24h -25z" fill="#99ff99"/>
<path d="M362,130h 25" fill="none" stroke="#99ff99" stroke-width="2"/>
<path d="M362,154h 25" fill="none" stroke="#99ff99" stroke-width="2"/>
<path d="M387,154v -24" fill="none" stroke="#99ff99" stroke-width="2"/>
<path d="M362,154v -24" fill="none" stroke="#99ff99" stroke-width="2"/>
<text x="300" y="34" fill="black" font-size="17" font-family="Helvetica" font-weight="bold">
=8 TeV
</text>
<text x="291" y="34" fill="black" font-size="17" font-family="Helvetica" font-weight="bold">
s
</text>
<path d="M285,25l 2, 10" fill="none" stroke="black" stroke-width="2"/>
<path d="M287,35l 2, -14" fill="none" stroke="black"/>
<path d="M289,21h 11" fill="none" stroke="black"/>
<text x="142" y="34" fill="black" font-size="17" font-family="Helvetica" font-weight="bold">
CMS Preliminary 
</text></svg>
