<?xml version="1.0" standalone="no"?>
<svg width="567" height="496" viewBox="0 0 567 496" xmlns="http://www.w3.org/2000/svg">
<title>
../src/TagAndProbeZ/plots_mcZee_mcGJet_withEtaR9Reweight//etaPhotEE.svg
</title>
<desc>
Creator: ROOT Version 5.32/00
CreationDate: Sat Sep 27 23:34:15 2014</desc>
<defs>
</defs>
<rect x="0" y="0" width="567" height="496" fill="white"/>
<rect x="74" y="44" width="453" height="402" fill="white"/>
<rect x="74" y="44" width="453" height="402" fill="none" stroke="black"/>
<rect x="74" y="44" width="453" height="402" fill="white"/>
<rect x="74" y="44" width="453" height="402" fill="none" stroke="black"/>
<path d="M115,224v -2" fill="none" stroke="#ff0099"/>
<path d="M115,220v -3" fill="none" stroke="#ff0099"/>
<path d="M111,221h 3" fill="none" stroke="#ff0099"/>
<path d="M116,221h 3" fill="none" stroke="#ff0099"/>
<g stroke="#ff0099" stroke-width="1" fill="#ff0099">
<circle cx=" 115" cy=" 221" r=" 1.5"/>
</g>
<path d="M123,136v -3" fill="none" stroke="#ff0099"/>
<path d="M123,131v -3" fill="none" stroke="#ff0099"/>
<path d="M119,132h 3" fill="none" stroke="#ff0099"/>
<path d="M124,132h 3" fill="none" stroke="#ff0099"/>
<g stroke="#ff0099" stroke-width="1" fill="#ff0099">
<circle cx=" 123" cy=" 132" r=" 1.5"/>
</g>
<path d="M130,126v -3" fill="none" stroke="#ff0099"/>
<path d="M130,121v -4" fill="none" stroke="#ff0099"/>
<path d="M127,122h 2" fill="none" stroke="#ff0099"/>
<path d="M132,122h 2" fill="none" stroke="#ff0099"/>
<g stroke="#ff0099" stroke-width="1" fill="#ff0099">
<circle cx=" 130" cy=" 122" r=" 1.5"/>
</g>
<path d="M138,100v -4" fill="none" stroke="#ff0099"/>
<path d="M138,94v -4" fill="none" stroke="#ff0099"/>
<path d="M134,95h 3" fill="none" stroke="#ff0099"/>
<path d="M139,95h 3" fill="none" stroke="#ff0099"/>
<g stroke="#ff0099" stroke-width="1" fill="#ff0099">
<circle cx=" 138" cy=" 95" r=" 1.5"/>
</g>
<path d="M146,81v -4" fill="none" stroke="#ff0099"/>
<path d="M146,75v -4" fill="none" stroke="#ff0099"/>
<path d="M142,76h 2" fill="none" stroke="#ff0099"/>
<path d="M147,76h 2" fill="none" stroke="#ff0099"/>
<g stroke="#ff0099" stroke-width="1" fill="#ff0099">
<circle cx=" 146" cy=" 76" r=" 1.5"/>
</g>
<path d="M153,84v -3" fill="none" stroke="#ff0099"/>
<path d="M153,78v -3" fill="none" stroke="#ff0099"/>
<path d="M149,79h 3" fill="none" stroke="#ff0099"/>
<path d="M154,79h 3" fill="none" stroke="#ff0099"/>
<g stroke="#ff0099" stroke-width="1" fill="#ff0099">
<circle cx=" 153" cy=" 79" r=" 1.5"/>
</g>
<path d="M161,118v -3" fill="none" stroke="#ff0099"/>
<path d="M161,113v -4" fill="none" stroke="#ff0099"/>
<path d="M157,114h 2" fill="none" stroke="#ff0099"/>
<path d="M162,114h 2" fill="none" stroke="#ff0099"/>
<g stroke="#ff0099" stroke-width="1" fill="#ff0099">
<circle cx=" 161" cy=" 114" r=" 1.5"/>
</g>
<path d="M168,101v -4" fill="none" stroke="#ff0099"/>
<path d="M168,95v -4" fill="none" stroke="#ff0099"/>
<path d="M164,96h 3" fill="none" stroke="#ff0099"/>
<path d="M169,96h 3" fill="none" stroke="#ff0099"/>
<g stroke="#ff0099" stroke-width="1" fill="#ff0099">
<circle cx=" 168" cy=" 96" r=" 1.5"/>
</g>
<path d="M176,75v -4" fill="none" stroke="#ff0099"/>
<path d="M176,69v -5" fill="none" stroke="#ff0099"/>
<path d="M172,70h 3" fill="none" stroke="#ff0099"/>
<path d="M177,70h 3" fill="none" stroke="#ff0099"/>
<g stroke="#ff0099" stroke-width="1" fill="#ff0099">
<circle cx=" 176" cy=" 70" r=" 1.5"/>
</g>
<path d="M183,328v -2" fill="none" stroke="#ff0099"/>
<path d="M183,324v -2" fill="none" stroke="#ff0099"/>
<path d="M180,325h 2" fill="none" stroke="#ff0099"/>
<path d="M184,325h 3" fill="none" stroke="#ff0099"/>
<g stroke="#ff0099" stroke-width="1" fill="#ff0099">
<circle cx=" 183" cy=" 325" r=" 1.5"/>
</g>
<path d="M418,330v -2" fill="none" stroke="#ff0099"/>
<path d="M418,325v -2" fill="none" stroke="#ff0099"/>
<path d="M414,327h 2" fill="none" stroke="#ff0099"/>
<path d="M419,327h 2" fill="none" stroke="#ff0099"/>
<g stroke="#ff0099" stroke-width="1" fill="#ff0099">
<circle cx=" 418" cy=" 327" r=" 1.5"/>
</g>
<path d="M425,114v -5" fill="none" stroke="#ff0099"/>
<path d="M425,107v -4" fill="none" stroke="#ff0099"/>
<path d="M421,108h 3" fill="none" stroke="#ff0099"/>
<path d="M426,108h 3" fill="none" stroke="#ff0099"/>
<g stroke="#ff0099" stroke-width="1" fill="#ff0099">
<circle cx=" 425" cy=" 108" r=" 1.5"/>
</g>
<path d="M433,110v -4" fill="none" stroke="#ff0099"/>
<path d="M433,104v -4" fill="none" stroke="#ff0099"/>
<path d="M429,105h 3" fill="none" stroke="#ff0099"/>
<path d="M434,105h 3" fill="none" stroke="#ff0099"/>
<g stroke="#ff0099" stroke-width="1" fill="#ff0099">
<circle cx=" 433" cy=" 105" r=" 1.5"/>
</g>
<path d="M440,106v -3" fill="none" stroke="#ff0099"/>
<path d="M440,101v -4" fill="none" stroke="#ff0099"/>
<path d="M437,102h 2" fill="none" stroke="#ff0099"/>
<path d="M441,102h 3" fill="none" stroke="#ff0099"/>
<g stroke="#ff0099" stroke-width="1" fill="#ff0099">
<circle cx=" 440" cy=" 102" r=" 1.5"/>
</g>
<path d="M448,74v -4" fill="none" stroke="#ff0099"/>
<path d="M448,67v -4" fill="none" stroke="#ff0099"/>
<path d="M444,69h 3" fill="none" stroke="#ff0099"/>
<path d="M449,69h 3" fill="none" stroke="#ff0099"/>
<g stroke="#ff0099" stroke-width="1" fill="#ff0099">
<circle cx=" 448" cy=" 69" r=" 1.5"/>
</g>
<path d="M455,74v -4" fill="none" stroke="#ff0099"/>
<path d="M455,68v -4" fill="none" stroke="#ff0099"/>
<path d="M452,69h 2" fill="none" stroke="#ff0099"/>
<path d="M457,69h 2" fill="none" stroke="#ff0099"/>
<g stroke="#ff0099" stroke-width="1" fill="#ff0099">
<circle cx=" 455" cy=" 69" r=" 1.5"/>
</g>
<path d="M463,86v -4" fill="none" stroke="#ff0099"/>
<path d="M463,80v -4" fill="none" stroke="#ff0099"/>
<path d="M459,81h 3" fill="none" stroke="#ff0099"/>
<path d="M464,81h 3" fill="none" stroke="#ff0099"/>
<g stroke="#ff0099" stroke-width="1" fill="#ff0099">
<circle cx=" 463" cy=" 81" r=" 1.5"/>
</g>
<path d="M471,113v -4" fill="none" stroke="#ff0099"/>
<path d="M471,107v -3" fill="none" stroke="#ff0099"/>
<path d="M467,108h 2" fill="none" stroke="#ff0099"/>
<path d="M472,108h 2" fill="none" stroke="#ff0099"/>
<g stroke="#ff0099" stroke-width="1" fill="#ff0099">
<circle cx=" 471" cy=" 108" r=" 1.5"/>
</g>
<path d="M478,122v -3" fill="none" stroke="#ff0099"/>
<path d="M478,116v -3" fill="none" stroke="#ff0099"/>
<path d="M474,117h 3" fill="none" stroke="#ff0099"/>
<path d="M479,117h 3" fill="none" stroke="#ff0099"/>
<g stroke="#ff0099" stroke-width="1" fill="#ff0099">
<circle cx=" 478" cy=" 117" r=" 1.5"/>
</g>
<path d="M486,221v -3" fill="none" stroke="#ff0099"/>
<path d="M486,216v -2" fill="none" stroke="#ff0099"/>
<path d="M482,217h 3" fill="none" stroke="#ff0099"/>
<path d="M487,217h 2" fill="none" stroke="#ff0099"/>
<g stroke="#ff0099" stroke-width="1" fill="#ff0099">
<circle cx=" 486" cy=" 217" r=" 1.5"/>
</g>
<path d="M74,446h 453" fill="none" stroke="black"/>
<path d="M74,434v 12" fill="none" stroke="black"/>
<path d="M89,440v 6" fill="none" stroke="black"/>
<path d="M104,440v 6" fill="none" stroke="black"/>
<path d="M119,440v 6" fill="none" stroke="black"/>
<path d="M134,440v 6" fill="none" stroke="black"/>
<path d="M149,434v 12" fill="none" stroke="black"/>
<path d="M164,440v 6" fill="none" stroke="black"/>
<path d="M180,440v 6" fill="none" stroke="black"/>
<path d="M195,440v 6" fill="none" stroke="black"/>
<path d="M210,440v 6" fill="none" stroke="black"/>
<path d="M225,434v 12" fill="none" stroke="black"/>
<path d="M240,440v 6" fill="none" stroke="black"/>
<path d="M255,440v 6" fill="none" stroke="black"/>
<path d="M270,440v 6" fill="none" stroke="black"/>
<path d="M285,440v 6" fill="none" stroke="black"/>
<path d="M300,434v 12" fill="none" stroke="black"/>
<path d="M316,440v 6" fill="none" stroke="black"/>
<path d="M331,440v 6" fill="none" stroke="black"/>
<path d="M346,440v 6" fill="none" stroke="black"/>
<path d="M361,440v 6" fill="none" stroke="black"/>
<path d="M376,434v 12" fill="none" stroke="black"/>
<path d="M391,440v 6" fill="none" stroke="black"/>
<path d="M406,440v 6" fill="none" stroke="black"/>
<path d="M421,440v 6" fill="none" stroke="black"/>
<path d="M437,440v 6" fill="none" stroke="black"/>
<path d="M452,434v 12" fill="none" stroke="black"/>
<path d="M467,440v 6" fill="none" stroke="black"/>
<path d="M482,440v 6" fill="none" stroke="black"/>
<path d="M497,440v 6" fill="none" stroke="black"/>
<path d="M512,440v 6" fill="none" stroke="black"/>
<path d="M527,434v 12" fill="none" stroke="black"/>
<path d="M527,434v 12" fill="none" stroke="black"/>
<text x="65" y="465" fill="black" font-size="18" font-family="Helvetica" font-weight="bold">
-3
</text>
<text x="141" y="465" fill="black" font-size="18" font-family="Helvetica" font-weight="bold">
-2
</text>
<text x="218" y="465" fill="black" font-size="18" font-family="Helvetica" font-weight="bold">
-1
</text>
<text x="295" y="465" fill="black" font-size="18" font-family="Helvetica" font-weight="bold">
0
</text>
<text x="372" y="465" fill="black" font-size="18" font-family="Helvetica" font-weight="bold">
1
</text>
<text x="446" y="465" fill="black" font-size="18" font-family="Helvetica" font-weight="bold">
2
</text>
<text x="522" y="465" fill="black" font-size="18" font-family="Helvetica" font-weight="bold">
3
</text>
<path d="M74,44h 453" fill="none" stroke="black"/>
<path d="M74,56v -12" fill="none" stroke="black"/>
<path d="M89,50v -6" fill="none" stroke="black"/>
<path d="M104,50v -6" fill="none" stroke="black"/>
<path d="M119,50v -6" fill="none" stroke="black"/>
<path d="M134,50v -6" fill="none" stroke="black"/>
<path d="M149,56v -12" fill="none" stroke="black"/>
<path d="M164,50v -6" fill="none" stroke="black"/>
<path d="M180,50v -6" fill="none" stroke="black"/>
<path d="M195,50v -6" fill="none" stroke="black"/>
<path d="M210,50v -6" fill="none" stroke="black"/>
<path d="M225,56v -12" fill="none" stroke="black"/>
<path d="M240,50v -6" fill="none" stroke="black"/>
<path d="M255,50v -6" fill="none" stroke="black"/>
<path d="M270,50v -6" fill="none" stroke="black"/>
<path d="M285,50v -6" fill="none" stroke="black"/>
<path d="M300,56v -12" fill="none" stroke="black"/>
<path d="M316,50v -6" fill="none" stroke="black"/>
<path d="M331,50v -6" fill="none" stroke="black"/>
<path d="M346,50v -6" fill="none" stroke="black"/>
<path d="M361,50v -6" fill="none" stroke="black"/>
<path d="M376,56v -12" fill="none" stroke="black"/>
<path d="M391,50v -6" fill="none" stroke="black"/>
<path d="M406,50v -6" fill="none" stroke="black"/>
<path d="M421,50v -6" fill="none" stroke="black"/>
<path d="M437,50v -6" fill="none" stroke="black"/>
<path d="M452,56v -12" fill="none" stroke="black"/>
<path d="M467,50v -6" fill="none" stroke="black"/>
<path d="M482,50v -6" fill="none" stroke="black"/>
<path d="M497,50v -6" fill="none" stroke="black"/>
<path d="M512,50v -6" fill="none" stroke="black"/>
<path d="M527,56v -12" fill="none" stroke="black"/>
<path d="M527,56v -12" fill="none" stroke="black"/>
<path d="M74,446v -402" fill="none" stroke="black"/>
<path d="M87,446h -13" fill="none" stroke="black"/>
<path d="M81,434h -7" fill="none" stroke="black"/>
<path d="M81,421h -7" fill="none" stroke="black"/>
<path d="M81,409h -7" fill="none" stroke="black"/>
<path d="M81,396h -7" fill="none" stroke="black"/>
<path d="M87,383h -13" fill="none" stroke="black"/>
<path d="M81,371h -7" fill="none" stroke="black"/>
<path d="M81,358h -7" fill="none" stroke="black"/>
<path d="M81,346h -7" fill="none" stroke="black"/>
<path d="M81,333h -7" fill="none" stroke="black"/>
<path d="M87,320h -13" fill="none" stroke="black"/>
<path d="M81,308h -7" fill="none" stroke="black"/>
<path d="M81,295h -7" fill="none" stroke="black"/>
<path d="M81,283h -7" fill="none" stroke="black"/>
<path d="M81,270h -7" fill="none" stroke="black"/>
<path d="M87,258h -13" fill="none" stroke="black"/>
<path d="M81,245h -7" fill="none" stroke="black"/>
<path d="M81,232h -7" fill="none" stroke="black"/>
<path d="M81,220h -7" fill="none" stroke="black"/>
<path d="M81,207h -7" fill="none" stroke="black"/>
<path d="M87,195h -13" fill="none" stroke="black"/>
<path d="M81,182h -7" fill="none" stroke="black"/>
<path d="M81,169h -7" fill="none" stroke="black"/>
<path d="M81,157h -7" fill="none" stroke="black"/>
<path d="M81,144h -7" fill="none" stroke="black"/>
<path d="M87,132h -13" fill="none" stroke="black"/>
<path d="M81,119h -7" fill="none" stroke="black"/>
<path d="M81,106h -7" fill="none" stroke="black"/>
<path d="M81,94h -7" fill="none" stroke="black"/>
<path d="M81,81h -7" fill="none" stroke="black"/>
<path d="M87,69h -13" fill="none" stroke="black"/>
<path d="M87,69h -13" fill="none" stroke="black"/>
<path d="M81,56h -7" fill="none" stroke="black"/>
<text x="61" y="453" fill="black" font-size="18" font-family="Helvetica" font-weight="bold">
0
</text>
<text x="37" y="390" fill="black" font-size="18" font-family="Helvetica" font-weight="bold">
0.01
</text>
<text x="35" y="327" fill="black" font-size="18" font-family="Helvetica" font-weight="bold">
0.02
</text>
<text x="35" y="264" fill="black" font-size="18" font-family="Helvetica" font-weight="bold">
0.03
</text>
<text x="34" y="201" fill="black" font-size="18" font-family="Helvetica" font-weight="bold">
0.04
</text>
<text x="34" y="138" fill="black" font-size="18" font-family="Helvetica" font-weight="bold">
0.05
</text>
<text x="34" y="75" fill="black" font-size="18" font-family="Helvetica" font-weight="bold">
0.06
</text>
<path d="M115,174v -4" fill="none" stroke="#99ff99" stroke-width="2"/>
<path d="M115,170v -5" fill="none" stroke="#99ff99" stroke-width="2"/>
<g stroke="black" stroke-width="2" fill="none">
<line x1="114" y1="170" x2="115" y2="170"/>
</g>
<path d="M123,98v -7" fill="none" stroke="#99ff99" stroke-width="2"/>
<path d="M123,91v -7" fill="none" stroke="#99ff99" stroke-width="2"/>
<g stroke="black" stroke-width="2" fill="none">
<line x1="122" y1="91" x2="123" y2="91"/>
</g>
<path d="M130,108v -7" fill="none" stroke="#99ff99" stroke-width="2"/>
<path d="M130,101v -6" fill="none" stroke="#99ff99" stroke-width="2"/>
<g stroke="black" stroke-width="2" fill="none">
<line x1="129" y1="101" x2="130" y2="101"/>
</g>
<path d="M138,104v -7" fill="none" stroke="#99ff99" stroke-width="2"/>
<path d="M138,97v -6" fill="none" stroke="#99ff99" stroke-width="2"/>
<g stroke="black" stroke-width="2" fill="none">
<line x1="137" y1="97" x2="138" y2="97"/>
</g>
<path d="M146,114v -7" fill="none" stroke="#99ff99" stroke-width="2"/>
<path d="M146,107v -7" fill="none" stroke="#99ff99" stroke-width="2"/>
<g stroke="black" stroke-width="2" fill="none">
<line x1="145" y1="107" x2="146" y2="107"/>
</g>
<path d="M153,94v -7" fill="none" stroke="#99ff99" stroke-width="2"/>
<path d="M153,87v -8" fill="none" stroke="#99ff99" stroke-width="2"/>
<g stroke="black" stroke-width="2" fill="none">
<line x1="152" y1="87" x2="153" y2="87"/>
</g>
<path d="M161,123v -6" fill="none" stroke="#99ff99" stroke-width="2"/>
<path d="M161,117v -7" fill="none" stroke="#99ff99" stroke-width="2"/>
<g stroke="black" stroke-width="2" fill="none">
<line x1="160" y1="117" x2="161" y2="117"/>
</g>
<path d="M168,119v -7" fill="none" stroke="#99ff99" stroke-width="2"/>
<path d="M168,112v -7" fill="none" stroke="#99ff99" stroke-width="2"/>
<g stroke="black" stroke-width="2" fill="none">
<line x1="167" y1="112" x2="168" y2="112"/>
</g>
<path d="M176,122v -6" fill="none" stroke="#99ff99" stroke-width="2"/>
<path d="M176,116v -7" fill="none" stroke="#99ff99" stroke-width="2"/>
<g stroke="black" stroke-width="2" fill="none">
<line x1="175" y1="116" x2="176" y2="116"/>
</g>
<path d="M183,338v -4" fill="none" stroke="#99ff99" stroke-width="2"/>
<path d="M183,334v -4" fill="none" stroke="#99ff99" stroke-width="2"/>
<g stroke="black" stroke-width="2" fill="none">
<line x1="182" y1="334" x2="183" y2="334"/>
</g>
<path d="M418,348v -4" fill="none" stroke="#99ff99" stroke-width="2"/>
<path d="M418,344v -3" fill="none" stroke="#99ff99" stroke-width="2"/>
<g stroke="black" stroke-width="2" fill="none">
<line x1="417" y1="344" x2="418" y2="344"/>
</g>
<path d="M425,151v -7" fill="none" stroke="#99ff99" stroke-width="2"/>
<path d="M425,144v -6" fill="none" stroke="#99ff99" stroke-width="2"/>
<g stroke="black" stroke-width="2" fill="none">
<line x1="424" y1="144" x2="425" y2="144"/>
</g>
<path d="M433,122v -7" fill="none" stroke="#99ff99" stroke-width="2"/>
<path d="M433,115v -7" fill="none" stroke="#99ff99" stroke-width="2"/>
<g stroke="black" stroke-width="2" fill="none">
<line x1="432" y1="115" x2="433" y2="115"/>
</g>
<path d="M440,121v -6" fill="none" stroke="#99ff99" stroke-width="2"/>
<path d="M440,115v -7" fill="none" stroke="#99ff99" stroke-width="2"/>
<g stroke="black" stroke-width="2" fill="none">
<line x1="439" y1="115" x2="440" y2="115"/>
</g>
<path d="M448,106v -7" fill="none" stroke="#99ff99" stroke-width="2"/>
<path d="M448,99v -6" fill="none" stroke="#99ff99" stroke-width="2"/>
<g stroke="black" stroke-width="2" fill="none">
<line x1="447" y1="99" x2="448" y2="99"/>
</g>
<path d="M455,84v -7" fill="none" stroke="#99ff99" stroke-width="2"/>
<path d="M455,77v -7" fill="none" stroke="#99ff99" stroke-width="2"/>
<g stroke="black" stroke-width="2" fill="none">
<line x1="454" y1="77" x2="455" y2="77"/>
</g>
<path d="M463,98v -7" fill="none" stroke="#99ff99" stroke-width="2"/>
<path d="M463,91v -7" fill="none" stroke="#99ff99" stroke-width="2"/>
<g stroke="black" stroke-width="2" fill="none">
<line x1="462" y1="91" x2="463" y2="91"/>
</g>
<path d="M471,80v -7" fill="none" stroke="#99ff99" stroke-width="2"/>
<path d="M471,73v -7" fill="none" stroke="#99ff99" stroke-width="2"/>
<g stroke="black" stroke-width="2" fill="none">
<line x1="470" y1="73" x2="471" y2="73"/>
</g>
<path d="M478,79v -7" fill="none" stroke="#99ff99" stroke-width="2"/>
<path d="M478,72v -7" fill="none" stroke="#99ff99" stroke-width="2"/>
<g stroke="black" stroke-width="2" fill="none">
<line x1="477" y1="72" x2="478" y2="72"/>
</g>
<path d="M486,175v -4" fill="none" stroke="#99ff99" stroke-width="2"/>
<path d="M486,171v -5" fill="none" stroke="#99ff99" stroke-width="2"/>
<g stroke="black" stroke-width="2" fill="none">
<line x1="485" y1="171" x2="486" y2="171"/>
</g>
<path d="M74,446h 37v -276h 8v -79h 8v 10h 7v -4h 8v 10h 7v -20h 8v 30h 7v -5h 8v 4h 8v 218h 7v 112h 227v -102h 7v -200h 8v -29h 15v -16h 8v -22h 7v 14h 8v -18h 7v -1h 8v 99h 7v 275h 38z" fill="#99ff99"/>
<path d="M74,446h 37v -276h 8v -79h 8v 10h 7v -4h 8v 10h 7v -20h 8v 30h 7v -5h 8v 4h 8v 218h 7v 112h 227v -102h 7v -200h 8v -29h 15v -16h 8v -22h 7v 14h 8v -18h 7v -1h 8v 99h 7v 275h 38" fill="none" stroke="#99ff99" stroke-width="2"/>
<path d="M115,224v -2" fill="none" stroke="#ff0099"/>
<path d="M115,220v -3" fill="none" stroke="#ff0099"/>
<path d="M111,221h 3" fill="none" stroke="#ff0099"/>
<path d="M116,221h 3" fill="none" stroke="#ff0099"/>
<g stroke="#ff0099" stroke-width="1" fill="#ff0099">
<circle cx=" 115" cy=" 221" r=" 1.5"/>
</g>
<path d="M123,136v -3" fill="none" stroke="#ff0099"/>
<path d="M123,131v -3" fill="none" stroke="#ff0099"/>
<path d="M119,132h 3" fill="none" stroke="#ff0099"/>
<path d="M124,132h 3" fill="none" stroke="#ff0099"/>
<g stroke="#ff0099" stroke-width="1" fill="#ff0099">
<circle cx=" 123" cy=" 132" r=" 1.5"/>
</g>
<path d="M130,126v -3" fill="none" stroke="#ff0099"/>
<path d="M130,121v -4" fill="none" stroke="#ff0099"/>
<path d="M127,122h 2" fill="none" stroke="#ff0099"/>
<path d="M132,122h 2" fill="none" stroke="#ff0099"/>
<g stroke="#ff0099" stroke-width="1" fill="#ff0099">
<circle cx=" 130" cy=" 122" r=" 1.5"/>
</g>
<path d="M138,100v -4" fill="none" stroke="#ff0099"/>
<path d="M138,94v -4" fill="none" stroke="#ff0099"/>
<path d="M134,95h 3" fill="none" stroke="#ff0099"/>
<path d="M139,95h 3" fill="none" stroke="#ff0099"/>
<g stroke="#ff0099" stroke-width="1" fill="#ff0099">
<circle cx=" 138" cy=" 95" r=" 1.5"/>
</g>
<path d="M146,81v -4" fill="none" stroke="#ff0099"/>
<path d="M146,75v -4" fill="none" stroke="#ff0099"/>
<path d="M142,76h 2" fill="none" stroke="#ff0099"/>
<path d="M147,76h 2" fill="none" stroke="#ff0099"/>
<g stroke="#ff0099" stroke-width="1" fill="#ff0099">
<circle cx=" 146" cy=" 76" r=" 1.5"/>
</g>
<path d="M153,84v -3" fill="none" stroke="#ff0099"/>
<path d="M153,78v -3" fill="none" stroke="#ff0099"/>
<path d="M149,79h 3" fill="none" stroke="#ff0099"/>
<path d="M154,79h 3" fill="none" stroke="#ff0099"/>
<g stroke="#ff0099" stroke-width="1" fill="#ff0099">
<circle cx=" 153" cy=" 79" r=" 1.5"/>
</g>
<path d="M161,118v -3" fill="none" stroke="#ff0099"/>
<path d="M161,113v -4" fill="none" stroke="#ff0099"/>
<path d="M157,114h 2" fill="none" stroke="#ff0099"/>
<path d="M162,114h 2" fill="none" stroke="#ff0099"/>
<g stroke="#ff0099" stroke-width="1" fill="#ff0099">
<circle cx=" 161" cy=" 114" r=" 1.5"/>
</g>
<path d="M168,101v -4" fill="none" stroke="#ff0099"/>
<path d="M168,95v -4" fill="none" stroke="#ff0099"/>
<path d="M164,96h 3" fill="none" stroke="#ff0099"/>
<path d="M169,96h 3" fill="none" stroke="#ff0099"/>
<g stroke="#ff0099" stroke-width="1" fill="#ff0099">
<circle cx=" 168" cy=" 96" r=" 1.5"/>
</g>
<path d="M176,75v -4" fill="none" stroke="#ff0099"/>
<path d="M176,69v -5" fill="none" stroke="#ff0099"/>
<path d="M172,70h 3" fill="none" stroke="#ff0099"/>
<path d="M177,70h 3" fill="none" stroke="#ff0099"/>
<g stroke="#ff0099" stroke-width="1" fill="#ff0099">
<circle cx=" 176" cy=" 70" r=" 1.5"/>
</g>
<path d="M183,328v -2" fill="none" stroke="#ff0099"/>
<path d="M183,324v -2" fill="none" stroke="#ff0099"/>
<path d="M180,325h 2" fill="none" stroke="#ff0099"/>
<path d="M184,325h 3" fill="none" stroke="#ff0099"/>
<g stroke="#ff0099" stroke-width="1" fill="#ff0099">
<circle cx=" 183" cy=" 325" r=" 1.5"/>
</g>
<path d="M418,330v -2" fill="none" stroke="#ff0099"/>
<path d="M418,325v -2" fill="none" stroke="#ff0099"/>
<path d="M414,327h 2" fill="none" stroke="#ff0099"/>
<path d="M419,327h 2" fill="none" stroke="#ff0099"/>
<g stroke="#ff0099" stroke-width="1" fill="#ff0099">
<circle cx=" 418" cy=" 327" r=" 1.5"/>
</g>
<path d="M425,114v -5" fill="none" stroke="#ff0099"/>
<path d="M425,107v -4" fill="none" stroke="#ff0099"/>
<path d="M421,108h 3" fill="none" stroke="#ff0099"/>
<path d="M426,108h 3" fill="none" stroke="#ff0099"/>
<g stroke="#ff0099" stroke-width="1" fill="#ff0099">
<circle cx=" 425" cy=" 108" r=" 1.5"/>
</g>
<path d="M433,110v -4" fill="none" stroke="#ff0099"/>
<path d="M433,104v -4" fill="none" stroke="#ff0099"/>
<path d="M429,105h 3" fill="none" stroke="#ff0099"/>
<path d="M434,105h 3" fill="none" stroke="#ff0099"/>
<g stroke="#ff0099" stroke-width="1" fill="#ff0099">
<circle cx=" 433" cy=" 105" r=" 1.5"/>
</g>
<path d="M440,106v -3" fill="none" stroke="#ff0099"/>
<path d="M440,101v -4" fill="none" stroke="#ff0099"/>
<path d="M437,102h 2" fill="none" stroke="#ff0099"/>
<path d="M441,102h 3" fill="none" stroke="#ff0099"/>
<g stroke="#ff0099" stroke-width="1" fill="#ff0099">
<circle cx=" 440" cy=" 102" r=" 1.5"/>
</g>
<path d="M448,74v -4" fill="none" stroke="#ff0099"/>
<path d="M448,67v -4" fill="none" stroke="#ff0099"/>
<path d="M444,69h 3" fill="none" stroke="#ff0099"/>
<path d="M449,69h 3" fill="none" stroke="#ff0099"/>
<g stroke="#ff0099" stroke-width="1" fill="#ff0099">
<circle cx=" 448" cy=" 69" r=" 1.5"/>
</g>
<path d="M455,74v -4" fill="none" stroke="#ff0099"/>
<path d="M455,68v -4" fill="none" stroke="#ff0099"/>
<path d="M452,69h 2" fill="none" stroke="#ff0099"/>
<path d="M457,69h 2" fill="none" stroke="#ff0099"/>
<g stroke="#ff0099" stroke-width="1" fill="#ff0099">
<circle cx=" 455" cy=" 69" r=" 1.5"/>
</g>
<path d="M463,86v -4" fill="none" stroke="#ff0099"/>
<path d="M463,80v -4" fill="none" stroke="#ff0099"/>
<path d="M459,81h 3" fill="none" stroke="#ff0099"/>
<path d="M464,81h 3" fill="none" stroke="#ff0099"/>
<g stroke="#ff0099" stroke-width="1" fill="#ff0099">
<circle cx=" 463" cy=" 81" r=" 1.5"/>
</g>
<path d="M471,113v -4" fill="none" stroke="#ff0099"/>
<path d="M471,107v -3" fill="none" stroke="#ff0099"/>
<path d="M467,108h 2" fill="none" stroke="#ff0099"/>
<path d="M472,108h 2" fill="none" stroke="#ff0099"/>
<g stroke="#ff0099" stroke-width="1" fill="#ff0099">
<circle cx=" 471" cy=" 108" r=" 1.5"/>
</g>
<path d="M478,122v -3" fill="none" stroke="#ff0099"/>
<path d="M478,116v -3" fill="none" stroke="#ff0099"/>
<path d="M474,117h 3" fill="none" stroke="#ff0099"/>
<path d="M479,117h 3" fill="none" stroke="#ff0099"/>
<g stroke="#ff0099" stroke-width="1" fill="#ff0099">
<circle cx=" 478" cy=" 117" r=" 1.5"/>
</g>
<path d="M486,221v -3" fill="none" stroke="#ff0099"/>
<path d="M486,216v -2" fill="none" stroke="#ff0099"/>
<path d="M482,217h 3" fill="none" stroke="#ff0099"/>
<path d="M487,217h 2" fill="none" stroke="#ff0099"/>
<g stroke="#ff0099" stroke-width="1" fill="#ff0099">
<circle cx=" 486" cy=" 217" r=" 1.5"/>
</g>
<rect x="357" y="59" width="142" height="99" fill="white"/>
<text x="360" y="82" fill="black" font-size="17" font-family="Helvetica" font-weight="bold">
EE
</text>
<text x="457" y="115" fill="black" font-size="17" font-family="Helvetica" font-weight="bold">
 ee
</text>
<text x="440" y="115" fill="black" font-size="17" font-family="Times">
&#8594;
</text>
<text x="392" y="115" fill="black" font-size="17" font-family="Helvetica" font-weight="bold">
MC Z 
</text>
<path d="M362,109h 25" fill="none" stroke="#ff0099"/>
<g stroke="#ff0099" stroke-width="1" fill="#ff0099">
<circle cx=" 375" cy=" 109" r=" 1.5"/>
</g>
<text x="455" y="147" fill="black" font-size="17" font-family="Helvetica" font-weight="bold">
 + jet
</text>
<text x="447" y="147" fill="black" font-size="17" font-family="Times">
&#0947;
</text>
<text x="392" y="147" fill="black" font-size="17" font-family="Helvetica" font-weight="bold">
signal 
</text>
<path d="M362,154h 25v -24h -25z" fill="#99ff99"/>
<path d="M362,130h 25" fill="none" stroke="#99ff99" stroke-width="2"/>
<path d="M362,154h 25" fill="none" stroke="#99ff99" stroke-width="2"/>
<path d="M387,154v -24" fill="none" stroke="#99ff99" stroke-width="2"/>
<path d="M362,154v -24" fill="none" stroke="#99ff99" stroke-width="2"/>
<text x="300" y="34" fill="black" font-size="17" font-family="Helvetica" font-weight="bold">
=8 TeV
</text>
<text x="291" y="34" fill="black" font-size="17" font-family="Helvetica" font-weight="bold">
s
</text>
<path d="M285,25l 2, 10" fill="none" stroke="black" stroke-width="2"/>
<path d="M287,35l 2, -14" fill="none" stroke="black"/>
<path d="M289,21h 11" fill="none" stroke="black"/>
<text x="142" y="34" fill="black" font-size="17" font-family="Helvetica" font-weight="bold">
CMS Preliminary 
</text></svg>
