<?xml version="1.0" standalone="no"?>
<svg width="567" height="496" viewBox="0 0 567 496" xmlns="http://www.w3.org/2000/svg">
<title>
plots_mcZee_mcGJet//hlt135//etaPhotEE.svg
</title>
<desc>
Creator: ROOT Version 5.32/00
CreationDate: Sat Nov 29 19:43:44 2014</desc>
<defs>
</defs>
<rect x="0" y="0" width="567" height="496" fill="white"/>
<rect x="74" y="44" width="453" height="402" fill="white"/>
<rect x="74" y="44" width="453" height="402" fill="none" stroke="black"/>
<rect x="74" y="44" width="453" height="402" fill="white"/>
<rect x="74" y="44" width="453" height="402" fill="none" stroke="black"/>
<path d="M115,308v -6" fill="none" stroke="#ff0099"/>
<path d="M115,299v -6" fill="none" stroke="#ff0099"/>
<path d="M111,300h 3" fill="none" stroke="#ff0099"/>
<path d="M116,300h 3" fill="none" stroke="#ff0099"/>
<g stroke="#ff0099" stroke-width="1" fill="#ff0099">
<circle cx=" 115" cy=" 300" r=" 1.5"/>
</g>
<path d="M123,232v -9" fill="none" stroke="#ff0099"/>
<path d="M123,220v -8" fill="none" stroke="#ff0099"/>
<path d="M119,222h 3" fill="none" stroke="#ff0099"/>
<path d="M124,222h 3" fill="none" stroke="#ff0099"/>
<g stroke="#ff0099" stroke-width="1" fill="#ff0099">
<circle cx=" 123" cy=" 222" r=" 1.5"/>
</g>
<path d="M130,195v -11" fill="none" stroke="#ff0099"/>
<path d="M130,181v -11" fill="none" stroke="#ff0099"/>
<path d="M127,182h 2" fill="none" stroke="#ff0099"/>
<path d="M132,182h 2" fill="none" stroke="#ff0099"/>
<g stroke="#ff0099" stroke-width="1" fill="#ff0099">
<circle cx=" 130" cy=" 182" r=" 1.5"/>
</g>
<path d="M138,184v -12" fill="none" stroke="#ff0099"/>
<path d="M138,170v -11" fill="none" stroke="#ff0099"/>
<path d="M134,171h 3" fill="none" stroke="#ff0099"/>
<path d="M139,171h 3" fill="none" stroke="#ff0099"/>
<g stroke="#ff0099" stroke-width="1" fill="#ff0099">
<circle cx=" 138" cy=" 171" r=" 1.5"/>
</g>
<path d="M146,148v -14" fill="none" stroke="#ff0099"/>
<path d="M146,132v -13" fill="none" stroke="#ff0099"/>
<path d="M142,133h 2" fill="none" stroke="#ff0099"/>
<path d="M147,133h 2" fill="none" stroke="#ff0099"/>
<g stroke="#ff0099" stroke-width="1" fill="#ff0099">
<circle cx=" 146" cy=" 133" r=" 1.5"/>
</g>
<path d="M153,96v -15" fill="none" stroke="#ff0099"/>
<path d="M153,79v -16" fill="none" stroke="#ff0099"/>
<path d="M149,80h 3" fill="none" stroke="#ff0099"/>
<path d="M154,80h 3" fill="none" stroke="#ff0099"/>
<g stroke="#ff0099" stroke-width="1" fill="#ff0099">
<circle cx=" 153" cy=" 80" r=" 1.5"/>
</g>
<path d="M161,156v -12" fill="none" stroke="#ff0099"/>
<path d="M161,141v -12" fill="none" stroke="#ff0099"/>
<path d="M157,142h 2" fill="none" stroke="#ff0099"/>
<path d="M162,142h 2" fill="none" stroke="#ff0099"/>
<g stroke="#ff0099" stroke-width="1" fill="#ff0099">
<circle cx=" 161" cy=" 142" r=" 1.5"/>
</g>
<path d="M168,139v -13" fill="none" stroke="#ff0099"/>
<path d="M168,124v -14" fill="none" stroke="#ff0099"/>
<path d="M164,125h 3" fill="none" stroke="#ff0099"/>
<path d="M169,125h 3" fill="none" stroke="#ff0099"/>
<g stroke="#ff0099" stroke-width="1" fill="#ff0099">
<circle cx=" 168" cy=" 125" r=" 1.5"/>
</g>
<path d="M176,111v -17" fill="none" stroke="#ff0099"/>
<path d="M176,92v -18" fill="none" stroke="#ff0099"/>
<path d="M172,93h 3" fill="none" stroke="#ff0099"/>
<path d="M177,93h 3" fill="none" stroke="#ff0099"/>
<g stroke="#ff0099" stroke-width="1" fill="#ff0099">
<circle cx=" 176" cy=" 93" r=" 1.5"/>
</g>
<path d="M183,296v -16" fill="none" stroke="#ff0099"/>
<path d="M183,278v -16" fill="none" stroke="#ff0099"/>
<path d="M180,279h 2" fill="none" stroke="#ff0099"/>
<path d="M184,279h 3" fill="none" stroke="#ff0099"/>
<g stroke="#ff0099" stroke-width="1" fill="#ff0099">
<circle cx=" 183" cy=" 279" r=" 1.5"/>
</g>
<path d="M418,361v -5" fill="none" stroke="#ff0099"/>
<path d="M418,353v -6" fill="none" stroke="#ff0099"/>
<path d="M414,354h 2" fill="none" stroke="#ff0099"/>
<path d="M419,354h 2" fill="none" stroke="#ff0099"/>
<g stroke="#ff0099" stroke-width="1" fill="#ff0099">
<circle cx=" 418" cy=" 354" r=" 1.5"/>
</g>
<path d="M425,158v -16" fill="none" stroke="#ff0099"/>
<path d="M425,140v -16" fill="none" stroke="#ff0099"/>
<path d="M421,141h 3" fill="none" stroke="#ff0099"/>
<path d="M426,141h 3" fill="none" stroke="#ff0099"/>
<g stroke="#ff0099" stroke-width="1" fill="#ff0099">
<circle cx=" 425" cy=" 141" r=" 1.5"/>
</g>
<path d="M433,146v -15" fill="none" stroke="#ff0099"/>
<path d="M433,129v -14" fill="none" stroke="#ff0099"/>
<path d="M429,130h 3" fill="none" stroke="#ff0099"/>
<path d="M434,130h 3" fill="none" stroke="#ff0099"/>
<g stroke="#ff0099" stroke-width="1" fill="#ff0099">
<circle cx=" 433" cy=" 130" r=" 1.5"/>
</g>
<path d="M440,138v -15" fill="none" stroke="#ff0099"/>
<path d="M440,121v -15" fill="none" stroke="#ff0099"/>
<path d="M437,122h 2" fill="none" stroke="#ff0099"/>
<path d="M441,122h 3" fill="none" stroke="#ff0099"/>
<g stroke="#ff0099" stroke-width="1" fill="#ff0099">
<circle cx=" 440" cy=" 122" r=" 1.5"/>
</g>
<path d="M448,116v -15" fill="none" stroke="#ff0099"/>
<path d="M448,99v -15" fill="none" stroke="#ff0099"/>
<path d="M444,100h 3" fill="none" stroke="#ff0099"/>
<path d="M449,100h 3" fill="none" stroke="#ff0099"/>
<g stroke="#ff0099" stroke-width="1" fill="#ff0099">
<circle cx=" 448" cy=" 100" r=" 1.5"/>
</g>
<path d="M455,158v -12" fill="none" stroke="#ff0099"/>
<path d="M455,144v -12" fill="none" stroke="#ff0099"/>
<path d="M452,145h 2" fill="none" stroke="#ff0099"/>
<path d="M457,145h 2" fill="none" stroke="#ff0099"/>
<g stroke="#ff0099" stroke-width="1" fill="#ff0099">
<circle cx=" 455" cy=" 145" r=" 1.5"/>
</g>
<path d="M463,169v -11" fill="none" stroke="#ff0099"/>
<path d="M463,155v -11" fill="none" stroke="#ff0099"/>
<path d="M459,156h 3" fill="none" stroke="#ff0099"/>
<path d="M464,156h 3" fill="none" stroke="#ff0099"/>
<g stroke="#ff0099" stroke-width="1" fill="#ff0099">
<circle cx=" 463" cy=" 156" r=" 1.5"/>
</g>
<path d="M471,219v -9" fill="none" stroke="#ff0099"/>
<path d="M471,208v -10" fill="none" stroke="#ff0099"/>
<path d="M467,209h 2" fill="none" stroke="#ff0099"/>
<path d="M472,209h 2" fill="none" stroke="#ff0099"/>
<g stroke="#ff0099" stroke-width="1" fill="#ff0099">
<circle cx=" 471" cy=" 209" r=" 1.5"/>
</g>
<path d="M478,229v -9" fill="none" stroke="#ff0099"/>
<path d="M478,217v -9" fill="none" stroke="#ff0099"/>
<path d="M474,218h 3" fill="none" stroke="#ff0099"/>
<path d="M479,218h 3" fill="none" stroke="#ff0099"/>
<g stroke="#ff0099" stroke-width="1" fill="#ff0099">
<circle cx=" 478" cy=" 218" r=" 1.5"/>
</g>
<path d="M486,283v -7" fill="none" stroke="#ff0099"/>
<path d="M486,274v -8" fill="none" stroke="#ff0099"/>
<path d="M482,275h 3" fill="none" stroke="#ff0099"/>
<path d="M487,275h 2" fill="none" stroke="#ff0099"/>
<g stroke="#ff0099" stroke-width="1" fill="#ff0099">
<circle cx=" 486" cy=" 275" r=" 1.5"/>
</g>
<path d="M74,446h 453" fill="none" stroke="black"/>
<path d="M74,434v 12" fill="none" stroke="black"/>
<path d="M89,440v 6" fill="none" stroke="black"/>
<path d="M104,440v 6" fill="none" stroke="black"/>
<path d="M119,440v 6" fill="none" stroke="black"/>
<path d="M134,440v 6" fill="none" stroke="black"/>
<path d="M149,434v 12" fill="none" stroke="black"/>
<path d="M164,440v 6" fill="none" stroke="black"/>
<path d="M180,440v 6" fill="none" stroke="black"/>
<path d="M195,440v 6" fill="none" stroke="black"/>
<path d="M210,440v 6" fill="none" stroke="black"/>
<path d="M225,434v 12" fill="none" stroke="black"/>
<path d="M240,440v 6" fill="none" stroke="black"/>
<path d="M255,440v 6" fill="none" stroke="black"/>
<path d="M270,440v 6" fill="none" stroke="black"/>
<path d="M285,440v 6" fill="none" stroke="black"/>
<path d="M300,434v 12" fill="none" stroke="black"/>
<path d="M316,440v 6" fill="none" stroke="black"/>
<path d="M331,440v 6" fill="none" stroke="black"/>
<path d="M346,440v 6" fill="none" stroke="black"/>
<path d="M361,440v 6" fill="none" stroke="black"/>
<path d="M376,434v 12" fill="none" stroke="black"/>
<path d="M391,440v 6" fill="none" stroke="black"/>
<path d="M406,440v 6" fill="none" stroke="black"/>
<path d="M421,440v 6" fill="none" stroke="black"/>
<path d="M437,440v 6" fill="none" stroke="black"/>
<path d="M452,434v 12" fill="none" stroke="black"/>
<path d="M467,440v 6" fill="none" stroke="black"/>
<path d="M482,440v 6" fill="none" stroke="black"/>
<path d="M497,440v 6" fill="none" stroke="black"/>
<path d="M512,440v 6" fill="none" stroke="black"/>
<path d="M527,434v 12" fill="none" stroke="black"/>
<path d="M527,434v 12" fill="none" stroke="black"/>
<text x="65" y="465" fill="black" font-size="18" font-family="Helvetica" font-weight="bold">
-3
</text>
<text x="141" y="465" fill="black" font-size="18" font-family="Helvetica" font-weight="bold">
-2
</text>
<text x="218" y="465" fill="black" font-size="18" font-family="Helvetica" font-weight="bold">
-1
</text>
<text x="295" y="465" fill="black" font-size="18" font-family="Helvetica" font-weight="bold">
0
</text>
<text x="372" y="465" fill="black" font-size="18" font-family="Helvetica" font-weight="bold">
1
</text>
<text x="446" y="465" fill="black" font-size="18" font-family="Helvetica" font-weight="bold">
2
</text>
<text x="522" y="465" fill="black" font-size="18" font-family="Helvetica" font-weight="bold">
3
</text>
<path d="M74,44h 453" fill="none" stroke="black"/>
<path d="M74,56v -12" fill="none" stroke="black"/>
<path d="M89,50v -6" fill="none" stroke="black"/>
<path d="M104,50v -6" fill="none" stroke="black"/>
<path d="M119,50v -6" fill="none" stroke="black"/>
<path d="M134,50v -6" fill="none" stroke="black"/>
<path d="M149,56v -12" fill="none" stroke="black"/>
<path d="M164,50v -6" fill="none" stroke="black"/>
<path d="M180,50v -6" fill="none" stroke="black"/>
<path d="M195,50v -6" fill="none" stroke="black"/>
<path d="M210,50v -6" fill="none" stroke="black"/>
<path d="M225,56v -12" fill="none" stroke="black"/>
<path d="M240,50v -6" fill="none" stroke="black"/>
<path d="M255,50v -6" fill="none" stroke="black"/>
<path d="M270,50v -6" fill="none" stroke="black"/>
<path d="M285,50v -6" fill="none" stroke="black"/>
<path d="M300,56v -12" fill="none" stroke="black"/>
<path d="M316,50v -6" fill="none" stroke="black"/>
<path d="M331,50v -6" fill="none" stroke="black"/>
<path d="M346,50v -6" fill="none" stroke="black"/>
<path d="M361,50v -6" fill="none" stroke="black"/>
<path d="M376,56v -12" fill="none" stroke="black"/>
<path d="M391,50v -6" fill="none" stroke="black"/>
<path d="M406,50v -6" fill="none" stroke="black"/>
<path d="M421,50v -6" fill="none" stroke="black"/>
<path d="M437,50v -6" fill="none" stroke="black"/>
<path d="M452,56v -12" fill="none" stroke="black"/>
<path d="M467,50v -6" fill="none" stroke="black"/>
<path d="M482,50v -6" fill="none" stroke="black"/>
<path d="M497,50v -6" fill="none" stroke="black"/>
<path d="M512,50v -6" fill="none" stroke="black"/>
<path d="M527,56v -12" fill="none" stroke="black"/>
<path d="M527,56v -12" fill="none" stroke="black"/>
<path d="M74,446v -402" fill="none" stroke="black"/>
<path d="M87,446h -13" fill="none" stroke="black"/>
<path d="M81,436h -7" fill="none" stroke="black"/>
<path d="M81,425h -7" fill="none" stroke="black"/>
<path d="M81,414h -7" fill="none" stroke="black"/>
<path d="M81,404h -7" fill="none" stroke="black"/>
<path d="M87,393h -13" fill="none" stroke="black"/>
<path d="M81,382h -7" fill="none" stroke="black"/>
<path d="M81,371h -7" fill="none" stroke="black"/>
<path d="M81,361h -7" fill="none" stroke="black"/>
<path d="M81,350h -7" fill="none" stroke="black"/>
<path d="M87,339h -13" fill="none" stroke="black"/>
<path d="M81,329h -7" fill="none" stroke="black"/>
<path d="M81,318h -7" fill="none" stroke="black"/>
<path d="M81,307h -7" fill="none" stroke="black"/>
<path d="M81,297h -7" fill="none" stroke="black"/>
<path d="M87,286h -13" fill="none" stroke="black"/>
<path d="M81,275h -7" fill="none" stroke="black"/>
<path d="M81,265h -7" fill="none" stroke="black"/>
<path d="M81,254h -7" fill="none" stroke="black"/>
<path d="M81,243h -7" fill="none" stroke="black"/>
<path d="M87,232h -13" fill="none" stroke="black"/>
<path d="M81,222h -7" fill="none" stroke="black"/>
<path d="M81,211h -7" fill="none" stroke="black"/>
<path d="M81,200h -7" fill="none" stroke="black"/>
<path d="M81,190h -7" fill="none" stroke="black"/>
<path d="M87,179h -13" fill="none" stroke="black"/>
<path d="M81,168h -7" fill="none" stroke="black"/>
<path d="M81,158h -7" fill="none" stroke="black"/>
<path d="M81,147h -7" fill="none" stroke="black"/>
<path d="M81,136h -7" fill="none" stroke="black"/>
<path d="M87,125h -13" fill="none" stroke="black"/>
<path d="M81,115h -7" fill="none" stroke="black"/>
<path d="M81,104h -7" fill="none" stroke="black"/>
<path d="M81,93h -7" fill="none" stroke="black"/>
<path d="M81,83h -7" fill="none" stroke="black"/>
<path d="M87,72h -13" fill="none" stroke="black"/>
<path d="M87,72h -13" fill="none" stroke="black"/>
<path d="M81,61h -7" fill="none" stroke="black"/>
<path d="M81,51h -7" fill="none" stroke="black"/>
<text x="61" y="453" fill="black" font-size="18" font-family="Helvetica" font-weight="bold">
0
</text>
<text x="37" y="399" fill="black" font-size="18" font-family="Helvetica" font-weight="bold">
0.01
</text>
<text x="35" y="346" fill="black" font-size="18" font-family="Helvetica" font-weight="bold">
0.02
</text>
<text x="35" y="292" fill="black" font-size="18" font-family="Helvetica" font-weight="bold">
0.03
</text>
<text x="34" y="239" fill="black" font-size="18" font-family="Helvetica" font-weight="bold">
0.04
</text>
<text x="34" y="185" fill="black" font-size="18" font-family="Helvetica" font-weight="bold">
0.05
</text>
<text x="34" y="132" fill="black" font-size="18" font-family="Helvetica" font-weight="bold">
0.06
</text>
<text x="35" y="79" fill="black" font-size="18" font-family="Helvetica" font-weight="bold">
0.07
</text>
<path d="M115,268v -9" fill="none" stroke="#99ff99" stroke-width="2"/>
<path d="M115,259v -10" fill="none" stroke="#99ff99" stroke-width="2"/>
<g stroke="black" stroke-width="2" fill="none">
<line x1="114" y1="259" x2="115" y2="259"/>
</g>
<path d="M123,229v -12" fill="none" stroke="#99ff99" stroke-width="2"/>
<path d="M123,217v -11" fill="none" stroke="#99ff99" stroke-width="2"/>
<g stroke="black" stroke-width="2" fill="none">
<line x1="122" y1="217" x2="123" y2="217"/>
</g>
<path d="M130,215v -5" fill="none" stroke="#99ff99" stroke-width="2"/>
<path d="M130,210v -4" fill="none" stroke="#99ff99" stroke-width="2"/>
<g stroke="black" stroke-width="2" fill="none">
<line x1="129" y1="210" x2="130" y2="210"/>
</g>
<path d="M138,179v -5" fill="none" stroke="#99ff99" stroke-width="2"/>
<path d="M138,174v -5" fill="none" stroke="#99ff99" stroke-width="2"/>
<g stroke="black" stroke-width="2" fill="none">
<line x1="137" y1="174" x2="138" y2="174"/>
</g>
<path d="M146,167v -14" fill="none" stroke="#99ff99" stroke-width="2"/>
<path d="M146,153v -13" fill="none" stroke="#99ff99" stroke-width="2"/>
<g stroke="black" stroke-width="2" fill="none">
<line x1="145" y1="153" x2="146" y2="153"/>
</g>
<path d="M153,141v -9" fill="none" stroke="#99ff99" stroke-width="2"/>
<path d="M153,132v -8" fill="none" stroke="#99ff99" stroke-width="2"/>
<g stroke="black" stroke-width="2" fill="none">
<line x1="152" y1="132" x2="153" y2="132"/>
</g>
<path d="M161,98v -20" fill="none" stroke="#99ff99" stroke-width="2"/>
<path d="M161,78v -20" fill="none" stroke="#99ff99" stroke-width="2"/>
<g stroke="black" stroke-width="2" fill="none">
<line x1="160" y1="78" x2="161" y2="78"/>
</g>
<path d="M168,112v -17" fill="none" stroke="#99ff99" stroke-width="2"/>
<path d="M168,95v -17" fill="none" stroke="#99ff99" stroke-width="2"/>
<g stroke="black" stroke-width="2" fill="none">
<line x1="167" y1="95" x2="168" y2="95"/>
</g>
<path d="M176,133v -8" fill="none" stroke="#99ff99" stroke-width="2"/>
<path d="M176,125v -8" fill="none" stroke="#99ff99" stroke-width="2"/>
<g stroke="black" stroke-width="2" fill="none">
<line x1="175" y1="125" x2="176" y2="125"/>
</g>
<path d="M183,346v -3" fill="none" stroke="#99ff99" stroke-width="2"/>
<path d="M183,343v -2" fill="none" stroke="#99ff99" stroke-width="2"/>
<g stroke="black" stroke-width="2" fill="none">
<line x1="182" y1="343" x2="183" y2="343"/>
</g>
<path d="M418,348v -3" fill="none" stroke="#99ff99" stroke-width="2"/>
<path d="M418,345v -3" fill="none" stroke="#99ff99" stroke-width="2"/>
<g stroke="black" stroke-width="2" fill="none">
<line x1="417" y1="345" x2="418" y2="345"/>
</g>
<path d="M425,142v -5" fill="none" stroke="#99ff99" stroke-width="2"/>
<path d="M425,137v -5" fill="none" stroke="#99ff99" stroke-width="2"/>
<g stroke="black" stroke-width="2" fill="none">
<line x1="424" y1="137" x2="425" y2="137"/>
</g>
<path d="M433,122v -15" fill="none" stroke="#99ff99" stroke-width="2"/>
<path d="M433,107v -16" fill="none" stroke="#99ff99" stroke-width="2"/>
<g stroke="black" stroke-width="2" fill="none">
<line x1="432" y1="107" x2="433" y2="107"/>
</g>
<path d="M440,138v -6" fill="none" stroke="#99ff99" stroke-width="2"/>
<path d="M440,132v -6" fill="none" stroke="#99ff99" stroke-width="2"/>
<g stroke="black" stroke-width="2" fill="none">
<line x1="439" y1="132" x2="440" y2="132"/>
</g>
<path d="M448,116v -15" fill="none" stroke="#99ff99" stroke-width="2"/>
<path d="M448,101v -15" fill="none" stroke="#99ff99" stroke-width="2"/>
<g stroke="black" stroke-width="2" fill="none">
<line x1="447" y1="101" x2="448" y2="101"/>
</g>
<path d="M455,150v -14" fill="none" stroke="#99ff99" stroke-width="2"/>
<path d="M455,136v -14" fill="none" stroke="#99ff99" stroke-width="2"/>
<g stroke="black" stroke-width="2" fill="none">
<line x1="454" y1="136" x2="455" y2="136"/>
</g>
<path d="M463,175v -11" fill="none" stroke="#99ff99" stroke-width="2"/>
<path d="M463,164v -10" fill="none" stroke="#99ff99" stroke-width="2"/>
<g stroke="black" stroke-width="2" fill="none">
<line x1="462" y1="164" x2="463" y2="164"/>
</g>
<path d="M471,197v -10" fill="none" stroke="#99ff99" stroke-width="2"/>
<path d="M471,187v -9" fill="none" stroke="#99ff99" stroke-width="2"/>
<g stroke="black" stroke-width="2" fill="none">
<line x1="470" y1="187" x2="471" y2="187"/>
</g>
<path d="M478,223v -11" fill="none" stroke="#99ff99" stroke-width="2"/>
<path d="M478,212v -10" fill="none" stroke="#99ff99" stroke-width="2"/>
<g stroke="black" stroke-width="2" fill="none">
<line x1="477" y1="212" x2="478" y2="212"/>
</g>
<path d="M486,274v -4" fill="none" stroke="#99ff99" stroke-width="2"/>
<path d="M486,270v -4" fill="none" stroke="#99ff99" stroke-width="2"/>
<g stroke="black" stroke-width="2" fill="none">
<line x1="485" y1="270" x2="486" y2="270"/>
</g>
<path d="M74,446h 37v -187h 8v -42h 8v -7h 7v -36h 8v -21h 7v -21h 8v -54h 7v 17h 8v 30h 8v 218h 7v 103h 227v -101h 7v -208h 8v -30h 8v 25h 7v -31h 8v 35h 7v 28h 8v 23h 7v 25h 8v 58h 7v 176h 38z" fill="#99ff99"/>
<path d="M74,446h 37v -187h 8v -42h 8v -7h 7v -36h 8v -21h 7v -21h 8v -54h 7v 17h 8v 30h 8v 218h 7v 103h 227v -101h 7v -208h 8v -30h 8v 25h 7v -31h 8v 35h 7v 28h 8v 23h 7v 25h 8v 58h 7v 176h 38" fill="none" stroke="#99ff99" stroke-width="2"/>
<path d="M115,308v -6" fill="none" stroke="#ff0099"/>
<path d="M115,299v -6" fill="none" stroke="#ff0099"/>
<path d="M111,300h 3" fill="none" stroke="#ff0099"/>
<path d="M116,300h 3" fill="none" stroke="#ff0099"/>
<g stroke="#ff0099" stroke-width="1" fill="#ff0099">
<circle cx=" 115" cy=" 300" r=" 1.5"/>
</g>
<path d="M123,232v -9" fill="none" stroke="#ff0099"/>
<path d="M123,220v -8" fill="none" stroke="#ff0099"/>
<path d="M119,222h 3" fill="none" stroke="#ff0099"/>
<path d="M124,222h 3" fill="none" stroke="#ff0099"/>
<g stroke="#ff0099" stroke-width="1" fill="#ff0099">
<circle cx=" 123" cy=" 222" r=" 1.5"/>
</g>
<path d="M130,195v -11" fill="none" stroke="#ff0099"/>
<path d="M130,181v -11" fill="none" stroke="#ff0099"/>
<path d="M127,182h 2" fill="none" stroke="#ff0099"/>
<path d="M132,182h 2" fill="none" stroke="#ff0099"/>
<g stroke="#ff0099" stroke-width="1" fill="#ff0099">
<circle cx=" 130" cy=" 182" r=" 1.5"/>
</g>
<path d="M138,184v -12" fill="none" stroke="#ff0099"/>
<path d="M138,170v -11" fill="none" stroke="#ff0099"/>
<path d="M134,171h 3" fill="none" stroke="#ff0099"/>
<path d="M139,171h 3" fill="none" stroke="#ff0099"/>
<g stroke="#ff0099" stroke-width="1" fill="#ff0099">
<circle cx=" 138" cy=" 171" r=" 1.5"/>
</g>
<path d="M146,148v -14" fill="none" stroke="#ff0099"/>
<path d="M146,132v -13" fill="none" stroke="#ff0099"/>
<path d="M142,133h 2" fill="none" stroke="#ff0099"/>
<path d="M147,133h 2" fill="none" stroke="#ff0099"/>
<g stroke="#ff0099" stroke-width="1" fill="#ff0099">
<circle cx=" 146" cy=" 133" r=" 1.5"/>
</g>
<path d="M153,96v -15" fill="none" stroke="#ff0099"/>
<path d="M153,79v -16" fill="none" stroke="#ff0099"/>
<path d="M149,80h 3" fill="none" stroke="#ff0099"/>
<path d="M154,80h 3" fill="none" stroke="#ff0099"/>
<g stroke="#ff0099" stroke-width="1" fill="#ff0099">
<circle cx=" 153" cy=" 80" r=" 1.5"/>
</g>
<path d="M161,156v -12" fill="none" stroke="#ff0099"/>
<path d="M161,141v -12" fill="none" stroke="#ff0099"/>
<path d="M157,142h 2" fill="none" stroke="#ff0099"/>
<path d="M162,142h 2" fill="none" stroke="#ff0099"/>
<g stroke="#ff0099" stroke-width="1" fill="#ff0099">
<circle cx=" 161" cy=" 142" r=" 1.5"/>
</g>
<path d="M168,139v -13" fill="none" stroke="#ff0099"/>
<path d="M168,124v -14" fill="none" stroke="#ff0099"/>
<path d="M164,125h 3" fill="none" stroke="#ff0099"/>
<path d="M169,125h 3" fill="none" stroke="#ff0099"/>
<g stroke="#ff0099" stroke-width="1" fill="#ff0099">
<circle cx=" 168" cy=" 125" r=" 1.5"/>
</g>
<path d="M176,111v -17" fill="none" stroke="#ff0099"/>
<path d="M176,92v -18" fill="none" stroke="#ff0099"/>
<path d="M172,93h 3" fill="none" stroke="#ff0099"/>
<path d="M177,93h 3" fill="none" stroke="#ff0099"/>
<g stroke="#ff0099" stroke-width="1" fill="#ff0099">
<circle cx=" 176" cy=" 93" r=" 1.5"/>
</g>
<path d="M183,296v -16" fill="none" stroke="#ff0099"/>
<path d="M183,278v -16" fill="none" stroke="#ff0099"/>
<path d="M180,279h 2" fill="none" stroke="#ff0099"/>
<path d="M184,279h 3" fill="none" stroke="#ff0099"/>
<g stroke="#ff0099" stroke-width="1" fill="#ff0099">
<circle cx=" 183" cy=" 279" r=" 1.5"/>
</g>
<path d="M418,361v -5" fill="none" stroke="#ff0099"/>
<path d="M418,353v -6" fill="none" stroke="#ff0099"/>
<path d="M414,354h 2" fill="none" stroke="#ff0099"/>
<path d="M419,354h 2" fill="none" stroke="#ff0099"/>
<g stroke="#ff0099" stroke-width="1" fill="#ff0099">
<circle cx=" 418" cy=" 354" r=" 1.5"/>
</g>
<path d="M425,158v -16" fill="none" stroke="#ff0099"/>
<path d="M425,140v -16" fill="none" stroke="#ff0099"/>
<path d="M421,141h 3" fill="none" stroke="#ff0099"/>
<path d="M426,141h 3" fill="none" stroke="#ff0099"/>
<g stroke="#ff0099" stroke-width="1" fill="#ff0099">
<circle cx=" 425" cy=" 141" r=" 1.5"/>
</g>
<path d="M433,146v -15" fill="none" stroke="#ff0099"/>
<path d="M433,129v -14" fill="none" stroke="#ff0099"/>
<path d="M429,130h 3" fill="none" stroke="#ff0099"/>
<path d="M434,130h 3" fill="none" stroke="#ff0099"/>
<g stroke="#ff0099" stroke-width="1" fill="#ff0099">
<circle cx=" 433" cy=" 130" r=" 1.5"/>
</g>
<path d="M440,138v -15" fill="none" stroke="#ff0099"/>
<path d="M440,121v -15" fill="none" stroke="#ff0099"/>
<path d="M437,122h 2" fill="none" stroke="#ff0099"/>
<path d="M441,122h 3" fill="none" stroke="#ff0099"/>
<g stroke="#ff0099" stroke-width="1" fill="#ff0099">
<circle cx=" 440" cy=" 122" r=" 1.5"/>
</g>
<path d="M448,116v -15" fill="none" stroke="#ff0099"/>
<path d="M448,99v -15" fill="none" stroke="#ff0099"/>
<path d="M444,100h 3" fill="none" stroke="#ff0099"/>
<path d="M449,100h 3" fill="none" stroke="#ff0099"/>
<g stroke="#ff0099" stroke-width="1" fill="#ff0099">
<circle cx=" 448" cy=" 100" r=" 1.5"/>
</g>
<path d="M455,158v -12" fill="none" stroke="#ff0099"/>
<path d="M455,144v -12" fill="none" stroke="#ff0099"/>
<path d="M452,145h 2" fill="none" stroke="#ff0099"/>
<path d="M457,145h 2" fill="none" stroke="#ff0099"/>
<g stroke="#ff0099" stroke-width="1" fill="#ff0099">
<circle cx=" 455" cy=" 145" r=" 1.5"/>
</g>
<path d="M463,169v -11" fill="none" stroke="#ff0099"/>
<path d="M463,155v -11" fill="none" stroke="#ff0099"/>
<path d="M459,156h 3" fill="none" stroke="#ff0099"/>
<path d="M464,156h 3" fill="none" stroke="#ff0099"/>
<g stroke="#ff0099" stroke-width="1" fill="#ff0099">
<circle cx=" 463" cy=" 156" r=" 1.5"/>
</g>
<path d="M471,219v -9" fill="none" stroke="#ff0099"/>
<path d="M471,208v -10" fill="none" stroke="#ff0099"/>
<path d="M467,209h 2" fill="none" stroke="#ff0099"/>
<path d="M472,209h 2" fill="none" stroke="#ff0099"/>
<g stroke="#ff0099" stroke-width="1" fill="#ff0099">
<circle cx=" 471" cy=" 209" r=" 1.5"/>
</g>
<path d="M478,229v -9" fill="none" stroke="#ff0099"/>
<path d="M478,217v -9" fill="none" stroke="#ff0099"/>
<path d="M474,218h 3" fill="none" stroke="#ff0099"/>
<path d="M479,218h 3" fill="none" stroke="#ff0099"/>
<g stroke="#ff0099" stroke-width="1" fill="#ff0099">
<circle cx=" 478" cy=" 218" r=" 1.5"/>
</g>
<path d="M486,283v -7" fill="none" stroke="#ff0099"/>
<path d="M486,274v -8" fill="none" stroke="#ff0099"/>
<path d="M482,275h 3" fill="none" stroke="#ff0099"/>
<path d="M487,275h 2" fill="none" stroke="#ff0099"/>
<g stroke="#ff0099" stroke-width="1" fill="#ff0099">
<circle cx=" 486" cy=" 275" r=" 1.5"/>
</g>
<rect x="357" y="59" width="142" height="99" fill="white"/>
<text x="360" y="82" fill="black" font-size="17" font-family="Helvetica" font-weight="bold">
EE
</text>
<text x="457" y="115" fill="black" font-size="17" font-family="Helvetica" font-weight="bold">
 ee
</text>
<text x="440" y="115" fill="black" font-size="17" font-family="Times">
&#8594;
</text>
<text x="392" y="115" fill="black" font-size="17" font-family="Helvetica" font-weight="bold">
MC Z 
</text>
<path d="M362,109h 25" fill="none" stroke="#ff0099"/>
<g stroke="#ff0099" stroke-width="1" fill="#ff0099">
<circle cx=" 375" cy=" 109" r=" 1.5"/>
</g>
<text x="455" y="147" fill="black" font-size="17" font-family="Helvetica" font-weight="bold">
 + jet
</text>
<text x="447" y="147" fill="black" font-size="17" font-family="Times">
&#0947;
</text>
<text x="392" y="147" fill="black" font-size="17" font-family="Helvetica" font-weight="bold">
signal 
</text>
<path d="M362,154h 25v -24h -25z" fill="#99ff99"/>
<path d="M362,130h 25" fill="none" stroke="#99ff99" stroke-width="2"/>
<path d="M362,154h 25" fill="none" stroke="#99ff99" stroke-width="2"/>
<path d="M387,154v -24" fill="none" stroke="#99ff99" stroke-width="2"/>
<path d="M362,154v -24" fill="none" stroke="#99ff99" stroke-width="2"/>
<text x="300" y="34" fill="black" font-size="17" font-family="Helvetica" font-weight="bold">
=8 TeV
</text>
<text x="291" y="34" fill="black" font-size="17" font-family="Helvetica" font-weight="bold">
s
</text>
<path d="M285,25l 2, 10" fill="none" stroke="black" stroke-width="2"/>
<path d="M287,35l 2, -14" fill="none" stroke="black"/>
<path d="M289,21h 11" fill="none" stroke="black"/>
<text x="142" y="34" fill="black" font-size="17" font-family="Helvetica" font-weight="bold">
CMS Preliminary 
</text></svg>
