<?xml version="1.0" standalone="no"?>
<svg width="567" height="496" viewBox="0 0 567 496" xmlns="http://www.w3.org/2000/svg">
<title>
plots_mcZee_mcGJet//hlt135//nvtxEE.svg
</title>
<desc>
Creator: ROOT Version 5.32/00
CreationDate: Sat Nov 29 19:43:51 2014</desc>
<defs>
</defs>
<rect x="0" y="0" width="567" height="496" fill="white"/>
<rect x="74" y="44" width="453" height="402" fill="white"/>
<rect x="74" y="44" width="453" height="402" fill="none" stroke="black"/>
<rect x="74" y="44" width="453" height="402" fill="white"/>
<rect x="74" y="44" width="453" height="402" fill="none" stroke="black"/>
<path d="M85,445h 4" fill="none" stroke="#ff0099"/>
<path d="M91,445h 5" fill="none" stroke="#ff0099"/>
<g stroke="#ff0099" stroke-width="1" fill="#ff0099">
<circle cx=" 90" cy=" 445" r=" 1.5"/>
</g>
<path d="M96,444h 4" fill="none" stroke="#ff0099"/>
<path d="M102,444h 5" fill="none" stroke="#ff0099"/>
<g stroke="#ff0099" stroke-width="1" fill="#ff0099">
<circle cx=" 101" cy=" 444" r=" 1.5"/>
</g>
<path d="M112,441" fill="none" stroke="#ff0099"/>
<path d="M112,438" fill="none" stroke="#ff0099"/>
<path d="M107,440h 4" fill="none" stroke="#ff0099"/>
<path d="M114,440h 4" fill="none" stroke="#ff0099"/>
<g stroke="#ff0099" stroke-width="1" fill="#ff0099">
<circle cx=" 112" cy=" 440" r=" 1.5"/>
</g>
<path d="M123,431v -1" fill="none" stroke="#ff0099"/>
<path d="M123,428v -1" fill="none" stroke="#ff0099"/>
<path d="M118,429h 4" fill="none" stroke="#ff0099"/>
<path d="M125,429h 4" fill="none" stroke="#ff0099"/>
<g stroke="#ff0099" stroke-width="1" fill="#ff0099">
<circle cx=" 123" cy=" 429" r=" 1.5"/>
</g>
<path d="M135,405v -5" fill="none" stroke="#ff0099"/>
<path d="M135,398v -4" fill="none" stroke="#ff0099"/>
<path d="M129,399h 4" fill="none" stroke="#ff0099"/>
<path d="M136,399h 4" fill="none" stroke="#ff0099"/>
<g stroke="#ff0099" stroke-width="1" fill="#ff0099">
<circle cx=" 135" cy=" 399" r=" 1.5"/>
</g>
<path d="M146,378v -4" fill="none" stroke="#ff0099"/>
<path d="M146,372v -5" fill="none" stroke="#ff0099"/>
<path d="M140,373h 4" fill="none" stroke="#ff0099"/>
<path d="M147,373h 4" fill="none" stroke="#ff0099"/>
<g stroke="#ff0099" stroke-width="1" fill="#ff0099">
<circle cx=" 146" cy=" 373" r=" 1.5"/>
</g>
<path d="M157,338v -7" fill="none" stroke="#ff0099"/>
<path d="M157,329v -6" fill="none" stroke="#ff0099"/>
<path d="M151,330h 5" fill="none" stroke="#ff0099"/>
<path d="M158,330h 4" fill="none" stroke="#ff0099"/>
<g stroke="#ff0099" stroke-width="1" fill="#ff0099">
<circle cx=" 157" cy=" 330" r=" 1.5"/>
</g>
<path d="M168,280v -9" fill="none" stroke="#ff0099"/>
<path d="M168,269v -10" fill="none" stroke="#ff0099"/>
<path d="M162,270h 5" fill="none" stroke="#ff0099"/>
<path d="M169,270h 4" fill="none" stroke="#ff0099"/>
<g stroke="#ff0099" stroke-width="1" fill="#ff0099">
<circle cx=" 168" cy=" 270" r=" 1.5"/>
</g>
<path d="M179,218v -12" fill="none" stroke="#ff0099"/>
<path d="M179,204v -11" fill="none" stroke="#ff0099"/>
<path d="M173,205h 5" fill="none" stroke="#ff0099"/>
<path d="M180,205h 4" fill="none" stroke="#ff0099"/>
<g stroke="#ff0099" stroke-width="1" fill="#ff0099">
<circle cx=" 179" cy=" 205" r=" 1.5"/>
</g>
<path d="M190,193v -11" fill="none" stroke="#ff0099"/>
<path d="M190,180v -11" fill="none" stroke="#ff0099"/>
<path d="M184,181h 5" fill="none" stroke="#ff0099"/>
<path d="M191,181h 4" fill="none" stroke="#ff0099"/>
<g stroke="#ff0099" stroke-width="1" fill="#ff0099">
<circle cx=" 190" cy=" 181" r=" 1.5"/>
</g>
<path d="M201,167v -13" fill="none" stroke="#ff0099"/>
<path d="M201,152v -13" fill="none" stroke="#ff0099"/>
<path d="M195,153h 5" fill="none" stroke="#ff0099"/>
<path d="M202,153h 4" fill="none" stroke="#ff0099"/>
<g stroke="#ff0099" stroke-width="1" fill="#ff0099">
<circle cx=" 201" cy=" 153" r=" 1.5"/>
</g>
<path d="M212,95v -14" fill="none" stroke="#ff0099"/>
<path d="M212,78v -15" fill="none" stroke="#ff0099"/>
<path d="M206,79h 5" fill="none" stroke="#ff0099"/>
<path d="M213,79h 5" fill="none" stroke="#ff0099"/>
<g stroke="#ff0099" stroke-width="1" fill="#ff0099">
<circle cx=" 212" cy=" 79" r=" 1.5"/>
</g>
<path d="M223,117v -14" fill="none" stroke="#ff0099"/>
<path d="M223,101v -15" fill="none" stroke="#ff0099"/>
<path d="M218,102h 4" fill="none" stroke="#ff0099"/>
<path d="M224,102h 5" fill="none" stroke="#ff0099"/>
<g stroke="#ff0099" stroke-width="1" fill="#ff0099">
<circle cx=" 223" cy=" 102" r=" 1.5"/>
</g>
<path d="M234,130v -13" fill="none" stroke="#ff0099"/>
<path d="M234,115v -13" fill="none" stroke="#ff0099"/>
<path d="M229,116h 4" fill="none" stroke="#ff0099"/>
<path d="M235,116h 5" fill="none" stroke="#ff0099"/>
<g stroke="#ff0099" stroke-width="1" fill="#ff0099">
<circle cx=" 234" cy=" 116" r=" 1.5"/>
</g>
<path d="M245,135v -13" fill="none" stroke="#ff0099"/>
<path d="M245,120v -14" fill="none" stroke="#ff0099"/>
<path d="M240,121h 4" fill="none" stroke="#ff0099"/>
<path d="M246,121h 5" fill="none" stroke="#ff0099"/>
<g stroke="#ff0099" stroke-width="1" fill="#ff0099">
<circle cx=" 245" cy=" 121" r=" 1.5"/>
</g>
<path d="M256,132v -13" fill="none" stroke="#ff0099"/>
<path d="M256,117v -14" fill="none" stroke="#ff0099"/>
<path d="M251,118h 4" fill="none" stroke="#ff0099"/>
<path d="M257,118h 5" fill="none" stroke="#ff0099"/>
<g stroke="#ff0099" stroke-width="1" fill="#ff0099">
<circle cx=" 256" cy=" 118" r=" 1.5"/>
</g>
<path d="M267,167v -12" fill="none" stroke="#ff0099"/>
<path d="M267,153v -11" fill="none" stroke="#ff0099"/>
<path d="M262,154h 4" fill="none" stroke="#ff0099"/>
<path d="M268,154h 5" fill="none" stroke="#ff0099"/>
<g stroke="#ff0099" stroke-width="1" fill="#ff0099">
<circle cx=" 267" cy=" 154" r=" 1.5"/>
</g>
<path d="M278,190v -10" fill="none" stroke="#ff0099"/>
<path d="M278,177v -10" fill="none" stroke="#ff0099"/>
<path d="M273,179h 4" fill="none" stroke="#ff0099"/>
<path d="M279,179h 5" fill="none" stroke="#ff0099"/>
<g stroke="#ff0099" stroke-width="1" fill="#ff0099">
<circle cx=" 278" cy=" 179" r=" 1.5"/>
</g>
<path d="M289,218v -11" fill="none" stroke="#ff0099"/>
<path d="M289,205v -10" fill="none" stroke="#ff0099"/>
<path d="M284,206h 4" fill="none" stroke="#ff0099"/>
<path d="M291,206h 4" fill="none" stroke="#ff0099"/>
<g stroke="#ff0099" stroke-width="1" fill="#ff0099">
<circle cx=" 289" cy=" 206" r=" 1.5"/>
</g>
<path d="M300,246v -11" fill="none" stroke="#ff0099"/>
<path d="M300,233v -11" fill="none" stroke="#ff0099"/>
<path d="M295,234h 4" fill="none" stroke="#ff0099"/>
<path d="M302,234h 4" fill="none" stroke="#ff0099"/>
<g stroke="#ff0099" stroke-width="1" fill="#ff0099">
<circle cx=" 300" cy=" 234" r=" 1.5"/>
</g>
<path d="M312,271v -10" fill="none" stroke="#ff0099"/>
<path d="M312,259v -10" fill="none" stroke="#ff0099"/>
<path d="M306,260h 4" fill="none" stroke="#ff0099"/>
<path d="M313,260h 4" fill="none" stroke="#ff0099"/>
<g stroke="#ff0099" stroke-width="1" fill="#ff0099">
<circle cx=" 312" cy=" 260" r=" 1.5"/>
</g>
<path d="M323,308v -7" fill="none" stroke="#ff0099"/>
<path d="M323,298v -7" fill="none" stroke="#ff0099"/>
<path d="M317,300h 4" fill="none" stroke="#ff0099"/>
<path d="M324,300h 4" fill="none" stroke="#ff0099"/>
<g stroke="#ff0099" stroke-width="1" fill="#ff0099">
<circle cx=" 323" cy=" 300" r=" 1.5"/>
</g>
<path d="M334,344v -7" fill="none" stroke="#ff0099"/>
<path d="M334,335v -7" fill="none" stroke="#ff0099"/>
<path d="M328,336h 5" fill="none" stroke="#ff0099"/>
<path d="M335,336h 4" fill="none" stroke="#ff0099"/>
<g stroke="#ff0099" stroke-width="1" fill="#ff0099">
<circle cx=" 334" cy=" 336" r=" 1.5"/>
</g>
<path d="M345,349v -6" fill="none" stroke="#ff0099"/>
<path d="M345,341v -6" fill="none" stroke="#ff0099"/>
<path d="M339,342h 5" fill="none" stroke="#ff0099"/>
<path d="M346,342h 4" fill="none" stroke="#ff0099"/>
<g stroke="#ff0099" stroke-width="1" fill="#ff0099">
<circle cx=" 345" cy=" 342" r=" 1.5"/>
</g>
<path d="M356,376v -6" fill="none" stroke="#ff0099"/>
<path d="M356,368v -6" fill="none" stroke="#ff0099"/>
<path d="M350,369h 5" fill="none" stroke="#ff0099"/>
<path d="M357,369h 4" fill="none" stroke="#ff0099"/>
<g stroke="#ff0099" stroke-width="1" fill="#ff0099">
<circle cx=" 356" cy=" 369" r=" 1.5"/>
</g>
<path d="M367,400v -4" fill="none" stroke="#ff0099"/>
<path d="M367,394v -4" fill="none" stroke="#ff0099"/>
<path d="M361,395h 5" fill="none" stroke="#ff0099"/>
<path d="M368,395h 4" fill="none" stroke="#ff0099"/>
<g stroke="#ff0099" stroke-width="1" fill="#ff0099">
<circle cx=" 367" cy=" 395" r=" 1.5"/>
</g>
<path d="M378,412v -7" fill="none" stroke="#ff0099"/>
<path d="M378,403v -7" fill="none" stroke="#ff0099"/>
<path d="M372,404h 5" fill="none" stroke="#ff0099"/>
<path d="M379,404h 4" fill="none" stroke="#ff0099"/>
<g stroke="#ff0099" stroke-width="1" fill="#ff0099">
<circle cx=" 378" cy=" 404" r=" 1.5"/>
</g>
<path d="M389,422v -1" fill="none" stroke="#ff0099"/>
<path d="M389,419v -2" fill="none" stroke="#ff0099"/>
<path d="M383,420h 5" fill="none" stroke="#ff0099"/>
<path d="M390,420h 4" fill="none" stroke="#ff0099"/>
<g stroke="#ff0099" stroke-width="1" fill="#ff0099">
<circle cx=" 389" cy=" 420" r=" 1.5"/>
</g>
<path d="M400,423v -3" fill="none" stroke="#ff0099"/>
<path d="M400,417v -3" fill="none" stroke="#ff0099"/>
<path d="M394,419h 5" fill="none" stroke="#ff0099"/>
<path d="M401,419h 5" fill="none" stroke="#ff0099"/>
<g stroke="#ff0099" stroke-width="1" fill="#ff0099">
<circle cx=" 400" cy=" 419" r=" 1.5"/>
</g>
<path d="M411,437" fill="none" stroke="#ff0099"/>
<path d="M411,434" fill="none" stroke="#ff0099"/>
<path d="M406,435h 4" fill="none" stroke="#ff0099"/>
<path d="M412,435h 5" fill="none" stroke="#ff0099"/>
<g stroke="#ff0099" stroke-width="1" fill="#ff0099">
<circle cx=" 411" cy=" 435" r=" 1.5"/>
</g>
<path d="M422,439v -1" fill="none" stroke="#ff0099"/>
<path d="M422,435v -1" fill="none" stroke="#ff0099"/>
<path d="M417,437h 4" fill="none" stroke="#ff0099"/>
<path d="M423,437h 5" fill="none" stroke="#ff0099"/>
<g stroke="#ff0099" stroke-width="1" fill="#ff0099">
<circle cx=" 422" cy=" 437" r=" 1.5"/>
</g>
<path d="M428,441h 4" fill="none" stroke="#ff0099"/>
<path d="M434,441h 5" fill="none" stroke="#ff0099"/>
<g stroke="#ff0099" stroke-width="1" fill="#ff0099">
<circle cx=" 433" cy=" 441" r=" 1.5"/>
</g>
<path d="M444,442" fill="none" stroke="#ff0099"/>
<path d="M444,440" fill="none" stroke="#ff0099"/>
<path d="M439,441h 4" fill="none" stroke="#ff0099"/>
<path d="M445,441h 5" fill="none" stroke="#ff0099"/>
<g stroke="#ff0099" stroke-width="1" fill="#ff0099">
<circle cx=" 444" cy=" 441" r=" 1.5"/>
</g>
<path d="M450,444h 4" fill="none" stroke="#ff0099"/>
<path d="M456,444h 5" fill="none" stroke="#ff0099"/>
<g stroke="#ff0099" stroke-width="1" fill="#ff0099">
<circle cx=" 455" cy=" 444" r=" 1.5"/>
</g>
<path d="M461,445h 4" fill="none" stroke="#ff0099"/>
<path d="M468,445h 4" fill="none" stroke="#ff0099"/>
<g stroke="#ff0099" stroke-width="1" fill="#ff0099">
<circle cx=" 466" cy=" 445" r=" 1.5"/>
</g>
<path d="M472,446h 4" fill="none" stroke="#ff0099"/>
<path d="M479,446h 4" fill="none" stroke="#ff0099"/>
<g stroke="#ff0099" stroke-width="1" fill="#ff0099">
<circle cx=" 477" cy=" 446" r=" 1.5"/>
</g>
<path d="M483,445h 4" fill="none" stroke="#ff0099"/>
<path d="M490,445h 4" fill="none" stroke="#ff0099"/>
<g stroke="#ff0099" stroke-width="1" fill="#ff0099">
<circle cx=" 489" cy=" 445" r=" 1.5"/>
</g>
<path d="M494,446h 4" fill="none" stroke="#ff0099"/>
<path d="M501,446h 4" fill="none" stroke="#ff0099"/>
<g stroke="#ff0099" stroke-width="1" fill="#ff0099">
<circle cx=" 500" cy=" 446" r=" 1.5"/>
</g>
<path d="M511,446" fill="none" stroke="#ff0099"/>
<path d="M511,444" fill="none" stroke="#ff0099"/>
<path d="M505,445h 5" fill="none" stroke="#ff0099"/>
<path d="M512,445h 4" fill="none" stroke="#ff0099"/>
<g stroke="#ff0099" stroke-width="1" fill="#ff0099">
<circle cx=" 511" cy=" 445" r=" 1.5"/>
</g>
<path d="M516,446h 5" fill="none" stroke="#ff0099"/>
<path d="M523,446h 4" fill="none" stroke="#ff0099"/>
<g stroke="#ff0099" stroke-width="1" fill="#ff0099">
<circle cx=" 522" cy=" 446" r=" 1.5"/>
</g>
<path d="M74,446h 453" fill="none" stroke="black"/>
<path d="M79,434v 12" fill="none" stroke="black"/>
<path d="M90,440v 6" fill="none" stroke="black"/>
<path d="M101,440v 6" fill="none" stroke="black"/>
<path d="M112,440v 6" fill="none" stroke="black"/>
<path d="M123,440v 6" fill="none" stroke="black"/>
<path d="M135,434v 12" fill="none" stroke="black"/>
<path d="M146,440v 6" fill="none" stroke="black"/>
<path d="M157,440v 6" fill="none" stroke="black"/>
<path d="M168,440v 6" fill="none" stroke="black"/>
<path d="M179,440v 6" fill="none" stroke="black"/>
<path d="M190,434v 12" fill="none" stroke="black"/>
<path d="M201,440v 6" fill="none" stroke="black"/>
<path d="M212,440v 6" fill="none" stroke="black"/>
<path d="M223,440v 6" fill="none" stroke="black"/>
<path d="M234,440v 6" fill="none" stroke="black"/>
<path d="M245,434v 12" fill="none" stroke="black"/>
<path d="M256,440v 6" fill="none" stroke="black"/>
<path d="M267,440v 6" fill="none" stroke="black"/>
<path d="M278,440v 6" fill="none" stroke="black"/>
<path d="M289,440v 6" fill="none" stroke="black"/>
<path d="M300,434v 12" fill="none" stroke="black"/>
<path d="M312,440v 6" fill="none" stroke="black"/>
<path d="M323,440v 6" fill="none" stroke="black"/>
<path d="M334,440v 6" fill="none" stroke="black"/>
<path d="M345,440v 6" fill="none" stroke="black"/>
<path d="M356,434v 12" fill="none" stroke="black"/>
<path d="M367,440v 6" fill="none" stroke="black"/>
<path d="M378,440v 6" fill="none" stroke="black"/>
<path d="M389,440v 6" fill="none" stroke="black"/>
<path d="M400,440v 6" fill="none" stroke="black"/>
<path d="M411,434v 12" fill="none" stroke="black"/>
<path d="M422,440v 6" fill="none" stroke="black"/>
<path d="M433,440v 6" fill="none" stroke="black"/>
<path d="M444,440v 6" fill="none" stroke="black"/>
<path d="M455,440v 6" fill="none" stroke="black"/>
<path d="M466,434v 12" fill="none" stroke="black"/>
<path d="M477,440v 6" fill="none" stroke="black"/>
<path d="M489,440v 6" fill="none" stroke="black"/>
<path d="M500,440v 6" fill="none" stroke="black"/>
<path d="M511,440v 6" fill="none" stroke="black"/>
<path d="M522,434v 12" fill="none" stroke="black"/>
<path d="M79,434v 12" fill="none" stroke="black"/>
<path d="M522,434v 12" fill="none" stroke="black"/>
<text x="74" y="465" fill="black" font-size="18" font-family="Helvetica" font-weight="bold">
0
</text>
<text x="129" y="465" fill="black" font-size="18" font-family="Helvetica" font-weight="bold">
5
</text>
<text x="179" y="465" fill="black" font-size="18" font-family="Helvetica" font-weight="bold">
10
</text>
<text x="235" y="465" fill="black" font-size="18" font-family="Helvetica" font-weight="bold">
15
</text>
<text x="290" y="465" fill="black" font-size="18" font-family="Helvetica" font-weight="bold">
20
</text>
<text x="346" y="465" fill="black" font-size="18" font-family="Helvetica" font-weight="bold">
25
</text>
<text x="401" y="465" fill="black" font-size="18" font-family="Helvetica" font-weight="bold">
30
</text>
<text x="456" y="465" fill="black" font-size="18" font-family="Helvetica" font-weight="bold">
35
</text>
<text x="511" y="465" fill="black" font-size="18" font-family="Helvetica" font-weight="bold">
40
</text>
<path d="M74,44h 453" fill="none" stroke="black"/>
<path d="M79,56v -12" fill="none" stroke="black"/>
<path d="M90,50v -6" fill="none" stroke="black"/>
<path d="M101,50v -6" fill="none" stroke="black"/>
<path d="M112,50v -6" fill="none" stroke="black"/>
<path d="M123,50v -6" fill="none" stroke="black"/>
<path d="M135,56v -12" fill="none" stroke="black"/>
<path d="M146,50v -6" fill="none" stroke="black"/>
<path d="M157,50v -6" fill="none" stroke="black"/>
<path d="M168,50v -6" fill="none" stroke="black"/>
<path d="M179,50v -6" fill="none" stroke="black"/>
<path d="M190,56v -12" fill="none" stroke="black"/>
<path d="M201,50v -6" fill="none" stroke="black"/>
<path d="M212,50v -6" fill="none" stroke="black"/>
<path d="M223,50v -6" fill="none" stroke="black"/>
<path d="M234,50v -6" fill="none" stroke="black"/>
<path d="M245,56v -12" fill="none" stroke="black"/>
<path d="M256,50v -6" fill="none" stroke="black"/>
<path d="M267,50v -6" fill="none" stroke="black"/>
<path d="M278,50v -6" fill="none" stroke="black"/>
<path d="M289,50v -6" fill="none" stroke="black"/>
<path d="M300,56v -12" fill="none" stroke="black"/>
<path d="M312,50v -6" fill="none" stroke="black"/>
<path d="M323,50v -6" fill="none" stroke="black"/>
<path d="M334,50v -6" fill="none" stroke="black"/>
<path d="M345,50v -6" fill="none" stroke="black"/>
<path d="M356,56v -12" fill="none" stroke="black"/>
<path d="M367,50v -6" fill="none" stroke="black"/>
<path d="M378,50v -6" fill="none" stroke="black"/>
<path d="M389,50v -6" fill="none" stroke="black"/>
<path d="M400,50v -6" fill="none" stroke="black"/>
<path d="M411,56v -12" fill="none" stroke="black"/>
<path d="M422,50v -6" fill="none" stroke="black"/>
<path d="M433,50v -6" fill="none" stroke="black"/>
<path d="M444,50v -6" fill="none" stroke="black"/>
<path d="M455,50v -6" fill="none" stroke="black"/>
<path d="M466,56v -12" fill="none" stroke="black"/>
<path d="M477,50v -6" fill="none" stroke="black"/>
<path d="M489,50v -6" fill="none" stroke="black"/>
<path d="M500,50v -6" fill="none" stroke="black"/>
<path d="M511,50v -6" fill="none" stroke="black"/>
<path d="M522,56v -12" fill="none" stroke="black"/>
<path d="M79,56v -12" fill="none" stroke="black"/>
<path d="M522,56v -12" fill="none" stroke="black"/>
<path d="M74,446v -402" fill="none" stroke="black"/>
<path d="M87,446h -13" fill="none" stroke="black"/>
<path d="M81,437h -7" fill="none" stroke="black"/>
<path d="M81,427h -7" fill="none" stroke="black"/>
<path d="M81,418h -7" fill="none" stroke="black"/>
<path d="M81,408h -7" fill="none" stroke="black"/>
<path d="M87,399h -13" fill="none" stroke="black"/>
<path d="M81,389h -7" fill="none" stroke="black"/>
<path d="M81,380h -7" fill="none" stroke="black"/>
<path d="M81,370h -7" fill="none" stroke="black"/>
<path d="M81,361h -7" fill="none" stroke="black"/>
<path d="M87,351h -13" fill="none" stroke="black"/>
<path d="M81,342h -7" fill="none" stroke="black"/>
<path d="M81,332h -7" fill="none" stroke="black"/>
<path d="M81,323h -7" fill="none" stroke="black"/>
<path d="M81,313h -7" fill="none" stroke="black"/>
<path d="M87,303h -13" fill="none" stroke="black"/>
<path d="M81,294h -7" fill="none" stroke="black"/>
<path d="M81,284h -7" fill="none" stroke="black"/>
<path d="M81,275h -7" fill="none" stroke="black"/>
<path d="M81,265h -7" fill="none" stroke="black"/>
<path d="M87,256h -13" fill="none" stroke="black"/>
<path d="M81,246h -7" fill="none" stroke="black"/>
<path d="M81,237h -7" fill="none" stroke="black"/>
<path d="M81,227h -7" fill="none" stroke="black"/>
<path d="M81,218h -7" fill="none" stroke="black"/>
<path d="M87,208h -13" fill="none" stroke="black"/>
<path d="M81,199h -7" fill="none" stroke="black"/>
<path d="M81,189h -7" fill="none" stroke="black"/>
<path d="M81,180h -7" fill="none" stroke="black"/>
<path d="M81,170h -7" fill="none" stroke="black"/>
<path d="M87,161h -13" fill="none" stroke="black"/>
<path d="M81,151h -7" fill="none" stroke="black"/>
<path d="M81,142h -7" fill="none" stroke="black"/>
<path d="M81,132h -7" fill="none" stroke="black"/>
<path d="M81,123h -7" fill="none" stroke="black"/>
<path d="M87,113h -13" fill="none" stroke="black"/>
<path d="M81,103h -7" fill="none" stroke="black"/>
<path d="M81,94h -7" fill="none" stroke="black"/>
<path d="M81,84h -7" fill="none" stroke="black"/>
<path d="M81,75h -7" fill="none" stroke="black"/>
<path d="M87,65h -13" fill="none" stroke="black"/>
<path d="M87,65h -13" fill="none" stroke="black"/>
<path d="M81,56h -7" fill="none" stroke="black"/>
<path d="M81,46h -7" fill="none" stroke="black"/>
<text x="61" y="453" fill="black" font-size="18" font-family="Helvetica" font-weight="bold">
0
</text>
<text x="37" y="405" fill="black" font-size="18" font-family="Helvetica" font-weight="bold">
0.01
</text>
<text x="35" y="358" fill="black" font-size="18" font-family="Helvetica" font-weight="bold">
0.02
</text>
<text x="35" y="310" fill="black" font-size="18" font-family="Helvetica" font-weight="bold">
0.03
</text>
<text x="34" y="263" fill="black" font-size="18" font-family="Helvetica" font-weight="bold">
0.04
</text>
<text x="34" y="215" fill="black" font-size="18" font-family="Helvetica" font-weight="bold">
0.05
</text>
<text x="34" y="167" fill="black" font-size="18" font-family="Helvetica" font-weight="bold">
0.06
</text>
<text x="35" y="120" fill="black" font-size="18" font-family="Helvetica" font-weight="bold">
0.07
</text>
<text x="35" y="72" fill="black" font-size="18" font-family="Helvetica" font-weight="bold">
0.08
</text>
<path d="M90,446" fill="none" stroke="#99ff99" stroke-width="2"/>
<path d="M90,446" fill="none" stroke="#99ff99" stroke-width="2"/>
<g stroke="black" stroke-width="2" fill="none">
<line x1="89" y1="446" x2="90" y2="446"/>
</g>
<path d="M101,444" fill="none" stroke="#99ff99" stroke-width="2"/>
<path d="M101,444" fill="none" stroke="#99ff99" stroke-width="2"/>
<g stroke="black" stroke-width="2" fill="none">
<line x1="100" y1="444" x2="101" y2="444"/>
</g>
<path d="M112,440v -1" fill="none" stroke="#99ff99" stroke-width="2"/>
<path d="M112,439" fill="none" stroke="#99ff99" stroke-width="2"/>
<g stroke="black" stroke-width="2" fill="none">
<line x1="111" y1="439" x2="112" y2="439"/>
</g>
<path d="M123,431v -1" fill="none" stroke="#99ff99" stroke-width="2"/>
<path d="M123,430v -1" fill="none" stroke="#99ff99" stroke-width="2"/>
<g stroke="black" stroke-width="2" fill="none">
<line x1="122" y1="430" x2="123" y2="430"/>
</g>
<path d="M135,412v -2" fill="none" stroke="#99ff99" stroke-width="2"/>
<path d="M135,410v -2" fill="none" stroke="#99ff99" stroke-width="2"/>
<g stroke="black" stroke-width="2" fill="none">
<line x1="134" y1="410" x2="135" y2="410"/>
</g>
<path d="M146,383v -2" fill="none" stroke="#99ff99" stroke-width="2"/>
<path d="M146,381v -2" fill="none" stroke="#99ff99" stroke-width="2"/>
<g stroke="black" stroke-width="2" fill="none">
<line x1="145" y1="381" x2="146" y2="381"/>
</g>
<path d="M157,342v -11" fill="none" stroke="#99ff99" stroke-width="2"/>
<path d="M157,331v -12" fill="none" stroke="#99ff99" stroke-width="2"/>
<g stroke="black" stroke-width="2" fill="none">
<line x1="156" y1="331" x2="157" y2="331"/>
</g>
<path d="M168,301v -3" fill="none" stroke="#99ff99" stroke-width="2"/>
<path d="M168,298v -4" fill="none" stroke="#99ff99" stroke-width="2"/>
<g stroke="black" stroke-width="2" fill="none">
<line x1="167" y1="298" x2="168" y2="298"/>
</g>
<path d="M179,247v -12" fill="none" stroke="#99ff99" stroke-width="2"/>
<path d="M179,235v -13" fill="none" stroke="#99ff99" stroke-width="2"/>
<g stroke="black" stroke-width="2" fill="none">
<line x1="178" y1="235" x2="179" y2="235"/>
</g>
<path d="M190,209v -5" fill="none" stroke="#99ff99" stroke-width="2"/>
<path d="M190,204v -4" fill="none" stroke="#99ff99" stroke-width="2"/>
<g stroke="black" stroke-width="2" fill="none">
<line x1="189" y1="204" x2="190" y2="204"/>
</g>
<path d="M201,182v -5" fill="none" stroke="#99ff99" stroke-width="2"/>
<path d="M201,177v -5" fill="none" stroke="#99ff99" stroke-width="2"/>
<g stroke="black" stroke-width="2" fill="none">
<line x1="200" y1="177" x2="201" y2="177"/>
</g>
<path d="M212,145v -9" fill="none" stroke="#99ff99" stroke-width="2"/>
<path d="M212,136v -9" fill="none" stroke="#99ff99" stroke-width="2"/>
<g stroke="black" stroke-width="2" fill="none">
<line x1="211" y1="136" x2="212" y2="136"/>
</g>
<path d="M223,122v -17" fill="none" stroke="#99ff99" stroke-width="2"/>
<path d="M223,105v -16" fill="none" stroke="#99ff99" stroke-width="2"/>
<g stroke="black" stroke-width="2" fill="none">
<line x1="222" y1="105" x2="223" y2="105"/>
</g>
<path d="M234,108v -17" fill="none" stroke="#99ff99" stroke-width="2"/>
<path d="M234,91v -16" fill="none" stroke="#99ff99" stroke-width="2"/>
<g stroke="black" stroke-width="2" fill="none">
<line x1="233" y1="91" x2="234" y2="91"/>
</g>
<path d="M245,133v -10" fill="none" stroke="#99ff99" stroke-width="2"/>
<path d="M245,123v -9" fill="none" stroke="#99ff99" stroke-width="2"/>
<g stroke="black" stroke-width="2" fill="none">
<line x1="244" y1="123" x2="245" y2="123"/>
</g>
<path d="M256,119v -14" fill="none" stroke="#99ff99" stroke-width="2"/>
<path d="M256,105v -13" fill="none" stroke="#99ff99" stroke-width="2"/>
<g stroke="black" stroke-width="2" fill="none">
<line x1="255" y1="105" x2="256" y2="105"/>
</g>
<path d="M267,143v -9" fill="none" stroke="#99ff99" stroke-width="2"/>
<path d="M267,134v -9" fill="none" stroke="#99ff99" stroke-width="2"/>
<g stroke="black" stroke-width="2" fill="none">
<line x1="266" y1="134" x2="267" y2="134"/>
</g>
<path d="M278,188v -4" fill="none" stroke="#99ff99" stroke-width="2"/>
<path d="M278,184v -4" fill="none" stroke="#99ff99" stroke-width="2"/>
<g stroke="black" stroke-width="2" fill="none">
<line x1="277" y1="184" x2="278" y2="184"/>
</g>
<path d="M289,194v -13" fill="none" stroke="#99ff99" stroke-width="2"/>
<path d="M289,181v -13" fill="none" stroke="#99ff99" stroke-width="2"/>
<g stroke="black" stroke-width="2" fill="none">
<line x1="288" y1="181" x2="289" y2="181"/>
</g>
<path d="M300,231v -8" fill="none" stroke="#99ff99" stroke-width="2"/>
<path d="M300,223v -8" fill="none" stroke="#99ff99" stroke-width="2"/>
<g stroke="black" stroke-width="2" fill="none">
<line x1="299" y1="223" x2="300" y2="223"/>
</g>
<path d="M312,261v -7" fill="none" stroke="#99ff99" stroke-width="2"/>
<path d="M312,254v -7" fill="none" stroke="#99ff99" stroke-width="2"/>
<g stroke="black" stroke-width="2" fill="none">
<line x1="311" y1="254" x2="312" y2="254"/>
</g>
<path d="M323,289v -10" fill="none" stroke="#99ff99" stroke-width="2"/>
<path d="M323,279v -9" fill="none" stroke="#99ff99" stroke-width="2"/>
<g stroke="black" stroke-width="2" fill="none">
<line x1="322" y1="279" x2="323" y2="279"/>
</g>
<path d="M334,320v -6" fill="none" stroke="#99ff99" stroke-width="2"/>
<path d="M334,314v -6" fill="none" stroke="#99ff99" stroke-width="2"/>
<g stroke="black" stroke-width="2" fill="none">
<line x1="333" y1="314" x2="334" y2="314"/>
</g>
<path d="M345,346v -2" fill="none" stroke="#99ff99" stroke-width="2"/>
<path d="M345,344v -3" fill="none" stroke="#99ff99" stroke-width="2"/>
<g stroke="black" stroke-width="2" fill="none">
<line x1="344" y1="344" x2="345" y2="344"/>
</g>
<path d="M356,363v -7" fill="none" stroke="#99ff99" stroke-width="2"/>
<path d="M356,356v -6" fill="none" stroke="#99ff99" stroke-width="2"/>
<g stroke="black" stroke-width="2" fill="none">
<line x1="355" y1="356" x2="356" y2="356"/>
</g>
<path d="M367,389v -2" fill="none" stroke="#99ff99" stroke-width="2"/>
<path d="M367,387v -2" fill="none" stroke="#99ff99" stroke-width="2"/>
<g stroke="black" stroke-width="2" fill="none">
<line x1="366" y1="387" x2="367" y2="387"/>
</g>
<path d="M378,399v -2" fill="none" stroke="#99ff99" stroke-width="2"/>
<path d="M378,397v -1" fill="none" stroke="#99ff99" stroke-width="2"/>
<g stroke="black" stroke-width="2" fill="none">
<line x1="377" y1="397" x2="378" y2="397"/>
</g>
<path d="M389,414v -3" fill="none" stroke="#99ff99" stroke-width="2"/>
<path d="M389,411v -3" fill="none" stroke="#99ff99" stroke-width="2"/>
<g stroke="black" stroke-width="2" fill="none">
<line x1="388" y1="411" x2="389" y2="411"/>
</g>
<path d="M400,422v -3" fill="none" stroke="#99ff99" stroke-width="2"/>
<path d="M400,419v -4" fill="none" stroke="#99ff99" stroke-width="2"/>
<g stroke="black" stroke-width="2" fill="none">
<line x1="399" y1="419" x2="400" y2="419"/>
</g>
<path d="M411,429v -2" fill="none" stroke="#99ff99" stroke-width="2"/>
<path d="M411,427v -2" fill="none" stroke="#99ff99" stroke-width="2"/>
<g stroke="black" stroke-width="2" fill="none">
<line x1="410" y1="427" x2="411" y2="427"/>
</g>
<path d="M422,435v -1" fill="none" stroke="#99ff99" stroke-width="2"/>
<path d="M422,434v -1" fill="none" stroke="#99ff99" stroke-width="2"/>
<g stroke="black" stroke-width="2" fill="none">
<line x1="421" y1="434" x2="422" y2="434"/>
</g>
<path d="M433,439v -3" fill="none" stroke="#99ff99" stroke-width="2"/>
<path d="M433,436v -2" fill="none" stroke="#99ff99" stroke-width="2"/>
<g stroke="black" stroke-width="2" fill="none">
<line x1="432" y1="436" x2="433" y2="436"/>
</g>
<path d="M444,441" fill="none" stroke="#99ff99" stroke-width="2"/>
<path d="M444,441v -1" fill="none" stroke="#99ff99" stroke-width="2"/>
<g stroke="black" stroke-width="2" fill="none">
<line x1="443" y1="441" x2="444" y2="441"/>
</g>
<path d="M455,443" fill="none" stroke="#99ff99" stroke-width="2"/>
<path d="M455,443v -1" fill="none" stroke="#99ff99" stroke-width="2"/>
<g stroke="black" stroke-width="2" fill="none">
<line x1="454" y1="443" x2="455" y2="443"/>
</g>
<path d="M466,444" fill="none" stroke="#99ff99" stroke-width="2"/>
<path d="M466,444" fill="none" stroke="#99ff99" stroke-width="2"/>
<g stroke="black" stroke-width="2" fill="none">
<line x1="465" y1="444" x2="466" y2="444"/>
</g>
<path d="M477,445" fill="none" stroke="#99ff99" stroke-width="2"/>
<path d="M477,445" fill="none" stroke="#99ff99" stroke-width="2"/>
<g stroke="black" stroke-width="2" fill="none">
<line x1="476" y1="445" x2="477" y2="445"/>
</g>
<path d="M489,445" fill="none" stroke="#99ff99" stroke-width="2"/>
<path d="M489,445" fill="none" stroke="#99ff99" stroke-width="2"/>
<g stroke="black" stroke-width="2" fill="none">
<line x1="488" y1="445" x2="489" y2="445"/>
</g>
<path d="M500,446" fill="none" stroke="#99ff99" stroke-width="2"/>
<path d="M500,446" fill="none" stroke="#99ff99" stroke-width="2"/>
<g stroke="black" stroke-width="2" fill="none">
<line x1="499" y1="446" x2="500" y2="446"/>
</g>
<path d="M511,446" fill="none" stroke="#99ff99" stroke-width="2"/>
<path d="M511,446" fill="none" stroke="#99ff99" stroke-width="2"/>
<g stroke="black" stroke-width="2" fill="none">
<line x1="510" y1="446" x2="511" y2="446"/>
</g>
<path d="M522,446" fill="none" stroke="#99ff99" stroke-width="2"/>
<path d="M522,446" fill="none" stroke="#99ff99" stroke-width="2"/>
<g stroke="black" stroke-width="2" fill="none">
<line x1="521" y1="446" x2="522" y2="446"/>
</g>
<path d="M74,446h 22v -2h 11v -5h 11v -9h 11v -20h 11v -29h 11v -50h 11v -33h 11v -63h 11v -31h 11v -27h 11v -41h 12v -31h 11v -14h 11v 32h 11v -18h 11v 29h 11v 50h 11v -3h 11v 42h 11v 31h 11v 25h 11v 35h 11v 30h 11v 12h 11v 31h 11v 10h 11v 14h 11v
 8h 12v 8h 11v 7h 11v 2h 11v 5h 11v 2h 11v 1h 11v 1h 22v 1h 33z" fill="#99ff99"/>
<path d="M74,446h 22v -2h 11v -5h 11v -9h 11v -20h 11v -29h 11v -50h 11v -33h 11v -63h 11v -31h 11v -27h 11v -41h 12v -31h 11v -14h 11v 32h 11v -18h 11v 29h 11v 50h 11v -3h 11v 42h 11v 31h 11v 25h 11v 35h 11v 30h 11v 12h 11v 31h 11v 10h 11v 14h 11v
 8h 12v 8h 11v 7h 11v 2h 11v 5h 11v 2h 11v 1h 11v 1h 22v 1h 33" fill="none" stroke="#99ff99" stroke-width="2"/>
<path d="M85,445h 4" fill="none" stroke="#ff0099"/>
<path d="M91,445h 5" fill="none" stroke="#ff0099"/>
<g stroke="#ff0099" stroke-width="1" fill="#ff0099">
<circle cx=" 90" cy=" 445" r=" 1.5"/>
</g>
<path d="M96,444h 4" fill="none" stroke="#ff0099"/>
<path d="M102,444h 5" fill="none" stroke="#ff0099"/>
<g stroke="#ff0099" stroke-width="1" fill="#ff0099">
<circle cx=" 101" cy=" 444" r=" 1.5"/>
</g>
<path d="M112,441" fill="none" stroke="#ff0099"/>
<path d="M112,438" fill="none" stroke="#ff0099"/>
<path d="M107,440h 4" fill="none" stroke="#ff0099"/>
<path d="M114,440h 4" fill="none" stroke="#ff0099"/>
<g stroke="#ff0099" stroke-width="1" fill="#ff0099">
<circle cx=" 112" cy=" 440" r=" 1.5"/>
</g>
<path d="M123,431v -1" fill="none" stroke="#ff0099"/>
<path d="M123,428v -1" fill="none" stroke="#ff0099"/>
<path d="M118,429h 4" fill="none" stroke="#ff0099"/>
<path d="M125,429h 4" fill="none" stroke="#ff0099"/>
<g stroke="#ff0099" stroke-width="1" fill="#ff0099">
<circle cx=" 123" cy=" 429" r=" 1.5"/>
</g>
<path d="M135,405v -5" fill="none" stroke="#ff0099"/>
<path d="M135,398v -4" fill="none" stroke="#ff0099"/>
<path d="M129,399h 4" fill="none" stroke="#ff0099"/>
<path d="M136,399h 4" fill="none" stroke="#ff0099"/>
<g stroke="#ff0099" stroke-width="1" fill="#ff0099">
<circle cx=" 135" cy=" 399" r=" 1.5"/>
</g>
<path d="M146,378v -4" fill="none" stroke="#ff0099"/>
<path d="M146,372v -5" fill="none" stroke="#ff0099"/>
<path d="M140,373h 4" fill="none" stroke="#ff0099"/>
<path d="M147,373h 4" fill="none" stroke="#ff0099"/>
<g stroke="#ff0099" stroke-width="1" fill="#ff0099">
<circle cx=" 146" cy=" 373" r=" 1.5"/>
</g>
<path d="M157,338v -7" fill="none" stroke="#ff0099"/>
<path d="M157,329v -6" fill="none" stroke="#ff0099"/>
<path d="M151,330h 5" fill="none" stroke="#ff0099"/>
<path d="M158,330h 4" fill="none" stroke="#ff0099"/>
<g stroke="#ff0099" stroke-width="1" fill="#ff0099">
<circle cx=" 157" cy=" 330" r=" 1.5"/>
</g>
<path d="M168,280v -9" fill="none" stroke="#ff0099"/>
<path d="M168,269v -10" fill="none" stroke="#ff0099"/>
<path d="M162,270h 5" fill="none" stroke="#ff0099"/>
<path d="M169,270h 4" fill="none" stroke="#ff0099"/>
<g stroke="#ff0099" stroke-width="1" fill="#ff0099">
<circle cx=" 168" cy=" 270" r=" 1.5"/>
</g>
<path d="M179,218v -12" fill="none" stroke="#ff0099"/>
<path d="M179,204v -11" fill="none" stroke="#ff0099"/>
<path d="M173,205h 5" fill="none" stroke="#ff0099"/>
<path d="M180,205h 4" fill="none" stroke="#ff0099"/>
<g stroke="#ff0099" stroke-width="1" fill="#ff0099">
<circle cx=" 179" cy=" 205" r=" 1.5"/>
</g>
<path d="M190,193v -11" fill="none" stroke="#ff0099"/>
<path d="M190,180v -11" fill="none" stroke="#ff0099"/>
<path d="M184,181h 5" fill="none" stroke="#ff0099"/>
<path d="M191,181h 4" fill="none" stroke="#ff0099"/>
<g stroke="#ff0099" stroke-width="1" fill="#ff0099">
<circle cx=" 190" cy=" 181" r=" 1.5"/>
</g>
<path d="M201,167v -13" fill="none" stroke="#ff0099"/>
<path d="M201,152v -13" fill="none" stroke="#ff0099"/>
<path d="M195,153h 5" fill="none" stroke="#ff0099"/>
<path d="M202,153h 4" fill="none" stroke="#ff0099"/>
<g stroke="#ff0099" stroke-width="1" fill="#ff0099">
<circle cx=" 201" cy=" 153" r=" 1.5"/>
</g>
<path d="M212,95v -14" fill="none" stroke="#ff0099"/>
<path d="M212,78v -15" fill="none" stroke="#ff0099"/>
<path d="M206,79h 5" fill="none" stroke="#ff0099"/>
<path d="M213,79h 5" fill="none" stroke="#ff0099"/>
<g stroke="#ff0099" stroke-width="1" fill="#ff0099">
<circle cx=" 212" cy=" 79" r=" 1.5"/>
</g>
<path d="M223,117v -14" fill="none" stroke="#ff0099"/>
<path d="M223,101v -15" fill="none" stroke="#ff0099"/>
<path d="M218,102h 4" fill="none" stroke="#ff0099"/>
<path d="M224,102h 5" fill="none" stroke="#ff0099"/>
<g stroke="#ff0099" stroke-width="1" fill="#ff0099">
<circle cx=" 223" cy=" 102" r=" 1.5"/>
</g>
<path d="M234,130v -13" fill="none" stroke="#ff0099"/>
<path d="M234,115v -13" fill="none" stroke="#ff0099"/>
<path d="M229,116h 4" fill="none" stroke="#ff0099"/>
<path d="M235,116h 5" fill="none" stroke="#ff0099"/>
<g stroke="#ff0099" stroke-width="1" fill="#ff0099">
<circle cx=" 234" cy=" 116" r=" 1.5"/>
</g>
<path d="M245,135v -13" fill="none" stroke="#ff0099"/>
<path d="M245,120v -14" fill="none" stroke="#ff0099"/>
<path d="M240,121h 4" fill="none" stroke="#ff0099"/>
<path d="M246,121h 5" fill="none" stroke="#ff0099"/>
<g stroke="#ff0099" stroke-width="1" fill="#ff0099">
<circle cx=" 245" cy=" 121" r=" 1.5"/>
</g>
<path d="M256,132v -13" fill="none" stroke="#ff0099"/>
<path d="M256,117v -14" fill="none" stroke="#ff0099"/>
<path d="M251,118h 4" fill="none" stroke="#ff0099"/>
<path d="M257,118h 5" fill="none" stroke="#ff0099"/>
<g stroke="#ff0099" stroke-width="1" fill="#ff0099">
<circle cx=" 256" cy=" 118" r=" 1.5"/>
</g>
<path d="M267,167v -12" fill="none" stroke="#ff0099"/>
<path d="M267,153v -11" fill="none" stroke="#ff0099"/>
<path d="M262,154h 4" fill="none" stroke="#ff0099"/>
<path d="M268,154h 5" fill="none" stroke="#ff0099"/>
<g stroke="#ff0099" stroke-width="1" fill="#ff0099">
<circle cx=" 267" cy=" 154" r=" 1.5"/>
</g>
<path d="M278,190v -10" fill="none" stroke="#ff0099"/>
<path d="M278,177v -10" fill="none" stroke="#ff0099"/>
<path d="M273,179h 4" fill="none" stroke="#ff0099"/>
<path d="M279,179h 5" fill="none" stroke="#ff0099"/>
<g stroke="#ff0099" stroke-width="1" fill="#ff0099">
<circle cx=" 278" cy=" 179" r=" 1.5"/>
</g>
<path d="M289,218v -11" fill="none" stroke="#ff0099"/>
<path d="M289,205v -10" fill="none" stroke="#ff0099"/>
<path d="M284,206h 4" fill="none" stroke="#ff0099"/>
<path d="M291,206h 4" fill="none" stroke="#ff0099"/>
<g stroke="#ff0099" stroke-width="1" fill="#ff0099">
<circle cx=" 289" cy=" 206" r=" 1.5"/>
</g>
<path d="M300,246v -11" fill="none" stroke="#ff0099"/>
<path d="M300,233v -11" fill="none" stroke="#ff0099"/>
<path d="M295,234h 4" fill="none" stroke="#ff0099"/>
<path d="M302,234h 4" fill="none" stroke="#ff0099"/>
<g stroke="#ff0099" stroke-width="1" fill="#ff0099">
<circle cx=" 300" cy=" 234" r=" 1.5"/>
</g>
<path d="M312,271v -10" fill="none" stroke="#ff0099"/>
<path d="M312,259v -10" fill="none" stroke="#ff0099"/>
<path d="M306,260h 4" fill="none" stroke="#ff0099"/>
<path d="M313,260h 4" fill="none" stroke="#ff0099"/>
<g stroke="#ff0099" stroke-width="1" fill="#ff0099">
<circle cx=" 312" cy=" 260" r=" 1.5"/>
</g>
<path d="M323,308v -7" fill="none" stroke="#ff0099"/>
<path d="M323,298v -7" fill="none" stroke="#ff0099"/>
<path d="M317,300h 4" fill="none" stroke="#ff0099"/>
<path d="M324,300h 4" fill="none" stroke="#ff0099"/>
<g stroke="#ff0099" stroke-width="1" fill="#ff0099">
<circle cx=" 323" cy=" 300" r=" 1.5"/>
</g>
<path d="M334,344v -7" fill="none" stroke="#ff0099"/>
<path d="M334,335v -7" fill="none" stroke="#ff0099"/>
<path d="M328,336h 5" fill="none" stroke="#ff0099"/>
<path d="M335,336h 4" fill="none" stroke="#ff0099"/>
<g stroke="#ff0099" stroke-width="1" fill="#ff0099">
<circle cx=" 334" cy=" 336" r=" 1.5"/>
</g>
<path d="M345,349v -6" fill="none" stroke="#ff0099"/>
<path d="M345,341v -6" fill="none" stroke="#ff0099"/>
<path d="M339,342h 5" fill="none" stroke="#ff0099"/>
<path d="M346,342h 4" fill="none" stroke="#ff0099"/>
<g stroke="#ff0099" stroke-width="1" fill="#ff0099">
<circle cx=" 345" cy=" 342" r=" 1.5"/>
</g>
<path d="M356,376v -6" fill="none" stroke="#ff0099"/>
<path d="M356,368v -6" fill="none" stroke="#ff0099"/>
<path d="M350,369h 5" fill="none" stroke="#ff0099"/>
<path d="M357,369h 4" fill="none" stroke="#ff0099"/>
<g stroke="#ff0099" stroke-width="1" fill="#ff0099">
<circle cx=" 356" cy=" 369" r=" 1.5"/>
</g>
<path d="M367,400v -4" fill="none" stroke="#ff0099"/>
<path d="M367,394v -4" fill="none" stroke="#ff0099"/>
<path d="M361,395h 5" fill="none" stroke="#ff0099"/>
<path d="M368,395h 4" fill="none" stroke="#ff0099"/>
<g stroke="#ff0099" stroke-width="1" fill="#ff0099">
<circle cx=" 367" cy=" 395" r=" 1.5"/>
</g>
<path d="M378,412v -7" fill="none" stroke="#ff0099"/>
<path d="M378,403v -7" fill="none" stroke="#ff0099"/>
<path d="M372,404h 5" fill="none" stroke="#ff0099"/>
<path d="M379,404h 4" fill="none" stroke="#ff0099"/>
<g stroke="#ff0099" stroke-width="1" fill="#ff0099">
<circle cx=" 378" cy=" 404" r=" 1.5"/>
</g>
<path d="M389,422v -1" fill="none" stroke="#ff0099"/>
<path d="M389,419v -2" fill="none" stroke="#ff0099"/>
<path d="M383,420h 5" fill="none" stroke="#ff0099"/>
<path d="M390,420h 4" fill="none" stroke="#ff0099"/>
<g stroke="#ff0099" stroke-width="1" fill="#ff0099">
<circle cx=" 389" cy=" 420" r=" 1.5"/>
</g>
<path d="M400,423v -3" fill="none" stroke="#ff0099"/>
<path d="M400,417v -3" fill="none" stroke="#ff0099"/>
<path d="M394,419h 5" fill="none" stroke="#ff0099"/>
<path d="M401,419h 5" fill="none" stroke="#ff0099"/>
<g stroke="#ff0099" stroke-width="1" fill="#ff0099">
<circle cx=" 400" cy=" 419" r=" 1.5"/>
</g>
<path d="M411,437" fill="none" stroke="#ff0099"/>
<path d="M411,434" fill="none" stroke="#ff0099"/>
<path d="M406,435h 4" fill="none" stroke="#ff0099"/>
<path d="M412,435h 5" fill="none" stroke="#ff0099"/>
<g stroke="#ff0099" stroke-width="1" fill="#ff0099">
<circle cx=" 411" cy=" 435" r=" 1.5"/>
</g>
<path d="M422,439v -1" fill="none" stroke="#ff0099"/>
<path d="M422,435v -1" fill="none" stroke="#ff0099"/>
<path d="M417,437h 4" fill="none" stroke="#ff0099"/>
<path d="M423,437h 5" fill="none" stroke="#ff0099"/>
<g stroke="#ff0099" stroke-width="1" fill="#ff0099">
<circle cx=" 422" cy=" 437" r=" 1.5"/>
</g>
<path d="M428,441h 4" fill="none" stroke="#ff0099"/>
<path d="M434,441h 5" fill="none" stroke="#ff0099"/>
<g stroke="#ff0099" stroke-width="1" fill="#ff0099">
<circle cx=" 433" cy=" 441" r=" 1.5"/>
</g>
<path d="M444,442" fill="none" stroke="#ff0099"/>
<path d="M444,440" fill="none" stroke="#ff0099"/>
<path d="M439,441h 4" fill="none" stroke="#ff0099"/>
<path d="M445,441h 5" fill="none" stroke="#ff0099"/>
<g stroke="#ff0099" stroke-width="1" fill="#ff0099">
<circle cx=" 444" cy=" 441" r=" 1.5"/>
</g>
<path d="M450,444h 4" fill="none" stroke="#ff0099"/>
<path d="M456,444h 5" fill="none" stroke="#ff0099"/>
<g stroke="#ff0099" stroke-width="1" fill="#ff0099">
<circle cx=" 455" cy=" 444" r=" 1.5"/>
</g>
<path d="M461,445h 4" fill="none" stroke="#ff0099"/>
<path d="M468,445h 4" fill="none" stroke="#ff0099"/>
<g stroke="#ff0099" stroke-width="1" fill="#ff0099">
<circle cx=" 466" cy=" 445" r=" 1.5"/>
</g>
<path d="M472,446h 4" fill="none" stroke="#ff0099"/>
<path d="M479,446h 4" fill="none" stroke="#ff0099"/>
<g stroke="#ff0099" stroke-width="1" fill="#ff0099">
<circle cx=" 477" cy=" 446" r=" 1.5"/>
</g>
<path d="M483,445h 4" fill="none" stroke="#ff0099"/>
<path d="M490,445h 4" fill="none" stroke="#ff0099"/>
<g stroke="#ff0099" stroke-width="1" fill="#ff0099">
<circle cx=" 489" cy=" 445" r=" 1.5"/>
</g>
<path d="M494,446h 4" fill="none" stroke="#ff0099"/>
<path d="M501,446h 4" fill="none" stroke="#ff0099"/>
<g stroke="#ff0099" stroke-width="1" fill="#ff0099">
<circle cx=" 500" cy=" 446" r=" 1.5"/>
</g>
<path d="M511,446" fill="none" stroke="#ff0099"/>
<path d="M511,444" fill="none" stroke="#ff0099"/>
<path d="M505,445h 5" fill="none" stroke="#ff0099"/>
<path d="M512,445h 4" fill="none" stroke="#ff0099"/>
<g stroke="#ff0099" stroke-width="1" fill="#ff0099">
<circle cx=" 511" cy=" 445" r=" 1.5"/>
</g>
<path d="M516,446h 5" fill="none" stroke="#ff0099"/>
<path d="M523,446h 4" fill="none" stroke="#ff0099"/>
<g stroke="#ff0099" stroke-width="1" fill="#ff0099">
<circle cx=" 522" cy=" 446" r=" 1.5"/>
</g>
<rect x="357" y="59" width="142" height="99" fill="white"/>
<text x="360" y="82" fill="black" font-size="17" font-family="Helvetica" font-weight="bold">
EE
</text>
<text x="457" y="115" fill="black" font-size="17" font-family="Helvetica" font-weight="bold">
 ee
</text>
<text x="440" y="115" fill="black" font-size="17" font-family="Times">
&#8594;
</text>
<text x="392" y="115" fill="black" font-size="17" font-family="Helvetica" font-weight="bold">
MC Z 
</text>
<path d="M362,109h 25" fill="none" stroke="#ff0099"/>
<g stroke="#ff0099" stroke-width="1" fill="#ff0099">
<circle cx=" 375" cy=" 109" r=" 1.5"/>
</g>
<text x="455" y="147" fill="black" font-size="17" font-family="Helvetica" font-weight="bold">
 + jet
</text>
<text x="447" y="147" fill="black" font-size="17" font-family="Times">
&#0947;
</text>
<text x="392" y="147" fill="black" font-size="17" font-family="Helvetica" font-weight="bold">
signal 
</text>
<path d="M362,154h 25v -24h -25z" fill="#99ff99"/>
<path d="M362,130h 25" fill="none" stroke="#99ff99" stroke-width="2"/>
<path d="M362,154h 25" fill="none" stroke="#99ff99" stroke-width="2"/>
<path d="M387,154v -24" fill="none" stroke="#99ff99" stroke-width="2"/>
<path d="M362,154v -24" fill="none" stroke="#99ff99" stroke-width="2"/>
<text x="300" y="34" fill="black" font-size="17" font-family="Helvetica" font-weight="bold">
=8 TeV
</text>
<text x="291" y="34" fill="black" font-size="17" font-family="Helvetica" font-weight="bold">
s
</text>
<path d="M285,25l 2, 10" fill="none" stroke="black" stroke-width="2"/>
<path d="M287,35l 2, -14" fill="none" stroke="black"/>
<path d="M289,21h 11" fill="none" stroke="black"/>
<text x="142" y="34" fill="black" font-size="17" font-family="Helvetica" font-weight="bold">
CMS Preliminary 
</text></svg>
