<?xml version="1.0" standalone="no"?>
<svg width="567" height="496" viewBox="0 0 567 496" xmlns="http://www.w3.org/2000/svg">
<title>
plots_mcZee_mcGJet//hlt135//nvtxEB.svg
</title>
<desc>
Creator: ROOT Version 5.32/00
CreationDate: Sat Nov 29 19:43:52 2014</desc>
<defs>
</defs>
<rect x="0" y="0" width="567" height="496" fill="white"/>
<rect x="74" y="44" width="453" height="402" fill="white"/>
<rect x="74" y="44" width="453" height="402" fill="none" stroke="black"/>
<rect x="74" y="44" width="453" height="402" fill="white"/>
<rect x="74" y="44" width="453" height="402" fill="none" stroke="black"/>
<path d="M85,446h 4" fill="none" stroke="#ff0099"/>
<path d="M91,446h 5" fill="none" stroke="#ff0099"/>
<g stroke="#ff0099" stroke-width="1" fill="#ff0099">
<circle cx=" 90" cy=" 446" r=" 1.5"/>
</g>
<path d="M96,444h 4" fill="none" stroke="#ff0099"/>
<path d="M102,444h 5" fill="none" stroke="#ff0099"/>
<g stroke="#ff0099" stroke-width="1" fill="#ff0099">
<circle cx=" 101" cy=" 444" r=" 1.5"/>
</g>
<path d="M107,439h 4" fill="none" stroke="#ff0099"/>
<path d="M114,439h 4" fill="none" stroke="#ff0099"/>
<g stroke="#ff0099" stroke-width="1" fill="#ff0099">
<circle cx=" 112" cy=" 439" r=" 1.5"/>
</g>
<path d="M123,427v -1" fill="none" stroke="#ff0099"/>
<path d="M123,424" fill="none" stroke="#ff0099"/>
<path d="M118,425h 4" fill="none" stroke="#ff0099"/>
<path d="M125,425h 4" fill="none" stroke="#ff0099"/>
<g stroke="#ff0099" stroke-width="1" fill="#ff0099">
<circle cx=" 123" cy=" 425" r=" 1.5"/>
</g>
<path d="M135,404v -1" fill="none" stroke="#ff0099"/>
<path d="M135,401v -1" fill="none" stroke="#ff0099"/>
<path d="M129,402h 4" fill="none" stroke="#ff0099"/>
<path d="M136,402h 4" fill="none" stroke="#ff0099"/>
<g stroke="#ff0099" stroke-width="1" fill="#ff0099">
<circle cx=" 135" cy=" 402" r=" 1.5"/>
</g>
<path d="M146,367v -2" fill="none" stroke="#ff0099"/>
<path d="M146,362v -1" fill="none" stroke="#ff0099"/>
<path d="M140,364h 4" fill="none" stroke="#ff0099"/>
<path d="M147,364h 4" fill="none" stroke="#ff0099"/>
<g stroke="#ff0099" stroke-width="1" fill="#ff0099">
<circle cx=" 146" cy=" 364" r=" 1.5"/>
</g>
<path d="M157,317v -3" fill="none" stroke="#ff0099"/>
<path d="M157,312v -3" fill="none" stroke="#ff0099"/>
<path d="M151,313h 5" fill="none" stroke="#ff0099"/>
<path d="M158,313h 4" fill="none" stroke="#ff0099"/>
<g stroke="#ff0099" stroke-width="1" fill="#ff0099">
<circle cx=" 157" cy=" 313" r=" 1.5"/>
</g>
<path d="M168,273v -3" fill="none" stroke="#ff0099"/>
<path d="M168,267v -3" fill="none" stroke="#ff0099"/>
<path d="M162,269h 5" fill="none" stroke="#ff0099"/>
<path d="M169,269h 4" fill="none" stroke="#ff0099"/>
<g stroke="#ff0099" stroke-width="1" fill="#ff0099">
<circle cx=" 168" cy=" 269" r=" 1.5"/>
</g>
<path d="M179,209v -5" fill="none" stroke="#ff0099"/>
<path d="M179,202v -4" fill="none" stroke="#ff0099"/>
<path d="M173,203h 5" fill="none" stroke="#ff0099"/>
<path d="M180,203h 4" fill="none" stroke="#ff0099"/>
<g stroke="#ff0099" stroke-width="1" fill="#ff0099">
<circle cx=" 179" cy=" 203" r=" 1.5"/>
</g>
<path d="M190,171v -5" fill="none" stroke="#ff0099"/>
<path d="M190,164v -5" fill="none" stroke="#ff0099"/>
<path d="M184,165h 5" fill="none" stroke="#ff0099"/>
<path d="M191,165h 4" fill="none" stroke="#ff0099"/>
<g stroke="#ff0099" stroke-width="1" fill="#ff0099">
<circle cx=" 190" cy=" 165" r=" 1.5"/>
</g>
<path d="M201,128v -5" fill="none" stroke="#ff0099"/>
<path d="M201,121v -6" fill="none" stroke="#ff0099"/>
<path d="M195,122h 5" fill="none" stroke="#ff0099"/>
<path d="M202,122h 4" fill="none" stroke="#ff0099"/>
<g stroke="#ff0099" stroke-width="1" fill="#ff0099">
<circle cx=" 201" cy=" 122" r=" 1.5"/>
</g>
<path d="M212,79v -6" fill="none" stroke="#ff0099"/>
<path d="M212,71v -6" fill="none" stroke="#ff0099"/>
<path d="M206,72h 5" fill="none" stroke="#ff0099"/>
<path d="M213,72h 5" fill="none" stroke="#ff0099"/>
<g stroke="#ff0099" stroke-width="1" fill="#ff0099">
<circle cx=" 212" cy=" 72" r=" 1.5"/>
</g>
<path d="M223,77v -5" fill="none" stroke="#ff0099"/>
<path d="M223,69v -6" fill="none" stroke="#ff0099"/>
<path d="M218,70h 4" fill="none" stroke="#ff0099"/>
<path d="M224,70h 5" fill="none" stroke="#ff0099"/>
<g stroke="#ff0099" stroke-width="1" fill="#ff0099">
<circle cx=" 223" cy=" 70" r=" 1.5"/>
</g>
<path d="M234,83v -6" fill="none" stroke="#ff0099"/>
<path d="M234,74v -5" fill="none" stroke="#ff0099"/>
<path d="M229,76h 4" fill="none" stroke="#ff0099"/>
<path d="M235,76h 5" fill="none" stroke="#ff0099"/>
<g stroke="#ff0099" stroke-width="1" fill="#ff0099">
<circle cx=" 234" cy=" 76" r=" 1.5"/>
</g>
<path d="M245,81v -6" fill="none" stroke="#ff0099"/>
<path d="M245,73v -6" fill="none" stroke="#ff0099"/>
<path d="M240,74h 4" fill="none" stroke="#ff0099"/>
<path d="M246,74h 5" fill="none" stroke="#ff0099"/>
<g stroke="#ff0099" stroke-width="1" fill="#ff0099">
<circle cx=" 245" cy=" 74" r=" 1.5"/>
</g>
<path d="M256,103v -6" fill="none" stroke="#ff0099"/>
<path d="M256,95v -6" fill="none" stroke="#ff0099"/>
<path d="M251,96h 4" fill="none" stroke="#ff0099"/>
<path d="M257,96h 5" fill="none" stroke="#ff0099"/>
<g stroke="#ff0099" stroke-width="1" fill="#ff0099">
<circle cx=" 256" cy=" 96" r=" 1.5"/>
</g>
<path d="M267,119v -5" fill="none" stroke="#ff0099"/>
<path d="M267,111v -5" fill="none" stroke="#ff0099"/>
<path d="M262,112h 4" fill="none" stroke="#ff0099"/>
<path d="M268,112h 5" fill="none" stroke="#ff0099"/>
<g stroke="#ff0099" stroke-width="1" fill="#ff0099">
<circle cx=" 267" cy=" 112" r=" 1.5"/>
</g>
<path d="M278,159v -6" fill="none" stroke="#ff0099"/>
<path d="M278,151v -5" fill="none" stroke="#ff0099"/>
<path d="M273,152h 4" fill="none" stroke="#ff0099"/>
<path d="M279,152h 5" fill="none" stroke="#ff0099"/>
<g stroke="#ff0099" stroke-width="1" fill="#ff0099">
<circle cx=" 278" cy=" 152" r=" 1.5"/>
</g>
<path d="M289,181v -5" fill="none" stroke="#ff0099"/>
<path d="M289,174v -5" fill="none" stroke="#ff0099"/>
<path d="M284,175h 4" fill="none" stroke="#ff0099"/>
<path d="M291,175h 4" fill="none" stroke="#ff0099"/>
<g stroke="#ff0099" stroke-width="1" fill="#ff0099">
<circle cx=" 289" cy=" 175" r=" 1.5"/>
</g>
<path d="M300,226v -4" fill="none" stroke="#ff0099"/>
<path d="M300,220v -5" fill="none" stroke="#ff0099"/>
<path d="M295,221h 4" fill="none" stroke="#ff0099"/>
<path d="M302,221h 4" fill="none" stroke="#ff0099"/>
<g stroke="#ff0099" stroke-width="1" fill="#ff0099">
<circle cx=" 300" cy=" 221" r=" 1.5"/>
</g>
<path d="M312,253v -4" fill="none" stroke="#ff0099"/>
<path d="M312,246v -4" fill="none" stroke="#ff0099"/>
<path d="M306,247h 4" fill="none" stroke="#ff0099"/>
<path d="M313,247h 4" fill="none" stroke="#ff0099"/>
<g stroke="#ff0099" stroke-width="1" fill="#ff0099">
<circle cx=" 312" cy=" 247" r=" 1.5"/>
</g>
<path d="M323,288v -4" fill="none" stroke="#ff0099"/>
<path d="M323,282v -4" fill="none" stroke="#ff0099"/>
<path d="M317,283h 4" fill="none" stroke="#ff0099"/>
<path d="M324,283h 4" fill="none" stroke="#ff0099"/>
<g stroke="#ff0099" stroke-width="1" fill="#ff0099">
<circle cx=" 323" cy=" 283" r=" 1.5"/>
</g>
<path d="M334,313v -3" fill="none" stroke="#ff0099"/>
<path d="M334,308v -4" fill="none" stroke="#ff0099"/>
<path d="M328,309h 5" fill="none" stroke="#ff0099"/>
<path d="M335,309h 4" fill="none" stroke="#ff0099"/>
<g stroke="#ff0099" stroke-width="1" fill="#ff0099">
<circle cx=" 334" cy=" 309" r=" 1.5"/>
</g>
<path d="M345,341v -3" fill="none" stroke="#ff0099"/>
<path d="M345,336v -3" fill="none" stroke="#ff0099"/>
<path d="M339,337h 5" fill="none" stroke="#ff0099"/>
<path d="M346,337h 4" fill="none" stroke="#ff0099"/>
<g stroke="#ff0099" stroke-width="1" fill="#ff0099">
<circle cx=" 345" cy=" 337" r=" 1.5"/>
</g>
<path d="M356,366v -2" fill="none" stroke="#ff0099"/>
<path d="M356,362v -2" fill="none" stroke="#ff0099"/>
<path d="M350,363h 5" fill="none" stroke="#ff0099"/>
<path d="M357,363h 4" fill="none" stroke="#ff0099"/>
<g stroke="#ff0099" stroke-width="1" fill="#ff0099">
<circle cx=" 356" cy=" 363" r=" 1.5"/>
</g>
<path d="M367,388v -2" fill="none" stroke="#ff0099"/>
<path d="M367,384v -2" fill="none" stroke="#ff0099"/>
<path d="M361,385h 5" fill="none" stroke="#ff0099"/>
<path d="M368,385h 4" fill="none" stroke="#ff0099"/>
<g stroke="#ff0099" stroke-width="1" fill="#ff0099">
<circle cx=" 367" cy=" 385" r=" 1.5"/>
</g>
<path d="M378,407v -1" fill="none" stroke="#ff0099"/>
<path d="M378,404v -1" fill="none" stroke="#ff0099"/>
<path d="M372,405h 5" fill="none" stroke="#ff0099"/>
<path d="M379,405h 4" fill="none" stroke="#ff0099"/>
<g stroke="#ff0099" stroke-width="1" fill="#ff0099">
<circle cx=" 378" cy=" 405" r=" 1.5"/>
</g>
<path d="M389,418" fill="none" stroke="#ff0099"/>
<path d="M389,415" fill="none" stroke="#ff0099"/>
<path d="M383,416h 5" fill="none" stroke="#ff0099"/>
<path d="M390,416h 4" fill="none" stroke="#ff0099"/>
<g stroke="#ff0099" stroke-width="1" fill="#ff0099">
<circle cx=" 389" cy=" 416" r=" 1.5"/>
</g>
<path d="M400,424v -1" fill="none" stroke="#ff0099"/>
<path d="M400,421" fill="none" stroke="#ff0099"/>
<path d="M394,422h 5" fill="none" stroke="#ff0099"/>
<path d="M401,422h 5" fill="none" stroke="#ff0099"/>
<g stroke="#ff0099" stroke-width="1" fill="#ff0099">
<circle cx=" 400" cy=" 422" r=" 1.5"/>
</g>
<path d="M411,431v -1" fill="none" stroke="#ff0099"/>
<path d="M411,428v -1" fill="none" stroke="#ff0099"/>
<path d="M406,429h 4" fill="none" stroke="#ff0099"/>
<path d="M412,429h 5" fill="none" stroke="#ff0099"/>
<g stroke="#ff0099" stroke-width="1" fill="#ff0099">
<circle cx=" 411" cy=" 429" r=" 1.5"/>
</g>
<path d="M417,436h 4" fill="none" stroke="#ff0099"/>
<path d="M423,436h 5" fill="none" stroke="#ff0099"/>
<g stroke="#ff0099" stroke-width="1" fill="#ff0099">
<circle cx=" 422" cy=" 436" r=" 1.5"/>
</g>
<path d="M428,441h 4" fill="none" stroke="#ff0099"/>
<path d="M434,441h 5" fill="none" stroke="#ff0099"/>
<g stroke="#ff0099" stroke-width="1" fill="#ff0099">
<circle cx=" 433" cy=" 441" r=" 1.5"/>
</g>
<path d="M439,443h 4" fill="none" stroke="#ff0099"/>
<path d="M445,443h 5" fill="none" stroke="#ff0099"/>
<g stroke="#ff0099" stroke-width="1" fill="#ff0099">
<circle cx=" 444" cy=" 443" r=" 1.5"/>
</g>
<path d="M450,443h 4" fill="none" stroke="#ff0099"/>
<path d="M456,443h 5" fill="none" stroke="#ff0099"/>
<g stroke="#ff0099" stroke-width="1" fill="#ff0099">
<circle cx=" 455" cy=" 443" r=" 1.5"/>
</g>
<path d="M461,444h 4" fill="none" stroke="#ff0099"/>
<path d="M468,444h 4" fill="none" stroke="#ff0099"/>
<g stroke="#ff0099" stroke-width="1" fill="#ff0099">
<circle cx=" 466" cy=" 444" r=" 1.5"/>
</g>
<path d="M472,445h 4" fill="none" stroke="#ff0099"/>
<path d="M479,445h 4" fill="none" stroke="#ff0099"/>
<g stroke="#ff0099" stroke-width="1" fill="#ff0099">
<circle cx=" 477" cy=" 445" r=" 1.5"/>
</g>
<path d="M483,446h 4" fill="none" stroke="#ff0099"/>
<path d="M490,446h 4" fill="none" stroke="#ff0099"/>
<g stroke="#ff0099" stroke-width="1" fill="#ff0099">
<circle cx=" 489" cy=" 446" r=" 1.5"/>
</g>
<path d="M494,445h 4" fill="none" stroke="#ff0099"/>
<path d="M501,445h 4" fill="none" stroke="#ff0099"/>
<g stroke="#ff0099" stroke-width="1" fill="#ff0099">
<circle cx=" 500" cy=" 445" r=" 1.5"/>
</g>
<path d="M505,446h 5" fill="none" stroke="#ff0099"/>
<path d="M512,446h 4" fill="none" stroke="#ff0099"/>
<g stroke="#ff0099" stroke-width="1" fill="#ff0099">
<circle cx=" 511" cy=" 446" r=" 1.5"/>
</g>
<path d="M516,446h 5" fill="none" stroke="#ff0099"/>
<path d="M523,446h 4" fill="none" stroke="#ff0099"/>
<g stroke="#ff0099" stroke-width="1" fill="#ff0099">
<circle cx=" 522" cy=" 446" r=" 1.5"/>
</g>
<path d="M74,446h 453" fill="none" stroke="black"/>
<path d="M79,434v 12" fill="none" stroke="black"/>
<path d="M90,440v 6" fill="none" stroke="black"/>
<path d="M101,440v 6" fill="none" stroke="black"/>
<path d="M112,440v 6" fill="none" stroke="black"/>
<path d="M123,440v 6" fill="none" stroke="black"/>
<path d="M135,434v 12" fill="none" stroke="black"/>
<path d="M146,440v 6" fill="none" stroke="black"/>
<path d="M157,440v 6" fill="none" stroke="black"/>
<path d="M168,440v 6" fill="none" stroke="black"/>
<path d="M179,440v 6" fill="none" stroke="black"/>
<path d="M190,434v 12" fill="none" stroke="black"/>
<path d="M201,440v 6" fill="none" stroke="black"/>
<path d="M212,440v 6" fill="none" stroke="black"/>
<path d="M223,440v 6" fill="none" stroke="black"/>
<path d="M234,440v 6" fill="none" stroke="black"/>
<path d="M245,434v 12" fill="none" stroke="black"/>
<path d="M256,440v 6" fill="none" stroke="black"/>
<path d="M267,440v 6" fill="none" stroke="black"/>
<path d="M278,440v 6" fill="none" stroke="black"/>
<path d="M289,440v 6" fill="none" stroke="black"/>
<path d="M300,434v 12" fill="none" stroke="black"/>
<path d="M312,440v 6" fill="none" stroke="black"/>
<path d="M323,440v 6" fill="none" stroke="black"/>
<path d="M334,440v 6" fill="none" stroke="black"/>
<path d="M345,440v 6" fill="none" stroke="black"/>
<path d="M356,434v 12" fill="none" stroke="black"/>
<path d="M367,440v 6" fill="none" stroke="black"/>
<path d="M378,440v 6" fill="none" stroke="black"/>
<path d="M389,440v 6" fill="none" stroke="black"/>
<path d="M400,440v 6" fill="none" stroke="black"/>
<path d="M411,434v 12" fill="none" stroke="black"/>
<path d="M422,440v 6" fill="none" stroke="black"/>
<path d="M433,440v 6" fill="none" stroke="black"/>
<path d="M444,440v 6" fill="none" stroke="black"/>
<path d="M455,440v 6" fill="none" stroke="black"/>
<path d="M466,434v 12" fill="none" stroke="black"/>
<path d="M477,440v 6" fill="none" stroke="black"/>
<path d="M489,440v 6" fill="none" stroke="black"/>
<path d="M500,440v 6" fill="none" stroke="black"/>
<path d="M511,440v 6" fill="none" stroke="black"/>
<path d="M522,434v 12" fill="none" stroke="black"/>
<path d="M79,434v 12" fill="none" stroke="black"/>
<path d="M522,434v 12" fill="none" stroke="black"/>
<text x="74" y="465" fill="black" font-size="18" font-family="Helvetica" font-weight="bold">
0
</text>
<text x="129" y="465" fill="black" font-size="18" font-family="Helvetica" font-weight="bold">
5
</text>
<text x="179" y="465" fill="black" font-size="18" font-family="Helvetica" font-weight="bold">
10
</text>
<text x="235" y="465" fill="black" font-size="18" font-family="Helvetica" font-weight="bold">
15
</text>
<text x="290" y="465" fill="black" font-size="18" font-family="Helvetica" font-weight="bold">
20
</text>
<text x="346" y="465" fill="black" font-size="18" font-family="Helvetica" font-weight="bold">
25
</text>
<text x="401" y="465" fill="black" font-size="18" font-family="Helvetica" font-weight="bold">
30
</text>
<text x="456" y="465" fill="black" font-size="18" font-family="Helvetica" font-weight="bold">
35
</text>
<text x="511" y="465" fill="black" font-size="18" font-family="Helvetica" font-weight="bold">
40
</text>
<path d="M74,44h 453" fill="none" stroke="black"/>
<path d="M79,56v -12" fill="none" stroke="black"/>
<path d="M90,50v -6" fill="none" stroke="black"/>
<path d="M101,50v -6" fill="none" stroke="black"/>
<path d="M112,50v -6" fill="none" stroke="black"/>
<path d="M123,50v -6" fill="none" stroke="black"/>
<path d="M135,56v -12" fill="none" stroke="black"/>
<path d="M146,50v -6" fill="none" stroke="black"/>
<path d="M157,50v -6" fill="none" stroke="black"/>
<path d="M168,50v -6" fill="none" stroke="black"/>
<path d="M179,50v -6" fill="none" stroke="black"/>
<path d="M190,56v -12" fill="none" stroke="black"/>
<path d="M201,50v -6" fill="none" stroke="black"/>
<path d="M212,50v -6" fill="none" stroke="black"/>
<path d="M223,50v -6" fill="none" stroke="black"/>
<path d="M234,50v -6" fill="none" stroke="black"/>
<path d="M245,56v -12" fill="none" stroke="black"/>
<path d="M256,50v -6" fill="none" stroke="black"/>
<path d="M267,50v -6" fill="none" stroke="black"/>
<path d="M278,50v -6" fill="none" stroke="black"/>
<path d="M289,50v -6" fill="none" stroke="black"/>
<path d="M300,56v -12" fill="none" stroke="black"/>
<path d="M312,50v -6" fill="none" stroke="black"/>
<path d="M323,50v -6" fill="none" stroke="black"/>
<path d="M334,50v -6" fill="none" stroke="black"/>
<path d="M345,50v -6" fill="none" stroke="black"/>
<path d="M356,56v -12" fill="none" stroke="black"/>
<path d="M367,50v -6" fill="none" stroke="black"/>
<path d="M378,50v -6" fill="none" stroke="black"/>
<path d="M389,50v -6" fill="none" stroke="black"/>
<path d="M400,50v -6" fill="none" stroke="black"/>
<path d="M411,56v -12" fill="none" stroke="black"/>
<path d="M422,50v -6" fill="none" stroke="black"/>
<path d="M433,50v -6" fill="none" stroke="black"/>
<path d="M444,50v -6" fill="none" stroke="black"/>
<path d="M455,50v -6" fill="none" stroke="black"/>
<path d="M466,56v -12" fill="none" stroke="black"/>
<path d="M477,50v -6" fill="none" stroke="black"/>
<path d="M489,50v -6" fill="none" stroke="black"/>
<path d="M500,50v -6" fill="none" stroke="black"/>
<path d="M511,50v -6" fill="none" stroke="black"/>
<path d="M522,56v -12" fill="none" stroke="black"/>
<path d="M79,56v -12" fill="none" stroke="black"/>
<path d="M522,56v -12" fill="none" stroke="black"/>
<path d="M74,446v -402" fill="none" stroke="black"/>
<path d="M87,446h -13" fill="none" stroke="black"/>
<path d="M81,436h -7" fill="none" stroke="black"/>
<path d="M81,426h -7" fill="none" stroke="black"/>
<path d="M81,415h -7" fill="none" stroke="black"/>
<path d="M81,405h -7" fill="none" stroke="black"/>
<path d="M87,395h -13" fill="none" stroke="black"/>
<path d="M81,384h -7" fill="none" stroke="black"/>
<path d="M81,374h -7" fill="none" stroke="black"/>
<path d="M81,363h -7" fill="none" stroke="black"/>
<path d="M81,353h -7" fill="none" stroke="black"/>
<path d="M87,343h -13" fill="none" stroke="black"/>
<path d="M81,332h -7" fill="none" stroke="black"/>
<path d="M81,322h -7" fill="none" stroke="black"/>
<path d="M81,312h -7" fill="none" stroke="black"/>
<path d="M81,301h -7" fill="none" stroke="black"/>
<path d="M87,291h -13" fill="none" stroke="black"/>
<path d="M81,281h -7" fill="none" stroke="black"/>
<path d="M81,270h -7" fill="none" stroke="black"/>
<path d="M81,260h -7" fill="none" stroke="black"/>
<path d="M81,249h -7" fill="none" stroke="black"/>
<path d="M87,239h -13" fill="none" stroke="black"/>
<path d="M81,229h -7" fill="none" stroke="black"/>
<path d="M81,218h -7" fill="none" stroke="black"/>
<path d="M81,208h -7" fill="none" stroke="black"/>
<path d="M81,198h -7" fill="none" stroke="black"/>
<path d="M87,187h -13" fill="none" stroke="black"/>
<path d="M81,177h -7" fill="none" stroke="black"/>
<path d="M81,167h -7" fill="none" stroke="black"/>
<path d="M81,156h -7" fill="none" stroke="black"/>
<path d="M81,146h -7" fill="none" stroke="black"/>
<path d="M87,135h -13" fill="none" stroke="black"/>
<path d="M81,125h -7" fill="none" stroke="black"/>
<path d="M81,115h -7" fill="none" stroke="black"/>
<path d="M81,104h -7" fill="none" stroke="black"/>
<path d="M81,94h -7" fill="none" stroke="black"/>
<path d="M87,84h -13" fill="none" stroke="black"/>
<path d="M87,84h -13" fill="none" stroke="black"/>
<path d="M81,73h -7" fill="none" stroke="black"/>
<path d="M81,63h -7" fill="none" stroke="black"/>
<path d="M81,53h -7" fill="none" stroke="black"/>
<text x="61" y="453" fill="black" font-size="18" font-family="Helvetica" font-weight="bold">
0
</text>
<text x="37" y="401" fill="black" font-size="18" font-family="Helvetica" font-weight="bold">
0.01
</text>
<text x="35" y="349" fill="black" font-size="18" font-family="Helvetica" font-weight="bold">
0.02
</text>
<text x="35" y="297" fill="black" font-size="18" font-family="Helvetica" font-weight="bold">
0.03
</text>
<text x="34" y="246" fill="black" font-size="18" font-family="Helvetica" font-weight="bold">
0.04
</text>
<text x="34" y="194" fill="black" font-size="18" font-family="Helvetica" font-weight="bold">
0.05
</text>
<text x="34" y="142" fill="black" font-size="18" font-family="Helvetica" font-weight="bold">
0.06
</text>
<text x="35" y="90" fill="black" font-size="18" font-family="Helvetica" font-weight="bold">
0.07
</text>
<path d="M90,446" fill="none" stroke="#99ff99" stroke-width="2"/>
<path d="M90,446" fill="none" stroke="#99ff99" stroke-width="2"/>
<g stroke="black" stroke-width="2" fill="none">
<line x1="89" y1="446" x2="90" y2="446"/>
</g>
<path d="M101,444" fill="none" stroke="#99ff99" stroke-width="2"/>
<path d="M101,444v -1" fill="none" stroke="#99ff99" stroke-width="2"/>
<g stroke="black" stroke-width="2" fill="none">
<line x1="100" y1="444" x2="101" y2="444"/>
</g>
<path d="M112,440v -1" fill="none" stroke="#99ff99" stroke-width="2"/>
<path d="M112,439" fill="none" stroke="#99ff99" stroke-width="2"/>
<g stroke="black" stroke-width="2" fill="none">
<line x1="111" y1="439" x2="112" y2="439"/>
</g>
<path d="M123,426v -1" fill="none" stroke="#99ff99" stroke-width="2"/>
<path d="M123,425v -1" fill="none" stroke="#99ff99" stroke-width="2"/>
<g stroke="black" stroke-width="2" fill="none">
<line x1="122" y1="425" x2="123" y2="425"/>
</g>
<path d="M135,406v -5" fill="none" stroke="#99ff99" stroke-width="2"/>
<path d="M135,401v -4" fill="none" stroke="#99ff99" stroke-width="2"/>
<g stroke="black" stroke-width="2" fill="none">
<line x1="134" y1="401" x2="135" y2="401"/>
</g>
<path d="M146,377v -2" fill="none" stroke="#99ff99" stroke-width="2"/>
<path d="M146,375v -2" fill="none" stroke="#99ff99" stroke-width="2"/>
<g stroke="black" stroke-width="2" fill="none">
<line x1="145" y1="375" x2="146" y2="375"/>
</g>
<path d="M157,331v -2" fill="none" stroke="#99ff99" stroke-width="2"/>
<path d="M157,329v -3" fill="none" stroke="#99ff99" stroke-width="2"/>
<g stroke="black" stroke-width="2" fill="none">
<line x1="156" y1="329" x2="157" y2="329"/>
</g>
<path d="M168,276v -10" fill="none" stroke="#99ff99" stroke-width="2"/>
<path d="M168,266v -10" fill="none" stroke="#99ff99" stroke-width="2"/>
<g stroke="black" stroke-width="2" fill="none">
<line x1="167" y1="266" x2="168" y2="266"/>
</g>
<path d="M179,231v -7" fill="none" stroke="#99ff99" stroke-width="2"/>
<path d="M179,224v -7" fill="none" stroke="#99ff99" stroke-width="2"/>
<g stroke="black" stroke-width="2" fill="none">
<line x1="178" y1="224" x2="179" y2="224"/>
</g>
<path d="M190,188v -5" fill="none" stroke="#99ff99" stroke-width="2"/>
<path d="M190,183v -6" fill="none" stroke="#99ff99" stroke-width="2"/>
<g stroke="black" stroke-width="2" fill="none">
<line x1="189" y1="183" x2="190" y2="183"/>
</g>
<path d="M201,150v -7" fill="none" stroke="#99ff99" stroke-width="2"/>
<path d="M201,143v -8" fill="none" stroke="#99ff99" stroke-width="2"/>
<g stroke="black" stroke-width="2" fill="none">
<line x1="200" y1="143" x2="201" y2="143"/>
</g>
<path d="M212,121v -10" fill="none" stroke="#99ff99" stroke-width="2"/>
<path d="M212,111v -9" fill="none" stroke="#99ff99" stroke-width="2"/>
<g stroke="black" stroke-width="2" fill="none">
<line x1="211" y1="111" x2="212" y2="111"/>
</g>
<path d="M223,95v -8" fill="none" stroke="#99ff99" stroke-width="2"/>
<path d="M223,87v -7" fill="none" stroke="#99ff99" stroke-width="2"/>
<g stroke="black" stroke-width="2" fill="none">
<line x1="222" y1="87" x2="223" y2="87"/>
</g>
<path d="M234,84v -8" fill="none" stroke="#99ff99" stroke-width="2"/>
<path d="M234,76v -9" fill="none" stroke="#99ff99" stroke-width="2"/>
<g stroke="black" stroke-width="2" fill="none">
<line x1="233" y1="76" x2="234" y2="76"/>
</g>
<path d="M245,104v -5" fill="none" stroke="#99ff99" stroke-width="2"/>
<path d="M245,99v -6" fill="none" stroke="#99ff99" stroke-width="2"/>
<g stroke="black" stroke-width="2" fill="none">
<line x1="244" y1="99" x2="245" y2="99"/>
</g>
<path d="M256,94v -10" fill="none" stroke="#99ff99" stroke-width="2"/>
<path d="M256,84v -11" fill="none" stroke="#99ff99" stroke-width="2"/>
<g stroke="black" stroke-width="2" fill="none">
<line x1="255" y1="84" x2="256" y2="84"/>
</g>
<path d="M267,120v -9" fill="none" stroke="#99ff99" stroke-width="2"/>
<path d="M267,111v -9" fill="none" stroke="#99ff99" stroke-width="2"/>
<g stroke="black" stroke-width="2" fill="none">
<line x1="266" y1="111" x2="267" y2="111"/>
</g>
<path d="M278,150v -7" fill="none" stroke="#99ff99" stroke-width="2"/>
<path d="M278,143v -8" fill="none" stroke="#99ff99" stroke-width="2"/>
<g stroke="black" stroke-width="2" fill="none">
<line x1="277" y1="143" x2="278" y2="143"/>
</g>
<path d="M289,165v -9" fill="none" stroke="#99ff99" stroke-width="2"/>
<path d="M289,156v -9" fill="none" stroke="#99ff99" stroke-width="2"/>
<g stroke="black" stroke-width="2" fill="none">
<line x1="288" y1="156" x2="289" y2="156"/>
</g>
<path d="M300,201v -9" fill="none" stroke="#99ff99" stroke-width="2"/>
<path d="M300,192v -10" fill="none" stroke="#99ff99" stroke-width="2"/>
<g stroke="black" stroke-width="2" fill="none">
<line x1="299" y1="192" x2="300" y2="192"/>
</g>
<path d="M312,243v -7" fill="none" stroke="#99ff99" stroke-width="2"/>
<path d="M312,236v -7" fill="none" stroke="#99ff99" stroke-width="2"/>
<g stroke="black" stroke-width="2" fill="none">
<line x1="311" y1="236" x2="312" y2="236"/>
</g>
<path d="M323,284v -2" fill="none" stroke="#99ff99" stroke-width="2"/>
<path d="M323,282v -3" fill="none" stroke="#99ff99" stroke-width="2"/>
<g stroke="black" stroke-width="2" fill="none">
<line x1="322" y1="282" x2="323" y2="282"/>
</g>
<path d="M334,307v -6" fill="none" stroke="#99ff99" stroke-width="2"/>
<path d="M334,301v -5" fill="none" stroke="#99ff99" stroke-width="2"/>
<g stroke="black" stroke-width="2" fill="none">
<line x1="333" y1="301" x2="334" y2="301"/>
</g>
<path d="M345,330v -5" fill="none" stroke="#99ff99" stroke-width="2"/>
<path d="M345,325v -5" fill="none" stroke="#99ff99" stroke-width="2"/>
<g stroke="black" stroke-width="2" fill="none">
<line x1="344" y1="325" x2="345" y2="325"/>
</g>
<path d="M356,359v -4" fill="none" stroke="#99ff99" stroke-width="2"/>
<path d="M356,355v -3" fill="none" stroke="#99ff99" stroke-width="2"/>
<g stroke="black" stroke-width="2" fill="none">
<line x1="355" y1="355" x2="356" y2="355"/>
</g>
<path d="M367,379v -3" fill="none" stroke="#99ff99" stroke-width="2"/>
<path d="M367,376v -4" fill="none" stroke="#99ff99" stroke-width="2"/>
<g stroke="black" stroke-width="2" fill="none">
<line x1="366" y1="376" x2="367" y2="376"/>
</g>
<path d="M378,392v -3" fill="none" stroke="#99ff99" stroke-width="2"/>
<path d="M378,389v -4" fill="none" stroke="#99ff99" stroke-width="2"/>
<g stroke="black" stroke-width="2" fill="none">
<line x1="377" y1="389" x2="378" y2="389"/>
</g>
<path d="M389,411v -1" fill="none" stroke="#99ff99" stroke-width="2"/>
<path d="M389,410v -1" fill="none" stroke="#99ff99" stroke-width="2"/>
<g stroke="black" stroke-width="2" fill="none">
<line x1="388" y1="410" x2="389" y2="410"/>
</g>
<path d="M400,421" fill="none" stroke="#99ff99" stroke-width="2"/>
<path d="M400,421v -1" fill="none" stroke="#99ff99" stroke-width="2"/>
<g stroke="black" stroke-width="2" fill="none">
<line x1="399" y1="421" x2="400" y2="421"/>
</g>
<path d="M411,428v -2" fill="none" stroke="#99ff99" stroke-width="2"/>
<path d="M411,426v -2" fill="none" stroke="#99ff99" stroke-width="2"/>
<g stroke="black" stroke-width="2" fill="none">
<line x1="410" y1="426" x2="411" y2="426"/>
</g>
<path d="M422,433v -2" fill="none" stroke="#99ff99" stroke-width="2"/>
<path d="M422,431v -2" fill="none" stroke="#99ff99" stroke-width="2"/>
<g stroke="black" stroke-width="2" fill="none">
<line x1="421" y1="431" x2="422" y2="431"/>
</g>
<path d="M433,437" fill="none" stroke="#99ff99" stroke-width="2"/>
<path d="M433,437v -1" fill="none" stroke="#99ff99" stroke-width="2"/>
<g stroke="black" stroke-width="2" fill="none">
<line x1="432" y1="437" x2="433" y2="437"/>
</g>
<path d="M444,441v -1" fill="none" stroke="#99ff99" stroke-width="2"/>
<path d="M444,440" fill="none" stroke="#99ff99" stroke-width="2"/>
<g stroke="black" stroke-width="2" fill="none">
<line x1="443" y1="440" x2="444" y2="440"/>
</g>
<path d="M455,443" fill="none" stroke="#99ff99" stroke-width="2"/>
<path d="M455,443v -1" fill="none" stroke="#99ff99" stroke-width="2"/>
<g stroke="black" stroke-width="2" fill="none">
<line x1="454" y1="443" x2="455" y2="443"/>
</g>
<path d="M466,444" fill="none" stroke="#99ff99" stroke-width="2"/>
<path d="M466,444" fill="none" stroke="#99ff99" stroke-width="2"/>
<g stroke="black" stroke-width="2" fill="none">
<line x1="465" y1="444" x2="466" y2="444"/>
</g>
<path d="M477,444" fill="none" stroke="#99ff99" stroke-width="2"/>
<path d="M477,444" fill="none" stroke="#99ff99" stroke-width="2"/>
<g stroke="black" stroke-width="2" fill="none">
<line x1="476" y1="444" x2="477" y2="444"/>
</g>
<path d="M489,445v -1" fill="none" stroke="#99ff99" stroke-width="2"/>
<path d="M489,444v -1" fill="none" stroke="#99ff99" stroke-width="2"/>
<g stroke="black" stroke-width="2" fill="none">
<line x1="488" y1="444" x2="489" y2="444"/>
</g>
<path d="M500,446" fill="none" stroke="#99ff99" stroke-width="2"/>
<path d="M500,446v -1" fill="none" stroke="#99ff99" stroke-width="2"/>
<g stroke="black" stroke-width="2" fill="none">
<line x1="499" y1="446" x2="500" y2="446"/>
</g>
<path d="M511,446" fill="none" stroke="#99ff99" stroke-width="2"/>
<path d="M511,446" fill="none" stroke="#99ff99" stroke-width="2"/>
<g stroke="black" stroke-width="2" fill="none">
<line x1="510" y1="446" x2="511" y2="446"/>
</g>
<path d="M522,446" fill="none" stroke="#99ff99" stroke-width="2"/>
<path d="M522,446" fill="none" stroke="#99ff99" stroke-width="2"/>
<g stroke="black" stroke-width="2" fill="none">
<line x1="521" y1="446" x2="522" y2="446"/>
</g>
<path d="M74,446h 22v -2h 11v -5h 11v -14h 11v -24h 11v -26h 11v -46h 11v -63h 11v -42h 11v -41h 11v -40h 11v -32h 12v -24h 11v -11h 11v 23h 11v -15h 11v 27h 11v 32h 11v 13h 11v 36h 11v 44h 11v 46h 11v 19h 11v 24h 11v 30h 11v 21h 11v 13h 11v 21h 11v
 11h 12v 5h 11v 5h 11v 6h 11v 3h 11v 3h 11v 1h 33v 2h 33z" fill="#99ff99"/>
<path d="M74,446h 22v -2h 11v -5h 11v -14h 11v -24h 11v -26h 11v -46h 11v -63h 11v -42h 11v -41h 11v -40h 11v -32h 12v -24h 11v -11h 11v 23h 11v -15h 11v 27h 11v 32h 11v 13h 11v 36h 11v 44h 11v 46h 11v 19h 11v 24h 11v 30h 11v 21h 11v 13h 11v 21h 11v
 11h 12v 5h 11v 5h 11v 6h 11v 3h 11v 3h 11v 1h 33v 2h 33" fill="none" stroke="#99ff99" stroke-width="2"/>
<path d="M85,446h 4" fill="none" stroke="#ff0099"/>
<path d="M91,446h 5" fill="none" stroke="#ff0099"/>
<g stroke="#ff0099" stroke-width="1" fill="#ff0099">
<circle cx=" 90" cy=" 446" r=" 1.5"/>
</g>
<path d="M96,444h 4" fill="none" stroke="#ff0099"/>
<path d="M102,444h 5" fill="none" stroke="#ff0099"/>
<g stroke="#ff0099" stroke-width="1" fill="#ff0099">
<circle cx=" 101" cy=" 444" r=" 1.5"/>
</g>
<path d="M107,439h 4" fill="none" stroke="#ff0099"/>
<path d="M114,439h 4" fill="none" stroke="#ff0099"/>
<g stroke="#ff0099" stroke-width="1" fill="#ff0099">
<circle cx=" 112" cy=" 439" r=" 1.5"/>
</g>
<path d="M123,427v -1" fill="none" stroke="#ff0099"/>
<path d="M123,424" fill="none" stroke="#ff0099"/>
<path d="M118,425h 4" fill="none" stroke="#ff0099"/>
<path d="M125,425h 4" fill="none" stroke="#ff0099"/>
<g stroke="#ff0099" stroke-width="1" fill="#ff0099">
<circle cx=" 123" cy=" 425" r=" 1.5"/>
</g>
<path d="M135,404v -1" fill="none" stroke="#ff0099"/>
<path d="M135,401v -1" fill="none" stroke="#ff0099"/>
<path d="M129,402h 4" fill="none" stroke="#ff0099"/>
<path d="M136,402h 4" fill="none" stroke="#ff0099"/>
<g stroke="#ff0099" stroke-width="1" fill="#ff0099">
<circle cx=" 135" cy=" 402" r=" 1.5"/>
</g>
<path d="M146,367v -2" fill="none" stroke="#ff0099"/>
<path d="M146,362v -1" fill="none" stroke="#ff0099"/>
<path d="M140,364h 4" fill="none" stroke="#ff0099"/>
<path d="M147,364h 4" fill="none" stroke="#ff0099"/>
<g stroke="#ff0099" stroke-width="1" fill="#ff0099">
<circle cx=" 146" cy=" 364" r=" 1.5"/>
</g>
<path d="M157,317v -3" fill="none" stroke="#ff0099"/>
<path d="M157,312v -3" fill="none" stroke="#ff0099"/>
<path d="M151,313h 5" fill="none" stroke="#ff0099"/>
<path d="M158,313h 4" fill="none" stroke="#ff0099"/>
<g stroke="#ff0099" stroke-width="1" fill="#ff0099">
<circle cx=" 157" cy=" 313" r=" 1.5"/>
</g>
<path d="M168,273v -3" fill="none" stroke="#ff0099"/>
<path d="M168,267v -3" fill="none" stroke="#ff0099"/>
<path d="M162,269h 5" fill="none" stroke="#ff0099"/>
<path d="M169,269h 4" fill="none" stroke="#ff0099"/>
<g stroke="#ff0099" stroke-width="1" fill="#ff0099">
<circle cx=" 168" cy=" 269" r=" 1.5"/>
</g>
<path d="M179,209v -5" fill="none" stroke="#ff0099"/>
<path d="M179,202v -4" fill="none" stroke="#ff0099"/>
<path d="M173,203h 5" fill="none" stroke="#ff0099"/>
<path d="M180,203h 4" fill="none" stroke="#ff0099"/>
<g stroke="#ff0099" stroke-width="1" fill="#ff0099">
<circle cx=" 179" cy=" 203" r=" 1.5"/>
</g>
<path d="M190,171v -5" fill="none" stroke="#ff0099"/>
<path d="M190,164v -5" fill="none" stroke="#ff0099"/>
<path d="M184,165h 5" fill="none" stroke="#ff0099"/>
<path d="M191,165h 4" fill="none" stroke="#ff0099"/>
<g stroke="#ff0099" stroke-width="1" fill="#ff0099">
<circle cx=" 190" cy=" 165" r=" 1.5"/>
</g>
<path d="M201,128v -5" fill="none" stroke="#ff0099"/>
<path d="M201,121v -6" fill="none" stroke="#ff0099"/>
<path d="M195,122h 5" fill="none" stroke="#ff0099"/>
<path d="M202,122h 4" fill="none" stroke="#ff0099"/>
<g stroke="#ff0099" stroke-width="1" fill="#ff0099">
<circle cx=" 201" cy=" 122" r=" 1.5"/>
</g>
<path d="M212,79v -6" fill="none" stroke="#ff0099"/>
<path d="M212,71v -6" fill="none" stroke="#ff0099"/>
<path d="M206,72h 5" fill="none" stroke="#ff0099"/>
<path d="M213,72h 5" fill="none" stroke="#ff0099"/>
<g stroke="#ff0099" stroke-width="1" fill="#ff0099">
<circle cx=" 212" cy=" 72" r=" 1.5"/>
</g>
<path d="M223,77v -5" fill="none" stroke="#ff0099"/>
<path d="M223,69v -6" fill="none" stroke="#ff0099"/>
<path d="M218,70h 4" fill="none" stroke="#ff0099"/>
<path d="M224,70h 5" fill="none" stroke="#ff0099"/>
<g stroke="#ff0099" stroke-width="1" fill="#ff0099">
<circle cx=" 223" cy=" 70" r=" 1.5"/>
</g>
<path d="M234,83v -6" fill="none" stroke="#ff0099"/>
<path d="M234,74v -5" fill="none" stroke="#ff0099"/>
<path d="M229,76h 4" fill="none" stroke="#ff0099"/>
<path d="M235,76h 5" fill="none" stroke="#ff0099"/>
<g stroke="#ff0099" stroke-width="1" fill="#ff0099">
<circle cx=" 234" cy=" 76" r=" 1.5"/>
</g>
<path d="M245,81v -6" fill="none" stroke="#ff0099"/>
<path d="M245,73v -6" fill="none" stroke="#ff0099"/>
<path d="M240,74h 4" fill="none" stroke="#ff0099"/>
<path d="M246,74h 5" fill="none" stroke="#ff0099"/>
<g stroke="#ff0099" stroke-width="1" fill="#ff0099">
<circle cx=" 245" cy=" 74" r=" 1.5"/>
</g>
<path d="M256,103v -6" fill="none" stroke="#ff0099"/>
<path d="M256,95v -6" fill="none" stroke="#ff0099"/>
<path d="M251,96h 4" fill="none" stroke="#ff0099"/>
<path d="M257,96h 5" fill="none" stroke="#ff0099"/>
<g stroke="#ff0099" stroke-width="1" fill="#ff0099">
<circle cx=" 256" cy=" 96" r=" 1.5"/>
</g>
<path d="M267,119v -5" fill="none" stroke="#ff0099"/>
<path d="M267,111v -5" fill="none" stroke="#ff0099"/>
<path d="M262,112h 4" fill="none" stroke="#ff0099"/>
<path d="M268,112h 5" fill="none" stroke="#ff0099"/>
<g stroke="#ff0099" stroke-width="1" fill="#ff0099">
<circle cx=" 267" cy=" 112" r=" 1.5"/>
</g>
<path d="M278,159v -6" fill="none" stroke="#ff0099"/>
<path d="M278,151v -5" fill="none" stroke="#ff0099"/>
<path d="M273,152h 4" fill="none" stroke="#ff0099"/>
<path d="M279,152h 5" fill="none" stroke="#ff0099"/>
<g stroke="#ff0099" stroke-width="1" fill="#ff0099">
<circle cx=" 278" cy=" 152" r=" 1.5"/>
</g>
<path d="M289,181v -5" fill="none" stroke="#ff0099"/>
<path d="M289,174v -5" fill="none" stroke="#ff0099"/>
<path d="M284,175h 4" fill="none" stroke="#ff0099"/>
<path d="M291,175h 4" fill="none" stroke="#ff0099"/>
<g stroke="#ff0099" stroke-width="1" fill="#ff0099">
<circle cx=" 289" cy=" 175" r=" 1.5"/>
</g>
<path d="M300,226v -4" fill="none" stroke="#ff0099"/>
<path d="M300,220v -5" fill="none" stroke="#ff0099"/>
<path d="M295,221h 4" fill="none" stroke="#ff0099"/>
<path d="M302,221h 4" fill="none" stroke="#ff0099"/>
<g stroke="#ff0099" stroke-width="1" fill="#ff0099">
<circle cx=" 300" cy=" 221" r=" 1.5"/>
</g>
<path d="M312,253v -4" fill="none" stroke="#ff0099"/>
<path d="M312,246v -4" fill="none" stroke="#ff0099"/>
<path d="M306,247h 4" fill="none" stroke="#ff0099"/>
<path d="M313,247h 4" fill="none" stroke="#ff0099"/>
<g stroke="#ff0099" stroke-width="1" fill="#ff0099">
<circle cx=" 312" cy=" 247" r=" 1.5"/>
</g>
<path d="M323,288v -4" fill="none" stroke="#ff0099"/>
<path d="M323,282v -4" fill="none" stroke="#ff0099"/>
<path d="M317,283h 4" fill="none" stroke="#ff0099"/>
<path d="M324,283h 4" fill="none" stroke="#ff0099"/>
<g stroke="#ff0099" stroke-width="1" fill="#ff0099">
<circle cx=" 323" cy=" 283" r=" 1.5"/>
</g>
<path d="M334,313v -3" fill="none" stroke="#ff0099"/>
<path d="M334,308v -4" fill="none" stroke="#ff0099"/>
<path d="M328,309h 5" fill="none" stroke="#ff0099"/>
<path d="M335,309h 4" fill="none" stroke="#ff0099"/>
<g stroke="#ff0099" stroke-width="1" fill="#ff0099">
<circle cx=" 334" cy=" 309" r=" 1.5"/>
</g>
<path d="M345,341v -3" fill="none" stroke="#ff0099"/>
<path d="M345,336v -3" fill="none" stroke="#ff0099"/>
<path d="M339,337h 5" fill="none" stroke="#ff0099"/>
<path d="M346,337h 4" fill="none" stroke="#ff0099"/>
<g stroke="#ff0099" stroke-width="1" fill="#ff0099">
<circle cx=" 345" cy=" 337" r=" 1.5"/>
</g>
<path d="M356,366v -2" fill="none" stroke="#ff0099"/>
<path d="M356,362v -2" fill="none" stroke="#ff0099"/>
<path d="M350,363h 5" fill="none" stroke="#ff0099"/>
<path d="M357,363h 4" fill="none" stroke="#ff0099"/>
<g stroke="#ff0099" stroke-width="1" fill="#ff0099">
<circle cx=" 356" cy=" 363" r=" 1.5"/>
</g>
<path d="M367,388v -2" fill="none" stroke="#ff0099"/>
<path d="M367,384v -2" fill="none" stroke="#ff0099"/>
<path d="M361,385h 5" fill="none" stroke="#ff0099"/>
<path d="M368,385h 4" fill="none" stroke="#ff0099"/>
<g stroke="#ff0099" stroke-width="1" fill="#ff0099">
<circle cx=" 367" cy=" 385" r=" 1.5"/>
</g>
<path d="M378,407v -1" fill="none" stroke="#ff0099"/>
<path d="M378,404v -1" fill="none" stroke="#ff0099"/>
<path d="M372,405h 5" fill="none" stroke="#ff0099"/>
<path d="M379,405h 4" fill="none" stroke="#ff0099"/>
<g stroke="#ff0099" stroke-width="1" fill="#ff0099">
<circle cx=" 378" cy=" 405" r=" 1.5"/>
</g>
<path d="M389,418" fill="none" stroke="#ff0099"/>
<path d="M389,415" fill="none" stroke="#ff0099"/>
<path d="M383,416h 5" fill="none" stroke="#ff0099"/>
<path d="M390,416h 4" fill="none" stroke="#ff0099"/>
<g stroke="#ff0099" stroke-width="1" fill="#ff0099">
<circle cx=" 389" cy=" 416" r=" 1.5"/>
</g>
<path d="M400,424v -1" fill="none" stroke="#ff0099"/>
<path d="M400,421" fill="none" stroke="#ff0099"/>
<path d="M394,422h 5" fill="none" stroke="#ff0099"/>
<path d="M401,422h 5" fill="none" stroke="#ff0099"/>
<g stroke="#ff0099" stroke-width="1" fill="#ff0099">
<circle cx=" 400" cy=" 422" r=" 1.5"/>
</g>
<path d="M411,431v -1" fill="none" stroke="#ff0099"/>
<path d="M411,428v -1" fill="none" stroke="#ff0099"/>
<path d="M406,429h 4" fill="none" stroke="#ff0099"/>
<path d="M412,429h 5" fill="none" stroke="#ff0099"/>
<g stroke="#ff0099" stroke-width="1" fill="#ff0099">
<circle cx=" 411" cy=" 429" r=" 1.5"/>
</g>
<path d="M417,436h 4" fill="none" stroke="#ff0099"/>
<path d="M423,436h 5" fill="none" stroke="#ff0099"/>
<g stroke="#ff0099" stroke-width="1" fill="#ff0099">
<circle cx=" 422" cy=" 436" r=" 1.5"/>
</g>
<path d="M428,441h 4" fill="none" stroke="#ff0099"/>
<path d="M434,441h 5" fill="none" stroke="#ff0099"/>
<g stroke="#ff0099" stroke-width="1" fill="#ff0099">
<circle cx=" 433" cy=" 441" r=" 1.5"/>
</g>
<path d="M439,443h 4" fill="none" stroke="#ff0099"/>
<path d="M445,443h 5" fill="none" stroke="#ff0099"/>
<g stroke="#ff0099" stroke-width="1" fill="#ff0099">
<circle cx=" 444" cy=" 443" r=" 1.5"/>
</g>
<path d="M450,443h 4" fill="none" stroke="#ff0099"/>
<path d="M456,443h 5" fill="none" stroke="#ff0099"/>
<g stroke="#ff0099" stroke-width="1" fill="#ff0099">
<circle cx=" 455" cy=" 443" r=" 1.5"/>
</g>
<path d="M461,444h 4" fill="none" stroke="#ff0099"/>
<path d="M468,444h 4" fill="none" stroke="#ff0099"/>
<g stroke="#ff0099" stroke-width="1" fill="#ff0099">
<circle cx=" 466" cy=" 444" r=" 1.5"/>
</g>
<path d="M472,445h 4" fill="none" stroke="#ff0099"/>
<path d="M479,445h 4" fill="none" stroke="#ff0099"/>
<g stroke="#ff0099" stroke-width="1" fill="#ff0099">
<circle cx=" 477" cy=" 445" r=" 1.5"/>
</g>
<path d="M483,446h 4" fill="none" stroke="#ff0099"/>
<path d="M490,446h 4" fill="none" stroke="#ff0099"/>
<g stroke="#ff0099" stroke-width="1" fill="#ff0099">
<circle cx=" 489" cy=" 446" r=" 1.5"/>
</g>
<path d="M494,445h 4" fill="none" stroke="#ff0099"/>
<path d="M501,445h 4" fill="none" stroke="#ff0099"/>
<g stroke="#ff0099" stroke-width="1" fill="#ff0099">
<circle cx=" 500" cy=" 445" r=" 1.5"/>
</g>
<path d="M505,446h 5" fill="none" stroke="#ff0099"/>
<path d="M512,446h 4" fill="none" stroke="#ff0099"/>
<g stroke="#ff0099" stroke-width="1" fill="#ff0099">
<circle cx=" 511" cy=" 446" r=" 1.5"/>
</g>
<path d="M516,446h 5" fill="none" stroke="#ff0099"/>
<path d="M523,446h 4" fill="none" stroke="#ff0099"/>
<g stroke="#ff0099" stroke-width="1" fill="#ff0099">
<circle cx=" 522" cy=" 446" r=" 1.5"/>
</g>
<rect x="357" y="59" width="142" height="99" fill="white"/>
<text x="360" y="82" fill="black" font-size="17" font-family="Helvetica" font-weight="bold">
EB
</text>
<text x="457" y="115" fill="black" font-size="17" font-family="Helvetica" font-weight="bold">
 ee
</text>
<text x="440" y="115" fill="black" font-size="17" font-family="Times">
&#8594;
</text>
<text x="392" y="115" fill="black" font-size="17" font-family="Helvetica" font-weight="bold">
MC Z 
</text>
<path d="M362,109h 25" fill="none" stroke="#ff0099"/>
<g stroke="#ff0099" stroke-width="1" fill="#ff0099">
<circle cx=" 375" cy=" 109" r=" 1.5"/>
</g>
<text x="455" y="147" fill="black" font-size="17" font-family="Helvetica" font-weight="bold">
 + jet
</text>
<text x="447" y="147" fill="black" font-size="17" font-family="Times">
&#0947;
</text>
<text x="392" y="147" fill="black" font-size="17" font-family="Helvetica" font-weight="bold">
signal 
</text>
<path d="M362,154h 25v -24h -25z" fill="#99ff99"/>
<path d="M362,130h 25" fill="none" stroke="#99ff99" stroke-width="2"/>
<path d="M362,154h 25" fill="none" stroke="#99ff99" stroke-width="2"/>
<path d="M387,154v -24" fill="none" stroke="#99ff99" stroke-width="2"/>
<path d="M362,154v -24" fill="none" stroke="#99ff99" stroke-width="2"/>
<text x="300" y="34" fill="black" font-size="17" font-family="Helvetica" font-weight="bold">
=8 TeV
</text>
<text x="291" y="34" fill="black" font-size="17" font-family="Helvetica" font-weight="bold">
s
</text>
<path d="M285,25l 2, 10" fill="none" stroke="black" stroke-width="2"/>
<path d="M287,35l 2, -14" fill="none" stroke="black"/>
<path d="M289,21h 11" fill="none" stroke="black"/>
<text x="142" y="34" fill="black" font-size="17" font-family="Helvetica" font-weight="bold">
CMS Preliminary 
</text></svg>
