<?xml version="1.0" standalone="no"?>
<svg width="567" height="496" viewBox="0 0 567 496" xmlns="http://www.w3.org/2000/svg">
<title>
plots_mcZee_mcGJet//hlt135//r9PhotEE.svg
</title>
<desc>
Creator: ROOT Version 5.32/00
CreationDate: Sat Nov 29 19:43:45 2014</desc>
<defs>
</defs>
<rect x="0" y="0" width="567" height="496" fill="white"/>
<rect x="74" y="44" width="453" height="402" fill="white"/>
<rect x="74" y="44" width="453" height="402" fill="none" stroke="black"/>
<rect x="74" y="44" width="453" height="402" fill="white"/>
<rect x="74" y="44" width="453" height="402" fill="none" stroke="black"/>
<path d="M263,428h 2" fill="none" stroke="#ff0099"/>
<path d="M268,428h 2" fill="none" stroke="#ff0099"/>
<g stroke="#ff0099" stroke-width="1" fill="#ff0099">
<circle cx=" 266" cy=" 428" r=" 1.5"/>
</g>
<path d="M270,428h 3" fill="none" stroke="#ff0099"/>
<path d="M275,428h 3" fill="none" stroke="#ff0099"/>
<g stroke="#ff0099" stroke-width="1" fill="#ff0099">
<circle cx=" 274" cy=" 428" r=" 1.5"/>
</g>
<path d="M278,428h 2" fill="none" stroke="#ff0099"/>
<path d="M283,428h 2" fill="none" stroke="#ff0099"/>
<g stroke="#ff0099" stroke-width="1" fill="#ff0099">
<circle cx=" 282" cy=" 428" r=" 1.5"/>
</g>
<path d="M285,428h 3" fill="none" stroke="#ff0099"/>
<path d="M290,428h 3" fill="none" stroke="#ff0099"/>
<g stroke="#ff0099" stroke-width="1" fill="#ff0099">
<circle cx=" 289" cy=" 428" r=" 1.5"/>
</g>
<path d="M300,428h 3" fill="none" stroke="#ff0099"/>
<path d="M305,428h 3" fill="none" stroke="#ff0099"/>
<g stroke="#ff0099" stroke-width="1" fill="#ff0099">
<circle cx=" 304" cy=" 428" r=" 1.5"/>
</g>
<path d="M308,428h 3" fill="none" stroke="#ff0099"/>
<path d="M313,428h 3" fill="none" stroke="#ff0099"/>
<g stroke="#ff0099" stroke-width="1" fill="#ff0099">
<circle cx=" 312" cy=" 428" r=" 1.5"/>
</g>
<path d="M316,428h 2" fill="none" stroke="#ff0099"/>
<path d="M321,428h 2" fill="none" stroke="#ff0099"/>
<g stroke="#ff0099" stroke-width="1" fill="#ff0099">
<circle cx=" 319" cy=" 428" r=" 1.5"/>
</g>
<path d="M323,428h 3" fill="none" stroke="#ff0099"/>
<path d="M328,428h 3" fill="none" stroke="#ff0099"/>
<g stroke="#ff0099" stroke-width="1" fill="#ff0099">
<circle cx=" 327" cy=" 428" r=" 1.5"/>
</g>
<path d="M331,428h 2" fill="none" stroke="#ff0099"/>
<path d="M336,428h 2" fill="none" stroke="#ff0099"/>
<g stroke="#ff0099" stroke-width="1" fill="#ff0099">
<circle cx=" 334" cy=" 428" r=" 1.5"/>
</g>
<path d="M338,427h 3" fill="none" stroke="#ff0099"/>
<path d="M343,427h 3" fill="none" stroke="#ff0099"/>
<g stroke="#ff0099" stroke-width="1" fill="#ff0099">
<circle cx=" 342" cy=" 427" r=" 1.5"/>
</g>
<path d="M346,428h 2" fill="none" stroke="#ff0099"/>
<path d="M351,428h 2" fill="none" stroke="#ff0099"/>
<g stroke="#ff0099" stroke-width="1" fill="#ff0099">
<circle cx=" 350" cy=" 428" r=" 1.5"/>
</g>
<path d="M353,427h 3" fill="none" stroke="#ff0099"/>
<path d="M358,427h 3" fill="none" stroke="#ff0099"/>
<g stroke="#ff0099" stroke-width="1" fill="#ff0099">
<circle cx=" 357" cy=" 427" r=" 1.5"/>
</g>
<path d="M361,426h 3" fill="none" stroke="#ff0099"/>
<path d="M366,426h 3" fill="none" stroke="#ff0099"/>
<g stroke="#ff0099" stroke-width="1" fill="#ff0099">
<circle cx=" 365" cy=" 426" r=" 1.5"/>
</g>
<path d="M369,427h 2" fill="none" stroke="#ff0099"/>
<path d="M373,427h 3" fill="none" stroke="#ff0099"/>
<g stroke="#ff0099" stroke-width="1" fill="#ff0099">
<circle cx=" 372" cy=" 427" r=" 1.5"/>
</g>
<path d="M376,426h 3" fill="none" stroke="#ff0099"/>
<path d="M381,426h 3" fill="none" stroke="#ff0099"/>
<g stroke="#ff0099" stroke-width="1" fill="#ff0099">
<circle cx=" 380" cy=" 426" r=" 1.5"/>
</g>
<path d="M384,425h 2" fill="none" stroke="#ff0099"/>
<path d="M389,425h 2" fill="none" stroke="#ff0099"/>
<g stroke="#ff0099" stroke-width="1" fill="#ff0099">
<circle cx=" 387" cy=" 425" r=" 1.5"/>
</g>
<path d="M391,426h 3" fill="none" stroke="#ff0099"/>
<path d="M396,426h 3" fill="none" stroke="#ff0099"/>
<g stroke="#ff0099" stroke-width="1" fill="#ff0099">
<circle cx=" 395" cy=" 426" r=" 1.5"/>
</g>
<path d="M399,425h 2" fill="none" stroke="#ff0099"/>
<path d="M404,425h 2" fill="none" stroke="#ff0099"/>
<g stroke="#ff0099" stroke-width="1" fill="#ff0099">
<circle cx=" 403" cy=" 425" r=" 1.5"/>
</g>
<path d="M406,423h 3" fill="none" stroke="#ff0099"/>
<path d="M411,423h 3" fill="none" stroke="#ff0099"/>
<g stroke="#ff0099" stroke-width="1" fill="#ff0099">
<circle cx=" 410" cy=" 423" r=" 1.5"/>
</g>
<path d="M414,424h 2" fill="none" stroke="#ff0099"/>
<path d="M419,424h 2" fill="none" stroke="#ff0099"/>
<g stroke="#ff0099" stroke-width="1" fill="#ff0099">
<circle cx=" 418" cy=" 424" r=" 1.5"/>
</g>
<path d="M421,425h 3" fill="none" stroke="#ff0099"/>
<path d="M426,425h 3" fill="none" stroke="#ff0099"/>
<g stroke="#ff0099" stroke-width="1" fill="#ff0099">
<circle cx=" 425" cy=" 425" r=" 1.5"/>
</g>
<path d="M429,423h 3" fill="none" stroke="#ff0099"/>
<path d="M434,423h 3" fill="none" stroke="#ff0099"/>
<g stroke="#ff0099" stroke-width="1" fill="#ff0099">
<circle cx=" 433" cy=" 423" r=" 1.5"/>
</g>
<path d="M437,424h 2" fill="none" stroke="#ff0099"/>
<path d="M441,424h 3" fill="none" stroke="#ff0099"/>
<g stroke="#ff0099" stroke-width="1" fill="#ff0099">
<circle cx=" 440" cy=" 424" r=" 1.5"/>
</g>
<path d="M444,420h 3" fill="none" stroke="#ff0099"/>
<path d="M449,420h 3" fill="none" stroke="#ff0099"/>
<g stroke="#ff0099" stroke-width="1" fill="#ff0099">
<circle cx=" 448" cy=" 420" r=" 1.5"/>
</g>
<path d="M452,420h 2" fill="none" stroke="#ff0099"/>
<path d="M457,420h 2" fill="none" stroke="#ff0099"/>
<g stroke="#ff0099" stroke-width="1" fill="#ff0099">
<circle cx=" 455" cy=" 420" r=" 1.5"/>
</g>
<path d="M459,418h 3" fill="none" stroke="#ff0099"/>
<path d="M464,418h 3" fill="none" stroke="#ff0099"/>
<g stroke="#ff0099" stroke-width="1" fill="#ff0099">
<circle cx=" 463" cy=" 418" r=" 1.5"/>
</g>
<path d="M467,416h 2" fill="none" stroke="#ff0099"/>
<path d="M472,416h 2" fill="none" stroke="#ff0099"/>
<g stroke="#ff0099" stroke-width="1" fill="#ff0099">
<circle cx=" 471" cy=" 416" r=" 1.5"/>
</g>
<path d="M474,412h 3" fill="none" stroke="#ff0099"/>
<path d="M479,412h 3" fill="none" stroke="#ff0099"/>
<g stroke="#ff0099" stroke-width="1" fill="#ff0099">
<circle cx=" 478" cy=" 412" r=" 1.5"/>
</g>
<path d="M482,406h 3" fill="none" stroke="#ff0099"/>
<path d="M487,406h 2" fill="none" stroke="#ff0099"/>
<g stroke="#ff0099" stroke-width="1" fill="#ff0099">
<circle cx=" 486" cy=" 406" r=" 1.5"/>
</g>
<path d="M489,387h 3" fill="none" stroke="#ff0099"/>
<path d="M494,387h 3" fill="none" stroke="#ff0099"/>
<g stroke="#ff0099" stroke-width="1" fill="#ff0099">
<circle cx=" 493" cy=" 387" r=" 1.5"/>
</g>
<path d="M501,339" fill="none" stroke="#ff0099"/>
<path d="M501,337v -1" fill="none" stroke="#ff0099"/>
<path d="M497,338h 3" fill="none" stroke="#ff0099"/>
<path d="M502,338h 3" fill="none" stroke="#ff0099"/>
<g stroke="#ff0099" stroke-width="1" fill="#ff0099">
<circle cx=" 501" cy=" 338" r=" 1.5"/>
</g>
<path d="M508,178v -3" fill="none" stroke="#ff0099"/>
<path d="M508,173v -3" fill="none" stroke="#ff0099"/>
<path d="M505,174h 2" fill="none" stroke="#ff0099"/>
<path d="M509,174h 3" fill="none" stroke="#ff0099"/>
<g stroke="#ff0099" stroke-width="1" fill="#ff0099">
<circle cx=" 508" cy=" 174" r=" 1.5"/>
</g>
<path d="M516,81v -8" fill="none" stroke="#ff0099"/>
<path d="M516,71v -8" fill="none" stroke="#ff0099"/>
<path d="M512,72h 3" fill="none" stroke="#ff0099"/>
<path d="M517,72h 3" fill="none" stroke="#ff0099"/>
<g stroke="#ff0099" stroke-width="1" fill="#ff0099">
<circle cx=" 516" cy=" 72" r=" 1.5"/>
</g>
<path d="M520,428h 2" fill="none" stroke="#ff0099"/>
<path d="M525,428h 2" fill="none" stroke="#ff0099"/>
<g stroke="#ff0099" stroke-width="1" fill="#ff0099">
<circle cx=" 523" cy=" 428" r=" 1.5"/>
</g>
<path d="M74,446h 453" fill="none" stroke="black"/>
<path d="M74,434v 12" fill="none" stroke="black"/>
<path d="M83,440v 6" fill="none" stroke="black"/>
<path d="M92,440v 6" fill="none" stroke="black"/>
<path d="M101,440v 6" fill="none" stroke="black"/>
<path d="M110,440v 6" fill="none" stroke="black"/>
<path d="M119,434v 12" fill="none" stroke="black"/>
<path d="M128,440v 6" fill="none" stroke="black"/>
<path d="M137,440v 6" fill="none" stroke="black"/>
<path d="M146,440v 6" fill="none" stroke="black"/>
<path d="M155,440v 6" fill="none" stroke="black"/>
<path d="M164,434v 12" fill="none" stroke="black"/>
<path d="M173,440v 6" fill="none" stroke="black"/>
<path d="M183,440v 6" fill="none" stroke="black"/>
<path d="M192,440v 6" fill="none" stroke="black"/>
<path d="M201,440v 6" fill="none" stroke="black"/>
<path d="M210,434v 12" fill="none" stroke="black"/>
<path d="M219,440v 6" fill="none" stroke="black"/>
<path d="M228,440v 6" fill="none" stroke="black"/>
<path d="M237,440v 6" fill="none" stroke="black"/>
<path d="M246,440v 6" fill="none" stroke="black"/>
<path d="M255,434v 12" fill="none" stroke="black"/>
<path d="M264,440v 6" fill="none" stroke="black"/>
<path d="M273,440v 6" fill="none" stroke="black"/>
<path d="M282,440v 6" fill="none" stroke="black"/>
<path d="M291,440v 6" fill="none" stroke="black"/>
<path d="M300,434v 12" fill="none" stroke="black"/>
<path d="M310,440v 6" fill="none" stroke="black"/>
<path d="M319,440v 6" fill="none" stroke="black"/>
<path d="M328,440v 6" fill="none" stroke="black"/>
<path d="M337,440v 6" fill="none" stroke="black"/>
<path d="M346,434v 12" fill="none" stroke="black"/>
<path d="M355,440v 6" fill="none" stroke="black"/>
<path d="M364,440v 6" fill="none" stroke="black"/>
<path d="M373,440v 6" fill="none" stroke="black"/>
<path d="M382,440v 6" fill="none" stroke="black"/>
<path d="M391,434v 12" fill="none" stroke="black"/>
<path d="M400,440v 6" fill="none" stroke="black"/>
<path d="M409,440v 6" fill="none" stroke="black"/>
<path d="M418,440v 6" fill="none" stroke="black"/>
<path d="M427,440v 6" fill="none" stroke="black"/>
<path d="M437,434v 12" fill="none" stroke="black"/>
<path d="M446,440v 6" fill="none" stroke="black"/>
<path d="M455,440v 6" fill="none" stroke="black"/>
<path d="M464,440v 6" fill="none" stroke="black"/>
<path d="M473,440v 6" fill="none" stroke="black"/>
<path d="M482,434v 12" fill="none" stroke="black"/>
<path d="M491,440v 6" fill="none" stroke="black"/>
<path d="M500,440v 6" fill="none" stroke="black"/>
<path d="M509,440v 6" fill="none" stroke="black"/>
<path d="M518,440v 6" fill="none" stroke="black"/>
<path d="M527,434v 12" fill="none" stroke="black"/>
<text x="68" y="465" fill="black" font-size="18" font-family="Helvetica" font-weight="bold">
0
</text>
<text x="107" y="465" fill="black" font-size="18" font-family="Helvetica" font-weight="bold">
0.1
</text>
<text x="151" y="465" fill="black" font-size="18" font-family="Helvetica" font-weight="bold">
0.2
</text>
<text x="196" y="465" fill="black" font-size="18" font-family="Helvetica" font-weight="bold">
0.3
</text>
<text x="242" y="465" fill="black" font-size="18" font-family="Helvetica" font-weight="bold">
0.4
</text>
<text x="287" y="465" fill="black" font-size="18" font-family="Helvetica" font-weight="bold">
0.5
</text>
<text x="332" y="465" fill="black" font-size="18" font-family="Helvetica" font-weight="bold">
0.6
</text>
<text x="378" y="465" fill="black" font-size="18" font-family="Helvetica" font-weight="bold">
0.7
</text>
<text x="423" y="465" fill="black" font-size="18" font-family="Helvetica" font-weight="bold">
0.8
</text>
<text x="468" y="465" fill="black" font-size="18" font-family="Helvetica" font-weight="bold">
0.9
</text>
<text x="523" y="465" fill="black" font-size="18" font-family="Helvetica" font-weight="bold">
1
</text>
<path d="M74,44h 453" fill="none" stroke="black"/>
<path d="M74,56v -12" fill="none" stroke="black"/>
<path d="M83,50v -6" fill="none" stroke="black"/>
<path d="M92,50v -6" fill="none" stroke="black"/>
<path d="M101,50v -6" fill="none" stroke="black"/>
<path d="M110,50v -6" fill="none" stroke="black"/>
<path d="M119,56v -12" fill="none" stroke="black"/>
<path d="M128,50v -6" fill="none" stroke="black"/>
<path d="M137,50v -6" fill="none" stroke="black"/>
<path d="M146,50v -6" fill="none" stroke="black"/>
<path d="M155,50v -6" fill="none" stroke="black"/>
<path d="M164,56v -12" fill="none" stroke="black"/>
<path d="M173,50v -6" fill="none" stroke="black"/>
<path d="M183,50v -6" fill="none" stroke="black"/>
<path d="M192,50v -6" fill="none" stroke="black"/>
<path d="M201,50v -6" fill="none" stroke="black"/>
<path d="M210,56v -12" fill="none" stroke="black"/>
<path d="M219,50v -6" fill="none" stroke="black"/>
<path d="M228,50v -6" fill="none" stroke="black"/>
<path d="M237,50v -6" fill="none" stroke="black"/>
<path d="M246,50v -6" fill="none" stroke="black"/>
<path d="M255,56v -12" fill="none" stroke="black"/>
<path d="M264,50v -6" fill="none" stroke="black"/>
<path d="M273,50v -6" fill="none" stroke="black"/>
<path d="M282,50v -6" fill="none" stroke="black"/>
<path d="M291,50v -6" fill="none" stroke="black"/>
<path d="M300,56v -12" fill="none" stroke="black"/>
<path d="M310,50v -6" fill="none" stroke="black"/>
<path d="M319,50v -6" fill="none" stroke="black"/>
<path d="M328,50v -6" fill="none" stroke="black"/>
<path d="M337,50v -6" fill="none" stroke="black"/>
<path d="M346,56v -12" fill="none" stroke="black"/>
<path d="M355,50v -6" fill="none" stroke="black"/>
<path d="M364,50v -6" fill="none" stroke="black"/>
<path d="M373,50v -6" fill="none" stroke="black"/>
<path d="M382,50v -6" fill="none" stroke="black"/>
<path d="M391,56v -12" fill="none" stroke="black"/>
<path d="M400,50v -6" fill="none" stroke="black"/>
<path d="M409,50v -6" fill="none" stroke="black"/>
<path d="M418,50v -6" fill="none" stroke="black"/>
<path d="M427,50v -6" fill="none" stroke="black"/>
<path d="M437,56v -12" fill="none" stroke="black"/>
<path d="M446,50v -6" fill="none" stroke="black"/>
<path d="M455,50v -6" fill="none" stroke="black"/>
<path d="M464,50v -6" fill="none" stroke="black"/>
<path d="M473,50v -6" fill="none" stroke="black"/>
<path d="M482,56v -12" fill="none" stroke="black"/>
<path d="M491,50v -6" fill="none" stroke="black"/>
<path d="M500,50v -6" fill="none" stroke="black"/>
<path d="M509,50v -6" fill="none" stroke="black"/>
<path d="M518,50v -6" fill="none" stroke="black"/>
<path d="M527,56v -12" fill="none" stroke="black"/>
<path d="M74,446v -402" fill="none" stroke="black"/>
<path d="M87,428h -13" fill="none" stroke="black"/>
<path d="M81,420h -7" fill="none" stroke="black"/>
<path d="M81,411h -7" fill="none" stroke="black"/>
<path d="M81,402h -7" fill="none" stroke="black"/>
<path d="M81,394h -7" fill="none" stroke="black"/>
<path d="M87,385h -13" fill="none" stroke="black"/>
<path d="M81,377h -7" fill="none" stroke="black"/>
<path d="M81,368h -7" fill="none" stroke="black"/>
<path d="M81,359h -7" fill="none" stroke="black"/>
<path d="M81,351h -7" fill="none" stroke="black"/>
<path d="M87,342h -13" fill="none" stroke="black"/>
<path d="M81,334h -7" fill="none" stroke="black"/>
<path d="M81,325h -7" fill="none" stroke="black"/>
<path d="M81,317h -7" fill="none" stroke="black"/>
<path d="M81,308h -7" fill="none" stroke="black"/>
<path d="M87,299h -13" fill="none" stroke="black"/>
<path d="M81,291h -7" fill="none" stroke="black"/>
<path d="M81,282h -7" fill="none" stroke="black"/>
<path d="M81,274h -7" fill="none" stroke="black"/>
<path d="M81,265h -7" fill="none" stroke="black"/>
<path d="M87,256h -13" fill="none" stroke="black"/>
<path d="M81,248h -7" fill="none" stroke="black"/>
<path d="M81,239h -7" fill="none" stroke="black"/>
<path d="M81,231h -7" fill="none" stroke="black"/>
<path d="M81,222h -7" fill="none" stroke="black"/>
<path d="M87,213h -13" fill="none" stroke="black"/>
<path d="M81,205h -7" fill="none" stroke="black"/>
<path d="M81,196h -7" fill="none" stroke="black"/>
<path d="M81,188h -7" fill="none" stroke="black"/>
<path d="M81,179h -7" fill="none" stroke="black"/>
<path d="M87,171h -13" fill="none" stroke="black"/>
<path d="M81,162h -7" fill="none" stroke="black"/>
<path d="M81,153h -7" fill="none" stroke="black"/>
<path d="M81,145h -7" fill="none" stroke="black"/>
<path d="M81,136h -7" fill="none" stroke="black"/>
<path d="M87,128h -13" fill="none" stroke="black"/>
<path d="M81,119h -7" fill="none" stroke="black"/>
<path d="M81,110h -7" fill="none" stroke="black"/>
<path d="M81,102h -7" fill="none" stroke="black"/>
<path d="M81,93h -7" fill="none" stroke="black"/>
<path d="M87,85h -13" fill="none" stroke="black"/>
<path d="M87,428h -13" fill="none" stroke="black"/>
<path d="M81,437h -7" fill="none" stroke="black"/>
<path d="M81,445h -7" fill="none" stroke="black"/>
<path d="M87,85h -13" fill="none" stroke="black"/>
<path d="M81,76h -7" fill="none" stroke="black"/>
<path d="M81,67h -7" fill="none" stroke="black"/>
<path d="M81,59h -7" fill="none" stroke="black"/>
<path d="M81,50h -7" fill="none" stroke="black"/>
<text x="61" y="435" fill="black" font-size="18" font-family="Helvetica" font-weight="bold">
0
</text>
<text x="34" y="392" fill="black" font-size="18" font-family="Helvetica" font-weight="bold">
0.05
</text>
<text x="47" y="349" fill="black" font-size="18" font-family="Helvetica" font-weight="bold">
0.1
</text>
<text x="34" y="306" fill="black" font-size="18" font-family="Helvetica" font-weight="bold">
0.15
</text>
<text x="45" y="263" fill="black" font-size="18" font-family="Helvetica" font-weight="bold">
0.2
</text>
<text x="34" y="220" fill="black" font-size="18" font-family="Helvetica" font-weight="bold">
0.25
</text>
<text x="45" y="177" fill="black" font-size="18" font-family="Helvetica" font-weight="bold">
0.3
</text>
<text x="34" y="134" fill="black" font-size="18" font-family="Helvetica" font-weight="bold">
0.35
</text>
<text x="44" y="91" fill="black" font-size="18" font-family="Helvetica" font-weight="bold">
0.4
</text>
<path d="M77,428" fill="none" stroke="#99ff99" stroke-width="2"/>
<path d="M77,428" fill="none" stroke="#99ff99" stroke-width="2"/>
<g stroke="black" stroke-width="2" fill="none">
<line x1="76" y1="428" x2="77" y2="428"/>
</g>
<path d="M334,428" fill="none" stroke="#99ff99" stroke-width="2"/>
<path d="M334,428" fill="none" stroke="#99ff99" stroke-width="2"/>
<g stroke="black" stroke-width="2" fill="none">
<line x1="333" y1="428" x2="334" y2="428"/>
</g>
<path d="M342,428" fill="none" stroke="#99ff99" stroke-width="2"/>
<path d="M342,428" fill="none" stroke="#99ff99" stroke-width="2"/>
<g stroke="black" stroke-width="2" fill="none">
<line x1="341" y1="428" x2="342" y2="428"/>
</g>
<path d="M357,428" fill="none" stroke="#99ff99" stroke-width="2"/>
<path d="M357,428" fill="none" stroke="#99ff99" stroke-width="2"/>
<g stroke="black" stroke-width="2" fill="none">
<line x1="356" y1="428" x2="357" y2="428"/>
</g>
<path d="M365,428" fill="none" stroke="#99ff99" stroke-width="2"/>
<path d="M365,428" fill="none" stroke="#99ff99" stroke-width="2"/>
<g stroke="black" stroke-width="2" fill="none">
<line x1="364" y1="428" x2="365" y2="428"/>
</g>
<path d="M372,428" fill="none" stroke="#99ff99" stroke-width="2"/>
<path d="M372,428" fill="none" stroke="#99ff99" stroke-width="2"/>
<g stroke="black" stroke-width="2" fill="none">
<line x1="371" y1="428" x2="372" y2="428"/>
</g>
<path d="M380,428" fill="none" stroke="#99ff99" stroke-width="2"/>
<path d="M380,428" fill="none" stroke="#99ff99" stroke-width="2"/>
<g stroke="black" stroke-width="2" fill="none">
<line x1="379" y1="428" x2="380" y2="428"/>
</g>
<path d="M387,428" fill="none" stroke="#99ff99" stroke-width="2"/>
<path d="M387,428" fill="none" stroke="#99ff99" stroke-width="2"/>
<g stroke="black" stroke-width="2" fill="none">
<line x1="386" y1="428" x2="387" y2="428"/>
</g>
<path d="M395,428" fill="none" stroke="#99ff99" stroke-width="2"/>
<path d="M395,428" fill="none" stroke="#99ff99" stroke-width="2"/>
<g stroke="black" stroke-width="2" fill="none">
<line x1="394" y1="428" x2="395" y2="428"/>
</g>
<path d="M403,428" fill="none" stroke="#99ff99" stroke-width="2"/>
<path d="M403,428" fill="none" stroke="#99ff99" stroke-width="2"/>
<g stroke="black" stroke-width="2" fill="none">
<line x1="402" y1="428" x2="403" y2="428"/>
</g>
<path d="M410,428" fill="none" stroke="#99ff99" stroke-width="2"/>
<path d="M410,428" fill="none" stroke="#99ff99" stroke-width="2"/>
<g stroke="black" stroke-width="2" fill="none">
<line x1="409" y1="428" x2="410" y2="428"/>
</g>
<path d="M418,428" fill="none" stroke="#99ff99" stroke-width="2"/>
<path d="M418,428" fill="none" stroke="#99ff99" stroke-width="2"/>
<g stroke="black" stroke-width="2" fill="none">
<line x1="417" y1="428" x2="418" y2="428"/>
</g>
<path d="M425,428" fill="none" stroke="#99ff99" stroke-width="2"/>
<path d="M425,428" fill="none" stroke="#99ff99" stroke-width="2"/>
<g stroke="black" stroke-width="2" fill="none">
<line x1="424" y1="428" x2="425" y2="428"/>
</g>
<path d="M433,428v -1" fill="none" stroke="#99ff99" stroke-width="2"/>
<path d="M433,427" fill="none" stroke="#99ff99" stroke-width="2"/>
<g stroke="black" stroke-width="2" fill="none">
<line x1="432" y1="427" x2="433" y2="427"/>
</g>
<path d="M440,427" fill="none" stroke="#99ff99" stroke-width="2"/>
<path d="M440,427" fill="none" stroke="#99ff99" stroke-width="2"/>
<g stroke="black" stroke-width="2" fill="none">
<line x1="439" y1="427" x2="440" y2="427"/>
</g>
<path d="M448,427" fill="none" stroke="#99ff99" stroke-width="2"/>
<path d="M448,427" fill="none" stroke="#99ff99" stroke-width="2"/>
<g stroke="black" stroke-width="2" fill="none">
<line x1="447" y1="427" x2="448" y2="427"/>
</g>
<path d="M455,426" fill="none" stroke="#99ff99" stroke-width="2"/>
<path d="M455,426v -1" fill="none" stroke="#99ff99" stroke-width="2"/>
<g stroke="black" stroke-width="2" fill="none">
<line x1="454" y1="426" x2="455" y2="426"/>
</g>
<path d="M463,424" fill="none" stroke="#99ff99" stroke-width="2"/>
<path d="M463,424" fill="none" stroke="#99ff99" stroke-width="2"/>
<g stroke="black" stroke-width="2" fill="none">
<line x1="462" y1="424" x2="463" y2="424"/>
</g>
<path d="M471,421" fill="none" stroke="#99ff99" stroke-width="2"/>
<path d="M471,421" fill="none" stroke="#99ff99" stroke-width="2"/>
<g stroke="black" stroke-width="2" fill="none">
<line x1="470" y1="421" x2="471" y2="421"/>
</g>
<path d="M478,417v -1" fill="none" stroke="#99ff99" stroke-width="2"/>
<path d="M478,416v -1" fill="none" stroke="#99ff99" stroke-width="2"/>
<g stroke="black" stroke-width="2" fill="none">
<line x1="477" y1="416" x2="478" y2="416"/>
</g>
<path d="M486,410v -1" fill="none" stroke="#99ff99" stroke-width="2"/>
<path d="M486,409v -1" fill="none" stroke="#99ff99" stroke-width="2"/>
<g stroke="black" stroke-width="2" fill="none">
<line x1="485" y1="409" x2="486" y2="409"/>
</g>
<path d="M493,394v -2" fill="none" stroke="#99ff99" stroke-width="2"/>
<path d="M493,392v -2" fill="none" stroke="#99ff99" stroke-width="2"/>
<g stroke="black" stroke-width="2" fill="none">
<line x1="492" y1="392" x2="493" y2="392"/>
</g>
<path d="M501,362v -1" fill="none" stroke="#99ff99" stroke-width="2"/>
<path d="M501,361v -1" fill="none" stroke="#99ff99" stroke-width="2"/>
<g stroke="black" stroke-width="2" fill="none">
<line x1="500" y1="361" x2="501" y2="361"/>
</g>
<path d="M508,235v -4" fill="none" stroke="#99ff99" stroke-width="2"/>
<path d="M508,231v -5" fill="none" stroke="#99ff99" stroke-width="2"/>
<g stroke="black" stroke-width="2" fill="none">
<line x1="507" y1="231" x2="508" y2="231"/>
</g>
<path d="M523,416" fill="none" stroke="#99ff99" stroke-width="2"/>
<path d="M523,416v -1" fill="none" stroke="#99ff99" stroke-width="2"/>
<g stroke="black" stroke-width="2" fill="none">
<line x1="522" y1="416" x2="523" y2="416"/>
</g>
<path d="M74,428h 355v -1h 23v -1h 7v -2h 8v -3h 7v -5h 8v -7h 7v -17h 8v -31h 8v -130h 7v -187h 8v 372h 7v 12z" fill="#99ff99"/>
<path d="M74,428h 355v -1h 23v -1h 7v -2h 8v -3h 7v -5h 8v -7h 7v -17h 8v -31h 8v -130h 7v -187" fill="none" stroke="#99ff99" stroke-width="2"/>
<path d="M520,44v 372" fill="none" stroke="#99ff99" stroke-width="2"/>
<path d="M520,416h 7" fill="none" stroke="#99ff99" stroke-width="2"/>
<path d="M263,428h 2" fill="none" stroke="#ff0099"/>
<path d="M268,428h 2" fill="none" stroke="#ff0099"/>
<g stroke="#ff0099" stroke-width="1" fill="#ff0099">
<circle cx=" 266" cy=" 428" r=" 1.5"/>
</g>
<path d="M270,428h 3" fill="none" stroke="#ff0099"/>
<path d="M275,428h 3" fill="none" stroke="#ff0099"/>
<g stroke="#ff0099" stroke-width="1" fill="#ff0099">
<circle cx=" 274" cy=" 428" r=" 1.5"/>
</g>
<path d="M278,428h 2" fill="none" stroke="#ff0099"/>
<path d="M283,428h 2" fill="none" stroke="#ff0099"/>
<g stroke="#ff0099" stroke-width="1" fill="#ff0099">
<circle cx=" 282" cy=" 428" r=" 1.5"/>
</g>
<path d="M285,428h 3" fill="none" stroke="#ff0099"/>
<path d="M290,428h 3" fill="none" stroke="#ff0099"/>
<g stroke="#ff0099" stroke-width="1" fill="#ff0099">
<circle cx=" 289" cy=" 428" r=" 1.5"/>
</g>
<path d="M300,428h 3" fill="none" stroke="#ff0099"/>
<path d="M305,428h 3" fill="none" stroke="#ff0099"/>
<g stroke="#ff0099" stroke-width="1" fill="#ff0099">
<circle cx=" 304" cy=" 428" r=" 1.5"/>
</g>
<path d="M308,428h 3" fill="none" stroke="#ff0099"/>
<path d="M313,428h 3" fill="none" stroke="#ff0099"/>
<g stroke="#ff0099" stroke-width="1" fill="#ff0099">
<circle cx=" 312" cy=" 428" r=" 1.5"/>
</g>
<path d="M316,428h 2" fill="none" stroke="#ff0099"/>
<path d="M321,428h 2" fill="none" stroke="#ff0099"/>
<g stroke="#ff0099" stroke-width="1" fill="#ff0099">
<circle cx=" 319" cy=" 428" r=" 1.5"/>
</g>
<path d="M323,428h 3" fill="none" stroke="#ff0099"/>
<path d="M328,428h 3" fill="none" stroke="#ff0099"/>
<g stroke="#ff0099" stroke-width="1" fill="#ff0099">
<circle cx=" 327" cy=" 428" r=" 1.5"/>
</g>
<path d="M331,428h 2" fill="none" stroke="#ff0099"/>
<path d="M336,428h 2" fill="none" stroke="#ff0099"/>
<g stroke="#ff0099" stroke-width="1" fill="#ff0099">
<circle cx=" 334" cy=" 428" r=" 1.5"/>
</g>
<path d="M338,427h 3" fill="none" stroke="#ff0099"/>
<path d="M343,427h 3" fill="none" stroke="#ff0099"/>
<g stroke="#ff0099" stroke-width="1" fill="#ff0099">
<circle cx=" 342" cy=" 427" r=" 1.5"/>
</g>
<path d="M346,428h 2" fill="none" stroke="#ff0099"/>
<path d="M351,428h 2" fill="none" stroke="#ff0099"/>
<g stroke="#ff0099" stroke-width="1" fill="#ff0099">
<circle cx=" 350" cy=" 428" r=" 1.5"/>
</g>
<path d="M353,427h 3" fill="none" stroke="#ff0099"/>
<path d="M358,427h 3" fill="none" stroke="#ff0099"/>
<g stroke="#ff0099" stroke-width="1" fill="#ff0099">
<circle cx=" 357" cy=" 427" r=" 1.5"/>
</g>
<path d="M361,426h 3" fill="none" stroke="#ff0099"/>
<path d="M366,426h 3" fill="none" stroke="#ff0099"/>
<g stroke="#ff0099" stroke-width="1" fill="#ff0099">
<circle cx=" 365" cy=" 426" r=" 1.5"/>
</g>
<path d="M369,427h 2" fill="none" stroke="#ff0099"/>
<path d="M373,427h 3" fill="none" stroke="#ff0099"/>
<g stroke="#ff0099" stroke-width="1" fill="#ff0099">
<circle cx=" 372" cy=" 427" r=" 1.5"/>
</g>
<path d="M376,426h 3" fill="none" stroke="#ff0099"/>
<path d="M381,426h 3" fill="none" stroke="#ff0099"/>
<g stroke="#ff0099" stroke-width="1" fill="#ff0099">
<circle cx=" 380" cy=" 426" r=" 1.5"/>
</g>
<path d="M384,425h 2" fill="none" stroke="#ff0099"/>
<path d="M389,425h 2" fill="none" stroke="#ff0099"/>
<g stroke="#ff0099" stroke-width="1" fill="#ff0099">
<circle cx=" 387" cy=" 425" r=" 1.5"/>
</g>
<path d="M391,426h 3" fill="none" stroke="#ff0099"/>
<path d="M396,426h 3" fill="none" stroke="#ff0099"/>
<g stroke="#ff0099" stroke-width="1" fill="#ff0099">
<circle cx=" 395" cy=" 426" r=" 1.5"/>
</g>
<path d="M399,425h 2" fill="none" stroke="#ff0099"/>
<path d="M404,425h 2" fill="none" stroke="#ff0099"/>
<g stroke="#ff0099" stroke-width="1" fill="#ff0099">
<circle cx=" 403" cy=" 425" r=" 1.5"/>
</g>
<path d="M406,423h 3" fill="none" stroke="#ff0099"/>
<path d="M411,423h 3" fill="none" stroke="#ff0099"/>
<g stroke="#ff0099" stroke-width="1" fill="#ff0099">
<circle cx=" 410" cy=" 423" r=" 1.5"/>
</g>
<path d="M414,424h 2" fill="none" stroke="#ff0099"/>
<path d="M419,424h 2" fill="none" stroke="#ff0099"/>
<g stroke="#ff0099" stroke-width="1" fill="#ff0099">
<circle cx=" 418" cy=" 424" r=" 1.5"/>
</g>
<path d="M421,425h 3" fill="none" stroke="#ff0099"/>
<path d="M426,425h 3" fill="none" stroke="#ff0099"/>
<g stroke="#ff0099" stroke-width="1" fill="#ff0099">
<circle cx=" 425" cy=" 425" r=" 1.5"/>
</g>
<path d="M429,423h 3" fill="none" stroke="#ff0099"/>
<path d="M434,423h 3" fill="none" stroke="#ff0099"/>
<g stroke="#ff0099" stroke-width="1" fill="#ff0099">
<circle cx=" 433" cy=" 423" r=" 1.5"/>
</g>
<path d="M437,424h 2" fill="none" stroke="#ff0099"/>
<path d="M441,424h 3" fill="none" stroke="#ff0099"/>
<g stroke="#ff0099" stroke-width="1" fill="#ff0099">
<circle cx=" 440" cy=" 424" r=" 1.5"/>
</g>
<path d="M444,420h 3" fill="none" stroke="#ff0099"/>
<path d="M449,420h 3" fill="none" stroke="#ff0099"/>
<g stroke="#ff0099" stroke-width="1" fill="#ff0099">
<circle cx=" 448" cy=" 420" r=" 1.5"/>
</g>
<path d="M452,420h 2" fill="none" stroke="#ff0099"/>
<path d="M457,420h 2" fill="none" stroke="#ff0099"/>
<g stroke="#ff0099" stroke-width="1" fill="#ff0099">
<circle cx=" 455" cy=" 420" r=" 1.5"/>
</g>
<path d="M459,418h 3" fill="none" stroke="#ff0099"/>
<path d="M464,418h 3" fill="none" stroke="#ff0099"/>
<g stroke="#ff0099" stroke-width="1" fill="#ff0099">
<circle cx=" 463" cy=" 418" r=" 1.5"/>
</g>
<path d="M467,416h 2" fill="none" stroke="#ff0099"/>
<path d="M472,416h 2" fill="none" stroke="#ff0099"/>
<g stroke="#ff0099" stroke-width="1" fill="#ff0099">
<circle cx=" 471" cy=" 416" r=" 1.5"/>
</g>
<path d="M474,412h 3" fill="none" stroke="#ff0099"/>
<path d="M479,412h 3" fill="none" stroke="#ff0099"/>
<g stroke="#ff0099" stroke-width="1" fill="#ff0099">
<circle cx=" 478" cy=" 412" r=" 1.5"/>
</g>
<path d="M482,406h 3" fill="none" stroke="#ff0099"/>
<path d="M487,406h 2" fill="none" stroke="#ff0099"/>
<g stroke="#ff0099" stroke-width="1" fill="#ff0099">
<circle cx=" 486" cy=" 406" r=" 1.5"/>
</g>
<path d="M489,387h 3" fill="none" stroke="#ff0099"/>
<path d="M494,387h 3" fill="none" stroke="#ff0099"/>
<g stroke="#ff0099" stroke-width="1" fill="#ff0099">
<circle cx=" 493" cy=" 387" r=" 1.5"/>
</g>
<path d="M501,339" fill="none" stroke="#ff0099"/>
<path d="M501,337v -1" fill="none" stroke="#ff0099"/>
<path d="M497,338h 3" fill="none" stroke="#ff0099"/>
<path d="M502,338h 3" fill="none" stroke="#ff0099"/>
<g stroke="#ff0099" stroke-width="1" fill="#ff0099">
<circle cx=" 501" cy=" 338" r=" 1.5"/>
</g>
<path d="M508,178v -3" fill="none" stroke="#ff0099"/>
<path d="M508,173v -3" fill="none" stroke="#ff0099"/>
<path d="M505,174h 2" fill="none" stroke="#ff0099"/>
<path d="M509,174h 3" fill="none" stroke="#ff0099"/>
<g stroke="#ff0099" stroke-width="1" fill="#ff0099">
<circle cx=" 508" cy=" 174" r=" 1.5"/>
</g>
<path d="M516,81v -8" fill="none" stroke="#ff0099"/>
<path d="M516,71v -8" fill="none" stroke="#ff0099"/>
<path d="M512,72h 3" fill="none" stroke="#ff0099"/>
<path d="M517,72h 3" fill="none" stroke="#ff0099"/>
<g stroke="#ff0099" stroke-width="1" fill="#ff0099">
<circle cx=" 516" cy=" 72" r=" 1.5"/>
</g>
<path d="M520,428h 2" fill="none" stroke="#ff0099"/>
<path d="M525,428h 2" fill="none" stroke="#ff0099"/>
<g stroke="#ff0099" stroke-width="1" fill="#ff0099">
<circle cx=" 523" cy=" 428" r=" 1.5"/>
</g>
<rect x="357" y="59" width="142" height="99" fill="white"/>
<text x="360" y="82" fill="black" font-size="17" font-family="Helvetica" font-weight="bold">
EE
</text>
<text x="457" y="115" fill="black" font-size="17" font-family="Helvetica" font-weight="bold">
 ee
</text>
<text x="440" y="115" fill="black" font-size="17" font-family="Times">
&#8594;
</text>
<text x="392" y="115" fill="black" font-size="17" font-family="Helvetica" font-weight="bold">
MC Z 
</text>
<path d="M362,109h 25" fill="none" stroke="#ff0099"/>
<g stroke="#ff0099" stroke-width="1" fill="#ff0099">
<circle cx=" 375" cy=" 109" r=" 1.5"/>
</g>
<text x="455" y="147" fill="black" font-size="17" font-family="Helvetica" font-weight="bold">
 + jet
</text>
<text x="447" y="147" fill="black" font-size="17" font-family="Times">
&#0947;
</text>
<text x="392" y="147" fill="black" font-size="17" font-family="Helvetica" font-weight="bold">
signal 
</text>
<path d="M362,154h 25v -24h -25z" fill="#99ff99"/>
<path d="M362,130h 25" fill="none" stroke="#99ff99" stroke-width="2"/>
<path d="M362,154h 25" fill="none" stroke="#99ff99" stroke-width="2"/>
<path d="M387,154v -24" fill="none" stroke="#99ff99" stroke-width="2"/>
<path d="M362,154v -24" fill="none" stroke="#99ff99" stroke-width="2"/>
<text x="300" y="34" fill="black" font-size="17" font-family="Helvetica" font-weight="bold">
=8 TeV
</text>
<text x="291" y="34" fill="black" font-size="17" font-family="Helvetica" font-weight="bold">
s
</text>
<path d="M285,25l 2, 10" fill="none" stroke="black" stroke-width="2"/>
<path d="M287,35l 2, -14" fill="none" stroke="black"/>
<path d="M289,21h 11" fill="none" stroke="black"/>
<text x="142" y="34" fill="black" font-size="17" font-family="Helvetica" font-weight="bold">
CMS Preliminary 
</text></svg>
