<?xml version="1.0" standalone="no"?>
<svg width="567" height="496" viewBox="0 0 567 496" xmlns="http://www.w3.org/2000/svg">
<title>
plots_mcZee_mcGJet//hlt30//etaPhotEE_log.svg
</title>
<desc>
Creator: ROOT Version 5.32/00
CreationDate: Sat Nov 29 18:21:10 2014</desc>
<defs>
</defs>
<rect x="0" y="0" width="567" height="496" fill="white"/>
<rect x="0" y="0" width="567" height="347" fill="white"/>
<rect x="57" y="34" width="453" height="278" fill="white"/>
<rect x="57" y="34" width="453" height="278" fill="none" stroke="black"/>
<rect x="57" y="34" width="453" height="278" fill="white"/>
<rect x="57" y="34" width="453" height="278" fill="none" stroke="black"/>
<path d="M94,91h 3" fill="none" stroke="#ff0099"/>
<path d="M99,91h 3" fill="none" stroke="#ff0099"/>
<g stroke="#ff0099" stroke-width="1" fill="#ff0099">
<circle cx=" 98" cy=" 91" r=" 1.5"/>
</g>
<path d="M102,82h 3" fill="none" stroke="#ff0099"/>
<path d="M107,82h 3" fill="none" stroke="#ff0099"/>
<g stroke="#ff0099" stroke-width="1" fill="#ff0099">
<circle cx=" 106" cy=" 82" r=" 1.5"/>
</g>
<path d="M110,78h 2" fill="none" stroke="#ff0099"/>
<path d="M115,78h 2" fill="none" stroke="#ff0099"/>
<g stroke="#ff0099" stroke-width="1" fill="#ff0099">
<circle cx=" 113" cy=" 78" r=" 1.5"/>
</g>
<path d="M117,77h 3" fill="none" stroke="#ff0099"/>
<path d="M122,77h 3" fill="none" stroke="#ff0099"/>
<g stroke="#ff0099" stroke-width="1" fill="#ff0099">
<circle cx=" 121" cy=" 77" r=" 1.5"/>
</g>
<path d="M125,74h 2" fill="none" stroke="#ff0099"/>
<path d="M130,74h 2" fill="none" stroke="#ff0099"/>
<g stroke="#ff0099" stroke-width="1" fill="#ff0099">
<circle cx=" 129" cy=" 74" r=" 1.5"/>
</g>
<path d="M132,71h 3" fill="none" stroke="#ff0099"/>
<path d="M137,71h 3" fill="none" stroke="#ff0099"/>
<g stroke="#ff0099" stroke-width="1" fill="#ff0099">
<circle cx=" 136" cy=" 71" r=" 1.5"/>
</g>
<path d="M140,75h 2" fill="none" stroke="#ff0099"/>
<path d="M145,75h 2" fill="none" stroke="#ff0099"/>
<g stroke="#ff0099" stroke-width="1" fill="#ff0099">
<circle cx=" 144" cy=" 75" r=" 1.5"/>
</g>
<path d="M147,74h 3" fill="none" stroke="#ff0099"/>
<path d="M152,74h 3" fill="none" stroke="#ff0099"/>
<g stroke="#ff0099" stroke-width="1" fill="#ff0099">
<circle cx=" 151" cy=" 74" r=" 1.5"/>
</g>
<path d="M159,73" fill="none" stroke="#ff0099"/>
<path d="M155,72h 3" fill="none" stroke="#ff0099"/>
<path d="M160,72h 3" fill="none" stroke="#ff0099"/>
<g stroke="#ff0099" stroke-width="1" fill="#ff0099">
<circle cx=" 159" cy=" 72" r=" 1.5"/>
</g>
<path d="M166,90v -1" fill="none" stroke="#ff0099"/>
<path d="M166,86v -1" fill="none" stroke="#ff0099"/>
<path d="M163,88h 2" fill="none" stroke="#ff0099"/>
<path d="M167,88h 3" fill="none" stroke="#ff0099"/>
<g stroke="#ff0099" stroke-width="1" fill="#ff0099">
<circle cx=" 166" cy=" 88" r=" 1.5"/>
</g>
<path d="M401,102" fill="none" stroke="#ff0099"/>
<path d="M401,99" fill="none" stroke="#ff0099"/>
<path d="M397,101h 2" fill="none" stroke="#ff0099"/>
<path d="M402,101h 2" fill="none" stroke="#ff0099"/>
<g stroke="#ff0099" stroke-width="1" fill="#ff0099">
<circle cx=" 401" cy=" 101" r=" 1.5"/>
</g>
<path d="M408,76" fill="none" stroke="#ff0099"/>
<path d="M408,74" fill="none" stroke="#ff0099"/>
<path d="M404,75h 3" fill="none" stroke="#ff0099"/>
<path d="M409,75h 3" fill="none" stroke="#ff0099"/>
<g stroke="#ff0099" stroke-width="1" fill="#ff0099">
<circle cx=" 408" cy=" 75" r=" 1.5"/>
</g>
<path d="M412,74h 3" fill="none" stroke="#ff0099"/>
<path d="M417,74h 3" fill="none" stroke="#ff0099"/>
<g stroke="#ff0099" stroke-width="1" fill="#ff0099">
<circle cx=" 416" cy=" 74" r=" 1.5"/>
</g>
<path d="M420,74h 2" fill="none" stroke="#ff0099"/>
<path d="M424,74h 3" fill="none" stroke="#ff0099"/>
<g stroke="#ff0099" stroke-width="1" fill="#ff0099">
<circle cx=" 423" cy=" 74" r=" 1.5"/>
</g>
<path d="M427,72h 3" fill="none" stroke="#ff0099"/>
<path d="M432,72h 3" fill="none" stroke="#ff0099"/>
<g stroke="#ff0099" stroke-width="1" fill="#ff0099">
<circle cx=" 431" cy=" 72" r=" 1.5"/>
</g>
<path d="M435,75h 2" fill="none" stroke="#ff0099"/>
<path d="M440,75h 2" fill="none" stroke="#ff0099"/>
<g stroke="#ff0099" stroke-width="1" fill="#ff0099">
<circle cx=" 438" cy=" 75" r=" 1.5"/>
</g>
<path d="M442,76h 3" fill="none" stroke="#ff0099"/>
<path d="M447,76h 3" fill="none" stroke="#ff0099"/>
<g stroke="#ff0099" stroke-width="1" fill="#ff0099">
<circle cx=" 446" cy=" 76" r=" 1.5"/>
</g>
<path d="M450,80h 2" fill="none" stroke="#ff0099"/>
<path d="M455,80h 2" fill="none" stroke="#ff0099"/>
<g stroke="#ff0099" stroke-width="1" fill="#ff0099">
<circle cx=" 454" cy=" 80" r=" 1.5"/>
</g>
<path d="M457,81h 3" fill="none" stroke="#ff0099"/>
<path d="M462,81h 3" fill="none" stroke="#ff0099"/>
<g stroke="#ff0099" stroke-width="1" fill="#ff0099">
<circle cx=" 461" cy=" 81" r=" 1.5"/>
</g>
<path d="M465,87h 3" fill="none" stroke="#ff0099"/>
<path d="M470,87h 2" fill="none" stroke="#ff0099"/>
<g stroke="#ff0099" stroke-width="1" fill="#ff0099">
<circle cx=" 469" cy=" 87" r=" 1.5"/>
</g>
<path d="M57,312h 453" fill="none" stroke="black"/>
<text x="503" y="337" fill="black" font-size="13" font-family="Times">
&#0951;
</text>
<text x="499" y="337" fill="black" font-size="13" font-family="Helvetica" font-weight="bold">
 
</text>
<text x="492" y="337" fill="black" font-size="13" font-family="Times">
&#0947;
</text>
<path d="M57,304v 8" fill="none" stroke="black"/>
<path d="M72,308v 4" fill="none" stroke="black"/>
<path d="M87,308v 4" fill="none" stroke="black"/>
<path d="M102,308v 4" fill="none" stroke="black"/>
<path d="M117,308v 4" fill="none" stroke="black"/>
<path d="M132,304v 8" fill="none" stroke="black"/>
<path d="M147,308v 4" fill="none" stroke="black"/>
<path d="M163,308v 4" fill="none" stroke="black"/>
<path d="M178,308v 4" fill="none" stroke="black"/>
<path d="M193,308v 4" fill="none" stroke="black"/>
<path d="M208,304v 8" fill="none" stroke="black"/>
<path d="M223,308v 4" fill="none" stroke="black"/>
<path d="M238,308v 4" fill="none" stroke="black"/>
<path d="M253,308v 4" fill="none" stroke="black"/>
<path d="M268,308v 4" fill="none" stroke="black"/>
<path d="M283,304v 8" fill="none" stroke="black"/>
<path d="M299,308v 4" fill="none" stroke="black"/>
<path d="M314,308v 4" fill="none" stroke="black"/>
<path d="M329,308v 4" fill="none" stroke="black"/>
<path d="M344,308v 4" fill="none" stroke="black"/>
<path d="M359,304v 8" fill="none" stroke="black"/>
<path d="M374,308v 4" fill="none" stroke="black"/>
<path d="M389,308v 4" fill="none" stroke="black"/>
<path d="M404,308v 4" fill="none" stroke="black"/>
<path d="M420,308v 4" fill="none" stroke="black"/>
<path d="M435,304v 8" fill="none" stroke="black"/>
<path d="M450,308v 4" fill="none" stroke="black"/>
<path d="M465,308v 4" fill="none" stroke="black"/>
<path d="M480,308v 4" fill="none" stroke="black"/>
<path d="M495,308v 4" fill="none" stroke="black"/>
<path d="M510,304v 8" fill="none" stroke="black"/>
<text x="51" y="325" fill="black" font-size="13" font-family="Helvetica" font-weight="bold">
-3
</text>
<text x="126" y="325" fill="black" font-size="13" font-family="Helvetica" font-weight="bold">
-2
</text>
<text x="203" y="325" fill="black" font-size="13" font-family="Helvetica" font-weight="bold">
-1
</text>
<text x="280" y="325" fill="black" font-size="13" font-family="Helvetica" font-weight="bold">
0
</text>
<text x="356" y="325" fill="black" font-size="13" font-family="Helvetica" font-weight="bold">
1
</text>
<text x="431" y="325" fill="black" font-size="13" font-family="Helvetica" font-weight="bold">
2
</text>
<text x="507" y="325" fill="black" font-size="13" font-family="Helvetica" font-weight="bold">
3
</text>
<path d="M57,312v -278" fill="none" stroke="black"/>
<g transform="rotate(-90,28,99)">
<text x="28" y="99" fill="black" font-size="13" font-family="Helvetica" font-weight="bold">
Entries/0.1
</text>
</g>
<path d="M63,311h -6" fill="none" stroke="black"/>
<path d="M70,308h -13" fill="none" stroke="black"/>
<text x="44" y="308" fill="black" font-size="9" font-family="Helvetica" font-weight="bold">
-6
</text>
<text x="30" y="314" fill="black" font-size="13" font-family="Helvetica" font-weight="bold">
10
</text>
<path d="M63,294h -6" fill="none" stroke="black"/>
<path d="M63,285h -6" fill="none" stroke="black"/>
<path d="M63,279h -6" fill="none" stroke="black"/>
<path d="M63,274h -6" fill="none" stroke="black"/>
<path d="M63,270h -6" fill="none" stroke="black"/>
<path d="M63,267h -6" fill="none" stroke="black"/>
<path d="M63,264h -6" fill="none" stroke="black"/>
<path d="M63,261h -6" fill="none" stroke="black"/>
<path d="M70,259h -13" fill="none" stroke="black"/>
<text x="44" y="258" fill="black" font-size="9" font-family="Helvetica" font-weight="bold">
-5
</text>
<text x="30" y="265" fill="black" font-size="13" font-family="Helvetica" font-weight="bold">
10
</text>
<path d="M63,244h -6" fill="none" stroke="black"/>
<path d="M63,236h -6" fill="none" stroke="black"/>
<path d="M63,230h -6" fill="none" stroke="black"/>
<path d="M63,225h -6" fill="none" stroke="black"/>
<path d="M63,221h -6" fill="none" stroke="black"/>
<path d="M63,218h -6" fill="none" stroke="black"/>
<path d="M63,215h -6" fill="none" stroke="black"/>
<path d="M63,212h -6" fill="none" stroke="black"/>
<path d="M70,210h -13" fill="none" stroke="black"/>
<text x="44" y="210" fill="black" font-size="9" font-family="Helvetica" font-weight="bold">
-4
</text>
<text x="30" y="216" fill="black" font-size="13" font-family="Helvetica" font-weight="bold">
10
</text>
<path d="M63,195h -6" fill="none" stroke="black"/>
<path d="M63,187h -6" fill="none" stroke="black"/>
<path d="M63,181h -6" fill="none" stroke="black"/>
<path d="M63,176h -6" fill="none" stroke="black"/>
<path d="M63,172h -6" fill="none" stroke="black"/>
<path d="M63,169h -6" fill="none" stroke="black"/>
<path d="M63,166h -6" fill="none" stroke="black"/>
<path d="M63,163h -6" fill="none" stroke="black"/>
<path d="M70,161h -13" fill="none" stroke="black"/>
<text x="44" y="160" fill="black" font-size="9" font-family="Helvetica" font-weight="bold">
-3
</text>
<text x="30" y="167" fill="black" font-size="13" font-family="Helvetica" font-weight="bold">
10
</text>
<path d="M63,146h -6" fill="none" stroke="black"/>
<path d="M63,138h -6" fill="none" stroke="black"/>
<path d="M63,132h -6" fill="none" stroke="black"/>
<path d="M63,127h -6" fill="none" stroke="black"/>
<path d="M63,123h -6" fill="none" stroke="black"/>
<path d="M63,120h -6" fill="none" stroke="black"/>
<path d="M63,117h -6" fill="none" stroke="black"/>
<path d="M63,114h -6" fill="none" stroke="black"/>
<path d="M70,112h -13" fill="none" stroke="black"/>
<text x="44" y="112" fill="black" font-size="9" font-family="Helvetica" font-weight="bold">
-2
</text>
<text x="30" y="118" fill="black" font-size="13" font-family="Helvetica" font-weight="bold">
10
</text>
<path d="M63,97h -6" fill="none" stroke="black"/>
<path d="M63,89h -6" fill="none" stroke="black"/>
<path d="M63,82h -6" fill="none" stroke="black"/>
<path d="M63,78h -6" fill="none" stroke="black"/>
<path d="M63,74h -6" fill="none" stroke="black"/>
<path d="M63,71h -6" fill="none" stroke="black"/>
<path d="M63,68h -6" fill="none" stroke="black"/>
<path d="M63,65h -6" fill="none" stroke="black"/>
<path d="M70,63h -13" fill="none" stroke="black"/>
<text x="46" y="63" fill="black" font-size="9" font-family="Helvetica" font-weight="bold">
-1
</text>
<text x="31" y="69" fill="black" font-size="13" font-family="Helvetica" font-weight="bold">
10
</text>
<path d="M63,48h -6" fill="none" stroke="black"/>
<path d="M63,40h -6" fill="none" stroke="black"/>
<path d="M98,81v -1" fill="none" stroke="#99ff99" stroke-width="2"/>
<path d="M98,80" fill="none" stroke="#99ff99" stroke-width="2"/>
<g stroke="black" stroke-width="2" fill="none">
<line x1="97" y1="80" x2="98" y2="80"/>
</g>
<path d="M106,76v -1" fill="none" stroke="#99ff99" stroke-width="2"/>
<path d="M106,75" fill="none" stroke="#99ff99" stroke-width="2"/>
<g stroke="black" stroke-width="2" fill="none">
<line x1="105" y1="75" x2="106" y2="75"/>
</g>
<path d="M113,76" fill="none" stroke="#99ff99" stroke-width="2"/>
<path d="M113,76v -1" fill="none" stroke="#99ff99" stroke-width="2"/>
<g stroke="black" stroke-width="2" fill="none">
<line x1="112" y1="76" x2="113" y2="76"/>
</g>
<path d="M121,76" fill="none" stroke="#99ff99" stroke-width="2"/>
<path d="M121,76v -1" fill="none" stroke="#99ff99" stroke-width="2"/>
<g stroke="black" stroke-width="2" fill="none">
<line x1="120" y1="76" x2="121" y2="76"/>
</g>
<path d="M129,77v -1" fill="none" stroke="#99ff99" stroke-width="2"/>
<path d="M129,76" fill="none" stroke="#99ff99" stroke-width="2"/>
<g stroke="black" stroke-width="2" fill="none">
<line x1="128" y1="76" x2="129" y2="76"/>
</g>
<path d="M136,75" fill="none" stroke="#99ff99" stroke-width="2"/>
<path d="M136,75v -1" fill="none" stroke="#99ff99" stroke-width="2"/>
<g stroke="black" stroke-width="2" fill="none">
<line x1="135" y1="75" x2="136" y2="75"/>
</g>
<path d="M144,77" fill="none" stroke="#99ff99" stroke-width="2"/>
<path d="M144,77v -1" fill="none" stroke="#99ff99" stroke-width="2"/>
<g stroke="black" stroke-width="2" fill="none">
<line x1="143" y1="77" x2="144" y2="77"/>
</g>
<path d="M151,77v -1" fill="none" stroke="#99ff99" stroke-width="2"/>
<path d="M151,76" fill="none" stroke="#99ff99" stroke-width="2"/>
<g stroke="black" stroke-width="2" fill="none">
<line x1="150" y1="76" x2="151" y2="76"/>
</g>
<path d="M159,77" fill="none" stroke="#99ff99" stroke-width="2"/>
<path d="M159,77v -1" fill="none" stroke="#99ff99" stroke-width="2"/>
<g stroke="black" stroke-width="2" fill="none">
<line x1="158" y1="77" x2="159" y2="77"/>
</g>
<path d="M166,100" fill="none" stroke="#99ff99" stroke-width="2"/>
<path d="M166,100v -1" fill="none" stroke="#99ff99" stroke-width="2"/>
<g stroke="black" stroke-width="2" fill="none">
<line x1="165" y1="100" x2="166" y2="100"/>
</g>
<path d="M401,102" fill="none" stroke="#99ff99" stroke-width="2"/>
<path d="M401,102v -1" fill="none" stroke="#99ff99" stroke-width="2"/>
<g stroke="black" stroke-width="2" fill="none">
<line x1="400" y1="102" x2="401" y2="102"/>
</g>
<path d="M408,79" fill="none" stroke="#99ff99" stroke-width="2"/>
<path d="M408,79v -1" fill="none" stroke="#99ff99" stroke-width="2"/>
<g stroke="black" stroke-width="2" fill="none">
<line x1="407" y1="79" x2="408" y2="79"/>
</g>
<path d="M416,77" fill="none" stroke="#99ff99" stroke-width="2"/>
<path d="M416,77v -1" fill="none" stroke="#99ff99" stroke-width="2"/>
<g stroke="black" stroke-width="2" fill="none">
<line x1="415" y1="77" x2="416" y2="77"/>
</g>
<path d="M423,77" fill="none" stroke="#99ff99" stroke-width="2"/>
<path d="M423,77v -1" fill="none" stroke="#99ff99" stroke-width="2"/>
<g stroke="black" stroke-width="2" fill="none">
<line x1="422" y1="77" x2="423" y2="77"/>
</g>
<path d="M431,76" fill="none" stroke="#99ff99" stroke-width="2"/>
<path d="M431,76v -1" fill="none" stroke="#99ff99" stroke-width="2"/>
<g stroke="black" stroke-width="2" fill="none">
<line x1="430" y1="76" x2="431" y2="76"/>
</g>
<path d="M438,75v -1" fill="none" stroke="#99ff99" stroke-width="2"/>
<path d="M438,74" fill="none" stroke="#99ff99" stroke-width="2"/>
<g stroke="black" stroke-width="2" fill="none">
<line x1="437" y1="74" x2="438" y2="74"/>
</g>
<path d="M446,76v -1" fill="none" stroke="#99ff99" stroke-width="2"/>
<path d="M446,75" fill="none" stroke="#99ff99" stroke-width="2"/>
<g stroke="black" stroke-width="2" fill="none">
<line x1="445" y1="75" x2="446" y2="75"/>
</g>
<path d="M454,75v -1" fill="none" stroke="#99ff99" stroke-width="2"/>
<path d="M454,74" fill="none" stroke="#99ff99" stroke-width="2"/>
<g stroke="black" stroke-width="2" fill="none">
<line x1="453" y1="74" x2="454" y2="74"/>
</g>
<path d="M461,74" fill="none" stroke="#99ff99" stroke-width="2"/>
<path d="M461,74" fill="none" stroke="#99ff99" stroke-width="2"/>
<g stroke="black" stroke-width="2" fill="none">
<line x1="460" y1="74" x2="461" y2="74"/>
</g>
<path d="M469,81" fill="none" stroke="#99ff99" stroke-width="2"/>
<path d="M469,81v -1" fill="none" stroke="#99ff99" stroke-width="2"/>
<g stroke="black" stroke-width="2" fill="none">
<line x1="468" y1="81" x2="469" y2="81"/>
</g>
<path d="M57,312h 37v -232h 8v -5h 8v 1h 22v -1h 8v 2h 7v -1h 8v 1h 8v 23h 7v 212h 227v -210h 7v -23h 8v -2h 15v -1h 8v -2h 7v 1h 8v -1h 15v 7h 7v 231h 38z" fill="#99ff99"/>
<path d="M57,312h 37v -232h 8v -5h 8v 1h 22v -1h 8v 2h 7v -1h 8v 1h 8v 23h 7v 212h 227v -210h 7v -23h 8v -2h 15v -1h 8v -2h 7v 1h 8v -1h 15v 7h 7v 231h 38" fill="none" stroke="#99ff99" stroke-width="2"/>
<path d="M94,91h 3" fill="none" stroke="#ff0099"/>
<path d="M99,91h 3" fill="none" stroke="#ff0099"/>
<g stroke="#ff0099" stroke-width="1" fill="#ff0099">
<circle cx=" 98" cy=" 91" r=" 1.5"/>
</g>
<path d="M102,82h 3" fill="none" stroke="#ff0099"/>
<path d="M107,82h 3" fill="none" stroke="#ff0099"/>
<g stroke="#ff0099" stroke-width="1" fill="#ff0099">
<circle cx=" 106" cy=" 82" r=" 1.5"/>
</g>
<path d="M110,78h 2" fill="none" stroke="#ff0099"/>
<path d="M115,78h 2" fill="none" stroke="#ff0099"/>
<g stroke="#ff0099" stroke-width="1" fill="#ff0099">
<circle cx=" 113" cy=" 78" r=" 1.5"/>
</g>
<path d="M117,77h 3" fill="none" stroke="#ff0099"/>
<path d="M122,77h 3" fill="none" stroke="#ff0099"/>
<g stroke="#ff0099" stroke-width="1" fill="#ff0099">
<circle cx=" 121" cy=" 77" r=" 1.5"/>
</g>
<path d="M125,74h 2" fill="none" stroke="#ff0099"/>
<path d="M130,74h 2" fill="none" stroke="#ff0099"/>
<g stroke="#ff0099" stroke-width="1" fill="#ff0099">
<circle cx=" 129" cy=" 74" r=" 1.5"/>
</g>
<path d="M132,71h 3" fill="none" stroke="#ff0099"/>
<path d="M137,71h 3" fill="none" stroke="#ff0099"/>
<g stroke="#ff0099" stroke-width="1" fill="#ff0099">
<circle cx=" 136" cy=" 71" r=" 1.5"/>
</g>
<path d="M140,75h 2" fill="none" stroke="#ff0099"/>
<path d="M145,75h 2" fill="none" stroke="#ff0099"/>
<g stroke="#ff0099" stroke-width="1" fill="#ff0099">
<circle cx=" 144" cy=" 75" r=" 1.5"/>
</g>
<path d="M147,74h 3" fill="none" stroke="#ff0099"/>
<path d="M152,74h 3" fill="none" stroke="#ff0099"/>
<g stroke="#ff0099" stroke-width="1" fill="#ff0099">
<circle cx=" 151" cy=" 74" r=" 1.5"/>
</g>
<path d="M159,73" fill="none" stroke="#ff0099"/>
<path d="M155,72h 3" fill="none" stroke="#ff0099"/>
<path d="M160,72h 3" fill="none" stroke="#ff0099"/>
<g stroke="#ff0099" stroke-width="1" fill="#ff0099">
<circle cx=" 159" cy=" 72" r=" 1.5"/>
</g>
<path d="M166,90v -1" fill="none" stroke="#ff0099"/>
<path d="M166,86v -1" fill="none" stroke="#ff0099"/>
<path d="M163,88h 2" fill="none" stroke="#ff0099"/>
<path d="M167,88h 3" fill="none" stroke="#ff0099"/>
<g stroke="#ff0099" stroke-width="1" fill="#ff0099">
<circle cx=" 166" cy=" 88" r=" 1.5"/>
</g>
<path d="M401,102" fill="none" stroke="#ff0099"/>
<path d="M401,99" fill="none" stroke="#ff0099"/>
<path d="M397,101h 2" fill="none" stroke="#ff0099"/>
<path d="M402,101h 2" fill="none" stroke="#ff0099"/>
<g stroke="#ff0099" stroke-width="1" fill="#ff0099">
<circle cx=" 401" cy=" 101" r=" 1.5"/>
</g>
<path d="M408,76" fill="none" stroke="#ff0099"/>
<path d="M408,74" fill="none" stroke="#ff0099"/>
<path d="M404,75h 3" fill="none" stroke="#ff0099"/>
<path d="M409,75h 3" fill="none" stroke="#ff0099"/>
<g stroke="#ff0099" stroke-width="1" fill="#ff0099">
<circle cx=" 408" cy=" 75" r=" 1.5"/>
</g>
<path d="M412,74h 3" fill="none" stroke="#ff0099"/>
<path d="M417,74h 3" fill="none" stroke="#ff0099"/>
<g stroke="#ff0099" stroke-width="1" fill="#ff0099">
<circle cx=" 416" cy=" 74" r=" 1.5"/>
</g>
<path d="M420,74h 2" fill="none" stroke="#ff0099"/>
<path d="M424,74h 3" fill="none" stroke="#ff0099"/>
<g stroke="#ff0099" stroke-width="1" fill="#ff0099">
<circle cx=" 423" cy=" 74" r=" 1.5"/>
</g>
<path d="M427,72h 3" fill="none" stroke="#ff0099"/>
<path d="M432,72h 3" fill="none" stroke="#ff0099"/>
<g stroke="#ff0099" stroke-width="1" fill="#ff0099">
<circle cx=" 431" cy=" 72" r=" 1.5"/>
</g>
<path d="M435,75h 2" fill="none" stroke="#ff0099"/>
<path d="M440,75h 2" fill="none" stroke="#ff0099"/>
<g stroke="#ff0099" stroke-width="1" fill="#ff0099">
<circle cx=" 438" cy=" 75" r=" 1.5"/>
</g>
<path d="M442,76h 3" fill="none" stroke="#ff0099"/>
<path d="M447,76h 3" fill="none" stroke="#ff0099"/>
<g stroke="#ff0099" stroke-width="1" fill="#ff0099">
<circle cx=" 446" cy=" 76" r=" 1.5"/>
</g>
<path d="M450,80h 2" fill="none" stroke="#ff0099"/>
<path d="M455,80h 2" fill="none" stroke="#ff0099"/>
<g stroke="#ff0099" stroke-width="1" fill="#ff0099">
<circle cx=" 454" cy=" 80" r=" 1.5"/>
</g>
<path d="M457,81h 3" fill="none" stroke="#ff0099"/>
<path d="M462,81h 3" fill="none" stroke="#ff0099"/>
<g stroke="#ff0099" stroke-width="1" fill="#ff0099">
<circle cx=" 461" cy=" 81" r=" 1.5"/>
</g>
<path d="M465,87h 3" fill="none" stroke="#ff0099"/>
<path d="M470,87h 2" fill="none" stroke="#ff0099"/>
<g stroke="#ff0099" stroke-width="1" fill="#ff0099">
<circle cx=" 469" cy=" 87" r=" 1.5"/>
</g>
<rect x="357" y="41" width="142" height="70" fill="white"/>
<text x="360" y="58" fill="black" font-size="12" font-family="Helvetica" font-weight="bold">
EE
</text>
<text x="439" y="81" fill="black" font-size="12" font-family="Helvetica" font-weight="bold">
 ee
</text>
<text x="426" y="81" fill="black" font-size="12" font-family="Times">
&#8594;
</text>
<text x="392" y="81" fill="black" font-size="12" font-family="Helvetica" font-weight="bold">
MC Z 
</text>
<path d="M362,76h 25" fill="none" stroke="#ff0099"/>
<g stroke="#ff0099" stroke-width="1" fill="#ff0099">
<circle cx=" 375" cy=" 76" r=" 1.5"/>
</g>
<text x="438" y="102" fill="black" font-size="12" font-family="Helvetica" font-weight="bold">
 + jet
</text>
<text x="431" y="102" fill="black" font-size="12" font-family="Times">
&#0947;
</text>
<text x="392" y="102" fill="black" font-size="12" font-family="Helvetica" font-weight="bold">
signal 
</text>
<path d="M362,107h 25v -16h -25z" fill="#99ff99"/>
<path d="M362,91h 25" fill="none" stroke="#99ff99" stroke-width="2"/>
<path d="M362,107h 25" fill="none" stroke="#99ff99" stroke-width="2"/>
<path d="M387,107v -16" fill="none" stroke="#99ff99" stroke-width="2"/>
<path d="M362,107v -16" fill="none" stroke="#99ff99" stroke-width="2"/>
<text x="252" y="24" fill="black" font-size="12" font-family="Helvetica" font-weight="bold">
=8 TeV
</text>
<text x="246" y="24" fill="black" font-size="12" font-family="Helvetica" font-weight="bold">
s
</text>
<path d="M242,17l 1, 8" fill="none" stroke="black" stroke-width="2"/>
<path d="M243,25l 2, -11" fill="none" stroke="black"/>
<path d="M245,14h 7" fill="none" stroke="black"/>
<text x="142" y="24" fill="black" font-size="12" font-family="Helvetica" font-weight="bold">
CMS Preliminary 
</text>
<rect x="0" y="347" width="567" height="149" fill="white"/>
<rect x="57" y="362" width="453" height="104" fill="white"/>
<rect x="57" y="362" width="453" height="104" fill="none" stroke="black"/>
<rect x="57" y="362" width="453" height="104" fill="white"/>
<rect x="57" y="362" width="453" height="104" fill="none" stroke="black"/>
<path d="M57,466h 453" fill="none" stroke="black"/>
<path d="M57,466v -104" fill="none" stroke="black"/>
<path d="M510,455h -453" fill="none" stroke="black" stroke-dasharray=" 1, 2"/>
<path d="M510,436h -453" fill="none" stroke="black" stroke-dasharray=" 1, 2"/>
<path d="M510,418h -453" fill="none" stroke="black" stroke-dasharray=" 1, 2"/>
<path d="M510,399h -453" fill="none" stroke="black" stroke-dasharray=" 1, 2"/>
<path d="M510,381h -453" fill="none" stroke="black" stroke-dasharray=" 1, 2"/>
<path d="M510,362h -453" fill="none" stroke="black" stroke-dasharray=" 1, 2"/>
<path d="M510,455h -453" fill="none" stroke="black" stroke-dasharray=" 1, 2"/>
<path d="M98,452" fill="none" stroke="#ff0099"/>
<path d="M98,450" fill="none" stroke="#ff0099"/>
<path d="M94,451h 3" fill="none" stroke="#ff0099"/>
<path d="M99,451h 3" fill="none" stroke="#ff0099"/>
<g stroke="#ff0099" stroke-width="1" fill="#ff0099">
<circle cx=" 98" cy=" 451" r=" 1.5"/>
</g>
<path d="M106,447" fill="none" stroke="#ff0099"/>
<path d="M106,445" fill="none" stroke="#ff0099"/>
<path d="M102,446h 3" fill="none" stroke="#ff0099"/>
<path d="M107,446h 3" fill="none" stroke="#ff0099"/>
<g stroke="#ff0099" stroke-width="1" fill="#ff0099">
<circle cx=" 106" cy=" 446" r=" 1.5"/>
</g>
<path d="M113,442v -1" fill="none" stroke="#ff0099"/>
<path d="M113,439v -1" fill="none" stroke="#ff0099"/>
<path d="M110,440h 2" fill="none" stroke="#ff0099"/>
<path d="M115,440h 2" fill="none" stroke="#ff0099"/>
<g stroke="#ff0099" stroke-width="1" fill="#ff0099">
<circle cx=" 113" cy=" 440" r=" 1.5"/>
</g>
<path d="M121,441v -1" fill="none" stroke="#ff0099"/>
<path d="M121,438v -1" fill="none" stroke="#ff0099"/>
<path d="M117,439h 3" fill="none" stroke="#ff0099"/>
<path d="M122,439h 3" fill="none" stroke="#ff0099"/>
<g stroke="#ff0099" stroke-width="1" fill="#ff0099">
<circle cx=" 121" cy=" 439" r=" 1.5"/>
</g>
<path d="M129,435v -1" fill="none" stroke="#ff0099"/>
<path d="M129,432v -1" fill="none" stroke="#ff0099"/>
<path d="M125,433h 2" fill="none" stroke="#ff0099"/>
<path d="M130,433h 2" fill="none" stroke="#ff0099"/>
<g stroke="#ff0099" stroke-width="1" fill="#ff0099">
<circle cx=" 129" cy=" 433" r=" 1.5"/>
</g>
<path d="M136,431v -1" fill="none" stroke="#ff0099"/>
<path d="M136,428v -1" fill="none" stroke="#ff0099"/>
<path d="M132,429h 3" fill="none" stroke="#ff0099"/>
<path d="M137,429h 3" fill="none" stroke="#ff0099"/>
<g stroke="#ff0099" stroke-width="1" fill="#ff0099">
<circle cx=" 136" cy=" 429" r=" 1.5"/>
</g>
<path d="M144,435v -1" fill="none" stroke="#ff0099"/>
<path d="M144,432v -1" fill="none" stroke="#ff0099"/>
<path d="M140,433h 2" fill="none" stroke="#ff0099"/>
<path d="M145,433h 2" fill="none" stroke="#ff0099"/>
<g stroke="#ff0099" stroke-width="1" fill="#ff0099">
<circle cx=" 144" cy=" 433" r=" 1.5"/>
</g>
<path d="M151,433v -1" fill="none" stroke="#ff0099"/>
<path d="M151,430v -1" fill="none" stroke="#ff0099"/>
<path d="M147,431h 3" fill="none" stroke="#ff0099"/>
<path d="M152,431h 3" fill="none" stroke="#ff0099"/>
<g stroke="#ff0099" stroke-width="1" fill="#ff0099">
<circle cx=" 151" cy=" 431" r=" 1.5"/>
</g>
<path d="M159,429v -1" fill="none" stroke="#ff0099"/>
<path d="M159,426v -2" fill="none" stroke="#ff0099"/>
<path d="M155,427h 3" fill="none" stroke="#ff0099"/>
<path d="M160,427h 3" fill="none" stroke="#ff0099"/>
<g stroke="#ff0099" stroke-width="1" fill="#ff0099">
<circle cx=" 159" cy=" 427" r=" 1.5"/>
</g>
<path d="M166,415v -6" fill="none" stroke="#ff0099"/>
<path d="M166,407v -6" fill="none" stroke="#ff0099"/>
<path d="M163,408h 2" fill="none" stroke="#ff0099"/>
<path d="M167,408h 3" fill="none" stroke="#ff0099"/>
<g stroke="#ff0099" stroke-width="1" fill="#ff0099">
<circle cx=" 166" cy=" 408" r=" 1.5"/>
</g>
<path d="M401,438v -2" fill="none" stroke="#ff0099"/>
<path d="M401,433v -2" fill="none" stroke="#ff0099"/>
<path d="M397,434h 2" fill="none" stroke="#ff0099"/>
<path d="M402,434h 2" fill="none" stroke="#ff0099"/>
<g stroke="#ff0099" stroke-width="1" fill="#ff0099">
<circle cx=" 401" cy=" 434" r=" 1.5"/>
</g>
<path d="M408,432v -2" fill="none" stroke="#ff0099"/>
<path d="M408,428v -1" fill="none" stroke="#ff0099"/>
<path d="M404,429h 3" fill="none" stroke="#ff0099"/>
<path d="M409,429h 3" fill="none" stroke="#ff0099"/>
<g stroke="#ff0099" stroke-width="1" fill="#ff0099">
<circle cx=" 408" cy=" 429" r=" 1.5"/>
</g>
<path d="M416,434v -1" fill="none" stroke="#ff0099"/>
<path d="M416,431v -1" fill="none" stroke="#ff0099"/>
<path d="M412,432h 3" fill="none" stroke="#ff0099"/>
<path d="M417,432h 3" fill="none" stroke="#ff0099"/>
<g stroke="#ff0099" stroke-width="1" fill="#ff0099">
<circle cx=" 416" cy=" 432" r=" 1.5"/>
</g>
<path d="M423,433v -1" fill="none" stroke="#ff0099"/>
<path d="M423,430v -2" fill="none" stroke="#ff0099"/>
<path d="M420,431h 2" fill="none" stroke="#ff0099"/>
<path d="M424,431h 3" fill="none" stroke="#ff0099"/>
<g stroke="#ff0099" stroke-width="1" fill="#ff0099">
<circle cx=" 423" cy=" 431" r=" 1.5"/>
</g>
<path d="M431,432v -1" fill="none" stroke="#ff0099"/>
<path d="M431,429v -1" fill="none" stroke="#ff0099"/>
<path d="M427,430h 3" fill="none" stroke="#ff0099"/>
<path d="M432,430h 3" fill="none" stroke="#ff0099"/>
<g stroke="#ff0099" stroke-width="1" fill="#ff0099">
<circle cx=" 431" cy=" 430" r=" 1.5"/>
</g>
<path d="M438,440v -1" fill="none" stroke="#ff0099"/>
<path d="M438,437v -1" fill="none" stroke="#ff0099"/>
<path d="M435,438h 2" fill="none" stroke="#ff0099"/>
<path d="M440,438h 2" fill="none" stroke="#ff0099"/>
<g stroke="#ff0099" stroke-width="1" fill="#ff0099">
<circle cx=" 438" cy=" 438" r=" 1.5"/>
</g>
<path d="M446,440v -1" fill="none" stroke="#ff0099"/>
<path d="M446,437v -1" fill="none" stroke="#ff0099"/>
<path d="M442,438h 3" fill="none" stroke="#ff0099"/>
<path d="M447,438h 3" fill="none" stroke="#ff0099"/>
<g stroke="#ff0099" stroke-width="1" fill="#ff0099">
<circle cx=" 446" cy=" 438" r=" 1.5"/>
</g>
<path d="M454,447" fill="none" stroke="#ff0099"/>
<path d="M454,445" fill="none" stroke="#ff0099"/>
<path d="M450,446h 2" fill="none" stroke="#ff0099"/>
<path d="M455,446h 2" fill="none" stroke="#ff0099"/>
<g stroke="#ff0099" stroke-width="1" fill="#ff0099">
<circle cx=" 454" cy=" 446" r=" 1.5"/>
</g>
<path d="M461,448" fill="none" stroke="#ff0099"/>
<path d="M461,446" fill="none" stroke="#ff0099"/>
<path d="M457,447h 3" fill="none" stroke="#ff0099"/>
<path d="M462,447h 3" fill="none" stroke="#ff0099"/>
<g stroke="#ff0099" stroke-width="1" fill="#ff0099">
<circle cx=" 461" cy=" 447" r=" 1.5"/>
</g>
<path d="M469,448" fill="none" stroke="#ff0099"/>
<path d="M469,445" fill="none" stroke="#ff0099"/>
<path d="M465,447h 3" fill="none" stroke="#ff0099"/>
<path d="M470,447h 2" fill="none" stroke="#ff0099"/>
<g stroke="#ff0099" stroke-width="1" fill="#ff0099">
<circle cx=" 469" cy=" 447" r=" 1.5"/>
</g>
<path d="M57,466h 453" fill="none" stroke="black"/>
<text x="504" y="487" fill="black" font-size="11" font-family="Times">
&#0951;
</text>
<text x="501" y="487" fill="black" font-size="11" font-family="Helvetica" font-weight="bold">
 
</text>
<text x="495" y="487" fill="black" font-size="11" font-family="Times">
&#0947;
</text>
<path d="M57,463v 3" fill="none" stroke="black"/>
<path d="M72,464v 2" fill="none" stroke="black"/>
<path d="M87,464v 2" fill="none" stroke="black"/>
<path d="M102,464v 2" fill="none" stroke="black"/>
<path d="M117,464v 2" fill="none" stroke="black"/>
<path d="M132,463v 3" fill="none" stroke="black"/>
<path d="M147,464v 2" fill="none" stroke="black"/>
<path d="M163,464v 2" fill="none" stroke="black"/>
<path d="M178,464v 2" fill="none" stroke="black"/>
<path d="M193,464v 2" fill="none" stroke="black"/>
<path d="M208,463v 3" fill="none" stroke="black"/>
<path d="M223,464v 2" fill="none" stroke="black"/>
<path d="M238,464v 2" fill="none" stroke="black"/>
<path d="M253,464v 2" fill="none" stroke="black"/>
<path d="M268,464v 2" fill="none" stroke="black"/>
<path d="M283,463v 3" fill="none" stroke="black"/>
<path d="M299,464v 2" fill="none" stroke="black"/>
<path d="M314,464v 2" fill="none" stroke="black"/>
<path d="M329,464v 2" fill="none" stroke="black"/>
<path d="M344,464v 2" fill="none" stroke="black"/>
<path d="M359,463v 3" fill="none" stroke="black"/>
<path d="M374,464v 2" fill="none" stroke="black"/>
<path d="M389,464v 2" fill="none" stroke="black"/>
<path d="M404,464v 2" fill="none" stroke="black"/>
<path d="M420,464v 2" fill="none" stroke="black"/>
<path d="M435,463v 3" fill="none" stroke="black"/>
<path d="M450,464v 2" fill="none" stroke="black"/>
<path d="M465,464v 2" fill="none" stroke="black"/>
<path d="M480,464v 2" fill="none" stroke="black"/>
<path d="M495,464v 2" fill="none" stroke="black"/>
<path d="M510,463v 3" fill="none" stroke="black"/>
<text x="52" y="475" fill="black" font-size="10" font-family="Helvetica" font-weight="bold">
-3
</text>
<text x="128" y="475" fill="black" font-size="10" font-family="Helvetica" font-weight="bold">
-2
</text>
<text x="204" y="475" fill="black" font-size="10" font-family="Helvetica" font-weight="bold">
-1
</text>
<text x="281" y="475" fill="black" font-size="10" font-family="Helvetica" font-weight="bold">
0
</text>
<text x="356" y="475" fill="black" font-size="10" font-family="Helvetica" font-weight="bold">
1
</text>
<text x="431" y="475" fill="black" font-size="10" font-family="Helvetica" font-weight="bold">
2
</text>
<text x="507" y="475" fill="black" font-size="10" font-family="Helvetica" font-weight="bold">
3
</text>
<path d="M57,466v -104" fill="none" stroke="black"/>
<g transform="rotate(-90,34,365)">
<text x="34" y="365" fill="black" font-size="11" font-family="Helvetica" font-weight="bold">
)
</text>
</g>
<g transform="rotate(-90,34,371)">
<text x="34" y="371" fill="black" font-size="11" font-family="Times">
&#0947;
</text>
</g>
<g transform="rotate(-90,34,424)">
<text x="34" y="424" fill="black" font-size="11" font-family="Helvetica" font-weight="bold">
MC(e)/MC(
</text>
</g>
<path d="M69,455h -12" fill="none" stroke="black"/>
<path d="M63,451h -6" fill="none" stroke="black"/>
<path d="M63,448h -6" fill="none" stroke="black"/>
<path d="M63,444h -6" fill="none" stroke="black"/>
<path d="M63,440h -6" fill="none" stroke="black"/>
<path d="M69,436h -12" fill="none" stroke="black"/>
<path d="M63,433h -6" fill="none" stroke="black"/>
<path d="M63,429h -6" fill="none" stroke="black"/>
<path d="M63,425h -6" fill="none" stroke="black"/>
<path d="M63,422h -6" fill="none" stroke="black"/>
<path d="M69,418h -12" fill="none" stroke="black"/>
<path d="M63,414h -6" fill="none" stroke="black"/>
<path d="M63,410h -6" fill="none" stroke="black"/>
<path d="M63,407h -6" fill="none" stroke="black"/>
<path d="M63,403h -6" fill="none" stroke="black"/>
<path d="M69,399h -12" fill="none" stroke="black"/>
<path d="M63,395h -6" fill="none" stroke="black"/>
<path d="M63,392h -6" fill="none" stroke="black"/>
<path d="M63,388h -6" fill="none" stroke="black"/>
<path d="M63,384h -6" fill="none" stroke="black"/>
<path d="M69,381h -12" fill="none" stroke="black"/>
<path d="M63,377h -6" fill="none" stroke="black"/>
<path d="M63,373h -6" fill="none" stroke="black"/>
<path d="M63,369h -6" fill="none" stroke="black"/>
<path d="M63,366h -6" fill="none" stroke="black"/>
<path d="M69,362h -12" fill="none" stroke="black"/>
<path d="M69,455h -12" fill="none" stroke="black"/>
<path d="M63,459h -6" fill="none" stroke="black"/>
<path d="M63,462h -6" fill="none" stroke="black"/>
<path d="M63,466h -6" fill="none" stroke="black"/>
<text x="40" y="459" fill="black" font-size="10" font-family="Helvetica" font-weight="bold">
0.5
</text>
<text x="50" y="440" fill="black" font-size="10" font-family="Helvetica" font-weight="bold">
1
</text>
<text x="40" y="421" fill="black" font-size="10" font-family="Helvetica" font-weight="bold">
1.5
</text>
<text x="48" y="403" fill="black" font-size="10" font-family="Helvetica" font-weight="bold">
2
</text>
<text x="40" y="384" fill="black" font-size="10" font-family="Helvetica" font-weight="bold">
2.5
</text>
<text x="48" y="366" fill="black" font-size="10" font-family="Helvetica" font-weight="bold">
3
</text>
<path d="M57,436h 453" fill="none" stroke="#0000ff" stroke-width="2"/>
<path d="M98,452" fill="none" stroke="#ff0099"/>
<path d="M98,450" fill="none" stroke="#ff0099"/>
<path d="M94,451h 3" fill="none" stroke="#ff0099"/>
<path d="M99,451h 3" fill="none" stroke="#ff0099"/>
<g stroke="#ff0099" stroke-width="1" fill="#ff0099">
<circle cx=" 98" cy=" 451" r=" 1.5"/>
</g>
<path d="M106,447" fill="none" stroke="#ff0099"/>
<path d="M106,445" fill="none" stroke="#ff0099"/>
<path d="M102,446h 3" fill="none" stroke="#ff0099"/>
<path d="M107,446h 3" fill="none" stroke="#ff0099"/>
<g stroke="#ff0099" stroke-width="1" fill="#ff0099">
<circle cx=" 106" cy=" 446" r=" 1.5"/>
</g>
<path d="M113,442v -1" fill="none" stroke="#ff0099"/>
<path d="M113,439v -1" fill="none" stroke="#ff0099"/>
<path d="M110,440h 2" fill="none" stroke="#ff0099"/>
<path d="M115,440h 2" fill="none" stroke="#ff0099"/>
<g stroke="#ff0099" stroke-width="1" fill="#ff0099">
<circle cx=" 113" cy=" 440" r=" 1.5"/>
</g>
<path d="M121,441v -1" fill="none" stroke="#ff0099"/>
<path d="M121,438v -1" fill="none" stroke="#ff0099"/>
<path d="M117,439h 3" fill="none" stroke="#ff0099"/>
<path d="M122,439h 3" fill="none" stroke="#ff0099"/>
<g stroke="#ff0099" stroke-width="1" fill="#ff0099">
<circle cx=" 121" cy=" 439" r=" 1.5"/>
</g>
<path d="M129,435v -1" fill="none" stroke="#ff0099"/>
<path d="M129,432v -1" fill="none" stroke="#ff0099"/>
<path d="M125,433h 2" fill="none" stroke="#ff0099"/>
<path d="M130,433h 2" fill="none" stroke="#ff0099"/>
<g stroke="#ff0099" stroke-width="1" fill="#ff0099">
<circle cx=" 129" cy=" 433" r=" 1.5"/>
</g>
<path d="M136,431v -1" fill="none" stroke="#ff0099"/>
<path d="M136,428v -1" fill="none" stroke="#ff0099"/>
<path d="M132,429h 3" fill="none" stroke="#ff0099"/>
<path d="M137,429h 3" fill="none" stroke="#ff0099"/>
<g stroke="#ff0099" stroke-width="1" fill="#ff0099">
<circle cx=" 136" cy=" 429" r=" 1.5"/>
</g>
<path d="M144,435v -1" fill="none" stroke="#ff0099"/>
<path d="M144,432v -1" fill="none" stroke="#ff0099"/>
<path d="M140,433h 2" fill="none" stroke="#ff0099"/>
<path d="M145,433h 2" fill="none" stroke="#ff0099"/>
<g stroke="#ff0099" stroke-width="1" fill="#ff0099">
<circle cx=" 144" cy=" 433" r=" 1.5"/>
</g>
<path d="M151,433v -1" fill="none" stroke="#ff0099"/>
<path d="M151,430v -1" fill="none" stroke="#ff0099"/>
<path d="M147,431h 3" fill="none" stroke="#ff0099"/>
<path d="M152,431h 3" fill="none" stroke="#ff0099"/>
<g stroke="#ff0099" stroke-width="1" fill="#ff0099">
<circle cx=" 151" cy=" 431" r=" 1.5"/>
</g>
<path d="M159,429v -1" fill="none" stroke="#ff0099"/>
<path d="M159,426v -2" fill="none" stroke="#ff0099"/>
<path d="M155,427h 3" fill="none" stroke="#ff0099"/>
<path d="M160,427h 3" fill="none" stroke="#ff0099"/>
<g stroke="#ff0099" stroke-width="1" fill="#ff0099">
<circle cx=" 159" cy=" 427" r=" 1.5"/>
</g>
<path d="M166,415v -6" fill="none" stroke="#ff0099"/>
<path d="M166,407v -6" fill="none" stroke="#ff0099"/>
<path d="M163,408h 2" fill="none" stroke="#ff0099"/>
<path d="M167,408h 3" fill="none" stroke="#ff0099"/>
<g stroke="#ff0099" stroke-width="1" fill="#ff0099">
<circle cx=" 166" cy=" 408" r=" 1.5"/>
</g>
<path d="M401,438v -2" fill="none" stroke="#ff0099"/>
<path d="M401,433v -2" fill="none" stroke="#ff0099"/>
<path d="M397,434h 2" fill="none" stroke="#ff0099"/>
<path d="M402,434h 2" fill="none" stroke="#ff0099"/>
<g stroke="#ff0099" stroke-width="1" fill="#ff0099">
<circle cx=" 401" cy=" 434" r=" 1.5"/>
</g>
<path d="M408,432v -2" fill="none" stroke="#ff0099"/>
<path d="M408,428v -1" fill="none" stroke="#ff0099"/>
<path d="M404,429h 3" fill="none" stroke="#ff0099"/>
<path d="M409,429h 3" fill="none" stroke="#ff0099"/>
<g stroke="#ff0099" stroke-width="1" fill="#ff0099">
<circle cx=" 408" cy=" 429" r=" 1.5"/>
</g>
<path d="M416,434v -1" fill="none" stroke="#ff0099"/>
<path d="M416,431v -1" fill="none" stroke="#ff0099"/>
<path d="M412,432h 3" fill="none" stroke="#ff0099"/>
<path d="M417,432h 3" fill="none" stroke="#ff0099"/>
<g stroke="#ff0099" stroke-width="1" fill="#ff0099">
<circle cx=" 416" cy=" 432" r=" 1.5"/>
</g>
<path d="M423,433v -1" fill="none" stroke="#ff0099"/>
<path d="M423,430v -2" fill="none" stroke="#ff0099"/>
<path d="M420,431h 2" fill="none" stroke="#ff0099"/>
<path d="M424,431h 3" fill="none" stroke="#ff0099"/>
<g stroke="#ff0099" stroke-width="1" fill="#ff0099">
<circle cx=" 423" cy=" 431" r=" 1.5"/>
</g>
<path d="M431,432v -1" fill="none" stroke="#ff0099"/>
<path d="M431,429v -1" fill="none" stroke="#ff0099"/>
<path d="M427,430h 3" fill="none" stroke="#ff0099"/>
<path d="M432,430h 3" fill="none" stroke="#ff0099"/>
<g stroke="#ff0099" stroke-width="1" fill="#ff0099">
<circle cx=" 431" cy=" 430" r=" 1.5"/>
</g>
<path d="M438,440v -1" fill="none" stroke="#ff0099"/>
<path d="M438,437v -1" fill="none" stroke="#ff0099"/>
<path d="M435,438h 2" fill="none" stroke="#ff0099"/>
<path d="M440,438h 2" fill="none" stroke="#ff0099"/>
<g stroke="#ff0099" stroke-width="1" fill="#ff0099">
<circle cx=" 438" cy=" 438" r=" 1.5"/>
</g>
<path d="M446,440v -1" fill="none" stroke="#ff0099"/>
<path d="M446,437v -1" fill="none" stroke="#ff0099"/>
<path d="M442,438h 3" fill="none" stroke="#ff0099"/>
<path d="M447,438h 3" fill="none" stroke="#ff0099"/>
<g stroke="#ff0099" stroke-width="1" fill="#ff0099">
<circle cx=" 446" cy=" 438" r=" 1.5"/>
</g>
<path d="M454,447" fill="none" stroke="#ff0099"/>
<path d="M454,445" fill="none" stroke="#ff0099"/>
<path d="M450,446h 2" fill="none" stroke="#ff0099"/>
<path d="M455,446h 2" fill="none" stroke="#ff0099"/>
<g stroke="#ff0099" stroke-width="1" fill="#ff0099">
<circle cx=" 454" cy=" 446" r=" 1.5"/>
</g>
<path d="M461,448" fill="none" stroke="#ff0099"/>
<path d="M461,446" fill="none" stroke="#ff0099"/>
<path d="M457,447h 3" fill="none" stroke="#ff0099"/>
<path d="M462,447h 3" fill="none" stroke="#ff0099"/>
<g stroke="#ff0099" stroke-width="1" fill="#ff0099">
<circle cx=" 461" cy=" 447" r=" 1.5"/>
</g>
<path d="M469,448" fill="none" stroke="#ff0099"/>
<path d="M469,445" fill="none" stroke="#ff0099"/>
<path d="M465,447h 3" fill="none" stroke="#ff0099"/>
<path d="M470,447h 2" fill="none" stroke="#ff0099"/>
<g stroke="#ff0099" stroke-width="1" fill="#ff0099">
<circle cx=" 469" cy=" 447" r=" 1.5"/>
</g></svg>
