<?xml version="1.0" standalone="no"?>
<svg width="567" height="496" viewBox="0 0 567 496" xmlns="http://www.w3.org/2000/svg">
<title>
plots_mcZee_mcGJet//hlt50//etaPhotEE.svg
</title>
<desc>
Creator: ROOT Version 5.32/00
CreationDate: Sat Nov 29 19:50:51 2014</desc>
<defs>
</defs>
<rect x="0" y="0" width="567" height="496" fill="white"/>
<rect x="74" y="44" width="453" height="402" fill="white"/>
<rect x="74" y="44" width="453" height="402" fill="none" stroke="black"/>
<rect x="74" y="44" width="453" height="402" fill="white"/>
<rect x="74" y="44" width="453" height="402" fill="none" stroke="black"/>
<path d="M115,308v -6" fill="none" stroke="#ff0099"/>
<path d="M115,300v -6" fill="none" stroke="#ff0099"/>
<path d="M111,301h 3" fill="none" stroke="#ff0099"/>
<path d="M116,301h 3" fill="none" stroke="#ff0099"/>
<g stroke="#ff0099" stroke-width="1" fill="#ff0099">
<circle cx=" 115" cy=" 301" r=" 1.5"/>
</g>
<path d="M123,232v -9" fill="none" stroke="#ff0099"/>
<path d="M123,220v -8" fill="none" stroke="#ff0099"/>
<path d="M119,222h 3" fill="none" stroke="#ff0099"/>
<path d="M124,222h 3" fill="none" stroke="#ff0099"/>
<g stroke="#ff0099" stroke-width="1" fill="#ff0099">
<circle cx=" 123" cy=" 222" r=" 1.5"/>
</g>
<path d="M130,193v -11" fill="none" stroke="#ff0099"/>
<path d="M130,179v -11" fill="none" stroke="#ff0099"/>
<path d="M127,181h 2" fill="none" stroke="#ff0099"/>
<path d="M132,181h 2" fill="none" stroke="#ff0099"/>
<g stroke="#ff0099" stroke-width="1" fill="#ff0099">
<circle cx=" 130" cy=" 181" r=" 1.5"/>
</g>
<path d="M138,183v -12" fill="none" stroke="#ff0099"/>
<path d="M138,169v -11" fill="none" stroke="#ff0099"/>
<path d="M134,170h 3" fill="none" stroke="#ff0099"/>
<path d="M139,170h 3" fill="none" stroke="#ff0099"/>
<g stroke="#ff0099" stroke-width="1" fill="#ff0099">
<circle cx=" 138" cy=" 170" r=" 1.5"/>
</g>
<path d="M146,146v -13" fill="none" stroke="#ff0099"/>
<path d="M146,130v -13" fill="none" stroke="#ff0099"/>
<path d="M142,131h 2" fill="none" stroke="#ff0099"/>
<path d="M147,131h 2" fill="none" stroke="#ff0099"/>
<g stroke="#ff0099" stroke-width="1" fill="#ff0099">
<circle cx=" 146" cy=" 131" r=" 1.5"/>
</g>
<path d="M153,96v -15" fill="none" stroke="#ff0099"/>
<path d="M153,79v -16" fill="none" stroke="#ff0099"/>
<path d="M149,80h 3" fill="none" stroke="#ff0099"/>
<path d="M154,80h 3" fill="none" stroke="#ff0099"/>
<g stroke="#ff0099" stroke-width="1" fill="#ff0099">
<circle cx=" 153" cy=" 80" r=" 1.5"/>
</g>
<path d="M161,154v -12" fill="none" stroke="#ff0099"/>
<path d="M161,140v -12" fill="none" stroke="#ff0099"/>
<path d="M157,141h 2" fill="none" stroke="#ff0099"/>
<path d="M162,141h 2" fill="none" stroke="#ff0099"/>
<g stroke="#ff0099" stroke-width="1" fill="#ff0099">
<circle cx=" 161" cy=" 141" r=" 1.5"/>
</g>
<path d="M168,136v -14" fill="none" stroke="#ff0099"/>
<path d="M168,120v -13" fill="none" stroke="#ff0099"/>
<path d="M164,121h 3" fill="none" stroke="#ff0099"/>
<path d="M169,121h 3" fill="none" stroke="#ff0099"/>
<g stroke="#ff0099" stroke-width="1" fill="#ff0099">
<circle cx=" 168" cy=" 121" r=" 1.5"/>
</g>
<path d="M176,108v -17" fill="none" stroke="#ff0099"/>
<path d="M176,88v -17" fill="none" stroke="#ff0099"/>
<path d="M172,89h 3" fill="none" stroke="#ff0099"/>
<path d="M177,89h 3" fill="none" stroke="#ff0099"/>
<g stroke="#ff0099" stroke-width="1" fill="#ff0099">
<circle cx=" 176" cy=" 89" r=" 1.5"/>
</g>
<path d="M183,295v -17" fill="none" stroke="#ff0099"/>
<path d="M183,276v -17" fill="none" stroke="#ff0099"/>
<path d="M180,277h 2" fill="none" stroke="#ff0099"/>
<path d="M184,277h 3" fill="none" stroke="#ff0099"/>
<g stroke="#ff0099" stroke-width="1" fill="#ff0099">
<circle cx=" 183" cy=" 277" r=" 1.5"/>
</g>
<path d="M418,361v -6" fill="none" stroke="#ff0099"/>
<path d="M418,353v -6" fill="none" stroke="#ff0099"/>
<path d="M414,354h 2" fill="none" stroke="#ff0099"/>
<path d="M419,354h 2" fill="none" stroke="#ff0099"/>
<g stroke="#ff0099" stroke-width="1" fill="#ff0099">
<circle cx=" 418" cy=" 354" r=" 1.5"/>
</g>
<path d="M425,156v -16" fill="none" stroke="#ff0099"/>
<path d="M425,137v -15" fill="none" stroke="#ff0099"/>
<path d="M421,139h 3" fill="none" stroke="#ff0099"/>
<path d="M426,139h 3" fill="none" stroke="#ff0099"/>
<g stroke="#ff0099" stroke-width="1" fill="#ff0099">
<circle cx=" 425" cy=" 139" r=" 1.5"/>
</g>
<path d="M433,144v -14" fill="none" stroke="#ff0099"/>
<path d="M433,127v -14" fill="none" stroke="#ff0099"/>
<path d="M429,128h 3" fill="none" stroke="#ff0099"/>
<path d="M434,128h 3" fill="none" stroke="#ff0099"/>
<g stroke="#ff0099" stroke-width="1" fill="#ff0099">
<circle cx=" 433" cy=" 128" r=" 1.5"/>
</g>
<path d="M440,135v -15" fill="none" stroke="#ff0099"/>
<path d="M440,118v -15" fill="none" stroke="#ff0099"/>
<path d="M437,119h 2" fill="none" stroke="#ff0099"/>
<path d="M441,119h 3" fill="none" stroke="#ff0099"/>
<g stroke="#ff0099" stroke-width="1" fill="#ff0099">
<circle cx=" 440" cy=" 119" r=" 1.5"/>
</g>
<path d="M448,114v -15" fill="none" stroke="#ff0099"/>
<path d="M448,97v -15" fill="none" stroke="#ff0099"/>
<path d="M444,98h 3" fill="none" stroke="#ff0099"/>
<path d="M449,98h 3" fill="none" stroke="#ff0099"/>
<g stroke="#ff0099" stroke-width="1" fill="#ff0099">
<circle cx=" 448" cy=" 98" r=" 1.5"/>
</g>
<path d="M455,156v -12" fill="none" stroke="#ff0099"/>
<path d="M455,142v -12" fill="none" stroke="#ff0099"/>
<path d="M452,143h 2" fill="none" stroke="#ff0099"/>
<path d="M457,143h 2" fill="none" stroke="#ff0099"/>
<g stroke="#ff0099" stroke-width="1" fill="#ff0099">
<circle cx=" 455" cy=" 143" r=" 1.5"/>
</g>
<path d="M463,168v -12" fill="none" stroke="#ff0099"/>
<path d="M463,154v -12" fill="none" stroke="#ff0099"/>
<path d="M459,155h 3" fill="none" stroke="#ff0099"/>
<path d="M464,155h 3" fill="none" stroke="#ff0099"/>
<g stroke="#ff0099" stroke-width="1" fill="#ff0099">
<circle cx=" 463" cy=" 155" r=" 1.5"/>
</g>
<path d="M471,219v -9" fill="none" stroke="#ff0099"/>
<path d="M471,208v -9" fill="none" stroke="#ff0099"/>
<path d="M467,209h 2" fill="none" stroke="#ff0099"/>
<path d="M472,209h 2" fill="none" stroke="#ff0099"/>
<g stroke="#ff0099" stroke-width="1" fill="#ff0099">
<circle cx=" 471" cy=" 209" r=" 1.5"/>
</g>
<path d="M478,229v -9" fill="none" stroke="#ff0099"/>
<path d="M478,217v -9" fill="none" stroke="#ff0099"/>
<path d="M474,219h 3" fill="none" stroke="#ff0099"/>
<path d="M479,219h 3" fill="none" stroke="#ff0099"/>
<g stroke="#ff0099" stroke-width="1" fill="#ff0099">
<circle cx=" 478" cy=" 219" r=" 1.5"/>
</g>
<path d="M486,283v -7" fill="none" stroke="#ff0099"/>
<path d="M486,273v -7" fill="none" stroke="#ff0099"/>
<path d="M482,275h 3" fill="none" stroke="#ff0099"/>
<path d="M487,275h 2" fill="none" stroke="#ff0099"/>
<g stroke="#ff0099" stroke-width="1" fill="#ff0099">
<circle cx=" 486" cy=" 275" r=" 1.5"/>
</g>
<path d="M74,446h 453" fill="none" stroke="black"/>
<path d="M74,434v 12" fill="none" stroke="black"/>
<path d="M89,440v 6" fill="none" stroke="black"/>
<path d="M104,440v 6" fill="none" stroke="black"/>
<path d="M119,440v 6" fill="none" stroke="black"/>
<path d="M134,440v 6" fill="none" stroke="black"/>
<path d="M149,434v 12" fill="none" stroke="black"/>
<path d="M164,440v 6" fill="none" stroke="black"/>
<path d="M180,440v 6" fill="none" stroke="black"/>
<path d="M195,440v 6" fill="none" stroke="black"/>
<path d="M210,440v 6" fill="none" stroke="black"/>
<path d="M225,434v 12" fill="none" stroke="black"/>
<path d="M240,440v 6" fill="none" stroke="black"/>
<path d="M255,440v 6" fill="none" stroke="black"/>
<path d="M270,440v 6" fill="none" stroke="black"/>
<path d="M285,440v 6" fill="none" stroke="black"/>
<path d="M300,434v 12" fill="none" stroke="black"/>
<path d="M316,440v 6" fill="none" stroke="black"/>
<path d="M331,440v 6" fill="none" stroke="black"/>
<path d="M346,440v 6" fill="none" stroke="black"/>
<path d="M361,440v 6" fill="none" stroke="black"/>
<path d="M376,434v 12" fill="none" stroke="black"/>
<path d="M391,440v 6" fill="none" stroke="black"/>
<path d="M406,440v 6" fill="none" stroke="black"/>
<path d="M421,440v 6" fill="none" stroke="black"/>
<path d="M437,440v 6" fill="none" stroke="black"/>
<path d="M452,434v 12" fill="none" stroke="black"/>
<path d="M467,440v 6" fill="none" stroke="black"/>
<path d="M482,440v 6" fill="none" stroke="black"/>
<path d="M497,440v 6" fill="none" stroke="black"/>
<path d="M512,440v 6" fill="none" stroke="black"/>
<path d="M527,434v 12" fill="none" stroke="black"/>
<path d="M527,434v 12" fill="none" stroke="black"/>
<text x="65" y="465" fill="black" font-size="18" font-family="Helvetica" font-weight="bold">
-3
</text>
<text x="141" y="465" fill="black" font-size="18" font-family="Helvetica" font-weight="bold">
-2
</text>
<text x="218" y="465" fill="black" font-size="18" font-family="Helvetica" font-weight="bold">
-1
</text>
<text x="295" y="465" fill="black" font-size="18" font-family="Helvetica" font-weight="bold">
0
</text>
<text x="372" y="465" fill="black" font-size="18" font-family="Helvetica" font-weight="bold">
1
</text>
<text x="446" y="465" fill="black" font-size="18" font-family="Helvetica" font-weight="bold">
2
</text>
<text x="522" y="465" fill="black" font-size="18" font-family="Helvetica" font-weight="bold">
3
</text>
<path d="M74,44h 453" fill="none" stroke="black"/>
<path d="M74,56v -12" fill="none" stroke="black"/>
<path d="M89,50v -6" fill="none" stroke="black"/>
<path d="M104,50v -6" fill="none" stroke="black"/>
<path d="M119,50v -6" fill="none" stroke="black"/>
<path d="M134,50v -6" fill="none" stroke="black"/>
<path d="M149,56v -12" fill="none" stroke="black"/>
<path d="M164,50v -6" fill="none" stroke="black"/>
<path d="M180,50v -6" fill="none" stroke="black"/>
<path d="M195,50v -6" fill="none" stroke="black"/>
<path d="M210,50v -6" fill="none" stroke="black"/>
<path d="M225,56v -12" fill="none" stroke="black"/>
<path d="M240,50v -6" fill="none" stroke="black"/>
<path d="M255,50v -6" fill="none" stroke="black"/>
<path d="M270,50v -6" fill="none" stroke="black"/>
<path d="M285,50v -6" fill="none" stroke="black"/>
<path d="M300,56v -12" fill="none" stroke="black"/>
<path d="M316,50v -6" fill="none" stroke="black"/>
<path d="M331,50v -6" fill="none" stroke="black"/>
<path d="M346,50v -6" fill="none" stroke="black"/>
<path d="M361,50v -6" fill="none" stroke="black"/>
<path d="M376,56v -12" fill="none" stroke="black"/>
<path d="M391,50v -6" fill="none" stroke="black"/>
<path d="M406,50v -6" fill="none" stroke="black"/>
<path d="M421,50v -6" fill="none" stroke="black"/>
<path d="M437,50v -6" fill="none" stroke="black"/>
<path d="M452,56v -12" fill="none" stroke="black"/>
<path d="M467,50v -6" fill="none" stroke="black"/>
<path d="M482,50v -6" fill="none" stroke="black"/>
<path d="M497,50v -6" fill="none" stroke="black"/>
<path d="M512,50v -6" fill="none" stroke="black"/>
<path d="M527,56v -12" fill="none" stroke="black"/>
<path d="M527,56v -12" fill="none" stroke="black"/>
<path d="M74,446v -402" fill="none" stroke="black"/>
<path d="M87,446h -13" fill="none" stroke="black"/>
<path d="M81,436h -7" fill="none" stroke="black"/>
<path d="M81,425h -7" fill="none" stroke="black"/>
<path d="M81,414h -7" fill="none" stroke="black"/>
<path d="M81,403h -7" fill="none" stroke="black"/>
<path d="M87,393h -13" fill="none" stroke="black"/>
<path d="M81,382h -7" fill="none" stroke="black"/>
<path d="M81,371h -7" fill="none" stroke="black"/>
<path d="M81,360h -7" fill="none" stroke="black"/>
<path d="M81,350h -7" fill="none" stroke="black"/>
<path d="M87,339h -13" fill="none" stroke="black"/>
<path d="M81,328h -7" fill="none" stroke="black"/>
<path d="M81,317h -7" fill="none" stroke="black"/>
<path d="M81,307h -7" fill="none" stroke="black"/>
<path d="M81,296h -7" fill="none" stroke="black"/>
<path d="M87,285h -13" fill="none" stroke="black"/>
<path d="M81,274h -7" fill="none" stroke="black"/>
<path d="M81,264h -7" fill="none" stroke="black"/>
<path d="M81,253h -7" fill="none" stroke="black"/>
<path d="M81,242h -7" fill="none" stroke="black"/>
<path d="M87,231h -13" fill="none" stroke="black"/>
<path d="M81,221h -7" fill="none" stroke="black"/>
<path d="M81,210h -7" fill="none" stroke="black"/>
<path d="M81,199h -7" fill="none" stroke="black"/>
<path d="M81,188h -7" fill="none" stroke="black"/>
<path d="M87,178h -13" fill="none" stroke="black"/>
<path d="M81,167h -7" fill="none" stroke="black"/>
<path d="M81,156h -7" fill="none" stroke="black"/>
<path d="M81,145h -7" fill="none" stroke="black"/>
<path d="M81,135h -7" fill="none" stroke="black"/>
<path d="M87,124h -13" fill="none" stroke="black"/>
<path d="M81,113h -7" fill="none" stroke="black"/>
<path d="M81,102h -7" fill="none" stroke="black"/>
<path d="M81,92h -7" fill="none" stroke="black"/>
<path d="M81,81h -7" fill="none" stroke="black"/>
<path d="M87,70h -13" fill="none" stroke="black"/>
<path d="M87,70h -13" fill="none" stroke="black"/>
<path d="M81,59h -7" fill="none" stroke="black"/>
<path d="M81,49h -7" fill="none" stroke="black"/>
<text x="61" y="453" fill="black" font-size="18" font-family="Helvetica" font-weight="bold">
0
</text>
<text x="37" y="399" fill="black" font-size="18" font-family="Helvetica" font-weight="bold">
0.01
</text>
<text x="35" y="345" fill="black" font-size="18" font-family="Helvetica" font-weight="bold">
0.02
</text>
<text x="35" y="292" fill="black" font-size="18" font-family="Helvetica" font-weight="bold">
0.03
</text>
<text x="34" y="238" fill="black" font-size="18" font-family="Helvetica" font-weight="bold">
0.04
</text>
<text x="34" y="184" fill="black" font-size="18" font-family="Helvetica" font-weight="bold">
0.05
</text>
<text x="34" y="131" fill="black" font-size="18" font-family="Helvetica" font-weight="bold">
0.06
</text>
<text x="35" y="76" fill="black" font-size="18" font-family="Helvetica" font-weight="bold">
0.07
</text>
<path d="M115,211v -4" fill="none" stroke="#99ff99" stroke-width="2"/>
<path d="M115,207v -4" fill="none" stroke="#99ff99" stroke-width="2"/>
<g stroke="black" stroke-width="2" fill="none">
<line x1="114" y1="207" x2="115" y2="207"/>
</g>
<path d="M123,164v -9" fill="none" stroke="#99ff99" stroke-width="2"/>
<path d="M123,155v -8" fill="none" stroke="#99ff99" stroke-width="2"/>
<g stroke="black" stroke-width="2" fill="none">
<line x1="122" y1="155" x2="123" y2="155"/>
</g>
<path d="M130,147v -10" fill="none" stroke="#99ff99" stroke-width="2"/>
<path d="M130,137v -10" fill="none" stroke="#99ff99" stroke-width="2"/>
<g stroke="black" stroke-width="2" fill="none">
<line x1="129" y1="137" x2="130" y2="137"/>
</g>
<path d="M138,168v -8" fill="none" stroke="#99ff99" stroke-width="2"/>
<path d="M138,160v -8" fill="none" stroke="#99ff99" stroke-width="2"/>
<g stroke="black" stroke-width="2" fill="none">
<line x1="137" y1="160" x2="138" y2="160"/>
</g>
<path d="M146,146v -11" fill="none" stroke="#99ff99" stroke-width="2"/>
<path d="M146,135v -11" fill="none" stroke="#99ff99" stroke-width="2"/>
<g stroke="black" stroke-width="2" fill="none">
<line x1="145" y1="135" x2="146" y2="135"/>
</g>
<path d="M153,158v -9" fill="none" stroke="#99ff99" stroke-width="2"/>
<path d="M153,149v -9" fill="none" stroke="#99ff99" stroke-width="2"/>
<g stroke="black" stroke-width="2" fill="none">
<line x1="152" y1="149" x2="153" y2="149"/>
</g>
<path d="M161,156v -9" fill="none" stroke="#99ff99" stroke-width="2"/>
<path d="M161,147v -9" fill="none" stroke="#99ff99" stroke-width="2"/>
<g stroke="black" stroke-width="2" fill="none">
<line x1="160" y1="147" x2="161" y2="147"/>
</g>
<path d="M168,162v -9" fill="none" stroke="#99ff99" stroke-width="2"/>
<path d="M168,153v -9" fill="none" stroke="#99ff99" stroke-width="2"/>
<g stroke="black" stroke-width="2" fill="none">
<line x1="167" y1="153" x2="168" y2="153"/>
</g>
<path d="M176,173v -9" fill="none" stroke="#99ff99" stroke-width="2"/>
<path d="M176,164v -9" fill="none" stroke="#99ff99" stroke-width="2"/>
<g stroke="black" stroke-width="2" fill="none">
<line x1="175" y1="164" x2="176" y2="164"/>
</g>
<path d="M183,364v -4" fill="none" stroke="#99ff99" stroke-width="2"/>
<path d="M183,360v -4" fill="none" stroke="#99ff99" stroke-width="2"/>
<g stroke="black" stroke-width="2" fill="none">
<line x1="182" y1="360" x2="183" y2="360"/>
</g>
<path d="M418,363v -4" fill="none" stroke="#99ff99" stroke-width="2"/>
<path d="M418,359v -5" fill="none" stroke="#99ff99" stroke-width="2"/>
<g stroke="black" stroke-width="2" fill="none">
<line x1="417" y1="359" x2="418" y2="359"/>
</g>
<path d="M425,195v -6" fill="none" stroke="#99ff99" stroke-width="2"/>
<path d="M425,189v -6" fill="none" stroke="#99ff99" stroke-width="2"/>
<g stroke="black" stroke-width="2" fill="none">
<line x1="424" y1="189" x2="425" y2="189"/>
</g>
<path d="M433,179v -8" fill="none" stroke="#99ff99" stroke-width="2"/>
<path d="M433,171v -8" fill="none" stroke="#99ff99" stroke-width="2"/>
<g stroke="black" stroke-width="2" fill="none">
<line x1="432" y1="171" x2="433" y2="171"/>
</g>
<path d="M440,165v -9" fill="none" stroke="#99ff99" stroke-width="2"/>
<path d="M440,156v -8" fill="none" stroke="#99ff99" stroke-width="2"/>
<g stroke="black" stroke-width="2" fill="none">
<line x1="439" y1="156" x2="440" y2="156"/>
</g>
<path d="M448,169v -6" fill="none" stroke="#99ff99" stroke-width="2"/>
<path d="M448,163v -6" fill="none" stroke="#99ff99" stroke-width="2"/>
<g stroke="black" stroke-width="2" fill="none">
<line x1="447" y1="163" x2="448" y2="163"/>
</g>
<path d="M455,136v -11" fill="none" stroke="#99ff99" stroke-width="2"/>
<path d="M455,125v -11" fill="none" stroke="#99ff99" stroke-width="2"/>
<g stroke="black" stroke-width="2" fill="none">
<line x1="454" y1="125" x2="455" y2="125"/>
</g>
<path d="M463,136v -11" fill="none" stroke="#99ff99" stroke-width="2"/>
<path d="M463,125v -10" fill="none" stroke="#99ff99" stroke-width="2"/>
<g stroke="black" stroke-width="2" fill="none">
<line x1="462" y1="125" x2="463" y2="125"/>
</g>
<path d="M471,146v -11" fill="none" stroke="#99ff99" stroke-width="2"/>
<path d="M471,135v -10" fill="none" stroke="#99ff99" stroke-width="2"/>
<g stroke="black" stroke-width="2" fill="none">
<line x1="470" y1="135" x2="471" y2="135"/>
</g>
<path d="M478,161v -8" fill="none" stroke="#99ff99" stroke-width="2"/>
<path d="M478,153v -8" fill="none" stroke="#99ff99" stroke-width="2"/>
<g stroke="black" stroke-width="2" fill="none">
<line x1="477" y1="153" x2="478" y2="153"/>
</g>
<path d="M486,210v -3" fill="none" stroke="#99ff99" stroke-width="2"/>
<path d="M486,207v -4" fill="none" stroke="#99ff99" stroke-width="2"/>
<g stroke="black" stroke-width="2" fill="none">
<line x1="485" y1="207" x2="486" y2="207"/>
</g>
<path d="M74,446h 37v -239h 8v -52h 8v -18h 7v 23h 8v -25h 7v 14h 8v -2h 7v 6h 8v 11h 8v 196h 7v 86h 227v -87h 7v -170h 8v -18h 8v -15h 7v 7h 8v -38h 15v 10h 7v 18h 8v 54h 7v 239h 38z" fill="#99ff99"/>
<path d="M74,446h 37v -239h 8v -52h 8v -18h 7v 23h 8v -25h 7v 14h 8v -2h 7v 6h 8v 11h 8v 196h 7v 86h 227v -87h 7v -170h 8v -18h 8v -15h 7v 7h 8v -38h 15v 10h 7v 18h 8v 54h 7v 239h 38" fill="none" stroke="#99ff99" stroke-width="2"/>
<path d="M115,308v -6" fill="none" stroke="#ff0099"/>
<path d="M115,300v -6" fill="none" stroke="#ff0099"/>
<path d="M111,301h 3" fill="none" stroke="#ff0099"/>
<path d="M116,301h 3" fill="none" stroke="#ff0099"/>
<g stroke="#ff0099" stroke-width="1" fill="#ff0099">
<circle cx=" 115" cy=" 301" r=" 1.5"/>
</g>
<path d="M123,232v -9" fill="none" stroke="#ff0099"/>
<path d="M123,220v -8" fill="none" stroke="#ff0099"/>
<path d="M119,222h 3" fill="none" stroke="#ff0099"/>
<path d="M124,222h 3" fill="none" stroke="#ff0099"/>
<g stroke="#ff0099" stroke-width="1" fill="#ff0099">
<circle cx=" 123" cy=" 222" r=" 1.5"/>
</g>
<path d="M130,193v -11" fill="none" stroke="#ff0099"/>
<path d="M130,179v -11" fill="none" stroke="#ff0099"/>
<path d="M127,181h 2" fill="none" stroke="#ff0099"/>
<path d="M132,181h 2" fill="none" stroke="#ff0099"/>
<g stroke="#ff0099" stroke-width="1" fill="#ff0099">
<circle cx=" 130" cy=" 181" r=" 1.5"/>
</g>
<path d="M138,183v -12" fill="none" stroke="#ff0099"/>
<path d="M138,169v -11" fill="none" stroke="#ff0099"/>
<path d="M134,170h 3" fill="none" stroke="#ff0099"/>
<path d="M139,170h 3" fill="none" stroke="#ff0099"/>
<g stroke="#ff0099" stroke-width="1" fill="#ff0099">
<circle cx=" 138" cy=" 170" r=" 1.5"/>
</g>
<path d="M146,146v -13" fill="none" stroke="#ff0099"/>
<path d="M146,130v -13" fill="none" stroke="#ff0099"/>
<path d="M142,131h 2" fill="none" stroke="#ff0099"/>
<path d="M147,131h 2" fill="none" stroke="#ff0099"/>
<g stroke="#ff0099" stroke-width="1" fill="#ff0099">
<circle cx=" 146" cy=" 131" r=" 1.5"/>
</g>
<path d="M153,96v -15" fill="none" stroke="#ff0099"/>
<path d="M153,79v -16" fill="none" stroke="#ff0099"/>
<path d="M149,80h 3" fill="none" stroke="#ff0099"/>
<path d="M154,80h 3" fill="none" stroke="#ff0099"/>
<g stroke="#ff0099" stroke-width="1" fill="#ff0099">
<circle cx=" 153" cy=" 80" r=" 1.5"/>
</g>
<path d="M161,154v -12" fill="none" stroke="#ff0099"/>
<path d="M161,140v -12" fill="none" stroke="#ff0099"/>
<path d="M157,141h 2" fill="none" stroke="#ff0099"/>
<path d="M162,141h 2" fill="none" stroke="#ff0099"/>
<g stroke="#ff0099" stroke-width="1" fill="#ff0099">
<circle cx=" 161" cy=" 141" r=" 1.5"/>
</g>
<path d="M168,136v -14" fill="none" stroke="#ff0099"/>
<path d="M168,120v -13" fill="none" stroke="#ff0099"/>
<path d="M164,121h 3" fill="none" stroke="#ff0099"/>
<path d="M169,121h 3" fill="none" stroke="#ff0099"/>
<g stroke="#ff0099" stroke-width="1" fill="#ff0099">
<circle cx=" 168" cy=" 121" r=" 1.5"/>
</g>
<path d="M176,108v -17" fill="none" stroke="#ff0099"/>
<path d="M176,88v -17" fill="none" stroke="#ff0099"/>
<path d="M172,89h 3" fill="none" stroke="#ff0099"/>
<path d="M177,89h 3" fill="none" stroke="#ff0099"/>
<g stroke="#ff0099" stroke-width="1" fill="#ff0099">
<circle cx=" 176" cy=" 89" r=" 1.5"/>
</g>
<path d="M183,295v -17" fill="none" stroke="#ff0099"/>
<path d="M183,276v -17" fill="none" stroke="#ff0099"/>
<path d="M180,277h 2" fill="none" stroke="#ff0099"/>
<path d="M184,277h 3" fill="none" stroke="#ff0099"/>
<g stroke="#ff0099" stroke-width="1" fill="#ff0099">
<circle cx=" 183" cy=" 277" r=" 1.5"/>
</g>
<path d="M418,361v -6" fill="none" stroke="#ff0099"/>
<path d="M418,353v -6" fill="none" stroke="#ff0099"/>
<path d="M414,354h 2" fill="none" stroke="#ff0099"/>
<path d="M419,354h 2" fill="none" stroke="#ff0099"/>
<g stroke="#ff0099" stroke-width="1" fill="#ff0099">
<circle cx=" 418" cy=" 354" r=" 1.5"/>
</g>
<path d="M425,156v -16" fill="none" stroke="#ff0099"/>
<path d="M425,137v -15" fill="none" stroke="#ff0099"/>
<path d="M421,139h 3" fill="none" stroke="#ff0099"/>
<path d="M426,139h 3" fill="none" stroke="#ff0099"/>
<g stroke="#ff0099" stroke-width="1" fill="#ff0099">
<circle cx=" 425" cy=" 139" r=" 1.5"/>
</g>
<path d="M433,144v -14" fill="none" stroke="#ff0099"/>
<path d="M433,127v -14" fill="none" stroke="#ff0099"/>
<path d="M429,128h 3" fill="none" stroke="#ff0099"/>
<path d="M434,128h 3" fill="none" stroke="#ff0099"/>
<g stroke="#ff0099" stroke-width="1" fill="#ff0099">
<circle cx=" 433" cy=" 128" r=" 1.5"/>
</g>
<path d="M440,135v -15" fill="none" stroke="#ff0099"/>
<path d="M440,118v -15" fill="none" stroke="#ff0099"/>
<path d="M437,119h 2" fill="none" stroke="#ff0099"/>
<path d="M441,119h 3" fill="none" stroke="#ff0099"/>
<g stroke="#ff0099" stroke-width="1" fill="#ff0099">
<circle cx=" 440" cy=" 119" r=" 1.5"/>
</g>
<path d="M448,114v -15" fill="none" stroke="#ff0099"/>
<path d="M448,97v -15" fill="none" stroke="#ff0099"/>
<path d="M444,98h 3" fill="none" stroke="#ff0099"/>
<path d="M449,98h 3" fill="none" stroke="#ff0099"/>
<g stroke="#ff0099" stroke-width="1" fill="#ff0099">
<circle cx=" 448" cy=" 98" r=" 1.5"/>
</g>
<path d="M455,156v -12" fill="none" stroke="#ff0099"/>
<path d="M455,142v -12" fill="none" stroke="#ff0099"/>
<path d="M452,143h 2" fill="none" stroke="#ff0099"/>
<path d="M457,143h 2" fill="none" stroke="#ff0099"/>
<g stroke="#ff0099" stroke-width="1" fill="#ff0099">
<circle cx=" 455" cy=" 143" r=" 1.5"/>
</g>
<path d="M463,168v -12" fill="none" stroke="#ff0099"/>
<path d="M463,154v -12" fill="none" stroke="#ff0099"/>
<path d="M459,155h 3" fill="none" stroke="#ff0099"/>
<path d="M464,155h 3" fill="none" stroke="#ff0099"/>
<g stroke="#ff0099" stroke-width="1" fill="#ff0099">
<circle cx=" 463" cy=" 155" r=" 1.5"/>
</g>
<path d="M471,219v -9" fill="none" stroke="#ff0099"/>
<path d="M471,208v -9" fill="none" stroke="#ff0099"/>
<path d="M467,209h 2" fill="none" stroke="#ff0099"/>
<path d="M472,209h 2" fill="none" stroke="#ff0099"/>
<g stroke="#ff0099" stroke-width="1" fill="#ff0099">
<circle cx=" 471" cy=" 209" r=" 1.5"/>
</g>
<path d="M478,229v -9" fill="none" stroke="#ff0099"/>
<path d="M478,217v -9" fill="none" stroke="#ff0099"/>
<path d="M474,219h 3" fill="none" stroke="#ff0099"/>
<path d="M479,219h 3" fill="none" stroke="#ff0099"/>
<g stroke="#ff0099" stroke-width="1" fill="#ff0099">
<circle cx=" 478" cy=" 219" r=" 1.5"/>
</g>
<path d="M486,283v -7" fill="none" stroke="#ff0099"/>
<path d="M486,273v -7" fill="none" stroke="#ff0099"/>
<path d="M482,275h 3" fill="none" stroke="#ff0099"/>
<path d="M487,275h 2" fill="none" stroke="#ff0099"/>
<g stroke="#ff0099" stroke-width="1" fill="#ff0099">
<circle cx=" 486" cy=" 275" r=" 1.5"/>
</g>
<rect x="357" y="59" width="142" height="99" fill="white"/>
<text x="360" y="82" fill="black" font-size="17" font-family="Helvetica" font-weight="bold">
EE
</text>
<text x="457" y="115" fill="black" font-size="17" font-family="Helvetica" font-weight="bold">
 ee
</text>
<text x="440" y="115" fill="black" font-size="17" font-family="Times">
&#8594;
</text>
<text x="392" y="115" fill="black" font-size="17" font-family="Helvetica" font-weight="bold">
MC Z 
</text>
<path d="M362,109h 25" fill="none" stroke="#ff0099"/>
<g stroke="#ff0099" stroke-width="1" fill="#ff0099">
<circle cx=" 375" cy=" 109" r=" 1.5"/>
</g>
<text x="455" y="147" fill="black" font-size="17" font-family="Helvetica" font-weight="bold">
 + jet
</text>
<text x="447" y="147" fill="black" font-size="17" font-family="Times">
&#0947;
</text>
<text x="392" y="147" fill="black" font-size="17" font-family="Helvetica" font-weight="bold">
signal 
</text>
<path d="M362,154h 25v -24h -25z" fill="#99ff99"/>
<path d="M362,130h 25" fill="none" stroke="#99ff99" stroke-width="2"/>
<path d="M362,154h 25" fill="none" stroke="#99ff99" stroke-width="2"/>
<path d="M387,154v -24" fill="none" stroke="#99ff99" stroke-width="2"/>
<path d="M362,154v -24" fill="none" stroke="#99ff99" stroke-width="2"/>
<text x="300" y="34" fill="black" font-size="17" font-family="Helvetica" font-weight="bold">
=8 TeV
</text>
<text x="291" y="34" fill="black" font-size="17" font-family="Helvetica" font-weight="bold">
s
</text>
<path d="M285,25l 2, 10" fill="none" stroke="black" stroke-width="2"/>
<path d="M287,35l 2, -14" fill="none" stroke="black"/>
<path d="M289,21h 11" fill="none" stroke="black"/>
<text x="142" y="34" fill="black" font-size="17" font-family="Helvetica" font-weight="bold">
CMS Preliminary 
</text></svg>
