<?xml version="1.0" standalone="no"?>
<svg width="567" height="496" viewBox="0 0 567 496" xmlns="http://www.w3.org/2000/svg">
<title>
plots_mcZee_mcGJet//hlt50//nvtxEB.svg
</title>
<desc>
Creator: ROOT Version 5.32/00
CreationDate: Sat Nov 29 19:51:02 2014</desc>
<defs>
</defs>
<rect x="0" y="0" width="567" height="496" fill="white"/>
<rect x="74" y="44" width="453" height="402" fill="white"/>
<rect x="74" y="44" width="453" height="402" fill="none" stroke="black"/>
<rect x="74" y="44" width="453" height="402" fill="white"/>
<rect x="74" y="44" width="453" height="402" fill="none" stroke="black"/>
<path d="M85,446h 4" fill="none" stroke="#ff0099"/>
<path d="M91,446h 5" fill="none" stroke="#ff0099"/>
<g stroke="#ff0099" stroke-width="1" fill="#ff0099">
<circle cx=" 90" cy=" 446" r=" 1.5"/>
</g>
<path d="M96,444h 4" fill="none" stroke="#ff0099"/>
<path d="M102,444h 5" fill="none" stroke="#ff0099"/>
<g stroke="#ff0099" stroke-width="1" fill="#ff0099">
<circle cx=" 101" cy=" 444" r=" 1.5"/>
</g>
<path d="M107,439h 4" fill="none" stroke="#ff0099"/>
<path d="M114,439h 4" fill="none" stroke="#ff0099"/>
<g stroke="#ff0099" stroke-width="1" fill="#ff0099">
<circle cx=" 112" cy=" 439" r=" 1.5"/>
</g>
<path d="M123,427" fill="none" stroke="#ff0099"/>
<path d="M123,424" fill="none" stroke="#ff0099"/>
<path d="M118,426h 4" fill="none" stroke="#ff0099"/>
<path d="M125,426h 4" fill="none" stroke="#ff0099"/>
<g stroke="#ff0099" stroke-width="1" fill="#ff0099">
<circle cx=" 123" cy=" 426" r=" 1.5"/>
</g>
<path d="M135,405v -1" fill="none" stroke="#ff0099"/>
<path d="M135,401" fill="none" stroke="#ff0099"/>
<path d="M129,403h 4" fill="none" stroke="#ff0099"/>
<path d="M136,403h 4" fill="none" stroke="#ff0099"/>
<g stroke="#ff0099" stroke-width="1" fill="#ff0099">
<circle cx=" 135" cy=" 403" r=" 1.5"/>
</g>
<path d="M146,368v -2" fill="none" stroke="#ff0099"/>
<path d="M146,364v -2" fill="none" stroke="#ff0099"/>
<path d="M140,365h 4" fill="none" stroke="#ff0099"/>
<path d="M147,365h 4" fill="none" stroke="#ff0099"/>
<g stroke="#ff0099" stroke-width="1" fill="#ff0099">
<circle cx=" 146" cy=" 365" r=" 1.5"/>
</g>
<path d="M157,321v -3" fill="none" stroke="#ff0099"/>
<path d="M157,316v -3" fill="none" stroke="#ff0099"/>
<path d="M151,317h 5" fill="none" stroke="#ff0099"/>
<path d="M158,317h 4" fill="none" stroke="#ff0099"/>
<g stroke="#ff0099" stroke-width="1" fill="#ff0099">
<circle cx=" 157" cy=" 317" r=" 1.5"/>
</g>
<path d="M168,279v -4" fill="none" stroke="#ff0099"/>
<path d="M168,273v -3" fill="none" stroke="#ff0099"/>
<path d="M162,274h 5" fill="none" stroke="#ff0099"/>
<path d="M169,274h 4" fill="none" stroke="#ff0099"/>
<g stroke="#ff0099" stroke-width="1" fill="#ff0099">
<circle cx=" 168" cy=" 274" r=" 1.5"/>
</g>
<path d="M179,217v -4" fill="none" stroke="#ff0099"/>
<path d="M179,210v -4" fill="none" stroke="#ff0099"/>
<path d="M173,212h 5" fill="none" stroke="#ff0099"/>
<path d="M180,212h 4" fill="none" stroke="#ff0099"/>
<g stroke="#ff0099" stroke-width="1" fill="#ff0099">
<circle cx=" 179" cy=" 212" r=" 1.5"/>
</g>
<path d="M190,179v -5" fill="none" stroke="#ff0099"/>
<path d="M190,172v -5" fill="none" stroke="#ff0099"/>
<path d="M184,173h 5" fill="none" stroke="#ff0099"/>
<path d="M191,173h 4" fill="none" stroke="#ff0099"/>
<g stroke="#ff0099" stroke-width="1" fill="#ff0099">
<circle cx=" 190" cy=" 173" r=" 1.5"/>
</g>
<path d="M201,135v -5" fill="none" stroke="#ff0099"/>
<path d="M201,127v -5" fill="none" stroke="#ff0099"/>
<path d="M195,128h 5" fill="none" stroke="#ff0099"/>
<path d="M202,128h 4" fill="none" stroke="#ff0099"/>
<g stroke="#ff0099" stroke-width="1" fill="#ff0099">
<circle cx=" 201" cy=" 128" r=" 1.5"/>
</g>
<path d="M212,83v -5" fill="none" stroke="#ff0099"/>
<path d="M212,75v -6" fill="none" stroke="#ff0099"/>
<path d="M206,76h 5" fill="none" stroke="#ff0099"/>
<path d="M213,76h 5" fill="none" stroke="#ff0099"/>
<g stroke="#ff0099" stroke-width="1" fill="#ff0099">
<circle cx=" 212" cy=" 76" r=" 1.5"/>
</g>
<path d="M223,79v -6" fill="none" stroke="#ff0099"/>
<path d="M223,71v -6" fill="none" stroke="#ff0099"/>
<path d="M218,72h 4" fill="none" stroke="#ff0099"/>
<path d="M224,72h 5" fill="none" stroke="#ff0099"/>
<g stroke="#ff0099" stroke-width="1" fill="#ff0099">
<circle cx=" 223" cy=" 72" r=" 1.5"/>
</g>
<path d="M234,81v -6" fill="none" stroke="#ff0099"/>
<path d="M234,73v -6" fill="none" stroke="#ff0099"/>
<path d="M229,74h 4" fill="none" stroke="#ff0099"/>
<path d="M235,74h 5" fill="none" stroke="#ff0099"/>
<g stroke="#ff0099" stroke-width="1" fill="#ff0099">
<circle cx=" 234" cy=" 74" r=" 1.5"/>
</g>
<path d="M245,78v -6" fill="none" stroke="#ff0099"/>
<path d="M245,69v -6" fill="none" stroke="#ff0099"/>
<path d="M240,71h 4" fill="none" stroke="#ff0099"/>
<path d="M246,71h 5" fill="none" stroke="#ff0099"/>
<g stroke="#ff0099" stroke-width="1" fill="#ff0099">
<circle cx=" 245" cy=" 71" r=" 1.5"/>
</g>
<path d="M256,98v -6" fill="none" stroke="#ff0099"/>
<path d="M256,90v -6" fill="none" stroke="#ff0099"/>
<path d="M251,91h 4" fill="none" stroke="#ff0099"/>
<path d="M257,91h 5" fill="none" stroke="#ff0099"/>
<g stroke="#ff0099" stroke-width="1" fill="#ff0099">
<circle cx=" 256" cy=" 91" r=" 1.5"/>
</g>
<path d="M267,112v -6" fill="none" stroke="#ff0099"/>
<path d="M267,104v -6" fill="none" stroke="#ff0099"/>
<path d="M262,105h 4" fill="none" stroke="#ff0099"/>
<path d="M268,105h 5" fill="none" stroke="#ff0099"/>
<g stroke="#ff0099" stroke-width="1" fill="#ff0099">
<circle cx=" 267" cy=" 105" r=" 1.5"/>
</g>
<path d="M278,150v -5" fill="none" stroke="#ff0099"/>
<path d="M278,142v -5" fill="none" stroke="#ff0099"/>
<path d="M273,144h 4" fill="none" stroke="#ff0099"/>
<path d="M279,144h 5" fill="none" stroke="#ff0099"/>
<g stroke="#ff0099" stroke-width="1" fill="#ff0099">
<circle cx=" 278" cy=" 144" r=" 1.5"/>
</g>
<path d="M289,172v -5" fill="none" stroke="#ff0099"/>
<path d="M289,165v -5" fill="none" stroke="#ff0099"/>
<path d="M284,166h 4" fill="none" stroke="#ff0099"/>
<path d="M291,166h 4" fill="none" stroke="#ff0099"/>
<g stroke="#ff0099" stroke-width="1" fill="#ff0099">
<circle cx=" 289" cy=" 166" r=" 1.5"/>
</g>
<path d="M300,218v -5" fill="none" stroke="#ff0099"/>
<path d="M300,211v -5" fill="none" stroke="#ff0099"/>
<path d="M295,212h 4" fill="none" stroke="#ff0099"/>
<path d="M302,212h 4" fill="none" stroke="#ff0099"/>
<g stroke="#ff0099" stroke-width="1" fill="#ff0099">
<circle cx=" 300" cy=" 212" r=" 1.5"/>
</g>
<path d="M312,244v -4" fill="none" stroke="#ff0099"/>
<path d="M312,238v -5" fill="none" stroke="#ff0099"/>
<path d="M306,239h 4" fill="none" stroke="#ff0099"/>
<path d="M313,239h 4" fill="none" stroke="#ff0099"/>
<g stroke="#ff0099" stroke-width="1" fill="#ff0099">
<circle cx=" 312" cy=" 239" r=" 1.5"/>
</g>
<path d="M323,280v -4" fill="none" stroke="#ff0099"/>
<path d="M323,274v -4" fill="none" stroke="#ff0099"/>
<path d="M317,275h 4" fill="none" stroke="#ff0099"/>
<path d="M324,275h 4" fill="none" stroke="#ff0099"/>
<g stroke="#ff0099" stroke-width="1" fill="#ff0099">
<circle cx=" 323" cy=" 275" r=" 1.5"/>
</g>
<path d="M334,306v -3" fill="none" stroke="#ff0099"/>
<path d="M334,300v -3" fill="none" stroke="#ff0099"/>
<path d="M328,302h 5" fill="none" stroke="#ff0099"/>
<path d="M335,302h 4" fill="none" stroke="#ff0099"/>
<g stroke="#ff0099" stroke-width="1" fill="#ff0099">
<circle cx=" 334" cy=" 302" r=" 1.5"/>
</g>
<path d="M345,335v -3" fill="none" stroke="#ff0099"/>
<path d="M345,329v -3" fill="none" stroke="#ff0099"/>
<path d="M339,330h 5" fill="none" stroke="#ff0099"/>
<path d="M346,330h 4" fill="none" stroke="#ff0099"/>
<g stroke="#ff0099" stroke-width="1" fill="#ff0099">
<circle cx=" 345" cy=" 330" r=" 1.5"/>
</g>
<path d="M356,361v -2" fill="none" stroke="#ff0099"/>
<path d="M356,356v -2" fill="none" stroke="#ff0099"/>
<path d="M350,358h 5" fill="none" stroke="#ff0099"/>
<path d="M357,358h 4" fill="none" stroke="#ff0099"/>
<g stroke="#ff0099" stroke-width="1" fill="#ff0099">
<circle cx=" 356" cy=" 358" r=" 1.5"/>
</g>
<path d="M367,383v -1" fill="none" stroke="#ff0099"/>
<path d="M367,379v -2" fill="none" stroke="#ff0099"/>
<path d="M361,380h 5" fill="none" stroke="#ff0099"/>
<path d="M368,380h 4" fill="none" stroke="#ff0099"/>
<g stroke="#ff0099" stroke-width="1" fill="#ff0099">
<circle cx=" 367" cy=" 380" r=" 1.5"/>
</g>
<path d="M378,404v -1" fill="none" stroke="#ff0099"/>
<path d="M378,401v -1" fill="none" stroke="#ff0099"/>
<path d="M372,402h 5" fill="none" stroke="#ff0099"/>
<path d="M379,402h 4" fill="none" stroke="#ff0099"/>
<g stroke="#ff0099" stroke-width="1" fill="#ff0099">
<circle cx=" 378" cy=" 402" r=" 1.5"/>
</g>
<path d="M389,416v -1" fill="none" stroke="#ff0099"/>
<path d="M389,413v -1" fill="none" stroke="#ff0099"/>
<path d="M383,414h 5" fill="none" stroke="#ff0099"/>
<path d="M390,414h 4" fill="none" stroke="#ff0099"/>
<g stroke="#ff0099" stroke-width="1" fill="#ff0099">
<circle cx=" 389" cy=" 414" r=" 1.5"/>
</g>
<path d="M400,422v -1" fill="none" stroke="#ff0099"/>
<path d="M400,419v -1" fill="none" stroke="#ff0099"/>
<path d="M394,420h 5" fill="none" stroke="#ff0099"/>
<path d="M401,420h 5" fill="none" stroke="#ff0099"/>
<g stroke="#ff0099" stroke-width="1" fill="#ff0099">
<circle cx=" 400" cy=" 420" r=" 1.5"/>
</g>
<path d="M411,429v -1" fill="none" stroke="#ff0099"/>
<path d="M411,426v -1" fill="none" stroke="#ff0099"/>
<path d="M406,427h 4" fill="none" stroke="#ff0099"/>
<path d="M412,427h 5" fill="none" stroke="#ff0099"/>
<g stroke="#ff0099" stroke-width="1" fill="#ff0099">
<circle cx=" 411" cy=" 427" r=" 1.5"/>
</g>
<path d="M422,436" fill="none" stroke="#ff0099"/>
<path d="M422,433" fill="none" stroke="#ff0099"/>
<path d="M417,435h 4" fill="none" stroke="#ff0099"/>
<path d="M423,435h 5" fill="none" stroke="#ff0099"/>
<g stroke="#ff0099" stroke-width="1" fill="#ff0099">
<circle cx=" 422" cy=" 435" r=" 1.5"/>
</g>
<path d="M428,440h 4" fill="none" stroke="#ff0099"/>
<path d="M434,440h 5" fill="none" stroke="#ff0099"/>
<g stroke="#ff0099" stroke-width="1" fill="#ff0099">
<circle cx=" 433" cy=" 440" r=" 1.5"/>
</g>
<path d="M439,442h 4" fill="none" stroke="#ff0099"/>
<path d="M445,442h 5" fill="none" stroke="#ff0099"/>
<g stroke="#ff0099" stroke-width="1" fill="#ff0099">
<circle cx=" 444" cy=" 442" r=" 1.5"/>
</g>
<path d="M450,443h 4" fill="none" stroke="#ff0099"/>
<path d="M456,443h 5" fill="none" stroke="#ff0099"/>
<g stroke="#ff0099" stroke-width="1" fill="#ff0099">
<circle cx=" 455" cy=" 443" r=" 1.5"/>
</g>
<path d="M461,444h 4" fill="none" stroke="#ff0099"/>
<path d="M468,444h 4" fill="none" stroke="#ff0099"/>
<g stroke="#ff0099" stroke-width="1" fill="#ff0099">
<circle cx=" 466" cy=" 444" r=" 1.5"/>
</g>
<path d="M472,444h 4" fill="none" stroke="#ff0099"/>
<path d="M479,444h 4" fill="none" stroke="#ff0099"/>
<g stroke="#ff0099" stroke-width="1" fill="#ff0099">
<circle cx=" 477" cy=" 444" r=" 1.5"/>
</g>
<path d="M483,445h 4" fill="none" stroke="#ff0099"/>
<path d="M490,445h 4" fill="none" stroke="#ff0099"/>
<g stroke="#ff0099" stroke-width="1" fill="#ff0099">
<circle cx=" 489" cy=" 445" r=" 1.5"/>
</g>
<path d="M494,445h 4" fill="none" stroke="#ff0099"/>
<path d="M501,445h 4" fill="none" stroke="#ff0099"/>
<g stroke="#ff0099" stroke-width="1" fill="#ff0099">
<circle cx=" 500" cy=" 445" r=" 1.5"/>
</g>
<path d="M505,446h 5" fill="none" stroke="#ff0099"/>
<path d="M512,446h 4" fill="none" stroke="#ff0099"/>
<g stroke="#ff0099" stroke-width="1" fill="#ff0099">
<circle cx=" 511" cy=" 446" r=" 1.5"/>
</g>
<path d="M516,446h 5" fill="none" stroke="#ff0099"/>
<path d="M523,446h 4" fill="none" stroke="#ff0099"/>
<g stroke="#ff0099" stroke-width="1" fill="#ff0099">
<circle cx=" 522" cy=" 446" r=" 1.5"/>
</g>
<path d="M74,446h 453" fill="none" stroke="black"/>
<path d="M79,434v 12" fill="none" stroke="black"/>
<path d="M90,440v 6" fill="none" stroke="black"/>
<path d="M101,440v 6" fill="none" stroke="black"/>
<path d="M112,440v 6" fill="none" stroke="black"/>
<path d="M123,440v 6" fill="none" stroke="black"/>
<path d="M135,434v 12" fill="none" stroke="black"/>
<path d="M146,440v 6" fill="none" stroke="black"/>
<path d="M157,440v 6" fill="none" stroke="black"/>
<path d="M168,440v 6" fill="none" stroke="black"/>
<path d="M179,440v 6" fill="none" stroke="black"/>
<path d="M190,434v 12" fill="none" stroke="black"/>
<path d="M201,440v 6" fill="none" stroke="black"/>
<path d="M212,440v 6" fill="none" stroke="black"/>
<path d="M223,440v 6" fill="none" stroke="black"/>
<path d="M234,440v 6" fill="none" stroke="black"/>
<path d="M245,434v 12" fill="none" stroke="black"/>
<path d="M256,440v 6" fill="none" stroke="black"/>
<path d="M267,440v 6" fill="none" stroke="black"/>
<path d="M278,440v 6" fill="none" stroke="black"/>
<path d="M289,440v 6" fill="none" stroke="black"/>
<path d="M300,434v 12" fill="none" stroke="black"/>
<path d="M312,440v 6" fill="none" stroke="black"/>
<path d="M323,440v 6" fill="none" stroke="black"/>
<path d="M334,440v 6" fill="none" stroke="black"/>
<path d="M345,440v 6" fill="none" stroke="black"/>
<path d="M356,434v 12" fill="none" stroke="black"/>
<path d="M367,440v 6" fill="none" stroke="black"/>
<path d="M378,440v 6" fill="none" stroke="black"/>
<path d="M389,440v 6" fill="none" stroke="black"/>
<path d="M400,440v 6" fill="none" stroke="black"/>
<path d="M411,434v 12" fill="none" stroke="black"/>
<path d="M422,440v 6" fill="none" stroke="black"/>
<path d="M433,440v 6" fill="none" stroke="black"/>
<path d="M444,440v 6" fill="none" stroke="black"/>
<path d="M455,440v 6" fill="none" stroke="black"/>
<path d="M466,434v 12" fill="none" stroke="black"/>
<path d="M477,440v 6" fill="none" stroke="black"/>
<path d="M489,440v 6" fill="none" stroke="black"/>
<path d="M500,440v 6" fill="none" stroke="black"/>
<path d="M511,440v 6" fill="none" stroke="black"/>
<path d="M522,434v 12" fill="none" stroke="black"/>
<path d="M79,434v 12" fill="none" stroke="black"/>
<path d="M522,434v 12" fill="none" stroke="black"/>
<text x="74" y="465" fill="black" font-size="18" font-family="Helvetica" font-weight="bold">
0
</text>
<text x="129" y="465" fill="black" font-size="18" font-family="Helvetica" font-weight="bold">
5
</text>
<text x="179" y="465" fill="black" font-size="18" font-family="Helvetica" font-weight="bold">
10
</text>
<text x="235" y="465" fill="black" font-size="18" font-family="Helvetica" font-weight="bold">
15
</text>
<text x="290" y="465" fill="black" font-size="18" font-family="Helvetica" font-weight="bold">
20
</text>
<text x="346" y="465" fill="black" font-size="18" font-family="Helvetica" font-weight="bold">
25
</text>
<text x="401" y="465" fill="black" font-size="18" font-family="Helvetica" font-weight="bold">
30
</text>
<text x="456" y="465" fill="black" font-size="18" font-family="Helvetica" font-weight="bold">
35
</text>
<text x="511" y="465" fill="black" font-size="18" font-family="Helvetica" font-weight="bold">
40
</text>
<path d="M74,44h 453" fill="none" stroke="black"/>
<path d="M79,56v -12" fill="none" stroke="black"/>
<path d="M90,50v -6" fill="none" stroke="black"/>
<path d="M101,50v -6" fill="none" stroke="black"/>
<path d="M112,50v -6" fill="none" stroke="black"/>
<path d="M123,50v -6" fill="none" stroke="black"/>
<path d="M135,56v -12" fill="none" stroke="black"/>
<path d="M146,50v -6" fill="none" stroke="black"/>
<path d="M157,50v -6" fill="none" stroke="black"/>
<path d="M168,50v -6" fill="none" stroke="black"/>
<path d="M179,50v -6" fill="none" stroke="black"/>
<path d="M190,56v -12" fill="none" stroke="black"/>
<path d="M201,50v -6" fill="none" stroke="black"/>
<path d="M212,50v -6" fill="none" stroke="black"/>
<path d="M223,50v -6" fill="none" stroke="black"/>
<path d="M234,50v -6" fill="none" stroke="black"/>
<path d="M245,56v -12" fill="none" stroke="black"/>
<path d="M256,50v -6" fill="none" stroke="black"/>
<path d="M267,50v -6" fill="none" stroke="black"/>
<path d="M278,50v -6" fill="none" stroke="black"/>
<path d="M289,50v -6" fill="none" stroke="black"/>
<path d="M300,56v -12" fill="none" stroke="black"/>
<path d="M312,50v -6" fill="none" stroke="black"/>
<path d="M323,50v -6" fill="none" stroke="black"/>
<path d="M334,50v -6" fill="none" stroke="black"/>
<path d="M345,50v -6" fill="none" stroke="black"/>
<path d="M356,56v -12" fill="none" stroke="black"/>
<path d="M367,50v -6" fill="none" stroke="black"/>
<path d="M378,50v -6" fill="none" stroke="black"/>
<path d="M389,50v -6" fill="none" stroke="black"/>
<path d="M400,50v -6" fill="none" stroke="black"/>
<path d="M411,56v -12" fill="none" stroke="black"/>
<path d="M422,50v -6" fill="none" stroke="black"/>
<path d="M433,50v -6" fill="none" stroke="black"/>
<path d="M444,50v -6" fill="none" stroke="black"/>
<path d="M455,50v -6" fill="none" stroke="black"/>
<path d="M466,56v -12" fill="none" stroke="black"/>
<path d="M477,50v -6" fill="none" stroke="black"/>
<path d="M489,50v -6" fill="none" stroke="black"/>
<path d="M500,50v -6" fill="none" stroke="black"/>
<path d="M511,50v -6" fill="none" stroke="black"/>
<path d="M522,56v -12" fill="none" stroke="black"/>
<path d="M79,56v -12" fill="none" stroke="black"/>
<path d="M522,56v -12" fill="none" stroke="black"/>
<path d="M74,446v -402" fill="none" stroke="black"/>
<path d="M87,446h -13" fill="none" stroke="black"/>
<path d="M81,436h -7" fill="none" stroke="black"/>
<path d="M81,425h -7" fill="none" stroke="black"/>
<path d="M81,415h -7" fill="none" stroke="black"/>
<path d="M81,404h -7" fill="none" stroke="black"/>
<path d="M87,394h -13" fill="none" stroke="black"/>
<path d="M81,383h -7" fill="none" stroke="black"/>
<path d="M81,373h -7" fill="none" stroke="black"/>
<path d="M81,363h -7" fill="none" stroke="black"/>
<path d="M81,352h -7" fill="none" stroke="black"/>
<path d="M87,342h -13" fill="none" stroke="black"/>
<path d="M81,331h -7" fill="none" stroke="black"/>
<path d="M81,321h -7" fill="none" stroke="black"/>
<path d="M81,310h -7" fill="none" stroke="black"/>
<path d="M81,300h -7" fill="none" stroke="black"/>
<path d="M87,289h -13" fill="none" stroke="black"/>
<path d="M81,279h -7" fill="none" stroke="black"/>
<path d="M81,268h -7" fill="none" stroke="black"/>
<path d="M81,258h -7" fill="none" stroke="black"/>
<path d="M81,247h -7" fill="none" stroke="black"/>
<path d="M87,237h -13" fill="none" stroke="black"/>
<path d="M81,226h -7" fill="none" stroke="black"/>
<path d="M81,216h -7" fill="none" stroke="black"/>
<path d="M81,205h -7" fill="none" stroke="black"/>
<path d="M81,195h -7" fill="none" stroke="black"/>
<path d="M87,184h -13" fill="none" stroke="black"/>
<path d="M81,174h -7" fill="none" stroke="black"/>
<path d="M81,163h -7" fill="none" stroke="black"/>
<path d="M81,153h -7" fill="none" stroke="black"/>
<path d="M81,142h -7" fill="none" stroke="black"/>
<path d="M87,132h -13" fill="none" stroke="black"/>
<path d="M81,122h -7" fill="none" stroke="black"/>
<path d="M81,111h -7" fill="none" stroke="black"/>
<path d="M81,101h -7" fill="none" stroke="black"/>
<path d="M81,90h -7" fill="none" stroke="black"/>
<path d="M87,80h -13" fill="none" stroke="black"/>
<path d="M87,80h -13" fill="none" stroke="black"/>
<path d="M81,69h -7" fill="none" stroke="black"/>
<path d="M81,59h -7" fill="none" stroke="black"/>
<path d="M81,48h -7" fill="none" stroke="black"/>
<text x="61" y="453" fill="black" font-size="18" font-family="Helvetica" font-weight="bold">
0
</text>
<text x="37" y="400" fill="black" font-size="18" font-family="Helvetica" font-weight="bold">
0.01
</text>
<text x="35" y="348" fill="black" font-size="18" font-family="Helvetica" font-weight="bold">
0.02
</text>
<text x="35" y="296" fill="black" font-size="18" font-family="Helvetica" font-weight="bold">
0.03
</text>
<text x="34" y="243" fill="black" font-size="18" font-family="Helvetica" font-weight="bold">
0.04
</text>
<text x="34" y="191" fill="black" font-size="18" font-family="Helvetica" font-weight="bold">
0.05
</text>
<text x="34" y="139" fill="black" font-size="18" font-family="Helvetica" font-weight="bold">
0.06
</text>
<text x="35" y="86" fill="black" font-size="18" font-family="Helvetica" font-weight="bold">
0.07
</text>
<path d="M90,446" fill="none" stroke="#99ff99" stroke-width="2"/>
<path d="M90,446" fill="none" stroke="#99ff99" stroke-width="2"/>
<g stroke="black" stroke-width="2" fill="none">
<line x1="89" y1="446" x2="90" y2="446"/>
</g>
<path d="M101,445" fill="none" stroke="#99ff99" stroke-width="2"/>
<path d="M101,445v -1" fill="none" stroke="#99ff99" stroke-width="2"/>
<g stroke="black" stroke-width="2" fill="none">
<line x1="100" y1="445" x2="101" y2="445"/>
</g>
<path d="M112,440v -1" fill="none" stroke="#99ff99" stroke-width="2"/>
<path d="M112,439" fill="none" stroke="#99ff99" stroke-width="2"/>
<g stroke="black" stroke-width="2" fill="none">
<line x1="111" y1="439" x2="112" y2="439"/>
</g>
<path d="M123,428v -1" fill="none" stroke="#99ff99" stroke-width="2"/>
<path d="M123,427v -2" fill="none" stroke="#99ff99" stroke-width="2"/>
<g stroke="black" stroke-width="2" fill="none">
<line x1="122" y1="427" x2="123" y2="427"/>
</g>
<path d="M135,406v -2" fill="none" stroke="#99ff99" stroke-width="2"/>
<path d="M135,404v -3" fill="none" stroke="#99ff99" stroke-width="2"/>
<g stroke="black" stroke-width="2" fill="none">
<line x1="134" y1="404" x2="135" y2="404"/>
</g>
<path d="M146,375v -3" fill="none" stroke="#99ff99" stroke-width="2"/>
<path d="M146,372v -3" fill="none" stroke="#99ff99" stroke-width="2"/>
<g stroke="black" stroke-width="2" fill="none">
<line x1="145" y1="372" x2="146" y2="372"/>
</g>
<path d="M157,328v -4" fill="none" stroke="#99ff99" stroke-width="2"/>
<path d="M157,324v -5" fill="none" stroke="#99ff99" stroke-width="2"/>
<g stroke="black" stroke-width="2" fill="none">
<line x1="156" y1="324" x2="157" y2="324"/>
</g>
<path d="M168,283v -5" fill="none" stroke="#99ff99" stroke-width="2"/>
<path d="M168,278v -5" fill="none" stroke="#99ff99" stroke-width="2"/>
<g stroke="black" stroke-width="2" fill="none">
<line x1="167" y1="278" x2="168" y2="278"/>
</g>
<path d="M179,231v -5" fill="none" stroke="#99ff99" stroke-width="2"/>
<path d="M179,226v -6" fill="none" stroke="#99ff99" stroke-width="2"/>
<g stroke="black" stroke-width="2" fill="none">
<line x1="178" y1="226" x2="179" y2="226"/>
</g>
<path d="M190,193v -4" fill="none" stroke="#99ff99" stroke-width="2"/>
<path d="M190,189v -5" fill="none" stroke="#99ff99" stroke-width="2"/>
<g stroke="black" stroke-width="2" fill="none">
<line x1="189" y1="189" x2="190" y2="189"/>
</g>
<path d="M201,140v -7" fill="none" stroke="#99ff99" stroke-width="2"/>
<path d="M201,133v -7" fill="none" stroke="#99ff99" stroke-width="2"/>
<g stroke="black" stroke-width="2" fill="none">
<line x1="200" y1="133" x2="201" y2="133"/>
</g>
<path d="M212,116v -7" fill="none" stroke="#99ff99" stroke-width="2"/>
<path d="M212,109v -6" fill="none" stroke="#99ff99" stroke-width="2"/>
<g stroke="black" stroke-width="2" fill="none">
<line x1="211" y1="109" x2="212" y2="109"/>
</g>
<path d="M223,84v -9" fill="none" stroke="#99ff99" stroke-width="2"/>
<path d="M223,75v -9" fill="none" stroke="#99ff99" stroke-width="2"/>
<g stroke="black" stroke-width="2" fill="none">
<line x1="222" y1="75" x2="223" y2="75"/>
</g>
<path d="M234,77v -9" fill="none" stroke="#99ff99" stroke-width="2"/>
<path d="M234,68v -8" fill="none" stroke="#99ff99" stroke-width="2"/>
<g stroke="black" stroke-width="2" fill="none">
<line x1="233" y1="68" x2="234" y2="68"/>
</g>
<path d="M245,91v -7" fill="none" stroke="#99ff99" stroke-width="2"/>
<path d="M245,84v -6" fill="none" stroke="#99ff99" stroke-width="2"/>
<g stroke="black" stroke-width="2" fill="none">
<line x1="244" y1="84" x2="245" y2="84"/>
</g>
<path d="M256,110v -6" fill="none" stroke="#99ff99" stroke-width="2"/>
<path d="M256,104v -7" fill="none" stroke="#99ff99" stroke-width="2"/>
<g stroke="black" stroke-width="2" fill="none">
<line x1="255" y1="104" x2="256" y2="104"/>
</g>
<path d="M267,108v -8" fill="none" stroke="#99ff99" stroke-width="2"/>
<path d="M267,100v -8" fill="none" stroke="#99ff99" stroke-width="2"/>
<g stroke="black" stroke-width="2" fill="none">
<line x1="266" y1="100" x2="267" y2="100"/>
</g>
<path d="M278,142v -6" fill="none" stroke="#99ff99" stroke-width="2"/>
<path d="M278,136v -7" fill="none" stroke="#99ff99" stroke-width="2"/>
<g stroke="black" stroke-width="2" fill="none">
<line x1="277" y1="136" x2="278" y2="136"/>
</g>
<path d="M289,157v -8" fill="none" stroke="#99ff99" stroke-width="2"/>
<path d="M289,149v -8" fill="none" stroke="#99ff99" stroke-width="2"/>
<g stroke="black" stroke-width="2" fill="none">
<line x1="288" y1="149" x2="289" y2="149"/>
</g>
<path d="M300,203v -6" fill="none" stroke="#99ff99" stroke-width="2"/>
<path d="M300,197v -6" fill="none" stroke="#99ff99" stroke-width="2"/>
<g stroke="black" stroke-width="2" fill="none">
<line x1="299" y1="197" x2="300" y2="197"/>
</g>
<path d="M312,226v -6" fill="none" stroke="#99ff99" stroke-width="2"/>
<path d="M312,220v -7" fill="none" stroke="#99ff99" stroke-width="2"/>
<g stroke="black" stroke-width="2" fill="none">
<line x1="311" y1="220" x2="312" y2="220"/>
</g>
<path d="M323,276v -4" fill="none" stroke="#99ff99" stroke-width="2"/>
<path d="M323,272v -4" fill="none" stroke="#99ff99" stroke-width="2"/>
<g stroke="black" stroke-width="2" fill="none">
<line x1="322" y1="272" x2="323" y2="272"/>
</g>
<path d="M334,301v -4" fill="none" stroke="#99ff99" stroke-width="2"/>
<path d="M334,297v -5" fill="none" stroke="#99ff99" stroke-width="2"/>
<g stroke="black" stroke-width="2" fill="none">
<line x1="333" y1="297" x2="334" y2="297"/>
</g>
<path d="M345,334v -4" fill="none" stroke="#99ff99" stroke-width="2"/>
<path d="M345,330v -3" fill="none" stroke="#99ff99" stroke-width="2"/>
<g stroke="black" stroke-width="2" fill="none">
<line x1="344" y1="330" x2="345" y2="330"/>
</g>
<path d="M356,348v -4" fill="none" stroke="#99ff99" stroke-width="2"/>
<path d="M356,344v -5" fill="none" stroke="#99ff99" stroke-width="2"/>
<g stroke="black" stroke-width="2" fill="none">
<line x1="355" y1="344" x2="356" y2="344"/>
</g>
<path d="M367,379v -2" fill="none" stroke="#99ff99" stroke-width="2"/>
<path d="M367,377v -2" fill="none" stroke="#99ff99" stroke-width="2"/>
<g stroke="black" stroke-width="2" fill="none">
<line x1="366" y1="377" x2="367" y2="377"/>
</g>
<path d="M378,396v -2" fill="none" stroke="#99ff99" stroke-width="2"/>
<path d="M378,394v -2" fill="none" stroke="#99ff99" stroke-width="2"/>
<g stroke="black" stroke-width="2" fill="none">
<line x1="377" y1="394" x2="378" y2="394"/>
</g>
<path d="M389,411v -2" fill="none" stroke="#99ff99" stroke-width="2"/>
<path d="M389,409v -1" fill="none" stroke="#99ff99" stroke-width="2"/>
<g stroke="black" stroke-width="2" fill="none">
<line x1="388" y1="409" x2="389" y2="409"/>
</g>
<path d="M400,420v -1" fill="none" stroke="#99ff99" stroke-width="2"/>
<path d="M400,419v -1" fill="none" stroke="#99ff99" stroke-width="2"/>
<g stroke="black" stroke-width="2" fill="none">
<line x1="399" y1="419" x2="400" y2="419"/>
</g>
<path d="M411,427v -1" fill="none" stroke="#99ff99" stroke-width="2"/>
<path d="M411,426v -2" fill="none" stroke="#99ff99" stroke-width="2"/>
<g stroke="black" stroke-width="2" fill="none">
<line x1="410" y1="426" x2="411" y2="426"/>
</g>
<path d="M422,434" fill="none" stroke="#99ff99" stroke-width="2"/>
<path d="M422,434v -1" fill="none" stroke="#99ff99" stroke-width="2"/>
<g stroke="black" stroke-width="2" fill="none">
<line x1="421" y1="434" x2="422" y2="434"/>
</g>
<path d="M433,438v -1" fill="none" stroke="#99ff99" stroke-width="2"/>
<path d="M433,437v -1" fill="none" stroke="#99ff99" stroke-width="2"/>
<g stroke="black" stroke-width="2" fill="none">
<line x1="432" y1="437" x2="433" y2="437"/>
</g>
<path d="M444,441" fill="none" stroke="#99ff99" stroke-width="2"/>
<path d="M444,441v -1" fill="none" stroke="#99ff99" stroke-width="2"/>
<g stroke="black" stroke-width="2" fill="none">
<line x1="443" y1="441" x2="444" y2="441"/>
</g>
<path d="M455,442" fill="none" stroke="#99ff99" stroke-width="2"/>
<path d="M455,442v -1" fill="none" stroke="#99ff99" stroke-width="2"/>
<g stroke="black" stroke-width="2" fill="none">
<line x1="454" y1="442" x2="455" y2="442"/>
</g>
<path d="M466,444" fill="none" stroke="#99ff99" stroke-width="2"/>
<path d="M466,444v -1" fill="none" stroke="#99ff99" stroke-width="2"/>
<g stroke="black" stroke-width="2" fill="none">
<line x1="465" y1="444" x2="466" y2="444"/>
</g>
<path d="M477,445" fill="none" stroke="#99ff99" stroke-width="2"/>
<path d="M477,445" fill="none" stroke="#99ff99" stroke-width="2"/>
<g stroke="black" stroke-width="2" fill="none">
<line x1="476" y1="445" x2="477" y2="445"/>
</g>
<path d="M489,445" fill="none" stroke="#99ff99" stroke-width="2"/>
<path d="M489,445" fill="none" stroke="#99ff99" stroke-width="2"/>
<g stroke="black" stroke-width="2" fill="none">
<line x1="488" y1="445" x2="489" y2="445"/>
</g>
<path d="M500,446" fill="none" stroke="#99ff99" stroke-width="2"/>
<path d="M500,446" fill="none" stroke="#99ff99" stroke-width="2"/>
<g stroke="black" stroke-width="2" fill="none">
<line x1="499" y1="446" x2="500" y2="446"/>
</g>
<path d="M511,446" fill="none" stroke="#99ff99" stroke-width="2"/>
<path d="M511,446" fill="none" stroke="#99ff99" stroke-width="2"/>
<g stroke="black" stroke-width="2" fill="none">
<line x1="510" y1="446" x2="511" y2="446"/>
</g>
<path d="M522,446" fill="none" stroke="#99ff99" stroke-width="2"/>
<path d="M522,446" fill="none" stroke="#99ff99" stroke-width="2"/>
<g stroke="black" stroke-width="2" fill="none">
<line x1="521" y1="446" x2="522" y2="446"/>
</g>
<path d="M74,446h 22v -1h 11v -6h 11v -12h 11v -23h 11v -32h 11v -48h 11v -46h 11v -52h 11v -37h 11v -56h 11v -24h 12v -34h 11v -7h 11v 16h 11v 20h 11v -4h 11v 36h 11v 13h 11v 48h 11v 23h 11v 52h 11v 25h 11v 33h 11v 14h 11v 33h 11v 17h 11v 15h 11v
 10h 12v 7h 11v 8h 11v 3h 11v 4h 11v 1h 11v 2h 11v 1h 22v 1h 33z" fill="#99ff99"/>
<path d="M74,446h 22v -1h 11v -6h 11v -12h 11v -23h 11v -32h 11v -48h 11v -46h 11v -52h 11v -37h 11v -56h 11v -24h 12v -34h 11v -7h 11v 16h 11v 20h 11v -4h 11v 36h 11v 13h 11v 48h 11v 23h 11v 52h 11v 25h 11v 33h 11v 14h 11v 33h 11v 17h 11v 15h 11v
 10h 12v 7h 11v 8h 11v 3h 11v 4h 11v 1h 11v 2h 11v 1h 22v 1h 33" fill="none" stroke="#99ff99" stroke-width="2"/>
<path d="M85,446h 4" fill="none" stroke="#ff0099"/>
<path d="M91,446h 5" fill="none" stroke="#ff0099"/>
<g stroke="#ff0099" stroke-width="1" fill="#ff0099">
<circle cx=" 90" cy=" 446" r=" 1.5"/>
</g>
<path d="M96,444h 4" fill="none" stroke="#ff0099"/>
<path d="M102,444h 5" fill="none" stroke="#ff0099"/>
<g stroke="#ff0099" stroke-width="1" fill="#ff0099">
<circle cx=" 101" cy=" 444" r=" 1.5"/>
</g>
<path d="M107,439h 4" fill="none" stroke="#ff0099"/>
<path d="M114,439h 4" fill="none" stroke="#ff0099"/>
<g stroke="#ff0099" stroke-width="1" fill="#ff0099">
<circle cx=" 112" cy=" 439" r=" 1.5"/>
</g>
<path d="M123,427" fill="none" stroke="#ff0099"/>
<path d="M123,424" fill="none" stroke="#ff0099"/>
<path d="M118,426h 4" fill="none" stroke="#ff0099"/>
<path d="M125,426h 4" fill="none" stroke="#ff0099"/>
<g stroke="#ff0099" stroke-width="1" fill="#ff0099">
<circle cx=" 123" cy=" 426" r=" 1.5"/>
</g>
<path d="M135,405v -1" fill="none" stroke="#ff0099"/>
<path d="M135,401" fill="none" stroke="#ff0099"/>
<path d="M129,403h 4" fill="none" stroke="#ff0099"/>
<path d="M136,403h 4" fill="none" stroke="#ff0099"/>
<g stroke="#ff0099" stroke-width="1" fill="#ff0099">
<circle cx=" 135" cy=" 403" r=" 1.5"/>
</g>
<path d="M146,368v -2" fill="none" stroke="#ff0099"/>
<path d="M146,364v -2" fill="none" stroke="#ff0099"/>
<path d="M140,365h 4" fill="none" stroke="#ff0099"/>
<path d="M147,365h 4" fill="none" stroke="#ff0099"/>
<g stroke="#ff0099" stroke-width="1" fill="#ff0099">
<circle cx=" 146" cy=" 365" r=" 1.5"/>
</g>
<path d="M157,321v -3" fill="none" stroke="#ff0099"/>
<path d="M157,316v -3" fill="none" stroke="#ff0099"/>
<path d="M151,317h 5" fill="none" stroke="#ff0099"/>
<path d="M158,317h 4" fill="none" stroke="#ff0099"/>
<g stroke="#ff0099" stroke-width="1" fill="#ff0099">
<circle cx=" 157" cy=" 317" r=" 1.5"/>
</g>
<path d="M168,279v -4" fill="none" stroke="#ff0099"/>
<path d="M168,273v -3" fill="none" stroke="#ff0099"/>
<path d="M162,274h 5" fill="none" stroke="#ff0099"/>
<path d="M169,274h 4" fill="none" stroke="#ff0099"/>
<g stroke="#ff0099" stroke-width="1" fill="#ff0099">
<circle cx=" 168" cy=" 274" r=" 1.5"/>
</g>
<path d="M179,217v -4" fill="none" stroke="#ff0099"/>
<path d="M179,210v -4" fill="none" stroke="#ff0099"/>
<path d="M173,212h 5" fill="none" stroke="#ff0099"/>
<path d="M180,212h 4" fill="none" stroke="#ff0099"/>
<g stroke="#ff0099" stroke-width="1" fill="#ff0099">
<circle cx=" 179" cy=" 212" r=" 1.5"/>
</g>
<path d="M190,179v -5" fill="none" stroke="#ff0099"/>
<path d="M190,172v -5" fill="none" stroke="#ff0099"/>
<path d="M184,173h 5" fill="none" stroke="#ff0099"/>
<path d="M191,173h 4" fill="none" stroke="#ff0099"/>
<g stroke="#ff0099" stroke-width="1" fill="#ff0099">
<circle cx=" 190" cy=" 173" r=" 1.5"/>
</g>
<path d="M201,135v -5" fill="none" stroke="#ff0099"/>
<path d="M201,127v -5" fill="none" stroke="#ff0099"/>
<path d="M195,128h 5" fill="none" stroke="#ff0099"/>
<path d="M202,128h 4" fill="none" stroke="#ff0099"/>
<g stroke="#ff0099" stroke-width="1" fill="#ff0099">
<circle cx=" 201" cy=" 128" r=" 1.5"/>
</g>
<path d="M212,83v -5" fill="none" stroke="#ff0099"/>
<path d="M212,75v -6" fill="none" stroke="#ff0099"/>
<path d="M206,76h 5" fill="none" stroke="#ff0099"/>
<path d="M213,76h 5" fill="none" stroke="#ff0099"/>
<g stroke="#ff0099" stroke-width="1" fill="#ff0099">
<circle cx=" 212" cy=" 76" r=" 1.5"/>
</g>
<path d="M223,79v -6" fill="none" stroke="#ff0099"/>
<path d="M223,71v -6" fill="none" stroke="#ff0099"/>
<path d="M218,72h 4" fill="none" stroke="#ff0099"/>
<path d="M224,72h 5" fill="none" stroke="#ff0099"/>
<g stroke="#ff0099" stroke-width="1" fill="#ff0099">
<circle cx=" 223" cy=" 72" r=" 1.5"/>
</g>
<path d="M234,81v -6" fill="none" stroke="#ff0099"/>
<path d="M234,73v -6" fill="none" stroke="#ff0099"/>
<path d="M229,74h 4" fill="none" stroke="#ff0099"/>
<path d="M235,74h 5" fill="none" stroke="#ff0099"/>
<g stroke="#ff0099" stroke-width="1" fill="#ff0099">
<circle cx=" 234" cy=" 74" r=" 1.5"/>
</g>
<path d="M245,78v -6" fill="none" stroke="#ff0099"/>
<path d="M245,69v -6" fill="none" stroke="#ff0099"/>
<path d="M240,71h 4" fill="none" stroke="#ff0099"/>
<path d="M246,71h 5" fill="none" stroke="#ff0099"/>
<g stroke="#ff0099" stroke-width="1" fill="#ff0099">
<circle cx=" 245" cy=" 71" r=" 1.5"/>
</g>
<path d="M256,98v -6" fill="none" stroke="#ff0099"/>
<path d="M256,90v -6" fill="none" stroke="#ff0099"/>
<path d="M251,91h 4" fill="none" stroke="#ff0099"/>
<path d="M257,91h 5" fill="none" stroke="#ff0099"/>
<g stroke="#ff0099" stroke-width="1" fill="#ff0099">
<circle cx=" 256" cy=" 91" r=" 1.5"/>
</g>
<path d="M267,112v -6" fill="none" stroke="#ff0099"/>
<path d="M267,104v -6" fill="none" stroke="#ff0099"/>
<path d="M262,105h 4" fill="none" stroke="#ff0099"/>
<path d="M268,105h 5" fill="none" stroke="#ff0099"/>
<g stroke="#ff0099" stroke-width="1" fill="#ff0099">
<circle cx=" 267" cy=" 105" r=" 1.5"/>
</g>
<path d="M278,150v -5" fill="none" stroke="#ff0099"/>
<path d="M278,142v -5" fill="none" stroke="#ff0099"/>
<path d="M273,144h 4" fill="none" stroke="#ff0099"/>
<path d="M279,144h 5" fill="none" stroke="#ff0099"/>
<g stroke="#ff0099" stroke-width="1" fill="#ff0099">
<circle cx=" 278" cy=" 144" r=" 1.5"/>
</g>
<path d="M289,172v -5" fill="none" stroke="#ff0099"/>
<path d="M289,165v -5" fill="none" stroke="#ff0099"/>
<path d="M284,166h 4" fill="none" stroke="#ff0099"/>
<path d="M291,166h 4" fill="none" stroke="#ff0099"/>
<g stroke="#ff0099" stroke-width="1" fill="#ff0099">
<circle cx=" 289" cy=" 166" r=" 1.5"/>
</g>
<path d="M300,218v -5" fill="none" stroke="#ff0099"/>
<path d="M300,211v -5" fill="none" stroke="#ff0099"/>
<path d="M295,212h 4" fill="none" stroke="#ff0099"/>
<path d="M302,212h 4" fill="none" stroke="#ff0099"/>
<g stroke="#ff0099" stroke-width="1" fill="#ff0099">
<circle cx=" 300" cy=" 212" r=" 1.5"/>
</g>
<path d="M312,244v -4" fill="none" stroke="#ff0099"/>
<path d="M312,238v -5" fill="none" stroke="#ff0099"/>
<path d="M306,239h 4" fill="none" stroke="#ff0099"/>
<path d="M313,239h 4" fill="none" stroke="#ff0099"/>
<g stroke="#ff0099" stroke-width="1" fill="#ff0099">
<circle cx=" 312" cy=" 239" r=" 1.5"/>
</g>
<path d="M323,280v -4" fill="none" stroke="#ff0099"/>
<path d="M323,274v -4" fill="none" stroke="#ff0099"/>
<path d="M317,275h 4" fill="none" stroke="#ff0099"/>
<path d="M324,275h 4" fill="none" stroke="#ff0099"/>
<g stroke="#ff0099" stroke-width="1" fill="#ff0099">
<circle cx=" 323" cy=" 275" r=" 1.5"/>
</g>
<path d="M334,306v -3" fill="none" stroke="#ff0099"/>
<path d="M334,300v -3" fill="none" stroke="#ff0099"/>
<path d="M328,302h 5" fill="none" stroke="#ff0099"/>
<path d="M335,302h 4" fill="none" stroke="#ff0099"/>
<g stroke="#ff0099" stroke-width="1" fill="#ff0099">
<circle cx=" 334" cy=" 302" r=" 1.5"/>
</g>
<path d="M345,335v -3" fill="none" stroke="#ff0099"/>
<path d="M345,329v -3" fill="none" stroke="#ff0099"/>
<path d="M339,330h 5" fill="none" stroke="#ff0099"/>
<path d="M346,330h 4" fill="none" stroke="#ff0099"/>
<g stroke="#ff0099" stroke-width="1" fill="#ff0099">
<circle cx=" 345" cy=" 330" r=" 1.5"/>
</g>
<path d="M356,361v -2" fill="none" stroke="#ff0099"/>
<path d="M356,356v -2" fill="none" stroke="#ff0099"/>
<path d="M350,358h 5" fill="none" stroke="#ff0099"/>
<path d="M357,358h 4" fill="none" stroke="#ff0099"/>
<g stroke="#ff0099" stroke-width="1" fill="#ff0099">
<circle cx=" 356" cy=" 358" r=" 1.5"/>
</g>
<path d="M367,383v -1" fill="none" stroke="#ff0099"/>
<path d="M367,379v -2" fill="none" stroke="#ff0099"/>
<path d="M361,380h 5" fill="none" stroke="#ff0099"/>
<path d="M368,380h 4" fill="none" stroke="#ff0099"/>
<g stroke="#ff0099" stroke-width="1" fill="#ff0099">
<circle cx=" 367" cy=" 380" r=" 1.5"/>
</g>
<path d="M378,404v -1" fill="none" stroke="#ff0099"/>
<path d="M378,401v -1" fill="none" stroke="#ff0099"/>
<path d="M372,402h 5" fill="none" stroke="#ff0099"/>
<path d="M379,402h 4" fill="none" stroke="#ff0099"/>
<g stroke="#ff0099" stroke-width="1" fill="#ff0099">
<circle cx=" 378" cy=" 402" r=" 1.5"/>
</g>
<path d="M389,416v -1" fill="none" stroke="#ff0099"/>
<path d="M389,413v -1" fill="none" stroke="#ff0099"/>
<path d="M383,414h 5" fill="none" stroke="#ff0099"/>
<path d="M390,414h 4" fill="none" stroke="#ff0099"/>
<g stroke="#ff0099" stroke-width="1" fill="#ff0099">
<circle cx=" 389" cy=" 414" r=" 1.5"/>
</g>
<path d="M400,422v -1" fill="none" stroke="#ff0099"/>
<path d="M400,419v -1" fill="none" stroke="#ff0099"/>
<path d="M394,420h 5" fill="none" stroke="#ff0099"/>
<path d="M401,420h 5" fill="none" stroke="#ff0099"/>
<g stroke="#ff0099" stroke-width="1" fill="#ff0099">
<circle cx=" 400" cy=" 420" r=" 1.5"/>
</g>
<path d="M411,429v -1" fill="none" stroke="#ff0099"/>
<path d="M411,426v -1" fill="none" stroke="#ff0099"/>
<path d="M406,427h 4" fill="none" stroke="#ff0099"/>
<path d="M412,427h 5" fill="none" stroke="#ff0099"/>
<g stroke="#ff0099" stroke-width="1" fill="#ff0099">
<circle cx=" 411" cy=" 427" r=" 1.5"/>
</g>
<path d="M422,436" fill="none" stroke="#ff0099"/>
<path d="M422,433" fill="none" stroke="#ff0099"/>
<path d="M417,435h 4" fill="none" stroke="#ff0099"/>
<path d="M423,435h 5" fill="none" stroke="#ff0099"/>
<g stroke="#ff0099" stroke-width="1" fill="#ff0099">
<circle cx=" 422" cy=" 435" r=" 1.5"/>
</g>
<path d="M428,440h 4" fill="none" stroke="#ff0099"/>
<path d="M434,440h 5" fill="none" stroke="#ff0099"/>
<g stroke="#ff0099" stroke-width="1" fill="#ff0099">
<circle cx=" 433" cy=" 440" r=" 1.5"/>
</g>
<path d="M439,442h 4" fill="none" stroke="#ff0099"/>
<path d="M445,442h 5" fill="none" stroke="#ff0099"/>
<g stroke="#ff0099" stroke-width="1" fill="#ff0099">
<circle cx=" 444" cy=" 442" r=" 1.5"/>
</g>
<path d="M450,443h 4" fill="none" stroke="#ff0099"/>
<path d="M456,443h 5" fill="none" stroke="#ff0099"/>
<g stroke="#ff0099" stroke-width="1" fill="#ff0099">
<circle cx=" 455" cy=" 443" r=" 1.5"/>
</g>
<path d="M461,444h 4" fill="none" stroke="#ff0099"/>
<path d="M468,444h 4" fill="none" stroke="#ff0099"/>
<g stroke="#ff0099" stroke-width="1" fill="#ff0099">
<circle cx=" 466" cy=" 444" r=" 1.5"/>
</g>
<path d="M472,444h 4" fill="none" stroke="#ff0099"/>
<path d="M479,444h 4" fill="none" stroke="#ff0099"/>
<g stroke="#ff0099" stroke-width="1" fill="#ff0099">
<circle cx=" 477" cy=" 444" r=" 1.5"/>
</g>
<path d="M483,445h 4" fill="none" stroke="#ff0099"/>
<path d="M490,445h 4" fill="none" stroke="#ff0099"/>
<g stroke="#ff0099" stroke-width="1" fill="#ff0099">
<circle cx=" 489" cy=" 445" r=" 1.5"/>
</g>
<path d="M494,445h 4" fill="none" stroke="#ff0099"/>
<path d="M501,445h 4" fill="none" stroke="#ff0099"/>
<g stroke="#ff0099" stroke-width="1" fill="#ff0099">
<circle cx=" 500" cy=" 445" r=" 1.5"/>
</g>
<path d="M505,446h 5" fill="none" stroke="#ff0099"/>
<path d="M512,446h 4" fill="none" stroke="#ff0099"/>
<g stroke="#ff0099" stroke-width="1" fill="#ff0099">
<circle cx=" 511" cy=" 446" r=" 1.5"/>
</g>
<path d="M516,446h 5" fill="none" stroke="#ff0099"/>
<path d="M523,446h 4" fill="none" stroke="#ff0099"/>
<g stroke="#ff0099" stroke-width="1" fill="#ff0099">
<circle cx=" 522" cy=" 446" r=" 1.5"/>
</g>
<rect x="357" y="59" width="142" height="99" fill="white"/>
<text x="360" y="82" fill="black" font-size="17" font-family="Helvetica" font-weight="bold">
EB
</text>
<text x="457" y="115" fill="black" font-size="17" font-family="Helvetica" font-weight="bold">
 ee
</text>
<text x="440" y="115" fill="black" font-size="17" font-family="Times">
&#8594;
</text>
<text x="392" y="115" fill="black" font-size="17" font-family="Helvetica" font-weight="bold">
MC Z 
</text>
<path d="M362,109h 25" fill="none" stroke="#ff0099"/>
<g stroke="#ff0099" stroke-width="1" fill="#ff0099">
<circle cx=" 375" cy=" 109" r=" 1.5"/>
</g>
<text x="455" y="147" fill="black" font-size="17" font-family="Helvetica" font-weight="bold">
 + jet
</text>
<text x="447" y="147" fill="black" font-size="17" font-family="Times">
&#0947;
</text>
<text x="392" y="147" fill="black" font-size="17" font-family="Helvetica" font-weight="bold">
signal 
</text>
<path d="M362,154h 25v -24h -25z" fill="#99ff99"/>
<path d="M362,130h 25" fill="none" stroke="#99ff99" stroke-width="2"/>
<path d="M362,154h 25" fill="none" stroke="#99ff99" stroke-width="2"/>
<path d="M387,154v -24" fill="none" stroke="#99ff99" stroke-width="2"/>
<path d="M362,154v -24" fill="none" stroke="#99ff99" stroke-width="2"/>
<text x="300" y="34" fill="black" font-size="17" font-family="Helvetica" font-weight="bold">
=8 TeV
</text>
<text x="291" y="34" fill="black" font-size="17" font-family="Helvetica" font-weight="bold">
s
</text>
<path d="M285,25l 2, 10" fill="none" stroke="black" stroke-width="2"/>
<path d="M287,35l 2, -14" fill="none" stroke="black"/>
<path d="M289,21h 11" fill="none" stroke="black"/>
<text x="142" y="34" fill="black" font-size="17" font-family="Helvetica" font-weight="bold">
CMS Preliminary 
</text></svg>
