<?xml version="1.0" standalone="no"?>
<svg width="567" height="496" viewBox="0 0 567 496" xmlns="http://www.w3.org/2000/svg">
<title>
plots_mcZee_mcGJet//hlt50//nvtxEE.svg
</title>
<desc>
Creator: ROOT Version 5.32/00
CreationDate: Sat Nov 29 19:51:00 2014</desc>
<defs>
</defs>
<rect x="0" y="0" width="567" height="496" fill="white"/>
<rect x="74" y="44" width="453" height="402" fill="white"/>
<rect x="74" y="44" width="453" height="402" fill="none" stroke="black"/>
<rect x="74" y="44" width="453" height="402" fill="white"/>
<rect x="74" y="44" width="453" height="402" fill="none" stroke="black"/>
<path d="M85,446h 4" fill="none" stroke="#ff0099"/>
<path d="M91,446h 5" fill="none" stroke="#ff0099"/>
<g stroke="#ff0099" stroke-width="1" fill="#ff0099">
<circle cx=" 90" cy=" 446" r=" 1.5"/>
</g>
<path d="M96,444h 4" fill="none" stroke="#ff0099"/>
<path d="M102,444h 5" fill="none" stroke="#ff0099"/>
<g stroke="#ff0099" stroke-width="1" fill="#ff0099">
<circle cx=" 101" cy=" 444" r=" 1.5"/>
</g>
<path d="M112,441" fill="none" stroke="#ff0099"/>
<path d="M112,438" fill="none" stroke="#ff0099"/>
<path d="M107,439h 4" fill="none" stroke="#ff0099"/>
<path d="M114,439h 4" fill="none" stroke="#ff0099"/>
<g stroke="#ff0099" stroke-width="1" fill="#ff0099">
<circle cx=" 112" cy=" 439" r=" 1.5"/>
</g>
<path d="M123,431v -1" fill="none" stroke="#ff0099"/>
<path d="M123,428v -1" fill="none" stroke="#ff0099"/>
<path d="M118,429h 4" fill="none" stroke="#ff0099"/>
<path d="M125,429h 4" fill="none" stroke="#ff0099"/>
<g stroke="#ff0099" stroke-width="1" fill="#ff0099">
<circle cx=" 123" cy=" 429" r=" 1.5"/>
</g>
<path d="M135,404v -4" fill="none" stroke="#ff0099"/>
<path d="M135,398v -4" fill="none" stroke="#ff0099"/>
<path d="M129,399h 4" fill="none" stroke="#ff0099"/>
<path d="M136,399h 4" fill="none" stroke="#ff0099"/>
<g stroke="#ff0099" stroke-width="1" fill="#ff0099">
<circle cx=" 135" cy=" 399" r=" 1.5"/>
</g>
<path d="M146,379v -5" fill="none" stroke="#ff0099"/>
<path d="M146,372v -5" fill="none" stroke="#ff0099"/>
<path d="M140,373h 4" fill="none" stroke="#ff0099"/>
<path d="M147,373h 4" fill="none" stroke="#ff0099"/>
<g stroke="#ff0099" stroke-width="1" fill="#ff0099">
<circle cx=" 146" cy=" 373" r=" 1.5"/>
</g>
<path d="M157,339v -6" fill="none" stroke="#ff0099"/>
<path d="M157,330v -6" fill="none" stroke="#ff0099"/>
<path d="M151,332h 5" fill="none" stroke="#ff0099"/>
<path d="M158,332h 4" fill="none" stroke="#ff0099"/>
<g stroke="#ff0099" stroke-width="1" fill="#ff0099">
<circle cx=" 157" cy=" 332" r=" 1.5"/>
</g>
<path d="M168,282v -9" fill="none" stroke="#ff0099"/>
<path d="M168,270v -9" fill="none" stroke="#ff0099"/>
<path d="M162,272h 5" fill="none" stroke="#ff0099"/>
<path d="M169,272h 4" fill="none" stroke="#ff0099"/>
<g stroke="#ff0099" stroke-width="1" fill="#ff0099">
<circle cx=" 168" cy=" 272" r=" 1.5"/>
</g>
<path d="M179,222v -12" fill="none" stroke="#ff0099"/>
<path d="M179,208v -11" fill="none" stroke="#ff0099"/>
<path d="M173,209h 5" fill="none" stroke="#ff0099"/>
<path d="M180,209h 4" fill="none" stroke="#ff0099"/>
<g stroke="#ff0099" stroke-width="1" fill="#ff0099">
<circle cx=" 179" cy=" 209" r=" 1.5"/>
</g>
<path d="M190,197v -10" fill="none" stroke="#ff0099"/>
<path d="M190,184v -10" fill="none" stroke="#ff0099"/>
<path d="M184,186h 5" fill="none" stroke="#ff0099"/>
<path d="M191,186h 4" fill="none" stroke="#ff0099"/>
<g stroke="#ff0099" stroke-width="1" fill="#ff0099">
<circle cx=" 190" cy=" 186" r=" 1.5"/>
</g>
<path d="M201,168v -13" fill="none" stroke="#ff0099"/>
<path d="M201,153v -13" fill="none" stroke="#ff0099"/>
<path d="M195,154h 5" fill="none" stroke="#ff0099"/>
<path d="M202,154h 4" fill="none" stroke="#ff0099"/>
<g stroke="#ff0099" stroke-width="1" fill="#ff0099">
<circle cx=" 201" cy=" 154" r=" 1.5"/>
</g>
<path d="M212,95v -14" fill="none" stroke="#ff0099"/>
<path d="M212,78v -15" fill="none" stroke="#ff0099"/>
<path d="M206,79h 5" fill="none" stroke="#ff0099"/>
<path d="M213,79h 5" fill="none" stroke="#ff0099"/>
<g stroke="#ff0099" stroke-width="1" fill="#ff0099">
<circle cx=" 212" cy=" 79" r=" 1.5"/>
</g>
<path d="M223,114v -14" fill="none" stroke="#ff0099"/>
<path d="M223,98v -15" fill="none" stroke="#ff0099"/>
<path d="M218,99h 4" fill="none" stroke="#ff0099"/>
<path d="M224,99h 5" fill="none" stroke="#ff0099"/>
<g stroke="#ff0099" stroke-width="1" fill="#ff0099">
<circle cx=" 223" cy=" 99" r=" 1.5"/>
</g>
<path d="M234,125v -12" fill="none" stroke="#ff0099"/>
<path d="M234,110v -13" fill="none" stroke="#ff0099"/>
<path d="M229,111h 4" fill="none" stroke="#ff0099"/>
<path d="M235,111h 5" fill="none" stroke="#ff0099"/>
<g stroke="#ff0099" stroke-width="1" fill="#ff0099">
<circle cx=" 234" cy=" 111" r=" 1.5"/>
</g>
<path d="M245,128v -14" fill="none" stroke="#ff0099"/>
<path d="M245,112v -14" fill="none" stroke="#ff0099"/>
<path d="M240,113h 4" fill="none" stroke="#ff0099"/>
<path d="M246,113h 5" fill="none" stroke="#ff0099"/>
<g stroke="#ff0099" stroke-width="1" fill="#ff0099">
<circle cx=" 245" cy=" 113" r=" 1.5"/>
</g>
<path d="M256,123v -14" fill="none" stroke="#ff0099"/>
<path d="M256,107v -14" fill="none" stroke="#ff0099"/>
<path d="M251,108h 4" fill="none" stroke="#ff0099"/>
<path d="M257,108h 5" fill="none" stroke="#ff0099"/>
<g stroke="#ff0099" stroke-width="1" fill="#ff0099">
<circle cx=" 256" cy=" 108" r=" 1.5"/>
</g>
<path d="M267,156v -12" fill="none" stroke="#ff0099"/>
<path d="M267,142v -12" fill="none" stroke="#ff0099"/>
<path d="M262,143h 4" fill="none" stroke="#ff0099"/>
<path d="M268,143h 5" fill="none" stroke="#ff0099"/>
<g stroke="#ff0099" stroke-width="1" fill="#ff0099">
<circle cx=" 267" cy=" 143" r=" 1.5"/>
</g>
<path d="M278,180v -12" fill="none" stroke="#ff0099"/>
<path d="M278,166v -11" fill="none" stroke="#ff0099"/>
<path d="M273,167h 4" fill="none" stroke="#ff0099"/>
<path d="M279,167h 5" fill="none" stroke="#ff0099"/>
<g stroke="#ff0099" stroke-width="1" fill="#ff0099">
<circle cx=" 278" cy=" 167" r=" 1.5"/>
</g>
<path d="M289,208v -11" fill="none" stroke="#ff0099"/>
<path d="M289,194v -11" fill="none" stroke="#ff0099"/>
<path d="M284,195h 4" fill="none" stroke="#ff0099"/>
<path d="M291,195h 4" fill="none" stroke="#ff0099"/>
<g stroke="#ff0099" stroke-width="1" fill="#ff0099">
<circle cx=" 289" cy=" 195" r=" 1.5"/>
</g>
<path d="M300,235v -11" fill="none" stroke="#ff0099"/>
<path d="M300,222v -12" fill="none" stroke="#ff0099"/>
<path d="M295,223h 4" fill="none" stroke="#ff0099"/>
<path d="M302,223h 4" fill="none" stroke="#ff0099"/>
<g stroke="#ff0099" stroke-width="1" fill="#ff0099">
<circle cx=" 300" cy=" 223" r=" 1.5"/>
</g>
<path d="M312,261v -10" fill="none" stroke="#ff0099"/>
<path d="M312,249v -11" fill="none" stroke="#ff0099"/>
<path d="M306,250h 4" fill="none" stroke="#ff0099"/>
<path d="M313,250h 4" fill="none" stroke="#ff0099"/>
<g stroke="#ff0099" stroke-width="1" fill="#ff0099">
<circle cx=" 312" cy=" 250" r=" 1.5"/>
</g>
<path d="M323,299v -8" fill="none" stroke="#ff0099"/>
<path d="M323,289v -8" fill="none" stroke="#ff0099"/>
<path d="M317,290h 4" fill="none" stroke="#ff0099"/>
<path d="M324,290h 4" fill="none" stroke="#ff0099"/>
<g stroke="#ff0099" stroke-width="1" fill="#ff0099">
<circle cx=" 323" cy=" 290" r=" 1.5"/>
</g>
<path d="M334,336v -7" fill="none" stroke="#ff0099"/>
<path d="M334,326v -7" fill="none" stroke="#ff0099"/>
<path d="M328,328h 5" fill="none" stroke="#ff0099"/>
<path d="M335,328h 4" fill="none" stroke="#ff0099"/>
<g stroke="#ff0099" stroke-width="1" fill="#ff0099">
<circle cx=" 334" cy=" 328" r=" 1.5"/>
</g>
<path d="M345,341v -6" fill="none" stroke="#ff0099"/>
<path d="M345,332v -6" fill="none" stroke="#ff0099"/>
<path d="M339,334h 5" fill="none" stroke="#ff0099"/>
<path d="M346,334h 4" fill="none" stroke="#ff0099"/>
<g stroke="#ff0099" stroke-width="1" fill="#ff0099">
<circle cx=" 345" cy=" 334" r=" 1.5"/>
</g>
<path d="M356,370v -7" fill="none" stroke="#ff0099"/>
<path d="M356,361v -6" fill="none" stroke="#ff0099"/>
<path d="M350,362h 5" fill="none" stroke="#ff0099"/>
<path d="M357,362h 4" fill="none" stroke="#ff0099"/>
<g stroke="#ff0099" stroke-width="1" fill="#ff0099">
<circle cx=" 356" cy=" 362" r=" 1.5"/>
</g>
<path d="M367,396v -4" fill="none" stroke="#ff0099"/>
<path d="M367,390v -5" fill="none" stroke="#ff0099"/>
<path d="M361,391h 5" fill="none" stroke="#ff0099"/>
<path d="M368,391h 4" fill="none" stroke="#ff0099"/>
<g stroke="#ff0099" stroke-width="1" fill="#ff0099">
<circle cx=" 367" cy=" 391" r=" 1.5"/>
</g>
<path d="M378,410v -9" fill="none" stroke="#ff0099"/>
<path d="M378,399v -8" fill="none" stroke="#ff0099"/>
<path d="M372,400h 5" fill="none" stroke="#ff0099"/>
<path d="M379,400h 4" fill="none" stroke="#ff0099"/>
<g stroke="#ff0099" stroke-width="1" fill="#ff0099">
<circle cx=" 378" cy=" 400" r=" 1.5"/>
</g>
<path d="M389,420v -2" fill="none" stroke="#ff0099"/>
<path d="M389,416v -2" fill="none" stroke="#ff0099"/>
<path d="M383,417h 5" fill="none" stroke="#ff0099"/>
<path d="M390,417h 4" fill="none" stroke="#ff0099"/>
<g stroke="#ff0099" stroke-width="1" fill="#ff0099">
<circle cx=" 389" cy=" 417" r=" 1.5"/>
</g>
<path d="M400,420v -3" fill="none" stroke="#ff0099"/>
<path d="M400,415v -4" fill="none" stroke="#ff0099"/>
<path d="M394,416h 5" fill="none" stroke="#ff0099"/>
<path d="M401,416h 5" fill="none" stroke="#ff0099"/>
<g stroke="#ff0099" stroke-width="1" fill="#ff0099">
<circle cx=" 400" cy=" 416" r=" 1.5"/>
</g>
<path d="M411,436v -1" fill="none" stroke="#ff0099"/>
<path d="M411,433v -1" fill="none" stroke="#ff0099"/>
<path d="M406,434h 4" fill="none" stroke="#ff0099"/>
<path d="M412,434h 5" fill="none" stroke="#ff0099"/>
<g stroke="#ff0099" stroke-width="1" fill="#ff0099">
<circle cx=" 411" cy=" 434" r=" 1.5"/>
</g>
<path d="M422,438v -2" fill="none" stroke="#ff0099"/>
<path d="M422,434v -2" fill="none" stroke="#ff0099"/>
<path d="M417,435h 4" fill="none" stroke="#ff0099"/>
<path d="M423,435h 5" fill="none" stroke="#ff0099"/>
<g stroke="#ff0099" stroke-width="1" fill="#ff0099">
<circle cx=" 422" cy=" 435" r=" 1.5"/>
</g>
<path d="M428,441h 4" fill="none" stroke="#ff0099"/>
<path d="M434,441h 5" fill="none" stroke="#ff0099"/>
<g stroke="#ff0099" stroke-width="1" fill="#ff0099">
<circle cx=" 433" cy=" 441" r=" 1.5"/>
</g>
<path d="M444,441" fill="none" stroke="#ff0099"/>
<path d="M444,439" fill="none" stroke="#ff0099"/>
<path d="M439,440h 4" fill="none" stroke="#ff0099"/>
<path d="M445,440h 5" fill="none" stroke="#ff0099"/>
<g stroke="#ff0099" stroke-width="1" fill="#ff0099">
<circle cx=" 444" cy=" 440" r=" 1.5"/>
</g>
<path d="M450,444h 4" fill="none" stroke="#ff0099"/>
<path d="M456,444h 5" fill="none" stroke="#ff0099"/>
<g stroke="#ff0099" stroke-width="1" fill="#ff0099">
<circle cx=" 455" cy=" 444" r=" 1.5"/>
</g>
<path d="M461,445h 4" fill="none" stroke="#ff0099"/>
<path d="M468,445h 4" fill="none" stroke="#ff0099"/>
<g stroke="#ff0099" stroke-width="1" fill="#ff0099">
<circle cx=" 466" cy=" 445" r=" 1.5"/>
</g>
<path d="M472,445h 4" fill="none" stroke="#ff0099"/>
<path d="M479,445h 4" fill="none" stroke="#ff0099"/>
<g stroke="#ff0099" stroke-width="1" fill="#ff0099">
<circle cx=" 477" cy=" 445" r=" 1.5"/>
</g>
<path d="M483,445h 4" fill="none" stroke="#ff0099"/>
<path d="M490,445h 4" fill="none" stroke="#ff0099"/>
<g stroke="#ff0099" stroke-width="1" fill="#ff0099">
<circle cx=" 489" cy=" 445" r=" 1.5"/>
</g>
<path d="M494,446h 4" fill="none" stroke="#ff0099"/>
<path d="M501,446h 4" fill="none" stroke="#ff0099"/>
<g stroke="#ff0099" stroke-width="1" fill="#ff0099">
<circle cx=" 500" cy=" 446" r=" 1.5"/>
</g>
<path d="M511,446" fill="none" stroke="#ff0099"/>
<path d="M511,444v -1" fill="none" stroke="#ff0099"/>
<path d="M505,445h 5" fill="none" stroke="#ff0099"/>
<path d="M512,445h 4" fill="none" stroke="#ff0099"/>
<g stroke="#ff0099" stroke-width="1" fill="#ff0099">
<circle cx=" 511" cy=" 445" r=" 1.5"/>
</g>
<path d="M516,446h 5" fill="none" stroke="#ff0099"/>
<path d="M523,446h 4" fill="none" stroke="#ff0099"/>
<g stroke="#ff0099" stroke-width="1" fill="#ff0099">
<circle cx=" 522" cy=" 446" r=" 1.5"/>
</g>
<path d="M74,446h 453" fill="none" stroke="black"/>
<path d="M79,434v 12" fill="none" stroke="black"/>
<path d="M90,440v 6" fill="none" stroke="black"/>
<path d="M101,440v 6" fill="none" stroke="black"/>
<path d="M112,440v 6" fill="none" stroke="black"/>
<path d="M123,440v 6" fill="none" stroke="black"/>
<path d="M135,434v 12" fill="none" stroke="black"/>
<path d="M146,440v 6" fill="none" stroke="black"/>
<path d="M157,440v 6" fill="none" stroke="black"/>
<path d="M168,440v 6" fill="none" stroke="black"/>
<path d="M179,440v 6" fill="none" stroke="black"/>
<path d="M190,434v 12" fill="none" stroke="black"/>
<path d="M201,440v 6" fill="none" stroke="black"/>
<path d="M212,440v 6" fill="none" stroke="black"/>
<path d="M223,440v 6" fill="none" stroke="black"/>
<path d="M234,440v 6" fill="none" stroke="black"/>
<path d="M245,434v 12" fill="none" stroke="black"/>
<path d="M256,440v 6" fill="none" stroke="black"/>
<path d="M267,440v 6" fill="none" stroke="black"/>
<path d="M278,440v 6" fill="none" stroke="black"/>
<path d="M289,440v 6" fill="none" stroke="black"/>
<path d="M300,434v 12" fill="none" stroke="black"/>
<path d="M312,440v 6" fill="none" stroke="black"/>
<path d="M323,440v 6" fill="none" stroke="black"/>
<path d="M334,440v 6" fill="none" stroke="black"/>
<path d="M345,440v 6" fill="none" stroke="black"/>
<path d="M356,434v 12" fill="none" stroke="black"/>
<path d="M367,440v 6" fill="none" stroke="black"/>
<path d="M378,440v 6" fill="none" stroke="black"/>
<path d="M389,440v 6" fill="none" stroke="black"/>
<path d="M400,440v 6" fill="none" stroke="black"/>
<path d="M411,434v 12" fill="none" stroke="black"/>
<path d="M422,440v 6" fill="none" stroke="black"/>
<path d="M433,440v 6" fill="none" stroke="black"/>
<path d="M444,440v 6" fill="none" stroke="black"/>
<path d="M455,440v 6" fill="none" stroke="black"/>
<path d="M466,434v 12" fill="none" stroke="black"/>
<path d="M477,440v 6" fill="none" stroke="black"/>
<path d="M489,440v 6" fill="none" stroke="black"/>
<path d="M500,440v 6" fill="none" stroke="black"/>
<path d="M511,440v 6" fill="none" stroke="black"/>
<path d="M522,434v 12" fill="none" stroke="black"/>
<path d="M79,434v 12" fill="none" stroke="black"/>
<path d="M522,434v 12" fill="none" stroke="black"/>
<text x="74" y="465" fill="black" font-size="18" font-family="Helvetica" font-weight="bold">
0
</text>
<text x="129" y="465" fill="black" font-size="18" font-family="Helvetica" font-weight="bold">
5
</text>
<text x="179" y="465" fill="black" font-size="18" font-family="Helvetica" font-weight="bold">
10
</text>
<text x="235" y="465" fill="black" font-size="18" font-family="Helvetica" font-weight="bold">
15
</text>
<text x="290" y="465" fill="black" font-size="18" font-family="Helvetica" font-weight="bold">
20
</text>
<text x="346" y="465" fill="black" font-size="18" font-family="Helvetica" font-weight="bold">
25
</text>
<text x="401" y="465" fill="black" font-size="18" font-family="Helvetica" font-weight="bold">
30
</text>
<text x="456" y="465" fill="black" font-size="18" font-family="Helvetica" font-weight="bold">
35
</text>
<text x="511" y="465" fill="black" font-size="18" font-family="Helvetica" font-weight="bold">
40
</text>
<path d="M74,44h 453" fill="none" stroke="black"/>
<path d="M79,56v -12" fill="none" stroke="black"/>
<path d="M90,50v -6" fill="none" stroke="black"/>
<path d="M101,50v -6" fill="none" stroke="black"/>
<path d="M112,50v -6" fill="none" stroke="black"/>
<path d="M123,50v -6" fill="none" stroke="black"/>
<path d="M135,56v -12" fill="none" stroke="black"/>
<path d="M146,50v -6" fill="none" stroke="black"/>
<path d="M157,50v -6" fill="none" stroke="black"/>
<path d="M168,50v -6" fill="none" stroke="black"/>
<path d="M179,50v -6" fill="none" stroke="black"/>
<path d="M190,56v -12" fill="none" stroke="black"/>
<path d="M201,50v -6" fill="none" stroke="black"/>
<path d="M212,50v -6" fill="none" stroke="black"/>
<path d="M223,50v -6" fill="none" stroke="black"/>
<path d="M234,50v -6" fill="none" stroke="black"/>
<path d="M245,56v -12" fill="none" stroke="black"/>
<path d="M256,50v -6" fill="none" stroke="black"/>
<path d="M267,50v -6" fill="none" stroke="black"/>
<path d="M278,50v -6" fill="none" stroke="black"/>
<path d="M289,50v -6" fill="none" stroke="black"/>
<path d="M300,56v -12" fill="none" stroke="black"/>
<path d="M312,50v -6" fill="none" stroke="black"/>
<path d="M323,50v -6" fill="none" stroke="black"/>
<path d="M334,50v -6" fill="none" stroke="black"/>
<path d="M345,50v -6" fill="none" stroke="black"/>
<path d="M356,56v -12" fill="none" stroke="black"/>
<path d="M367,50v -6" fill="none" stroke="black"/>
<path d="M378,50v -6" fill="none" stroke="black"/>
<path d="M389,50v -6" fill="none" stroke="black"/>
<path d="M400,50v -6" fill="none" stroke="black"/>
<path d="M411,56v -12" fill="none" stroke="black"/>
<path d="M422,50v -6" fill="none" stroke="black"/>
<path d="M433,50v -6" fill="none" stroke="black"/>
<path d="M444,50v -6" fill="none" stroke="black"/>
<path d="M455,50v -6" fill="none" stroke="black"/>
<path d="M466,56v -12" fill="none" stroke="black"/>
<path d="M477,50v -6" fill="none" stroke="black"/>
<path d="M489,50v -6" fill="none" stroke="black"/>
<path d="M500,50v -6" fill="none" stroke="black"/>
<path d="M511,50v -6" fill="none" stroke="black"/>
<path d="M522,56v -12" fill="none" stroke="black"/>
<path d="M79,56v -12" fill="none" stroke="black"/>
<path d="M522,56v -12" fill="none" stroke="black"/>
<path d="M74,446v -402" fill="none" stroke="black"/>
<path d="M87,446h -13" fill="none" stroke="black"/>
<path d="M81,437h -7" fill="none" stroke="black"/>
<path d="M81,427h -7" fill="none" stroke="black"/>
<path d="M81,417h -7" fill="none" stroke="black"/>
<path d="M81,407h -7" fill="none" stroke="black"/>
<path d="M87,398h -13" fill="none" stroke="black"/>
<path d="M81,388h -7" fill="none" stroke="black"/>
<path d="M81,378h -7" fill="none" stroke="black"/>
<path d="M81,368h -7" fill="none" stroke="black"/>
<path d="M81,359h -7" fill="none" stroke="black"/>
<path d="M87,349h -13" fill="none" stroke="black"/>
<path d="M81,339h -7" fill="none" stroke="black"/>
<path d="M81,329h -7" fill="none" stroke="black"/>
<path d="M81,319h -7" fill="none" stroke="black"/>
<path d="M81,310h -7" fill="none" stroke="black"/>
<path d="M87,300h -13" fill="none" stroke="black"/>
<path d="M81,290h -7" fill="none" stroke="black"/>
<path d="M81,280h -7" fill="none" stroke="black"/>
<path d="M81,271h -7" fill="none" stroke="black"/>
<path d="M81,261h -7" fill="none" stroke="black"/>
<path d="M87,251h -13" fill="none" stroke="black"/>
<path d="M81,241h -7" fill="none" stroke="black"/>
<path d="M81,232h -7" fill="none" stroke="black"/>
<path d="M81,222h -7" fill="none" stroke="black"/>
<path d="M81,212h -7" fill="none" stroke="black"/>
<path d="M87,202h -13" fill="none" stroke="black"/>
<path d="M81,193h -7" fill="none" stroke="black"/>
<path d="M81,183h -7" fill="none" stroke="black"/>
<path d="M81,173h -7" fill="none" stroke="black"/>
<path d="M81,163h -7" fill="none" stroke="black"/>
<path d="M87,154h -13" fill="none" stroke="black"/>
<path d="M81,144h -7" fill="none" stroke="black"/>
<path d="M81,134h -7" fill="none" stroke="black"/>
<path d="M81,124h -7" fill="none" stroke="black"/>
<path d="M81,114h -7" fill="none" stroke="black"/>
<path d="M87,105h -13" fill="none" stroke="black"/>
<path d="M81,95h -7" fill="none" stroke="black"/>
<path d="M81,85h -7" fill="none" stroke="black"/>
<path d="M81,75h -7" fill="none" stroke="black"/>
<path d="M81,66h -7" fill="none" stroke="black"/>
<path d="M87,56h -13" fill="none" stroke="black"/>
<path d="M87,56h -13" fill="none" stroke="black"/>
<path d="M81,46h -7" fill="none" stroke="black"/>
<text x="61" y="453" fill="black" font-size="18" font-family="Helvetica" font-weight="bold">
0
</text>
<text x="37" y="404" fill="black" font-size="18" font-family="Helvetica" font-weight="bold">
0.01
</text>
<text x="35" y="355" fill="black" font-size="18" font-family="Helvetica" font-weight="bold">
0.02
</text>
<text x="35" y="306" fill="black" font-size="18" font-family="Helvetica" font-weight="bold">
0.03
</text>
<text x="34" y="258" fill="black" font-size="18" font-family="Helvetica" font-weight="bold">
0.04
</text>
<text x="34" y="209" fill="black" font-size="18" font-family="Helvetica" font-weight="bold">
0.05
</text>
<text x="34" y="160" fill="black" font-size="18" font-family="Helvetica" font-weight="bold">
0.06
</text>
<text x="35" y="111" fill="black" font-size="18" font-family="Helvetica" font-weight="bold">
0.07
</text>
<text x="35" y="62" fill="black" font-size="18" font-family="Helvetica" font-weight="bold">
0.08
</text>
<path d="M90,446" fill="none" stroke="#99ff99" stroke-width="2"/>
<path d="M90,446" fill="none" stroke="#99ff99" stroke-width="2"/>
<g stroke="black" stroke-width="2" fill="none">
<line x1="89" y1="446" x2="90" y2="446"/>
</g>
<path d="M101,445v -1" fill="none" stroke="#99ff99" stroke-width="2"/>
<path d="M101,444" fill="none" stroke="#99ff99" stroke-width="2"/>
<g stroke="black" stroke-width="2" fill="none">
<line x1="100" y1="444" x2="101" y2="444"/>
</g>
<path d="M112,440" fill="none" stroke="#99ff99" stroke-width="2"/>
<path d="M112,440v -1" fill="none" stroke="#99ff99" stroke-width="2"/>
<g stroke="black" stroke-width="2" fill="none">
<line x1="111" y1="440" x2="112" y2="440"/>
</g>
<path d="M123,431v -2" fill="none" stroke="#99ff99" stroke-width="2"/>
<path d="M123,429v -2" fill="none" stroke="#99ff99" stroke-width="2"/>
<g stroke="black" stroke-width="2" fill="none">
<line x1="122" y1="429" x2="123" y2="429"/>
</g>
<path d="M135,410v -2" fill="none" stroke="#99ff99" stroke-width="2"/>
<path d="M135,408v -3" fill="none" stroke="#99ff99" stroke-width="2"/>
<g stroke="black" stroke-width="2" fill="none">
<line x1="134" y1="408" x2="135" y2="408"/>
</g>
<path d="M146,381v -4" fill="none" stroke="#99ff99" stroke-width="2"/>
<path d="M146,377v -4" fill="none" stroke="#99ff99" stroke-width="2"/>
<g stroke="black" stroke-width="2" fill="none">
<line x1="145" y1="377" x2="146" y2="377"/>
</g>
<path d="M157,333v -7" fill="none" stroke="#99ff99" stroke-width="2"/>
<path d="M157,326v -6" fill="none" stroke="#99ff99" stroke-width="2"/>
<g stroke="black" stroke-width="2" fill="none">
<line x1="156" y1="326" x2="157" y2="326"/>
</g>
<path d="M168,290v -7" fill="none" stroke="#99ff99" stroke-width="2"/>
<path d="M168,283v -7" fill="none" stroke="#99ff99" stroke-width="2"/>
<g stroke="black" stroke-width="2" fill="none">
<line x1="167" y1="283" x2="168" y2="283"/>
</g>
<path d="M179,256v -6" fill="none" stroke="#99ff99" stroke-width="2"/>
<path d="M179,250v -6" fill="none" stroke="#99ff99" stroke-width="2"/>
<g stroke="black" stroke-width="2" fill="none">
<line x1="178" y1="250" x2="179" y2="250"/>
</g>
<path d="M190,195v -9" fill="none" stroke="#99ff99" stroke-width="2"/>
<path d="M190,186v -8" fill="none" stroke="#99ff99" stroke-width="2"/>
<g stroke="black" stroke-width="2" fill="none">
<line x1="189" y1="186" x2="190" y2="186"/>
</g>
<path d="M201,161v -10" fill="none" stroke="#99ff99" stroke-width="2"/>
<path d="M201,151v -10" fill="none" stroke="#99ff99" stroke-width="2"/>
<g stroke="black" stroke-width="2" fill="none">
<line x1="200" y1="151" x2="201" y2="151"/>
</g>
<path d="M212,137v -9" fill="none" stroke="#99ff99" stroke-width="2"/>
<path d="M212,128v -9" fill="none" stroke="#99ff99" stroke-width="2"/>
<g stroke="black" stroke-width="2" fill="none">
<line x1="211" y1="128" x2="212" y2="128"/>
</g>
<path d="M223,117v -10" fill="none" stroke="#99ff99" stroke-width="2"/>
<path d="M223,107v -10" fill="none" stroke="#99ff99" stroke-width="2"/>
<g stroke="black" stroke-width="2" fill="none">
<line x1="222" y1="107" x2="223" y2="107"/>
</g>
<path d="M234,123v -8" fill="none" stroke="#99ff99" stroke-width="2"/>
<path d="M234,115v -7" fill="none" stroke="#99ff99" stroke-width="2"/>
<g stroke="black" stroke-width="2" fill="none">
<line x1="233" y1="115" x2="234" y2="115"/>
</g>
<path d="M245,111v -9" fill="none" stroke="#99ff99" stroke-width="2"/>
<path d="M245,102v -9" fill="none" stroke="#99ff99" stroke-width="2"/>
<g stroke="black" stroke-width="2" fill="none">
<line x1="244" y1="102" x2="245" y2="102"/>
</g>
<path d="M256,119v -10" fill="none" stroke="#99ff99" stroke-width="2"/>
<path d="M256,109v -10" fill="none" stroke="#99ff99" stroke-width="2"/>
<g stroke="black" stroke-width="2" fill="none">
<line x1="255" y1="109" x2="256" y2="109"/>
</g>
<path d="M267,147v -8" fill="none" stroke="#99ff99" stroke-width="2"/>
<path d="M267,139v -8" fill="none" stroke="#99ff99" stroke-width="2"/>
<g stroke="black" stroke-width="2" fill="none">
<line x1="266" y1="139" x2="267" y2="139"/>
</g>
<path d="M278,171v -7" fill="none" stroke="#99ff99" stroke-width="2"/>
<path d="M278,164v -7" fill="none" stroke="#99ff99" stroke-width="2"/>
<g stroke="black" stroke-width="2" fill="none">
<line x1="277" y1="164" x2="278" y2="164"/>
</g>
<path d="M289,184v -8" fill="none" stroke="#99ff99" stroke-width="2"/>
<path d="M289,176v -8" fill="none" stroke="#99ff99" stroke-width="2"/>
<g stroke="black" stroke-width="2" fill="none">
<line x1="288" y1="176" x2="289" y2="176"/>
</g>
<path d="M300,221v -6" fill="none" stroke="#99ff99" stroke-width="2"/>
<path d="M300,215v -7" fill="none" stroke="#99ff99" stroke-width="2"/>
<g stroke="black" stroke-width="2" fill="none">
<line x1="299" y1="215" x2="300" y2="215"/>
</g>
<path d="M312,247v -7" fill="none" stroke="#99ff99" stroke-width="2"/>
<path d="M312,240v -7" fill="none" stroke="#99ff99" stroke-width="2"/>
<g stroke="black" stroke-width="2" fill="none">
<line x1="311" y1="240" x2="312" y2="240"/>
</g>
<path d="M323,282v -6" fill="none" stroke="#99ff99" stroke-width="2"/>
<path d="M323,276v -6" fill="none" stroke="#99ff99" stroke-width="2"/>
<g stroke="black" stroke-width="2" fill="none">
<line x1="322" y1="276" x2="323" y2="276"/>
</g>
<path d="M334,316v -5" fill="none" stroke="#99ff99" stroke-width="2"/>
<path d="M334,311v -4" fill="none" stroke="#99ff99" stroke-width="2"/>
<g stroke="black" stroke-width="2" fill="none">
<line x1="333" y1="311" x2="334" y2="311"/>
</g>
<path d="M345,335v -5" fill="none" stroke="#99ff99" stroke-width="2"/>
<path d="M345,330v -5" fill="none" stroke="#99ff99" stroke-width="2"/>
<g stroke="black" stroke-width="2" fill="none">
<line x1="344" y1="330" x2="345" y2="330"/>
</g>
<path d="M356,364v -4" fill="none" stroke="#99ff99" stroke-width="2"/>
<path d="M356,360v -3" fill="none" stroke="#99ff99" stroke-width="2"/>
<g stroke="black" stroke-width="2" fill="none">
<line x1="355" y1="360" x2="356" y2="360"/>
</g>
<path d="M367,384v -3" fill="none" stroke="#99ff99" stroke-width="2"/>
<path d="M367,381v -3" fill="none" stroke="#99ff99" stroke-width="2"/>
<g stroke="black" stroke-width="2" fill="none">
<line x1="366" y1="381" x2="367" y2="381"/>
</g>
<path d="M378,399v -3" fill="none" stroke="#99ff99" stroke-width="2"/>
<path d="M378,396v -3" fill="none" stroke="#99ff99" stroke-width="2"/>
<g stroke="black" stroke-width="2" fill="none">
<line x1="377" y1="396" x2="378" y2="396"/>
</g>
<path d="M389,413v -2" fill="none" stroke="#99ff99" stroke-width="2"/>
<path d="M389,411v -2" fill="none" stroke="#99ff99" stroke-width="2"/>
<g stroke="black" stroke-width="2" fill="none">
<line x1="388" y1="411" x2="389" y2="411"/>
</g>
<path d="M400,422v -2" fill="none" stroke="#99ff99" stroke-width="2"/>
<path d="M400,420v -1" fill="none" stroke="#99ff99" stroke-width="2"/>
<g stroke="black" stroke-width="2" fill="none">
<line x1="399" y1="420" x2="400" y2="420"/>
</g>
<path d="M411,428v -1" fill="none" stroke="#99ff99" stroke-width="2"/>
<path d="M411,427v -2" fill="none" stroke="#99ff99" stroke-width="2"/>
<g stroke="black" stroke-width="2" fill="none">
<line x1="410" y1="427" x2="411" y2="427"/>
</g>
<path d="M422,435" fill="none" stroke="#99ff99" stroke-width="2"/>
<path d="M422,435v -1" fill="none" stroke="#99ff99" stroke-width="2"/>
<g stroke="black" stroke-width="2" fill="none">
<line x1="421" y1="435" x2="422" y2="435"/>
</g>
<path d="M433,438v -1" fill="none" stroke="#99ff99" stroke-width="2"/>
<path d="M433,437v -1" fill="none" stroke="#99ff99" stroke-width="2"/>
<g stroke="black" stroke-width="2" fill="none">
<line x1="432" y1="437" x2="433" y2="437"/>
</g>
<path d="M444,441v -1" fill="none" stroke="#99ff99" stroke-width="2"/>
<path d="M444,440v -1" fill="none" stroke="#99ff99" stroke-width="2"/>
<g stroke="black" stroke-width="2" fill="none">
<line x1="443" y1="440" x2="444" y2="440"/>
</g>
<path d="M455,443" fill="none" stroke="#99ff99" stroke-width="2"/>
<path d="M455,443" fill="none" stroke="#99ff99" stroke-width="2"/>
<g stroke="black" stroke-width="2" fill="none">
<line x1="454" y1="443" x2="455" y2="443"/>
</g>
<path d="M466,444" fill="none" stroke="#99ff99" stroke-width="2"/>
<path d="M466,444v -1" fill="none" stroke="#99ff99" stroke-width="2"/>
<g stroke="black" stroke-width="2" fill="none">
<line x1="465" y1="444" x2="466" y2="444"/>
</g>
<path d="M477,445" fill="none" stroke="#99ff99" stroke-width="2"/>
<path d="M477,445" fill="none" stroke="#99ff99" stroke-width="2"/>
<g stroke="black" stroke-width="2" fill="none">
<line x1="476" y1="445" x2="477" y2="445"/>
</g>
<path d="M489,445" fill="none" stroke="#99ff99" stroke-width="2"/>
<path d="M489,445" fill="none" stroke="#99ff99" stroke-width="2"/>
<g stroke="black" stroke-width="2" fill="none">
<line x1="488" y1="445" x2="489" y2="445"/>
</g>
<path d="M500,446" fill="none" stroke="#99ff99" stroke-width="2"/>
<path d="M500,446" fill="none" stroke="#99ff99" stroke-width="2"/>
<g stroke="black" stroke-width="2" fill="none">
<line x1="499" y1="446" x2="500" y2="446"/>
</g>
<path d="M511,446" fill="none" stroke="#99ff99" stroke-width="2"/>
<path d="M511,446v -1" fill="none" stroke="#99ff99" stroke-width="2"/>
<g stroke="black" stroke-width="2" fill="none">
<line x1="510" y1="446" x2="511" y2="446"/>
</g>
<path d="M522,446" fill="none" stroke="#99ff99" stroke-width="2"/>
<path d="M522,446" fill="none" stroke="#99ff99" stroke-width="2"/>
<g stroke="black" stroke-width="2" fill="none">
<line x1="521" y1="446" x2="522" y2="446"/>
</g>
<path d="M74,446h 22v -2h 11v -4h 11v -11h 11v -21h 11v -31h 11v -51h 11v -43h 11v -33h 11v -64h 11v -35h 11v -23h 12v -21h 11v 8h 11v -13h 11v 7h 11v 30h 11v 25h 11v 12h 11v 39h 11v 25h 11v 36h 11v 35h 11v 19h 11v 30h 11v 21h 11v 15h 11v 15h 11v 9h
 12v 7h 11v 8h 11v 2h 11v 3h 11v 3h 11v 1h 11v 1h 22v 1h 33z" fill="#99ff99"/>
<path d="M74,446h 22v -2h 11v -4h 11v -11h 11v -21h 11v -31h 11v -51h 11v -43h 11v -33h 11v -64h 11v -35h 11v -23h 12v -21h 11v 8h 11v -13h 11v 7h 11v 30h 11v 25h 11v 12h 11v 39h 11v 25h 11v 36h 11v 35h 11v 19h 11v 30h 11v 21h 11v 15h 11v 15h 11v 9h
 12v 7h 11v 8h 11v 2h 11v 3h 11v 3h 11v 1h 11v 1h 22v 1h 33" fill="none" stroke="#99ff99" stroke-width="2"/>
<path d="M85,446h 4" fill="none" stroke="#ff0099"/>
<path d="M91,446h 5" fill="none" stroke="#ff0099"/>
<g stroke="#ff0099" stroke-width="1" fill="#ff0099">
<circle cx=" 90" cy=" 446" r=" 1.5"/>
</g>
<path d="M96,444h 4" fill="none" stroke="#ff0099"/>
<path d="M102,444h 5" fill="none" stroke="#ff0099"/>
<g stroke="#ff0099" stroke-width="1" fill="#ff0099">
<circle cx=" 101" cy=" 444" r=" 1.5"/>
</g>
<path d="M112,441" fill="none" stroke="#ff0099"/>
<path d="M112,438" fill="none" stroke="#ff0099"/>
<path d="M107,439h 4" fill="none" stroke="#ff0099"/>
<path d="M114,439h 4" fill="none" stroke="#ff0099"/>
<g stroke="#ff0099" stroke-width="1" fill="#ff0099">
<circle cx=" 112" cy=" 439" r=" 1.5"/>
</g>
<path d="M123,431v -1" fill="none" stroke="#ff0099"/>
<path d="M123,428v -1" fill="none" stroke="#ff0099"/>
<path d="M118,429h 4" fill="none" stroke="#ff0099"/>
<path d="M125,429h 4" fill="none" stroke="#ff0099"/>
<g stroke="#ff0099" stroke-width="1" fill="#ff0099">
<circle cx=" 123" cy=" 429" r=" 1.5"/>
</g>
<path d="M135,404v -4" fill="none" stroke="#ff0099"/>
<path d="M135,398v -4" fill="none" stroke="#ff0099"/>
<path d="M129,399h 4" fill="none" stroke="#ff0099"/>
<path d="M136,399h 4" fill="none" stroke="#ff0099"/>
<g stroke="#ff0099" stroke-width="1" fill="#ff0099">
<circle cx=" 135" cy=" 399" r=" 1.5"/>
</g>
<path d="M146,379v -5" fill="none" stroke="#ff0099"/>
<path d="M146,372v -5" fill="none" stroke="#ff0099"/>
<path d="M140,373h 4" fill="none" stroke="#ff0099"/>
<path d="M147,373h 4" fill="none" stroke="#ff0099"/>
<g stroke="#ff0099" stroke-width="1" fill="#ff0099">
<circle cx=" 146" cy=" 373" r=" 1.5"/>
</g>
<path d="M157,339v -6" fill="none" stroke="#ff0099"/>
<path d="M157,330v -6" fill="none" stroke="#ff0099"/>
<path d="M151,332h 5" fill="none" stroke="#ff0099"/>
<path d="M158,332h 4" fill="none" stroke="#ff0099"/>
<g stroke="#ff0099" stroke-width="1" fill="#ff0099">
<circle cx=" 157" cy=" 332" r=" 1.5"/>
</g>
<path d="M168,282v -9" fill="none" stroke="#ff0099"/>
<path d="M168,270v -9" fill="none" stroke="#ff0099"/>
<path d="M162,272h 5" fill="none" stroke="#ff0099"/>
<path d="M169,272h 4" fill="none" stroke="#ff0099"/>
<g stroke="#ff0099" stroke-width="1" fill="#ff0099">
<circle cx=" 168" cy=" 272" r=" 1.5"/>
</g>
<path d="M179,222v -12" fill="none" stroke="#ff0099"/>
<path d="M179,208v -11" fill="none" stroke="#ff0099"/>
<path d="M173,209h 5" fill="none" stroke="#ff0099"/>
<path d="M180,209h 4" fill="none" stroke="#ff0099"/>
<g stroke="#ff0099" stroke-width="1" fill="#ff0099">
<circle cx=" 179" cy=" 209" r=" 1.5"/>
</g>
<path d="M190,197v -10" fill="none" stroke="#ff0099"/>
<path d="M190,184v -10" fill="none" stroke="#ff0099"/>
<path d="M184,186h 5" fill="none" stroke="#ff0099"/>
<path d="M191,186h 4" fill="none" stroke="#ff0099"/>
<g stroke="#ff0099" stroke-width="1" fill="#ff0099">
<circle cx=" 190" cy=" 186" r=" 1.5"/>
</g>
<path d="M201,168v -13" fill="none" stroke="#ff0099"/>
<path d="M201,153v -13" fill="none" stroke="#ff0099"/>
<path d="M195,154h 5" fill="none" stroke="#ff0099"/>
<path d="M202,154h 4" fill="none" stroke="#ff0099"/>
<g stroke="#ff0099" stroke-width="1" fill="#ff0099">
<circle cx=" 201" cy=" 154" r=" 1.5"/>
</g>
<path d="M212,95v -14" fill="none" stroke="#ff0099"/>
<path d="M212,78v -15" fill="none" stroke="#ff0099"/>
<path d="M206,79h 5" fill="none" stroke="#ff0099"/>
<path d="M213,79h 5" fill="none" stroke="#ff0099"/>
<g stroke="#ff0099" stroke-width="1" fill="#ff0099">
<circle cx=" 212" cy=" 79" r=" 1.5"/>
</g>
<path d="M223,114v -14" fill="none" stroke="#ff0099"/>
<path d="M223,98v -15" fill="none" stroke="#ff0099"/>
<path d="M218,99h 4" fill="none" stroke="#ff0099"/>
<path d="M224,99h 5" fill="none" stroke="#ff0099"/>
<g stroke="#ff0099" stroke-width="1" fill="#ff0099">
<circle cx=" 223" cy=" 99" r=" 1.5"/>
</g>
<path d="M234,125v -12" fill="none" stroke="#ff0099"/>
<path d="M234,110v -13" fill="none" stroke="#ff0099"/>
<path d="M229,111h 4" fill="none" stroke="#ff0099"/>
<path d="M235,111h 5" fill="none" stroke="#ff0099"/>
<g stroke="#ff0099" stroke-width="1" fill="#ff0099">
<circle cx=" 234" cy=" 111" r=" 1.5"/>
</g>
<path d="M245,128v -14" fill="none" stroke="#ff0099"/>
<path d="M245,112v -14" fill="none" stroke="#ff0099"/>
<path d="M240,113h 4" fill="none" stroke="#ff0099"/>
<path d="M246,113h 5" fill="none" stroke="#ff0099"/>
<g stroke="#ff0099" stroke-width="1" fill="#ff0099">
<circle cx=" 245" cy=" 113" r=" 1.5"/>
</g>
<path d="M256,123v -14" fill="none" stroke="#ff0099"/>
<path d="M256,107v -14" fill="none" stroke="#ff0099"/>
<path d="M251,108h 4" fill="none" stroke="#ff0099"/>
<path d="M257,108h 5" fill="none" stroke="#ff0099"/>
<g stroke="#ff0099" stroke-width="1" fill="#ff0099">
<circle cx=" 256" cy=" 108" r=" 1.5"/>
</g>
<path d="M267,156v -12" fill="none" stroke="#ff0099"/>
<path d="M267,142v -12" fill="none" stroke="#ff0099"/>
<path d="M262,143h 4" fill="none" stroke="#ff0099"/>
<path d="M268,143h 5" fill="none" stroke="#ff0099"/>
<g stroke="#ff0099" stroke-width="1" fill="#ff0099">
<circle cx=" 267" cy=" 143" r=" 1.5"/>
</g>
<path d="M278,180v -12" fill="none" stroke="#ff0099"/>
<path d="M278,166v -11" fill="none" stroke="#ff0099"/>
<path d="M273,167h 4" fill="none" stroke="#ff0099"/>
<path d="M279,167h 5" fill="none" stroke="#ff0099"/>
<g stroke="#ff0099" stroke-width="1" fill="#ff0099">
<circle cx=" 278" cy=" 167" r=" 1.5"/>
</g>
<path d="M289,208v -11" fill="none" stroke="#ff0099"/>
<path d="M289,194v -11" fill="none" stroke="#ff0099"/>
<path d="M284,195h 4" fill="none" stroke="#ff0099"/>
<path d="M291,195h 4" fill="none" stroke="#ff0099"/>
<g stroke="#ff0099" stroke-width="1" fill="#ff0099">
<circle cx=" 289" cy=" 195" r=" 1.5"/>
</g>
<path d="M300,235v -11" fill="none" stroke="#ff0099"/>
<path d="M300,222v -12" fill="none" stroke="#ff0099"/>
<path d="M295,223h 4" fill="none" stroke="#ff0099"/>
<path d="M302,223h 4" fill="none" stroke="#ff0099"/>
<g stroke="#ff0099" stroke-width="1" fill="#ff0099">
<circle cx=" 300" cy=" 223" r=" 1.5"/>
</g>
<path d="M312,261v -10" fill="none" stroke="#ff0099"/>
<path d="M312,249v -11" fill="none" stroke="#ff0099"/>
<path d="M306,250h 4" fill="none" stroke="#ff0099"/>
<path d="M313,250h 4" fill="none" stroke="#ff0099"/>
<g stroke="#ff0099" stroke-width="1" fill="#ff0099">
<circle cx=" 312" cy=" 250" r=" 1.5"/>
</g>
<path d="M323,299v -8" fill="none" stroke="#ff0099"/>
<path d="M323,289v -8" fill="none" stroke="#ff0099"/>
<path d="M317,290h 4" fill="none" stroke="#ff0099"/>
<path d="M324,290h 4" fill="none" stroke="#ff0099"/>
<g stroke="#ff0099" stroke-width="1" fill="#ff0099">
<circle cx=" 323" cy=" 290" r=" 1.5"/>
</g>
<path d="M334,336v -7" fill="none" stroke="#ff0099"/>
<path d="M334,326v -7" fill="none" stroke="#ff0099"/>
<path d="M328,328h 5" fill="none" stroke="#ff0099"/>
<path d="M335,328h 4" fill="none" stroke="#ff0099"/>
<g stroke="#ff0099" stroke-width="1" fill="#ff0099">
<circle cx=" 334" cy=" 328" r=" 1.5"/>
</g>
<path d="M345,341v -6" fill="none" stroke="#ff0099"/>
<path d="M345,332v -6" fill="none" stroke="#ff0099"/>
<path d="M339,334h 5" fill="none" stroke="#ff0099"/>
<path d="M346,334h 4" fill="none" stroke="#ff0099"/>
<g stroke="#ff0099" stroke-width="1" fill="#ff0099">
<circle cx=" 345" cy=" 334" r=" 1.5"/>
</g>
<path d="M356,370v -7" fill="none" stroke="#ff0099"/>
<path d="M356,361v -6" fill="none" stroke="#ff0099"/>
<path d="M350,362h 5" fill="none" stroke="#ff0099"/>
<path d="M357,362h 4" fill="none" stroke="#ff0099"/>
<g stroke="#ff0099" stroke-width="1" fill="#ff0099">
<circle cx=" 356" cy=" 362" r=" 1.5"/>
</g>
<path d="M367,396v -4" fill="none" stroke="#ff0099"/>
<path d="M367,390v -5" fill="none" stroke="#ff0099"/>
<path d="M361,391h 5" fill="none" stroke="#ff0099"/>
<path d="M368,391h 4" fill="none" stroke="#ff0099"/>
<g stroke="#ff0099" stroke-width="1" fill="#ff0099">
<circle cx=" 367" cy=" 391" r=" 1.5"/>
</g>
<path d="M378,410v -9" fill="none" stroke="#ff0099"/>
<path d="M378,399v -8" fill="none" stroke="#ff0099"/>
<path d="M372,400h 5" fill="none" stroke="#ff0099"/>
<path d="M379,400h 4" fill="none" stroke="#ff0099"/>
<g stroke="#ff0099" stroke-width="1" fill="#ff0099">
<circle cx=" 378" cy=" 400" r=" 1.5"/>
</g>
<path d="M389,420v -2" fill="none" stroke="#ff0099"/>
<path d="M389,416v -2" fill="none" stroke="#ff0099"/>
<path d="M383,417h 5" fill="none" stroke="#ff0099"/>
<path d="M390,417h 4" fill="none" stroke="#ff0099"/>
<g stroke="#ff0099" stroke-width="1" fill="#ff0099">
<circle cx=" 389" cy=" 417" r=" 1.5"/>
</g>
<path d="M400,420v -3" fill="none" stroke="#ff0099"/>
<path d="M400,415v -4" fill="none" stroke="#ff0099"/>
<path d="M394,416h 5" fill="none" stroke="#ff0099"/>
<path d="M401,416h 5" fill="none" stroke="#ff0099"/>
<g stroke="#ff0099" stroke-width="1" fill="#ff0099">
<circle cx=" 400" cy=" 416" r=" 1.5"/>
</g>
<path d="M411,436v -1" fill="none" stroke="#ff0099"/>
<path d="M411,433v -1" fill="none" stroke="#ff0099"/>
<path d="M406,434h 4" fill="none" stroke="#ff0099"/>
<path d="M412,434h 5" fill="none" stroke="#ff0099"/>
<g stroke="#ff0099" stroke-width="1" fill="#ff0099">
<circle cx=" 411" cy=" 434" r=" 1.5"/>
</g>
<path d="M422,438v -2" fill="none" stroke="#ff0099"/>
<path d="M422,434v -2" fill="none" stroke="#ff0099"/>
<path d="M417,435h 4" fill="none" stroke="#ff0099"/>
<path d="M423,435h 5" fill="none" stroke="#ff0099"/>
<g stroke="#ff0099" stroke-width="1" fill="#ff0099">
<circle cx=" 422" cy=" 435" r=" 1.5"/>
</g>
<path d="M428,441h 4" fill="none" stroke="#ff0099"/>
<path d="M434,441h 5" fill="none" stroke="#ff0099"/>
<g stroke="#ff0099" stroke-width="1" fill="#ff0099">
<circle cx=" 433" cy=" 441" r=" 1.5"/>
</g>
<path d="M444,441" fill="none" stroke="#ff0099"/>
<path d="M444,439" fill="none" stroke="#ff0099"/>
<path d="M439,440h 4" fill="none" stroke="#ff0099"/>
<path d="M445,440h 5" fill="none" stroke="#ff0099"/>
<g stroke="#ff0099" stroke-width="1" fill="#ff0099">
<circle cx=" 444" cy=" 440" r=" 1.5"/>
</g>
<path d="M450,444h 4" fill="none" stroke="#ff0099"/>
<path d="M456,444h 5" fill="none" stroke="#ff0099"/>
<g stroke="#ff0099" stroke-width="1" fill="#ff0099">
<circle cx=" 455" cy=" 444" r=" 1.5"/>
</g>
<path d="M461,445h 4" fill="none" stroke="#ff0099"/>
<path d="M468,445h 4" fill="none" stroke="#ff0099"/>
<g stroke="#ff0099" stroke-width="1" fill="#ff0099">
<circle cx=" 466" cy=" 445" r=" 1.5"/>
</g>
<path d="M472,445h 4" fill="none" stroke="#ff0099"/>
<path d="M479,445h 4" fill="none" stroke="#ff0099"/>
<g stroke="#ff0099" stroke-width="1" fill="#ff0099">
<circle cx=" 477" cy=" 445" r=" 1.5"/>
</g>
<path d="M483,445h 4" fill="none" stroke="#ff0099"/>
<path d="M490,445h 4" fill="none" stroke="#ff0099"/>
<g stroke="#ff0099" stroke-width="1" fill="#ff0099">
<circle cx=" 489" cy=" 445" r=" 1.5"/>
</g>
<path d="M494,446h 4" fill="none" stroke="#ff0099"/>
<path d="M501,446h 4" fill="none" stroke="#ff0099"/>
<g stroke="#ff0099" stroke-width="1" fill="#ff0099">
<circle cx=" 500" cy=" 446" r=" 1.5"/>
</g>
<path d="M511,446" fill="none" stroke="#ff0099"/>
<path d="M511,444v -1" fill="none" stroke="#ff0099"/>
<path d="M505,445h 5" fill="none" stroke="#ff0099"/>
<path d="M512,445h 4" fill="none" stroke="#ff0099"/>
<g stroke="#ff0099" stroke-width="1" fill="#ff0099">
<circle cx=" 511" cy=" 445" r=" 1.5"/>
</g>
<path d="M516,446h 5" fill="none" stroke="#ff0099"/>
<path d="M523,446h 4" fill="none" stroke="#ff0099"/>
<g stroke="#ff0099" stroke-width="1" fill="#ff0099">
<circle cx=" 522" cy=" 446" r=" 1.5"/>
</g>
<rect x="357" y="59" width="142" height="99" fill="white"/>
<text x="360" y="82" fill="black" font-size="17" font-family="Helvetica" font-weight="bold">
EE
</text>
<text x="457" y="115" fill="black" font-size="17" font-family="Helvetica" font-weight="bold">
 ee
</text>
<text x="440" y="115" fill="black" font-size="17" font-family="Times">
&#8594;
</text>
<text x="392" y="115" fill="black" font-size="17" font-family="Helvetica" font-weight="bold">
MC Z 
</text>
<path d="M362,109h 25" fill="none" stroke="#ff0099"/>
<g stroke="#ff0099" stroke-width="1" fill="#ff0099">
<circle cx=" 375" cy=" 109" r=" 1.5"/>
</g>
<text x="455" y="147" fill="black" font-size="17" font-family="Helvetica" font-weight="bold">
 + jet
</text>
<text x="447" y="147" fill="black" font-size="17" font-family="Times">
&#0947;
</text>
<text x="392" y="147" fill="black" font-size="17" font-family="Helvetica" font-weight="bold">
signal 
</text>
<path d="M362,154h 25v -24h -25z" fill="#99ff99"/>
<path d="M362,130h 25" fill="none" stroke="#99ff99" stroke-width="2"/>
<path d="M362,154h 25" fill="none" stroke="#99ff99" stroke-width="2"/>
<path d="M387,154v -24" fill="none" stroke="#99ff99" stroke-width="2"/>
<path d="M362,154v -24" fill="none" stroke="#99ff99" stroke-width="2"/>
<text x="300" y="34" fill="black" font-size="17" font-family="Helvetica" font-weight="bold">
=8 TeV
</text>
<text x="291" y="34" fill="black" font-size="17" font-family="Helvetica" font-weight="bold">
s
</text>
<path d="M285,25l 2, 10" fill="none" stroke="black" stroke-width="2"/>
<path d="M287,35l 2, -14" fill="none" stroke="black"/>
<path d="M289,21h 11" fill="none" stroke="black"/>
<text x="142" y="34" fill="black" font-size="17" font-family="Helvetica" font-weight="bold">
CMS Preliminary 
</text></svg>
