<?xml version="1.0" standalone="no"?>
<svg width="567" height="496" viewBox="0 0 567 496" xmlns="http://www.w3.org/2000/svg">
<title>
plots_mcZee_mcGJet//hlt50//pid_pfIsoFPRCharged03_preselEE.svg
</title>
<desc>
Creator: ROOT Version 5.32/00
CreationDate: Sat Nov 29 19:50:54 2014</desc>
<defs>
</defs>
<rect x="0" y="0" width="567" height="496" fill="white"/>
<rect x="74" y="44" width="453" height="402" fill="white"/>
<rect x="74" y="44" width="453" height="402" fill="none" stroke="black"/>
<rect x="74" y="44" width="453" height="402" fill="white"/>
<rect x="74" y="44" width="453" height="402" fill="none" stroke="black"/>
<path d="M77,73v -4" fill="none" stroke="#ff0099"/>
<path d="M77,67v -4" fill="none" stroke="#ff0099"/>
<path d="M74,68h 2" fill="none" stroke="#ff0099"/>
<path d="M79,68h 2" fill="none" stroke="#ff0099"/>
<g stroke="#ff0099" stroke-width="1" fill="#ff0099">
<circle cx=" 77" cy=" 68" r=" 1.5"/>
</g>
<path d="M81,427h 3" fill="none" stroke="#ff0099"/>
<path d="M86,427h 3" fill="none" stroke="#ff0099"/>
<g stroke="#ff0099" stroke-width="1" fill="#ff0099">
<circle cx=" 85" cy=" 427" r=" 1.5"/>
</g>
<path d="M89,422h 2" fill="none" stroke="#ff0099"/>
<path d="M94,422h 2" fill="none" stroke="#ff0099"/>
<g stroke="#ff0099" stroke-width="1" fill="#ff0099">
<circle cx=" 93" cy=" 422" r=" 1.5"/>
</g>
<path d="M96,419h 3" fill="none" stroke="#ff0099"/>
<path d="M101,419h 3" fill="none" stroke="#ff0099"/>
<g stroke="#ff0099" stroke-width="1" fill="#ff0099">
<circle cx=" 100" cy=" 419" r=" 1.5"/>
</g>
<path d="M104,418h 3" fill="none" stroke="#ff0099"/>
<path d="M109,418h 2" fill="none" stroke="#ff0099"/>
<g stroke="#ff0099" stroke-width="1" fill="#ff0099">
<circle cx=" 108" cy=" 418" r=" 1.5"/>
</g>
<path d="M111,419h 3" fill="none" stroke="#ff0099"/>
<path d="M116,419h 3" fill="none" stroke="#ff0099"/>
<g stroke="#ff0099" stroke-width="1" fill="#ff0099">
<circle cx=" 115" cy=" 419" r=" 1.5"/>
</g>
<path d="M119,419h 3" fill="none" stroke="#ff0099"/>
<path d="M124,419h 3" fill="none" stroke="#ff0099"/>
<g stroke="#ff0099" stroke-width="1" fill="#ff0099">
<circle cx=" 123" cy=" 419" r=" 1.5"/>
</g>
<path d="M127,423h 2" fill="none" stroke="#ff0099"/>
<path d="M132,423h 2" fill="none" stroke="#ff0099"/>
<g stroke="#ff0099" stroke-width="1" fill="#ff0099">
<circle cx=" 130" cy=" 423" r=" 1.5"/>
</g>
<path d="M134,423h 3" fill="none" stroke="#ff0099"/>
<path d="M139,423h 3" fill="none" stroke="#ff0099"/>
<g stroke="#ff0099" stroke-width="1" fill="#ff0099">
<circle cx=" 138" cy=" 423" r=" 1.5"/>
</g>
<path d="M142,424h 2" fill="none" stroke="#ff0099"/>
<path d="M147,424h 2" fill="none" stroke="#ff0099"/>
<g stroke="#ff0099" stroke-width="1" fill="#ff0099">
<circle cx=" 146" cy=" 424" r=" 1.5"/>
</g>
<path d="M149,425h 3" fill="none" stroke="#ff0099"/>
<path d="M154,425h 3" fill="none" stroke="#ff0099"/>
<g stroke="#ff0099" stroke-width="1" fill="#ff0099">
<circle cx=" 153" cy=" 425" r=" 1.5"/>
</g>
<path d="M157,425h 2" fill="none" stroke="#ff0099"/>
<path d="M162,425h 2" fill="none" stroke="#ff0099"/>
<g stroke="#ff0099" stroke-width="1" fill="#ff0099">
<circle cx=" 161" cy=" 425" r=" 1.5"/>
</g>
<path d="M164,425h 3" fill="none" stroke="#ff0099"/>
<path d="M169,425h 3" fill="none" stroke="#ff0099"/>
<g stroke="#ff0099" stroke-width="1" fill="#ff0099">
<circle cx=" 168" cy=" 425" r=" 1.5"/>
</g>
<path d="M172,426h 3" fill="none" stroke="#ff0099"/>
<path d="M177,426h 3" fill="none" stroke="#ff0099"/>
<g stroke="#ff0099" stroke-width="1" fill="#ff0099">
<circle cx=" 176" cy=" 426" r=" 1.5"/>
</g>
<path d="M180,426h 2" fill="none" stroke="#ff0099"/>
<path d="M184,426h 3" fill="none" stroke="#ff0099"/>
<g stroke="#ff0099" stroke-width="1" fill="#ff0099">
<circle cx=" 183" cy=" 426" r=" 1.5"/>
</g>
<path d="M187,427h 3" fill="none" stroke="#ff0099"/>
<path d="M192,427h 3" fill="none" stroke="#ff0099"/>
<g stroke="#ff0099" stroke-width="1" fill="#ff0099">
<circle cx=" 191" cy=" 427" r=" 1.5"/>
</g>
<path d="M195,427h 2" fill="none" stroke="#ff0099"/>
<path d="M200,427h 2" fill="none" stroke="#ff0099"/>
<g stroke="#ff0099" stroke-width="1" fill="#ff0099">
<circle cx=" 198" cy=" 427" r=" 1.5"/>
</g>
<path d="M202,427h 3" fill="none" stroke="#ff0099"/>
<path d="M207,427h 3" fill="none" stroke="#ff0099"/>
<g stroke="#ff0099" stroke-width="1" fill="#ff0099">
<circle cx=" 206" cy=" 427" r=" 1.5"/>
</g>
<path d="M210,427h 2" fill="none" stroke="#ff0099"/>
<path d="M215,427h 2" fill="none" stroke="#ff0099"/>
<g stroke="#ff0099" stroke-width="1" fill="#ff0099">
<circle cx=" 214" cy=" 427" r=" 1.5"/>
</g>
<path d="M217,428h 3" fill="none" stroke="#ff0099"/>
<path d="M222,428h 3" fill="none" stroke="#ff0099"/>
<g stroke="#ff0099" stroke-width="1" fill="#ff0099">
<circle cx=" 221" cy=" 428" r=" 1.5"/>
</g>
<path d="M225,427h 3" fill="none" stroke="#ff0099"/>
<path d="M230,427h 2" fill="none" stroke="#ff0099"/>
<g stroke="#ff0099" stroke-width="1" fill="#ff0099">
<circle cx=" 229" cy=" 427" r=" 1.5"/>
</g>
<path d="M232,427h 3" fill="none" stroke="#ff0099"/>
<path d="M237,427h 3" fill="none" stroke="#ff0099"/>
<g stroke="#ff0099" stroke-width="1" fill="#ff0099">
<circle cx=" 236" cy=" 427" r=" 1.5"/>
</g>
<path d="M240,427h 3" fill="none" stroke="#ff0099"/>
<path d="M245,427h 3" fill="none" stroke="#ff0099"/>
<g stroke="#ff0099" stroke-width="1" fill="#ff0099">
<circle cx=" 244" cy=" 427" r=" 1.5"/>
</g>
<path d="M248,428h 2" fill="none" stroke="#ff0099"/>
<path d="M252,428h 3" fill="none" stroke="#ff0099"/>
<g stroke="#ff0099" stroke-width="1" fill="#ff0099">
<circle cx=" 251" cy=" 428" r=" 1.5"/>
</g>
<path d="M255,428h 3" fill="none" stroke="#ff0099"/>
<path d="M260,428h 3" fill="none" stroke="#ff0099"/>
<g stroke="#ff0099" stroke-width="1" fill="#ff0099">
<circle cx=" 259" cy=" 428" r=" 1.5"/>
</g>
<path d="M263,428h 2" fill="none" stroke="#ff0099"/>
<path d="M268,428h 2" fill="none" stroke="#ff0099"/>
<g stroke="#ff0099" stroke-width="1" fill="#ff0099">
<circle cx=" 266" cy=" 428" r=" 1.5"/>
</g>
<path d="M270,428h 3" fill="none" stroke="#ff0099"/>
<path d="M275,428h 3" fill="none" stroke="#ff0099"/>
<g stroke="#ff0099" stroke-width="1" fill="#ff0099">
<circle cx=" 274" cy=" 428" r=" 1.5"/>
</g>
<path d="M278,428h 2" fill="none" stroke="#ff0099"/>
<path d="M283,428h 2" fill="none" stroke="#ff0099"/>
<g stroke="#ff0099" stroke-width="1" fill="#ff0099">
<circle cx=" 282" cy=" 428" r=" 1.5"/>
</g>
<path d="M285,428h 3" fill="none" stroke="#ff0099"/>
<path d="M290,428h 3" fill="none" stroke="#ff0099"/>
<g stroke="#ff0099" stroke-width="1" fill="#ff0099">
<circle cx=" 289" cy=" 428" r=" 1.5"/>
</g>
<path d="M293,428h 3" fill="none" stroke="#ff0099"/>
<path d="M298,428h 2" fill="none" stroke="#ff0099"/>
<g stroke="#ff0099" stroke-width="1" fill="#ff0099">
<circle cx=" 297" cy=" 428" r=" 1.5"/>
</g>
<path d="M300,428h 3" fill="none" stroke="#ff0099"/>
<path d="M305,428h 3" fill="none" stroke="#ff0099"/>
<g stroke="#ff0099" stroke-width="1" fill="#ff0099">
<circle cx=" 304" cy=" 428" r=" 1.5"/>
</g>
<path d="M308,428h 3" fill="none" stroke="#ff0099"/>
<path d="M313,428h 3" fill="none" stroke="#ff0099"/>
<g stroke="#ff0099" stroke-width="1" fill="#ff0099">
<circle cx=" 312" cy=" 428" r=" 1.5"/>
</g>
<path d="M316,428h 2" fill="none" stroke="#ff0099"/>
<path d="M321,428h 2" fill="none" stroke="#ff0099"/>
<g stroke="#ff0099" stroke-width="1" fill="#ff0099">
<circle cx=" 319" cy=" 428" r=" 1.5"/>
</g>
<path d="M323,428h 3" fill="none" stroke="#ff0099"/>
<path d="M328,428h 3" fill="none" stroke="#ff0099"/>
<g stroke="#ff0099" stroke-width="1" fill="#ff0099">
<circle cx=" 327" cy=" 428" r=" 1.5"/>
</g>
<path d="M331,428h 2" fill="none" stroke="#ff0099"/>
<path d="M336,428h 2" fill="none" stroke="#ff0099"/>
<g stroke="#ff0099" stroke-width="1" fill="#ff0099">
<circle cx=" 334" cy=" 428" r=" 1.5"/>
</g>
<path d="M338,428h 3" fill="none" stroke="#ff0099"/>
<path d="M343,428h 3" fill="none" stroke="#ff0099"/>
<g stroke="#ff0099" stroke-width="1" fill="#ff0099">
<circle cx=" 342" cy=" 428" r=" 1.5"/>
</g>
<path d="M346,428h 2" fill="none" stroke="#ff0099"/>
<path d="M351,428h 2" fill="none" stroke="#ff0099"/>
<g stroke="#ff0099" stroke-width="1" fill="#ff0099">
<circle cx=" 350" cy=" 428" r=" 1.5"/>
</g>
<path d="M353,428h 3" fill="none" stroke="#ff0099"/>
<path d="M358,428h 3" fill="none" stroke="#ff0099"/>
<g stroke="#ff0099" stroke-width="1" fill="#ff0099">
<circle cx=" 357" cy=" 428" r=" 1.5"/>
</g>
<path d="M361,428h 3" fill="none" stroke="#ff0099"/>
<path d="M366,428h 3" fill="none" stroke="#ff0099"/>
<g stroke="#ff0099" stroke-width="1" fill="#ff0099">
<circle cx=" 365" cy=" 428" r=" 1.5"/>
</g>
<path d="M369,428h 2" fill="none" stroke="#ff0099"/>
<path d="M373,428h 3" fill="none" stroke="#ff0099"/>
<g stroke="#ff0099" stroke-width="1" fill="#ff0099">
<circle cx=" 372" cy=" 428" r=" 1.5"/>
</g>
<path d="M376,428h 3" fill="none" stroke="#ff0099"/>
<path d="M381,428h 3" fill="none" stroke="#ff0099"/>
<g stroke="#ff0099" stroke-width="1" fill="#ff0099">
<circle cx=" 380" cy=" 428" r=" 1.5"/>
</g>
<path d="M384,428h 2" fill="none" stroke="#ff0099"/>
<path d="M389,428h 2" fill="none" stroke="#ff0099"/>
<g stroke="#ff0099" stroke-width="1" fill="#ff0099">
<circle cx=" 387" cy=" 428" r=" 1.5"/>
</g>
<path d="M391,428h 3" fill="none" stroke="#ff0099"/>
<path d="M396,428h 3" fill="none" stroke="#ff0099"/>
<g stroke="#ff0099" stroke-width="1" fill="#ff0099">
<circle cx=" 395" cy=" 428" r=" 1.5"/>
</g>
<path d="M399,428h 2" fill="none" stroke="#ff0099"/>
<path d="M404,428h 2" fill="none" stroke="#ff0099"/>
<g stroke="#ff0099" stroke-width="1" fill="#ff0099">
<circle cx=" 403" cy=" 428" r=" 1.5"/>
</g>
<path d="M406,428h 3" fill="none" stroke="#ff0099"/>
<path d="M411,428h 3" fill="none" stroke="#ff0099"/>
<g stroke="#ff0099" stroke-width="1" fill="#ff0099">
<circle cx=" 410" cy=" 428" r=" 1.5"/>
</g>
<path d="M414,428h 2" fill="none" stroke="#ff0099"/>
<path d="M419,428h 2" fill="none" stroke="#ff0099"/>
<g stroke="#ff0099" stroke-width="1" fill="#ff0099">
<circle cx=" 418" cy=" 428" r=" 1.5"/>
</g>
<path d="M421,428h 3" fill="none" stroke="#ff0099"/>
<path d="M426,428h 3" fill="none" stroke="#ff0099"/>
<g stroke="#ff0099" stroke-width="1" fill="#ff0099">
<circle cx=" 425" cy=" 428" r=" 1.5"/>
</g>
<path d="M429,428h 3" fill="none" stroke="#ff0099"/>
<path d="M434,428h 3" fill="none" stroke="#ff0099"/>
<g stroke="#ff0099" stroke-width="1" fill="#ff0099">
<circle cx=" 433" cy=" 428" r=" 1.5"/>
</g>
<path d="M437,428h 2" fill="none" stroke="#ff0099"/>
<path d="M441,428h 3" fill="none" stroke="#ff0099"/>
<g stroke="#ff0099" stroke-width="1" fill="#ff0099">
<circle cx=" 440" cy=" 428" r=" 1.5"/>
</g>
<path d="M444,428h 3" fill="none" stroke="#ff0099"/>
<path d="M449,428h 3" fill="none" stroke="#ff0099"/>
<g stroke="#ff0099" stroke-width="1" fill="#ff0099">
<circle cx=" 448" cy=" 428" r=" 1.5"/>
</g>
<path d="M452,428h 2" fill="none" stroke="#ff0099"/>
<path d="M457,428h 2" fill="none" stroke="#ff0099"/>
<g stroke="#ff0099" stroke-width="1" fill="#ff0099">
<circle cx=" 455" cy=" 428" r=" 1.5"/>
</g>
<path d="M467,428h 2" fill="none" stroke="#ff0099"/>
<path d="M472,428h 2" fill="none" stroke="#ff0099"/>
<g stroke="#ff0099" stroke-width="1" fill="#ff0099">
<circle cx=" 471" cy=" 428" r=" 1.5"/>
</g>
<path d="M482,428h 3" fill="none" stroke="#ff0099"/>
<path d="M487,428h 2" fill="none" stroke="#ff0099"/>
<g stroke="#ff0099" stroke-width="1" fill="#ff0099">
<circle cx=" 486" cy=" 428" r=" 1.5"/>
</g>
<path d="M497,428h 3" fill="none" stroke="#ff0099"/>
<path d="M502,428h 3" fill="none" stroke="#ff0099"/>
<g stroke="#ff0099" stroke-width="1" fill="#ff0099">
<circle cx=" 501" cy=" 428" r=" 1.5"/>
</g>
<path d="M505,428h 2" fill="none" stroke="#ff0099"/>
<path d="M509,428h 3" fill="none" stroke="#ff0099"/>
<g stroke="#ff0099" stroke-width="1" fill="#ff0099">
<circle cx=" 508" cy=" 428" r=" 1.5"/>
</g>
<path d="M512,428h 3" fill="none" stroke="#ff0099"/>
<path d="M517,428h 3" fill="none" stroke="#ff0099"/>
<g stroke="#ff0099" stroke-width="1" fill="#ff0099">
<circle cx=" 516" cy=" 428" r=" 1.5"/>
</g>
<path d="M520,428h 2" fill="none" stroke="#ff0099"/>
<path d="M525,428h 2" fill="none" stroke="#ff0099"/>
<g stroke="#ff0099" stroke-width="1" fill="#ff0099">
<circle cx=" 523" cy=" 428" r=" 1.5"/>
</g>
<path d="M74,446h 453" fill="none" stroke="black"/>
<path d="M74,434v 12" fill="none" stroke="black"/>
<path d="M89,440v 6" fill="none" stroke="black"/>
<path d="M104,440v 6" fill="none" stroke="black"/>
<path d="M119,440v 6" fill="none" stroke="black"/>
<path d="M134,440v 6" fill="none" stroke="black"/>
<path d="M149,434v 12" fill="none" stroke="black"/>
<path d="M164,440v 6" fill="none" stroke="black"/>
<path d="M180,440v 6" fill="none" stroke="black"/>
<path d="M195,440v 6" fill="none" stroke="black"/>
<path d="M210,440v 6" fill="none" stroke="black"/>
<path d="M225,434v 12" fill="none" stroke="black"/>
<path d="M240,440v 6" fill="none" stroke="black"/>
<path d="M255,440v 6" fill="none" stroke="black"/>
<path d="M270,440v 6" fill="none" stroke="black"/>
<path d="M285,440v 6" fill="none" stroke="black"/>
<path d="M300,434v 12" fill="none" stroke="black"/>
<path d="M316,440v 6" fill="none" stroke="black"/>
<path d="M331,440v 6" fill="none" stroke="black"/>
<path d="M346,440v 6" fill="none" stroke="black"/>
<path d="M361,440v 6" fill="none" stroke="black"/>
<path d="M376,434v 12" fill="none" stroke="black"/>
<path d="M391,440v 6" fill="none" stroke="black"/>
<path d="M406,440v 6" fill="none" stroke="black"/>
<path d="M421,440v 6" fill="none" stroke="black"/>
<path d="M437,440v 6" fill="none" stroke="black"/>
<path d="M452,434v 12" fill="none" stroke="black"/>
<path d="M467,440v 6" fill="none" stroke="black"/>
<path d="M482,440v 6" fill="none" stroke="black"/>
<path d="M497,440v 6" fill="none" stroke="black"/>
<path d="M512,440v 6" fill="none" stroke="black"/>
<path d="M527,434v 12" fill="none" stroke="black"/>
<text x="68" y="465" fill="black" font-size="18" font-family="Helvetica" font-weight="bold">
0
</text>
<text x="145" y="465" fill="black" font-size="18" font-family="Helvetica" font-weight="bold">
1
</text>
<text x="220" y="465" fill="black" font-size="18" font-family="Helvetica" font-weight="bold">
2
</text>
<text x="295" y="465" fill="black" font-size="18" font-family="Helvetica" font-weight="bold">
3
</text>
<text x="371" y="465" fill="black" font-size="18" font-family="Helvetica" font-weight="bold">
4
</text>
<text x="446" y="465" fill="black" font-size="18" font-family="Helvetica" font-weight="bold">
5
</text>
<text x="522" y="465" fill="black" font-size="18" font-family="Helvetica" font-weight="bold">
6
</text>
<path d="M74,44h 453" fill="none" stroke="black"/>
<path d="M74,56v -12" fill="none" stroke="black"/>
<path d="M89,50v -6" fill="none" stroke="black"/>
<path d="M104,50v -6" fill="none" stroke="black"/>
<path d="M119,50v -6" fill="none" stroke="black"/>
<path d="M134,50v -6" fill="none" stroke="black"/>
<path d="M149,56v -12" fill="none" stroke="black"/>
<path d="M164,50v -6" fill="none" stroke="black"/>
<path d="M180,50v -6" fill="none" stroke="black"/>
<path d="M195,50v -6" fill="none" stroke="black"/>
<path d="M210,50v -6" fill="none" stroke="black"/>
<path d="M225,56v -12" fill="none" stroke="black"/>
<path d="M240,50v -6" fill="none" stroke="black"/>
<path d="M255,50v -6" fill="none" stroke="black"/>
<path d="M270,50v -6" fill="none" stroke="black"/>
<path d="M285,50v -6" fill="none" stroke="black"/>
<path d="M300,56v -12" fill="none" stroke="black"/>
<path d="M316,50v -6" fill="none" stroke="black"/>
<path d="M331,50v -6" fill="none" stroke="black"/>
<path d="M346,50v -6" fill="none" stroke="black"/>
<path d="M361,50v -6" fill="none" stroke="black"/>
<path d="M376,56v -12" fill="none" stroke="black"/>
<path d="M391,50v -6" fill="none" stroke="black"/>
<path d="M406,50v -6" fill="none" stroke="black"/>
<path d="M421,50v -6" fill="none" stroke="black"/>
<path d="M437,50v -6" fill="none" stroke="black"/>
<path d="M452,56v -12" fill="none" stroke="black"/>
<path d="M467,50v -6" fill="none" stroke="black"/>
<path d="M482,50v -6" fill="none" stroke="black"/>
<path d="M497,50v -6" fill="none" stroke="black"/>
<path d="M512,50v -6" fill="none" stroke="black"/>
<path d="M527,56v -12" fill="none" stroke="black"/>
<path d="M74,446v -402" fill="none" stroke="black"/>
<path d="M87,428h -13" fill="none" stroke="black"/>
<path d="M81,419h -7" fill="none" stroke="black"/>
<path d="M81,410h -7" fill="none" stroke="black"/>
<path d="M81,401h -7" fill="none" stroke="black"/>
<path d="M81,392h -7" fill="none" stroke="black"/>
<path d="M87,383h -13" fill="none" stroke="black"/>
<path d="M81,375h -7" fill="none" stroke="black"/>
<path d="M81,366h -7" fill="none" stroke="black"/>
<path d="M81,357h -7" fill="none" stroke="black"/>
<path d="M81,348h -7" fill="none" stroke="black"/>
<path d="M87,339h -13" fill="none" stroke="black"/>
<path d="M81,330h -7" fill="none" stroke="black"/>
<path d="M81,321h -7" fill="none" stroke="black"/>
<path d="M81,312h -7" fill="none" stroke="black"/>
<path d="M81,303h -7" fill="none" stroke="black"/>
<path d="M87,294h -13" fill="none" stroke="black"/>
<path d="M81,285h -7" fill="none" stroke="black"/>
<path d="M81,276h -7" fill="none" stroke="black"/>
<path d="M81,267h -7" fill="none" stroke="black"/>
<path d="M81,258h -7" fill="none" stroke="black"/>
<path d="M87,249h -13" fill="none" stroke="black"/>
<path d="M81,240h -7" fill="none" stroke="black"/>
<path d="M81,232h -7" fill="none" stroke="black"/>
<path d="M81,223h -7" fill="none" stroke="black"/>
<path d="M81,214h -7" fill="none" stroke="black"/>
<path d="M87,205h -13" fill="none" stroke="black"/>
<path d="M81,196h -7" fill="none" stroke="black"/>
<path d="M81,187h -7" fill="none" stroke="black"/>
<path d="M81,178h -7" fill="none" stroke="black"/>
<path d="M81,169h -7" fill="none" stroke="black"/>
<path d="M87,160h -13" fill="none" stroke="black"/>
<path d="M81,151h -7" fill="none" stroke="black"/>
<path d="M81,142h -7" fill="none" stroke="black"/>
<path d="M81,133h -7" fill="none" stroke="black"/>
<path d="M81,124h -7" fill="none" stroke="black"/>
<path d="M87,115h -13" fill="none" stroke="black"/>
<path d="M81,106h -7" fill="none" stroke="black"/>
<path d="M81,97h -7" fill="none" stroke="black"/>
<path d="M81,88h -7" fill="none" stroke="black"/>
<path d="M81,80h -7" fill="none" stroke="black"/>
<path d="M87,71h -13" fill="none" stroke="black"/>
<path d="M87,428h -13" fill="none" stroke="black"/>
<path d="M81,437h -7" fill="none" stroke="black"/>
<path d="M81,446h -7" fill="none" stroke="black"/>
<path d="M87,71h -13" fill="none" stroke="black"/>
<path d="M81,62h -7" fill="none" stroke="black"/>
<path d="M81,53h -7" fill="none" stroke="black"/>
<text x="61" y="435" fill="black" font-size="18" font-family="Helvetica" font-weight="bold">
0
</text>
<text x="47" y="390" fill="black" font-size="18" font-family="Helvetica" font-weight="bold">
0.1
</text>
<text x="45" y="345" fill="black" font-size="18" font-family="Helvetica" font-weight="bold">
0.2
</text>
<text x="45" y="301" fill="black" font-size="18" font-family="Helvetica" font-weight="bold">
0.3
</text>
<text x="44" y="256" fill="black" font-size="18" font-family="Helvetica" font-weight="bold">
0.4
</text>
<text x="45" y="211" fill="black" font-size="18" font-family="Helvetica" font-weight="bold">
0.5
</text>
<text x="45" y="166" fill="black" font-size="18" font-family="Helvetica" font-weight="bold">
0.6
</text>
<text x="45" y="122" fill="black" font-size="18" font-family="Helvetica" font-weight="bold">
0.7
</text>
<text x="45" y="77" fill="black" font-size="18" font-family="Helvetica" font-weight="bold">
0.8
</text>
<path d="M77,80v -3" fill="none" stroke="#99ff99" stroke-width="2"/>
<path d="M77,77v -2" fill="none" stroke="#99ff99" stroke-width="2"/>
<g stroke="black" stroke-width="2" fill="none">
<line x1="76" y1="77" x2="77" y2="77"/>
</g>
<path d="M85,427" fill="none" stroke="#99ff99" stroke-width="2"/>
<path d="M85,427" fill="none" stroke="#99ff99" stroke-width="2"/>
<g stroke="black" stroke-width="2" fill="none">
<line x1="84" y1="427" x2="85" y2="427"/>
</g>
<path d="M93,421" fill="none" stroke="#99ff99" stroke-width="2"/>
<path d="M93,421" fill="none" stroke="#99ff99" stroke-width="2"/>
<g stroke="black" stroke-width="2" fill="none">
<line x1="92" y1="421" x2="93" y2="421"/>
</g>
<path d="M100,419v -1" fill="none" stroke="#99ff99" stroke-width="2"/>
<path d="M100,418" fill="none" stroke="#99ff99" stroke-width="2"/>
<g stroke="black" stroke-width="2" fill="none">
<line x1="99" y1="418" x2="100" y2="418"/>
</g>
<path d="M108,418" fill="none" stroke="#99ff99" stroke-width="2"/>
<path d="M108,418" fill="none" stroke="#99ff99" stroke-width="2"/>
<g stroke="black" stroke-width="2" fill="none">
<line x1="107" y1="418" x2="108" y2="418"/>
</g>
<path d="M115,419" fill="none" stroke="#99ff99" stroke-width="2"/>
<path d="M115,419" fill="none" stroke="#99ff99" stroke-width="2"/>
<g stroke="black" stroke-width="2" fill="none">
<line x1="114" y1="419" x2="115" y2="419"/>
</g>
<path d="M123,421v -1" fill="none" stroke="#99ff99" stroke-width="2"/>
<path d="M123,420" fill="none" stroke="#99ff99" stroke-width="2"/>
<g stroke="black" stroke-width="2" fill="none">
<line x1="122" y1="420" x2="123" y2="420"/>
</g>
<path d="M130,422" fill="none" stroke="#99ff99" stroke-width="2"/>
<path d="M130,422" fill="none" stroke="#99ff99" stroke-width="2"/>
<g stroke="black" stroke-width="2" fill="none">
<line x1="129" y1="422" x2="130" y2="422"/>
</g>
<path d="M138,423" fill="none" stroke="#99ff99" stroke-width="2"/>
<path d="M138,423" fill="none" stroke="#99ff99" stroke-width="2"/>
<g stroke="black" stroke-width="2" fill="none">
<line x1="137" y1="423" x2="138" y2="423"/>
</g>
<path d="M146,424" fill="none" stroke="#99ff99" stroke-width="2"/>
<path d="M146,424v -1" fill="none" stroke="#99ff99" stroke-width="2"/>
<g stroke="black" stroke-width="2" fill="none">
<line x1="145" y1="424" x2="146" y2="424"/>
</g>
<path d="M153,424" fill="none" stroke="#99ff99" stroke-width="2"/>
<path d="M153,424v -1" fill="none" stroke="#99ff99" stroke-width="2"/>
<g stroke="black" stroke-width="2" fill="none">
<line x1="152" y1="424" x2="153" y2="424"/>
</g>
<path d="M161,425" fill="none" stroke="#99ff99" stroke-width="2"/>
<path d="M161,425v -1" fill="none" stroke="#99ff99" stroke-width="2"/>
<g stroke="black" stroke-width="2" fill="none">
<line x1="160" y1="425" x2="161" y2="425"/>
</g>
<path d="M168,425" fill="none" stroke="#99ff99" stroke-width="2"/>
<path d="M168,425" fill="none" stroke="#99ff99" stroke-width="2"/>
<g stroke="black" stroke-width="2" fill="none">
<line x1="167" y1="425" x2="168" y2="425"/>
</g>
<path d="M176,426" fill="none" stroke="#99ff99" stroke-width="2"/>
<path d="M176,426v -1" fill="none" stroke="#99ff99" stroke-width="2"/>
<g stroke="black" stroke-width="2" fill="none">
<line x1="175" y1="426" x2="176" y2="426"/>
</g>
<path d="M183,426" fill="none" stroke="#99ff99" stroke-width="2"/>
<path d="M183,426v -1" fill="none" stroke="#99ff99" stroke-width="2"/>
<g stroke="black" stroke-width="2" fill="none">
<line x1="182" y1="426" x2="183" y2="426"/>
</g>
<path d="M191,426" fill="none" stroke="#99ff99" stroke-width="2"/>
<path d="M191,426" fill="none" stroke="#99ff99" stroke-width="2"/>
<g stroke="black" stroke-width="2" fill="none">
<line x1="190" y1="426" x2="191" y2="426"/>
</g>
<path d="M198,426" fill="none" stroke="#99ff99" stroke-width="2"/>
<path d="M198,426" fill="none" stroke="#99ff99" stroke-width="2"/>
<g stroke="black" stroke-width="2" fill="none">
<line x1="197" y1="426" x2="198" y2="426"/>
</g>
<path d="M206,427" fill="none" stroke="#99ff99" stroke-width="2"/>
<path d="M206,427v -1" fill="none" stroke="#99ff99" stroke-width="2"/>
<g stroke="black" stroke-width="2" fill="none">
<line x1="205" y1="427" x2="206" y2="427"/>
</g>
<path d="M214,427" fill="none" stroke="#99ff99" stroke-width="2"/>
<path d="M214,427" fill="none" stroke="#99ff99" stroke-width="2"/>
<g stroke="black" stroke-width="2" fill="none">
<line x1="213" y1="427" x2="214" y2="427"/>
</g>
<path d="M221,427" fill="none" stroke="#99ff99" stroke-width="2"/>
<path d="M221,427" fill="none" stroke="#99ff99" stroke-width="2"/>
<g stroke="black" stroke-width="2" fill="none">
<line x1="220" y1="427" x2="221" y2="427"/>
</g>
<path d="M229,427" fill="none" stroke="#99ff99" stroke-width="2"/>
<path d="M229,427" fill="none" stroke="#99ff99" stroke-width="2"/>
<g stroke="black" stroke-width="2" fill="none">
<line x1="228" y1="427" x2="229" y2="427"/>
</g>
<path d="M236,427" fill="none" stroke="#99ff99" stroke-width="2"/>
<path d="M236,427" fill="none" stroke="#99ff99" stroke-width="2"/>
<g stroke="black" stroke-width="2" fill="none">
<line x1="235" y1="427" x2="236" y2="427"/>
</g>
<path d="M244,428v -1" fill="none" stroke="#99ff99" stroke-width="2"/>
<path d="M244,427" fill="none" stroke="#99ff99" stroke-width="2"/>
<g stroke="black" stroke-width="2" fill="none">
<line x1="243" y1="427" x2="244" y2="427"/>
</g>
<path d="M251,428" fill="none" stroke="#99ff99" stroke-width="2"/>
<path d="M251,428v -1" fill="none" stroke="#99ff99" stroke-width="2"/>
<g stroke="black" stroke-width="2" fill="none">
<line x1="250" y1="428" x2="251" y2="428"/>
</g>
<path d="M259,427" fill="none" stroke="#99ff99" stroke-width="2"/>
<path d="M259,427" fill="none" stroke="#99ff99" stroke-width="2"/>
<g stroke="black" stroke-width="2" fill="none">
<line x1="258" y1="427" x2="259" y2="427"/>
</g>
<path d="M266,428v -1" fill="none" stroke="#99ff99" stroke-width="2"/>
<path d="M266,427" fill="none" stroke="#99ff99" stroke-width="2"/>
<g stroke="black" stroke-width="2" fill="none">
<line x1="265" y1="427" x2="266" y2="427"/>
</g>
<path d="M274,428" fill="none" stroke="#99ff99" stroke-width="2"/>
<path d="M274,428v -1" fill="none" stroke="#99ff99" stroke-width="2"/>
<g stroke="black" stroke-width="2" fill="none">
<line x1="273" y1="428" x2="274" y2="428"/>
</g>
<path d="M282,428v -1" fill="none" stroke="#99ff99" stroke-width="2"/>
<path d="M282,427" fill="none" stroke="#99ff99" stroke-width="2"/>
<g stroke="black" stroke-width="2" fill="none">
<line x1="281" y1="427" x2="282" y2="427"/>
</g>
<path d="M289,428" fill="none" stroke="#99ff99" stroke-width="2"/>
<path d="M289,428" fill="none" stroke="#99ff99" stroke-width="2"/>
<g stroke="black" stroke-width="2" fill="none">
<line x1="288" y1="428" x2="289" y2="428"/>
</g>
<path d="M297,428" fill="none" stroke="#99ff99" stroke-width="2"/>
<path d="M297,428" fill="none" stroke="#99ff99" stroke-width="2"/>
<g stroke="black" stroke-width="2" fill="none">
<line x1="296" y1="428" x2="297" y2="428"/>
</g>
<path d="M304,428" fill="none" stroke="#99ff99" stroke-width="2"/>
<path d="M304,428" fill="none" stroke="#99ff99" stroke-width="2"/>
<g stroke="black" stroke-width="2" fill="none">
<line x1="303" y1="428" x2="304" y2="428"/>
</g>
<path d="M312,428" fill="none" stroke="#99ff99" stroke-width="2"/>
<path d="M312,428" fill="none" stroke="#99ff99" stroke-width="2"/>
<g stroke="black" stroke-width="2" fill="none">
<line x1="311" y1="428" x2="312" y2="428"/>
</g>
<path d="M319,428" fill="none" stroke="#99ff99" stroke-width="2"/>
<path d="M319,428v -1" fill="none" stroke="#99ff99" stroke-width="2"/>
<g stroke="black" stroke-width="2" fill="none">
<line x1="318" y1="428" x2="319" y2="428"/>
</g>
<path d="M327,428" fill="none" stroke="#99ff99" stroke-width="2"/>
<path d="M327,428" fill="none" stroke="#99ff99" stroke-width="2"/>
<g stroke="black" stroke-width="2" fill="none">
<line x1="326" y1="428" x2="327" y2="428"/>
</g>
<path d="M334,428" fill="none" stroke="#99ff99" stroke-width="2"/>
<path d="M334,428" fill="none" stroke="#99ff99" stroke-width="2"/>
<g stroke="black" stroke-width="2" fill="none">
<line x1="333" y1="428" x2="334" y2="428"/>
</g>
<path d="M342,428" fill="none" stroke="#99ff99" stroke-width="2"/>
<path d="M342,428v -1" fill="none" stroke="#99ff99" stroke-width="2"/>
<g stroke="black" stroke-width="2" fill="none">
<line x1="341" y1="428" x2="342" y2="428"/>
</g>
<path d="M350,428" fill="none" stroke="#99ff99" stroke-width="2"/>
<path d="M350,428" fill="none" stroke="#99ff99" stroke-width="2"/>
<g stroke="black" stroke-width="2" fill="none">
<line x1="349" y1="428" x2="350" y2="428"/>
</g>
<path d="M357,428" fill="none" stroke="#99ff99" stroke-width="2"/>
<path d="M357,428" fill="none" stroke="#99ff99" stroke-width="2"/>
<g stroke="black" stroke-width="2" fill="none">
<line x1="356" y1="428" x2="357" y2="428"/>
</g>
<path d="M365,428" fill="none" stroke="#99ff99" stroke-width="2"/>
<path d="M365,428" fill="none" stroke="#99ff99" stroke-width="2"/>
<g stroke="black" stroke-width="2" fill="none">
<line x1="364" y1="428" x2="365" y2="428"/>
</g>
<path d="M372,428" fill="none" stroke="#99ff99" stroke-width="2"/>
<path d="M372,428" fill="none" stroke="#99ff99" stroke-width="2"/>
<g stroke="black" stroke-width="2" fill="none">
<line x1="371" y1="428" x2="372" y2="428"/>
</g>
<path d="M380,428" fill="none" stroke="#99ff99" stroke-width="2"/>
<path d="M380,428v -1" fill="none" stroke="#99ff99" stroke-width="2"/>
<g stroke="black" stroke-width="2" fill="none">
<line x1="379" y1="428" x2="380" y2="428"/>
</g>
<path d="M387,428" fill="none" stroke="#99ff99" stroke-width="2"/>
<path d="M387,428" fill="none" stroke="#99ff99" stroke-width="2"/>
<g stroke="black" stroke-width="2" fill="none">
<line x1="386" y1="428" x2="387" y2="428"/>
</g>
<path d="M395,428" fill="none" stroke="#99ff99" stroke-width="2"/>
<path d="M395,428" fill="none" stroke="#99ff99" stroke-width="2"/>
<g stroke="black" stroke-width="2" fill="none">
<line x1="394" y1="428" x2="395" y2="428"/>
</g>
<path d="M403,428" fill="none" stroke="#99ff99" stroke-width="2"/>
<path d="M403,428" fill="none" stroke="#99ff99" stroke-width="2"/>
<g stroke="black" stroke-width="2" fill="none">
<line x1="402" y1="428" x2="403" y2="428"/>
</g>
<path d="M410,428" fill="none" stroke="#99ff99" stroke-width="2"/>
<path d="M410,428" fill="none" stroke="#99ff99" stroke-width="2"/>
<g stroke="black" stroke-width="2" fill="none">
<line x1="409" y1="428" x2="410" y2="428"/>
</g>
<path d="M418,428" fill="none" stroke="#99ff99" stroke-width="2"/>
<path d="M418,428" fill="none" stroke="#99ff99" stroke-width="2"/>
<g stroke="black" stroke-width="2" fill="none">
<line x1="417" y1="428" x2="418" y2="428"/>
</g>
<path d="M425,428" fill="none" stroke="#99ff99" stroke-width="2"/>
<path d="M425,428" fill="none" stroke="#99ff99" stroke-width="2"/>
<g stroke="black" stroke-width="2" fill="none">
<line x1="424" y1="428" x2="425" y2="428"/>
</g>
<path d="M433,428" fill="none" stroke="#99ff99" stroke-width="2"/>
<path d="M433,428" fill="none" stroke="#99ff99" stroke-width="2"/>
<g stroke="black" stroke-width="2" fill="none">
<line x1="432" y1="428" x2="433" y2="428"/>
</g>
<path d="M440,428" fill="none" stroke="#99ff99" stroke-width="2"/>
<path d="M440,428" fill="none" stroke="#99ff99" stroke-width="2"/>
<g stroke="black" stroke-width="2" fill="none">
<line x1="439" y1="428" x2="440" y2="428"/>
</g>
<path d="M448,428" fill="none" stroke="#99ff99" stroke-width="2"/>
<path d="M448,428" fill="none" stroke="#99ff99" stroke-width="2"/>
<g stroke="black" stroke-width="2" fill="none">
<line x1="447" y1="428" x2="448" y2="428"/>
</g>
<path d="M455,428" fill="none" stroke="#99ff99" stroke-width="2"/>
<path d="M455,428" fill="none" stroke="#99ff99" stroke-width="2"/>
<g stroke="black" stroke-width="2" fill="none">
<line x1="454" y1="428" x2="455" y2="428"/>
</g>
<path d="M463,428" fill="none" stroke="#99ff99" stroke-width="2"/>
<path d="M463,428" fill="none" stroke="#99ff99" stroke-width="2"/>
<g stroke="black" stroke-width="2" fill="none">
<line x1="462" y1="428" x2="463" y2="428"/>
</g>
<path d="M471,428" fill="none" stroke="#99ff99" stroke-width="2"/>
<path d="M471,428" fill="none" stroke="#99ff99" stroke-width="2"/>
<g stroke="black" stroke-width="2" fill="none">
<line x1="470" y1="428" x2="471" y2="428"/>
</g>
<path d="M478,428" fill="none" stroke="#99ff99" stroke-width="2"/>
<path d="M478,428" fill="none" stroke="#99ff99" stroke-width="2"/>
<g stroke="black" stroke-width="2" fill="none">
<line x1="477" y1="428" x2="478" y2="428"/>
</g>
<path d="M486,428" fill="none" stroke="#99ff99" stroke-width="2"/>
<path d="M486,428" fill="none" stroke="#99ff99" stroke-width="2"/>
<g stroke="black" stroke-width="2" fill="none">
<line x1="485" y1="428" x2="486" y2="428"/>
</g>
<path d="M493,428" fill="none" stroke="#99ff99" stroke-width="2"/>
<path d="M493,428" fill="none" stroke="#99ff99" stroke-width="2"/>
<g stroke="black" stroke-width="2" fill="none">
<line x1="492" y1="428" x2="493" y2="428"/>
</g>
<path d="M501,428" fill="none" stroke="#99ff99" stroke-width="2"/>
<path d="M501,428" fill="none" stroke="#99ff99" stroke-width="2"/>
<g stroke="black" stroke-width="2" fill="none">
<line x1="500" y1="428" x2="501" y2="428"/>
</g>
<path d="M508,428" fill="none" stroke="#99ff99" stroke-width="2"/>
<path d="M508,428" fill="none" stroke="#99ff99" stroke-width="2"/>
<g stroke="black" stroke-width="2" fill="none">
<line x1="507" y1="428" x2="508" y2="428"/>
</g>
<path d="M516,428" fill="none" stroke="#99ff99" stroke-width="2"/>
<path d="M516,428" fill="none" stroke="#99ff99" stroke-width="2"/>
<g stroke="black" stroke-width="2" fill="none">
<line x1="515" y1="428" x2="516" y2="428"/>
</g>
<path d="M523,428" fill="none" stroke="#99ff99" stroke-width="2"/>
<path d="M523,428" fill="none" stroke="#99ff99" stroke-width="2"/>
<g stroke="black" stroke-width="2" fill="none">
<line x1="522" y1="428" x2="523" y2="428"/>
</g>
<path d="M74,428v -351h 7v 350h 8v -6h 7v -3h 15v 1h 8v 1h 8v 2h 7v 1h 8v 1h 15v 1h 15v 1h 30v 1h 46v 1h 7v -1h 15v 1h 8v -1h 7v 1h 242z" fill="#99ff99"/>
<path d="M74,77h 7v 350h 8v -6h 7v -3h 15v 1h 8v 1h 8v 2h 7v 1h 8v 1h 15v 1h 15v 1h 30v 1h 46v 1h 7v -1h 15v 1h 8v -1h 7v 1h 242" fill="none" stroke="#99ff99" stroke-width="2"/>
<path d="M77,73v -4" fill="none" stroke="#ff0099"/>
<path d="M77,67v -4" fill="none" stroke="#ff0099"/>
<path d="M74,68h 2" fill="none" stroke="#ff0099"/>
<path d="M79,68h 2" fill="none" stroke="#ff0099"/>
<g stroke="#ff0099" stroke-width="1" fill="#ff0099">
<circle cx=" 77" cy=" 68" r=" 1.5"/>
</g>
<path d="M81,427h 3" fill="none" stroke="#ff0099"/>
<path d="M86,427h 3" fill="none" stroke="#ff0099"/>
<g stroke="#ff0099" stroke-width="1" fill="#ff0099">
<circle cx=" 85" cy=" 427" r=" 1.5"/>
</g>
<path d="M89,422h 2" fill="none" stroke="#ff0099"/>
<path d="M94,422h 2" fill="none" stroke="#ff0099"/>
<g stroke="#ff0099" stroke-width="1" fill="#ff0099">
<circle cx=" 93" cy=" 422" r=" 1.5"/>
</g>
<path d="M96,419h 3" fill="none" stroke="#ff0099"/>
<path d="M101,419h 3" fill="none" stroke="#ff0099"/>
<g stroke="#ff0099" stroke-width="1" fill="#ff0099">
<circle cx=" 100" cy=" 419" r=" 1.5"/>
</g>
<path d="M104,418h 3" fill="none" stroke="#ff0099"/>
<path d="M109,418h 2" fill="none" stroke="#ff0099"/>
<g stroke="#ff0099" stroke-width="1" fill="#ff0099">
<circle cx=" 108" cy=" 418" r=" 1.5"/>
</g>
<path d="M111,419h 3" fill="none" stroke="#ff0099"/>
<path d="M116,419h 3" fill="none" stroke="#ff0099"/>
<g stroke="#ff0099" stroke-width="1" fill="#ff0099">
<circle cx=" 115" cy=" 419" r=" 1.5"/>
</g>
<path d="M119,419h 3" fill="none" stroke="#ff0099"/>
<path d="M124,419h 3" fill="none" stroke="#ff0099"/>
<g stroke="#ff0099" stroke-width="1" fill="#ff0099">
<circle cx=" 123" cy=" 419" r=" 1.5"/>
</g>
<path d="M127,423h 2" fill="none" stroke="#ff0099"/>
<path d="M132,423h 2" fill="none" stroke="#ff0099"/>
<g stroke="#ff0099" stroke-width="1" fill="#ff0099">
<circle cx=" 130" cy=" 423" r=" 1.5"/>
</g>
<path d="M134,423h 3" fill="none" stroke="#ff0099"/>
<path d="M139,423h 3" fill="none" stroke="#ff0099"/>
<g stroke="#ff0099" stroke-width="1" fill="#ff0099">
<circle cx=" 138" cy=" 423" r=" 1.5"/>
</g>
<path d="M142,424h 2" fill="none" stroke="#ff0099"/>
<path d="M147,424h 2" fill="none" stroke="#ff0099"/>
<g stroke="#ff0099" stroke-width="1" fill="#ff0099">
<circle cx=" 146" cy=" 424" r=" 1.5"/>
</g>
<path d="M149,425h 3" fill="none" stroke="#ff0099"/>
<path d="M154,425h 3" fill="none" stroke="#ff0099"/>
<g stroke="#ff0099" stroke-width="1" fill="#ff0099">
<circle cx=" 153" cy=" 425" r=" 1.5"/>
</g>
<path d="M157,425h 2" fill="none" stroke="#ff0099"/>
<path d="M162,425h 2" fill="none" stroke="#ff0099"/>
<g stroke="#ff0099" stroke-width="1" fill="#ff0099">
<circle cx=" 161" cy=" 425" r=" 1.5"/>
</g>
<path d="M164,425h 3" fill="none" stroke="#ff0099"/>
<path d="M169,425h 3" fill="none" stroke="#ff0099"/>
<g stroke="#ff0099" stroke-width="1" fill="#ff0099">
<circle cx=" 168" cy=" 425" r=" 1.5"/>
</g>
<path d="M172,426h 3" fill="none" stroke="#ff0099"/>
<path d="M177,426h 3" fill="none" stroke="#ff0099"/>
<g stroke="#ff0099" stroke-width="1" fill="#ff0099">
<circle cx=" 176" cy=" 426" r=" 1.5"/>
</g>
<path d="M180,426h 2" fill="none" stroke="#ff0099"/>
<path d="M184,426h 3" fill="none" stroke="#ff0099"/>
<g stroke="#ff0099" stroke-width="1" fill="#ff0099">
<circle cx=" 183" cy=" 426" r=" 1.5"/>
</g>
<path d="M187,427h 3" fill="none" stroke="#ff0099"/>
<path d="M192,427h 3" fill="none" stroke="#ff0099"/>
<g stroke="#ff0099" stroke-width="1" fill="#ff0099">
<circle cx=" 191" cy=" 427" r=" 1.5"/>
</g>
<path d="M195,427h 2" fill="none" stroke="#ff0099"/>
<path d="M200,427h 2" fill="none" stroke="#ff0099"/>
<g stroke="#ff0099" stroke-width="1" fill="#ff0099">
<circle cx=" 198" cy=" 427" r=" 1.5"/>
</g>
<path d="M202,427h 3" fill="none" stroke="#ff0099"/>
<path d="M207,427h 3" fill="none" stroke="#ff0099"/>
<g stroke="#ff0099" stroke-width="1" fill="#ff0099">
<circle cx=" 206" cy=" 427" r=" 1.5"/>
</g>
<path d="M210,427h 2" fill="none" stroke="#ff0099"/>
<path d="M215,427h 2" fill="none" stroke="#ff0099"/>
<g stroke="#ff0099" stroke-width="1" fill="#ff0099">
<circle cx=" 214" cy=" 427" r=" 1.5"/>
</g>
<path d="M217,428h 3" fill="none" stroke="#ff0099"/>
<path d="M222,428h 3" fill="none" stroke="#ff0099"/>
<g stroke="#ff0099" stroke-width="1" fill="#ff0099">
<circle cx=" 221" cy=" 428" r=" 1.5"/>
</g>
<path d="M225,427h 3" fill="none" stroke="#ff0099"/>
<path d="M230,427h 2" fill="none" stroke="#ff0099"/>
<g stroke="#ff0099" stroke-width="1" fill="#ff0099">
<circle cx=" 229" cy=" 427" r=" 1.5"/>
</g>
<path d="M232,427h 3" fill="none" stroke="#ff0099"/>
<path d="M237,427h 3" fill="none" stroke="#ff0099"/>
<g stroke="#ff0099" stroke-width="1" fill="#ff0099">
<circle cx=" 236" cy=" 427" r=" 1.5"/>
</g>
<path d="M240,427h 3" fill="none" stroke="#ff0099"/>
<path d="M245,427h 3" fill="none" stroke="#ff0099"/>
<g stroke="#ff0099" stroke-width="1" fill="#ff0099">
<circle cx=" 244" cy=" 427" r=" 1.5"/>
</g>
<path d="M248,428h 2" fill="none" stroke="#ff0099"/>
<path d="M252,428h 3" fill="none" stroke="#ff0099"/>
<g stroke="#ff0099" stroke-width="1" fill="#ff0099">
<circle cx=" 251" cy=" 428" r=" 1.5"/>
</g>
<path d="M255,428h 3" fill="none" stroke="#ff0099"/>
<path d="M260,428h 3" fill="none" stroke="#ff0099"/>
<g stroke="#ff0099" stroke-width="1" fill="#ff0099">
<circle cx=" 259" cy=" 428" r=" 1.5"/>
</g>
<path d="M263,428h 2" fill="none" stroke="#ff0099"/>
<path d="M268,428h 2" fill="none" stroke="#ff0099"/>
<g stroke="#ff0099" stroke-width="1" fill="#ff0099">
<circle cx=" 266" cy=" 428" r=" 1.5"/>
</g>
<path d="M270,428h 3" fill="none" stroke="#ff0099"/>
<path d="M275,428h 3" fill="none" stroke="#ff0099"/>
<g stroke="#ff0099" stroke-width="1" fill="#ff0099">
<circle cx=" 274" cy=" 428" r=" 1.5"/>
</g>
<path d="M278,428h 2" fill="none" stroke="#ff0099"/>
<path d="M283,428h 2" fill="none" stroke="#ff0099"/>
<g stroke="#ff0099" stroke-width="1" fill="#ff0099">
<circle cx=" 282" cy=" 428" r=" 1.5"/>
</g>
<path d="M285,428h 3" fill="none" stroke="#ff0099"/>
<path d="M290,428h 3" fill="none" stroke="#ff0099"/>
<g stroke="#ff0099" stroke-width="1" fill="#ff0099">
<circle cx=" 289" cy=" 428" r=" 1.5"/>
</g>
<path d="M293,428h 3" fill="none" stroke="#ff0099"/>
<path d="M298,428h 2" fill="none" stroke="#ff0099"/>
<g stroke="#ff0099" stroke-width="1" fill="#ff0099">
<circle cx=" 297" cy=" 428" r=" 1.5"/>
</g>
<path d="M300,428h 3" fill="none" stroke="#ff0099"/>
<path d="M305,428h 3" fill="none" stroke="#ff0099"/>
<g stroke="#ff0099" stroke-width="1" fill="#ff0099">
<circle cx=" 304" cy=" 428" r=" 1.5"/>
</g>
<path d="M308,428h 3" fill="none" stroke="#ff0099"/>
<path d="M313,428h 3" fill="none" stroke="#ff0099"/>
<g stroke="#ff0099" stroke-width="1" fill="#ff0099">
<circle cx=" 312" cy=" 428" r=" 1.5"/>
</g>
<path d="M316,428h 2" fill="none" stroke="#ff0099"/>
<path d="M321,428h 2" fill="none" stroke="#ff0099"/>
<g stroke="#ff0099" stroke-width="1" fill="#ff0099">
<circle cx=" 319" cy=" 428" r=" 1.5"/>
</g>
<path d="M323,428h 3" fill="none" stroke="#ff0099"/>
<path d="M328,428h 3" fill="none" stroke="#ff0099"/>
<g stroke="#ff0099" stroke-width="1" fill="#ff0099">
<circle cx=" 327" cy=" 428" r=" 1.5"/>
</g>
<path d="M331,428h 2" fill="none" stroke="#ff0099"/>
<path d="M336,428h 2" fill="none" stroke="#ff0099"/>
<g stroke="#ff0099" stroke-width="1" fill="#ff0099">
<circle cx=" 334" cy=" 428" r=" 1.5"/>
</g>
<path d="M338,428h 3" fill="none" stroke="#ff0099"/>
<path d="M343,428h 3" fill="none" stroke="#ff0099"/>
<g stroke="#ff0099" stroke-width="1" fill="#ff0099">
<circle cx=" 342" cy=" 428" r=" 1.5"/>
</g>
<path d="M346,428h 2" fill="none" stroke="#ff0099"/>
<path d="M351,428h 2" fill="none" stroke="#ff0099"/>
<g stroke="#ff0099" stroke-width="1" fill="#ff0099">
<circle cx=" 350" cy=" 428" r=" 1.5"/>
</g>
<path d="M353,428h 3" fill="none" stroke="#ff0099"/>
<path d="M358,428h 3" fill="none" stroke="#ff0099"/>
<g stroke="#ff0099" stroke-width="1" fill="#ff0099">
<circle cx=" 357" cy=" 428" r=" 1.5"/>
</g>
<path d="M361,428h 3" fill="none" stroke="#ff0099"/>
<path d="M366,428h 3" fill="none" stroke="#ff0099"/>
<g stroke="#ff0099" stroke-width="1" fill="#ff0099">
<circle cx=" 365" cy=" 428" r=" 1.5"/>
</g>
<path d="M369,428h 2" fill="none" stroke="#ff0099"/>
<path d="M373,428h 3" fill="none" stroke="#ff0099"/>
<g stroke="#ff0099" stroke-width="1" fill="#ff0099">
<circle cx=" 372" cy=" 428" r=" 1.5"/>
</g>
<path d="M376,428h 3" fill="none" stroke="#ff0099"/>
<path d="M381,428h 3" fill="none" stroke="#ff0099"/>
<g stroke="#ff0099" stroke-width="1" fill="#ff0099">
<circle cx=" 380" cy=" 428" r=" 1.5"/>
</g>
<path d="M384,428h 2" fill="none" stroke="#ff0099"/>
<path d="M389,428h 2" fill="none" stroke="#ff0099"/>
<g stroke="#ff0099" stroke-width="1" fill="#ff0099">
<circle cx=" 387" cy=" 428" r=" 1.5"/>
</g>
<path d="M391,428h 3" fill="none" stroke="#ff0099"/>
<path d="M396,428h 3" fill="none" stroke="#ff0099"/>
<g stroke="#ff0099" stroke-width="1" fill="#ff0099">
<circle cx=" 395" cy=" 428" r=" 1.5"/>
</g>
<path d="M399,428h 2" fill="none" stroke="#ff0099"/>
<path d="M404,428h 2" fill="none" stroke="#ff0099"/>
<g stroke="#ff0099" stroke-width="1" fill="#ff0099">
<circle cx=" 403" cy=" 428" r=" 1.5"/>
</g>
<path d="M406,428h 3" fill="none" stroke="#ff0099"/>
<path d="M411,428h 3" fill="none" stroke="#ff0099"/>
<g stroke="#ff0099" stroke-width="1" fill="#ff0099">
<circle cx=" 410" cy=" 428" r=" 1.5"/>
</g>
<path d="M414,428h 2" fill="none" stroke="#ff0099"/>
<path d="M419,428h 2" fill="none" stroke="#ff0099"/>
<g stroke="#ff0099" stroke-width="1" fill="#ff0099">
<circle cx=" 418" cy=" 428" r=" 1.5"/>
</g>
<path d="M421,428h 3" fill="none" stroke="#ff0099"/>
<path d="M426,428h 3" fill="none" stroke="#ff0099"/>
<g stroke="#ff0099" stroke-width="1" fill="#ff0099">
<circle cx=" 425" cy=" 428" r=" 1.5"/>
</g>
<path d="M429,428h 3" fill="none" stroke="#ff0099"/>
<path d="M434,428h 3" fill="none" stroke="#ff0099"/>
<g stroke="#ff0099" stroke-width="1" fill="#ff0099">
<circle cx=" 433" cy=" 428" r=" 1.5"/>
</g>
<path d="M437,428h 2" fill="none" stroke="#ff0099"/>
<path d="M441,428h 3" fill="none" stroke="#ff0099"/>
<g stroke="#ff0099" stroke-width="1" fill="#ff0099">
<circle cx=" 440" cy=" 428" r=" 1.5"/>
</g>
<path d="M444,428h 3" fill="none" stroke="#ff0099"/>
<path d="M449,428h 3" fill="none" stroke="#ff0099"/>
<g stroke="#ff0099" stroke-width="1" fill="#ff0099">
<circle cx=" 448" cy=" 428" r=" 1.5"/>
</g>
<path d="M452,428h 2" fill="none" stroke="#ff0099"/>
<path d="M457,428h 2" fill="none" stroke="#ff0099"/>
<g stroke="#ff0099" stroke-width="1" fill="#ff0099">
<circle cx=" 455" cy=" 428" r=" 1.5"/>
</g>
<path d="M467,428h 2" fill="none" stroke="#ff0099"/>
<path d="M472,428h 2" fill="none" stroke="#ff0099"/>
<g stroke="#ff0099" stroke-width="1" fill="#ff0099">
<circle cx=" 471" cy=" 428" r=" 1.5"/>
</g>
<path d="M482,428h 3" fill="none" stroke="#ff0099"/>
<path d="M487,428h 2" fill="none" stroke="#ff0099"/>
<g stroke="#ff0099" stroke-width="1" fill="#ff0099">
<circle cx=" 486" cy=" 428" r=" 1.5"/>
</g>
<path d="M497,428h 3" fill="none" stroke="#ff0099"/>
<path d="M502,428h 3" fill="none" stroke="#ff0099"/>
<g stroke="#ff0099" stroke-width="1" fill="#ff0099">
<circle cx=" 501" cy=" 428" r=" 1.5"/>
</g>
<path d="M505,428h 2" fill="none" stroke="#ff0099"/>
<path d="M509,428h 3" fill="none" stroke="#ff0099"/>
<g stroke="#ff0099" stroke-width="1" fill="#ff0099">
<circle cx=" 508" cy=" 428" r=" 1.5"/>
</g>
<path d="M512,428h 3" fill="none" stroke="#ff0099"/>
<path d="M517,428h 3" fill="none" stroke="#ff0099"/>
<g stroke="#ff0099" stroke-width="1" fill="#ff0099">
<circle cx=" 516" cy=" 428" r=" 1.5"/>
</g>
<path d="M520,428h 2" fill="none" stroke="#ff0099"/>
<path d="M525,428h 2" fill="none" stroke="#ff0099"/>
<g stroke="#ff0099" stroke-width="1" fill="#ff0099">
<circle cx=" 523" cy=" 428" r=" 1.5"/>
</g>
<rect x="357" y="59" width="142" height="99" fill="white"/>
<text x="360" y="82" fill="black" font-size="17" font-family="Helvetica" font-weight="bold">
EE
</text>
<text x="457" y="115" fill="black" font-size="17" font-family="Helvetica" font-weight="bold">
 ee
</text>
<text x="440" y="115" fill="black" font-size="17" font-family="Times">
&#8594;
</text>
<text x="392" y="115" fill="black" font-size="17" font-family="Helvetica" font-weight="bold">
MC Z 
</text>
<path d="M362,109h 25" fill="none" stroke="#ff0099"/>
<g stroke="#ff0099" stroke-width="1" fill="#ff0099">
<circle cx=" 375" cy=" 109" r=" 1.5"/>
</g>
<text x="455" y="147" fill="black" font-size="17" font-family="Helvetica" font-weight="bold">
 + jet
</text>
<text x="447" y="147" fill="black" font-size="17" font-family="Times">
&#0947;
</text>
<text x="392" y="147" fill="black" font-size="17" font-family="Helvetica" font-weight="bold">
signal 
</text>
<path d="M362,154h 25v -24h -25z" fill="#99ff99"/>
<path d="M362,130h 25" fill="none" stroke="#99ff99" stroke-width="2"/>
<path d="M362,154h 25" fill="none" stroke="#99ff99" stroke-width="2"/>
<path d="M387,154v -24" fill="none" stroke="#99ff99" stroke-width="2"/>
<path d="M362,154v -24" fill="none" stroke="#99ff99" stroke-width="2"/>
<text x="300" y="34" fill="black" font-size="17" font-family="Helvetica" font-weight="bold">
=8 TeV
</text>
<text x="291" y="34" fill="black" font-size="17" font-family="Helvetica" font-weight="bold">
s
</text>
<path d="M285,25l 2, 10" fill="none" stroke="black" stroke-width="2"/>
<path d="M287,35l 2, -14" fill="none" stroke="black"/>
<path d="M289,21h 11" fill="none" stroke="black"/>
<text x="142" y="34" fill="black" font-size="17" font-family="Helvetica" font-weight="bold">
CMS Preliminary 
</text></svg>
