<?xml version="1.0" standalone="no"?>
<svg width="567" height="496" viewBox="0 0 567 496" xmlns="http://www.w3.org/2000/svg">
<title>
../src/TagAndProbeZ/plots_mcZee_mcGJet_withEtaR9Reweight/hlt30//mvaIdPhotEB_log.svg
</title>
<desc>
Creator: ROOT Version 5.32/00
CreationDate: Sat Sep 27 23:43:25 2014</desc>
<defs>
</defs>
<rect x="0" y="0" width="567" height="496" fill="white"/>
<rect x="0" y="0" width="567" height="347" fill="white"/>
<rect x="57" y="34" width="453" height="278" fill="white"/>
<rect x="57" y="34" width="453" height="278" fill="none" stroke="black"/>
<rect x="57" y="34" width="453" height="278" fill="white"/>
<rect x="57" y="34" width="453" height="278" fill="none" stroke="black"/>
<path d="M433,110h 1" fill="none" stroke="#ff0099"/>
<path d="M437,110h 1" fill="none" stroke="#ff0099"/>
<g stroke="#ff0099" stroke-width="1" fill="#ff0099">
<circle cx=" 435" cy=" 110" r=" 1.5"/>
</g>
<path d="M438,96h 1" fill="none" stroke="#ff0099"/>
<path d="M441,96h 1" fill="none" stroke="#ff0099"/>
<g stroke="#ff0099" stroke-width="1" fill="#ff0099">
<circle cx=" 440" cy=" 96" r=" 1.5"/>
</g>
<path d="M442,93h 1" fill="none" stroke="#ff0099"/>
<path d="M446,93h 1" fill="none" stroke="#ff0099"/>
<g stroke="#ff0099" stroke-width="1" fill="#ff0099">
<circle cx=" 444" cy=" 93" r=" 1.5"/>
</g>
<path d="M447,90h 1" fill="none" stroke="#ff0099"/>
<path d="M450,90h 1" fill="none" stroke="#ff0099"/>
<g stroke="#ff0099" stroke-width="1" fill="#ff0099">
<circle cx=" 449" cy=" 90" r=" 1.5"/>
</g>
<path d="M451,87h 1" fill="none" stroke="#ff0099"/>
<path d="M455,87h 1" fill="none" stroke="#ff0099"/>
<g stroke="#ff0099" stroke-width="1" fill="#ff0099">
<circle cx=" 454" cy=" 87" r=" 1.5"/>
</g>
<path d="M456,84h 1" fill="none" stroke="#ff0099"/>
<path d="M459,84h 1" fill="none" stroke="#ff0099"/>
<g stroke="#ff0099" stroke-width="1" fill="#ff0099">
<circle cx=" 458" cy=" 84" r=" 1.5"/>
</g>
<path d="M460,81h 1" fill="none" stroke="#ff0099"/>
<path d="M464,81h 1" fill="none" stroke="#ff0099"/>
<g stroke="#ff0099" stroke-width="1" fill="#ff0099">
<circle cx=" 463" cy=" 81" r=" 1.5"/>
</g>
<path d="M465,78h 1" fill="none" stroke="#ff0099"/>
<path d="M468,78h 1" fill="none" stroke="#ff0099"/>
<g stroke="#ff0099" stroke-width="1" fill="#ff0099">
<circle cx=" 467" cy=" 78" r=" 1.5"/>
</g>
<path d="M469,74h 2" fill="none" stroke="#ff0099"/>
<path d="M473,74h 1" fill="none" stroke="#ff0099"/>
<g stroke="#ff0099" stroke-width="1" fill="#ff0099">
<circle cx=" 472" cy=" 74" r=" 1.5"/>
</g>
<path d="M474,70h 1" fill="none" stroke="#ff0099"/>
<path d="M477,70h 1" fill="none" stroke="#ff0099"/>
<g stroke="#ff0099" stroke-width="1" fill="#ff0099">
<circle cx=" 476" cy=" 70" r=" 1.5"/>
</g>
<path d="M478,65h 2" fill="none" stroke="#ff0099"/>
<path d="M482,65h 1" fill="none" stroke="#ff0099"/>
<g stroke="#ff0099" stroke-width="1" fill="#ff0099">
<circle cx=" 481" cy=" 65" r=" 1.5"/>
</g>
<path d="M483,63h 1" fill="none" stroke="#ff0099"/>
<path d="M486,63h 2" fill="none" stroke="#ff0099"/>
<g stroke="#ff0099" stroke-width="1" fill="#ff0099">
<circle cx=" 485" cy=" 63" r=" 1.5"/>
</g>
<path d="M488,69h 1" fill="none" stroke="#ff0099"/>
<path d="M491,69h 1" fill="none" stroke="#ff0099"/>
<g stroke="#ff0099" stroke-width="1" fill="#ff0099">
<circle cx=" 490" cy=" 69" r=" 1.5"/>
</g>
<path d="M492,91h 1" fill="none" stroke="#ff0099"/>
<path d="M496,91h 1" fill="none" stroke="#ff0099"/>
<g stroke="#ff0099" stroke-width="1" fill="#ff0099">
<circle cx=" 494" cy=" 91" r=" 1.5"/>
</g>
<path d="M497,133h 1" fill="none" stroke="#ff0099"/>
<path d="M500,133h 1" fill="none" stroke="#ff0099"/>
<g stroke="#ff0099" stroke-width="1" fill="#ff0099">
<circle cx=" 499" cy=" 133" r=" 1.5"/>
</g>
<path d="M503,170v -1" fill="none" stroke="#ff0099"/>
<path d="M503,167" fill="none" stroke="#ff0099"/>
<path d="M501,168h 1" fill="none" stroke="#ff0099"/>
<path d="M505,168h 1" fill="none" stroke="#ff0099"/>
<g stroke="#ff0099" stroke-width="1" fill="#ff0099">
<circle cx=" 503" cy=" 168" r=" 1.5"/>
</g>
<path d="M508,192v -2" fill="none" stroke="#ff0099"/>
<path d="M508,188v -1" fill="none" stroke="#ff0099"/>
<path d="M506,189h 1" fill="none" stroke="#ff0099"/>
<path d="M509,189h 1" fill="none" stroke="#ff0099"/>
<g stroke="#ff0099" stroke-width="1" fill="#ff0099">
<circle cx=" 508" cy=" 189" r=" 1.5"/>
</g>
<path d="M57,312h 453" fill="none" stroke="black"/>
<text x="434" y="338" fill="black" font-size="13" font-family="Helvetica" font-weight="bold">
 MVA output
</text>
<text x="427" y="338" fill="black" font-size="13" font-family="Times">
&#0947;
</text>
<path d="M57,304v 8" fill="none" stroke="black"/>
<path d="M66,308v 4" fill="none" stroke="black"/>
<path d="M75,308v 4" fill="none" stroke="black"/>
<path d="M84,308v 4" fill="none" stroke="black"/>
<path d="M93,308v 4" fill="none" stroke="black"/>
<path d="M102,304v 8" fill="none" stroke="black"/>
<path d="M111,308v 4" fill="none" stroke="black"/>
<path d="M120,308v 4" fill="none" stroke="black"/>
<path d="M129,308v 4" fill="none" stroke="black"/>
<path d="M138,308v 4" fill="none" stroke="black"/>
<path d="M147,304v 8" fill="none" stroke="black"/>
<path d="M156,308v 4" fill="none" stroke="black"/>
<path d="M166,308v 4" fill="none" stroke="black"/>
<path d="M175,308v 4" fill="none" stroke="black"/>
<path d="M184,308v 4" fill="none" stroke="black"/>
<path d="M193,304v 8" fill="none" stroke="black"/>
<path d="M202,308v 4" fill="none" stroke="black"/>
<path d="M211,308v 4" fill="none" stroke="black"/>
<path d="M220,308v 4" fill="none" stroke="black"/>
<path d="M229,308v 4" fill="none" stroke="black"/>
<path d="M238,304v 8" fill="none" stroke="black"/>
<path d="M247,308v 4" fill="none" stroke="black"/>
<path d="M256,308v 4" fill="none" stroke="black"/>
<path d="M265,308v 4" fill="none" stroke="black"/>
<path d="M274,308v 4" fill="none" stroke="black"/>
<path d="M283,304v 8" fill="none" stroke="black"/>
<path d="M293,308v 4" fill="none" stroke="black"/>
<path d="M302,308v 4" fill="none" stroke="black"/>
<path d="M311,308v 4" fill="none" stroke="black"/>
<path d="M320,308v 4" fill="none" stroke="black"/>
<path d="M329,304v 8" fill="none" stroke="black"/>
<path d="M338,308v 4" fill="none" stroke="black"/>
<path d="M347,308v 4" fill="none" stroke="black"/>
<path d="M356,308v 4" fill="none" stroke="black"/>
<path d="M365,308v 4" fill="none" stroke="black"/>
<path d="M374,304v 8" fill="none" stroke="black"/>
<path d="M383,308v 4" fill="none" stroke="black"/>
<path d="M392,308v 4" fill="none" stroke="black"/>
<path d="M401,308v 4" fill="none" stroke="black"/>
<path d="M410,308v 4" fill="none" stroke="black"/>
<path d="M420,304v 8" fill="none" stroke="black"/>
<path d="M429,308v 4" fill="none" stroke="black"/>
<path d="M438,308v 4" fill="none" stroke="black"/>
<path d="M447,308v 4" fill="none" stroke="black"/>
<path d="M456,308v 4" fill="none" stroke="black"/>
<path d="M465,304v 8" fill="none" stroke="black"/>
<path d="M474,308v 4" fill="none" stroke="black"/>
<path d="M483,308v 4" fill="none" stroke="black"/>
<path d="M492,308v 4" fill="none" stroke="black"/>
<path d="M501,308v 4" fill="none" stroke="black"/>
<path d="M510,304v 8" fill="none" stroke="black"/>
<text x="53" y="325" fill="black" font-size="13" font-family="Helvetica" font-weight="bold">
0
</text>
<text x="93" y="325" fill="black" font-size="13" font-family="Helvetica" font-weight="bold">
0.1
</text>
<text x="138" y="325" fill="black" font-size="13" font-family="Helvetica" font-weight="bold">
0.2
</text>
<text x="183" y="325" fill="black" font-size="13" font-family="Helvetica" font-weight="bold">
0.3
</text>
<text x="229" y="325" fill="black" font-size="13" font-family="Helvetica" font-weight="bold">
0.4
</text>
<text x="274" y="325" fill="black" font-size="13" font-family="Helvetica" font-weight="bold">
0.5
</text>
<text x="319" y="325" fill="black" font-size="13" font-family="Helvetica" font-weight="bold">
0.6
</text>
<text x="365" y="325" fill="black" font-size="13" font-family="Helvetica" font-weight="bold">
0.7
</text>
<text x="410" y="325" fill="black" font-size="13" font-family="Helvetica" font-weight="bold">
0.8
</text>
<text x="455" y="325" fill="black" font-size="13" font-family="Helvetica" font-weight="bold">
0.9
</text>
<text x="507" y="325" fill="black" font-size="13" font-family="Helvetica" font-weight="bold">
1
</text>
<path d="M57,312v -278" fill="none" stroke="black"/>
<g transform="rotate(-90,28,106)">
<text x="28" y="106" fill="black" font-size="13" font-family="Helvetica" font-weight="bold">
Entries/0.01
</text>
</g>
<path d="M63,310h -6" fill="none" stroke="black"/>
<path d="M63,307h -6" fill="none" stroke="black"/>
<path d="M63,305h -6" fill="none" stroke="black"/>
<path d="M63,303h -6" fill="none" stroke="black"/>
<path d="M63,301h -6" fill="none" stroke="black"/>
<path d="M70,299h -13" fill="none" stroke="black"/>
<text x="44" y="298" fill="black" font-size="9" font-family="Helvetica" font-weight="bold">
-7
</text>
<text x="30" y="305" fill="black" font-size="13" font-family="Helvetica" font-weight="bold">
10
</text>
<path d="M63,288h -6" fill="none" stroke="black"/>
<path d="M63,281h -6" fill="none" stroke="black"/>
<path d="M63,276h -6" fill="none" stroke="black"/>
<path d="M63,272h -6" fill="none" stroke="black"/>
<path d="M63,269h -6" fill="none" stroke="black"/>
<path d="M63,267h -6" fill="none" stroke="black"/>
<path d="M63,265h -6" fill="none" stroke="black"/>
<path d="M63,263h -6" fill="none" stroke="black"/>
<path d="M70,261h -13" fill="none" stroke="black"/>
<text x="44" y="260" fill="black" font-size="9" font-family="Helvetica" font-weight="bold">
-6
</text>
<text x="30" y="267" fill="black" font-size="13" font-family="Helvetica" font-weight="bold">
10
</text>
<path d="M63,250h -6" fill="none" stroke="black"/>
<path d="M63,243h -6" fill="none" stroke="black"/>
<path d="M63,238h -6" fill="none" stroke="black"/>
<path d="M63,235h -6" fill="none" stroke="black"/>
<path d="M63,232h -6" fill="none" stroke="black"/>
<path d="M63,229h -6" fill="none" stroke="black"/>
<path d="M63,227h -6" fill="none" stroke="black"/>
<path d="M63,225h -6" fill="none" stroke="black"/>
<path d="M70,223h -13" fill="none" stroke="black"/>
<text x="44" y="222" fill="black" font-size="9" font-family="Helvetica" font-weight="bold">
-5
</text>
<text x="30" y="229" fill="black" font-size="13" font-family="Helvetica" font-weight="bold">
10
</text>
<path d="M63,212h -6" fill="none" stroke="black"/>
<path d="M63,205h -6" fill="none" stroke="black"/>
<path d="M63,201h -6" fill="none" stroke="black"/>
<path d="M63,197h -6" fill="none" stroke="black"/>
<path d="M63,194h -6" fill="none" stroke="black"/>
<path d="M63,191h -6" fill="none" stroke="black"/>
<path d="M63,189h -6" fill="none" stroke="black"/>
<path d="M63,187h -6" fill="none" stroke="black"/>
<path d="M70,185h -13" fill="none" stroke="black"/>
<text x="44" y="185" fill="black" font-size="9" font-family="Helvetica" font-weight="bold">
-4
</text>
<text x="30" y="191" fill="black" font-size="13" font-family="Helvetica" font-weight="bold">
10
</text>
<path d="M63,174h -6" fill="none" stroke="black"/>
<path d="M63,167h -6" fill="none" stroke="black"/>
<path d="M63,163h -6" fill="none" stroke="black"/>
<path d="M63,159h -6" fill="none" stroke="black"/>
<path d="M63,156h -6" fill="none" stroke="black"/>
<path d="M63,154h -6" fill="none" stroke="black"/>
<path d="M63,151h -6" fill="none" stroke="black"/>
<path d="M63,149h -6" fill="none" stroke="black"/>
<path d="M70,148h -13" fill="none" stroke="black"/>
<text x="44" y="147" fill="black" font-size="9" font-family="Helvetica" font-weight="bold">
-3
</text>
<text x="30" y="154" fill="black" font-size="13" font-family="Helvetica" font-weight="bold">
10
</text>
<path d="M63,136h -6" fill="none" stroke="black"/>
<path d="M63,130h -6" fill="none" stroke="black"/>
<path d="M63,125h -6" fill="none" stroke="black"/>
<path d="M63,121h -6" fill="none" stroke="black"/>
<path d="M63,118h -6" fill="none" stroke="black"/>
<path d="M63,116h -6" fill="none" stroke="black"/>
<path d="M63,114h -6" fill="none" stroke="black"/>
<path d="M63,112h -6" fill="none" stroke="black"/>
<path d="M70,110h -13" fill="none" stroke="black"/>
<text x="44" y="110" fill="black" font-size="9" font-family="Helvetica" font-weight="bold">
-2
</text>
<text x="30" y="116" fill="black" font-size="13" font-family="Helvetica" font-weight="bold">
10
</text>
<path d="M63,98h -6" fill="none" stroke="black"/>
<path d="M63,92h -6" fill="none" stroke="black"/>
<path d="M63,87h -6" fill="none" stroke="black"/>
<path d="M63,83h -6" fill="none" stroke="black"/>
<path d="M63,80h -6" fill="none" stroke="black"/>
<path d="M63,78h -6" fill="none" stroke="black"/>
<path d="M63,76h -6" fill="none" stroke="black"/>
<path d="M63,74h -6" fill="none" stroke="black"/>
<path d="M70,72h -13" fill="none" stroke="black"/>
<text x="46" y="72" fill="black" font-size="9" font-family="Helvetica" font-weight="bold">
-1
</text>
<text x="31" y="78" fill="black" font-size="13" font-family="Helvetica" font-weight="bold">
10
</text>
<path d="M63,61h -6" fill="none" stroke="black"/>
<path d="M63,54h -6" fill="none" stroke="black"/>
<path d="M63,49h -6" fill="none" stroke="black"/>
<path d="M63,46h -6" fill="none" stroke="black"/>
<path d="M63,43h -6" fill="none" stroke="black"/>
<path d="M63,40h -6" fill="none" stroke="black"/>
<path d="M63,38h -6" fill="none" stroke="black"/>
<path d="M63,36h -6" fill="none" stroke="black"/>
<path d="M435,112v -1" fill="none" stroke="#99ff99" stroke-width="2"/>
<path d="M435,111" fill="none" stroke="#99ff99" stroke-width="2"/>
<g stroke="black" stroke-width="2" fill="none">
<line x1="434" y1="111" x2="435" y2="111"/>
</g>
<path d="M440,96" fill="none" stroke="#99ff99" stroke-width="2"/>
<path d="M440,96" fill="none" stroke="#99ff99" stroke-width="2"/>
<g stroke="black" stroke-width="2" fill="none">
<line x1="439" y1="96" x2="440" y2="96"/>
</g>
<path d="M444,94" fill="none" stroke="#99ff99" stroke-width="2"/>
<path d="M444,94v -1" fill="none" stroke="#99ff99" stroke-width="2"/>
<g stroke="black" stroke-width="2" fill="none">
<line x1="443" y1="94" x2="444" y2="94"/>
</g>
<path d="M449,92" fill="none" stroke="#99ff99" stroke-width="2"/>
<path d="M449,92v -1" fill="none" stroke="#99ff99" stroke-width="2"/>
<g stroke="black" stroke-width="2" fill="none">
<line x1="448" y1="92" x2="449" y2="92"/>
</g>
<path d="M454,89" fill="none" stroke="#99ff99" stroke-width="2"/>
<path d="M454,89v -1" fill="none" stroke="#99ff99" stroke-width="2"/>
<g stroke="black" stroke-width="2" fill="none">
<line x1="453" y1="89" x2="454" y2="89"/>
</g>
<path d="M458,87v -1" fill="none" stroke="#99ff99" stroke-width="2"/>
<path d="M458,86" fill="none" stroke="#99ff99" stroke-width="2"/>
<g stroke="black" stroke-width="2" fill="none">
<line x1="457" y1="86" x2="458" y2="86"/>
</g>
<path d="M463,84" fill="none" stroke="#99ff99" stroke-width="2"/>
<path d="M463,84" fill="none" stroke="#99ff99" stroke-width="2"/>
<g stroke="black" stroke-width="2" fill="none">
<line x1="462" y1="84" x2="463" y2="84"/>
</g>
<path d="M467,81v -1" fill="none" stroke="#99ff99" stroke-width="2"/>
<path d="M467,80" fill="none" stroke="#99ff99" stroke-width="2"/>
<g stroke="black" stroke-width="2" fill="none">
<line x1="466" y1="80" x2="467" y2="80"/>
</g>
<path d="M472,77" fill="none" stroke="#99ff99" stroke-width="2"/>
<path d="M472,77v -1" fill="none" stroke="#99ff99" stroke-width="2"/>
<g stroke="black" stroke-width="2" fill="none">
<line x1="471" y1="77" x2="472" y2="77"/>
</g>
<path d="M476,72" fill="none" stroke="#99ff99" stroke-width="2"/>
<path d="M476,72" fill="none" stroke="#99ff99" stroke-width="2"/>
<g stroke="black" stroke-width="2" fill="none">
<line x1="475" y1="72" x2="476" y2="72"/>
</g>
<path d="M481,66v -1" fill="none" stroke="#99ff99" stroke-width="2"/>
<path d="M481,65" fill="none" stroke="#99ff99" stroke-width="2"/>
<g stroke="black" stroke-width="2" fill="none">
<line x1="480" y1="65" x2="481" y2="65"/>
</g>
<path d="M485,62" fill="none" stroke="#99ff99" stroke-width="2"/>
<path d="M485,62" fill="none" stroke="#99ff99" stroke-width="2"/>
<g stroke="black" stroke-width="2" fill="none">
<line x1="484" y1="62" x2="485" y2="62"/>
</g>
<path d="M490,65" fill="none" stroke="#99ff99" stroke-width="2"/>
<path d="M490,65v -1" fill="none" stroke="#99ff99" stroke-width="2"/>
<g stroke="black" stroke-width="2" fill="none">
<line x1="489" y1="65" x2="490" y2="65"/>
</g>
<path d="M494,84" fill="none" stroke="#99ff99" stroke-width="2"/>
<path d="M494,84" fill="none" stroke="#99ff99" stroke-width="2"/>
<g stroke="black" stroke-width="2" fill="none">
<line x1="493" y1="84" x2="494" y2="84"/>
</g>
<path d="M499,124v -1" fill="none" stroke="#99ff99" stroke-width="2"/>
<path d="M499,123v -1" fill="none" stroke="#99ff99" stroke-width="2"/>
<g stroke="black" stroke-width="2" fill="none">
<line x1="498" y1="123" x2="499" y2="123"/>
</g>
<path d="M503,160v -2" fill="none" stroke="#99ff99" stroke-width="2"/>
<path d="M503,158v -2" fill="none" stroke="#99ff99" stroke-width="2"/>
<g stroke="black" stroke-width="2" fill="none">
<line x1="502" y1="158" x2="503" y2="158"/>
</g>
<path d="M508,185v -2" fill="none" stroke="#99ff99" stroke-width="2"/>
<path d="M508,183v -2" fill="none" stroke="#99ff99" stroke-width="2"/>
<g stroke="black" stroke-width="2" fill="none">
<line x1="507" y1="183" x2="508" y2="183"/>
</g>
<path d="M57,312h 376v -201h 5v -15h 4v -2h 5v -2h 4v -3h 5v -3h 4v -2h 5v -4h 4v -3h 5v -5h 4v -7h 5v -3h 5v 3h 4v 19h 5v 39h 4v 35h 5v 25h 4v 129z" fill="#99ff99"/>
<path d="M57,312h 376v -201h 5v -15h 4v -2h 5v -2h 4v -3h 5v -3h 4v -2h 5v -4h 4v -3h 5v -5h 4v -7h 5v -3h 5v 3h 4v 19h 5v 39h 4v 35h 5v 25h 4" fill="none" stroke="#99ff99" stroke-width="2"/>
<path d="M433,110h 1" fill="none" stroke="#ff0099"/>
<path d="M437,110h 1" fill="none" stroke="#ff0099"/>
<g stroke="#ff0099" stroke-width="1" fill="#ff0099">
<circle cx=" 435" cy=" 110" r=" 1.5"/>
</g>
<path d="M438,96h 1" fill="none" stroke="#ff0099"/>
<path d="M441,96h 1" fill="none" stroke="#ff0099"/>
<g stroke="#ff0099" stroke-width="1" fill="#ff0099">
<circle cx=" 440" cy=" 96" r=" 1.5"/>
</g>
<path d="M442,93h 1" fill="none" stroke="#ff0099"/>
<path d="M446,93h 1" fill="none" stroke="#ff0099"/>
<g stroke="#ff0099" stroke-width="1" fill="#ff0099">
<circle cx=" 444" cy=" 93" r=" 1.5"/>
</g>
<path d="M447,90h 1" fill="none" stroke="#ff0099"/>
<path d="M450,90h 1" fill="none" stroke="#ff0099"/>
<g stroke="#ff0099" stroke-width="1" fill="#ff0099">
<circle cx=" 449" cy=" 90" r=" 1.5"/>
</g>
<path d="M451,87h 1" fill="none" stroke="#ff0099"/>
<path d="M455,87h 1" fill="none" stroke="#ff0099"/>
<g stroke="#ff0099" stroke-width="1" fill="#ff0099">
<circle cx=" 454" cy=" 87" r=" 1.5"/>
</g>
<path d="M456,84h 1" fill="none" stroke="#ff0099"/>
<path d="M459,84h 1" fill="none" stroke="#ff0099"/>
<g stroke="#ff0099" stroke-width="1" fill="#ff0099">
<circle cx=" 458" cy=" 84" r=" 1.5"/>
</g>
<path d="M460,81h 1" fill="none" stroke="#ff0099"/>
<path d="M464,81h 1" fill="none" stroke="#ff0099"/>
<g stroke="#ff0099" stroke-width="1" fill="#ff0099">
<circle cx=" 463" cy=" 81" r=" 1.5"/>
</g>
<path d="M465,78h 1" fill="none" stroke="#ff0099"/>
<path d="M468,78h 1" fill="none" stroke="#ff0099"/>
<g stroke="#ff0099" stroke-width="1" fill="#ff0099">
<circle cx=" 467" cy=" 78" r=" 1.5"/>
</g>
<path d="M469,74h 2" fill="none" stroke="#ff0099"/>
<path d="M473,74h 1" fill="none" stroke="#ff0099"/>
<g stroke="#ff0099" stroke-width="1" fill="#ff0099">
<circle cx=" 472" cy=" 74" r=" 1.5"/>
</g>
<path d="M474,70h 1" fill="none" stroke="#ff0099"/>
<path d="M477,70h 1" fill="none" stroke="#ff0099"/>
<g stroke="#ff0099" stroke-width="1" fill="#ff0099">
<circle cx=" 476" cy=" 70" r=" 1.5"/>
</g>
<path d="M478,65h 2" fill="none" stroke="#ff0099"/>
<path d="M482,65h 1" fill="none" stroke="#ff0099"/>
<g stroke="#ff0099" stroke-width="1" fill="#ff0099">
<circle cx=" 481" cy=" 65" r=" 1.5"/>
</g>
<path d="M483,63h 1" fill="none" stroke="#ff0099"/>
<path d="M486,63h 2" fill="none" stroke="#ff0099"/>
<g stroke="#ff0099" stroke-width="1" fill="#ff0099">
<circle cx=" 485" cy=" 63" r=" 1.5"/>
</g>
<path d="M488,69h 1" fill="none" stroke="#ff0099"/>
<path d="M491,69h 1" fill="none" stroke="#ff0099"/>
<g stroke="#ff0099" stroke-width="1" fill="#ff0099">
<circle cx=" 490" cy=" 69" r=" 1.5"/>
</g>
<path d="M492,91h 1" fill="none" stroke="#ff0099"/>
<path d="M496,91h 1" fill="none" stroke="#ff0099"/>
<g stroke="#ff0099" stroke-width="1" fill="#ff0099">
<circle cx=" 494" cy=" 91" r=" 1.5"/>
</g>
<path d="M497,133h 1" fill="none" stroke="#ff0099"/>
<path d="M500,133h 1" fill="none" stroke="#ff0099"/>
<g stroke="#ff0099" stroke-width="1" fill="#ff0099">
<circle cx=" 499" cy=" 133" r=" 1.5"/>
</g>
<path d="M503,170v -1" fill="none" stroke="#ff0099"/>
<path d="M503,167" fill="none" stroke="#ff0099"/>
<path d="M501,168h 1" fill="none" stroke="#ff0099"/>
<path d="M505,168h 1" fill="none" stroke="#ff0099"/>
<g stroke="#ff0099" stroke-width="1" fill="#ff0099">
<circle cx=" 503" cy=" 168" r=" 1.5"/>
</g>
<path d="M508,192v -2" fill="none" stroke="#ff0099"/>
<path d="M508,188v -1" fill="none" stroke="#ff0099"/>
<path d="M506,189h 1" fill="none" stroke="#ff0099"/>
<path d="M509,189h 1" fill="none" stroke="#ff0099"/>
<g stroke="#ff0099" stroke-width="1" fill="#ff0099">
<circle cx=" 508" cy=" 189" r=" 1.5"/>
</g>
<rect x="357" y="41" width="142" height="70" fill="white"/>
<text x="360" y="58" fill="black" font-size="12" font-family="Helvetica" font-weight="bold">
EB
</text>
<text x="439" y="81" fill="black" font-size="12" font-family="Helvetica" font-weight="bold">
 ee
</text>
<text x="426" y="81" fill="black" font-size="12" font-family="Times">
&#8594;
</text>
<text x="392" y="81" fill="black" font-size="12" font-family="Helvetica" font-weight="bold">
MC Z 
</text>
<path d="M362,76h 25" fill="none" stroke="#ff0099"/>
<g stroke="#ff0099" stroke-width="1" fill="#ff0099">
<circle cx=" 375" cy=" 76" r=" 1.5"/>
</g>
<text x="438" y="102" fill="black" font-size="12" font-family="Helvetica" font-weight="bold">
 + jet
</text>
<text x="431" y="102" fill="black" font-size="12" font-family="Times">
&#0947;
</text>
<text x="392" y="102" fill="black" font-size="12" font-family="Helvetica" font-weight="bold">
signal 
</text>
<path d="M362,107h 25v -16h -25z" fill="#99ff99"/>
<path d="M362,91h 25" fill="none" stroke="#99ff99" stroke-width="2"/>
<path d="M362,107h 25" fill="none" stroke="#99ff99" stroke-width="2"/>
<path d="M387,107v -16" fill="none" stroke="#99ff99" stroke-width="2"/>
<path d="M362,107v -16" fill="none" stroke="#99ff99" stroke-width="2"/>
<text x="252" y="24" fill="black" font-size="12" font-family="Helvetica" font-weight="bold">
=8 TeV
</text>
<text x="246" y="24" fill="black" font-size="12" font-family="Helvetica" font-weight="bold">
s
</text>
<path d="M242,17l 1, 8" fill="none" stroke="black" stroke-width="2"/>
<path d="M243,25l 2, -11" fill="none" stroke="black"/>
<path d="M245,14h 7" fill="none" stroke="black"/>
<text x="142" y="24" fill="black" font-size="12" font-family="Helvetica" font-weight="bold">
CMS Preliminary 
</text>
<rect x="0" y="347" width="567" height="149" fill="white"/>
<rect x="57" y="362" width="453" height="104" fill="white"/>
<rect x="57" y="362" width="453" height="104" fill="none" stroke="black"/>
<rect x="57" y="362" width="453" height="104" fill="white"/>
<rect x="57" y="362" width="453" height="104" fill="none" stroke="black"/>
<path d="M57,466h 453" fill="none" stroke="black"/>
<path d="M57,466v -104" fill="none" stroke="black"/>
<path d="M510,455h -453" fill="none" stroke="black" stroke-dasharray=" 1, 2"/>
<path d="M510,436h -453" fill="none" stroke="black" stroke-dasharray=" 1, 2"/>
<path d="M510,418h -453" fill="none" stroke="black" stroke-dasharray=" 1, 2"/>
<path d="M510,399h -453" fill="none" stroke="black" stroke-dasharray=" 1, 2"/>
<path d="M510,381h -453" fill="none" stroke="black" stroke-dasharray=" 1, 2"/>
<path d="M510,362h -453" fill="none" stroke="black" stroke-dasharray=" 1, 2"/>
<path d="M510,455h -453" fill="none" stroke="black" stroke-dasharray=" 1, 2"/>
<path d="M435,436v -1" fill="none" stroke="#ff0099"/>
<path d="M435,433" fill="none" stroke="#ff0099"/>
<path d="M433,434h 1" fill="none" stroke="#ff0099"/>
<path d="M437,434h 1" fill="none" stroke="#ff0099"/>
<g stroke="#ff0099" stroke-width="1" fill="#ff0099">
<circle cx=" 435" cy=" 434" r=" 1.5"/>
</g>
<path d="M438,435h 1" fill="none" stroke="#ff0099"/>
<path d="M441,435h 1" fill="none" stroke="#ff0099"/>
<g stroke="#ff0099" stroke-width="1" fill="#ff0099">
<circle cx=" 440" cy=" 435" r=" 1.5"/>
</g>
<path d="M442,435h 1" fill="none" stroke="#ff0099"/>
<path d="M446,435h 1" fill="none" stroke="#ff0099"/>
<g stroke="#ff0099" stroke-width="1" fill="#ff0099">
<circle cx=" 444" cy=" 435" r=" 1.5"/>
</g>
<path d="M447,433h 1" fill="none" stroke="#ff0099"/>
<path d="M450,433h 1" fill="none" stroke="#ff0099"/>
<g stroke="#ff0099" stroke-width="1" fill="#ff0099">
<circle cx=" 449" cy=" 433" r=" 1.5"/>
</g>
<path d="M451,433h 1" fill="none" stroke="#ff0099"/>
<path d="M455,433h 1" fill="none" stroke="#ff0099"/>
<g stroke="#ff0099" stroke-width="1" fill="#ff0099">
<circle cx=" 454" cy=" 433" r=" 1.5"/>
</g>
<path d="M456,431h 1" fill="none" stroke="#ff0099"/>
<path d="M459,431h 1" fill="none" stroke="#ff0099"/>
<g stroke="#ff0099" stroke-width="1" fill="#ff0099">
<circle cx=" 458" cy=" 431" r=" 1.5"/>
</g>
<path d="M460,430h 1" fill="none" stroke="#ff0099"/>
<path d="M464,430h 1" fill="none" stroke="#ff0099"/>
<g stroke="#ff0099" stroke-width="1" fill="#ff0099">
<circle cx=" 463" cy=" 430" r=" 1.5"/>
</g>
<path d="M465,430h 1" fill="none" stroke="#ff0099"/>
<path d="M468,430h 1" fill="none" stroke="#ff0099"/>
<g stroke="#ff0099" stroke-width="1" fill="#ff0099">
<circle cx=" 467" cy=" 430" r=" 1.5"/>
</g>
<path d="M469,431h 2" fill="none" stroke="#ff0099"/>
<path d="M473,431h 1" fill="none" stroke="#ff0099"/>
<g stroke="#ff0099" stroke-width="1" fill="#ff0099">
<circle cx=" 472" cy=" 431" r=" 1.5"/>
</g>
<path d="M474,431h 1" fill="none" stroke="#ff0099"/>
<path d="M477,431h 1" fill="none" stroke="#ff0099"/>
<g stroke="#ff0099" stroke-width="1" fill="#ff0099">
<circle cx=" 476" cy=" 431" r=" 1.5"/>
</g>
<path d="M478,435h 2" fill="none" stroke="#ff0099"/>
<path d="M482,435h 1" fill="none" stroke="#ff0099"/>
<g stroke="#ff0099" stroke-width="1" fill="#ff0099">
<circle cx=" 481" cy=" 435" r=" 1.5"/>
</g>
<path d="M483,438h 1" fill="none" stroke="#ff0099"/>
<path d="M486,438h 2" fill="none" stroke="#ff0099"/>
<g stroke="#ff0099" stroke-width="1" fill="#ff0099">
<circle cx=" 485" cy=" 438" r=" 1.5"/>
</g>
<path d="M488,445h 1" fill="none" stroke="#ff0099"/>
<path d="M491,445h 1" fill="none" stroke="#ff0099"/>
<g stroke="#ff0099" stroke-width="1" fill="#ff0099">
<circle cx=" 490" cy=" 445" r=" 1.5"/>
</g>
<path d="M492,449h 1" fill="none" stroke="#ff0099"/>
<path d="M496,449h 1" fill="none" stroke="#ff0099"/>
<g stroke="#ff0099" stroke-width="1" fill="#ff0099">
<circle cx=" 494" cy=" 449" r=" 1.5"/>
</g>
<path d="M499,454" fill="none" stroke="#ff0099"/>
<path d="M499,452" fill="none" stroke="#ff0099"/>
<path d="M497,453h 1" fill="none" stroke="#ff0099"/>
<path d="M500,453h 1" fill="none" stroke="#ff0099"/>
<g stroke="#ff0099" stroke-width="1" fill="#ff0099">
<circle cx=" 499" cy=" 453" r=" 1.5"/>
</g>
<path d="M503,457v -2" fill="none" stroke="#ff0099"/>
<path d="M503,452v -2" fill="none" stroke="#ff0099"/>
<path d="M501,454h 1" fill="none" stroke="#ff0099"/>
<path d="M505,454h 1" fill="none" stroke="#ff0099"/>
<g stroke="#ff0099" stroke-width="1" fill="#ff0099">
<circle cx=" 503" cy=" 454" r=" 1.5"/>
</g>
<path d="M508,453v -4" fill="none" stroke="#ff0099"/>
<path d="M508,447v -4" fill="none" stroke="#ff0099"/>
<path d="M506,448h 1" fill="none" stroke="#ff0099"/>
<path d="M509,448h 1" fill="none" stroke="#ff0099"/>
<g stroke="#ff0099" stroke-width="1" fill="#ff0099">
<circle cx=" 508" cy=" 448" r=" 1.5"/>
</g>
<path d="M57,466h 453" fill="none" stroke="black"/>
<text x="447" y="488" fill="black" font-size="11" font-family="Helvetica" font-weight="bold">
 MVA output
</text>
<text x="442" y="488" fill="black" font-size="11" font-family="Times">
&#0947;
</text>
<path d="M57,463v 3" fill="none" stroke="black"/>
<path d="M66,464v 2" fill="none" stroke="black"/>
<path d="M75,464v 2" fill="none" stroke="black"/>
<path d="M84,464v 2" fill="none" stroke="black"/>
<path d="M93,464v 2" fill="none" stroke="black"/>
<path d="M102,463v 3" fill="none" stroke="black"/>
<path d="M111,464v 2" fill="none" stroke="black"/>
<path d="M120,464v 2" fill="none" stroke="black"/>
<path d="M129,464v 2" fill="none" stroke="black"/>
<path d="M138,464v 2" fill="none" stroke="black"/>
<path d="M147,463v 3" fill="none" stroke="black"/>
<path d="M156,464v 2" fill="none" stroke="black"/>
<path d="M166,464v 2" fill="none" stroke="black"/>
<path d="M175,464v 2" fill="none" stroke="black"/>
<path d="M184,464v 2" fill="none" stroke="black"/>
<path d="M193,463v 3" fill="none" stroke="black"/>
<path d="M202,464v 2" fill="none" stroke="black"/>
<path d="M211,464v 2" fill="none" stroke="black"/>
<path d="M220,464v 2" fill="none" stroke="black"/>
<path d="M229,464v 2" fill="none" stroke="black"/>
<path d="M238,463v 3" fill="none" stroke="black"/>
<path d="M247,464v 2" fill="none" stroke="black"/>
<path d="M256,464v 2" fill="none" stroke="black"/>
<path d="M265,464v 2" fill="none" stroke="black"/>
<path d="M274,464v 2" fill="none" stroke="black"/>
<path d="M283,463v 3" fill="none" stroke="black"/>
<path d="M293,464v 2" fill="none" stroke="black"/>
<path d="M302,464v 2" fill="none" stroke="black"/>
<path d="M311,464v 2" fill="none" stroke="black"/>
<path d="M320,464v 2" fill="none" stroke="black"/>
<path d="M329,463v 3" fill="none" stroke="black"/>
<path d="M338,464v 2" fill="none" stroke="black"/>
<path d="M347,464v 2" fill="none" stroke="black"/>
<path d="M356,464v 2" fill="none" stroke="black"/>
<path d="M365,464v 2" fill="none" stroke="black"/>
<path d="M374,463v 3" fill="none" stroke="black"/>
<path d="M383,464v 2" fill="none" stroke="black"/>
<path d="M392,464v 2" fill="none" stroke="black"/>
<path d="M401,464v 2" fill="none" stroke="black"/>
<path d="M410,464v 2" fill="none" stroke="black"/>
<path d="M420,463v 3" fill="none" stroke="black"/>
<path d="M429,464v 2" fill="none" stroke="black"/>
<path d="M438,464v 2" fill="none" stroke="black"/>
<path d="M447,464v 2" fill="none" stroke="black"/>
<path d="M456,464v 2" fill="none" stroke="black"/>
<path d="M465,463v 3" fill="none" stroke="black"/>
<path d="M474,464v 2" fill="none" stroke="black"/>
<path d="M483,464v 2" fill="none" stroke="black"/>
<path d="M492,464v 2" fill="none" stroke="black"/>
<path d="M501,464v 2" fill="none" stroke="black"/>
<path d="M510,463v 3" fill="none" stroke="black"/>
<text x="54" y="475" fill="black" font-size="10" font-family="Helvetica" font-weight="bold">
0
</text>
<text x="96" y="475" fill="black" font-size="10" font-family="Helvetica" font-weight="bold">
0.1
</text>
<text x="140" y="475" fill="black" font-size="10" font-family="Helvetica" font-weight="bold">
0.2
</text>
<text x="186" y="475" fill="black" font-size="10" font-family="Helvetica" font-weight="bold">
0.3
</text>
<text x="231" y="475" fill="black" font-size="10" font-family="Helvetica" font-weight="bold">
0.4
</text>
<text x="277" y="475" fill="black" font-size="10" font-family="Helvetica" font-weight="bold">
0.5
</text>
<text x="322" y="475" fill="black" font-size="10" font-family="Helvetica" font-weight="bold">
0.6
</text>
<text x="367" y="475" fill="black" font-size="10" font-family="Helvetica" font-weight="bold">
0.7
</text>
<text x="413" y="475" fill="black" font-size="10" font-family="Helvetica" font-weight="bold">
0.8
</text>
<text x="458" y="475" fill="black" font-size="10" font-family="Helvetica" font-weight="bold">
0.9
</text>
<text x="508" y="475" fill="black" font-size="10" font-family="Helvetica" font-weight="bold">
1
</text>
<path d="M57,466v -104" fill="none" stroke="black"/>
<g transform="rotate(-90,34,365)">
<text x="34" y="365" fill="black" font-size="11" font-family="Helvetica" font-weight="bold">
)
</text>
</g>
<g transform="rotate(-90,34,371)">
<text x="34" y="371" fill="black" font-size="11" font-family="Times">
&#0947;
</text>
</g>
<g transform="rotate(-90,34,424)">
<text x="34" y="424" fill="black" font-size="11" font-family="Helvetica" font-weight="bold">
MC(e)/MC(
</text>
</g>
<path d="M69,455h -12" fill="none" stroke="black"/>
<path d="M63,451h -6" fill="none" stroke="black"/>
<path d="M63,448h -6" fill="none" stroke="black"/>
<path d="M63,444h -6" fill="none" stroke="black"/>
<path d="M63,440h -6" fill="none" stroke="black"/>
<path d="M69,436h -12" fill="none" stroke="black"/>
<path d="M63,433h -6" fill="none" stroke="black"/>
<path d="M63,429h -6" fill="none" stroke="black"/>
<path d="M63,425h -6" fill="none" stroke="black"/>
<path d="M63,422h -6" fill="none" stroke="black"/>
<path d="M69,418h -12" fill="none" stroke="black"/>
<path d="M63,414h -6" fill="none" stroke="black"/>
<path d="M63,410h -6" fill="none" stroke="black"/>
<path d="M63,407h -6" fill="none" stroke="black"/>
<path d="M63,403h -6" fill="none" stroke="black"/>
<path d="M69,399h -12" fill="none" stroke="black"/>
<path d="M63,395h -6" fill="none" stroke="black"/>
<path d="M63,392h -6" fill="none" stroke="black"/>
<path d="M63,388h -6" fill="none" stroke="black"/>
<path d="M63,384h -6" fill="none" stroke="black"/>
<path d="M69,381h -12" fill="none" stroke="black"/>
<path d="M63,377h -6" fill="none" stroke="black"/>
<path d="M63,373h -6" fill="none" stroke="black"/>
<path d="M63,369h -6" fill="none" stroke="black"/>
<path d="M63,366h -6" fill="none" stroke="black"/>
<path d="M69,362h -12" fill="none" stroke="black"/>
<path d="M69,455h -12" fill="none" stroke="black"/>
<path d="M63,459h -6" fill="none" stroke="black"/>
<path d="M63,462h -6" fill="none" stroke="black"/>
<path d="M63,466h -6" fill="none" stroke="black"/>
<text x="40" y="459" fill="black" font-size="10" font-family="Helvetica" font-weight="bold">
0.5
</text>
<text x="50" y="440" fill="black" font-size="10" font-family="Helvetica" font-weight="bold">
1
</text>
<text x="40" y="421" fill="black" font-size="10" font-family="Helvetica" font-weight="bold">
1.5
</text>
<text x="48" y="403" fill="black" font-size="10" font-family="Helvetica" font-weight="bold">
2
</text>
<text x="40" y="384" fill="black" font-size="10" font-family="Helvetica" font-weight="bold">
2.5
</text>
<text x="48" y="366" fill="black" font-size="10" font-family="Helvetica" font-weight="bold">
3
</text>
<path d="M57,436h 453" fill="none" stroke="#0000ff" stroke-width="2"/>
<path d="M435,436v -1" fill="none" stroke="#ff0099"/>
<path d="M435,433" fill="none" stroke="#ff0099"/>
<path d="M433,434h 1" fill="none" stroke="#ff0099"/>
<path d="M437,434h 1" fill="none" stroke="#ff0099"/>
<g stroke="#ff0099" stroke-width="1" fill="#ff0099">
<circle cx=" 435" cy=" 434" r=" 1.5"/>
</g>
<path d="M438,435h 1" fill="none" stroke="#ff0099"/>
<path d="M441,435h 1" fill="none" stroke="#ff0099"/>
<g stroke="#ff0099" stroke-width="1" fill="#ff0099">
<circle cx=" 440" cy=" 435" r=" 1.5"/>
</g>
<path d="M442,435h 1" fill="none" stroke="#ff0099"/>
<path d="M446,435h 1" fill="none" stroke="#ff0099"/>
<g stroke="#ff0099" stroke-width="1" fill="#ff0099">
<circle cx=" 444" cy=" 435" r=" 1.5"/>
</g>
<path d="M447,433h 1" fill="none" stroke="#ff0099"/>
<path d="M450,433h 1" fill="none" stroke="#ff0099"/>
<g stroke="#ff0099" stroke-width="1" fill="#ff0099">
<circle cx=" 449" cy=" 433" r=" 1.5"/>
</g>
<path d="M451,433h 1" fill="none" stroke="#ff0099"/>
<path d="M455,433h 1" fill="none" stroke="#ff0099"/>
<g stroke="#ff0099" stroke-width="1" fill="#ff0099">
<circle cx=" 454" cy=" 433" r=" 1.5"/>
</g>
<path d="M456,431h 1" fill="none" stroke="#ff0099"/>
<path d="M459,431h 1" fill="none" stroke="#ff0099"/>
<g stroke="#ff0099" stroke-width="1" fill="#ff0099">
<circle cx=" 458" cy=" 431" r=" 1.5"/>
</g>
<path d="M460,430h 1" fill="none" stroke="#ff0099"/>
<path d="M464,430h 1" fill="none" stroke="#ff0099"/>
<g stroke="#ff0099" stroke-width="1" fill="#ff0099">
<circle cx=" 463" cy=" 430" r=" 1.5"/>
</g>
<path d="M465,430h 1" fill="none" stroke="#ff0099"/>
<path d="M468,430h 1" fill="none" stroke="#ff0099"/>
<g stroke="#ff0099" stroke-width="1" fill="#ff0099">
<circle cx=" 467" cy=" 430" r=" 1.5"/>
</g>
<path d="M469,431h 2" fill="none" stroke="#ff0099"/>
<path d="M473,431h 1" fill="none" stroke="#ff0099"/>
<g stroke="#ff0099" stroke-width="1" fill="#ff0099">
<circle cx=" 472" cy=" 431" r=" 1.5"/>
</g>
<path d="M474,431h 1" fill="none" stroke="#ff0099"/>
<path d="M477,431h 1" fill="none" stroke="#ff0099"/>
<g stroke="#ff0099" stroke-width="1" fill="#ff0099">
<circle cx=" 476" cy=" 431" r=" 1.5"/>
</g>
<path d="M478,435h 2" fill="none" stroke="#ff0099"/>
<path d="M482,435h 1" fill="none" stroke="#ff0099"/>
<g stroke="#ff0099" stroke-width="1" fill="#ff0099">
<circle cx=" 481" cy=" 435" r=" 1.5"/>
</g>
<path d="M483,438h 1" fill="none" stroke="#ff0099"/>
<path d="M486,438h 2" fill="none" stroke="#ff0099"/>
<g stroke="#ff0099" stroke-width="1" fill="#ff0099">
<circle cx=" 485" cy=" 438" r=" 1.5"/>
</g>
<path d="M488,445h 1" fill="none" stroke="#ff0099"/>
<path d="M491,445h 1" fill="none" stroke="#ff0099"/>
<g stroke="#ff0099" stroke-width="1" fill="#ff0099">
<circle cx=" 490" cy=" 445" r=" 1.5"/>
</g>
<path d="M492,449h 1" fill="none" stroke="#ff0099"/>
<path d="M496,449h 1" fill="none" stroke="#ff0099"/>
<g stroke="#ff0099" stroke-width="1" fill="#ff0099">
<circle cx=" 494" cy=" 449" r=" 1.5"/>
</g>
<path d="M499,454" fill="none" stroke="#ff0099"/>
<path d="M499,452" fill="none" stroke="#ff0099"/>
<path d="M497,453h 1" fill="none" stroke="#ff0099"/>
<path d="M500,453h 1" fill="none" stroke="#ff0099"/>
<g stroke="#ff0099" stroke-width="1" fill="#ff0099">
<circle cx=" 499" cy=" 453" r=" 1.5"/>
</g>
<path d="M503,457v -2" fill="none" stroke="#ff0099"/>
<path d="M503,452v -2" fill="none" stroke="#ff0099"/>
<path d="M501,454h 1" fill="none" stroke="#ff0099"/>
<path d="M505,454h 1" fill="none" stroke="#ff0099"/>
<g stroke="#ff0099" stroke-width="1" fill="#ff0099">
<circle cx=" 503" cy=" 454" r=" 1.5"/>
</g>
<path d="M508,453v -4" fill="none" stroke="#ff0099"/>
<path d="M508,447v -4" fill="none" stroke="#ff0099"/>
<path d="M506,448h 1" fill="none" stroke="#ff0099"/>
<path d="M509,448h 1" fill="none" stroke="#ff0099"/>
<g stroke="#ff0099" stroke-width="1" fill="#ff0099">
<circle cx=" 508" cy=" 448" r=" 1.5"/>
</g></svg>
