<?xml version="1.0" standalone="no"?>
<svg width="567" height="496" viewBox="0 0 567 496" xmlns="http://www.w3.org/2000/svg">
<title>
../src/TagAndProbeZ/plots_mcZee_mcGJet_withEtaR9Reweight/hlt30//mvaIdPhotEE_log.svg
</title>
<desc>
Creator: ROOT Version 5.32/00
CreationDate: Sat Sep 27 23:43:21 2014</desc>
<defs>
</defs>
<rect x="0" y="0" width="567" height="496" fill="white"/>
<rect x="0" y="0" width="567" height="347" fill="white"/>
<rect x="57" y="34" width="453" height="278" fill="white"/>
<rect x="57" y="34" width="453" height="278" fill="none" stroke="black"/>
<rect x="57" y="34" width="453" height="278" fill="white"/>
<rect x="57" y="34" width="453" height="278" fill="none" stroke="black"/>
<path d="M451,105h 1" fill="none" stroke="#ff0099"/>
<path d="M455,105h 1" fill="none" stroke="#ff0099"/>
<g stroke="#ff0099" stroke-width="1" fill="#ff0099">
<circle cx=" 454" cy=" 105" r=" 1.5"/>
</g>
<path d="M456,95h 1" fill="none" stroke="#ff0099"/>
<path d="M459,95h 1" fill="none" stroke="#ff0099"/>
<g stroke="#ff0099" stroke-width="1" fill="#ff0099">
<circle cx=" 458" cy=" 95" r=" 1.5"/>
</g>
<path d="M460,91h 1" fill="none" stroke="#ff0099"/>
<path d="M464,91h 1" fill="none" stroke="#ff0099"/>
<g stroke="#ff0099" stroke-width="1" fill="#ff0099">
<circle cx=" 463" cy=" 91" r=" 1.5"/>
</g>
<path d="M465,88h 1" fill="none" stroke="#ff0099"/>
<path d="M468,88h 1" fill="none" stroke="#ff0099"/>
<g stroke="#ff0099" stroke-width="1" fill="#ff0099">
<circle cx=" 467" cy=" 88" r=" 1.5"/>
</g>
<path d="M469,85h 2" fill="none" stroke="#ff0099"/>
<path d="M473,85h 1" fill="none" stroke="#ff0099"/>
<g stroke="#ff0099" stroke-width="1" fill="#ff0099">
<circle cx=" 472" cy=" 85" r=" 1.5"/>
</g>
<path d="M474,80h 1" fill="none" stroke="#ff0099"/>
<path d="M477,80h 1" fill="none" stroke="#ff0099"/>
<g stroke="#ff0099" stroke-width="1" fill="#ff0099">
<circle cx=" 476" cy=" 80" r=" 1.5"/>
</g>
<path d="M478,74h 2" fill="none" stroke="#ff0099"/>
<path d="M482,74h 1" fill="none" stroke="#ff0099"/>
<g stroke="#ff0099" stroke-width="1" fill="#ff0099">
<circle cx=" 481" cy=" 74" r=" 1.5"/>
</g>
<path d="M483,68h 1" fill="none" stroke="#ff0099"/>
<path d="M486,68h 2" fill="none" stroke="#ff0099"/>
<g stroke="#ff0099" stroke-width="1" fill="#ff0099">
<circle cx=" 485" cy=" 68" r=" 1.5"/>
</g>
<path d="M488,64h 1" fill="none" stroke="#ff0099"/>
<path d="M491,64h 1" fill="none" stroke="#ff0099"/>
<g stroke="#ff0099" stroke-width="1" fill="#ff0099">
<circle cx=" 490" cy=" 64" r=" 1.5"/>
</g>
<path d="M492,68h 1" fill="none" stroke="#ff0099"/>
<path d="M496,68h 1" fill="none" stroke="#ff0099"/>
<g stroke="#ff0099" stroke-width="1" fill="#ff0099">
<circle cx=" 494" cy=" 68" r=" 1.5"/>
</g>
<path d="M497,89h 1" fill="none" stroke="#ff0099"/>
<path d="M500,89h 1" fill="none" stroke="#ff0099"/>
<g stroke="#ff0099" stroke-width="1" fill="#ff0099">
<circle cx=" 499" cy=" 89" r=" 1.5"/>
</g>
<path d="M503,141" fill="none" stroke="#ff0099"/>
<path d="M503,139v -1" fill="none" stroke="#ff0099"/>
<path d="M501,140h 1" fill="none" stroke="#ff0099"/>
<path d="M505,140h 1" fill="none" stroke="#ff0099"/>
<g stroke="#ff0099" stroke-width="1" fill="#ff0099">
<circle cx=" 503" cy=" 140" r=" 1.5"/>
</g>
<path d="M508,191v -2" fill="none" stroke="#ff0099"/>
<path d="M508,187v -2" fill="none" stroke="#ff0099"/>
<path d="M506,188h 1" fill="none" stroke="#ff0099"/>
<path d="M509,188h 1" fill="none" stroke="#ff0099"/>
<g stroke="#ff0099" stroke-width="1" fill="#ff0099">
<circle cx=" 508" cy=" 188" r=" 1.5"/>
</g>
<path d="M57,312h 453" fill="none" stroke="black"/>
<text x="434" y="338" fill="black" font-size="13" font-family="Helvetica" font-weight="bold">
 MVA output
</text>
<text x="427" y="338" fill="black" font-size="13" font-family="Times">
&#0947;
</text>
<path d="M57,304v 8" fill="none" stroke="black"/>
<path d="M66,308v 4" fill="none" stroke="black"/>
<path d="M75,308v 4" fill="none" stroke="black"/>
<path d="M84,308v 4" fill="none" stroke="black"/>
<path d="M93,308v 4" fill="none" stroke="black"/>
<path d="M102,304v 8" fill="none" stroke="black"/>
<path d="M111,308v 4" fill="none" stroke="black"/>
<path d="M120,308v 4" fill="none" stroke="black"/>
<path d="M129,308v 4" fill="none" stroke="black"/>
<path d="M138,308v 4" fill="none" stroke="black"/>
<path d="M147,304v 8" fill="none" stroke="black"/>
<path d="M156,308v 4" fill="none" stroke="black"/>
<path d="M166,308v 4" fill="none" stroke="black"/>
<path d="M175,308v 4" fill="none" stroke="black"/>
<path d="M184,308v 4" fill="none" stroke="black"/>
<path d="M193,304v 8" fill="none" stroke="black"/>
<path d="M202,308v 4" fill="none" stroke="black"/>
<path d="M211,308v 4" fill="none" stroke="black"/>
<path d="M220,308v 4" fill="none" stroke="black"/>
<path d="M229,308v 4" fill="none" stroke="black"/>
<path d="M238,304v 8" fill="none" stroke="black"/>
<path d="M247,308v 4" fill="none" stroke="black"/>
<path d="M256,308v 4" fill="none" stroke="black"/>
<path d="M265,308v 4" fill="none" stroke="black"/>
<path d="M274,308v 4" fill="none" stroke="black"/>
<path d="M283,304v 8" fill="none" stroke="black"/>
<path d="M293,308v 4" fill="none" stroke="black"/>
<path d="M302,308v 4" fill="none" stroke="black"/>
<path d="M311,308v 4" fill="none" stroke="black"/>
<path d="M320,308v 4" fill="none" stroke="black"/>
<path d="M329,304v 8" fill="none" stroke="black"/>
<path d="M338,308v 4" fill="none" stroke="black"/>
<path d="M347,308v 4" fill="none" stroke="black"/>
<path d="M356,308v 4" fill="none" stroke="black"/>
<path d="M365,308v 4" fill="none" stroke="black"/>
<path d="M374,304v 8" fill="none" stroke="black"/>
<path d="M383,308v 4" fill="none" stroke="black"/>
<path d="M392,308v 4" fill="none" stroke="black"/>
<path d="M401,308v 4" fill="none" stroke="black"/>
<path d="M410,308v 4" fill="none" stroke="black"/>
<path d="M420,304v 8" fill="none" stroke="black"/>
<path d="M429,308v 4" fill="none" stroke="black"/>
<path d="M438,308v 4" fill="none" stroke="black"/>
<path d="M447,308v 4" fill="none" stroke="black"/>
<path d="M456,308v 4" fill="none" stroke="black"/>
<path d="M465,304v 8" fill="none" stroke="black"/>
<path d="M474,308v 4" fill="none" stroke="black"/>
<path d="M483,308v 4" fill="none" stroke="black"/>
<path d="M492,308v 4" fill="none" stroke="black"/>
<path d="M501,308v 4" fill="none" stroke="black"/>
<path d="M510,304v 8" fill="none" stroke="black"/>
<text x="53" y="325" fill="black" font-size="13" font-family="Helvetica" font-weight="bold">
0
</text>
<text x="93" y="325" fill="black" font-size="13" font-family="Helvetica" font-weight="bold">
0.1
</text>
<text x="138" y="325" fill="black" font-size="13" font-family="Helvetica" font-weight="bold">
0.2
</text>
<text x="183" y="325" fill="black" font-size="13" font-family="Helvetica" font-weight="bold">
0.3
</text>
<text x="229" y="325" fill="black" font-size="13" font-family="Helvetica" font-weight="bold">
0.4
</text>
<text x="274" y="325" fill="black" font-size="13" font-family="Helvetica" font-weight="bold">
0.5
</text>
<text x="319" y="325" fill="black" font-size="13" font-family="Helvetica" font-weight="bold">
0.6
</text>
<text x="365" y="325" fill="black" font-size="13" font-family="Helvetica" font-weight="bold">
0.7
</text>
<text x="410" y="325" fill="black" font-size="13" font-family="Helvetica" font-weight="bold">
0.8
</text>
<text x="455" y="325" fill="black" font-size="13" font-family="Helvetica" font-weight="bold">
0.9
</text>
<text x="507" y="325" fill="black" font-size="13" font-family="Helvetica" font-weight="bold">
1
</text>
<path d="M57,312v -278" fill="none" stroke="black"/>
<g transform="rotate(-90,28,106)">
<text x="28" y="106" fill="black" font-size="13" font-family="Helvetica" font-weight="bold">
Entries/0.01
</text>
</g>
<path d="M70,311h -13" fill="none" stroke="black"/>
<text x="44" y="311" fill="black" font-size="9" font-family="Helvetica" font-weight="bold">
-7
</text>
<text x="30" y="317" fill="black" font-size="13" font-family="Helvetica" font-weight="bold">
10
</text>
<path d="M63,299h -6" fill="none" stroke="black"/>
<path d="M63,292h -6" fill="none" stroke="black"/>
<path d="M63,288h -6" fill="none" stroke="black"/>
<path d="M63,284h -6" fill="none" stroke="black"/>
<path d="M63,281h -6" fill="none" stroke="black"/>
<path d="M63,278h -6" fill="none" stroke="black"/>
<path d="M63,276h -6" fill="none" stroke="black"/>
<path d="M63,274h -6" fill="none" stroke="black"/>
<path d="M70,272h -13" fill="none" stroke="black"/>
<text x="44" y="271" fill="black" font-size="9" font-family="Helvetica" font-weight="bold">
-6
</text>
<text x="30" y="278" fill="black" font-size="13" font-family="Helvetica" font-weight="bold">
10
</text>
<path d="M63,260h -6" fill="none" stroke="black"/>
<path d="M63,253h -6" fill="none" stroke="black"/>
<path d="M63,249h -6" fill="none" stroke="black"/>
<path d="M63,245h -6" fill="none" stroke="black"/>
<path d="M63,242h -6" fill="none" stroke="black"/>
<path d="M63,239h -6" fill="none" stroke="black"/>
<path d="M63,237h -6" fill="none" stroke="black"/>
<path d="M63,235h -6" fill="none" stroke="black"/>
<path d="M70,233h -13" fill="none" stroke="black"/>
<text x="44" y="232" fill="black" font-size="9" font-family="Helvetica" font-weight="bold">
-5
</text>
<text x="30" y="239" fill="black" font-size="13" font-family="Helvetica" font-weight="bold">
10
</text>
<path d="M63,221h -6" fill="none" stroke="black"/>
<path d="M63,214h -6" fill="none" stroke="black"/>
<path d="M63,209h -6" fill="none" stroke="black"/>
<path d="M63,206h -6" fill="none" stroke="black"/>
<path d="M63,203h -6" fill="none" stroke="black"/>
<path d="M63,200h -6" fill="none" stroke="black"/>
<path d="M63,198h -6" fill="none" stroke="black"/>
<path d="M63,196h -6" fill="none" stroke="black"/>
<path d="M70,194h -13" fill="none" stroke="black"/>
<text x="44" y="194" fill="black" font-size="9" font-family="Helvetica" font-weight="bold">
-4
</text>
<text x="30" y="200" fill="black" font-size="13" font-family="Helvetica" font-weight="bold">
10
</text>
<path d="M63,182h -6" fill="none" stroke="black"/>
<path d="M63,175h -6" fill="none" stroke="black"/>
<path d="M63,170h -6" fill="none" stroke="black"/>
<path d="M63,167h -6" fill="none" stroke="black"/>
<path d="M63,163h -6" fill="none" stroke="black"/>
<path d="M63,161h -6" fill="none" stroke="black"/>
<path d="M63,159h -6" fill="none" stroke="black"/>
<path d="M63,157h -6" fill="none" stroke="black"/>
<path d="M70,155h -13" fill="none" stroke="black"/>
<text x="44" y="154" fill="black" font-size="9" font-family="Helvetica" font-weight="bold">
-3
</text>
<text x="30" y="161" fill="black" font-size="13" font-family="Helvetica" font-weight="bold">
10
</text>
<path d="M63,143h -6" fill="none" stroke="black"/>
<path d="M63,136h -6" fill="none" stroke="black"/>
<path d="M63,131h -6" fill="none" stroke="black"/>
<path d="M63,127h -6" fill="none" stroke="black"/>
<path d="M63,124h -6" fill="none" stroke="black"/>
<path d="M63,122h -6" fill="none" stroke="black"/>
<path d="M63,120h -6" fill="none" stroke="black"/>
<path d="M63,118h -6" fill="none" stroke="black"/>
<path d="M70,116h -13" fill="none" stroke="black"/>
<text x="44" y="115" fill="black" font-size="9" font-family="Helvetica" font-weight="bold">
-2
</text>
<text x="30" y="121" fill="black" font-size="13" font-family="Helvetica" font-weight="bold">
10
</text>
<path d="M63,104h -6" fill="none" stroke="black"/>
<path d="M63,97h -6" fill="none" stroke="black"/>
<path d="M63,92h -6" fill="none" stroke="black"/>
<path d="M63,88h -6" fill="none" stroke="black"/>
<path d="M63,85h -6" fill="none" stroke="black"/>
<path d="M63,83h -6" fill="none" stroke="black"/>
<path d="M63,80h -6" fill="none" stroke="black"/>
<path d="M63,78h -6" fill="none" stroke="black"/>
<path d="M70,77h -13" fill="none" stroke="black"/>
<text x="46" y="76" fill="black" font-size="9" font-family="Helvetica" font-weight="bold">
-1
</text>
<text x="31" y="83" fill="black" font-size="13" font-family="Helvetica" font-weight="bold">
10
</text>
<path d="M63,65h -6" fill="none" stroke="black"/>
<path d="M63,58h -6" fill="none" stroke="black"/>
<path d="M63,53h -6" fill="none" stroke="black"/>
<path d="M63,49h -6" fill="none" stroke="black"/>
<path d="M63,46h -6" fill="none" stroke="black"/>
<path d="M63,44h -6" fill="none" stroke="black"/>
<path d="M63,41h -6" fill="none" stroke="black"/>
<path d="M63,39h -6" fill="none" stroke="black"/>
<path d="M70,38h -13" fill="none" stroke="black"/>
<text x="52" y="44" text-anchor="end" fill="black" font-size="13" font-family="Helvetica" font-weight="bold">
1
</text>
<path d="M454,103" fill="none" stroke="#99ff99" stroke-width="2"/>
<path d="M454,103v -1" fill="none" stroke="#99ff99" stroke-width="2"/>
<g stroke="black" stroke-width="2" fill="none">
<line x1="453" y1="103" x2="454" y2="103"/>
</g>
<path d="M458,92" fill="none" stroke="#99ff99" stroke-width="2"/>
<path d="M458,92" fill="none" stroke="#99ff99" stroke-width="2"/>
<g stroke="black" stroke-width="2" fill="none">
<line x1="457" y1="92" x2="458" y2="92"/>
</g>
<path d="M463,90v -1" fill="none" stroke="#99ff99" stroke-width="2"/>
<path d="M463,89" fill="none" stroke="#99ff99" stroke-width="2"/>
<g stroke="black" stroke-width="2" fill="none">
<line x1="462" y1="89" x2="463" y2="89"/>
</g>
<path d="M467,86" fill="none" stroke="#99ff99" stroke-width="2"/>
<path d="M467,86" fill="none" stroke="#99ff99" stroke-width="2"/>
<g stroke="black" stroke-width="2" fill="none">
<line x1="466" y1="86" x2="467" y2="86"/>
</g>
<path d="M472,84" fill="none" stroke="#99ff99" stroke-width="2"/>
<path d="M472,84" fill="none" stroke="#99ff99" stroke-width="2"/>
<g stroke="black" stroke-width="2" fill="none">
<line x1="471" y1="84" x2="472" y2="84"/>
</g>
<path d="M476,80" fill="none" stroke="#99ff99" stroke-width="2"/>
<path d="M476,80" fill="none" stroke="#99ff99" stroke-width="2"/>
<g stroke="black" stroke-width="2" fill="none">
<line x1="475" y1="80" x2="476" y2="80"/>
</g>
<path d="M481,77" fill="none" stroke="#99ff99" stroke-width="2"/>
<path d="M481,77v -1" fill="none" stroke="#99ff99" stroke-width="2"/>
<g stroke="black" stroke-width="2" fill="none">
<line x1="480" y1="77" x2="481" y2="77"/>
</g>
<path d="M485,73v -1" fill="none" stroke="#99ff99" stroke-width="2"/>
<path d="M485,72" fill="none" stroke="#99ff99" stroke-width="2"/>
<g stroke="black" stroke-width="2" fill="none">
<line x1="484" y1="72" x2="485" y2="72"/>
</g>
<path d="M490,68" fill="none" stroke="#99ff99" stroke-width="2"/>
<path d="M490,68" fill="none" stroke="#99ff99" stroke-width="2"/>
<g stroke="black" stroke-width="2" fill="none">
<line x1="489" y1="68" x2="490" y2="68"/>
</g>
<path d="M494,68" fill="none" stroke="#99ff99" stroke-width="2"/>
<path d="M494,68" fill="none" stroke="#99ff99" stroke-width="2"/>
<g stroke="black" stroke-width="2" fill="none">
<line x1="493" y1="68" x2="494" y2="68"/>
</g>
<path d="M499,76" fill="none" stroke="#99ff99" stroke-width="2"/>
<path d="M499,76" fill="none" stroke="#99ff99" stroke-width="2"/>
<g stroke="black" stroke-width="2" fill="none">
<line x1="498" y1="76" x2="499" y2="76"/>
</g>
<path d="M503,108v -1" fill="none" stroke="#99ff99" stroke-width="2"/>
<path d="M503,107" fill="none" stroke="#99ff99" stroke-width="2"/>
<g stroke="black" stroke-width="2" fill="none">
<line x1="502" y1="107" x2="503" y2="107"/>
</g>
<path d="M508,151v -2" fill="none" stroke="#99ff99" stroke-width="2"/>
<path d="M508,149v -1" fill="none" stroke="#99ff99" stroke-width="2"/>
<g stroke="black" stroke-width="2" fill="none">
<line x1="507" y1="149" x2="508" y2="149"/>
</g>
<path d="M57,312h 394v -209h 5v -11h 4v -3h 5v -3h 4v -2h 5v -4h 4v -3h 5v -5h 5v -4h 9v 8h 4v 31h 5v 42h 4v 163z" fill="#99ff99"/>
<path d="M57,312h 394v -209h 5v -11h 4v -3h 5v -3h 4v -2h 5v -4h 4v -3h 5v -5h 5v -4h 9v 8h 4v 31h 5v 42h 4" fill="none" stroke="#99ff99" stroke-width="2"/>
<path d="M451,105h 1" fill="none" stroke="#ff0099"/>
<path d="M455,105h 1" fill="none" stroke="#ff0099"/>
<g stroke="#ff0099" stroke-width="1" fill="#ff0099">
<circle cx=" 454" cy=" 105" r=" 1.5"/>
</g>
<path d="M456,95h 1" fill="none" stroke="#ff0099"/>
<path d="M459,95h 1" fill="none" stroke="#ff0099"/>
<g stroke="#ff0099" stroke-width="1" fill="#ff0099">
<circle cx=" 458" cy=" 95" r=" 1.5"/>
</g>
<path d="M460,91h 1" fill="none" stroke="#ff0099"/>
<path d="M464,91h 1" fill="none" stroke="#ff0099"/>
<g stroke="#ff0099" stroke-width="1" fill="#ff0099">
<circle cx=" 463" cy=" 91" r=" 1.5"/>
</g>
<path d="M465,88h 1" fill="none" stroke="#ff0099"/>
<path d="M468,88h 1" fill="none" stroke="#ff0099"/>
<g stroke="#ff0099" stroke-width="1" fill="#ff0099">
<circle cx=" 467" cy=" 88" r=" 1.5"/>
</g>
<path d="M469,85h 2" fill="none" stroke="#ff0099"/>
<path d="M473,85h 1" fill="none" stroke="#ff0099"/>
<g stroke="#ff0099" stroke-width="1" fill="#ff0099">
<circle cx=" 472" cy=" 85" r=" 1.5"/>
</g>
<path d="M474,80h 1" fill="none" stroke="#ff0099"/>
<path d="M477,80h 1" fill="none" stroke="#ff0099"/>
<g stroke="#ff0099" stroke-width="1" fill="#ff0099">
<circle cx=" 476" cy=" 80" r=" 1.5"/>
</g>
<path d="M478,74h 2" fill="none" stroke="#ff0099"/>
<path d="M482,74h 1" fill="none" stroke="#ff0099"/>
<g stroke="#ff0099" stroke-width="1" fill="#ff0099">
<circle cx=" 481" cy=" 74" r=" 1.5"/>
</g>
<path d="M483,68h 1" fill="none" stroke="#ff0099"/>
<path d="M486,68h 2" fill="none" stroke="#ff0099"/>
<g stroke="#ff0099" stroke-width="1" fill="#ff0099">
<circle cx=" 485" cy=" 68" r=" 1.5"/>
</g>
<path d="M488,64h 1" fill="none" stroke="#ff0099"/>
<path d="M491,64h 1" fill="none" stroke="#ff0099"/>
<g stroke="#ff0099" stroke-width="1" fill="#ff0099">
<circle cx=" 490" cy=" 64" r=" 1.5"/>
</g>
<path d="M492,68h 1" fill="none" stroke="#ff0099"/>
<path d="M496,68h 1" fill="none" stroke="#ff0099"/>
<g stroke="#ff0099" stroke-width="1" fill="#ff0099">
<circle cx=" 494" cy=" 68" r=" 1.5"/>
</g>
<path d="M497,89h 1" fill="none" stroke="#ff0099"/>
<path d="M500,89h 1" fill="none" stroke="#ff0099"/>
<g stroke="#ff0099" stroke-width="1" fill="#ff0099">
<circle cx=" 499" cy=" 89" r=" 1.5"/>
</g>
<path d="M503,141" fill="none" stroke="#ff0099"/>
<path d="M503,139v -1" fill="none" stroke="#ff0099"/>
<path d="M501,140h 1" fill="none" stroke="#ff0099"/>
<path d="M505,140h 1" fill="none" stroke="#ff0099"/>
<g stroke="#ff0099" stroke-width="1" fill="#ff0099">
<circle cx=" 503" cy=" 140" r=" 1.5"/>
</g>
<path d="M508,191v -2" fill="none" stroke="#ff0099"/>
<path d="M508,187v -2" fill="none" stroke="#ff0099"/>
<path d="M506,188h 1" fill="none" stroke="#ff0099"/>
<path d="M509,188h 1" fill="none" stroke="#ff0099"/>
<g stroke="#ff0099" stroke-width="1" fill="#ff0099">
<circle cx=" 508" cy=" 188" r=" 1.5"/>
</g>
<rect x="357" y="41" width="142" height="70" fill="white"/>
<text x="360" y="58" fill="black" font-size="12" font-family="Helvetica" font-weight="bold">
EE
</text>
<text x="439" y="81" fill="black" font-size="12" font-family="Helvetica" font-weight="bold">
 ee
</text>
<text x="426" y="81" fill="black" font-size="12" font-family="Times">
&#8594;
</text>
<text x="392" y="81" fill="black" font-size="12" font-family="Helvetica" font-weight="bold">
MC Z 
</text>
<path d="M362,76h 25" fill="none" stroke="#ff0099"/>
<g stroke="#ff0099" stroke-width="1" fill="#ff0099">
<circle cx=" 375" cy=" 76" r=" 1.5"/>
</g>
<text x="438" y="102" fill="black" font-size="12" font-family="Helvetica" font-weight="bold">
 + jet
</text>
<text x="431" y="102" fill="black" font-size="12" font-family="Times">
&#0947;
</text>
<text x="392" y="102" fill="black" font-size="12" font-family="Helvetica" font-weight="bold">
signal 
</text>
<path d="M362,107h 25v -16h -25z" fill="#99ff99"/>
<path d="M362,91h 25" fill="none" stroke="#99ff99" stroke-width="2"/>
<path d="M362,107h 25" fill="none" stroke="#99ff99" stroke-width="2"/>
<path d="M387,107v -16" fill="none" stroke="#99ff99" stroke-width="2"/>
<path d="M362,107v -16" fill="none" stroke="#99ff99" stroke-width="2"/>
<text x="252" y="24" fill="black" font-size="12" font-family="Helvetica" font-weight="bold">
=8 TeV
</text>
<text x="246" y="24" fill="black" font-size="12" font-family="Helvetica" font-weight="bold">
s
</text>
<path d="M242,17l 1, 8" fill="none" stroke="black" stroke-width="2"/>
<path d="M243,25l 2, -11" fill="none" stroke="black"/>
<path d="M245,14h 7" fill="none" stroke="black"/>
<text x="142" y="24" fill="black" font-size="12" font-family="Helvetica" font-weight="bold">
CMS Preliminary 
</text>
<rect x="0" y="347" width="567" height="149" fill="white"/>
<rect x="57" y="362" width="453" height="104" fill="white"/>
<rect x="57" y="362" width="453" height="104" fill="none" stroke="black"/>
<rect x="57" y="362" width="453" height="104" fill="white"/>
<rect x="57" y="362" width="453" height="104" fill="none" stroke="black"/>
<path d="M57,466h 453" fill="none" stroke="black"/>
<path d="M57,466v -104" fill="none" stroke="black"/>
<path d="M510,455h -453" fill="none" stroke="black" stroke-dasharray=" 1, 2"/>
<path d="M510,436h -453" fill="none" stroke="black" stroke-dasharray=" 1, 2"/>
<path d="M510,418h -453" fill="none" stroke="black" stroke-dasharray=" 1, 2"/>
<path d="M510,399h -453" fill="none" stroke="black" stroke-dasharray=" 1, 2"/>
<path d="M510,381h -453" fill="none" stroke="black" stroke-dasharray=" 1, 2"/>
<path d="M510,362h -453" fill="none" stroke="black" stroke-dasharray=" 1, 2"/>
<path d="M510,455h -453" fill="none" stroke="black" stroke-dasharray=" 1, 2"/>
<path d="M451,442h 1" fill="none" stroke="#ff0099"/>
<path d="M455,442h 1" fill="none" stroke="#ff0099"/>
<g stroke="#ff0099" stroke-width="1" fill="#ff0099">
<circle cx=" 454" cy=" 442" r=" 1.5"/>
</g>
<path d="M456,442h 1" fill="none" stroke="#ff0099"/>
<path d="M459,442h 1" fill="none" stroke="#ff0099"/>
<g stroke="#ff0099" stroke-width="1" fill="#ff0099">
<circle cx=" 458" cy=" 442" r=" 1.5"/>
</g>
<path d="M460,440h 1" fill="none" stroke="#ff0099"/>
<path d="M464,440h 1" fill="none" stroke="#ff0099"/>
<g stroke="#ff0099" stroke-width="1" fill="#ff0099">
<circle cx=" 463" cy=" 440" r=" 1.5"/>
</g>
<path d="M465,441h 1" fill="none" stroke="#ff0099"/>
<path d="M468,441h 1" fill="none" stroke="#ff0099"/>
<g stroke="#ff0099" stroke-width="1" fill="#ff0099">
<circle cx=" 467" cy=" 441" r=" 1.5"/>
</g>
<path d="M469,438h 2" fill="none" stroke="#ff0099"/>
<path d="M473,438h 1" fill="none" stroke="#ff0099"/>
<g stroke="#ff0099" stroke-width="1" fill="#ff0099">
<circle cx=" 472" cy=" 438" r=" 1.5"/>
</g>
<path d="M474,437h 1" fill="none" stroke="#ff0099"/>
<path d="M477,437h 1" fill="none" stroke="#ff0099"/>
<g stroke="#ff0099" stroke-width="1" fill="#ff0099">
<circle cx=" 476" cy=" 437" r=" 1.5"/>
</g>
<path d="M478,431h 2" fill="none" stroke="#ff0099"/>
<path d="M482,431h 1" fill="none" stroke="#ff0099"/>
<g stroke="#ff0099" stroke-width="1" fill="#ff0099">
<circle cx=" 481" cy=" 431" r=" 1.5"/>
</g>
<path d="M483,425h 1" fill="none" stroke="#ff0099"/>
<path d="M486,425h 2" fill="none" stroke="#ff0099"/>
<g stroke="#ff0099" stroke-width="1" fill="#ff0099">
<circle cx=" 485" cy=" 425" r=" 1.5"/>
</g>
<path d="M488,426h 1" fill="none" stroke="#ff0099"/>
<path d="M491,426h 1" fill="none" stroke="#ff0099"/>
<g stroke="#ff0099" stroke-width="1" fill="#ff0099">
<circle cx=" 490" cy=" 426" r=" 1.5"/>
</g>
<path d="M492,438h 1" fill="none" stroke="#ff0099"/>
<path d="M496,438h 1" fill="none" stroke="#ff0099"/>
<g stroke="#ff0099" stroke-width="1" fill="#ff0099">
<circle cx=" 494" cy=" 438" r=" 1.5"/>
</g>
<path d="M497,457h 1" fill="none" stroke="#ff0099"/>
<path d="M500,457h 1" fill="none" stroke="#ff0099"/>
<g stroke="#ff0099" stroke-width="1" fill="#ff0099">
<circle cx=" 499" cy=" 457" r=" 1.5"/>
</g>
<path d="M57,466h 453" fill="none" stroke="black"/>
<text x="447" y="488" fill="black" font-size="11" font-family="Helvetica" font-weight="bold">
 MVA output
</text>
<text x="442" y="488" fill="black" font-size="11" font-family="Times">
&#0947;
</text>
<path d="M57,463v 3" fill="none" stroke="black"/>
<path d="M66,464v 2" fill="none" stroke="black"/>
<path d="M75,464v 2" fill="none" stroke="black"/>
<path d="M84,464v 2" fill="none" stroke="black"/>
<path d="M93,464v 2" fill="none" stroke="black"/>
<path d="M102,463v 3" fill="none" stroke="black"/>
<path d="M111,464v 2" fill="none" stroke="black"/>
<path d="M120,464v 2" fill="none" stroke="black"/>
<path d="M129,464v 2" fill="none" stroke="black"/>
<path d="M138,464v 2" fill="none" stroke="black"/>
<path d="M147,463v 3" fill="none" stroke="black"/>
<path d="M156,464v 2" fill="none" stroke="black"/>
<path d="M166,464v 2" fill="none" stroke="black"/>
<path d="M175,464v 2" fill="none" stroke="black"/>
<path d="M184,464v 2" fill="none" stroke="black"/>
<path d="M193,463v 3" fill="none" stroke="black"/>
<path d="M202,464v 2" fill="none" stroke="black"/>
<path d="M211,464v 2" fill="none" stroke="black"/>
<path d="M220,464v 2" fill="none" stroke="black"/>
<path d="M229,464v 2" fill="none" stroke="black"/>
<path d="M238,463v 3" fill="none" stroke="black"/>
<path d="M247,464v 2" fill="none" stroke="black"/>
<path d="M256,464v 2" fill="none" stroke="black"/>
<path d="M265,464v 2" fill="none" stroke="black"/>
<path d="M274,464v 2" fill="none" stroke="black"/>
<path d="M283,463v 3" fill="none" stroke="black"/>
<path d="M293,464v 2" fill="none" stroke="black"/>
<path d="M302,464v 2" fill="none" stroke="black"/>
<path d="M311,464v 2" fill="none" stroke="black"/>
<path d="M320,464v 2" fill="none" stroke="black"/>
<path d="M329,463v 3" fill="none" stroke="black"/>
<path d="M338,464v 2" fill="none" stroke="black"/>
<path d="M347,464v 2" fill="none" stroke="black"/>
<path d="M356,464v 2" fill="none" stroke="black"/>
<path d="M365,464v 2" fill="none" stroke="black"/>
<path d="M374,463v 3" fill="none" stroke="black"/>
<path d="M383,464v 2" fill="none" stroke="black"/>
<path d="M392,464v 2" fill="none" stroke="black"/>
<path d="M401,464v 2" fill="none" stroke="black"/>
<path d="M410,464v 2" fill="none" stroke="black"/>
<path d="M420,463v 3" fill="none" stroke="black"/>
<path d="M429,464v 2" fill="none" stroke="black"/>
<path d="M438,464v 2" fill="none" stroke="black"/>
<path d="M447,464v 2" fill="none" stroke="black"/>
<path d="M456,464v 2" fill="none" stroke="black"/>
<path d="M465,463v 3" fill="none" stroke="black"/>
<path d="M474,464v 2" fill="none" stroke="black"/>
<path d="M483,464v 2" fill="none" stroke="black"/>
<path d="M492,464v 2" fill="none" stroke="black"/>
<path d="M501,464v 2" fill="none" stroke="black"/>
<path d="M510,463v 3" fill="none" stroke="black"/>
<text x="54" y="475" fill="black" font-size="10" font-family="Helvetica" font-weight="bold">
0
</text>
<text x="96" y="475" fill="black" font-size="10" font-family="Helvetica" font-weight="bold">
0.1
</text>
<text x="140" y="475" fill="black" font-size="10" font-family="Helvetica" font-weight="bold">
0.2
</text>
<text x="186" y="475" fill="black" font-size="10" font-family="Helvetica" font-weight="bold">
0.3
</text>
<text x="231" y="475" fill="black" font-size="10" font-family="Helvetica" font-weight="bold">
0.4
</text>
<text x="277" y="475" fill="black" font-size="10" font-family="Helvetica" font-weight="bold">
0.5
</text>
<text x="322" y="475" fill="black" font-size="10" font-family="Helvetica" font-weight="bold">
0.6
</text>
<text x="367" y="475" fill="black" font-size="10" font-family="Helvetica" font-weight="bold">
0.7
</text>
<text x="413" y="475" fill="black" font-size="10" font-family="Helvetica" font-weight="bold">
0.8
</text>
<text x="458" y="475" fill="black" font-size="10" font-family="Helvetica" font-weight="bold">
0.9
</text>
<text x="508" y="475" fill="black" font-size="10" font-family="Helvetica" font-weight="bold">
1
</text>
<path d="M57,466v -104" fill="none" stroke="black"/>
<g transform="rotate(-90,34,365)">
<text x="34" y="365" fill="black" font-size="11" font-family="Helvetica" font-weight="bold">
)
</text>
</g>
<g transform="rotate(-90,34,371)">
<text x="34" y="371" fill="black" font-size="11" font-family="Times">
&#0947;
</text>
</g>
<g transform="rotate(-90,34,424)">
<text x="34" y="424" fill="black" font-size="11" font-family="Helvetica" font-weight="bold">
MC(e)/MC(
</text>
</g>
<path d="M69,455h -12" fill="none" stroke="black"/>
<path d="M63,451h -6" fill="none" stroke="black"/>
<path d="M63,448h -6" fill="none" stroke="black"/>
<path d="M63,444h -6" fill="none" stroke="black"/>
<path d="M63,440h -6" fill="none" stroke="black"/>
<path d="M69,436h -12" fill="none" stroke="black"/>
<path d="M63,433h -6" fill="none" stroke="black"/>
<path d="M63,429h -6" fill="none" stroke="black"/>
<path d="M63,425h -6" fill="none" stroke="black"/>
<path d="M63,422h -6" fill="none" stroke="black"/>
<path d="M69,418h -12" fill="none" stroke="black"/>
<path d="M63,414h -6" fill="none" stroke="black"/>
<path d="M63,410h -6" fill="none" stroke="black"/>
<path d="M63,407h -6" fill="none" stroke="black"/>
<path d="M63,403h -6" fill="none" stroke="black"/>
<path d="M69,399h -12" fill="none" stroke="black"/>
<path d="M63,395h -6" fill="none" stroke="black"/>
<path d="M63,392h -6" fill="none" stroke="black"/>
<path d="M63,388h -6" fill="none" stroke="black"/>
<path d="M63,384h -6" fill="none" stroke="black"/>
<path d="M69,381h -12" fill="none" stroke="black"/>
<path d="M63,377h -6" fill="none" stroke="black"/>
<path d="M63,373h -6" fill="none" stroke="black"/>
<path d="M63,369h -6" fill="none" stroke="black"/>
<path d="M63,366h -6" fill="none" stroke="black"/>
<path d="M69,362h -12" fill="none" stroke="black"/>
<path d="M69,455h -12" fill="none" stroke="black"/>
<path d="M63,459h -6" fill="none" stroke="black"/>
<path d="M63,462h -6" fill="none" stroke="black"/>
<path d="M63,466h -6" fill="none" stroke="black"/>
<text x="40" y="459" fill="black" font-size="10" font-family="Helvetica" font-weight="bold">
0.5
</text>
<text x="50" y="440" fill="black" font-size="10" font-family="Helvetica" font-weight="bold">
1
</text>
<text x="40" y="421" fill="black" font-size="10" font-family="Helvetica" font-weight="bold">
1.5
</text>
<text x="48" y="403" fill="black" font-size="10" font-family="Helvetica" font-weight="bold">
2
</text>
<text x="40" y="384" fill="black" font-size="10" font-family="Helvetica" font-weight="bold">
2.5
</text>
<text x="48" y="366" fill="black" font-size="10" font-family="Helvetica" font-weight="bold">
3
</text>
<path d="M57,436h 453" fill="none" stroke="#0000ff" stroke-width="2"/>
<path d="M451,442h 1" fill="none" stroke="#ff0099"/>
<path d="M455,442h 1" fill="none" stroke="#ff0099"/>
<g stroke="#ff0099" stroke-width="1" fill="#ff0099">
<circle cx=" 454" cy=" 442" r=" 1.5"/>
</g>
<path d="M456,442h 1" fill="none" stroke="#ff0099"/>
<path d="M459,442h 1" fill="none" stroke="#ff0099"/>
<g stroke="#ff0099" stroke-width="1" fill="#ff0099">
<circle cx=" 458" cy=" 442" r=" 1.5"/>
</g>
<path d="M460,440h 1" fill="none" stroke="#ff0099"/>
<path d="M464,440h 1" fill="none" stroke="#ff0099"/>
<g stroke="#ff0099" stroke-width="1" fill="#ff0099">
<circle cx=" 463" cy=" 440" r=" 1.5"/>
</g>
<path d="M465,441h 1" fill="none" stroke="#ff0099"/>
<path d="M468,441h 1" fill="none" stroke="#ff0099"/>
<g stroke="#ff0099" stroke-width="1" fill="#ff0099">
<circle cx=" 467" cy=" 441" r=" 1.5"/>
</g>
<path d="M469,438h 2" fill="none" stroke="#ff0099"/>
<path d="M473,438h 1" fill="none" stroke="#ff0099"/>
<g stroke="#ff0099" stroke-width="1" fill="#ff0099">
<circle cx=" 472" cy=" 438" r=" 1.5"/>
</g>
<path d="M474,437h 1" fill="none" stroke="#ff0099"/>
<path d="M477,437h 1" fill="none" stroke="#ff0099"/>
<g stroke="#ff0099" stroke-width="1" fill="#ff0099">
<circle cx=" 476" cy=" 437" r=" 1.5"/>
</g>
<path d="M478,431h 2" fill="none" stroke="#ff0099"/>
<path d="M482,431h 1" fill="none" stroke="#ff0099"/>
<g stroke="#ff0099" stroke-width="1" fill="#ff0099">
<circle cx=" 481" cy=" 431" r=" 1.5"/>
</g>
<path d="M483,425h 1" fill="none" stroke="#ff0099"/>
<path d="M486,425h 2" fill="none" stroke="#ff0099"/>
<g stroke="#ff0099" stroke-width="1" fill="#ff0099">
<circle cx=" 485" cy=" 425" r=" 1.5"/>
</g>
<path d="M488,426h 1" fill="none" stroke="#ff0099"/>
<path d="M491,426h 1" fill="none" stroke="#ff0099"/>
<g stroke="#ff0099" stroke-width="1" fill="#ff0099">
<circle cx=" 490" cy=" 426" r=" 1.5"/>
</g>
<path d="M492,438h 1" fill="none" stroke="#ff0099"/>
<path d="M496,438h 1" fill="none" stroke="#ff0099"/>
<g stroke="#ff0099" stroke-width="1" fill="#ff0099">
<circle cx=" 494" cy=" 438" r=" 1.5"/>
</g>
<path d="M497,457h 1" fill="none" stroke="#ff0099"/>
<path d="M500,457h 1" fill="none" stroke="#ff0099"/>
<g stroke="#ff0099" stroke-width="1" fill="#ff0099">
<circle cx=" 499" cy=" 457" r=" 1.5"/>
</g></svg>
