<?xml version="1.0" standalone="no"?>
<svg width="567" height="496" viewBox="0 0 567 496" xmlns="http://www.w3.org/2000/svg">
<title>
../src/TagAndProbeZ/plots_mcZee_mcGJet_withEtaR9Reweight/hlt30//nvtxEE.svg
</title>
<desc>
Creator: ROOT Version 5.32/00
CreationDate: Sat Sep 27 23:43:35 2014</desc>
<defs>
</defs>
<rect x="0" y="0" width="567" height="496" fill="white"/>
<rect x="74" y="44" width="453" height="402" fill="white"/>
<rect x="74" y="44" width="453" height="402" fill="none" stroke="black"/>
<rect x="74" y="44" width="453" height="402" fill="white"/>
<rect x="74" y="44" width="453" height="402" fill="none" stroke="black"/>
<path d="M85,446h 4" fill="none" stroke="#ff0099"/>
<path d="M91,446h 5" fill="none" stroke="#ff0099"/>
<g stroke="#ff0099" stroke-width="1" fill="#ff0099">
<circle cx=" 90" cy=" 446" r=" 1.5"/>
</g>
<path d="M96,443h 4" fill="none" stroke="#ff0099"/>
<path d="M102,443h 5" fill="none" stroke="#ff0099"/>
<g stroke="#ff0099" stroke-width="1" fill="#ff0099">
<circle cx=" 101" cy=" 443" r=" 1.5"/>
</g>
<path d="M107,435h 4" fill="none" stroke="#ff0099"/>
<path d="M114,435h 4" fill="none" stroke="#ff0099"/>
<g stroke="#ff0099" stroke-width="1" fill="#ff0099">
<circle cx=" 112" cy=" 435" r=" 1.5"/>
</g>
<path d="M123,415" fill="none" stroke="#ff0099"/>
<path d="M123,413" fill="none" stroke="#ff0099"/>
<path d="M118,414h 4" fill="none" stroke="#ff0099"/>
<path d="M125,414h 4" fill="none" stroke="#ff0099"/>
<g stroke="#ff0099" stroke-width="1" fill="#ff0099">
<circle cx=" 123" cy=" 414" r=" 1.5"/>
</g>
<path d="M135,383v -1" fill="none" stroke="#ff0099"/>
<path d="M135,380v -1" fill="none" stroke="#ff0099"/>
<path d="M129,381h 4" fill="none" stroke="#ff0099"/>
<path d="M136,381h 4" fill="none" stroke="#ff0099"/>
<g stroke="#ff0099" stroke-width="1" fill="#ff0099">
<circle cx=" 135" cy=" 381" r=" 1.5"/>
</g>
<path d="M146,337v -2" fill="none" stroke="#ff0099"/>
<path d="M146,333v -1" fill="none" stroke="#ff0099"/>
<path d="M140,334h 4" fill="none" stroke="#ff0099"/>
<path d="M147,334h 4" fill="none" stroke="#ff0099"/>
<g stroke="#ff0099" stroke-width="1" fill="#ff0099">
<circle cx=" 146" cy=" 334" r=" 1.5"/>
</g>
<path d="M157,277v -2" fill="none" stroke="#ff0099"/>
<path d="M157,273v -2" fill="none" stroke="#ff0099"/>
<path d="M151,274h 5" fill="none" stroke="#ff0099"/>
<path d="M158,274h 4" fill="none" stroke="#ff0099"/>
<g stroke="#ff0099" stroke-width="1" fill="#ff0099">
<circle cx=" 157" cy=" 274" r=" 1.5"/>
</g>
<path d="M168,220v -3" fill="none" stroke="#ff0099"/>
<path d="M168,215v -3" fill="none" stroke="#ff0099"/>
<path d="M162,216h 5" fill="none" stroke="#ff0099"/>
<path d="M169,216h 4" fill="none" stroke="#ff0099"/>
<g stroke="#ff0099" stroke-width="1" fill="#ff0099">
<circle cx=" 168" cy=" 216" r=" 1.5"/>
</g>
<path d="M179,154v -3" fill="none" stroke="#ff0099"/>
<path d="M179,148v -3" fill="none" stroke="#ff0099"/>
<path d="M173,149h 5" fill="none" stroke="#ff0099"/>
<path d="M180,149h 4" fill="none" stroke="#ff0099"/>
<g stroke="#ff0099" stroke-width="1" fill="#ff0099">
<circle cx=" 179" cy=" 149" r=" 1.5"/>
</g>
<path d="M190,123v -3" fill="none" stroke="#ff0099"/>
<path d="M190,118v -3" fill="none" stroke="#ff0099"/>
<path d="M184,119h 5" fill="none" stroke="#ff0099"/>
<path d="M191,119h 4" fill="none" stroke="#ff0099"/>
<g stroke="#ff0099" stroke-width="1" fill="#ff0099">
<circle cx=" 190" cy=" 119" r=" 1.5"/>
</g>
<path d="M201,95v -3" fill="none" stroke="#ff0099"/>
<path d="M201,89v -3" fill="none" stroke="#ff0099"/>
<path d="M195,91h 5" fill="none" stroke="#ff0099"/>
<path d="M202,91h 4" fill="none" stroke="#ff0099"/>
<g stroke="#ff0099" stroke-width="1" fill="#ff0099">
<circle cx=" 201" cy=" 91" r=" 1.5"/>
</g>
<path d="M212,73v -4" fill="none" stroke="#ff0099"/>
<path d="M212,67v -4" fill="none" stroke="#ff0099"/>
<path d="M206,68h 5" fill="none" stroke="#ff0099"/>
<path d="M213,68h 5" fill="none" stroke="#ff0099"/>
<g stroke="#ff0099" stroke-width="1" fill="#ff0099">
<circle cx=" 212" cy=" 68" r=" 1.5"/>
</g>
<path d="M223,75v -3" fill="none" stroke="#ff0099"/>
<path d="M223,69v -3" fill="none" stroke="#ff0099"/>
<path d="M218,71h 4" fill="none" stroke="#ff0099"/>
<path d="M224,71h 5" fill="none" stroke="#ff0099"/>
<g stroke="#ff0099" stroke-width="1" fill="#ff0099">
<circle cx=" 223" cy=" 71" r=" 1.5"/>
</g>
<path d="M234,91v -3" fill="none" stroke="#ff0099"/>
<path d="M234,85v -3" fill="none" stroke="#ff0099"/>
<path d="M229,86h 4" fill="none" stroke="#ff0099"/>
<path d="M235,86h 5" fill="none" stroke="#ff0099"/>
<g stroke="#ff0099" stroke-width="1" fill="#ff0099">
<circle cx=" 234" cy=" 86" r=" 1.5"/>
</g>
<path d="M245,107v -3" fill="none" stroke="#ff0099"/>
<path d="M245,102v -3" fill="none" stroke="#ff0099"/>
<path d="M240,103h 4" fill="none" stroke="#ff0099"/>
<path d="M246,103h 5" fill="none" stroke="#ff0099"/>
<g stroke="#ff0099" stroke-width="1" fill="#ff0099">
<circle cx=" 245" cy=" 103" r=" 1.5"/>
</g>
<path d="M256,144v -2" fill="none" stroke="#ff0099"/>
<path d="M256,139v -2" fill="none" stroke="#ff0099"/>
<path d="M251,141h 4" fill="none" stroke="#ff0099"/>
<path d="M257,141h 5" fill="none" stroke="#ff0099"/>
<g stroke="#ff0099" stroke-width="1" fill="#ff0099">
<circle cx=" 256" cy=" 141" r=" 1.5"/>
</g>
<path d="M267,177v -3" fill="none" stroke="#ff0099"/>
<path d="M267,172v -2" fill="none" stroke="#ff0099"/>
<path d="M262,173h 4" fill="none" stroke="#ff0099"/>
<path d="M268,173h 5" fill="none" stroke="#ff0099"/>
<g stroke="#ff0099" stroke-width="1" fill="#ff0099">
<circle cx=" 267" cy=" 173" r=" 1.5"/>
</g>
<path d="M278,207v -2" fill="none" stroke="#ff0099"/>
<path d="M278,203v -2" fill="none" stroke="#ff0099"/>
<path d="M273,204h 4" fill="none" stroke="#ff0099"/>
<path d="M279,204h 5" fill="none" stroke="#ff0099"/>
<g stroke="#ff0099" stroke-width="1" fill="#ff0099">
<circle cx=" 278" cy=" 204" r=" 1.5"/>
</g>
<path d="M289,248v -2" fill="none" stroke="#ff0099"/>
<path d="M289,244v -2" fill="none" stroke="#ff0099"/>
<path d="M284,245h 4" fill="none" stroke="#ff0099"/>
<path d="M291,245h 4" fill="none" stroke="#ff0099"/>
<g stroke="#ff0099" stroke-width="1" fill="#ff0099">
<circle cx=" 289" cy=" 245" r=" 1.5"/>
</g>
<path d="M300,280v -2" fill="none" stroke="#ff0099"/>
<path d="M300,276v -1" fill="none" stroke="#ff0099"/>
<path d="M295,277h 4" fill="none" stroke="#ff0099"/>
<path d="M302,277h 4" fill="none" stroke="#ff0099"/>
<g stroke="#ff0099" stroke-width="1" fill="#ff0099">
<circle cx=" 300" cy=" 277" r=" 1.5"/>
</g>
<path d="M312,315v -2" fill="none" stroke="#ff0099"/>
<path d="M312,311v -1" fill="none" stroke="#ff0099"/>
<path d="M306,312h 4" fill="none" stroke="#ff0099"/>
<path d="M313,312h 4" fill="none" stroke="#ff0099"/>
<g stroke="#ff0099" stroke-width="1" fill="#ff0099">
<circle cx=" 312" cy=" 312" r=" 1.5"/>
</g>
<path d="M323,345v -1" fill="none" stroke="#ff0099"/>
<path d="M323,342v -1" fill="none" stroke="#ff0099"/>
<path d="M317,343h 4" fill="none" stroke="#ff0099"/>
<path d="M324,343h 4" fill="none" stroke="#ff0099"/>
<g stroke="#ff0099" stroke-width="1" fill="#ff0099">
<circle cx=" 323" cy=" 343" r=" 1.5"/>
</g>
<path d="M334,366" fill="none" stroke="#ff0099"/>
<path d="M334,364v -1" fill="none" stroke="#ff0099"/>
<path d="M328,365h 5" fill="none" stroke="#ff0099"/>
<path d="M335,365h 4" fill="none" stroke="#ff0099"/>
<g stroke="#ff0099" stroke-width="1" fill="#ff0099">
<circle cx=" 334" cy=" 365" r=" 1.5"/>
</g>
<path d="M345,388" fill="none" stroke="#ff0099"/>
<path d="M345,385" fill="none" stroke="#ff0099"/>
<path d="M339,386h 5" fill="none" stroke="#ff0099"/>
<path d="M346,386h 4" fill="none" stroke="#ff0099"/>
<g stroke="#ff0099" stroke-width="1" fill="#ff0099">
<circle cx=" 345" cy=" 386" r=" 1.5"/>
</g>
<path d="M350,406h 5" fill="none" stroke="#ff0099"/>
<path d="M357,406h 4" fill="none" stroke="#ff0099"/>
<g stroke="#ff0099" stroke-width="1" fill="#ff0099">
<circle cx=" 356" cy=" 406" r=" 1.5"/>
</g>
<path d="M361,417h 5" fill="none" stroke="#ff0099"/>
<path d="M368,417h 4" fill="none" stroke="#ff0099"/>
<g stroke="#ff0099" stroke-width="1" fill="#ff0099">
<circle cx=" 367" cy=" 417" r=" 1.5"/>
</g>
<path d="M372,426h 5" fill="none" stroke="#ff0099"/>
<path d="M379,426h 4" fill="none" stroke="#ff0099"/>
<g stroke="#ff0099" stroke-width="1" fill="#ff0099">
<circle cx=" 378" cy=" 426" r=" 1.5"/>
</g>
<path d="M383,433h 5" fill="none" stroke="#ff0099"/>
<path d="M390,433h 4" fill="none" stroke="#ff0099"/>
<g stroke="#ff0099" stroke-width="1" fill="#ff0099">
<circle cx=" 389" cy=" 433" r=" 1.5"/>
</g>
<path d="M394,437h 5" fill="none" stroke="#ff0099"/>
<path d="M401,437h 5" fill="none" stroke="#ff0099"/>
<g stroke="#ff0099" stroke-width="1" fill="#ff0099">
<circle cx=" 400" cy=" 437" r=" 1.5"/>
</g>
<path d="M406,441h 4" fill="none" stroke="#ff0099"/>
<path d="M412,441h 5" fill="none" stroke="#ff0099"/>
<g stroke="#ff0099" stroke-width="1" fill="#ff0099">
<circle cx=" 411" cy=" 441" r=" 1.5"/>
</g>
<path d="M417,443h 4" fill="none" stroke="#ff0099"/>
<path d="M423,443h 5" fill="none" stroke="#ff0099"/>
<g stroke="#ff0099" stroke-width="1" fill="#ff0099">
<circle cx=" 422" cy=" 443" r=" 1.5"/>
</g>
<path d="M428,444h 4" fill="none" stroke="#ff0099"/>
<path d="M434,444h 5" fill="none" stroke="#ff0099"/>
<g stroke="#ff0099" stroke-width="1" fill="#ff0099">
<circle cx=" 433" cy=" 444" r=" 1.5"/>
</g>
<path d="M439,445h 4" fill="none" stroke="#ff0099"/>
<path d="M445,445h 5" fill="none" stroke="#ff0099"/>
<g stroke="#ff0099" stroke-width="1" fill="#ff0099">
<circle cx=" 444" cy=" 445" r=" 1.5"/>
</g>
<path d="M450,445h 4" fill="none" stroke="#ff0099"/>
<path d="M456,445h 5" fill="none" stroke="#ff0099"/>
<g stroke="#ff0099" stroke-width="1" fill="#ff0099">
<circle cx=" 455" cy=" 445" r=" 1.5"/>
</g>
<path d="M461,446h 4" fill="none" stroke="#ff0099"/>
<path d="M468,446h 4" fill="none" stroke="#ff0099"/>
<g stroke="#ff0099" stroke-width="1" fill="#ff0099">
<circle cx=" 466" cy=" 446" r=" 1.5"/>
</g>
<path d="M472,446h 4" fill="none" stroke="#ff0099"/>
<path d="M479,446h 4" fill="none" stroke="#ff0099"/>
<g stroke="#ff0099" stroke-width="1" fill="#ff0099">
<circle cx=" 477" cy=" 446" r=" 1.5"/>
</g>
<path d="M483,446h 4" fill="none" stroke="#ff0099"/>
<path d="M490,446h 4" fill="none" stroke="#ff0099"/>
<g stroke="#ff0099" stroke-width="1" fill="#ff0099">
<circle cx=" 489" cy=" 446" r=" 1.5"/>
</g>
<path d="M494,446h 4" fill="none" stroke="#ff0099"/>
<path d="M501,446h 4" fill="none" stroke="#ff0099"/>
<g stroke="#ff0099" stroke-width="1" fill="#ff0099">
<circle cx=" 500" cy=" 446" r=" 1.5"/>
</g>
<path d="M505,446h 5" fill="none" stroke="#ff0099"/>
<path d="M512,446h 4" fill="none" stroke="#ff0099"/>
<g stroke="#ff0099" stroke-width="1" fill="#ff0099">
<circle cx=" 511" cy=" 446" r=" 1.5"/>
</g>
<path d="M516,446h 5" fill="none" stroke="#ff0099"/>
<path d="M523,446h 4" fill="none" stroke="#ff0099"/>
<g stroke="#ff0099" stroke-width="1" fill="#ff0099">
<circle cx=" 522" cy=" 446" r=" 1.5"/>
</g>
<path d="M74,446h 453" fill="none" stroke="black"/>
<path d="M79,434v 12" fill="none" stroke="black"/>
<path d="M90,440v 6" fill="none" stroke="black"/>
<path d="M101,440v 6" fill="none" stroke="black"/>
<path d="M112,440v 6" fill="none" stroke="black"/>
<path d="M123,440v 6" fill="none" stroke="black"/>
<path d="M135,434v 12" fill="none" stroke="black"/>
<path d="M146,440v 6" fill="none" stroke="black"/>
<path d="M157,440v 6" fill="none" stroke="black"/>
<path d="M168,440v 6" fill="none" stroke="black"/>
<path d="M179,440v 6" fill="none" stroke="black"/>
<path d="M190,434v 12" fill="none" stroke="black"/>
<path d="M201,440v 6" fill="none" stroke="black"/>
<path d="M212,440v 6" fill="none" stroke="black"/>
<path d="M223,440v 6" fill="none" stroke="black"/>
<path d="M234,440v 6" fill="none" stroke="black"/>
<path d="M245,434v 12" fill="none" stroke="black"/>
<path d="M256,440v 6" fill="none" stroke="black"/>
<path d="M267,440v 6" fill="none" stroke="black"/>
<path d="M278,440v 6" fill="none" stroke="black"/>
<path d="M289,440v 6" fill="none" stroke="black"/>
<path d="M300,434v 12" fill="none" stroke="black"/>
<path d="M312,440v 6" fill="none" stroke="black"/>
<path d="M323,440v 6" fill="none" stroke="black"/>
<path d="M334,440v 6" fill="none" stroke="black"/>
<path d="M345,440v 6" fill="none" stroke="black"/>
<path d="M356,434v 12" fill="none" stroke="black"/>
<path d="M367,440v 6" fill="none" stroke="black"/>
<path d="M378,440v 6" fill="none" stroke="black"/>
<path d="M389,440v 6" fill="none" stroke="black"/>
<path d="M400,440v 6" fill="none" stroke="black"/>
<path d="M411,434v 12" fill="none" stroke="black"/>
<path d="M422,440v 6" fill="none" stroke="black"/>
<path d="M433,440v 6" fill="none" stroke="black"/>
<path d="M444,440v 6" fill="none" stroke="black"/>
<path d="M455,440v 6" fill="none" stroke="black"/>
<path d="M466,434v 12" fill="none" stroke="black"/>
<path d="M477,440v 6" fill="none" stroke="black"/>
<path d="M489,440v 6" fill="none" stroke="black"/>
<path d="M500,440v 6" fill="none" stroke="black"/>
<path d="M511,440v 6" fill="none" stroke="black"/>
<path d="M522,434v 12" fill="none" stroke="black"/>
<path d="M79,434v 12" fill="none" stroke="black"/>
<path d="M522,434v 12" fill="none" stroke="black"/>
<text x="74" y="465" fill="black" font-size="18" font-family="Helvetica" font-weight="bold">
0
</text>
<text x="129" y="465" fill="black" font-size="18" font-family="Helvetica" font-weight="bold">
5
</text>
<text x="179" y="465" fill="black" font-size="18" font-family="Helvetica" font-weight="bold">
10
</text>
<text x="235" y="465" fill="black" font-size="18" font-family="Helvetica" font-weight="bold">
15
</text>
<text x="290" y="465" fill="black" font-size="18" font-family="Helvetica" font-weight="bold">
20
</text>
<text x="346" y="465" fill="black" font-size="18" font-family="Helvetica" font-weight="bold">
25
</text>
<text x="401" y="465" fill="black" font-size="18" font-family="Helvetica" font-weight="bold">
30
</text>
<text x="456" y="465" fill="black" font-size="18" font-family="Helvetica" font-weight="bold">
35
</text>
<text x="511" y="465" fill="black" font-size="18" font-family="Helvetica" font-weight="bold">
40
</text>
<path d="M74,44h 453" fill="none" stroke="black"/>
<path d="M79,56v -12" fill="none" stroke="black"/>
<path d="M90,50v -6" fill="none" stroke="black"/>
<path d="M101,50v -6" fill="none" stroke="black"/>
<path d="M112,50v -6" fill="none" stroke="black"/>
<path d="M123,50v -6" fill="none" stroke="black"/>
<path d="M135,56v -12" fill="none" stroke="black"/>
<path d="M146,50v -6" fill="none" stroke="black"/>
<path d="M157,50v -6" fill="none" stroke="black"/>
<path d="M168,50v -6" fill="none" stroke="black"/>
<path d="M179,50v -6" fill="none" stroke="black"/>
<path d="M190,56v -12" fill="none" stroke="black"/>
<path d="M201,50v -6" fill="none" stroke="black"/>
<path d="M212,50v -6" fill="none" stroke="black"/>
<path d="M223,50v -6" fill="none" stroke="black"/>
<path d="M234,50v -6" fill="none" stroke="black"/>
<path d="M245,56v -12" fill="none" stroke="black"/>
<path d="M256,50v -6" fill="none" stroke="black"/>
<path d="M267,50v -6" fill="none" stroke="black"/>
<path d="M278,50v -6" fill="none" stroke="black"/>
<path d="M289,50v -6" fill="none" stroke="black"/>
<path d="M300,56v -12" fill="none" stroke="black"/>
<path d="M312,50v -6" fill="none" stroke="black"/>
<path d="M323,50v -6" fill="none" stroke="black"/>
<path d="M334,50v -6" fill="none" stroke="black"/>
<path d="M345,50v -6" fill="none" stroke="black"/>
<path d="M356,56v -12" fill="none" stroke="black"/>
<path d="M367,50v -6" fill="none" stroke="black"/>
<path d="M378,50v -6" fill="none" stroke="black"/>
<path d="M389,50v -6" fill="none" stroke="black"/>
<path d="M400,50v -6" fill="none" stroke="black"/>
<path d="M411,56v -12" fill="none" stroke="black"/>
<path d="M422,50v -6" fill="none" stroke="black"/>
<path d="M433,50v -6" fill="none" stroke="black"/>
<path d="M444,50v -6" fill="none" stroke="black"/>
<path d="M455,50v -6" fill="none" stroke="black"/>
<path d="M466,56v -12" fill="none" stroke="black"/>
<path d="M477,50v -6" fill="none" stroke="black"/>
<path d="M489,50v -6" fill="none" stroke="black"/>
<path d="M500,50v -6" fill="none" stroke="black"/>
<path d="M511,50v -6" fill="none" stroke="black"/>
<path d="M522,56v -12" fill="none" stroke="black"/>
<path d="M79,56v -12" fill="none" stroke="black"/>
<path d="M522,56v -12" fill="none" stroke="black"/>
<path d="M74,446v -402" fill="none" stroke="black"/>
<path d="M87,446h -13" fill="none" stroke="black"/>
<path d="M81,437h -7" fill="none" stroke="black"/>
<path d="M81,427h -7" fill="none" stroke="black"/>
<path d="M81,418h -7" fill="none" stroke="black"/>
<path d="M81,408h -7" fill="none" stroke="black"/>
<path d="M87,399h -13" fill="none" stroke="black"/>
<path d="M81,389h -7" fill="none" stroke="black"/>
<path d="M81,380h -7" fill="none" stroke="black"/>
<path d="M81,370h -7" fill="none" stroke="black"/>
<path d="M81,361h -7" fill="none" stroke="black"/>
<path d="M87,351h -13" fill="none" stroke="black"/>
<path d="M81,342h -7" fill="none" stroke="black"/>
<path d="M81,332h -7" fill="none" stroke="black"/>
<path d="M81,322h -7" fill="none" stroke="black"/>
<path d="M81,313h -7" fill="none" stroke="black"/>
<path d="M87,303h -13" fill="none" stroke="black"/>
<path d="M81,294h -7" fill="none" stroke="black"/>
<path d="M81,284h -7" fill="none" stroke="black"/>
<path d="M81,275h -7" fill="none" stroke="black"/>
<path d="M81,265h -7" fill="none" stroke="black"/>
<path d="M87,256h -13" fill="none" stroke="black"/>
<path d="M81,246h -7" fill="none" stroke="black"/>
<path d="M81,237h -7" fill="none" stroke="black"/>
<path d="M81,227h -7" fill="none" stroke="black"/>
<path d="M81,218h -7" fill="none" stroke="black"/>
<path d="M87,208h -13" fill="none" stroke="black"/>
<path d="M81,199h -7" fill="none" stroke="black"/>
<path d="M81,189h -7" fill="none" stroke="black"/>
<path d="M81,179h -7" fill="none" stroke="black"/>
<path d="M81,170h -7" fill="none" stroke="black"/>
<path d="M87,160h -13" fill="none" stroke="black"/>
<path d="M81,151h -7" fill="none" stroke="black"/>
<path d="M81,141h -7" fill="none" stroke="black"/>
<path d="M81,132h -7" fill="none" stroke="black"/>
<path d="M81,122h -7" fill="none" stroke="black"/>
<path d="M87,113h -13" fill="none" stroke="black"/>
<path d="M81,103h -7" fill="none" stroke="black"/>
<path d="M81,94h -7" fill="none" stroke="black"/>
<path d="M81,84h -7" fill="none" stroke="black"/>
<path d="M81,75h -7" fill="none" stroke="black"/>
<path d="M87,65h -13" fill="none" stroke="black"/>
<path d="M87,65h -13" fill="none" stroke="black"/>
<path d="M81,56h -7" fill="none" stroke="black"/>
<path d="M81,46h -7" fill="none" stroke="black"/>
<text x="61" y="453" fill="black" font-size="18" font-family="Helvetica" font-weight="bold">
0
</text>
<text x="37" y="405" fill="black" font-size="18" font-family="Helvetica" font-weight="bold">
0.01
</text>
<text x="35" y="358" fill="black" font-size="18" font-family="Helvetica" font-weight="bold">
0.02
</text>
<text x="35" y="310" fill="black" font-size="18" font-family="Helvetica" font-weight="bold">
0.03
</text>
<text x="34" y="262" fill="black" font-size="18" font-family="Helvetica" font-weight="bold">
0.04
</text>
<text x="34" y="215" fill="black" font-size="18" font-family="Helvetica" font-weight="bold">
0.05
</text>
<text x="34" y="167" fill="black" font-size="18" font-family="Helvetica" font-weight="bold">
0.06
</text>
<text x="35" y="119" fill="black" font-size="18" font-family="Helvetica" font-weight="bold">
0.07
</text>
<text x="35" y="71" fill="black" font-size="18" font-family="Helvetica" font-weight="bold">
0.08
</text>
<path d="M90,446" fill="none" stroke="#99ff99" stroke-width="2"/>
<path d="M90,446" fill="none" stroke="#99ff99" stroke-width="2"/>
<g stroke="black" stroke-width="2" fill="none">
<line x1="89" y1="446" x2="90" y2="446"/>
</g>
<path d="M101,445" fill="none" stroke="#99ff99" stroke-width="2"/>
<path d="M101,445" fill="none" stroke="#99ff99" stroke-width="2"/>
<g stroke="black" stroke-width="2" fill="none">
<line x1="100" y1="445" x2="101" y2="445"/>
</g>
<path d="M112,440" fill="none" stroke="#99ff99" stroke-width="2"/>
<path d="M112,440v -1" fill="none" stroke="#99ff99" stroke-width="2"/>
<g stroke="black" stroke-width="2" fill="none">
<line x1="111" y1="440" x2="112" y2="440"/>
</g>
<path d="M123,430v -1" fill="none" stroke="#99ff99" stroke-width="2"/>
<path d="M123,429v -1" fill="none" stroke="#99ff99" stroke-width="2"/>
<g stroke="black" stroke-width="2" fill="none">
<line x1="122" y1="429" x2="123" y2="429"/>
</g>
<path d="M135,409v -1" fill="none" stroke="#99ff99" stroke-width="2"/>
<path d="M135,408v -2" fill="none" stroke="#99ff99" stroke-width="2"/>
<g stroke="black" stroke-width="2" fill="none">
<line x1="134" y1="408" x2="135" y2="408"/>
</g>
<path d="M146,377v -3" fill="none" stroke="#99ff99" stroke-width="2"/>
<path d="M146,374v -2" fill="none" stroke="#99ff99" stroke-width="2"/>
<g stroke="black" stroke-width="2" fill="none">
<line x1="145" y1="374" x2="146" y2="374"/>
</g>
<path d="M157,343v -4" fill="none" stroke="#99ff99" stroke-width="2"/>
<path d="M157,339v -3" fill="none" stroke="#99ff99" stroke-width="2"/>
<g stroke="black" stroke-width="2" fill="none">
<line x1="156" y1="339" x2="157" y2="339"/>
</g>
<path d="M168,289v -5" fill="none" stroke="#99ff99" stroke-width="2"/>
<path d="M168,284v -4" fill="none" stroke="#99ff99" stroke-width="2"/>
<g stroke="black" stroke-width="2" fill="none">
<line x1="167" y1="284" x2="168" y2="284"/>
</g>
<path d="M179,240v -5" fill="none" stroke="#99ff99" stroke-width="2"/>
<path d="M179,235v -5" fill="none" stroke="#99ff99" stroke-width="2"/>
<g stroke="black" stroke-width="2" fill="none">
<line x1="178" y1="235" x2="179" y2="235"/>
</g>
<path d="M190,201v -5" fill="none" stroke="#99ff99" stroke-width="2"/>
<path d="M190,196v -5" fill="none" stroke="#99ff99" stroke-width="2"/>
<g stroke="black" stroke-width="2" fill="none">
<line x1="189" y1="196" x2="190" y2="196"/>
</g>
<path d="M201,167v -6" fill="none" stroke="#99ff99" stroke-width="2"/>
<path d="M201,161v -6" fill="none" stroke="#99ff99" stroke-width="2"/>
<g stroke="black" stroke-width="2" fill="none">
<line x1="200" y1="161" x2="201" y2="161"/>
</g>
<path d="M212,148v -6" fill="none" stroke="#99ff99" stroke-width="2"/>
<path d="M212,142v -5" fill="none" stroke="#99ff99" stroke-width="2"/>
<g stroke="black" stroke-width="2" fill="none">
<line x1="211" y1="142" x2="212" y2="142"/>
</g>
<path d="M223,123v -6" fill="none" stroke="#99ff99" stroke-width="2"/>
<path d="M223,117v -6" fill="none" stroke="#99ff99" stroke-width="2"/>
<g stroke="black" stroke-width="2" fill="none">
<line x1="222" y1="117" x2="223" y2="117"/>
</g>
<path d="M234,110v -6" fill="none" stroke="#99ff99" stroke-width="2"/>
<path d="M234,104v -6" fill="none" stroke="#99ff99" stroke-width="2"/>
<g stroke="black" stroke-width="2" fill="none">
<line x1="233" y1="104" x2="234" y2="104"/>
</g>
<path d="M245,112v -6" fill="none" stroke="#99ff99" stroke-width="2"/>
<path d="M245,106v -6" fill="none" stroke="#99ff99" stroke-width="2"/>
<g stroke="black" stroke-width="2" fill="none">
<line x1="244" y1="106" x2="245" y2="106"/>
</g>
<path d="M256,133v -6" fill="none" stroke="#99ff99" stroke-width="2"/>
<path d="M256,127v -5" fill="none" stroke="#99ff99" stroke-width="2"/>
<g stroke="black" stroke-width="2" fill="none">
<line x1="255" y1="127" x2="256" y2="127"/>
</g>
<path d="M267,141v -6" fill="none" stroke="#99ff99" stroke-width="2"/>
<path d="M267,135v -5" fill="none" stroke="#99ff99" stroke-width="2"/>
<g stroke="black" stroke-width="2" fill="none">
<line x1="266" y1="135" x2="267" y2="135"/>
</g>
<path d="M278,170v -5" fill="none" stroke="#99ff99" stroke-width="2"/>
<path d="M278,165v -5" fill="none" stroke="#99ff99" stroke-width="2"/>
<g stroke="black" stroke-width="2" fill="none">
<line x1="277" y1="165" x2="278" y2="165"/>
</g>
<path d="M289,195v -4" fill="none" stroke="#99ff99" stroke-width="2"/>
<path d="M289,191v -5" fill="none" stroke="#99ff99" stroke-width="2"/>
<g stroke="black" stroke-width="2" fill="none">
<line x1="288" y1="191" x2="289" y2="191"/>
</g>
<path d="M300,222v -5" fill="none" stroke="#99ff99" stroke-width="2"/>
<path d="M300,217v -4" fill="none" stroke="#99ff99" stroke-width="2"/>
<g stroke="black" stroke-width="2" fill="none">
<line x1="299" y1="217" x2="300" y2="217"/>
</g>
<path d="M312,252v -4" fill="none" stroke="#99ff99" stroke-width="2"/>
<path d="M312,248v -5" fill="none" stroke="#99ff99" stroke-width="2"/>
<g stroke="black" stroke-width="2" fill="none">
<line x1="311" y1="248" x2="312" y2="248"/>
</g>
<path d="M323,288v -4" fill="none" stroke="#99ff99" stroke-width="2"/>
<path d="M323,284v -3" fill="none" stroke="#99ff99" stroke-width="2"/>
<g stroke="black" stroke-width="2" fill="none">
<line x1="322" y1="284" x2="323" y2="284"/>
</g>
<path d="M334,322v -3" fill="none" stroke="#99ff99" stroke-width="2"/>
<path d="M334,319v -3" fill="none" stroke="#99ff99" stroke-width="2"/>
<g stroke="black" stroke-width="2" fill="none">
<line x1="333" y1="319" x2="334" y2="319"/>
</g>
<path d="M345,342v -3" fill="none" stroke="#99ff99" stroke-width="2"/>
<path d="M345,339v -3" fill="none" stroke="#99ff99" stroke-width="2"/>
<g stroke="black" stroke-width="2" fill="none">
<line x1="344" y1="339" x2="345" y2="339"/>
</g>
<path d="M356,365v -3" fill="none" stroke="#99ff99" stroke-width="2"/>
<path d="M356,362v -2" fill="none" stroke="#99ff99" stroke-width="2"/>
<g stroke="black" stroke-width="2" fill="none">
<line x1="355" y1="362" x2="356" y2="362"/>
</g>
<path d="M367,383v -2" fill="none" stroke="#99ff99" stroke-width="2"/>
<path d="M367,381v -2" fill="none" stroke="#99ff99" stroke-width="2"/>
<g stroke="black" stroke-width="2" fill="none">
<line x1="366" y1="381" x2="367" y2="381"/>
</g>
<path d="M378,403v -2" fill="none" stroke="#99ff99" stroke-width="2"/>
<path d="M378,401v -1" fill="none" stroke="#99ff99" stroke-width="2"/>
<g stroke="black" stroke-width="2" fill="none">
<line x1="377" y1="401" x2="378" y2="401"/>
</g>
<path d="M389,414v -1" fill="none" stroke="#99ff99" stroke-width="2"/>
<path d="M389,413v -2" fill="none" stroke="#99ff99" stroke-width="2"/>
<g stroke="black" stroke-width="2" fill="none">
<line x1="388" y1="413" x2="389" y2="413"/>
</g>
<path d="M400,424v -1" fill="none" stroke="#99ff99" stroke-width="2"/>
<path d="M400,423v -1" fill="none" stroke="#99ff99" stroke-width="2"/>
<g stroke="black" stroke-width="2" fill="none">
<line x1="399" y1="423" x2="400" y2="423"/>
</g>
<path d="M411,429v -1" fill="none" stroke="#99ff99" stroke-width="2"/>
<path d="M411,428v -1" fill="none" stroke="#99ff99" stroke-width="2"/>
<g stroke="black" stroke-width="2" fill="none">
<line x1="410" y1="428" x2="411" y2="428"/>
</g>
<path d="M422,435v -1" fill="none" stroke="#99ff99" stroke-width="2"/>
<path d="M422,434v -1" fill="none" stroke="#99ff99" stroke-width="2"/>
<g stroke="black" stroke-width="2" fill="none">
<line x1="421" y1="434" x2="422" y2="434"/>
</g>
<path d="M433,439v -1" fill="none" stroke="#99ff99" stroke-width="2"/>
<path d="M433,438" fill="none" stroke="#99ff99" stroke-width="2"/>
<g stroke="black" stroke-width="2" fill="none">
<line x1="432" y1="438" x2="433" y2="438"/>
</g>
<path d="M444,441" fill="none" stroke="#99ff99" stroke-width="2"/>
<path d="M444,441" fill="none" stroke="#99ff99" stroke-width="2"/>
<g stroke="black" stroke-width="2" fill="none">
<line x1="443" y1="441" x2="444" y2="441"/>
</g>
<path d="M455,443v -1" fill="none" stroke="#99ff99" stroke-width="2"/>
<path d="M455,442" fill="none" stroke="#99ff99" stroke-width="2"/>
<g stroke="black" stroke-width="2" fill="none">
<line x1="454" y1="442" x2="455" y2="442"/>
</g>
<path d="M466,444" fill="none" stroke="#99ff99" stroke-width="2"/>
<path d="M466,444" fill="none" stroke="#99ff99" stroke-width="2"/>
<g stroke="black" stroke-width="2" fill="none">
<line x1="465" y1="444" x2="466" y2="444"/>
</g>
<path d="M477,445" fill="none" stroke="#99ff99" stroke-width="2"/>
<path d="M477,445" fill="none" stroke="#99ff99" stroke-width="2"/>
<g stroke="black" stroke-width="2" fill="none">
<line x1="476" y1="445" x2="477" y2="445"/>
</g>
<path d="M489,446v -1" fill="none" stroke="#99ff99" stroke-width="2"/>
<path d="M489,445" fill="none" stroke="#99ff99" stroke-width="2"/>
<g stroke="black" stroke-width="2" fill="none">
<line x1="488" y1="445" x2="489" y2="445"/>
</g>
<path d="M500,446" fill="none" stroke="#99ff99" stroke-width="2"/>
<path d="M500,446" fill="none" stroke="#99ff99" stroke-width="2"/>
<g stroke="black" stroke-width="2" fill="none">
<line x1="499" y1="446" x2="500" y2="446"/>
</g>
<path d="M511,446" fill="none" stroke="#99ff99" stroke-width="2"/>
<path d="M511,446" fill="none" stroke="#99ff99" stroke-width="2"/>
<g stroke="black" stroke-width="2" fill="none">
<line x1="510" y1="446" x2="511" y2="446"/>
</g>
<path d="M522,446" fill="none" stroke="#99ff99" stroke-width="2"/>
<path d="M522,446" fill="none" stroke="#99ff99" stroke-width="2"/>
<g stroke="black" stroke-width="2" fill="none">
<line x1="521" y1="446" x2="522" y2="446"/>
</g>
<path d="M74,446h 22v -1h 11v -5h 11v -11h 11v -21h 11v -34h 11v -35h 11v -55h 11v -49h 11v -39h 11v -35h 11v -19h 12v -25h 11v -13h 11v 2h 11v 21h 11v 8h 11v 30h 11v 26h 11v 26h 11v 31h 11v 36h 11v 35h 11v 20h 11v 23h 11v 19h 11v 20h 11v 12h 11v 10h
 12v 5h 11v 6h 11v 4h 11v 3h 11v 1h 11v 2h 11v 1h 22v 1h 33z" fill="#99ff99"/>
<path d="M74,446h 22v -1h 11v -5h 11v -11h 11v -21h 11v -34h 11v -35h 11v -55h 11v -49h 11v -39h 11v -35h 11v -19h 12v -25h 11v -13h 11v 2h 11v 21h 11v 8h 11v 30h 11v 26h 11v 26h 11v 31h 11v 36h 11v 35h 11v 20h 11v 23h 11v 19h 11v 20h 11v 12h 11v 10h
 12v 5h 11v 6h 11v 4h 11v 3h 11v 1h 11v 2h 11v 1h 22v 1h 33" fill="none" stroke="#99ff99" stroke-width="2"/>
<path d="M85,446h 4" fill="none" stroke="#ff0099"/>
<path d="M91,446h 5" fill="none" stroke="#ff0099"/>
<g stroke="#ff0099" stroke-width="1" fill="#ff0099">
<circle cx=" 90" cy=" 446" r=" 1.5"/>
</g>
<path d="M96,443h 4" fill="none" stroke="#ff0099"/>
<path d="M102,443h 5" fill="none" stroke="#ff0099"/>
<g stroke="#ff0099" stroke-width="1" fill="#ff0099">
<circle cx=" 101" cy=" 443" r=" 1.5"/>
</g>
<path d="M107,435h 4" fill="none" stroke="#ff0099"/>
<path d="M114,435h 4" fill="none" stroke="#ff0099"/>
<g stroke="#ff0099" stroke-width="1" fill="#ff0099">
<circle cx=" 112" cy=" 435" r=" 1.5"/>
</g>
<path d="M123,415" fill="none" stroke="#ff0099"/>
<path d="M123,413" fill="none" stroke="#ff0099"/>
<path d="M118,414h 4" fill="none" stroke="#ff0099"/>
<path d="M125,414h 4" fill="none" stroke="#ff0099"/>
<g stroke="#ff0099" stroke-width="1" fill="#ff0099">
<circle cx=" 123" cy=" 414" r=" 1.5"/>
</g>
<path d="M135,383v -1" fill="none" stroke="#ff0099"/>
<path d="M135,380v -1" fill="none" stroke="#ff0099"/>
<path d="M129,381h 4" fill="none" stroke="#ff0099"/>
<path d="M136,381h 4" fill="none" stroke="#ff0099"/>
<g stroke="#ff0099" stroke-width="1" fill="#ff0099">
<circle cx=" 135" cy=" 381" r=" 1.5"/>
</g>
<path d="M146,337v -2" fill="none" stroke="#ff0099"/>
<path d="M146,333v -1" fill="none" stroke="#ff0099"/>
<path d="M140,334h 4" fill="none" stroke="#ff0099"/>
<path d="M147,334h 4" fill="none" stroke="#ff0099"/>
<g stroke="#ff0099" stroke-width="1" fill="#ff0099">
<circle cx=" 146" cy=" 334" r=" 1.5"/>
</g>
<path d="M157,277v -2" fill="none" stroke="#ff0099"/>
<path d="M157,273v -2" fill="none" stroke="#ff0099"/>
<path d="M151,274h 5" fill="none" stroke="#ff0099"/>
<path d="M158,274h 4" fill="none" stroke="#ff0099"/>
<g stroke="#ff0099" stroke-width="1" fill="#ff0099">
<circle cx=" 157" cy=" 274" r=" 1.5"/>
</g>
<path d="M168,220v -3" fill="none" stroke="#ff0099"/>
<path d="M168,215v -3" fill="none" stroke="#ff0099"/>
<path d="M162,216h 5" fill="none" stroke="#ff0099"/>
<path d="M169,216h 4" fill="none" stroke="#ff0099"/>
<g stroke="#ff0099" stroke-width="1" fill="#ff0099">
<circle cx=" 168" cy=" 216" r=" 1.5"/>
</g>
<path d="M179,154v -3" fill="none" stroke="#ff0099"/>
<path d="M179,148v -3" fill="none" stroke="#ff0099"/>
<path d="M173,149h 5" fill="none" stroke="#ff0099"/>
<path d="M180,149h 4" fill="none" stroke="#ff0099"/>
<g stroke="#ff0099" stroke-width="1" fill="#ff0099">
<circle cx=" 179" cy=" 149" r=" 1.5"/>
</g>
<path d="M190,123v -3" fill="none" stroke="#ff0099"/>
<path d="M190,118v -3" fill="none" stroke="#ff0099"/>
<path d="M184,119h 5" fill="none" stroke="#ff0099"/>
<path d="M191,119h 4" fill="none" stroke="#ff0099"/>
<g stroke="#ff0099" stroke-width="1" fill="#ff0099">
<circle cx=" 190" cy=" 119" r=" 1.5"/>
</g>
<path d="M201,95v -3" fill="none" stroke="#ff0099"/>
<path d="M201,89v -3" fill="none" stroke="#ff0099"/>
<path d="M195,91h 5" fill="none" stroke="#ff0099"/>
<path d="M202,91h 4" fill="none" stroke="#ff0099"/>
<g stroke="#ff0099" stroke-width="1" fill="#ff0099">
<circle cx=" 201" cy=" 91" r=" 1.5"/>
</g>
<path d="M212,73v -4" fill="none" stroke="#ff0099"/>
<path d="M212,67v -4" fill="none" stroke="#ff0099"/>
<path d="M206,68h 5" fill="none" stroke="#ff0099"/>
<path d="M213,68h 5" fill="none" stroke="#ff0099"/>
<g stroke="#ff0099" stroke-width="1" fill="#ff0099">
<circle cx=" 212" cy=" 68" r=" 1.5"/>
</g>
<path d="M223,75v -3" fill="none" stroke="#ff0099"/>
<path d="M223,69v -3" fill="none" stroke="#ff0099"/>
<path d="M218,71h 4" fill="none" stroke="#ff0099"/>
<path d="M224,71h 5" fill="none" stroke="#ff0099"/>
<g stroke="#ff0099" stroke-width="1" fill="#ff0099">
<circle cx=" 223" cy=" 71" r=" 1.5"/>
</g>
<path d="M234,91v -3" fill="none" stroke="#ff0099"/>
<path d="M234,85v -3" fill="none" stroke="#ff0099"/>
<path d="M229,86h 4" fill="none" stroke="#ff0099"/>
<path d="M235,86h 5" fill="none" stroke="#ff0099"/>
<g stroke="#ff0099" stroke-width="1" fill="#ff0099">
<circle cx=" 234" cy=" 86" r=" 1.5"/>
</g>
<path d="M245,107v -3" fill="none" stroke="#ff0099"/>
<path d="M245,102v -3" fill="none" stroke="#ff0099"/>
<path d="M240,103h 4" fill="none" stroke="#ff0099"/>
<path d="M246,103h 5" fill="none" stroke="#ff0099"/>
<g stroke="#ff0099" stroke-width="1" fill="#ff0099">
<circle cx=" 245" cy=" 103" r=" 1.5"/>
</g>
<path d="M256,144v -2" fill="none" stroke="#ff0099"/>
<path d="M256,139v -2" fill="none" stroke="#ff0099"/>
<path d="M251,141h 4" fill="none" stroke="#ff0099"/>
<path d="M257,141h 5" fill="none" stroke="#ff0099"/>
<g stroke="#ff0099" stroke-width="1" fill="#ff0099">
<circle cx=" 256" cy=" 141" r=" 1.5"/>
</g>
<path d="M267,177v -3" fill="none" stroke="#ff0099"/>
<path d="M267,172v -2" fill="none" stroke="#ff0099"/>
<path d="M262,173h 4" fill="none" stroke="#ff0099"/>
<path d="M268,173h 5" fill="none" stroke="#ff0099"/>
<g stroke="#ff0099" stroke-width="1" fill="#ff0099">
<circle cx=" 267" cy=" 173" r=" 1.5"/>
</g>
<path d="M278,207v -2" fill="none" stroke="#ff0099"/>
<path d="M278,203v -2" fill="none" stroke="#ff0099"/>
<path d="M273,204h 4" fill="none" stroke="#ff0099"/>
<path d="M279,204h 5" fill="none" stroke="#ff0099"/>
<g stroke="#ff0099" stroke-width="1" fill="#ff0099">
<circle cx=" 278" cy=" 204" r=" 1.5"/>
</g>
<path d="M289,248v -2" fill="none" stroke="#ff0099"/>
<path d="M289,244v -2" fill="none" stroke="#ff0099"/>
<path d="M284,245h 4" fill="none" stroke="#ff0099"/>
<path d="M291,245h 4" fill="none" stroke="#ff0099"/>
<g stroke="#ff0099" stroke-width="1" fill="#ff0099">
<circle cx=" 289" cy=" 245" r=" 1.5"/>
</g>
<path d="M300,280v -2" fill="none" stroke="#ff0099"/>
<path d="M300,276v -1" fill="none" stroke="#ff0099"/>
<path d="M295,277h 4" fill="none" stroke="#ff0099"/>
<path d="M302,277h 4" fill="none" stroke="#ff0099"/>
<g stroke="#ff0099" stroke-width="1" fill="#ff0099">
<circle cx=" 300" cy=" 277" r=" 1.5"/>
</g>
<path d="M312,315v -2" fill="none" stroke="#ff0099"/>
<path d="M312,311v -1" fill="none" stroke="#ff0099"/>
<path d="M306,312h 4" fill="none" stroke="#ff0099"/>
<path d="M313,312h 4" fill="none" stroke="#ff0099"/>
<g stroke="#ff0099" stroke-width="1" fill="#ff0099">
<circle cx=" 312" cy=" 312" r=" 1.5"/>
</g>
<path d="M323,345v -1" fill="none" stroke="#ff0099"/>
<path d="M323,342v -1" fill="none" stroke="#ff0099"/>
<path d="M317,343h 4" fill="none" stroke="#ff0099"/>
<path d="M324,343h 4" fill="none" stroke="#ff0099"/>
<g stroke="#ff0099" stroke-width="1" fill="#ff0099">
<circle cx=" 323" cy=" 343" r=" 1.5"/>
</g>
<path d="M334,366" fill="none" stroke="#ff0099"/>
<path d="M334,364v -1" fill="none" stroke="#ff0099"/>
<path d="M328,365h 5" fill="none" stroke="#ff0099"/>
<path d="M335,365h 4" fill="none" stroke="#ff0099"/>
<g stroke="#ff0099" stroke-width="1" fill="#ff0099">
<circle cx=" 334" cy=" 365" r=" 1.5"/>
</g>
<path d="M345,388" fill="none" stroke="#ff0099"/>
<path d="M345,385" fill="none" stroke="#ff0099"/>
<path d="M339,386h 5" fill="none" stroke="#ff0099"/>
<path d="M346,386h 4" fill="none" stroke="#ff0099"/>
<g stroke="#ff0099" stroke-width="1" fill="#ff0099">
<circle cx=" 345" cy=" 386" r=" 1.5"/>
</g>
<path d="M350,406h 5" fill="none" stroke="#ff0099"/>
<path d="M357,406h 4" fill="none" stroke="#ff0099"/>
<g stroke="#ff0099" stroke-width="1" fill="#ff0099">
<circle cx=" 356" cy=" 406" r=" 1.5"/>
</g>
<path d="M361,417h 5" fill="none" stroke="#ff0099"/>
<path d="M368,417h 4" fill="none" stroke="#ff0099"/>
<g stroke="#ff0099" stroke-width="1" fill="#ff0099">
<circle cx=" 367" cy=" 417" r=" 1.5"/>
</g>
<path d="M372,426h 5" fill="none" stroke="#ff0099"/>
<path d="M379,426h 4" fill="none" stroke="#ff0099"/>
<g stroke="#ff0099" stroke-width="1" fill="#ff0099">
<circle cx=" 378" cy=" 426" r=" 1.5"/>
</g>
<path d="M383,433h 5" fill="none" stroke="#ff0099"/>
<path d="M390,433h 4" fill="none" stroke="#ff0099"/>
<g stroke="#ff0099" stroke-width="1" fill="#ff0099">
<circle cx=" 389" cy=" 433" r=" 1.5"/>
</g>
<path d="M394,437h 5" fill="none" stroke="#ff0099"/>
<path d="M401,437h 5" fill="none" stroke="#ff0099"/>
<g stroke="#ff0099" stroke-width="1" fill="#ff0099">
<circle cx=" 400" cy=" 437" r=" 1.5"/>
</g>
<path d="M406,441h 4" fill="none" stroke="#ff0099"/>
<path d="M412,441h 5" fill="none" stroke="#ff0099"/>
<g stroke="#ff0099" stroke-width="1" fill="#ff0099">
<circle cx=" 411" cy=" 441" r=" 1.5"/>
</g>
<path d="M417,443h 4" fill="none" stroke="#ff0099"/>
<path d="M423,443h 5" fill="none" stroke="#ff0099"/>
<g stroke="#ff0099" stroke-width="1" fill="#ff0099">
<circle cx=" 422" cy=" 443" r=" 1.5"/>
</g>
<path d="M428,444h 4" fill="none" stroke="#ff0099"/>
<path d="M434,444h 5" fill="none" stroke="#ff0099"/>
<g stroke="#ff0099" stroke-width="1" fill="#ff0099">
<circle cx=" 433" cy=" 444" r=" 1.5"/>
</g>
<path d="M439,445h 4" fill="none" stroke="#ff0099"/>
<path d="M445,445h 5" fill="none" stroke="#ff0099"/>
<g stroke="#ff0099" stroke-width="1" fill="#ff0099">
<circle cx=" 444" cy=" 445" r=" 1.5"/>
</g>
<path d="M450,445h 4" fill="none" stroke="#ff0099"/>
<path d="M456,445h 5" fill="none" stroke="#ff0099"/>
<g stroke="#ff0099" stroke-width="1" fill="#ff0099">
<circle cx=" 455" cy=" 445" r=" 1.5"/>
</g>
<path d="M461,446h 4" fill="none" stroke="#ff0099"/>
<path d="M468,446h 4" fill="none" stroke="#ff0099"/>
<g stroke="#ff0099" stroke-width="1" fill="#ff0099">
<circle cx=" 466" cy=" 446" r=" 1.5"/>
</g>
<path d="M472,446h 4" fill="none" stroke="#ff0099"/>
<path d="M479,446h 4" fill="none" stroke="#ff0099"/>
<g stroke="#ff0099" stroke-width="1" fill="#ff0099">
<circle cx=" 477" cy=" 446" r=" 1.5"/>
</g>
<path d="M483,446h 4" fill="none" stroke="#ff0099"/>
<path d="M490,446h 4" fill="none" stroke="#ff0099"/>
<g stroke="#ff0099" stroke-width="1" fill="#ff0099">
<circle cx=" 489" cy=" 446" r=" 1.5"/>
</g>
<path d="M494,446h 4" fill="none" stroke="#ff0099"/>
<path d="M501,446h 4" fill="none" stroke="#ff0099"/>
<g stroke="#ff0099" stroke-width="1" fill="#ff0099">
<circle cx=" 500" cy=" 446" r=" 1.5"/>
</g>
<path d="M505,446h 5" fill="none" stroke="#ff0099"/>
<path d="M512,446h 4" fill="none" stroke="#ff0099"/>
<g stroke="#ff0099" stroke-width="1" fill="#ff0099">
<circle cx=" 511" cy=" 446" r=" 1.5"/>
</g>
<path d="M516,446h 5" fill="none" stroke="#ff0099"/>
<path d="M523,446h 4" fill="none" stroke="#ff0099"/>
<g stroke="#ff0099" stroke-width="1" fill="#ff0099">
<circle cx=" 522" cy=" 446" r=" 1.5"/>
</g>
<rect x="357" y="59" width="142" height="99" fill="white"/>
<text x="360" y="82" fill="black" font-size="17" font-family="Helvetica" font-weight="bold">
EE
</text>
<text x="457" y="115" fill="black" font-size="17" font-family="Helvetica" font-weight="bold">
 ee
</text>
<text x="440" y="115" fill="black" font-size="17" font-family="Times">
&#8594;
</text>
<text x="392" y="115" fill="black" font-size="17" font-family="Helvetica" font-weight="bold">
MC Z 
</text>
<path d="M362,109h 25" fill="none" stroke="#ff0099"/>
<g stroke="#ff0099" stroke-width="1" fill="#ff0099">
<circle cx=" 375" cy=" 109" r=" 1.5"/>
</g>
<text x="455" y="147" fill="black" font-size="17" font-family="Helvetica" font-weight="bold">
 + jet
</text>
<text x="447" y="147" fill="black" font-size="17" font-family="Times">
&#0947;
</text>
<text x="392" y="147" fill="black" font-size="17" font-family="Helvetica" font-weight="bold">
signal 
</text>
<path d="M362,154h 25v -24h -25z" fill="#99ff99"/>
<path d="M362,130h 25" fill="none" stroke="#99ff99" stroke-width="2"/>
<path d="M362,154h 25" fill="none" stroke="#99ff99" stroke-width="2"/>
<path d="M387,154v -24" fill="none" stroke="#99ff99" stroke-width="2"/>
<path d="M362,154v -24" fill="none" stroke="#99ff99" stroke-width="2"/>
<text x="300" y="34" fill="black" font-size="17" font-family="Helvetica" font-weight="bold">
=8 TeV
</text>
<text x="291" y="34" fill="black" font-size="17" font-family="Helvetica" font-weight="bold">
s
</text>
<path d="M285,25l 2, 10" fill="none" stroke="black" stroke-width="2"/>
<path d="M287,35l 2, -14" fill="none" stroke="black"/>
<path d="M289,21h 11" fill="none" stroke="black"/>
<text x="142" y="34" fill="black" font-size="17" font-family="Helvetica" font-weight="bold">
CMS Preliminary 
</text></svg>
