<?xml version="1.0" standalone="no"?>
<svg width="567" height="496" viewBox="0 0 567 496" xmlns="http://www.w3.org/2000/svg">
<title>
../src/TagAndProbeZ/plots_mcZee_mcGJet_withEtaR9Reweight/hlt30//pid_pfIsoPhotons03ForCiCEE.svg
</title>
<desc>
Creator: ROOT Version 5.32/00
CreationDate: Sat Sep 27 23:43:28 2014</desc>
<defs>
</defs>
<rect x="0" y="0" width="567" height="496" fill="white"/>
<rect x="74" y="44" width="453" height="402" fill="white"/>
<rect x="74" y="44" width="453" height="402" fill="none" stroke="black"/>
<rect x="74" y="44" width="453" height="402" fill="white"/>
<rect x="74" y="44" width="453" height="402" fill="none" stroke="black"/>
<path d="M77,67v -1" fill="none" stroke="#ff0099"/>
<path d="M77,64v -1" fill="none" stroke="#ff0099"/>
<path d="M74,65h 2" fill="none" stroke="#ff0099"/>
<path d="M79,65h 2" fill="none" stroke="#ff0099"/>
<g stroke="#ff0099" stroke-width="1" fill="#ff0099">
<circle cx=" 77" cy=" 65" r=" 1.5"/>
</g>
<path d="M81,410h 3" fill="none" stroke="#ff0099"/>
<path d="M86,410h 3" fill="none" stroke="#ff0099"/>
<g stroke="#ff0099" stroke-width="1" fill="#ff0099">
<circle cx=" 85" cy=" 410" r=" 1.5"/>
</g>
<path d="M89,395h 2" fill="none" stroke="#ff0099"/>
<path d="M94,395h 2" fill="none" stroke="#ff0099"/>
<g stroke="#ff0099" stroke-width="1" fill="#ff0099">
<circle cx=" 93" cy=" 395" r=" 1.5"/>
</g>
<path d="M96,408h 3" fill="none" stroke="#ff0099"/>
<path d="M101,408h 3" fill="none" stroke="#ff0099"/>
<g stroke="#ff0099" stroke-width="1" fill="#ff0099">
<circle cx=" 100" cy=" 408" r=" 1.5"/>
</g>
<path d="M104,415h 3" fill="none" stroke="#ff0099"/>
<path d="M109,415h 2" fill="none" stroke="#ff0099"/>
<g stroke="#ff0099" stroke-width="1" fill="#ff0099">
<circle cx=" 108" cy=" 415" r=" 1.5"/>
</g>
<path d="M111,418h 3" fill="none" stroke="#ff0099"/>
<path d="M116,418h 3" fill="none" stroke="#ff0099"/>
<g stroke="#ff0099" stroke-width="1" fill="#ff0099">
<circle cx=" 115" cy=" 418" r=" 1.5"/>
</g>
<path d="M119,421h 3" fill="none" stroke="#ff0099"/>
<path d="M124,421h 3" fill="none" stroke="#ff0099"/>
<g stroke="#ff0099" stroke-width="1" fill="#ff0099">
<circle cx=" 123" cy=" 421" r=" 1.5"/>
</g>
<path d="M127,424h 2" fill="none" stroke="#ff0099"/>
<path d="M132,424h 2" fill="none" stroke="#ff0099"/>
<g stroke="#ff0099" stroke-width="1" fill="#ff0099">
<circle cx=" 130" cy=" 424" r=" 1.5"/>
</g>
<path d="M134,425h 3" fill="none" stroke="#ff0099"/>
<path d="M139,425h 3" fill="none" stroke="#ff0099"/>
<g stroke="#ff0099" stroke-width="1" fill="#ff0099">
<circle cx=" 138" cy=" 425" r=" 1.5"/>
</g>
<path d="M142,427h 2" fill="none" stroke="#ff0099"/>
<path d="M147,427h 2" fill="none" stroke="#ff0099"/>
<g stroke="#ff0099" stroke-width="1" fill="#ff0099">
<circle cx=" 146" cy=" 427" r=" 1.5"/>
</g>
<path d="M149,430h 3" fill="none" stroke="#ff0099"/>
<path d="M154,430h 3" fill="none" stroke="#ff0099"/>
<g stroke="#ff0099" stroke-width="1" fill="#ff0099">
<circle cx=" 153" cy=" 430" r=" 1.5"/>
</g>
<path d="M157,431h 2" fill="none" stroke="#ff0099"/>
<path d="M162,431h 2" fill="none" stroke="#ff0099"/>
<g stroke="#ff0099" stroke-width="1" fill="#ff0099">
<circle cx=" 161" cy=" 431" r=" 1.5"/>
</g>
<path d="M164,433h 3" fill="none" stroke="#ff0099"/>
<path d="M169,433h 3" fill="none" stroke="#ff0099"/>
<g stroke="#ff0099" stroke-width="1" fill="#ff0099">
<circle cx=" 168" cy=" 433" r=" 1.5"/>
</g>
<path d="M172,435h 3" fill="none" stroke="#ff0099"/>
<path d="M177,435h 3" fill="none" stroke="#ff0099"/>
<g stroke="#ff0099" stroke-width="1" fill="#ff0099">
<circle cx=" 176" cy=" 435" r=" 1.5"/>
</g>
<path d="M180,436h 2" fill="none" stroke="#ff0099"/>
<path d="M184,436h 3" fill="none" stroke="#ff0099"/>
<g stroke="#ff0099" stroke-width="1" fill="#ff0099">
<circle cx=" 183" cy=" 436" r=" 1.5"/>
</g>
<path d="M187,437h 3" fill="none" stroke="#ff0099"/>
<path d="M192,437h 3" fill="none" stroke="#ff0099"/>
<g stroke="#ff0099" stroke-width="1" fill="#ff0099">
<circle cx=" 191" cy=" 437" r=" 1.5"/>
</g>
<path d="M195,439h 2" fill="none" stroke="#ff0099"/>
<path d="M200,439h 2" fill="none" stroke="#ff0099"/>
<g stroke="#ff0099" stroke-width="1" fill="#ff0099">
<circle cx=" 198" cy=" 439" r=" 1.5"/>
</g>
<path d="M202,440h 3" fill="none" stroke="#ff0099"/>
<path d="M207,440h 3" fill="none" stroke="#ff0099"/>
<g stroke="#ff0099" stroke-width="1" fill="#ff0099">
<circle cx=" 206" cy=" 440" r=" 1.5"/>
</g>
<path d="M210,440h 2" fill="none" stroke="#ff0099"/>
<path d="M215,440h 2" fill="none" stroke="#ff0099"/>
<g stroke="#ff0099" stroke-width="1" fill="#ff0099">
<circle cx=" 214" cy=" 440" r=" 1.5"/>
</g>
<path d="M217,441h 3" fill="none" stroke="#ff0099"/>
<path d="M222,441h 3" fill="none" stroke="#ff0099"/>
<g stroke="#ff0099" stroke-width="1" fill="#ff0099">
<circle cx=" 221" cy=" 441" r=" 1.5"/>
</g>
<path d="M225,441h 3" fill="none" stroke="#ff0099"/>
<path d="M230,441h 2" fill="none" stroke="#ff0099"/>
<g stroke="#ff0099" stroke-width="1" fill="#ff0099">
<circle cx=" 229" cy=" 441" r=" 1.5"/>
</g>
<path d="M232,442h 3" fill="none" stroke="#ff0099"/>
<path d="M237,442h 3" fill="none" stroke="#ff0099"/>
<g stroke="#ff0099" stroke-width="1" fill="#ff0099">
<circle cx=" 236" cy=" 442" r=" 1.5"/>
</g>
<path d="M240,443h 3" fill="none" stroke="#ff0099"/>
<path d="M245,443h 3" fill="none" stroke="#ff0099"/>
<g stroke="#ff0099" stroke-width="1" fill="#ff0099">
<circle cx=" 244" cy=" 443" r=" 1.5"/>
</g>
<path d="M248,443h 2" fill="none" stroke="#ff0099"/>
<path d="M252,443h 3" fill="none" stroke="#ff0099"/>
<g stroke="#ff0099" stroke-width="1" fill="#ff0099">
<circle cx=" 251" cy=" 443" r=" 1.5"/>
</g>
<path d="M255,443h 3" fill="none" stroke="#ff0099"/>
<path d="M260,443h 3" fill="none" stroke="#ff0099"/>
<g stroke="#ff0099" stroke-width="1" fill="#ff0099">
<circle cx=" 259" cy=" 443" r=" 1.5"/>
</g>
<path d="M263,443h 2" fill="none" stroke="#ff0099"/>
<path d="M268,443h 2" fill="none" stroke="#ff0099"/>
<g stroke="#ff0099" stroke-width="1" fill="#ff0099">
<circle cx=" 266" cy=" 443" r=" 1.5"/>
</g>
<path d="M270,444h 3" fill="none" stroke="#ff0099"/>
<path d="M275,444h 3" fill="none" stroke="#ff0099"/>
<g stroke="#ff0099" stroke-width="1" fill="#ff0099">
<circle cx=" 274" cy=" 444" r=" 1.5"/>
</g>
<path d="M278,444h 2" fill="none" stroke="#ff0099"/>
<path d="M283,444h 2" fill="none" stroke="#ff0099"/>
<g stroke="#ff0099" stroke-width="1" fill="#ff0099">
<circle cx=" 282" cy=" 444" r=" 1.5"/>
</g>
<path d="M285,444h 3" fill="none" stroke="#ff0099"/>
<path d="M290,444h 3" fill="none" stroke="#ff0099"/>
<g stroke="#ff0099" stroke-width="1" fill="#ff0099">
<circle cx=" 289" cy=" 444" r=" 1.5"/>
</g>
<path d="M293,445h 3" fill="none" stroke="#ff0099"/>
<path d="M298,445h 2" fill="none" stroke="#ff0099"/>
<g stroke="#ff0099" stroke-width="1" fill="#ff0099">
<circle cx=" 297" cy=" 445" r=" 1.5"/>
</g>
<path d="M300,445h 3" fill="none" stroke="#ff0099"/>
<path d="M305,445h 3" fill="none" stroke="#ff0099"/>
<g stroke="#ff0099" stroke-width="1" fill="#ff0099">
<circle cx=" 304" cy=" 445" r=" 1.5"/>
</g>
<path d="M308,445h 3" fill="none" stroke="#ff0099"/>
<path d="M313,445h 3" fill="none" stroke="#ff0099"/>
<g stroke="#ff0099" stroke-width="1" fill="#ff0099">
<circle cx=" 312" cy=" 445" r=" 1.5"/>
</g>
<path d="M316,445h 2" fill="none" stroke="#ff0099"/>
<path d="M321,445h 2" fill="none" stroke="#ff0099"/>
<g stroke="#ff0099" stroke-width="1" fill="#ff0099">
<circle cx=" 319" cy=" 445" r=" 1.5"/>
</g>
<path d="M323,445h 3" fill="none" stroke="#ff0099"/>
<path d="M328,445h 3" fill="none" stroke="#ff0099"/>
<g stroke="#ff0099" stroke-width="1" fill="#ff0099">
<circle cx=" 327" cy=" 445" r=" 1.5"/>
</g>
<path d="M331,445h 2" fill="none" stroke="#ff0099"/>
<path d="M336,445h 2" fill="none" stroke="#ff0099"/>
<g stroke="#ff0099" stroke-width="1" fill="#ff0099">
<circle cx=" 334" cy=" 445" r=" 1.5"/>
</g>
<path d="M338,445h 3" fill="none" stroke="#ff0099"/>
<path d="M343,445h 3" fill="none" stroke="#ff0099"/>
<g stroke="#ff0099" stroke-width="1" fill="#ff0099">
<circle cx=" 342" cy=" 445" r=" 1.5"/>
</g>
<path d="M346,445h 2" fill="none" stroke="#ff0099"/>
<path d="M351,445h 2" fill="none" stroke="#ff0099"/>
<g stroke="#ff0099" stroke-width="1" fill="#ff0099">
<circle cx=" 350" cy=" 445" r=" 1.5"/>
</g>
<path d="M353,446h 3" fill="none" stroke="#ff0099"/>
<path d="M358,446h 3" fill="none" stroke="#ff0099"/>
<g stroke="#ff0099" stroke-width="1" fill="#ff0099">
<circle cx=" 357" cy=" 446" r=" 1.5"/>
</g>
<path d="M361,446h 3" fill="none" stroke="#ff0099"/>
<path d="M366,446h 3" fill="none" stroke="#ff0099"/>
<g stroke="#ff0099" stroke-width="1" fill="#ff0099">
<circle cx=" 365" cy=" 446" r=" 1.5"/>
</g>
<path d="M369,446h 2" fill="none" stroke="#ff0099"/>
<path d="M373,446h 3" fill="none" stroke="#ff0099"/>
<g stroke="#ff0099" stroke-width="1" fill="#ff0099">
<circle cx=" 372" cy=" 446" r=" 1.5"/>
</g>
<path d="M376,446h 3" fill="none" stroke="#ff0099"/>
<path d="M381,446h 3" fill="none" stroke="#ff0099"/>
<g stroke="#ff0099" stroke-width="1" fill="#ff0099">
<circle cx=" 380" cy=" 446" r=" 1.5"/>
</g>
<path d="M384,446h 2" fill="none" stroke="#ff0099"/>
<path d="M389,446h 2" fill="none" stroke="#ff0099"/>
<g stroke="#ff0099" stroke-width="1" fill="#ff0099">
<circle cx=" 387" cy=" 446" r=" 1.5"/>
</g>
<path d="M391,446h 3" fill="none" stroke="#ff0099"/>
<path d="M396,446h 3" fill="none" stroke="#ff0099"/>
<g stroke="#ff0099" stroke-width="1" fill="#ff0099">
<circle cx=" 395" cy=" 446" r=" 1.5"/>
</g>
<path d="M399,446h 2" fill="none" stroke="#ff0099"/>
<path d="M404,446h 2" fill="none" stroke="#ff0099"/>
<g stroke="#ff0099" stroke-width="1" fill="#ff0099">
<circle cx=" 403" cy=" 446" r=" 1.5"/>
</g>
<path d="M406,446h 3" fill="none" stroke="#ff0099"/>
<path d="M411,446h 3" fill="none" stroke="#ff0099"/>
<g stroke="#ff0099" stroke-width="1" fill="#ff0099">
<circle cx=" 410" cy=" 446" r=" 1.5"/>
</g>
<path d="M414,446h 2" fill="none" stroke="#ff0099"/>
<path d="M419,446h 2" fill="none" stroke="#ff0099"/>
<g stroke="#ff0099" stroke-width="1" fill="#ff0099">
<circle cx=" 418" cy=" 446" r=" 1.5"/>
</g>
<path d="M421,446h 3" fill="none" stroke="#ff0099"/>
<path d="M426,446h 3" fill="none" stroke="#ff0099"/>
<g stroke="#ff0099" stroke-width="1" fill="#ff0099">
<circle cx=" 425" cy=" 446" r=" 1.5"/>
</g>
<path d="M429,446h 3" fill="none" stroke="#ff0099"/>
<path d="M434,446h 3" fill="none" stroke="#ff0099"/>
<g stroke="#ff0099" stroke-width="1" fill="#ff0099">
<circle cx=" 433" cy=" 446" r=" 1.5"/>
</g>
<path d="M437,446h 2" fill="none" stroke="#ff0099"/>
<path d="M441,446h 3" fill="none" stroke="#ff0099"/>
<g stroke="#ff0099" stroke-width="1" fill="#ff0099">
<circle cx=" 440" cy=" 446" r=" 1.5"/>
</g>
<path d="M444,446h 3" fill="none" stroke="#ff0099"/>
<path d="M449,446h 3" fill="none" stroke="#ff0099"/>
<g stroke="#ff0099" stroke-width="1" fill="#ff0099">
<circle cx=" 448" cy=" 446" r=" 1.5"/>
</g>
<path d="M452,446h 2" fill="none" stroke="#ff0099"/>
<path d="M457,446h 2" fill="none" stroke="#ff0099"/>
<g stroke="#ff0099" stroke-width="1" fill="#ff0099">
<circle cx=" 455" cy=" 446" r=" 1.5"/>
</g>
<path d="M459,446h 3" fill="none" stroke="#ff0099"/>
<path d="M464,446h 3" fill="none" stroke="#ff0099"/>
<g stroke="#ff0099" stroke-width="1" fill="#ff0099">
<circle cx=" 463" cy=" 446" r=" 1.5"/>
</g>
<path d="M467,446h 2" fill="none" stroke="#ff0099"/>
<path d="M472,446h 2" fill="none" stroke="#ff0099"/>
<g stroke="#ff0099" stroke-width="1" fill="#ff0099">
<circle cx=" 471" cy=" 446" r=" 1.5"/>
</g>
<path d="M474,446h 3" fill="none" stroke="#ff0099"/>
<path d="M479,446h 3" fill="none" stroke="#ff0099"/>
<g stroke="#ff0099" stroke-width="1" fill="#ff0099">
<circle cx=" 478" cy=" 446" r=" 1.5"/>
</g>
<path d="M482,446h 3" fill="none" stroke="#ff0099"/>
<path d="M487,446h 2" fill="none" stroke="#ff0099"/>
<g stroke="#ff0099" stroke-width="1" fill="#ff0099">
<circle cx=" 486" cy=" 446" r=" 1.5"/>
</g>
<path d="M489,446h 3" fill="none" stroke="#ff0099"/>
<path d="M494,446h 3" fill="none" stroke="#ff0099"/>
<g stroke="#ff0099" stroke-width="1" fill="#ff0099">
<circle cx=" 493" cy=" 446" r=" 1.5"/>
</g>
<path d="M497,446h 3" fill="none" stroke="#ff0099"/>
<path d="M502,446h 3" fill="none" stroke="#ff0099"/>
<g stroke="#ff0099" stroke-width="1" fill="#ff0099">
<circle cx=" 501" cy=" 446" r=" 1.5"/>
</g>
<path d="M505,446h 2" fill="none" stroke="#ff0099"/>
<path d="M509,446h 3" fill="none" stroke="#ff0099"/>
<g stroke="#ff0099" stroke-width="1" fill="#ff0099">
<circle cx=" 508" cy=" 446" r=" 1.5"/>
</g>
<path d="M512,446h 3" fill="none" stroke="#ff0099"/>
<path d="M517,446h 3" fill="none" stroke="#ff0099"/>
<g stroke="#ff0099" stroke-width="1" fill="#ff0099">
<circle cx=" 516" cy=" 446" r=" 1.5"/>
</g>
<path d="M520,446h 2" fill="none" stroke="#ff0099"/>
<path d="M525,446h 2" fill="none" stroke="#ff0099"/>
<g stroke="#ff0099" stroke-width="1" fill="#ff0099">
<circle cx=" 523" cy=" 446" r=" 1.5"/>
</g>
<path d="M74,446h 453" fill="none" stroke="black"/>
<path d="M74,434v 12" fill="none" stroke="black"/>
<path d="M89,440v 6" fill="none" stroke="black"/>
<path d="M104,440v 6" fill="none" stroke="black"/>
<path d="M119,440v 6" fill="none" stroke="black"/>
<path d="M134,440v 6" fill="none" stroke="black"/>
<path d="M149,434v 12" fill="none" stroke="black"/>
<path d="M164,440v 6" fill="none" stroke="black"/>
<path d="M180,440v 6" fill="none" stroke="black"/>
<path d="M195,440v 6" fill="none" stroke="black"/>
<path d="M210,440v 6" fill="none" stroke="black"/>
<path d="M225,434v 12" fill="none" stroke="black"/>
<path d="M240,440v 6" fill="none" stroke="black"/>
<path d="M255,440v 6" fill="none" stroke="black"/>
<path d="M270,440v 6" fill="none" stroke="black"/>
<path d="M285,440v 6" fill="none" stroke="black"/>
<path d="M300,434v 12" fill="none" stroke="black"/>
<path d="M316,440v 6" fill="none" stroke="black"/>
<path d="M331,440v 6" fill="none" stroke="black"/>
<path d="M346,440v 6" fill="none" stroke="black"/>
<path d="M361,440v 6" fill="none" stroke="black"/>
<path d="M376,434v 12" fill="none" stroke="black"/>
<path d="M391,440v 6" fill="none" stroke="black"/>
<path d="M406,440v 6" fill="none" stroke="black"/>
<path d="M421,440v 6" fill="none" stroke="black"/>
<path d="M437,440v 6" fill="none" stroke="black"/>
<path d="M452,434v 12" fill="none" stroke="black"/>
<path d="M467,440v 6" fill="none" stroke="black"/>
<path d="M482,440v 6" fill="none" stroke="black"/>
<path d="M497,440v 6" fill="none" stroke="black"/>
<path d="M512,440v 6" fill="none" stroke="black"/>
<path d="M527,434v 12" fill="none" stroke="black"/>
<text x="68" y="465" fill="black" font-size="18" font-family="Helvetica" font-weight="bold">
0
</text>
<text x="145" y="465" fill="black" font-size="18" font-family="Helvetica" font-weight="bold">
1
</text>
<text x="220" y="465" fill="black" font-size="18" font-family="Helvetica" font-weight="bold">
2
</text>
<text x="295" y="465" fill="black" font-size="18" font-family="Helvetica" font-weight="bold">
3
</text>
<text x="371" y="465" fill="black" font-size="18" font-family="Helvetica" font-weight="bold">
4
</text>
<text x="446" y="465" fill="black" font-size="18" font-family="Helvetica" font-weight="bold">
5
</text>
<text x="522" y="465" fill="black" font-size="18" font-family="Helvetica" font-weight="bold">
6
</text>
<path d="M74,44h 453" fill="none" stroke="black"/>
<path d="M74,56v -12" fill="none" stroke="black"/>
<path d="M89,50v -6" fill="none" stroke="black"/>
<path d="M104,50v -6" fill="none" stroke="black"/>
<path d="M119,50v -6" fill="none" stroke="black"/>
<path d="M134,50v -6" fill="none" stroke="black"/>
<path d="M149,56v -12" fill="none" stroke="black"/>
<path d="M164,50v -6" fill="none" stroke="black"/>
<path d="M180,50v -6" fill="none" stroke="black"/>
<path d="M195,50v -6" fill="none" stroke="black"/>
<path d="M210,50v -6" fill="none" stroke="black"/>
<path d="M225,56v -12" fill="none" stroke="black"/>
<path d="M240,50v -6" fill="none" stroke="black"/>
<path d="M255,50v -6" fill="none" stroke="black"/>
<path d="M270,50v -6" fill="none" stroke="black"/>
<path d="M285,50v -6" fill="none" stroke="black"/>
<path d="M300,56v -12" fill="none" stroke="black"/>
<path d="M316,50v -6" fill="none" stroke="black"/>
<path d="M331,50v -6" fill="none" stroke="black"/>
<path d="M346,50v -6" fill="none" stroke="black"/>
<path d="M361,50v -6" fill="none" stroke="black"/>
<path d="M376,56v -12" fill="none" stroke="black"/>
<path d="M391,50v -6" fill="none" stroke="black"/>
<path d="M406,50v -6" fill="none" stroke="black"/>
<path d="M421,50v -6" fill="none" stroke="black"/>
<path d="M437,50v -6" fill="none" stroke="black"/>
<path d="M452,56v -12" fill="none" stroke="black"/>
<path d="M467,50v -6" fill="none" stroke="black"/>
<path d="M482,50v -6" fill="none" stroke="black"/>
<path d="M497,50v -6" fill="none" stroke="black"/>
<path d="M512,50v -6" fill="none" stroke="black"/>
<path d="M527,56v -12" fill="none" stroke="black"/>
<path d="M74,446v -402" fill="none" stroke="black"/>
<path d="M87,446h -13" fill="none" stroke="black"/>
<path d="M81,438h -7" fill="none" stroke="black"/>
<path d="M81,430h -7" fill="none" stroke="black"/>
<path d="M81,422h -7" fill="none" stroke="black"/>
<path d="M81,414h -7" fill="none" stroke="black"/>
<path d="M87,406h -13" fill="none" stroke="black"/>
<path d="M81,398h -7" fill="none" stroke="black"/>
<path d="M81,390h -7" fill="none" stroke="black"/>
<path d="M81,382h -7" fill="none" stroke="black"/>
<path d="M81,374h -7" fill="none" stroke="black"/>
<path d="M87,366h -13" fill="none" stroke="black"/>
<path d="M81,358h -7" fill="none" stroke="black"/>
<path d="M81,350h -7" fill="none" stroke="black"/>
<path d="M81,342h -7" fill="none" stroke="black"/>
<path d="M81,334h -7" fill="none" stroke="black"/>
<path d="M87,325h -13" fill="none" stroke="black"/>
<path d="M81,317h -7" fill="none" stroke="black"/>
<path d="M81,309h -7" fill="none" stroke="black"/>
<path d="M81,301h -7" fill="none" stroke="black"/>
<path d="M81,293h -7" fill="none" stroke="black"/>
<path d="M87,285h -13" fill="none" stroke="black"/>
<path d="M81,277h -7" fill="none" stroke="black"/>
<path d="M81,269h -7" fill="none" stroke="black"/>
<path d="M81,261h -7" fill="none" stroke="black"/>
<path d="M81,253h -7" fill="none" stroke="black"/>
<path d="M87,245h -13" fill="none" stroke="black"/>
<path d="M81,237h -7" fill="none" stroke="black"/>
<path d="M81,229h -7" fill="none" stroke="black"/>
<path d="M81,221h -7" fill="none" stroke="black"/>
<path d="M81,213h -7" fill="none" stroke="black"/>
<path d="M87,205h -13" fill="none" stroke="black"/>
<path d="M81,197h -7" fill="none" stroke="black"/>
<path d="M81,188h -7" fill="none" stroke="black"/>
<path d="M81,180h -7" fill="none" stroke="black"/>
<path d="M81,172h -7" fill="none" stroke="black"/>
<path d="M87,164h -13" fill="none" stroke="black"/>
<path d="M81,156h -7" fill="none" stroke="black"/>
<path d="M81,148h -7" fill="none" stroke="black"/>
<path d="M81,140h -7" fill="none" stroke="black"/>
<path d="M81,132h -7" fill="none" stroke="black"/>
<path d="M87,124h -13" fill="none" stroke="black"/>
<path d="M81,116h -7" fill="none" stroke="black"/>
<path d="M81,108h -7" fill="none" stroke="black"/>
<path d="M81,100h -7" fill="none" stroke="black"/>
<path d="M81,92h -7" fill="none" stroke="black"/>
<path d="M87,84h -13" fill="none" stroke="black"/>
<path d="M87,84h -13" fill="none" stroke="black"/>
<path d="M81,76h -7" fill="none" stroke="black"/>
<path d="M81,68h -7" fill="none" stroke="black"/>
<path d="M81,60h -7" fill="none" stroke="black"/>
<path d="M81,52h -7" fill="none" stroke="black"/>
<text x="61" y="453" fill="black" font-size="18" font-family="Helvetica" font-weight="bold">
0
</text>
<text x="34" y="413" fill="black" font-size="18" font-family="Helvetica" font-weight="bold">
0.05
</text>
<text x="47" y="372" fill="black" font-size="18" font-family="Helvetica" font-weight="bold">
0.1
</text>
<text x="34" y="332" fill="black" font-size="18" font-family="Helvetica" font-weight="bold">
0.15
</text>
<text x="45" y="292" fill="black" font-size="18" font-family="Helvetica" font-weight="bold">
0.2
</text>
<text x="34" y="251" fill="black" font-size="18" font-family="Helvetica" font-weight="bold">
0.25
</text>
<text x="45" y="211" fill="black" font-size="18" font-family="Helvetica" font-weight="bold">
0.3
</text>
<text x="34" y="171" fill="black" font-size="18" font-family="Helvetica" font-weight="bold">
0.35
</text>
<text x="44" y="131" fill="black" font-size="18" font-family="Helvetica" font-weight="bold">
0.4
</text>
<text x="34" y="90" fill="black" font-size="18" font-family="Helvetica" font-weight="bold">
0.45
</text>
<path d="M77,118v -3" fill="none" stroke="#99ff99" stroke-width="2"/>
<path d="M77,115v -2" fill="none" stroke="#99ff99" stroke-width="2"/>
<g stroke="black" stroke-width="2" fill="none">
<line x1="76" y1="115" x2="77" y2="115"/>
</g>
<path d="M85,415" fill="none" stroke="#99ff99" stroke-width="2"/>
<path d="M85,415v -1" fill="none" stroke="#99ff99" stroke-width="2"/>
<g stroke="black" stroke-width="2" fill="none">
<line x1="84" y1="415" x2="85" y2="415"/>
</g>
<path d="M93,400" fill="none" stroke="#99ff99" stroke-width="2"/>
<path d="M93,400v -1" fill="none" stroke="#99ff99" stroke-width="2"/>
<g stroke="black" stroke-width="2" fill="none">
<line x1="92" y1="400" x2="93" y2="400"/>
</g>
<path d="M100,410" fill="none" stroke="#99ff99" stroke-width="2"/>
<path d="M100,410v -1" fill="none" stroke="#99ff99" stroke-width="2"/>
<g stroke="black" stroke-width="2" fill="none">
<line x1="99" y1="410" x2="100" y2="410"/>
</g>
<path d="M108,417v -1" fill="none" stroke="#99ff99" stroke-width="2"/>
<path d="M108,416v -1" fill="none" stroke="#99ff99" stroke-width="2"/>
<g stroke="black" stroke-width="2" fill="none">
<line x1="107" y1="416" x2="108" y2="416"/>
</g>
<path d="M115,419v -1" fill="none" stroke="#99ff99" stroke-width="2"/>
<path d="M115,418v -1" fill="none" stroke="#99ff99" stroke-width="2"/>
<g stroke="black" stroke-width="2" fill="none">
<line x1="114" y1="418" x2="115" y2="418"/>
</g>
<path d="M123,421" fill="none" stroke="#99ff99" stroke-width="2"/>
<path d="M123,421v -1" fill="none" stroke="#99ff99" stroke-width="2"/>
<g stroke="black" stroke-width="2" fill="none">
<line x1="122" y1="421" x2="123" y2="421"/>
</g>
<path d="M130,424" fill="none" stroke="#99ff99" stroke-width="2"/>
<path d="M130,424v -1" fill="none" stroke="#99ff99" stroke-width="2"/>
<g stroke="black" stroke-width="2" fill="none">
<line x1="129" y1="424" x2="130" y2="424"/>
</g>
<path d="M138,426v -1" fill="none" stroke="#99ff99" stroke-width="2"/>
<path d="M138,425" fill="none" stroke="#99ff99" stroke-width="2"/>
<g stroke="black" stroke-width="2" fill="none">
<line x1="137" y1="425" x2="138" y2="425"/>
</g>
<path d="M146,427v -1" fill="none" stroke="#99ff99" stroke-width="2"/>
<path d="M146,426v -1" fill="none" stroke="#99ff99" stroke-width="2"/>
<g stroke="black" stroke-width="2" fill="none">
<line x1="145" y1="426" x2="146" y2="426"/>
</g>
<path d="M153,428v -1" fill="none" stroke="#99ff99" stroke-width="2"/>
<path d="M153,427" fill="none" stroke="#99ff99" stroke-width="2"/>
<g stroke="black" stroke-width="2" fill="none">
<line x1="152" y1="427" x2="153" y2="427"/>
</g>
<path d="M161,431" fill="none" stroke="#99ff99" stroke-width="2"/>
<path d="M161,431v -1" fill="none" stroke="#99ff99" stroke-width="2"/>
<g stroke="black" stroke-width="2" fill="none">
<line x1="160" y1="431" x2="161" y2="431"/>
</g>
<path d="M168,432" fill="none" stroke="#99ff99" stroke-width="2"/>
<path d="M168,432v -1" fill="none" stroke="#99ff99" stroke-width="2"/>
<g stroke="black" stroke-width="2" fill="none">
<line x1="167" y1="432" x2="168" y2="432"/>
</g>
<path d="M176,434v -1" fill="none" stroke="#99ff99" stroke-width="2"/>
<path d="M176,433" fill="none" stroke="#99ff99" stroke-width="2"/>
<g stroke="black" stroke-width="2" fill="none">
<line x1="175" y1="433" x2="176" y2="433"/>
</g>
<path d="M183,434" fill="none" stroke="#99ff99" stroke-width="2"/>
<path d="M183,434v -1" fill="none" stroke="#99ff99" stroke-width="2"/>
<g stroke="black" stroke-width="2" fill="none">
<line x1="182" y1="434" x2="183" y2="434"/>
</g>
<path d="M191,437v -1" fill="none" stroke="#99ff99" stroke-width="2"/>
<path d="M191,436" fill="none" stroke="#99ff99" stroke-width="2"/>
<g stroke="black" stroke-width="2" fill="none">
<line x1="190" y1="436" x2="191" y2="436"/>
</g>
<path d="M198,437" fill="none" stroke="#99ff99" stroke-width="2"/>
<path d="M198,437v -1" fill="none" stroke="#99ff99" stroke-width="2"/>
<g stroke="black" stroke-width="2" fill="none">
<line x1="197" y1="437" x2="198" y2="437"/>
</g>
<path d="M206,437" fill="none" stroke="#99ff99" stroke-width="2"/>
<path d="M206,437v -1" fill="none" stroke="#99ff99" stroke-width="2"/>
<g stroke="black" stroke-width="2" fill="none">
<line x1="205" y1="437" x2="206" y2="437"/>
</g>
<path d="M214,438" fill="none" stroke="#99ff99" stroke-width="2"/>
<path d="M214,438v -1" fill="none" stroke="#99ff99" stroke-width="2"/>
<g stroke="black" stroke-width="2" fill="none">
<line x1="213" y1="438" x2="214" y2="438"/>
</g>
<path d="M221,439v -1" fill="none" stroke="#99ff99" stroke-width="2"/>
<path d="M221,438" fill="none" stroke="#99ff99" stroke-width="2"/>
<g stroke="black" stroke-width="2" fill="none">
<line x1="220" y1="438" x2="221" y2="438"/>
</g>
<path d="M229,440v -1" fill="none" stroke="#99ff99" stroke-width="2"/>
<path d="M229,439" fill="none" stroke="#99ff99" stroke-width="2"/>
<g stroke="black" stroke-width="2" fill="none">
<line x1="228" y1="439" x2="229" y2="439"/>
</g>
<path d="M236,441v -1" fill="none" stroke="#99ff99" stroke-width="2"/>
<path d="M236,440" fill="none" stroke="#99ff99" stroke-width="2"/>
<g stroke="black" stroke-width="2" fill="none">
<line x1="235" y1="440" x2="236" y2="440"/>
</g>
<path d="M244,441v -1" fill="none" stroke="#99ff99" stroke-width="2"/>
<path d="M244,440" fill="none" stroke="#99ff99" stroke-width="2"/>
<g stroke="black" stroke-width="2" fill="none">
<line x1="243" y1="440" x2="244" y2="440"/>
</g>
<path d="M251,441" fill="none" stroke="#99ff99" stroke-width="2"/>
<path d="M251,441" fill="none" stroke="#99ff99" stroke-width="2"/>
<g stroke="black" stroke-width="2" fill="none">
<line x1="250" y1="441" x2="251" y2="441"/>
</g>
<path d="M259,442" fill="none" stroke="#99ff99" stroke-width="2"/>
<path d="M259,442" fill="none" stroke="#99ff99" stroke-width="2"/>
<g stroke="black" stroke-width="2" fill="none">
<line x1="258" y1="442" x2="259" y2="442"/>
</g>
<path d="M266,442" fill="none" stroke="#99ff99" stroke-width="2"/>
<path d="M266,442" fill="none" stroke="#99ff99" stroke-width="2"/>
<g stroke="black" stroke-width="2" fill="none">
<line x1="265" y1="442" x2="266" y2="442"/>
</g>
<path d="M274,442" fill="none" stroke="#99ff99" stroke-width="2"/>
<path d="M274,442" fill="none" stroke="#99ff99" stroke-width="2"/>
<g stroke="black" stroke-width="2" fill="none">
<line x1="273" y1="442" x2="274" y2="442"/>
</g>
<path d="M282,443v -1" fill="none" stroke="#99ff99" stroke-width="2"/>
<path d="M282,442" fill="none" stroke="#99ff99" stroke-width="2"/>
<g stroke="black" stroke-width="2" fill="none">
<line x1="281" y1="442" x2="282" y2="442"/>
</g>
<path d="M289,443" fill="none" stroke="#99ff99" stroke-width="2"/>
<path d="M289,443" fill="none" stroke="#99ff99" stroke-width="2"/>
<g stroke="black" stroke-width="2" fill="none">
<line x1="288" y1="443" x2="289" y2="443"/>
</g>
<path d="M297,443" fill="none" stroke="#99ff99" stroke-width="2"/>
<path d="M297,443" fill="none" stroke="#99ff99" stroke-width="2"/>
<g stroke="black" stroke-width="2" fill="none">
<line x1="296" y1="443" x2="297" y2="443"/>
</g>
<path d="M304,444v -1" fill="none" stroke="#99ff99" stroke-width="2"/>
<path d="M304,443" fill="none" stroke="#99ff99" stroke-width="2"/>
<g stroke="black" stroke-width="2" fill="none">
<line x1="303" y1="443" x2="304" y2="443"/>
</g>
<path d="M312,443" fill="none" stroke="#99ff99" stroke-width="2"/>
<path d="M312,443" fill="none" stroke="#99ff99" stroke-width="2"/>
<g stroke="black" stroke-width="2" fill="none">
<line x1="311" y1="443" x2="312" y2="443"/>
</g>
<path d="M319,444" fill="none" stroke="#99ff99" stroke-width="2"/>
<path d="M319,444" fill="none" stroke="#99ff99" stroke-width="2"/>
<g stroke="black" stroke-width="2" fill="none">
<line x1="318" y1="444" x2="319" y2="444"/>
</g>
<path d="M327,444" fill="none" stroke="#99ff99" stroke-width="2"/>
<path d="M327,444" fill="none" stroke="#99ff99" stroke-width="2"/>
<g stroke="black" stroke-width="2" fill="none">
<line x1="326" y1="444" x2="327" y2="444"/>
</g>
<path d="M334,444" fill="none" stroke="#99ff99" stroke-width="2"/>
<path d="M334,444" fill="none" stroke="#99ff99" stroke-width="2"/>
<g stroke="black" stroke-width="2" fill="none">
<line x1="333" y1="444" x2="334" y2="444"/>
</g>
<path d="M342,444" fill="none" stroke="#99ff99" stroke-width="2"/>
<path d="M342,444" fill="none" stroke="#99ff99" stroke-width="2"/>
<g stroke="black" stroke-width="2" fill="none">
<line x1="341" y1="444" x2="342" y2="444"/>
</g>
<path d="M350,444" fill="none" stroke="#99ff99" stroke-width="2"/>
<path d="M350,444" fill="none" stroke="#99ff99" stroke-width="2"/>
<g stroke="black" stroke-width="2" fill="none">
<line x1="349" y1="444" x2="350" y2="444"/>
</g>
<path d="M357,445v -1" fill="none" stroke="#99ff99" stroke-width="2"/>
<path d="M357,444" fill="none" stroke="#99ff99" stroke-width="2"/>
<g stroke="black" stroke-width="2" fill="none">
<line x1="356" y1="444" x2="357" y2="444"/>
</g>
<path d="M365,445" fill="none" stroke="#99ff99" stroke-width="2"/>
<path d="M365,445" fill="none" stroke="#99ff99" stroke-width="2"/>
<g stroke="black" stroke-width="2" fill="none">
<line x1="364" y1="445" x2="365" y2="445"/>
</g>
<path d="M372,445" fill="none" stroke="#99ff99" stroke-width="2"/>
<path d="M372,445" fill="none" stroke="#99ff99" stroke-width="2"/>
<g stroke="black" stroke-width="2" fill="none">
<line x1="371" y1="445" x2="372" y2="445"/>
</g>
<path d="M380,445" fill="none" stroke="#99ff99" stroke-width="2"/>
<path d="M380,445" fill="none" stroke="#99ff99" stroke-width="2"/>
<g stroke="black" stroke-width="2" fill="none">
<line x1="379" y1="445" x2="380" y2="445"/>
</g>
<path d="M387,445" fill="none" stroke="#99ff99" stroke-width="2"/>
<path d="M387,445" fill="none" stroke="#99ff99" stroke-width="2"/>
<g stroke="black" stroke-width="2" fill="none">
<line x1="386" y1="445" x2="387" y2="445"/>
</g>
<path d="M395,445" fill="none" stroke="#99ff99" stroke-width="2"/>
<path d="M395,445" fill="none" stroke="#99ff99" stroke-width="2"/>
<g stroke="black" stroke-width="2" fill="none">
<line x1="394" y1="445" x2="395" y2="445"/>
</g>
<path d="M403,445" fill="none" stroke="#99ff99" stroke-width="2"/>
<path d="M403,445" fill="none" stroke="#99ff99" stroke-width="2"/>
<g stroke="black" stroke-width="2" fill="none">
<line x1="402" y1="445" x2="403" y2="445"/>
</g>
<path d="M410,445" fill="none" stroke="#99ff99" stroke-width="2"/>
<path d="M410,445" fill="none" stroke="#99ff99" stroke-width="2"/>
<g stroke="black" stroke-width="2" fill="none">
<line x1="409" y1="445" x2="410" y2="445"/>
</g>
<path d="M418,445" fill="none" stroke="#99ff99" stroke-width="2"/>
<path d="M418,445" fill="none" stroke="#99ff99" stroke-width="2"/>
<g stroke="black" stroke-width="2" fill="none">
<line x1="417" y1="445" x2="418" y2="445"/>
</g>
<path d="M425,445" fill="none" stroke="#99ff99" stroke-width="2"/>
<path d="M425,445" fill="none" stroke="#99ff99" stroke-width="2"/>
<g stroke="black" stroke-width="2" fill="none">
<line x1="424" y1="445" x2="425" y2="445"/>
</g>
<path d="M433,446v -1" fill="none" stroke="#99ff99" stroke-width="2"/>
<path d="M433,445" fill="none" stroke="#99ff99" stroke-width="2"/>
<g stroke="black" stroke-width="2" fill="none">
<line x1="432" y1="445" x2="433" y2="445"/>
</g>
<path d="M440,446v -1" fill="none" stroke="#99ff99" stroke-width="2"/>
<path d="M440,445" fill="none" stroke="#99ff99" stroke-width="2"/>
<g stroke="black" stroke-width="2" fill="none">
<line x1="439" y1="445" x2="440" y2="445"/>
</g>
<path d="M448,446" fill="none" stroke="#99ff99" stroke-width="2"/>
<path d="M448,446" fill="none" stroke="#99ff99" stroke-width="2"/>
<g stroke="black" stroke-width="2" fill="none">
<line x1="447" y1="446" x2="448" y2="446"/>
</g>
<path d="M455,446" fill="none" stroke="#99ff99" stroke-width="2"/>
<path d="M455,446" fill="none" stroke="#99ff99" stroke-width="2"/>
<g stroke="black" stroke-width="2" fill="none">
<line x1="454" y1="446" x2="455" y2="446"/>
</g>
<path d="M463,446" fill="none" stroke="#99ff99" stroke-width="2"/>
<path d="M463,446" fill="none" stroke="#99ff99" stroke-width="2"/>
<g stroke="black" stroke-width="2" fill="none">
<line x1="462" y1="446" x2="463" y2="446"/>
</g>
<path d="M471,446" fill="none" stroke="#99ff99" stroke-width="2"/>
<path d="M471,446" fill="none" stroke="#99ff99" stroke-width="2"/>
<g stroke="black" stroke-width="2" fill="none">
<line x1="470" y1="446" x2="471" y2="446"/>
</g>
<path d="M478,446" fill="none" stroke="#99ff99" stroke-width="2"/>
<path d="M478,446" fill="none" stroke="#99ff99" stroke-width="2"/>
<g stroke="black" stroke-width="2" fill="none">
<line x1="477" y1="446" x2="478" y2="446"/>
</g>
<path d="M486,446" fill="none" stroke="#99ff99" stroke-width="2"/>
<path d="M486,446v -1" fill="none" stroke="#99ff99" stroke-width="2"/>
<g stroke="black" stroke-width="2" fill="none">
<line x1="485" y1="446" x2="486" y2="446"/>
</g>
<path d="M493,446" fill="none" stroke="#99ff99" stroke-width="2"/>
<path d="M493,446" fill="none" stroke="#99ff99" stroke-width="2"/>
<g stroke="black" stroke-width="2" fill="none">
<line x1="492" y1="446" x2="493" y2="446"/>
</g>
<path d="M501,446" fill="none" stroke="#99ff99" stroke-width="2"/>
<path d="M501,446" fill="none" stroke="#99ff99" stroke-width="2"/>
<g stroke="black" stroke-width="2" fill="none">
<line x1="500" y1="446" x2="501" y2="446"/>
</g>
<path d="M508,446" fill="none" stroke="#99ff99" stroke-width="2"/>
<path d="M508,446" fill="none" stroke="#99ff99" stroke-width="2"/>
<g stroke="black" stroke-width="2" fill="none">
<line x1="507" y1="446" x2="508" y2="446"/>
</g>
<path d="M516,446" fill="none" stroke="#99ff99" stroke-width="2"/>
<path d="M516,446" fill="none" stroke="#99ff99" stroke-width="2"/>
<g stroke="black" stroke-width="2" fill="none">
<line x1="515" y1="446" x2="516" y2="446"/>
</g>
<path d="M523,446" fill="none" stroke="#99ff99" stroke-width="2"/>
<path d="M523,446" fill="none" stroke="#99ff99" stroke-width="2"/>
<g stroke="black" stroke-width="2" fill="none">
<line x1="522" y1="446" x2="523" y2="446"/>
</g>
<path d="M74,446v -331h 7v 300h 8v -15h 7v 10h 8v 6h 7v 2h 8v 3h 8v 3h 7v 1h 8v 1h 7v 1h 8v 4h 7v 1h 8v 1h 8v 1h 7v 2h 8v 1h 15v 1h 15v 1h 7v 1h 16v 1h 7v 1h 30v 1h 31v 1h 45v 1h 83v 1h 83z" fill="#99ff99"/>
<path d="M74,115h 7v 300h 8v -15h 7v 10h 8v 6h 7v 2h 8v 3h 8v 3h 7v 1h 8v 1h 7v 1h 8v 4h 7v 1h 8v 1h 8v 1h 7v 2h 8v 1h 15v 1h 15v 1h 7v 1h 16v 1h 7v 1h 30v 1h 31v 1h 45v 1h 83v 1h 83" fill="none" stroke="#99ff99" stroke-width="2"/>
<path d="M77,67v -1" fill="none" stroke="#ff0099"/>
<path d="M77,64v -1" fill="none" stroke="#ff0099"/>
<path d="M74,65h 2" fill="none" stroke="#ff0099"/>
<path d="M79,65h 2" fill="none" stroke="#ff0099"/>
<g stroke="#ff0099" stroke-width="1" fill="#ff0099">
<circle cx=" 77" cy=" 65" r=" 1.5"/>
</g>
<path d="M81,410h 3" fill="none" stroke="#ff0099"/>
<path d="M86,410h 3" fill="none" stroke="#ff0099"/>
<g stroke="#ff0099" stroke-width="1" fill="#ff0099">
<circle cx=" 85" cy=" 410" r=" 1.5"/>
</g>
<path d="M89,395h 2" fill="none" stroke="#ff0099"/>
<path d="M94,395h 2" fill="none" stroke="#ff0099"/>
<g stroke="#ff0099" stroke-width="1" fill="#ff0099">
<circle cx=" 93" cy=" 395" r=" 1.5"/>
</g>
<path d="M96,408h 3" fill="none" stroke="#ff0099"/>
<path d="M101,408h 3" fill="none" stroke="#ff0099"/>
<g stroke="#ff0099" stroke-width="1" fill="#ff0099">
<circle cx=" 100" cy=" 408" r=" 1.5"/>
</g>
<path d="M104,415h 3" fill="none" stroke="#ff0099"/>
<path d="M109,415h 2" fill="none" stroke="#ff0099"/>
<g stroke="#ff0099" stroke-width="1" fill="#ff0099">
<circle cx=" 108" cy=" 415" r=" 1.5"/>
</g>
<path d="M111,418h 3" fill="none" stroke="#ff0099"/>
<path d="M116,418h 3" fill="none" stroke="#ff0099"/>
<g stroke="#ff0099" stroke-width="1" fill="#ff0099">
<circle cx=" 115" cy=" 418" r=" 1.5"/>
</g>
<path d="M119,421h 3" fill="none" stroke="#ff0099"/>
<path d="M124,421h 3" fill="none" stroke="#ff0099"/>
<g stroke="#ff0099" stroke-width="1" fill="#ff0099">
<circle cx=" 123" cy=" 421" r=" 1.5"/>
</g>
<path d="M127,424h 2" fill="none" stroke="#ff0099"/>
<path d="M132,424h 2" fill="none" stroke="#ff0099"/>
<g stroke="#ff0099" stroke-width="1" fill="#ff0099">
<circle cx=" 130" cy=" 424" r=" 1.5"/>
</g>
<path d="M134,425h 3" fill="none" stroke="#ff0099"/>
<path d="M139,425h 3" fill="none" stroke="#ff0099"/>
<g stroke="#ff0099" stroke-width="1" fill="#ff0099">
<circle cx=" 138" cy=" 425" r=" 1.5"/>
</g>
<path d="M142,427h 2" fill="none" stroke="#ff0099"/>
<path d="M147,427h 2" fill="none" stroke="#ff0099"/>
<g stroke="#ff0099" stroke-width="1" fill="#ff0099">
<circle cx=" 146" cy=" 427" r=" 1.5"/>
</g>
<path d="M149,430h 3" fill="none" stroke="#ff0099"/>
<path d="M154,430h 3" fill="none" stroke="#ff0099"/>
<g stroke="#ff0099" stroke-width="1" fill="#ff0099">
<circle cx=" 153" cy=" 430" r=" 1.5"/>
</g>
<path d="M157,431h 2" fill="none" stroke="#ff0099"/>
<path d="M162,431h 2" fill="none" stroke="#ff0099"/>
<g stroke="#ff0099" stroke-width="1" fill="#ff0099">
<circle cx=" 161" cy=" 431" r=" 1.5"/>
</g>
<path d="M164,433h 3" fill="none" stroke="#ff0099"/>
<path d="M169,433h 3" fill="none" stroke="#ff0099"/>
<g stroke="#ff0099" stroke-width="1" fill="#ff0099">
<circle cx=" 168" cy=" 433" r=" 1.5"/>
</g>
<path d="M172,435h 3" fill="none" stroke="#ff0099"/>
<path d="M177,435h 3" fill="none" stroke="#ff0099"/>
<g stroke="#ff0099" stroke-width="1" fill="#ff0099">
<circle cx=" 176" cy=" 435" r=" 1.5"/>
</g>
<path d="M180,436h 2" fill="none" stroke="#ff0099"/>
<path d="M184,436h 3" fill="none" stroke="#ff0099"/>
<g stroke="#ff0099" stroke-width="1" fill="#ff0099">
<circle cx=" 183" cy=" 436" r=" 1.5"/>
</g>
<path d="M187,437h 3" fill="none" stroke="#ff0099"/>
<path d="M192,437h 3" fill="none" stroke="#ff0099"/>
<g stroke="#ff0099" stroke-width="1" fill="#ff0099">
<circle cx=" 191" cy=" 437" r=" 1.5"/>
</g>
<path d="M195,439h 2" fill="none" stroke="#ff0099"/>
<path d="M200,439h 2" fill="none" stroke="#ff0099"/>
<g stroke="#ff0099" stroke-width="1" fill="#ff0099">
<circle cx=" 198" cy=" 439" r=" 1.5"/>
</g>
<path d="M202,440h 3" fill="none" stroke="#ff0099"/>
<path d="M207,440h 3" fill="none" stroke="#ff0099"/>
<g stroke="#ff0099" stroke-width="1" fill="#ff0099">
<circle cx=" 206" cy=" 440" r=" 1.5"/>
</g>
<path d="M210,440h 2" fill="none" stroke="#ff0099"/>
<path d="M215,440h 2" fill="none" stroke="#ff0099"/>
<g stroke="#ff0099" stroke-width="1" fill="#ff0099">
<circle cx=" 214" cy=" 440" r=" 1.5"/>
</g>
<path d="M217,441h 3" fill="none" stroke="#ff0099"/>
<path d="M222,441h 3" fill="none" stroke="#ff0099"/>
<g stroke="#ff0099" stroke-width="1" fill="#ff0099">
<circle cx=" 221" cy=" 441" r=" 1.5"/>
</g>
<path d="M225,441h 3" fill="none" stroke="#ff0099"/>
<path d="M230,441h 2" fill="none" stroke="#ff0099"/>
<g stroke="#ff0099" stroke-width="1" fill="#ff0099">
<circle cx=" 229" cy=" 441" r=" 1.5"/>
</g>
<path d="M232,442h 3" fill="none" stroke="#ff0099"/>
<path d="M237,442h 3" fill="none" stroke="#ff0099"/>
<g stroke="#ff0099" stroke-width="1" fill="#ff0099">
<circle cx=" 236" cy=" 442" r=" 1.5"/>
</g>
<path d="M240,443h 3" fill="none" stroke="#ff0099"/>
<path d="M245,443h 3" fill="none" stroke="#ff0099"/>
<g stroke="#ff0099" stroke-width="1" fill="#ff0099">
<circle cx=" 244" cy=" 443" r=" 1.5"/>
</g>
<path d="M248,443h 2" fill="none" stroke="#ff0099"/>
<path d="M252,443h 3" fill="none" stroke="#ff0099"/>
<g stroke="#ff0099" stroke-width="1" fill="#ff0099">
<circle cx=" 251" cy=" 443" r=" 1.5"/>
</g>
<path d="M255,443h 3" fill="none" stroke="#ff0099"/>
<path d="M260,443h 3" fill="none" stroke="#ff0099"/>
<g stroke="#ff0099" stroke-width="1" fill="#ff0099">
<circle cx=" 259" cy=" 443" r=" 1.5"/>
</g>
<path d="M263,443h 2" fill="none" stroke="#ff0099"/>
<path d="M268,443h 2" fill="none" stroke="#ff0099"/>
<g stroke="#ff0099" stroke-width="1" fill="#ff0099">
<circle cx=" 266" cy=" 443" r=" 1.5"/>
</g>
<path d="M270,444h 3" fill="none" stroke="#ff0099"/>
<path d="M275,444h 3" fill="none" stroke="#ff0099"/>
<g stroke="#ff0099" stroke-width="1" fill="#ff0099">
<circle cx=" 274" cy=" 444" r=" 1.5"/>
</g>
<path d="M278,444h 2" fill="none" stroke="#ff0099"/>
<path d="M283,444h 2" fill="none" stroke="#ff0099"/>
<g stroke="#ff0099" stroke-width="1" fill="#ff0099">
<circle cx=" 282" cy=" 444" r=" 1.5"/>
</g>
<path d="M285,444h 3" fill="none" stroke="#ff0099"/>
<path d="M290,444h 3" fill="none" stroke="#ff0099"/>
<g stroke="#ff0099" stroke-width="1" fill="#ff0099">
<circle cx=" 289" cy=" 444" r=" 1.5"/>
</g>
<path d="M293,445h 3" fill="none" stroke="#ff0099"/>
<path d="M298,445h 2" fill="none" stroke="#ff0099"/>
<g stroke="#ff0099" stroke-width="1" fill="#ff0099">
<circle cx=" 297" cy=" 445" r=" 1.5"/>
</g>
<path d="M300,445h 3" fill="none" stroke="#ff0099"/>
<path d="M305,445h 3" fill="none" stroke="#ff0099"/>
<g stroke="#ff0099" stroke-width="1" fill="#ff0099">
<circle cx=" 304" cy=" 445" r=" 1.5"/>
</g>
<path d="M308,445h 3" fill="none" stroke="#ff0099"/>
<path d="M313,445h 3" fill="none" stroke="#ff0099"/>
<g stroke="#ff0099" stroke-width="1" fill="#ff0099">
<circle cx=" 312" cy=" 445" r=" 1.5"/>
</g>
<path d="M316,445h 2" fill="none" stroke="#ff0099"/>
<path d="M321,445h 2" fill="none" stroke="#ff0099"/>
<g stroke="#ff0099" stroke-width="1" fill="#ff0099">
<circle cx=" 319" cy=" 445" r=" 1.5"/>
</g>
<path d="M323,445h 3" fill="none" stroke="#ff0099"/>
<path d="M328,445h 3" fill="none" stroke="#ff0099"/>
<g stroke="#ff0099" stroke-width="1" fill="#ff0099">
<circle cx=" 327" cy=" 445" r=" 1.5"/>
</g>
<path d="M331,445h 2" fill="none" stroke="#ff0099"/>
<path d="M336,445h 2" fill="none" stroke="#ff0099"/>
<g stroke="#ff0099" stroke-width="1" fill="#ff0099">
<circle cx=" 334" cy=" 445" r=" 1.5"/>
</g>
<path d="M338,445h 3" fill="none" stroke="#ff0099"/>
<path d="M343,445h 3" fill="none" stroke="#ff0099"/>
<g stroke="#ff0099" stroke-width="1" fill="#ff0099">
<circle cx=" 342" cy=" 445" r=" 1.5"/>
</g>
<path d="M346,445h 2" fill="none" stroke="#ff0099"/>
<path d="M351,445h 2" fill="none" stroke="#ff0099"/>
<g stroke="#ff0099" stroke-width="1" fill="#ff0099">
<circle cx=" 350" cy=" 445" r=" 1.5"/>
</g>
<path d="M353,446h 3" fill="none" stroke="#ff0099"/>
<path d="M358,446h 3" fill="none" stroke="#ff0099"/>
<g stroke="#ff0099" stroke-width="1" fill="#ff0099">
<circle cx=" 357" cy=" 446" r=" 1.5"/>
</g>
<path d="M361,446h 3" fill="none" stroke="#ff0099"/>
<path d="M366,446h 3" fill="none" stroke="#ff0099"/>
<g stroke="#ff0099" stroke-width="1" fill="#ff0099">
<circle cx=" 365" cy=" 446" r=" 1.5"/>
</g>
<path d="M369,446h 2" fill="none" stroke="#ff0099"/>
<path d="M373,446h 3" fill="none" stroke="#ff0099"/>
<g stroke="#ff0099" stroke-width="1" fill="#ff0099">
<circle cx=" 372" cy=" 446" r=" 1.5"/>
</g>
<path d="M376,446h 3" fill="none" stroke="#ff0099"/>
<path d="M381,446h 3" fill="none" stroke="#ff0099"/>
<g stroke="#ff0099" stroke-width="1" fill="#ff0099">
<circle cx=" 380" cy=" 446" r=" 1.5"/>
</g>
<path d="M384,446h 2" fill="none" stroke="#ff0099"/>
<path d="M389,446h 2" fill="none" stroke="#ff0099"/>
<g stroke="#ff0099" stroke-width="1" fill="#ff0099">
<circle cx=" 387" cy=" 446" r=" 1.5"/>
</g>
<path d="M391,446h 3" fill="none" stroke="#ff0099"/>
<path d="M396,446h 3" fill="none" stroke="#ff0099"/>
<g stroke="#ff0099" stroke-width="1" fill="#ff0099">
<circle cx=" 395" cy=" 446" r=" 1.5"/>
</g>
<path d="M399,446h 2" fill="none" stroke="#ff0099"/>
<path d="M404,446h 2" fill="none" stroke="#ff0099"/>
<g stroke="#ff0099" stroke-width="1" fill="#ff0099">
<circle cx=" 403" cy=" 446" r=" 1.5"/>
</g>
<path d="M406,446h 3" fill="none" stroke="#ff0099"/>
<path d="M411,446h 3" fill="none" stroke="#ff0099"/>
<g stroke="#ff0099" stroke-width="1" fill="#ff0099">
<circle cx=" 410" cy=" 446" r=" 1.5"/>
</g>
<path d="M414,446h 2" fill="none" stroke="#ff0099"/>
<path d="M419,446h 2" fill="none" stroke="#ff0099"/>
<g stroke="#ff0099" stroke-width="1" fill="#ff0099">
<circle cx=" 418" cy=" 446" r=" 1.5"/>
</g>
<path d="M421,446h 3" fill="none" stroke="#ff0099"/>
<path d="M426,446h 3" fill="none" stroke="#ff0099"/>
<g stroke="#ff0099" stroke-width="1" fill="#ff0099">
<circle cx=" 425" cy=" 446" r=" 1.5"/>
</g>
<path d="M429,446h 3" fill="none" stroke="#ff0099"/>
<path d="M434,446h 3" fill="none" stroke="#ff0099"/>
<g stroke="#ff0099" stroke-width="1" fill="#ff0099">
<circle cx=" 433" cy=" 446" r=" 1.5"/>
</g>
<path d="M437,446h 2" fill="none" stroke="#ff0099"/>
<path d="M441,446h 3" fill="none" stroke="#ff0099"/>
<g stroke="#ff0099" stroke-width="1" fill="#ff0099">
<circle cx=" 440" cy=" 446" r=" 1.5"/>
</g>
<path d="M444,446h 3" fill="none" stroke="#ff0099"/>
<path d="M449,446h 3" fill="none" stroke="#ff0099"/>
<g stroke="#ff0099" stroke-width="1" fill="#ff0099">
<circle cx=" 448" cy=" 446" r=" 1.5"/>
</g>
<path d="M452,446h 2" fill="none" stroke="#ff0099"/>
<path d="M457,446h 2" fill="none" stroke="#ff0099"/>
<g stroke="#ff0099" stroke-width="1" fill="#ff0099">
<circle cx=" 455" cy=" 446" r=" 1.5"/>
</g>
<path d="M459,446h 3" fill="none" stroke="#ff0099"/>
<path d="M464,446h 3" fill="none" stroke="#ff0099"/>
<g stroke="#ff0099" stroke-width="1" fill="#ff0099">
<circle cx=" 463" cy=" 446" r=" 1.5"/>
</g>
<path d="M467,446h 2" fill="none" stroke="#ff0099"/>
<path d="M472,446h 2" fill="none" stroke="#ff0099"/>
<g stroke="#ff0099" stroke-width="1" fill="#ff0099">
<circle cx=" 471" cy=" 446" r=" 1.5"/>
</g>
<path d="M474,446h 3" fill="none" stroke="#ff0099"/>
<path d="M479,446h 3" fill="none" stroke="#ff0099"/>
<g stroke="#ff0099" stroke-width="1" fill="#ff0099">
<circle cx=" 478" cy=" 446" r=" 1.5"/>
</g>
<path d="M482,446h 3" fill="none" stroke="#ff0099"/>
<path d="M487,446h 2" fill="none" stroke="#ff0099"/>
<g stroke="#ff0099" stroke-width="1" fill="#ff0099">
<circle cx=" 486" cy=" 446" r=" 1.5"/>
</g>
<path d="M489,446h 3" fill="none" stroke="#ff0099"/>
<path d="M494,446h 3" fill="none" stroke="#ff0099"/>
<g stroke="#ff0099" stroke-width="1" fill="#ff0099">
<circle cx=" 493" cy=" 446" r=" 1.5"/>
</g>
<path d="M497,446h 3" fill="none" stroke="#ff0099"/>
<path d="M502,446h 3" fill="none" stroke="#ff0099"/>
<g stroke="#ff0099" stroke-width="1" fill="#ff0099">
<circle cx=" 501" cy=" 446" r=" 1.5"/>
</g>
<path d="M505,446h 2" fill="none" stroke="#ff0099"/>
<path d="M509,446h 3" fill="none" stroke="#ff0099"/>
<g stroke="#ff0099" stroke-width="1" fill="#ff0099">
<circle cx=" 508" cy=" 446" r=" 1.5"/>
</g>
<path d="M512,446h 3" fill="none" stroke="#ff0099"/>
<path d="M517,446h 3" fill="none" stroke="#ff0099"/>
<g stroke="#ff0099" stroke-width="1" fill="#ff0099">
<circle cx=" 516" cy=" 446" r=" 1.5"/>
</g>
<path d="M520,446h 2" fill="none" stroke="#ff0099"/>
<path d="M525,446h 2" fill="none" stroke="#ff0099"/>
<g stroke="#ff0099" stroke-width="1" fill="#ff0099">
<circle cx=" 523" cy=" 446" r=" 1.5"/>
</g>
<rect x="357" y="59" width="142" height="99" fill="white"/>
<text x="360" y="82" fill="black" font-size="17" font-family="Helvetica" font-weight="bold">
EE
</text>
<text x="457" y="115" fill="black" font-size="17" font-family="Helvetica" font-weight="bold">
 ee
</text>
<text x="440" y="115" fill="black" font-size="17" font-family="Times">
&#8594;
</text>
<text x="392" y="115" fill="black" font-size="17" font-family="Helvetica" font-weight="bold">
MC Z 
</text>
<path d="M362,109h 25" fill="none" stroke="#ff0099"/>
<g stroke="#ff0099" stroke-width="1" fill="#ff0099">
<circle cx=" 375" cy=" 109" r=" 1.5"/>
</g>
<text x="455" y="147" fill="black" font-size="17" font-family="Helvetica" font-weight="bold">
 + jet
</text>
<text x="447" y="147" fill="black" font-size="17" font-family="Times">
&#0947;
</text>
<text x="392" y="147" fill="black" font-size="17" font-family="Helvetica" font-weight="bold">
signal 
</text>
<path d="M362,154h 25v -24h -25z" fill="#99ff99"/>
<path d="M362,130h 25" fill="none" stroke="#99ff99" stroke-width="2"/>
<path d="M362,154h 25" fill="none" stroke="#99ff99" stroke-width="2"/>
<path d="M387,154v -24" fill="none" stroke="#99ff99" stroke-width="2"/>
<path d="M362,154v -24" fill="none" stroke="#99ff99" stroke-width="2"/>
<text x="300" y="34" fill="black" font-size="17" font-family="Helvetica" font-weight="bold">
=8 TeV
</text>
<text x="291" y="34" fill="black" font-size="17" font-family="Helvetica" font-weight="bold">
s
</text>
<path d="M285,25l 2, 10" fill="none" stroke="black" stroke-width="2"/>
<path d="M287,35l 2, -14" fill="none" stroke="black"/>
<path d="M289,21h 11" fill="none" stroke="black"/>
<text x="142" y="34" fill="black" font-size="17" font-family="Helvetica" font-weight="bold">
CMS Preliminary 
</text></svg>
