<?xml version="1.0" standalone="no"?>
<svg width="567" height="496" viewBox="0 0 567 496" xmlns="http://www.w3.org/2000/svg">
<title>
../src/TagAndProbeZ/plots_mcZee_mcGJet_withEtaR9Reweight/hlt30//r9PhotEE.svg
</title>
<desc>
Creator: ROOT Version 5.32/00
CreationDate: Sat Sep 27 23:43:14 2014</desc>
<defs>
</defs>
<rect x="0" y="0" width="567" height="496" fill="white"/>
<rect x="74" y="44" width="453" height="402" fill="white"/>
<rect x="74" y="44" width="453" height="402" fill="none" stroke="black"/>
<rect x="74" y="44" width="453" height="402" fill="white"/>
<rect x="74" y="44" width="453" height="402" fill="none" stroke="black"/>
<path d="M263,446h 2" fill="none" stroke="#ff0099"/>
<path d="M268,446h 2" fill="none" stroke="#ff0099"/>
<g stroke="#ff0099" stroke-width="1" fill="#ff0099">
<circle cx=" 266" cy=" 446" r=" 1.5"/>
</g>
<path d="M270,446h 3" fill="none" stroke="#ff0099"/>
<path d="M275,446h 3" fill="none" stroke="#ff0099"/>
<g stroke="#ff0099" stroke-width="1" fill="#ff0099">
<circle cx=" 274" cy=" 446" r=" 1.5"/>
</g>
<path d="M278,446h 2" fill="none" stroke="#ff0099"/>
<path d="M283,446h 2" fill="none" stroke="#ff0099"/>
<g stroke="#ff0099" stroke-width="1" fill="#ff0099">
<circle cx=" 282" cy=" 446" r=" 1.5"/>
</g>
<path d="M285,446h 3" fill="none" stroke="#ff0099"/>
<path d="M290,446h 3" fill="none" stroke="#ff0099"/>
<g stroke="#ff0099" stroke-width="1" fill="#ff0099">
<circle cx=" 289" cy=" 446" r=" 1.5"/>
</g>
<path d="M293,446h 3" fill="none" stroke="#ff0099"/>
<path d="M298,446h 2" fill="none" stroke="#ff0099"/>
<g stroke="#ff0099" stroke-width="1" fill="#ff0099">
<circle cx=" 297" cy=" 446" r=" 1.5"/>
</g>
<path d="M300,446h 3" fill="none" stroke="#ff0099"/>
<path d="M305,446h 3" fill="none" stroke="#ff0099"/>
<g stroke="#ff0099" stroke-width="1" fill="#ff0099">
<circle cx=" 304" cy=" 446" r=" 1.5"/>
</g>
<path d="M308,446h 3" fill="none" stroke="#ff0099"/>
<path d="M313,446h 3" fill="none" stroke="#ff0099"/>
<g stroke="#ff0099" stroke-width="1" fill="#ff0099">
<circle cx=" 312" cy=" 446" r=" 1.5"/>
</g>
<path d="M316,446h 2" fill="none" stroke="#ff0099"/>
<path d="M321,446h 2" fill="none" stroke="#ff0099"/>
<g stroke="#ff0099" stroke-width="1" fill="#ff0099">
<circle cx=" 319" cy=" 446" r=" 1.5"/>
</g>
<path d="M323,446h 3" fill="none" stroke="#ff0099"/>
<path d="M328,446h 3" fill="none" stroke="#ff0099"/>
<g stroke="#ff0099" stroke-width="1" fill="#ff0099">
<circle cx=" 327" cy=" 446" r=" 1.5"/>
</g>
<path d="M331,446h 2" fill="none" stroke="#ff0099"/>
<path d="M336,446h 2" fill="none" stroke="#ff0099"/>
<g stroke="#ff0099" stroke-width="1" fill="#ff0099">
<circle cx=" 334" cy=" 446" r=" 1.5"/>
</g>
<path d="M338,445h 3" fill="none" stroke="#ff0099"/>
<path d="M343,445h 3" fill="none" stroke="#ff0099"/>
<g stroke="#ff0099" stroke-width="1" fill="#ff0099">
<circle cx=" 342" cy=" 445" r=" 1.5"/>
</g>
<path d="M346,446h 2" fill="none" stroke="#ff0099"/>
<path d="M351,446h 2" fill="none" stroke="#ff0099"/>
<g stroke="#ff0099" stroke-width="1" fill="#ff0099">
<circle cx=" 350" cy=" 446" r=" 1.5"/>
</g>
<path d="M353,445h 3" fill="none" stroke="#ff0099"/>
<path d="M358,445h 3" fill="none" stroke="#ff0099"/>
<g stroke="#ff0099" stroke-width="1" fill="#ff0099">
<circle cx=" 357" cy=" 445" r=" 1.5"/>
</g>
<path d="M361,445h 3" fill="none" stroke="#ff0099"/>
<path d="M366,445h 3" fill="none" stroke="#ff0099"/>
<g stroke="#ff0099" stroke-width="1" fill="#ff0099">
<circle cx=" 365" cy=" 445" r=" 1.5"/>
</g>
<path d="M369,445h 2" fill="none" stroke="#ff0099"/>
<path d="M373,445h 3" fill="none" stroke="#ff0099"/>
<g stroke="#ff0099" stroke-width="1" fill="#ff0099">
<circle cx=" 372" cy=" 445" r=" 1.5"/>
</g>
<path d="M376,445h 3" fill="none" stroke="#ff0099"/>
<path d="M381,445h 3" fill="none" stroke="#ff0099"/>
<g stroke="#ff0099" stroke-width="1" fill="#ff0099">
<circle cx=" 380" cy=" 445" r=" 1.5"/>
</g>
<path d="M384,443h 2" fill="none" stroke="#ff0099"/>
<path d="M389,443h 2" fill="none" stroke="#ff0099"/>
<g stroke="#ff0099" stroke-width="1" fill="#ff0099">
<circle cx=" 387" cy=" 443" r=" 1.5"/>
</g>
<path d="M391,445h 3" fill="none" stroke="#ff0099"/>
<path d="M396,445h 3" fill="none" stroke="#ff0099"/>
<g stroke="#ff0099" stroke-width="1" fill="#ff0099">
<circle cx=" 395" cy=" 445" r=" 1.5"/>
</g>
<path d="M399,444h 2" fill="none" stroke="#ff0099"/>
<path d="M404,444h 2" fill="none" stroke="#ff0099"/>
<g stroke="#ff0099" stroke-width="1" fill="#ff0099">
<circle cx=" 403" cy=" 444" r=" 1.5"/>
</g>
<path d="M406,442h 3" fill="none" stroke="#ff0099"/>
<path d="M411,442h 3" fill="none" stroke="#ff0099"/>
<g stroke="#ff0099" stroke-width="1" fill="#ff0099">
<circle cx=" 410" cy=" 442" r=" 1.5"/>
</g>
<path d="M414,443h 2" fill="none" stroke="#ff0099"/>
<path d="M419,443h 2" fill="none" stroke="#ff0099"/>
<g stroke="#ff0099" stroke-width="1" fill="#ff0099">
<circle cx=" 418" cy=" 443" r=" 1.5"/>
</g>
<path d="M421,443h 3" fill="none" stroke="#ff0099"/>
<path d="M426,443h 3" fill="none" stroke="#ff0099"/>
<g stroke="#ff0099" stroke-width="1" fill="#ff0099">
<circle cx=" 425" cy=" 443" r=" 1.5"/>
</g>
<path d="M429,442h 3" fill="none" stroke="#ff0099"/>
<path d="M434,442h 3" fill="none" stroke="#ff0099"/>
<g stroke="#ff0099" stroke-width="1" fill="#ff0099">
<circle cx=" 433" cy=" 442" r=" 1.5"/>
</g>
<path d="M437,442h 2" fill="none" stroke="#ff0099"/>
<path d="M441,442h 3" fill="none" stroke="#ff0099"/>
<g stroke="#ff0099" stroke-width="1" fill="#ff0099">
<circle cx=" 440" cy=" 442" r=" 1.5"/>
</g>
<path d="M444,439h 3" fill="none" stroke="#ff0099"/>
<path d="M449,439h 3" fill="none" stroke="#ff0099"/>
<g stroke="#ff0099" stroke-width="1" fill="#ff0099">
<circle cx=" 448" cy=" 439" r=" 1.5"/>
</g>
<path d="M452,439h 2" fill="none" stroke="#ff0099"/>
<path d="M457,439h 2" fill="none" stroke="#ff0099"/>
<g stroke="#ff0099" stroke-width="1" fill="#ff0099">
<circle cx=" 455" cy=" 439" r=" 1.5"/>
</g>
<path d="M459,438h 3" fill="none" stroke="#ff0099"/>
<path d="M464,438h 3" fill="none" stroke="#ff0099"/>
<g stroke="#ff0099" stroke-width="1" fill="#ff0099">
<circle cx=" 463" cy=" 438" r=" 1.5"/>
</g>
<path d="M467,436h 2" fill="none" stroke="#ff0099"/>
<path d="M472,436h 2" fill="none" stroke="#ff0099"/>
<g stroke="#ff0099" stroke-width="1" fill="#ff0099">
<circle cx=" 471" cy=" 436" r=" 1.5"/>
</g>
<path d="M474,432h 3" fill="none" stroke="#ff0099"/>
<path d="M479,432h 3" fill="none" stroke="#ff0099"/>
<g stroke="#ff0099" stroke-width="1" fill="#ff0099">
<circle cx=" 478" cy=" 432" r=" 1.5"/>
</g>
<path d="M482,427h 3" fill="none" stroke="#ff0099"/>
<path d="M487,427h 2" fill="none" stroke="#ff0099"/>
<g stroke="#ff0099" stroke-width="1" fill="#ff0099">
<circle cx=" 486" cy=" 427" r=" 1.5"/>
</g>
<path d="M489,409h 3" fill="none" stroke="#ff0099"/>
<path d="M494,409h 3" fill="none" stroke="#ff0099"/>
<g stroke="#ff0099" stroke-width="1" fill="#ff0099">
<circle cx=" 493" cy=" 409" r=" 1.5"/>
</g>
<path d="M497,363h 3" fill="none" stroke="#ff0099"/>
<path d="M502,363h 3" fill="none" stroke="#ff0099"/>
<g stroke="#ff0099" stroke-width="1" fill="#ff0099">
<circle cx=" 501" cy=" 363" r=" 1.5"/>
</g>
<path d="M505,189h 2" fill="none" stroke="#ff0099"/>
<path d="M509,189h 3" fill="none" stroke="#ff0099"/>
<g stroke="#ff0099" stroke-width="1" fill="#ff0099">
<circle cx=" 508" cy=" 189" r=" 1.5"/>
</g>
<path d="M516,68v -1" fill="none" stroke="#ff0099"/>
<path d="M516,65v -2" fill="none" stroke="#ff0099"/>
<path d="M512,66h 3" fill="none" stroke="#ff0099"/>
<path d="M517,66h 3" fill="none" stroke="#ff0099"/>
<g stroke="#ff0099" stroke-width="1" fill="#ff0099">
<circle cx=" 516" cy=" 66" r=" 1.5"/>
</g>
<path d="M520,446h 2" fill="none" stroke="#ff0099"/>
<path d="M525,446h 2" fill="none" stroke="#ff0099"/>
<g stroke="#ff0099" stroke-width="1" fill="#ff0099">
<circle cx=" 523" cy=" 446" r=" 1.5"/>
</g>
<path d="M74,446h 453" fill="none" stroke="black"/>
<path d="M74,434v 12" fill="none" stroke="black"/>
<path d="M83,440v 6" fill="none" stroke="black"/>
<path d="M92,440v 6" fill="none" stroke="black"/>
<path d="M101,440v 6" fill="none" stroke="black"/>
<path d="M110,440v 6" fill="none" stroke="black"/>
<path d="M119,434v 12" fill="none" stroke="black"/>
<path d="M128,440v 6" fill="none" stroke="black"/>
<path d="M137,440v 6" fill="none" stroke="black"/>
<path d="M146,440v 6" fill="none" stroke="black"/>
<path d="M155,440v 6" fill="none" stroke="black"/>
<path d="M164,434v 12" fill="none" stroke="black"/>
<path d="M173,440v 6" fill="none" stroke="black"/>
<path d="M183,440v 6" fill="none" stroke="black"/>
<path d="M192,440v 6" fill="none" stroke="black"/>
<path d="M201,440v 6" fill="none" stroke="black"/>
<path d="M210,434v 12" fill="none" stroke="black"/>
<path d="M219,440v 6" fill="none" stroke="black"/>
<path d="M228,440v 6" fill="none" stroke="black"/>
<path d="M237,440v 6" fill="none" stroke="black"/>
<path d="M246,440v 6" fill="none" stroke="black"/>
<path d="M255,434v 12" fill="none" stroke="black"/>
<path d="M264,440v 6" fill="none" stroke="black"/>
<path d="M273,440v 6" fill="none" stroke="black"/>
<path d="M282,440v 6" fill="none" stroke="black"/>
<path d="M291,440v 6" fill="none" stroke="black"/>
<path d="M300,434v 12" fill="none" stroke="black"/>
<path d="M310,440v 6" fill="none" stroke="black"/>
<path d="M319,440v 6" fill="none" stroke="black"/>
<path d="M328,440v 6" fill="none" stroke="black"/>
<path d="M337,440v 6" fill="none" stroke="black"/>
<path d="M346,434v 12" fill="none" stroke="black"/>
<path d="M355,440v 6" fill="none" stroke="black"/>
<path d="M364,440v 6" fill="none" stroke="black"/>
<path d="M373,440v 6" fill="none" stroke="black"/>
<path d="M382,440v 6" fill="none" stroke="black"/>
<path d="M391,434v 12" fill="none" stroke="black"/>
<path d="M400,440v 6" fill="none" stroke="black"/>
<path d="M409,440v 6" fill="none" stroke="black"/>
<path d="M418,440v 6" fill="none" stroke="black"/>
<path d="M427,440v 6" fill="none" stroke="black"/>
<path d="M437,434v 12" fill="none" stroke="black"/>
<path d="M446,440v 6" fill="none" stroke="black"/>
<path d="M455,440v 6" fill="none" stroke="black"/>
<path d="M464,440v 6" fill="none" stroke="black"/>
<path d="M473,440v 6" fill="none" stroke="black"/>
<path d="M482,434v 12" fill="none" stroke="black"/>
<path d="M491,440v 6" fill="none" stroke="black"/>
<path d="M500,440v 6" fill="none" stroke="black"/>
<path d="M509,440v 6" fill="none" stroke="black"/>
<path d="M518,440v 6" fill="none" stroke="black"/>
<path d="M527,434v 12" fill="none" stroke="black"/>
<text x="68" y="465" fill="black" font-size="18" font-family="Helvetica" font-weight="bold">
0
</text>
<text x="107" y="465" fill="black" font-size="18" font-family="Helvetica" font-weight="bold">
0.1
</text>
<text x="151" y="465" fill="black" font-size="18" font-family="Helvetica" font-weight="bold">
0.2
</text>
<text x="196" y="465" fill="black" font-size="18" font-family="Helvetica" font-weight="bold">
0.3
</text>
<text x="242" y="465" fill="black" font-size="18" font-family="Helvetica" font-weight="bold">
0.4
</text>
<text x="287" y="465" fill="black" font-size="18" font-family="Helvetica" font-weight="bold">
0.5
</text>
<text x="332" y="465" fill="black" font-size="18" font-family="Helvetica" font-weight="bold">
0.6
</text>
<text x="378" y="465" fill="black" font-size="18" font-family="Helvetica" font-weight="bold">
0.7
</text>
<text x="423" y="465" fill="black" font-size="18" font-family="Helvetica" font-weight="bold">
0.8
</text>
<text x="468" y="465" fill="black" font-size="18" font-family="Helvetica" font-weight="bold">
0.9
</text>
<text x="523" y="465" fill="black" font-size="18" font-family="Helvetica" font-weight="bold">
1
</text>
<path d="M74,44h 453" fill="none" stroke="black"/>
<path d="M74,56v -12" fill="none" stroke="black"/>
<path d="M83,50v -6" fill="none" stroke="black"/>
<path d="M92,50v -6" fill="none" stroke="black"/>
<path d="M101,50v -6" fill="none" stroke="black"/>
<path d="M110,50v -6" fill="none" stroke="black"/>
<path d="M119,56v -12" fill="none" stroke="black"/>
<path d="M128,50v -6" fill="none" stroke="black"/>
<path d="M137,50v -6" fill="none" stroke="black"/>
<path d="M146,50v -6" fill="none" stroke="black"/>
<path d="M155,50v -6" fill="none" stroke="black"/>
<path d="M164,56v -12" fill="none" stroke="black"/>
<path d="M173,50v -6" fill="none" stroke="black"/>
<path d="M183,50v -6" fill="none" stroke="black"/>
<path d="M192,50v -6" fill="none" stroke="black"/>
<path d="M201,50v -6" fill="none" stroke="black"/>
<path d="M210,56v -12" fill="none" stroke="black"/>
<path d="M219,50v -6" fill="none" stroke="black"/>
<path d="M228,50v -6" fill="none" stroke="black"/>
<path d="M237,50v -6" fill="none" stroke="black"/>
<path d="M246,50v -6" fill="none" stroke="black"/>
<path d="M255,56v -12" fill="none" stroke="black"/>
<path d="M264,50v -6" fill="none" stroke="black"/>
<path d="M273,50v -6" fill="none" stroke="black"/>
<path d="M282,50v -6" fill="none" stroke="black"/>
<path d="M291,50v -6" fill="none" stroke="black"/>
<path d="M300,56v -12" fill="none" stroke="black"/>
<path d="M310,50v -6" fill="none" stroke="black"/>
<path d="M319,50v -6" fill="none" stroke="black"/>
<path d="M328,50v -6" fill="none" stroke="black"/>
<path d="M337,50v -6" fill="none" stroke="black"/>
<path d="M346,56v -12" fill="none" stroke="black"/>
<path d="M355,50v -6" fill="none" stroke="black"/>
<path d="M364,50v -6" fill="none" stroke="black"/>
<path d="M373,50v -6" fill="none" stroke="black"/>
<path d="M382,50v -6" fill="none" stroke="black"/>
<path d="M391,56v -12" fill="none" stroke="black"/>
<path d="M400,50v -6" fill="none" stroke="black"/>
<path d="M409,50v -6" fill="none" stroke="black"/>
<path d="M418,50v -6" fill="none" stroke="black"/>
<path d="M427,50v -6" fill="none" stroke="black"/>
<path d="M437,56v -12" fill="none" stroke="black"/>
<path d="M446,50v -6" fill="none" stroke="black"/>
<path d="M455,50v -6" fill="none" stroke="black"/>
<path d="M464,50v -6" fill="none" stroke="black"/>
<path d="M473,50v -6" fill="none" stroke="black"/>
<path d="M482,56v -12" fill="none" stroke="black"/>
<path d="M491,50v -6" fill="none" stroke="black"/>
<path d="M500,50v -6" fill="none" stroke="black"/>
<path d="M509,50v -6" fill="none" stroke="black"/>
<path d="M518,50v -6" fill="none" stroke="black"/>
<path d="M527,56v -12" fill="none" stroke="black"/>
<path d="M74,446v -402" fill="none" stroke="black"/>
<path d="M87,446h -13" fill="none" stroke="black"/>
<path d="M81,438h -7" fill="none" stroke="black"/>
<path d="M81,429h -7" fill="none" stroke="black"/>
<path d="M81,420h -7" fill="none" stroke="black"/>
<path d="M81,412h -7" fill="none" stroke="black"/>
<path d="M87,403h -13" fill="none" stroke="black"/>
<path d="M81,395h -7" fill="none" stroke="black"/>
<path d="M81,386h -7" fill="none" stroke="black"/>
<path d="M81,377h -7" fill="none" stroke="black"/>
<path d="M81,369h -7" fill="none" stroke="black"/>
<path d="M87,360h -13" fill="none" stroke="black"/>
<path d="M81,351h -7" fill="none" stroke="black"/>
<path d="M81,343h -7" fill="none" stroke="black"/>
<path d="M81,334h -7" fill="none" stroke="black"/>
<path d="M81,326h -7" fill="none" stroke="black"/>
<path d="M87,317h -13" fill="none" stroke="black"/>
<path d="M81,308h -7" fill="none" stroke="black"/>
<path d="M81,300h -7" fill="none" stroke="black"/>
<path d="M81,291h -7" fill="none" stroke="black"/>
<path d="M81,282h -7" fill="none" stroke="black"/>
<path d="M87,274h -13" fill="none" stroke="black"/>
<path d="M81,265h -7" fill="none" stroke="black"/>
<path d="M81,257h -7" fill="none" stroke="black"/>
<path d="M81,248h -7" fill="none" stroke="black"/>
<path d="M81,239h -7" fill="none" stroke="black"/>
<path d="M87,231h -13" fill="none" stroke="black"/>
<path d="M81,222h -7" fill="none" stroke="black"/>
<path d="M81,213h -7" fill="none" stroke="black"/>
<path d="M81,205h -7" fill="none" stroke="black"/>
<path d="M81,196h -7" fill="none" stroke="black"/>
<path d="M87,188h -13" fill="none" stroke="black"/>
<path d="M81,179h -7" fill="none" stroke="black"/>
<path d="M81,170h -7" fill="none" stroke="black"/>
<path d="M81,162h -7" fill="none" stroke="black"/>
<path d="M81,153h -7" fill="none" stroke="black"/>
<path d="M87,144h -13" fill="none" stroke="black"/>
<path d="M81,136h -7" fill="none" stroke="black"/>
<path d="M81,127h -7" fill="none" stroke="black"/>
<path d="M81,118h -7" fill="none" stroke="black"/>
<path d="M81,110h -7" fill="none" stroke="black"/>
<path d="M87,101h -13" fill="none" stroke="black"/>
<path d="M81,93h -7" fill="none" stroke="black"/>
<path d="M81,84h -7" fill="none" stroke="black"/>
<path d="M81,75h -7" fill="none" stroke="black"/>
<path d="M81,67h -7" fill="none" stroke="black"/>
<path d="M87,58h -13" fill="none" stroke="black"/>
<path d="M87,58h -13" fill="none" stroke="black"/>
<path d="M81,49h -7" fill="none" stroke="black"/>
<text x="61" y="453" fill="black" font-size="18" font-family="Helvetica" font-weight="bold">
0
</text>
<text x="34" y="410" fill="black" font-size="18" font-family="Helvetica" font-weight="bold">
0.05
</text>
<text x="47" y="367" fill="black" font-size="18" font-family="Helvetica" font-weight="bold">
0.1
</text>
<text x="34" y="324" fill="black" font-size="18" font-family="Helvetica" font-weight="bold">
0.15
</text>
<text x="45" y="280" fill="black" font-size="18" font-family="Helvetica" font-weight="bold">
0.2
</text>
<text x="34" y="237" fill="black" font-size="18" font-family="Helvetica" font-weight="bold">
0.25
</text>
<text x="45" y="194" fill="black" font-size="18" font-family="Helvetica" font-weight="bold">
0.3
</text>
<text x="34" y="151" fill="black" font-size="18" font-family="Helvetica" font-weight="bold">
0.35
</text>
<text x="44" y="108" fill="black" font-size="18" font-family="Helvetica" font-weight="bold">
0.4
</text>
<text x="34" y="65" fill="black" font-size="18" font-family="Helvetica" font-weight="bold">
0.45
</text>
<path d="M77,446" fill="none" stroke="#99ff99" stroke-width="2"/>
<path d="M77,446" fill="none" stroke="#99ff99" stroke-width="2"/>
<g stroke="black" stroke-width="2" fill="none">
<line x1="76" y1="446" x2="77" y2="446"/>
</g>
<path d="M85,446" fill="none" stroke="#99ff99" stroke-width="2"/>
<path d="M85,446" fill="none" stroke="#99ff99" stroke-width="2"/>
<g stroke="black" stroke-width="2" fill="none">
<line x1="84" y1="446" x2="85" y2="446"/>
</g>
<path d="M93,446" fill="none" stroke="#99ff99" stroke-width="2"/>
<path d="M93,446" fill="none" stroke="#99ff99" stroke-width="2"/>
<g stroke="black" stroke-width="2" fill="none">
<line x1="92" y1="446" x2="93" y2="446"/>
</g>
<path d="M100,446" fill="none" stroke="#99ff99" stroke-width="2"/>
<path d="M100,446" fill="none" stroke="#99ff99" stroke-width="2"/>
<g stroke="black" stroke-width="2" fill="none">
<line x1="99" y1="446" x2="100" y2="446"/>
</g>
<path d="M108,446" fill="none" stroke="#99ff99" stroke-width="2"/>
<path d="M108,446" fill="none" stroke="#99ff99" stroke-width="2"/>
<g stroke="black" stroke-width="2" fill="none">
<line x1="107" y1="446" x2="108" y2="446"/>
</g>
<path d="M115,446" fill="none" stroke="#99ff99" stroke-width="2"/>
<path d="M115,446" fill="none" stroke="#99ff99" stroke-width="2"/>
<g stroke="black" stroke-width="2" fill="none">
<line x1="114" y1="446" x2="115" y2="446"/>
</g>
<path d="M123,446" fill="none" stroke="#99ff99" stroke-width="2"/>
<path d="M123,446" fill="none" stroke="#99ff99" stroke-width="2"/>
<g stroke="black" stroke-width="2" fill="none">
<line x1="122" y1="446" x2="123" y2="446"/>
</g>
<path d="M130,446" fill="none" stroke="#99ff99" stroke-width="2"/>
<path d="M130,446" fill="none" stroke="#99ff99" stroke-width="2"/>
<g stroke="black" stroke-width="2" fill="none">
<line x1="129" y1="446" x2="130" y2="446"/>
</g>
<path d="M138,446" fill="none" stroke="#99ff99" stroke-width="2"/>
<path d="M138,446" fill="none" stroke="#99ff99" stroke-width="2"/>
<g stroke="black" stroke-width="2" fill="none">
<line x1="137" y1="446" x2="138" y2="446"/>
</g>
<path d="M146,446" fill="none" stroke="#99ff99" stroke-width="2"/>
<path d="M146,446" fill="none" stroke="#99ff99" stroke-width="2"/>
<g stroke="black" stroke-width="2" fill="none">
<line x1="145" y1="446" x2="146" y2="446"/>
</g>
<path d="M153,446" fill="none" stroke="#99ff99" stroke-width="2"/>
<path d="M153,446" fill="none" stroke="#99ff99" stroke-width="2"/>
<g stroke="black" stroke-width="2" fill="none">
<line x1="152" y1="446" x2="153" y2="446"/>
</g>
<path d="M161,446" fill="none" stroke="#99ff99" stroke-width="2"/>
<path d="M161,446" fill="none" stroke="#99ff99" stroke-width="2"/>
<g stroke="black" stroke-width="2" fill="none">
<line x1="160" y1="446" x2="161" y2="446"/>
</g>
<path d="M168,446" fill="none" stroke="#99ff99" stroke-width="2"/>
<path d="M168,446" fill="none" stroke="#99ff99" stroke-width="2"/>
<g stroke="black" stroke-width="2" fill="none">
<line x1="167" y1="446" x2="168" y2="446"/>
</g>
<path d="M176,446" fill="none" stroke="#99ff99" stroke-width="2"/>
<path d="M176,446" fill="none" stroke="#99ff99" stroke-width="2"/>
<g stroke="black" stroke-width="2" fill="none">
<line x1="175" y1="446" x2="176" y2="446"/>
</g>
<path d="M183,446" fill="none" stroke="#99ff99" stroke-width="2"/>
<path d="M183,446" fill="none" stroke="#99ff99" stroke-width="2"/>
<g stroke="black" stroke-width="2" fill="none">
<line x1="182" y1="446" x2="183" y2="446"/>
</g>
<path d="M191,446" fill="none" stroke="#99ff99" stroke-width="2"/>
<path d="M191,446" fill="none" stroke="#99ff99" stroke-width="2"/>
<g stroke="black" stroke-width="2" fill="none">
<line x1="190" y1="446" x2="191" y2="446"/>
</g>
<path d="M198,446" fill="none" stroke="#99ff99" stroke-width="2"/>
<path d="M198,446" fill="none" stroke="#99ff99" stroke-width="2"/>
<g stroke="black" stroke-width="2" fill="none">
<line x1="197" y1="446" x2="198" y2="446"/>
</g>
<path d="M206,446" fill="none" stroke="#99ff99" stroke-width="2"/>
<path d="M206,446" fill="none" stroke="#99ff99" stroke-width="2"/>
<g stroke="black" stroke-width="2" fill="none">
<line x1="205" y1="446" x2="206" y2="446"/>
</g>
<path d="M214,446" fill="none" stroke="#99ff99" stroke-width="2"/>
<path d="M214,446" fill="none" stroke="#99ff99" stroke-width="2"/>
<g stroke="black" stroke-width="2" fill="none">
<line x1="213" y1="446" x2="214" y2="446"/>
</g>
<path d="M221,446" fill="none" stroke="#99ff99" stroke-width="2"/>
<path d="M221,446" fill="none" stroke="#99ff99" stroke-width="2"/>
<g stroke="black" stroke-width="2" fill="none">
<line x1="220" y1="446" x2="221" y2="446"/>
</g>
<path d="M229,446" fill="none" stroke="#99ff99" stroke-width="2"/>
<path d="M229,446" fill="none" stroke="#99ff99" stroke-width="2"/>
<g stroke="black" stroke-width="2" fill="none">
<line x1="228" y1="446" x2="229" y2="446"/>
</g>
<path d="M236,446" fill="none" stroke="#99ff99" stroke-width="2"/>
<path d="M236,446" fill="none" stroke="#99ff99" stroke-width="2"/>
<g stroke="black" stroke-width="2" fill="none">
<line x1="235" y1="446" x2="236" y2="446"/>
</g>
<path d="M244,446" fill="none" stroke="#99ff99" stroke-width="2"/>
<path d="M244,446" fill="none" stroke="#99ff99" stroke-width="2"/>
<g stroke="black" stroke-width="2" fill="none">
<line x1="243" y1="446" x2="244" y2="446"/>
</g>
<path d="M251,446" fill="none" stroke="#99ff99" stroke-width="2"/>
<path d="M251,446" fill="none" stroke="#99ff99" stroke-width="2"/>
<g stroke="black" stroke-width="2" fill="none">
<line x1="250" y1="446" x2="251" y2="446"/>
</g>
<path d="M259,446" fill="none" stroke="#99ff99" stroke-width="2"/>
<path d="M259,446" fill="none" stroke="#99ff99" stroke-width="2"/>
<g stroke="black" stroke-width="2" fill="none">
<line x1="258" y1="446" x2="259" y2="446"/>
</g>
<path d="M266,446" fill="none" stroke="#99ff99" stroke-width="2"/>
<path d="M266,446" fill="none" stroke="#99ff99" stroke-width="2"/>
<g stroke="black" stroke-width="2" fill="none">
<line x1="265" y1="446" x2="266" y2="446"/>
</g>
<path d="M274,446" fill="none" stroke="#99ff99" stroke-width="2"/>
<path d="M274,446" fill="none" stroke="#99ff99" stroke-width="2"/>
<g stroke="black" stroke-width="2" fill="none">
<line x1="273" y1="446" x2="274" y2="446"/>
</g>
<path d="M282,446" fill="none" stroke="#99ff99" stroke-width="2"/>
<path d="M282,446" fill="none" stroke="#99ff99" stroke-width="2"/>
<g stroke="black" stroke-width="2" fill="none">
<line x1="281" y1="446" x2="282" y2="446"/>
</g>
<path d="M289,446" fill="none" stroke="#99ff99" stroke-width="2"/>
<path d="M289,446" fill="none" stroke="#99ff99" stroke-width="2"/>
<g stroke="black" stroke-width="2" fill="none">
<line x1="288" y1="446" x2="289" y2="446"/>
</g>
<path d="M297,446" fill="none" stroke="#99ff99" stroke-width="2"/>
<path d="M297,446" fill="none" stroke="#99ff99" stroke-width="2"/>
<g stroke="black" stroke-width="2" fill="none">
<line x1="296" y1="446" x2="297" y2="446"/>
</g>
<path d="M304,446" fill="none" stroke="#99ff99" stroke-width="2"/>
<path d="M304,446" fill="none" stroke="#99ff99" stroke-width="2"/>
<g stroke="black" stroke-width="2" fill="none">
<line x1="303" y1="446" x2="304" y2="446"/>
</g>
<path d="M312,446" fill="none" stroke="#99ff99" stroke-width="2"/>
<path d="M312,446" fill="none" stroke="#99ff99" stroke-width="2"/>
<g stroke="black" stroke-width="2" fill="none">
<line x1="311" y1="446" x2="312" y2="446"/>
</g>
<path d="M319,446" fill="none" stroke="#99ff99" stroke-width="2"/>
<path d="M319,446" fill="none" stroke="#99ff99" stroke-width="2"/>
<g stroke="black" stroke-width="2" fill="none">
<line x1="318" y1="446" x2="319" y2="446"/>
</g>
<path d="M327,446v -1" fill="none" stroke="#99ff99" stroke-width="2"/>
<path d="M327,445" fill="none" stroke="#99ff99" stroke-width="2"/>
<g stroke="black" stroke-width="2" fill="none">
<line x1="326" y1="445" x2="327" y2="445"/>
</g>
<path d="M334,446v -1" fill="none" stroke="#99ff99" stroke-width="2"/>
<path d="M334,445" fill="none" stroke="#99ff99" stroke-width="2"/>
<g stroke="black" stroke-width="2" fill="none">
<line x1="333" y1="445" x2="334" y2="445"/>
</g>
<path d="M342,445" fill="none" stroke="#99ff99" stroke-width="2"/>
<path d="M342,445" fill="none" stroke="#99ff99" stroke-width="2"/>
<g stroke="black" stroke-width="2" fill="none">
<line x1="341" y1="445" x2="342" y2="445"/>
</g>
<path d="M350,445" fill="none" stroke="#99ff99" stroke-width="2"/>
<path d="M350,445" fill="none" stroke="#99ff99" stroke-width="2"/>
<g stroke="black" stroke-width="2" fill="none">
<line x1="349" y1="445" x2="350" y2="445"/>
</g>
<path d="M357,445" fill="none" stroke="#99ff99" stroke-width="2"/>
<path d="M357,445" fill="none" stroke="#99ff99" stroke-width="2"/>
<g stroke="black" stroke-width="2" fill="none">
<line x1="356" y1="445" x2="357" y2="445"/>
</g>
<path d="M365,445" fill="none" stroke="#99ff99" stroke-width="2"/>
<path d="M365,445v -1" fill="none" stroke="#99ff99" stroke-width="2"/>
<g stroke="black" stroke-width="2" fill="none">
<line x1="364" y1="445" x2="365" y2="445"/>
</g>
<path d="M372,445" fill="none" stroke="#99ff99" stroke-width="2"/>
<path d="M372,445v -1" fill="none" stroke="#99ff99" stroke-width="2"/>
<g stroke="black" stroke-width="2" fill="none">
<line x1="371" y1="445" x2="372" y2="445"/>
</g>
<path d="M380,445" fill="none" stroke="#99ff99" stroke-width="2"/>
<path d="M380,445v -1" fill="none" stroke="#99ff99" stroke-width="2"/>
<g stroke="black" stroke-width="2" fill="none">
<line x1="379" y1="445" x2="380" y2="445"/>
</g>
<path d="M387,444" fill="none" stroke="#99ff99" stroke-width="2"/>
<path d="M387,444" fill="none" stroke="#99ff99" stroke-width="2"/>
<g stroke="black" stroke-width="2" fill="none">
<line x1="386" y1="444" x2="387" y2="444"/>
</g>
<path d="M395,444" fill="none" stroke="#99ff99" stroke-width="2"/>
<path d="M395,444" fill="none" stroke="#99ff99" stroke-width="2"/>
<g stroke="black" stroke-width="2" fill="none">
<line x1="394" y1="444" x2="395" y2="444"/>
</g>
<path d="M403,444" fill="none" stroke="#99ff99" stroke-width="2"/>
<path d="M403,444v -1" fill="none" stroke="#99ff99" stroke-width="2"/>
<g stroke="black" stroke-width="2" fill="none">
<line x1="402" y1="444" x2="403" y2="444"/>
</g>
<path d="M410,444" fill="none" stroke="#99ff99" stroke-width="2"/>
<path d="M410,444v -1" fill="none" stroke="#99ff99" stroke-width="2"/>
<g stroke="black" stroke-width="2" fill="none">
<line x1="409" y1="444" x2="410" y2="444"/>
</g>
<path d="M418,443" fill="none" stroke="#99ff99" stroke-width="2"/>
<path d="M418,443" fill="none" stroke="#99ff99" stroke-width="2"/>
<g stroke="black" stroke-width="2" fill="none">
<line x1="417" y1="443" x2="418" y2="443"/>
</g>
<path d="M425,443v -1" fill="none" stroke="#99ff99" stroke-width="2"/>
<path d="M425,442" fill="none" stroke="#99ff99" stroke-width="2"/>
<g stroke="black" stroke-width="2" fill="none">
<line x1="424" y1="442" x2="425" y2="442"/>
</g>
<path d="M433,442" fill="none" stroke="#99ff99" stroke-width="2"/>
<path d="M433,442v -1" fill="none" stroke="#99ff99" stroke-width="2"/>
<g stroke="black" stroke-width="2" fill="none">
<line x1="432" y1="442" x2="433" y2="442"/>
</g>
<path d="M440,442v -1" fill="none" stroke="#99ff99" stroke-width="2"/>
<path d="M440,441" fill="none" stroke="#99ff99" stroke-width="2"/>
<g stroke="black" stroke-width="2" fill="none">
<line x1="439" y1="441" x2="440" y2="441"/>
</g>
<path d="M448,440" fill="none" stroke="#99ff99" stroke-width="2"/>
<path d="M448,440" fill="none" stroke="#99ff99" stroke-width="2"/>
<g stroke="black" stroke-width="2" fill="none">
<line x1="447" y1="440" x2="448" y2="440"/>
</g>
<path d="M455,439" fill="none" stroke="#99ff99" stroke-width="2"/>
<path d="M455,439v -1" fill="none" stroke="#99ff99" stroke-width="2"/>
<g stroke="black" stroke-width="2" fill="none">
<line x1="454" y1="439" x2="455" y2="439"/>
</g>
<path d="M463,438v -1" fill="none" stroke="#99ff99" stroke-width="2"/>
<path d="M463,437" fill="none" stroke="#99ff99" stroke-width="2"/>
<g stroke="black" stroke-width="2" fill="none">
<line x1="462" y1="437" x2="463" y2="437"/>
</g>
<path d="M471,435v -1" fill="none" stroke="#99ff99" stroke-width="2"/>
<path d="M471,434" fill="none" stroke="#99ff99" stroke-width="2"/>
<g stroke="black" stroke-width="2" fill="none">
<line x1="470" y1="434" x2="471" y2="434"/>
</g>
<path d="M478,431v -1" fill="none" stroke="#99ff99" stroke-width="2"/>
<path d="M478,430v -1" fill="none" stroke="#99ff99" stroke-width="2"/>
<g stroke="black" stroke-width="2" fill="none">
<line x1="477" y1="430" x2="478" y2="430"/>
</g>
<path d="M486,422v -1" fill="none" stroke="#99ff99" stroke-width="2"/>
<path d="M486,421v -1" fill="none" stroke="#99ff99" stroke-width="2"/>
<g stroke="black" stroke-width="2" fill="none">
<line x1="485" y1="421" x2="486" y2="421"/>
</g>
<path d="M493,394v -1" fill="none" stroke="#99ff99" stroke-width="2"/>
<path d="M493,393v -1" fill="none" stroke="#99ff99" stroke-width="2"/>
<g stroke="black" stroke-width="2" fill="none">
<line x1="492" y1="393" x2="493" y2="393"/>
</g>
<path d="M501,327v -1" fill="none" stroke="#99ff99" stroke-width="2"/>
<path d="M501,326v -2" fill="none" stroke="#99ff99" stroke-width="2"/>
<g stroke="black" stroke-width="2" fill="none">
<line x1="500" y1="326" x2="501" y2="326"/>
</g>
<path d="M508,184v -2" fill="none" stroke="#99ff99" stroke-width="2"/>
<path d="M508,182v -3" fill="none" stroke="#99ff99" stroke-width="2"/>
<g stroke="black" stroke-width="2" fill="none">
<line x1="507" y1="182" x2="508" y2="182"/>
</g>
<path d="M516,158v -3" fill="none" stroke="#99ff99" stroke-width="2"/>
<path d="M516,155v -2" fill="none" stroke="#99ff99" stroke-width="2"/>
<g stroke="black" stroke-width="2" fill="none">
<line x1="515" y1="155" x2="516" y2="155"/>
</g>
<path d="M523,433v -1" fill="none" stroke="#99ff99" stroke-width="2"/>
<path d="M523,432" fill="none" stroke="#99ff99" stroke-width="2"/>
<g stroke="black" stroke-width="2" fill="none">
<line x1="522" y1="432" x2="523" y2="432"/>
</g>
<path d="M74,446h 249v -1h 61v -1h 30v -1h 7v -1h 16v -1h 7v -1h 8v -1h 7v -2h 8v -3h 7v -4h 8v -9h 7v -28h 8v -67h 8v -144h 7v -27h 8v 277h 7v 14z" fill="#99ff99"/>
<path d="M74,446h 249v -1h 61v -1h 30v -1h 7v -1h 16v -1h 7v -1h 8v -1h 7v -2h 8v -3h 7v -4h 8v -9h 7v -28h 8v -67h 8v -144h 7v -27h 8v 277h 7" fill="none" stroke="#99ff99" stroke-width="2"/>
<path d="M263,446h 2" fill="none" stroke="#ff0099"/>
<path d="M268,446h 2" fill="none" stroke="#ff0099"/>
<g stroke="#ff0099" stroke-width="1" fill="#ff0099">
<circle cx=" 266" cy=" 446" r=" 1.5"/>
</g>
<path d="M270,446h 3" fill="none" stroke="#ff0099"/>
<path d="M275,446h 3" fill="none" stroke="#ff0099"/>
<g stroke="#ff0099" stroke-width="1" fill="#ff0099">
<circle cx=" 274" cy=" 446" r=" 1.5"/>
</g>
<path d="M278,446h 2" fill="none" stroke="#ff0099"/>
<path d="M283,446h 2" fill="none" stroke="#ff0099"/>
<g stroke="#ff0099" stroke-width="1" fill="#ff0099">
<circle cx=" 282" cy=" 446" r=" 1.5"/>
</g>
<path d="M285,446h 3" fill="none" stroke="#ff0099"/>
<path d="M290,446h 3" fill="none" stroke="#ff0099"/>
<g stroke="#ff0099" stroke-width="1" fill="#ff0099">
<circle cx=" 289" cy=" 446" r=" 1.5"/>
</g>
<path d="M293,446h 3" fill="none" stroke="#ff0099"/>
<path d="M298,446h 2" fill="none" stroke="#ff0099"/>
<g stroke="#ff0099" stroke-width="1" fill="#ff0099">
<circle cx=" 297" cy=" 446" r=" 1.5"/>
</g>
<path d="M300,446h 3" fill="none" stroke="#ff0099"/>
<path d="M305,446h 3" fill="none" stroke="#ff0099"/>
<g stroke="#ff0099" stroke-width="1" fill="#ff0099">
<circle cx=" 304" cy=" 446" r=" 1.5"/>
</g>
<path d="M308,446h 3" fill="none" stroke="#ff0099"/>
<path d="M313,446h 3" fill="none" stroke="#ff0099"/>
<g stroke="#ff0099" stroke-width="1" fill="#ff0099">
<circle cx=" 312" cy=" 446" r=" 1.5"/>
</g>
<path d="M316,446h 2" fill="none" stroke="#ff0099"/>
<path d="M321,446h 2" fill="none" stroke="#ff0099"/>
<g stroke="#ff0099" stroke-width="1" fill="#ff0099">
<circle cx=" 319" cy=" 446" r=" 1.5"/>
</g>
<path d="M323,446h 3" fill="none" stroke="#ff0099"/>
<path d="M328,446h 3" fill="none" stroke="#ff0099"/>
<g stroke="#ff0099" stroke-width="1" fill="#ff0099">
<circle cx=" 327" cy=" 446" r=" 1.5"/>
</g>
<path d="M331,446h 2" fill="none" stroke="#ff0099"/>
<path d="M336,446h 2" fill="none" stroke="#ff0099"/>
<g stroke="#ff0099" stroke-width="1" fill="#ff0099">
<circle cx=" 334" cy=" 446" r=" 1.5"/>
</g>
<path d="M338,445h 3" fill="none" stroke="#ff0099"/>
<path d="M343,445h 3" fill="none" stroke="#ff0099"/>
<g stroke="#ff0099" stroke-width="1" fill="#ff0099">
<circle cx=" 342" cy=" 445" r=" 1.5"/>
</g>
<path d="M346,446h 2" fill="none" stroke="#ff0099"/>
<path d="M351,446h 2" fill="none" stroke="#ff0099"/>
<g stroke="#ff0099" stroke-width="1" fill="#ff0099">
<circle cx=" 350" cy=" 446" r=" 1.5"/>
</g>
<path d="M353,445h 3" fill="none" stroke="#ff0099"/>
<path d="M358,445h 3" fill="none" stroke="#ff0099"/>
<g stroke="#ff0099" stroke-width="1" fill="#ff0099">
<circle cx=" 357" cy=" 445" r=" 1.5"/>
</g>
<path d="M361,445h 3" fill="none" stroke="#ff0099"/>
<path d="M366,445h 3" fill="none" stroke="#ff0099"/>
<g stroke="#ff0099" stroke-width="1" fill="#ff0099">
<circle cx=" 365" cy=" 445" r=" 1.5"/>
</g>
<path d="M369,445h 2" fill="none" stroke="#ff0099"/>
<path d="M373,445h 3" fill="none" stroke="#ff0099"/>
<g stroke="#ff0099" stroke-width="1" fill="#ff0099">
<circle cx=" 372" cy=" 445" r=" 1.5"/>
</g>
<path d="M376,445h 3" fill="none" stroke="#ff0099"/>
<path d="M381,445h 3" fill="none" stroke="#ff0099"/>
<g stroke="#ff0099" stroke-width="1" fill="#ff0099">
<circle cx=" 380" cy=" 445" r=" 1.5"/>
</g>
<path d="M384,443h 2" fill="none" stroke="#ff0099"/>
<path d="M389,443h 2" fill="none" stroke="#ff0099"/>
<g stroke="#ff0099" stroke-width="1" fill="#ff0099">
<circle cx=" 387" cy=" 443" r=" 1.5"/>
</g>
<path d="M391,445h 3" fill="none" stroke="#ff0099"/>
<path d="M396,445h 3" fill="none" stroke="#ff0099"/>
<g stroke="#ff0099" stroke-width="1" fill="#ff0099">
<circle cx=" 395" cy=" 445" r=" 1.5"/>
</g>
<path d="M399,444h 2" fill="none" stroke="#ff0099"/>
<path d="M404,444h 2" fill="none" stroke="#ff0099"/>
<g stroke="#ff0099" stroke-width="1" fill="#ff0099">
<circle cx=" 403" cy=" 444" r=" 1.5"/>
</g>
<path d="M406,442h 3" fill="none" stroke="#ff0099"/>
<path d="M411,442h 3" fill="none" stroke="#ff0099"/>
<g stroke="#ff0099" stroke-width="1" fill="#ff0099">
<circle cx=" 410" cy=" 442" r=" 1.5"/>
</g>
<path d="M414,443h 2" fill="none" stroke="#ff0099"/>
<path d="M419,443h 2" fill="none" stroke="#ff0099"/>
<g stroke="#ff0099" stroke-width="1" fill="#ff0099">
<circle cx=" 418" cy=" 443" r=" 1.5"/>
</g>
<path d="M421,443h 3" fill="none" stroke="#ff0099"/>
<path d="M426,443h 3" fill="none" stroke="#ff0099"/>
<g stroke="#ff0099" stroke-width="1" fill="#ff0099">
<circle cx=" 425" cy=" 443" r=" 1.5"/>
</g>
<path d="M429,442h 3" fill="none" stroke="#ff0099"/>
<path d="M434,442h 3" fill="none" stroke="#ff0099"/>
<g stroke="#ff0099" stroke-width="1" fill="#ff0099">
<circle cx=" 433" cy=" 442" r=" 1.5"/>
</g>
<path d="M437,442h 2" fill="none" stroke="#ff0099"/>
<path d="M441,442h 3" fill="none" stroke="#ff0099"/>
<g stroke="#ff0099" stroke-width="1" fill="#ff0099">
<circle cx=" 440" cy=" 442" r=" 1.5"/>
</g>
<path d="M444,439h 3" fill="none" stroke="#ff0099"/>
<path d="M449,439h 3" fill="none" stroke="#ff0099"/>
<g stroke="#ff0099" stroke-width="1" fill="#ff0099">
<circle cx=" 448" cy=" 439" r=" 1.5"/>
</g>
<path d="M452,439h 2" fill="none" stroke="#ff0099"/>
<path d="M457,439h 2" fill="none" stroke="#ff0099"/>
<g stroke="#ff0099" stroke-width="1" fill="#ff0099">
<circle cx=" 455" cy=" 439" r=" 1.5"/>
</g>
<path d="M459,438h 3" fill="none" stroke="#ff0099"/>
<path d="M464,438h 3" fill="none" stroke="#ff0099"/>
<g stroke="#ff0099" stroke-width="1" fill="#ff0099">
<circle cx=" 463" cy=" 438" r=" 1.5"/>
</g>
<path d="M467,436h 2" fill="none" stroke="#ff0099"/>
<path d="M472,436h 2" fill="none" stroke="#ff0099"/>
<g stroke="#ff0099" stroke-width="1" fill="#ff0099">
<circle cx=" 471" cy=" 436" r=" 1.5"/>
</g>
<path d="M474,432h 3" fill="none" stroke="#ff0099"/>
<path d="M479,432h 3" fill="none" stroke="#ff0099"/>
<g stroke="#ff0099" stroke-width="1" fill="#ff0099">
<circle cx=" 478" cy=" 432" r=" 1.5"/>
</g>
<path d="M482,427h 3" fill="none" stroke="#ff0099"/>
<path d="M487,427h 2" fill="none" stroke="#ff0099"/>
<g stroke="#ff0099" stroke-width="1" fill="#ff0099">
<circle cx=" 486" cy=" 427" r=" 1.5"/>
</g>
<path d="M489,409h 3" fill="none" stroke="#ff0099"/>
<path d="M494,409h 3" fill="none" stroke="#ff0099"/>
<g stroke="#ff0099" stroke-width="1" fill="#ff0099">
<circle cx=" 493" cy=" 409" r=" 1.5"/>
</g>
<path d="M497,363h 3" fill="none" stroke="#ff0099"/>
<path d="M502,363h 3" fill="none" stroke="#ff0099"/>
<g stroke="#ff0099" stroke-width="1" fill="#ff0099">
<circle cx=" 501" cy=" 363" r=" 1.5"/>
</g>
<path d="M505,189h 2" fill="none" stroke="#ff0099"/>
<path d="M509,189h 3" fill="none" stroke="#ff0099"/>
<g stroke="#ff0099" stroke-width="1" fill="#ff0099">
<circle cx=" 508" cy=" 189" r=" 1.5"/>
</g>
<path d="M516,68v -1" fill="none" stroke="#ff0099"/>
<path d="M516,65v -2" fill="none" stroke="#ff0099"/>
<path d="M512,66h 3" fill="none" stroke="#ff0099"/>
<path d="M517,66h 3" fill="none" stroke="#ff0099"/>
<g stroke="#ff0099" stroke-width="1" fill="#ff0099">
<circle cx=" 516" cy=" 66" r=" 1.5"/>
</g>
<path d="M520,446h 2" fill="none" stroke="#ff0099"/>
<path d="M525,446h 2" fill="none" stroke="#ff0099"/>
<g stroke="#ff0099" stroke-width="1" fill="#ff0099">
<circle cx=" 523" cy=" 446" r=" 1.5"/>
</g>
<rect x="357" y="59" width="142" height="99" fill="white"/>
<text x="360" y="82" fill="black" font-size="17" font-family="Helvetica" font-weight="bold">
EE
</text>
<text x="457" y="115" fill="black" font-size="17" font-family="Helvetica" font-weight="bold">
 ee
</text>
<text x="440" y="115" fill="black" font-size="17" font-family="Times">
&#8594;
</text>
<text x="392" y="115" fill="black" font-size="17" font-family="Helvetica" font-weight="bold">
MC Z 
</text>
<path d="M362,109h 25" fill="none" stroke="#ff0099"/>
<g stroke="#ff0099" stroke-width="1" fill="#ff0099">
<circle cx=" 375" cy=" 109" r=" 1.5"/>
</g>
<text x="455" y="147" fill="black" font-size="17" font-family="Helvetica" font-weight="bold">
 + jet
</text>
<text x="447" y="147" fill="black" font-size="17" font-family="Times">
&#0947;
</text>
<text x="392" y="147" fill="black" font-size="17" font-family="Helvetica" font-weight="bold">
signal 
</text>
<path d="M362,154h 25v -24h -25z" fill="#99ff99"/>
<path d="M362,130h 25" fill="none" stroke="#99ff99" stroke-width="2"/>
<path d="M362,154h 25" fill="none" stroke="#99ff99" stroke-width="2"/>
<path d="M387,154v -24" fill="none" stroke="#99ff99" stroke-width="2"/>
<path d="M362,154v -24" fill="none" stroke="#99ff99" stroke-width="2"/>
<text x="300" y="34" fill="black" font-size="17" font-family="Helvetica" font-weight="bold">
=8 TeV
</text>
<text x="291" y="34" fill="black" font-size="17" font-family="Helvetica" font-weight="bold">
s
</text>
<path d="M285,25l 2, 10" fill="none" stroke="black" stroke-width="2"/>
<path d="M287,35l 2, -14" fill="none" stroke="black"/>
<path d="M289,21h 11" fill="none" stroke="black"/>
<text x="142" y="34" fill="black" font-size="17" font-family="Helvetica" font-weight="bold">
CMS Preliminary 
</text></svg>
