<?xml version="1.0" standalone="no"?>
<svg width="567" height="496" viewBox="0 0 567 496" xmlns="http://www.w3.org/2000/svg">
<title>
../src/TagAndProbeZ/plots_mcZee_mcGJet_withEtaR9nvtxReweight/hlt30/etaPhotEE_log.svg
</title>
<desc>
Creator: ROOT Version 5.32/00
CreationDate: Sun Sep 28 11:59:19 2014</desc>
<defs>
</defs>
<rect x="0" y="0" width="567" height="496" fill="white"/>
<rect x="0" y="0" width="567" height="347" fill="white"/>
<rect x="57" y="34" width="453" height="278" fill="white"/>
<rect x="57" y="34" width="453" height="278" fill="none" stroke="black"/>
<rect x="57" y="34" width="453" height="278" fill="white"/>
<rect x="57" y="34" width="453" height="278" fill="none" stroke="black"/>
<path d="M94,77h 3" fill="none" stroke="#ff0099"/>
<path d="M99,77h 3" fill="none" stroke="#ff0099"/>
<g stroke="#ff0099" stroke-width="1" fill="#ff0099">
<circle cx=" 98" cy=" 77" r=" 1.5"/>
</g>
<path d="M102,71h 3" fill="none" stroke="#ff0099"/>
<path d="M107,71h 3" fill="none" stroke="#ff0099"/>
<g stroke="#ff0099" stroke-width="1" fill="#ff0099">
<circle cx=" 106" cy=" 71" r=" 1.5"/>
</g>
<path d="M110,70h 2" fill="none" stroke="#ff0099"/>
<path d="M115,70h 2" fill="none" stroke="#ff0099"/>
<g stroke="#ff0099" stroke-width="1" fill="#ff0099">
<circle cx=" 113" cy=" 70" r=" 1.5"/>
</g>
<path d="M117,68h 3" fill="none" stroke="#ff0099"/>
<path d="M122,68h 3" fill="none" stroke="#ff0099"/>
<g stroke="#ff0099" stroke-width="1" fill="#ff0099">
<circle cx=" 121" cy=" 68" r=" 1.5"/>
</g>
<path d="M125,67h 2" fill="none" stroke="#ff0099"/>
<path d="M130,67h 2" fill="none" stroke="#ff0099"/>
<g stroke="#ff0099" stroke-width="1" fill="#ff0099">
<circle cx=" 129" cy=" 67" r=" 1.5"/>
</g>
<path d="M132,67h 3" fill="none" stroke="#ff0099"/>
<path d="M137,67h 3" fill="none" stroke="#ff0099"/>
<g stroke="#ff0099" stroke-width="1" fill="#ff0099">
<circle cx=" 136" cy=" 67" r=" 1.5"/>
</g>
<path d="M140,69h 2" fill="none" stroke="#ff0099"/>
<path d="M145,69h 2" fill="none" stroke="#ff0099"/>
<g stroke="#ff0099" stroke-width="1" fill="#ff0099">
<circle cx=" 144" cy=" 69" r=" 1.5"/>
</g>
<path d="M147,68h 3" fill="none" stroke="#ff0099"/>
<path d="M152,68h 3" fill="none" stroke="#ff0099"/>
<g stroke="#ff0099" stroke-width="1" fill="#ff0099">
<circle cx=" 151" cy=" 68" r=" 1.5"/>
</g>
<path d="M155,66h 3" fill="none" stroke="#ff0099"/>
<path d="M160,66h 3" fill="none" stroke="#ff0099"/>
<g stroke="#ff0099" stroke-width="1" fill="#ff0099">
<circle cx=" 159" cy=" 66" r=" 1.5"/>
</g>
<path d="M163,87h 2" fill="none" stroke="#ff0099"/>
<path d="M167,87h 3" fill="none" stroke="#ff0099"/>
<g stroke="#ff0099" stroke-width="1" fill="#ff0099">
<circle cx=" 166" cy=" 87" r=" 1.5"/>
</g>
<path d="M397,87h 2" fill="none" stroke="#ff0099"/>
<path d="M402,87h 2" fill="none" stroke="#ff0099"/>
<g stroke="#ff0099" stroke-width="1" fill="#ff0099">
<circle cx=" 401" cy=" 87" r=" 1.5"/>
</g>
<path d="M404,68h 3" fill="none" stroke="#ff0099"/>
<path d="M409,68h 3" fill="none" stroke="#ff0099"/>
<g stroke="#ff0099" stroke-width="1" fill="#ff0099">
<circle cx=" 408" cy=" 68" r=" 1.5"/>
</g>
<path d="M412,68h 3" fill="none" stroke="#ff0099"/>
<path d="M417,68h 3" fill="none" stroke="#ff0099"/>
<g stroke="#ff0099" stroke-width="1" fill="#ff0099">
<circle cx=" 416" cy=" 68" r=" 1.5"/>
</g>
<path d="M420,68h 2" fill="none" stroke="#ff0099"/>
<path d="M424,68h 3" fill="none" stroke="#ff0099"/>
<g stroke="#ff0099" stroke-width="1" fill="#ff0099">
<circle cx=" 423" cy=" 68" r=" 1.5"/>
</g>
<path d="M427,66h 3" fill="none" stroke="#ff0099"/>
<path d="M432,66h 3" fill="none" stroke="#ff0099"/>
<g stroke="#ff0099" stroke-width="1" fill="#ff0099">
<circle cx=" 431" cy=" 66" r=" 1.5"/>
</g>
<path d="M435,66h 2" fill="none" stroke="#ff0099"/>
<path d="M440,66h 2" fill="none" stroke="#ff0099"/>
<g stroke="#ff0099" stroke-width="1" fill="#ff0099">
<circle cx=" 438" cy=" 66" r=" 1.5"/>
</g>
<path d="M442,67h 3" fill="none" stroke="#ff0099"/>
<path d="M447,67h 3" fill="none" stroke="#ff0099"/>
<g stroke="#ff0099" stroke-width="1" fill="#ff0099">
<circle cx=" 446" cy=" 67" r=" 1.5"/>
</g>
<path d="M450,69h 2" fill="none" stroke="#ff0099"/>
<path d="M455,69h 2" fill="none" stroke="#ff0099"/>
<g stroke="#ff0099" stroke-width="1" fill="#ff0099">
<circle cx=" 454" cy=" 69" r=" 1.5"/>
</g>
<path d="M457,70h 3" fill="none" stroke="#ff0099"/>
<path d="M462,70h 3" fill="none" stroke="#ff0099"/>
<g stroke="#ff0099" stroke-width="1" fill="#ff0099">
<circle cx=" 461" cy=" 70" r=" 1.5"/>
</g>
<path d="M465,76h 3" fill="none" stroke="#ff0099"/>
<path d="M470,76h 2" fill="none" stroke="#ff0099"/>
<g stroke="#ff0099" stroke-width="1" fill="#ff0099">
<circle cx=" 469" cy=" 76" r=" 1.5"/>
</g>
<path d="M57,312h 453" fill="none" stroke="black"/>
<text x="503" y="337" fill="black" font-size="13" font-family="Times">
&#0951;
</text>
<text x="499" y="337" fill="black" font-size="13" font-family="Helvetica" font-weight="bold">
 
</text>
<text x="492" y="337" fill="black" font-size="13" font-family="Times">
&#0947;
</text>
<path d="M57,304v 8" fill="none" stroke="black"/>
<path d="M72,308v 4" fill="none" stroke="black"/>
<path d="M87,308v 4" fill="none" stroke="black"/>
<path d="M102,308v 4" fill="none" stroke="black"/>
<path d="M117,308v 4" fill="none" stroke="black"/>
<path d="M132,304v 8" fill="none" stroke="black"/>
<path d="M147,308v 4" fill="none" stroke="black"/>
<path d="M163,308v 4" fill="none" stroke="black"/>
<path d="M178,308v 4" fill="none" stroke="black"/>
<path d="M193,308v 4" fill="none" stroke="black"/>
<path d="M208,304v 8" fill="none" stroke="black"/>
<path d="M223,308v 4" fill="none" stroke="black"/>
<path d="M238,308v 4" fill="none" stroke="black"/>
<path d="M253,308v 4" fill="none" stroke="black"/>
<path d="M268,308v 4" fill="none" stroke="black"/>
<path d="M283,304v 8" fill="none" stroke="black"/>
<path d="M299,308v 4" fill="none" stroke="black"/>
<path d="M314,308v 4" fill="none" stroke="black"/>
<path d="M329,308v 4" fill="none" stroke="black"/>
<path d="M344,308v 4" fill="none" stroke="black"/>
<path d="M359,304v 8" fill="none" stroke="black"/>
<path d="M374,308v 4" fill="none" stroke="black"/>
<path d="M389,308v 4" fill="none" stroke="black"/>
<path d="M404,308v 4" fill="none" stroke="black"/>
<path d="M420,308v 4" fill="none" stroke="black"/>
<path d="M435,304v 8" fill="none" stroke="black"/>
<path d="M450,308v 4" fill="none" stroke="black"/>
<path d="M465,308v 4" fill="none" stroke="black"/>
<path d="M480,308v 4" fill="none" stroke="black"/>
<path d="M495,308v 4" fill="none" stroke="black"/>
<path d="M510,304v 8" fill="none" stroke="black"/>
<text x="51" y="325" fill="black" font-size="13" font-family="Helvetica" font-weight="bold">
-3
</text>
<text x="126" y="325" fill="black" font-size="13" font-family="Helvetica" font-weight="bold">
-2
</text>
<text x="203" y="325" fill="black" font-size="13" font-family="Helvetica" font-weight="bold">
-1
</text>
<text x="280" y="325" fill="black" font-size="13" font-family="Helvetica" font-weight="bold">
0
</text>
<text x="356" y="325" fill="black" font-size="13" font-family="Helvetica" font-weight="bold">
1
</text>
<text x="431" y="325" fill="black" font-size="13" font-family="Helvetica" font-weight="bold">
2
</text>
<text x="507" y="325" fill="black" font-size="13" font-family="Helvetica" font-weight="bold">
3
</text>
<path d="M57,312v -278" fill="none" stroke="black"/>
<g transform="rotate(-90,28,99)">
<text x="28" y="99" fill="black" font-size="13" font-family="Helvetica" font-weight="bold">
Entries/0.1
</text>
</g>
<path d="M63,300h -6" fill="none" stroke="black"/>
<path d="M63,292h -6" fill="none" stroke="black"/>
<path d="M63,287h -6" fill="none" stroke="black"/>
<path d="M63,283h -6" fill="none" stroke="black"/>
<path d="M63,279h -6" fill="none" stroke="black"/>
<path d="M63,277h -6" fill="none" stroke="black"/>
<path d="M63,274h -6" fill="none" stroke="black"/>
<path d="M63,272h -6" fill="none" stroke="black"/>
<path d="M70,270h -13" fill="none" stroke="black"/>
<text x="44" y="269" fill="black" font-size="9" font-family="Helvetica" font-weight="bold">
-6
</text>
<text x="30" y="276" fill="black" font-size="13" font-family="Helvetica" font-weight="bold">
10
</text>
<path d="M63,257h -6" fill="none" stroke="black"/>
<path d="M63,250h -6" fill="none" stroke="black"/>
<path d="M63,244h -6" fill="none" stroke="black"/>
<path d="M63,240h -6" fill="none" stroke="black"/>
<path d="M63,237h -6" fill="none" stroke="black"/>
<path d="M63,234h -6" fill="none" stroke="black"/>
<path d="M63,232h -6" fill="none" stroke="black"/>
<path d="M63,229h -6" fill="none" stroke="black"/>
<path d="M70,227h -13" fill="none" stroke="black"/>
<text x="44" y="227" fill="black" font-size="9" font-family="Helvetica" font-weight="bold">
-5
</text>
<text x="30" y="234" fill="black" font-size="13" font-family="Helvetica" font-weight="bold">
10
</text>
<path d="M63,215h -6" fill="none" stroke="black"/>
<path d="M63,207h -6" fill="none" stroke="black"/>
<path d="M63,202h -6" fill="none" stroke="black"/>
<path d="M63,198h -6" fill="none" stroke="black"/>
<path d="M63,194h -6" fill="none" stroke="black"/>
<path d="M63,191h -6" fill="none" stroke="black"/>
<path d="M63,189h -6" fill="none" stroke="black"/>
<path d="M63,187h -6" fill="none" stroke="black"/>
<path d="M70,185h -13" fill="none" stroke="black"/>
<text x="44" y="185" fill="black" font-size="9" font-family="Helvetica" font-weight="bold">
-4
</text>
<text x="30" y="191" fill="black" font-size="13" font-family="Helvetica" font-weight="bold">
10
</text>
<path d="M63,172h -6" fill="none" stroke="black"/>
<path d="M63,164h -6" fill="none" stroke="black"/>
<path d="M63,159h -6" fill="none" stroke="black"/>
<path d="M63,155h -6" fill="none" stroke="black"/>
<path d="M63,152h -6" fill="none" stroke="black"/>
<path d="M63,149h -6" fill="none" stroke="black"/>
<path d="M63,146h -6" fill="none" stroke="black"/>
<path d="M63,144h -6" fill="none" stroke="black"/>
<path d="M70,142h -13" fill="none" stroke="black"/>
<text x="44" y="141" fill="black" font-size="9" font-family="Helvetica" font-weight="bold">
-3
</text>
<text x="30" y="148" fill="black" font-size="13" font-family="Helvetica" font-weight="bold">
10
</text>
<path d="M63,129h -6" fill="none" stroke="black"/>
<path d="M63,122h -6" fill="none" stroke="black"/>
<path d="M63,117h -6" fill="none" stroke="black"/>
<path d="M63,112h -6" fill="none" stroke="black"/>
<path d="M63,109h -6" fill="none" stroke="black"/>
<path d="M63,106h -6" fill="none" stroke="black"/>
<path d="M63,104h -6" fill="none" stroke="black"/>
<path d="M63,102h -6" fill="none" stroke="black"/>
<path d="M70,100h -13" fill="none" stroke="black"/>
<text x="44" y="99" fill="black" font-size="9" font-family="Helvetica" font-weight="bold">
-2
</text>
<text x="30" y="106" fill="black" font-size="13" font-family="Helvetica" font-weight="bold">
10
</text>
<path d="M63,87h -6" fill="none" stroke="black"/>
<path d="M63,79h -6" fill="none" stroke="black"/>
<path d="M63,74h -6" fill="none" stroke="black"/>
<path d="M63,70h -6" fill="none" stroke="black"/>
<path d="M63,67h -6" fill="none" stroke="black"/>
<path d="M63,64h -6" fill="none" stroke="black"/>
<path d="M63,61h -6" fill="none" stroke="black"/>
<path d="M63,59h -6" fill="none" stroke="black"/>
<path d="M70,57h -13" fill="none" stroke="black"/>
<text x="46" y="57" fill="black" font-size="9" font-family="Helvetica" font-weight="bold">
-1
</text>
<text x="31" y="63" fill="black" font-size="13" font-family="Helvetica" font-weight="bold">
10
</text>
<path d="M63,44h -6" fill="none" stroke="black"/>
<path d="M63,37h -6" fill="none" stroke="black"/>
<path d="M98,73v -1" fill="none" stroke="#99ff99" stroke-width="2"/>
<path d="M98,72" fill="none" stroke="#99ff99" stroke-width="2"/>
<g stroke="black" stroke-width="2" fill="none">
<line x1="97" y1="72" x2="98" y2="72"/>
</g>
<path d="M106,68" fill="none" stroke="#99ff99" stroke-width="2"/>
<path d="M106,68v -1" fill="none" stroke="#99ff99" stroke-width="2"/>
<g stroke="black" stroke-width="2" fill="none">
<line x1="105" y1="68" x2="106" y2="68"/>
</g>
<path d="M113,69v -1" fill="none" stroke="#99ff99" stroke-width="2"/>
<path d="M113,68" fill="none" stroke="#99ff99" stroke-width="2"/>
<g stroke="black" stroke-width="2" fill="none">
<line x1="112" y1="68" x2="113" y2="68"/>
</g>
<path d="M121,68" fill="none" stroke="#99ff99" stroke-width="2"/>
<path d="M121,68" fill="none" stroke="#99ff99" stroke-width="2"/>
<g stroke="black" stroke-width="2" fill="none">
<line x1="120" y1="68" x2="121" y2="68"/>
</g>
<path d="M129,69v -1" fill="none" stroke="#99ff99" stroke-width="2"/>
<path d="M129,68" fill="none" stroke="#99ff99" stroke-width="2"/>
<g stroke="black" stroke-width="2" fill="none">
<line x1="128" y1="68" x2="129" y2="68"/>
</g>
<path d="M136,68v -1" fill="none" stroke="#99ff99" stroke-width="2"/>
<path d="M136,67" fill="none" stroke="#99ff99" stroke-width="2"/>
<g stroke="black" stroke-width="2" fill="none">
<line x1="135" y1="67" x2="136" y2="67"/>
</g>
<path d="M144,69" fill="none" stroke="#99ff99" stroke-width="2"/>
<path d="M144,69" fill="none" stroke="#99ff99" stroke-width="2"/>
<g stroke="black" stroke-width="2" fill="none">
<line x1="143" y1="69" x2="144" y2="69"/>
</g>
<path d="M151,69" fill="none" stroke="#99ff99" stroke-width="2"/>
<path d="M151,69v -1" fill="none" stroke="#99ff99" stroke-width="2"/>
<g stroke="black" stroke-width="2" fill="none">
<line x1="150" y1="69" x2="151" y2="69"/>
</g>
<path d="M159,69" fill="none" stroke="#99ff99" stroke-width="2"/>
<path d="M159,69" fill="none" stroke="#99ff99" stroke-width="2"/>
<g stroke="black" stroke-width="2" fill="none">
<line x1="158" y1="69" x2="159" y2="69"/>
</g>
<path d="M166,90v -1" fill="none" stroke="#99ff99" stroke-width="2"/>
<path d="M166,89v -1" fill="none" stroke="#99ff99" stroke-width="2"/>
<g stroke="black" stroke-width="2" fill="none">
<line x1="165" y1="89" x2="166" y2="89"/>
</g>
<path d="M401,91" fill="none" stroke="#99ff99" stroke-width="2"/>
<path d="M401,91v -1" fill="none" stroke="#99ff99" stroke-width="2"/>
<g stroke="black" stroke-width="2" fill="none">
<line x1="400" y1="91" x2="401" y2="91"/>
</g>
<path d="M408,71" fill="none" stroke="#99ff99" stroke-width="2"/>
<path d="M408,71v -1" fill="none" stroke="#99ff99" stroke-width="2"/>
<g stroke="black" stroke-width="2" fill="none">
<line x1="407" y1="71" x2="408" y2="71"/>
</g>
<path d="M416,69" fill="none" stroke="#99ff99" stroke-width="2"/>
<path d="M416,69" fill="none" stroke="#99ff99" stroke-width="2"/>
<g stroke="black" stroke-width="2" fill="none">
<line x1="415" y1="69" x2="416" y2="69"/>
</g>
<path d="M423,69" fill="none" stroke="#99ff99" stroke-width="2"/>
<path d="M423,69" fill="none" stroke="#99ff99" stroke-width="2"/>
<g stroke="black" stroke-width="2" fill="none">
<line x1="422" y1="69" x2="423" y2="69"/>
</g>
<path d="M431,68" fill="none" stroke="#99ff99" stroke-width="2"/>
<path d="M431,68" fill="none" stroke="#99ff99" stroke-width="2"/>
<g stroke="black" stroke-width="2" fill="none">
<line x1="430" y1="68" x2="431" y2="68"/>
</g>
<path d="M438,67" fill="none" stroke="#99ff99" stroke-width="2"/>
<path d="M438,67" fill="none" stroke="#99ff99" stroke-width="2"/>
<g stroke="black" stroke-width="2" fill="none">
<line x1="437" y1="67" x2="438" y2="67"/>
</g>
<path d="M446,68" fill="none" stroke="#99ff99" stroke-width="2"/>
<path d="M446,68v -1" fill="none" stroke="#99ff99" stroke-width="2"/>
<g stroke="black" stroke-width="2" fill="none">
<line x1="445" y1="68" x2="446" y2="68"/>
</g>
<path d="M454,67" fill="none" stroke="#99ff99" stroke-width="2"/>
<path d="M454,67v -1" fill="none" stroke="#99ff99" stroke-width="2"/>
<g stroke="black" stroke-width="2" fill="none">
<line x1="453" y1="67" x2="454" y2="67"/>
</g>
<path d="M461,67" fill="none" stroke="#99ff99" stroke-width="2"/>
<path d="M461,67v -1" fill="none" stroke="#99ff99" stroke-width="2"/>
<g stroke="black" stroke-width="2" fill="none">
<line x1="460" y1="67" x2="461" y2="67"/>
</g>
<path d="M469,73v -1" fill="none" stroke="#99ff99" stroke-width="2"/>
<path d="M469,72" fill="none" stroke="#99ff99" stroke-width="2"/>
<g stroke="black" stroke-width="2" fill="none">
<line x1="468" y1="72" x2="469" y2="72"/>
</g>
<path d="M57,312h 37v -240h 8v -4h 30v -1h 8v 2h 23v 20h 7v 223h 227v -221h 7v -20h 8v -2h 15v -1h 8v -1h 7v 1h 8v -1h 15v 5h 7v 240h 38z" fill="#99ff99"/>
<path d="M57,312h 37v -240h 8v -4h 30v -1h 8v 2h 23v 20h 7v 223h 227v -221h 7v -20h 8v -2h 15v -1h 8v -1h 7v 1h 8v -1h 15v 5h 7v 240h 38" fill="none" stroke="#99ff99" stroke-width="2"/>
<path d="M94,77h 3" fill="none" stroke="#ff0099"/>
<path d="M99,77h 3" fill="none" stroke="#ff0099"/>
<g stroke="#ff0099" stroke-width="1" fill="#ff0099">
<circle cx=" 98" cy=" 77" r=" 1.5"/>
</g>
<path d="M102,71h 3" fill="none" stroke="#ff0099"/>
<path d="M107,71h 3" fill="none" stroke="#ff0099"/>
<g stroke="#ff0099" stroke-width="1" fill="#ff0099">
<circle cx=" 106" cy=" 71" r=" 1.5"/>
</g>
<path d="M110,70h 2" fill="none" stroke="#ff0099"/>
<path d="M115,70h 2" fill="none" stroke="#ff0099"/>
<g stroke="#ff0099" stroke-width="1" fill="#ff0099">
<circle cx=" 113" cy=" 70" r=" 1.5"/>
</g>
<path d="M117,68h 3" fill="none" stroke="#ff0099"/>
<path d="M122,68h 3" fill="none" stroke="#ff0099"/>
<g stroke="#ff0099" stroke-width="1" fill="#ff0099">
<circle cx=" 121" cy=" 68" r=" 1.5"/>
</g>
<path d="M125,67h 2" fill="none" stroke="#ff0099"/>
<path d="M130,67h 2" fill="none" stroke="#ff0099"/>
<g stroke="#ff0099" stroke-width="1" fill="#ff0099">
<circle cx=" 129" cy=" 67" r=" 1.5"/>
</g>
<path d="M132,67h 3" fill="none" stroke="#ff0099"/>
<path d="M137,67h 3" fill="none" stroke="#ff0099"/>
<g stroke="#ff0099" stroke-width="1" fill="#ff0099">
<circle cx=" 136" cy=" 67" r=" 1.5"/>
</g>
<path d="M140,69h 2" fill="none" stroke="#ff0099"/>
<path d="M145,69h 2" fill="none" stroke="#ff0099"/>
<g stroke="#ff0099" stroke-width="1" fill="#ff0099">
<circle cx=" 144" cy=" 69" r=" 1.5"/>
</g>
<path d="M147,68h 3" fill="none" stroke="#ff0099"/>
<path d="M152,68h 3" fill="none" stroke="#ff0099"/>
<g stroke="#ff0099" stroke-width="1" fill="#ff0099">
<circle cx=" 151" cy=" 68" r=" 1.5"/>
</g>
<path d="M155,66h 3" fill="none" stroke="#ff0099"/>
<path d="M160,66h 3" fill="none" stroke="#ff0099"/>
<g stroke="#ff0099" stroke-width="1" fill="#ff0099">
<circle cx=" 159" cy=" 66" r=" 1.5"/>
</g>
<path d="M163,87h 2" fill="none" stroke="#ff0099"/>
<path d="M167,87h 3" fill="none" stroke="#ff0099"/>
<g stroke="#ff0099" stroke-width="1" fill="#ff0099">
<circle cx=" 166" cy=" 87" r=" 1.5"/>
</g>
<path d="M397,87h 2" fill="none" stroke="#ff0099"/>
<path d="M402,87h 2" fill="none" stroke="#ff0099"/>
<g stroke="#ff0099" stroke-width="1" fill="#ff0099">
<circle cx=" 401" cy=" 87" r=" 1.5"/>
</g>
<path d="M404,68h 3" fill="none" stroke="#ff0099"/>
<path d="M409,68h 3" fill="none" stroke="#ff0099"/>
<g stroke="#ff0099" stroke-width="1" fill="#ff0099">
<circle cx=" 408" cy=" 68" r=" 1.5"/>
</g>
<path d="M412,68h 3" fill="none" stroke="#ff0099"/>
<path d="M417,68h 3" fill="none" stroke="#ff0099"/>
<g stroke="#ff0099" stroke-width="1" fill="#ff0099">
<circle cx=" 416" cy=" 68" r=" 1.5"/>
</g>
<path d="M420,68h 2" fill="none" stroke="#ff0099"/>
<path d="M424,68h 3" fill="none" stroke="#ff0099"/>
<g stroke="#ff0099" stroke-width="1" fill="#ff0099">
<circle cx=" 423" cy=" 68" r=" 1.5"/>
</g>
<path d="M427,66h 3" fill="none" stroke="#ff0099"/>
<path d="M432,66h 3" fill="none" stroke="#ff0099"/>
<g stroke="#ff0099" stroke-width="1" fill="#ff0099">
<circle cx=" 431" cy=" 66" r=" 1.5"/>
</g>
<path d="M435,66h 2" fill="none" stroke="#ff0099"/>
<path d="M440,66h 2" fill="none" stroke="#ff0099"/>
<g stroke="#ff0099" stroke-width="1" fill="#ff0099">
<circle cx=" 438" cy=" 66" r=" 1.5"/>
</g>
<path d="M442,67h 3" fill="none" stroke="#ff0099"/>
<path d="M447,67h 3" fill="none" stroke="#ff0099"/>
<g stroke="#ff0099" stroke-width="1" fill="#ff0099">
<circle cx=" 446" cy=" 67" r=" 1.5"/>
</g>
<path d="M450,69h 2" fill="none" stroke="#ff0099"/>
<path d="M455,69h 2" fill="none" stroke="#ff0099"/>
<g stroke="#ff0099" stroke-width="1" fill="#ff0099">
<circle cx=" 454" cy=" 69" r=" 1.5"/>
</g>
<path d="M457,70h 3" fill="none" stroke="#ff0099"/>
<path d="M462,70h 3" fill="none" stroke="#ff0099"/>
<g stroke="#ff0099" stroke-width="1" fill="#ff0099">
<circle cx=" 461" cy=" 70" r=" 1.5"/>
</g>
<path d="M465,76h 3" fill="none" stroke="#ff0099"/>
<path d="M470,76h 2" fill="none" stroke="#ff0099"/>
<g stroke="#ff0099" stroke-width="1" fill="#ff0099">
<circle cx=" 469" cy=" 76" r=" 1.5"/>
</g>
<rect x="357" y="41" width="142" height="70" fill="white"/>
<text x="360" y="58" fill="black" font-size="12" font-family="Helvetica" font-weight="bold">
EE
</text>
<text x="439" y="81" fill="black" font-size="12" font-family="Helvetica" font-weight="bold">
 ee
</text>
<text x="426" y="81" fill="black" font-size="12" font-family="Times">
&#8594;
</text>
<text x="392" y="81" fill="black" font-size="12" font-family="Helvetica" font-weight="bold">
MC Z 
</text>
<path d="M362,76h 25" fill="none" stroke="#ff0099"/>
<g stroke="#ff0099" stroke-width="1" fill="#ff0099">
<circle cx=" 375" cy=" 76" r=" 1.5"/>
</g>
<text x="438" y="102" fill="black" font-size="12" font-family="Helvetica" font-weight="bold">
 + jet
</text>
<text x="431" y="102" fill="black" font-size="12" font-family="Times">
&#0947;
</text>
<text x="392" y="102" fill="black" font-size="12" font-family="Helvetica" font-weight="bold">
signal 
</text>
<path d="M362,107h 25v -16h -25z" fill="#99ff99"/>
<path d="M362,91h 25" fill="none" stroke="#99ff99" stroke-width="2"/>
<path d="M362,107h 25" fill="none" stroke="#99ff99" stroke-width="2"/>
<path d="M387,107v -16" fill="none" stroke="#99ff99" stroke-width="2"/>
<path d="M362,107v -16" fill="none" stroke="#99ff99" stroke-width="2"/>
<text x="252" y="24" fill="black" font-size="12" font-family="Helvetica" font-weight="bold">
=8 TeV
</text>
<text x="246" y="24" fill="black" font-size="12" font-family="Helvetica" font-weight="bold">
s
</text>
<path d="M242,17l 1, 8" fill="none" stroke="black" stroke-width="2"/>
<path d="M243,25l 2, -11" fill="none" stroke="black"/>
<path d="M245,14h 7" fill="none" stroke="black"/>
<text x="142" y="24" fill="black" font-size="12" font-family="Helvetica" font-weight="bold">
CMS Preliminary 
</text>
<rect x="0" y="347" width="567" height="149" fill="white"/>
<rect x="57" y="362" width="453" height="104" fill="white"/>
<rect x="57" y="362" width="453" height="104" fill="none" stroke="black"/>
<rect x="57" y="362" width="453" height="104" fill="white"/>
<rect x="57" y="362" width="453" height="104" fill="none" stroke="black"/>
<path d="M57,466h 453" fill="none" stroke="black"/>
<path d="M57,466v -104" fill="none" stroke="black"/>
<path d="M510,455h -453" fill="none" stroke="black" stroke-dasharray=" 1, 2"/>
<path d="M510,436h -453" fill="none" stroke="black" stroke-dasharray=" 1, 2"/>
<path d="M510,418h -453" fill="none" stroke="black" stroke-dasharray=" 1, 2"/>
<path d="M510,399h -453" fill="none" stroke="black" stroke-dasharray=" 1, 2"/>
<path d="M510,381h -453" fill="none" stroke="black" stroke-dasharray=" 1, 2"/>
<path d="M510,362h -453" fill="none" stroke="black" stroke-dasharray=" 1, 2"/>
<path d="M510,455h -453" fill="none" stroke="black" stroke-dasharray=" 1, 2"/>
<path d="M94,444h 3" fill="none" stroke="#ff0099"/>
<path d="M99,444h 3" fill="none" stroke="#ff0099"/>
<g stroke="#ff0099" stroke-width="1" fill="#ff0099">
<circle cx=" 98" cy=" 444" r=" 1.5"/>
</g>
<path d="M102,442h 3" fill="none" stroke="#ff0099"/>
<path d="M107,442h 3" fill="none" stroke="#ff0099"/>
<g stroke="#ff0099" stroke-width="1" fill="#ff0099">
<circle cx=" 106" cy=" 442" r=" 1.5"/>
</g>
<path d="M110,439h 2" fill="none" stroke="#ff0099"/>
<path d="M115,439h 2" fill="none" stroke="#ff0099"/>
<g stroke="#ff0099" stroke-width="1" fill="#ff0099">
<circle cx=" 113" cy=" 439" r=" 1.5"/>
</g>
<path d="M117,436h 3" fill="none" stroke="#ff0099"/>
<path d="M122,436h 3" fill="none" stroke="#ff0099"/>
<g stroke="#ff0099" stroke-width="1" fill="#ff0099">
<circle cx=" 121" cy=" 436" r=" 1.5"/>
</g>
<path d="M125,433h 2" fill="none" stroke="#ff0099"/>
<path d="M130,433h 2" fill="none" stroke="#ff0099"/>
<g stroke="#ff0099" stroke-width="1" fill="#ff0099">
<circle cx=" 129" cy=" 433" r=" 1.5"/>
</g>
<path d="M132,435h 3" fill="none" stroke="#ff0099"/>
<path d="M137,435h 3" fill="none" stroke="#ff0099"/>
<g stroke="#ff0099" stroke-width="1" fill="#ff0099">
<circle cx=" 136" cy=" 435" r=" 1.5"/>
</g>
<path d="M140,435h 2" fill="none" stroke="#ff0099"/>
<path d="M145,435h 2" fill="none" stroke="#ff0099"/>
<g stroke="#ff0099" stroke-width="1" fill="#ff0099">
<circle cx=" 144" cy=" 435" r=" 1.5"/>
</g>
<path d="M147,434h 3" fill="none" stroke="#ff0099"/>
<path d="M152,434h 3" fill="none" stroke="#ff0099"/>
<g stroke="#ff0099" stroke-width="1" fill="#ff0099">
<circle cx=" 151" cy=" 434" r=" 1.5"/>
</g>
<path d="M155,430h 3" fill="none" stroke="#ff0099"/>
<path d="M160,430h 3" fill="none" stroke="#ff0099"/>
<g stroke="#ff0099" stroke-width="1" fill="#ff0099">
<circle cx=" 159" cy=" 430" r=" 1.5"/>
</g>
<path d="M166,434v -1" fill="none" stroke="#ff0099"/>
<path d="M166,431v -1" fill="none" stroke="#ff0099"/>
<path d="M163,432h 2" fill="none" stroke="#ff0099"/>
<path d="M167,432h 3" fill="none" stroke="#ff0099"/>
<g stroke="#ff0099" stroke-width="1" fill="#ff0099">
<circle cx=" 166" cy=" 432" r=" 1.5"/>
</g>
<path d="M401,431v -1" fill="none" stroke="#ff0099"/>
<path d="M401,428v -1" fill="none" stroke="#ff0099"/>
<path d="M397,429h 2" fill="none" stroke="#ff0099"/>
<path d="M402,429h 2" fill="none" stroke="#ff0099"/>
<g stroke="#ff0099" stroke-width="1" fill="#ff0099">
<circle cx=" 401" cy=" 429" r=" 1.5"/>
</g>
<path d="M404,431h 3" fill="none" stroke="#ff0099"/>
<path d="M409,431h 3" fill="none" stroke="#ff0099"/>
<g stroke="#ff0099" stroke-width="1" fill="#ff0099">
<circle cx=" 408" cy=" 431" r=" 1.5"/>
</g>
<path d="M412,435h 3" fill="none" stroke="#ff0099"/>
<path d="M417,435h 3" fill="none" stroke="#ff0099"/>
<g stroke="#ff0099" stroke-width="1" fill="#ff0099">
<circle cx=" 416" cy=" 435" r=" 1.5"/>
</g>
<path d="M420,434h 2" fill="none" stroke="#ff0099"/>
<path d="M424,434h 3" fill="none" stroke="#ff0099"/>
<g stroke="#ff0099" stroke-width="1" fill="#ff0099">
<circle cx=" 423" cy=" 434" r=" 1.5"/>
</g>
<path d="M427,433h 3" fill="none" stroke="#ff0099"/>
<path d="M432,433h 3" fill="none" stroke="#ff0099"/>
<g stroke="#ff0099" stroke-width="1" fill="#ff0099">
<circle cx=" 431" cy=" 433" r=" 1.5"/>
</g>
<path d="M435,435h 2" fill="none" stroke="#ff0099"/>
<path d="M440,435h 2" fill="none" stroke="#ff0099"/>
<g stroke="#ff0099" stroke-width="1" fill="#ff0099">
<circle cx=" 438" cy=" 435" r=" 1.5"/>
</g>
<path d="M442,436h 3" fill="none" stroke="#ff0099"/>
<path d="M447,436h 3" fill="none" stroke="#ff0099"/>
<g stroke="#ff0099" stroke-width="1" fill="#ff0099">
<circle cx=" 446" cy=" 436" r=" 1.5"/>
</g>
<path d="M450,441h 2" fill="none" stroke="#ff0099"/>
<path d="M455,441h 2" fill="none" stroke="#ff0099"/>
<g stroke="#ff0099" stroke-width="1" fill="#ff0099">
<circle cx=" 454" cy=" 441" r=" 1.5"/>
</g>
<path d="M457,442h 3" fill="none" stroke="#ff0099"/>
<path d="M462,442h 3" fill="none" stroke="#ff0099"/>
<g stroke="#ff0099" stroke-width="1" fill="#ff0099">
<circle cx=" 461" cy=" 442" r=" 1.5"/>
</g>
<path d="M465,444h 3" fill="none" stroke="#ff0099"/>
<path d="M470,444h 2" fill="none" stroke="#ff0099"/>
<g stroke="#ff0099" stroke-width="1" fill="#ff0099">
<circle cx=" 469" cy=" 444" r=" 1.5"/>
</g>
<path d="M57,466h 453" fill="none" stroke="black"/>
<text x="504" y="487" fill="black" font-size="11" font-family="Times">
&#0951;
</text>
<text x="501" y="487" fill="black" font-size="11" font-family="Helvetica" font-weight="bold">
 
</text>
<text x="495" y="487" fill="black" font-size="11" font-family="Times">
&#0947;
</text>
<path d="M57,463v 3" fill="none" stroke="black"/>
<path d="M72,464v 2" fill="none" stroke="black"/>
<path d="M87,464v 2" fill="none" stroke="black"/>
<path d="M102,464v 2" fill="none" stroke="black"/>
<path d="M117,464v 2" fill="none" stroke="black"/>
<path d="M132,463v 3" fill="none" stroke="black"/>
<path d="M147,464v 2" fill="none" stroke="black"/>
<path d="M163,464v 2" fill="none" stroke="black"/>
<path d="M178,464v 2" fill="none" stroke="black"/>
<path d="M193,464v 2" fill="none" stroke="black"/>
<path d="M208,463v 3" fill="none" stroke="black"/>
<path d="M223,464v 2" fill="none" stroke="black"/>
<path d="M238,464v 2" fill="none" stroke="black"/>
<path d="M253,464v 2" fill="none" stroke="black"/>
<path d="M268,464v 2" fill="none" stroke="black"/>
<path d="M283,463v 3" fill="none" stroke="black"/>
<path d="M299,464v 2" fill="none" stroke="black"/>
<path d="M314,464v 2" fill="none" stroke="black"/>
<path d="M329,464v 2" fill="none" stroke="black"/>
<path d="M344,464v 2" fill="none" stroke="black"/>
<path d="M359,463v 3" fill="none" stroke="black"/>
<path d="M374,464v 2" fill="none" stroke="black"/>
<path d="M389,464v 2" fill="none" stroke="black"/>
<path d="M404,464v 2" fill="none" stroke="black"/>
<path d="M420,464v 2" fill="none" stroke="black"/>
<path d="M435,463v 3" fill="none" stroke="black"/>
<path d="M450,464v 2" fill="none" stroke="black"/>
<path d="M465,464v 2" fill="none" stroke="black"/>
<path d="M480,464v 2" fill="none" stroke="black"/>
<path d="M495,464v 2" fill="none" stroke="black"/>
<path d="M510,463v 3" fill="none" stroke="black"/>
<text x="52" y="475" fill="black" font-size="10" font-family="Helvetica" font-weight="bold">
-3
</text>
<text x="128" y="475" fill="black" font-size="10" font-family="Helvetica" font-weight="bold">
-2
</text>
<text x="204" y="475" fill="black" font-size="10" font-family="Helvetica" font-weight="bold">
-1
</text>
<text x="281" y="475" fill="black" font-size="10" font-family="Helvetica" font-weight="bold">
0
</text>
<text x="356" y="475" fill="black" font-size="10" font-family="Helvetica" font-weight="bold">
1
</text>
<text x="431" y="475" fill="black" font-size="10" font-family="Helvetica" font-weight="bold">
2
</text>
<text x="507" y="475" fill="black" font-size="10" font-family="Helvetica" font-weight="bold">
3
</text>
<path d="M57,466v -104" fill="none" stroke="black"/>
<g transform="rotate(-90,34,365)">
<text x="34" y="365" fill="black" font-size="11" font-family="Helvetica" font-weight="bold">
)
</text>
</g>
<g transform="rotate(-90,34,371)">
<text x="34" y="371" fill="black" font-size="11" font-family="Times">
&#0947;
</text>
</g>
<g transform="rotate(-90,34,424)">
<text x="34" y="424" fill="black" font-size="11" font-family="Helvetica" font-weight="bold">
MC(e)/MC(
</text>
</g>
<path d="M69,455h -12" fill="none" stroke="black"/>
<path d="M63,451h -6" fill="none" stroke="black"/>
<path d="M63,448h -6" fill="none" stroke="black"/>
<path d="M63,444h -6" fill="none" stroke="black"/>
<path d="M63,440h -6" fill="none" stroke="black"/>
<path d="M69,436h -12" fill="none" stroke="black"/>
<path d="M63,433h -6" fill="none" stroke="black"/>
<path d="M63,429h -6" fill="none" stroke="black"/>
<path d="M63,425h -6" fill="none" stroke="black"/>
<path d="M63,422h -6" fill="none" stroke="black"/>
<path d="M69,418h -12" fill="none" stroke="black"/>
<path d="M63,414h -6" fill="none" stroke="black"/>
<path d="M63,410h -6" fill="none" stroke="black"/>
<path d="M63,407h -6" fill="none" stroke="black"/>
<path d="M63,403h -6" fill="none" stroke="black"/>
<path d="M69,399h -12" fill="none" stroke="black"/>
<path d="M63,395h -6" fill="none" stroke="black"/>
<path d="M63,392h -6" fill="none" stroke="black"/>
<path d="M63,388h -6" fill="none" stroke="black"/>
<path d="M63,384h -6" fill="none" stroke="black"/>
<path d="M69,381h -12" fill="none" stroke="black"/>
<path d="M63,377h -6" fill="none" stroke="black"/>
<path d="M63,373h -6" fill="none" stroke="black"/>
<path d="M63,369h -6" fill="none" stroke="black"/>
<path d="M63,366h -6" fill="none" stroke="black"/>
<path d="M69,362h -12" fill="none" stroke="black"/>
<path d="M69,455h -12" fill="none" stroke="black"/>
<path d="M63,459h -6" fill="none" stroke="black"/>
<path d="M63,462h -6" fill="none" stroke="black"/>
<path d="M63,466h -6" fill="none" stroke="black"/>
<text x="40" y="459" fill="black" font-size="10" font-family="Helvetica" font-weight="bold">
0.5
</text>
<text x="50" y="440" fill="black" font-size="10" font-family="Helvetica" font-weight="bold">
1
</text>
<text x="40" y="421" fill="black" font-size="10" font-family="Helvetica" font-weight="bold">
1.5
</text>
<text x="48" y="403" fill="black" font-size="10" font-family="Helvetica" font-weight="bold">
2
</text>
<text x="40" y="384" fill="black" font-size="10" font-family="Helvetica" font-weight="bold">
2.5
</text>
<text x="48" y="366" fill="black" font-size="10" font-family="Helvetica" font-weight="bold">
3
</text>
<path d="M57,436h 453" fill="none" stroke="#0000ff" stroke-width="2"/>
<path d="M94,444h 3" fill="none" stroke="#ff0099"/>
<path d="M99,444h 3" fill="none" stroke="#ff0099"/>
<g stroke="#ff0099" stroke-width="1" fill="#ff0099">
<circle cx=" 98" cy=" 444" r=" 1.5"/>
</g>
<path d="M102,442h 3" fill="none" stroke="#ff0099"/>
<path d="M107,442h 3" fill="none" stroke="#ff0099"/>
<g stroke="#ff0099" stroke-width="1" fill="#ff0099">
<circle cx=" 106" cy=" 442" r=" 1.5"/>
</g>
<path d="M110,439h 2" fill="none" stroke="#ff0099"/>
<path d="M115,439h 2" fill="none" stroke="#ff0099"/>
<g stroke="#ff0099" stroke-width="1" fill="#ff0099">
<circle cx=" 113" cy=" 439" r=" 1.5"/>
</g>
<path d="M117,436h 3" fill="none" stroke="#ff0099"/>
<path d="M122,436h 3" fill="none" stroke="#ff0099"/>
<g stroke="#ff0099" stroke-width="1" fill="#ff0099">
<circle cx=" 121" cy=" 436" r=" 1.5"/>
</g>
<path d="M125,433h 2" fill="none" stroke="#ff0099"/>
<path d="M130,433h 2" fill="none" stroke="#ff0099"/>
<g stroke="#ff0099" stroke-width="1" fill="#ff0099">
<circle cx=" 129" cy=" 433" r=" 1.5"/>
</g>
<path d="M132,435h 3" fill="none" stroke="#ff0099"/>
<path d="M137,435h 3" fill="none" stroke="#ff0099"/>
<g stroke="#ff0099" stroke-width="1" fill="#ff0099">
<circle cx=" 136" cy=" 435" r=" 1.5"/>
</g>
<path d="M140,435h 2" fill="none" stroke="#ff0099"/>
<path d="M145,435h 2" fill="none" stroke="#ff0099"/>
<g stroke="#ff0099" stroke-width="1" fill="#ff0099">
<circle cx=" 144" cy=" 435" r=" 1.5"/>
</g>
<path d="M147,434h 3" fill="none" stroke="#ff0099"/>
<path d="M152,434h 3" fill="none" stroke="#ff0099"/>
<g stroke="#ff0099" stroke-width="1" fill="#ff0099">
<circle cx=" 151" cy=" 434" r=" 1.5"/>
</g>
<path d="M155,430h 3" fill="none" stroke="#ff0099"/>
<path d="M160,430h 3" fill="none" stroke="#ff0099"/>
<g stroke="#ff0099" stroke-width="1" fill="#ff0099">
<circle cx=" 159" cy=" 430" r=" 1.5"/>
</g>
<path d="M166,434v -1" fill="none" stroke="#ff0099"/>
<path d="M166,431v -1" fill="none" stroke="#ff0099"/>
<path d="M163,432h 2" fill="none" stroke="#ff0099"/>
<path d="M167,432h 3" fill="none" stroke="#ff0099"/>
<g stroke="#ff0099" stroke-width="1" fill="#ff0099">
<circle cx=" 166" cy=" 432" r=" 1.5"/>
</g>
<path d="M401,431v -1" fill="none" stroke="#ff0099"/>
<path d="M401,428v -1" fill="none" stroke="#ff0099"/>
<path d="M397,429h 2" fill="none" stroke="#ff0099"/>
<path d="M402,429h 2" fill="none" stroke="#ff0099"/>
<g stroke="#ff0099" stroke-width="1" fill="#ff0099">
<circle cx=" 401" cy=" 429" r=" 1.5"/>
</g>
<path d="M404,431h 3" fill="none" stroke="#ff0099"/>
<path d="M409,431h 3" fill="none" stroke="#ff0099"/>
<g stroke="#ff0099" stroke-width="1" fill="#ff0099">
<circle cx=" 408" cy=" 431" r=" 1.5"/>
</g>
<path d="M412,435h 3" fill="none" stroke="#ff0099"/>
<path d="M417,435h 3" fill="none" stroke="#ff0099"/>
<g stroke="#ff0099" stroke-width="1" fill="#ff0099">
<circle cx=" 416" cy=" 435" r=" 1.5"/>
</g>
<path d="M420,434h 2" fill="none" stroke="#ff0099"/>
<path d="M424,434h 3" fill="none" stroke="#ff0099"/>
<g stroke="#ff0099" stroke-width="1" fill="#ff0099">
<circle cx=" 423" cy=" 434" r=" 1.5"/>
</g>
<path d="M427,433h 3" fill="none" stroke="#ff0099"/>
<path d="M432,433h 3" fill="none" stroke="#ff0099"/>
<g stroke="#ff0099" stroke-width="1" fill="#ff0099">
<circle cx=" 431" cy=" 433" r=" 1.5"/>
</g>
<path d="M435,435h 2" fill="none" stroke="#ff0099"/>
<path d="M440,435h 2" fill="none" stroke="#ff0099"/>
<g stroke="#ff0099" stroke-width="1" fill="#ff0099">
<circle cx=" 438" cy=" 435" r=" 1.5"/>
</g>
<path d="M442,436h 3" fill="none" stroke="#ff0099"/>
<path d="M447,436h 3" fill="none" stroke="#ff0099"/>
<g stroke="#ff0099" stroke-width="1" fill="#ff0099">
<circle cx=" 446" cy=" 436" r=" 1.5"/>
</g>
<path d="M450,441h 2" fill="none" stroke="#ff0099"/>
<path d="M455,441h 2" fill="none" stroke="#ff0099"/>
<g stroke="#ff0099" stroke-width="1" fill="#ff0099">
<circle cx=" 454" cy=" 441" r=" 1.5"/>
</g>
<path d="M457,442h 3" fill="none" stroke="#ff0099"/>
<path d="M462,442h 3" fill="none" stroke="#ff0099"/>
<g stroke="#ff0099" stroke-width="1" fill="#ff0099">
<circle cx=" 461" cy=" 442" r=" 1.5"/>
</g>
<path d="M465,444h 3" fill="none" stroke="#ff0099"/>
<path d="M470,444h 2" fill="none" stroke="#ff0099"/>
<g stroke="#ff0099" stroke-width="1" fill="#ff0099">
<circle cx=" 469" cy=" 444" r=" 1.5"/>
</g></svg>
