<?xml version="1.0" standalone="no"?>
<svg width="567" height="496" viewBox="0 0 567 496" xmlns="http://www.w3.org/2000/svg">
<title>
../src/TagAndProbeZ/plots_mcZee_mcGJet_withEtaR9nvtxReweight/hlt30/etaPhotAll.svg
</title>
<desc>
Creator: ROOT Version 5.32/00
CreationDate: Sun Sep 28 11:59:21 2014</desc>
<defs>
</defs>
<rect x="0" y="0" width="567" height="496" fill="white"/>
<rect x="74" y="44" width="453" height="402" fill="white"/>
<rect x="74" y="44" width="453" height="402" fill="none" stroke="black"/>
<rect x="74" y="44" width="453" height="402" fill="white"/>
<rect x="74" y="44" width="453" height="402" fill="none" stroke="black"/>
<path d="M111,372h 3" fill="none" stroke="#ff0099"/>
<path d="M116,372h 3" fill="none" stroke="#ff0099"/>
<g stroke="#ff0099" stroke-width="1" fill="#ff0099">
<circle cx=" 115" cy=" 372" r=" 1.5"/>
</g>
<path d="M119,354h 3" fill="none" stroke="#ff0099"/>
<path d="M124,354h 3" fill="none" stroke="#ff0099"/>
<g stroke="#ff0099" stroke-width="1" fill="#ff0099">
<circle cx=" 123" cy=" 354" r=" 1.5"/>
</g>
<path d="M127,332h 2" fill="none" stroke="#ff0099"/>
<path d="M132,332h 2" fill="none" stroke="#ff0099"/>
<g stroke="#ff0099" stroke-width="1" fill="#ff0099">
<circle cx=" 130" cy=" 332" r=" 1.5"/>
</g>
<path d="M134,308h 3" fill="none" stroke="#ff0099"/>
<path d="M139,308h 3" fill="none" stroke="#ff0099"/>
<g stroke="#ff0099" stroke-width="1" fill="#ff0099">
<circle cx=" 138" cy=" 308" r=" 1.5"/>
</g>
<path d="M146,267" fill="none" stroke="#ff0099"/>
<path d="M146,265" fill="none" stroke="#ff0099"/>
<path d="M142,266h 2" fill="none" stroke="#ff0099"/>
<path d="M147,266h 2" fill="none" stroke="#ff0099"/>
<g stroke="#ff0099" stroke-width="1" fill="#ff0099">
<circle cx=" 146" cy=" 266" r=" 1.5"/>
</g>
<path d="M153,214" fill="none" stroke="#ff0099"/>
<path d="M153,212v -1" fill="none" stroke="#ff0099"/>
<path d="M149,213h 3" fill="none" stroke="#ff0099"/>
<path d="M154,213h 3" fill="none" stroke="#ff0099"/>
<g stroke="#ff0099" stroke-width="1" fill="#ff0099">
<circle cx=" 153" cy=" 213" r=" 1.5"/>
</g>
<path d="M161,161v -1" fill="none" stroke="#ff0099"/>
<path d="M161,158v -1" fill="none" stroke="#ff0099"/>
<path d="M157,159h 2" fill="none" stroke="#ff0099"/>
<path d="M162,159h 2" fill="none" stroke="#ff0099"/>
<g stroke="#ff0099" stroke-width="1" fill="#ff0099">
<circle cx=" 161" cy=" 159" r=" 1.5"/>
</g>
<path d="M168,109v -1" fill="none" stroke="#ff0099"/>
<path d="M168,106v -1" fill="none" stroke="#ff0099"/>
<path d="M164,107h 3" fill="none" stroke="#ff0099"/>
<path d="M169,107h 3" fill="none" stroke="#ff0099"/>
<g stroke="#ff0099" stroke-width="1" fill="#ff0099">
<circle cx=" 168" cy=" 107" r=" 1.5"/>
</g>
<path d="M176,119v -1" fill="none" stroke="#ff0099"/>
<path d="M176,116v -1" fill="none" stroke="#ff0099"/>
<path d="M172,117h 3" fill="none" stroke="#ff0099"/>
<path d="M177,117h 3" fill="none" stroke="#ff0099"/>
<g stroke="#ff0099" stroke-width="1" fill="#ff0099">
<circle cx=" 176" cy=" 117" r=" 1.5"/>
</g>
<path d="M180,337h 2" fill="none" stroke="#ff0099"/>
<path d="M184,337h 3" fill="none" stroke="#ff0099"/>
<g stroke="#ff0099" stroke-width="1" fill="#ff0099">
<circle cx=" 183" cy=" 337" r=" 1.5"/>
</g>
<path d="M191,290" fill="none" stroke="#ff0099"/>
<path d="M191,287" fill="none" stroke="#ff0099"/>
<path d="M187,289h 3" fill="none" stroke="#ff0099"/>
<path d="M192,289h 3" fill="none" stroke="#ff0099"/>
<g stroke="#ff0099" stroke-width="1" fill="#ff0099">
<circle cx=" 191" cy=" 289" r=" 1.5"/>
</g>
<path d="M198,73v -1" fill="none" stroke="#ff0099"/>
<path d="M198,69v -1" fill="none" stroke="#ff0099"/>
<path d="M195,70h 2" fill="none" stroke="#ff0099"/>
<path d="M200,70h 2" fill="none" stroke="#ff0099"/>
<g stroke="#ff0099" stroke-width="1" fill="#ff0099">
<circle cx=" 198" cy=" 70" r=" 1.5"/>
</g>
<path d="M206,70v -1" fill="none" stroke="#ff0099"/>
<path d="M206,66v -1" fill="none" stroke="#ff0099"/>
<path d="M202,67h 3" fill="none" stroke="#ff0099"/>
<path d="M207,67h 3" fill="none" stroke="#ff0099"/>
<g stroke="#ff0099" stroke-width="1" fill="#ff0099">
<circle cx=" 206" cy=" 67" r=" 1.5"/>
</g>
<path d="M214,80v -1" fill="none" stroke="#ff0099"/>
<path d="M214,77v -1" fill="none" stroke="#ff0099"/>
<path d="M210,78h 2" fill="none" stroke="#ff0099"/>
<path d="M215,78h 2" fill="none" stroke="#ff0099"/>
<g stroke="#ff0099" stroke-width="1" fill="#ff0099">
<circle cx=" 214" cy=" 78" r=" 1.5"/>
</g>
<path d="M221,72v -1" fill="none" stroke="#ff0099"/>
<path d="M221,69v -1" fill="none" stroke="#ff0099"/>
<path d="M217,70h 3" fill="none" stroke="#ff0099"/>
<path d="M222,70h 3" fill="none" stroke="#ff0099"/>
<g stroke="#ff0099" stroke-width="1" fill="#ff0099">
<circle cx=" 221" cy=" 70" r=" 1.5"/>
</g>
<path d="M229,121v -1" fill="none" stroke="#ff0099"/>
<path d="M229,118v -1" fill="none" stroke="#ff0099"/>
<path d="M225,119h 3" fill="none" stroke="#ff0099"/>
<path d="M230,119h 2" fill="none" stroke="#ff0099"/>
<g stroke="#ff0099" stroke-width="1" fill="#ff0099">
<circle cx=" 229" cy=" 119" r=" 1.5"/>
</g>
<path d="M236,148" fill="none" stroke="#ff0099"/>
<path d="M236,146v -1" fill="none" stroke="#ff0099"/>
<path d="M232,147h 3" fill="none" stroke="#ff0099"/>
<path d="M237,147h 3" fill="none" stroke="#ff0099"/>
<g stroke="#ff0099" stroke-width="1" fill="#ff0099">
<circle cx=" 236" cy=" 147" r=" 1.5"/>
</g>
<path d="M244,198" fill="none" stroke="#ff0099"/>
<path d="M244,196v -1" fill="none" stroke="#ff0099"/>
<path d="M240,197h 3" fill="none" stroke="#ff0099"/>
<path d="M245,197h 3" fill="none" stroke="#ff0099"/>
<g stroke="#ff0099" stroke-width="1" fill="#ff0099">
<circle cx=" 244" cy=" 197" r=" 1.5"/>
</g>
<path d="M251,188" fill="none" stroke="#ff0099"/>
<path d="M251,186" fill="none" stroke="#ff0099"/>
<path d="M248,187h 2" fill="none" stroke="#ff0099"/>
<path d="M252,187h 3" fill="none" stroke="#ff0099"/>
<g stroke="#ff0099" stroke-width="1" fill="#ff0099">
<circle cx=" 251" cy=" 187" r=" 1.5"/>
</g>
<path d="M259,194" fill="none" stroke="#ff0099"/>
<path d="M259,192" fill="none" stroke="#ff0099"/>
<path d="M255,193h 3" fill="none" stroke="#ff0099"/>
<path d="M260,193h 3" fill="none" stroke="#ff0099"/>
<g stroke="#ff0099" stroke-width="1" fill="#ff0099">
<circle cx=" 259" cy=" 193" r=" 1.5"/>
</g>
<path d="M266,201" fill="none" stroke="#ff0099"/>
<path d="M266,199" fill="none" stroke="#ff0099"/>
<path d="M263,200h 2" fill="none" stroke="#ff0099"/>
<path d="M268,200h 2" fill="none" stroke="#ff0099"/>
<g stroke="#ff0099" stroke-width="1" fill="#ff0099">
<circle cx=" 266" cy=" 200" r=" 1.5"/>
</g>
<path d="M274,212" fill="none" stroke="#ff0099"/>
<path d="M274,210" fill="none" stroke="#ff0099"/>
<path d="M270,211h 3" fill="none" stroke="#ff0099"/>
<path d="M275,211h 3" fill="none" stroke="#ff0099"/>
<g stroke="#ff0099" stroke-width="1" fill="#ff0099">
<circle cx=" 274" cy=" 211" r=" 1.5"/>
</g>
<path d="M278,220h 2" fill="none" stroke="#ff0099"/>
<path d="M283,220h 2" fill="none" stroke="#ff0099"/>
<g stroke="#ff0099" stroke-width="1" fill="#ff0099">
<circle cx=" 282" cy=" 220" r=" 1.5"/>
</g>
<path d="M285,235h 3" fill="none" stroke="#ff0099"/>
<path d="M290,235h 3" fill="none" stroke="#ff0099"/>
<g stroke="#ff0099" stroke-width="1" fill="#ff0099">
<circle cx=" 289" cy=" 235" r=" 1.5"/>
</g>
<path d="M293,239h 3" fill="none" stroke="#ff0099"/>
<path d="M298,239h 2" fill="none" stroke="#ff0099"/>
<g stroke="#ff0099" stroke-width="1" fill="#ff0099">
<circle cx=" 297" cy=" 239" r=" 1.5"/>
</g>
<path d="M300,234h 3" fill="none" stroke="#ff0099"/>
<path d="M305,234h 3" fill="none" stroke="#ff0099"/>
<g stroke="#ff0099" stroke-width="1" fill="#ff0099">
<circle cx=" 304" cy=" 234" r=" 1.5"/>
</g>
<path d="M308,230h 3" fill="none" stroke="#ff0099"/>
<path d="M313,230h 3" fill="none" stroke="#ff0099"/>
<g stroke="#ff0099" stroke-width="1" fill="#ff0099">
<circle cx=" 312" cy=" 230" r=" 1.5"/>
</g>
<path d="M316,214h 2" fill="none" stroke="#ff0099"/>
<path d="M321,214h 2" fill="none" stroke="#ff0099"/>
<g stroke="#ff0099" stroke-width="1" fill="#ff0099">
<circle cx=" 319" cy=" 214" r=" 1.5"/>
</g>
<path d="M327,209v -1" fill="none" stroke="#ff0099"/>
<path d="M327,206" fill="none" stroke="#ff0099"/>
<path d="M323,207h 3" fill="none" stroke="#ff0099"/>
<path d="M328,207h 3" fill="none" stroke="#ff0099"/>
<g stroke="#ff0099" stroke-width="1" fill="#ff0099">
<circle cx=" 327" cy=" 207" r=" 1.5"/>
</g>
<path d="M334,202" fill="none" stroke="#ff0099"/>
<path d="M334,199" fill="none" stroke="#ff0099"/>
<path d="M331,200h 2" fill="none" stroke="#ff0099"/>
<path d="M336,200h 2" fill="none" stroke="#ff0099"/>
<g stroke="#ff0099" stroke-width="1" fill="#ff0099">
<circle cx=" 334" cy=" 200" r=" 1.5"/>
</g>
<path d="M342,193" fill="none" stroke="#ff0099"/>
<path d="M342,190" fill="none" stroke="#ff0099"/>
<path d="M338,192h 3" fill="none" stroke="#ff0099"/>
<path d="M343,192h 3" fill="none" stroke="#ff0099"/>
<g stroke="#ff0099" stroke-width="1" fill="#ff0099">
<circle cx=" 342" cy=" 192" r=" 1.5"/>
</g>
<path d="M350,186" fill="none" stroke="#ff0099"/>
<path d="M350,184v -1" fill="none" stroke="#ff0099"/>
<path d="M346,185h 2" fill="none" stroke="#ff0099"/>
<path d="M351,185h 2" fill="none" stroke="#ff0099"/>
<g stroke="#ff0099" stroke-width="1" fill="#ff0099">
<circle cx=" 350" cy=" 185" r=" 1.5"/>
</g>
<path d="M357,189" fill="none" stroke="#ff0099"/>
<path d="M357,187" fill="none" stroke="#ff0099"/>
<path d="M353,188h 3" fill="none" stroke="#ff0099"/>
<path d="M358,188h 3" fill="none" stroke="#ff0099"/>
<g stroke="#ff0099" stroke-width="1" fill="#ff0099">
<circle cx=" 357" cy=" 188" r=" 1.5"/>
</g>
<path d="M365,147v -1" fill="none" stroke="#ff0099"/>
<path d="M365,144" fill="none" stroke="#ff0099"/>
<path d="M361,145h 3" fill="none" stroke="#ff0099"/>
<path d="M366,145h 3" fill="none" stroke="#ff0099"/>
<g stroke="#ff0099" stroke-width="1" fill="#ff0099">
<circle cx=" 365" cy=" 145" r=" 1.5"/>
</g>
<path d="M372,122" fill="none" stroke="#ff0099"/>
<path d="M372,119" fill="none" stroke="#ff0099"/>
<path d="M369,121h 2" fill="none" stroke="#ff0099"/>
<path d="M373,121h 3" fill="none" stroke="#ff0099"/>
<g stroke="#ff0099" stroke-width="1" fill="#ff0099">
<circle cx=" 372" cy=" 121" r=" 1.5"/>
</g>
<path d="M380,81" fill="none" stroke="#ff0099"/>
<path d="M380,78v -1" fill="none" stroke="#ff0099"/>
<path d="M376,79h 3" fill="none" stroke="#ff0099"/>
<path d="M381,79h 3" fill="none" stroke="#ff0099"/>
<g stroke="#ff0099" stroke-width="1" fill="#ff0099">
<circle cx=" 380" cy=" 79" r=" 1.5"/>
</g>
<path d="M387,84v -1" fill="none" stroke="#ff0099"/>
<path d="M387,80v -1" fill="none" stroke="#ff0099"/>
<path d="M384,81h 2" fill="none" stroke="#ff0099"/>
<path d="M389,81h 2" fill="none" stroke="#ff0099"/>
<g stroke="#ff0099" stroke-width="1" fill="#ff0099">
<circle cx=" 387" cy=" 81" r=" 1.5"/>
</g>
<path d="M395,68v -1" fill="none" stroke="#ff0099"/>
<path d="M395,64v -1" fill="none" stroke="#ff0099"/>
<path d="M391,66h 3" fill="none" stroke="#ff0099"/>
<path d="M396,66h 3" fill="none" stroke="#ff0099"/>
<g stroke="#ff0099" stroke-width="1" fill="#ff0099">
<circle cx=" 395" cy=" 66" r=" 1.5"/>
</g>
<path d="M403,69v -1" fill="none" stroke="#ff0099"/>
<path d="M403,65v -1" fill="none" stroke="#ff0099"/>
<path d="M399,66h 2" fill="none" stroke="#ff0099"/>
<path d="M404,66h 2" fill="none" stroke="#ff0099"/>
<g stroke="#ff0099" stroke-width="1" fill="#ff0099">
<circle cx=" 403" cy=" 66" r=" 1.5"/>
</g>
<path d="M410,296" fill="none" stroke="#ff0099"/>
<path d="M410,294v -1" fill="none" stroke="#ff0099"/>
<path d="M406,295h 3" fill="none" stroke="#ff0099"/>
<path d="M411,295h 3" fill="none" stroke="#ff0099"/>
<g stroke="#ff0099" stroke-width="1" fill="#ff0099">
<circle cx=" 410" cy=" 295" r=" 1.5"/>
</g>
<path d="M414,342h 2" fill="none" stroke="#ff0099"/>
<path d="M419,342h 2" fill="none" stroke="#ff0099"/>
<g stroke="#ff0099" stroke-width="1" fill="#ff0099">
<circle cx=" 418" cy=" 342" r=" 1.5"/>
</g>
<path d="M425,143v -1" fill="none" stroke="#ff0099"/>
<path d="M425,140v -1" fill="none" stroke="#ff0099"/>
<path d="M421,141h 3" fill="none" stroke="#ff0099"/>
<path d="M426,141h 3" fill="none" stroke="#ff0099"/>
<g stroke="#ff0099" stroke-width="1" fill="#ff0099">
<circle cx=" 425" cy=" 141" r=" 1.5"/>
</g>
<path d="M433,134" fill="none" stroke="#ff0099"/>
<path d="M433,131v -1" fill="none" stroke="#ff0099"/>
<path d="M429,132h 3" fill="none" stroke="#ff0099"/>
<path d="M434,132h 3" fill="none" stroke="#ff0099"/>
<g stroke="#ff0099" stroke-width="1" fill="#ff0099">
<circle cx=" 433" cy=" 132" r=" 1.5"/>
</g>
<path d="M440,168" fill="none" stroke="#ff0099"/>
<path d="M440,165" fill="none" stroke="#ff0099"/>
<path d="M437,166h 2" fill="none" stroke="#ff0099"/>
<path d="M441,166h 3" fill="none" stroke="#ff0099"/>
<g stroke="#ff0099" stroke-width="1" fill="#ff0099">
<circle cx=" 440" cy=" 166" r=" 1.5"/>
</g>
<path d="M448,214" fill="none" stroke="#ff0099"/>
<path d="M448,211" fill="none" stroke="#ff0099"/>
<path d="M444,213h 3" fill="none" stroke="#ff0099"/>
<path d="M449,213h 3" fill="none" stroke="#ff0099"/>
<g stroke="#ff0099" stroke-width="1" fill="#ff0099">
<circle cx=" 448" cy=" 213" r=" 1.5"/>
</g>
<path d="M455,265" fill="none" stroke="#ff0099"/>
<path d="M455,263" fill="none" stroke="#ff0099"/>
<path d="M452,264h 2" fill="none" stroke="#ff0099"/>
<path d="M457,264h 2" fill="none" stroke="#ff0099"/>
<g stroke="#ff0099" stroke-width="1" fill="#ff0099">
<circle cx=" 455" cy=" 264" r=" 1.5"/>
</g>
<path d="M459,300h 3" fill="none" stroke="#ff0099"/>
<path d="M464,300h 3" fill="none" stroke="#ff0099"/>
<g stroke="#ff0099" stroke-width="1" fill="#ff0099">
<circle cx=" 463" cy=" 300" r=" 1.5"/>
</g>
<path d="M467,325h 2" fill="none" stroke="#ff0099"/>
<path d="M472,325h 2" fill="none" stroke="#ff0099"/>
<g stroke="#ff0099" stroke-width="1" fill="#ff0099">
<circle cx=" 471" cy=" 325" r=" 1.5"/>
</g>
<path d="M474,347h 3" fill="none" stroke="#ff0099"/>
<path d="M479,347h 3" fill="none" stroke="#ff0099"/>
<g stroke="#ff0099" stroke-width="1" fill="#ff0099">
<circle cx=" 478" cy=" 347" r=" 1.5"/>
</g>
<path d="M482,368h 3" fill="none" stroke="#ff0099"/>
<path d="M487,368h 2" fill="none" stroke="#ff0099"/>
<g stroke="#ff0099" stroke-width="1" fill="#ff0099">
<circle cx=" 486" cy=" 368" r=" 1.5"/>
</g>
<path d="M74,446h 453" fill="none" stroke="black"/>
<path d="M74,434v 12" fill="none" stroke="black"/>
<path d="M89,440v 6" fill="none" stroke="black"/>
<path d="M104,440v 6" fill="none" stroke="black"/>
<path d="M119,440v 6" fill="none" stroke="black"/>
<path d="M134,440v 6" fill="none" stroke="black"/>
<path d="M149,434v 12" fill="none" stroke="black"/>
<path d="M164,440v 6" fill="none" stroke="black"/>
<path d="M180,440v 6" fill="none" stroke="black"/>
<path d="M195,440v 6" fill="none" stroke="black"/>
<path d="M210,440v 6" fill="none" stroke="black"/>
<path d="M225,434v 12" fill="none" stroke="black"/>
<path d="M240,440v 6" fill="none" stroke="black"/>
<path d="M255,440v 6" fill="none" stroke="black"/>
<path d="M270,440v 6" fill="none" stroke="black"/>
<path d="M285,440v 6" fill="none" stroke="black"/>
<path d="M300,434v 12" fill="none" stroke="black"/>
<path d="M316,440v 6" fill="none" stroke="black"/>
<path d="M331,440v 6" fill="none" stroke="black"/>
<path d="M346,440v 6" fill="none" stroke="black"/>
<path d="M361,440v 6" fill="none" stroke="black"/>
<path d="M376,434v 12" fill="none" stroke="black"/>
<path d="M391,440v 6" fill="none" stroke="black"/>
<path d="M406,440v 6" fill="none" stroke="black"/>
<path d="M421,440v 6" fill="none" stroke="black"/>
<path d="M437,440v 6" fill="none" stroke="black"/>
<path d="M452,434v 12" fill="none" stroke="black"/>
<path d="M467,440v 6" fill="none" stroke="black"/>
<path d="M482,440v 6" fill="none" stroke="black"/>
<path d="M497,440v 6" fill="none" stroke="black"/>
<path d="M512,440v 6" fill="none" stroke="black"/>
<path d="M527,434v 12" fill="none" stroke="black"/>
<path d="M527,434v 12" fill="none" stroke="black"/>
<text x="65" y="465" fill="black" font-size="18" font-family="Helvetica" font-weight="bold">
-3
</text>
<text x="141" y="465" fill="black" font-size="18" font-family="Helvetica" font-weight="bold">
-2
</text>
<text x="218" y="465" fill="black" font-size="18" font-family="Helvetica" font-weight="bold">
-1
</text>
<text x="295" y="465" fill="black" font-size="18" font-family="Helvetica" font-weight="bold">
0
</text>
<text x="372" y="465" fill="black" font-size="18" font-family="Helvetica" font-weight="bold">
1
</text>
<text x="446" y="465" fill="black" font-size="18" font-family="Helvetica" font-weight="bold">
2
</text>
<text x="522" y="465" fill="black" font-size="18" font-family="Helvetica" font-weight="bold">
3
</text>
<path d="M74,44h 453" fill="none" stroke="black"/>
<path d="M74,56v -12" fill="none" stroke="black"/>
<path d="M89,50v -6" fill="none" stroke="black"/>
<path d="M104,50v -6" fill="none" stroke="black"/>
<path d="M119,50v -6" fill="none" stroke="black"/>
<path d="M134,50v -6" fill="none" stroke="black"/>
<path d="M149,56v -12" fill="none" stroke="black"/>
<path d="M164,50v -6" fill="none" stroke="black"/>
<path d="M180,50v -6" fill="none" stroke="black"/>
<path d="M195,50v -6" fill="none" stroke="black"/>
<path d="M210,50v -6" fill="none" stroke="black"/>
<path d="M225,56v -12" fill="none" stroke="black"/>
<path d="M240,50v -6" fill="none" stroke="black"/>
<path d="M255,50v -6" fill="none" stroke="black"/>
<path d="M270,50v -6" fill="none" stroke="black"/>
<path d="M285,50v -6" fill="none" stroke="black"/>
<path d="M300,56v -12" fill="none" stroke="black"/>
<path d="M316,50v -6" fill="none" stroke="black"/>
<path d="M331,50v -6" fill="none" stroke="black"/>
<path d="M346,50v -6" fill="none" stroke="black"/>
<path d="M361,50v -6" fill="none" stroke="black"/>
<path d="M376,56v -12" fill="none" stroke="black"/>
<path d="M391,50v -6" fill="none" stroke="black"/>
<path d="M406,50v -6" fill="none" stroke="black"/>
<path d="M421,50v -6" fill="none" stroke="black"/>
<path d="M437,50v -6" fill="none" stroke="black"/>
<path d="M452,56v -12" fill="none" stroke="black"/>
<path d="M467,50v -6" fill="none" stroke="black"/>
<path d="M482,50v -6" fill="none" stroke="black"/>
<path d="M497,50v -6" fill="none" stroke="black"/>
<path d="M512,50v -6" fill="none" stroke="black"/>
<path d="M527,56v -12" fill="none" stroke="black"/>
<path d="M527,56v -12" fill="none" stroke="black"/>
<path d="M74,446v -402" fill="none" stroke="black"/>
<path d="M87,446h -13" fill="none" stroke="black"/>
<path d="M81,434h -7" fill="none" stroke="black"/>
<path d="M81,422h -7" fill="none" stroke="black"/>
<path d="M81,410h -7" fill="none" stroke="black"/>
<path d="M81,398h -7" fill="none" stroke="black"/>
<path d="M87,386h -13" fill="none" stroke="black"/>
<path d="M81,374h -7" fill="none" stroke="black"/>
<path d="M81,361h -7" fill="none" stroke="black"/>
<path d="M81,349h -7" fill="none" stroke="black"/>
<path d="M81,337h -7" fill="none" stroke="black"/>
<path d="M87,325h -13" fill="none" stroke="black"/>
<path d="M81,313h -7" fill="none" stroke="black"/>
<path d="M81,301h -7" fill="none" stroke="black"/>
<path d="M81,289h -7" fill="none" stroke="black"/>
<path d="M81,277h -7" fill="none" stroke="black"/>
<path d="M87,264h -13" fill="none" stroke="black"/>
<path d="M81,252h -7" fill="none" stroke="black"/>
<path d="M81,240h -7" fill="none" stroke="black"/>
<path d="M81,228h -7" fill="none" stroke="black"/>
<path d="M81,216h -7" fill="none" stroke="black"/>
<path d="M87,204h -13" fill="none" stroke="black"/>
<path d="M81,192h -7" fill="none" stroke="black"/>
<path d="M81,180h -7" fill="none" stroke="black"/>
<path d="M81,167h -7" fill="none" stroke="black"/>
<path d="M81,155h -7" fill="none" stroke="black"/>
<path d="M87,143h -13" fill="none" stroke="black"/>
<path d="M81,131h -7" fill="none" stroke="black"/>
<path d="M81,119h -7" fill="none" stroke="black"/>
<path d="M81,107h -7" fill="none" stroke="black"/>
<path d="M81,95h -7" fill="none" stroke="black"/>
<path d="M87,82h -13" fill="none" stroke="black"/>
<path d="M87,82h -13" fill="none" stroke="black"/>
<path d="M81,70h -7" fill="none" stroke="black"/>
<path d="M81,58h -7" fill="none" stroke="black"/>
<path d="M81,46h -7" fill="none" stroke="black"/>
<text x="61" y="453" fill="black" font-size="18" font-family="Helvetica" font-weight="bold">
0
</text>
<text x="24" y="392" fill="black" font-size="18" font-family="Helvetica" font-weight="bold">
0.005
</text>
<text x="37" y="331" fill="black" font-size="18" font-family="Helvetica" font-weight="bold">
0.01
</text>
<text x="24" y="271" fill="black" font-size="18" font-family="Helvetica" font-weight="bold">
0.015
</text>
<text x="35" y="210" fill="black" font-size="18" font-family="Helvetica" font-weight="bold">
0.02
</text>
<text x="24" y="150" fill="black" font-size="18" font-family="Helvetica" font-weight="bold">
0.025
</text>
<text x="35" y="89" fill="black" font-size="18" font-family="Helvetica" font-weight="bold">
0.03
</text>
<path d="M115,252v -3" fill="none" stroke="#99ff99" stroke-width="2"/>
<path d="M115,249v -3" fill="none" stroke="#99ff99" stroke-width="2"/>
<g stroke="black" stroke-width="2" fill="none">
<line x1="114" y1="249" x2="115" y2="249"/>
</g>
<path d="M123,185v -5" fill="none" stroke="#99ff99" stroke-width="2"/>
<path d="M123,180v -5" fill="none" stroke="#99ff99" stroke-width="2"/>
<g stroke="black" stroke-width="2" fill="none">
<line x1="122" y1="180" x2="123" y2="180"/>
</g>
<path d="M130,184v -5" fill="none" stroke="#99ff99" stroke-width="2"/>
<path d="M130,179v -4" fill="none" stroke="#99ff99" stroke-width="2"/>
<g stroke="black" stroke-width="2" fill="none">
<line x1="129" y1="179" x2="130" y2="179"/>
</g>
<path d="M138,181v -5" fill="none" stroke="#99ff99" stroke-width="2"/>
<path d="M138,176v -4" fill="none" stroke="#99ff99" stroke-width="2"/>
<g stroke="black" stroke-width="2" fill="none">
<line x1="137" y1="176" x2="138" y2="176"/>
</g>
<path d="M146,187v -4" fill="none" stroke="#99ff99" stroke-width="2"/>
<path d="M146,183v -5" fill="none" stroke="#99ff99" stroke-width="2"/>
<g stroke="black" stroke-width="2" fill="none">
<line x1="145" y1="183" x2="146" y2="183"/>
</g>
<path d="M153,170v -5" fill="none" stroke="#99ff99" stroke-width="2"/>
<path d="M153,165v -5" fill="none" stroke="#99ff99" stroke-width="2"/>
<g stroke="black" stroke-width="2" fill="none">
<line x1="152" y1="165" x2="153" y2="165"/>
</g>
<path d="M161,190v -4" fill="none" stroke="#99ff99" stroke-width="2"/>
<path d="M161,186v -5" fill="none" stroke="#99ff99" stroke-width="2"/>
<g stroke="black" stroke-width="2" fill="none">
<line x1="160" y1="186" x2="161" y2="186"/>
</g>
<path d="M168,186v -4" fill="none" stroke="#99ff99" stroke-width="2"/>
<path d="M168,182v -5" fill="none" stroke="#99ff99" stroke-width="2"/>
<g stroke="black" stroke-width="2" fill="none">
<line x1="167" y1="182" x2="168" y2="182"/>
</g>
<path d="M176,191v -4" fill="none" stroke="#99ff99" stroke-width="2"/>
<path d="M176,187v -5" fill="none" stroke="#99ff99" stroke-width="2"/>
<g stroke="black" stroke-width="2" fill="none">
<line x1="175" y1="187" x2="176" y2="187"/>
</g>
<path d="M183,361v -3" fill="none" stroke="#99ff99" stroke-width="2"/>
<path d="M183,358v -3" fill="none" stroke="#99ff99" stroke-width="2"/>
<g stroke="black" stroke-width="2" fill="none">
<line x1="182" y1="358" x2="183" y2="358"/>
</g>
<path d="M191,346v -3" fill="none" stroke="#99ff99" stroke-width="2"/>
<path d="M191,343v -3" fill="none" stroke="#99ff99" stroke-width="2"/>
<g stroke="black" stroke-width="2" fill="none">
<line x1="190" y1="343" x2="191" y2="343"/>
</g>
<path d="M198,205v -5" fill="none" stroke="#99ff99" stroke-width="2"/>
<path d="M198,200v -4" fill="none" stroke="#99ff99" stroke-width="2"/>
<g stroke="black" stroke-width="2" fill="none">
<line x1="197" y1="200" x2="198" y2="200"/>
</g>
<path d="M206,206v -4" fill="none" stroke="#99ff99" stroke-width="2"/>
<path d="M206,202v -4" fill="none" stroke="#99ff99" stroke-width="2"/>
<g stroke="black" stroke-width="2" fill="none">
<line x1="205" y1="202" x2="206" y2="202"/>
</g>
<path d="M214,217v -4" fill="none" stroke="#99ff99" stroke-width="2"/>
<path d="M214,213v -4" fill="none" stroke="#99ff99" stroke-width="2"/>
<g stroke="black" stroke-width="2" fill="none">
<line x1="213" y1="213" x2="214" y2="213"/>
</g>
<path d="M221,196v -4" fill="none" stroke="#99ff99" stroke-width="2"/>
<path d="M221,192v -4" fill="none" stroke="#99ff99" stroke-width="2"/>
<g stroke="black" stroke-width="2" fill="none">
<line x1="220" y1="192" x2="221" y2="192"/>
</g>
<path d="M229,200v -4" fill="none" stroke="#99ff99" stroke-width="2"/>
<path d="M229,196v -4" fill="none" stroke="#99ff99" stroke-width="2"/>
<g stroke="black" stroke-width="2" fill="none">
<line x1="228" y1="196" x2="229" y2="196"/>
</g>
<path d="M236,195v -4" fill="none" stroke="#99ff99" stroke-width="2"/>
<path d="M236,191v -4" fill="none" stroke="#99ff99" stroke-width="2"/>
<g stroke="black" stroke-width="2" fill="none">
<line x1="235" y1="191" x2="236" y2="191"/>
</g>
<path d="M244,207v -4" fill="none" stroke="#99ff99" stroke-width="2"/>
<path d="M244,203v -4" fill="none" stroke="#99ff99" stroke-width="2"/>
<g stroke="black" stroke-width="2" fill="none">
<line x1="243" y1="203" x2="244" y2="203"/>
</g>
<path d="M251,190v -4" fill="none" stroke="#99ff99" stroke-width="2"/>
<path d="M251,186v -5" fill="none" stroke="#99ff99" stroke-width="2"/>
<g stroke="black" stroke-width="2" fill="none">
<line x1="250" y1="186" x2="251" y2="186"/>
</g>
<path d="M259,195v -4" fill="none" stroke="#99ff99" stroke-width="2"/>
<path d="M259,191v -4" fill="none" stroke="#99ff99" stroke-width="2"/>
<g stroke="black" stroke-width="2" fill="none">
<line x1="258" y1="191" x2="259" y2="191"/>
</g>
<path d="M266,192v -5" fill="none" stroke="#99ff99" stroke-width="2"/>
<path d="M266,187v -4" fill="none" stroke="#99ff99" stroke-width="2"/>
<g stroke="black" stroke-width="2" fill="none">
<line x1="265" y1="187" x2="266" y2="187"/>
</g>
<path d="M274,197v -5" fill="none" stroke="#99ff99" stroke-width="2"/>
<path d="M274,192v -4" fill="none" stroke="#99ff99" stroke-width="2"/>
<g stroke="black" stroke-width="2" fill="none">
<line x1="273" y1="192" x2="274" y2="192"/>
</g>
<path d="M282,194v -4" fill="none" stroke="#99ff99" stroke-width="2"/>
<path d="M282,190v -5" fill="none" stroke="#99ff99" stroke-width="2"/>
<g stroke="black" stroke-width="2" fill="none">
<line x1="281" y1="190" x2="282" y2="190"/>
</g>
<path d="M289,186v -4" fill="none" stroke="#99ff99" stroke-width="2"/>
<path d="M289,182v -5" fill="none" stroke="#99ff99" stroke-width="2"/>
<g stroke="black" stroke-width="2" fill="none">
<line x1="288" y1="182" x2="289" y2="182"/>
</g>
<path d="M297,204v -4" fill="none" stroke="#99ff99" stroke-width="2"/>
<path d="M297,200v -4" fill="none" stroke="#99ff99" stroke-width="2"/>
<g stroke="black" stroke-width="2" fill="none">
<line x1="296" y1="200" x2="297" y2="200"/>
</g>
<path d="M304,197v -5" fill="none" stroke="#99ff99" stroke-width="2"/>
<path d="M304,192v -4" fill="none" stroke="#99ff99" stroke-width="2"/>
<g stroke="black" stroke-width="2" fill="none">
<line x1="303" y1="192" x2="304" y2="192"/>
</g>
<path d="M312,192v -4" fill="none" stroke="#99ff99" stroke-width="2"/>
<path d="M312,188v -5" fill="none" stroke="#99ff99" stroke-width="2"/>
<g stroke="black" stroke-width="2" fill="none">
<line x1="311" y1="188" x2="312" y2="188"/>
</g>
<path d="M319,192v -4" fill="none" stroke="#99ff99" stroke-width="2"/>
<path d="M319,188v -5" fill="none" stroke="#99ff99" stroke-width="2"/>
<g stroke="black" stroke-width="2" fill="none">
<line x1="318" y1="188" x2="319" y2="188"/>
</g>
<path d="M327,199v -4" fill="none" stroke="#99ff99" stroke-width="2"/>
<path d="M327,195v -4" fill="none" stroke="#99ff99" stroke-width="2"/>
<g stroke="black" stroke-width="2" fill="none">
<line x1="326" y1="195" x2="327" y2="195"/>
</g>
<path d="M334,198v -5" fill="none" stroke="#99ff99" stroke-width="2"/>
<path d="M334,193v -4" fill="none" stroke="#99ff99" stroke-width="2"/>
<g stroke="black" stroke-width="2" fill="none">
<line x1="333" y1="193" x2="334" y2="193"/>
</g>
<path d="M342,194v -5" fill="none" stroke="#99ff99" stroke-width="2"/>
<path d="M342,189v -4" fill="none" stroke="#99ff99" stroke-width="2"/>
<g stroke="black" stroke-width="2" fill="none">
<line x1="341" y1="189" x2="342" y2="189"/>
</g>
<path d="M350,199v -4" fill="none" stroke="#99ff99" stroke-width="2"/>
<path d="M350,195v -4" fill="none" stroke="#99ff99" stroke-width="2"/>
<g stroke="black" stroke-width="2" fill="none">
<line x1="349" y1="195" x2="350" y2="195"/>
</g>
<path d="M357,210v -4" fill="none" stroke="#99ff99" stroke-width="2"/>
<path d="M357,206v -4" fill="none" stroke="#99ff99" stroke-width="2"/>
<g stroke="black" stroke-width="2" fill="none">
<line x1="356" y1="206" x2="357" y2="206"/>
</g>
<path d="M365,197v -4" fill="none" stroke="#99ff99" stroke-width="2"/>
<path d="M365,193v -4" fill="none" stroke="#99ff99" stroke-width="2"/>
<g stroke="black" stroke-width="2" fill="none">
<line x1="364" y1="193" x2="365" y2="193"/>
</g>
<path d="M372,197v -4" fill="none" stroke="#99ff99" stroke-width="2"/>
<path d="M372,193v -4" fill="none" stroke="#99ff99" stroke-width="2"/>
<g stroke="black" stroke-width="2" fill="none">
<line x1="371" y1="193" x2="372" y2="193"/>
</g>
<path d="M380,196v -4" fill="none" stroke="#99ff99" stroke-width="2"/>
<path d="M380,192v -4" fill="none" stroke="#99ff99" stroke-width="2"/>
<g stroke="black" stroke-width="2" fill="none">
<line x1="379" y1="192" x2="380" y2="192"/>
</g>
<path d="M387,215v -4" fill="none" stroke="#99ff99" stroke-width="2"/>
<path d="M387,211v -4" fill="none" stroke="#99ff99" stroke-width="2"/>
<g stroke="black" stroke-width="2" fill="none">
<line x1="386" y1="211" x2="387" y2="211"/>
</g>
<path d="M395,204v -4" fill="none" stroke="#99ff99" stroke-width="2"/>
<path d="M395,200v -5" fill="none" stroke="#99ff99" stroke-width="2"/>
<g stroke="black" stroke-width="2" fill="none">
<line x1="394" y1="200" x2="395" y2="200"/>
</g>
<path d="M403,197v -4" fill="none" stroke="#99ff99" stroke-width="2"/>
<path d="M403,193v -5" fill="none" stroke="#99ff99" stroke-width="2"/>
<g stroke="black" stroke-width="2" fill="none">
<line x1="402" y1="193" x2="403" y2="193"/>
</g>
<path d="M410,350v -2" fill="none" stroke="#99ff99" stroke-width="2"/>
<path d="M410,348v -3" fill="none" stroke="#99ff99" stroke-width="2"/>
<g stroke="black" stroke-width="2" fill="none">
<line x1="409" y1="348" x2="410" y2="348"/>
</g>
<path d="M418,366v -3" fill="none" stroke="#99ff99" stroke-width="2"/>
<path d="M418,363v -2" fill="none" stroke="#99ff99" stroke-width="2"/>
<g stroke="black" stroke-width="2" fill="none">
<line x1="417" y1="363" x2="418" y2="363"/>
</g>
<path d="M425,205v -5" fill="none" stroke="#99ff99" stroke-width="2"/>
<path d="M425,200v -4" fill="none" stroke="#99ff99" stroke-width="2"/>
<g stroke="black" stroke-width="2" fill="none">
<line x1="424" y1="200" x2="425" y2="200"/>
</g>
<path d="M433,188v -5" fill="none" stroke="#99ff99" stroke-width="2"/>
<path d="M433,183v -5" fill="none" stroke="#99ff99" stroke-width="2"/>
<g stroke="black" stroke-width="2" fill="none">
<line x1="432" y1="183" x2="433" y2="183"/>
</g>
<path d="M440,190v -5" fill="none" stroke="#99ff99" stroke-width="2"/>
<path d="M440,185v -4" fill="none" stroke="#99ff99" stroke-width="2"/>
<g stroke="black" stroke-width="2" fill="none">
<line x1="439" y1="185" x2="440" y2="185"/>
</g>
<path d="M448,178v -5" fill="none" stroke="#99ff99" stroke-width="2"/>
<path d="M448,173v -5" fill="none" stroke="#99ff99" stroke-width="2"/>
<g stroke="black" stroke-width="2" fill="none">
<line x1="447" y1="173" x2="448" y2="173"/>
</g>
<path d="M455,172v -4" fill="none" stroke="#99ff99" stroke-width="2"/>
<path d="M455,168v -5" fill="none" stroke="#99ff99" stroke-width="2"/>
<g stroke="black" stroke-width="2" fill="none">
<line x1="454" y1="168" x2="455" y2="168"/>
</g>
<path d="M463,178v -5" fill="none" stroke="#99ff99" stroke-width="2"/>
<path d="M463,173v -5" fill="none" stroke="#99ff99" stroke-width="2"/>
<g stroke="black" stroke-width="2" fill="none">
<line x1="462" y1="173" x2="463" y2="173"/>
</g>
<path d="M471,158v -5" fill="none" stroke="#99ff99" stroke-width="2"/>
<path d="M471,153v -5" fill="none" stroke="#99ff99" stroke-width="2"/>
<g stroke="black" stroke-width="2" fill="none">
<line x1="470" y1="153" x2="471" y2="153"/>
</g>
<path d="M478,169v -5" fill="none" stroke="#99ff99" stroke-width="2"/>
<path d="M478,164v -5" fill="none" stroke="#99ff99" stroke-width="2"/>
<g stroke="black" stroke-width="2" fill="none">
<line x1="477" y1="164" x2="478" y2="164"/>
</g>
<path d="M486,241v -3" fill="none" stroke="#99ff99" stroke-width="2"/>
<path d="M486,238v -3" fill="none" stroke="#99ff99" stroke-width="2"/>
<g stroke="black" stroke-width="2" fill="none">
<line x1="485" y1="238" x2="486" y2="238"/>
</g>
<path d="M74,446h 37v -197h 8v -69h 8v -1h 7v -3h 8v 7h 7v -18h 8v 21h 7v -4h 8v 5h 8v 171h 7v -15h 8v -143h 7v 2h 8v 11h 7v -21h 8v 4h 7v -5h 8v 12h 8v -17h 7v 5h 8v -4h 7v 5h 8v -2h 7v -8h 8v 18h 7v -8h 8v -4h 15v 7h 8v -2h 7v -4h 8v 6h 7v 11h 8v
 -13h 15v -1h 8v 19h 7v -11h 8v -7h 7v 155h 8v 15h 7v -163h 8v -17h 8v 2h 7v -12h 8v -5h 7v 5h 8v -20h 7v 11h 8v 74h 7v 208h 38z" fill="#99ff99"/>
<path d="M74,446h 37v -197h 8v -69h 8v -1h 7v -3h 8v 7h 7v -18h 8v 21h 7v -4h 8v 5h 8v 171h 7v -15h 8v -143h 7v 2h 8v 11h 7v -21h 8v 4h 7v -5h 8v 12h 8v -17h 7v 5h 8v -4h 7v 5h 8v -2h 7v -8h 8v 18h 7v -8h 8v -4h 15v 7h 8v -2h 7v -4h 8v 6h 7v 11h 8v
 -13h 15v -1h 8v 19h 7v -11h 8v -7h 7v 155h 8v 15h 7v -163h 8v -17h 8v 2h 7v -12h 8v -5h 7v 5h 8v -20h 7v 11h 8v 74h 7v 208h 38" fill="none" stroke="#99ff99" stroke-width="2"/>
<path d="M111,372h 3" fill="none" stroke="#ff0099"/>
<path d="M116,372h 3" fill="none" stroke="#ff0099"/>
<g stroke="#ff0099" stroke-width="1" fill="#ff0099">
<circle cx=" 115" cy=" 372" r=" 1.5"/>
</g>
<path d="M119,354h 3" fill="none" stroke="#ff0099"/>
<path d="M124,354h 3" fill="none" stroke="#ff0099"/>
<g stroke="#ff0099" stroke-width="1" fill="#ff0099">
<circle cx=" 123" cy=" 354" r=" 1.5"/>
</g>
<path d="M127,332h 2" fill="none" stroke="#ff0099"/>
<path d="M132,332h 2" fill="none" stroke="#ff0099"/>
<g stroke="#ff0099" stroke-width="1" fill="#ff0099">
<circle cx=" 130" cy=" 332" r=" 1.5"/>
</g>
<path d="M134,308h 3" fill="none" stroke="#ff0099"/>
<path d="M139,308h 3" fill="none" stroke="#ff0099"/>
<g stroke="#ff0099" stroke-width="1" fill="#ff0099">
<circle cx=" 138" cy=" 308" r=" 1.5"/>
</g>
<path d="M146,267" fill="none" stroke="#ff0099"/>
<path d="M146,265" fill="none" stroke="#ff0099"/>
<path d="M142,266h 2" fill="none" stroke="#ff0099"/>
<path d="M147,266h 2" fill="none" stroke="#ff0099"/>
<g stroke="#ff0099" stroke-width="1" fill="#ff0099">
<circle cx=" 146" cy=" 266" r=" 1.5"/>
</g>
<path d="M153,214" fill="none" stroke="#ff0099"/>
<path d="M153,212v -1" fill="none" stroke="#ff0099"/>
<path d="M149,213h 3" fill="none" stroke="#ff0099"/>
<path d="M154,213h 3" fill="none" stroke="#ff0099"/>
<g stroke="#ff0099" stroke-width="1" fill="#ff0099">
<circle cx=" 153" cy=" 213" r=" 1.5"/>
</g>
<path d="M161,161v -1" fill="none" stroke="#ff0099"/>
<path d="M161,158v -1" fill="none" stroke="#ff0099"/>
<path d="M157,159h 2" fill="none" stroke="#ff0099"/>
<path d="M162,159h 2" fill="none" stroke="#ff0099"/>
<g stroke="#ff0099" stroke-width="1" fill="#ff0099">
<circle cx=" 161" cy=" 159" r=" 1.5"/>
</g>
<path d="M168,109v -1" fill="none" stroke="#ff0099"/>
<path d="M168,106v -1" fill="none" stroke="#ff0099"/>
<path d="M164,107h 3" fill="none" stroke="#ff0099"/>
<path d="M169,107h 3" fill="none" stroke="#ff0099"/>
<g stroke="#ff0099" stroke-width="1" fill="#ff0099">
<circle cx=" 168" cy=" 107" r=" 1.5"/>
</g>
<path d="M176,119v -1" fill="none" stroke="#ff0099"/>
<path d="M176,116v -1" fill="none" stroke="#ff0099"/>
<path d="M172,117h 3" fill="none" stroke="#ff0099"/>
<path d="M177,117h 3" fill="none" stroke="#ff0099"/>
<g stroke="#ff0099" stroke-width="1" fill="#ff0099">
<circle cx=" 176" cy=" 117" r=" 1.5"/>
</g>
<path d="M180,337h 2" fill="none" stroke="#ff0099"/>
<path d="M184,337h 3" fill="none" stroke="#ff0099"/>
<g stroke="#ff0099" stroke-width="1" fill="#ff0099">
<circle cx=" 183" cy=" 337" r=" 1.5"/>
</g>
<path d="M191,290" fill="none" stroke="#ff0099"/>
<path d="M191,287" fill="none" stroke="#ff0099"/>
<path d="M187,289h 3" fill="none" stroke="#ff0099"/>
<path d="M192,289h 3" fill="none" stroke="#ff0099"/>
<g stroke="#ff0099" stroke-width="1" fill="#ff0099">
<circle cx=" 191" cy=" 289" r=" 1.5"/>
</g>
<path d="M198,73v -1" fill="none" stroke="#ff0099"/>
<path d="M198,69v -1" fill="none" stroke="#ff0099"/>
<path d="M195,70h 2" fill="none" stroke="#ff0099"/>
<path d="M200,70h 2" fill="none" stroke="#ff0099"/>
<g stroke="#ff0099" stroke-width="1" fill="#ff0099">
<circle cx=" 198" cy=" 70" r=" 1.5"/>
</g>
<path d="M206,70v -1" fill="none" stroke="#ff0099"/>
<path d="M206,66v -1" fill="none" stroke="#ff0099"/>
<path d="M202,67h 3" fill="none" stroke="#ff0099"/>
<path d="M207,67h 3" fill="none" stroke="#ff0099"/>
<g stroke="#ff0099" stroke-width="1" fill="#ff0099">
<circle cx=" 206" cy=" 67" r=" 1.5"/>
</g>
<path d="M214,80v -1" fill="none" stroke="#ff0099"/>
<path d="M214,77v -1" fill="none" stroke="#ff0099"/>
<path d="M210,78h 2" fill="none" stroke="#ff0099"/>
<path d="M215,78h 2" fill="none" stroke="#ff0099"/>
<g stroke="#ff0099" stroke-width="1" fill="#ff0099">
<circle cx=" 214" cy=" 78" r=" 1.5"/>
</g>
<path d="M221,72v -1" fill="none" stroke="#ff0099"/>
<path d="M221,69v -1" fill="none" stroke="#ff0099"/>
<path d="M217,70h 3" fill="none" stroke="#ff0099"/>
<path d="M222,70h 3" fill="none" stroke="#ff0099"/>
<g stroke="#ff0099" stroke-width="1" fill="#ff0099">
<circle cx=" 221" cy=" 70" r=" 1.5"/>
</g>
<path d="M229,121v -1" fill="none" stroke="#ff0099"/>
<path d="M229,118v -1" fill="none" stroke="#ff0099"/>
<path d="M225,119h 3" fill="none" stroke="#ff0099"/>
<path d="M230,119h 2" fill="none" stroke="#ff0099"/>
<g stroke="#ff0099" stroke-width="1" fill="#ff0099">
<circle cx=" 229" cy=" 119" r=" 1.5"/>
</g>
<path d="M236,148" fill="none" stroke="#ff0099"/>
<path d="M236,146v -1" fill="none" stroke="#ff0099"/>
<path d="M232,147h 3" fill="none" stroke="#ff0099"/>
<path d="M237,147h 3" fill="none" stroke="#ff0099"/>
<g stroke="#ff0099" stroke-width="1" fill="#ff0099">
<circle cx=" 236" cy=" 147" r=" 1.5"/>
</g>
<path d="M244,198" fill="none" stroke="#ff0099"/>
<path d="M244,196v -1" fill="none" stroke="#ff0099"/>
<path d="M240,197h 3" fill="none" stroke="#ff0099"/>
<path d="M245,197h 3" fill="none" stroke="#ff0099"/>
<g stroke="#ff0099" stroke-width="1" fill="#ff0099">
<circle cx=" 244" cy=" 197" r=" 1.5"/>
</g>
<path d="M251,188" fill="none" stroke="#ff0099"/>
<path d="M251,186" fill="none" stroke="#ff0099"/>
<path d="M248,187h 2" fill="none" stroke="#ff0099"/>
<path d="M252,187h 3" fill="none" stroke="#ff0099"/>
<g stroke="#ff0099" stroke-width="1" fill="#ff0099">
<circle cx=" 251" cy=" 187" r=" 1.5"/>
</g>
<path d="M259,194" fill="none" stroke="#ff0099"/>
<path d="M259,192" fill="none" stroke="#ff0099"/>
<path d="M255,193h 3" fill="none" stroke="#ff0099"/>
<path d="M260,193h 3" fill="none" stroke="#ff0099"/>
<g stroke="#ff0099" stroke-width="1" fill="#ff0099">
<circle cx=" 259" cy=" 193" r=" 1.5"/>
</g>
<path d="M266,201" fill="none" stroke="#ff0099"/>
<path d="M266,199" fill="none" stroke="#ff0099"/>
<path d="M263,200h 2" fill="none" stroke="#ff0099"/>
<path d="M268,200h 2" fill="none" stroke="#ff0099"/>
<g stroke="#ff0099" stroke-width="1" fill="#ff0099">
<circle cx=" 266" cy=" 200" r=" 1.5"/>
</g>
<path d="M274,212" fill="none" stroke="#ff0099"/>
<path d="M274,210" fill="none" stroke="#ff0099"/>
<path d="M270,211h 3" fill="none" stroke="#ff0099"/>
<path d="M275,211h 3" fill="none" stroke="#ff0099"/>
<g stroke="#ff0099" stroke-width="1" fill="#ff0099">
<circle cx=" 274" cy=" 211" r=" 1.5"/>
</g>
<path d="M278,220h 2" fill="none" stroke="#ff0099"/>
<path d="M283,220h 2" fill="none" stroke="#ff0099"/>
<g stroke="#ff0099" stroke-width="1" fill="#ff0099">
<circle cx=" 282" cy=" 220" r=" 1.5"/>
</g>
<path d="M285,235h 3" fill="none" stroke="#ff0099"/>
<path d="M290,235h 3" fill="none" stroke="#ff0099"/>
<g stroke="#ff0099" stroke-width="1" fill="#ff0099">
<circle cx=" 289" cy=" 235" r=" 1.5"/>
</g>
<path d="M293,239h 3" fill="none" stroke="#ff0099"/>
<path d="M298,239h 2" fill="none" stroke="#ff0099"/>
<g stroke="#ff0099" stroke-width="1" fill="#ff0099">
<circle cx=" 297" cy=" 239" r=" 1.5"/>
</g>
<path d="M300,234h 3" fill="none" stroke="#ff0099"/>
<path d="M305,234h 3" fill="none" stroke="#ff0099"/>
<g stroke="#ff0099" stroke-width="1" fill="#ff0099">
<circle cx=" 304" cy=" 234" r=" 1.5"/>
</g>
<path d="M308,230h 3" fill="none" stroke="#ff0099"/>
<path d="M313,230h 3" fill="none" stroke="#ff0099"/>
<g stroke="#ff0099" stroke-width="1" fill="#ff0099">
<circle cx=" 312" cy=" 230" r=" 1.5"/>
</g>
<path d="M316,214h 2" fill="none" stroke="#ff0099"/>
<path d="M321,214h 2" fill="none" stroke="#ff0099"/>
<g stroke="#ff0099" stroke-width="1" fill="#ff0099">
<circle cx=" 319" cy=" 214" r=" 1.5"/>
</g>
<path d="M327,209v -1" fill="none" stroke="#ff0099"/>
<path d="M327,206" fill="none" stroke="#ff0099"/>
<path d="M323,207h 3" fill="none" stroke="#ff0099"/>
<path d="M328,207h 3" fill="none" stroke="#ff0099"/>
<g stroke="#ff0099" stroke-width="1" fill="#ff0099">
<circle cx=" 327" cy=" 207" r=" 1.5"/>
</g>
<path d="M334,202" fill="none" stroke="#ff0099"/>
<path d="M334,199" fill="none" stroke="#ff0099"/>
<path d="M331,200h 2" fill="none" stroke="#ff0099"/>
<path d="M336,200h 2" fill="none" stroke="#ff0099"/>
<g stroke="#ff0099" stroke-width="1" fill="#ff0099">
<circle cx=" 334" cy=" 200" r=" 1.5"/>
</g>
<path d="M342,193" fill="none" stroke="#ff0099"/>
<path d="M342,190" fill="none" stroke="#ff0099"/>
<path d="M338,192h 3" fill="none" stroke="#ff0099"/>
<path d="M343,192h 3" fill="none" stroke="#ff0099"/>
<g stroke="#ff0099" stroke-width="1" fill="#ff0099">
<circle cx=" 342" cy=" 192" r=" 1.5"/>
</g>
<path d="M350,186" fill="none" stroke="#ff0099"/>
<path d="M350,184v -1" fill="none" stroke="#ff0099"/>
<path d="M346,185h 2" fill="none" stroke="#ff0099"/>
<path d="M351,185h 2" fill="none" stroke="#ff0099"/>
<g stroke="#ff0099" stroke-width="1" fill="#ff0099">
<circle cx=" 350" cy=" 185" r=" 1.5"/>
</g>
<path d="M357,189" fill="none" stroke="#ff0099"/>
<path d="M357,187" fill="none" stroke="#ff0099"/>
<path d="M353,188h 3" fill="none" stroke="#ff0099"/>
<path d="M358,188h 3" fill="none" stroke="#ff0099"/>
<g stroke="#ff0099" stroke-width="1" fill="#ff0099">
<circle cx=" 357" cy=" 188" r=" 1.5"/>
</g>
<path d="M365,147v -1" fill="none" stroke="#ff0099"/>
<path d="M365,144" fill="none" stroke="#ff0099"/>
<path d="M361,145h 3" fill="none" stroke="#ff0099"/>
<path d="M366,145h 3" fill="none" stroke="#ff0099"/>
<g stroke="#ff0099" stroke-width="1" fill="#ff0099">
<circle cx=" 365" cy=" 145" r=" 1.5"/>
</g>
<path d="M372,122" fill="none" stroke="#ff0099"/>
<path d="M372,119" fill="none" stroke="#ff0099"/>
<path d="M369,121h 2" fill="none" stroke="#ff0099"/>
<path d="M373,121h 3" fill="none" stroke="#ff0099"/>
<g stroke="#ff0099" stroke-width="1" fill="#ff0099">
<circle cx=" 372" cy=" 121" r=" 1.5"/>
</g>
<path d="M380,81" fill="none" stroke="#ff0099"/>
<path d="M380,78v -1" fill="none" stroke="#ff0099"/>
<path d="M376,79h 3" fill="none" stroke="#ff0099"/>
<path d="M381,79h 3" fill="none" stroke="#ff0099"/>
<g stroke="#ff0099" stroke-width="1" fill="#ff0099">
<circle cx=" 380" cy=" 79" r=" 1.5"/>
</g>
<path d="M387,84v -1" fill="none" stroke="#ff0099"/>
<path d="M387,80v -1" fill="none" stroke="#ff0099"/>
<path d="M384,81h 2" fill="none" stroke="#ff0099"/>
<path d="M389,81h 2" fill="none" stroke="#ff0099"/>
<g stroke="#ff0099" stroke-width="1" fill="#ff0099">
<circle cx=" 387" cy=" 81" r=" 1.5"/>
</g>
<path d="M395,68v -1" fill="none" stroke="#ff0099"/>
<path d="M395,64v -1" fill="none" stroke="#ff0099"/>
<path d="M391,66h 3" fill="none" stroke="#ff0099"/>
<path d="M396,66h 3" fill="none" stroke="#ff0099"/>
<g stroke="#ff0099" stroke-width="1" fill="#ff0099">
<circle cx=" 395" cy=" 66" r=" 1.5"/>
</g>
<path d="M403,69v -1" fill="none" stroke="#ff0099"/>
<path d="M403,65v -1" fill="none" stroke="#ff0099"/>
<path d="M399,66h 2" fill="none" stroke="#ff0099"/>
<path d="M404,66h 2" fill="none" stroke="#ff0099"/>
<g stroke="#ff0099" stroke-width="1" fill="#ff0099">
<circle cx=" 403" cy=" 66" r=" 1.5"/>
</g>
<path d="M410,296" fill="none" stroke="#ff0099"/>
<path d="M410,294v -1" fill="none" stroke="#ff0099"/>
<path d="M406,295h 3" fill="none" stroke="#ff0099"/>
<path d="M411,295h 3" fill="none" stroke="#ff0099"/>
<g stroke="#ff0099" stroke-width="1" fill="#ff0099">
<circle cx=" 410" cy=" 295" r=" 1.5"/>
</g>
<path d="M414,342h 2" fill="none" stroke="#ff0099"/>
<path d="M419,342h 2" fill="none" stroke="#ff0099"/>
<g stroke="#ff0099" stroke-width="1" fill="#ff0099">
<circle cx=" 418" cy=" 342" r=" 1.5"/>
</g>
<path d="M425,143v -1" fill="none" stroke="#ff0099"/>
<path d="M425,140v -1" fill="none" stroke="#ff0099"/>
<path d="M421,141h 3" fill="none" stroke="#ff0099"/>
<path d="M426,141h 3" fill="none" stroke="#ff0099"/>
<g stroke="#ff0099" stroke-width="1" fill="#ff0099">
<circle cx=" 425" cy=" 141" r=" 1.5"/>
</g>
<path d="M433,134" fill="none" stroke="#ff0099"/>
<path d="M433,131v -1" fill="none" stroke="#ff0099"/>
<path d="M429,132h 3" fill="none" stroke="#ff0099"/>
<path d="M434,132h 3" fill="none" stroke="#ff0099"/>
<g stroke="#ff0099" stroke-width="1" fill="#ff0099">
<circle cx=" 433" cy=" 132" r=" 1.5"/>
</g>
<path d="M440,168" fill="none" stroke="#ff0099"/>
<path d="M440,165" fill="none" stroke="#ff0099"/>
<path d="M437,166h 2" fill="none" stroke="#ff0099"/>
<path d="M441,166h 3" fill="none" stroke="#ff0099"/>
<g stroke="#ff0099" stroke-width="1" fill="#ff0099">
<circle cx=" 440" cy=" 166" r=" 1.5"/>
</g>
<path d="M448,214" fill="none" stroke="#ff0099"/>
<path d="M448,211" fill="none" stroke="#ff0099"/>
<path d="M444,213h 3" fill="none" stroke="#ff0099"/>
<path d="M449,213h 3" fill="none" stroke="#ff0099"/>
<g stroke="#ff0099" stroke-width="1" fill="#ff0099">
<circle cx=" 448" cy=" 213" r=" 1.5"/>
</g>
<path d="M455,265" fill="none" stroke="#ff0099"/>
<path d="M455,263" fill="none" stroke="#ff0099"/>
<path d="M452,264h 2" fill="none" stroke="#ff0099"/>
<path d="M457,264h 2" fill="none" stroke="#ff0099"/>
<g stroke="#ff0099" stroke-width="1" fill="#ff0099">
<circle cx=" 455" cy=" 264" r=" 1.5"/>
</g>
<path d="M459,300h 3" fill="none" stroke="#ff0099"/>
<path d="M464,300h 3" fill="none" stroke="#ff0099"/>
<g stroke="#ff0099" stroke-width="1" fill="#ff0099">
<circle cx=" 463" cy=" 300" r=" 1.5"/>
</g>
<path d="M467,325h 2" fill="none" stroke="#ff0099"/>
<path d="M472,325h 2" fill="none" stroke="#ff0099"/>
<g stroke="#ff0099" stroke-width="1" fill="#ff0099">
<circle cx=" 471" cy=" 325" r=" 1.5"/>
</g>
<path d="M474,347h 3" fill="none" stroke="#ff0099"/>
<path d="M479,347h 3" fill="none" stroke="#ff0099"/>
<g stroke="#ff0099" stroke-width="1" fill="#ff0099">
<circle cx=" 478" cy=" 347" r=" 1.5"/>
</g>
<path d="M482,368h 3" fill="none" stroke="#ff0099"/>
<path d="M487,368h 2" fill="none" stroke="#ff0099"/>
<g stroke="#ff0099" stroke-width="1" fill="#ff0099">
<circle cx=" 486" cy=" 368" r=" 1.5"/>
</g>
<rect x="357" y="59" width="142" height="99" fill="white"/>
<text x="360" y="82" fill="black" font-size="17" font-family="Helvetica" font-weight="bold">
All
</text>
<text x="457" y="115" fill="black" font-size="17" font-family="Helvetica" font-weight="bold">
 ee
</text>
<text x="440" y="115" fill="black" font-size="17" font-family="Times">
&#8594;
</text>
<text x="392" y="115" fill="black" font-size="17" font-family="Helvetica" font-weight="bold">
MC Z 
</text>
<path d="M362,109h 25" fill="none" stroke="#ff0099"/>
<g stroke="#ff0099" stroke-width="1" fill="#ff0099">
<circle cx=" 375" cy=" 109" r=" 1.5"/>
</g>
<text x="455" y="147" fill="black" font-size="17" font-family="Helvetica" font-weight="bold">
 + jet
</text>
<text x="447" y="147" fill="black" font-size="17" font-family="Times">
&#0947;
</text>
<text x="392" y="147" fill="black" font-size="17" font-family="Helvetica" font-weight="bold">
signal 
</text>
<path d="M362,154h 25v -24h -25z" fill="#99ff99"/>
<path d="M362,130h 25" fill="none" stroke="#99ff99" stroke-width="2"/>
<path d="M362,154h 25" fill="none" stroke="#99ff99" stroke-width="2"/>
<path d="M387,154v -24" fill="none" stroke="#99ff99" stroke-width="2"/>
<path d="M362,154v -24" fill="none" stroke="#99ff99" stroke-width="2"/>
<text x="300" y="34" fill="black" font-size="17" font-family="Helvetica" font-weight="bold">
=8 TeV
</text>
<text x="291" y="34" fill="black" font-size="17" font-family="Helvetica" font-weight="bold">
s
</text>
<path d="M285,25l 2, 10" fill="none" stroke="black" stroke-width="2"/>
<path d="M287,35l 2, -14" fill="none" stroke="black"/>
<path d="M289,21h 11" fill="none" stroke="black"/>
<text x="142" y="34" fill="black" font-size="17" font-family="Helvetica" font-weight="bold">
CMS Preliminary 
</text></svg>
