<?xml version="1.0" standalone="no"?>
<svg width="567" height="496" viewBox="0 0 567 496" xmlns="http://www.w3.org/2000/svg">
<title>
../src/TagAndProbeZ/plots_mcZee_mcGJet_withEtaR9nvtxReweight/hlt30/etaPhotEB.svg
</title>
<desc>
Creator: ROOT Version 5.32/00
CreationDate: Sun Sep 28 11:59:23 2014</desc>
<defs>
</defs>
<rect x="0" y="0" width="567" height="496" fill="white"/>
<rect x="74" y="44" width="453" height="402" fill="white"/>
<rect x="74" y="44" width="453" height="402" fill="none" stroke="black"/>
<rect x="74" y="44" width="453" height="402" fill="white"/>
<rect x="74" y="44" width="453" height="402" fill="none" stroke="black"/>
<path d="M191,326" fill="none" stroke="#ff0099"/>
<path d="M191,323" fill="none" stroke="#ff0099"/>
<path d="M187,324h 3" fill="none" stroke="#ff0099"/>
<path d="M192,324h 3" fill="none" stroke="#ff0099"/>
<g stroke="#ff0099" stroke-width="1" fill="#ff0099">
<circle cx=" 191" cy=" 324" r=" 1.5"/>
</g>
<path d="M198,172v -1" fill="none" stroke="#ff0099"/>
<path d="M198,169v -1" fill="none" stroke="#ff0099"/>
<path d="M195,170h 2" fill="none" stroke="#ff0099"/>
<path d="M200,170h 2" fill="none" stroke="#ff0099"/>
<g stroke="#ff0099" stroke-width="1" fill="#ff0099">
<circle cx=" 198" cy=" 170" r=" 1.5"/>
</g>
<path d="M206,172v -2" fill="none" stroke="#ff0099"/>
<path d="M206,168v -1" fill="none" stroke="#ff0099"/>
<path d="M202,169h 3" fill="none" stroke="#ff0099"/>
<path d="M207,169h 3" fill="none" stroke="#ff0099"/>
<g stroke="#ff0099" stroke-width="1" fill="#ff0099">
<circle cx=" 206" cy=" 169" r=" 1.5"/>
</g>
<path d="M214,176v -1" fill="none" stroke="#ff0099"/>
<path d="M214,173v -1" fill="none" stroke="#ff0099"/>
<path d="M210,174h 2" fill="none" stroke="#ff0099"/>
<path d="M215,174h 2" fill="none" stroke="#ff0099"/>
<g stroke="#ff0099" stroke-width="1" fill="#ff0099">
<circle cx=" 214" cy=" 174" r=" 1.5"/>
</g>
<path d="M221,139v -2" fill="none" stroke="#ff0099"/>
<path d="M221,135v -1" fill="none" stroke="#ff0099"/>
<path d="M217,136h 3" fill="none" stroke="#ff0099"/>
<path d="M222,136h 3" fill="none" stroke="#ff0099"/>
<g stroke="#ff0099" stroke-width="1" fill="#ff0099">
<circle cx=" 221" cy=" 136" r=" 1.5"/>
</g>
<path d="M229,112v -2" fill="none" stroke="#ff0099"/>
<path d="M229,108v -2" fill="none" stroke="#ff0099"/>
<path d="M225,109h 3" fill="none" stroke="#ff0099"/>
<path d="M230,109h 2" fill="none" stroke="#ff0099"/>
<g stroke="#ff0099" stroke-width="1" fill="#ff0099">
<circle cx=" 229" cy=" 109" r=" 1.5"/>
</g>
<path d="M236,78v -2" fill="none" stroke="#ff0099"/>
<path d="M236,74v -2" fill="none" stroke="#ff0099"/>
<path d="M232,75h 3" fill="none" stroke="#ff0099"/>
<path d="M237,75h 3" fill="none" stroke="#ff0099"/>
<g stroke="#ff0099" stroke-width="1" fill="#ff0099">
<circle cx=" 236" cy=" 75" r=" 1.5"/>
</g>
<path d="M244,118v -1" fill="none" stroke="#ff0099"/>
<path d="M244,114v -1" fill="none" stroke="#ff0099"/>
<path d="M240,115h 3" fill="none" stroke="#ff0099"/>
<path d="M245,115h 3" fill="none" stroke="#ff0099"/>
<g stroke="#ff0099" stroke-width="1" fill="#ff0099">
<circle cx=" 244" cy=" 115" r=" 1.5"/>
</g>
<path d="M251,76v -2" fill="none" stroke="#ff0099"/>
<path d="M251,72v -2" fill="none" stroke="#ff0099"/>
<path d="M248,73h 2" fill="none" stroke="#ff0099"/>
<path d="M252,73h 3" fill="none" stroke="#ff0099"/>
<g stroke="#ff0099" stroke-width="1" fill="#ff0099">
<circle cx=" 251" cy=" 73" r=" 1.5"/>
</g>
<path d="M259,73v -2" fill="none" stroke="#ff0099"/>
<path d="M259,69v -2" fill="none" stroke="#ff0099"/>
<path d="M255,70h 3" fill="none" stroke="#ff0099"/>
<path d="M260,70h 3" fill="none" stroke="#ff0099"/>
<g stroke="#ff0099" stroke-width="1" fill="#ff0099">
<circle cx=" 259" cy=" 70" r=" 1.5"/>
</g>
<path d="M266,88v -1" fill="none" stroke="#ff0099"/>
<path d="M266,84v -1" fill="none" stroke="#ff0099"/>
<path d="M263,85h 2" fill="none" stroke="#ff0099"/>
<path d="M268,85h 2" fill="none" stroke="#ff0099"/>
<g stroke="#ff0099" stroke-width="1" fill="#ff0099">
<circle cx=" 266" cy=" 85" r=" 1.5"/>
</g>
<path d="M274,82v -2" fill="none" stroke="#ff0099"/>
<path d="M274,78v -2" fill="none" stroke="#ff0099"/>
<path d="M270,79h 3" fill="none" stroke="#ff0099"/>
<path d="M275,79h 3" fill="none" stroke="#ff0099"/>
<g stroke="#ff0099" stroke-width="1" fill="#ff0099">
<circle cx=" 274" cy=" 79" r=" 1.5"/>
</g>
<path d="M282,78v -2" fill="none" stroke="#ff0099"/>
<path d="M282,74v -1" fill="none" stroke="#ff0099"/>
<path d="M278,75h 2" fill="none" stroke="#ff0099"/>
<path d="M283,75h 2" fill="none" stroke="#ff0099"/>
<g stroke="#ff0099" stroke-width="1" fill="#ff0099">
<circle cx=" 282" cy=" 75" r=" 1.5"/>
</g>
<path d="M289,76v -1" fill="none" stroke="#ff0099"/>
<path d="M289,72v -1" fill="none" stroke="#ff0099"/>
<path d="M285,73h 3" fill="none" stroke="#ff0099"/>
<path d="M290,73h 3" fill="none" stroke="#ff0099"/>
<g stroke="#ff0099" stroke-width="1" fill="#ff0099">
<circle cx=" 289" cy=" 73" r=" 1.5"/>
</g>
<path d="M297,88v -1" fill="none" stroke="#ff0099"/>
<path d="M297,85v -2" fill="none" stroke="#ff0099"/>
<path d="M293,86h 3" fill="none" stroke="#ff0099"/>
<path d="M298,86h 2" fill="none" stroke="#ff0099"/>
<g stroke="#ff0099" stroke-width="1" fill="#ff0099">
<circle cx=" 297" cy=" 86" r=" 1.5"/>
</g>
<path d="M304,77v -2" fill="none" stroke="#ff0099"/>
<path d="M304,73v -1" fill="none" stroke="#ff0099"/>
<path d="M300,74h 3" fill="none" stroke="#ff0099"/>
<path d="M305,74h 3" fill="none" stroke="#ff0099"/>
<g stroke="#ff0099" stroke-width="1" fill="#ff0099">
<circle cx=" 304" cy=" 74" r=" 1.5"/>
</g>
<path d="M312,69v -2" fill="none" stroke="#ff0099"/>
<path d="M312,65v -2" fill="none" stroke="#ff0099"/>
<path d="M308,66h 3" fill="none" stroke="#ff0099"/>
<path d="M313,66h 3" fill="none" stroke="#ff0099"/>
<g stroke="#ff0099" stroke-width="1" fill="#ff0099">
<circle cx=" 312" cy=" 66" r=" 1.5"/>
</g>
<path d="M319,72v -2" fill="none" stroke="#ff0099"/>
<path d="M319,68v -2" fill="none" stroke="#ff0099"/>
<path d="M316,69h 2" fill="none" stroke="#ff0099"/>
<path d="M321,69h 2" fill="none" stroke="#ff0099"/>
<g stroke="#ff0099" stroke-width="1" fill="#ff0099">
<circle cx=" 319" cy=" 69" r=" 1.5"/>
</g>
<path d="M327,77v -2" fill="none" stroke="#ff0099"/>
<path d="M327,73v -2" fill="none" stroke="#ff0099"/>
<path d="M323,74h 3" fill="none" stroke="#ff0099"/>
<path d="M328,74h 3" fill="none" stroke="#ff0099"/>
<g stroke="#ff0099" stroke-width="1" fill="#ff0099">
<circle cx=" 327" cy=" 74" r=" 1.5"/>
</g>
<path d="M334,87v -1" fill="none" stroke="#ff0099"/>
<path d="M334,83v -1" fill="none" stroke="#ff0099"/>
<path d="M331,85h 2" fill="none" stroke="#ff0099"/>
<path d="M336,85h 2" fill="none" stroke="#ff0099"/>
<g stroke="#ff0099" stroke-width="1" fill="#ff0099">
<circle cx=" 334" cy=" 85" r=" 1.5"/>
</g>
<path d="M342,74v -2" fill="none" stroke="#ff0099"/>
<path d="M342,70v -2" fill="none" stroke="#ff0099"/>
<path d="M338,71h 3" fill="none" stroke="#ff0099"/>
<path d="M343,71h 3" fill="none" stroke="#ff0099"/>
<g stroke="#ff0099" stroke-width="1" fill="#ff0099">
<circle cx=" 342" cy=" 71" r=" 1.5"/>
</g>
<path d="M350,73v -1" fill="none" stroke="#ff0099"/>
<path d="M350,69v -1" fill="none" stroke="#ff0099"/>
<path d="M346,71h 2" fill="none" stroke="#ff0099"/>
<path d="M351,71h 2" fill="none" stroke="#ff0099"/>
<g stroke="#ff0099" stroke-width="1" fill="#ff0099">
<circle cx=" 350" cy=" 71" r=" 1.5"/>
</g>
<path d="M357,111v -2" fill="none" stroke="#ff0099"/>
<path d="M357,107v -2" fill="none" stroke="#ff0099"/>
<path d="M353,108h 3" fill="none" stroke="#ff0099"/>
<path d="M358,108h 3" fill="none" stroke="#ff0099"/>
<g stroke="#ff0099" stroke-width="1" fill="#ff0099">
<circle cx=" 357" cy=" 108" r=" 1.5"/>
</g>
<path d="M365,82v -2" fill="none" stroke="#ff0099"/>
<path d="M365,77v -1" fill="none" stroke="#ff0099"/>
<path d="M361,79h 3" fill="none" stroke="#ff0099"/>
<path d="M366,79h 3" fill="none" stroke="#ff0099"/>
<g stroke="#ff0099" stroke-width="1" fill="#ff0099">
<circle cx=" 365" cy=" 79" r=" 1.5"/>
</g>
<path d="M372,109v -2" fill="none" stroke="#ff0099"/>
<path d="M372,105v -2" fill="none" stroke="#ff0099"/>
<path d="M369,106h 2" fill="none" stroke="#ff0099"/>
<path d="M373,106h 3" fill="none" stroke="#ff0099"/>
<g stroke="#ff0099" stroke-width="1" fill="#ff0099">
<circle cx=" 372" cy=" 106" r=" 1.5"/>
</g>
<path d="M380,137v -2" fill="none" stroke="#ff0099"/>
<path d="M380,133v -2" fill="none" stroke="#ff0099"/>
<path d="M376,134h 3" fill="none" stroke="#ff0099"/>
<path d="M381,134h 3" fill="none" stroke="#ff0099"/>
<g stroke="#ff0099" stroke-width="1" fill="#ff0099">
<circle cx=" 380" cy=" 134" r=" 1.5"/>
</g>
<path d="M387,175v -1" fill="none" stroke="#ff0099"/>
<path d="M387,172v -1" fill="none" stroke="#ff0099"/>
<path d="M384,173h 2" fill="none" stroke="#ff0099"/>
<path d="M389,173h 2" fill="none" stroke="#ff0099"/>
<g stroke="#ff0099" stroke-width="1" fill="#ff0099">
<circle cx=" 387" cy=" 173" r=" 1.5"/>
</g>
<path d="M395,163v -2" fill="none" stroke="#ff0099"/>
<path d="M395,159v -1" fill="none" stroke="#ff0099"/>
<path d="M391,160h 3" fill="none" stroke="#ff0099"/>
<path d="M396,160h 3" fill="none" stroke="#ff0099"/>
<g stroke="#ff0099" stroke-width="1" fill="#ff0099">
<circle cx=" 395" cy=" 160" r=" 1.5"/>
</g>
<path d="M403,168v -1" fill="none" stroke="#ff0099"/>
<path d="M403,165v -2" fill="none" stroke="#ff0099"/>
<path d="M399,166h 2" fill="none" stroke="#ff0099"/>
<path d="M404,166h 2" fill="none" stroke="#ff0099"/>
<g stroke="#ff0099" stroke-width="1" fill="#ff0099">
<circle cx=" 403" cy=" 166" r=" 1.5"/>
</g>
<path d="M410,329v -1" fill="none" stroke="#ff0099"/>
<path d="M410,326v -1" fill="none" stroke="#ff0099"/>
<path d="M406,327h 3" fill="none" stroke="#ff0099"/>
<path d="M411,327h 3" fill="none" stroke="#ff0099"/>
<g stroke="#ff0099" stroke-width="1" fill="#ff0099">
<circle cx=" 410" cy=" 327" r=" 1.5"/>
</g>
<path d="M74,446h 453" fill="none" stroke="black"/>
<path d="M74,434v 12" fill="none" stroke="black"/>
<path d="M89,440v 6" fill="none" stroke="black"/>
<path d="M104,440v 6" fill="none" stroke="black"/>
<path d="M119,440v 6" fill="none" stroke="black"/>
<path d="M134,440v 6" fill="none" stroke="black"/>
<path d="M149,434v 12" fill="none" stroke="black"/>
<path d="M164,440v 6" fill="none" stroke="black"/>
<path d="M180,440v 6" fill="none" stroke="black"/>
<path d="M195,440v 6" fill="none" stroke="black"/>
<path d="M210,440v 6" fill="none" stroke="black"/>
<path d="M225,434v 12" fill="none" stroke="black"/>
<path d="M240,440v 6" fill="none" stroke="black"/>
<path d="M255,440v 6" fill="none" stroke="black"/>
<path d="M270,440v 6" fill="none" stroke="black"/>
<path d="M285,440v 6" fill="none" stroke="black"/>
<path d="M300,434v 12" fill="none" stroke="black"/>
<path d="M316,440v 6" fill="none" stroke="black"/>
<path d="M331,440v 6" fill="none" stroke="black"/>
<path d="M346,440v 6" fill="none" stroke="black"/>
<path d="M361,440v 6" fill="none" stroke="black"/>
<path d="M376,434v 12" fill="none" stroke="black"/>
<path d="M391,440v 6" fill="none" stroke="black"/>
<path d="M406,440v 6" fill="none" stroke="black"/>
<path d="M421,440v 6" fill="none" stroke="black"/>
<path d="M437,440v 6" fill="none" stroke="black"/>
<path d="M452,434v 12" fill="none" stroke="black"/>
<path d="M467,440v 6" fill="none" stroke="black"/>
<path d="M482,440v 6" fill="none" stroke="black"/>
<path d="M497,440v 6" fill="none" stroke="black"/>
<path d="M512,440v 6" fill="none" stroke="black"/>
<path d="M527,434v 12" fill="none" stroke="black"/>
<path d="M527,434v 12" fill="none" stroke="black"/>
<text x="65" y="465" fill="black" font-size="18" font-family="Helvetica" font-weight="bold">
-3
</text>
<text x="141" y="465" fill="black" font-size="18" font-family="Helvetica" font-weight="bold">
-2
</text>
<text x="218" y="465" fill="black" font-size="18" font-family="Helvetica" font-weight="bold">
-1
</text>
<text x="295" y="465" fill="black" font-size="18" font-family="Helvetica" font-weight="bold">
0
</text>
<text x="372" y="465" fill="black" font-size="18" font-family="Helvetica" font-weight="bold">
1
</text>
<text x="446" y="465" fill="black" font-size="18" font-family="Helvetica" font-weight="bold">
2
</text>
<text x="522" y="465" fill="black" font-size="18" font-family="Helvetica" font-weight="bold">
3
</text>
<path d="M74,44h 453" fill="none" stroke="black"/>
<path d="M74,56v -12" fill="none" stroke="black"/>
<path d="M89,50v -6" fill="none" stroke="black"/>
<path d="M104,50v -6" fill="none" stroke="black"/>
<path d="M119,50v -6" fill="none" stroke="black"/>
<path d="M134,50v -6" fill="none" stroke="black"/>
<path d="M149,56v -12" fill="none" stroke="black"/>
<path d="M164,50v -6" fill="none" stroke="black"/>
<path d="M180,50v -6" fill="none" stroke="black"/>
<path d="M195,50v -6" fill="none" stroke="black"/>
<path d="M210,50v -6" fill="none" stroke="black"/>
<path d="M225,56v -12" fill="none" stroke="black"/>
<path d="M240,50v -6" fill="none" stroke="black"/>
<path d="M255,50v -6" fill="none" stroke="black"/>
<path d="M270,50v -6" fill="none" stroke="black"/>
<path d="M285,50v -6" fill="none" stroke="black"/>
<path d="M300,56v -12" fill="none" stroke="black"/>
<path d="M316,50v -6" fill="none" stroke="black"/>
<path d="M331,50v -6" fill="none" stroke="black"/>
<path d="M346,50v -6" fill="none" stroke="black"/>
<path d="M361,50v -6" fill="none" stroke="black"/>
<path d="M376,56v -12" fill="none" stroke="black"/>
<path d="M391,50v -6" fill="none" stroke="black"/>
<path d="M406,50v -6" fill="none" stroke="black"/>
<path d="M421,50v -6" fill="none" stroke="black"/>
<path d="M437,50v -6" fill="none" stroke="black"/>
<path d="M452,56v -12" fill="none" stroke="black"/>
<path d="M467,50v -6" fill="none" stroke="black"/>
<path d="M482,50v -6" fill="none" stroke="black"/>
<path d="M497,50v -6" fill="none" stroke="black"/>
<path d="M512,50v -6" fill="none" stroke="black"/>
<path d="M527,56v -12" fill="none" stroke="black"/>
<path d="M527,56v -12" fill="none" stroke="black"/>
<path d="M74,446v -402" fill="none" stroke="black"/>
<path d="M87,446h -13" fill="none" stroke="black"/>
<path d="M81,437h -7" fill="none" stroke="black"/>
<path d="M81,427h -7" fill="none" stroke="black"/>
<path d="M81,417h -7" fill="none" stroke="black"/>
<path d="M81,407h -7" fill="none" stroke="black"/>
<path d="M87,397h -13" fill="none" stroke="black"/>
<path d="M81,387h -7" fill="none" stroke="black"/>
<path d="M81,378h -7" fill="none" stroke="black"/>
<path d="M81,368h -7" fill="none" stroke="black"/>
<path d="M81,358h -7" fill="none" stroke="black"/>
<path d="M87,348h -13" fill="none" stroke="black"/>
<path d="M81,338h -7" fill="none" stroke="black"/>
<path d="M81,329h -7" fill="none" stroke="black"/>
<path d="M81,319h -7" fill="none" stroke="black"/>
<path d="M81,309h -7" fill="none" stroke="black"/>
<path d="M87,299h -13" fill="none" stroke="black"/>
<path d="M81,289h -7" fill="none" stroke="black"/>
<path d="M81,280h -7" fill="none" stroke="black"/>
<path d="M81,270h -7" fill="none" stroke="black"/>
<path d="M81,260h -7" fill="none" stroke="black"/>
<path d="M87,250h -13" fill="none" stroke="black"/>
<path d="M81,240h -7" fill="none" stroke="black"/>
<path d="M81,230h -7" fill="none" stroke="black"/>
<path d="M81,221h -7" fill="none" stroke="black"/>
<path d="M81,211h -7" fill="none" stroke="black"/>
<path d="M87,201h -13" fill="none" stroke="black"/>
<path d="M81,191h -7" fill="none" stroke="black"/>
<path d="M81,181h -7" fill="none" stroke="black"/>
<path d="M81,172h -7" fill="none" stroke="black"/>
<path d="M81,162h -7" fill="none" stroke="black"/>
<path d="M87,152h -13" fill="none" stroke="black"/>
<path d="M81,142h -7" fill="none" stroke="black"/>
<path d="M81,132h -7" fill="none" stroke="black"/>
<path d="M81,123h -7" fill="none" stroke="black"/>
<path d="M81,113h -7" fill="none" stroke="black"/>
<path d="M87,103h -13" fill="none" stroke="black"/>
<path d="M81,93h -7" fill="none" stroke="black"/>
<path d="M81,83h -7" fill="none" stroke="black"/>
<path d="M81,73h -7" fill="none" stroke="black"/>
<path d="M81,64h -7" fill="none" stroke="black"/>
<path d="M87,54h -13" fill="none" stroke="black"/>
<path d="M87,54h -13" fill="none" stroke="black"/>
<text x="61" y="453" fill="black" font-size="18" font-family="Helvetica" font-weight="bold">
0
</text>
<text x="24" y="404" fill="black" font-size="18" font-family="Helvetica" font-weight="bold">
0.005
</text>
<text x="37" y="355" fill="black" font-size="18" font-family="Helvetica" font-weight="bold">
0.01
</text>
<text x="24" y="306" fill="black" font-size="18" font-family="Helvetica" font-weight="bold">
0.015
</text>
<text x="35" y="256" fill="black" font-size="18" font-family="Helvetica" font-weight="bold">
0.02
</text>
<text x="24" y="207" fill="black" font-size="18" font-family="Helvetica" font-weight="bold">
0.025
</text>
<text x="35" y="158" fill="black" font-size="18" font-family="Helvetica" font-weight="bold">
0.03
</text>
<text x="24" y="110" fill="black" font-size="18" font-family="Helvetica" font-weight="bold">
0.035
</text>
<text x="34" y="61" fill="black" font-size="18" font-family="Helvetica" font-weight="bold">
0.04
</text>
<path d="M191,308v -5" fill="none" stroke="#99ff99" stroke-width="2"/>
<path d="M191,303v -4" fill="none" stroke="#99ff99" stroke-width="2"/>
<g stroke="black" stroke-width="2" fill="none">
<line x1="190" y1="303" x2="191" y2="303"/>
</g>
<path d="M198,115v -6" fill="none" stroke="#99ff99" stroke-width="2"/>
<path d="M198,109v -7" fill="none" stroke="#99ff99" stroke-width="2"/>
<g stroke="black" stroke-width="2" fill="none">
<line x1="197" y1="109" x2="198" y2="109"/>
</g>
<path d="M206,119v -6" fill="none" stroke="#99ff99" stroke-width="2"/>
<path d="M206,113v -6" fill="none" stroke="#99ff99" stroke-width="2"/>
<g stroke="black" stroke-width="2" fill="none">
<line x1="205" y1="113" x2="206" y2="113"/>
</g>
<path d="M214,130v -6" fill="none" stroke="#99ff99" stroke-width="2"/>
<path d="M214,124v -6" fill="none" stroke="#99ff99" stroke-width="2"/>
<g stroke="black" stroke-width="2" fill="none">
<line x1="213" y1="124" x2="214" y2="124"/>
</g>
<path d="M221,113v -7" fill="none" stroke="#99ff99" stroke-width="2"/>
<path d="M221,106v -6" fill="none" stroke="#99ff99" stroke-width="2"/>
<g stroke="black" stroke-width="2" fill="none">
<line x1="220" y1="106" x2="221" y2="106"/>
</g>
<path d="M229,108v -6" fill="none" stroke="#99ff99" stroke-width="2"/>
<path d="M229,102v -6" fill="none" stroke="#99ff99" stroke-width="2"/>
<g stroke="black" stroke-width="2" fill="none">
<line x1="228" y1="102" x2="229" y2="102"/>
</g>
<path d="M236,104v -6" fill="none" stroke="#99ff99" stroke-width="2"/>
<path d="M236,98v -7" fill="none" stroke="#99ff99" stroke-width="2"/>
<g stroke="black" stroke-width="2" fill="none">
<line x1="235" y1="98" x2="236" y2="98"/>
</g>
<path d="M244,128v -6" fill="none" stroke="#99ff99" stroke-width="2"/>
<path d="M244,122v -6" fill="none" stroke="#99ff99" stroke-width="2"/>
<g stroke="black" stroke-width="2" fill="none">
<line x1="243" y1="122" x2="244" y2="122"/>
</g>
<path d="M251,105v -7" fill="none" stroke="#99ff99" stroke-width="2"/>
<path d="M251,98v -6" fill="none" stroke="#99ff99" stroke-width="2"/>
<g stroke="black" stroke-width="2" fill="none">
<line x1="250" y1="98" x2="251" y2="98"/>
</g>
<path d="M259,108v -6" fill="none" stroke="#99ff99" stroke-width="2"/>
<path d="M259,102v -6" fill="none" stroke="#99ff99" stroke-width="2"/>
<g stroke="black" stroke-width="2" fill="none">
<line x1="258" y1="102" x2="259" y2="102"/>
</g>
<path d="M266,100v -7" fill="none" stroke="#99ff99" stroke-width="2"/>
<path d="M266,93v -6" fill="none" stroke="#99ff99" stroke-width="2"/>
<g stroke="black" stroke-width="2" fill="none">
<line x1="265" y1="93" x2="266" y2="93"/>
</g>
<path d="M274,111v -6" fill="none" stroke="#99ff99" stroke-width="2"/>
<path d="M274,105v -6" fill="none" stroke="#99ff99" stroke-width="2"/>
<g stroke="black" stroke-width="2" fill="none">
<line x1="273" y1="105" x2="274" y2="105"/>
</g>
<path d="M282,108v -6" fill="none" stroke="#99ff99" stroke-width="2"/>
<path d="M282,102v -7" fill="none" stroke="#99ff99" stroke-width="2"/>
<g stroke="black" stroke-width="2" fill="none">
<line x1="281" y1="102" x2="282" y2="102"/>
</g>
<path d="M289,93v -7" fill="none" stroke="#99ff99" stroke-width="2"/>
<path d="M289,86v -7" fill="none" stroke="#99ff99" stroke-width="2"/>
<g stroke="black" stroke-width="2" fill="none">
<line x1="288" y1="86" x2="289" y2="86"/>
</g>
<path d="M297,120v -6" fill="none" stroke="#99ff99" stroke-width="2"/>
<path d="M297,114v -6" fill="none" stroke="#99ff99" stroke-width="2"/>
<g stroke="black" stroke-width="2" fill="none">
<line x1="296" y1="114" x2="297" y2="114"/>
</g>
<path d="M304,115v -7" fill="none" stroke="#99ff99" stroke-width="2"/>
<path d="M304,108v -6" fill="none" stroke="#99ff99" stroke-width="2"/>
<g stroke="black" stroke-width="2" fill="none">
<line x1="303" y1="108" x2="304" y2="108"/>
</g>
<path d="M312,102v -6" fill="none" stroke="#99ff99" stroke-width="2"/>
<path d="M312,96v -6" fill="none" stroke="#99ff99" stroke-width="2"/>
<g stroke="black" stroke-width="2" fill="none">
<line x1="311" y1="96" x2="312" y2="96"/>
</g>
<path d="M319,104v -6" fill="none" stroke="#99ff99" stroke-width="2"/>
<path d="M319,98v -6" fill="none" stroke="#99ff99" stroke-width="2"/>
<g stroke="black" stroke-width="2" fill="none">
<line x1="318" y1="98" x2="319" y2="98"/>
</g>
<path d="M327,111v -6" fill="none" stroke="#99ff99" stroke-width="2"/>
<path d="M327,105v -6" fill="none" stroke="#99ff99" stroke-width="2"/>
<g stroke="black" stroke-width="2" fill="none">
<line x1="326" y1="105" x2="327" y2="105"/>
</g>
<path d="M334,120v -7" fill="none" stroke="#99ff99" stroke-width="2"/>
<path d="M334,113v -6" fill="none" stroke="#99ff99" stroke-width="2"/>
<g stroke="black" stroke-width="2" fill="none">
<line x1="333" y1="113" x2="334" y2="113"/>
</g>
<path d="M342,111v -6" fill="none" stroke="#99ff99" stroke-width="2"/>
<path d="M342,105v -6" fill="none" stroke="#99ff99" stroke-width="2"/>
<g stroke="black" stroke-width="2" fill="none">
<line x1="341" y1="105" x2="342" y2="105"/>
</g>
<path d="M350,114v -6" fill="none" stroke="#99ff99" stroke-width="2"/>
<path d="M350,108v -6" fill="none" stroke="#99ff99" stroke-width="2"/>
<g stroke="black" stroke-width="2" fill="none">
<line x1="349" y1="108" x2="350" y2="108"/>
</g>
<path d="M357,132v -5" fill="none" stroke="#99ff99" stroke-width="2"/>
<path d="M357,127v -6" fill="none" stroke="#99ff99" stroke-width="2"/>
<g stroke="black" stroke-width="2" fill="none">
<line x1="356" y1="127" x2="357" y2="127"/>
</g>
<path d="M365,110v -7" fill="none" stroke="#99ff99" stroke-width="2"/>
<path d="M365,103v -6" fill="none" stroke="#99ff99" stroke-width="2"/>
<g stroke="black" stroke-width="2" fill="none">
<line x1="364" y1="103" x2="365" y2="103"/>
</g>
<path d="M372,109v -7" fill="none" stroke="#99ff99" stroke-width="2"/>
<path d="M372,102v -6" fill="none" stroke="#99ff99" stroke-width="2"/>
<g stroke="black" stroke-width="2" fill="none">
<line x1="371" y1="102" x2="372" y2="102"/>
</g>
<path d="M380,111v -7" fill="none" stroke="#99ff99" stroke-width="2"/>
<path d="M380,104v -6" fill="none" stroke="#99ff99" stroke-width="2"/>
<g stroke="black" stroke-width="2" fill="none">
<line x1="379" y1="104" x2="380" y2="104"/>
</g>
<path d="M387,125v -6" fill="none" stroke="#99ff99" stroke-width="2"/>
<path d="M387,119v -6" fill="none" stroke="#99ff99" stroke-width="2"/>
<g stroke="black" stroke-width="2" fill="none">
<line x1="386" y1="119" x2="387" y2="119"/>
</g>
<path d="M395,109v -6" fill="none" stroke="#99ff99" stroke-width="2"/>
<path d="M395,103v -6" fill="none" stroke="#99ff99" stroke-width="2"/>
<g stroke="black" stroke-width="2" fill="none">
<line x1="394" y1="103" x2="395" y2="103"/>
</g>
<path d="M403,108v -7" fill="none" stroke="#99ff99" stroke-width="2"/>
<path d="M403,101v -6" fill="none" stroke="#99ff99" stroke-width="2"/>
<g stroke="black" stroke-width="2" fill="none">
<line x1="402" y1="101" x2="403" y2="101"/>
</g>
<path d="M410,310v -4" fill="none" stroke="#99ff99" stroke-width="2"/>
<path d="M410,306v -4" fill="none" stroke="#99ff99" stroke-width="2"/>
<g stroke="black" stroke-width="2" fill="none">
<line x1="409" y1="306" x2="410" y2="306"/>
</g>
<path d="M74,446h 113v -143h 8v -194h 7v 4h 8v 11h 7v -18h 8v -4h 7v -4h 8v 24h 8v -24h 7v 4h 8v -9h 7v 12h 8v -3h 7v -16h 8v 28h 7v -6h 8v -12h 8v 2h 7v 7h 8v 8h 7v -8h 8v 3h 7v 19h 8v -24h 8v -1h 7v 2h 8v 15h 7v -16h 8v -2h 7v 205h 8v 140h 113z"
 fill="#99ff99"/>
<path d="M74,446h 113v -143h 8v -194h 7v 4h 8v 11h 7v -18h 8v -4h 7v -4h 8v 24h 8v -24h 7v 4h 8v -9h 7v 12h 8v -3h 7v -16h 8v 28h 7v -6h 8v -12h 8v 2h 7v 7h 8v 8h 7v -8h 8v 3h 7v 19h 8v -24h 8v -1h 7v 2h 8v 15h 7v -16h 8v -2h 7v 205h 8v 140h 113"
 fill="none" stroke="#99ff99" stroke-width="2"/>
<path d="M191,326" fill="none" stroke="#ff0099"/>
<path d="M191,323" fill="none" stroke="#ff0099"/>
<path d="M187,324h 3" fill="none" stroke="#ff0099"/>
<path d="M192,324h 3" fill="none" stroke="#ff0099"/>
<g stroke="#ff0099" stroke-width="1" fill="#ff0099">
<circle cx=" 191" cy=" 324" r=" 1.5"/>
</g>
<path d="M198,172v -1" fill="none" stroke="#ff0099"/>
<path d="M198,169v -1" fill="none" stroke="#ff0099"/>
<path d="M195,170h 2" fill="none" stroke="#ff0099"/>
<path d="M200,170h 2" fill="none" stroke="#ff0099"/>
<g stroke="#ff0099" stroke-width="1" fill="#ff0099">
<circle cx=" 198" cy=" 170" r=" 1.5"/>
</g>
<path d="M206,172v -2" fill="none" stroke="#ff0099"/>
<path d="M206,168v -1" fill="none" stroke="#ff0099"/>
<path d="M202,169h 3" fill="none" stroke="#ff0099"/>
<path d="M207,169h 3" fill="none" stroke="#ff0099"/>
<g stroke="#ff0099" stroke-width="1" fill="#ff0099">
<circle cx=" 206" cy=" 169" r=" 1.5"/>
</g>
<path d="M214,176v -1" fill="none" stroke="#ff0099"/>
<path d="M214,173v -1" fill="none" stroke="#ff0099"/>
<path d="M210,174h 2" fill="none" stroke="#ff0099"/>
<path d="M215,174h 2" fill="none" stroke="#ff0099"/>
<g stroke="#ff0099" stroke-width="1" fill="#ff0099">
<circle cx=" 214" cy=" 174" r=" 1.5"/>
</g>
<path d="M221,139v -2" fill="none" stroke="#ff0099"/>
<path d="M221,135v -1" fill="none" stroke="#ff0099"/>
<path d="M217,136h 3" fill="none" stroke="#ff0099"/>
<path d="M222,136h 3" fill="none" stroke="#ff0099"/>
<g stroke="#ff0099" stroke-width="1" fill="#ff0099">
<circle cx=" 221" cy=" 136" r=" 1.5"/>
</g>
<path d="M229,112v -2" fill="none" stroke="#ff0099"/>
<path d="M229,108v -2" fill="none" stroke="#ff0099"/>
<path d="M225,109h 3" fill="none" stroke="#ff0099"/>
<path d="M230,109h 2" fill="none" stroke="#ff0099"/>
<g stroke="#ff0099" stroke-width="1" fill="#ff0099">
<circle cx=" 229" cy=" 109" r=" 1.5"/>
</g>
<path d="M236,78v -2" fill="none" stroke="#ff0099"/>
<path d="M236,74v -2" fill="none" stroke="#ff0099"/>
<path d="M232,75h 3" fill="none" stroke="#ff0099"/>
<path d="M237,75h 3" fill="none" stroke="#ff0099"/>
<g stroke="#ff0099" stroke-width="1" fill="#ff0099">
<circle cx=" 236" cy=" 75" r=" 1.5"/>
</g>
<path d="M244,118v -1" fill="none" stroke="#ff0099"/>
<path d="M244,114v -1" fill="none" stroke="#ff0099"/>
<path d="M240,115h 3" fill="none" stroke="#ff0099"/>
<path d="M245,115h 3" fill="none" stroke="#ff0099"/>
<g stroke="#ff0099" stroke-width="1" fill="#ff0099">
<circle cx=" 244" cy=" 115" r=" 1.5"/>
</g>
<path d="M251,76v -2" fill="none" stroke="#ff0099"/>
<path d="M251,72v -2" fill="none" stroke="#ff0099"/>
<path d="M248,73h 2" fill="none" stroke="#ff0099"/>
<path d="M252,73h 3" fill="none" stroke="#ff0099"/>
<g stroke="#ff0099" stroke-width="1" fill="#ff0099">
<circle cx=" 251" cy=" 73" r=" 1.5"/>
</g>
<path d="M259,73v -2" fill="none" stroke="#ff0099"/>
<path d="M259,69v -2" fill="none" stroke="#ff0099"/>
<path d="M255,70h 3" fill="none" stroke="#ff0099"/>
<path d="M260,70h 3" fill="none" stroke="#ff0099"/>
<g stroke="#ff0099" stroke-width="1" fill="#ff0099">
<circle cx=" 259" cy=" 70" r=" 1.5"/>
</g>
<path d="M266,88v -1" fill="none" stroke="#ff0099"/>
<path d="M266,84v -1" fill="none" stroke="#ff0099"/>
<path d="M263,85h 2" fill="none" stroke="#ff0099"/>
<path d="M268,85h 2" fill="none" stroke="#ff0099"/>
<g stroke="#ff0099" stroke-width="1" fill="#ff0099">
<circle cx=" 266" cy=" 85" r=" 1.5"/>
</g>
<path d="M274,82v -2" fill="none" stroke="#ff0099"/>
<path d="M274,78v -2" fill="none" stroke="#ff0099"/>
<path d="M270,79h 3" fill="none" stroke="#ff0099"/>
<path d="M275,79h 3" fill="none" stroke="#ff0099"/>
<g stroke="#ff0099" stroke-width="1" fill="#ff0099">
<circle cx=" 274" cy=" 79" r=" 1.5"/>
</g>
<path d="M282,78v -2" fill="none" stroke="#ff0099"/>
<path d="M282,74v -1" fill="none" stroke="#ff0099"/>
<path d="M278,75h 2" fill="none" stroke="#ff0099"/>
<path d="M283,75h 2" fill="none" stroke="#ff0099"/>
<g stroke="#ff0099" stroke-width="1" fill="#ff0099">
<circle cx=" 282" cy=" 75" r=" 1.5"/>
</g>
<path d="M289,76v -1" fill="none" stroke="#ff0099"/>
<path d="M289,72v -1" fill="none" stroke="#ff0099"/>
<path d="M285,73h 3" fill="none" stroke="#ff0099"/>
<path d="M290,73h 3" fill="none" stroke="#ff0099"/>
<g stroke="#ff0099" stroke-width="1" fill="#ff0099">
<circle cx=" 289" cy=" 73" r=" 1.5"/>
</g>
<path d="M297,88v -1" fill="none" stroke="#ff0099"/>
<path d="M297,85v -2" fill="none" stroke="#ff0099"/>
<path d="M293,86h 3" fill="none" stroke="#ff0099"/>
<path d="M298,86h 2" fill="none" stroke="#ff0099"/>
<g stroke="#ff0099" stroke-width="1" fill="#ff0099">
<circle cx=" 297" cy=" 86" r=" 1.5"/>
</g>
<path d="M304,77v -2" fill="none" stroke="#ff0099"/>
<path d="M304,73v -1" fill="none" stroke="#ff0099"/>
<path d="M300,74h 3" fill="none" stroke="#ff0099"/>
<path d="M305,74h 3" fill="none" stroke="#ff0099"/>
<g stroke="#ff0099" stroke-width="1" fill="#ff0099">
<circle cx=" 304" cy=" 74" r=" 1.5"/>
</g>
<path d="M312,69v -2" fill="none" stroke="#ff0099"/>
<path d="M312,65v -2" fill="none" stroke="#ff0099"/>
<path d="M308,66h 3" fill="none" stroke="#ff0099"/>
<path d="M313,66h 3" fill="none" stroke="#ff0099"/>
<g stroke="#ff0099" stroke-width="1" fill="#ff0099">
<circle cx=" 312" cy=" 66" r=" 1.5"/>
</g>
<path d="M319,72v -2" fill="none" stroke="#ff0099"/>
<path d="M319,68v -2" fill="none" stroke="#ff0099"/>
<path d="M316,69h 2" fill="none" stroke="#ff0099"/>
<path d="M321,69h 2" fill="none" stroke="#ff0099"/>
<g stroke="#ff0099" stroke-width="1" fill="#ff0099">
<circle cx=" 319" cy=" 69" r=" 1.5"/>
</g>
<path d="M327,77v -2" fill="none" stroke="#ff0099"/>
<path d="M327,73v -2" fill="none" stroke="#ff0099"/>
<path d="M323,74h 3" fill="none" stroke="#ff0099"/>
<path d="M328,74h 3" fill="none" stroke="#ff0099"/>
<g stroke="#ff0099" stroke-width="1" fill="#ff0099">
<circle cx=" 327" cy=" 74" r=" 1.5"/>
</g>
<path d="M334,87v -1" fill="none" stroke="#ff0099"/>
<path d="M334,83v -1" fill="none" stroke="#ff0099"/>
<path d="M331,85h 2" fill="none" stroke="#ff0099"/>
<path d="M336,85h 2" fill="none" stroke="#ff0099"/>
<g stroke="#ff0099" stroke-width="1" fill="#ff0099">
<circle cx=" 334" cy=" 85" r=" 1.5"/>
</g>
<path d="M342,74v -2" fill="none" stroke="#ff0099"/>
<path d="M342,70v -2" fill="none" stroke="#ff0099"/>
<path d="M338,71h 3" fill="none" stroke="#ff0099"/>
<path d="M343,71h 3" fill="none" stroke="#ff0099"/>
<g stroke="#ff0099" stroke-width="1" fill="#ff0099">
<circle cx=" 342" cy=" 71" r=" 1.5"/>
</g>
<path d="M350,73v -1" fill="none" stroke="#ff0099"/>
<path d="M350,69v -1" fill="none" stroke="#ff0099"/>
<path d="M346,71h 2" fill="none" stroke="#ff0099"/>
<path d="M351,71h 2" fill="none" stroke="#ff0099"/>
<g stroke="#ff0099" stroke-width="1" fill="#ff0099">
<circle cx=" 350" cy=" 71" r=" 1.5"/>
</g>
<path d="M357,111v -2" fill="none" stroke="#ff0099"/>
<path d="M357,107v -2" fill="none" stroke="#ff0099"/>
<path d="M353,108h 3" fill="none" stroke="#ff0099"/>
<path d="M358,108h 3" fill="none" stroke="#ff0099"/>
<g stroke="#ff0099" stroke-width="1" fill="#ff0099">
<circle cx=" 357" cy=" 108" r=" 1.5"/>
</g>
<path d="M365,82v -2" fill="none" stroke="#ff0099"/>
<path d="M365,77v -1" fill="none" stroke="#ff0099"/>
<path d="M361,79h 3" fill="none" stroke="#ff0099"/>
<path d="M366,79h 3" fill="none" stroke="#ff0099"/>
<g stroke="#ff0099" stroke-width="1" fill="#ff0099">
<circle cx=" 365" cy=" 79" r=" 1.5"/>
</g>
<path d="M372,109v -2" fill="none" stroke="#ff0099"/>
<path d="M372,105v -2" fill="none" stroke="#ff0099"/>
<path d="M369,106h 2" fill="none" stroke="#ff0099"/>
<path d="M373,106h 3" fill="none" stroke="#ff0099"/>
<g stroke="#ff0099" stroke-width="1" fill="#ff0099">
<circle cx=" 372" cy=" 106" r=" 1.5"/>
</g>
<path d="M380,137v -2" fill="none" stroke="#ff0099"/>
<path d="M380,133v -2" fill="none" stroke="#ff0099"/>
<path d="M376,134h 3" fill="none" stroke="#ff0099"/>
<path d="M381,134h 3" fill="none" stroke="#ff0099"/>
<g stroke="#ff0099" stroke-width="1" fill="#ff0099">
<circle cx=" 380" cy=" 134" r=" 1.5"/>
</g>
<path d="M387,175v -1" fill="none" stroke="#ff0099"/>
<path d="M387,172v -1" fill="none" stroke="#ff0099"/>
<path d="M384,173h 2" fill="none" stroke="#ff0099"/>
<path d="M389,173h 2" fill="none" stroke="#ff0099"/>
<g stroke="#ff0099" stroke-width="1" fill="#ff0099">
<circle cx=" 387" cy=" 173" r=" 1.5"/>
</g>
<path d="M395,163v -2" fill="none" stroke="#ff0099"/>
<path d="M395,159v -1" fill="none" stroke="#ff0099"/>
<path d="M391,160h 3" fill="none" stroke="#ff0099"/>
<path d="M396,160h 3" fill="none" stroke="#ff0099"/>
<g stroke="#ff0099" stroke-width="1" fill="#ff0099">
<circle cx=" 395" cy=" 160" r=" 1.5"/>
</g>
<path d="M403,168v -1" fill="none" stroke="#ff0099"/>
<path d="M403,165v -2" fill="none" stroke="#ff0099"/>
<path d="M399,166h 2" fill="none" stroke="#ff0099"/>
<path d="M404,166h 2" fill="none" stroke="#ff0099"/>
<g stroke="#ff0099" stroke-width="1" fill="#ff0099">
<circle cx=" 403" cy=" 166" r=" 1.5"/>
</g>
<path d="M410,329v -1" fill="none" stroke="#ff0099"/>
<path d="M410,326v -1" fill="none" stroke="#ff0099"/>
<path d="M406,327h 3" fill="none" stroke="#ff0099"/>
<path d="M411,327h 3" fill="none" stroke="#ff0099"/>
<g stroke="#ff0099" stroke-width="1" fill="#ff0099">
<circle cx=" 410" cy=" 327" r=" 1.5"/>
</g>
<rect x="357" y="59" width="142" height="99" fill="white"/>
<text x="360" y="82" fill="black" font-size="17" font-family="Helvetica" font-weight="bold">
EB
</text>
<text x="457" y="115" fill="black" font-size="17" font-family="Helvetica" font-weight="bold">
 ee
</text>
<text x="440" y="115" fill="black" font-size="17" font-family="Times">
&#8594;
</text>
<text x="392" y="115" fill="black" font-size="17" font-family="Helvetica" font-weight="bold">
MC Z 
</text>
<path d="M362,109h 25" fill="none" stroke="#ff0099"/>
<g stroke="#ff0099" stroke-width="1" fill="#ff0099">
<circle cx=" 375" cy=" 109" r=" 1.5"/>
</g>
<text x="455" y="147" fill="black" font-size="17" font-family="Helvetica" font-weight="bold">
 + jet
</text>
<text x="447" y="147" fill="black" font-size="17" font-family="Times">
&#0947;
</text>
<text x="392" y="147" fill="black" font-size="17" font-family="Helvetica" font-weight="bold">
signal 
</text>
<path d="M362,154h 25v -24h -25z" fill="#99ff99"/>
<path d="M362,130h 25" fill="none" stroke="#99ff99" stroke-width="2"/>
<path d="M362,154h 25" fill="none" stroke="#99ff99" stroke-width="2"/>
<path d="M387,154v -24" fill="none" stroke="#99ff99" stroke-width="2"/>
<path d="M362,154v -24" fill="none" stroke="#99ff99" stroke-width="2"/>
<text x="300" y="34" fill="black" font-size="17" font-family="Helvetica" font-weight="bold">
=8 TeV
</text>
<text x="291" y="34" fill="black" font-size="17" font-family="Helvetica" font-weight="bold">
s
</text>
<path d="M285,25l 2, 10" fill="none" stroke="black" stroke-width="2"/>
<path d="M287,35l 2, -14" fill="none" stroke="black"/>
<path d="M289,21h 11" fill="none" stroke="black"/>
<text x="142" y="34" fill="black" font-size="17" font-family="Helvetica" font-weight="bold">
CMS Preliminary 
</text></svg>
