<?xml version="1.0" standalone="no"?>
<svg width="567" height="496" viewBox="0 0 567 496" xmlns="http://www.w3.org/2000/svg">
<title>
../src/TagAndProbeZ/plots_mcZee_mcGJet_withEtaR9nvtxReweight/hlt30/nvtxEE.svg
</title>
<desc>
Creator: ROOT Version 5.32/00
CreationDate: Sun Sep 28 11:59:41 2014</desc>
<defs>
</defs>
<rect x="0" y="0" width="567" height="496" fill="white"/>
<rect x="74" y="44" width="453" height="402" fill="white"/>
<rect x="74" y="44" width="453" height="402" fill="none" stroke="black"/>
<rect x="74" y="44" width="453" height="402" fill="white"/>
<rect x="74" y="44" width="453" height="402" fill="none" stroke="black"/>
<path d="M85,446h 4" fill="none" stroke="#ff0099"/>
<path d="M91,446h 5" fill="none" stroke="#ff0099"/>
<g stroke="#ff0099" stroke-width="1" fill="#ff0099">
<circle cx=" 90" cy=" 446" r=" 1.5"/>
</g>
<path d="M96,444h 4" fill="none" stroke="#ff0099"/>
<path d="M102,444h 5" fill="none" stroke="#ff0099"/>
<g stroke="#ff0099" stroke-width="1" fill="#ff0099">
<circle cx=" 101" cy=" 444" r=" 1.5"/>
</g>
<path d="M107,438h 4" fill="none" stroke="#ff0099"/>
<path d="M114,438h 4" fill="none" stroke="#ff0099"/>
<g stroke="#ff0099" stroke-width="1" fill="#ff0099">
<circle cx=" 112" cy=" 438" r=" 1.5"/>
</g>
<path d="M118,424h 4" fill="none" stroke="#ff0099"/>
<path d="M125,424h 4" fill="none" stroke="#ff0099"/>
<g stroke="#ff0099" stroke-width="1" fill="#ff0099">
<circle cx=" 123" cy=" 424" r=" 1.5"/>
</g>
<path d="M135,402v -1" fill="none" stroke="#ff0099"/>
<path d="M135,399" fill="none" stroke="#ff0099"/>
<path d="M129,400h 4" fill="none" stroke="#ff0099"/>
<path d="M136,400h 4" fill="none" stroke="#ff0099"/>
<g stroke="#ff0099" stroke-width="1" fill="#ff0099">
<circle cx=" 135" cy=" 400" r=" 1.5"/>
</g>
<path d="M146,367v -1" fill="none" stroke="#ff0099"/>
<path d="M146,364v -1" fill="none" stroke="#ff0099"/>
<path d="M140,365h 4" fill="none" stroke="#ff0099"/>
<path d="M147,365h 4" fill="none" stroke="#ff0099"/>
<g stroke="#ff0099" stroke-width="1" fill="#ff0099">
<circle cx=" 146" cy=" 365" r=" 1.5"/>
</g>
<path d="M157,318v -1" fill="none" stroke="#ff0099"/>
<path d="M157,314v -1" fill="none" stroke="#ff0099"/>
<path d="M151,316h 5" fill="none" stroke="#ff0099"/>
<path d="M158,316h 4" fill="none" stroke="#ff0099"/>
<g stroke="#ff0099" stroke-width="1" fill="#ff0099">
<circle cx=" 157" cy=" 316" r=" 1.5"/>
</g>
<path d="M168,265v -1" fill="none" stroke="#ff0099"/>
<path d="M168,261v -2" fill="none" stroke="#ff0099"/>
<path d="M162,262h 5" fill="none" stroke="#ff0099"/>
<path d="M169,262h 4" fill="none" stroke="#ff0099"/>
<g stroke="#ff0099" stroke-width="1" fill="#ff0099">
<circle cx=" 168" cy=" 262" r=" 1.5"/>
</g>
<path d="M179,209v -3" fill="none" stroke="#ff0099"/>
<path d="M179,204v -2" fill="none" stroke="#ff0099"/>
<path d="M173,205h 5" fill="none" stroke="#ff0099"/>
<path d="M180,205h 4" fill="none" stroke="#ff0099"/>
<g stroke="#ff0099" stroke-width="1" fill="#ff0099">
<circle cx=" 179" cy=" 205" r=" 1.5"/>
</g>
<path d="M190,170v -3" fill="none" stroke="#ff0099"/>
<path d="M190,165v -3" fill="none" stroke="#ff0099"/>
<path d="M184,166h 5" fill="none" stroke="#ff0099"/>
<path d="M191,166h 4" fill="none" stroke="#ff0099"/>
<g stroke="#ff0099" stroke-width="1" fill="#ff0099">
<circle cx=" 190" cy=" 166" r=" 1.5"/>
</g>
<path d="M201,130v -3" fill="none" stroke="#ff0099"/>
<path d="M201,124v -3" fill="none" stroke="#ff0099"/>
<path d="M195,126h 5" fill="none" stroke="#ff0099"/>
<path d="M202,126h 4" fill="none" stroke="#ff0099"/>
<g stroke="#ff0099" stroke-width="1" fill="#ff0099">
<circle cx=" 201" cy=" 126" r=" 1.5"/>
</g>
<path d="M212,93v -3" fill="none" stroke="#ff0099"/>
<path d="M212,88v -3" fill="none" stroke="#ff0099"/>
<path d="M206,89h 5" fill="none" stroke="#ff0099"/>
<path d="M213,89h 5" fill="none" stroke="#ff0099"/>
<g stroke="#ff0099" stroke-width="1" fill="#ff0099">
<circle cx=" 212" cy=" 89" r=" 1.5"/>
</g>
<path d="M223,80v -3" fill="none" stroke="#ff0099"/>
<path d="M223,75v -4" fill="none" stroke="#ff0099"/>
<path d="M218,76h 4" fill="none" stroke="#ff0099"/>
<path d="M224,76h 5" fill="none" stroke="#ff0099"/>
<g stroke="#ff0099" stroke-width="1" fill="#ff0099">
<circle cx=" 223" cy=" 76" r=" 1.5"/>
</g>
<path d="M234,74v -3" fill="none" stroke="#ff0099"/>
<path d="M234,68v -3" fill="none" stroke="#ff0099"/>
<path d="M229,70h 4" fill="none" stroke="#ff0099"/>
<path d="M235,70h 5" fill="none" stroke="#ff0099"/>
<g stroke="#ff0099" stroke-width="1" fill="#ff0099">
<circle cx=" 234" cy=" 70" r=" 1.5"/>
</g>
<path d="M245,73v -4" fill="none" stroke="#ff0099"/>
<path d="M245,67v -4" fill="none" stroke="#ff0099"/>
<path d="M240,68h 4" fill="none" stroke="#ff0099"/>
<path d="M246,68h 5" fill="none" stroke="#ff0099"/>
<g stroke="#ff0099" stroke-width="1" fill="#ff0099">
<circle cx=" 245" cy=" 68" r=" 1.5"/>
</g>
<path d="M256,93v -4" fill="none" stroke="#ff0099"/>
<path d="M256,87v -3" fill="none" stroke="#ff0099"/>
<path d="M251,88h 4" fill="none" stroke="#ff0099"/>
<path d="M257,88h 5" fill="none" stroke="#ff0099"/>
<g stroke="#ff0099" stroke-width="1" fill="#ff0099">
<circle cx=" 256" cy=" 88" r=" 1.5"/>
</g>
<path d="M267,114v -3" fill="none" stroke="#ff0099"/>
<path d="M267,109v -3" fill="none" stroke="#ff0099"/>
<path d="M262,110h 4" fill="none" stroke="#ff0099"/>
<path d="M268,110h 5" fill="none" stroke="#ff0099"/>
<g stroke="#ff0099" stroke-width="1" fill="#ff0099">
<circle cx=" 267" cy=" 110" r=" 1.5"/>
</g>
<path d="M278,136v -3" fill="none" stroke="#ff0099"/>
<path d="M278,130v -3" fill="none" stroke="#ff0099"/>
<path d="M273,131h 4" fill="none" stroke="#ff0099"/>
<path d="M279,131h 5" fill="none" stroke="#ff0099"/>
<g stroke="#ff0099" stroke-width="1" fill="#ff0099">
<circle cx=" 278" cy=" 131" r=" 1.5"/>
</g>
<path d="M289,167v -3" fill="none" stroke="#ff0099"/>
<path d="M289,161v -3" fill="none" stroke="#ff0099"/>
<path d="M284,163h 4" fill="none" stroke="#ff0099"/>
<path d="M291,163h 4" fill="none" stroke="#ff0099"/>
<g stroke="#ff0099" stroke-width="1" fill="#ff0099">
<circle cx=" 289" cy=" 163" r=" 1.5"/>
</g>
<path d="M300,199v -3" fill="none" stroke="#ff0099"/>
<path d="M300,194v -3" fill="none" stroke="#ff0099"/>
<path d="M295,195h 4" fill="none" stroke="#ff0099"/>
<path d="M302,195h 4" fill="none" stroke="#ff0099"/>
<g stroke="#ff0099" stroke-width="1" fill="#ff0099">
<circle cx=" 300" cy=" 195" r=" 1.5"/>
</g>
<path d="M312,236v -2" fill="none" stroke="#ff0099"/>
<path d="M312,232v -3" fill="none" stroke="#ff0099"/>
<path d="M306,233h 4" fill="none" stroke="#ff0099"/>
<path d="M313,233h 4" fill="none" stroke="#ff0099"/>
<g stroke="#ff0099" stroke-width="1" fill="#ff0099">
<circle cx=" 312" cy=" 233" r=" 1.5"/>
</g>
<path d="M323,273v -2" fill="none" stroke="#ff0099"/>
<path d="M323,269v -3" fill="none" stroke="#ff0099"/>
<path d="M317,270h 4" fill="none" stroke="#ff0099"/>
<path d="M324,270h 4" fill="none" stroke="#ff0099"/>
<g stroke="#ff0099" stroke-width="1" fill="#ff0099">
<circle cx=" 323" cy=" 270" r=" 1.5"/>
</g>
<path d="M334,300v -2" fill="none" stroke="#ff0099"/>
<path d="M334,296v -2" fill="none" stroke="#ff0099"/>
<path d="M328,297h 5" fill="none" stroke="#ff0099"/>
<path d="M335,297h 4" fill="none" stroke="#ff0099"/>
<g stroke="#ff0099" stroke-width="1" fill="#ff0099">
<circle cx=" 334" cy=" 297" r=" 1.5"/>
</g>
<path d="M345,330v -1" fill="none" stroke="#ff0099"/>
<path d="M345,327v -2" fill="none" stroke="#ff0099"/>
<path d="M339,328h 5" fill="none" stroke="#ff0099"/>
<path d="M346,328h 4" fill="none" stroke="#ff0099"/>
<g stroke="#ff0099" stroke-width="1" fill="#ff0099">
<circle cx=" 345" cy=" 328" r=" 1.5"/>
</g>
<path d="M356,362v -1" fill="none" stroke="#ff0099"/>
<path d="M356,359v -1" fill="none" stroke="#ff0099"/>
<path d="M350,360h 5" fill="none" stroke="#ff0099"/>
<path d="M357,360h 4" fill="none" stroke="#ff0099"/>
<g stroke="#ff0099" stroke-width="1" fill="#ff0099">
<circle cx=" 356" cy=" 360" r=" 1.5"/>
</g>
<path d="M367,381v -1" fill="none" stroke="#ff0099"/>
<path d="M367,378v -1" fill="none" stroke="#ff0099"/>
<path d="M361,379h 5" fill="none" stroke="#ff0099"/>
<path d="M368,379h 4" fill="none" stroke="#ff0099"/>
<g stroke="#ff0099" stroke-width="1" fill="#ff0099">
<circle cx=" 367" cy=" 379" r=" 1.5"/>
</g>
<path d="M378,397v -1" fill="none" stroke="#ff0099"/>
<path d="M378,394v -1" fill="none" stroke="#ff0099"/>
<path d="M372,395h 5" fill="none" stroke="#ff0099"/>
<path d="M379,395h 4" fill="none" stroke="#ff0099"/>
<g stroke="#ff0099" stroke-width="1" fill="#ff0099">
<circle cx=" 378" cy=" 395" r=" 1.5"/>
</g>
<path d="M389,411" fill="none" stroke="#ff0099"/>
<path d="M389,409v -1" fill="none" stroke="#ff0099"/>
<path d="M383,410h 5" fill="none" stroke="#ff0099"/>
<path d="M390,410h 4" fill="none" stroke="#ff0099"/>
<g stroke="#ff0099" stroke-width="1" fill="#ff0099">
<circle cx=" 389" cy=" 410" r=" 1.5"/>
</g>
<path d="M400,420" fill="none" stroke="#ff0099"/>
<path d="M400,417" fill="none" stroke="#ff0099"/>
<path d="M394,418h 5" fill="none" stroke="#ff0099"/>
<path d="M401,418h 5" fill="none" stroke="#ff0099"/>
<g stroke="#ff0099" stroke-width="1" fill="#ff0099">
<circle cx=" 400" cy=" 418" r=" 1.5"/>
</g>
<path d="M406,429h 4" fill="none" stroke="#ff0099"/>
<path d="M412,429h 5" fill="none" stroke="#ff0099"/>
<g stroke="#ff0099" stroke-width="1" fill="#ff0099">
<circle cx=" 411" cy=" 429" r=" 1.5"/>
</g>
<path d="M417,434h 4" fill="none" stroke="#ff0099"/>
<path d="M423,434h 5" fill="none" stroke="#ff0099"/>
<g stroke="#ff0099" stroke-width="1" fill="#ff0099">
<circle cx=" 422" cy=" 434" r=" 1.5"/>
</g>
<path d="M428,438h 4" fill="none" stroke="#ff0099"/>
<path d="M434,438h 5" fill="none" stroke="#ff0099"/>
<g stroke="#ff0099" stroke-width="1" fill="#ff0099">
<circle cx=" 433" cy=" 438" r=" 1.5"/>
</g>
<path d="M439,440h 4" fill="none" stroke="#ff0099"/>
<path d="M445,440h 5" fill="none" stroke="#ff0099"/>
<g stroke="#ff0099" stroke-width="1" fill="#ff0099">
<circle cx=" 444" cy=" 440" r=" 1.5"/>
</g>
<path d="M450,442h 4" fill="none" stroke="#ff0099"/>
<path d="M456,442h 5" fill="none" stroke="#ff0099"/>
<g stroke="#ff0099" stroke-width="1" fill="#ff0099">
<circle cx=" 455" cy=" 442" r=" 1.5"/>
</g>
<path d="M461,444h 4" fill="none" stroke="#ff0099"/>
<path d="M468,444h 4" fill="none" stroke="#ff0099"/>
<g stroke="#ff0099" stroke-width="1" fill="#ff0099">
<circle cx=" 466" cy=" 444" r=" 1.5"/>
</g>
<path d="M472,445h 4" fill="none" stroke="#ff0099"/>
<path d="M479,445h 4" fill="none" stroke="#ff0099"/>
<g stroke="#ff0099" stroke-width="1" fill="#ff0099">
<circle cx=" 477" cy=" 445" r=" 1.5"/>
</g>
<path d="M483,445h 4" fill="none" stroke="#ff0099"/>
<path d="M490,445h 4" fill="none" stroke="#ff0099"/>
<g stroke="#ff0099" stroke-width="1" fill="#ff0099">
<circle cx=" 489" cy=" 445" r=" 1.5"/>
</g>
<path d="M494,446h 4" fill="none" stroke="#ff0099"/>
<path d="M501,446h 4" fill="none" stroke="#ff0099"/>
<g stroke="#ff0099" stroke-width="1" fill="#ff0099">
<circle cx=" 500" cy=" 446" r=" 1.5"/>
</g>
<path d="M505,446h 5" fill="none" stroke="#ff0099"/>
<path d="M512,446h 4" fill="none" stroke="#ff0099"/>
<g stroke="#ff0099" stroke-width="1" fill="#ff0099">
<circle cx=" 511" cy=" 446" r=" 1.5"/>
</g>
<path d="M516,446h 5" fill="none" stroke="#ff0099"/>
<path d="M523,446h 4" fill="none" stroke="#ff0099"/>
<g stroke="#ff0099" stroke-width="1" fill="#ff0099">
<circle cx=" 522" cy=" 446" r=" 1.5"/>
</g>
<path d="M74,446h 453" fill="none" stroke="black"/>
<path d="M79,434v 12" fill="none" stroke="black"/>
<path d="M90,440v 6" fill="none" stroke="black"/>
<path d="M101,440v 6" fill="none" stroke="black"/>
<path d="M112,440v 6" fill="none" stroke="black"/>
<path d="M123,440v 6" fill="none" stroke="black"/>
<path d="M135,434v 12" fill="none" stroke="black"/>
<path d="M146,440v 6" fill="none" stroke="black"/>
<path d="M157,440v 6" fill="none" stroke="black"/>
<path d="M168,440v 6" fill="none" stroke="black"/>
<path d="M179,440v 6" fill="none" stroke="black"/>
<path d="M190,434v 12" fill="none" stroke="black"/>
<path d="M201,440v 6" fill="none" stroke="black"/>
<path d="M212,440v 6" fill="none" stroke="black"/>
<path d="M223,440v 6" fill="none" stroke="black"/>
<path d="M234,440v 6" fill="none" stroke="black"/>
<path d="M245,434v 12" fill="none" stroke="black"/>
<path d="M256,440v 6" fill="none" stroke="black"/>
<path d="M267,440v 6" fill="none" stroke="black"/>
<path d="M278,440v 6" fill="none" stroke="black"/>
<path d="M289,440v 6" fill="none" stroke="black"/>
<path d="M300,434v 12" fill="none" stroke="black"/>
<path d="M312,440v 6" fill="none" stroke="black"/>
<path d="M323,440v 6" fill="none" stroke="black"/>
<path d="M334,440v 6" fill="none" stroke="black"/>
<path d="M345,440v 6" fill="none" stroke="black"/>
<path d="M356,434v 12" fill="none" stroke="black"/>
<path d="M367,440v 6" fill="none" stroke="black"/>
<path d="M378,440v 6" fill="none" stroke="black"/>
<path d="M389,440v 6" fill="none" stroke="black"/>
<path d="M400,440v 6" fill="none" stroke="black"/>
<path d="M411,434v 12" fill="none" stroke="black"/>
<path d="M422,440v 6" fill="none" stroke="black"/>
<path d="M433,440v 6" fill="none" stroke="black"/>
<path d="M444,440v 6" fill="none" stroke="black"/>
<path d="M455,440v 6" fill="none" stroke="black"/>
<path d="M466,434v 12" fill="none" stroke="black"/>
<path d="M477,440v 6" fill="none" stroke="black"/>
<path d="M489,440v 6" fill="none" stroke="black"/>
<path d="M500,440v 6" fill="none" stroke="black"/>
<path d="M511,440v 6" fill="none" stroke="black"/>
<path d="M522,434v 12" fill="none" stroke="black"/>
<path d="M79,434v 12" fill="none" stroke="black"/>
<path d="M522,434v 12" fill="none" stroke="black"/>
<text x="74" y="465" fill="black" font-size="18" font-family="Helvetica" font-weight="bold">
0
</text>
<text x="129" y="465" fill="black" font-size="18" font-family="Helvetica" font-weight="bold">
5
</text>
<text x="179" y="465" fill="black" font-size="18" font-family="Helvetica" font-weight="bold">
10
</text>
<text x="235" y="465" fill="black" font-size="18" font-family="Helvetica" font-weight="bold">
15
</text>
<text x="290" y="465" fill="black" font-size="18" font-family="Helvetica" font-weight="bold">
20
</text>
<text x="346" y="465" fill="black" font-size="18" font-family="Helvetica" font-weight="bold">
25
</text>
<text x="401" y="465" fill="black" font-size="18" font-family="Helvetica" font-weight="bold">
30
</text>
<text x="456" y="465" fill="black" font-size="18" font-family="Helvetica" font-weight="bold">
35
</text>
<text x="511" y="465" fill="black" font-size="18" font-family="Helvetica" font-weight="bold">
40
</text>
<path d="M74,44h 453" fill="none" stroke="black"/>
<path d="M79,56v -12" fill="none" stroke="black"/>
<path d="M90,50v -6" fill="none" stroke="black"/>
<path d="M101,50v -6" fill="none" stroke="black"/>
<path d="M112,50v -6" fill="none" stroke="black"/>
<path d="M123,50v -6" fill="none" stroke="black"/>
<path d="M135,56v -12" fill="none" stroke="black"/>
<path d="M146,50v -6" fill="none" stroke="black"/>
<path d="M157,50v -6" fill="none" stroke="black"/>
<path d="M168,50v -6" fill="none" stroke="black"/>
<path d="M179,50v -6" fill="none" stroke="black"/>
<path d="M190,56v -12" fill="none" stroke="black"/>
<path d="M201,50v -6" fill="none" stroke="black"/>
<path d="M212,50v -6" fill="none" stroke="black"/>
<path d="M223,50v -6" fill="none" stroke="black"/>
<path d="M234,50v -6" fill="none" stroke="black"/>
<path d="M245,56v -12" fill="none" stroke="black"/>
<path d="M256,50v -6" fill="none" stroke="black"/>
<path d="M267,50v -6" fill="none" stroke="black"/>
<path d="M278,50v -6" fill="none" stroke="black"/>
<path d="M289,50v -6" fill="none" stroke="black"/>
<path d="M300,56v -12" fill="none" stroke="black"/>
<path d="M312,50v -6" fill="none" stroke="black"/>
<path d="M323,50v -6" fill="none" stroke="black"/>
<path d="M334,50v -6" fill="none" stroke="black"/>
<path d="M345,50v -6" fill="none" stroke="black"/>
<path d="M356,56v -12" fill="none" stroke="black"/>
<path d="M367,50v -6" fill="none" stroke="black"/>
<path d="M378,50v -6" fill="none" stroke="black"/>
<path d="M389,50v -6" fill="none" stroke="black"/>
<path d="M400,50v -6" fill="none" stroke="black"/>
<path d="M411,56v -12" fill="none" stroke="black"/>
<path d="M422,50v -6" fill="none" stroke="black"/>
<path d="M433,50v -6" fill="none" stroke="black"/>
<path d="M444,50v -6" fill="none" stroke="black"/>
<path d="M455,50v -6" fill="none" stroke="black"/>
<path d="M466,56v -12" fill="none" stroke="black"/>
<path d="M477,50v -6" fill="none" stroke="black"/>
<path d="M489,50v -6" fill="none" stroke="black"/>
<path d="M500,50v -6" fill="none" stroke="black"/>
<path d="M511,50v -6" fill="none" stroke="black"/>
<path d="M522,56v -12" fill="none" stroke="black"/>
<path d="M79,56v -12" fill="none" stroke="black"/>
<path d="M522,56v -12" fill="none" stroke="black"/>
<path d="M74,446v -402" fill="none" stroke="black"/>
<path d="M87,446h -13" fill="none" stroke="black"/>
<path d="M81,436h -7" fill="none" stroke="black"/>
<path d="M81,425h -7" fill="none" stroke="black"/>
<path d="M81,414h -7" fill="none" stroke="black"/>
<path d="M81,404h -7" fill="none" stroke="black"/>
<path d="M87,393h -13" fill="none" stroke="black"/>
<path d="M81,382h -7" fill="none" stroke="black"/>
<path d="M81,372h -7" fill="none" stroke="black"/>
<path d="M81,361h -7" fill="none" stroke="black"/>
<path d="M81,350h -7" fill="none" stroke="black"/>
<path d="M87,340h -13" fill="none" stroke="black"/>
<path d="M81,329h -7" fill="none" stroke="black"/>
<path d="M81,318h -7" fill="none" stroke="black"/>
<path d="M81,308h -7" fill="none" stroke="black"/>
<path d="M81,297h -7" fill="none" stroke="black"/>
<path d="M87,287h -13" fill="none" stroke="black"/>
<path d="M81,276h -7" fill="none" stroke="black"/>
<path d="M81,265h -7" fill="none" stroke="black"/>
<path d="M81,255h -7" fill="none" stroke="black"/>
<path d="M81,244h -7" fill="none" stroke="black"/>
<path d="M87,233h -13" fill="none" stroke="black"/>
<path d="M81,223h -7" fill="none" stroke="black"/>
<path d="M81,212h -7" fill="none" stroke="black"/>
<path d="M81,201h -7" fill="none" stroke="black"/>
<path d="M81,191h -7" fill="none" stroke="black"/>
<path d="M87,180h -13" fill="none" stroke="black"/>
<path d="M81,169h -7" fill="none" stroke="black"/>
<path d="M81,159h -7" fill="none" stroke="black"/>
<path d="M81,148h -7" fill="none" stroke="black"/>
<path d="M81,137h -7" fill="none" stroke="black"/>
<path d="M87,127h -13" fill="none" stroke="black"/>
<path d="M81,116h -7" fill="none" stroke="black"/>
<path d="M81,105h -7" fill="none" stroke="black"/>
<path d="M81,95h -7" fill="none" stroke="black"/>
<path d="M81,84h -7" fill="none" stroke="black"/>
<path d="M87,73h -13" fill="none" stroke="black"/>
<path d="M87,73h -13" fill="none" stroke="black"/>
<path d="M81,63h -7" fill="none" stroke="black"/>
<path d="M81,52h -7" fill="none" stroke="black"/>
<text x="61" y="453" fill="black" font-size="18" font-family="Helvetica" font-weight="bold">
0
</text>
<text x="37" y="400" fill="black" font-size="18" font-family="Helvetica" font-weight="bold">
0.01
</text>
<text x="35" y="346" fill="black" font-size="18" font-family="Helvetica" font-weight="bold">
0.02
</text>
<text x="35" y="293" fill="black" font-size="18" font-family="Helvetica" font-weight="bold">
0.03
</text>
<text x="34" y="240" fill="black" font-size="18" font-family="Helvetica" font-weight="bold">
0.04
</text>
<text x="34" y="186" fill="black" font-size="18" font-family="Helvetica" font-weight="bold">
0.05
</text>
<text x="34" y="133" fill="black" font-size="18" font-family="Helvetica" font-weight="bold">
0.06
</text>
<text x="35" y="80" fill="black" font-size="18" font-family="Helvetica" font-weight="bold">
0.07
</text>
<path d="M90,446" fill="none" stroke="#99ff99" stroke-width="2"/>
<path d="M90,446" fill="none" stroke="#99ff99" stroke-width="2"/>
<g stroke="black" stroke-width="2" fill="none">
<line x1="89" y1="446" x2="90" y2="446"/>
</g>
<path d="M101,445" fill="none" stroke="#99ff99" stroke-width="2"/>
<path d="M101,445v -1" fill="none" stroke="#99ff99" stroke-width="2"/>
<g stroke="black" stroke-width="2" fill="none">
<line x1="100" y1="445" x2="101" y2="445"/>
</g>
<path d="M112,440v -1" fill="none" stroke="#99ff99" stroke-width="2"/>
<path d="M112,439v -1" fill="none" stroke="#99ff99" stroke-width="2"/>
<g stroke="black" stroke-width="2" fill="none">
<line x1="111" y1="439" x2="112" y2="439"/>
</g>
<path d="M123,428v -1" fill="none" stroke="#99ff99" stroke-width="2"/>
<path d="M123,427v -1" fill="none" stroke="#99ff99" stroke-width="2"/>
<g stroke="black" stroke-width="2" fill="none">
<line x1="122" y1="427" x2="123" y2="427"/>
</g>
<path d="M135,405v -2" fill="none" stroke="#99ff99" stroke-width="2"/>
<path d="M135,403v -2" fill="none" stroke="#99ff99" stroke-width="2"/>
<g stroke="black" stroke-width="2" fill="none">
<line x1="134" y1="403" x2="135" y2="403"/>
</g>
<path d="M146,369v -3" fill="none" stroke="#99ff99" stroke-width="2"/>
<path d="M146,366v -3" fill="none" stroke="#99ff99" stroke-width="2"/>
<g stroke="black" stroke-width="2" fill="none">
<line x1="145" y1="366" x2="146" y2="366"/>
</g>
<path d="M157,331v -4" fill="none" stroke="#99ff99" stroke-width="2"/>
<path d="M157,327v -4" fill="none" stroke="#99ff99" stroke-width="2"/>
<g stroke="black" stroke-width="2" fill="none">
<line x1="156" y1="327" x2="157" y2="327"/>
</g>
<path d="M168,270v -5" fill="none" stroke="#99ff99" stroke-width="2"/>
<path d="M168,265v -5" fill="none" stroke="#99ff99" stroke-width="2"/>
<g stroke="black" stroke-width="2" fill="none">
<line x1="167" y1="265" x2="168" y2="265"/>
</g>
<path d="M179,216v -6" fill="none" stroke="#99ff99" stroke-width="2"/>
<path d="M179,210v -5" fill="none" stroke="#99ff99" stroke-width="2"/>
<g stroke="black" stroke-width="2" fill="none">
<line x1="178" y1="210" x2="179" y2="210"/>
</g>
<path d="M190,172v -6" fill="none" stroke="#99ff99" stroke-width="2"/>
<path d="M190,166v -6" fill="none" stroke="#99ff99" stroke-width="2"/>
<g stroke="black" stroke-width="2" fill="none">
<line x1="189" y1="166" x2="190" y2="166"/>
</g>
<path d="M201,134v -7" fill="none" stroke="#99ff99" stroke-width="2"/>
<path d="M201,127v -6" fill="none" stroke="#99ff99" stroke-width="2"/>
<g stroke="black" stroke-width="2" fill="none">
<line x1="200" y1="127" x2="201" y2="127"/>
</g>
<path d="M212,113v -7" fill="none" stroke="#99ff99" stroke-width="2"/>
<path d="M212,106v -6" fill="none" stroke="#99ff99" stroke-width="2"/>
<g stroke="black" stroke-width="2" fill="none">
<line x1="211" y1="106" x2="212" y2="106"/>
</g>
<path d="M223,85v -7" fill="none" stroke="#99ff99" stroke-width="2"/>
<path d="M223,78v -6" fill="none" stroke="#99ff99" stroke-width="2"/>
<g stroke="black" stroke-width="2" fill="none">
<line x1="222" y1="78" x2="223" y2="78"/>
</g>
<path d="M234,71v -7" fill="none" stroke="#99ff99" stroke-width="2"/>
<path d="M234,64v -7" fill="none" stroke="#99ff99" stroke-width="2"/>
<g stroke="black" stroke-width="2" fill="none">
<line x1="233" y1="64" x2="234" y2="64"/>
</g>
<path d="M245,72v -6" fill="none" stroke="#99ff99" stroke-width="2"/>
<path d="M245,66v -7" fill="none" stroke="#99ff99" stroke-width="2"/>
<g stroke="black" stroke-width="2" fill="none">
<line x1="244" y1="66" x2="245" y2="66"/>
</g>
<path d="M256,96v -6" fill="none" stroke="#99ff99" stroke-width="2"/>
<path d="M256,90v -6" fill="none" stroke="#99ff99" stroke-width="2"/>
<g stroke="black" stroke-width="2" fill="none">
<line x1="255" y1="90" x2="256" y2="90"/>
</g>
<path d="M267,105v -6" fill="none" stroke="#99ff99" stroke-width="2"/>
<path d="M267,99v -7" fill="none" stroke="#99ff99" stroke-width="2"/>
<g stroke="black" stroke-width="2" fill="none">
<line x1="266" y1="99" x2="267" y2="99"/>
</g>
<path d="M278,138v -6" fill="none" stroke="#99ff99" stroke-width="2"/>
<path d="M278,132v -6" fill="none" stroke="#99ff99" stroke-width="2"/>
<g stroke="black" stroke-width="2" fill="none">
<line x1="277" y1="132" x2="278" y2="132"/>
</g>
<path d="M289,166v -6" fill="none" stroke="#99ff99" stroke-width="2"/>
<path d="M289,160v -5" fill="none" stroke="#99ff99" stroke-width="2"/>
<g stroke="black" stroke-width="2" fill="none">
<line x1="288" y1="160" x2="289" y2="160"/>
</g>
<path d="M300,195v -5" fill="none" stroke="#99ff99" stroke-width="2"/>
<path d="M300,190v -5" fill="none" stroke="#99ff99" stroke-width="2"/>
<g stroke="black" stroke-width="2" fill="none">
<line x1="299" y1="190" x2="300" y2="190"/>
</g>
<path d="M312,229v -5" fill="none" stroke="#99ff99" stroke-width="2"/>
<path d="M312,224v -5" fill="none" stroke="#99ff99" stroke-width="2"/>
<g stroke="black" stroke-width="2" fill="none">
<line x1="311" y1="224" x2="312" y2="224"/>
</g>
<path d="M323,269v -4" fill="none" stroke="#99ff99" stroke-width="2"/>
<path d="M323,265v -4" fill="none" stroke="#99ff99" stroke-width="2"/>
<g stroke="black" stroke-width="2" fill="none">
<line x1="322" y1="265" x2="323" y2="265"/>
</g>
<path d="M334,307v -3" fill="none" stroke="#99ff99" stroke-width="2"/>
<path d="M334,304v -4" fill="none" stroke="#99ff99" stroke-width="2"/>
<g stroke="black" stroke-width="2" fill="none">
<line x1="333" y1="304" x2="334" y2="304"/>
</g>
<path d="M345,330v -4" fill="none" stroke="#99ff99" stroke-width="2"/>
<path d="M345,326v -3" fill="none" stroke="#99ff99" stroke-width="2"/>
<g stroke="black" stroke-width="2" fill="none">
<line x1="344" y1="326" x2="345" y2="326"/>
</g>
<path d="M356,355v -3" fill="none" stroke="#99ff99" stroke-width="2"/>
<path d="M356,352v -2" fill="none" stroke="#99ff99" stroke-width="2"/>
<g stroke="black" stroke-width="2" fill="none">
<line x1="355" y1="352" x2="356" y2="352"/>
</g>
<path d="M367,375v -2" fill="none" stroke="#99ff99" stroke-width="2"/>
<path d="M367,373v -2" fill="none" stroke="#99ff99" stroke-width="2"/>
<g stroke="black" stroke-width="2" fill="none">
<line x1="366" y1="373" x2="367" y2="373"/>
</g>
<path d="M378,398v -2" fill="none" stroke="#99ff99" stroke-width="2"/>
<path d="M378,396v -2" fill="none" stroke="#99ff99" stroke-width="2"/>
<g stroke="black" stroke-width="2" fill="none">
<line x1="377" y1="396" x2="378" y2="396"/>
</g>
<path d="M389,410v -1" fill="none" stroke="#99ff99" stroke-width="2"/>
<path d="M389,409v -2" fill="none" stroke="#99ff99" stroke-width="2"/>
<g stroke="black" stroke-width="2" fill="none">
<line x1="388" y1="409" x2="389" y2="409"/>
</g>
<path d="M400,422v -2" fill="none" stroke="#99ff99" stroke-width="2"/>
<path d="M400,420v -1" fill="none" stroke="#99ff99" stroke-width="2"/>
<g stroke="black" stroke-width="2" fill="none">
<line x1="399" y1="420" x2="400" y2="420"/>
</g>
<path d="M411,427v -1" fill="none" stroke="#99ff99" stroke-width="2"/>
<path d="M411,426v -1" fill="none" stroke="#99ff99" stroke-width="2"/>
<g stroke="black" stroke-width="2" fill="none">
<line x1="410" y1="426" x2="411" y2="426"/>
</g>
<path d="M422,433" fill="none" stroke="#99ff99" stroke-width="2"/>
<path d="M422,433v -1" fill="none" stroke="#99ff99" stroke-width="2"/>
<g stroke="black" stroke-width="2" fill="none">
<line x1="421" y1="433" x2="422" y2="433"/>
</g>
<path d="M433,438v -1" fill="none" stroke="#99ff99" stroke-width="2"/>
<path d="M433,437" fill="none" stroke="#99ff99" stroke-width="2"/>
<g stroke="black" stroke-width="2" fill="none">
<line x1="432" y1="437" x2="433" y2="437"/>
</g>
<path d="M444,441v -1" fill="none" stroke="#99ff99" stroke-width="2"/>
<path d="M444,440" fill="none" stroke="#99ff99" stroke-width="2"/>
<g stroke="black" stroke-width="2" fill="none">
<line x1="443" y1="440" x2="444" y2="440"/>
</g>
<path d="M455,442" fill="none" stroke="#99ff99" stroke-width="2"/>
<path d="M455,442" fill="none" stroke="#99ff99" stroke-width="2"/>
<g stroke="black" stroke-width="2" fill="none">
<line x1="454" y1="442" x2="455" y2="442"/>
</g>
<path d="M466,444" fill="none" stroke="#99ff99" stroke-width="2"/>
<path d="M466,444" fill="none" stroke="#99ff99" stroke-width="2"/>
<g stroke="black" stroke-width="2" fill="none">
<line x1="465" y1="444" x2="466" y2="444"/>
</g>
<path d="M477,445" fill="none" stroke="#99ff99" stroke-width="2"/>
<path d="M477,445" fill="none" stroke="#99ff99" stroke-width="2"/>
<g stroke="black" stroke-width="2" fill="none">
<line x1="476" y1="445" x2="477" y2="445"/>
</g>
<path d="M489,445" fill="none" stroke="#99ff99" stroke-width="2"/>
<path d="M489,445" fill="none" stroke="#99ff99" stroke-width="2"/>
<g stroke="black" stroke-width="2" fill="none">
<line x1="488" y1="445" x2="489" y2="445"/>
</g>
<path d="M500,446" fill="none" stroke="#99ff99" stroke-width="2"/>
<path d="M500,446" fill="none" stroke="#99ff99" stroke-width="2"/>
<g stroke="black" stroke-width="2" fill="none">
<line x1="499" y1="446" x2="500" y2="446"/>
</g>
<path d="M511,446" fill="none" stroke="#99ff99" stroke-width="2"/>
<path d="M511,446" fill="none" stroke="#99ff99" stroke-width="2"/>
<g stroke="black" stroke-width="2" fill="none">
<line x1="510" y1="446" x2="511" y2="446"/>
</g>
<path d="M522,446" fill="none" stroke="#99ff99" stroke-width="2"/>
<path d="M522,446" fill="none" stroke="#99ff99" stroke-width="2"/>
<g stroke="black" stroke-width="2" fill="none">
<line x1="521" y1="446" x2="522" y2="446"/>
</g>
<path d="M74,446h 22v -1h 11v -6h 11v -12h 11v -24h 11v -37h 11v -39h 11v -62h 11v -55h 11v -44h 11v -39h 11v -21h 12v -28h 11v -14h 11v 2h 11v 24h 11v 9h 11v 33h 11v 28h 11v 30h 11v 34h 11v 41h 11v 39h 11v 22h 11v 26h 11v 21h 11v 23h 11v 13h 11v 11h
 12v 6h 11v 7h 11v 4h 11v 3h 11v 2h 11v 2h 11v 1h 22v 1h 33z" fill="#99ff99"/>
<path d="M74,446h 22v -1h 11v -6h 11v -12h 11v -24h 11v -37h 11v -39h 11v -62h 11v -55h 11v -44h 11v -39h 11v -21h 12v -28h 11v -14h 11v 2h 11v 24h 11v 9h 11v 33h 11v 28h 11v 30h 11v 34h 11v 41h 11v 39h 11v 22h 11v 26h 11v 21h 11v 23h 11v 13h 11v 11h
 12v 6h 11v 7h 11v 4h 11v 3h 11v 2h 11v 2h 11v 1h 22v 1h 33" fill="none" stroke="#99ff99" stroke-width="2"/>
<path d="M85,446h 4" fill="none" stroke="#ff0099"/>
<path d="M91,446h 5" fill="none" stroke="#ff0099"/>
<g stroke="#ff0099" stroke-width="1" fill="#ff0099">
<circle cx=" 90" cy=" 446" r=" 1.5"/>
</g>
<path d="M96,444h 4" fill="none" stroke="#ff0099"/>
<path d="M102,444h 5" fill="none" stroke="#ff0099"/>
<g stroke="#ff0099" stroke-width="1" fill="#ff0099">
<circle cx=" 101" cy=" 444" r=" 1.5"/>
</g>
<path d="M107,438h 4" fill="none" stroke="#ff0099"/>
<path d="M114,438h 4" fill="none" stroke="#ff0099"/>
<g stroke="#ff0099" stroke-width="1" fill="#ff0099">
<circle cx=" 112" cy=" 438" r=" 1.5"/>
</g>
<path d="M118,424h 4" fill="none" stroke="#ff0099"/>
<path d="M125,424h 4" fill="none" stroke="#ff0099"/>
<g stroke="#ff0099" stroke-width="1" fill="#ff0099">
<circle cx=" 123" cy=" 424" r=" 1.5"/>
</g>
<path d="M135,402v -1" fill="none" stroke="#ff0099"/>
<path d="M135,399" fill="none" stroke="#ff0099"/>
<path d="M129,400h 4" fill="none" stroke="#ff0099"/>
<path d="M136,400h 4" fill="none" stroke="#ff0099"/>
<g stroke="#ff0099" stroke-width="1" fill="#ff0099">
<circle cx=" 135" cy=" 400" r=" 1.5"/>
</g>
<path d="M146,367v -1" fill="none" stroke="#ff0099"/>
<path d="M146,364v -1" fill="none" stroke="#ff0099"/>
<path d="M140,365h 4" fill="none" stroke="#ff0099"/>
<path d="M147,365h 4" fill="none" stroke="#ff0099"/>
<g stroke="#ff0099" stroke-width="1" fill="#ff0099">
<circle cx=" 146" cy=" 365" r=" 1.5"/>
</g>
<path d="M157,318v -1" fill="none" stroke="#ff0099"/>
<path d="M157,314v -1" fill="none" stroke="#ff0099"/>
<path d="M151,316h 5" fill="none" stroke="#ff0099"/>
<path d="M158,316h 4" fill="none" stroke="#ff0099"/>
<g stroke="#ff0099" stroke-width="1" fill="#ff0099">
<circle cx=" 157" cy=" 316" r=" 1.5"/>
</g>
<path d="M168,265v -1" fill="none" stroke="#ff0099"/>
<path d="M168,261v -2" fill="none" stroke="#ff0099"/>
<path d="M162,262h 5" fill="none" stroke="#ff0099"/>
<path d="M169,262h 4" fill="none" stroke="#ff0099"/>
<g stroke="#ff0099" stroke-width="1" fill="#ff0099">
<circle cx=" 168" cy=" 262" r=" 1.5"/>
</g>
<path d="M179,209v -3" fill="none" stroke="#ff0099"/>
<path d="M179,204v -2" fill="none" stroke="#ff0099"/>
<path d="M173,205h 5" fill="none" stroke="#ff0099"/>
<path d="M180,205h 4" fill="none" stroke="#ff0099"/>
<g stroke="#ff0099" stroke-width="1" fill="#ff0099">
<circle cx=" 179" cy=" 205" r=" 1.5"/>
</g>
<path d="M190,170v -3" fill="none" stroke="#ff0099"/>
<path d="M190,165v -3" fill="none" stroke="#ff0099"/>
<path d="M184,166h 5" fill="none" stroke="#ff0099"/>
<path d="M191,166h 4" fill="none" stroke="#ff0099"/>
<g stroke="#ff0099" stroke-width="1" fill="#ff0099">
<circle cx=" 190" cy=" 166" r=" 1.5"/>
</g>
<path d="M201,130v -3" fill="none" stroke="#ff0099"/>
<path d="M201,124v -3" fill="none" stroke="#ff0099"/>
<path d="M195,126h 5" fill="none" stroke="#ff0099"/>
<path d="M202,126h 4" fill="none" stroke="#ff0099"/>
<g stroke="#ff0099" stroke-width="1" fill="#ff0099">
<circle cx=" 201" cy=" 126" r=" 1.5"/>
</g>
<path d="M212,93v -3" fill="none" stroke="#ff0099"/>
<path d="M212,88v -3" fill="none" stroke="#ff0099"/>
<path d="M206,89h 5" fill="none" stroke="#ff0099"/>
<path d="M213,89h 5" fill="none" stroke="#ff0099"/>
<g stroke="#ff0099" stroke-width="1" fill="#ff0099">
<circle cx=" 212" cy=" 89" r=" 1.5"/>
</g>
<path d="M223,80v -3" fill="none" stroke="#ff0099"/>
<path d="M223,75v -4" fill="none" stroke="#ff0099"/>
<path d="M218,76h 4" fill="none" stroke="#ff0099"/>
<path d="M224,76h 5" fill="none" stroke="#ff0099"/>
<g stroke="#ff0099" stroke-width="1" fill="#ff0099">
<circle cx=" 223" cy=" 76" r=" 1.5"/>
</g>
<path d="M234,74v -3" fill="none" stroke="#ff0099"/>
<path d="M234,68v -3" fill="none" stroke="#ff0099"/>
<path d="M229,70h 4" fill="none" stroke="#ff0099"/>
<path d="M235,70h 5" fill="none" stroke="#ff0099"/>
<g stroke="#ff0099" stroke-width="1" fill="#ff0099">
<circle cx=" 234" cy=" 70" r=" 1.5"/>
</g>
<path d="M245,73v -4" fill="none" stroke="#ff0099"/>
<path d="M245,67v -4" fill="none" stroke="#ff0099"/>
<path d="M240,68h 4" fill="none" stroke="#ff0099"/>
<path d="M246,68h 5" fill="none" stroke="#ff0099"/>
<g stroke="#ff0099" stroke-width="1" fill="#ff0099">
<circle cx=" 245" cy=" 68" r=" 1.5"/>
</g>
<path d="M256,93v -4" fill="none" stroke="#ff0099"/>
<path d="M256,87v -3" fill="none" stroke="#ff0099"/>
<path d="M251,88h 4" fill="none" stroke="#ff0099"/>
<path d="M257,88h 5" fill="none" stroke="#ff0099"/>
<g stroke="#ff0099" stroke-width="1" fill="#ff0099">
<circle cx=" 256" cy=" 88" r=" 1.5"/>
</g>
<path d="M267,114v -3" fill="none" stroke="#ff0099"/>
<path d="M267,109v -3" fill="none" stroke="#ff0099"/>
<path d="M262,110h 4" fill="none" stroke="#ff0099"/>
<path d="M268,110h 5" fill="none" stroke="#ff0099"/>
<g stroke="#ff0099" stroke-width="1" fill="#ff0099">
<circle cx=" 267" cy=" 110" r=" 1.5"/>
</g>
<path d="M278,136v -3" fill="none" stroke="#ff0099"/>
<path d="M278,130v -3" fill="none" stroke="#ff0099"/>
<path d="M273,131h 4" fill="none" stroke="#ff0099"/>
<path d="M279,131h 5" fill="none" stroke="#ff0099"/>
<g stroke="#ff0099" stroke-width="1" fill="#ff0099">
<circle cx=" 278" cy=" 131" r=" 1.5"/>
</g>
<path d="M289,167v -3" fill="none" stroke="#ff0099"/>
<path d="M289,161v -3" fill="none" stroke="#ff0099"/>
<path d="M284,163h 4" fill="none" stroke="#ff0099"/>
<path d="M291,163h 4" fill="none" stroke="#ff0099"/>
<g stroke="#ff0099" stroke-width="1" fill="#ff0099">
<circle cx=" 289" cy=" 163" r=" 1.5"/>
</g>
<path d="M300,199v -3" fill="none" stroke="#ff0099"/>
<path d="M300,194v -3" fill="none" stroke="#ff0099"/>
<path d="M295,195h 4" fill="none" stroke="#ff0099"/>
<path d="M302,195h 4" fill="none" stroke="#ff0099"/>
<g stroke="#ff0099" stroke-width="1" fill="#ff0099">
<circle cx=" 300" cy=" 195" r=" 1.5"/>
</g>
<path d="M312,236v -2" fill="none" stroke="#ff0099"/>
<path d="M312,232v -3" fill="none" stroke="#ff0099"/>
<path d="M306,233h 4" fill="none" stroke="#ff0099"/>
<path d="M313,233h 4" fill="none" stroke="#ff0099"/>
<g stroke="#ff0099" stroke-width="1" fill="#ff0099">
<circle cx=" 312" cy=" 233" r=" 1.5"/>
</g>
<path d="M323,273v -2" fill="none" stroke="#ff0099"/>
<path d="M323,269v -3" fill="none" stroke="#ff0099"/>
<path d="M317,270h 4" fill="none" stroke="#ff0099"/>
<path d="M324,270h 4" fill="none" stroke="#ff0099"/>
<g stroke="#ff0099" stroke-width="1" fill="#ff0099">
<circle cx=" 323" cy=" 270" r=" 1.5"/>
</g>
<path d="M334,300v -2" fill="none" stroke="#ff0099"/>
<path d="M334,296v -2" fill="none" stroke="#ff0099"/>
<path d="M328,297h 5" fill="none" stroke="#ff0099"/>
<path d="M335,297h 4" fill="none" stroke="#ff0099"/>
<g stroke="#ff0099" stroke-width="1" fill="#ff0099">
<circle cx=" 334" cy=" 297" r=" 1.5"/>
</g>
<path d="M345,330v -1" fill="none" stroke="#ff0099"/>
<path d="M345,327v -2" fill="none" stroke="#ff0099"/>
<path d="M339,328h 5" fill="none" stroke="#ff0099"/>
<path d="M346,328h 4" fill="none" stroke="#ff0099"/>
<g stroke="#ff0099" stroke-width="1" fill="#ff0099">
<circle cx=" 345" cy=" 328" r=" 1.5"/>
</g>
<path d="M356,362v -1" fill="none" stroke="#ff0099"/>
<path d="M356,359v -1" fill="none" stroke="#ff0099"/>
<path d="M350,360h 5" fill="none" stroke="#ff0099"/>
<path d="M357,360h 4" fill="none" stroke="#ff0099"/>
<g stroke="#ff0099" stroke-width="1" fill="#ff0099">
<circle cx=" 356" cy=" 360" r=" 1.5"/>
</g>
<path d="M367,381v -1" fill="none" stroke="#ff0099"/>
<path d="M367,378v -1" fill="none" stroke="#ff0099"/>
<path d="M361,379h 5" fill="none" stroke="#ff0099"/>
<path d="M368,379h 4" fill="none" stroke="#ff0099"/>
<g stroke="#ff0099" stroke-width="1" fill="#ff0099">
<circle cx=" 367" cy=" 379" r=" 1.5"/>
</g>
<path d="M378,397v -1" fill="none" stroke="#ff0099"/>
<path d="M378,394v -1" fill="none" stroke="#ff0099"/>
<path d="M372,395h 5" fill="none" stroke="#ff0099"/>
<path d="M379,395h 4" fill="none" stroke="#ff0099"/>
<g stroke="#ff0099" stroke-width="1" fill="#ff0099">
<circle cx=" 378" cy=" 395" r=" 1.5"/>
</g>
<path d="M389,411" fill="none" stroke="#ff0099"/>
<path d="M389,409v -1" fill="none" stroke="#ff0099"/>
<path d="M383,410h 5" fill="none" stroke="#ff0099"/>
<path d="M390,410h 4" fill="none" stroke="#ff0099"/>
<g stroke="#ff0099" stroke-width="1" fill="#ff0099">
<circle cx=" 389" cy=" 410" r=" 1.5"/>
</g>
<path d="M400,420" fill="none" stroke="#ff0099"/>
<path d="M400,417" fill="none" stroke="#ff0099"/>
<path d="M394,418h 5" fill="none" stroke="#ff0099"/>
<path d="M401,418h 5" fill="none" stroke="#ff0099"/>
<g stroke="#ff0099" stroke-width="1" fill="#ff0099">
<circle cx=" 400" cy=" 418" r=" 1.5"/>
</g>
<path d="M406,429h 4" fill="none" stroke="#ff0099"/>
<path d="M412,429h 5" fill="none" stroke="#ff0099"/>
<g stroke="#ff0099" stroke-width="1" fill="#ff0099">
<circle cx=" 411" cy=" 429" r=" 1.5"/>
</g>
<path d="M417,434h 4" fill="none" stroke="#ff0099"/>
<path d="M423,434h 5" fill="none" stroke="#ff0099"/>
<g stroke="#ff0099" stroke-width="1" fill="#ff0099">
<circle cx=" 422" cy=" 434" r=" 1.5"/>
</g>
<path d="M428,438h 4" fill="none" stroke="#ff0099"/>
<path d="M434,438h 5" fill="none" stroke="#ff0099"/>
<g stroke="#ff0099" stroke-width="1" fill="#ff0099">
<circle cx=" 433" cy=" 438" r=" 1.5"/>
</g>
<path d="M439,440h 4" fill="none" stroke="#ff0099"/>
<path d="M445,440h 5" fill="none" stroke="#ff0099"/>
<g stroke="#ff0099" stroke-width="1" fill="#ff0099">
<circle cx=" 444" cy=" 440" r=" 1.5"/>
</g>
<path d="M450,442h 4" fill="none" stroke="#ff0099"/>
<path d="M456,442h 5" fill="none" stroke="#ff0099"/>
<g stroke="#ff0099" stroke-width="1" fill="#ff0099">
<circle cx=" 455" cy=" 442" r=" 1.5"/>
</g>
<path d="M461,444h 4" fill="none" stroke="#ff0099"/>
<path d="M468,444h 4" fill="none" stroke="#ff0099"/>
<g stroke="#ff0099" stroke-width="1" fill="#ff0099">
<circle cx=" 466" cy=" 444" r=" 1.5"/>
</g>
<path d="M472,445h 4" fill="none" stroke="#ff0099"/>
<path d="M479,445h 4" fill="none" stroke="#ff0099"/>
<g stroke="#ff0099" stroke-width="1" fill="#ff0099">
<circle cx=" 477" cy=" 445" r=" 1.5"/>
</g>
<path d="M483,445h 4" fill="none" stroke="#ff0099"/>
<path d="M490,445h 4" fill="none" stroke="#ff0099"/>
<g stroke="#ff0099" stroke-width="1" fill="#ff0099">
<circle cx=" 489" cy=" 445" r=" 1.5"/>
</g>
<path d="M494,446h 4" fill="none" stroke="#ff0099"/>
<path d="M501,446h 4" fill="none" stroke="#ff0099"/>
<g stroke="#ff0099" stroke-width="1" fill="#ff0099">
<circle cx=" 500" cy=" 446" r=" 1.5"/>
</g>
<path d="M505,446h 5" fill="none" stroke="#ff0099"/>
<path d="M512,446h 4" fill="none" stroke="#ff0099"/>
<g stroke="#ff0099" stroke-width="1" fill="#ff0099">
<circle cx=" 511" cy=" 446" r=" 1.5"/>
</g>
<path d="M516,446h 5" fill="none" stroke="#ff0099"/>
<path d="M523,446h 4" fill="none" stroke="#ff0099"/>
<g stroke="#ff0099" stroke-width="1" fill="#ff0099">
<circle cx=" 522" cy=" 446" r=" 1.5"/>
</g>
<rect x="357" y="59" width="142" height="99" fill="white"/>
<text x="360" y="82" fill="black" font-size="17" font-family="Helvetica" font-weight="bold">
EE
</text>
<text x="457" y="115" fill="black" font-size="17" font-family="Helvetica" font-weight="bold">
 ee
</text>
<text x="440" y="115" fill="black" font-size="17" font-family="Times">
&#8594;
</text>
<text x="392" y="115" fill="black" font-size="17" font-family="Helvetica" font-weight="bold">
MC Z 
</text>
<path d="M362,109h 25" fill="none" stroke="#ff0099"/>
<g stroke="#ff0099" stroke-width="1" fill="#ff0099">
<circle cx=" 375" cy=" 109" r=" 1.5"/>
</g>
<text x="455" y="147" fill="black" font-size="17" font-family="Helvetica" font-weight="bold">
 + jet
</text>
<text x="447" y="147" fill="black" font-size="17" font-family="Times">
&#0947;
</text>
<text x="392" y="147" fill="black" font-size="17" font-family="Helvetica" font-weight="bold">
signal 
</text>
<path d="M362,154h 25v -24h -25z" fill="#99ff99"/>
<path d="M362,130h 25" fill="none" stroke="#99ff99" stroke-width="2"/>
<path d="M362,154h 25" fill="none" stroke="#99ff99" stroke-width="2"/>
<path d="M387,154v -24" fill="none" stroke="#99ff99" stroke-width="2"/>
<path d="M362,154v -24" fill="none" stroke="#99ff99" stroke-width="2"/>
<text x="300" y="34" fill="black" font-size="17" font-family="Helvetica" font-weight="bold">
=8 TeV
</text>
<text x="291" y="34" fill="black" font-size="17" font-family="Helvetica" font-weight="bold">
s
</text>
<path d="M285,25l 2, 10" fill="none" stroke="black" stroke-width="2"/>
<path d="M287,35l 2, -14" fill="none" stroke="black"/>
<path d="M289,21h 11" fill="none" stroke="black"/>
<text x="142" y="34" fill="black" font-size="17" font-family="Helvetica" font-weight="bold">
CMS Preliminary 
</text></svg>
