<?xml version="1.0" standalone="no"?>
<svg width="567" height="496" viewBox="0 0 567 496" xmlns="http://www.w3.org/2000/svg">
<title>
../src/TagAndProbeZ/plots_mcZee_mcGJet_withEtaR9nvtxReweight/hlt30/pid_pfIsoFPRPhoton03_preselAll.svg
</title>
<desc>
Creator: ROOT Version 5.32/00
CreationDate: Sun Sep 28 11:59:44 2014</desc>
<defs>
</defs>
<rect x="0" y="0" width="567" height="496" fill="white"/>
<rect x="74" y="44" width="453" height="402" fill="white"/>
<rect x="74" y="44" width="453" height="402" fill="none" stroke="black"/>
<rect x="74" y="44" width="453" height="402" fill="white"/>
<rect x="74" y="44" width="453" height="402" fill="none" stroke="black"/>
<path d="M74,64h 2" fill="none" stroke="#ff0099"/>
<path d="M79,64h 2" fill="none" stroke="#ff0099"/>
<g stroke="#ff0099" stroke-width="1" fill="#ff0099">
<circle cx=" 77" cy=" 64" r=" 1.5"/>
</g>
<path d="M81,419h 3" fill="none" stroke="#ff0099"/>
<path d="M86,419h 3" fill="none" stroke="#ff0099"/>
<g stroke="#ff0099" stroke-width="1" fill="#ff0099">
<circle cx=" 85" cy=" 419" r=" 1.5"/>
</g>
<path d="M89,375h 2" fill="none" stroke="#ff0099"/>
<path d="M94,375h 2" fill="none" stroke="#ff0099"/>
<g stroke="#ff0099" stroke-width="1" fill="#ff0099">
<circle cx=" 93" cy=" 375" r=" 1.5"/>
</g>
<path d="M96,369h 3" fill="none" stroke="#ff0099"/>
<path d="M101,369h 3" fill="none" stroke="#ff0099"/>
<g stroke="#ff0099" stroke-width="1" fill="#ff0099">
<circle cx=" 100" cy=" 369" r=" 1.5"/>
</g>
<path d="M104,383h 3" fill="none" stroke="#ff0099"/>
<path d="M109,383h 2" fill="none" stroke="#ff0099"/>
<g stroke="#ff0099" stroke-width="1" fill="#ff0099">
<circle cx=" 108" cy=" 383" r=" 1.5"/>
</g>
<path d="M111,389h 3" fill="none" stroke="#ff0099"/>
<path d="M116,389h 3" fill="none" stroke="#ff0099"/>
<g stroke="#ff0099" stroke-width="1" fill="#ff0099">
<circle cx=" 115" cy=" 389" r=" 1.5"/>
</g>
<path d="M119,393h 3" fill="none" stroke="#ff0099"/>
<path d="M124,393h 3" fill="none" stroke="#ff0099"/>
<g stroke="#ff0099" stroke-width="1" fill="#ff0099">
<circle cx=" 123" cy=" 393" r=" 1.5"/>
</g>
<path d="M127,396h 2" fill="none" stroke="#ff0099"/>
<path d="M132,396h 2" fill="none" stroke="#ff0099"/>
<g stroke="#ff0099" stroke-width="1" fill="#ff0099">
<circle cx=" 130" cy=" 396" r=" 1.5"/>
</g>
<path d="M134,400h 3" fill="none" stroke="#ff0099"/>
<path d="M139,400h 3" fill="none" stroke="#ff0099"/>
<g stroke="#ff0099" stroke-width="1" fill="#ff0099">
<circle cx=" 138" cy=" 400" r=" 1.5"/>
</g>
<path d="M142,404h 2" fill="none" stroke="#ff0099"/>
<path d="M147,404h 2" fill="none" stroke="#ff0099"/>
<g stroke="#ff0099" stroke-width="1" fill="#ff0099">
<circle cx=" 146" cy=" 404" r=" 1.5"/>
</g>
<path d="M149,407h 3" fill="none" stroke="#ff0099"/>
<path d="M154,407h 3" fill="none" stroke="#ff0099"/>
<g stroke="#ff0099" stroke-width="1" fill="#ff0099">
<circle cx=" 153" cy=" 407" r=" 1.5"/>
</g>
<path d="M157,411h 2" fill="none" stroke="#ff0099"/>
<path d="M162,411h 2" fill="none" stroke="#ff0099"/>
<g stroke="#ff0099" stroke-width="1" fill="#ff0099">
<circle cx=" 161" cy=" 411" r=" 1.5"/>
</g>
<path d="M164,414h 3" fill="none" stroke="#ff0099"/>
<path d="M169,414h 3" fill="none" stroke="#ff0099"/>
<g stroke="#ff0099" stroke-width="1" fill="#ff0099">
<circle cx=" 168" cy=" 414" r=" 1.5"/>
</g>
<path d="M172,417h 3" fill="none" stroke="#ff0099"/>
<path d="M177,417h 3" fill="none" stroke="#ff0099"/>
<g stroke="#ff0099" stroke-width="1" fill="#ff0099">
<circle cx=" 176" cy=" 417" r=" 1.5"/>
</g>
<path d="M180,420h 2" fill="none" stroke="#ff0099"/>
<path d="M184,420h 3" fill="none" stroke="#ff0099"/>
<g stroke="#ff0099" stroke-width="1" fill="#ff0099">
<circle cx=" 183" cy=" 420" r=" 1.5"/>
</g>
<path d="M187,422h 3" fill="none" stroke="#ff0099"/>
<path d="M192,422h 3" fill="none" stroke="#ff0099"/>
<g stroke="#ff0099" stroke-width="1" fill="#ff0099">
<circle cx=" 191" cy=" 422" r=" 1.5"/>
</g>
<path d="M195,425h 2" fill="none" stroke="#ff0099"/>
<path d="M200,425h 2" fill="none" stroke="#ff0099"/>
<g stroke="#ff0099" stroke-width="1" fill="#ff0099">
<circle cx=" 198" cy=" 425" r=" 1.5"/>
</g>
<path d="M202,427h 3" fill="none" stroke="#ff0099"/>
<path d="M207,427h 3" fill="none" stroke="#ff0099"/>
<g stroke="#ff0099" stroke-width="1" fill="#ff0099">
<circle cx=" 206" cy=" 427" r=" 1.5"/>
</g>
<path d="M210,429h 2" fill="none" stroke="#ff0099"/>
<path d="M215,429h 2" fill="none" stroke="#ff0099"/>
<g stroke="#ff0099" stroke-width="1" fill="#ff0099">
<circle cx=" 214" cy=" 429" r=" 1.5"/>
</g>
<path d="M217,431h 3" fill="none" stroke="#ff0099"/>
<path d="M222,431h 3" fill="none" stroke="#ff0099"/>
<g stroke="#ff0099" stroke-width="1" fill="#ff0099">
<circle cx=" 221" cy=" 431" r=" 1.5"/>
</g>
<path d="M225,432h 3" fill="none" stroke="#ff0099"/>
<path d="M230,432h 2" fill="none" stroke="#ff0099"/>
<g stroke="#ff0099" stroke-width="1" fill="#ff0099">
<circle cx=" 229" cy=" 432" r=" 1.5"/>
</g>
<path d="M232,434h 3" fill="none" stroke="#ff0099"/>
<path d="M237,434h 3" fill="none" stroke="#ff0099"/>
<g stroke="#ff0099" stroke-width="1" fill="#ff0099">
<circle cx=" 236" cy=" 434" r=" 1.5"/>
</g>
<path d="M240,435h 3" fill="none" stroke="#ff0099"/>
<path d="M245,435h 3" fill="none" stroke="#ff0099"/>
<g stroke="#ff0099" stroke-width="1" fill="#ff0099">
<circle cx=" 244" cy=" 435" r=" 1.5"/>
</g>
<path d="M248,436h 2" fill="none" stroke="#ff0099"/>
<path d="M252,436h 3" fill="none" stroke="#ff0099"/>
<g stroke="#ff0099" stroke-width="1" fill="#ff0099">
<circle cx=" 251" cy=" 436" r=" 1.5"/>
</g>
<path d="M255,437h 3" fill="none" stroke="#ff0099"/>
<path d="M260,437h 3" fill="none" stroke="#ff0099"/>
<g stroke="#ff0099" stroke-width="1" fill="#ff0099">
<circle cx=" 259" cy=" 437" r=" 1.5"/>
</g>
<path d="M263,438h 2" fill="none" stroke="#ff0099"/>
<path d="M268,438h 2" fill="none" stroke="#ff0099"/>
<g stroke="#ff0099" stroke-width="1" fill="#ff0099">
<circle cx=" 266" cy=" 438" r=" 1.5"/>
</g>
<path d="M270,439h 3" fill="none" stroke="#ff0099"/>
<path d="M275,439h 3" fill="none" stroke="#ff0099"/>
<g stroke="#ff0099" stroke-width="1" fill="#ff0099">
<circle cx=" 274" cy=" 439" r=" 1.5"/>
</g>
<path d="M278,440h 2" fill="none" stroke="#ff0099"/>
<path d="M283,440h 2" fill="none" stroke="#ff0099"/>
<g stroke="#ff0099" stroke-width="1" fill="#ff0099">
<circle cx=" 282" cy=" 440" r=" 1.5"/>
</g>
<path d="M285,441h 3" fill="none" stroke="#ff0099"/>
<path d="M290,441h 3" fill="none" stroke="#ff0099"/>
<g stroke="#ff0099" stroke-width="1" fill="#ff0099">
<circle cx=" 289" cy=" 441" r=" 1.5"/>
</g>
<path d="M293,441h 3" fill="none" stroke="#ff0099"/>
<path d="M298,441h 2" fill="none" stroke="#ff0099"/>
<g stroke="#ff0099" stroke-width="1" fill="#ff0099">
<circle cx=" 297" cy=" 441" r=" 1.5"/>
</g>
<path d="M300,442h 3" fill="none" stroke="#ff0099"/>
<path d="M305,442h 3" fill="none" stroke="#ff0099"/>
<g stroke="#ff0099" stroke-width="1" fill="#ff0099">
<circle cx=" 304" cy=" 442" r=" 1.5"/>
</g>
<path d="M308,442h 3" fill="none" stroke="#ff0099"/>
<path d="M313,442h 3" fill="none" stroke="#ff0099"/>
<g stroke="#ff0099" stroke-width="1" fill="#ff0099">
<circle cx=" 312" cy=" 442" r=" 1.5"/>
</g>
<path d="M316,442h 2" fill="none" stroke="#ff0099"/>
<path d="M321,442h 2" fill="none" stroke="#ff0099"/>
<g stroke="#ff0099" stroke-width="1" fill="#ff0099">
<circle cx=" 319" cy=" 442" r=" 1.5"/>
</g>
<path d="M323,443h 3" fill="none" stroke="#ff0099"/>
<path d="M328,443h 3" fill="none" stroke="#ff0099"/>
<g stroke="#ff0099" stroke-width="1" fill="#ff0099">
<circle cx=" 327" cy=" 443" r=" 1.5"/>
</g>
<path d="M331,443h 2" fill="none" stroke="#ff0099"/>
<path d="M336,443h 2" fill="none" stroke="#ff0099"/>
<g stroke="#ff0099" stroke-width="1" fill="#ff0099">
<circle cx=" 334" cy=" 443" r=" 1.5"/>
</g>
<path d="M338,444h 3" fill="none" stroke="#ff0099"/>
<path d="M343,444h 3" fill="none" stroke="#ff0099"/>
<g stroke="#ff0099" stroke-width="1" fill="#ff0099">
<circle cx=" 342" cy=" 444" r=" 1.5"/>
</g>
<path d="M346,444h 2" fill="none" stroke="#ff0099"/>
<path d="M351,444h 2" fill="none" stroke="#ff0099"/>
<g stroke="#ff0099" stroke-width="1" fill="#ff0099">
<circle cx=" 350" cy=" 444" r=" 1.5"/>
</g>
<path d="M353,444h 3" fill="none" stroke="#ff0099"/>
<path d="M358,444h 3" fill="none" stroke="#ff0099"/>
<g stroke="#ff0099" stroke-width="1" fill="#ff0099">
<circle cx=" 357" cy=" 444" r=" 1.5"/>
</g>
<path d="M361,444h 3" fill="none" stroke="#ff0099"/>
<path d="M366,444h 3" fill="none" stroke="#ff0099"/>
<g stroke="#ff0099" stroke-width="1" fill="#ff0099">
<circle cx=" 365" cy=" 444" r=" 1.5"/>
</g>
<path d="M369,444h 2" fill="none" stroke="#ff0099"/>
<path d="M373,444h 3" fill="none" stroke="#ff0099"/>
<g stroke="#ff0099" stroke-width="1" fill="#ff0099">
<circle cx=" 372" cy=" 444" r=" 1.5"/>
</g>
<path d="M376,445h 3" fill="none" stroke="#ff0099"/>
<path d="M381,445h 3" fill="none" stroke="#ff0099"/>
<g stroke="#ff0099" stroke-width="1" fill="#ff0099">
<circle cx=" 380" cy=" 445" r=" 1.5"/>
</g>
<path d="M384,445h 2" fill="none" stroke="#ff0099"/>
<path d="M389,445h 2" fill="none" stroke="#ff0099"/>
<g stroke="#ff0099" stroke-width="1" fill="#ff0099">
<circle cx=" 387" cy=" 445" r=" 1.5"/>
</g>
<path d="M391,445h 3" fill="none" stroke="#ff0099"/>
<path d="M396,445h 3" fill="none" stroke="#ff0099"/>
<g stroke="#ff0099" stroke-width="1" fill="#ff0099">
<circle cx=" 395" cy=" 445" r=" 1.5"/>
</g>
<path d="M399,445h 2" fill="none" stroke="#ff0099"/>
<path d="M404,445h 2" fill="none" stroke="#ff0099"/>
<g stroke="#ff0099" stroke-width="1" fill="#ff0099">
<circle cx=" 403" cy=" 445" r=" 1.5"/>
</g>
<path d="M406,445h 3" fill="none" stroke="#ff0099"/>
<path d="M411,445h 3" fill="none" stroke="#ff0099"/>
<g stroke="#ff0099" stroke-width="1" fill="#ff0099">
<circle cx=" 410" cy=" 445" r=" 1.5"/>
</g>
<path d="M414,445h 2" fill="none" stroke="#ff0099"/>
<path d="M419,445h 2" fill="none" stroke="#ff0099"/>
<g stroke="#ff0099" stroke-width="1" fill="#ff0099">
<circle cx=" 418" cy=" 445" r=" 1.5"/>
</g>
<path d="M421,445h 3" fill="none" stroke="#ff0099"/>
<path d="M426,445h 3" fill="none" stroke="#ff0099"/>
<g stroke="#ff0099" stroke-width="1" fill="#ff0099">
<circle cx=" 425" cy=" 445" r=" 1.5"/>
</g>
<path d="M429,445h 3" fill="none" stroke="#ff0099"/>
<path d="M434,445h 3" fill="none" stroke="#ff0099"/>
<g stroke="#ff0099" stroke-width="1" fill="#ff0099">
<circle cx=" 433" cy=" 445" r=" 1.5"/>
</g>
<path d="M437,446h 2" fill="none" stroke="#ff0099"/>
<path d="M441,446h 3" fill="none" stroke="#ff0099"/>
<g stroke="#ff0099" stroke-width="1" fill="#ff0099">
<circle cx=" 440" cy=" 446" r=" 1.5"/>
</g>
<path d="M444,446h 3" fill="none" stroke="#ff0099"/>
<path d="M449,446h 3" fill="none" stroke="#ff0099"/>
<g stroke="#ff0099" stroke-width="1" fill="#ff0099">
<circle cx=" 448" cy=" 446" r=" 1.5"/>
</g>
<path d="M452,446h 2" fill="none" stroke="#ff0099"/>
<path d="M457,446h 2" fill="none" stroke="#ff0099"/>
<g stroke="#ff0099" stroke-width="1" fill="#ff0099">
<circle cx=" 455" cy=" 446" r=" 1.5"/>
</g>
<path d="M459,446h 3" fill="none" stroke="#ff0099"/>
<path d="M464,446h 3" fill="none" stroke="#ff0099"/>
<g stroke="#ff0099" stroke-width="1" fill="#ff0099">
<circle cx=" 463" cy=" 446" r=" 1.5"/>
</g>
<path d="M467,446h 2" fill="none" stroke="#ff0099"/>
<path d="M472,446h 2" fill="none" stroke="#ff0099"/>
<g stroke="#ff0099" stroke-width="1" fill="#ff0099">
<circle cx=" 471" cy=" 446" r=" 1.5"/>
</g>
<path d="M474,446h 3" fill="none" stroke="#ff0099"/>
<path d="M479,446h 3" fill="none" stroke="#ff0099"/>
<g stroke="#ff0099" stroke-width="1" fill="#ff0099">
<circle cx=" 478" cy=" 446" r=" 1.5"/>
</g>
<path d="M482,446h 3" fill="none" stroke="#ff0099"/>
<path d="M487,446h 2" fill="none" stroke="#ff0099"/>
<g stroke="#ff0099" stroke-width="1" fill="#ff0099">
<circle cx=" 486" cy=" 446" r=" 1.5"/>
</g>
<path d="M489,446h 3" fill="none" stroke="#ff0099"/>
<path d="M494,446h 3" fill="none" stroke="#ff0099"/>
<g stroke="#ff0099" stroke-width="1" fill="#ff0099">
<circle cx=" 493" cy=" 446" r=" 1.5"/>
</g>
<path d="M497,446h 3" fill="none" stroke="#ff0099"/>
<path d="M502,446h 3" fill="none" stroke="#ff0099"/>
<g stroke="#ff0099" stroke-width="1" fill="#ff0099">
<circle cx=" 501" cy=" 446" r=" 1.5"/>
</g>
<path d="M505,446h 2" fill="none" stroke="#ff0099"/>
<path d="M509,446h 3" fill="none" stroke="#ff0099"/>
<g stroke="#ff0099" stroke-width="1" fill="#ff0099">
<circle cx=" 508" cy=" 446" r=" 1.5"/>
</g>
<path d="M512,446h 3" fill="none" stroke="#ff0099"/>
<path d="M517,446h 3" fill="none" stroke="#ff0099"/>
<g stroke="#ff0099" stroke-width="1" fill="#ff0099">
<circle cx=" 516" cy=" 446" r=" 1.5"/>
</g>
<path d="M520,446h 2" fill="none" stroke="#ff0099"/>
<path d="M525,446h 2" fill="none" stroke="#ff0099"/>
<g stroke="#ff0099" stroke-width="1" fill="#ff0099">
<circle cx=" 523" cy=" 446" r=" 1.5"/>
</g>
<path d="M74,446h 453" fill="none" stroke="black"/>
<path d="M74,434v 12" fill="none" stroke="black"/>
<path d="M89,440v 6" fill="none" stroke="black"/>
<path d="M104,440v 6" fill="none" stroke="black"/>
<path d="M119,440v 6" fill="none" stroke="black"/>
<path d="M134,440v 6" fill="none" stroke="black"/>
<path d="M149,434v 12" fill="none" stroke="black"/>
<path d="M164,440v 6" fill="none" stroke="black"/>
<path d="M180,440v 6" fill="none" stroke="black"/>
<path d="M195,440v 6" fill="none" stroke="black"/>
<path d="M210,440v 6" fill="none" stroke="black"/>
<path d="M225,434v 12" fill="none" stroke="black"/>
<path d="M240,440v 6" fill="none" stroke="black"/>
<path d="M255,440v 6" fill="none" stroke="black"/>
<path d="M270,440v 6" fill="none" stroke="black"/>
<path d="M285,440v 6" fill="none" stroke="black"/>
<path d="M300,434v 12" fill="none" stroke="black"/>
<path d="M316,440v 6" fill="none" stroke="black"/>
<path d="M331,440v 6" fill="none" stroke="black"/>
<path d="M346,440v 6" fill="none" stroke="black"/>
<path d="M361,440v 6" fill="none" stroke="black"/>
<path d="M376,434v 12" fill="none" stroke="black"/>
<path d="M391,440v 6" fill="none" stroke="black"/>
<path d="M406,440v 6" fill="none" stroke="black"/>
<path d="M421,440v 6" fill="none" stroke="black"/>
<path d="M437,440v 6" fill="none" stroke="black"/>
<path d="M452,434v 12" fill="none" stroke="black"/>
<path d="M467,440v 6" fill="none" stroke="black"/>
<path d="M482,440v 6" fill="none" stroke="black"/>
<path d="M497,440v 6" fill="none" stroke="black"/>
<path d="M512,440v 6" fill="none" stroke="black"/>
<path d="M527,434v 12" fill="none" stroke="black"/>
<text x="68" y="465" fill="black" font-size="18" font-family="Helvetica" font-weight="bold">
0
</text>
<text x="145" y="465" fill="black" font-size="18" font-family="Helvetica" font-weight="bold">
1
</text>
<text x="220" y="465" fill="black" font-size="18" font-family="Helvetica" font-weight="bold">
2
</text>
<text x="295" y="465" fill="black" font-size="18" font-family="Helvetica" font-weight="bold">
3
</text>
<text x="371" y="465" fill="black" font-size="18" font-family="Helvetica" font-weight="bold">
4
</text>
<text x="446" y="465" fill="black" font-size="18" font-family="Helvetica" font-weight="bold">
5
</text>
<text x="522" y="465" fill="black" font-size="18" font-family="Helvetica" font-weight="bold">
6
</text>
<path d="M74,44h 453" fill="none" stroke="black"/>
<path d="M74,56v -12" fill="none" stroke="black"/>
<path d="M89,50v -6" fill="none" stroke="black"/>
<path d="M104,50v -6" fill="none" stroke="black"/>
<path d="M119,50v -6" fill="none" stroke="black"/>
<path d="M134,50v -6" fill="none" stroke="black"/>
<path d="M149,56v -12" fill="none" stroke="black"/>
<path d="M164,50v -6" fill="none" stroke="black"/>
<path d="M180,50v -6" fill="none" stroke="black"/>
<path d="M195,50v -6" fill="none" stroke="black"/>
<path d="M210,50v -6" fill="none" stroke="black"/>
<path d="M225,56v -12" fill="none" stroke="black"/>
<path d="M240,50v -6" fill="none" stroke="black"/>
<path d="M255,50v -6" fill="none" stroke="black"/>
<path d="M270,50v -6" fill="none" stroke="black"/>
<path d="M285,50v -6" fill="none" stroke="black"/>
<path d="M300,56v -12" fill="none" stroke="black"/>
<path d="M316,50v -6" fill="none" stroke="black"/>
<path d="M331,50v -6" fill="none" stroke="black"/>
<path d="M346,50v -6" fill="none" stroke="black"/>
<path d="M361,50v -6" fill="none" stroke="black"/>
<path d="M376,56v -12" fill="none" stroke="black"/>
<path d="M391,50v -6" fill="none" stroke="black"/>
<path d="M406,50v -6" fill="none" stroke="black"/>
<path d="M421,50v -6" fill="none" stroke="black"/>
<path d="M437,50v -6" fill="none" stroke="black"/>
<path d="M452,56v -12" fill="none" stroke="black"/>
<path d="M467,50v -6" fill="none" stroke="black"/>
<path d="M482,50v -6" fill="none" stroke="black"/>
<path d="M497,50v -6" fill="none" stroke="black"/>
<path d="M512,50v -6" fill="none" stroke="black"/>
<path d="M527,56v -12" fill="none" stroke="black"/>
<path d="M74,446v -402" fill="none" stroke="black"/>
<path d="M87,446h -13" fill="none" stroke="black"/>
<path d="M81,434h -7" fill="none" stroke="black"/>
<path d="M81,421h -7" fill="none" stroke="black"/>
<path d="M81,408h -7" fill="none" stroke="black"/>
<path d="M81,396h -7" fill="none" stroke="black"/>
<path d="M87,383h -13" fill="none" stroke="black"/>
<path d="M81,370h -7" fill="none" stroke="black"/>
<path d="M81,357h -7" fill="none" stroke="black"/>
<path d="M81,345h -7" fill="none" stroke="black"/>
<path d="M81,332h -7" fill="none" stroke="black"/>
<path d="M87,319h -13" fill="none" stroke="black"/>
<path d="M81,307h -7" fill="none" stroke="black"/>
<path d="M81,294h -7" fill="none" stroke="black"/>
<path d="M81,281h -7" fill="none" stroke="black"/>
<path d="M81,268h -7" fill="none" stroke="black"/>
<path d="M87,256h -13" fill="none" stroke="black"/>
<path d="M81,243h -7" fill="none" stroke="black"/>
<path d="M81,230h -7" fill="none" stroke="black"/>
<path d="M81,218h -7" fill="none" stroke="black"/>
<path d="M81,205h -7" fill="none" stroke="black"/>
<path d="M87,192h -13" fill="none" stroke="black"/>
<path d="M81,179h -7" fill="none" stroke="black"/>
<path d="M81,167h -7" fill="none" stroke="black"/>
<path d="M81,154h -7" fill="none" stroke="black"/>
<path d="M81,141h -7" fill="none" stroke="black"/>
<path d="M87,129h -13" fill="none" stroke="black"/>
<path d="M81,116h -7" fill="none" stroke="black"/>
<path d="M81,103h -7" fill="none" stroke="black"/>
<path d="M81,90h -7" fill="none" stroke="black"/>
<path d="M81,78h -7" fill="none" stroke="black"/>
<path d="M87,65h -13" fill="none" stroke="black"/>
<path d="M87,65h -13" fill="none" stroke="black"/>
<path d="M81,52h -7" fill="none" stroke="black"/>
<text x="61" y="453" fill="black" font-size="18" font-family="Helvetica" font-weight="bold">
0
</text>
<text x="34" y="390" fill="black" font-size="18" font-family="Helvetica" font-weight="bold">
0.05
</text>
<text x="47" y="326" fill="black" font-size="18" font-family="Helvetica" font-weight="bold">
0.1
</text>
<text x="34" y="262" fill="black" font-size="18" font-family="Helvetica" font-weight="bold">
0.15
</text>
<text x="45" y="199" fill="black" font-size="18" font-family="Helvetica" font-weight="bold">
0.2
</text>
<text x="34" y="135" fill="black" font-size="18" font-family="Helvetica" font-weight="bold">
0.25
</text>
<text x="45" y="71" fill="black" font-size="18" font-family="Helvetica" font-weight="bold">
0.3
</text>
<path d="M85,419v -1" fill="none" stroke="#99ff99" stroke-width="2"/>
<path d="M85,418" fill="none" stroke="#99ff99" stroke-width="2"/>
<g stroke="black" stroke-width="2" fill="none">
<line x1="84" y1="418" x2="85" y2="418"/>
</g>
<path d="M93,383v -1" fill="none" stroke="#99ff99" stroke-width="2"/>
<path d="M93,382" fill="none" stroke="#99ff99" stroke-width="2"/>
<g stroke="black" stroke-width="2" fill="none">
<line x1="92" y1="382" x2="93" y2="382"/>
</g>
<path d="M100,374" fill="none" stroke="#99ff99" stroke-width="2"/>
<path d="M100,374v -1" fill="none" stroke="#99ff99" stroke-width="2"/>
<g stroke="black" stroke-width="2" fill="none">
<line x1="99" y1="374" x2="100" y2="374"/>
</g>
<path d="M108,389v -1" fill="none" stroke="#99ff99" stroke-width="2"/>
<path d="M108,388" fill="none" stroke="#99ff99" stroke-width="2"/>
<g stroke="black" stroke-width="2" fill="none">
<line x1="107" y1="388" x2="108" y2="388"/>
</g>
<path d="M115,395v -1" fill="none" stroke="#99ff99" stroke-width="2"/>
<path d="M115,394v -1" fill="none" stroke="#99ff99" stroke-width="2"/>
<g stroke="black" stroke-width="2" fill="none">
<line x1="114" y1="394" x2="115" y2="394"/>
</g>
<path d="M123,397v -1" fill="none" stroke="#99ff99" stroke-width="2"/>
<path d="M123,396v -1" fill="none" stroke="#99ff99" stroke-width="2"/>
<g stroke="black" stroke-width="2" fill="none">
<line x1="122" y1="396" x2="123" y2="396"/>
</g>
<path d="M130,399v -1" fill="none" stroke="#99ff99" stroke-width="2"/>
<path d="M130,398" fill="none" stroke="#99ff99" stroke-width="2"/>
<g stroke="black" stroke-width="2" fill="none">
<line x1="129" y1="398" x2="130" y2="398"/>
</g>
<path d="M138,404v -1" fill="none" stroke="#99ff99" stroke-width="2"/>
<path d="M138,403" fill="none" stroke="#99ff99" stroke-width="2"/>
<g stroke="black" stroke-width="2" fill="none">
<line x1="137" y1="403" x2="138" y2="403"/>
</g>
<path d="M146,407v -1" fill="none" stroke="#99ff99" stroke-width="2"/>
<path d="M146,406" fill="none" stroke="#99ff99" stroke-width="2"/>
<g stroke="black" stroke-width="2" fill="none">
<line x1="145" y1="406" x2="146" y2="406"/>
</g>
<path d="M153,410v -1" fill="none" stroke="#99ff99" stroke-width="2"/>
<path d="M153,409" fill="none" stroke="#99ff99" stroke-width="2"/>
<g stroke="black" stroke-width="2" fill="none">
<line x1="152" y1="409" x2="153" y2="409"/>
</g>
<path d="M161,414v -1" fill="none" stroke="#99ff99" stroke-width="2"/>
<path d="M161,413" fill="none" stroke="#99ff99" stroke-width="2"/>
<g stroke="black" stroke-width="2" fill="none">
<line x1="160" y1="413" x2="161" y2="413"/>
</g>
<path d="M168,416" fill="none" stroke="#99ff99" stroke-width="2"/>
<path d="M168,416v -1" fill="none" stroke="#99ff99" stroke-width="2"/>
<g stroke="black" stroke-width="2" fill="none">
<line x1="167" y1="416" x2="168" y2="416"/>
</g>
<path d="M176,419" fill="none" stroke="#99ff99" stroke-width="2"/>
<path d="M176,419v -1" fill="none" stroke="#99ff99" stroke-width="2"/>
<g stroke="black" stroke-width="2" fill="none">
<line x1="175" y1="419" x2="176" y2="419"/>
</g>
<path d="M183,421" fill="none" stroke="#99ff99" stroke-width="2"/>
<path d="M183,421v -1" fill="none" stroke="#99ff99" stroke-width="2"/>
<g stroke="black" stroke-width="2" fill="none">
<line x1="182" y1="421" x2="183" y2="421"/>
</g>
<path d="M191,424" fill="none" stroke="#99ff99" stroke-width="2"/>
<path d="M191,424v -1" fill="none" stroke="#99ff99" stroke-width="2"/>
<g stroke="black" stroke-width="2" fill="none">
<line x1="190" y1="424" x2="191" y2="424"/>
</g>
<path d="M198,426" fill="none" stroke="#99ff99" stroke-width="2"/>
<path d="M198,426v -1" fill="none" stroke="#99ff99" stroke-width="2"/>
<g stroke="black" stroke-width="2" fill="none">
<line x1="197" y1="426" x2="198" y2="426"/>
</g>
<path d="M206,428v -1" fill="none" stroke="#99ff99" stroke-width="2"/>
<path d="M206,427" fill="none" stroke="#99ff99" stroke-width="2"/>
<g stroke="black" stroke-width="2" fill="none">
<line x1="205" y1="427" x2="206" y2="427"/>
</g>
<path d="M214,430v -1" fill="none" stroke="#99ff99" stroke-width="2"/>
<path d="M214,429" fill="none" stroke="#99ff99" stroke-width="2"/>
<g stroke="black" stroke-width="2" fill="none">
<line x1="213" y1="429" x2="214" y2="429"/>
</g>
<path d="M221,431" fill="none" stroke="#99ff99" stroke-width="2"/>
<path d="M221,431v -1" fill="none" stroke="#99ff99" stroke-width="2"/>
<g stroke="black" stroke-width="2" fill="none">
<line x1="220" y1="431" x2="221" y2="431"/>
</g>
<path d="M229,433v -1" fill="none" stroke="#99ff99" stroke-width="2"/>
<path d="M229,432" fill="none" stroke="#99ff99" stroke-width="2"/>
<g stroke="black" stroke-width="2" fill="none">
<line x1="228" y1="432" x2="229" y2="432"/>
</g>
<path d="M236,434v -1" fill="none" stroke="#99ff99" stroke-width="2"/>
<path d="M236,433" fill="none" stroke="#99ff99" stroke-width="2"/>
<g stroke="black" stroke-width="2" fill="none">
<line x1="235" y1="433" x2="236" y2="433"/>
</g>
<path d="M244,435" fill="none" stroke="#99ff99" stroke-width="2"/>
<path d="M244,435v -1" fill="none" stroke="#99ff99" stroke-width="2"/>
<g stroke="black" stroke-width="2" fill="none">
<line x1="243" y1="435" x2="244" y2="435"/>
</g>
<path d="M251,437v -1" fill="none" stroke="#99ff99" stroke-width="2"/>
<path d="M251,436" fill="none" stroke="#99ff99" stroke-width="2"/>
<g stroke="black" stroke-width="2" fill="none">
<line x1="250" y1="436" x2="251" y2="436"/>
</g>
<path d="M259,437" fill="none" stroke="#99ff99" stroke-width="2"/>
<path d="M259,437" fill="none" stroke="#99ff99" stroke-width="2"/>
<g stroke="black" stroke-width="2" fill="none">
<line x1="258" y1="437" x2="259" y2="437"/>
</g>
<path d="M266,438v -1" fill="none" stroke="#99ff99" stroke-width="2"/>
<path d="M266,437" fill="none" stroke="#99ff99" stroke-width="2"/>
<g stroke="black" stroke-width="2" fill="none">
<line x1="265" y1="437" x2="266" y2="437"/>
</g>
<path d="M274,439" fill="none" stroke="#99ff99" stroke-width="2"/>
<path d="M274,439" fill="none" stroke="#99ff99" stroke-width="2"/>
<g stroke="black" stroke-width="2" fill="none">
<line x1="273" y1="439" x2="274" y2="439"/>
</g>
<path d="M282,440v -1" fill="none" stroke="#99ff99" stroke-width="2"/>
<path d="M282,439" fill="none" stroke="#99ff99" stroke-width="2"/>
<g stroke="black" stroke-width="2" fill="none">
<line x1="281" y1="439" x2="282" y2="439"/>
</g>
<path d="M289,440" fill="none" stroke="#99ff99" stroke-width="2"/>
<path d="M289,440" fill="none" stroke="#99ff99" stroke-width="2"/>
<g stroke="black" stroke-width="2" fill="none">
<line x1="288" y1="440" x2="289" y2="440"/>
</g>
<path d="M297,441" fill="none" stroke="#99ff99" stroke-width="2"/>
<path d="M297,441v -1" fill="none" stroke="#99ff99" stroke-width="2"/>
<g stroke="black" stroke-width="2" fill="none">
<line x1="296" y1="441" x2="297" y2="441"/>
</g>
<path d="M304,442v -1" fill="none" stroke="#99ff99" stroke-width="2"/>
<path d="M304,441" fill="none" stroke="#99ff99" stroke-width="2"/>
<g stroke="black" stroke-width="2" fill="none">
<line x1="303" y1="441" x2="304" y2="441"/>
</g>
<path d="M312,442" fill="none" stroke="#99ff99" stroke-width="2"/>
<path d="M312,442v -1" fill="none" stroke="#99ff99" stroke-width="2"/>
<g stroke="black" stroke-width="2" fill="none">
<line x1="311" y1="442" x2="312" y2="442"/>
</g>
<path d="M319,442" fill="none" stroke="#99ff99" stroke-width="2"/>
<path d="M319,442" fill="none" stroke="#99ff99" stroke-width="2"/>
<g stroke="black" stroke-width="2" fill="none">
<line x1="318" y1="442" x2="319" y2="442"/>
</g>
<path d="M327,442" fill="none" stroke="#99ff99" stroke-width="2"/>
<path d="M327,442" fill="none" stroke="#99ff99" stroke-width="2"/>
<g stroke="black" stroke-width="2" fill="none">
<line x1="326" y1="442" x2="327" y2="442"/>
</g>
<path d="M334,443" fill="none" stroke="#99ff99" stroke-width="2"/>
<path d="M334,443v -1" fill="none" stroke="#99ff99" stroke-width="2"/>
<g stroke="black" stroke-width="2" fill="none">
<line x1="333" y1="443" x2="334" y2="443"/>
</g>
<path d="M342,444v -1" fill="none" stroke="#99ff99" stroke-width="2"/>
<path d="M342,443" fill="none" stroke="#99ff99" stroke-width="2"/>
<g stroke="black" stroke-width="2" fill="none">
<line x1="341" y1="443" x2="342" y2="443"/>
</g>
<path d="M350,444v -1" fill="none" stroke="#99ff99" stroke-width="2"/>
<path d="M350,443" fill="none" stroke="#99ff99" stroke-width="2"/>
<g stroke="black" stroke-width="2" fill="none">
<line x1="349" y1="443" x2="350" y2="443"/>
</g>
<path d="M357,444" fill="none" stroke="#99ff99" stroke-width="2"/>
<path d="M357,444" fill="none" stroke="#99ff99" stroke-width="2"/>
<g stroke="black" stroke-width="2" fill="none">
<line x1="356" y1="444" x2="357" y2="444"/>
</g>
<path d="M365,444" fill="none" stroke="#99ff99" stroke-width="2"/>
<path d="M365,444" fill="none" stroke="#99ff99" stroke-width="2"/>
<g stroke="black" stroke-width="2" fill="none">
<line x1="364" y1="444" x2="365" y2="444"/>
</g>
<path d="M372,444" fill="none" stroke="#99ff99" stroke-width="2"/>
<path d="M372,444" fill="none" stroke="#99ff99" stroke-width="2"/>
<g stroke="black" stroke-width="2" fill="none">
<line x1="371" y1="444" x2="372" y2="444"/>
</g>
<path d="M380,445v -1" fill="none" stroke="#99ff99" stroke-width="2"/>
<path d="M380,444" fill="none" stroke="#99ff99" stroke-width="2"/>
<g stroke="black" stroke-width="2" fill="none">
<line x1="379" y1="444" x2="380" y2="444"/>
</g>
<path d="M387,445" fill="none" stroke="#99ff99" stroke-width="2"/>
<path d="M387,445" fill="none" stroke="#99ff99" stroke-width="2"/>
<g stroke="black" stroke-width="2" fill="none">
<line x1="386" y1="445" x2="387" y2="445"/>
</g>
<path d="M395,445" fill="none" stroke="#99ff99" stroke-width="2"/>
<path d="M395,445v -1" fill="none" stroke="#99ff99" stroke-width="2"/>
<g stroke="black" stroke-width="2" fill="none">
<line x1="394" y1="445" x2="395" y2="445"/>
</g>
<path d="M403,445" fill="none" stroke="#99ff99" stroke-width="2"/>
<path d="M403,445" fill="none" stroke="#99ff99" stroke-width="2"/>
<g stroke="black" stroke-width="2" fill="none">
<line x1="402" y1="445" x2="403" y2="445"/>
</g>
<path d="M410,445" fill="none" stroke="#99ff99" stroke-width="2"/>
<path d="M410,445" fill="none" stroke="#99ff99" stroke-width="2"/>
<g stroke="black" stroke-width="2" fill="none">
<line x1="409" y1="445" x2="410" y2="445"/>
</g>
<path d="M418,445" fill="none" stroke="#99ff99" stroke-width="2"/>
<path d="M418,445" fill="none" stroke="#99ff99" stroke-width="2"/>
<g stroke="black" stroke-width="2" fill="none">
<line x1="417" y1="445" x2="418" y2="445"/>
</g>
<path d="M425,445" fill="none" stroke="#99ff99" stroke-width="2"/>
<path d="M425,445" fill="none" stroke="#99ff99" stroke-width="2"/>
<g stroke="black" stroke-width="2" fill="none">
<line x1="424" y1="445" x2="425" y2="445"/>
</g>
<path d="M433,445" fill="none" stroke="#99ff99" stroke-width="2"/>
<path d="M433,445" fill="none" stroke="#99ff99" stroke-width="2"/>
<g stroke="black" stroke-width="2" fill="none">
<line x1="432" y1="445" x2="433" y2="445"/>
</g>
<path d="M440,446v -1" fill="none" stroke="#99ff99" stroke-width="2"/>
<path d="M440,445" fill="none" stroke="#99ff99" stroke-width="2"/>
<g stroke="black" stroke-width="2" fill="none">
<line x1="439" y1="445" x2="440" y2="445"/>
</g>
<path d="M448,446v -1" fill="none" stroke="#99ff99" stroke-width="2"/>
<path d="M448,445" fill="none" stroke="#99ff99" stroke-width="2"/>
<g stroke="black" stroke-width="2" fill="none">
<line x1="447" y1="445" x2="448" y2="445"/>
</g>
<path d="M455,446v -1" fill="none" stroke="#99ff99" stroke-width="2"/>
<path d="M455,445" fill="none" stroke="#99ff99" stroke-width="2"/>
<g stroke="black" stroke-width="2" fill="none">
<line x1="454" y1="445" x2="455" y2="445"/>
</g>
<path d="M463,446" fill="none" stroke="#99ff99" stroke-width="2"/>
<path d="M463,446" fill="none" stroke="#99ff99" stroke-width="2"/>
<g stroke="black" stroke-width="2" fill="none">
<line x1="462" y1="446" x2="463" y2="446"/>
</g>
<path d="M471,446" fill="none" stroke="#99ff99" stroke-width="2"/>
<path d="M471,446v -1" fill="none" stroke="#99ff99" stroke-width="2"/>
<g stroke="black" stroke-width="2" fill="none">
<line x1="470" y1="446" x2="471" y2="446"/>
</g>
<path d="M478,446" fill="none" stroke="#99ff99" stroke-width="2"/>
<path d="M478,446" fill="none" stroke="#99ff99" stroke-width="2"/>
<g stroke="black" stroke-width="2" fill="none">
<line x1="477" y1="446" x2="478" y2="446"/>
</g>
<path d="M486,446" fill="none" stroke="#99ff99" stroke-width="2"/>
<path d="M486,446" fill="none" stroke="#99ff99" stroke-width="2"/>
<g stroke="black" stroke-width="2" fill="none">
<line x1="485" y1="446" x2="486" y2="446"/>
</g>
<path d="M493,446" fill="none" stroke="#99ff99" stroke-width="2"/>
<path d="M493,446" fill="none" stroke="#99ff99" stroke-width="2"/>
<g stroke="black" stroke-width="2" fill="none">
<line x1="492" y1="446" x2="493" y2="446"/>
</g>
<path d="M501,446" fill="none" stroke="#99ff99" stroke-width="2"/>
<path d="M501,446" fill="none" stroke="#99ff99" stroke-width="2"/>
<g stroke="black" stroke-width="2" fill="none">
<line x1="500" y1="446" x2="501" y2="446"/>
</g>
<path d="M508,446" fill="none" stroke="#99ff99" stroke-width="2"/>
<path d="M508,446" fill="none" stroke="#99ff99" stroke-width="2"/>
<g stroke="black" stroke-width="2" fill="none">
<line x1="507" y1="446" x2="508" y2="446"/>
</g>
<path d="M516,446" fill="none" stroke="#99ff99" stroke-width="2"/>
<path d="M516,446" fill="none" stroke="#99ff99" stroke-width="2"/>
<g stroke="black" stroke-width="2" fill="none">
<line x1="515" y1="446" x2="516" y2="446"/>
</g>
<path d="M523,446" fill="none" stroke="#99ff99" stroke-width="2"/>
<path d="M523,446" fill="none" stroke="#99ff99" stroke-width="2"/>
<g stroke="black" stroke-width="2" fill="none">
<line x1="522" y1="446" x2="523" y2="446"/>
</g>
<path d="M74,446v -402h 7v 374h 8v -36h 7v -8h 8v 14h 7v 6h 8v 2h 8v 2h 7v 5h 8v 3h 7v 3h 8v 4h 7v 3h 8v 3h 8v 2h 7v 3h 8v 2h 7v 1h 8v 2h 7v 2h 8v 1h 7v 1h 8v 2h 8v 1h 7v 1h 15v 2h 15v 1h 8v 1h 15v 1h 23v 1h 22v 1h 31v 1h 75v 1h 68z" fill="#99ff99"/>
<path d="M81,44v 374" fill="none" stroke="#99ff99" stroke-width="2"/>
<path d="M81,418h 8v -36h 7v -8h 8v 14h 7v 6h 8v 2h 8v 2h 7v 5h 8v 3h 7v 3h 8v 4h 7v 3h 8v 3h 8v 2h 7v 3h 8v 2h 7v 1h 8v 2h 7v 2h 8v 1h 7v 1h 8v 2h 8v 1h 7v 1h 15v 2h 15v 1h 8v 1h 15v 1h 23v 1h 22v 1h 31v 1h 75v 1h 68" fill="none" stroke="#99ff99"
 stroke-width="2"/>
<path d="M74,64h 2" fill="none" stroke="#ff0099"/>
<path d="M79,64h 2" fill="none" stroke="#ff0099"/>
<g stroke="#ff0099" stroke-width="1" fill="#ff0099">
<circle cx=" 77" cy=" 64" r=" 1.5"/>
</g>
<path d="M81,419h 3" fill="none" stroke="#ff0099"/>
<path d="M86,419h 3" fill="none" stroke="#ff0099"/>
<g stroke="#ff0099" stroke-width="1" fill="#ff0099">
<circle cx=" 85" cy=" 419" r=" 1.5"/>
</g>
<path d="M89,375h 2" fill="none" stroke="#ff0099"/>
<path d="M94,375h 2" fill="none" stroke="#ff0099"/>
<g stroke="#ff0099" stroke-width="1" fill="#ff0099">
<circle cx=" 93" cy=" 375" r=" 1.5"/>
</g>
<path d="M96,369h 3" fill="none" stroke="#ff0099"/>
<path d="M101,369h 3" fill="none" stroke="#ff0099"/>
<g stroke="#ff0099" stroke-width="1" fill="#ff0099">
<circle cx=" 100" cy=" 369" r=" 1.5"/>
</g>
<path d="M104,383h 3" fill="none" stroke="#ff0099"/>
<path d="M109,383h 2" fill="none" stroke="#ff0099"/>
<g stroke="#ff0099" stroke-width="1" fill="#ff0099">
<circle cx=" 108" cy=" 383" r=" 1.5"/>
</g>
<path d="M111,389h 3" fill="none" stroke="#ff0099"/>
<path d="M116,389h 3" fill="none" stroke="#ff0099"/>
<g stroke="#ff0099" stroke-width="1" fill="#ff0099">
<circle cx=" 115" cy=" 389" r=" 1.5"/>
</g>
<path d="M119,393h 3" fill="none" stroke="#ff0099"/>
<path d="M124,393h 3" fill="none" stroke="#ff0099"/>
<g stroke="#ff0099" stroke-width="1" fill="#ff0099">
<circle cx=" 123" cy=" 393" r=" 1.5"/>
</g>
<path d="M127,396h 2" fill="none" stroke="#ff0099"/>
<path d="M132,396h 2" fill="none" stroke="#ff0099"/>
<g stroke="#ff0099" stroke-width="1" fill="#ff0099">
<circle cx=" 130" cy=" 396" r=" 1.5"/>
</g>
<path d="M134,400h 3" fill="none" stroke="#ff0099"/>
<path d="M139,400h 3" fill="none" stroke="#ff0099"/>
<g stroke="#ff0099" stroke-width="1" fill="#ff0099">
<circle cx=" 138" cy=" 400" r=" 1.5"/>
</g>
<path d="M142,404h 2" fill="none" stroke="#ff0099"/>
<path d="M147,404h 2" fill="none" stroke="#ff0099"/>
<g stroke="#ff0099" stroke-width="1" fill="#ff0099">
<circle cx=" 146" cy=" 404" r=" 1.5"/>
</g>
<path d="M149,407h 3" fill="none" stroke="#ff0099"/>
<path d="M154,407h 3" fill="none" stroke="#ff0099"/>
<g stroke="#ff0099" stroke-width="1" fill="#ff0099">
<circle cx=" 153" cy=" 407" r=" 1.5"/>
</g>
<path d="M157,411h 2" fill="none" stroke="#ff0099"/>
<path d="M162,411h 2" fill="none" stroke="#ff0099"/>
<g stroke="#ff0099" stroke-width="1" fill="#ff0099">
<circle cx=" 161" cy=" 411" r=" 1.5"/>
</g>
<path d="M164,414h 3" fill="none" stroke="#ff0099"/>
<path d="M169,414h 3" fill="none" stroke="#ff0099"/>
<g stroke="#ff0099" stroke-width="1" fill="#ff0099">
<circle cx=" 168" cy=" 414" r=" 1.5"/>
</g>
<path d="M172,417h 3" fill="none" stroke="#ff0099"/>
<path d="M177,417h 3" fill="none" stroke="#ff0099"/>
<g stroke="#ff0099" stroke-width="1" fill="#ff0099">
<circle cx=" 176" cy=" 417" r=" 1.5"/>
</g>
<path d="M180,420h 2" fill="none" stroke="#ff0099"/>
<path d="M184,420h 3" fill="none" stroke="#ff0099"/>
<g stroke="#ff0099" stroke-width="1" fill="#ff0099">
<circle cx=" 183" cy=" 420" r=" 1.5"/>
</g>
<path d="M187,422h 3" fill="none" stroke="#ff0099"/>
<path d="M192,422h 3" fill="none" stroke="#ff0099"/>
<g stroke="#ff0099" stroke-width="1" fill="#ff0099">
<circle cx=" 191" cy=" 422" r=" 1.5"/>
</g>
<path d="M195,425h 2" fill="none" stroke="#ff0099"/>
<path d="M200,425h 2" fill="none" stroke="#ff0099"/>
<g stroke="#ff0099" stroke-width="1" fill="#ff0099">
<circle cx=" 198" cy=" 425" r=" 1.5"/>
</g>
<path d="M202,427h 3" fill="none" stroke="#ff0099"/>
<path d="M207,427h 3" fill="none" stroke="#ff0099"/>
<g stroke="#ff0099" stroke-width="1" fill="#ff0099">
<circle cx=" 206" cy=" 427" r=" 1.5"/>
</g>
<path d="M210,429h 2" fill="none" stroke="#ff0099"/>
<path d="M215,429h 2" fill="none" stroke="#ff0099"/>
<g stroke="#ff0099" stroke-width="1" fill="#ff0099">
<circle cx=" 214" cy=" 429" r=" 1.5"/>
</g>
<path d="M217,431h 3" fill="none" stroke="#ff0099"/>
<path d="M222,431h 3" fill="none" stroke="#ff0099"/>
<g stroke="#ff0099" stroke-width="1" fill="#ff0099">
<circle cx=" 221" cy=" 431" r=" 1.5"/>
</g>
<path d="M225,432h 3" fill="none" stroke="#ff0099"/>
<path d="M230,432h 2" fill="none" stroke="#ff0099"/>
<g stroke="#ff0099" stroke-width="1" fill="#ff0099">
<circle cx=" 229" cy=" 432" r=" 1.5"/>
</g>
<path d="M232,434h 3" fill="none" stroke="#ff0099"/>
<path d="M237,434h 3" fill="none" stroke="#ff0099"/>
<g stroke="#ff0099" stroke-width="1" fill="#ff0099">
<circle cx=" 236" cy=" 434" r=" 1.5"/>
</g>
<path d="M240,435h 3" fill="none" stroke="#ff0099"/>
<path d="M245,435h 3" fill="none" stroke="#ff0099"/>
<g stroke="#ff0099" stroke-width="1" fill="#ff0099">
<circle cx=" 244" cy=" 435" r=" 1.5"/>
</g>
<path d="M248,436h 2" fill="none" stroke="#ff0099"/>
<path d="M252,436h 3" fill="none" stroke="#ff0099"/>
<g stroke="#ff0099" stroke-width="1" fill="#ff0099">
<circle cx=" 251" cy=" 436" r=" 1.5"/>
</g>
<path d="M255,437h 3" fill="none" stroke="#ff0099"/>
<path d="M260,437h 3" fill="none" stroke="#ff0099"/>
<g stroke="#ff0099" stroke-width="1" fill="#ff0099">
<circle cx=" 259" cy=" 437" r=" 1.5"/>
</g>
<path d="M263,438h 2" fill="none" stroke="#ff0099"/>
<path d="M268,438h 2" fill="none" stroke="#ff0099"/>
<g stroke="#ff0099" stroke-width="1" fill="#ff0099">
<circle cx=" 266" cy=" 438" r=" 1.5"/>
</g>
<path d="M270,439h 3" fill="none" stroke="#ff0099"/>
<path d="M275,439h 3" fill="none" stroke="#ff0099"/>
<g stroke="#ff0099" stroke-width="1" fill="#ff0099">
<circle cx=" 274" cy=" 439" r=" 1.5"/>
</g>
<path d="M278,440h 2" fill="none" stroke="#ff0099"/>
<path d="M283,440h 2" fill="none" stroke="#ff0099"/>
<g stroke="#ff0099" stroke-width="1" fill="#ff0099">
<circle cx=" 282" cy=" 440" r=" 1.5"/>
</g>
<path d="M285,441h 3" fill="none" stroke="#ff0099"/>
<path d="M290,441h 3" fill="none" stroke="#ff0099"/>
<g stroke="#ff0099" stroke-width="1" fill="#ff0099">
<circle cx=" 289" cy=" 441" r=" 1.5"/>
</g>
<path d="M293,441h 3" fill="none" stroke="#ff0099"/>
<path d="M298,441h 2" fill="none" stroke="#ff0099"/>
<g stroke="#ff0099" stroke-width="1" fill="#ff0099">
<circle cx=" 297" cy=" 441" r=" 1.5"/>
</g>
<path d="M300,442h 3" fill="none" stroke="#ff0099"/>
<path d="M305,442h 3" fill="none" stroke="#ff0099"/>
<g stroke="#ff0099" stroke-width="1" fill="#ff0099">
<circle cx=" 304" cy=" 442" r=" 1.5"/>
</g>
<path d="M308,442h 3" fill="none" stroke="#ff0099"/>
<path d="M313,442h 3" fill="none" stroke="#ff0099"/>
<g stroke="#ff0099" stroke-width="1" fill="#ff0099">
<circle cx=" 312" cy=" 442" r=" 1.5"/>
</g>
<path d="M316,442h 2" fill="none" stroke="#ff0099"/>
<path d="M321,442h 2" fill="none" stroke="#ff0099"/>
<g stroke="#ff0099" stroke-width="1" fill="#ff0099">
<circle cx=" 319" cy=" 442" r=" 1.5"/>
</g>
<path d="M323,443h 3" fill="none" stroke="#ff0099"/>
<path d="M328,443h 3" fill="none" stroke="#ff0099"/>
<g stroke="#ff0099" stroke-width="1" fill="#ff0099">
<circle cx=" 327" cy=" 443" r=" 1.5"/>
</g>
<path d="M331,443h 2" fill="none" stroke="#ff0099"/>
<path d="M336,443h 2" fill="none" stroke="#ff0099"/>
<g stroke="#ff0099" stroke-width="1" fill="#ff0099">
<circle cx=" 334" cy=" 443" r=" 1.5"/>
</g>
<path d="M338,444h 3" fill="none" stroke="#ff0099"/>
<path d="M343,444h 3" fill="none" stroke="#ff0099"/>
<g stroke="#ff0099" stroke-width="1" fill="#ff0099">
<circle cx=" 342" cy=" 444" r=" 1.5"/>
</g>
<path d="M346,444h 2" fill="none" stroke="#ff0099"/>
<path d="M351,444h 2" fill="none" stroke="#ff0099"/>
<g stroke="#ff0099" stroke-width="1" fill="#ff0099">
<circle cx=" 350" cy=" 444" r=" 1.5"/>
</g>
<path d="M353,444h 3" fill="none" stroke="#ff0099"/>
<path d="M358,444h 3" fill="none" stroke="#ff0099"/>
<g stroke="#ff0099" stroke-width="1" fill="#ff0099">
<circle cx=" 357" cy=" 444" r=" 1.5"/>
</g>
<path d="M361,444h 3" fill="none" stroke="#ff0099"/>
<path d="M366,444h 3" fill="none" stroke="#ff0099"/>
<g stroke="#ff0099" stroke-width="1" fill="#ff0099">
<circle cx=" 365" cy=" 444" r=" 1.5"/>
</g>
<path d="M369,444h 2" fill="none" stroke="#ff0099"/>
<path d="M373,444h 3" fill="none" stroke="#ff0099"/>
<g stroke="#ff0099" stroke-width="1" fill="#ff0099">
<circle cx=" 372" cy=" 444" r=" 1.5"/>
</g>
<path d="M376,445h 3" fill="none" stroke="#ff0099"/>
<path d="M381,445h 3" fill="none" stroke="#ff0099"/>
<g stroke="#ff0099" stroke-width="1" fill="#ff0099">
<circle cx=" 380" cy=" 445" r=" 1.5"/>
</g>
<path d="M384,445h 2" fill="none" stroke="#ff0099"/>
<path d="M389,445h 2" fill="none" stroke="#ff0099"/>
<g stroke="#ff0099" stroke-width="1" fill="#ff0099">
<circle cx=" 387" cy=" 445" r=" 1.5"/>
</g>
<path d="M391,445h 3" fill="none" stroke="#ff0099"/>
<path d="M396,445h 3" fill="none" stroke="#ff0099"/>
<g stroke="#ff0099" stroke-width="1" fill="#ff0099">
<circle cx=" 395" cy=" 445" r=" 1.5"/>
</g>
<path d="M399,445h 2" fill="none" stroke="#ff0099"/>
<path d="M404,445h 2" fill="none" stroke="#ff0099"/>
<g stroke="#ff0099" stroke-width="1" fill="#ff0099">
<circle cx=" 403" cy=" 445" r=" 1.5"/>
</g>
<path d="M406,445h 3" fill="none" stroke="#ff0099"/>
<path d="M411,445h 3" fill="none" stroke="#ff0099"/>
<g stroke="#ff0099" stroke-width="1" fill="#ff0099">
<circle cx=" 410" cy=" 445" r=" 1.5"/>
</g>
<path d="M414,445h 2" fill="none" stroke="#ff0099"/>
<path d="M419,445h 2" fill="none" stroke="#ff0099"/>
<g stroke="#ff0099" stroke-width="1" fill="#ff0099">
<circle cx=" 418" cy=" 445" r=" 1.5"/>
</g>
<path d="M421,445h 3" fill="none" stroke="#ff0099"/>
<path d="M426,445h 3" fill="none" stroke="#ff0099"/>
<g stroke="#ff0099" stroke-width="1" fill="#ff0099">
<circle cx=" 425" cy=" 445" r=" 1.5"/>
</g>
<path d="M429,445h 3" fill="none" stroke="#ff0099"/>
<path d="M434,445h 3" fill="none" stroke="#ff0099"/>
<g stroke="#ff0099" stroke-width="1" fill="#ff0099">
<circle cx=" 433" cy=" 445" r=" 1.5"/>
</g>
<path d="M437,446h 2" fill="none" stroke="#ff0099"/>
<path d="M441,446h 3" fill="none" stroke="#ff0099"/>
<g stroke="#ff0099" stroke-width="1" fill="#ff0099">
<circle cx=" 440" cy=" 446" r=" 1.5"/>
</g>
<path d="M444,446h 3" fill="none" stroke="#ff0099"/>
<path d="M449,446h 3" fill="none" stroke="#ff0099"/>
<g stroke="#ff0099" stroke-width="1" fill="#ff0099">
<circle cx=" 448" cy=" 446" r=" 1.5"/>
</g>
<path d="M452,446h 2" fill="none" stroke="#ff0099"/>
<path d="M457,446h 2" fill="none" stroke="#ff0099"/>
<g stroke="#ff0099" stroke-width="1" fill="#ff0099">
<circle cx=" 455" cy=" 446" r=" 1.5"/>
</g>
<path d="M459,446h 3" fill="none" stroke="#ff0099"/>
<path d="M464,446h 3" fill="none" stroke="#ff0099"/>
<g stroke="#ff0099" stroke-width="1" fill="#ff0099">
<circle cx=" 463" cy=" 446" r=" 1.5"/>
</g>
<path d="M467,446h 2" fill="none" stroke="#ff0099"/>
<path d="M472,446h 2" fill="none" stroke="#ff0099"/>
<g stroke="#ff0099" stroke-width="1" fill="#ff0099">
<circle cx=" 471" cy=" 446" r=" 1.5"/>
</g>
<path d="M474,446h 3" fill="none" stroke="#ff0099"/>
<path d="M479,446h 3" fill="none" stroke="#ff0099"/>
<g stroke="#ff0099" stroke-width="1" fill="#ff0099">
<circle cx=" 478" cy=" 446" r=" 1.5"/>
</g>
<path d="M482,446h 3" fill="none" stroke="#ff0099"/>
<path d="M487,446h 2" fill="none" stroke="#ff0099"/>
<g stroke="#ff0099" stroke-width="1" fill="#ff0099">
<circle cx=" 486" cy=" 446" r=" 1.5"/>
</g>
<path d="M489,446h 3" fill="none" stroke="#ff0099"/>
<path d="M494,446h 3" fill="none" stroke="#ff0099"/>
<g stroke="#ff0099" stroke-width="1" fill="#ff0099">
<circle cx=" 493" cy=" 446" r=" 1.5"/>
</g>
<path d="M497,446h 3" fill="none" stroke="#ff0099"/>
<path d="M502,446h 3" fill="none" stroke="#ff0099"/>
<g stroke="#ff0099" stroke-width="1" fill="#ff0099">
<circle cx=" 501" cy=" 446" r=" 1.5"/>
</g>
<path d="M505,446h 2" fill="none" stroke="#ff0099"/>
<path d="M509,446h 3" fill="none" stroke="#ff0099"/>
<g stroke="#ff0099" stroke-width="1" fill="#ff0099">
<circle cx=" 508" cy=" 446" r=" 1.5"/>
</g>
<path d="M512,446h 3" fill="none" stroke="#ff0099"/>
<path d="M517,446h 3" fill="none" stroke="#ff0099"/>
<g stroke="#ff0099" stroke-width="1" fill="#ff0099">
<circle cx=" 516" cy=" 446" r=" 1.5"/>
</g>
<path d="M520,446h 2" fill="none" stroke="#ff0099"/>
<path d="M525,446h 2" fill="none" stroke="#ff0099"/>
<g stroke="#ff0099" stroke-width="1" fill="#ff0099">
<circle cx=" 523" cy=" 446" r=" 1.5"/>
</g>
<rect x="357" y="59" width="142" height="99" fill="white"/>
<text x="360" y="82" fill="black" font-size="17" font-family="Helvetica" font-weight="bold">
All
</text>
<text x="457" y="115" fill="black" font-size="17" font-family="Helvetica" font-weight="bold">
 ee
</text>
<text x="440" y="115" fill="black" font-size="17" font-family="Times">
&#8594;
</text>
<text x="392" y="115" fill="black" font-size="17" font-family="Helvetica" font-weight="bold">
MC Z 
</text>
<path d="M362,109h 25" fill="none" stroke="#ff0099"/>
<g stroke="#ff0099" stroke-width="1" fill="#ff0099">
<circle cx=" 375" cy=" 109" r=" 1.5"/>
</g>
<text x="455" y="147" fill="black" font-size="17" font-family="Helvetica" font-weight="bold">
 + jet
</text>
<text x="447" y="147" fill="black" font-size="17" font-family="Times">
&#0947;
</text>
<text x="392" y="147" fill="black" font-size="17" font-family="Helvetica" font-weight="bold">
signal 
</text>
<path d="M362,154h 25v -24h -25z" fill="#99ff99"/>
<path d="M362,130h 25" fill="none" stroke="#99ff99" stroke-width="2"/>
<path d="M362,154h 25" fill="none" stroke="#99ff99" stroke-width="2"/>
<path d="M387,154v -24" fill="none" stroke="#99ff99" stroke-width="2"/>
<path d="M362,154v -24" fill="none" stroke="#99ff99" stroke-width="2"/>
<text x="300" y="34" fill="black" font-size="17" font-family="Helvetica" font-weight="bold">
=8 TeV
</text>
<text x="291" y="34" fill="black" font-size="17" font-family="Helvetica" font-weight="bold">
s
</text>
<path d="M285,25l 2, 10" fill="none" stroke="black" stroke-width="2"/>
<path d="M287,35l 2, -14" fill="none" stroke="black"/>
<path d="M289,21h 11" fill="none" stroke="black"/>
<text x="142" y="34" fill="black" font-size="17" font-family="Helvetica" font-weight="bold">
CMS Preliminary 
</text></svg>
