<?xml version="1.0" standalone="no"?>
<svg width="567" height="496" viewBox="0 0 567 496" xmlns="http://www.w3.org/2000/svg">
<title>
../src/TagAndProbeZ/plots_mcZee_mcGJet_withEtaR9nvtxReweight/hlt30/ptPhotEE.svg
</title>
<desc>
Creator: ROOT Version 5.32/00
CreationDate: Sun Sep 28 11:59:19 2014</desc>
<defs>
</defs>
<rect x="0" y="0" width="567" height="496" fill="white"/>
<rect x="74" y="44" width="453" height="402" fill="white"/>
<rect x="74" y="44" width="453" height="402" fill="none" stroke="black"/>
<rect x="74" y="44" width="453" height="402" fill="white"/>
<rect x="74" y="44" width="453" height="402" fill="none" stroke="black"/>
<path d="M138,67v -1" fill="none" stroke="#ff0099"/>
<path d="M138,64v -1" fill="none" stroke="#ff0099"/>
<path d="M134,65h 3" fill="none" stroke="#ff0099"/>
<path d="M139,65h 3" fill="none" stroke="#ff0099"/>
<g stroke="#ff0099" stroke-width="1" fill="#ff0099">
<circle cx=" 138" cy=" 65" r=" 1.5"/>
</g>
<path d="M146,184" fill="none" stroke="#ff0099"/>
<path d="M146,181" fill="none" stroke="#ff0099"/>
<path d="M142,183h 2" fill="none" stroke="#ff0099"/>
<path d="M147,183h 2" fill="none" stroke="#ff0099"/>
<g stroke="#ff0099" stroke-width="1" fill="#ff0099">
<circle cx=" 146" cy=" 183" r=" 1.5"/>
</g>
<path d="M149,341h 3" fill="none" stroke="#ff0099"/>
<path d="M154,341h 3" fill="none" stroke="#ff0099"/>
<g stroke="#ff0099" stroke-width="1" fill="#ff0099">
<circle cx=" 153" cy=" 341" r=" 1.5"/>
</g>
<path d="M157,397h 2" fill="none" stroke="#ff0099"/>
<path d="M162,397h 2" fill="none" stroke="#ff0099"/>
<g stroke="#ff0099" stroke-width="1" fill="#ff0099">
<circle cx=" 161" cy=" 397" r=" 1.5"/>
</g>
<path d="M164,419h 3" fill="none" stroke="#ff0099"/>
<path d="M169,419h 3" fill="none" stroke="#ff0099"/>
<g stroke="#ff0099" stroke-width="1" fill="#ff0099">
<circle cx=" 168" cy=" 419" r=" 1.5"/>
</g>
<path d="M74,446h 453" fill="none" stroke="black"/>
<path d="M74,434v 12" fill="none" stroke="black"/>
<path d="M89,440v 6" fill="none" stroke="black"/>
<path d="M104,440v 6" fill="none" stroke="black"/>
<path d="M119,440v 6" fill="none" stroke="black"/>
<path d="M134,440v 6" fill="none" stroke="black"/>
<path d="M149,434v 12" fill="none" stroke="black"/>
<path d="M164,440v 6" fill="none" stroke="black"/>
<path d="M180,440v 6" fill="none" stroke="black"/>
<path d="M195,440v 6" fill="none" stroke="black"/>
<path d="M210,440v 6" fill="none" stroke="black"/>
<path d="M225,434v 12" fill="none" stroke="black"/>
<path d="M240,440v 6" fill="none" stroke="black"/>
<path d="M255,440v 6" fill="none" stroke="black"/>
<path d="M270,440v 6" fill="none" stroke="black"/>
<path d="M285,440v 6" fill="none" stroke="black"/>
<path d="M300,434v 12" fill="none" stroke="black"/>
<path d="M316,440v 6" fill="none" stroke="black"/>
<path d="M331,440v 6" fill="none" stroke="black"/>
<path d="M346,440v 6" fill="none" stroke="black"/>
<path d="M361,440v 6" fill="none" stroke="black"/>
<path d="M376,434v 12" fill="none" stroke="black"/>
<path d="M391,440v 6" fill="none" stroke="black"/>
<path d="M406,440v 6" fill="none" stroke="black"/>
<path d="M421,440v 6" fill="none" stroke="black"/>
<path d="M437,440v 6" fill="none" stroke="black"/>
<path d="M452,434v 12" fill="none" stroke="black"/>
<path d="M467,440v 6" fill="none" stroke="black"/>
<path d="M482,440v 6" fill="none" stroke="black"/>
<path d="M497,440v 6" fill="none" stroke="black"/>
<path d="M512,440v 6" fill="none" stroke="black"/>
<path d="M527,434v 12" fill="none" stroke="black"/>
<text x="68" y="465" fill="black" font-size="18" font-family="Helvetica" font-weight="bold">
0
</text>
<text x="139" y="465" fill="black" font-size="18" font-family="Helvetica" font-weight="bold">
50
</text>
<text x="209" y="465" fill="black" font-size="18" font-family="Helvetica" font-weight="bold">
100
</text>
<text x="285" y="465" fill="black" font-size="18" font-family="Helvetica" font-weight="bold">
150
</text>
<text x="360" y="465" fill="black" font-size="18" font-family="Helvetica" font-weight="bold">
200
</text>
<text x="436" y="465" fill="black" font-size="18" font-family="Helvetica" font-weight="bold">
250
</text>
<text x="512" y="465" fill="black" font-size="18" font-family="Helvetica" font-weight="bold">
300
</text>
<path d="M74,44h 453" fill="none" stroke="black"/>
<path d="M74,56v -12" fill="none" stroke="black"/>
<path d="M89,50v -6" fill="none" stroke="black"/>
<path d="M104,50v -6" fill="none" stroke="black"/>
<path d="M119,50v -6" fill="none" stroke="black"/>
<path d="M134,50v -6" fill="none" stroke="black"/>
<path d="M149,56v -12" fill="none" stroke="black"/>
<path d="M164,50v -6" fill="none" stroke="black"/>
<path d="M180,50v -6" fill="none" stroke="black"/>
<path d="M195,50v -6" fill="none" stroke="black"/>
<path d="M210,50v -6" fill="none" stroke="black"/>
<path d="M225,56v -12" fill="none" stroke="black"/>
<path d="M240,50v -6" fill="none" stroke="black"/>
<path d="M255,50v -6" fill="none" stroke="black"/>
<path d="M270,50v -6" fill="none" stroke="black"/>
<path d="M285,50v -6" fill="none" stroke="black"/>
<path d="M300,56v -12" fill="none" stroke="black"/>
<path d="M316,50v -6" fill="none" stroke="black"/>
<path d="M331,50v -6" fill="none" stroke="black"/>
<path d="M346,50v -6" fill="none" stroke="black"/>
<path d="M361,50v -6" fill="none" stroke="black"/>
<path d="M376,56v -12" fill="none" stroke="black"/>
<path d="M391,50v -6" fill="none" stroke="black"/>
<path d="M406,50v -6" fill="none" stroke="black"/>
<path d="M421,50v -6" fill="none" stroke="black"/>
<path d="M437,50v -6" fill="none" stroke="black"/>
<path d="M452,56v -12" fill="none" stroke="black"/>
<path d="M467,50v -6" fill="none" stroke="black"/>
<path d="M482,50v -6" fill="none" stroke="black"/>
<path d="M497,50v -6" fill="none" stroke="black"/>
<path d="M512,50v -6" fill="none" stroke="black"/>
<path d="M527,56v -12" fill="none" stroke="black"/>
<path d="M74,446v -402" fill="none" stroke="black"/>
<path d="M87,446h -13" fill="none" stroke="black"/>
<path d="M81,438h -7" fill="none" stroke="black"/>
<path d="M81,430h -7" fill="none" stroke="black"/>
<path d="M81,422h -7" fill="none" stroke="black"/>
<path d="M81,413h -7" fill="none" stroke="black"/>
<path d="M87,405h -13" fill="none" stroke="black"/>
<path d="M81,397h -7" fill="none" stroke="black"/>
<path d="M81,388h -7" fill="none" stroke="black"/>
<path d="M81,380h -7" fill="none" stroke="black"/>
<path d="M81,372h -7" fill="none" stroke="black"/>
<path d="M87,364h -13" fill="none" stroke="black"/>
<path d="M81,355h -7" fill="none" stroke="black"/>
<path d="M81,347h -7" fill="none" stroke="black"/>
<path d="M81,339h -7" fill="none" stroke="black"/>
<path d="M81,331h -7" fill="none" stroke="black"/>
<path d="M87,322h -13" fill="none" stroke="black"/>
<path d="M81,314h -7" fill="none" stroke="black"/>
<path d="M81,306h -7" fill="none" stroke="black"/>
<path d="M81,297h -7" fill="none" stroke="black"/>
<path d="M81,289h -7" fill="none" stroke="black"/>
<path d="M87,281h -13" fill="none" stroke="black"/>
<path d="M81,273h -7" fill="none" stroke="black"/>
<path d="M81,264h -7" fill="none" stroke="black"/>
<path d="M81,256h -7" fill="none" stroke="black"/>
<path d="M81,248h -7" fill="none" stroke="black"/>
<path d="M87,240h -13" fill="none" stroke="black"/>
<path d="M81,231h -7" fill="none" stroke="black"/>
<path d="M81,223h -7" fill="none" stroke="black"/>
<path d="M81,215h -7" fill="none" stroke="black"/>
<path d="M81,206h -7" fill="none" stroke="black"/>
<path d="M87,198h -13" fill="none" stroke="black"/>
<path d="M81,190h -7" fill="none" stroke="black"/>
<path d="M81,182h -7" fill="none" stroke="black"/>
<path d="M81,173h -7" fill="none" stroke="black"/>
<path d="M81,165h -7" fill="none" stroke="black"/>
<path d="M87,157h -13" fill="none" stroke="black"/>
<path d="M81,148h -7" fill="none" stroke="black"/>
<path d="M81,140h -7" fill="none" stroke="black"/>
<path d="M81,132h -7" fill="none" stroke="black"/>
<path d="M81,124h -7" fill="none" stroke="black"/>
<path d="M87,115h -13" fill="none" stroke="black"/>
<path d="M81,107h -7" fill="none" stroke="black"/>
<path d="M81,99h -7" fill="none" stroke="black"/>
<path d="M81,91h -7" fill="none" stroke="black"/>
<path d="M81,82h -7" fill="none" stroke="black"/>
<path d="M87,74h -13" fill="none" stroke="black"/>
<path d="M87,74h -13" fill="none" stroke="black"/>
<path d="M81,66h -7" fill="none" stroke="black"/>
<path d="M81,57h -7" fill="none" stroke="black"/>
<path d="M81,49h -7" fill="none" stroke="black"/>
<text x="61" y="453" fill="black" font-size="18" font-family="Helvetica" font-weight="bold">
0
</text>
<text x="34" y="412" fill="black" font-size="18" font-family="Helvetica" font-weight="bold">
0.05
</text>
<text x="47" y="370" fill="black" font-size="18" font-family="Helvetica" font-weight="bold">
0.1
</text>
<text x="34" y="329" fill="black" font-size="18" font-family="Helvetica" font-weight="bold">
0.15
</text>
<text x="45" y="288" fill="black" font-size="18" font-family="Helvetica" font-weight="bold">
0.2
</text>
<text x="34" y="246" fill="black" font-size="18" font-family="Helvetica" font-weight="bold">
0.25
</text>
<text x="45" y="205" fill="black" font-size="18" font-family="Helvetica" font-weight="bold">
0.3
</text>
<text x="34" y="164" fill="black" font-size="18" font-family="Helvetica" font-weight="bold">
0.35
</text>
<text x="44" y="122" fill="black" font-size="18" font-family="Helvetica" font-weight="bold">
0.4
</text>
<text x="34" y="80" fill="black" font-size="18" font-family="Helvetica" font-weight="bold">
0.45
</text>
<path d="M138,123v -3" fill="none" stroke="#99ff99" stroke-width="2"/>
<path d="M138,120v -3" fill="none" stroke="#99ff99" stroke-width="2"/>
<g stroke="black" stroke-width="2" fill="none">
<line x1="137" y1="120" x2="138" y2="120"/>
</g>
<path d="M146,241v -2" fill="none" stroke="#99ff99" stroke-width="2"/>
<path d="M146,239v -2" fill="none" stroke="#99ff99" stroke-width="2"/>
<g stroke="black" stroke-width="2" fill="none">
<line x1="145" y1="239" x2="146" y2="239"/>
</g>
<path d="M153,312v -1" fill="none" stroke="#99ff99" stroke-width="2"/>
<path d="M153,311v -2" fill="none" stroke="#99ff99" stroke-width="2"/>
<g stroke="black" stroke-width="2" fill="none">
<line x1="152" y1="311" x2="153" y2="311"/>
</g>
<path d="M161,354v -1" fill="none" stroke="#99ff99" stroke-width="2"/>
<path d="M161,353v -1" fill="none" stroke="#99ff99" stroke-width="2"/>
<g stroke="black" stroke-width="2" fill="none">
<line x1="160" y1="353" x2="161" y2="353"/>
</g>
<path d="M168,382v -1" fill="none" stroke="#99ff99" stroke-width="2"/>
<path d="M168,381v -1" fill="none" stroke="#99ff99" stroke-width="2"/>
<g stroke="black" stroke-width="2" fill="none">
<line x1="167" y1="381" x2="168" y2="381"/>
</g>
<path d="M74,446h 60v -326h 8v 119h 7v 72h 8v 42h 7v 28h 8v 65h 355z" fill="#99ff99"/>
<path d="M74,446h 60v -326h 8v 119h 7v 72h 8v 42h 7v 28h 8v 65h 355" fill="none" stroke="#99ff99" stroke-width="2"/>
<path d="M138,67v -1" fill="none" stroke="#ff0099"/>
<path d="M138,64v -1" fill="none" stroke="#ff0099"/>
<path d="M134,65h 3" fill="none" stroke="#ff0099"/>
<path d="M139,65h 3" fill="none" stroke="#ff0099"/>
<g stroke="#ff0099" stroke-width="1" fill="#ff0099">
<circle cx=" 138" cy=" 65" r=" 1.5"/>
</g>
<path d="M146,184" fill="none" stroke="#ff0099"/>
<path d="M146,181" fill="none" stroke="#ff0099"/>
<path d="M142,183h 2" fill="none" stroke="#ff0099"/>
<path d="M147,183h 2" fill="none" stroke="#ff0099"/>
<g stroke="#ff0099" stroke-width="1" fill="#ff0099">
<circle cx=" 146" cy=" 183" r=" 1.5"/>
</g>
<path d="M149,341h 3" fill="none" stroke="#ff0099"/>
<path d="M154,341h 3" fill="none" stroke="#ff0099"/>
<g stroke="#ff0099" stroke-width="1" fill="#ff0099">
<circle cx=" 153" cy=" 341" r=" 1.5"/>
</g>
<path d="M157,397h 2" fill="none" stroke="#ff0099"/>
<path d="M162,397h 2" fill="none" stroke="#ff0099"/>
<g stroke="#ff0099" stroke-width="1" fill="#ff0099">
<circle cx=" 161" cy=" 397" r=" 1.5"/>
</g>
<path d="M164,419h 3" fill="none" stroke="#ff0099"/>
<path d="M169,419h 3" fill="none" stroke="#ff0099"/>
<g stroke="#ff0099" stroke-width="1" fill="#ff0099">
<circle cx=" 168" cy=" 419" r=" 1.5"/>
</g>
<rect x="357" y="59" width="142" height="99" fill="white"/>
<text x="360" y="82" fill="black" font-size="17" font-family="Helvetica" font-weight="bold">
EE
</text>
<text x="457" y="115" fill="black" font-size="17" font-family="Helvetica" font-weight="bold">
 ee
</text>
<text x="440" y="115" fill="black" font-size="17" font-family="Times">
&#8594;
</text>
<text x="392" y="115" fill="black" font-size="17" font-family="Helvetica" font-weight="bold">
MC Z 
</text>
<path d="M362,109h 25" fill="none" stroke="#ff0099"/>
<g stroke="#ff0099" stroke-width="1" fill="#ff0099">
<circle cx=" 375" cy=" 109" r=" 1.5"/>
</g>
<text x="455" y="147" fill="black" font-size="17" font-family="Helvetica" font-weight="bold">
 + jet
</text>
<text x="447" y="147" fill="black" font-size="17" font-family="Times">
&#0947;
</text>
<text x="392" y="147" fill="black" font-size="17" font-family="Helvetica" font-weight="bold">
signal 
</text>
<path d="M362,154h 25v -24h -25z" fill="#99ff99"/>
<path d="M362,130h 25" fill="none" stroke="#99ff99" stroke-width="2"/>
<path d="M362,154h 25" fill="none" stroke="#99ff99" stroke-width="2"/>
<path d="M387,154v -24" fill="none" stroke="#99ff99" stroke-width="2"/>
<path d="M362,154v -24" fill="none" stroke="#99ff99" stroke-width="2"/>
<text x="300" y="34" fill="black" font-size="17" font-family="Helvetica" font-weight="bold">
=8 TeV
</text>
<text x="291" y="34" fill="black" font-size="17" font-family="Helvetica" font-weight="bold">
s
</text>
<path d="M285,25l 2, 10" fill="none" stroke="black" stroke-width="2"/>
<path d="M287,35l 2, -14" fill="none" stroke="black"/>
<path d="M289,21h 11" fill="none" stroke="black"/>
<text x="142" y="34" fill="black" font-size="17" font-family="Helvetica" font-weight="bold">
CMS Preliminary 
</text></svg>
