<?xml version="1.0" standalone="no"?>
<svg width="567" height="496" viewBox="0 0 567 496" xmlns="http://www.w3.org/2000/svg">
<title>
../src/TagAndProbeZ/plots_mcZee_mcGJet_withEtaR9nvtxReweight/hlt30/ptPhotEB_log.svg
</title>
<desc>
Creator: ROOT Version 5.32/00
CreationDate: Sun Sep 28 11:59:23 2014</desc>
<defs>
</defs>
<rect x="0" y="0" width="567" height="496" fill="white"/>
<rect x="0" y="0" width="567" height="347" fill="white"/>
<rect x="57" y="34" width="453" height="278" fill="white"/>
<rect x="57" y="34" width="453" height="278" fill="none" stroke="black"/>
<rect x="57" y="34" width="453" height="278" fill="white"/>
<rect x="57" y="34" width="453" height="278" fill="none" stroke="black"/>
<path d="M117,61h 3" fill="none" stroke="#ff0099"/>
<path d="M122,61h 3" fill="none" stroke="#ff0099"/>
<g stroke="#ff0099" stroke-width="1" fill="#ff0099">
<circle cx=" 121" cy=" 61" r=" 1.5"/>
</g>
<path d="M125,69h 2" fill="none" stroke="#ff0099"/>
<path d="M130,69h 2" fill="none" stroke="#ff0099"/>
<g stroke="#ff0099" stroke-width="1" fill="#ff0099">
<circle cx=" 129" cy=" 69" r=" 1.5"/>
</g>
<path d="M132,84h 3" fill="none" stroke="#ff0099"/>
<path d="M137,84h 3" fill="none" stroke="#ff0099"/>
<g stroke="#ff0099" stroke-width="1" fill="#ff0099">
<circle cx=" 136" cy=" 84" r=" 1.5"/>
</g>
<path d="M140,96h 2" fill="none" stroke="#ff0099"/>
<path d="M145,96h 2" fill="none" stroke="#ff0099"/>
<g stroke="#ff0099" stroke-width="1" fill="#ff0099">
<circle cx=" 144" cy=" 96" r=" 1.5"/>
</g>
<path d="M147,106h 3" fill="none" stroke="#ff0099"/>
<path d="M152,106h 3" fill="none" stroke="#ff0099"/>
<g stroke="#ff0099" stroke-width="1" fill="#ff0099">
<circle cx=" 151" cy=" 106" r=" 1.5"/>
</g>
<path d="M57,312h 453" fill="none" stroke="black"/>
<text x="472" y="336" fill="black" font-size="13" font-family="Helvetica" font-weight="bold">
 (GeV)
</text>
<text x="467" y="343" fill="black" font-size="9" font-family="Helvetica" font-weight="bold">
T
</text>
<text x="455" y="336" fill="black" font-size="13" font-family="Helvetica" font-weight="bold">
 p
</text>
<text x="449" y="336" fill="black" font-size="13" font-family="Times">
&#0947;
</text>
<path d="M57,304v 8" fill="none" stroke="black"/>
<path d="M72,308v 4" fill="none" stroke="black"/>
<path d="M87,308v 4" fill="none" stroke="black"/>
<path d="M102,308v 4" fill="none" stroke="black"/>
<path d="M117,308v 4" fill="none" stroke="black"/>
<path d="M132,304v 8" fill="none" stroke="black"/>
<path d="M147,308v 4" fill="none" stroke="black"/>
<path d="M163,308v 4" fill="none" stroke="black"/>
<path d="M178,308v 4" fill="none" stroke="black"/>
<path d="M193,308v 4" fill="none" stroke="black"/>
<path d="M208,304v 8" fill="none" stroke="black"/>
<path d="M223,308v 4" fill="none" stroke="black"/>
<path d="M238,308v 4" fill="none" stroke="black"/>
<path d="M253,308v 4" fill="none" stroke="black"/>
<path d="M268,308v 4" fill="none" stroke="black"/>
<path d="M283,304v 8" fill="none" stroke="black"/>
<path d="M299,308v 4" fill="none" stroke="black"/>
<path d="M314,308v 4" fill="none" stroke="black"/>
<path d="M329,308v 4" fill="none" stroke="black"/>
<path d="M344,308v 4" fill="none" stroke="black"/>
<path d="M359,304v 8" fill="none" stroke="black"/>
<path d="M374,308v 4" fill="none" stroke="black"/>
<path d="M389,308v 4" fill="none" stroke="black"/>
<path d="M404,308v 4" fill="none" stroke="black"/>
<path d="M420,308v 4" fill="none" stroke="black"/>
<path d="M435,304v 8" fill="none" stroke="black"/>
<path d="M450,308v 4" fill="none" stroke="black"/>
<path d="M465,308v 4" fill="none" stroke="black"/>
<path d="M480,308v 4" fill="none" stroke="black"/>
<path d="M495,308v 4" fill="none" stroke="black"/>
<path d="M510,304v 8" fill="none" stroke="black"/>
<text x="53" y="325" fill="black" font-size="13" font-family="Helvetica" font-weight="bold">
0
</text>
<text x="125" y="325" fill="black" font-size="13" font-family="Helvetica" font-weight="bold">
50
</text>
<text x="197" y="325" fill="black" font-size="13" font-family="Helvetica" font-weight="bold">
100
</text>
<text x="273" y="325" fill="black" font-size="13" font-family="Helvetica" font-weight="bold">
150
</text>
<text x="348" y="325" fill="black" font-size="13" font-family="Helvetica" font-weight="bold">
200
</text>
<text x="423" y="325" fill="black" font-size="13" font-family="Helvetica" font-weight="bold">
250
</text>
<text x="499" y="325" fill="black" font-size="13" font-family="Helvetica" font-weight="bold">
300
</text>
<path d="M57,312v -278" fill="none" stroke="black"/>
<g transform="rotate(-90,28,100)">
<text x="28" y="100" fill="black" font-size="13" font-family="Helvetica" font-weight="bold">
Entries/5.0
</text>
</g>
<path d="M63,312h -6" fill="none" stroke="black"/>
<path d="M63,309h -6" fill="none" stroke="black"/>
<path d="M63,306h -6" fill="none" stroke="black"/>
<path d="M63,304h -6" fill="none" stroke="black"/>
<path d="M63,302h -6" fill="none" stroke="black"/>
<path d="M70,301h -13" fill="none" stroke="black"/>
<text x="44" y="300" fill="black" font-size="9" font-family="Helvetica" font-weight="bold">
-7
</text>
<text x="30" y="306" fill="black" font-size="13" font-family="Helvetica" font-weight="bold">
10
</text>
<path d="M63,290h -6" fill="none" stroke="black"/>
<path d="M63,284h -6" fill="none" stroke="black"/>
<path d="M63,279h -6" fill="none" stroke="black"/>
<path d="M63,276h -6" fill="none" stroke="black"/>
<path d="M63,273h -6" fill="none" stroke="black"/>
<path d="M63,271h -6" fill="none" stroke="black"/>
<path d="M63,268h -6" fill="none" stroke="black"/>
<path d="M63,267h -6" fill="none" stroke="black"/>
<path d="M70,265h -13" fill="none" stroke="black"/>
<text x="44" y="264" fill="black" font-size="9" font-family="Helvetica" font-weight="bold">
-6
</text>
<text x="30" y="271" fill="black" font-size="13" font-family="Helvetica" font-weight="bold">
10
</text>
<path d="M63,254h -6" fill="none" stroke="black"/>
<path d="M63,248h -6" fill="none" stroke="black"/>
<path d="M63,243h -6" fill="none" stroke="black"/>
<path d="M63,240h -6" fill="none" stroke="black"/>
<path d="M63,237h -6" fill="none" stroke="black"/>
<path d="M63,235h -6" fill="none" stroke="black"/>
<path d="M63,233h -6" fill="none" stroke="black"/>
<path d="M63,231h -6" fill="none" stroke="black"/>
<path d="M70,229h -13" fill="none" stroke="black"/>
<text x="44" y="228" fill="black" font-size="9" font-family="Helvetica" font-weight="bold">
-5
</text>
<text x="30" y="235" fill="black" font-size="13" font-family="Helvetica" font-weight="bold">
10
</text>
<path d="M63,218h -6" fill="none" stroke="black"/>
<path d="M63,212h -6" fill="none" stroke="black"/>
<path d="M63,208h -6" fill="none" stroke="black"/>
<path d="M63,204h -6" fill="none" stroke="black"/>
<path d="M63,201h -6" fill="none" stroke="black"/>
<path d="M63,199h -6" fill="none" stroke="black"/>
<path d="M63,197h -6" fill="none" stroke="black"/>
<path d="M63,195h -6" fill="none" stroke="black"/>
<path d="M70,193h -13" fill="none" stroke="black"/>
<text x="44" y="193" fill="black" font-size="9" font-family="Helvetica" font-weight="bold">
-4
</text>
<text x="30" y="199" fill="black" font-size="13" font-family="Helvetica" font-weight="bold">
10
</text>
<path d="M63,183h -6" fill="none" stroke="black"/>
<path d="M63,176h -6" fill="none" stroke="black"/>
<path d="M63,172h -6" fill="none" stroke="black"/>
<path d="M63,168h -6" fill="none" stroke="black"/>
<path d="M63,166h -6" fill="none" stroke="black"/>
<path d="M63,163h -6" fill="none" stroke="black"/>
<path d="M63,161h -6" fill="none" stroke="black"/>
<path d="M63,159h -6" fill="none" stroke="black"/>
<path d="M70,158h -13" fill="none" stroke="black"/>
<text x="44" y="157" fill="black" font-size="9" font-family="Helvetica" font-weight="bold">
-3
</text>
<text x="30" y="164" fill="black" font-size="13" font-family="Helvetica" font-weight="bold">
10
</text>
<path d="M63,147h -6" fill="none" stroke="black"/>
<path d="M63,141h -6" fill="none" stroke="black"/>
<path d="M63,136h -6" fill="none" stroke="black"/>
<path d="M63,133h -6" fill="none" stroke="black"/>
<path d="M63,130h -6" fill="none" stroke="black"/>
<path d="M63,128h -6" fill="none" stroke="black"/>
<path d="M63,125h -6" fill="none" stroke="black"/>
<path d="M63,124h -6" fill="none" stroke="black"/>
<path d="M70,122h -13" fill="none" stroke="black"/>
<text x="44" y="121" fill="black" font-size="9" font-family="Helvetica" font-weight="bold">
-2
</text>
<text x="30" y="128" fill="black" font-size="13" font-family="Helvetica" font-weight="bold">
10
</text>
<path d="M63,111h -6" fill="none" stroke="black"/>
<path d="M63,105h -6" fill="none" stroke="black"/>
<path d="M63,100h -6" fill="none" stroke="black"/>
<path d="M63,97h -6" fill="none" stroke="black"/>
<path d="M63,94h -6" fill="none" stroke="black"/>
<path d="M63,92h -6" fill="none" stroke="black"/>
<path d="M63,90h -6" fill="none" stroke="black"/>
<path d="M63,88h -6" fill="none" stroke="black"/>
<path d="M70,86h -13" fill="none" stroke="black"/>
<text x="46" y="86" fill="black" font-size="9" font-family="Helvetica" font-weight="bold">
-1
</text>
<text x="31" y="92" fill="black" font-size="13" font-family="Helvetica" font-weight="bold">
10
</text>
<path d="M63,75h -6" fill="none" stroke="black"/>
<path d="M63,69h -6" fill="none" stroke="black"/>
<path d="M63,65h -6" fill="none" stroke="black"/>
<path d="M63,61h -6" fill="none" stroke="black"/>
<path d="M63,58h -6" fill="none" stroke="black"/>
<path d="M63,56h -6" fill="none" stroke="black"/>
<path d="M63,54h -6" fill="none" stroke="black"/>
<path d="M63,52h -6" fill="none" stroke="black"/>
<path d="M70,50h -13" fill="none" stroke="black"/>
<text x="52" y="56" text-anchor="end" fill="black" font-size="13" font-family="Helvetica" font-weight="bold">
1
</text>
<path d="M63,40h -6" fill="none" stroke="black"/>
<path d="M121,65" fill="none" stroke="#99ff99" stroke-width="2"/>
<path d="M121,65" fill="none" stroke="#99ff99" stroke-width="2"/>
<g stroke="black" stroke-width="2" fill="none">
<line x1="120" y1="65" x2="121" y2="65"/>
</g>
<path d="M129,72" fill="none" stroke="#99ff99" stroke-width="2"/>
<path d="M129,72" fill="none" stroke="#99ff99" stroke-width="2"/>
<g stroke="black" stroke-width="2" fill="none">
<line x1="128" y1="72" x2="129" y2="72"/>
</g>
<path d="M136,79v -1" fill="none" stroke="#99ff99" stroke-width="2"/>
<path d="M136,78" fill="none" stroke="#99ff99" stroke-width="2"/>
<g stroke="black" stroke-width="2" fill="none">
<line x1="135" y1="78" x2="136" y2="78"/>
</g>
<path d="M144,85" fill="none" stroke="#99ff99" stroke-width="2"/>
<path d="M144,85" fill="none" stroke="#99ff99" stroke-width="2"/>
<g stroke="black" stroke-width="2" fill="none">
<line x1="143" y1="85" x2="144" y2="85"/>
</g>
<path d="M151,91v -1" fill="none" stroke="#99ff99" stroke-width="2"/>
<path d="M151,90" fill="none" stroke="#99ff99" stroke-width="2"/>
<g stroke="black" stroke-width="2" fill="none">
<line x1="150" y1="90" x2="151" y2="90"/>
</g>
<path d="M57,312h 60v -247h 8v 7h 7v 6h 8v 7h 7v 5h 8v 222h 355z" fill="#99ff99"/>
<path d="M57,312h 60v -247h 8v 7h 7v 6h 8v 7h 7v 5h 8v 222h 355" fill="none" stroke="#99ff99" stroke-width="2"/>
<path d="M117,61h 3" fill="none" stroke="#ff0099"/>
<path d="M122,61h 3" fill="none" stroke="#ff0099"/>
<g stroke="#ff0099" stroke-width="1" fill="#ff0099">
<circle cx=" 121" cy=" 61" r=" 1.5"/>
</g>
<path d="M125,69h 2" fill="none" stroke="#ff0099"/>
<path d="M130,69h 2" fill="none" stroke="#ff0099"/>
<g stroke="#ff0099" stroke-width="1" fill="#ff0099">
<circle cx=" 129" cy=" 69" r=" 1.5"/>
</g>
<path d="M132,84h 3" fill="none" stroke="#ff0099"/>
<path d="M137,84h 3" fill="none" stroke="#ff0099"/>
<g stroke="#ff0099" stroke-width="1" fill="#ff0099">
<circle cx=" 136" cy=" 84" r=" 1.5"/>
</g>
<path d="M140,96h 2" fill="none" stroke="#ff0099"/>
<path d="M145,96h 2" fill="none" stroke="#ff0099"/>
<g stroke="#ff0099" stroke-width="1" fill="#ff0099">
<circle cx=" 144" cy=" 96" r=" 1.5"/>
</g>
<path d="M147,106h 3" fill="none" stroke="#ff0099"/>
<path d="M152,106h 3" fill="none" stroke="#ff0099"/>
<g stroke="#ff0099" stroke-width="1" fill="#ff0099">
<circle cx=" 151" cy=" 106" r=" 1.5"/>
</g>
<rect x="357" y="41" width="142" height="70" fill="white"/>
<text x="360" y="58" fill="black" font-size="12" font-family="Helvetica" font-weight="bold">
EB
</text>
<text x="439" y="81" fill="black" font-size="12" font-family="Helvetica" font-weight="bold">
 ee
</text>
<text x="426" y="81" fill="black" font-size="12" font-family="Times">
&#8594;
</text>
<text x="392" y="81" fill="black" font-size="12" font-family="Helvetica" font-weight="bold">
MC Z 
</text>
<path d="M362,76h 25" fill="none" stroke="#ff0099"/>
<g stroke="#ff0099" stroke-width="1" fill="#ff0099">
<circle cx=" 375" cy=" 76" r=" 1.5"/>
</g>
<text x="438" y="102" fill="black" font-size="12" font-family="Helvetica" font-weight="bold">
 + jet
</text>
<text x="431" y="102" fill="black" font-size="12" font-family="Times">
&#0947;
</text>
<text x="392" y="102" fill="black" font-size="12" font-family="Helvetica" font-weight="bold">
signal 
</text>
<path d="M362,107h 25v -16h -25z" fill="#99ff99"/>
<path d="M362,91h 25" fill="none" stroke="#99ff99" stroke-width="2"/>
<path d="M362,107h 25" fill="none" stroke="#99ff99" stroke-width="2"/>
<path d="M387,107v -16" fill="none" stroke="#99ff99" stroke-width="2"/>
<path d="M362,107v -16" fill="none" stroke="#99ff99" stroke-width="2"/>
<text x="252" y="24" fill="black" font-size="12" font-family="Helvetica" font-weight="bold">
=8 TeV
</text>
<text x="246" y="24" fill="black" font-size="12" font-family="Helvetica" font-weight="bold">
s
</text>
<path d="M242,17l 1, 8" fill="none" stroke="black" stroke-width="2"/>
<path d="M243,25l 2, -11" fill="none" stroke="black"/>
<path d="M245,14h 7" fill="none" stroke="black"/>
<text x="142" y="24" fill="black" font-size="12" font-family="Helvetica" font-weight="bold">
CMS Preliminary 
</text>
<rect x="0" y="347" width="567" height="149" fill="white"/>
<rect x="57" y="362" width="453" height="104" fill="white"/>
<rect x="57" y="362" width="453" height="104" fill="none" stroke="black"/>
<rect x="57" y="362" width="453" height="104" fill="white"/>
<rect x="57" y="362" width="453" height="104" fill="none" stroke="black"/>
<path d="M57,466h 453" fill="none" stroke="black"/>
<path d="M57,466v -104" fill="none" stroke="black"/>
<path d="M510,455h -453" fill="none" stroke="black" stroke-dasharray=" 1, 2"/>
<path d="M510,436h -453" fill="none" stroke="black" stroke-dasharray=" 1, 2"/>
<path d="M510,418h -453" fill="none" stroke="black" stroke-dasharray=" 1, 2"/>
<path d="M510,399h -453" fill="none" stroke="black" stroke-dasharray=" 1, 2"/>
<path d="M510,381h -453" fill="none" stroke="black" stroke-dasharray=" 1, 2"/>
<path d="M510,362h -453" fill="none" stroke="black" stroke-dasharray=" 1, 2"/>
<path d="M510,455h -453" fill="none" stroke="black" stroke-dasharray=" 1, 2"/>
<path d="M117,427h 3" fill="none" stroke="#ff0099"/>
<path d="M122,427h 3" fill="none" stroke="#ff0099"/>
<g stroke="#ff0099" stroke-width="1" fill="#ff0099">
<circle cx=" 121" cy=" 427" r=" 1.5"/>
</g>
<path d="M125,429h 2" fill="none" stroke="#ff0099"/>
<path d="M130,429h 2" fill="none" stroke="#ff0099"/>
<g stroke="#ff0099" stroke-width="1" fill="#ff0099">
<circle cx=" 129" cy=" 429" r=" 1.5"/>
</g>
<path d="M132,448h 3" fill="none" stroke="#ff0099"/>
<path d="M137,448h 3" fill="none" stroke="#ff0099"/>
<g stroke="#ff0099" stroke-width="1" fill="#ff0099">
<circle cx=" 136" cy=" 448" r=" 1.5"/>
</g>
<path d="M140,456h 2" fill="none" stroke="#ff0099"/>
<path d="M145,456h 2" fill="none" stroke="#ff0099"/>
<g stroke="#ff0099" stroke-width="1" fill="#ff0099">
<circle cx=" 144" cy=" 456" r=" 1.5"/>
</g>
<path d="M147,460h 3" fill="none" stroke="#ff0099"/>
<path d="M152,460h 3" fill="none" stroke="#ff0099"/>
<g stroke="#ff0099" stroke-width="1" fill="#ff0099">
<circle cx=" 151" cy=" 460" r=" 1.5"/>
</g>
<path d="M57,466h 453" fill="none" stroke="black"/>
<text x="479" y="486" fill="black" font-size="11" font-family="Helvetica" font-weight="bold">
 (GeV)
</text>
<text x="474" y="493" fill="black" font-size="7" font-family="Helvetica" font-weight="bold">
T
</text>
<text x="464" y="486" fill="black" font-size="11" font-family="Helvetica" font-weight="bold">
 p
</text>
<text x="459" y="486" fill="black" font-size="11" font-family="Times">
&#0947;
</text>
<path d="M57,463v 3" fill="none" stroke="black"/>
<path d="M72,464v 2" fill="none" stroke="black"/>
<path d="M87,464v 2" fill="none" stroke="black"/>
<path d="M102,464v 2" fill="none" stroke="black"/>
<path d="M117,464v 2" fill="none" stroke="black"/>
<path d="M132,463v 3" fill="none" stroke="black"/>
<path d="M147,464v 2" fill="none" stroke="black"/>
<path d="M163,464v 2" fill="none" stroke="black"/>
<path d="M178,464v 2" fill="none" stroke="black"/>
<path d="M193,464v 2" fill="none" stroke="black"/>
<path d="M208,463v 3" fill="none" stroke="black"/>
<path d="M223,464v 2" fill="none" stroke="black"/>
<path d="M238,464v 2" fill="none" stroke="black"/>
<path d="M253,464v 2" fill="none" stroke="black"/>
<path d="M268,464v 2" fill="none" stroke="black"/>
<path d="M283,463v 3" fill="none" stroke="black"/>
<path d="M299,464v 2" fill="none" stroke="black"/>
<path d="M314,464v 2" fill="none" stroke="black"/>
<path d="M329,464v 2" fill="none" stroke="black"/>
<path d="M344,464v 2" fill="none" stroke="black"/>
<path d="M359,463v 3" fill="none" stroke="black"/>
<path d="M374,464v 2" fill="none" stroke="black"/>
<path d="M389,464v 2" fill="none" stroke="black"/>
<path d="M404,464v 2" fill="none" stroke="black"/>
<path d="M420,464v 2" fill="none" stroke="black"/>
<path d="M435,463v 3" fill="none" stroke="black"/>
<path d="M450,464v 2" fill="none" stroke="black"/>
<path d="M465,464v 2" fill="none" stroke="black"/>
<path d="M480,464v 2" fill="none" stroke="black"/>
<path d="M495,464v 2" fill="none" stroke="black"/>
<path d="M510,463v 3" fill="none" stroke="black"/>
<text x="54" y="475" fill="black" font-size="10" font-family="Helvetica" font-weight="bold">
0
</text>
<text x="126" y="475" fill="black" font-size="10" font-family="Helvetica" font-weight="bold">
50
</text>
<text x="200" y="475" fill="black" font-size="10" font-family="Helvetica" font-weight="bold">
100
</text>
<text x="275" y="475" fill="black" font-size="10" font-family="Helvetica" font-weight="bold">
150
</text>
<text x="351" y="475" fill="black" font-size="10" font-family="Helvetica" font-weight="bold">
200
</text>
<text x="426" y="475" fill="black" font-size="10" font-family="Helvetica" font-weight="bold">
250
</text>
<text x="502" y="475" fill="black" font-size="10" font-family="Helvetica" font-weight="bold">
300
</text>
<path d="M57,466v -104" fill="none" stroke="black"/>
<g transform="rotate(-90,34,365)">
<text x="34" y="365" fill="black" font-size="11" font-family="Helvetica" font-weight="bold">
)
</text>
</g>
<g transform="rotate(-90,34,371)">
<text x="34" y="371" fill="black" font-size="11" font-family="Times">
&#0947;
</text>
</g>
<g transform="rotate(-90,34,424)">
<text x="34" y="424" fill="black" font-size="11" font-family="Helvetica" font-weight="bold">
MC(e)/MC(
</text>
</g>
<path d="M69,455h -12" fill="none" stroke="black"/>
<path d="M63,451h -6" fill="none" stroke="black"/>
<path d="M63,448h -6" fill="none" stroke="black"/>
<path d="M63,444h -6" fill="none" stroke="black"/>
<path d="M63,440h -6" fill="none" stroke="black"/>
<path d="M69,436h -12" fill="none" stroke="black"/>
<path d="M63,433h -6" fill="none" stroke="black"/>
<path d="M63,429h -6" fill="none" stroke="black"/>
<path d="M63,425h -6" fill="none" stroke="black"/>
<path d="M63,422h -6" fill="none" stroke="black"/>
<path d="M69,418h -12" fill="none" stroke="black"/>
<path d="M63,414h -6" fill="none" stroke="black"/>
<path d="M63,410h -6" fill="none" stroke="black"/>
<path d="M63,407h -6" fill="none" stroke="black"/>
<path d="M63,403h -6" fill="none" stroke="black"/>
<path d="M69,399h -12" fill="none" stroke="black"/>
<path d="M63,395h -6" fill="none" stroke="black"/>
<path d="M63,392h -6" fill="none" stroke="black"/>
<path d="M63,388h -6" fill="none" stroke="black"/>
<path d="M63,384h -6" fill="none" stroke="black"/>
<path d="M69,381h -12" fill="none" stroke="black"/>
<path d="M63,377h -6" fill="none" stroke="black"/>
<path d="M63,373h -6" fill="none" stroke="black"/>
<path d="M63,369h -6" fill="none" stroke="black"/>
<path d="M63,366h -6" fill="none" stroke="black"/>
<path d="M69,362h -12" fill="none" stroke="black"/>
<path d="M69,455h -12" fill="none" stroke="black"/>
<path d="M63,459h -6" fill="none" stroke="black"/>
<path d="M63,462h -6" fill="none" stroke="black"/>
<path d="M63,466h -6" fill="none" stroke="black"/>
<text x="40" y="459" fill="black" font-size="10" font-family="Helvetica" font-weight="bold">
0.5
</text>
<text x="50" y="440" fill="black" font-size="10" font-family="Helvetica" font-weight="bold">
1
</text>
<text x="40" y="421" fill="black" font-size="10" font-family="Helvetica" font-weight="bold">
1.5
</text>
<text x="48" y="403" fill="black" font-size="10" font-family="Helvetica" font-weight="bold">
2
</text>
<text x="40" y="384" fill="black" font-size="10" font-family="Helvetica" font-weight="bold">
2.5
</text>
<text x="48" y="366" fill="black" font-size="10" font-family="Helvetica" font-weight="bold">
3
</text>
<path d="M57,436h 453" fill="none" stroke="#0000ff" stroke-width="2"/>
<path d="M117,427h 3" fill="none" stroke="#ff0099"/>
<path d="M122,427h 3" fill="none" stroke="#ff0099"/>
<g stroke="#ff0099" stroke-width="1" fill="#ff0099">
<circle cx=" 121" cy=" 427" r=" 1.5"/>
</g>
<path d="M125,429h 2" fill="none" stroke="#ff0099"/>
<path d="M130,429h 2" fill="none" stroke="#ff0099"/>
<g stroke="#ff0099" stroke-width="1" fill="#ff0099">
<circle cx=" 129" cy=" 429" r=" 1.5"/>
</g>
<path d="M132,448h 3" fill="none" stroke="#ff0099"/>
<path d="M137,448h 3" fill="none" stroke="#ff0099"/>
<g stroke="#ff0099" stroke-width="1" fill="#ff0099">
<circle cx=" 136" cy=" 448" r=" 1.5"/>
</g>
<path d="M140,456h 2" fill="none" stroke="#ff0099"/>
<path d="M145,456h 2" fill="none" stroke="#ff0099"/>
<g stroke="#ff0099" stroke-width="1" fill="#ff0099">
<circle cx=" 144" cy=" 456" r=" 1.5"/>
</g>
<path d="M147,460h 3" fill="none" stroke="#ff0099"/>
<path d="M152,460h 3" fill="none" stroke="#ff0099"/>
<g stroke="#ff0099" stroke-width="1" fill="#ff0099">
<circle cx=" 151" cy=" 460" r=" 1.5"/>
</g></svg>
