<?xml version="1.0" standalone="no"?>
<svg width="567" height="496" viewBox="0 0 567 496" xmlns="http://www.w3.org/2000/svg">
<title>
plots_mcZee_mcGJet//hlt90//etaPhotEE.svg
</title>
<desc>
Creator: ROOT Version 5.32/00
CreationDate: Sat Nov 29 19:52:16 2014</desc>
<defs>
</defs>
<rect x="0" y="0" width="567" height="496" fill="white"/>
<rect x="74" y="44" width="453" height="402" fill="white"/>
<rect x="74" y="44" width="453" height="402" fill="none" stroke="black"/>
<rect x="74" y="44" width="453" height="402" fill="white"/>
<rect x="74" y="44" width="453" height="402" fill="none" stroke="black"/>
<path d="M115,308v -6" fill="none" stroke="#ff0099"/>
<path d="M115,299v -6" fill="none" stroke="#ff0099"/>
<path d="M111,301h 3" fill="none" stroke="#ff0099"/>
<path d="M116,301h 3" fill="none" stroke="#ff0099"/>
<g stroke="#ff0099" stroke-width="1" fill="#ff0099">
<circle cx=" 115" cy=" 301" r=" 1.5"/>
</g>
<path d="M123,231v -8" fill="none" stroke="#ff0099"/>
<path d="M123,220v -9" fill="none" stroke="#ff0099"/>
<path d="M119,221h 3" fill="none" stroke="#ff0099"/>
<path d="M124,221h 3" fill="none" stroke="#ff0099"/>
<g stroke="#ff0099" stroke-width="1" fill="#ff0099">
<circle cx=" 123" cy=" 221" r=" 1.5"/>
</g>
<path d="M130,194v -12" fill="none" stroke="#ff0099"/>
<path d="M130,180v -11" fill="none" stroke="#ff0099"/>
<path d="M127,181h 2" fill="none" stroke="#ff0099"/>
<path d="M132,181h 2" fill="none" stroke="#ff0099"/>
<g stroke="#ff0099" stroke-width="1" fill="#ff0099">
<circle cx=" 130" cy=" 181" r=" 1.5"/>
</g>
<path d="M138,183v -11" fill="none" stroke="#ff0099"/>
<path d="M138,169v -11" fill="none" stroke="#ff0099"/>
<path d="M134,171h 3" fill="none" stroke="#ff0099"/>
<path d="M139,171h 3" fill="none" stroke="#ff0099"/>
<g stroke="#ff0099" stroke-width="1" fill="#ff0099">
<circle cx=" 138" cy=" 171" r=" 1.5"/>
</g>
<path d="M146,147v -14" fill="none" stroke="#ff0099"/>
<path d="M146,131v -13" fill="none" stroke="#ff0099"/>
<path d="M142,132h 2" fill="none" stroke="#ff0099"/>
<path d="M147,132h 2" fill="none" stroke="#ff0099"/>
<g stroke="#ff0099" stroke-width="1" fill="#ff0099">
<circle cx=" 146" cy=" 132" r=" 1.5"/>
</g>
<path d="M153,96v -15" fill="none" stroke="#ff0099"/>
<path d="M153,79v -16" fill="none" stroke="#ff0099"/>
<path d="M149,80h 3" fill="none" stroke="#ff0099"/>
<path d="M154,80h 3" fill="none" stroke="#ff0099"/>
<g stroke="#ff0099" stroke-width="1" fill="#ff0099">
<circle cx=" 153" cy=" 80" r=" 1.5"/>
</g>
<path d="M161,155v -12" fill="none" stroke="#ff0099"/>
<path d="M161,141v -12" fill="none" stroke="#ff0099"/>
<path d="M157,142h 2" fill="none" stroke="#ff0099"/>
<path d="M162,142h 2" fill="none" stroke="#ff0099"/>
<g stroke="#ff0099" stroke-width="1" fill="#ff0099">
<circle cx=" 161" cy=" 142" r=" 1.5"/>
</g>
<path d="M168,137v -14" fill="none" stroke="#ff0099"/>
<path d="M168,121v -13" fill="none" stroke="#ff0099"/>
<path d="M164,122h 3" fill="none" stroke="#ff0099"/>
<path d="M169,122h 3" fill="none" stroke="#ff0099"/>
<g stroke="#ff0099" stroke-width="1" fill="#ff0099">
<circle cx=" 168" cy=" 122" r=" 1.5"/>
</g>
<path d="M176,109v -17" fill="none" stroke="#ff0099"/>
<path d="M176,90v -18" fill="none" stroke="#ff0099"/>
<path d="M172,91h 3" fill="none" stroke="#ff0099"/>
<path d="M177,91h 3" fill="none" stroke="#ff0099"/>
<g stroke="#ff0099" stroke-width="1" fill="#ff0099">
<circle cx=" 176" cy=" 91" r=" 1.5"/>
</g>
<path d="M183,295v -16" fill="none" stroke="#ff0099"/>
<path d="M183,276v -16" fill="none" stroke="#ff0099"/>
<path d="M180,278h 2" fill="none" stroke="#ff0099"/>
<path d="M184,278h 3" fill="none" stroke="#ff0099"/>
<g stroke="#ff0099" stroke-width="1" fill="#ff0099">
<circle cx=" 183" cy=" 278" r=" 1.5"/>
</g>
<path d="M418,362v -6" fill="none" stroke="#ff0099"/>
<path d="M418,353v -5" fill="none" stroke="#ff0099"/>
<path d="M414,355h 2" fill="none" stroke="#ff0099"/>
<path d="M419,355h 2" fill="none" stroke="#ff0099"/>
<g stroke="#ff0099" stroke-width="1" fill="#ff0099">
<circle cx=" 418" cy=" 355" r=" 1.5"/>
</g>
<path d="M425,157v -16" fill="none" stroke="#ff0099"/>
<path d="M425,139v -16" fill="none" stroke="#ff0099"/>
<path d="M421,140h 3" fill="none" stroke="#ff0099"/>
<path d="M426,140h 3" fill="none" stroke="#ff0099"/>
<g stroke="#ff0099" stroke-width="1" fill="#ff0099">
<circle cx=" 425" cy=" 140" r=" 1.5"/>
</g>
<path d="M433,145v -14" fill="none" stroke="#ff0099"/>
<path d="M433,129v -15" fill="none" stroke="#ff0099"/>
<path d="M429,130h 3" fill="none" stroke="#ff0099"/>
<path d="M434,130h 3" fill="none" stroke="#ff0099"/>
<g stroke="#ff0099" stroke-width="1" fill="#ff0099">
<circle cx=" 433" cy=" 130" r=" 1.5"/>
</g>
<path d="M440,137v -15" fill="none" stroke="#ff0099"/>
<path d="M440,119v -15" fill="none" stroke="#ff0099"/>
<path d="M437,120h 2" fill="none" stroke="#ff0099"/>
<path d="M441,120h 3" fill="none" stroke="#ff0099"/>
<g stroke="#ff0099" stroke-width="1" fill="#ff0099">
<circle cx=" 440" cy=" 120" r=" 1.5"/>
</g>
<path d="M448,114v -15" fill="none" stroke="#ff0099"/>
<path d="M448,97v -15" fill="none" stroke="#ff0099"/>
<path d="M444,98h 3" fill="none" stroke="#ff0099"/>
<path d="M449,98h 3" fill="none" stroke="#ff0099"/>
<g stroke="#ff0099" stroke-width="1" fill="#ff0099">
<circle cx=" 448" cy=" 98" r=" 1.5"/>
</g>
<path d="M455,157v -11" fill="none" stroke="#ff0099"/>
<path d="M455,143v -12" fill="none" stroke="#ff0099"/>
<path d="M452,144h 2" fill="none" stroke="#ff0099"/>
<path d="M457,144h 2" fill="none" stroke="#ff0099"/>
<g stroke="#ff0099" stroke-width="1" fill="#ff0099">
<circle cx=" 455" cy=" 144" r=" 1.5"/>
</g>
<path d="M463,168v -11" fill="none" stroke="#ff0099"/>
<path d="M463,154v -11" fill="none" stroke="#ff0099"/>
<path d="M459,156h 3" fill="none" stroke="#ff0099"/>
<path d="M464,156h 3" fill="none" stroke="#ff0099"/>
<g stroke="#ff0099" stroke-width="1" fill="#ff0099">
<circle cx=" 463" cy=" 156" r=" 1.5"/>
</g>
<path d="M471,219v -9" fill="none" stroke="#ff0099"/>
<path d="M471,208v -10" fill="none" stroke="#ff0099"/>
<path d="M467,209h 2" fill="none" stroke="#ff0099"/>
<path d="M472,209h 2" fill="none" stroke="#ff0099"/>
<g stroke="#ff0099" stroke-width="1" fill="#ff0099">
<circle cx=" 471" cy=" 209" r=" 1.5"/>
</g>
<path d="M478,229v -10" fill="none" stroke="#ff0099"/>
<path d="M478,217v -9" fill="none" stroke="#ff0099"/>
<path d="M474,218h 3" fill="none" stroke="#ff0099"/>
<path d="M479,218h 3" fill="none" stroke="#ff0099"/>
<g stroke="#ff0099" stroke-width="1" fill="#ff0099">
<circle cx=" 478" cy=" 218" r=" 1.5"/>
</g>
<path d="M486,284v -8" fill="none" stroke="#ff0099"/>
<path d="M486,274v -8" fill="none" stroke="#ff0099"/>
<path d="M482,275h 3" fill="none" stroke="#ff0099"/>
<path d="M487,275h 2" fill="none" stroke="#ff0099"/>
<g stroke="#ff0099" stroke-width="1" fill="#ff0099">
<circle cx=" 486" cy=" 275" r=" 1.5"/>
</g>
<path d="M74,446h 453" fill="none" stroke="black"/>
<path d="M74,434v 12" fill="none" stroke="black"/>
<path d="M89,440v 6" fill="none" stroke="black"/>
<path d="M104,440v 6" fill="none" stroke="black"/>
<path d="M119,440v 6" fill="none" stroke="black"/>
<path d="M134,440v 6" fill="none" stroke="black"/>
<path d="M149,434v 12" fill="none" stroke="black"/>
<path d="M164,440v 6" fill="none" stroke="black"/>
<path d="M180,440v 6" fill="none" stroke="black"/>
<path d="M195,440v 6" fill="none" stroke="black"/>
<path d="M210,440v 6" fill="none" stroke="black"/>
<path d="M225,434v 12" fill="none" stroke="black"/>
<path d="M240,440v 6" fill="none" stroke="black"/>
<path d="M255,440v 6" fill="none" stroke="black"/>
<path d="M270,440v 6" fill="none" stroke="black"/>
<path d="M285,440v 6" fill="none" stroke="black"/>
<path d="M300,434v 12" fill="none" stroke="black"/>
<path d="M316,440v 6" fill="none" stroke="black"/>
<path d="M331,440v 6" fill="none" stroke="black"/>
<path d="M346,440v 6" fill="none" stroke="black"/>
<path d="M361,440v 6" fill="none" stroke="black"/>
<path d="M376,434v 12" fill="none" stroke="black"/>
<path d="M391,440v 6" fill="none" stroke="black"/>
<path d="M406,440v 6" fill="none" stroke="black"/>
<path d="M421,440v 6" fill="none" stroke="black"/>
<path d="M437,440v 6" fill="none" stroke="black"/>
<path d="M452,434v 12" fill="none" stroke="black"/>
<path d="M467,440v 6" fill="none" stroke="black"/>
<path d="M482,440v 6" fill="none" stroke="black"/>
<path d="M497,440v 6" fill="none" stroke="black"/>
<path d="M512,440v 6" fill="none" stroke="black"/>
<path d="M527,434v 12" fill="none" stroke="black"/>
<path d="M527,434v 12" fill="none" stroke="black"/>
<text x="65" y="465" fill="black" font-size="18" font-family="Helvetica" font-weight="bold">
-3
</text>
<text x="141" y="465" fill="black" font-size="18" font-family="Helvetica" font-weight="bold">
-2
</text>
<text x="218" y="465" fill="black" font-size="18" font-family="Helvetica" font-weight="bold">
-1
</text>
<text x="295" y="465" fill="black" font-size="18" font-family="Helvetica" font-weight="bold">
0
</text>
<text x="372" y="465" fill="black" font-size="18" font-family="Helvetica" font-weight="bold">
1
</text>
<text x="446" y="465" fill="black" font-size="18" font-family="Helvetica" font-weight="bold">
2
</text>
<text x="522" y="465" fill="black" font-size="18" font-family="Helvetica" font-weight="bold">
3
</text>
<path d="M74,44h 453" fill="none" stroke="black"/>
<path d="M74,56v -12" fill="none" stroke="black"/>
<path d="M89,50v -6" fill="none" stroke="black"/>
<path d="M104,50v -6" fill="none" stroke="black"/>
<path d="M119,50v -6" fill="none" stroke="black"/>
<path d="M134,50v -6" fill="none" stroke="black"/>
<path d="M149,56v -12" fill="none" stroke="black"/>
<path d="M164,50v -6" fill="none" stroke="black"/>
<path d="M180,50v -6" fill="none" stroke="black"/>
<path d="M195,50v -6" fill="none" stroke="black"/>
<path d="M210,50v -6" fill="none" stroke="black"/>
<path d="M225,56v -12" fill="none" stroke="black"/>
<path d="M240,50v -6" fill="none" stroke="black"/>
<path d="M255,50v -6" fill="none" stroke="black"/>
<path d="M270,50v -6" fill="none" stroke="black"/>
<path d="M285,50v -6" fill="none" stroke="black"/>
<path d="M300,56v -12" fill="none" stroke="black"/>
<path d="M316,50v -6" fill="none" stroke="black"/>
<path d="M331,50v -6" fill="none" stroke="black"/>
<path d="M346,50v -6" fill="none" stroke="black"/>
<path d="M361,50v -6" fill="none" stroke="black"/>
<path d="M376,56v -12" fill="none" stroke="black"/>
<path d="M391,50v -6" fill="none" stroke="black"/>
<path d="M406,50v -6" fill="none" stroke="black"/>
<path d="M421,50v -6" fill="none" stroke="black"/>
<path d="M437,50v -6" fill="none" stroke="black"/>
<path d="M452,56v -12" fill="none" stroke="black"/>
<path d="M467,50v -6" fill="none" stroke="black"/>
<path d="M482,50v -6" fill="none" stroke="black"/>
<path d="M497,50v -6" fill="none" stroke="black"/>
<path d="M512,50v -6" fill="none" stroke="black"/>
<path d="M527,56v -12" fill="none" stroke="black"/>
<path d="M527,56v -12" fill="none" stroke="black"/>
<path d="M74,446v -402" fill="none" stroke="black"/>
<path d="M87,446h -13" fill="none" stroke="black"/>
<path d="M81,436h -7" fill="none" stroke="black"/>
<path d="M81,425h -7" fill="none" stroke="black"/>
<path d="M81,414h -7" fill="none" stroke="black"/>
<path d="M81,403h -7" fill="none" stroke="black"/>
<path d="M87,393h -13" fill="none" stroke="black"/>
<path d="M81,382h -7" fill="none" stroke="black"/>
<path d="M81,371h -7" fill="none" stroke="black"/>
<path d="M81,361h -7" fill="none" stroke="black"/>
<path d="M81,350h -7" fill="none" stroke="black"/>
<path d="M87,339h -13" fill="none" stroke="black"/>
<path d="M81,328h -7" fill="none" stroke="black"/>
<path d="M81,318h -7" fill="none" stroke="black"/>
<path d="M81,307h -7" fill="none" stroke="black"/>
<path d="M81,296h -7" fill="none" stroke="black"/>
<path d="M87,285h -13" fill="none" stroke="black"/>
<path d="M81,275h -7" fill="none" stroke="black"/>
<path d="M81,264h -7" fill="none" stroke="black"/>
<path d="M81,253h -7" fill="none" stroke="black"/>
<path d="M81,243h -7" fill="none" stroke="black"/>
<path d="M87,232h -13" fill="none" stroke="black"/>
<path d="M81,221h -7" fill="none" stroke="black"/>
<path d="M81,210h -7" fill="none" stroke="black"/>
<path d="M81,200h -7" fill="none" stroke="black"/>
<path d="M81,189h -7" fill="none" stroke="black"/>
<path d="M87,178h -13" fill="none" stroke="black"/>
<path d="M81,167h -7" fill="none" stroke="black"/>
<path d="M81,157h -7" fill="none" stroke="black"/>
<path d="M81,146h -7" fill="none" stroke="black"/>
<path d="M81,135h -7" fill="none" stroke="black"/>
<path d="M87,125h -13" fill="none" stroke="black"/>
<path d="M81,114h -7" fill="none" stroke="black"/>
<path d="M81,103h -7" fill="none" stroke="black"/>
<path d="M81,92h -7" fill="none" stroke="black"/>
<path d="M81,82h -7" fill="none" stroke="black"/>
<path d="M87,71h -13" fill="none" stroke="black"/>
<path d="M87,71h -13" fill="none" stroke="black"/>
<path d="M81,60h -7" fill="none" stroke="black"/>
<path d="M81,49h -7" fill="none" stroke="black"/>
<text x="61" y="453" fill="black" font-size="18" font-family="Helvetica" font-weight="bold">
0
</text>
<text x="37" y="399" fill="black" font-size="18" font-family="Helvetica" font-weight="bold">
0.01
</text>
<text x="35" y="346" fill="black" font-size="18" font-family="Helvetica" font-weight="bold">
0.02
</text>
<text x="35" y="292" fill="black" font-size="18" font-family="Helvetica" font-weight="bold">
0.03
</text>
<text x="34" y="238" fill="black" font-size="18" font-family="Helvetica" font-weight="bold">
0.04
</text>
<text x="34" y="185" fill="black" font-size="18" font-family="Helvetica" font-weight="bold">
0.05
</text>
<text x="34" y="131" fill="black" font-size="18" font-family="Helvetica" font-weight="bold">
0.06
</text>
<text x="35" y="78" fill="black" font-size="18" font-family="Helvetica" font-weight="bold">
0.07
</text>
<path d="M115,240v -3" fill="none" stroke="#99ff99" stroke-width="2"/>
<path d="M115,237v -3" fill="none" stroke="#99ff99" stroke-width="2"/>
<g stroke="black" stroke-width="2" fill="none">
<line x1="114" y1="237" x2="115" y2="237"/>
</g>
<path d="M123,194v -5" fill="none" stroke="#99ff99" stroke-width="2"/>
<path d="M123,189v -4" fill="none" stroke="#99ff99" stroke-width="2"/>
<g stroke="black" stroke-width="2" fill="none">
<line x1="122" y1="189" x2="123" y2="189"/>
</g>
<path d="M130,172v -10" fill="none" stroke="#99ff99" stroke-width="2"/>
<path d="M130,162v -9" fill="none" stroke="#99ff99" stroke-width="2"/>
<g stroke="black" stroke-width="2" fill="none">
<line x1="129" y1="162" x2="130" y2="162"/>
</g>
<path d="M138,167v -5" fill="none" stroke="#99ff99" stroke-width="2"/>
<path d="M138,162v -4" fill="none" stroke="#99ff99" stroke-width="2"/>
<g stroke="black" stroke-width="2" fill="none">
<line x1="137" y1="162" x2="138" y2="162"/>
</g>
<path d="M146,153v -5" fill="none" stroke="#99ff99" stroke-width="2"/>
<path d="M146,148v -5" fill="none" stroke="#99ff99" stroke-width="2"/>
<g stroke="black" stroke-width="2" fill="none">
<line x1="145" y1="148" x2="146" y2="148"/>
</g>
<path d="M153,139v -5" fill="none" stroke="#99ff99" stroke-width="2"/>
<path d="M153,134v -5" fill="none" stroke="#99ff99" stroke-width="2"/>
<g stroke="black" stroke-width="2" fill="none">
<line x1="152" y1="134" x2="153" y2="134"/>
</g>
<path d="M161,152v -5" fill="none" stroke="#99ff99" stroke-width="2"/>
<path d="M161,147v -4" fill="none" stroke="#99ff99" stroke-width="2"/>
<g stroke="black" stroke-width="2" fill="none">
<line x1="160" y1="147" x2="161" y2="147"/>
</g>
<path d="M168,135v -11" fill="none" stroke="#99ff99" stroke-width="2"/>
<path d="M168,124v -10" fill="none" stroke="#99ff99" stroke-width="2"/>
<g stroke="black" stroke-width="2" fill="none">
<line x1="167" y1="124" x2="168" y2="124"/>
</g>
<path d="M176,139v -4" fill="none" stroke="#99ff99" stroke-width="2"/>
<path d="M176,135v -5" fill="none" stroke="#99ff99" stroke-width="2"/>
<g stroke="black" stroke-width="2" fill="none">
<line x1="175" y1="135" x2="176" y2="135"/>
</g>
<path d="M183,350v -3" fill="none" stroke="#99ff99" stroke-width="2"/>
<path d="M183,347v -3" fill="none" stroke="#99ff99" stroke-width="2"/>
<g stroke="black" stroke-width="2" fill="none">
<line x1="182" y1="347" x2="183" y2="347"/>
</g>
<path d="M418,352v -3" fill="none" stroke="#99ff99" stroke-width="2"/>
<path d="M418,349v -3" fill="none" stroke="#99ff99" stroke-width="2"/>
<g stroke="black" stroke-width="2" fill="none">
<line x1="417" y1="349" x2="418" y2="349"/>
</g>
<path d="M425,158v -4" fill="none" stroke="#99ff99" stroke-width="2"/>
<path d="M425,154v -5" fill="none" stroke="#99ff99" stroke-width="2"/>
<g stroke="black" stroke-width="2" fill="none">
<line x1="424" y1="154" x2="425" y2="154"/>
</g>
<path d="M433,158v -5" fill="none" stroke="#99ff99" stroke-width="2"/>
<path d="M433,153v -4" fill="none" stroke="#99ff99" stroke-width="2"/>
<g stroke="black" stroke-width="2" fill="none">
<line x1="432" y1="153" x2="433" y2="153"/>
</g>
<path d="M440,145v -5" fill="none" stroke="#99ff99" stroke-width="2"/>
<path d="M440,140v -5" fill="none" stroke="#99ff99" stroke-width="2"/>
<g stroke="black" stroke-width="2" fill="none">
<line x1="439" y1="140" x2="440" y2="140"/>
</g>
<path d="M448,137v -5" fill="none" stroke="#99ff99" stroke-width="2"/>
<path d="M448,132v -4" fill="none" stroke="#99ff99" stroke-width="2"/>
<g stroke="black" stroke-width="2" fill="none">
<line x1="447" y1="132" x2="448" y2="132"/>
</g>
<path d="M455,143v -5" fill="none" stroke="#99ff99" stroke-width="2"/>
<path d="M455,138v -5" fill="none" stroke="#99ff99" stroke-width="2"/>
<g stroke="black" stroke-width="2" fill="none">
<line x1="454" y1="138" x2="455" y2="138"/>
</g>
<path d="M463,161v -12" fill="none" stroke="#99ff99" stroke-width="2"/>
<path d="M463,149v -12" fill="none" stroke="#99ff99" stroke-width="2"/>
<g stroke="black" stroke-width="2" fill="none">
<line x1="462" y1="149" x2="463" y2="149"/>
</g>
<path d="M471,166v -5" fill="none" stroke="#99ff99" stroke-width="2"/>
<path d="M471,161v -5" fill="none" stroke="#99ff99" stroke-width="2"/>
<g stroke="black" stroke-width="2" fill="none">
<line x1="470" y1="161" x2="471" y2="161"/>
</g>
<path d="M478,176v -11" fill="none" stroke="#99ff99" stroke-width="2"/>
<path d="M478,165v -11" fill="none" stroke="#99ff99" stroke-width="2"/>
<g stroke="black" stroke-width="2" fill="none">
<line x1="477" y1="165" x2="478" y2="165"/>
</g>
<path d="M486,238v -3" fill="none" stroke="#99ff99" stroke-width="2"/>
<path d="M486,235v -3" fill="none" stroke="#99ff99" stroke-width="2"/>
<g stroke="black" stroke-width="2" fill="none">
<line x1="485" y1="235" x2="486" y2="235"/>
</g>
<path d="M74,446h 37v -209h 8v -48h 8v -27h 15v -14h 7v -14h 8v 13h 7v -23h 8v 11h 8v 212h 7v 99h 227v -97h 7v -195h 8v -1h 8v -13h 7v -8h 8v 6h 7v 11h 8v 12h 7v 4h 8v 70h 7v 211h 38z" fill="#99ff99"/>
<path d="M74,446h 37v -209h 8v -48h 8v -27h 15v -14h 7v -14h 8v 13h 7v -23h 8v 11h 8v 212h 7v 99h 227v -97h 7v -195h 8v -1h 8v -13h 7v -8h 8v 6h 7v 11h 8v 12h 7v 4h 8v 70h 7v 211h 38" fill="none" stroke="#99ff99" stroke-width="2"/>
<path d="M115,308v -6" fill="none" stroke="#ff0099"/>
<path d="M115,299v -6" fill="none" stroke="#ff0099"/>
<path d="M111,301h 3" fill="none" stroke="#ff0099"/>
<path d="M116,301h 3" fill="none" stroke="#ff0099"/>
<g stroke="#ff0099" stroke-width="1" fill="#ff0099">
<circle cx=" 115" cy=" 301" r=" 1.5"/>
</g>
<path d="M123,231v -8" fill="none" stroke="#ff0099"/>
<path d="M123,220v -9" fill="none" stroke="#ff0099"/>
<path d="M119,221h 3" fill="none" stroke="#ff0099"/>
<path d="M124,221h 3" fill="none" stroke="#ff0099"/>
<g stroke="#ff0099" stroke-width="1" fill="#ff0099">
<circle cx=" 123" cy=" 221" r=" 1.5"/>
</g>
<path d="M130,194v -12" fill="none" stroke="#ff0099"/>
<path d="M130,180v -11" fill="none" stroke="#ff0099"/>
<path d="M127,181h 2" fill="none" stroke="#ff0099"/>
<path d="M132,181h 2" fill="none" stroke="#ff0099"/>
<g stroke="#ff0099" stroke-width="1" fill="#ff0099">
<circle cx=" 130" cy=" 181" r=" 1.5"/>
</g>
<path d="M138,183v -11" fill="none" stroke="#ff0099"/>
<path d="M138,169v -11" fill="none" stroke="#ff0099"/>
<path d="M134,171h 3" fill="none" stroke="#ff0099"/>
<path d="M139,171h 3" fill="none" stroke="#ff0099"/>
<g stroke="#ff0099" stroke-width="1" fill="#ff0099">
<circle cx=" 138" cy=" 171" r=" 1.5"/>
</g>
<path d="M146,147v -14" fill="none" stroke="#ff0099"/>
<path d="M146,131v -13" fill="none" stroke="#ff0099"/>
<path d="M142,132h 2" fill="none" stroke="#ff0099"/>
<path d="M147,132h 2" fill="none" stroke="#ff0099"/>
<g stroke="#ff0099" stroke-width="1" fill="#ff0099">
<circle cx=" 146" cy=" 132" r=" 1.5"/>
</g>
<path d="M153,96v -15" fill="none" stroke="#ff0099"/>
<path d="M153,79v -16" fill="none" stroke="#ff0099"/>
<path d="M149,80h 3" fill="none" stroke="#ff0099"/>
<path d="M154,80h 3" fill="none" stroke="#ff0099"/>
<g stroke="#ff0099" stroke-width="1" fill="#ff0099">
<circle cx=" 153" cy=" 80" r=" 1.5"/>
</g>
<path d="M161,155v -12" fill="none" stroke="#ff0099"/>
<path d="M161,141v -12" fill="none" stroke="#ff0099"/>
<path d="M157,142h 2" fill="none" stroke="#ff0099"/>
<path d="M162,142h 2" fill="none" stroke="#ff0099"/>
<g stroke="#ff0099" stroke-width="1" fill="#ff0099">
<circle cx=" 161" cy=" 142" r=" 1.5"/>
</g>
<path d="M168,137v -14" fill="none" stroke="#ff0099"/>
<path d="M168,121v -13" fill="none" stroke="#ff0099"/>
<path d="M164,122h 3" fill="none" stroke="#ff0099"/>
<path d="M169,122h 3" fill="none" stroke="#ff0099"/>
<g stroke="#ff0099" stroke-width="1" fill="#ff0099">
<circle cx=" 168" cy=" 122" r=" 1.5"/>
</g>
<path d="M176,109v -17" fill="none" stroke="#ff0099"/>
<path d="M176,90v -18" fill="none" stroke="#ff0099"/>
<path d="M172,91h 3" fill="none" stroke="#ff0099"/>
<path d="M177,91h 3" fill="none" stroke="#ff0099"/>
<g stroke="#ff0099" stroke-width="1" fill="#ff0099">
<circle cx=" 176" cy=" 91" r=" 1.5"/>
</g>
<path d="M183,295v -16" fill="none" stroke="#ff0099"/>
<path d="M183,276v -16" fill="none" stroke="#ff0099"/>
<path d="M180,278h 2" fill="none" stroke="#ff0099"/>
<path d="M184,278h 3" fill="none" stroke="#ff0099"/>
<g stroke="#ff0099" stroke-width="1" fill="#ff0099">
<circle cx=" 183" cy=" 278" r=" 1.5"/>
</g>
<path d="M418,362v -6" fill="none" stroke="#ff0099"/>
<path d="M418,353v -5" fill="none" stroke="#ff0099"/>
<path d="M414,355h 2" fill="none" stroke="#ff0099"/>
<path d="M419,355h 2" fill="none" stroke="#ff0099"/>
<g stroke="#ff0099" stroke-width="1" fill="#ff0099">
<circle cx=" 418" cy=" 355" r=" 1.5"/>
</g>
<path d="M425,157v -16" fill="none" stroke="#ff0099"/>
<path d="M425,139v -16" fill="none" stroke="#ff0099"/>
<path d="M421,140h 3" fill="none" stroke="#ff0099"/>
<path d="M426,140h 3" fill="none" stroke="#ff0099"/>
<g stroke="#ff0099" stroke-width="1" fill="#ff0099">
<circle cx=" 425" cy=" 140" r=" 1.5"/>
</g>
<path d="M433,145v -14" fill="none" stroke="#ff0099"/>
<path d="M433,129v -15" fill="none" stroke="#ff0099"/>
<path d="M429,130h 3" fill="none" stroke="#ff0099"/>
<path d="M434,130h 3" fill="none" stroke="#ff0099"/>
<g stroke="#ff0099" stroke-width="1" fill="#ff0099">
<circle cx=" 433" cy=" 130" r=" 1.5"/>
</g>
<path d="M440,137v -15" fill="none" stroke="#ff0099"/>
<path d="M440,119v -15" fill="none" stroke="#ff0099"/>
<path d="M437,120h 2" fill="none" stroke="#ff0099"/>
<path d="M441,120h 3" fill="none" stroke="#ff0099"/>
<g stroke="#ff0099" stroke-width="1" fill="#ff0099">
<circle cx=" 440" cy=" 120" r=" 1.5"/>
</g>
<path d="M448,114v -15" fill="none" stroke="#ff0099"/>
<path d="M448,97v -15" fill="none" stroke="#ff0099"/>
<path d="M444,98h 3" fill="none" stroke="#ff0099"/>
<path d="M449,98h 3" fill="none" stroke="#ff0099"/>
<g stroke="#ff0099" stroke-width="1" fill="#ff0099">
<circle cx=" 448" cy=" 98" r=" 1.5"/>
</g>
<path d="M455,157v -11" fill="none" stroke="#ff0099"/>
<path d="M455,143v -12" fill="none" stroke="#ff0099"/>
<path d="M452,144h 2" fill="none" stroke="#ff0099"/>
<path d="M457,144h 2" fill="none" stroke="#ff0099"/>
<g stroke="#ff0099" stroke-width="1" fill="#ff0099">
<circle cx=" 455" cy=" 144" r=" 1.5"/>
</g>
<path d="M463,168v -11" fill="none" stroke="#ff0099"/>
<path d="M463,154v -11" fill="none" stroke="#ff0099"/>
<path d="M459,156h 3" fill="none" stroke="#ff0099"/>
<path d="M464,156h 3" fill="none" stroke="#ff0099"/>
<g stroke="#ff0099" stroke-width="1" fill="#ff0099">
<circle cx=" 463" cy=" 156" r=" 1.5"/>
</g>
<path d="M471,219v -9" fill="none" stroke="#ff0099"/>
<path d="M471,208v -10" fill="none" stroke="#ff0099"/>
<path d="M467,209h 2" fill="none" stroke="#ff0099"/>
<path d="M472,209h 2" fill="none" stroke="#ff0099"/>
<g stroke="#ff0099" stroke-width="1" fill="#ff0099">
<circle cx=" 471" cy=" 209" r=" 1.5"/>
</g>
<path d="M478,229v -10" fill="none" stroke="#ff0099"/>
<path d="M478,217v -9" fill="none" stroke="#ff0099"/>
<path d="M474,218h 3" fill="none" stroke="#ff0099"/>
<path d="M479,218h 3" fill="none" stroke="#ff0099"/>
<g stroke="#ff0099" stroke-width="1" fill="#ff0099">
<circle cx=" 478" cy=" 218" r=" 1.5"/>
</g>
<path d="M486,284v -8" fill="none" stroke="#ff0099"/>
<path d="M486,274v -8" fill="none" stroke="#ff0099"/>
<path d="M482,275h 3" fill="none" stroke="#ff0099"/>
<path d="M487,275h 2" fill="none" stroke="#ff0099"/>
<g stroke="#ff0099" stroke-width="1" fill="#ff0099">
<circle cx=" 486" cy=" 275" r=" 1.5"/>
</g>
<rect x="357" y="59" width="142" height="99" fill="white"/>
<text x="360" y="82" fill="black" font-size="17" font-family="Helvetica" font-weight="bold">
EE
</text>
<text x="457" y="115" fill="black" font-size="17" font-family="Helvetica" font-weight="bold">
 ee
</text>
<text x="440" y="115" fill="black" font-size="17" font-family="Times">
&#8594;
</text>
<text x="392" y="115" fill="black" font-size="17" font-family="Helvetica" font-weight="bold">
MC Z 
</text>
<path d="M362,109h 25" fill="none" stroke="#ff0099"/>
<g stroke="#ff0099" stroke-width="1" fill="#ff0099">
<circle cx=" 375" cy=" 109" r=" 1.5"/>
</g>
<text x="455" y="147" fill="black" font-size="17" font-family="Helvetica" font-weight="bold">
 + jet
</text>
<text x="447" y="147" fill="black" font-size="17" font-family="Times">
&#0947;
</text>
<text x="392" y="147" fill="black" font-size="17" font-family="Helvetica" font-weight="bold">
signal 
</text>
<path d="M362,154h 25v -24h -25z" fill="#99ff99"/>
<path d="M362,130h 25" fill="none" stroke="#99ff99" stroke-width="2"/>
<path d="M362,154h 25" fill="none" stroke="#99ff99" stroke-width="2"/>
<path d="M387,154v -24" fill="none" stroke="#99ff99" stroke-width="2"/>
<path d="M362,154v -24" fill="none" stroke="#99ff99" stroke-width="2"/>
<text x="300" y="34" fill="black" font-size="17" font-family="Helvetica" font-weight="bold">
=8 TeV
</text>
<text x="291" y="34" fill="black" font-size="17" font-family="Helvetica" font-weight="bold">
s
</text>
<path d="M285,25l 2, 10" fill="none" stroke="black" stroke-width="2"/>
<path d="M287,35l 2, -14" fill="none" stroke="black"/>
<path d="M289,21h 11" fill="none" stroke="black"/>
<text x="142" y="34" fill="black" font-size="17" font-family="Helvetica" font-weight="bold">
CMS Preliminary 
</text></svg>
