<?xml version="1.0" standalone="no"?>
<svg width="567" height="496" viewBox="0 0 567 496" xmlns="http://www.w3.org/2000/svg">
<title>
../src/TagAndProbeZ/plots_dataZee_mcGJet_withEtaR9rhoReweight/hlt30//etaPhotEE.svg
</title>
<desc>
Creator: ROOT Version 5.32/00
CreationDate: Tue Dec  2 08:44:57 2014</desc>
<defs>
</defs>
<rect x="0" y="0" width="567" height="496" fill="white"/>
<rect x="74" y="44" width="453" height="402" fill="white"/>
<rect x="74" y="44" width="453" height="402" fill="none" stroke="black"/>
<rect x="74" y="44" width="453" height="402" fill="white"/>
<rect x="74" y="44" width="453" height="402" fill="none" stroke="black"/>
<path d="M111,443h 3" fill="none" stroke="#ff0099"/>
<path d="M116,443h 3" fill="none" stroke="#ff0099"/>
<g stroke="#ff0099" stroke-width="1" fill="#ff0099">
<circle cx=" 115" cy=" 443" r=" 1.5"/>
</g>
<path d="M119,442h 3" fill="none" stroke="#ff0099"/>
<path d="M124,442h 3" fill="none" stroke="#ff0099"/>
<g stroke="#ff0099" stroke-width="1" fill="#ff0099">
<circle cx=" 123" cy=" 442" r=" 1.5"/>
</g>
<path d="M127,442h 2" fill="none" stroke="#ff0099"/>
<path d="M132,442h 2" fill="none" stroke="#ff0099"/>
<g stroke="#ff0099" stroke-width="1" fill="#ff0099">
<circle cx=" 130" cy=" 442" r=" 1.5"/>
</g>
<path d="M134,441h 3" fill="none" stroke="#ff0099"/>
<path d="M139,441h 3" fill="none" stroke="#ff0099"/>
<g stroke="#ff0099" stroke-width="1" fill="#ff0099">
<circle cx=" 138" cy=" 441" r=" 1.5"/>
</g>
<path d="M142,441h 2" fill="none" stroke="#ff0099"/>
<path d="M147,441h 2" fill="none" stroke="#ff0099"/>
<g stroke="#ff0099" stroke-width="1" fill="#ff0099">
<circle cx=" 146" cy=" 441" r=" 1.5"/>
</g>
<path d="M153,86v -2" fill="none" stroke="#ff0099"/>
<path d="M153,82v -3" fill="none" stroke="#ff0099"/>
<path d="M149,83h 3" fill="none" stroke="#ff0099"/>
<path d="M154,83h 3" fill="none" stroke="#ff0099"/>
<g stroke="#ff0099" stroke-width="1" fill="#ff0099">
<circle cx=" 153" cy=" 83" r=" 1.5"/>
</g>
<path d="M161,114v -2" fill="none" stroke="#ff0099"/>
<path d="M161,110v -3" fill="none" stroke="#ff0099"/>
<path d="M157,111h 2" fill="none" stroke="#ff0099"/>
<path d="M162,111h 2" fill="none" stroke="#ff0099"/>
<g stroke="#ff0099" stroke-width="1" fill="#ff0099">
<circle cx=" 161" cy=" 111" r=" 1.5"/>
</g>
<path d="M168,121v -2" fill="none" stroke="#ff0099"/>
<path d="M168,117v -2" fill="none" stroke="#ff0099"/>
<path d="M164,118h 3" fill="none" stroke="#ff0099"/>
<path d="M169,118h 3" fill="none" stroke="#ff0099"/>
<g stroke="#ff0099" stroke-width="1" fill="#ff0099">
<circle cx=" 168" cy=" 118" r=" 1.5"/>
</g>
<path d="M176,72v -3" fill="none" stroke="#ff0099"/>
<path d="M176,67v -4" fill="none" stroke="#ff0099"/>
<path d="M172,68h 3" fill="none" stroke="#ff0099"/>
<path d="M177,68h 3" fill="none" stroke="#ff0099"/>
<g stroke="#ff0099" stroke-width="1" fill="#ff0099">
<circle cx=" 176" cy=" 68" r=" 1.5"/>
</g>
<path d="M183,308v -2" fill="none" stroke="#ff0099"/>
<path d="M183,304v -2" fill="none" stroke="#ff0099"/>
<path d="M180,305h 2" fill="none" stroke="#ff0099"/>
<path d="M184,305h 3" fill="none" stroke="#ff0099"/>
<g stroke="#ff0099" stroke-width="1" fill="#ff0099">
<circle cx=" 183" cy=" 305" r=" 1.5"/>
</g>
<path d="M418,311v -2" fill="none" stroke="#ff0099"/>
<path d="M418,307v -2" fill="none" stroke="#ff0099"/>
<path d="M414,308h 2" fill="none" stroke="#ff0099"/>
<path d="M419,308h 2" fill="none" stroke="#ff0099"/>
<g stroke="#ff0099" stroke-width="1" fill="#ff0099">
<circle cx=" 418" cy=" 308" r=" 1.5"/>
</g>
<path d="M425,82v -4" fill="none" stroke="#ff0099"/>
<path d="M425,76v -3" fill="none" stroke="#ff0099"/>
<path d="M421,77h 3" fill="none" stroke="#ff0099"/>
<path d="M426,77h 3" fill="none" stroke="#ff0099"/>
<g stroke="#ff0099" stroke-width="1" fill="#ff0099">
<circle cx=" 425" cy=" 77" r=" 1.5"/>
</g>
<path d="M433,121v -2" fill="none" stroke="#ff0099"/>
<path d="M433,117v -2" fill="none" stroke="#ff0099"/>
<path d="M429,118h 3" fill="none" stroke="#ff0099"/>
<path d="M434,118h 3" fill="none" stroke="#ff0099"/>
<g stroke="#ff0099" stroke-width="1" fill="#ff0099">
<circle cx=" 433" cy=" 118" r=" 1.5"/>
</g>
<path d="M440,122v -2" fill="none" stroke="#ff0099"/>
<path d="M440,118v -2" fill="none" stroke="#ff0099"/>
<path d="M437,119h 2" fill="none" stroke="#ff0099"/>
<path d="M441,119h 3" fill="none" stroke="#ff0099"/>
<g stroke="#ff0099" stroke-width="1" fill="#ff0099">
<circle cx=" 440" cy=" 119" r=" 1.5"/>
</g>
<path d="M448,79v -2" fill="none" stroke="#ff0099"/>
<path d="M448,74v -2" fill="none" stroke="#ff0099"/>
<path d="M444,76h 3" fill="none" stroke="#ff0099"/>
<path d="M449,76h 3" fill="none" stroke="#ff0099"/>
<g stroke="#ff0099" stroke-width="1" fill="#ff0099">
<circle cx=" 448" cy=" 76" r=" 1.5"/>
</g>
<path d="M452,441h 2" fill="none" stroke="#ff0099"/>
<path d="M457,441h 2" fill="none" stroke="#ff0099"/>
<g stroke="#ff0099" stroke-width="1" fill="#ff0099">
<circle cx=" 455" cy=" 441" r=" 1.5"/>
</g>
<path d="M459,441h 3" fill="none" stroke="#ff0099"/>
<path d="M464,441h 3" fill="none" stroke="#ff0099"/>
<g stroke="#ff0099" stroke-width="1" fill="#ff0099">
<circle cx=" 463" cy=" 441" r=" 1.5"/>
</g>
<path d="M467,442h 2" fill="none" stroke="#ff0099"/>
<path d="M472,442h 2" fill="none" stroke="#ff0099"/>
<g stroke="#ff0099" stroke-width="1" fill="#ff0099">
<circle cx=" 471" cy=" 442" r=" 1.5"/>
</g>
<path d="M474,442h 3" fill="none" stroke="#ff0099"/>
<path d="M479,442h 3" fill="none" stroke="#ff0099"/>
<g stroke="#ff0099" stroke-width="1" fill="#ff0099">
<circle cx=" 478" cy=" 442" r=" 1.5"/>
</g>
<path d="M482,443h 3" fill="none" stroke="#ff0099"/>
<path d="M487,443h 2" fill="none" stroke="#ff0099"/>
<g stroke="#ff0099" stroke-width="1" fill="#ff0099">
<circle cx=" 486" cy=" 443" r=" 1.5"/>
</g>
<path d="M74,446h 453" fill="none" stroke="black"/>
<path d="M74,434v 12" fill="none" stroke="black"/>
<path d="M89,440v 6" fill="none" stroke="black"/>
<path d="M104,440v 6" fill="none" stroke="black"/>
<path d="M119,440v 6" fill="none" stroke="black"/>
<path d="M134,440v 6" fill="none" stroke="black"/>
<path d="M149,434v 12" fill="none" stroke="black"/>
<path d="M164,440v 6" fill="none" stroke="black"/>
<path d="M180,440v 6" fill="none" stroke="black"/>
<path d="M195,440v 6" fill="none" stroke="black"/>
<path d="M210,440v 6" fill="none" stroke="black"/>
<path d="M225,434v 12" fill="none" stroke="black"/>
<path d="M240,440v 6" fill="none" stroke="black"/>
<path d="M255,440v 6" fill="none" stroke="black"/>
<path d="M270,440v 6" fill="none" stroke="black"/>
<path d="M285,440v 6" fill="none" stroke="black"/>
<path d="M300,434v 12" fill="none" stroke="black"/>
<path d="M316,440v 6" fill="none" stroke="black"/>
<path d="M331,440v 6" fill="none" stroke="black"/>
<path d="M346,440v 6" fill="none" stroke="black"/>
<path d="M361,440v 6" fill="none" stroke="black"/>
<path d="M376,434v 12" fill="none" stroke="black"/>
<path d="M391,440v 6" fill="none" stroke="black"/>
<path d="M406,440v 6" fill="none" stroke="black"/>
<path d="M421,440v 6" fill="none" stroke="black"/>
<path d="M437,440v 6" fill="none" stroke="black"/>
<path d="M452,434v 12" fill="none" stroke="black"/>
<path d="M467,440v 6" fill="none" stroke="black"/>
<path d="M482,440v 6" fill="none" stroke="black"/>
<path d="M497,440v 6" fill="none" stroke="black"/>
<path d="M512,440v 6" fill="none" stroke="black"/>
<path d="M527,434v 12" fill="none" stroke="black"/>
<path d="M527,434v 12" fill="none" stroke="black"/>
<text x="65" y="465" fill="black" font-size="18" font-family="Helvetica" font-weight="bold">
-3
</text>
<text x="141" y="465" fill="black" font-size="18" font-family="Helvetica" font-weight="bold">
-2
</text>
<text x="218" y="465" fill="black" font-size="18" font-family="Helvetica" font-weight="bold">
-1
</text>
<text x="295" y="465" fill="black" font-size="18" font-family="Helvetica" font-weight="bold">
0
</text>
<text x="372" y="465" fill="black" font-size="18" font-family="Helvetica" font-weight="bold">
1
</text>
<text x="446" y="465" fill="black" font-size="18" font-family="Helvetica" font-weight="bold">
2
</text>
<text x="522" y="465" fill="black" font-size="18" font-family="Helvetica" font-weight="bold">
3
</text>
<path d="M74,44h 453" fill="none" stroke="black"/>
<path d="M74,56v -12" fill="none" stroke="black"/>
<path d="M89,50v -6" fill="none" stroke="black"/>
<path d="M104,50v -6" fill="none" stroke="black"/>
<path d="M119,50v -6" fill="none" stroke="black"/>
<path d="M134,50v -6" fill="none" stroke="black"/>
<path d="M149,56v -12" fill="none" stroke="black"/>
<path d="M164,50v -6" fill="none" stroke="black"/>
<path d="M180,50v -6" fill="none" stroke="black"/>
<path d="M195,50v -6" fill="none" stroke="black"/>
<path d="M210,50v -6" fill="none" stroke="black"/>
<path d="M225,56v -12" fill="none" stroke="black"/>
<path d="M240,50v -6" fill="none" stroke="black"/>
<path d="M255,50v -6" fill="none" stroke="black"/>
<path d="M270,50v -6" fill="none" stroke="black"/>
<path d="M285,50v -6" fill="none" stroke="black"/>
<path d="M300,56v -12" fill="none" stroke="black"/>
<path d="M316,50v -6" fill="none" stroke="black"/>
<path d="M331,50v -6" fill="none" stroke="black"/>
<path d="M346,50v -6" fill="none" stroke="black"/>
<path d="M361,50v -6" fill="none" stroke="black"/>
<path d="M376,56v -12" fill="none" stroke="black"/>
<path d="M391,50v -6" fill="none" stroke="black"/>
<path d="M406,50v -6" fill="none" stroke="black"/>
<path d="M421,50v -6" fill="none" stroke="black"/>
<path d="M437,50v -6" fill="none" stroke="black"/>
<path d="M452,56v -12" fill="none" stroke="black"/>
<path d="M467,50v -6" fill="none" stroke="black"/>
<path d="M482,50v -6" fill="none" stroke="black"/>
<path d="M497,50v -6" fill="none" stroke="black"/>
<path d="M512,50v -6" fill="none" stroke="black"/>
<path d="M527,56v -12" fill="none" stroke="black"/>
<path d="M527,56v -12" fill="none" stroke="black"/>
<path d="M74,446v -402" fill="none" stroke="black"/>
<path d="M87,446h -13" fill="none" stroke="black"/>
<path d="M81,431h -7" fill="none" stroke="black"/>
<path d="M81,415h -7" fill="none" stroke="black"/>
<path d="M81,399h -7" fill="none" stroke="black"/>
<path d="M87,384h -13" fill="none" stroke="black"/>
<path d="M81,368h -7" fill="none" stroke="black"/>
<path d="M81,353h -7" fill="none" stroke="black"/>
<path d="M81,337h -7" fill="none" stroke="black"/>
<path d="M87,321h -13" fill="none" stroke="black"/>
<path d="M81,306h -7" fill="none" stroke="black"/>
<path d="M81,290h -7" fill="none" stroke="black"/>
<path d="M81,274h -7" fill="none" stroke="black"/>
<path d="M87,259h -13" fill="none" stroke="black"/>
<path d="M81,243h -7" fill="none" stroke="black"/>
<path d="M81,227h -7" fill="none" stroke="black"/>
<path d="M81,212h -7" fill="none" stroke="black"/>
<path d="M87,196h -13" fill="none" stroke="black"/>
<path d="M81,181h -7" fill="none" stroke="black"/>
<path d="M81,165h -7" fill="none" stroke="black"/>
<path d="M81,149h -7" fill="none" stroke="black"/>
<path d="M87,134h -13" fill="none" stroke="black"/>
<path d="M81,118h -7" fill="none" stroke="black"/>
<path d="M81,102h -7" fill="none" stroke="black"/>
<path d="M81,87h -7" fill="none" stroke="black"/>
<path d="M87,71h -13" fill="none" stroke="black"/>
<path d="M87,71h -13" fill="none" stroke="black"/>
<path d="M81,55h -7" fill="none" stroke="black"/>
<text x="61" y="453" fill="black" font-size="18" font-family="Helvetica" font-weight="bold">
0
</text>
<text x="35" y="390" fill="black" font-size="18" font-family="Helvetica" font-weight="bold">
0.02
</text>
<text x="34" y="328" fill="black" font-size="18" font-family="Helvetica" font-weight="bold">
0.04
</text>
<text x="34" y="265" fill="black" font-size="18" font-family="Helvetica" font-weight="bold">
0.06
</text>
<text x="35" y="203" fill="black" font-size="18" font-family="Helvetica" font-weight="bold">
0.08
</text>
<text x="47" y="140" fill="black" font-size="18" font-family="Helvetica" font-weight="bold">
0.1
</text>
<text x="35" y="78" fill="black" font-size="18" font-family="Helvetica" font-weight="bold">
0.12
</text>
<path d="M115,322v -2" fill="none" stroke="#99ff99" stroke-width="2"/>
<path d="M115,320v -2" fill="none" stroke="#99ff99" stroke-width="2"/>
<g stroke="black" stroke-width="2" fill="none">
<line x1="114" y1="320" x2="115" y2="320"/>
</g>
<path d="M123,279v -3" fill="none" stroke="#99ff99" stroke-width="2"/>
<path d="M123,276v -3" fill="none" stroke="#99ff99" stroke-width="2"/>
<g stroke="black" stroke-width="2" fill="none">
<line x1="122" y1="276" x2="123" y2="276"/>
</g>
<path d="M130,278v -3" fill="none" stroke="#99ff99" stroke-width="2"/>
<path d="M130,275v -3" fill="none" stroke="#99ff99" stroke-width="2"/>
<g stroke="black" stroke-width="2" fill="none">
<line x1="129" y1="275" x2="130" y2="275"/>
</g>
<path d="M138,276v -3" fill="none" stroke="#99ff99" stroke-width="2"/>
<path d="M138,273v -3" fill="none" stroke="#99ff99" stroke-width="2"/>
<g stroke="black" stroke-width="2" fill="none">
<line x1="137" y1="273" x2="138" y2="273"/>
</g>
<path d="M146,280v -3" fill="none" stroke="#99ff99" stroke-width="2"/>
<path d="M146,277v -3" fill="none" stroke="#99ff99" stroke-width="2"/>
<g stroke="black" stroke-width="2" fill="none">
<line x1="145" y1="277" x2="146" y2="277"/>
</g>
<path d="M153,269v -3" fill="none" stroke="#99ff99" stroke-width="2"/>
<path d="M153,266v -3" fill="none" stroke="#99ff99" stroke-width="2"/>
<g stroke="black" stroke-width="2" fill="none">
<line x1="152" y1="266" x2="153" y2="266"/>
</g>
<path d="M161,282v -3" fill="none" stroke="#99ff99" stroke-width="2"/>
<path d="M161,279v -3" fill="none" stroke="#99ff99" stroke-width="2"/>
<g stroke="black" stroke-width="2" fill="none">
<line x1="160" y1="279" x2="161" y2="279"/>
</g>
<path d="M168,280v -3" fill="none" stroke="#99ff99" stroke-width="2"/>
<path d="M168,277v -3" fill="none" stroke="#99ff99" stroke-width="2"/>
<g stroke="black" stroke-width="2" fill="none">
<line x1="167" y1="277" x2="168" y2="277"/>
</g>
<path d="M176,283v -3" fill="none" stroke="#99ff99" stroke-width="2"/>
<path d="M176,280v -3" fill="none" stroke="#99ff99" stroke-width="2"/>
<g stroke="black" stroke-width="2" fill="none">
<line x1="175" y1="280" x2="176" y2="280"/>
</g>
<path d="M183,392v -2" fill="none" stroke="#99ff99" stroke-width="2"/>
<path d="M183,390v -2" fill="none" stroke="#99ff99" stroke-width="2"/>
<g stroke="black" stroke-width="2" fill="none">
<line x1="182" y1="390" x2="183" y2="390"/>
</g>
<path d="M418,395v -2" fill="none" stroke="#99ff99" stroke-width="2"/>
<path d="M418,393v -1" fill="none" stroke="#99ff99" stroke-width="2"/>
<g stroke="black" stroke-width="2" fill="none">
<line x1="417" y1="393" x2="418" y2="393"/>
</g>
<path d="M425,292v -3" fill="none" stroke="#99ff99" stroke-width="2"/>
<path d="M425,289v -3" fill="none" stroke="#99ff99" stroke-width="2"/>
<g stroke="black" stroke-width="2" fill="none">
<line x1="424" y1="289" x2="425" y2="289"/>
</g>
<path d="M433,281v -3" fill="none" stroke="#99ff99" stroke-width="2"/>
<path d="M433,278v -3" fill="none" stroke="#99ff99" stroke-width="2"/>
<g stroke="black" stroke-width="2" fill="none">
<line x1="432" y1="278" x2="433" y2="278"/>
</g>
<path d="M440,282v -3" fill="none" stroke="#99ff99" stroke-width="2"/>
<path d="M440,279v -3" fill="none" stroke="#99ff99" stroke-width="2"/>
<g stroke="black" stroke-width="2" fill="none">
<line x1="439" y1="279" x2="440" y2="279"/>
</g>
<path d="M448,274v -3" fill="none" stroke="#99ff99" stroke-width="2"/>
<path d="M448,271v -3" fill="none" stroke="#99ff99" stroke-width="2"/>
<g stroke="black" stroke-width="2" fill="none">
<line x1="447" y1="271" x2="448" y2="271"/>
</g>
<path d="M455,271v -3" fill="none" stroke="#99ff99" stroke-width="2"/>
<path d="M455,268v -3" fill="none" stroke="#99ff99" stroke-width="2"/>
<g stroke="black" stroke-width="2" fill="none">
<line x1="454" y1="268" x2="455" y2="268"/>
</g>
<path d="M463,274v -3" fill="none" stroke="#99ff99" stroke-width="2"/>
<path d="M463,271v -3" fill="none" stroke="#99ff99" stroke-width="2"/>
<g stroke="black" stroke-width="2" fill="none">
<line x1="462" y1="271" x2="463" y2="271"/>
</g>
<path d="M471,262v -3" fill="none" stroke="#99ff99" stroke-width="2"/>
<path d="M471,259v -4" fill="none" stroke="#99ff99" stroke-width="2"/>
<g stroke="black" stroke-width="2" fill="none">
<line x1="470" y1="259" x2="471" y2="259"/>
</g>
<path d="M478,269v -3" fill="none" stroke="#99ff99" stroke-width="2"/>
<path d="M478,266v -4" fill="none" stroke="#99ff99" stroke-width="2"/>
<g stroke="black" stroke-width="2" fill="none">
<line x1="477" y1="266" x2="478" y2="266"/>
</g>
<path d="M486,314v -1" fill="none" stroke="#99ff99" stroke-width="2"/>
<path d="M486,313v -2" fill="none" stroke="#99ff99" stroke-width="2"/>
<g stroke="black" stroke-width="2" fill="none">
<line x1="485" y1="313" x2="486" y2="313"/>
</g>
<path d="M74,446h 37v -126h 8v -44h 8v -1h 7v -2h 8v 4h 7v -11h 8v 13h 7v -2h 8v 3h 8v 110h 7v 56h 227v -53h 7v -104h 8v -11h 8v 1h 7v -8h 8v -3h 7v 3h 8v -12h 7v 7h 8v 47h 7v 133h 38z" fill="#99ff99"/>
<path d="M74,446h 37v -126h 8v -44h 8v -1h 7v -2h 8v 4h 7v -11h 8v 13h 7v -2h 8v 3h 8v 110h 7v 56h 227v -53h 7v -104h 8v -11h 8v 1h 7v -8h 8v -3h 7v 3h 8v -12h 7v 7h 8v 47h 7v 133h 38" fill="none" stroke="#99ff99" stroke-width="2"/>
<path d="M111,443h 3" fill="none" stroke="#ff0099"/>
<path d="M116,443h 3" fill="none" stroke="#ff0099"/>
<g stroke="#ff0099" stroke-width="1" fill="#ff0099">
<circle cx=" 115" cy=" 443" r=" 1.5"/>
</g>
<path d="M119,442h 3" fill="none" stroke="#ff0099"/>
<path d="M124,442h 3" fill="none" stroke="#ff0099"/>
<g stroke="#ff0099" stroke-width="1" fill="#ff0099">
<circle cx=" 123" cy=" 442" r=" 1.5"/>
</g>
<path d="M127,442h 2" fill="none" stroke="#ff0099"/>
<path d="M132,442h 2" fill="none" stroke="#ff0099"/>
<g stroke="#ff0099" stroke-width="1" fill="#ff0099">
<circle cx=" 130" cy=" 442" r=" 1.5"/>
</g>
<path d="M134,441h 3" fill="none" stroke="#ff0099"/>
<path d="M139,441h 3" fill="none" stroke="#ff0099"/>
<g stroke="#ff0099" stroke-width="1" fill="#ff0099">
<circle cx=" 138" cy=" 441" r=" 1.5"/>
</g>
<path d="M142,441h 2" fill="none" stroke="#ff0099"/>
<path d="M147,441h 2" fill="none" stroke="#ff0099"/>
<g stroke="#ff0099" stroke-width="1" fill="#ff0099">
<circle cx=" 146" cy=" 441" r=" 1.5"/>
</g>
<path d="M153,86v -2" fill="none" stroke="#ff0099"/>
<path d="M153,82v -3" fill="none" stroke="#ff0099"/>
<path d="M149,83h 3" fill="none" stroke="#ff0099"/>
<path d="M154,83h 3" fill="none" stroke="#ff0099"/>
<g stroke="#ff0099" stroke-width="1" fill="#ff0099">
<circle cx=" 153" cy=" 83" r=" 1.5"/>
</g>
<path d="M161,114v -2" fill="none" stroke="#ff0099"/>
<path d="M161,110v -3" fill="none" stroke="#ff0099"/>
<path d="M157,111h 2" fill="none" stroke="#ff0099"/>
<path d="M162,111h 2" fill="none" stroke="#ff0099"/>
<g stroke="#ff0099" stroke-width="1" fill="#ff0099">
<circle cx=" 161" cy=" 111" r=" 1.5"/>
</g>
<path d="M168,121v -2" fill="none" stroke="#ff0099"/>
<path d="M168,117v -2" fill="none" stroke="#ff0099"/>
<path d="M164,118h 3" fill="none" stroke="#ff0099"/>
<path d="M169,118h 3" fill="none" stroke="#ff0099"/>
<g stroke="#ff0099" stroke-width="1" fill="#ff0099">
<circle cx=" 168" cy=" 118" r=" 1.5"/>
</g>
<path d="M176,72v -3" fill="none" stroke="#ff0099"/>
<path d="M176,67v -4" fill="none" stroke="#ff0099"/>
<path d="M172,68h 3" fill="none" stroke="#ff0099"/>
<path d="M177,68h 3" fill="none" stroke="#ff0099"/>
<g stroke="#ff0099" stroke-width="1" fill="#ff0099">
<circle cx=" 176" cy=" 68" r=" 1.5"/>
</g>
<path d="M183,308v -2" fill="none" stroke="#ff0099"/>
<path d="M183,304v -2" fill="none" stroke="#ff0099"/>
<path d="M180,305h 2" fill="none" stroke="#ff0099"/>
<path d="M184,305h 3" fill="none" stroke="#ff0099"/>
<g stroke="#ff0099" stroke-width="1" fill="#ff0099">
<circle cx=" 183" cy=" 305" r=" 1.5"/>
</g>
<path d="M418,311v -2" fill="none" stroke="#ff0099"/>
<path d="M418,307v -2" fill="none" stroke="#ff0099"/>
<path d="M414,308h 2" fill="none" stroke="#ff0099"/>
<path d="M419,308h 2" fill="none" stroke="#ff0099"/>
<g stroke="#ff0099" stroke-width="1" fill="#ff0099">
<circle cx=" 418" cy=" 308" r=" 1.5"/>
</g>
<path d="M425,82v -4" fill="none" stroke="#ff0099"/>
<path d="M425,76v -3" fill="none" stroke="#ff0099"/>
<path d="M421,77h 3" fill="none" stroke="#ff0099"/>
<path d="M426,77h 3" fill="none" stroke="#ff0099"/>
<g stroke="#ff0099" stroke-width="1" fill="#ff0099">
<circle cx=" 425" cy=" 77" r=" 1.5"/>
</g>
<path d="M433,121v -2" fill="none" stroke="#ff0099"/>
<path d="M433,117v -2" fill="none" stroke="#ff0099"/>
<path d="M429,118h 3" fill="none" stroke="#ff0099"/>
<path d="M434,118h 3" fill="none" stroke="#ff0099"/>
<g stroke="#ff0099" stroke-width="1" fill="#ff0099">
<circle cx=" 433" cy=" 118" r=" 1.5"/>
</g>
<path d="M440,122v -2" fill="none" stroke="#ff0099"/>
<path d="M440,118v -2" fill="none" stroke="#ff0099"/>
<path d="M437,119h 2" fill="none" stroke="#ff0099"/>
<path d="M441,119h 3" fill="none" stroke="#ff0099"/>
<g stroke="#ff0099" stroke-width="1" fill="#ff0099">
<circle cx=" 440" cy=" 119" r=" 1.5"/>
</g>
<path d="M448,79v -2" fill="none" stroke="#ff0099"/>
<path d="M448,74v -2" fill="none" stroke="#ff0099"/>
<path d="M444,76h 3" fill="none" stroke="#ff0099"/>
<path d="M449,76h 3" fill="none" stroke="#ff0099"/>
<g stroke="#ff0099" stroke-width="1" fill="#ff0099">
<circle cx=" 448" cy=" 76" r=" 1.5"/>
</g>
<path d="M452,441h 2" fill="none" stroke="#ff0099"/>
<path d="M457,441h 2" fill="none" stroke="#ff0099"/>
<g stroke="#ff0099" stroke-width="1" fill="#ff0099">
<circle cx=" 455" cy=" 441" r=" 1.5"/>
</g>
<path d="M459,441h 3" fill="none" stroke="#ff0099"/>
<path d="M464,441h 3" fill="none" stroke="#ff0099"/>
<g stroke="#ff0099" stroke-width="1" fill="#ff0099">
<circle cx=" 463" cy=" 441" r=" 1.5"/>
</g>
<path d="M467,442h 2" fill="none" stroke="#ff0099"/>
<path d="M472,442h 2" fill="none" stroke="#ff0099"/>
<g stroke="#ff0099" stroke-width="1" fill="#ff0099">
<circle cx=" 471" cy=" 442" r=" 1.5"/>
</g>
<path d="M474,442h 3" fill="none" stroke="#ff0099"/>
<path d="M479,442h 3" fill="none" stroke="#ff0099"/>
<g stroke="#ff0099" stroke-width="1" fill="#ff0099">
<circle cx=" 478" cy=" 442" r=" 1.5"/>
</g>
<path d="M482,443h 3" fill="none" stroke="#ff0099"/>
<path d="M487,443h 2" fill="none" stroke="#ff0099"/>
<g stroke="#ff0099" stroke-width="1" fill="#ff0099">
<circle cx=" 486" cy=" 443" r=" 1.5"/>
</g>
<rect x="357" y="59" width="142" height="99" fill="white"/>
<text x="360" y="82" fill="black" font-size="17" font-family="Helvetica" font-weight="bold">
EE
</text>
<text x="457" y="115" fill="black" font-size="17" font-family="Helvetica" font-weight="bold">
 ee
</text>
<text x="440" y="115" fill="black" font-size="17" font-family="Times">
&#8594;
</text>
<text x="392" y="115" fill="black" font-size="17" font-family="Helvetica" font-weight="bold">
MC Z 
</text>
<path d="M362,109h 25" fill="none" stroke="#ff0099"/>
<g stroke="#ff0099" stroke-width="1" fill="#ff0099">
<circle cx=" 375" cy=" 109" r=" 1.5"/>
</g>
<text x="455" y="147" fill="black" font-size="17" font-family="Helvetica" font-weight="bold">
 + jet
</text>
<text x="447" y="147" fill="black" font-size="17" font-family="Times">
&#0947;
</text>
<text x="392" y="147" fill="black" font-size="17" font-family="Helvetica" font-weight="bold">
signal 
</text>
<path d="M362,154h 25v -24h -25z" fill="#99ff99"/>
<path d="M362,130h 25" fill="none" stroke="#99ff99" stroke-width="2"/>
<path d="M362,154h 25" fill="none" stroke="#99ff99" stroke-width="2"/>
<path d="M387,154v -24" fill="none" stroke="#99ff99" stroke-width="2"/>
<path d="M362,154v -24" fill="none" stroke="#99ff99" stroke-width="2"/>
<text x="300" y="34" fill="black" font-size="17" font-family="Helvetica" font-weight="bold">
=8 TeV
</text>
<text x="291" y="34" fill="black" font-size="17" font-family="Helvetica" font-weight="bold">
s
</text>
<path d="M285,25l 2, 10" fill="none" stroke="black" stroke-width="2"/>
<path d="M287,35l 2, -14" fill="none" stroke="black"/>
<path d="M289,21h 11" fill="none" stroke="black"/>
<text x="142" y="34" fill="black" font-size="17" font-family="Helvetica" font-weight="bold">
CMS Preliminary 
</text></svg>
