<?xml version="1.0" standalone="no"?>
<svg width="567" height="496" viewBox="0 0 567 496" xmlns="http://www.w3.org/2000/svg">
<title>
../src/TagAndProbeZ/plots_dataZee_mcGJet_withEtaR9rhoReweight/hlt30//nvtxEE.svg
</title>
<desc>
Creator: ROOT Version 5.32/00
CreationDate: Tue Dec  2 08:45:10 2014</desc>
<defs>
</defs>
<rect x="0" y="0" width="567" height="496" fill="white"/>
<rect x="74" y="44" width="453" height="402" fill="white"/>
<rect x="74" y="44" width="453" height="402" fill="none" stroke="black"/>
<rect x="74" y="44" width="453" height="402" fill="white"/>
<rect x="74" y="44" width="453" height="402" fill="none" stroke="black"/>
<path d="M85,446h 4" fill="none" stroke="#ff0099"/>
<path d="M91,446h 5" fill="none" stroke="#ff0099"/>
<g stroke="#ff0099" stroke-width="1" fill="#ff0099">
<circle cx=" 90" cy=" 446" r=" 1.5"/>
</g>
<path d="M96,445h 4" fill="none" stroke="#ff0099"/>
<path d="M102,445h 5" fill="none" stroke="#ff0099"/>
<g stroke="#ff0099" stroke-width="1" fill="#ff0099">
<circle cx=" 101" cy=" 445" r=" 1.5"/>
</g>
<path d="M107,440h 4" fill="none" stroke="#ff0099"/>
<path d="M114,440h 4" fill="none" stroke="#ff0099"/>
<g stroke="#ff0099" stroke-width="1" fill="#ff0099">
<circle cx=" 112" cy=" 440" r=" 1.5"/>
</g>
<path d="M118,429h 4" fill="none" stroke="#ff0099"/>
<path d="M125,429h 4" fill="none" stroke="#ff0099"/>
<g stroke="#ff0099" stroke-width="1" fill="#ff0099">
<circle cx=" 123" cy=" 429" r=" 1.5"/>
</g>
<path d="M135,410" fill="none" stroke="#ff0099"/>
<path d="M135,408" fill="none" stroke="#ff0099"/>
<path d="M129,409h 4" fill="none" stroke="#ff0099"/>
<path d="M136,409h 4" fill="none" stroke="#ff0099"/>
<g stroke="#ff0099" stroke-width="1" fill="#ff0099">
<circle cx=" 135" cy=" 409" r=" 1.5"/>
</g>
<path d="M146,380v -1" fill="none" stroke="#ff0099"/>
<path d="M146,377v -1" fill="none" stroke="#ff0099"/>
<path d="M140,378h 4" fill="none" stroke="#ff0099"/>
<path d="M147,378h 4" fill="none" stroke="#ff0099"/>
<g stroke="#ff0099" stroke-width="1" fill="#ff0099">
<circle cx=" 146" cy=" 378" r=" 1.5"/>
</g>
<path d="M157,338v -1" fill="none" stroke="#ff0099"/>
<path d="M157,335v -2" fill="none" stroke="#ff0099"/>
<path d="M151,336h 5" fill="none" stroke="#ff0099"/>
<path d="M158,336h 4" fill="none" stroke="#ff0099"/>
<g stroke="#ff0099" stroke-width="1" fill="#ff0099">
<circle cx=" 157" cy=" 336" r=" 1.5"/>
</g>
<path d="M168,286v -2" fill="none" stroke="#ff0099"/>
<path d="M168,282v -2" fill="none" stroke="#ff0099"/>
<path d="M162,283h 5" fill="none" stroke="#ff0099"/>
<path d="M169,283h 4" fill="none" stroke="#ff0099"/>
<g stroke="#ff0099" stroke-width="1" fill="#ff0099">
<circle cx=" 168" cy=" 283" r=" 1.5"/>
</g>
<path d="M179,233v -2" fill="none" stroke="#ff0099"/>
<path d="M179,228v -2" fill="none" stroke="#ff0099"/>
<path d="M173,230h 5" fill="none" stroke="#ff0099"/>
<path d="M180,230h 4" fill="none" stroke="#ff0099"/>
<g stroke="#ff0099" stroke-width="1" fill="#ff0099">
<circle cx=" 179" cy=" 230" r=" 1.5"/>
</g>
<path d="M190,190v -3" fill="none" stroke="#ff0099"/>
<path d="M190,185v -3" fill="none" stroke="#ff0099"/>
<path d="M184,186h 5" fill="none" stroke="#ff0099"/>
<path d="M191,186h 4" fill="none" stroke="#ff0099"/>
<g stroke="#ff0099" stroke-width="1" fill="#ff0099">
<circle cx=" 190" cy=" 186" r=" 1.5"/>
</g>
<path d="M201,144v -4" fill="none" stroke="#ff0099"/>
<path d="M201,138v -3" fill="none" stroke="#ff0099"/>
<path d="M195,139h 5" fill="none" stroke="#ff0099"/>
<path d="M202,139h 4" fill="none" stroke="#ff0099"/>
<g stroke="#ff0099" stroke-width="1" fill="#ff0099">
<circle cx=" 201" cy=" 139" r=" 1.5"/>
</g>
<path d="M212,109v -4" fill="none" stroke="#ff0099"/>
<path d="M212,103v -4" fill="none" stroke="#ff0099"/>
<path d="M206,104h 5" fill="none" stroke="#ff0099"/>
<path d="M213,104h 5" fill="none" stroke="#ff0099"/>
<g stroke="#ff0099" stroke-width="1" fill="#ff0099">
<circle cx=" 212" cy=" 104" r=" 1.5"/>
</g>
<path d="M223,91v -4" fill="none" stroke="#ff0099"/>
<path d="M223,85v -4" fill="none" stroke="#ff0099"/>
<path d="M218,86h 4" fill="none" stroke="#ff0099"/>
<path d="M224,86h 5" fill="none" stroke="#ff0099"/>
<g stroke="#ff0099" stroke-width="1" fill="#ff0099">
<circle cx=" 223" cy=" 86" r=" 1.5"/>
</g>
<path d="M234,83v -4" fill="none" stroke="#ff0099"/>
<path d="M234,77v -4" fill="none" stroke="#ff0099"/>
<path d="M229,78h 4" fill="none" stroke="#ff0099"/>
<path d="M235,78h 5" fill="none" stroke="#ff0099"/>
<g stroke="#ff0099" stroke-width="1" fill="#ff0099">
<circle cx=" 234" cy=" 78" r=" 1.5"/>
</g>
<path d="M245,74v -4" fill="none" stroke="#ff0099"/>
<path d="M245,67v -4" fill="none" stroke="#ff0099"/>
<path d="M240,69h 4" fill="none" stroke="#ff0099"/>
<path d="M246,69h 5" fill="none" stroke="#ff0099"/>
<g stroke="#ff0099" stroke-width="1" fill="#ff0099">
<circle cx=" 245" cy=" 69" r=" 1.5"/>
</g>
<path d="M256,87v -3" fill="none" stroke="#ff0099"/>
<path d="M256,81v -3" fill="none" stroke="#ff0099"/>
<path d="M251,83h 4" fill="none" stroke="#ff0099"/>
<path d="M257,83h 5" fill="none" stroke="#ff0099"/>
<g stroke="#ff0099" stroke-width="1" fill="#ff0099">
<circle cx=" 256" cy=" 83" r=" 1.5"/>
</g>
<path d="M267,110v -4" fill="none" stroke="#ff0099"/>
<path d="M267,104v -4" fill="none" stroke="#ff0099"/>
<path d="M262,105h 4" fill="none" stroke="#ff0099"/>
<path d="M268,105h 5" fill="none" stroke="#ff0099"/>
<g stroke="#ff0099" stroke-width="1" fill="#ff0099">
<circle cx=" 267" cy=" 105" r=" 1.5"/>
</g>
<path d="M278,130v -3" fill="none" stroke="#ff0099"/>
<path d="M278,125v -4" fill="none" stroke="#ff0099"/>
<path d="M273,126h 4" fill="none" stroke="#ff0099"/>
<path d="M279,126h 5" fill="none" stroke="#ff0099"/>
<g stroke="#ff0099" stroke-width="1" fill="#ff0099">
<circle cx=" 278" cy=" 126" r=" 1.5"/>
</g>
<path d="M289,162v -3" fill="none" stroke="#ff0099"/>
<path d="M289,157v -3" fill="none" stroke="#ff0099"/>
<path d="M284,158h 4" fill="none" stroke="#ff0099"/>
<path d="M291,158h 4" fill="none" stroke="#ff0099"/>
<g stroke="#ff0099" stroke-width="1" fill="#ff0099">
<circle cx=" 289" cy=" 158" r=" 1.5"/>
</g>
<path d="M300,188v -3" fill="none" stroke="#ff0099"/>
<path d="M300,183v -3" fill="none" stroke="#ff0099"/>
<path d="M295,184h 4" fill="none" stroke="#ff0099"/>
<path d="M302,184h 4" fill="none" stroke="#ff0099"/>
<g stroke="#ff0099" stroke-width="1" fill="#ff0099">
<circle cx=" 300" cy=" 184" r=" 1.5"/>
</g>
<path d="M312,220v -3" fill="none" stroke="#ff0099"/>
<path d="M312,215v -3" fill="none" stroke="#ff0099"/>
<path d="M306,216h 4" fill="none" stroke="#ff0099"/>
<path d="M313,216h 4" fill="none" stroke="#ff0099"/>
<g stroke="#ff0099" stroke-width="1" fill="#ff0099">
<circle cx=" 312" cy=" 216" r=" 1.5"/>
</g>
<path d="M323,261v -2" fill="none" stroke="#ff0099"/>
<path d="M323,257v -3" fill="none" stroke="#ff0099"/>
<path d="M317,258h 4" fill="none" stroke="#ff0099"/>
<path d="M324,258h 4" fill="none" stroke="#ff0099"/>
<g stroke="#ff0099" stroke-width="1" fill="#ff0099">
<circle cx=" 323" cy=" 258" r=" 1.5"/>
</g>
<path d="M334,287v -2" fill="none" stroke="#ff0099"/>
<path d="M334,283v -3" fill="none" stroke="#ff0099"/>
<path d="M328,284h 5" fill="none" stroke="#ff0099"/>
<path d="M335,284h 4" fill="none" stroke="#ff0099"/>
<g stroke="#ff0099" stroke-width="1" fill="#ff0099">
<circle cx=" 334" cy=" 284" r=" 1.5"/>
</g>
<path d="M345,318v -2" fill="none" stroke="#ff0099"/>
<path d="M345,314v -2" fill="none" stroke="#ff0099"/>
<path d="M339,315h 5" fill="none" stroke="#ff0099"/>
<path d="M346,315h 4" fill="none" stroke="#ff0099"/>
<g stroke="#ff0099" stroke-width="1" fill="#ff0099">
<circle cx=" 345" cy=" 315" r=" 1.5"/>
</g>
<path d="M356,349v -2" fill="none" stroke="#ff0099"/>
<path d="M356,345v -1" fill="none" stroke="#ff0099"/>
<path d="M350,346h 5" fill="none" stroke="#ff0099"/>
<path d="M357,346h 4" fill="none" stroke="#ff0099"/>
<g stroke="#ff0099" stroke-width="1" fill="#ff0099">
<circle cx=" 356" cy=" 346" r=" 1.5"/>
</g>
<path d="M367,374v -1" fill="none" stroke="#ff0099"/>
<path d="M367,371v -1" fill="none" stroke="#ff0099"/>
<path d="M361,372h 5" fill="none" stroke="#ff0099"/>
<path d="M368,372h 4" fill="none" stroke="#ff0099"/>
<g stroke="#ff0099" stroke-width="1" fill="#ff0099">
<circle cx=" 367" cy=" 372" r=" 1.5"/>
</g>
<path d="M378,393v -1" fill="none" stroke="#ff0099"/>
<path d="M378,390" fill="none" stroke="#ff0099"/>
<path d="M372,391h 5" fill="none" stroke="#ff0099"/>
<path d="M379,391h 4" fill="none" stroke="#ff0099"/>
<g stroke="#ff0099" stroke-width="1" fill="#ff0099">
<circle cx=" 378" cy=" 391" r=" 1.5"/>
</g>
<path d="M389,404v -1" fill="none" stroke="#ff0099"/>
<path d="M389,401v -1" fill="none" stroke="#ff0099"/>
<path d="M383,402h 5" fill="none" stroke="#ff0099"/>
<path d="M390,402h 4" fill="none" stroke="#ff0099"/>
<g stroke="#ff0099" stroke-width="1" fill="#ff0099">
<circle cx=" 389" cy=" 402" r=" 1.5"/>
</g>
<path d="M400,414" fill="none" stroke="#ff0099"/>
<path d="M400,412" fill="none" stroke="#ff0099"/>
<path d="M394,413h 5" fill="none" stroke="#ff0099"/>
<path d="M401,413h 5" fill="none" stroke="#ff0099"/>
<g stroke="#ff0099" stroke-width="1" fill="#ff0099">
<circle cx=" 400" cy=" 413" r=" 1.5"/>
</g>
<path d="M406,426h 4" fill="none" stroke="#ff0099"/>
<path d="M412,426h 5" fill="none" stroke="#ff0099"/>
<g stroke="#ff0099" stroke-width="1" fill="#ff0099">
<circle cx=" 411" cy=" 426" r=" 1.5"/>
</g>
<path d="M417,432h 4" fill="none" stroke="#ff0099"/>
<path d="M423,432h 5" fill="none" stroke="#ff0099"/>
<g stroke="#ff0099" stroke-width="1" fill="#ff0099">
<circle cx=" 422" cy=" 432" r=" 1.5"/>
</g>
<path d="M428,437h 4" fill="none" stroke="#ff0099"/>
<path d="M434,437h 5" fill="none" stroke="#ff0099"/>
<g stroke="#ff0099" stroke-width="1" fill="#ff0099">
<circle cx=" 433" cy=" 437" r=" 1.5"/>
</g>
<path d="M439,440h 4" fill="none" stroke="#ff0099"/>
<path d="M445,440h 5" fill="none" stroke="#ff0099"/>
<g stroke="#ff0099" stroke-width="1" fill="#ff0099">
<circle cx=" 444" cy=" 440" r=" 1.5"/>
</g>
<path d="M450,442h 4" fill="none" stroke="#ff0099"/>
<path d="M456,442h 5" fill="none" stroke="#ff0099"/>
<g stroke="#ff0099" stroke-width="1" fill="#ff0099">
<circle cx=" 455" cy=" 442" r=" 1.5"/>
</g>
<path d="M461,442h 4" fill="none" stroke="#ff0099"/>
<path d="M468,442h 4" fill="none" stroke="#ff0099"/>
<g stroke="#ff0099" stroke-width="1" fill="#ff0099">
<circle cx=" 466" cy=" 442" r=" 1.5"/>
</g>
<path d="M472,445h 4" fill="none" stroke="#ff0099"/>
<path d="M479,445h 4" fill="none" stroke="#ff0099"/>
<g stroke="#ff0099" stroke-width="1" fill="#ff0099">
<circle cx=" 477" cy=" 445" r=" 1.5"/>
</g>
<path d="M483,445h 4" fill="none" stroke="#ff0099"/>
<path d="M490,445h 4" fill="none" stroke="#ff0099"/>
<g stroke="#ff0099" stroke-width="1" fill="#ff0099">
<circle cx=" 489" cy=" 445" r=" 1.5"/>
</g>
<path d="M494,446h 4" fill="none" stroke="#ff0099"/>
<path d="M501,446h 4" fill="none" stroke="#ff0099"/>
<g stroke="#ff0099" stroke-width="1" fill="#ff0099">
<circle cx=" 500" cy=" 446" r=" 1.5"/>
</g>
<path d="M505,446h 5" fill="none" stroke="#ff0099"/>
<path d="M512,446h 4" fill="none" stroke="#ff0099"/>
<g stroke="#ff0099" stroke-width="1" fill="#ff0099">
<circle cx=" 511" cy=" 446" r=" 1.5"/>
</g>
<path d="M516,446h 5" fill="none" stroke="#ff0099"/>
<path d="M523,446h 4" fill="none" stroke="#ff0099"/>
<g stroke="#ff0099" stroke-width="1" fill="#ff0099">
<circle cx=" 522" cy=" 446" r=" 1.5"/>
</g>
<path d="M74,446h 453" fill="none" stroke="black"/>
<path d="M79,434v 12" fill="none" stroke="black"/>
<path d="M90,440v 6" fill="none" stroke="black"/>
<path d="M101,440v 6" fill="none" stroke="black"/>
<path d="M112,440v 6" fill="none" stroke="black"/>
<path d="M123,440v 6" fill="none" stroke="black"/>
<path d="M135,434v 12" fill="none" stroke="black"/>
<path d="M146,440v 6" fill="none" stroke="black"/>
<path d="M157,440v 6" fill="none" stroke="black"/>
<path d="M168,440v 6" fill="none" stroke="black"/>
<path d="M179,440v 6" fill="none" stroke="black"/>
<path d="M190,434v 12" fill="none" stroke="black"/>
<path d="M201,440v 6" fill="none" stroke="black"/>
<path d="M212,440v 6" fill="none" stroke="black"/>
<path d="M223,440v 6" fill="none" stroke="black"/>
<path d="M234,440v 6" fill="none" stroke="black"/>
<path d="M245,434v 12" fill="none" stroke="black"/>
<path d="M256,440v 6" fill="none" stroke="black"/>
<path d="M267,440v 6" fill="none" stroke="black"/>
<path d="M278,440v 6" fill="none" stroke="black"/>
<path d="M289,440v 6" fill="none" stroke="black"/>
<path d="M300,434v 12" fill="none" stroke="black"/>
<path d="M312,440v 6" fill="none" stroke="black"/>
<path d="M323,440v 6" fill="none" stroke="black"/>
<path d="M334,440v 6" fill="none" stroke="black"/>
<path d="M345,440v 6" fill="none" stroke="black"/>
<path d="M356,434v 12" fill="none" stroke="black"/>
<path d="M367,440v 6" fill="none" stroke="black"/>
<path d="M378,440v 6" fill="none" stroke="black"/>
<path d="M389,440v 6" fill="none" stroke="black"/>
<path d="M400,440v 6" fill="none" stroke="black"/>
<path d="M411,434v 12" fill="none" stroke="black"/>
<path d="M422,440v 6" fill="none" stroke="black"/>
<path d="M433,440v 6" fill="none" stroke="black"/>
<path d="M444,440v 6" fill="none" stroke="black"/>
<path d="M455,440v 6" fill="none" stroke="black"/>
<path d="M466,434v 12" fill="none" stroke="black"/>
<path d="M477,440v 6" fill="none" stroke="black"/>
<path d="M489,440v 6" fill="none" stroke="black"/>
<path d="M500,440v 6" fill="none" stroke="black"/>
<path d="M511,440v 6" fill="none" stroke="black"/>
<path d="M522,434v 12" fill="none" stroke="black"/>
<path d="M79,434v 12" fill="none" stroke="black"/>
<path d="M522,434v 12" fill="none" stroke="black"/>
<text x="74" y="465" fill="black" font-size="18" font-family="Helvetica" font-weight="bold">
0
</text>
<text x="129" y="465" fill="black" font-size="18" font-family="Helvetica" font-weight="bold">
5
</text>
<text x="179" y="465" fill="black" font-size="18" font-family="Helvetica" font-weight="bold">
10
</text>
<text x="235" y="465" fill="black" font-size="18" font-family="Helvetica" font-weight="bold">
15
</text>
<text x="290" y="465" fill="black" font-size="18" font-family="Helvetica" font-weight="bold">
20
</text>
<text x="346" y="465" fill="black" font-size="18" font-family="Helvetica" font-weight="bold">
25
</text>
<text x="401" y="465" fill="black" font-size="18" font-family="Helvetica" font-weight="bold">
30
</text>
<text x="456" y="465" fill="black" font-size="18" font-family="Helvetica" font-weight="bold">
35
</text>
<text x="511" y="465" fill="black" font-size="18" font-family="Helvetica" font-weight="bold">
40
</text>
<path d="M74,44h 453" fill="none" stroke="black"/>
<path d="M79,56v -12" fill="none" stroke="black"/>
<path d="M90,50v -6" fill="none" stroke="black"/>
<path d="M101,50v -6" fill="none" stroke="black"/>
<path d="M112,50v -6" fill="none" stroke="black"/>
<path d="M123,50v -6" fill="none" stroke="black"/>
<path d="M135,56v -12" fill="none" stroke="black"/>
<path d="M146,50v -6" fill="none" stroke="black"/>
<path d="M157,50v -6" fill="none" stroke="black"/>
<path d="M168,50v -6" fill="none" stroke="black"/>
<path d="M179,50v -6" fill="none" stroke="black"/>
<path d="M190,56v -12" fill="none" stroke="black"/>
<path d="M201,50v -6" fill="none" stroke="black"/>
<path d="M212,50v -6" fill="none" stroke="black"/>
<path d="M223,50v -6" fill="none" stroke="black"/>
<path d="M234,50v -6" fill="none" stroke="black"/>
<path d="M245,56v -12" fill="none" stroke="black"/>
<path d="M256,50v -6" fill="none" stroke="black"/>
<path d="M267,50v -6" fill="none" stroke="black"/>
<path d="M278,50v -6" fill="none" stroke="black"/>
<path d="M289,50v -6" fill="none" stroke="black"/>
<path d="M300,56v -12" fill="none" stroke="black"/>
<path d="M312,50v -6" fill="none" stroke="black"/>
<path d="M323,50v -6" fill="none" stroke="black"/>
<path d="M334,50v -6" fill="none" stroke="black"/>
<path d="M345,50v -6" fill="none" stroke="black"/>
<path d="M356,56v -12" fill="none" stroke="black"/>
<path d="M367,50v -6" fill="none" stroke="black"/>
<path d="M378,50v -6" fill="none" stroke="black"/>
<path d="M389,50v -6" fill="none" stroke="black"/>
<path d="M400,50v -6" fill="none" stroke="black"/>
<path d="M411,56v -12" fill="none" stroke="black"/>
<path d="M422,50v -6" fill="none" stroke="black"/>
<path d="M433,50v -6" fill="none" stroke="black"/>
<path d="M444,50v -6" fill="none" stroke="black"/>
<path d="M455,50v -6" fill="none" stroke="black"/>
<path d="M466,56v -12" fill="none" stroke="black"/>
<path d="M477,50v -6" fill="none" stroke="black"/>
<path d="M489,50v -6" fill="none" stroke="black"/>
<path d="M500,50v -6" fill="none" stroke="black"/>
<path d="M511,50v -6" fill="none" stroke="black"/>
<path d="M522,56v -12" fill="none" stroke="black"/>
<path d="M79,56v -12" fill="none" stroke="black"/>
<path d="M522,56v -12" fill="none" stroke="black"/>
<path d="M74,446v -402" fill="none" stroke="black"/>
<path d="M87,446h -13" fill="none" stroke="black"/>
<path d="M81,436h -7" fill="none" stroke="black"/>
<path d="M81,425h -7" fill="none" stroke="black"/>
<path d="M81,415h -7" fill="none" stroke="black"/>
<path d="M81,404h -7" fill="none" stroke="black"/>
<path d="M87,393h -13" fill="none" stroke="black"/>
<path d="M81,383h -7" fill="none" stroke="black"/>
<path d="M81,372h -7" fill="none" stroke="black"/>
<path d="M81,362h -7" fill="none" stroke="black"/>
<path d="M81,351h -7" fill="none" stroke="black"/>
<path d="M87,340h -13" fill="none" stroke="black"/>
<path d="M81,330h -7" fill="none" stroke="black"/>
<path d="M81,319h -7" fill="none" stroke="black"/>
<path d="M81,309h -7" fill="none" stroke="black"/>
<path d="M81,298h -7" fill="none" stroke="black"/>
<path d="M87,287h -13" fill="none" stroke="black"/>
<path d="M81,277h -7" fill="none" stroke="black"/>
<path d="M81,266h -7" fill="none" stroke="black"/>
<path d="M81,256h -7" fill="none" stroke="black"/>
<path d="M81,245h -7" fill="none" stroke="black"/>
<path d="M87,234h -13" fill="none" stroke="black"/>
<path d="M81,224h -7" fill="none" stroke="black"/>
<path d="M81,213h -7" fill="none" stroke="black"/>
<path d="M81,203h -7" fill="none" stroke="black"/>
<path d="M81,192h -7" fill="none" stroke="black"/>
<path d="M87,181h -13" fill="none" stroke="black"/>
<path d="M81,171h -7" fill="none" stroke="black"/>
<path d="M81,160h -7" fill="none" stroke="black"/>
<path d="M81,150h -7" fill="none" stroke="black"/>
<path d="M81,139h -7" fill="none" stroke="black"/>
<path d="M87,128h -13" fill="none" stroke="black"/>
<path d="M81,118h -7" fill="none" stroke="black"/>
<path d="M81,107h -7" fill="none" stroke="black"/>
<path d="M81,97h -7" fill="none" stroke="black"/>
<path d="M81,86h -7" fill="none" stroke="black"/>
<path d="M87,75h -13" fill="none" stroke="black"/>
<path d="M87,75h -13" fill="none" stroke="black"/>
<path d="M81,65h -7" fill="none" stroke="black"/>
<path d="M81,54h -7" fill="none" stroke="black"/>
<text x="61" y="453" fill="black" font-size="18" font-family="Helvetica" font-weight="bold">
0
</text>
<text x="37" y="400" fill="black" font-size="18" font-family="Helvetica" font-weight="bold">
0.01
</text>
<text x="35" y="347" fill="black" font-size="18" font-family="Helvetica" font-weight="bold">
0.02
</text>
<text x="35" y="294" fill="black" font-size="18" font-family="Helvetica" font-weight="bold">
0.03
</text>
<text x="34" y="241" fill="black" font-size="18" font-family="Helvetica" font-weight="bold">
0.04
</text>
<text x="34" y="188" fill="black" font-size="18" font-family="Helvetica" font-weight="bold">
0.05
</text>
<text x="34" y="135" fill="black" font-size="18" font-family="Helvetica" font-weight="bold">
0.06
</text>
<text x="35" y="82" fill="black" font-size="18" font-family="Helvetica" font-weight="bold">
0.07
</text>
<path d="M90,446" fill="none" stroke="#99ff99" stroke-width="2"/>
<path d="M90,446" fill="none" stroke="#99ff99" stroke-width="2"/>
<g stroke="black" stroke-width="2" fill="none">
<line x1="89" y1="446" x2="90" y2="446"/>
</g>
<path d="M101,445" fill="none" stroke="#99ff99" stroke-width="2"/>
<path d="M101,445v -1" fill="none" stroke="#99ff99" stroke-width="2"/>
<g stroke="black" stroke-width="2" fill="none">
<line x1="100" y1="445" x2="101" y2="445"/>
</g>
<path d="M112,441v -1" fill="none" stroke="#99ff99" stroke-width="2"/>
<path d="M112,440" fill="none" stroke="#99ff99" stroke-width="2"/>
<g stroke="black" stroke-width="2" fill="none">
<line x1="111" y1="440" x2="112" y2="440"/>
</g>
<path d="M123,430v -2" fill="none" stroke="#99ff99" stroke-width="2"/>
<path d="M123,428v -1" fill="none" stroke="#99ff99" stroke-width="2"/>
<g stroke="black" stroke-width="2" fill="none">
<line x1="122" y1="428" x2="123" y2="428"/>
</g>
<path d="M135,407v -2" fill="none" stroke="#99ff99" stroke-width="2"/>
<path d="M135,405v -2" fill="none" stroke="#99ff99" stroke-width="2"/>
<g stroke="black" stroke-width="2" fill="none">
<line x1="134" y1="405" x2="135" y2="405"/>
</g>
<path d="M146,377v -3" fill="none" stroke="#99ff99" stroke-width="2"/>
<path d="M146,374v -2" fill="none" stroke="#99ff99" stroke-width="2"/>
<g stroke="black" stroke-width="2" fill="none">
<line x1="145" y1="374" x2="146" y2="374"/>
</g>
<path d="M157,340v -4" fill="none" stroke="#99ff99" stroke-width="2"/>
<path d="M157,336v -3" fill="none" stroke="#99ff99" stroke-width="2"/>
<g stroke="black" stroke-width="2" fill="none">
<line x1="156" y1="336" x2="157" y2="336"/>
</g>
<path d="M168,283v -4" fill="none" stroke="#99ff99" stroke-width="2"/>
<path d="M168,279v -5" fill="none" stroke="#99ff99" stroke-width="2"/>
<g stroke="black" stroke-width="2" fill="none">
<line x1="167" y1="279" x2="168" y2="279"/>
</g>
<path d="M179,230v -5" fill="none" stroke="#99ff99" stroke-width="2"/>
<path d="M179,225v -5" fill="none" stroke="#99ff99" stroke-width="2"/>
<g stroke="black" stroke-width="2" fill="none">
<line x1="178" y1="225" x2="179" y2="225"/>
</g>
<path d="M190,183v -5" fill="none" stroke="#99ff99" stroke-width="2"/>
<path d="M190,178v -5" fill="none" stroke="#99ff99" stroke-width="2"/>
<g stroke="black" stroke-width="2" fill="none">
<line x1="189" y1="178" x2="190" y2="178"/>
</g>
<path d="M201,146v -6" fill="none" stroke="#99ff99" stroke-width="2"/>
<path d="M201,140v -5" fill="none" stroke="#99ff99" stroke-width="2"/>
<g stroke="black" stroke-width="2" fill="none">
<line x1="200" y1="140" x2="201" y2="140"/>
</g>
<path d="M212,119v -6" fill="none" stroke="#99ff99" stroke-width="2"/>
<path d="M212,113v -6" fill="none" stroke="#99ff99" stroke-width="2"/>
<g stroke="black" stroke-width="2" fill="none">
<line x1="211" y1="113" x2="212" y2="113"/>
</g>
<path d="M223,97v -6" fill="none" stroke="#99ff99" stroke-width="2"/>
<path d="M223,91v -6" fill="none" stroke="#99ff99" stroke-width="2"/>
<g stroke="black" stroke-width="2" fill="none">
<line x1="222" y1="91" x2="223" y2="91"/>
</g>
<path d="M234,74v -6" fill="none" stroke="#99ff99" stroke-width="2"/>
<path d="M234,68v -6" fill="none" stroke="#99ff99" stroke-width="2"/>
<g stroke="black" stroke-width="2" fill="none">
<line x1="233" y1="68" x2="234" y2="68"/>
</g>
<path d="M245,79v -6" fill="none" stroke="#99ff99" stroke-width="2"/>
<path d="M245,73v -6" fill="none" stroke="#99ff99" stroke-width="2"/>
<g stroke="black" stroke-width="2" fill="none">
<line x1="244" y1="73" x2="245" y2="73"/>
</g>
<path d="M256,95v -6" fill="none" stroke="#99ff99" stroke-width="2"/>
<path d="M256,89v -6" fill="none" stroke="#99ff99" stroke-width="2"/>
<g stroke="black" stroke-width="2" fill="none">
<line x1="255" y1="89" x2="256" y2="89"/>
</g>
<path d="M267,106v -5" fill="none" stroke="#99ff99" stroke-width="2"/>
<path d="M267,101v -6" fill="none" stroke="#99ff99" stroke-width="2"/>
<g stroke="black" stroke-width="2" fill="none">
<line x1="266" y1="101" x2="267" y2="101"/>
</g>
<path d="M278,132v -6" fill="none" stroke="#99ff99" stroke-width="2"/>
<path d="M278,126v -5" fill="none" stroke="#99ff99" stroke-width="2"/>
<g stroke="black" stroke-width="2" fill="none">
<line x1="277" y1="126" x2="278" y2="126"/>
</g>
<path d="M289,157v -5" fill="none" stroke="#99ff99" stroke-width="2"/>
<path d="M289,152v -5" fill="none" stroke="#99ff99" stroke-width="2"/>
<g stroke="black" stroke-width="2" fill="none">
<line x1="288" y1="152" x2="289" y2="152"/>
</g>
<path d="M300,191v -4" fill="none" stroke="#99ff99" stroke-width="2"/>
<path d="M300,187v -5" fill="none" stroke="#99ff99" stroke-width="2"/>
<g stroke="black" stroke-width="2" fill="none">
<line x1="299" y1="187" x2="300" y2="187"/>
</g>
<path d="M312,224v -5" fill="none" stroke="#99ff99" stroke-width="2"/>
<path d="M312,219v -4" fill="none" stroke="#99ff99" stroke-width="2"/>
<g stroke="black" stroke-width="2" fill="none">
<line x1="311" y1="219" x2="312" y2="219"/>
</g>
<path d="M323,265v -3" fill="none" stroke="#99ff99" stroke-width="2"/>
<path d="M323,262v -4" fill="none" stroke="#99ff99" stroke-width="2"/>
<g stroke="black" stroke-width="2" fill="none">
<line x1="322" y1="262" x2="323" y2="262"/>
</g>
<path d="M334,295v -3" fill="none" stroke="#99ff99" stroke-width="2"/>
<path d="M334,292v -3" fill="none" stroke="#99ff99" stroke-width="2"/>
<g stroke="black" stroke-width="2" fill="none">
<line x1="333" y1="292" x2="334" y2="292"/>
</g>
<path d="M345,322v -3" fill="none" stroke="#99ff99" stroke-width="2"/>
<path d="M345,319v -3" fill="none" stroke="#99ff99" stroke-width="2"/>
<g stroke="black" stroke-width="2" fill="none">
<line x1="344" y1="319" x2="345" y2="319"/>
</g>
<path d="M356,346v -2" fill="none" stroke="#99ff99" stroke-width="2"/>
<path d="M356,344v -3" fill="none" stroke="#99ff99" stroke-width="2"/>
<g stroke="black" stroke-width="2" fill="none">
<line x1="355" y1="344" x2="356" y2="344"/>
</g>
<path d="M367,370v -2" fill="none" stroke="#99ff99" stroke-width="2"/>
<path d="M367,368v -2" fill="none" stroke="#99ff99" stroke-width="2"/>
<g stroke="black" stroke-width="2" fill="none">
<line x1="366" y1="368" x2="367" y2="368"/>
</g>
<path d="M378,392v -2" fill="none" stroke="#99ff99" stroke-width="2"/>
<path d="M378,390v -1" fill="none" stroke="#99ff99" stroke-width="2"/>
<g stroke="black" stroke-width="2" fill="none">
<line x1="377" y1="390" x2="378" y2="390"/>
</g>
<path d="M389,404v -1" fill="none" stroke="#99ff99" stroke-width="2"/>
<path d="M389,403v -1" fill="none" stroke="#99ff99" stroke-width="2"/>
<g stroke="black" stroke-width="2" fill="none">
<line x1="388" y1="403" x2="389" y2="403"/>
</g>
<path d="M400,419v -1" fill="none" stroke="#99ff99" stroke-width="2"/>
<path d="M400,418v -2" fill="none" stroke="#99ff99" stroke-width="2"/>
<g stroke="black" stroke-width="2" fill="none">
<line x1="399" y1="418" x2="400" y2="418"/>
</g>
<path d="M411,425v -1" fill="none" stroke="#99ff99" stroke-width="2"/>
<path d="M411,424v -1" fill="none" stroke="#99ff99" stroke-width="2"/>
<g stroke="black" stroke-width="2" fill="none">
<line x1="410" y1="424" x2="411" y2="424"/>
</g>
<path d="M422,433v -1" fill="none" stroke="#99ff99" stroke-width="2"/>
<path d="M422,432v -1" fill="none" stroke="#99ff99" stroke-width="2"/>
<g stroke="black" stroke-width="2" fill="none">
<line x1="421" y1="432" x2="422" y2="432"/>
</g>
<path d="M433,437v -1" fill="none" stroke="#99ff99" stroke-width="2"/>
<path d="M433,436v -1" fill="none" stroke="#99ff99" stroke-width="2"/>
<g stroke="black" stroke-width="2" fill="none">
<line x1="432" y1="436" x2="433" y2="436"/>
</g>
<path d="M444,440v -1" fill="none" stroke="#99ff99" stroke-width="2"/>
<path d="M444,439" fill="none" stroke="#99ff99" stroke-width="2"/>
<g stroke="black" stroke-width="2" fill="none">
<line x1="443" y1="439" x2="444" y2="439"/>
</g>
<path d="M455,442v -1" fill="none" stroke="#99ff99" stroke-width="2"/>
<path d="M455,441" fill="none" stroke="#99ff99" stroke-width="2"/>
<g stroke="black" stroke-width="2" fill="none">
<line x1="454" y1="441" x2="455" y2="441"/>
</g>
<path d="M466,444" fill="none" stroke="#99ff99" stroke-width="2"/>
<path d="M466,444v -1" fill="none" stroke="#99ff99" stroke-width="2"/>
<g stroke="black" stroke-width="2" fill="none">
<line x1="465" y1="444" x2="466" y2="444"/>
</g>
<path d="M477,445" fill="none" stroke="#99ff99" stroke-width="2"/>
<path d="M477,445v -1" fill="none" stroke="#99ff99" stroke-width="2"/>
<g stroke="black" stroke-width="2" fill="none">
<line x1="476" y1="445" x2="477" y2="445"/>
</g>
<path d="M489,445" fill="none" stroke="#99ff99" stroke-width="2"/>
<path d="M489,445" fill="none" stroke="#99ff99" stroke-width="2"/>
<g stroke="black" stroke-width="2" fill="none">
<line x1="488" y1="445" x2="489" y2="445"/>
</g>
<path d="M500,446" fill="none" stroke="#99ff99" stroke-width="2"/>
<path d="M500,446v -1" fill="none" stroke="#99ff99" stroke-width="2"/>
<g stroke="black" stroke-width="2" fill="none">
<line x1="499" y1="446" x2="500" y2="446"/>
</g>
<path d="M511,446" fill="none" stroke="#99ff99" stroke-width="2"/>
<path d="M511,446" fill="none" stroke="#99ff99" stroke-width="2"/>
<g stroke="black" stroke-width="2" fill="none">
<line x1="510" y1="446" x2="511" y2="446"/>
</g>
<path d="M522,446" fill="none" stroke="#99ff99" stroke-width="2"/>
<path d="M522,446" fill="none" stroke="#99ff99" stroke-width="2"/>
<g stroke="black" stroke-width="2" fill="none">
<line x1="521" y1="446" x2="522" y2="446"/>
</g>
<path d="M74,446h 22v -1h 11v -5h 11v -12h 11v -23h 11v -31h 11v -38h 11v -57h 11v -54h 11v -47h 11v -38h 11v -27h 12v -22h 11v -23h 11v 5h 11v 16h 11v 12h 11v 25h 11v 26h 11v 35h 11v 32h 11v 43h 11v 30h 11v 27h 11v 25h 11v 24h 11v 22h 11v 13h 11v
 15h 12v 6h 11v 8h 11v 4h 11v 3h 11v 2h 11v 3h 11v 1h 22v 1h 33z" fill="#99ff99"/>
<path d="M74,446h 22v -1h 11v -5h 11v -12h 11v -23h 11v -31h 11v -38h 11v -57h 11v -54h 11v -47h 11v -38h 11v -27h 12v -22h 11v -23h 11v 5h 11v 16h 11v 12h 11v 25h 11v 26h 11v 35h 11v 32h 11v 43h 11v 30h 11v 27h 11v 25h 11v 24h 11v 22h 11v 13h 11v
 15h 12v 6h 11v 8h 11v 4h 11v 3h 11v 2h 11v 3h 11v 1h 22v 1h 33" fill="none" stroke="#99ff99" stroke-width="2"/>
<path d="M85,446h 4" fill="none" stroke="#ff0099"/>
<path d="M91,446h 5" fill="none" stroke="#ff0099"/>
<g stroke="#ff0099" stroke-width="1" fill="#ff0099">
<circle cx=" 90" cy=" 446" r=" 1.5"/>
</g>
<path d="M96,445h 4" fill="none" stroke="#ff0099"/>
<path d="M102,445h 5" fill="none" stroke="#ff0099"/>
<g stroke="#ff0099" stroke-width="1" fill="#ff0099">
<circle cx=" 101" cy=" 445" r=" 1.5"/>
</g>
<path d="M107,440h 4" fill="none" stroke="#ff0099"/>
<path d="M114,440h 4" fill="none" stroke="#ff0099"/>
<g stroke="#ff0099" stroke-width="1" fill="#ff0099">
<circle cx=" 112" cy=" 440" r=" 1.5"/>
</g>
<path d="M118,429h 4" fill="none" stroke="#ff0099"/>
<path d="M125,429h 4" fill="none" stroke="#ff0099"/>
<g stroke="#ff0099" stroke-width="1" fill="#ff0099">
<circle cx=" 123" cy=" 429" r=" 1.5"/>
</g>
<path d="M135,410" fill="none" stroke="#ff0099"/>
<path d="M135,408" fill="none" stroke="#ff0099"/>
<path d="M129,409h 4" fill="none" stroke="#ff0099"/>
<path d="M136,409h 4" fill="none" stroke="#ff0099"/>
<g stroke="#ff0099" stroke-width="1" fill="#ff0099">
<circle cx=" 135" cy=" 409" r=" 1.5"/>
</g>
<path d="M146,380v -1" fill="none" stroke="#ff0099"/>
<path d="M146,377v -1" fill="none" stroke="#ff0099"/>
<path d="M140,378h 4" fill="none" stroke="#ff0099"/>
<path d="M147,378h 4" fill="none" stroke="#ff0099"/>
<g stroke="#ff0099" stroke-width="1" fill="#ff0099">
<circle cx=" 146" cy=" 378" r=" 1.5"/>
</g>
<path d="M157,338v -1" fill="none" stroke="#ff0099"/>
<path d="M157,335v -2" fill="none" stroke="#ff0099"/>
<path d="M151,336h 5" fill="none" stroke="#ff0099"/>
<path d="M158,336h 4" fill="none" stroke="#ff0099"/>
<g stroke="#ff0099" stroke-width="1" fill="#ff0099">
<circle cx=" 157" cy=" 336" r=" 1.5"/>
</g>
<path d="M168,286v -2" fill="none" stroke="#ff0099"/>
<path d="M168,282v -2" fill="none" stroke="#ff0099"/>
<path d="M162,283h 5" fill="none" stroke="#ff0099"/>
<path d="M169,283h 4" fill="none" stroke="#ff0099"/>
<g stroke="#ff0099" stroke-width="1" fill="#ff0099">
<circle cx=" 168" cy=" 283" r=" 1.5"/>
</g>
<path d="M179,233v -2" fill="none" stroke="#ff0099"/>
<path d="M179,228v -2" fill="none" stroke="#ff0099"/>
<path d="M173,230h 5" fill="none" stroke="#ff0099"/>
<path d="M180,230h 4" fill="none" stroke="#ff0099"/>
<g stroke="#ff0099" stroke-width="1" fill="#ff0099">
<circle cx=" 179" cy=" 230" r=" 1.5"/>
</g>
<path d="M190,190v -3" fill="none" stroke="#ff0099"/>
<path d="M190,185v -3" fill="none" stroke="#ff0099"/>
<path d="M184,186h 5" fill="none" stroke="#ff0099"/>
<path d="M191,186h 4" fill="none" stroke="#ff0099"/>
<g stroke="#ff0099" stroke-width="1" fill="#ff0099">
<circle cx=" 190" cy=" 186" r=" 1.5"/>
</g>
<path d="M201,144v -4" fill="none" stroke="#ff0099"/>
<path d="M201,138v -3" fill="none" stroke="#ff0099"/>
<path d="M195,139h 5" fill="none" stroke="#ff0099"/>
<path d="M202,139h 4" fill="none" stroke="#ff0099"/>
<g stroke="#ff0099" stroke-width="1" fill="#ff0099">
<circle cx=" 201" cy=" 139" r=" 1.5"/>
</g>
<path d="M212,109v -4" fill="none" stroke="#ff0099"/>
<path d="M212,103v -4" fill="none" stroke="#ff0099"/>
<path d="M206,104h 5" fill="none" stroke="#ff0099"/>
<path d="M213,104h 5" fill="none" stroke="#ff0099"/>
<g stroke="#ff0099" stroke-width="1" fill="#ff0099">
<circle cx=" 212" cy=" 104" r=" 1.5"/>
</g>
<path d="M223,91v -4" fill="none" stroke="#ff0099"/>
<path d="M223,85v -4" fill="none" stroke="#ff0099"/>
<path d="M218,86h 4" fill="none" stroke="#ff0099"/>
<path d="M224,86h 5" fill="none" stroke="#ff0099"/>
<g stroke="#ff0099" stroke-width="1" fill="#ff0099">
<circle cx=" 223" cy=" 86" r=" 1.5"/>
</g>
<path d="M234,83v -4" fill="none" stroke="#ff0099"/>
<path d="M234,77v -4" fill="none" stroke="#ff0099"/>
<path d="M229,78h 4" fill="none" stroke="#ff0099"/>
<path d="M235,78h 5" fill="none" stroke="#ff0099"/>
<g stroke="#ff0099" stroke-width="1" fill="#ff0099">
<circle cx=" 234" cy=" 78" r=" 1.5"/>
</g>
<path d="M245,74v -4" fill="none" stroke="#ff0099"/>
<path d="M245,67v -4" fill="none" stroke="#ff0099"/>
<path d="M240,69h 4" fill="none" stroke="#ff0099"/>
<path d="M246,69h 5" fill="none" stroke="#ff0099"/>
<g stroke="#ff0099" stroke-width="1" fill="#ff0099">
<circle cx=" 245" cy=" 69" r=" 1.5"/>
</g>
<path d="M256,87v -3" fill="none" stroke="#ff0099"/>
<path d="M256,81v -3" fill="none" stroke="#ff0099"/>
<path d="M251,83h 4" fill="none" stroke="#ff0099"/>
<path d="M257,83h 5" fill="none" stroke="#ff0099"/>
<g stroke="#ff0099" stroke-width="1" fill="#ff0099">
<circle cx=" 256" cy=" 83" r=" 1.5"/>
</g>
<path d="M267,110v -4" fill="none" stroke="#ff0099"/>
<path d="M267,104v -4" fill="none" stroke="#ff0099"/>
<path d="M262,105h 4" fill="none" stroke="#ff0099"/>
<path d="M268,105h 5" fill="none" stroke="#ff0099"/>
<g stroke="#ff0099" stroke-width="1" fill="#ff0099">
<circle cx=" 267" cy=" 105" r=" 1.5"/>
</g>
<path d="M278,130v -3" fill="none" stroke="#ff0099"/>
<path d="M278,125v -4" fill="none" stroke="#ff0099"/>
<path d="M273,126h 4" fill="none" stroke="#ff0099"/>
<path d="M279,126h 5" fill="none" stroke="#ff0099"/>
<g stroke="#ff0099" stroke-width="1" fill="#ff0099">
<circle cx=" 278" cy=" 126" r=" 1.5"/>
</g>
<path d="M289,162v -3" fill="none" stroke="#ff0099"/>
<path d="M289,157v -3" fill="none" stroke="#ff0099"/>
<path d="M284,158h 4" fill="none" stroke="#ff0099"/>
<path d="M291,158h 4" fill="none" stroke="#ff0099"/>
<g stroke="#ff0099" stroke-width="1" fill="#ff0099">
<circle cx=" 289" cy=" 158" r=" 1.5"/>
</g>
<path d="M300,188v -3" fill="none" stroke="#ff0099"/>
<path d="M300,183v -3" fill="none" stroke="#ff0099"/>
<path d="M295,184h 4" fill="none" stroke="#ff0099"/>
<path d="M302,184h 4" fill="none" stroke="#ff0099"/>
<g stroke="#ff0099" stroke-width="1" fill="#ff0099">
<circle cx=" 300" cy=" 184" r=" 1.5"/>
</g>
<path d="M312,220v -3" fill="none" stroke="#ff0099"/>
<path d="M312,215v -3" fill="none" stroke="#ff0099"/>
<path d="M306,216h 4" fill="none" stroke="#ff0099"/>
<path d="M313,216h 4" fill="none" stroke="#ff0099"/>
<g stroke="#ff0099" stroke-width="1" fill="#ff0099">
<circle cx=" 312" cy=" 216" r=" 1.5"/>
</g>
<path d="M323,261v -2" fill="none" stroke="#ff0099"/>
<path d="M323,257v -3" fill="none" stroke="#ff0099"/>
<path d="M317,258h 4" fill="none" stroke="#ff0099"/>
<path d="M324,258h 4" fill="none" stroke="#ff0099"/>
<g stroke="#ff0099" stroke-width="1" fill="#ff0099">
<circle cx=" 323" cy=" 258" r=" 1.5"/>
</g>
<path d="M334,287v -2" fill="none" stroke="#ff0099"/>
<path d="M334,283v -3" fill="none" stroke="#ff0099"/>
<path d="M328,284h 5" fill="none" stroke="#ff0099"/>
<path d="M335,284h 4" fill="none" stroke="#ff0099"/>
<g stroke="#ff0099" stroke-width="1" fill="#ff0099">
<circle cx=" 334" cy=" 284" r=" 1.5"/>
</g>
<path d="M345,318v -2" fill="none" stroke="#ff0099"/>
<path d="M345,314v -2" fill="none" stroke="#ff0099"/>
<path d="M339,315h 5" fill="none" stroke="#ff0099"/>
<path d="M346,315h 4" fill="none" stroke="#ff0099"/>
<g stroke="#ff0099" stroke-width="1" fill="#ff0099">
<circle cx=" 345" cy=" 315" r=" 1.5"/>
</g>
<path d="M356,349v -2" fill="none" stroke="#ff0099"/>
<path d="M356,345v -1" fill="none" stroke="#ff0099"/>
<path d="M350,346h 5" fill="none" stroke="#ff0099"/>
<path d="M357,346h 4" fill="none" stroke="#ff0099"/>
<g stroke="#ff0099" stroke-width="1" fill="#ff0099">
<circle cx=" 356" cy=" 346" r=" 1.5"/>
</g>
<path d="M367,374v -1" fill="none" stroke="#ff0099"/>
<path d="M367,371v -1" fill="none" stroke="#ff0099"/>
<path d="M361,372h 5" fill="none" stroke="#ff0099"/>
<path d="M368,372h 4" fill="none" stroke="#ff0099"/>
<g stroke="#ff0099" stroke-width="1" fill="#ff0099">
<circle cx=" 367" cy=" 372" r=" 1.5"/>
</g>
<path d="M378,393v -1" fill="none" stroke="#ff0099"/>
<path d="M378,390" fill="none" stroke="#ff0099"/>
<path d="M372,391h 5" fill="none" stroke="#ff0099"/>
<path d="M379,391h 4" fill="none" stroke="#ff0099"/>
<g stroke="#ff0099" stroke-width="1" fill="#ff0099">
<circle cx=" 378" cy=" 391" r=" 1.5"/>
</g>
<path d="M389,404v -1" fill="none" stroke="#ff0099"/>
<path d="M389,401v -1" fill="none" stroke="#ff0099"/>
<path d="M383,402h 5" fill="none" stroke="#ff0099"/>
<path d="M390,402h 4" fill="none" stroke="#ff0099"/>
<g stroke="#ff0099" stroke-width="1" fill="#ff0099">
<circle cx=" 389" cy=" 402" r=" 1.5"/>
</g>
<path d="M400,414" fill="none" stroke="#ff0099"/>
<path d="M400,412" fill="none" stroke="#ff0099"/>
<path d="M394,413h 5" fill="none" stroke="#ff0099"/>
<path d="M401,413h 5" fill="none" stroke="#ff0099"/>
<g stroke="#ff0099" stroke-width="1" fill="#ff0099">
<circle cx=" 400" cy=" 413" r=" 1.5"/>
</g>
<path d="M406,426h 4" fill="none" stroke="#ff0099"/>
<path d="M412,426h 5" fill="none" stroke="#ff0099"/>
<g stroke="#ff0099" stroke-width="1" fill="#ff0099">
<circle cx=" 411" cy=" 426" r=" 1.5"/>
</g>
<path d="M417,432h 4" fill="none" stroke="#ff0099"/>
<path d="M423,432h 5" fill="none" stroke="#ff0099"/>
<g stroke="#ff0099" stroke-width="1" fill="#ff0099">
<circle cx=" 422" cy=" 432" r=" 1.5"/>
</g>
<path d="M428,437h 4" fill="none" stroke="#ff0099"/>
<path d="M434,437h 5" fill="none" stroke="#ff0099"/>
<g stroke="#ff0099" stroke-width="1" fill="#ff0099">
<circle cx=" 433" cy=" 437" r=" 1.5"/>
</g>
<path d="M439,440h 4" fill="none" stroke="#ff0099"/>
<path d="M445,440h 5" fill="none" stroke="#ff0099"/>
<g stroke="#ff0099" stroke-width="1" fill="#ff0099">
<circle cx=" 444" cy=" 440" r=" 1.5"/>
</g>
<path d="M450,442h 4" fill="none" stroke="#ff0099"/>
<path d="M456,442h 5" fill="none" stroke="#ff0099"/>
<g stroke="#ff0099" stroke-width="1" fill="#ff0099">
<circle cx=" 455" cy=" 442" r=" 1.5"/>
</g>
<path d="M461,442h 4" fill="none" stroke="#ff0099"/>
<path d="M468,442h 4" fill="none" stroke="#ff0099"/>
<g stroke="#ff0099" stroke-width="1" fill="#ff0099">
<circle cx=" 466" cy=" 442" r=" 1.5"/>
</g>
<path d="M472,445h 4" fill="none" stroke="#ff0099"/>
<path d="M479,445h 4" fill="none" stroke="#ff0099"/>
<g stroke="#ff0099" stroke-width="1" fill="#ff0099">
<circle cx=" 477" cy=" 445" r=" 1.5"/>
</g>
<path d="M483,445h 4" fill="none" stroke="#ff0099"/>
<path d="M490,445h 4" fill="none" stroke="#ff0099"/>
<g stroke="#ff0099" stroke-width="1" fill="#ff0099">
<circle cx=" 489" cy=" 445" r=" 1.5"/>
</g>
<path d="M494,446h 4" fill="none" stroke="#ff0099"/>
<path d="M501,446h 4" fill="none" stroke="#ff0099"/>
<g stroke="#ff0099" stroke-width="1" fill="#ff0099">
<circle cx=" 500" cy=" 446" r=" 1.5"/>
</g>
<path d="M505,446h 5" fill="none" stroke="#ff0099"/>
<path d="M512,446h 4" fill="none" stroke="#ff0099"/>
<g stroke="#ff0099" stroke-width="1" fill="#ff0099">
<circle cx=" 511" cy=" 446" r=" 1.5"/>
</g>
<path d="M516,446h 5" fill="none" stroke="#ff0099"/>
<path d="M523,446h 4" fill="none" stroke="#ff0099"/>
<g stroke="#ff0099" stroke-width="1" fill="#ff0099">
<circle cx=" 522" cy=" 446" r=" 1.5"/>
</g>
<rect x="357" y="59" width="142" height="99" fill="white"/>
<text x="360" y="82" fill="black" font-size="17" font-family="Helvetica" font-weight="bold">
EE
</text>
<text x="457" y="115" fill="black" font-size="17" font-family="Helvetica" font-weight="bold">
 ee
</text>
<text x="440" y="115" fill="black" font-size="17" font-family="Times">
&#8594;
</text>
<text x="392" y="115" fill="black" font-size="17" font-family="Helvetica" font-weight="bold">
MC Z 
</text>
<path d="M362,109h 25" fill="none" stroke="#ff0099"/>
<g stroke="#ff0099" stroke-width="1" fill="#ff0099">
<circle cx=" 375" cy=" 109" r=" 1.5"/>
</g>
<text x="455" y="147" fill="black" font-size="17" font-family="Helvetica" font-weight="bold">
 + jet
</text>
<text x="447" y="147" fill="black" font-size="17" font-family="Times">
&#0947;
</text>
<text x="392" y="147" fill="black" font-size="17" font-family="Helvetica" font-weight="bold">
signal 
</text>
<path d="M362,154h 25v -24h -25z" fill="#99ff99"/>
<path d="M362,130h 25" fill="none" stroke="#99ff99" stroke-width="2"/>
<path d="M362,154h 25" fill="none" stroke="#99ff99" stroke-width="2"/>
<path d="M387,154v -24" fill="none" stroke="#99ff99" stroke-width="2"/>
<path d="M362,154v -24" fill="none" stroke="#99ff99" stroke-width="2"/>
<text x="300" y="34" fill="black" font-size="17" font-family="Helvetica" font-weight="bold">
=8 TeV
</text>
<text x="291" y="34" fill="black" font-size="17" font-family="Helvetica" font-weight="bold">
s
</text>
<path d="M285,25l 2, 10" fill="none" stroke="black" stroke-width="2"/>
<path d="M287,35l 2, -14" fill="none" stroke="black"/>
<path d="M289,21h 11" fill="none" stroke="black"/>
<text x="142" y="34" fill="black" font-size="17" font-family="Helvetica" font-weight="bold">
CMS Preliminary 
</text></svg>
