<?xml version="1.0" standalone="no"?>
<svg width="567" height="496" viewBox="0 0 567 496" xmlns="http://www.w3.org/2000/svg">
<title>
../src/TagAndProbeZ/plots_dataZee_mcGJet_withEtaR9rhoReweight/hlt30//nvtxEB.svg
</title>
<desc>
Creator: ROOT Version 5.32/00
CreationDate: Tue Dec  2 08:45:12 2014</desc>
<defs>
</defs>
<rect x="0" y="0" width="567" height="496" fill="white"/>
<rect x="74" y="44" width="453" height="402" fill="white"/>
<rect x="74" y="44" width="453" height="402" fill="none" stroke="black"/>
<rect x="74" y="44" width="453" height="402" fill="white"/>
<rect x="74" y="44" width="453" height="402" fill="none" stroke="black"/>
<path d="M85,446h 4" fill="none" stroke="#ff0099"/>
<path d="M91,446h 5" fill="none" stroke="#ff0099"/>
<g stroke="#ff0099" stroke-width="1" fill="#ff0099">
<circle cx=" 90" cy=" 446" r=" 1.5"/>
</g>
<path d="M96,444h 4" fill="none" stroke="#ff0099"/>
<path d="M102,444h 5" fill="none" stroke="#ff0099"/>
<g stroke="#ff0099" stroke-width="1" fill="#ff0099">
<circle cx=" 101" cy=" 444" r=" 1.5"/>
</g>
<path d="M107,440h 4" fill="none" stroke="#ff0099"/>
<path d="M114,440h 4" fill="none" stroke="#ff0099"/>
<g stroke="#ff0099" stroke-width="1" fill="#ff0099">
<circle cx=" 112" cy=" 440" r=" 1.5"/>
</g>
<path d="M118,428h 4" fill="none" stroke="#ff0099"/>
<path d="M125,428h 4" fill="none" stroke="#ff0099"/>
<g stroke="#ff0099" stroke-width="1" fill="#ff0099">
<circle cx=" 123" cy=" 428" r=" 1.5"/>
</g>
<path d="M129,405h 4" fill="none" stroke="#ff0099"/>
<path d="M136,405h 4" fill="none" stroke="#ff0099"/>
<g stroke="#ff0099" stroke-width="1" fill="#ff0099">
<circle cx=" 135" cy=" 405" r=" 1.5"/>
</g>
<path d="M140,372h 4" fill="none" stroke="#ff0099"/>
<path d="M147,372h 4" fill="none" stroke="#ff0099"/>
<g stroke="#ff0099" stroke-width="1" fill="#ff0099">
<circle cx=" 146" cy=" 372" r=" 1.5"/>
</g>
<path d="M151,329h 5" fill="none" stroke="#ff0099"/>
<path d="M158,329h 4" fill="none" stroke="#ff0099"/>
<g stroke="#ff0099" stroke-width="1" fill="#ff0099">
<circle cx=" 157" cy=" 329" r=" 1.5"/>
</g>
<path d="M168,280" fill="none" stroke="#ff0099"/>
<path d="M168,278" fill="none" stroke="#ff0099"/>
<path d="M162,279h 5" fill="none" stroke="#ff0099"/>
<path d="M169,279h 4" fill="none" stroke="#ff0099"/>
<g stroke="#ff0099" stroke-width="1" fill="#ff0099">
<circle cx=" 168" cy=" 279" r=" 1.5"/>
</g>
<path d="M179,222v -1" fill="none" stroke="#ff0099"/>
<path d="M179,219" fill="none" stroke="#ff0099"/>
<path d="M173,220h 5" fill="none" stroke="#ff0099"/>
<path d="M180,220h 4" fill="none" stroke="#ff0099"/>
<g stroke="#ff0099" stroke-width="1" fill="#ff0099">
<circle cx=" 179" cy=" 220" r=" 1.5"/>
</g>
<path d="M190,170" fill="none" stroke="#ff0099"/>
<path d="M190,167" fill="none" stroke="#ff0099"/>
<path d="M184,169h 5" fill="none" stroke="#ff0099"/>
<path d="M191,169h 4" fill="none" stroke="#ff0099"/>
<g stroke="#ff0099" stroke-width="1" fill="#ff0099">
<circle cx=" 190" cy=" 169" r=" 1.5"/>
</g>
<path d="M201,129" fill="none" stroke="#ff0099"/>
<path d="M201,126" fill="none" stroke="#ff0099"/>
<path d="M195,127h 5" fill="none" stroke="#ff0099"/>
<path d="M202,127h 4" fill="none" stroke="#ff0099"/>
<g stroke="#ff0099" stroke-width="1" fill="#ff0099">
<circle cx=" 201" cy=" 127" r=" 1.5"/>
</g>
<path d="M212,96" fill="none" stroke="#ff0099"/>
<path d="M212,93" fill="none" stroke="#ff0099"/>
<path d="M206,95h 5" fill="none" stroke="#ff0099"/>
<path d="M213,95h 5" fill="none" stroke="#ff0099"/>
<g stroke="#ff0099" stroke-width="1" fill="#ff0099">
<circle cx=" 212" cy=" 95" r=" 1.5"/>
</g>
<path d="M223,77v -1" fill="none" stroke="#ff0099"/>
<path d="M223,74v -1" fill="none" stroke="#ff0099"/>
<path d="M218,75h 4" fill="none" stroke="#ff0099"/>
<path d="M224,75h 5" fill="none" stroke="#ff0099"/>
<g stroke="#ff0099" stroke-width="1" fill="#ff0099">
<circle cx=" 223" cy=" 75" r=" 1.5"/>
</g>
<path d="M234,67v -1" fill="none" stroke="#ff0099"/>
<path d="M234,64v -1" fill="none" stroke="#ff0099"/>
<path d="M229,65h 4" fill="none" stroke="#ff0099"/>
<path d="M235,65h 5" fill="none" stroke="#ff0099"/>
<g stroke="#ff0099" stroke-width="1" fill="#ff0099">
<circle cx=" 234" cy=" 65" r=" 1.5"/>
</g>
<path d="M245,68v -1" fill="none" stroke="#ff0099"/>
<path d="M245,65v -1" fill="none" stroke="#ff0099"/>
<path d="M240,66h 4" fill="none" stroke="#ff0099"/>
<path d="M246,66h 5" fill="none" stroke="#ff0099"/>
<g stroke="#ff0099" stroke-width="1" fill="#ff0099">
<circle cx=" 245" cy=" 66" r=" 1.5"/>
</g>
<path d="M256,82v -1" fill="none" stroke="#ff0099"/>
<path d="M256,79v -1" fill="none" stroke="#ff0099"/>
<path d="M251,80h 4" fill="none" stroke="#ff0099"/>
<path d="M257,80h 5" fill="none" stroke="#ff0099"/>
<g stroke="#ff0099" stroke-width="1" fill="#ff0099">
<circle cx=" 256" cy=" 80" r=" 1.5"/>
</g>
<path d="M267,96v -1" fill="none" stroke="#ff0099"/>
<path d="M267,93v -1" fill="none" stroke="#ff0099"/>
<path d="M262,94h 4" fill="none" stroke="#ff0099"/>
<path d="M268,94h 5" fill="none" stroke="#ff0099"/>
<g stroke="#ff0099" stroke-width="1" fill="#ff0099">
<circle cx=" 267" cy=" 94" r=" 1.5"/>
</g>
<path d="M278,128" fill="none" stroke="#ff0099"/>
<path d="M278,125" fill="none" stroke="#ff0099"/>
<path d="M273,127h 4" fill="none" stroke="#ff0099"/>
<path d="M279,127h 5" fill="none" stroke="#ff0099"/>
<g stroke="#ff0099" stroke-width="1" fill="#ff0099">
<circle cx=" 278" cy=" 127" r=" 1.5"/>
</g>
<path d="M289,162" fill="none" stroke="#ff0099"/>
<path d="M289,159" fill="none" stroke="#ff0099"/>
<path d="M284,160h 4" fill="none" stroke="#ff0099"/>
<path d="M291,160h 4" fill="none" stroke="#ff0099"/>
<g stroke="#ff0099" stroke-width="1" fill="#ff0099">
<circle cx=" 289" cy=" 160" r=" 1.5"/>
</g>
<path d="M300,194v -1" fill="none" stroke="#ff0099"/>
<path d="M300,191v -1" fill="none" stroke="#ff0099"/>
<path d="M295,192h 4" fill="none" stroke="#ff0099"/>
<path d="M302,192h 4" fill="none" stroke="#ff0099"/>
<g stroke="#ff0099" stroke-width="1" fill="#ff0099">
<circle cx=" 300" cy=" 192" r=" 1.5"/>
</g>
<path d="M312,230" fill="none" stroke="#ff0099"/>
<path d="M312,227" fill="none" stroke="#ff0099"/>
<path d="M306,229h 4" fill="none" stroke="#ff0099"/>
<path d="M313,229h 4" fill="none" stroke="#ff0099"/>
<g stroke="#ff0099" stroke-width="1" fill="#ff0099">
<circle cx=" 312" cy=" 229" r=" 1.5"/>
</g>
<path d="M323,266" fill="none" stroke="#ff0099"/>
<path d="M323,264v -1" fill="none" stroke="#ff0099"/>
<path d="M317,265h 4" fill="none" stroke="#ff0099"/>
<path d="M324,265h 4" fill="none" stroke="#ff0099"/>
<g stroke="#ff0099" stroke-width="1" fill="#ff0099">
<circle cx=" 323" cy=" 265" r=" 1.5"/>
</g>
<path d="M334,301" fill="none" stroke="#ff0099"/>
<path d="M334,299" fill="none" stroke="#ff0099"/>
<path d="M328,300h 5" fill="none" stroke="#ff0099"/>
<path d="M335,300h 4" fill="none" stroke="#ff0099"/>
<g stroke="#ff0099" stroke-width="1" fill="#ff0099">
<circle cx=" 334" cy=" 300" r=" 1.5"/>
</g>
<path d="M339,330h 5" fill="none" stroke="#ff0099"/>
<path d="M346,330h 4" fill="none" stroke="#ff0099"/>
<g stroke="#ff0099" stroke-width="1" fill="#ff0099">
<circle cx=" 345" cy=" 330" r=" 1.5"/>
</g>
<path d="M350,355h 5" fill="none" stroke="#ff0099"/>
<path d="M357,355h 4" fill="none" stroke="#ff0099"/>
<g stroke="#ff0099" stroke-width="1" fill="#ff0099">
<circle cx=" 356" cy=" 355" r=" 1.5"/>
</g>
<path d="M361,377h 5" fill="none" stroke="#ff0099"/>
<path d="M368,377h 4" fill="none" stroke="#ff0099"/>
<g stroke="#ff0099" stroke-width="1" fill="#ff0099">
<circle cx=" 367" cy=" 377" r=" 1.5"/>
</g>
<path d="M372,396h 5" fill="none" stroke="#ff0099"/>
<path d="M379,396h 4" fill="none" stroke="#ff0099"/>
<g stroke="#ff0099" stroke-width="1" fill="#ff0099">
<circle cx=" 378" cy=" 396" r=" 1.5"/>
</g>
<path d="M383,410h 5" fill="none" stroke="#ff0099"/>
<path d="M390,410h 4" fill="none" stroke="#ff0099"/>
<g stroke="#ff0099" stroke-width="1" fill="#ff0099">
<circle cx=" 389" cy=" 410" r=" 1.5"/>
</g>
<path d="M394,420h 5" fill="none" stroke="#ff0099"/>
<path d="M401,420h 5" fill="none" stroke="#ff0099"/>
<g stroke="#ff0099" stroke-width="1" fill="#ff0099">
<circle cx=" 400" cy=" 420" r=" 1.5"/>
</g>
<path d="M406,428h 4" fill="none" stroke="#ff0099"/>
<path d="M412,428h 5" fill="none" stroke="#ff0099"/>
<g stroke="#ff0099" stroke-width="1" fill="#ff0099">
<circle cx=" 411" cy=" 428" r=" 1.5"/>
</g>
<path d="M417,434h 4" fill="none" stroke="#ff0099"/>
<path d="M423,434h 5" fill="none" stroke="#ff0099"/>
<g stroke="#ff0099" stroke-width="1" fill="#ff0099">
<circle cx=" 422" cy=" 434" r=" 1.5"/>
</g>
<path d="M428,439h 4" fill="none" stroke="#ff0099"/>
<path d="M434,439h 5" fill="none" stroke="#ff0099"/>
<g stroke="#ff0099" stroke-width="1" fill="#ff0099">
<circle cx=" 433" cy=" 439" r=" 1.5"/>
</g>
<path d="M439,441h 4" fill="none" stroke="#ff0099"/>
<path d="M445,441h 5" fill="none" stroke="#ff0099"/>
<g stroke="#ff0099" stroke-width="1" fill="#ff0099">
<circle cx=" 444" cy=" 441" r=" 1.5"/>
</g>
<path d="M450,443h 4" fill="none" stroke="#ff0099"/>
<path d="M456,443h 5" fill="none" stroke="#ff0099"/>
<g stroke="#ff0099" stroke-width="1" fill="#ff0099">
<circle cx=" 455" cy=" 443" r=" 1.5"/>
</g>
<path d="M461,444h 4" fill="none" stroke="#ff0099"/>
<path d="M468,444h 4" fill="none" stroke="#ff0099"/>
<g stroke="#ff0099" stroke-width="1" fill="#ff0099">
<circle cx=" 466" cy=" 444" r=" 1.5"/>
</g>
<path d="M472,445h 4" fill="none" stroke="#ff0099"/>
<path d="M479,445h 4" fill="none" stroke="#ff0099"/>
<g stroke="#ff0099" stroke-width="1" fill="#ff0099">
<circle cx=" 477" cy=" 445" r=" 1.5"/>
</g>
<path d="M483,445h 4" fill="none" stroke="#ff0099"/>
<path d="M490,445h 4" fill="none" stroke="#ff0099"/>
<g stroke="#ff0099" stroke-width="1" fill="#ff0099">
<circle cx=" 489" cy=" 445" r=" 1.5"/>
</g>
<path d="M494,446h 4" fill="none" stroke="#ff0099"/>
<path d="M501,446h 4" fill="none" stroke="#ff0099"/>
<g stroke="#ff0099" stroke-width="1" fill="#ff0099">
<circle cx=" 500" cy=" 446" r=" 1.5"/>
</g>
<path d="M505,446h 5" fill="none" stroke="#ff0099"/>
<path d="M512,446h 4" fill="none" stroke="#ff0099"/>
<g stroke="#ff0099" stroke-width="1" fill="#ff0099">
<circle cx=" 511" cy=" 446" r=" 1.5"/>
</g>
<path d="M516,446h 5" fill="none" stroke="#ff0099"/>
<path d="M523,446h 4" fill="none" stroke="#ff0099"/>
<g stroke="#ff0099" stroke-width="1" fill="#ff0099">
<circle cx=" 522" cy=" 446" r=" 1.5"/>
</g>
<path d="M74,446h 453" fill="none" stroke="black"/>
<path d="M79,434v 12" fill="none" stroke="black"/>
<path d="M90,440v 6" fill="none" stroke="black"/>
<path d="M101,440v 6" fill="none" stroke="black"/>
<path d="M112,440v 6" fill="none" stroke="black"/>
<path d="M123,440v 6" fill="none" stroke="black"/>
<path d="M135,434v 12" fill="none" stroke="black"/>
<path d="M146,440v 6" fill="none" stroke="black"/>
<path d="M157,440v 6" fill="none" stroke="black"/>
<path d="M168,440v 6" fill="none" stroke="black"/>
<path d="M179,440v 6" fill="none" stroke="black"/>
<path d="M190,434v 12" fill="none" stroke="black"/>
<path d="M201,440v 6" fill="none" stroke="black"/>
<path d="M212,440v 6" fill="none" stroke="black"/>
<path d="M223,440v 6" fill="none" stroke="black"/>
<path d="M234,440v 6" fill="none" stroke="black"/>
<path d="M245,434v 12" fill="none" stroke="black"/>
<path d="M256,440v 6" fill="none" stroke="black"/>
<path d="M267,440v 6" fill="none" stroke="black"/>
<path d="M278,440v 6" fill="none" stroke="black"/>
<path d="M289,440v 6" fill="none" stroke="black"/>
<path d="M300,434v 12" fill="none" stroke="black"/>
<path d="M312,440v 6" fill="none" stroke="black"/>
<path d="M323,440v 6" fill="none" stroke="black"/>
<path d="M334,440v 6" fill="none" stroke="black"/>
<path d="M345,440v 6" fill="none" stroke="black"/>
<path d="M356,434v 12" fill="none" stroke="black"/>
<path d="M367,440v 6" fill="none" stroke="black"/>
<path d="M378,440v 6" fill="none" stroke="black"/>
<path d="M389,440v 6" fill="none" stroke="black"/>
<path d="M400,440v 6" fill="none" stroke="black"/>
<path d="M411,434v 12" fill="none" stroke="black"/>
<path d="M422,440v 6" fill="none" stroke="black"/>
<path d="M433,440v 6" fill="none" stroke="black"/>
<path d="M444,440v 6" fill="none" stroke="black"/>
<path d="M455,440v 6" fill="none" stroke="black"/>
<path d="M466,434v 12" fill="none" stroke="black"/>
<path d="M477,440v 6" fill="none" stroke="black"/>
<path d="M489,440v 6" fill="none" stroke="black"/>
<path d="M500,440v 6" fill="none" stroke="black"/>
<path d="M511,440v 6" fill="none" stroke="black"/>
<path d="M522,434v 12" fill="none" stroke="black"/>
<path d="M79,434v 12" fill="none" stroke="black"/>
<path d="M522,434v 12" fill="none" stroke="black"/>
<text x="74" y="465" fill="black" font-size="18" font-family="Helvetica" font-weight="bold">
0
</text>
<text x="129" y="465" fill="black" font-size="18" font-family="Helvetica" font-weight="bold">
5
</text>
<text x="179" y="465" fill="black" font-size="18" font-family="Helvetica" font-weight="bold">
10
</text>
<text x="235" y="465" fill="black" font-size="18" font-family="Helvetica" font-weight="bold">
15
</text>
<text x="290" y="465" fill="black" font-size="18" font-family="Helvetica" font-weight="bold">
20
</text>
<text x="346" y="465" fill="black" font-size="18" font-family="Helvetica" font-weight="bold">
25
</text>
<text x="401" y="465" fill="black" font-size="18" font-family="Helvetica" font-weight="bold">
30
</text>
<text x="456" y="465" fill="black" font-size="18" font-family="Helvetica" font-weight="bold">
35
</text>
<text x="511" y="465" fill="black" font-size="18" font-family="Helvetica" font-weight="bold">
40
</text>
<path d="M74,44h 453" fill="none" stroke="black"/>
<path d="M79,56v -12" fill="none" stroke="black"/>
<path d="M90,50v -6" fill="none" stroke="black"/>
<path d="M101,50v -6" fill="none" stroke="black"/>
<path d="M112,50v -6" fill="none" stroke="black"/>
<path d="M123,50v -6" fill="none" stroke="black"/>
<path d="M135,56v -12" fill="none" stroke="black"/>
<path d="M146,50v -6" fill="none" stroke="black"/>
<path d="M157,50v -6" fill="none" stroke="black"/>
<path d="M168,50v -6" fill="none" stroke="black"/>
<path d="M179,50v -6" fill="none" stroke="black"/>
<path d="M190,56v -12" fill="none" stroke="black"/>
<path d="M201,50v -6" fill="none" stroke="black"/>
<path d="M212,50v -6" fill="none" stroke="black"/>
<path d="M223,50v -6" fill="none" stroke="black"/>
<path d="M234,50v -6" fill="none" stroke="black"/>
<path d="M245,56v -12" fill="none" stroke="black"/>
<path d="M256,50v -6" fill="none" stroke="black"/>
<path d="M267,50v -6" fill="none" stroke="black"/>
<path d="M278,50v -6" fill="none" stroke="black"/>
<path d="M289,50v -6" fill="none" stroke="black"/>
<path d="M300,56v -12" fill="none" stroke="black"/>
<path d="M312,50v -6" fill="none" stroke="black"/>
<path d="M323,50v -6" fill="none" stroke="black"/>
<path d="M334,50v -6" fill="none" stroke="black"/>
<path d="M345,50v -6" fill="none" stroke="black"/>
<path d="M356,56v -12" fill="none" stroke="black"/>
<path d="M367,50v -6" fill="none" stroke="black"/>
<path d="M378,50v -6" fill="none" stroke="black"/>
<path d="M389,50v -6" fill="none" stroke="black"/>
<path d="M400,50v -6" fill="none" stroke="black"/>
<path d="M411,56v -12" fill="none" stroke="black"/>
<path d="M422,50v -6" fill="none" stroke="black"/>
<path d="M433,50v -6" fill="none" stroke="black"/>
<path d="M444,50v -6" fill="none" stroke="black"/>
<path d="M455,50v -6" fill="none" stroke="black"/>
<path d="M466,56v -12" fill="none" stroke="black"/>
<path d="M477,50v -6" fill="none" stroke="black"/>
<path d="M489,50v -6" fill="none" stroke="black"/>
<path d="M500,50v -6" fill="none" stroke="black"/>
<path d="M511,50v -6" fill="none" stroke="black"/>
<path d="M522,56v -12" fill="none" stroke="black"/>
<path d="M79,56v -12" fill="none" stroke="black"/>
<path d="M522,56v -12" fill="none" stroke="black"/>
<path d="M74,446v -402" fill="none" stroke="black"/>
<path d="M87,446h -13" fill="none" stroke="black"/>
<path d="M81,436h -7" fill="none" stroke="black"/>
<path d="M81,425h -7" fill="none" stroke="black"/>
<path d="M81,415h -7" fill="none" stroke="black"/>
<path d="M81,404h -7" fill="none" stroke="black"/>
<path d="M87,393h -13" fill="none" stroke="black"/>
<path d="M81,383h -7" fill="none" stroke="black"/>
<path d="M81,372h -7" fill="none" stroke="black"/>
<path d="M81,361h -7" fill="none" stroke="black"/>
<path d="M81,351h -7" fill="none" stroke="black"/>
<path d="M87,340h -13" fill="none" stroke="black"/>
<path d="M81,330h -7" fill="none" stroke="black"/>
<path d="M81,319h -7" fill="none" stroke="black"/>
<path d="M81,308h -7" fill="none" stroke="black"/>
<path d="M81,298h -7" fill="none" stroke="black"/>
<path d="M87,287h -13" fill="none" stroke="black"/>
<path d="M81,277h -7" fill="none" stroke="black"/>
<path d="M81,266h -7" fill="none" stroke="black"/>
<path d="M81,255h -7" fill="none" stroke="black"/>
<path d="M81,245h -7" fill="none" stroke="black"/>
<path d="M87,234h -13" fill="none" stroke="black"/>
<path d="M81,224h -7" fill="none" stroke="black"/>
<path d="M81,213h -7" fill="none" stroke="black"/>
<path d="M81,202h -7" fill="none" stroke="black"/>
<path d="M81,192h -7" fill="none" stroke="black"/>
<path d="M87,181h -13" fill="none" stroke="black"/>
<path d="M81,171h -7" fill="none" stroke="black"/>
<path d="M81,160h -7" fill="none" stroke="black"/>
<path d="M81,149h -7" fill="none" stroke="black"/>
<path d="M81,139h -7" fill="none" stroke="black"/>
<path d="M87,128h -13" fill="none" stroke="black"/>
<path d="M81,117h -7" fill="none" stroke="black"/>
<path d="M81,107h -7" fill="none" stroke="black"/>
<path d="M81,96h -7" fill="none" stroke="black"/>
<path d="M81,86h -7" fill="none" stroke="black"/>
<path d="M87,75h -13" fill="none" stroke="black"/>
<path d="M87,75h -13" fill="none" stroke="black"/>
<path d="M81,64h -7" fill="none" stroke="black"/>
<path d="M81,54h -7" fill="none" stroke="black"/>
<text x="61" y="453" fill="black" font-size="18" font-family="Helvetica" font-weight="bold">
0
</text>
<text x="37" y="400" fill="black" font-size="18" font-family="Helvetica" font-weight="bold">
0.01
</text>
<text x="35" y="347" fill="black" font-size="18" font-family="Helvetica" font-weight="bold">
0.02
</text>
<text x="35" y="294" fill="black" font-size="18" font-family="Helvetica" font-weight="bold">
0.03
</text>
<text x="34" y="241" fill="black" font-size="18" font-family="Helvetica" font-weight="bold">
0.04
</text>
<text x="34" y="187" fill="black" font-size="18" font-family="Helvetica" font-weight="bold">
0.05
</text>
<text x="34" y="135" fill="black" font-size="18" font-family="Helvetica" font-weight="bold">
0.06
</text>
<text x="35" y="82" fill="black" font-size="18" font-family="Helvetica" font-weight="bold">
0.07
</text>
<path d="M90,446" fill="none" stroke="#99ff99" stroke-width="2"/>
<path d="M90,446" fill="none" stroke="#99ff99" stroke-width="2"/>
<g stroke="black" stroke-width="2" fill="none">
<line x1="89" y1="446" x2="90" y2="446"/>
</g>
<path d="M101,444" fill="none" stroke="#99ff99" stroke-width="2"/>
<path d="M101,444" fill="none" stroke="#99ff99" stroke-width="2"/>
<g stroke="black" stroke-width="2" fill="none">
<line x1="100" y1="444" x2="101" y2="444"/>
</g>
<path d="M112,439" fill="none" stroke="#99ff99" stroke-width="2"/>
<path d="M112,439v -1" fill="none" stroke="#99ff99" stroke-width="2"/>
<g stroke="black" stroke-width="2" fill="none">
<line x1="111" y1="439" x2="112" y2="439"/>
</g>
<path d="M123,426v -1" fill="none" stroke="#99ff99" stroke-width="2"/>
<path d="M123,425v -1" fill="none" stroke="#99ff99" stroke-width="2"/>
<g stroke="black" stroke-width="2" fill="none">
<line x1="122" y1="425" x2="123" y2="425"/>
</g>
<path d="M135,407v -1" fill="none" stroke="#99ff99" stroke-width="2"/>
<path d="M135,406v -2" fill="none" stroke="#99ff99" stroke-width="2"/>
<g stroke="black" stroke-width="2" fill="none">
<line x1="134" y1="406" x2="135" y2="406"/>
</g>
<path d="M146,373v -2" fill="none" stroke="#99ff99" stroke-width="2"/>
<path d="M146,371v -2" fill="none" stroke="#99ff99" stroke-width="2"/>
<g stroke="black" stroke-width="2" fill="none">
<line x1="145" y1="371" x2="146" y2="371"/>
</g>
<path d="M157,327v -3" fill="none" stroke="#99ff99" stroke-width="2"/>
<path d="M157,324v -2" fill="none" stroke="#99ff99" stroke-width="2"/>
<g stroke="black" stroke-width="2" fill="none">
<line x1="156" y1="324" x2="157" y2="324"/>
</g>
<path d="M168,278v -4" fill="none" stroke="#99ff99" stroke-width="2"/>
<path d="M168,274v -3" fill="none" stroke="#99ff99" stroke-width="2"/>
<g stroke="black" stroke-width="2" fill="none">
<line x1="167" y1="274" x2="168" y2="274"/>
</g>
<path d="M179,226v -4" fill="none" stroke="#99ff99" stroke-width="2"/>
<path d="M179,222v -4" fill="none" stroke="#99ff99" stroke-width="2"/>
<g stroke="black" stroke-width="2" fill="none">
<line x1="178" y1="222" x2="179" y2="222"/>
</g>
<path d="M190,172v -4" fill="none" stroke="#99ff99" stroke-width="2"/>
<path d="M190,168v -4" fill="none" stroke="#99ff99" stroke-width="2"/>
<g stroke="black" stroke-width="2" fill="none">
<line x1="189" y1="168" x2="190" y2="168"/>
</g>
<path d="M201,137v -4" fill="none" stroke="#99ff99" stroke-width="2"/>
<path d="M201,133v -4" fill="none" stroke="#99ff99" stroke-width="2"/>
<g stroke="black" stroke-width="2" fill="none">
<line x1="200" y1="133" x2="201" y2="133"/>
</g>
<path d="M212,110v -5" fill="none" stroke="#99ff99" stroke-width="2"/>
<path d="M212,105v -4" fill="none" stroke="#99ff99" stroke-width="2"/>
<g stroke="black" stroke-width="2" fill="none">
<line x1="211" y1="105" x2="212" y2="105"/>
</g>
<path d="M223,82v -5" fill="none" stroke="#99ff99" stroke-width="2"/>
<path d="M223,77v -5" fill="none" stroke="#99ff99" stroke-width="2"/>
<g stroke="black" stroke-width="2" fill="none">
<line x1="222" y1="77" x2="223" y2="77"/>
</g>
<path d="M234,76v -5" fill="none" stroke="#99ff99" stroke-width="2"/>
<path d="M234,71v -5" fill="none" stroke="#99ff99" stroke-width="2"/>
<g stroke="black" stroke-width="2" fill="none">
<line x1="233" y1="71" x2="234" y2="71"/>
</g>
<path d="M245,82v -4" fill="none" stroke="#99ff99" stroke-width="2"/>
<path d="M245,78v -5" fill="none" stroke="#99ff99" stroke-width="2"/>
<g stroke="black" stroke-width="2" fill="none">
<line x1="244" y1="78" x2="245" y2="78"/>
</g>
<path d="M256,93v -5" fill="none" stroke="#99ff99" stroke-width="2"/>
<path d="M256,88v -4" fill="none" stroke="#99ff99" stroke-width="2"/>
<g stroke="black" stroke-width="2" fill="none">
<line x1="255" y1="88" x2="256" y2="88"/>
</g>
<path d="M267,110v -4" fill="none" stroke="#99ff99" stroke-width="2"/>
<path d="M267,106v -4" fill="none" stroke="#99ff99" stroke-width="2"/>
<g stroke="black" stroke-width="2" fill="none">
<line x1="266" y1="106" x2="267" y2="106"/>
</g>
<path d="M278,130v -4" fill="none" stroke="#99ff99" stroke-width="2"/>
<path d="M278,126v -4" fill="none" stroke="#99ff99" stroke-width="2"/>
<g stroke="black" stroke-width="2" fill="none">
<line x1="277" y1="126" x2="278" y2="126"/>
</g>
<path d="M289,161v -4" fill="none" stroke="#99ff99" stroke-width="2"/>
<path d="M289,157v -4" fill="none" stroke="#99ff99" stroke-width="2"/>
<g stroke="black" stroke-width="2" fill="none">
<line x1="288" y1="157" x2="289" y2="157"/>
</g>
<path d="M300,199v -4" fill="none" stroke="#99ff99" stroke-width="2"/>
<path d="M300,195v -3" fill="none" stroke="#99ff99" stroke-width="2"/>
<g stroke="black" stroke-width="2" fill="none">
<line x1="299" y1="195" x2="300" y2="195"/>
</g>
<path d="M312,234v -3" fill="none" stroke="#99ff99" stroke-width="2"/>
<path d="M312,231v -3" fill="none" stroke="#99ff99" stroke-width="2"/>
<g stroke="black" stroke-width="2" fill="none">
<line x1="311" y1="231" x2="312" y2="231"/>
</g>
<path d="M323,265v -3" fill="none" stroke="#99ff99" stroke-width="2"/>
<path d="M323,262v -3" fill="none" stroke="#99ff99" stroke-width="2"/>
<g stroke="black" stroke-width="2" fill="none">
<line x1="322" y1="262" x2="323" y2="262"/>
</g>
<path d="M334,300v -3" fill="none" stroke="#99ff99" stroke-width="2"/>
<path d="M334,297v -2" fill="none" stroke="#99ff99" stroke-width="2"/>
<g stroke="black" stroke-width="2" fill="none">
<line x1="333" y1="297" x2="334" y2="297"/>
</g>
<path d="M345,327v -2" fill="none" stroke="#99ff99" stroke-width="2"/>
<path d="M345,325v -2" fill="none" stroke="#99ff99" stroke-width="2"/>
<g stroke="black" stroke-width="2" fill="none">
<line x1="344" y1="325" x2="345" y2="325"/>
</g>
<path d="M356,350v -2" fill="none" stroke="#99ff99" stroke-width="2"/>
<path d="M356,348v -2" fill="none" stroke="#99ff99" stroke-width="2"/>
<g stroke="black" stroke-width="2" fill="none">
<line x1="355" y1="348" x2="356" y2="348"/>
</g>
<path d="M367,374v -2" fill="none" stroke="#99ff99" stroke-width="2"/>
<path d="M367,372v -1" fill="none" stroke="#99ff99" stroke-width="2"/>
<g stroke="black" stroke-width="2" fill="none">
<line x1="366" y1="372" x2="367" y2="372"/>
</g>
<path d="M378,391v -1" fill="none" stroke="#99ff99" stroke-width="2"/>
<path d="M378,390v -1" fill="none" stroke="#99ff99" stroke-width="2"/>
<g stroke="black" stroke-width="2" fill="none">
<line x1="377" y1="390" x2="378" y2="390"/>
</g>
<path d="M389,407v -1" fill="none" stroke="#99ff99" stroke-width="2"/>
<path d="M389,406v -1" fill="none" stroke="#99ff99" stroke-width="2"/>
<g stroke="black" stroke-width="2" fill="none">
<line x1="388" y1="406" x2="389" y2="406"/>
</g>
<path d="M400,418v -1" fill="none" stroke="#99ff99" stroke-width="2"/>
<path d="M400,417v -1" fill="none" stroke="#99ff99" stroke-width="2"/>
<g stroke="black" stroke-width="2" fill="none">
<line x1="399" y1="417" x2="400" y2="417"/>
</g>
<path d="M411,426" fill="none" stroke="#99ff99" stroke-width="2"/>
<path d="M411,426v -1" fill="none" stroke="#99ff99" stroke-width="2"/>
<g stroke="black" stroke-width="2" fill="none">
<line x1="410" y1="426" x2="411" y2="426"/>
</g>
<path d="M422,432" fill="none" stroke="#99ff99" stroke-width="2"/>
<path d="M422,432v -1" fill="none" stroke="#99ff99" stroke-width="2"/>
<g stroke="black" stroke-width="2" fill="none">
<line x1="421" y1="432" x2="422" y2="432"/>
</g>
<path d="M433,436v -1" fill="none" stroke="#99ff99" stroke-width="2"/>
<path d="M433,435" fill="none" stroke="#99ff99" stroke-width="2"/>
<g stroke="black" stroke-width="2" fill="none">
<line x1="432" y1="435" x2="433" y2="435"/>
</g>
<path d="M444,440" fill="none" stroke="#99ff99" stroke-width="2"/>
<path d="M444,440v -1" fill="none" stroke="#99ff99" stroke-width="2"/>
<g stroke="black" stroke-width="2" fill="none">
<line x1="443" y1="440" x2="444" y2="440"/>
</g>
<path d="M455,442" fill="none" stroke="#99ff99" stroke-width="2"/>
<path d="M455,442" fill="none" stroke="#99ff99" stroke-width="2"/>
<g stroke="black" stroke-width="2" fill="none">
<line x1="454" y1="442" x2="455" y2="442"/>
</g>
<path d="M466,443" fill="none" stroke="#99ff99" stroke-width="2"/>
<path d="M466,443" fill="none" stroke="#99ff99" stroke-width="2"/>
<g stroke="black" stroke-width="2" fill="none">
<line x1="465" y1="443" x2="466" y2="443"/>
</g>
<path d="M477,445v -1" fill="none" stroke="#99ff99" stroke-width="2"/>
<path d="M477,444" fill="none" stroke="#99ff99" stroke-width="2"/>
<g stroke="black" stroke-width="2" fill="none">
<line x1="476" y1="444" x2="477" y2="444"/>
</g>
<path d="M489,445" fill="none" stroke="#99ff99" stroke-width="2"/>
<path d="M489,445" fill="none" stroke="#99ff99" stroke-width="2"/>
<g stroke="black" stroke-width="2" fill="none">
<line x1="488" y1="445" x2="489" y2="445"/>
</g>
<path d="M500,446" fill="none" stroke="#99ff99" stroke-width="2"/>
<path d="M500,446" fill="none" stroke="#99ff99" stroke-width="2"/>
<g stroke="black" stroke-width="2" fill="none">
<line x1="499" y1="446" x2="500" y2="446"/>
</g>
<path d="M511,446" fill="none" stroke="#99ff99" stroke-width="2"/>
<path d="M511,446" fill="none" stroke="#99ff99" stroke-width="2"/>
<g stroke="black" stroke-width="2" fill="none">
<line x1="510" y1="446" x2="511" y2="446"/>
</g>
<path d="M522,446" fill="none" stroke="#99ff99" stroke-width="2"/>
<path d="M522,446" fill="none" stroke="#99ff99" stroke-width="2"/>
<g stroke="black" stroke-width="2" fill="none">
<line x1="521" y1="446" x2="522" y2="446"/>
</g>
<path d="M74,446h 22v -2h 11v -5h 11v -14h 11v -19h 11v -35h 11v -47h 11v -50h 11v -52h 11v -54h 11v -35h 11v -28h 12v -28h 11v -6h 11v 7h 11v 10h 11v 18h 11v 20h 11v 31h 11v 38h 11v 36h 11v 31h 11v 35h 11v 28h 11v 23h 11v 24h 11v 18h 11v 16h 11v 11h
 12v 9h 11v 6h 11v 3h 11v 5h 11v 2h 11v 1h 11v 1h 11v 1h 11v 1h 33z" fill="#99ff99"/>
<path d="M74,446h 22v -2h 11v -5h 11v -14h 11v -19h 11v -35h 11v -47h 11v -50h 11v -52h 11v -54h 11v -35h 11v -28h 12v -28h 11v -6h 11v 7h 11v 10h 11v 18h 11v 20h 11v 31h 11v 38h 11v 36h 11v 31h 11v 35h 11v 28h 11v 23h 11v 24h 11v 18h 11v 16h 11v 11h
 12v 9h 11v 6h 11v 3h 11v 5h 11v 2h 11v 1h 11v 1h 11v 1h 11v 1h 33" fill="none" stroke="#99ff99" stroke-width="2"/>
<path d="M85,446h 4" fill="none" stroke="#ff0099"/>
<path d="M91,446h 5" fill="none" stroke="#ff0099"/>
<g stroke="#ff0099" stroke-width="1" fill="#ff0099">
<circle cx=" 90" cy=" 446" r=" 1.5"/>
</g>
<path d="M96,444h 4" fill="none" stroke="#ff0099"/>
<path d="M102,444h 5" fill="none" stroke="#ff0099"/>
<g stroke="#ff0099" stroke-width="1" fill="#ff0099">
<circle cx=" 101" cy=" 444" r=" 1.5"/>
</g>
<path d="M107,440h 4" fill="none" stroke="#ff0099"/>
<path d="M114,440h 4" fill="none" stroke="#ff0099"/>
<g stroke="#ff0099" stroke-width="1" fill="#ff0099">
<circle cx=" 112" cy=" 440" r=" 1.5"/>
</g>
<path d="M118,428h 4" fill="none" stroke="#ff0099"/>
<path d="M125,428h 4" fill="none" stroke="#ff0099"/>
<g stroke="#ff0099" stroke-width="1" fill="#ff0099">
<circle cx=" 123" cy=" 428" r=" 1.5"/>
</g>
<path d="M129,405h 4" fill="none" stroke="#ff0099"/>
<path d="M136,405h 4" fill="none" stroke="#ff0099"/>
<g stroke="#ff0099" stroke-width="1" fill="#ff0099">
<circle cx=" 135" cy=" 405" r=" 1.5"/>
</g>
<path d="M140,372h 4" fill="none" stroke="#ff0099"/>
<path d="M147,372h 4" fill="none" stroke="#ff0099"/>
<g stroke="#ff0099" stroke-width="1" fill="#ff0099">
<circle cx=" 146" cy=" 372" r=" 1.5"/>
</g>
<path d="M151,329h 5" fill="none" stroke="#ff0099"/>
<path d="M158,329h 4" fill="none" stroke="#ff0099"/>
<g stroke="#ff0099" stroke-width="1" fill="#ff0099">
<circle cx=" 157" cy=" 329" r=" 1.5"/>
</g>
<path d="M168,280" fill="none" stroke="#ff0099"/>
<path d="M168,278" fill="none" stroke="#ff0099"/>
<path d="M162,279h 5" fill="none" stroke="#ff0099"/>
<path d="M169,279h 4" fill="none" stroke="#ff0099"/>
<g stroke="#ff0099" stroke-width="1" fill="#ff0099">
<circle cx=" 168" cy=" 279" r=" 1.5"/>
</g>
<path d="M179,222v -1" fill="none" stroke="#ff0099"/>
<path d="M179,219" fill="none" stroke="#ff0099"/>
<path d="M173,220h 5" fill="none" stroke="#ff0099"/>
<path d="M180,220h 4" fill="none" stroke="#ff0099"/>
<g stroke="#ff0099" stroke-width="1" fill="#ff0099">
<circle cx=" 179" cy=" 220" r=" 1.5"/>
</g>
<path d="M190,170" fill="none" stroke="#ff0099"/>
<path d="M190,167" fill="none" stroke="#ff0099"/>
<path d="M184,169h 5" fill="none" stroke="#ff0099"/>
<path d="M191,169h 4" fill="none" stroke="#ff0099"/>
<g stroke="#ff0099" stroke-width="1" fill="#ff0099">
<circle cx=" 190" cy=" 169" r=" 1.5"/>
</g>
<path d="M201,129" fill="none" stroke="#ff0099"/>
<path d="M201,126" fill="none" stroke="#ff0099"/>
<path d="M195,127h 5" fill="none" stroke="#ff0099"/>
<path d="M202,127h 4" fill="none" stroke="#ff0099"/>
<g stroke="#ff0099" stroke-width="1" fill="#ff0099">
<circle cx=" 201" cy=" 127" r=" 1.5"/>
</g>
<path d="M212,96" fill="none" stroke="#ff0099"/>
<path d="M212,93" fill="none" stroke="#ff0099"/>
<path d="M206,95h 5" fill="none" stroke="#ff0099"/>
<path d="M213,95h 5" fill="none" stroke="#ff0099"/>
<g stroke="#ff0099" stroke-width="1" fill="#ff0099">
<circle cx=" 212" cy=" 95" r=" 1.5"/>
</g>
<path d="M223,77v -1" fill="none" stroke="#ff0099"/>
<path d="M223,74v -1" fill="none" stroke="#ff0099"/>
<path d="M218,75h 4" fill="none" stroke="#ff0099"/>
<path d="M224,75h 5" fill="none" stroke="#ff0099"/>
<g stroke="#ff0099" stroke-width="1" fill="#ff0099">
<circle cx=" 223" cy=" 75" r=" 1.5"/>
</g>
<path d="M234,67v -1" fill="none" stroke="#ff0099"/>
<path d="M234,64v -1" fill="none" stroke="#ff0099"/>
<path d="M229,65h 4" fill="none" stroke="#ff0099"/>
<path d="M235,65h 5" fill="none" stroke="#ff0099"/>
<g stroke="#ff0099" stroke-width="1" fill="#ff0099">
<circle cx=" 234" cy=" 65" r=" 1.5"/>
</g>
<path d="M245,68v -1" fill="none" stroke="#ff0099"/>
<path d="M245,65v -1" fill="none" stroke="#ff0099"/>
<path d="M240,66h 4" fill="none" stroke="#ff0099"/>
<path d="M246,66h 5" fill="none" stroke="#ff0099"/>
<g stroke="#ff0099" stroke-width="1" fill="#ff0099">
<circle cx=" 245" cy=" 66" r=" 1.5"/>
</g>
<path d="M256,82v -1" fill="none" stroke="#ff0099"/>
<path d="M256,79v -1" fill="none" stroke="#ff0099"/>
<path d="M251,80h 4" fill="none" stroke="#ff0099"/>
<path d="M257,80h 5" fill="none" stroke="#ff0099"/>
<g stroke="#ff0099" stroke-width="1" fill="#ff0099">
<circle cx=" 256" cy=" 80" r=" 1.5"/>
</g>
<path d="M267,96v -1" fill="none" stroke="#ff0099"/>
<path d="M267,93v -1" fill="none" stroke="#ff0099"/>
<path d="M262,94h 4" fill="none" stroke="#ff0099"/>
<path d="M268,94h 5" fill="none" stroke="#ff0099"/>
<g stroke="#ff0099" stroke-width="1" fill="#ff0099">
<circle cx=" 267" cy=" 94" r=" 1.5"/>
</g>
<path d="M278,128" fill="none" stroke="#ff0099"/>
<path d="M278,125" fill="none" stroke="#ff0099"/>
<path d="M273,127h 4" fill="none" stroke="#ff0099"/>
<path d="M279,127h 5" fill="none" stroke="#ff0099"/>
<g stroke="#ff0099" stroke-width="1" fill="#ff0099">
<circle cx=" 278" cy=" 127" r=" 1.5"/>
</g>
<path d="M289,162" fill="none" stroke="#ff0099"/>
<path d="M289,159" fill="none" stroke="#ff0099"/>
<path d="M284,160h 4" fill="none" stroke="#ff0099"/>
<path d="M291,160h 4" fill="none" stroke="#ff0099"/>
<g stroke="#ff0099" stroke-width="1" fill="#ff0099">
<circle cx=" 289" cy=" 160" r=" 1.5"/>
</g>
<path d="M300,194v -1" fill="none" stroke="#ff0099"/>
<path d="M300,191v -1" fill="none" stroke="#ff0099"/>
<path d="M295,192h 4" fill="none" stroke="#ff0099"/>
<path d="M302,192h 4" fill="none" stroke="#ff0099"/>
<g stroke="#ff0099" stroke-width="1" fill="#ff0099">
<circle cx=" 300" cy=" 192" r=" 1.5"/>
</g>
<path d="M312,230" fill="none" stroke="#ff0099"/>
<path d="M312,227" fill="none" stroke="#ff0099"/>
<path d="M306,229h 4" fill="none" stroke="#ff0099"/>
<path d="M313,229h 4" fill="none" stroke="#ff0099"/>
<g stroke="#ff0099" stroke-width="1" fill="#ff0099">
<circle cx=" 312" cy=" 229" r=" 1.5"/>
</g>
<path d="M323,266" fill="none" stroke="#ff0099"/>
<path d="M323,264v -1" fill="none" stroke="#ff0099"/>
<path d="M317,265h 4" fill="none" stroke="#ff0099"/>
<path d="M324,265h 4" fill="none" stroke="#ff0099"/>
<g stroke="#ff0099" stroke-width="1" fill="#ff0099">
<circle cx=" 323" cy=" 265" r=" 1.5"/>
</g>
<path d="M334,301" fill="none" stroke="#ff0099"/>
<path d="M334,299" fill="none" stroke="#ff0099"/>
<path d="M328,300h 5" fill="none" stroke="#ff0099"/>
<path d="M335,300h 4" fill="none" stroke="#ff0099"/>
<g stroke="#ff0099" stroke-width="1" fill="#ff0099">
<circle cx=" 334" cy=" 300" r=" 1.5"/>
</g>
<path d="M339,330h 5" fill="none" stroke="#ff0099"/>
<path d="M346,330h 4" fill="none" stroke="#ff0099"/>
<g stroke="#ff0099" stroke-width="1" fill="#ff0099">
<circle cx=" 345" cy=" 330" r=" 1.5"/>
</g>
<path d="M350,355h 5" fill="none" stroke="#ff0099"/>
<path d="M357,355h 4" fill="none" stroke="#ff0099"/>
<g stroke="#ff0099" stroke-width="1" fill="#ff0099">
<circle cx=" 356" cy=" 355" r=" 1.5"/>
</g>
<path d="M361,377h 5" fill="none" stroke="#ff0099"/>
<path d="M368,377h 4" fill="none" stroke="#ff0099"/>
<g stroke="#ff0099" stroke-width="1" fill="#ff0099">
<circle cx=" 367" cy=" 377" r=" 1.5"/>
</g>
<path d="M372,396h 5" fill="none" stroke="#ff0099"/>
<path d="M379,396h 4" fill="none" stroke="#ff0099"/>
<g stroke="#ff0099" stroke-width="1" fill="#ff0099">
<circle cx=" 378" cy=" 396" r=" 1.5"/>
</g>
<path d="M383,410h 5" fill="none" stroke="#ff0099"/>
<path d="M390,410h 4" fill="none" stroke="#ff0099"/>
<g stroke="#ff0099" stroke-width="1" fill="#ff0099">
<circle cx=" 389" cy=" 410" r=" 1.5"/>
</g>
<path d="M394,420h 5" fill="none" stroke="#ff0099"/>
<path d="M401,420h 5" fill="none" stroke="#ff0099"/>
<g stroke="#ff0099" stroke-width="1" fill="#ff0099">
<circle cx=" 400" cy=" 420" r=" 1.5"/>
</g>
<path d="M406,428h 4" fill="none" stroke="#ff0099"/>
<path d="M412,428h 5" fill="none" stroke="#ff0099"/>
<g stroke="#ff0099" stroke-width="1" fill="#ff0099">
<circle cx=" 411" cy=" 428" r=" 1.5"/>
</g>
<path d="M417,434h 4" fill="none" stroke="#ff0099"/>
<path d="M423,434h 5" fill="none" stroke="#ff0099"/>
<g stroke="#ff0099" stroke-width="1" fill="#ff0099">
<circle cx=" 422" cy=" 434" r=" 1.5"/>
</g>
<path d="M428,439h 4" fill="none" stroke="#ff0099"/>
<path d="M434,439h 5" fill="none" stroke="#ff0099"/>
<g stroke="#ff0099" stroke-width="1" fill="#ff0099">
<circle cx=" 433" cy=" 439" r=" 1.5"/>
</g>
<path d="M439,441h 4" fill="none" stroke="#ff0099"/>
<path d="M445,441h 5" fill="none" stroke="#ff0099"/>
<g stroke="#ff0099" stroke-width="1" fill="#ff0099">
<circle cx=" 444" cy=" 441" r=" 1.5"/>
</g>
<path d="M450,443h 4" fill="none" stroke="#ff0099"/>
<path d="M456,443h 5" fill="none" stroke="#ff0099"/>
<g stroke="#ff0099" stroke-width="1" fill="#ff0099">
<circle cx=" 455" cy=" 443" r=" 1.5"/>
</g>
<path d="M461,444h 4" fill="none" stroke="#ff0099"/>
<path d="M468,444h 4" fill="none" stroke="#ff0099"/>
<g stroke="#ff0099" stroke-width="1" fill="#ff0099">
<circle cx=" 466" cy=" 444" r=" 1.5"/>
</g>
<path d="M472,445h 4" fill="none" stroke="#ff0099"/>
<path d="M479,445h 4" fill="none" stroke="#ff0099"/>
<g stroke="#ff0099" stroke-width="1" fill="#ff0099">
<circle cx=" 477" cy=" 445" r=" 1.5"/>
</g>
<path d="M483,445h 4" fill="none" stroke="#ff0099"/>
<path d="M490,445h 4" fill="none" stroke="#ff0099"/>
<g stroke="#ff0099" stroke-width="1" fill="#ff0099">
<circle cx=" 489" cy=" 445" r=" 1.5"/>
</g>
<path d="M494,446h 4" fill="none" stroke="#ff0099"/>
<path d="M501,446h 4" fill="none" stroke="#ff0099"/>
<g stroke="#ff0099" stroke-width="1" fill="#ff0099">
<circle cx=" 500" cy=" 446" r=" 1.5"/>
</g>
<path d="M505,446h 5" fill="none" stroke="#ff0099"/>
<path d="M512,446h 4" fill="none" stroke="#ff0099"/>
<g stroke="#ff0099" stroke-width="1" fill="#ff0099">
<circle cx=" 511" cy=" 446" r=" 1.5"/>
</g>
<path d="M516,446h 5" fill="none" stroke="#ff0099"/>
<path d="M523,446h 4" fill="none" stroke="#ff0099"/>
<g stroke="#ff0099" stroke-width="1" fill="#ff0099">
<circle cx=" 522" cy=" 446" r=" 1.5"/>
</g>
<rect x="357" y="59" width="142" height="99" fill="white"/>
<text x="360" y="82" fill="black" font-size="17" font-family="Helvetica" font-weight="bold">
EB
</text>
<text x="457" y="115" fill="black" font-size="17" font-family="Helvetica" font-weight="bold">
 ee
</text>
<text x="440" y="115" fill="black" font-size="17" font-family="Times">
&#8594;
</text>
<text x="392" y="115" fill="black" font-size="17" font-family="Helvetica" font-weight="bold">
MC Z 
</text>
<path d="M362,109h 25" fill="none" stroke="#ff0099"/>
<g stroke="#ff0099" stroke-width="1" fill="#ff0099">
<circle cx=" 375" cy=" 109" r=" 1.5"/>
</g>
<text x="455" y="147" fill="black" font-size="17" font-family="Helvetica" font-weight="bold">
 + jet
</text>
<text x="447" y="147" fill="black" font-size="17" font-family="Times">
&#0947;
</text>
<text x="392" y="147" fill="black" font-size="17" font-family="Helvetica" font-weight="bold">
signal 
</text>
<path d="M362,154h 25v -24h -25z" fill="#99ff99"/>
<path d="M362,130h 25" fill="none" stroke="#99ff99" stroke-width="2"/>
<path d="M362,154h 25" fill="none" stroke="#99ff99" stroke-width="2"/>
<path d="M387,154v -24" fill="none" stroke="#99ff99" stroke-width="2"/>
<path d="M362,154v -24" fill="none" stroke="#99ff99" stroke-width="2"/>
<text x="300" y="34" fill="black" font-size="17" font-family="Helvetica" font-weight="bold">
=8 TeV
</text>
<text x="291" y="34" fill="black" font-size="17" font-family="Helvetica" font-weight="bold">
s
</text>
<path d="M285,25l 2, 10" fill="none" stroke="black" stroke-width="2"/>
<path d="M287,35l 2, -14" fill="none" stroke="black"/>
<path d="M289,21h 11" fill="none" stroke="black"/>
<text x="142" y="34" fill="black" font-size="17" font-family="Helvetica" font-weight="bold">
CMS Preliminary 
</text></svg>
