<?xml version="1.0" standalone="no"?>
<svg width="567" height="496" viewBox="0 0 567 496" xmlns="http://www.w3.org/2000/svg">
<title>
../src/TagAndProbeZ/plots_dataZee_mcGJet_withEtaR9rhoReweight/hlt30//pid_pfIsoFPRPhoton03_preselEB.svg
</title>
<desc>
Creator: ROOT Version 5.32/00
CreationDate: Tue Dec  2 08:45:13 2014</desc>
<defs>
</defs>
<rect x="0" y="0" width="567" height="496" fill="white"/>
<rect x="74" y="44" width="453" height="402" fill="white"/>
<rect x="74" y="44" width="453" height="402" fill="none" stroke="black"/>
<rect x="74" y="44" width="453" height="402" fill="white"/>
<rect x="74" y="44" width="453" height="402" fill="none" stroke="black"/>
<path d="M74,64h 2" fill="none" stroke="#ff0099"/>
<path d="M79,64h 2" fill="none" stroke="#ff0099"/>
<g stroke="#ff0099" stroke-width="1" fill="#ff0099">
<circle cx=" 77" cy=" 64" r=" 1.5"/>
</g>
<path d="M81,442h 3" fill="none" stroke="#ff0099"/>
<path d="M86,442h 3" fill="none" stroke="#ff0099"/>
<g stroke="#ff0099" stroke-width="1" fill="#ff0099">
<circle cx=" 85" cy=" 442" r=" 1.5"/>
</g>
<path d="M89,391h 2" fill="none" stroke="#ff0099"/>
<path d="M94,391h 2" fill="none" stroke="#ff0099"/>
<g stroke="#ff0099" stroke-width="1" fill="#ff0099">
<circle cx=" 93" cy=" 391" r=" 1.5"/>
</g>
<path d="M96,322h 3" fill="none" stroke="#ff0099"/>
<path d="M101,322h 3" fill="none" stroke="#ff0099"/>
<g stroke="#ff0099" stroke-width="1" fill="#ff0099">
<circle cx=" 100" cy=" 322" r=" 1.5"/>
</g>
<path d="M104,359h 3" fill="none" stroke="#ff0099"/>
<path d="M109,359h 2" fill="none" stroke="#ff0099"/>
<g stroke="#ff0099" stroke-width="1" fill="#ff0099">
<circle cx=" 108" cy=" 359" r=" 1.5"/>
</g>
<path d="M111,367h 3" fill="none" stroke="#ff0099"/>
<path d="M116,367h 3" fill="none" stroke="#ff0099"/>
<g stroke="#ff0099" stroke-width="1" fill="#ff0099">
<circle cx=" 115" cy=" 367" r=" 1.5"/>
</g>
<path d="M119,370h 3" fill="none" stroke="#ff0099"/>
<path d="M124,370h 3" fill="none" stroke="#ff0099"/>
<g stroke="#ff0099" stroke-width="1" fill="#ff0099">
<circle cx=" 123" cy=" 370" r=" 1.5"/>
</g>
<path d="M127,373h 2" fill="none" stroke="#ff0099"/>
<path d="M132,373h 2" fill="none" stroke="#ff0099"/>
<g stroke="#ff0099" stroke-width="1" fill="#ff0099">
<circle cx=" 130" cy=" 373" r=" 1.5"/>
</g>
<path d="M134,378h 3" fill="none" stroke="#ff0099"/>
<path d="M139,378h 3" fill="none" stroke="#ff0099"/>
<g stroke="#ff0099" stroke-width="1" fill="#ff0099">
<circle cx=" 138" cy=" 378" r=" 1.5"/>
</g>
<path d="M142,382h 2" fill="none" stroke="#ff0099"/>
<path d="M147,382h 2" fill="none" stroke="#ff0099"/>
<g stroke="#ff0099" stroke-width="1" fill="#ff0099">
<circle cx=" 146" cy=" 382" r=" 1.5"/>
</g>
<path d="M149,386h 3" fill="none" stroke="#ff0099"/>
<path d="M154,386h 3" fill="none" stroke="#ff0099"/>
<g stroke="#ff0099" stroke-width="1" fill="#ff0099">
<circle cx=" 153" cy=" 386" r=" 1.5"/>
</g>
<path d="M157,391h 2" fill="none" stroke="#ff0099"/>
<path d="M162,391h 2" fill="none" stroke="#ff0099"/>
<g stroke="#ff0099" stroke-width="1" fill="#ff0099">
<circle cx=" 161" cy=" 391" r=" 1.5"/>
</g>
<path d="M164,396h 3" fill="none" stroke="#ff0099"/>
<path d="M169,396h 3" fill="none" stroke="#ff0099"/>
<g stroke="#ff0099" stroke-width="1" fill="#ff0099">
<circle cx=" 168" cy=" 396" r=" 1.5"/>
</g>
<path d="M172,400h 3" fill="none" stroke="#ff0099"/>
<path d="M177,400h 3" fill="none" stroke="#ff0099"/>
<g stroke="#ff0099" stroke-width="1" fill="#ff0099">
<circle cx=" 176" cy=" 400" r=" 1.5"/>
</g>
<path d="M180,404h 2" fill="none" stroke="#ff0099"/>
<path d="M184,404h 3" fill="none" stroke="#ff0099"/>
<g stroke="#ff0099" stroke-width="1" fill="#ff0099">
<circle cx=" 183" cy=" 404" r=" 1.5"/>
</g>
<path d="M187,407h 3" fill="none" stroke="#ff0099"/>
<path d="M192,407h 3" fill="none" stroke="#ff0099"/>
<g stroke="#ff0099" stroke-width="1" fill="#ff0099">
<circle cx=" 191" cy=" 407" r=" 1.5"/>
</g>
<path d="M195,411h 2" fill="none" stroke="#ff0099"/>
<path d="M200,411h 2" fill="none" stroke="#ff0099"/>
<g stroke="#ff0099" stroke-width="1" fill="#ff0099">
<circle cx=" 198" cy=" 411" r=" 1.5"/>
</g>
<path d="M202,414h 3" fill="none" stroke="#ff0099"/>
<path d="M207,414h 3" fill="none" stroke="#ff0099"/>
<g stroke="#ff0099" stroke-width="1" fill="#ff0099">
<circle cx=" 206" cy=" 414" r=" 1.5"/>
</g>
<path d="M210,417h 2" fill="none" stroke="#ff0099"/>
<path d="M215,417h 2" fill="none" stroke="#ff0099"/>
<g stroke="#ff0099" stroke-width="1" fill="#ff0099">
<circle cx=" 214" cy=" 417" r=" 1.5"/>
</g>
<path d="M217,419h 3" fill="none" stroke="#ff0099"/>
<path d="M222,419h 3" fill="none" stroke="#ff0099"/>
<g stroke="#ff0099" stroke-width="1" fill="#ff0099">
<circle cx=" 221" cy=" 419" r=" 1.5"/>
</g>
<path d="M225,422h 3" fill="none" stroke="#ff0099"/>
<path d="M230,422h 2" fill="none" stroke="#ff0099"/>
<g stroke="#ff0099" stroke-width="1" fill="#ff0099">
<circle cx=" 229" cy=" 422" r=" 1.5"/>
</g>
<path d="M232,424h 3" fill="none" stroke="#ff0099"/>
<path d="M237,424h 3" fill="none" stroke="#ff0099"/>
<g stroke="#ff0099" stroke-width="1" fill="#ff0099">
<circle cx=" 236" cy=" 424" r=" 1.5"/>
</g>
<path d="M240,426h 3" fill="none" stroke="#ff0099"/>
<path d="M245,426h 3" fill="none" stroke="#ff0099"/>
<g stroke="#ff0099" stroke-width="1" fill="#ff0099">
<circle cx=" 244" cy=" 426" r=" 1.5"/>
</g>
<path d="M248,428h 2" fill="none" stroke="#ff0099"/>
<path d="M252,428h 3" fill="none" stroke="#ff0099"/>
<g stroke="#ff0099" stroke-width="1" fill="#ff0099">
<circle cx=" 251" cy=" 428" r=" 1.5"/>
</g>
<path d="M255,430h 3" fill="none" stroke="#ff0099"/>
<path d="M260,430h 3" fill="none" stroke="#ff0099"/>
<g stroke="#ff0099" stroke-width="1" fill="#ff0099">
<circle cx=" 259" cy=" 430" r=" 1.5"/>
</g>
<path d="M263,432h 2" fill="none" stroke="#ff0099"/>
<path d="M268,432h 2" fill="none" stroke="#ff0099"/>
<g stroke="#ff0099" stroke-width="1" fill="#ff0099">
<circle cx=" 266" cy=" 432" r=" 1.5"/>
</g>
<path d="M270,432h 3" fill="none" stroke="#ff0099"/>
<path d="M275,432h 3" fill="none" stroke="#ff0099"/>
<g stroke="#ff0099" stroke-width="1" fill="#ff0099">
<circle cx=" 274" cy=" 432" r=" 1.5"/>
</g>
<path d="M278,434h 2" fill="none" stroke="#ff0099"/>
<path d="M283,434h 2" fill="none" stroke="#ff0099"/>
<g stroke="#ff0099" stroke-width="1" fill="#ff0099">
<circle cx=" 282" cy=" 434" r=" 1.5"/>
</g>
<path d="M285,436h 3" fill="none" stroke="#ff0099"/>
<path d="M290,436h 3" fill="none" stroke="#ff0099"/>
<g stroke="#ff0099" stroke-width="1" fill="#ff0099">
<circle cx=" 289" cy=" 436" r=" 1.5"/>
</g>
<path d="M293,436h 3" fill="none" stroke="#ff0099"/>
<path d="M298,436h 2" fill="none" stroke="#ff0099"/>
<g stroke="#ff0099" stroke-width="1" fill="#ff0099">
<circle cx=" 297" cy=" 436" r=" 1.5"/>
</g>
<path d="M300,437h 3" fill="none" stroke="#ff0099"/>
<path d="M305,437h 3" fill="none" stroke="#ff0099"/>
<g stroke="#ff0099" stroke-width="1" fill="#ff0099">
<circle cx=" 304" cy=" 437" r=" 1.5"/>
</g>
<path d="M308,439h 3" fill="none" stroke="#ff0099"/>
<path d="M313,439h 3" fill="none" stroke="#ff0099"/>
<g stroke="#ff0099" stroke-width="1" fill="#ff0099">
<circle cx=" 312" cy=" 439" r=" 1.5"/>
</g>
<path d="M316,439h 2" fill="none" stroke="#ff0099"/>
<path d="M321,439h 2" fill="none" stroke="#ff0099"/>
<g stroke="#ff0099" stroke-width="1" fill="#ff0099">
<circle cx=" 319" cy=" 439" r=" 1.5"/>
</g>
<path d="M323,440h 3" fill="none" stroke="#ff0099"/>
<path d="M328,440h 3" fill="none" stroke="#ff0099"/>
<g stroke="#ff0099" stroke-width="1" fill="#ff0099">
<circle cx=" 327" cy=" 440" r=" 1.5"/>
</g>
<path d="M331,440h 2" fill="none" stroke="#ff0099"/>
<path d="M336,440h 2" fill="none" stroke="#ff0099"/>
<g stroke="#ff0099" stroke-width="1" fill="#ff0099">
<circle cx=" 334" cy=" 440" r=" 1.5"/>
</g>
<path d="M338,441h 3" fill="none" stroke="#ff0099"/>
<path d="M343,441h 3" fill="none" stroke="#ff0099"/>
<g stroke="#ff0099" stroke-width="1" fill="#ff0099">
<circle cx=" 342" cy=" 441" r=" 1.5"/>
</g>
<path d="M346,442h 2" fill="none" stroke="#ff0099"/>
<path d="M351,442h 2" fill="none" stroke="#ff0099"/>
<g stroke="#ff0099" stroke-width="1" fill="#ff0099">
<circle cx=" 350" cy=" 442" r=" 1.5"/>
</g>
<path d="M353,442h 3" fill="none" stroke="#ff0099"/>
<path d="M358,442h 3" fill="none" stroke="#ff0099"/>
<g stroke="#ff0099" stroke-width="1" fill="#ff0099">
<circle cx=" 357" cy=" 442" r=" 1.5"/>
</g>
<path d="M361,442h 3" fill="none" stroke="#ff0099"/>
<path d="M366,442h 3" fill="none" stroke="#ff0099"/>
<g stroke="#ff0099" stroke-width="1" fill="#ff0099">
<circle cx=" 365" cy=" 442" r=" 1.5"/>
</g>
<path d="M369,443h 2" fill="none" stroke="#ff0099"/>
<path d="M373,443h 3" fill="none" stroke="#ff0099"/>
<g stroke="#ff0099" stroke-width="1" fill="#ff0099">
<circle cx=" 372" cy=" 443" r=" 1.5"/>
</g>
<path d="M376,443h 3" fill="none" stroke="#ff0099"/>
<path d="M381,443h 3" fill="none" stroke="#ff0099"/>
<g stroke="#ff0099" stroke-width="1" fill="#ff0099">
<circle cx=" 380" cy=" 443" r=" 1.5"/>
</g>
<path d="M384,444h 2" fill="none" stroke="#ff0099"/>
<path d="M389,444h 2" fill="none" stroke="#ff0099"/>
<g stroke="#ff0099" stroke-width="1" fill="#ff0099">
<circle cx=" 387" cy=" 444" r=" 1.5"/>
</g>
<path d="M391,444h 3" fill="none" stroke="#ff0099"/>
<path d="M396,444h 3" fill="none" stroke="#ff0099"/>
<g stroke="#ff0099" stroke-width="1" fill="#ff0099">
<circle cx=" 395" cy=" 444" r=" 1.5"/>
</g>
<path d="M399,444h 2" fill="none" stroke="#ff0099"/>
<path d="M404,444h 2" fill="none" stroke="#ff0099"/>
<g stroke="#ff0099" stroke-width="1" fill="#ff0099">
<circle cx=" 403" cy=" 444" r=" 1.5"/>
</g>
<path d="M406,444h 3" fill="none" stroke="#ff0099"/>
<path d="M411,444h 3" fill="none" stroke="#ff0099"/>
<g stroke="#ff0099" stroke-width="1" fill="#ff0099">
<circle cx=" 410" cy=" 444" r=" 1.5"/>
</g>
<path d="M414,444h 2" fill="none" stroke="#ff0099"/>
<path d="M419,444h 2" fill="none" stroke="#ff0099"/>
<g stroke="#ff0099" stroke-width="1" fill="#ff0099">
<circle cx=" 418" cy=" 444" r=" 1.5"/>
</g>
<path d="M421,445h 3" fill="none" stroke="#ff0099"/>
<path d="M426,445h 3" fill="none" stroke="#ff0099"/>
<g stroke="#ff0099" stroke-width="1" fill="#ff0099">
<circle cx=" 425" cy=" 445" r=" 1.5"/>
</g>
<path d="M429,445h 3" fill="none" stroke="#ff0099"/>
<path d="M434,445h 3" fill="none" stroke="#ff0099"/>
<g stroke="#ff0099" stroke-width="1" fill="#ff0099">
<circle cx=" 433" cy=" 445" r=" 1.5"/>
</g>
<path d="M437,445h 2" fill="none" stroke="#ff0099"/>
<path d="M441,445h 3" fill="none" stroke="#ff0099"/>
<g stroke="#ff0099" stroke-width="1" fill="#ff0099">
<circle cx=" 440" cy=" 445" r=" 1.5"/>
</g>
<path d="M444,445h 3" fill="none" stroke="#ff0099"/>
<path d="M449,445h 3" fill="none" stroke="#ff0099"/>
<g stroke="#ff0099" stroke-width="1" fill="#ff0099">
<circle cx=" 448" cy=" 445" r=" 1.5"/>
</g>
<path d="M452,445h 2" fill="none" stroke="#ff0099"/>
<path d="M457,445h 2" fill="none" stroke="#ff0099"/>
<g stroke="#ff0099" stroke-width="1" fill="#ff0099">
<circle cx=" 455" cy=" 445" r=" 1.5"/>
</g>
<path d="M459,445h 3" fill="none" stroke="#ff0099"/>
<path d="M464,445h 3" fill="none" stroke="#ff0099"/>
<g stroke="#ff0099" stroke-width="1" fill="#ff0099">
<circle cx=" 463" cy=" 445" r=" 1.5"/>
</g>
<path d="M467,445h 2" fill="none" stroke="#ff0099"/>
<path d="M472,445h 2" fill="none" stroke="#ff0099"/>
<g stroke="#ff0099" stroke-width="1" fill="#ff0099">
<circle cx=" 471" cy=" 445" r=" 1.5"/>
</g>
<path d="M474,446h 3" fill="none" stroke="#ff0099"/>
<path d="M479,446h 3" fill="none" stroke="#ff0099"/>
<g stroke="#ff0099" stroke-width="1" fill="#ff0099">
<circle cx=" 478" cy=" 446" r=" 1.5"/>
</g>
<path d="M482,445h 3" fill="none" stroke="#ff0099"/>
<path d="M487,445h 2" fill="none" stroke="#ff0099"/>
<g stroke="#ff0099" stroke-width="1" fill="#ff0099">
<circle cx=" 486" cy=" 445" r=" 1.5"/>
</g>
<path d="M489,446h 3" fill="none" stroke="#ff0099"/>
<path d="M494,446h 3" fill="none" stroke="#ff0099"/>
<g stroke="#ff0099" stroke-width="1" fill="#ff0099">
<circle cx=" 493" cy=" 446" r=" 1.5"/>
</g>
<path d="M497,446h 3" fill="none" stroke="#ff0099"/>
<path d="M502,446h 3" fill="none" stroke="#ff0099"/>
<g stroke="#ff0099" stroke-width="1" fill="#ff0099">
<circle cx=" 501" cy=" 446" r=" 1.5"/>
</g>
<path d="M505,446h 2" fill="none" stroke="#ff0099"/>
<path d="M509,446h 3" fill="none" stroke="#ff0099"/>
<g stroke="#ff0099" stroke-width="1" fill="#ff0099">
<circle cx=" 508" cy=" 446" r=" 1.5"/>
</g>
<path d="M512,446h 3" fill="none" stroke="#ff0099"/>
<path d="M517,446h 3" fill="none" stroke="#ff0099"/>
<g stroke="#ff0099" stroke-width="1" fill="#ff0099">
<circle cx=" 516" cy=" 446" r=" 1.5"/>
</g>
<path d="M520,446h 2" fill="none" stroke="#ff0099"/>
<path d="M525,446h 2" fill="none" stroke="#ff0099"/>
<g stroke="#ff0099" stroke-width="1" fill="#ff0099">
<circle cx=" 523" cy=" 446" r=" 1.5"/>
</g>
<path d="M74,446h 453" fill="none" stroke="black"/>
<path d="M74,434v 12" fill="none" stroke="black"/>
<path d="M89,440v 6" fill="none" stroke="black"/>
<path d="M104,440v 6" fill="none" stroke="black"/>
<path d="M119,440v 6" fill="none" stroke="black"/>
<path d="M134,440v 6" fill="none" stroke="black"/>
<path d="M149,434v 12" fill="none" stroke="black"/>
<path d="M164,440v 6" fill="none" stroke="black"/>
<path d="M180,440v 6" fill="none" stroke="black"/>
<path d="M195,440v 6" fill="none" stroke="black"/>
<path d="M210,440v 6" fill="none" stroke="black"/>
<path d="M225,434v 12" fill="none" stroke="black"/>
<path d="M240,440v 6" fill="none" stroke="black"/>
<path d="M255,440v 6" fill="none" stroke="black"/>
<path d="M270,440v 6" fill="none" stroke="black"/>
<path d="M285,440v 6" fill="none" stroke="black"/>
<path d="M300,434v 12" fill="none" stroke="black"/>
<path d="M316,440v 6" fill="none" stroke="black"/>
<path d="M331,440v 6" fill="none" stroke="black"/>
<path d="M346,440v 6" fill="none" stroke="black"/>
<path d="M361,440v 6" fill="none" stroke="black"/>
<path d="M376,434v 12" fill="none" stroke="black"/>
<path d="M391,440v 6" fill="none" stroke="black"/>
<path d="M406,440v 6" fill="none" stroke="black"/>
<path d="M421,440v 6" fill="none" stroke="black"/>
<path d="M437,440v 6" fill="none" stroke="black"/>
<path d="M452,434v 12" fill="none" stroke="black"/>
<path d="M467,440v 6" fill="none" stroke="black"/>
<path d="M482,440v 6" fill="none" stroke="black"/>
<path d="M497,440v 6" fill="none" stroke="black"/>
<path d="M512,440v 6" fill="none" stroke="black"/>
<path d="M527,434v 12" fill="none" stroke="black"/>
<text x="68" y="465" fill="black" font-size="18" font-family="Helvetica" font-weight="bold">
0
</text>
<text x="145" y="465" fill="black" font-size="18" font-family="Helvetica" font-weight="bold">
1
</text>
<text x="220" y="465" fill="black" font-size="18" font-family="Helvetica" font-weight="bold">
2
</text>
<text x="295" y="465" fill="black" font-size="18" font-family="Helvetica" font-weight="bold">
3
</text>
<text x="371" y="465" fill="black" font-size="18" font-family="Helvetica" font-weight="bold">
4
</text>
<text x="446" y="465" fill="black" font-size="18" font-family="Helvetica" font-weight="bold">
5
</text>
<text x="522" y="465" fill="black" font-size="18" font-family="Helvetica" font-weight="bold">
6
</text>
<path d="M74,44h 453" fill="none" stroke="black"/>
<path d="M74,56v -12" fill="none" stroke="black"/>
<path d="M89,50v -6" fill="none" stroke="black"/>
<path d="M104,50v -6" fill="none" stroke="black"/>
<path d="M119,50v -6" fill="none" stroke="black"/>
<path d="M134,50v -6" fill="none" stroke="black"/>
<path d="M149,56v -12" fill="none" stroke="black"/>
<path d="M164,50v -6" fill="none" stroke="black"/>
<path d="M180,50v -6" fill="none" stroke="black"/>
<path d="M195,50v -6" fill="none" stroke="black"/>
<path d="M210,50v -6" fill="none" stroke="black"/>
<path d="M225,56v -12" fill="none" stroke="black"/>
<path d="M240,50v -6" fill="none" stroke="black"/>
<path d="M255,50v -6" fill="none" stroke="black"/>
<path d="M270,50v -6" fill="none" stroke="black"/>
<path d="M285,50v -6" fill="none" stroke="black"/>
<path d="M300,56v -12" fill="none" stroke="black"/>
<path d="M316,50v -6" fill="none" stroke="black"/>
<path d="M331,50v -6" fill="none" stroke="black"/>
<path d="M346,50v -6" fill="none" stroke="black"/>
<path d="M361,50v -6" fill="none" stroke="black"/>
<path d="M376,56v -12" fill="none" stroke="black"/>
<path d="M391,50v -6" fill="none" stroke="black"/>
<path d="M406,50v -6" fill="none" stroke="black"/>
<path d="M421,50v -6" fill="none" stroke="black"/>
<path d="M437,50v -6" fill="none" stroke="black"/>
<path d="M452,56v -12" fill="none" stroke="black"/>
<path d="M467,50v -6" fill="none" stroke="black"/>
<path d="M482,50v -6" fill="none" stroke="black"/>
<path d="M497,50v -6" fill="none" stroke="black"/>
<path d="M512,50v -6" fill="none" stroke="black"/>
<path d="M527,56v -12" fill="none" stroke="black"/>
<path d="M74,446v -402" fill="none" stroke="black"/>
<path d="M87,446h -13" fill="none" stroke="black"/>
<path d="M81,438h -7" fill="none" stroke="black"/>
<path d="M81,430h -7" fill="none" stroke="black"/>
<path d="M81,421h -7" fill="none" stroke="black"/>
<path d="M87,413h -13" fill="none" stroke="black"/>
<path d="M81,404h -7" fill="none" stroke="black"/>
<path d="M81,396h -7" fill="none" stroke="black"/>
<path d="M81,387h -7" fill="none" stroke="black"/>
<path d="M87,379h -13" fill="none" stroke="black"/>
<path d="M81,371h -7" fill="none" stroke="black"/>
<path d="M81,362h -7" fill="none" stroke="black"/>
<path d="M81,354h -7" fill="none" stroke="black"/>
<path d="M87,345h -13" fill="none" stroke="black"/>
<path d="M81,337h -7" fill="none" stroke="black"/>
<path d="M81,328h -7" fill="none" stroke="black"/>
<path d="M81,320h -7" fill="none" stroke="black"/>
<path d="M87,312h -13" fill="none" stroke="black"/>
<path d="M81,303h -7" fill="none" stroke="black"/>
<path d="M81,295h -7" fill="none" stroke="black"/>
<path d="M81,286h -7" fill="none" stroke="black"/>
<path d="M87,278h -13" fill="none" stroke="black"/>
<path d="M81,269h -7" fill="none" stroke="black"/>
<path d="M81,261h -7" fill="none" stroke="black"/>
<path d="M81,253h -7" fill="none" stroke="black"/>
<path d="M87,244h -13" fill="none" stroke="black"/>
<path d="M81,236h -7" fill="none" stroke="black"/>
<path d="M81,227h -7" fill="none" stroke="black"/>
<path d="M81,219h -7" fill="none" stroke="black"/>
<path d="M87,210h -13" fill="none" stroke="black"/>
<path d="M81,202h -7" fill="none" stroke="black"/>
<path d="M81,194h -7" fill="none" stroke="black"/>
<path d="M81,185h -7" fill="none" stroke="black"/>
<path d="M87,177h -13" fill="none" stroke="black"/>
<path d="M81,168h -7" fill="none" stroke="black"/>
<path d="M81,160h -7" fill="none" stroke="black"/>
<path d="M81,152h -7" fill="none" stroke="black"/>
<path d="M87,143h -13" fill="none" stroke="black"/>
<path d="M81,135h -7" fill="none" stroke="black"/>
<path d="M81,126h -7" fill="none" stroke="black"/>
<path d="M81,118h -7" fill="none" stroke="black"/>
<path d="M87,109h -13" fill="none" stroke="black"/>
<path d="M81,101h -7" fill="none" stroke="black"/>
<path d="M81,93h -7" fill="none" stroke="black"/>
<path d="M81,84h -7" fill="none" stroke="black"/>
<path d="M87,76h -13" fill="none" stroke="black"/>
<path d="M87,76h -13" fill="none" stroke="black"/>
<path d="M81,67h -7" fill="none" stroke="black"/>
<path d="M81,59h -7" fill="none" stroke="black"/>
<path d="M81,50h -7" fill="none" stroke="black"/>
<text x="61" y="453" fill="black" font-size="18" font-family="Helvetica" font-weight="bold">
0
</text>
<text x="35" y="419" fill="black" font-size="18" font-family="Helvetica" font-weight="bold">
0.02
</text>
<text x="34" y="386" fill="black" font-size="18" font-family="Helvetica" font-weight="bold">
0.04
</text>
<text x="34" y="352" fill="black" font-size="18" font-family="Helvetica" font-weight="bold">
0.06
</text>
<text x="35" y="318" fill="black" font-size="18" font-family="Helvetica" font-weight="bold">
0.08
</text>
<text x="47" y="284" fill="black" font-size="18" font-family="Helvetica" font-weight="bold">
0.1
</text>
<text x="35" y="251" fill="black" font-size="18" font-family="Helvetica" font-weight="bold">
0.12
</text>
<text x="34" y="217" fill="black" font-size="18" font-family="Helvetica" font-weight="bold">
0.14
</text>
<text x="34" y="184" fill="black" font-size="18" font-family="Helvetica" font-weight="bold">
0.16
</text>
<text x="35" y="149" fill="black" font-size="18" font-family="Helvetica" font-weight="bold">
0.18
</text>
<text x="45" y="116" fill="black" font-size="18" font-family="Helvetica" font-weight="bold">
0.2
</text>
<text x="35" y="82" fill="black" font-size="18" font-family="Helvetica" font-weight="bold">
0.22
</text>
<path d="M77,93v -2" fill="none" stroke="#99ff99" stroke-width="2"/>
<path d="M77,91v -3" fill="none" stroke="#99ff99" stroke-width="2"/>
<g stroke="black" stroke-width="2" fill="none">
<line x1="76" y1="91" x2="77" y2="91"/>
</g>
<path d="M85,422" fill="none" stroke="#99ff99" stroke-width="2"/>
<path d="M85,422v -1" fill="none" stroke="#99ff99" stroke-width="2"/>
<g stroke="black" stroke-width="2" fill="none">
<line x1="84" y1="422" x2="85" y2="422"/>
</g>
<path d="M93,367v -1" fill="none" stroke="#99ff99" stroke-width="2"/>
<path d="M93,366v -1" fill="none" stroke="#99ff99" stroke-width="2"/>
<g stroke="black" stroke-width="2" fill="none">
<line x1="92" y1="366" x2="93" y2="366"/>
</g>
<path d="M100,334v -2" fill="none" stroke="#99ff99" stroke-width="2"/>
<path d="M100,332v -1" fill="none" stroke="#99ff99" stroke-width="2"/>
<g stroke="black" stroke-width="2" fill="none">
<line x1="99" y1="332" x2="100" y2="332"/>
</g>
<path d="M108,357v -1" fill="none" stroke="#99ff99" stroke-width="2"/>
<path d="M108,356v -2" fill="none" stroke="#99ff99" stroke-width="2"/>
<g stroke="black" stroke-width="2" fill="none">
<line x1="107" y1="356" x2="108" y2="356"/>
</g>
<path d="M115,365v -1" fill="none" stroke="#99ff99" stroke-width="2"/>
<path d="M115,364v -1" fill="none" stroke="#99ff99" stroke-width="2"/>
<g stroke="black" stroke-width="2" fill="none">
<line x1="114" y1="364" x2="115" y2="364"/>
</g>
<path d="M123,368v -2" fill="none" stroke="#99ff99" stroke-width="2"/>
<path d="M123,366v -1" fill="none" stroke="#99ff99" stroke-width="2"/>
<g stroke="black" stroke-width="2" fill="none">
<line x1="122" y1="366" x2="123" y2="366"/>
</g>
<path d="M130,369v -1" fill="none" stroke="#99ff99" stroke-width="2"/>
<path d="M130,368v -2" fill="none" stroke="#99ff99" stroke-width="2"/>
<g stroke="black" stroke-width="2" fill="none">
<line x1="129" y1="368" x2="130" y2="368"/>
</g>
<path d="M138,378v -1" fill="none" stroke="#99ff99" stroke-width="2"/>
<path d="M138,377v -1" fill="none" stroke="#99ff99" stroke-width="2"/>
<g stroke="black" stroke-width="2" fill="none">
<line x1="137" y1="377" x2="138" y2="377"/>
</g>
<path d="M146,383v -1" fill="none" stroke="#99ff99" stroke-width="2"/>
<path d="M146,382v -1" fill="none" stroke="#99ff99" stroke-width="2"/>
<g stroke="black" stroke-width="2" fill="none">
<line x1="145" y1="382" x2="146" y2="382"/>
</g>
<path d="M153,388v -1" fill="none" stroke="#99ff99" stroke-width="2"/>
<path d="M153,387v -1" fill="none" stroke="#99ff99" stroke-width="2"/>
<g stroke="black" stroke-width="2" fill="none">
<line x1="152" y1="387" x2="153" y2="387"/>
</g>
<path d="M161,394v -1" fill="none" stroke="#99ff99" stroke-width="2"/>
<path d="M161,393v -1" fill="none" stroke="#99ff99" stroke-width="2"/>
<g stroke="black" stroke-width="2" fill="none">
<line x1="160" y1="393" x2="161" y2="393"/>
</g>
<path d="M168,397v -1" fill="none" stroke="#99ff99" stroke-width="2"/>
<path d="M168,396v -1" fill="none" stroke="#99ff99" stroke-width="2"/>
<g stroke="black" stroke-width="2" fill="none">
<line x1="167" y1="396" x2="168" y2="396"/>
</g>
<path d="M176,402v -1" fill="none" stroke="#99ff99" stroke-width="2"/>
<path d="M176,401v -1" fill="none" stroke="#99ff99" stroke-width="2"/>
<g stroke="black" stroke-width="2" fill="none">
<line x1="175" y1="401" x2="176" y2="401"/>
</g>
<path d="M183,406v -1" fill="none" stroke="#99ff99" stroke-width="2"/>
<path d="M183,405v -1" fill="none" stroke="#99ff99" stroke-width="2"/>
<g stroke="black" stroke-width="2" fill="none">
<line x1="182" y1="405" x2="183" y2="405"/>
</g>
<path d="M191,410v -1" fill="none" stroke="#99ff99" stroke-width="2"/>
<path d="M191,409v -1" fill="none" stroke="#99ff99" stroke-width="2"/>
<g stroke="black" stroke-width="2" fill="none">
<line x1="190" y1="409" x2="191" y2="409"/>
</g>
<path d="M198,412" fill="none" stroke="#99ff99" stroke-width="2"/>
<path d="M198,412v -1" fill="none" stroke="#99ff99" stroke-width="2"/>
<g stroke="black" stroke-width="2" fill="none">
<line x1="197" y1="412" x2="198" y2="412"/>
</g>
<path d="M206,415" fill="none" stroke="#99ff99" stroke-width="2"/>
<path d="M206,415v -1" fill="none" stroke="#99ff99" stroke-width="2"/>
<g stroke="black" stroke-width="2" fill="none">
<line x1="205" y1="415" x2="206" y2="415"/>
</g>
<path d="M214,419v -1" fill="none" stroke="#99ff99" stroke-width="2"/>
<path d="M214,418" fill="none" stroke="#99ff99" stroke-width="2"/>
<g stroke="black" stroke-width="2" fill="none">
<line x1="213" y1="418" x2="214" y2="418"/>
</g>
<path d="M221,421" fill="none" stroke="#99ff99" stroke-width="2"/>
<path d="M221,421v -1" fill="none" stroke="#99ff99" stroke-width="2"/>
<g stroke="black" stroke-width="2" fill="none">
<line x1="220" y1="421" x2="221" y2="421"/>
</g>
<path d="M229,424v -1" fill="none" stroke="#99ff99" stroke-width="2"/>
<path d="M229,423" fill="none" stroke="#99ff99" stroke-width="2"/>
<g stroke="black" stroke-width="2" fill="none">
<line x1="228" y1="423" x2="229" y2="423"/>
</g>
<path d="M236,425" fill="none" stroke="#99ff99" stroke-width="2"/>
<path d="M236,425v -1" fill="none" stroke="#99ff99" stroke-width="2"/>
<g stroke="black" stroke-width="2" fill="none">
<line x1="235" y1="425" x2="236" y2="425"/>
</g>
<path d="M244,428v -1" fill="none" stroke="#99ff99" stroke-width="2"/>
<path d="M244,427" fill="none" stroke="#99ff99" stroke-width="2"/>
<g stroke="black" stroke-width="2" fill="none">
<line x1="243" y1="427" x2="244" y2="427"/>
</g>
<path d="M251,430" fill="none" stroke="#99ff99" stroke-width="2"/>
<path d="M251,430v -1" fill="none" stroke="#99ff99" stroke-width="2"/>
<g stroke="black" stroke-width="2" fill="none">
<line x1="250" y1="430" x2="251" y2="430"/>
</g>
<path d="M259,431" fill="none" stroke="#99ff99" stroke-width="2"/>
<path d="M259,431v -1" fill="none" stroke="#99ff99" stroke-width="2"/>
<g stroke="black" stroke-width="2" fill="none">
<line x1="258" y1="431" x2="259" y2="431"/>
</g>
<path d="M266,432v -1" fill="none" stroke="#99ff99" stroke-width="2"/>
<path d="M266,431" fill="none" stroke="#99ff99" stroke-width="2"/>
<g stroke="black" stroke-width="2" fill="none">
<line x1="265" y1="431" x2="266" y2="431"/>
</g>
<path d="M274,435v -1" fill="none" stroke="#99ff99" stroke-width="2"/>
<path d="M274,434" fill="none" stroke="#99ff99" stroke-width="2"/>
<g stroke="black" stroke-width="2" fill="none">
<line x1="273" y1="434" x2="274" y2="434"/>
</g>
<path d="M282,435" fill="none" stroke="#99ff99" stroke-width="2"/>
<path d="M282,435" fill="none" stroke="#99ff99" stroke-width="2"/>
<g stroke="black" stroke-width="2" fill="none">
<line x1="281" y1="435" x2="282" y2="435"/>
</g>
<path d="M289,437v -1" fill="none" stroke="#99ff99" stroke-width="2"/>
<path d="M289,436" fill="none" stroke="#99ff99" stroke-width="2"/>
<g stroke="black" stroke-width="2" fill="none">
<line x1="288" y1="436" x2="289" y2="436"/>
</g>
<path d="M297,437" fill="none" stroke="#99ff99" stroke-width="2"/>
<path d="M297,437v -1" fill="none" stroke="#99ff99" stroke-width="2"/>
<g stroke="black" stroke-width="2" fill="none">
<line x1="296" y1="437" x2="297" y2="437"/>
</g>
<path d="M304,439v -1" fill="none" stroke="#99ff99" stroke-width="2"/>
<path d="M304,438" fill="none" stroke="#99ff99" stroke-width="2"/>
<g stroke="black" stroke-width="2" fill="none">
<line x1="303" y1="438" x2="304" y2="438"/>
</g>
<path d="M312,439" fill="none" stroke="#99ff99" stroke-width="2"/>
<path d="M312,439v -1" fill="none" stroke="#99ff99" stroke-width="2"/>
<g stroke="black" stroke-width="2" fill="none">
<line x1="311" y1="439" x2="312" y2="439"/>
</g>
<path d="M319,440" fill="none" stroke="#99ff99" stroke-width="2"/>
<path d="M319,440v -1" fill="none" stroke="#99ff99" stroke-width="2"/>
<g stroke="black" stroke-width="2" fill="none">
<line x1="318" y1="440" x2="319" y2="440"/>
</g>
<path d="M327,440" fill="none" stroke="#99ff99" stroke-width="2"/>
<path d="M327,440v -1" fill="none" stroke="#99ff99" stroke-width="2"/>
<g stroke="black" stroke-width="2" fill="none">
<line x1="326" y1="440" x2="327" y2="440"/>
</g>
<path d="M334,441v -1" fill="none" stroke="#99ff99" stroke-width="2"/>
<path d="M334,440" fill="none" stroke="#99ff99" stroke-width="2"/>
<g stroke="black" stroke-width="2" fill="none">
<line x1="333" y1="440" x2="334" y2="440"/>
</g>
<path d="M342,442" fill="none" stroke="#99ff99" stroke-width="2"/>
<path d="M342,442" fill="none" stroke="#99ff99" stroke-width="2"/>
<g stroke="black" stroke-width="2" fill="none">
<line x1="341" y1="442" x2="342" y2="442"/>
</g>
<path d="M350,442" fill="none" stroke="#99ff99" stroke-width="2"/>
<path d="M350,442" fill="none" stroke="#99ff99" stroke-width="2"/>
<g stroke="black" stroke-width="2" fill="none">
<line x1="349" y1="442" x2="350" y2="442"/>
</g>
<path d="M357,442" fill="none" stroke="#99ff99" stroke-width="2"/>
<path d="M357,442" fill="none" stroke="#99ff99" stroke-width="2"/>
<g stroke="black" stroke-width="2" fill="none">
<line x1="356" y1="442" x2="357" y2="442"/>
</g>
<path d="M365,443" fill="none" stroke="#99ff99" stroke-width="2"/>
<path d="M365,443" fill="none" stroke="#99ff99" stroke-width="2"/>
<g stroke="black" stroke-width="2" fill="none">
<line x1="364" y1="443" x2="365" y2="443"/>
</g>
<path d="M372,443" fill="none" stroke="#99ff99" stroke-width="2"/>
<path d="M372,443" fill="none" stroke="#99ff99" stroke-width="2"/>
<g stroke="black" stroke-width="2" fill="none">
<line x1="371" y1="443" x2="372" y2="443"/>
</g>
<path d="M380,444" fill="none" stroke="#99ff99" stroke-width="2"/>
<path d="M380,444v -1" fill="none" stroke="#99ff99" stroke-width="2"/>
<g stroke="black" stroke-width="2" fill="none">
<line x1="379" y1="444" x2="380" y2="444"/>
</g>
<path d="M387,444" fill="none" stroke="#99ff99" stroke-width="2"/>
<path d="M387,444" fill="none" stroke="#99ff99" stroke-width="2"/>
<g stroke="black" stroke-width="2" fill="none">
<line x1="386" y1="444" x2="387" y2="444"/>
</g>
<path d="M395,444" fill="none" stroke="#99ff99" stroke-width="2"/>
<path d="M395,444v -1" fill="none" stroke="#99ff99" stroke-width="2"/>
<g stroke="black" stroke-width="2" fill="none">
<line x1="394" y1="444" x2="395" y2="444"/>
</g>
<path d="M403,444" fill="none" stroke="#99ff99" stroke-width="2"/>
<path d="M403,444" fill="none" stroke="#99ff99" stroke-width="2"/>
<g stroke="black" stroke-width="2" fill="none">
<line x1="402" y1="444" x2="403" y2="444"/>
</g>
<path d="M410,445" fill="none" stroke="#99ff99" stroke-width="2"/>
<path d="M410,445v -1" fill="none" stroke="#99ff99" stroke-width="2"/>
<g stroke="black" stroke-width="2" fill="none">
<line x1="409" y1="445" x2="410" y2="445"/>
</g>
<path d="M418,445" fill="none" stroke="#99ff99" stroke-width="2"/>
<path d="M418,445" fill="none" stroke="#99ff99" stroke-width="2"/>
<g stroke="black" stroke-width="2" fill="none">
<line x1="417" y1="445" x2="418" y2="445"/>
</g>
<path d="M425,445v -1" fill="none" stroke="#99ff99" stroke-width="2"/>
<path d="M425,444" fill="none" stroke="#99ff99" stroke-width="2"/>
<g stroke="black" stroke-width="2" fill="none">
<line x1="424" y1="444" x2="425" y2="444"/>
</g>
<path d="M433,445" fill="none" stroke="#99ff99" stroke-width="2"/>
<path d="M433,445" fill="none" stroke="#99ff99" stroke-width="2"/>
<g stroke="black" stroke-width="2" fill="none">
<line x1="432" y1="445" x2="433" y2="445"/>
</g>
<path d="M440,445" fill="none" stroke="#99ff99" stroke-width="2"/>
<path d="M440,445" fill="none" stroke="#99ff99" stroke-width="2"/>
<g stroke="black" stroke-width="2" fill="none">
<line x1="439" y1="445" x2="440" y2="445"/>
</g>
<path d="M448,445" fill="none" stroke="#99ff99" stroke-width="2"/>
<path d="M448,445" fill="none" stroke="#99ff99" stroke-width="2"/>
<g stroke="black" stroke-width="2" fill="none">
<line x1="447" y1="445" x2="448" y2="445"/>
</g>
<path d="M455,445" fill="none" stroke="#99ff99" stroke-width="2"/>
<path d="M455,445" fill="none" stroke="#99ff99" stroke-width="2"/>
<g stroke="black" stroke-width="2" fill="none">
<line x1="454" y1="445" x2="455" y2="445"/>
</g>
<path d="M463,445" fill="none" stroke="#99ff99" stroke-width="2"/>
<path d="M463,445" fill="none" stroke="#99ff99" stroke-width="2"/>
<g stroke="black" stroke-width="2" fill="none">
<line x1="462" y1="445" x2="463" y2="445"/>
</g>
<path d="M471,445" fill="none" stroke="#99ff99" stroke-width="2"/>
<path d="M471,445" fill="none" stroke="#99ff99" stroke-width="2"/>
<g stroke="black" stroke-width="2" fill="none">
<line x1="470" y1="445" x2="471" y2="445"/>
</g>
<path d="M478,445" fill="none" stroke="#99ff99" stroke-width="2"/>
<path d="M478,445" fill="none" stroke="#99ff99" stroke-width="2"/>
<g stroke="black" stroke-width="2" fill="none">
<line x1="477" y1="445" x2="478" y2="445"/>
</g>
<path d="M486,445" fill="none" stroke="#99ff99" stroke-width="2"/>
<path d="M486,445" fill="none" stroke="#99ff99" stroke-width="2"/>
<g stroke="black" stroke-width="2" fill="none">
<line x1="485" y1="445" x2="486" y2="445"/>
</g>
<path d="M493,446v -1" fill="none" stroke="#99ff99" stroke-width="2"/>
<path d="M493,445" fill="none" stroke="#99ff99" stroke-width="2"/>
<g stroke="black" stroke-width="2" fill="none">
<line x1="492" y1="445" x2="493" y2="445"/>
</g>
<path d="M501,446" fill="none" stroke="#99ff99" stroke-width="2"/>
<path d="M501,446v -1" fill="none" stroke="#99ff99" stroke-width="2"/>
<g stroke="black" stroke-width="2" fill="none">
<line x1="500" y1="446" x2="501" y2="446"/>
</g>
<path d="M508,446" fill="none" stroke="#99ff99" stroke-width="2"/>
<path d="M508,446" fill="none" stroke="#99ff99" stroke-width="2"/>
<g stroke="black" stroke-width="2" fill="none">
<line x1="507" y1="446" x2="508" y2="446"/>
</g>
<path d="M516,446" fill="none" stroke="#99ff99" stroke-width="2"/>
<path d="M516,446" fill="none" stroke="#99ff99" stroke-width="2"/>
<g stroke="black" stroke-width="2" fill="none">
<line x1="515" y1="446" x2="516" y2="446"/>
</g>
<path d="M523,446" fill="none" stroke="#99ff99" stroke-width="2"/>
<path d="M523,446" fill="none" stroke="#99ff99" stroke-width="2"/>
<g stroke="black" stroke-width="2" fill="none">
<line x1="522" y1="446" x2="523" y2="446"/>
</g>
<path d="M74,446v -355h 7v 331h 8v -56h 7v -34h 8v 24h 7v 8h 8v 2h 8v 2h 7v 9h 8v 5h 7v 5h 8v 6h 7v 3h 8v 5h 8v 4h 7v 4h 8v 3h 7v 3h 8v 3h 7v 3h 8v 2h 7v 2h 8v 2h 8v 3h 7v 1h 15v 3h 8v 1h 7v 1h 8v 1h 7v 1h 8v 1h 8v 1h 22v 2h 23v 1h 15v 1h 30v 1h 15v
 -1h 8v 1h 68v 1h 30z" fill="#99ff99"/>
<path d="M74,91h 7v 331h 8v -56h 7v -34h 8v 24h 7v 8h 8v 2h 8v 2h 7v 9h 8v 5h 7v 5h 8v 6h 7v 3h 8v 5h 8v 4h 7v 4h 8v 3h 7v 3h 8v 3h 7v 3h 8v 2h 7v 2h 8v 2h 8v 3h 7v 1h 15v 3h 8v 1h 7v 1h 8v 1h 7v 1h 8v 1h 8v 1h 22v 2h 23v 1h 15v 1h 30v 1h 15v -1h 8v
 1h 68v 1h 30" fill="none" stroke="#99ff99" stroke-width="2"/>
<path d="M74,64h 2" fill="none" stroke="#ff0099"/>
<path d="M79,64h 2" fill="none" stroke="#ff0099"/>
<g stroke="#ff0099" stroke-width="1" fill="#ff0099">
<circle cx=" 77" cy=" 64" r=" 1.5"/>
</g>
<path d="M81,442h 3" fill="none" stroke="#ff0099"/>
<path d="M86,442h 3" fill="none" stroke="#ff0099"/>
<g stroke="#ff0099" stroke-width="1" fill="#ff0099">
<circle cx=" 85" cy=" 442" r=" 1.5"/>
</g>
<path d="M89,391h 2" fill="none" stroke="#ff0099"/>
<path d="M94,391h 2" fill="none" stroke="#ff0099"/>
<g stroke="#ff0099" stroke-width="1" fill="#ff0099">
<circle cx=" 93" cy=" 391" r=" 1.5"/>
</g>
<path d="M96,322h 3" fill="none" stroke="#ff0099"/>
<path d="M101,322h 3" fill="none" stroke="#ff0099"/>
<g stroke="#ff0099" stroke-width="1" fill="#ff0099">
<circle cx=" 100" cy=" 322" r=" 1.5"/>
</g>
<path d="M104,359h 3" fill="none" stroke="#ff0099"/>
<path d="M109,359h 2" fill="none" stroke="#ff0099"/>
<g stroke="#ff0099" stroke-width="1" fill="#ff0099">
<circle cx=" 108" cy=" 359" r=" 1.5"/>
</g>
<path d="M111,367h 3" fill="none" stroke="#ff0099"/>
<path d="M116,367h 3" fill="none" stroke="#ff0099"/>
<g stroke="#ff0099" stroke-width="1" fill="#ff0099">
<circle cx=" 115" cy=" 367" r=" 1.5"/>
</g>
<path d="M119,370h 3" fill="none" stroke="#ff0099"/>
<path d="M124,370h 3" fill="none" stroke="#ff0099"/>
<g stroke="#ff0099" stroke-width="1" fill="#ff0099">
<circle cx=" 123" cy=" 370" r=" 1.5"/>
</g>
<path d="M127,373h 2" fill="none" stroke="#ff0099"/>
<path d="M132,373h 2" fill="none" stroke="#ff0099"/>
<g stroke="#ff0099" stroke-width="1" fill="#ff0099">
<circle cx=" 130" cy=" 373" r=" 1.5"/>
</g>
<path d="M134,378h 3" fill="none" stroke="#ff0099"/>
<path d="M139,378h 3" fill="none" stroke="#ff0099"/>
<g stroke="#ff0099" stroke-width="1" fill="#ff0099">
<circle cx=" 138" cy=" 378" r=" 1.5"/>
</g>
<path d="M142,382h 2" fill="none" stroke="#ff0099"/>
<path d="M147,382h 2" fill="none" stroke="#ff0099"/>
<g stroke="#ff0099" stroke-width="1" fill="#ff0099">
<circle cx=" 146" cy=" 382" r=" 1.5"/>
</g>
<path d="M149,386h 3" fill="none" stroke="#ff0099"/>
<path d="M154,386h 3" fill="none" stroke="#ff0099"/>
<g stroke="#ff0099" stroke-width="1" fill="#ff0099">
<circle cx=" 153" cy=" 386" r=" 1.5"/>
</g>
<path d="M157,391h 2" fill="none" stroke="#ff0099"/>
<path d="M162,391h 2" fill="none" stroke="#ff0099"/>
<g stroke="#ff0099" stroke-width="1" fill="#ff0099">
<circle cx=" 161" cy=" 391" r=" 1.5"/>
</g>
<path d="M164,396h 3" fill="none" stroke="#ff0099"/>
<path d="M169,396h 3" fill="none" stroke="#ff0099"/>
<g stroke="#ff0099" stroke-width="1" fill="#ff0099">
<circle cx=" 168" cy=" 396" r=" 1.5"/>
</g>
<path d="M172,400h 3" fill="none" stroke="#ff0099"/>
<path d="M177,400h 3" fill="none" stroke="#ff0099"/>
<g stroke="#ff0099" stroke-width="1" fill="#ff0099">
<circle cx=" 176" cy=" 400" r=" 1.5"/>
</g>
<path d="M180,404h 2" fill="none" stroke="#ff0099"/>
<path d="M184,404h 3" fill="none" stroke="#ff0099"/>
<g stroke="#ff0099" stroke-width="1" fill="#ff0099">
<circle cx=" 183" cy=" 404" r=" 1.5"/>
</g>
<path d="M187,407h 3" fill="none" stroke="#ff0099"/>
<path d="M192,407h 3" fill="none" stroke="#ff0099"/>
<g stroke="#ff0099" stroke-width="1" fill="#ff0099">
<circle cx=" 191" cy=" 407" r=" 1.5"/>
</g>
<path d="M195,411h 2" fill="none" stroke="#ff0099"/>
<path d="M200,411h 2" fill="none" stroke="#ff0099"/>
<g stroke="#ff0099" stroke-width="1" fill="#ff0099">
<circle cx=" 198" cy=" 411" r=" 1.5"/>
</g>
<path d="M202,414h 3" fill="none" stroke="#ff0099"/>
<path d="M207,414h 3" fill="none" stroke="#ff0099"/>
<g stroke="#ff0099" stroke-width="1" fill="#ff0099">
<circle cx=" 206" cy=" 414" r=" 1.5"/>
</g>
<path d="M210,417h 2" fill="none" stroke="#ff0099"/>
<path d="M215,417h 2" fill="none" stroke="#ff0099"/>
<g stroke="#ff0099" stroke-width="1" fill="#ff0099">
<circle cx=" 214" cy=" 417" r=" 1.5"/>
</g>
<path d="M217,419h 3" fill="none" stroke="#ff0099"/>
<path d="M222,419h 3" fill="none" stroke="#ff0099"/>
<g stroke="#ff0099" stroke-width="1" fill="#ff0099">
<circle cx=" 221" cy=" 419" r=" 1.5"/>
</g>
<path d="M225,422h 3" fill="none" stroke="#ff0099"/>
<path d="M230,422h 2" fill="none" stroke="#ff0099"/>
<g stroke="#ff0099" stroke-width="1" fill="#ff0099">
<circle cx=" 229" cy=" 422" r=" 1.5"/>
</g>
<path d="M232,424h 3" fill="none" stroke="#ff0099"/>
<path d="M237,424h 3" fill="none" stroke="#ff0099"/>
<g stroke="#ff0099" stroke-width="1" fill="#ff0099">
<circle cx=" 236" cy=" 424" r=" 1.5"/>
</g>
<path d="M240,426h 3" fill="none" stroke="#ff0099"/>
<path d="M245,426h 3" fill="none" stroke="#ff0099"/>
<g stroke="#ff0099" stroke-width="1" fill="#ff0099">
<circle cx=" 244" cy=" 426" r=" 1.5"/>
</g>
<path d="M248,428h 2" fill="none" stroke="#ff0099"/>
<path d="M252,428h 3" fill="none" stroke="#ff0099"/>
<g stroke="#ff0099" stroke-width="1" fill="#ff0099">
<circle cx=" 251" cy=" 428" r=" 1.5"/>
</g>
<path d="M255,430h 3" fill="none" stroke="#ff0099"/>
<path d="M260,430h 3" fill="none" stroke="#ff0099"/>
<g stroke="#ff0099" stroke-width="1" fill="#ff0099">
<circle cx=" 259" cy=" 430" r=" 1.5"/>
</g>
<path d="M263,432h 2" fill="none" stroke="#ff0099"/>
<path d="M268,432h 2" fill="none" stroke="#ff0099"/>
<g stroke="#ff0099" stroke-width="1" fill="#ff0099">
<circle cx=" 266" cy=" 432" r=" 1.5"/>
</g>
<path d="M270,432h 3" fill="none" stroke="#ff0099"/>
<path d="M275,432h 3" fill="none" stroke="#ff0099"/>
<g stroke="#ff0099" stroke-width="1" fill="#ff0099">
<circle cx=" 274" cy=" 432" r=" 1.5"/>
</g>
<path d="M278,434h 2" fill="none" stroke="#ff0099"/>
<path d="M283,434h 2" fill="none" stroke="#ff0099"/>
<g stroke="#ff0099" stroke-width="1" fill="#ff0099">
<circle cx=" 282" cy=" 434" r=" 1.5"/>
</g>
<path d="M285,436h 3" fill="none" stroke="#ff0099"/>
<path d="M290,436h 3" fill="none" stroke="#ff0099"/>
<g stroke="#ff0099" stroke-width="1" fill="#ff0099">
<circle cx=" 289" cy=" 436" r=" 1.5"/>
</g>
<path d="M293,436h 3" fill="none" stroke="#ff0099"/>
<path d="M298,436h 2" fill="none" stroke="#ff0099"/>
<g stroke="#ff0099" stroke-width="1" fill="#ff0099">
<circle cx=" 297" cy=" 436" r=" 1.5"/>
</g>
<path d="M300,437h 3" fill="none" stroke="#ff0099"/>
<path d="M305,437h 3" fill="none" stroke="#ff0099"/>
<g stroke="#ff0099" stroke-width="1" fill="#ff0099">
<circle cx=" 304" cy=" 437" r=" 1.5"/>
</g>
<path d="M308,439h 3" fill="none" stroke="#ff0099"/>
<path d="M313,439h 3" fill="none" stroke="#ff0099"/>
<g stroke="#ff0099" stroke-width="1" fill="#ff0099">
<circle cx=" 312" cy=" 439" r=" 1.5"/>
</g>
<path d="M316,439h 2" fill="none" stroke="#ff0099"/>
<path d="M321,439h 2" fill="none" stroke="#ff0099"/>
<g stroke="#ff0099" stroke-width="1" fill="#ff0099">
<circle cx=" 319" cy=" 439" r=" 1.5"/>
</g>
<path d="M323,440h 3" fill="none" stroke="#ff0099"/>
<path d="M328,440h 3" fill="none" stroke="#ff0099"/>
<g stroke="#ff0099" stroke-width="1" fill="#ff0099">
<circle cx=" 327" cy=" 440" r=" 1.5"/>
</g>
<path d="M331,440h 2" fill="none" stroke="#ff0099"/>
<path d="M336,440h 2" fill="none" stroke="#ff0099"/>
<g stroke="#ff0099" stroke-width="1" fill="#ff0099">
<circle cx=" 334" cy=" 440" r=" 1.5"/>
</g>
<path d="M338,441h 3" fill="none" stroke="#ff0099"/>
<path d="M343,441h 3" fill="none" stroke="#ff0099"/>
<g stroke="#ff0099" stroke-width="1" fill="#ff0099">
<circle cx=" 342" cy=" 441" r=" 1.5"/>
</g>
<path d="M346,442h 2" fill="none" stroke="#ff0099"/>
<path d="M351,442h 2" fill="none" stroke="#ff0099"/>
<g stroke="#ff0099" stroke-width="1" fill="#ff0099">
<circle cx=" 350" cy=" 442" r=" 1.5"/>
</g>
<path d="M353,442h 3" fill="none" stroke="#ff0099"/>
<path d="M358,442h 3" fill="none" stroke="#ff0099"/>
<g stroke="#ff0099" stroke-width="1" fill="#ff0099">
<circle cx=" 357" cy=" 442" r=" 1.5"/>
</g>
<path d="M361,442h 3" fill="none" stroke="#ff0099"/>
<path d="M366,442h 3" fill="none" stroke="#ff0099"/>
<g stroke="#ff0099" stroke-width="1" fill="#ff0099">
<circle cx=" 365" cy=" 442" r=" 1.5"/>
</g>
<path d="M369,443h 2" fill="none" stroke="#ff0099"/>
<path d="M373,443h 3" fill="none" stroke="#ff0099"/>
<g stroke="#ff0099" stroke-width="1" fill="#ff0099">
<circle cx=" 372" cy=" 443" r=" 1.5"/>
</g>
<path d="M376,443h 3" fill="none" stroke="#ff0099"/>
<path d="M381,443h 3" fill="none" stroke="#ff0099"/>
<g stroke="#ff0099" stroke-width="1" fill="#ff0099">
<circle cx=" 380" cy=" 443" r=" 1.5"/>
</g>
<path d="M384,444h 2" fill="none" stroke="#ff0099"/>
<path d="M389,444h 2" fill="none" stroke="#ff0099"/>
<g stroke="#ff0099" stroke-width="1" fill="#ff0099">
<circle cx=" 387" cy=" 444" r=" 1.5"/>
</g>
<path d="M391,444h 3" fill="none" stroke="#ff0099"/>
<path d="M396,444h 3" fill="none" stroke="#ff0099"/>
<g stroke="#ff0099" stroke-width="1" fill="#ff0099">
<circle cx=" 395" cy=" 444" r=" 1.5"/>
</g>
<path d="M399,444h 2" fill="none" stroke="#ff0099"/>
<path d="M404,444h 2" fill="none" stroke="#ff0099"/>
<g stroke="#ff0099" stroke-width="1" fill="#ff0099">
<circle cx=" 403" cy=" 444" r=" 1.5"/>
</g>
<path d="M406,444h 3" fill="none" stroke="#ff0099"/>
<path d="M411,444h 3" fill="none" stroke="#ff0099"/>
<g stroke="#ff0099" stroke-width="1" fill="#ff0099">
<circle cx=" 410" cy=" 444" r=" 1.5"/>
</g>
<path d="M414,444h 2" fill="none" stroke="#ff0099"/>
<path d="M419,444h 2" fill="none" stroke="#ff0099"/>
<g stroke="#ff0099" stroke-width="1" fill="#ff0099">
<circle cx=" 418" cy=" 444" r=" 1.5"/>
</g>
<path d="M421,445h 3" fill="none" stroke="#ff0099"/>
<path d="M426,445h 3" fill="none" stroke="#ff0099"/>
<g stroke="#ff0099" stroke-width="1" fill="#ff0099">
<circle cx=" 425" cy=" 445" r=" 1.5"/>
</g>
<path d="M429,445h 3" fill="none" stroke="#ff0099"/>
<path d="M434,445h 3" fill="none" stroke="#ff0099"/>
<g stroke="#ff0099" stroke-width="1" fill="#ff0099">
<circle cx=" 433" cy=" 445" r=" 1.5"/>
</g>
<path d="M437,445h 2" fill="none" stroke="#ff0099"/>
<path d="M441,445h 3" fill="none" stroke="#ff0099"/>
<g stroke="#ff0099" stroke-width="1" fill="#ff0099">
<circle cx=" 440" cy=" 445" r=" 1.5"/>
</g>
<path d="M444,445h 3" fill="none" stroke="#ff0099"/>
<path d="M449,445h 3" fill="none" stroke="#ff0099"/>
<g stroke="#ff0099" stroke-width="1" fill="#ff0099">
<circle cx=" 448" cy=" 445" r=" 1.5"/>
</g>
<path d="M452,445h 2" fill="none" stroke="#ff0099"/>
<path d="M457,445h 2" fill="none" stroke="#ff0099"/>
<g stroke="#ff0099" stroke-width="1" fill="#ff0099">
<circle cx=" 455" cy=" 445" r=" 1.5"/>
</g>
<path d="M459,445h 3" fill="none" stroke="#ff0099"/>
<path d="M464,445h 3" fill="none" stroke="#ff0099"/>
<g stroke="#ff0099" stroke-width="1" fill="#ff0099">
<circle cx=" 463" cy=" 445" r=" 1.5"/>
</g>
<path d="M467,445h 2" fill="none" stroke="#ff0099"/>
<path d="M472,445h 2" fill="none" stroke="#ff0099"/>
<g stroke="#ff0099" stroke-width="1" fill="#ff0099">
<circle cx=" 471" cy=" 445" r=" 1.5"/>
</g>
<path d="M474,446h 3" fill="none" stroke="#ff0099"/>
<path d="M479,446h 3" fill="none" stroke="#ff0099"/>
<g stroke="#ff0099" stroke-width="1" fill="#ff0099">
<circle cx=" 478" cy=" 446" r=" 1.5"/>
</g>
<path d="M482,445h 3" fill="none" stroke="#ff0099"/>
<path d="M487,445h 2" fill="none" stroke="#ff0099"/>
<g stroke="#ff0099" stroke-width="1" fill="#ff0099">
<circle cx=" 486" cy=" 445" r=" 1.5"/>
</g>
<path d="M489,446h 3" fill="none" stroke="#ff0099"/>
<path d="M494,446h 3" fill="none" stroke="#ff0099"/>
<g stroke="#ff0099" stroke-width="1" fill="#ff0099">
<circle cx=" 493" cy=" 446" r=" 1.5"/>
</g>
<path d="M497,446h 3" fill="none" stroke="#ff0099"/>
<path d="M502,446h 3" fill="none" stroke="#ff0099"/>
<g stroke="#ff0099" stroke-width="1" fill="#ff0099">
<circle cx=" 501" cy=" 446" r=" 1.5"/>
</g>
<path d="M505,446h 2" fill="none" stroke="#ff0099"/>
<path d="M509,446h 3" fill="none" stroke="#ff0099"/>
<g stroke="#ff0099" stroke-width="1" fill="#ff0099">
<circle cx=" 508" cy=" 446" r=" 1.5"/>
</g>
<path d="M512,446h 3" fill="none" stroke="#ff0099"/>
<path d="M517,446h 3" fill="none" stroke="#ff0099"/>
<g stroke="#ff0099" stroke-width="1" fill="#ff0099">
<circle cx=" 516" cy=" 446" r=" 1.5"/>
</g>
<path d="M520,446h 2" fill="none" stroke="#ff0099"/>
<path d="M525,446h 2" fill="none" stroke="#ff0099"/>
<g stroke="#ff0099" stroke-width="1" fill="#ff0099">
<circle cx=" 523" cy=" 446" r=" 1.5"/>
</g>
<rect x="357" y="59" width="142" height="99" fill="white"/>
<text x="360" y="82" fill="black" font-size="17" font-family="Helvetica" font-weight="bold">
EB
</text>
<text x="457" y="115" fill="black" font-size="17" font-family="Helvetica" font-weight="bold">
 ee
</text>
<text x="440" y="115" fill="black" font-size="17" font-family="Times">
&#8594;
</text>
<text x="392" y="115" fill="black" font-size="17" font-family="Helvetica" font-weight="bold">
MC Z 
</text>
<path d="M362,109h 25" fill="none" stroke="#ff0099"/>
<g stroke="#ff0099" stroke-width="1" fill="#ff0099">
<circle cx=" 375" cy=" 109" r=" 1.5"/>
</g>
<text x="455" y="147" fill="black" font-size="17" font-family="Helvetica" font-weight="bold">
 + jet
</text>
<text x="447" y="147" fill="black" font-size="17" font-family="Times">
&#0947;
</text>
<text x="392" y="147" fill="black" font-size="17" font-family="Helvetica" font-weight="bold">
signal 
</text>
<path d="M362,154h 25v -24h -25z" fill="#99ff99"/>
<path d="M362,130h 25" fill="none" stroke="#99ff99" stroke-width="2"/>
<path d="M362,154h 25" fill="none" stroke="#99ff99" stroke-width="2"/>
<path d="M387,154v -24" fill="none" stroke="#99ff99" stroke-width="2"/>
<path d="M362,154v -24" fill="none" stroke="#99ff99" stroke-width="2"/>
<text x="300" y="34" fill="black" font-size="17" font-family="Helvetica" font-weight="bold">
=8 TeV
</text>
<text x="291" y="34" fill="black" font-size="17" font-family="Helvetica" font-weight="bold">
s
</text>
<path d="M285,25l 2, 10" fill="none" stroke="black" stroke-width="2"/>
<path d="M287,35l 2, -14" fill="none" stroke="black"/>
<path d="M289,21h 11" fill="none" stroke="black"/>
<text x="142" y="34" fill="black" font-size="17" font-family="Helvetica" font-weight="bold">
CMS Preliminary 
</text></svg>
