<?xml version="1.0" standalone="no"?>
<svg width="567" height="386" viewBox="0 0 567 386" xmlns="http://www.w3.org/2000/svg">
<title>
/cmshome/gdimperi/GammaJet/GammaJetAnalysis/CMSSW_5_3_11/src/GammaJets/src/TagAndProbeZ/comparison_iso_hlt30_hlt90.svg
</title>
<desc>
Creator: ROOT Version 5.32/00
CreationDate: Sun Sep 28 15:47:06 2014</desc>
<defs>
</defs>
<rect x="0" y="0" width="567" height="386" fill="white"/>
<rect x="57" y="39" width="453" height="308" fill="white"/>
<rect x="57" y="39" width="453" height="308" fill="none" stroke="black"/>
<rect x="57" y="39" width="453" height="308" fill="white"/>
<rect x="57" y="39" width="453" height="308" fill="none" stroke="black"/>
<path d="M60,346" fill="none" stroke="#000099"/>
<path d="M60,346" fill="none" stroke="#000099"/>
<path d="M57,346h 3" fill="none" stroke="#000099"/>
<path d="M60,346h 4" fill="none" stroke="#000099"/>
<g stroke="black" stroke-width="1" fill="none">
<line x1="59" y1="346" x2="60" y2="346"/>
</g>
<path d="M68,345" fill="none" stroke="#000099"/>
<path d="M68,345v -1" fill="none" stroke="#000099"/>
<path d="M64,345h 4" fill="none" stroke="#000099"/>
<path d="M68,345h 4" fill="none" stroke="#000099"/>
<g stroke="black" stroke-width="1" fill="none">
<line x1="67" y1="345" x2="68" y2="345"/>
</g>
<path d="M76,342" fill="none" stroke="#000099"/>
<path d="M76,342" fill="none" stroke="#000099"/>
<path d="M72,342h 4" fill="none" stroke="#000099"/>
<path d="M76,342h 3" fill="none" stroke="#000099"/>
<g stroke="black" stroke-width="1" fill="none">
<line x1="75" y1="342" x2="76" y2="342"/>
</g>
<path d="M83,337" fill="none" stroke="#000099"/>
<path d="M83,337" fill="none" stroke="#000099"/>
<path d="M79,337h 4" fill="none" stroke="#000099"/>
<path d="M83,337h 4" fill="none" stroke="#000099"/>
<g stroke="black" stroke-width="1" fill="none">
<line x1="82" y1="337" x2="83" y2="337"/>
</g>
<path d="M91,329" fill="none" stroke="#000099"/>
<path d="M91,329" fill="none" stroke="#000099"/>
<path d="M87,329h 4" fill="none" stroke="#000099"/>
<path d="M91,329h 3" fill="none" stroke="#000099"/>
<g stroke="black" stroke-width="1" fill="none">
<line x1="90" y1="329" x2="91" y2="329"/>
</g>
<path d="M98,315" fill="none" stroke="#000099"/>
<path d="M98,315v -1" fill="none" stroke="#000099"/>
<path d="M94,315h 4" fill="none" stroke="#000099"/>
<path d="M98,315h 4" fill="none" stroke="#000099"/>
<g stroke="black" stroke-width="1" fill="none">
<line x1="97" y1="315" x2="98" y2="315"/>
</g>
<path d="M106,292" fill="none" stroke="#000099"/>
<path d="M106,292v -1" fill="none" stroke="#000099"/>
<path d="M102,292h 4" fill="none" stroke="#000099"/>
<path d="M106,292h 4" fill="none" stroke="#000099"/>
<g stroke="black" stroke-width="1" fill="none">
<line x1="105" y1="292" x2="106" y2="292"/>
</g>
<path d="M113,259" fill="none" stroke="#000099"/>
<path d="M113,259v -1" fill="none" stroke="#000099"/>
<path d="M110,259h 3" fill="none" stroke="#000099"/>
<path d="M113,259h 4" fill="none" stroke="#000099"/>
<g stroke="black" stroke-width="1" fill="none">
<line x1="112" y1="259" x2="113" y2="259"/>
</g>
<path d="M121,216v -1" fill="none" stroke="#000099"/>
<path d="M121,215v -1" fill="none" stroke="#000099"/>
<path d="M117,215h 4" fill="none" stroke="#000099"/>
<path d="M121,215h 4" fill="none" stroke="#000099"/>
<g stroke="black" stroke-width="1" fill="none">
<line x1="120" y1="215" x2="121" y2="215"/>
</g>
<path d="M129,163" fill="none" stroke="#000099"/>
<path d="M129,163v -1" fill="none" stroke="#000099"/>
<path d="M125,163h 4" fill="none" stroke="#000099"/>
<path d="M129,163h 3" fill="none" stroke="#000099"/>
<g stroke="black" stroke-width="1" fill="none">
<line x1="128" y1="163" x2="129" y2="163"/>
</g>
<path d="M136,105v -1" fill="none" stroke="#000099"/>
<path d="M136,104v -1" fill="none" stroke="#000099"/>
<path d="M132,104h 4" fill="none" stroke="#000099"/>
<path d="M136,104h 4" fill="none" stroke="#000099"/>
<g stroke="black" stroke-width="1" fill="none">
<line x1="135" y1="104" x2="136" y2="104"/>
</g>
<path d="M144,63v -1" fill="none" stroke="#000099"/>
<path d="M144,62v -1" fill="none" stroke="#000099"/>
<path d="M140,62h 4" fill="none" stroke="#000099"/>
<path d="M144,62h 3" fill="none" stroke="#000099"/>
<g stroke="black" stroke-width="1" fill="none">
<line x1="143" y1="62" x2="144" y2="62"/>
</g>
<path d="M151,55v -1" fill="none" stroke="#000099"/>
<path d="M151,54v -1" fill="none" stroke="#000099"/>
<path d="M147,54h 4" fill="none" stroke="#000099"/>
<path d="M151,54h 4" fill="none" stroke="#000099"/>
<g stroke="black" stroke-width="1" fill="none">
<line x1="150" y1="54" x2="151" y2="54"/>
</g>
<path d="M159,87v -1" fill="none" stroke="#000099"/>
<path d="M159,86v -1" fill="none" stroke="#000099"/>
<path d="M155,86h 4" fill="none" stroke="#000099"/>
<path d="M159,86h 4" fill="none" stroke="#000099"/>
<g stroke="black" stroke-width="1" fill="none">
<line x1="158" y1="86" x2="159" y2="86"/>
</g>
<path d="M166,146v -1" fill="none" stroke="#000099"/>
<path d="M166,145v -1" fill="none" stroke="#000099"/>
<path d="M163,145h 3" fill="none" stroke="#000099"/>
<path d="M166,145h 4" fill="none" stroke="#000099"/>
<g stroke="black" stroke-width="1" fill="none">
<line x1="165" y1="145" x2="166" y2="145"/>
</g>
<path d="M174,196" fill="none" stroke="#000099"/>
<path d="M174,196v -1" fill="none" stroke="#000099"/>
<path d="M170,196h 4" fill="none" stroke="#000099"/>
<path d="M174,196h 4" fill="none" stroke="#000099"/>
<g stroke="black" stroke-width="1" fill="none">
<line x1="173" y1="196" x2="174" y2="196"/>
</g>
<path d="M181,236" fill="none" stroke="#000099"/>
<path d="M181,236v -1" fill="none" stroke="#000099"/>
<path d="M178,236h 3" fill="none" stroke="#000099"/>
<path d="M181,236h 4" fill="none" stroke="#000099"/>
<g stroke="black" stroke-width="1" fill="none">
<line x1="180" y1="236" x2="181" y2="236"/>
</g>
<path d="M189,266" fill="none" stroke="#000099"/>
<path d="M189,266v -1" fill="none" stroke="#000099"/>
<path d="M185,266h 4" fill="none" stroke="#000099"/>
<path d="M189,266h 4" fill="none" stroke="#000099"/>
<g stroke="black" stroke-width="1" fill="none">
<line x1="188" y1="266" x2="189" y2="266"/>
</g>
<path d="M197,288" fill="none" stroke="#000099"/>
<path d="M197,288v -1" fill="none" stroke="#000099"/>
<path d="M193,288h 4" fill="none" stroke="#000099"/>
<path d="M197,288h 3" fill="none" stroke="#000099"/>
<g stroke="black" stroke-width="1" fill="none">
<line x1="196" y1="288" x2="197" y2="288"/>
</g>
<path d="M204,304v -1" fill="none" stroke="#000099"/>
<path d="M204,303" fill="none" stroke="#000099"/>
<path d="M200,303h 4" fill="none" stroke="#000099"/>
<path d="M204,303h 4" fill="none" stroke="#000099"/>
<g stroke="black" stroke-width="1" fill="none">
<line x1="203" y1="303" x2="204" y2="303"/>
</g>
<path d="M212,315" fill="none" stroke="#000099"/>
<path d="M212,315v -1" fill="none" stroke="#000099"/>
<path d="M208,315h 4" fill="none" stroke="#000099"/>
<path d="M212,315h 3" fill="none" stroke="#000099"/>
<g stroke="black" stroke-width="1" fill="none">
<line x1="211" y1="315" x2="212" y2="315"/>
</g>
<path d="M219,323v -1" fill="none" stroke="#000099"/>
<path d="M219,322" fill="none" stroke="#000099"/>
<path d="M215,322h 4" fill="none" stroke="#000099"/>
<path d="M219,322h 4" fill="none" stroke="#000099"/>
<g stroke="black" stroke-width="1" fill="none">
<line x1="218" y1="322" x2="219" y2="322"/>
</g>
<path d="M227,328" fill="none" stroke="#000099"/>
<path d="M227,328" fill="none" stroke="#000099"/>
<path d="M223,328h 4" fill="none" stroke="#000099"/>
<path d="M227,328h 4" fill="none" stroke="#000099"/>
<g stroke="black" stroke-width="1" fill="none">
<line x1="226" y1="328" x2="227" y2="328"/>
</g>
<path d="M234,333" fill="none" stroke="#000099"/>
<path d="M234,333" fill="none" stroke="#000099"/>
<path d="M231,333h 3" fill="none" stroke="#000099"/>
<path d="M234,333h 4" fill="none" stroke="#000099"/>
<g stroke="black" stroke-width="1" fill="none">
<line x1="233" y1="333" x2="234" y2="333"/>
</g>
<path d="M242,337" fill="none" stroke="#000099"/>
<path d="M242,337v -1" fill="none" stroke="#000099"/>
<path d="M238,337h 4" fill="none" stroke="#000099"/>
<path d="M242,337h 4" fill="none" stroke="#000099"/>
<g stroke="black" stroke-width="1" fill="none">
<line x1="241" y1="337" x2="242" y2="337"/>
</g>
<path d="M249,339" fill="none" stroke="#000099"/>
<path d="M249,339" fill="none" stroke="#000099"/>
<path d="M246,339h 3" fill="none" stroke="#000099"/>
<path d="M249,339h 4" fill="none" stroke="#000099"/>
<g stroke="black" stroke-width="1" fill="none">
<line x1="248" y1="339" x2="249" y2="339"/>
</g>
<path d="M257,341" fill="none" stroke="#000099"/>
<path d="M257,341" fill="none" stroke="#000099"/>
<path d="M253,341h 4" fill="none" stroke="#000099"/>
<path d="M257,341h 4" fill="none" stroke="#000099"/>
<g stroke="black" stroke-width="1" fill="none">
<line x1="256" y1="341" x2="257" y2="341"/>
</g>
<path d="M265,343v -1" fill="none" stroke="#000099"/>
<path d="M265,342" fill="none" stroke="#000099"/>
<path d="M261,342h 4" fill="none" stroke="#000099"/>
<path d="M265,342h 3" fill="none" stroke="#000099"/>
<g stroke="black" stroke-width="1" fill="none">
<line x1="264" y1="342" x2="265" y2="342"/>
</g>
<path d="M272,344" fill="none" stroke="#000099"/>
<path d="M272,344v -1" fill="none" stroke="#000099"/>
<path d="M268,344h 4" fill="none" stroke="#000099"/>
<path d="M272,344h 4" fill="none" stroke="#000099"/>
<g stroke="black" stroke-width="1" fill="none">
<line x1="271" y1="344" x2="272" y2="344"/>
</g>
<path d="M280,345" fill="none" stroke="#000099"/>
<path d="M280,345v -1" fill="none" stroke="#000099"/>
<path d="M276,345h 4" fill="none" stroke="#000099"/>
<path d="M280,345h 3" fill="none" stroke="#000099"/>
<g stroke="black" stroke-width="1" fill="none">
<line x1="279" y1="345" x2="280" y2="345"/>
</g>
<path d="M287,345" fill="none" stroke="#000099"/>
<path d="M287,345" fill="none" stroke="#000099"/>
<path d="M283,345h 4" fill="none" stroke="#000099"/>
<path d="M287,345h 4" fill="none" stroke="#000099"/>
<g stroke="black" stroke-width="1" fill="none">
<line x1="286" y1="345" x2="287" y2="345"/>
</g>
<path d="M295,346" fill="none" stroke="#000099"/>
<path d="M295,346v -1" fill="none" stroke="#000099"/>
<path d="M291,346h 4" fill="none" stroke="#000099"/>
<path d="M295,346h 4" fill="none" stroke="#000099"/>
<g stroke="black" stroke-width="1" fill="none">
<line x1="294" y1="346" x2="295" y2="346"/>
</g>
<path d="M302,346" fill="none" stroke="#000099"/>
<path d="M302,346" fill="none" stroke="#000099"/>
<path d="M299,346h 3" fill="none" stroke="#000099"/>
<path d="M302,346h 4" fill="none" stroke="#000099"/>
<g stroke="black" stroke-width="1" fill="none">
<line x1="301" y1="346" x2="302" y2="346"/>
</g>
<path d="M310,346" fill="none" stroke="#000099"/>
<path d="M310,346" fill="none" stroke="#000099"/>
<path d="M306,346h 4" fill="none" stroke="#000099"/>
<path d="M310,346h 4" fill="none" stroke="#000099"/>
<g stroke="black" stroke-width="1" fill="none">
<line x1="309" y1="346" x2="310" y2="346"/>
</g>
<path d="M317,346" fill="none" stroke="#000099"/>
<path d="M317,346" fill="none" stroke="#000099"/>
<path d="M314,346h 3" fill="none" stroke="#000099"/>
<path d="M317,346h 4" fill="none" stroke="#000099"/>
<g stroke="black" stroke-width="1" fill="none">
<line x1="316" y1="346" x2="317" y2="346"/>
</g>
<path d="M325,347" fill="none" stroke="#000099"/>
<path d="M325,347" fill="none" stroke="#000099"/>
<path d="M321,347h 4" fill="none" stroke="#000099"/>
<path d="M325,347h 4" fill="none" stroke="#000099"/>
<g stroke="black" stroke-width="1" fill="none">
<line x1="324" y1="347" x2="325" y2="347"/>
</g>
<path d="M333,347" fill="none" stroke="#000099"/>
<path d="M333,347" fill="none" stroke="#000099"/>
<path d="M329,347h 4" fill="none" stroke="#000099"/>
<path d="M333,347h 3" fill="none" stroke="#000099"/>
<g stroke="black" stroke-width="1" fill="none">
<line x1="332" y1="347" x2="333" y2="347"/>
</g>
<path d="M340,347" fill="none" stroke="#000099"/>
<path d="M340,347" fill="none" stroke="#000099"/>
<path d="M336,347h 4" fill="none" stroke="#000099"/>
<path d="M340,347h 4" fill="none" stroke="#000099"/>
<g stroke="black" stroke-width="1" fill="none">
<line x1="339" y1="347" x2="340" y2="347"/>
</g>
<path d="M348,347" fill="none" stroke="#000099"/>
<path d="M348,347" fill="none" stroke="#000099"/>
<path d="M344,347h 4" fill="none" stroke="#000099"/>
<path d="M348,347h 3" fill="none" stroke="#000099"/>
<g stroke="black" stroke-width="1" fill="none">
<line x1="347" y1="347" x2="348" y2="347"/>
</g>
<path d="M355,347" fill="none" stroke="#000099"/>
<path d="M355,347" fill="none" stroke="#000099"/>
<path d="M351,347h 4" fill="none" stroke="#000099"/>
<path d="M355,347h 4" fill="none" stroke="#000099"/>
<g stroke="black" stroke-width="1" fill="none">
<line x1="354" y1="347" x2="355" y2="347"/>
</g>
<path d="M363,347" fill="none" stroke="#000099"/>
<path d="M363,347" fill="none" stroke="#000099"/>
<path d="M359,347h 4" fill="none" stroke="#000099"/>
<path d="M363,347h 4" fill="none" stroke="#000099"/>
<g stroke="black" stroke-width="1" fill="none">
<line x1="362" y1="347" x2="363" y2="347"/>
</g>
<path d="M370,347" fill="none" stroke="#000099"/>
<path d="M370,347" fill="none" stroke="#000099"/>
<path d="M367,347h 3" fill="none" stroke="#000099"/>
<path d="M370,347h 4" fill="none" stroke="#000099"/>
<g stroke="black" stroke-width="1" fill="none">
<line x1="369" y1="347" x2="370" y2="347"/>
</g>
<path d="M378,347" fill="none" stroke="#000099"/>
<path d="M378,347" fill="none" stroke="#000099"/>
<path d="M374,347h 4" fill="none" stroke="#000099"/>
<path d="M378,347h 4" fill="none" stroke="#000099"/>
<g stroke="black" stroke-width="1" fill="none">
<line x1="377" y1="347" x2="378" y2="347"/>
</g>
<path d="M386,347" fill="none" stroke="#000099"/>
<path d="M386,347" fill="none" stroke="#000099"/>
<path d="M382,347h 4" fill="none" stroke="#000099"/>
<path d="M386,347h 3" fill="none" stroke="#000099"/>
<g stroke="black" stroke-width="1" fill="none">
<line x1="385" y1="347" x2="386" y2="347"/>
</g>
<path d="M393,347" fill="none" stroke="#000099"/>
<path d="M393,347" fill="none" stroke="#000099"/>
<path d="M389,347h 4" fill="none" stroke="#000099"/>
<path d="M393,347h 4" fill="none" stroke="#000099"/>
<g stroke="black" stroke-width="1" fill="none">
<line x1="392" y1="347" x2="393" y2="347"/>
</g>
<path d="M401,347" fill="none" stroke="#000099"/>
<path d="M401,347" fill="none" stroke="#000099"/>
<path d="M397,347h 4" fill="none" stroke="#000099"/>
<path d="M401,347h 3" fill="none" stroke="#000099"/>
<g stroke="black" stroke-width="1" fill="none">
<line x1="400" y1="347" x2="401" y2="347"/>
</g>
<path d="M408,347" fill="none" stroke="#000099"/>
<path d="M408,347" fill="none" stroke="#000099"/>
<path d="M404,347h 4" fill="none" stroke="#000099"/>
<path d="M408,347h 4" fill="none" stroke="#000099"/>
<g stroke="black" stroke-width="1" fill="none">
<line x1="407" y1="347" x2="408" y2="347"/>
</g>
<path d="M416,347" fill="none" stroke="#000099"/>
<path d="M416,347" fill="none" stroke="#000099"/>
<path d="M412,347h 4" fill="none" stroke="#000099"/>
<path d="M416,347h 4" fill="none" stroke="#000099"/>
<g stroke="black" stroke-width="1" fill="none">
<line x1="415" y1="347" x2="416" y2="347"/>
</g>
<path d="M423,347" fill="none" stroke="#000099"/>
<path d="M423,347" fill="none" stroke="#000099"/>
<path d="M420,347h 3" fill="none" stroke="#000099"/>
<path d="M423,347h 4" fill="none" stroke="#000099"/>
<g stroke="black" stroke-width="1" fill="none">
<line x1="422" y1="347" x2="423" y2="347"/>
</g>
<path d="M431,347" fill="none" stroke="#000099"/>
<path d="M431,347" fill="none" stroke="#000099"/>
<path d="M427,347h 4" fill="none" stroke="#000099"/>
<path d="M431,347h 4" fill="none" stroke="#000099"/>
<g stroke="black" stroke-width="1" fill="none">
<line x1="430" y1="347" x2="431" y2="347"/>
</g>
<path d="M438,347" fill="none" stroke="#000099"/>
<path d="M438,347" fill="none" stroke="#000099"/>
<path d="M435,347h 3" fill="none" stroke="#000099"/>
<path d="M438,347h 4" fill="none" stroke="#000099"/>
<g stroke="black" stroke-width="1" fill="none">
<line x1="437" y1="347" x2="438" y2="347"/>
</g>
<path d="M446,347" fill="none" stroke="#000099"/>
<path d="M446,347" fill="none" stroke="#000099"/>
<path d="M442,347h 4" fill="none" stroke="#000099"/>
<path d="M446,347h 4" fill="none" stroke="#000099"/>
<g stroke="black" stroke-width="1" fill="none">
<line x1="445" y1="347" x2="446" y2="347"/>
</g>
<path d="M454,347" fill="none" stroke="#000099"/>
<path d="M454,347" fill="none" stroke="#000099"/>
<path d="M450,347h 4" fill="none" stroke="#000099"/>
<path d="M454,347h 3" fill="none" stroke="#000099"/>
<g stroke="black" stroke-width="1" fill="none">
<line x1="453" y1="347" x2="454" y2="347"/>
</g>
<path d="M461,347" fill="none" stroke="#000099"/>
<path d="M461,347" fill="none" stroke="#000099"/>
<path d="M457,347h 4" fill="none" stroke="#000099"/>
<path d="M461,347h 4" fill="none" stroke="#000099"/>
<g stroke="black" stroke-width="1" fill="none">
<line x1="460" y1="347" x2="461" y2="347"/>
</g>
<path d="M469,347" fill="none" stroke="#000099"/>
<path d="M469,347" fill="none" stroke="#000099"/>
<path d="M465,347h 4" fill="none" stroke="#000099"/>
<path d="M469,347h 3" fill="none" stroke="#000099"/>
<g stroke="black" stroke-width="1" fill="none">
<line x1="468" y1="347" x2="469" y2="347"/>
</g>
<path d="M476,347" fill="none" stroke="#000099"/>
<path d="M476,347" fill="none" stroke="#000099"/>
<path d="M472,347h 4" fill="none" stroke="#000099"/>
<path d="M476,347h 4" fill="none" stroke="#000099"/>
<g stroke="black" stroke-width="1" fill="none">
<line x1="475" y1="347" x2="476" y2="347"/>
</g>
<path d="M484,347" fill="none" stroke="#000099"/>
<path d="M484,347" fill="none" stroke="#000099"/>
<path d="M480,347h 4" fill="none" stroke="#000099"/>
<path d="M484,347h 4" fill="none" stroke="#000099"/>
<g stroke="black" stroke-width="1" fill="none">
<line x1="483" y1="347" x2="484" y2="347"/>
</g>
<path d="M491,347" fill="none" stroke="#000099"/>
<path d="M491,347" fill="none" stroke="#000099"/>
<path d="M488,347h 3" fill="none" stroke="#000099"/>
<path d="M491,347h 4" fill="none" stroke="#000099"/>
<g stroke="black" stroke-width="1" fill="none">
<line x1="490" y1="347" x2="491" y2="347"/>
</g>
<path d="M499,347" fill="none" stroke="#000099"/>
<path d="M499,347" fill="none" stroke="#000099"/>
<path d="M495,347h 4" fill="none" stroke="#000099"/>
<path d="M499,347h 4" fill="none" stroke="#000099"/>
<g stroke="black" stroke-width="1" fill="none">
<line x1="498" y1="347" x2="499" y2="347"/>
</g>
<path d="M506,347" fill="none" stroke="#000099"/>
<path d="M506,347" fill="none" stroke="#000099"/>
<path d="M503,347h 3" fill="none" stroke="#000099"/>
<path d="M506,347h 4" fill="none" stroke="#000099"/>
<g stroke="black" stroke-width="1" fill="none">
<line x1="505" y1="347" x2="506" y2="347"/>
</g>
<path d="M57,347h 453" fill="none" stroke="black"/>
<text x="477" y="374" fill="black" font-size="12" font-family="Helvetica">
R=0.3
</text>
<text x="469" y="374" fill="black" font-size="12" font-family="Times">
&#0916;
</text>
<text x="375" y="374" fill="black" font-size="12" font-family="Helvetica">
combined iso PF 
</text>
<path d="M79,338v 9" fill="none" stroke="black"/>
<path d="M91,343v 4" fill="none" stroke="black"/>
<path d="M102,343v 4" fill="none" stroke="black"/>
<path d="M113,343v 4" fill="none" stroke="black"/>
<path d="M125,338v 9" fill="none" stroke="black"/>
<path d="M136,343v 4" fill="none" stroke="black"/>
<path d="M147,343v 4" fill="none" stroke="black"/>
<path d="M159,343v 4" fill="none" stroke="black"/>
<path d="M170,338v 9" fill="none" stroke="black"/>
<path d="M181,343v 4" fill="none" stroke="black"/>
<path d="M193,343v 4" fill="none" stroke="black"/>
<path d="M204,343v 4" fill="none" stroke="black"/>
<path d="M215,338v 9" fill="none" stroke="black"/>
<path d="M227,343v 4" fill="none" stroke="black"/>
<path d="M238,343v 4" fill="none" stroke="black"/>
<path d="M249,343v 4" fill="none" stroke="black"/>
<path d="M261,338v 9" fill="none" stroke="black"/>
<path d="M272,343v 4" fill="none" stroke="black"/>
<path d="M283,343v 4" fill="none" stroke="black"/>
<path d="M295,343v 4" fill="none" stroke="black"/>
<path d="M306,338v 9" fill="none" stroke="black"/>
<path d="M317,343v 4" fill="none" stroke="black"/>
<path d="M329,343v 4" fill="none" stroke="black"/>
<path d="M340,343v 4" fill="none" stroke="black"/>
<path d="M351,338v 9" fill="none" stroke="black"/>
<path d="M363,343v 4" fill="none" stroke="black"/>
<path d="M374,343v 4" fill="none" stroke="black"/>
<path d="M386,343v 4" fill="none" stroke="black"/>
<path d="M397,338v 9" fill="none" stroke="black"/>
<path d="M408,343v 4" fill="none" stroke="black"/>
<path d="M420,343v 4" fill="none" stroke="black"/>
<path d="M431,343v 4" fill="none" stroke="black"/>
<path d="M442,338v 9" fill="none" stroke="black"/>
<path d="M454,343v 4" fill="none" stroke="black"/>
<path d="M465,343v 4" fill="none" stroke="black"/>
<path d="M476,343v 4" fill="none" stroke="black"/>
<path d="M488,338v 9" fill="none" stroke="black"/>
<path d="M79,338v 9" fill="none" stroke="black"/>
<path d="M68,343v 4" fill="none" stroke="black"/>
<path d="M57,343v 4" fill="none" stroke="black"/>
<path d="M488,338v 9" fill="none" stroke="black"/>
<path d="M499,343v 4" fill="none" stroke="black"/>
<text x="73" y="360" fill="black" font-size="12" font-family="Helvetica">
-4
</text>
<text x="119" y="360" fill="black" font-size="12" font-family="Helvetica">
-2
</text>
<text x="166" y="360" fill="black" font-size="12" font-family="Helvetica">
0
</text>
<text x="212" y="360" fill="black" font-size="12" font-family="Helvetica">
2
</text>
<text x="257" y="360" fill="black" font-size="12" font-family="Helvetica">
4
</text>
<text x="302" y="360" fill="black" font-size="12" font-family="Helvetica">
6
</text>
<text x="348" y="360" fill="black" font-size="12" font-family="Helvetica">
8
</text>
<text x="390" y="360" fill="black" font-size="12" font-family="Helvetica">
10
</text>
<text x="435" y="360" fill="black" font-size="12" font-family="Helvetica">
12
</text>
<text x="481" y="360" fill="black" font-size="12" font-family="Helvetica">
14
</text>
<path d="M57,347v -308" fill="none" stroke="black"/>
<path d="M70,347h -13" fill="none" stroke="black"/>
<path d="M63,335h -6" fill="none" stroke="black"/>
<path d="M63,323h -6" fill="none" stroke="black"/>
<path d="M63,311h -6" fill="none" stroke="black"/>
<path d="M70,299h -13" fill="none" stroke="black"/>
<path d="M63,287h -6" fill="none" stroke="black"/>
<path d="M63,275h -6" fill="none" stroke="black"/>
<path d="M63,263h -6" fill="none" stroke="black"/>
<path d="M70,251h -13" fill="none" stroke="black"/>
<path d="M63,239h -6" fill="none" stroke="black"/>
<path d="M63,227h -6" fill="none" stroke="black"/>
<path d="M63,215h -6" fill="none" stroke="black"/>
<path d="M70,203h -13" fill="none" stroke="black"/>
<path d="M63,191h -6" fill="none" stroke="black"/>
<path d="M63,179h -6" fill="none" stroke="black"/>
<path d="M63,167h -6" fill="none" stroke="black"/>
<path d="M70,155h -13" fill="none" stroke="black"/>
<path d="M63,143h -6" fill="none" stroke="black"/>
<path d="M63,131h -6" fill="none" stroke="black"/>
<path d="M63,119h -6" fill="none" stroke="black"/>
<path d="M70,107h -13" fill="none" stroke="black"/>
<path d="M63,95h -6" fill="none" stroke="black"/>
<path d="M63,82h -6" fill="none" stroke="black"/>
<path d="M63,70h -6" fill="none" stroke="black"/>
<path d="M70,58h -13" fill="none" stroke="black"/>
<path d="M70,58h -13" fill="none" stroke="black"/>
<path d="M63,46h -6" fill="none" stroke="black"/>
<text x="47" y="352" fill="black" font-size="12" font-family="Helvetica">
0
</text>
<text x="30" y="304" fill="black" font-size="12" font-family="Helvetica">
0.02
</text>
<text x="30" y="256" fill="black" font-size="12" font-family="Helvetica">
0.04
</text>
<text x="30" y="208" fill="black" font-size="12" font-family="Helvetica">
0.06
</text>
<text x="30" y="160" fill="black" font-size="12" font-family="Helvetica">
0.08
</text>
<text x="38" y="111" fill="black" font-size="12" font-family="Helvetica">
0.1
</text>
<text x="30" y="63" fill="black" font-size="12" font-family="Helvetica">
0.12
</text>
<text x="99" y="16" fill="black" font-size="9" font-family="Helvetica">
probe_combinedPfIso03 {probe_mvaId&gt;0.83548 &amp;&amp; TMath::Abs(probe_eta)&lt;1.4442}
</text>
<path d="M60,347" fill="none" stroke="#ff0099"/>
<path d="M60,347v -1" fill="none" stroke="#ff0099"/>
<path d="M57,347h 3" fill="none" stroke="#ff0099"/>
<path d="M60,347h 4" fill="none" stroke="#ff0099"/>
<g stroke="black" stroke-width="1" fill="none">
<line x1="59" y1="347" x2="60" y2="347"/>
</g>
<path d="M68,344v -1" fill="none" stroke="#ff0099"/>
<path d="M68,343v -2" fill="none" stroke="#ff0099"/>
<path d="M64,343h 4" fill="none" stroke="#ff0099"/>
<path d="M68,343h 4" fill="none" stroke="#ff0099"/>
<g stroke="black" stroke-width="1" fill="none">
<line x1="67" y1="343" x2="68" y2="343"/>
</g>
<path d="M76,343v -1" fill="none" stroke="#ff0099"/>
<path d="M76,342v -2" fill="none" stroke="#ff0099"/>
<path d="M72,342h 4" fill="none" stroke="#ff0099"/>
<path d="M76,342h 3" fill="none" stroke="#ff0099"/>
<g stroke="black" stroke-width="1" fill="none">
<line x1="75" y1="342" x2="76" y2="342"/>
</g>
<path d="M83,330v -3" fill="none" stroke="#ff0099"/>
<path d="M83,327v -2" fill="none" stroke="#ff0099"/>
<path d="M79,327h 4" fill="none" stroke="#ff0099"/>
<path d="M83,327h 4" fill="none" stroke="#ff0099"/>
<g stroke="black" stroke-width="1" fill="none">
<line x1="82" y1="327" x2="83" y2="327"/>
</g>
<path d="M91,322v -4" fill="none" stroke="#ff0099"/>
<path d="M91,318v -3" fill="none" stroke="#ff0099"/>
<path d="M87,318h 4" fill="none" stroke="#ff0099"/>
<path d="M91,318h 3" fill="none" stroke="#ff0099"/>
<g stroke="black" stroke-width="1" fill="none">
<line x1="90" y1="318" x2="91" y2="318"/>
</g>
<path d="M98,311v -4" fill="none" stroke="#ff0099"/>
<path d="M98,307v -4" fill="none" stroke="#ff0099"/>
<path d="M94,307h 4" fill="none" stroke="#ff0099"/>
<path d="M98,307h 4" fill="none" stroke="#ff0099"/>
<g stroke="black" stroke-width="1" fill="none">
<line x1="97" y1="307" x2="98" y2="307"/>
</g>
<path d="M106,293v -5" fill="none" stroke="#ff0099"/>
<path d="M106,288v -5" fill="none" stroke="#ff0099"/>
<path d="M102,288h 4" fill="none" stroke="#ff0099"/>
<path d="M106,288h 4" fill="none" stroke="#ff0099"/>
<g stroke="black" stroke-width="1" fill="none">
<line x1="105" y1="288" x2="106" y2="288"/>
</g>
<path d="M113,261v -6" fill="none" stroke="#ff0099"/>
<path d="M113,255v -6" fill="none" stroke="#ff0099"/>
<path d="M110,255h 3" fill="none" stroke="#ff0099"/>
<path d="M113,255h 4" fill="none" stroke="#ff0099"/>
<g stroke="black" stroke-width="1" fill="none">
<line x1="112" y1="255" x2="113" y2="255"/>
</g>
<path d="M121,224v -7" fill="none" stroke="#ff0099"/>
<path d="M121,217v -7" fill="none" stroke="#ff0099"/>
<path d="M117,217h 4" fill="none" stroke="#ff0099"/>
<path d="M121,217h 4" fill="none" stroke="#ff0099"/>
<g stroke="black" stroke-width="1" fill="none">
<line x1="120" y1="217" x2="121" y2="217"/>
</g>
<path d="M129,176v -8" fill="none" stroke="#ff0099"/>
<path d="M129,168v -9" fill="none" stroke="#ff0099"/>
<path d="M125,168h 4" fill="none" stroke="#ff0099"/>
<path d="M129,168h 3" fill="none" stroke="#ff0099"/>
<g stroke="black" stroke-width="1" fill="none">
<line x1="128" y1="168" x2="129" y2="168"/>
</g>
<path d="M136,113v -10" fill="none" stroke="#ff0099"/>
<path d="M136,103v -9" fill="none" stroke="#ff0099"/>
<path d="M132,103h 4" fill="none" stroke="#ff0099"/>
<path d="M136,103h 4" fill="none" stroke="#ff0099"/>
<g stroke="black" stroke-width="1" fill="none">
<line x1="135" y1="103" x2="136" y2="103"/>
</g>
<path d="M144,116v -10" fill="none" stroke="#ff0099"/>
<path d="M144,106v -9" fill="none" stroke="#ff0099"/>
<path d="M140,106h 4" fill="none" stroke="#ff0099"/>
<path d="M144,106h 3" fill="none" stroke="#ff0099"/>
<g stroke="black" stroke-width="1" fill="none">
<line x1="143" y1="106" x2="144" y2="106"/>
</g>
<path d="M151,85v -10" fill="none" stroke="#ff0099"/>
<path d="M151,75v -10" fill="none" stroke="#ff0099"/>
<path d="M147,75h 4" fill="none" stroke="#ff0099"/>
<path d="M151,75h 4" fill="none" stroke="#ff0099"/>
<g stroke="black" stroke-width="1" fill="none">
<line x1="150" y1="75" x2="151" y2="75"/>
</g>
<path d="M159,122v -9" fill="none" stroke="#ff0099"/>
<path d="M159,113v -9" fill="none" stroke="#ff0099"/>
<path d="M155,113h 4" fill="none" stroke="#ff0099"/>
<path d="M159,113h 4" fill="none" stroke="#ff0099"/>
<g stroke="black" stroke-width="1" fill="none">
<line x1="158" y1="113" x2="159" y2="113"/>
</g>
<path d="M166,167v -8" fill="none" stroke="#ff0099"/>
<path d="M166,159v -8" fill="none" stroke="#ff0099"/>
<path d="M163,159h 3" fill="none" stroke="#ff0099"/>
<path d="M166,159h 4" fill="none" stroke="#ff0099"/>
<g stroke="black" stroke-width="1" fill="none">
<line x1="165" y1="159" x2="166" y2="159"/>
</g>
<path d="M174,205v -7" fill="none" stroke="#ff0099"/>
<path d="M174,198v -8" fill="none" stroke="#ff0099"/>
<path d="M170,198h 4" fill="none" stroke="#ff0099"/>
<path d="M174,198h 4" fill="none" stroke="#ff0099"/>
<g stroke="black" stroke-width="1" fill="none">
<line x1="173" y1="198" x2="174" y2="198"/>
</g>
<path d="M181,243v -6" fill="none" stroke="#ff0099"/>
<path d="M181,237v -6" fill="none" stroke="#ff0099"/>
<path d="M178,237h 3" fill="none" stroke="#ff0099"/>
<path d="M181,237h 4" fill="none" stroke="#ff0099"/>
<g stroke="black" stroke-width="1" fill="none">
<line x1="180" y1="237" x2="181" y2="237"/>
</g>
<path d="M189,261v -6" fill="none" stroke="#ff0099"/>
<path d="M189,255v -6" fill="none" stroke="#ff0099"/>
<path d="M185,255h 4" fill="none" stroke="#ff0099"/>
<path d="M189,255h 4" fill="none" stroke="#ff0099"/>
<g stroke="black" stroke-width="1" fill="none">
<line x1="188" y1="255" x2="189" y2="255"/>
</g>
<path d="M197,289v -5" fill="none" stroke="#ff0099"/>
<path d="M197,284v -4" fill="none" stroke="#ff0099"/>
<path d="M193,284h 4" fill="none" stroke="#ff0099"/>
<path d="M197,284h 3" fill="none" stroke="#ff0099"/>
<g stroke="black" stroke-width="1" fill="none">
<line x1="196" y1="284" x2="197" y2="284"/>
</g>
<path d="M204,305v -4" fill="none" stroke="#ff0099"/>
<path d="M204,301v -4" fill="none" stroke="#ff0099"/>
<path d="M200,301h 4" fill="none" stroke="#ff0099"/>
<path d="M204,301h 4" fill="none" stroke="#ff0099"/>
<g stroke="black" stroke-width="1" fill="none">
<line x1="203" y1="301" x2="204" y2="301"/>
</g>
<path d="M212,312v -4" fill="none" stroke="#ff0099"/>
<path d="M212,308v -4" fill="none" stroke="#ff0099"/>
<path d="M208,308h 4" fill="none" stroke="#ff0099"/>
<path d="M212,308h 3" fill="none" stroke="#ff0099"/>
<g stroke="black" stroke-width="1" fill="none">
<line x1="211" y1="308" x2="212" y2="308"/>
</g>
<path d="M219,319v -3" fill="none" stroke="#ff0099"/>
<path d="M219,316v -4" fill="none" stroke="#ff0099"/>
<path d="M215,316h 4" fill="none" stroke="#ff0099"/>
<path d="M219,316h 4" fill="none" stroke="#ff0099"/>
<g stroke="black" stroke-width="1" fill="none">
<line x1="218" y1="316" x2="219" y2="316"/>
</g>
<path d="M227,329v -2" fill="none" stroke="#ff0099"/>
<path d="M227,327v -3" fill="none" stroke="#ff0099"/>
<path d="M223,327h 4" fill="none" stroke="#ff0099"/>
<path d="M227,327h 4" fill="none" stroke="#ff0099"/>
<g stroke="black" stroke-width="1" fill="none">
<line x1="226" y1="327" x2="227" y2="327"/>
</g>
<path d="M234,330v -2" fill="none" stroke="#ff0099"/>
<path d="M234,328v -3" fill="none" stroke="#ff0099"/>
<path d="M231,328h 3" fill="none" stroke="#ff0099"/>
<path d="M234,328h 4" fill="none" stroke="#ff0099"/>
<g stroke="black" stroke-width="1" fill="none">
<line x1="233" y1="328" x2="234" y2="328"/>
</g>
<path d="M242,334v -3" fill="none" stroke="#ff0099"/>
<path d="M242,331v -2" fill="none" stroke="#ff0099"/>
<path d="M238,331h 4" fill="none" stroke="#ff0099"/>
<path d="M242,331h 4" fill="none" stroke="#ff0099"/>
<g stroke="black" stroke-width="1" fill="none">
<line x1="241" y1="331" x2="242" y2="331"/>
</g>
<path d="M249,337v -2" fill="none" stroke="#ff0099"/>
<path d="M249,335v -2" fill="none" stroke="#ff0099"/>
<path d="M246,335h 3" fill="none" stroke="#ff0099"/>
<path d="M249,335h 4" fill="none" stroke="#ff0099"/>
<g stroke="black" stroke-width="1" fill="none">
<line x1="248" y1="335" x2="249" y2="335"/>
</g>
<path d="M257,341v -2" fill="none" stroke="#ff0099"/>
<path d="M257,339v -1" fill="none" stroke="#ff0099"/>
<path d="M253,339h 4" fill="none" stroke="#ff0099"/>
<path d="M257,339h 4" fill="none" stroke="#ff0099"/>
<g stroke="black" stroke-width="1" fill="none">
<line x1="256" y1="339" x2="257" y2="339"/>
</g>
<path d="M265,341v -2" fill="none" stroke="#ff0099"/>
<path d="M265,339v -1" fill="none" stroke="#ff0099"/>
<path d="M261,339h 4" fill="none" stroke="#ff0099"/>
<path d="M265,339h 3" fill="none" stroke="#ff0099"/>
<g stroke="black" stroke-width="1" fill="none">
<line x1="264" y1="339" x2="265" y2="339"/>
</g>
<path d="M272,342v -1" fill="none" stroke="#ff0099"/>
<path d="M272,341v -2" fill="none" stroke="#ff0099"/>
<path d="M268,341h 4" fill="none" stroke="#ff0099"/>
<path d="M272,341h 4" fill="none" stroke="#ff0099"/>
<g stroke="black" stroke-width="1" fill="none">
<line x1="271" y1="341" x2="272" y2="341"/>
</g>
<path d="M280,341v -2" fill="none" stroke="#ff0099"/>
<path d="M280,339v -2" fill="none" stroke="#ff0099"/>
<path d="M276,339h 4" fill="none" stroke="#ff0099"/>
<path d="M280,339h 3" fill="none" stroke="#ff0099"/>
<g stroke="black" stroke-width="1" fill="none">
<line x1="279" y1="339" x2="280" y2="339"/>
</g>
<path d="M287,346" fill="none" stroke="#ff0099"/>
<path d="M287,346v -1" fill="none" stroke="#ff0099"/>
<path d="M283,346h 4" fill="none" stroke="#ff0099"/>
<path d="M287,346h 4" fill="none" stroke="#ff0099"/>
<g stroke="black" stroke-width="1" fill="none">
<line x1="286" y1="346" x2="287" y2="346"/>
</g>
<path d="M295,346v -1" fill="none" stroke="#ff0099"/>
<path d="M295,345v -1" fill="none" stroke="#ff0099"/>
<path d="M291,345h 4" fill="none" stroke="#ff0099"/>
<path d="M295,345h 4" fill="none" stroke="#ff0099"/>
<g stroke="black" stroke-width="1" fill="none">
<line x1="294" y1="345" x2="295" y2="345"/>
</g>
<path d="M302,343v -1" fill="none" stroke="#ff0099"/>
<path d="M302,342v -1" fill="none" stroke="#ff0099"/>
<path d="M299,342h 3" fill="none" stroke="#ff0099"/>
<path d="M302,342h 4" fill="none" stroke="#ff0099"/>
<g stroke="black" stroke-width="1" fill="none">
<line x1="301" y1="342" x2="302" y2="342"/>
</g>
<path d="M310,347v -1" fill="none" stroke="#ff0099"/>
<path d="M310,346" fill="none" stroke="#ff0099"/>
<path d="M306,346h 4" fill="none" stroke="#ff0099"/>
<path d="M310,346h 4" fill="none" stroke="#ff0099"/>
<g stroke="black" stroke-width="1" fill="none">
<line x1="309" y1="346" x2="310" y2="346"/>
</g>
<path d="M317,345v -2" fill="none" stroke="#ff0099"/>
<path d="M317,343v -1" fill="none" stroke="#ff0099"/>
<path d="M314,343h 3" fill="none" stroke="#ff0099"/>
<path d="M317,343h 4" fill="none" stroke="#ff0099"/>
<g stroke="black" stroke-width="1" fill="none">
<line x1="316" y1="343" x2="317" y2="343"/>
</g>
<path d="M325,346v -1" fill="none" stroke="#ff0099"/>
<path d="M325,345v -1" fill="none" stroke="#ff0099"/>
<path d="M321,345h 4" fill="none" stroke="#ff0099"/>
<path d="M325,345h 4" fill="none" stroke="#ff0099"/>
<g stroke="black" stroke-width="1" fill="none">
<line x1="324" y1="345" x2="325" y2="345"/>
</g>
<path d="M333,346v -2" fill="none" stroke="#ff0099"/>
<path d="M333,344v -1" fill="none" stroke="#ff0099"/>
<path d="M329,344h 4" fill="none" stroke="#ff0099"/>
<path d="M333,344h 3" fill="none" stroke="#ff0099"/>
<g stroke="black" stroke-width="1" fill="none">
<line x1="332" y1="344" x2="333" y2="344"/>
</g>
<path d="M340,346" fill="none" stroke="#ff0099"/>
<path d="M340,346v -1" fill="none" stroke="#ff0099"/>
<path d="M336,346h 4" fill="none" stroke="#ff0099"/>
<path d="M340,346h 4" fill="none" stroke="#ff0099"/>
<g stroke="black" stroke-width="1" fill="none">
<line x1="339" y1="346" x2="340" y2="346"/>
</g>
<path d="M348,347v -1" fill="none" stroke="#ff0099"/>
<path d="M348,346" fill="none" stroke="#ff0099"/>
<path d="M344,346h 4" fill="none" stroke="#ff0099"/>
<path d="M348,346h 3" fill="none" stroke="#ff0099"/>
<g stroke="black" stroke-width="1" fill="none">
<line x1="347" y1="346" x2="348" y2="346"/>
</g>
<path d="M355,347" fill="none" stroke="#ff0099"/>
<path d="M355,347v -1" fill="none" stroke="#ff0099"/>
<path d="M351,347h 4" fill="none" stroke="#ff0099"/>
<path d="M355,347h 4" fill="none" stroke="#ff0099"/>
<g stroke="black" stroke-width="1" fill="none">
<line x1="354" y1="347" x2="355" y2="347"/>
</g>
<path d="M363,347" fill="none" stroke="#ff0099"/>
<path d="M363,347v -1" fill="none" stroke="#ff0099"/>
<path d="M359,347h 4" fill="none" stroke="#ff0099"/>
<path d="M363,347h 4" fill="none" stroke="#ff0099"/>
<g stroke="black" stroke-width="1" fill="none">
<line x1="362" y1="347" x2="363" y2="347"/>
</g>
<path d="M370,347v -1" fill="none" stroke="#ff0099"/>
<path d="M370,346v -1" fill="none" stroke="#ff0099"/>
<path d="M367,346h 3" fill="none" stroke="#ff0099"/>
<path d="M370,346h 4" fill="none" stroke="#ff0099"/>
<g stroke="black" stroke-width="1" fill="none">
<line x1="369" y1="346" x2="370" y2="346"/>
</g>
<path d="M378,347v -1" fill="none" stroke="#ff0099"/>
<path d="M378,346v -1" fill="none" stroke="#ff0099"/>
<path d="M374,346h 4" fill="none" stroke="#ff0099"/>
<path d="M378,346h 4" fill="none" stroke="#ff0099"/>
<g stroke="black" stroke-width="1" fill="none">
<line x1="377" y1="346" x2="378" y2="346"/>
</g>
<path d="M386,347" fill="none" stroke="#ff0099"/>
<path d="M386,347" fill="none" stroke="#ff0099"/>
<path d="M382,347h 4" fill="none" stroke="#ff0099"/>
<path d="M386,347h 3" fill="none" stroke="#ff0099"/>
<g stroke="black" stroke-width="1" fill="none">
<line x1="385" y1="347" x2="386" y2="347"/>
</g>
<path d="M401,347v -1" fill="none" stroke="#ff0099"/>
<path d="M401,346" fill="none" stroke="#ff0099"/>
<path d="M397,346h 4" fill="none" stroke="#ff0099"/>
<path d="M401,346h 3" fill="none" stroke="#ff0099"/>
<g stroke="black" stroke-width="1" fill="none">
<line x1="400" y1="346" x2="401" y2="346"/>
</g>
<path d="M408,347" fill="none" stroke="#ff0099"/>
<path d="M408,347v -1" fill="none" stroke="#ff0099"/>
<path d="M404,347h 4" fill="none" stroke="#ff0099"/>
<path d="M408,347h 4" fill="none" stroke="#ff0099"/>
<g stroke="black" stroke-width="1" fill="none">
<line x1="407" y1="347" x2="408" y2="347"/>
</g>
<path d="M416,347" fill="none" stroke="#ff0099"/>
<path d="M416,347" fill="none" stroke="#ff0099"/>
<path d="M412,347h 4" fill="none" stroke="#ff0099"/>
<path d="M416,347h 4" fill="none" stroke="#ff0099"/>
<g stroke="black" stroke-width="1" fill="none">
<line x1="415" y1="347" x2="416" y2="347"/>
</g>
<path d="M423,347" fill="none" stroke="#ff0099"/>
<path d="M423,347" fill="none" stroke="#ff0099"/>
<path d="M420,347h 3" fill="none" stroke="#ff0099"/>
<path d="M423,347h 4" fill="none" stroke="#ff0099"/>
<g stroke="black" stroke-width="1" fill="none">
<line x1="422" y1="347" x2="423" y2="347"/>
</g>
<path d="M431,347v -1" fill="none" stroke="#ff0099"/>
<path d="M431,346v -1" fill="none" stroke="#ff0099"/>
<path d="M427,346h 4" fill="none" stroke="#ff0099"/>
<path d="M431,346h 4" fill="none" stroke="#ff0099"/>
<g stroke="black" stroke-width="1" fill="none">
<line x1="430" y1="346" x2="431" y2="346"/>
</g>
<path d="M446,347v -1" fill="none" stroke="#ff0099"/>
<path d="M446,346" fill="none" stroke="#ff0099"/>
<path d="M442,346h 4" fill="none" stroke="#ff0099"/>
<path d="M446,346h 4" fill="none" stroke="#ff0099"/>
<g stroke="black" stroke-width="1" fill="none">
<line x1="445" y1="346" x2="446" y2="346"/>
</g>
<path d="M469,347v -1" fill="none" stroke="#ff0099"/>
<path d="M469,346" fill="none" stroke="#ff0099"/>
<path d="M465,346h 4" fill="none" stroke="#ff0099"/>
<path d="M469,346h 3" fill="none" stroke="#ff0099"/>
<g stroke="black" stroke-width="1" fill="none">
<line x1="468" y1="346" x2="469" y2="346"/>
</g>
<path d="M499,347" fill="none" stroke="#ff0099"/>
<path d="M499,347" fill="none" stroke="#ff0099"/>
<path d="M495,347h 4" fill="none" stroke="#ff0099"/>
<path d="M499,347h 4" fill="none" stroke="#ff0099"/>
<g stroke="black" stroke-width="1" fill="none">
<line x1="498" y1="347" x2="499" y2="347"/>
</g>
<rect x="442" y="25" width="114" height="62" fill="white"/>
<path d="M442,87h 114" fill="none" stroke="black"/>
<path d="M556,87v -62" fill="none" stroke="black"/>
<path d="M556,25h -114" fill="none" stroke="black"/>
<path d="M442,25v 62" fill="none" stroke="black"/>
<text x="484" y="37" fill="black" font-size="13" font-family="Helvetica">
h_90
</text>
<path d="M442,40h 114" fill="none" stroke="black"/>
<text x="447" y="53" fill="black" font-size="13" font-family="Helvetica">
Entries 
</text>
<text x="517" y="53" fill="black" font-size="13" font-family="Helvetica">
 6660
</text>
<text x="447" y="68" fill="black" font-size="13" font-family="Helvetica">
Mean  
</text>
<text x="502" y="68" fill="black" font-size="13" font-family="Helvetica">
 -0.5598
</text>
<text x="447" y="84" fill="black" font-size="13" font-family="Helvetica">
RMS   
</text>
<text x="510" y="84" fill="black" font-size="13" font-family="Helvetica">
  1.808
</text>
<rect x="283" y="58" width="199" height="96" fill="#f2f2f2"/>
<path d="M283,154h 199" fill="none" stroke="black"/>
<path d="M482,154v -96" fill="none" stroke="black"/>
<path d="M482,58h -199" fill="none" stroke="black"/>
<path d="M283,58v 96" fill="none" stroke="black"/>
<text x="332" y="92" fill="black" font-size="28" font-family="Helvetica" font-weight="bold">
hlt30
</text>
<path d="M291,82h 35" fill="none" stroke="#000099"/>
<text x="332" y="140" fill="black" font-size="28" font-family="Helvetica" font-weight="bold">
hlt90
</text>
<path d="M291,130h 35" fill="none" stroke="#ff0099"/></svg>
