<?xml version="1.0" standalone="no"?>
<svg width="567" height="496" viewBox="0 0 567 496" xmlns="http://www.w3.org/2000/svg">
<title>
plots_mcZee_mcGJet//hlt75//mvaIdPhotEE.svg
</title>
<desc>
Creator: ROOT Version 5.32/00
CreationDate: Sat Nov 29 19:51:36 2014</desc>
<defs>
</defs>
<rect x="0" y="0" width="567" height="496" fill="white"/>
<rect x="74" y="44" width="453" height="402" fill="white"/>
<rect x="74" y="44" width="453" height="402" fill="none" stroke="black"/>
<rect x="74" y="44" width="453" height="402" fill="white"/>
<rect x="74" y="44" width="453" height="402" fill="none" stroke="black"/>
<path d="M471,412" fill="none" stroke="#ff0099"/>
<path d="M471,410v -1" fill="none" stroke="#ff0099"/>
<path d="M468,411h 1" fill="none" stroke="#ff0099"/>
<path d="M472,411h 1" fill="none" stroke="#ff0099"/>
<g stroke="#ff0099" stroke-width="1" fill="#ff0099">
<circle cx=" 471" cy=" 411" r=" 1.5"/>
</g>
<path d="M475,384v -1" fill="none" stroke="#ff0099"/>
<path d="M475,380v -1" fill="none" stroke="#ff0099"/>
<path d="M473,382h 1" fill="none" stroke="#ff0099"/>
<path d="M476,382h 1" fill="none" stroke="#ff0099"/>
<g stroke="#ff0099" stroke-width="1" fill="#ff0099">
<circle cx=" 475" cy=" 382" r=" 1.5"/>
</g>
<path d="M480,370v -2" fill="none" stroke="#ff0099"/>
<path d="M480,366v -2" fill="none" stroke="#ff0099"/>
<path d="M477,367h 1" fill="none" stroke="#ff0099"/>
<path d="M481,367h 1" fill="none" stroke="#ff0099"/>
<g stroke="#ff0099" stroke-width="1" fill="#ff0099">
<circle cx=" 480" cy=" 367" r=" 1.5"/>
</g>
<path d="M484,356v -2" fill="none" stroke="#ff0099"/>
<path d="M484,352v -2" fill="none" stroke="#ff0099"/>
<path d="M482,353h 1" fill="none" stroke="#ff0099"/>
<path d="M485,353h 1" fill="none" stroke="#ff0099"/>
<g stroke="#ff0099" stroke-width="1" fill="#ff0099">
<circle cx=" 484" cy=" 353" r=" 1.5"/>
</g>
<path d="M489,336v -2" fill="none" stroke="#ff0099"/>
<path d="M489,332v -2" fill="none" stroke="#ff0099"/>
<path d="M486,333h 2" fill="none" stroke="#ff0099"/>
<path d="M490,333h 1" fill="none" stroke="#ff0099"/>
<g stroke="#ff0099" stroke-width="1" fill="#ff0099">
<circle cx=" 489" cy=" 333" r=" 1.5"/>
</g>
<path d="M493,296v -4" fill="none" stroke="#ff0099"/>
<path d="M493,290v -5" fill="none" stroke="#ff0099"/>
<path d="M491,291h 1" fill="none" stroke="#ff0099"/>
<path d="M494,291h 1" fill="none" stroke="#ff0099"/>
<g stroke="#ff0099" stroke-width="1" fill="#ff0099">
<circle cx=" 493" cy=" 291" r=" 1.5"/>
</g>
<path d="M498,251v -4" fill="none" stroke="#ff0099"/>
<path d="M498,244v -4" fill="none" stroke="#ff0099"/>
<path d="M495,246h 2" fill="none" stroke="#ff0099"/>
<path d="M499,246h 1" fill="none" stroke="#ff0099"/>
<g stroke="#ff0099" stroke-width="1" fill="#ff0099">
<circle cx=" 498" cy=" 246" r=" 1.5"/>
</g>
<path d="M502,167v -7" fill="none" stroke="#ff0099"/>
<path d="M502,158v -7" fill="none" stroke="#ff0099"/>
<path d="M500,159h 1" fill="none" stroke="#ff0099"/>
<path d="M503,159h 2" fill="none" stroke="#ff0099"/>
<g stroke="#ff0099" stroke-width="1" fill="#ff0099">
<circle cx=" 502" cy=" 159" r=" 1.5"/>
</g>
<path d="M507,85v -10" fill="none" stroke="#ff0099"/>
<path d="M507,73v -10" fill="none" stroke="#ff0099"/>
<path d="M505,74h 1" fill="none" stroke="#ff0099"/>
<path d="M508,74h 1" fill="none" stroke="#ff0099"/>
<g stroke="#ff0099" stroke-width="1" fill="#ff0099">
<circle cx=" 507" cy=" 74" r=" 1.5"/>
</g>
<path d="M511,204v -8" fill="none" stroke="#ff0099"/>
<path d="M511,193v -8" fill="none" stroke="#ff0099"/>
<path d="M509,195h 1" fill="none" stroke="#ff0099"/>
<path d="M513,195h 1" fill="none" stroke="#ff0099"/>
<g stroke="#ff0099" stroke-width="1" fill="#ff0099">
<circle cx=" 511" cy=" 195" r=" 1.5"/>
</g>
<path d="M516,378v -3" fill="none" stroke="#ff0099"/>
<path d="M516,373v -4" fill="none" stroke="#ff0099"/>
<path d="M514,374h 1" fill="none" stroke="#ff0099"/>
<path d="M517,374h 1" fill="none" stroke="#ff0099"/>
<g stroke="#ff0099" stroke-width="1" fill="#ff0099">
<circle cx=" 516" cy=" 374" r=" 1.5"/>
</g>
<path d="M518,442h 1" fill="none" stroke="#ff0099"/>
<path d="M522,442h 1" fill="none" stroke="#ff0099"/>
<g stroke="#ff0099" stroke-width="1" fill="#ff0099">
<circle cx=" 520" cy=" 442" r=" 1.5"/>
</g>
<path d="M523,445h 1" fill="none" stroke="#ff0099"/>
<path d="M526,445h 1" fill="none" stroke="#ff0099"/>
<g stroke="#ff0099" stroke-width="1" fill="#ff0099">
<circle cx=" 525" cy=" 445" r=" 1.5"/>
</g>
<path d="M74,446h 453" fill="none" stroke="black"/>
<path d="M74,434v 12" fill="none" stroke="black"/>
<path d="M83,440v 6" fill="none" stroke="black"/>
<path d="M92,440v 6" fill="none" stroke="black"/>
<path d="M101,440v 6" fill="none" stroke="black"/>
<path d="M110,440v 6" fill="none" stroke="black"/>
<path d="M119,434v 12" fill="none" stroke="black"/>
<path d="M128,440v 6" fill="none" stroke="black"/>
<path d="M137,440v 6" fill="none" stroke="black"/>
<path d="M146,440v 6" fill="none" stroke="black"/>
<path d="M155,440v 6" fill="none" stroke="black"/>
<path d="M164,434v 12" fill="none" stroke="black"/>
<path d="M173,440v 6" fill="none" stroke="black"/>
<path d="M183,440v 6" fill="none" stroke="black"/>
<path d="M192,440v 6" fill="none" stroke="black"/>
<path d="M201,440v 6" fill="none" stroke="black"/>
<path d="M210,434v 12" fill="none" stroke="black"/>
<path d="M219,440v 6" fill="none" stroke="black"/>
<path d="M228,440v 6" fill="none" stroke="black"/>
<path d="M237,440v 6" fill="none" stroke="black"/>
<path d="M246,440v 6" fill="none" stroke="black"/>
<path d="M255,434v 12" fill="none" stroke="black"/>
<path d="M264,440v 6" fill="none" stroke="black"/>
<path d="M273,440v 6" fill="none" stroke="black"/>
<path d="M282,440v 6" fill="none" stroke="black"/>
<path d="M291,440v 6" fill="none" stroke="black"/>
<path d="M300,434v 12" fill="none" stroke="black"/>
<path d="M310,440v 6" fill="none" stroke="black"/>
<path d="M319,440v 6" fill="none" stroke="black"/>
<path d="M328,440v 6" fill="none" stroke="black"/>
<path d="M337,440v 6" fill="none" stroke="black"/>
<path d="M346,434v 12" fill="none" stroke="black"/>
<path d="M355,440v 6" fill="none" stroke="black"/>
<path d="M364,440v 6" fill="none" stroke="black"/>
<path d="M373,440v 6" fill="none" stroke="black"/>
<path d="M382,440v 6" fill="none" stroke="black"/>
<path d="M391,434v 12" fill="none" stroke="black"/>
<path d="M400,440v 6" fill="none" stroke="black"/>
<path d="M409,440v 6" fill="none" stroke="black"/>
<path d="M418,440v 6" fill="none" stroke="black"/>
<path d="M427,440v 6" fill="none" stroke="black"/>
<path d="M437,434v 12" fill="none" stroke="black"/>
<path d="M446,440v 6" fill="none" stroke="black"/>
<path d="M455,440v 6" fill="none" stroke="black"/>
<path d="M464,440v 6" fill="none" stroke="black"/>
<path d="M473,440v 6" fill="none" stroke="black"/>
<path d="M482,434v 12" fill="none" stroke="black"/>
<path d="M491,440v 6" fill="none" stroke="black"/>
<path d="M500,440v 6" fill="none" stroke="black"/>
<path d="M509,440v 6" fill="none" stroke="black"/>
<path d="M518,440v 6" fill="none" stroke="black"/>
<path d="M527,434v 12" fill="none" stroke="black"/>
<text x="68" y="465" fill="black" font-size="18" font-family="Helvetica" font-weight="bold">
0
</text>
<text x="107" y="465" fill="black" font-size="18" font-family="Helvetica" font-weight="bold">
0.1
</text>
<text x="151" y="465" fill="black" font-size="18" font-family="Helvetica" font-weight="bold">
0.2
</text>
<text x="196" y="465" fill="black" font-size="18" font-family="Helvetica" font-weight="bold">
0.3
</text>
<text x="242" y="465" fill="black" font-size="18" font-family="Helvetica" font-weight="bold">
0.4
</text>
<text x="287" y="465" fill="black" font-size="18" font-family="Helvetica" font-weight="bold">
0.5
</text>
<text x="332" y="465" fill="black" font-size="18" font-family="Helvetica" font-weight="bold">
0.6
</text>
<text x="378" y="465" fill="black" font-size="18" font-family="Helvetica" font-weight="bold">
0.7
</text>
<text x="423" y="465" fill="black" font-size="18" font-family="Helvetica" font-weight="bold">
0.8
</text>
<text x="468" y="465" fill="black" font-size="18" font-family="Helvetica" font-weight="bold">
0.9
</text>
<text x="523" y="465" fill="black" font-size="18" font-family="Helvetica" font-weight="bold">
1
</text>
<path d="M74,44h 453" fill="none" stroke="black"/>
<path d="M74,56v -12" fill="none" stroke="black"/>
<path d="M83,50v -6" fill="none" stroke="black"/>
<path d="M92,50v -6" fill="none" stroke="black"/>
<path d="M101,50v -6" fill="none" stroke="black"/>
<path d="M110,50v -6" fill="none" stroke="black"/>
<path d="M119,56v -12" fill="none" stroke="black"/>
<path d="M128,50v -6" fill="none" stroke="black"/>
<path d="M137,50v -6" fill="none" stroke="black"/>
<path d="M146,50v -6" fill="none" stroke="black"/>
<path d="M155,50v -6" fill="none" stroke="black"/>
<path d="M164,56v -12" fill="none" stroke="black"/>
<path d="M173,50v -6" fill="none" stroke="black"/>
<path d="M183,50v -6" fill="none" stroke="black"/>
<path d="M192,50v -6" fill="none" stroke="black"/>
<path d="M201,50v -6" fill="none" stroke="black"/>
<path d="M210,56v -12" fill="none" stroke="black"/>
<path d="M219,50v -6" fill="none" stroke="black"/>
<path d="M228,50v -6" fill="none" stroke="black"/>
<path d="M237,50v -6" fill="none" stroke="black"/>
<path d="M246,50v -6" fill="none" stroke="black"/>
<path d="M255,56v -12" fill="none" stroke="black"/>
<path d="M264,50v -6" fill="none" stroke="black"/>
<path d="M273,50v -6" fill="none" stroke="black"/>
<path d="M282,50v -6" fill="none" stroke="black"/>
<path d="M291,50v -6" fill="none" stroke="black"/>
<path d="M300,56v -12" fill="none" stroke="black"/>
<path d="M310,50v -6" fill="none" stroke="black"/>
<path d="M319,50v -6" fill="none" stroke="black"/>
<path d="M328,50v -6" fill="none" stroke="black"/>
<path d="M337,50v -6" fill="none" stroke="black"/>
<path d="M346,56v -12" fill="none" stroke="black"/>
<path d="M355,50v -6" fill="none" stroke="black"/>
<path d="M364,50v -6" fill="none" stroke="black"/>
<path d="M373,50v -6" fill="none" stroke="black"/>
<path d="M382,50v -6" fill="none" stroke="black"/>
<path d="M391,56v -12" fill="none" stroke="black"/>
<path d="M400,50v -6" fill="none" stroke="black"/>
<path d="M409,50v -6" fill="none" stroke="black"/>
<path d="M418,50v -6" fill="none" stroke="black"/>
<path d="M427,50v -6" fill="none" stroke="black"/>
<path d="M437,56v -12" fill="none" stroke="black"/>
<path d="M446,50v -6" fill="none" stroke="black"/>
<path d="M455,50v -6" fill="none" stroke="black"/>
<path d="M464,50v -6" fill="none" stroke="black"/>
<path d="M473,50v -6" fill="none" stroke="black"/>
<path d="M482,56v -12" fill="none" stroke="black"/>
<path d="M491,50v -6" fill="none" stroke="black"/>
<path d="M500,50v -6" fill="none" stroke="black"/>
<path d="M509,50v -6" fill="none" stroke="black"/>
<path d="M518,50v -6" fill="none" stroke="black"/>
<path d="M527,56v -12" fill="none" stroke="black"/>
<path d="M74,446v -402" fill="none" stroke="black"/>
<path d="M87,446h -13" fill="none" stroke="black"/>
<path d="M81,438h -7" fill="none" stroke="black"/>
<path d="M81,429h -7" fill="none" stroke="black"/>
<path d="M81,420h -7" fill="none" stroke="black"/>
<path d="M87,412h -13" fill="none" stroke="black"/>
<path d="M81,403h -7" fill="none" stroke="black"/>
<path d="M81,394h -7" fill="none" stroke="black"/>
<path d="M81,386h -7" fill="none" stroke="black"/>
<path d="M87,377h -13" fill="none" stroke="black"/>
<path d="M81,368h -7" fill="none" stroke="black"/>
<path d="M81,360h -7" fill="none" stroke="black"/>
<path d="M81,351h -7" fill="none" stroke="black"/>
<path d="M87,342h -13" fill="none" stroke="black"/>
<path d="M81,334h -7" fill="none" stroke="black"/>
<path d="M81,325h -7" fill="none" stroke="black"/>
<path d="M81,316h -7" fill="none" stroke="black"/>
<path d="M87,308h -13" fill="none" stroke="black"/>
<path d="M81,299h -7" fill="none" stroke="black"/>
<path d="M81,290h -7" fill="none" stroke="black"/>
<path d="M81,282h -7" fill="none" stroke="black"/>
<path d="M87,273h -13" fill="none" stroke="black"/>
<path d="M81,264h -7" fill="none" stroke="black"/>
<path d="M81,256h -7" fill="none" stroke="black"/>
<path d="M81,247h -7" fill="none" stroke="black"/>
<path d="M87,238h -13" fill="none" stroke="black"/>
<path d="M81,230h -7" fill="none" stroke="black"/>
<path d="M81,221h -7" fill="none" stroke="black"/>
<path d="M81,212h -7" fill="none" stroke="black"/>
<path d="M87,204h -13" fill="none" stroke="black"/>
<path d="M81,195h -7" fill="none" stroke="black"/>
<path d="M81,186h -7" fill="none" stroke="black"/>
<path d="M81,178h -7" fill="none" stroke="black"/>
<path d="M87,169h -13" fill="none" stroke="black"/>
<path d="M81,160h -7" fill="none" stroke="black"/>
<path d="M81,152h -7" fill="none" stroke="black"/>
<path d="M81,143h -7" fill="none" stroke="black"/>
<path d="M87,134h -13" fill="none" stroke="black"/>
<path d="M81,126h -7" fill="none" stroke="black"/>
<path d="M81,117h -7" fill="none" stroke="black"/>
<path d="M81,109h -7" fill="none" stroke="black"/>
<path d="M87,100h -13" fill="none" stroke="black"/>
<path d="M81,91h -7" fill="none" stroke="black"/>
<path d="M81,83h -7" fill="none" stroke="black"/>
<path d="M81,74h -7" fill="none" stroke="black"/>
<path d="M87,65h -13" fill="none" stroke="black"/>
<path d="M87,65h -13" fill="none" stroke="black"/>
<path d="M81,57h -7" fill="none" stroke="black"/>
<path d="M81,48h -7" fill="none" stroke="black"/>
<text x="61" y="453" fill="black" font-size="18" font-family="Helvetica" font-weight="bold">
0
</text>
<text x="35" y="418" fill="black" font-size="18" font-family="Helvetica" font-weight="bold">
0.02
</text>
<text x="34" y="384" fill="black" font-size="18" font-family="Helvetica" font-weight="bold">
0.04
</text>
<text x="34" y="349" fill="black" font-size="18" font-family="Helvetica" font-weight="bold">
0.06
</text>
<text x="35" y="314" fill="black" font-size="18" font-family="Helvetica" font-weight="bold">
0.08
</text>
<text x="47" y="280" fill="black" font-size="18" font-family="Helvetica" font-weight="bold">
0.1
</text>
<text x="35" y="245" fill="black" font-size="18" font-family="Helvetica" font-weight="bold">
0.12
</text>
<text x="34" y="210" fill="black" font-size="18" font-family="Helvetica" font-weight="bold">
0.14
</text>
<text x="34" y="176" fill="black" font-size="18" font-family="Helvetica" font-weight="bold">
0.16
</text>
<text x="35" y="141" fill="black" font-size="18" font-family="Helvetica" font-weight="bold">
0.18
</text>
<text x="45" y="107" fill="black" font-size="18" font-family="Helvetica" font-weight="bold">
0.2
</text>
<text x="35" y="72" fill="black" font-size="18" font-family="Helvetica" font-weight="bold">
0.22
</text>
<path d="M471,428v -1" fill="none" stroke="#99ff99" stroke-width="2"/>
<path d="M471,427v -1" fill="none" stroke="#99ff99" stroke-width="2"/>
<g stroke="black" stroke-width="2" fill="none">
<line x1="470" y1="427" x2="471" y2="427"/>
</g>
<path d="M475,413v -2" fill="none" stroke="#99ff99" stroke-width="2"/>
<path d="M475,411v -1" fill="none" stroke="#99ff99" stroke-width="2"/>
<g stroke="black" stroke-width="2" fill="none">
<line x1="474" y1="411" x2="475" y2="411"/>
</g>
<path d="M480,398v -1" fill="none" stroke="#99ff99" stroke-width="2"/>
<path d="M480,397v -2" fill="none" stroke="#99ff99" stroke-width="2"/>
<g stroke="black" stroke-width="2" fill="none">
<line x1="479" y1="397" x2="480" y2="397"/>
</g>
<path d="M484,377v -3" fill="none" stroke="#99ff99" stroke-width="2"/>
<path d="M484,374v -3" fill="none" stroke="#99ff99" stroke-width="2"/>
<g stroke="black" stroke-width="2" fill="none">
<line x1="483" y1="374" x2="484" y2="374"/>
</g>
<path d="M489,358v -2" fill="none" stroke="#99ff99" stroke-width="2"/>
<path d="M489,356v -2" fill="none" stroke="#99ff99" stroke-width="2"/>
<g stroke="black" stroke-width="2" fill="none">
<line x1="488" y1="356" x2="489" y2="356"/>
</g>
<path d="M493,327v -5" fill="none" stroke="#99ff99" stroke-width="2"/>
<path d="M493,322v -6" fill="none" stroke="#99ff99" stroke-width="2"/>
<g stroke="black" stroke-width="2" fill="none">
<line x1="492" y1="322" x2="493" y2="322"/>
</g>
<path d="M498,292v -5" fill="none" stroke="#99ff99" stroke-width="2"/>
<path d="M498,287v -4" fill="none" stroke="#99ff99" stroke-width="2"/>
<g stroke="black" stroke-width="2" fill="none">
<line x1="497" y1="287" x2="498" y2="287"/>
</g>
<path d="M502,229v -6" fill="none" stroke="#99ff99" stroke-width="2"/>
<path d="M502,223v -6" fill="none" stroke="#99ff99" stroke-width="2"/>
<g stroke="black" stroke-width="2" fill="none">
<line x1="501" y1="223" x2="502" y2="223"/>
</g>
<path d="M507,148v -5" fill="none" stroke="#99ff99" stroke-width="2"/>
<path d="M507,143v -5" fill="none" stroke="#99ff99" stroke-width="2"/>
<g stroke="black" stroke-width="2" fill="none">
<line x1="506" y1="143" x2="507" y2="143"/>
</g>
<path d="M511,100v -7" fill="none" stroke="#99ff99" stroke-width="2"/>
<path d="M511,93v -7" fill="none" stroke="#99ff99" stroke-width="2"/>
<g stroke="black" stroke-width="2" fill="none">
<line x1="510" y1="93" x2="511" y2="93"/>
</g>
<path d="M516,192v -5" fill="none" stroke="#99ff99" stroke-width="2"/>
<path d="M516,187v -5" fill="none" stroke="#99ff99" stroke-width="2"/>
<g stroke="black" stroke-width="2" fill="none">
<line x1="515" y1="187" x2="516" y2="187"/>
</g>
<path d="M520,407v -1" fill="none" stroke="#99ff99" stroke-width="2"/>
<path d="M520,406v -1" fill="none" stroke="#99ff99" stroke-width="2"/>
<g stroke="black" stroke-width="2" fill="none">
<line x1="519" y1="406" x2="520" y2="406"/>
</g>
<path d="M525,445" fill="none" stroke="#99ff99" stroke-width="2"/>
<path d="M525,445v -1" fill="none" stroke="#99ff99" stroke-width="2"/>
<g stroke="black" stroke-width="2" fill="none">
<line x1="524" y1="445" x2="525" y2="445"/>
</g>
<path d="M74,446h 394v -19h 5v -16h 4v -14h 5v -23h 4v -18h 5v -34h 4v -35h 5v -64h 5v -80h 4v -50h 5v 94h 4v 219h 5v 39h 4v 1z" fill="#99ff99"/>
<path d="M74,446h 394v -19h 5v -16h 4v -14h 5v -23h 4v -18h 5v -34h 4v -35h 5v -64h 5v -80h 4v -50h 5v 94h 4v 219h 5v 39h 4" fill="none" stroke="#99ff99" stroke-width="2"/>
<path d="M471,412" fill="none" stroke="#ff0099"/>
<path d="M471,410v -1" fill="none" stroke="#ff0099"/>
<path d="M468,411h 1" fill="none" stroke="#ff0099"/>
<path d="M472,411h 1" fill="none" stroke="#ff0099"/>
<g stroke="#ff0099" stroke-width="1" fill="#ff0099">
<circle cx=" 471" cy=" 411" r=" 1.5"/>
</g>
<path d="M475,384v -1" fill="none" stroke="#ff0099"/>
<path d="M475,380v -1" fill="none" stroke="#ff0099"/>
<path d="M473,382h 1" fill="none" stroke="#ff0099"/>
<path d="M476,382h 1" fill="none" stroke="#ff0099"/>
<g stroke="#ff0099" stroke-width="1" fill="#ff0099">
<circle cx=" 475" cy=" 382" r=" 1.5"/>
</g>
<path d="M480,370v -2" fill="none" stroke="#ff0099"/>
<path d="M480,366v -2" fill="none" stroke="#ff0099"/>
<path d="M477,367h 1" fill="none" stroke="#ff0099"/>
<path d="M481,367h 1" fill="none" stroke="#ff0099"/>
<g stroke="#ff0099" stroke-width="1" fill="#ff0099">
<circle cx=" 480" cy=" 367" r=" 1.5"/>
</g>
<path d="M484,356v -2" fill="none" stroke="#ff0099"/>
<path d="M484,352v -2" fill="none" stroke="#ff0099"/>
<path d="M482,353h 1" fill="none" stroke="#ff0099"/>
<path d="M485,353h 1" fill="none" stroke="#ff0099"/>
<g stroke="#ff0099" stroke-width="1" fill="#ff0099">
<circle cx=" 484" cy=" 353" r=" 1.5"/>
</g>
<path d="M489,336v -2" fill="none" stroke="#ff0099"/>
<path d="M489,332v -2" fill="none" stroke="#ff0099"/>
<path d="M486,333h 2" fill="none" stroke="#ff0099"/>
<path d="M490,333h 1" fill="none" stroke="#ff0099"/>
<g stroke="#ff0099" stroke-width="1" fill="#ff0099">
<circle cx=" 489" cy=" 333" r=" 1.5"/>
</g>
<path d="M493,296v -4" fill="none" stroke="#ff0099"/>
<path d="M493,290v -5" fill="none" stroke="#ff0099"/>
<path d="M491,291h 1" fill="none" stroke="#ff0099"/>
<path d="M494,291h 1" fill="none" stroke="#ff0099"/>
<g stroke="#ff0099" stroke-width="1" fill="#ff0099">
<circle cx=" 493" cy=" 291" r=" 1.5"/>
</g>
<path d="M498,251v -4" fill="none" stroke="#ff0099"/>
<path d="M498,244v -4" fill="none" stroke="#ff0099"/>
<path d="M495,246h 2" fill="none" stroke="#ff0099"/>
<path d="M499,246h 1" fill="none" stroke="#ff0099"/>
<g stroke="#ff0099" stroke-width="1" fill="#ff0099">
<circle cx=" 498" cy=" 246" r=" 1.5"/>
</g>
<path d="M502,167v -7" fill="none" stroke="#ff0099"/>
<path d="M502,158v -7" fill="none" stroke="#ff0099"/>
<path d="M500,159h 1" fill="none" stroke="#ff0099"/>
<path d="M503,159h 2" fill="none" stroke="#ff0099"/>
<g stroke="#ff0099" stroke-width="1" fill="#ff0099">
<circle cx=" 502" cy=" 159" r=" 1.5"/>
</g>
<path d="M507,85v -10" fill="none" stroke="#ff0099"/>
<path d="M507,73v -10" fill="none" stroke="#ff0099"/>
<path d="M505,74h 1" fill="none" stroke="#ff0099"/>
<path d="M508,74h 1" fill="none" stroke="#ff0099"/>
<g stroke="#ff0099" stroke-width="1" fill="#ff0099">
<circle cx=" 507" cy=" 74" r=" 1.5"/>
</g>
<path d="M511,204v -8" fill="none" stroke="#ff0099"/>
<path d="M511,193v -8" fill="none" stroke="#ff0099"/>
<path d="M509,195h 1" fill="none" stroke="#ff0099"/>
<path d="M513,195h 1" fill="none" stroke="#ff0099"/>
<g stroke="#ff0099" stroke-width="1" fill="#ff0099">
<circle cx=" 511" cy=" 195" r=" 1.5"/>
</g>
<path d="M516,378v -3" fill="none" stroke="#ff0099"/>
<path d="M516,373v -4" fill="none" stroke="#ff0099"/>
<path d="M514,374h 1" fill="none" stroke="#ff0099"/>
<path d="M517,374h 1" fill="none" stroke="#ff0099"/>
<g stroke="#ff0099" stroke-width="1" fill="#ff0099">
<circle cx=" 516" cy=" 374" r=" 1.5"/>
</g>
<path d="M518,442h 1" fill="none" stroke="#ff0099"/>
<path d="M522,442h 1" fill="none" stroke="#ff0099"/>
<g stroke="#ff0099" stroke-width="1" fill="#ff0099">
<circle cx=" 520" cy=" 442" r=" 1.5"/>
</g>
<path d="M523,445h 1" fill="none" stroke="#ff0099"/>
<path d="M526,445h 1" fill="none" stroke="#ff0099"/>
<g stroke="#ff0099" stroke-width="1" fill="#ff0099">
<circle cx=" 525" cy=" 445" r=" 1.5"/>
</g>
<rect x="357" y="59" width="142" height="99" fill="white"/>
<text x="360" y="82" fill="black" font-size="17" font-family="Helvetica" font-weight="bold">
EE
</text>
<text x="457" y="115" fill="black" font-size="17" font-family="Helvetica" font-weight="bold">
 ee
</text>
<text x="440" y="115" fill="black" font-size="17" font-family="Times">
&#8594;
</text>
<text x="392" y="115" fill="black" font-size="17" font-family="Helvetica" font-weight="bold">
MC Z 
</text>
<path d="M362,109h 25" fill="none" stroke="#ff0099"/>
<g stroke="#ff0099" stroke-width="1" fill="#ff0099">
<circle cx=" 375" cy=" 109" r=" 1.5"/>
</g>
<text x="455" y="147" fill="black" font-size="17" font-family="Helvetica" font-weight="bold">
 + jet
</text>
<text x="447" y="147" fill="black" font-size="17" font-family="Times">
&#0947;
</text>
<text x="392" y="147" fill="black" font-size="17" font-family="Helvetica" font-weight="bold">
signal 
</text>
<path d="M362,154h 25v -24h -25z" fill="#99ff99"/>
<path d="M362,130h 25" fill="none" stroke="#99ff99" stroke-width="2"/>
<path d="M362,154h 25" fill="none" stroke="#99ff99" stroke-width="2"/>
<path d="M387,154v -24" fill="none" stroke="#99ff99" stroke-width="2"/>
<path d="M362,154v -24" fill="none" stroke="#99ff99" stroke-width="2"/>
<text x="300" y="34" fill="black" font-size="17" font-family="Helvetica" font-weight="bold">
=8 TeV
</text>
<text x="291" y="34" fill="black" font-size="17" font-family="Helvetica" font-weight="bold">
s
</text>
<path d="M285,25l 2, 10" fill="none" stroke="black" stroke-width="2"/>
<path d="M287,35l 2, -14" fill="none" stroke="black"/>
<path d="M289,21h 11" fill="none" stroke="black"/>
<text x="142" y="34" fill="black" font-size="17" font-family="Helvetica" font-weight="bold">
CMS Preliminary 
</text></svg>
