<?xml version="1.0" standalone="no"?>
<svg width="567" height="496" viewBox="0 0 567 496" xmlns="http://www.w3.org/2000/svg">
<title>
plots_mcZee_mcGJet//hlt75//mvaIdPhotEB_log.svg
</title>
<desc>
Creator: ROOT Version 5.32/00
CreationDate: Sat Nov 29 19:51:37 2014</desc>
<defs>
</defs>
<rect x="0" y="0" width="567" height="496" fill="white"/>
<rect x="0" y="0" width="567" height="347" fill="white"/>
<rect x="57" y="34" width="453" height="278" fill="white"/>
<rect x="57" y="34" width="453" height="278" fill="none" stroke="black"/>
<rect x="57" y="34" width="453" height="278" fill="white"/>
<rect x="57" y="34" width="453" height="278" fill="none" stroke="black"/>
<path d="M433,120h 1" fill="none" stroke="#ff0099"/>
<path d="M437,120h 1" fill="none" stroke="#ff0099"/>
<g stroke="#ff0099" stroke-width="1" fill="#ff0099">
<circle cx=" 435" cy=" 120" r=" 1.5"/>
</g>
<path d="M438,103h 1" fill="none" stroke="#ff0099"/>
<path d="M441,103h 1" fill="none" stroke="#ff0099"/>
<g stroke="#ff0099" stroke-width="1" fill="#ff0099">
<circle cx=" 440" cy=" 103" r=" 1.5"/>
</g>
<path d="M442,101h 1" fill="none" stroke="#ff0099"/>
<path d="M446,101h 1" fill="none" stroke="#ff0099"/>
<g stroke="#ff0099" stroke-width="1" fill="#ff0099">
<circle cx=" 444" cy=" 101" r=" 1.5"/>
</g>
<path d="M447,98h 1" fill="none" stroke="#ff0099"/>
<path d="M450,98h 1" fill="none" stroke="#ff0099"/>
<g stroke="#ff0099" stroke-width="1" fill="#ff0099">
<circle cx=" 449" cy=" 98" r=" 1.5"/>
</g>
<path d="M451,94h 1" fill="none" stroke="#ff0099"/>
<path d="M455,94h 1" fill="none" stroke="#ff0099"/>
<g stroke="#ff0099" stroke-width="1" fill="#ff0099">
<circle cx=" 454" cy=" 94" r=" 1.5"/>
</g>
<path d="M456,91h 1" fill="none" stroke="#ff0099"/>
<path d="M459,91h 1" fill="none" stroke="#ff0099"/>
<g stroke="#ff0099" stroke-width="1" fill="#ff0099">
<circle cx=" 458" cy=" 91" r=" 1.5"/>
</g>
<path d="M460,86h 1" fill="none" stroke="#ff0099"/>
<path d="M464,86h 1" fill="none" stroke="#ff0099"/>
<g stroke="#ff0099" stroke-width="1" fill="#ff0099">
<circle cx=" 463" cy=" 86" r=" 1.5"/>
</g>
<path d="M465,83h 1" fill="none" stroke="#ff0099"/>
<path d="M468,83h 1" fill="none" stroke="#ff0099"/>
<g stroke="#ff0099" stroke-width="1" fill="#ff0099">
<circle cx=" 467" cy=" 83" r=" 1.5"/>
</g>
<path d="M469,79h 2" fill="none" stroke="#ff0099"/>
<path d="M473,79h 1" fill="none" stroke="#ff0099"/>
<g stroke="#ff0099" stroke-width="1" fill="#ff0099">
<circle cx=" 472" cy=" 79" r=" 1.5"/>
</g>
<path d="M474,75h 1" fill="none" stroke="#ff0099"/>
<path d="M477,75h 1" fill="none" stroke="#ff0099"/>
<g stroke="#ff0099" stroke-width="1" fill="#ff0099">
<circle cx=" 476" cy=" 75" r=" 1.5"/>
</g>
<path d="M478,69h 2" fill="none" stroke="#ff0099"/>
<path d="M482,69h 1" fill="none" stroke="#ff0099"/>
<g stroke="#ff0099" stroke-width="1" fill="#ff0099">
<circle cx=" 481" cy=" 69" r=" 1.5"/>
</g>
<path d="M483,67h 1" fill="none" stroke="#ff0099"/>
<path d="M486,67h 2" fill="none" stroke="#ff0099"/>
<g stroke="#ff0099" stroke-width="1" fill="#ff0099">
<circle cx=" 485" cy=" 67" r=" 1.5"/>
</g>
<path d="M488,75h 1" fill="none" stroke="#ff0099"/>
<path d="M491,75h 1" fill="none" stroke="#ff0099"/>
<g stroke="#ff0099" stroke-width="1" fill="#ff0099">
<circle cx=" 490" cy=" 75" r=" 1.5"/>
</g>
<path d="M492,103h 1" fill="none" stroke="#ff0099"/>
<path d="M496,103h 1" fill="none" stroke="#ff0099"/>
<g stroke="#ff0099" stroke-width="1" fill="#ff0099">
<circle cx=" 494" cy=" 103" r=" 1.5"/>
</g>
<path d="M499,156v -2" fill="none" stroke="#ff0099"/>
<path d="M499,152v -1" fill="none" stroke="#ff0099"/>
<path d="M497,153h 1" fill="none" stroke="#ff0099"/>
<path d="M500,153h 1" fill="none" stroke="#ff0099"/>
<g stroke="#ff0099" stroke-width="1" fill="#ff0099">
<circle cx=" 499" cy=" 153" r=" 1.5"/>
</g>
<path d="M503,208v -5" fill="none" stroke="#ff0099"/>
<path d="M503,201v -4" fill="none" stroke="#ff0099"/>
<path d="M501,202h 1" fill="none" stroke="#ff0099"/>
<path d="M505,202h 1" fill="none" stroke="#ff0099"/>
<g stroke="#ff0099" stroke-width="1" fill="#ff0099">
<circle cx=" 503" cy=" 202" r=" 1.5"/>
</g>
<path d="M508,217v -7" fill="none" stroke="#ff0099"/>
<path d="M508,208v -5" fill="none" stroke="#ff0099"/>
<path d="M506,209h 1" fill="none" stroke="#ff0099"/>
<path d="M509,209h 1" fill="none" stroke="#ff0099"/>
<g stroke="#ff0099" stroke-width="1" fill="#ff0099">
<circle cx=" 508" cy=" 209" r=" 1.5"/>
</g>
<path d="M57,312h 453" fill="none" stroke="black"/>
<text x="434" y="338" fill="black" font-size="13" font-family="Helvetica" font-weight="bold">
 MVA output
</text>
<text x="427" y="338" fill="black" font-size="13" font-family="Times">
&#0947;
</text>
<path d="M57,304v 8" fill="none" stroke="black"/>
<path d="M66,308v 4" fill="none" stroke="black"/>
<path d="M75,308v 4" fill="none" stroke="black"/>
<path d="M84,308v 4" fill="none" stroke="black"/>
<path d="M93,308v 4" fill="none" stroke="black"/>
<path d="M102,304v 8" fill="none" stroke="black"/>
<path d="M111,308v 4" fill="none" stroke="black"/>
<path d="M120,308v 4" fill="none" stroke="black"/>
<path d="M129,308v 4" fill="none" stroke="black"/>
<path d="M138,308v 4" fill="none" stroke="black"/>
<path d="M147,304v 8" fill="none" stroke="black"/>
<path d="M156,308v 4" fill="none" stroke="black"/>
<path d="M166,308v 4" fill="none" stroke="black"/>
<path d="M175,308v 4" fill="none" stroke="black"/>
<path d="M184,308v 4" fill="none" stroke="black"/>
<path d="M193,304v 8" fill="none" stroke="black"/>
<path d="M202,308v 4" fill="none" stroke="black"/>
<path d="M211,308v 4" fill="none" stroke="black"/>
<path d="M220,308v 4" fill="none" stroke="black"/>
<path d="M229,308v 4" fill="none" stroke="black"/>
<path d="M238,304v 8" fill="none" stroke="black"/>
<path d="M247,308v 4" fill="none" stroke="black"/>
<path d="M256,308v 4" fill="none" stroke="black"/>
<path d="M265,308v 4" fill="none" stroke="black"/>
<path d="M274,308v 4" fill="none" stroke="black"/>
<path d="M283,304v 8" fill="none" stroke="black"/>
<path d="M293,308v 4" fill="none" stroke="black"/>
<path d="M302,308v 4" fill="none" stroke="black"/>
<path d="M311,308v 4" fill="none" stroke="black"/>
<path d="M320,308v 4" fill="none" stroke="black"/>
<path d="M329,304v 8" fill="none" stroke="black"/>
<path d="M338,308v 4" fill="none" stroke="black"/>
<path d="M347,308v 4" fill="none" stroke="black"/>
<path d="M356,308v 4" fill="none" stroke="black"/>
<path d="M365,308v 4" fill="none" stroke="black"/>
<path d="M374,304v 8" fill="none" stroke="black"/>
<path d="M383,308v 4" fill="none" stroke="black"/>
<path d="M392,308v 4" fill="none" stroke="black"/>
<path d="M401,308v 4" fill="none" stroke="black"/>
<path d="M410,308v 4" fill="none" stroke="black"/>
<path d="M420,304v 8" fill="none" stroke="black"/>
<path d="M429,308v 4" fill="none" stroke="black"/>
<path d="M438,308v 4" fill="none" stroke="black"/>
<path d="M447,308v 4" fill="none" stroke="black"/>
<path d="M456,308v 4" fill="none" stroke="black"/>
<path d="M465,304v 8" fill="none" stroke="black"/>
<path d="M474,308v 4" fill="none" stroke="black"/>
<path d="M483,308v 4" fill="none" stroke="black"/>
<path d="M492,308v 4" fill="none" stroke="black"/>
<path d="M501,308v 4" fill="none" stroke="black"/>
<path d="M510,304v 8" fill="none" stroke="black"/>
<text x="53" y="325" fill="black" font-size="13" font-family="Helvetica" font-weight="bold">
0
</text>
<text x="93" y="325" fill="black" font-size="13" font-family="Helvetica" font-weight="bold">
0.1
</text>
<text x="138" y="325" fill="black" font-size="13" font-family="Helvetica" font-weight="bold">
0.2
</text>
<text x="183" y="325" fill="black" font-size="13" font-family="Helvetica" font-weight="bold">
0.3
</text>
<text x="229" y="325" fill="black" font-size="13" font-family="Helvetica" font-weight="bold">
0.4
</text>
<text x="274" y="325" fill="black" font-size="13" font-family="Helvetica" font-weight="bold">
0.5
</text>
<text x="319" y="325" fill="black" font-size="13" font-family="Helvetica" font-weight="bold">
0.6
</text>
<text x="365" y="325" fill="black" font-size="13" font-family="Helvetica" font-weight="bold">
0.7
</text>
<text x="410" y="325" fill="black" font-size="13" font-family="Helvetica" font-weight="bold">
0.8
</text>
<text x="455" y="325" fill="black" font-size="13" font-family="Helvetica" font-weight="bold">
0.9
</text>
<text x="507" y="325" fill="black" font-size="13" font-family="Helvetica" font-weight="bold">
1
</text>
<path d="M57,312v -278" fill="none" stroke="black"/>
<g transform="rotate(-90,28,106)">
<text x="28" y="106" fill="black" font-size="13" font-family="Helvetica" font-weight="bold">
Entries/0.01
</text>
</g>
<path d="M63,310h -6" fill="none" stroke="black"/>
<path d="M63,307h -6" fill="none" stroke="black"/>
<path d="M63,304h -6" fill="none" stroke="black"/>
<path d="M63,301h -6" fill="none" stroke="black"/>
<path d="M63,299h -6" fill="none" stroke="black"/>
<path d="M70,297h -13" fill="none" stroke="black"/>
<text x="44" y="296" fill="black" font-size="9" font-family="Helvetica" font-weight="bold">
-6
</text>
<text x="30" y="303" fill="black" font-size="13" font-family="Helvetica" font-weight="bold">
10
</text>
<path d="M63,284h -6" fill="none" stroke="black"/>
<path d="M63,276h -6" fill="none" stroke="black"/>
<path d="M63,271h -6" fill="none" stroke="black"/>
<path d="M63,266h -6" fill="none" stroke="black"/>
<path d="M63,263h -6" fill="none" stroke="black"/>
<path d="M63,260h -6" fill="none" stroke="black"/>
<path d="M63,257h -6" fill="none" stroke="black"/>
<path d="M63,255h -6" fill="none" stroke="black"/>
<path d="M70,253h -13" fill="none" stroke="black"/>
<text x="44" y="252" fill="black" font-size="9" font-family="Helvetica" font-weight="bold">
-5
</text>
<text x="30" y="259" fill="black" font-size="13" font-family="Helvetica" font-weight="bold">
10
</text>
<path d="M63,240h -6" fill="none" stroke="black"/>
<path d="M63,232h -6" fill="none" stroke="black"/>
<path d="M63,227h -6" fill="none" stroke="black"/>
<path d="M63,222h -6" fill="none" stroke="black"/>
<path d="M63,219h -6" fill="none" stroke="black"/>
<path d="M63,216h -6" fill="none" stroke="black"/>
<path d="M63,213h -6" fill="none" stroke="black"/>
<path d="M63,211h -6" fill="none" stroke="black"/>
<path d="M70,209h -13" fill="none" stroke="black"/>
<text x="44" y="209" fill="black" font-size="9" font-family="Helvetica" font-weight="bold">
-4
</text>
<text x="30" y="215" fill="black" font-size="13" font-family="Helvetica" font-weight="bold">
10
</text>
<path d="M63,196h -6" fill="none" stroke="black"/>
<path d="M63,188h -6" fill="none" stroke="black"/>
<path d="M63,183h -6" fill="none" stroke="black"/>
<path d="M63,178h -6" fill="none" stroke="black"/>
<path d="M63,175h -6" fill="none" stroke="black"/>
<path d="M63,172h -6" fill="none" stroke="black"/>
<path d="M63,169h -6" fill="none" stroke="black"/>
<path d="M63,167h -6" fill="none" stroke="black"/>
<path d="M70,165h -13" fill="none" stroke="black"/>
<text x="44" y="164" fill="black" font-size="9" font-family="Helvetica" font-weight="bold">
-3
</text>
<text x="30" y="171" fill="black" font-size="13" font-family="Helvetica" font-weight="bold">
10
</text>
<path d="M63,152h -6" fill="none" stroke="black"/>
<path d="M63,144h -6" fill="none" stroke="black"/>
<path d="M63,139h -6" fill="none" stroke="black"/>
<path d="M63,135h -6" fill="none" stroke="black"/>
<path d="M63,131h -6" fill="none" stroke="black"/>
<path d="M63,128h -6" fill="none" stroke="black"/>
<path d="M63,126h -6" fill="none" stroke="black"/>
<path d="M63,123h -6" fill="none" stroke="black"/>
<path d="M70,121h -13" fill="none" stroke="black"/>
<text x="44" y="121" fill="black" font-size="9" font-family="Helvetica" font-weight="bold">
-2
</text>
<text x="30" y="127" fill="black" font-size="13" font-family="Helvetica" font-weight="bold">
10
</text>
<path d="M63,108h -6" fill="none" stroke="black"/>
<path d="M63,100h -6" fill="none" stroke="black"/>
<path d="M63,95h -6" fill="none" stroke="black"/>
<path d="M63,91h -6" fill="none" stroke="black"/>
<path d="M63,87h -6" fill="none" stroke="black"/>
<path d="M63,84h -6" fill="none" stroke="black"/>
<path d="M63,82h -6" fill="none" stroke="black"/>
<path d="M63,79h -6" fill="none" stroke="black"/>
<path d="M70,77h -13" fill="none" stroke="black"/>
<text x="46" y="77" fill="black" font-size="9" font-family="Helvetica" font-weight="bold">
-1
</text>
<text x="31" y="83" fill="black" font-size="13" font-family="Helvetica" font-weight="bold">
10
</text>
<path d="M63,64h -6" fill="none" stroke="black"/>
<path d="M63,56h -6" fill="none" stroke="black"/>
<path d="M63,51h -6" fill="none" stroke="black"/>
<path d="M63,47h -6" fill="none" stroke="black"/>
<path d="M63,43h -6" fill="none" stroke="black"/>
<path d="M63,40h -6" fill="none" stroke="black"/>
<path d="M63,38h -6" fill="none" stroke="black"/>
<path d="M63,36h -6" fill="none" stroke="black"/>
<path d="M435,132v -1" fill="none" stroke="#99ff99" stroke-width="2"/>
<path d="M435,131v -1" fill="none" stroke="#99ff99" stroke-width="2"/>
<g stroke="black" stroke-width="2" fill="none">
<line x1="434" y1="131" x2="435" y2="131"/>
</g>
<path d="M440,114v -1" fill="none" stroke="#99ff99" stroke-width="2"/>
<path d="M440,113" fill="none" stroke="#99ff99" stroke-width="2"/>
<g stroke="black" stroke-width="2" fill="none">
<line x1="439" y1="113" x2="440" y2="113"/>
</g>
<path d="M444,111v -1" fill="none" stroke="#99ff99" stroke-width="2"/>
<path d="M444,110" fill="none" stroke="#99ff99" stroke-width="2"/>
<g stroke="black" stroke-width="2" fill="none">
<line x1="443" y1="110" x2="444" y2="110"/>
</g>
<path d="M449,106" fill="none" stroke="#99ff99" stroke-width="2"/>
<path d="M449,106v -1" fill="none" stroke="#99ff99" stroke-width="2"/>
<g stroke="black" stroke-width="2" fill="none">
<line x1="448" y1="106" x2="449" y2="106"/>
</g>
<path d="M454,102" fill="none" stroke="#99ff99" stroke-width="2"/>
<path d="M454,102v -1" fill="none" stroke="#99ff99" stroke-width="2"/>
<g stroke="black" stroke-width="2" fill="none">
<line x1="453" y1="102" x2="454" y2="102"/>
</g>
<path d="M458,99v -1" fill="none" stroke="#99ff99" stroke-width="2"/>
<path d="M458,98v -1" fill="none" stroke="#99ff99" stroke-width="2"/>
<g stroke="black" stroke-width="2" fill="none">
<line x1="457" y1="98" x2="458" y2="98"/>
</g>
<path d="M463,92v -1" fill="none" stroke="#99ff99" stroke-width="2"/>
<path d="M463,91" fill="none" stroke="#99ff99" stroke-width="2"/>
<g stroke="black" stroke-width="2" fill="none">
<line x1="462" y1="91" x2="463" y2="91"/>
</g>
<path d="M467,89v -1" fill="none" stroke="#99ff99" stroke-width="2"/>
<path d="M467,88" fill="none" stroke="#99ff99" stroke-width="2"/>
<g stroke="black" stroke-width="2" fill="none">
<line x1="466" y1="88" x2="467" y2="88"/>
</g>
<path d="M472,84v -1" fill="none" stroke="#99ff99" stroke-width="2"/>
<path d="M472,83v -1" fill="none" stroke="#99ff99" stroke-width="2"/>
<g stroke="black" stroke-width="2" fill="none">
<line x1="471" y1="83" x2="472" y2="83"/>
</g>
<path d="M476,77v -1" fill="none" stroke="#99ff99" stroke-width="2"/>
<path d="M476,76" fill="none" stroke="#99ff99" stroke-width="2"/>
<g stroke="black" stroke-width="2" fill="none">
<line x1="475" y1="76" x2="476" y2="76"/>
</g>
<path d="M481,69" fill="none" stroke="#99ff99" stroke-width="2"/>
<path d="M481,69" fill="none" stroke="#99ff99" stroke-width="2"/>
<g stroke="black" stroke-width="2" fill="none">
<line x1="480" y1="69" x2="481" y2="69"/>
</g>
<path d="M485,63" fill="none" stroke="#99ff99" stroke-width="2"/>
<path d="M485,63" fill="none" stroke="#99ff99" stroke-width="2"/>
<g stroke="black" stroke-width="2" fill="none">
<line x1="484" y1="63" x2="485" y2="63"/>
</g>
<path d="M490,67" fill="none" stroke="#99ff99" stroke-width="2"/>
<path d="M490,67" fill="none" stroke="#99ff99" stroke-width="2"/>
<g stroke="black" stroke-width="2" fill="none">
<line x1="489" y1="67" x2="490" y2="67"/>
</g>
<path d="M494,93v -1" fill="none" stroke="#99ff99" stroke-width="2"/>
<path d="M494,92v -1" fill="none" stroke="#99ff99" stroke-width="2"/>
<g stroke="black" stroke-width="2" fill="none">
<line x1="493" y1="92" x2="494" y2="92"/>
</g>
<path d="M499,144v -1" fill="none" stroke="#99ff99" stroke-width="2"/>
<path d="M499,143v -1" fill="none" stroke="#99ff99" stroke-width="2"/>
<g stroke="black" stroke-width="2" fill="none">
<line x1="498" y1="143" x2="499" y2="143"/>
</g>
<path d="M503,193v -2" fill="none" stroke="#99ff99" stroke-width="2"/>
<path d="M503,191v -2" fill="none" stroke="#99ff99" stroke-width="2"/>
<g stroke="black" stroke-width="2" fill="none">
<line x1="502" y1="191" x2="503" y2="191"/>
</g>
<path d="M508,233v -4" fill="none" stroke="#99ff99" stroke-width="2"/>
<path d="M508,229v -4" fill="none" stroke="#99ff99" stroke-width="2"/>
<g stroke="black" stroke-width="2" fill="none">
<line x1="507" y1="229" x2="508" y2="229"/>
</g>
<path d="M57,312h 376v -181h 5v -18h 4v -3h 5v -4h 4v -4h 5v -4h 4v -7h 5v -3h 4v -5h 5v -7h 4v -7h 5v -6h 5v 4h 4v 25h 5v 51h 4v 48h 5v 38h 4v 83z" fill="#99ff99"/>
<path d="M57,312h 376v -181h 5v -18h 4v -3h 5v -4h 4v -4h 5v -4h 4v -7h 5v -3h 4v -5h 5v -7h 4v -7h 5v -6h 5v 4h 4v 25h 5v 51h 4v 48h 5v 38h 4" fill="none" stroke="#99ff99" stroke-width="2"/>
<path d="M433,120h 1" fill="none" stroke="#ff0099"/>
<path d="M437,120h 1" fill="none" stroke="#ff0099"/>
<g stroke="#ff0099" stroke-width="1" fill="#ff0099">
<circle cx=" 435" cy=" 120" r=" 1.5"/>
</g>
<path d="M438,103h 1" fill="none" stroke="#ff0099"/>
<path d="M441,103h 1" fill="none" stroke="#ff0099"/>
<g stroke="#ff0099" stroke-width="1" fill="#ff0099">
<circle cx=" 440" cy=" 103" r=" 1.5"/>
</g>
<path d="M442,101h 1" fill="none" stroke="#ff0099"/>
<path d="M446,101h 1" fill="none" stroke="#ff0099"/>
<g stroke="#ff0099" stroke-width="1" fill="#ff0099">
<circle cx=" 444" cy=" 101" r=" 1.5"/>
</g>
<path d="M447,98h 1" fill="none" stroke="#ff0099"/>
<path d="M450,98h 1" fill="none" stroke="#ff0099"/>
<g stroke="#ff0099" stroke-width="1" fill="#ff0099">
<circle cx=" 449" cy=" 98" r=" 1.5"/>
</g>
<path d="M451,94h 1" fill="none" stroke="#ff0099"/>
<path d="M455,94h 1" fill="none" stroke="#ff0099"/>
<g stroke="#ff0099" stroke-width="1" fill="#ff0099">
<circle cx=" 454" cy=" 94" r=" 1.5"/>
</g>
<path d="M456,91h 1" fill="none" stroke="#ff0099"/>
<path d="M459,91h 1" fill="none" stroke="#ff0099"/>
<g stroke="#ff0099" stroke-width="1" fill="#ff0099">
<circle cx=" 458" cy=" 91" r=" 1.5"/>
</g>
<path d="M460,86h 1" fill="none" stroke="#ff0099"/>
<path d="M464,86h 1" fill="none" stroke="#ff0099"/>
<g stroke="#ff0099" stroke-width="1" fill="#ff0099">
<circle cx=" 463" cy=" 86" r=" 1.5"/>
</g>
<path d="M465,83h 1" fill="none" stroke="#ff0099"/>
<path d="M468,83h 1" fill="none" stroke="#ff0099"/>
<g stroke="#ff0099" stroke-width="1" fill="#ff0099">
<circle cx=" 467" cy=" 83" r=" 1.5"/>
</g>
<path d="M469,79h 2" fill="none" stroke="#ff0099"/>
<path d="M473,79h 1" fill="none" stroke="#ff0099"/>
<g stroke="#ff0099" stroke-width="1" fill="#ff0099">
<circle cx=" 472" cy=" 79" r=" 1.5"/>
</g>
<path d="M474,75h 1" fill="none" stroke="#ff0099"/>
<path d="M477,75h 1" fill="none" stroke="#ff0099"/>
<g stroke="#ff0099" stroke-width="1" fill="#ff0099">
<circle cx=" 476" cy=" 75" r=" 1.5"/>
</g>
<path d="M478,69h 2" fill="none" stroke="#ff0099"/>
<path d="M482,69h 1" fill="none" stroke="#ff0099"/>
<g stroke="#ff0099" stroke-width="1" fill="#ff0099">
<circle cx=" 481" cy=" 69" r=" 1.5"/>
</g>
<path d="M483,67h 1" fill="none" stroke="#ff0099"/>
<path d="M486,67h 2" fill="none" stroke="#ff0099"/>
<g stroke="#ff0099" stroke-width="1" fill="#ff0099">
<circle cx=" 485" cy=" 67" r=" 1.5"/>
</g>
<path d="M488,75h 1" fill="none" stroke="#ff0099"/>
<path d="M491,75h 1" fill="none" stroke="#ff0099"/>
<g stroke="#ff0099" stroke-width="1" fill="#ff0099">
<circle cx=" 490" cy=" 75" r=" 1.5"/>
</g>
<path d="M492,103h 1" fill="none" stroke="#ff0099"/>
<path d="M496,103h 1" fill="none" stroke="#ff0099"/>
<g stroke="#ff0099" stroke-width="1" fill="#ff0099">
<circle cx=" 494" cy=" 103" r=" 1.5"/>
</g>
<path d="M499,156v -2" fill="none" stroke="#ff0099"/>
<path d="M499,152v -1" fill="none" stroke="#ff0099"/>
<path d="M497,153h 1" fill="none" stroke="#ff0099"/>
<path d="M500,153h 1" fill="none" stroke="#ff0099"/>
<g stroke="#ff0099" stroke-width="1" fill="#ff0099">
<circle cx=" 499" cy=" 153" r=" 1.5"/>
</g>
<path d="M503,208v -5" fill="none" stroke="#ff0099"/>
<path d="M503,201v -4" fill="none" stroke="#ff0099"/>
<path d="M501,202h 1" fill="none" stroke="#ff0099"/>
<path d="M505,202h 1" fill="none" stroke="#ff0099"/>
<g stroke="#ff0099" stroke-width="1" fill="#ff0099">
<circle cx=" 503" cy=" 202" r=" 1.5"/>
</g>
<path d="M508,217v -7" fill="none" stroke="#ff0099"/>
<path d="M508,208v -5" fill="none" stroke="#ff0099"/>
<path d="M506,209h 1" fill="none" stroke="#ff0099"/>
<path d="M509,209h 1" fill="none" stroke="#ff0099"/>
<g stroke="#ff0099" stroke-width="1" fill="#ff0099">
<circle cx=" 508" cy=" 209" r=" 1.5"/>
</g>
<rect x="357" y="41" width="142" height="70" fill="white"/>
<text x="360" y="58" fill="black" font-size="12" font-family="Helvetica" font-weight="bold">
EB
</text>
<text x="439" y="81" fill="black" font-size="12" font-family="Helvetica" font-weight="bold">
 ee
</text>
<text x="426" y="81" fill="black" font-size="12" font-family="Times">
&#8594;
</text>
<text x="392" y="81" fill="black" font-size="12" font-family="Helvetica" font-weight="bold">
MC Z 
</text>
<path d="M362,76h 25" fill="none" stroke="#ff0099"/>
<g stroke="#ff0099" stroke-width="1" fill="#ff0099">
<circle cx=" 375" cy=" 76" r=" 1.5"/>
</g>
<text x="438" y="102" fill="black" font-size="12" font-family="Helvetica" font-weight="bold">
 + jet
</text>
<text x="431" y="102" fill="black" font-size="12" font-family="Times">
&#0947;
</text>
<text x="392" y="102" fill="black" font-size="12" font-family="Helvetica" font-weight="bold">
signal 
</text>
<path d="M362,107h 25v -16h -25z" fill="#99ff99"/>
<path d="M362,91h 25" fill="none" stroke="#99ff99" stroke-width="2"/>
<path d="M362,107h 25" fill="none" stroke="#99ff99" stroke-width="2"/>
<path d="M387,107v -16" fill="none" stroke="#99ff99" stroke-width="2"/>
<path d="M362,107v -16" fill="none" stroke="#99ff99" stroke-width="2"/>
<text x="252" y="24" fill="black" font-size="12" font-family="Helvetica" font-weight="bold">
=8 TeV
</text>
<text x="246" y="24" fill="black" font-size="12" font-family="Helvetica" font-weight="bold">
s
</text>
<path d="M242,17l 1, 8" fill="none" stroke="black" stroke-width="2"/>
<path d="M243,25l 2, -11" fill="none" stroke="black"/>
<path d="M245,14h 7" fill="none" stroke="black"/>
<text x="142" y="24" fill="black" font-size="12" font-family="Helvetica" font-weight="bold">
CMS Preliminary 
</text>
<rect x="0" y="347" width="567" height="149" fill="white"/>
<rect x="57" y="362" width="453" height="104" fill="white"/>
<rect x="57" y="362" width="453" height="104" fill="none" stroke="black"/>
<rect x="57" y="362" width="453" height="104" fill="white"/>
<rect x="57" y="362" width="453" height="104" fill="none" stroke="black"/>
<path d="M57,466h 453" fill="none" stroke="black"/>
<path d="M57,466v -104" fill="none" stroke="black"/>
<path d="M510,455h -453" fill="none" stroke="black" stroke-dasharray=" 1, 2"/>
<path d="M510,436h -453" fill="none" stroke="black" stroke-dasharray=" 1, 2"/>
<path d="M510,418h -453" fill="none" stroke="black" stroke-dasharray=" 1, 2"/>
<path d="M510,399h -453" fill="none" stroke="black" stroke-dasharray=" 1, 2"/>
<path d="M510,381h -453" fill="none" stroke="black" stroke-dasharray=" 1, 2"/>
<path d="M510,362h -453" fill="none" stroke="black" stroke-dasharray=" 1, 2"/>
<path d="M510,455h -453" fill="none" stroke="black" stroke-dasharray=" 1, 2"/>
<path d="M435,410v -3" fill="none" stroke="#ff0099"/>
<path d="M435,405v -3" fill="none" stroke="#ff0099"/>
<path d="M433,406h 1" fill="none" stroke="#ff0099"/>
<path d="M437,406h 1" fill="none" stroke="#ff0099"/>
<g stroke="#ff0099" stroke-width="1" fill="#ff0099">
<circle cx=" 435" cy=" 406" r=" 1.5"/>
</g>
<path d="M440,413v -1" fill="none" stroke="#ff0099"/>
<path d="M440,410v -1" fill="none" stroke="#ff0099"/>
<path d="M438,411h 1" fill="none" stroke="#ff0099"/>
<path d="M441,411h 1" fill="none" stroke="#ff0099"/>
<g stroke="#ff0099" stroke-width="1" fill="#ff0099">
<circle cx=" 440" cy=" 411" r=" 1.5"/>
</g>
<path d="M444,415" fill="none" stroke="#ff0099"/>
<path d="M444,412v -1" fill="none" stroke="#ff0099"/>
<path d="M442,413h 1" fill="none" stroke="#ff0099"/>
<path d="M446,413h 1" fill="none" stroke="#ff0099"/>
<g stroke="#ff0099" stroke-width="1" fill="#ff0099">
<circle cx=" 444" cy=" 413" r=" 1.5"/>
</g>
<path d="M449,419" fill="none" stroke="#ff0099"/>
<path d="M449,416" fill="none" stroke="#ff0099"/>
<path d="M447,417h 1" fill="none" stroke="#ff0099"/>
<path d="M450,417h 1" fill="none" stroke="#ff0099"/>
<g stroke="#ff0099" stroke-width="1" fill="#ff0099">
<circle cx=" 449" cy=" 417" r=" 1.5"/>
</g>
<path d="M454,419" fill="none" stroke="#ff0099"/>
<path d="M454,416" fill="none" stroke="#ff0099"/>
<path d="M451,418h 1" fill="none" stroke="#ff0099"/>
<path d="M455,418h 1" fill="none" stroke="#ff0099"/>
<g stroke="#ff0099" stroke-width="1" fill="#ff0099">
<circle cx=" 454" cy=" 418" r=" 1.5"/>
</g>
<path d="M458,423v -2" fill="none" stroke="#ff0099"/>
<path d="M458,419v -2" fill="none" stroke="#ff0099"/>
<path d="M456,420h 1" fill="none" stroke="#ff0099"/>
<path d="M459,420h 1" fill="none" stroke="#ff0099"/>
<g stroke="#ff0099" stroke-width="1" fill="#ff0099">
<circle cx=" 458" cy=" 420" r=" 1.5"/>
</g>
<path d="M463,427v -1" fill="none" stroke="#ff0099"/>
<path d="M463,424v -2" fill="none" stroke="#ff0099"/>
<path d="M460,425h 1" fill="none" stroke="#ff0099"/>
<path d="M464,425h 1" fill="none" stroke="#ff0099"/>
<g stroke="#ff0099" stroke-width="1" fill="#ff0099">
<circle cx=" 463" cy=" 425" r=" 1.5"/>
</g>
<path d="M467,427v -1" fill="none" stroke="#ff0099"/>
<path d="M467,424" fill="none" stroke="#ff0099"/>
<path d="M465,425h 1" fill="none" stroke="#ff0099"/>
<path d="M468,425h 1" fill="none" stroke="#ff0099"/>
<g stroke="#ff0099" stroke-width="1" fill="#ff0099">
<circle cx=" 467" cy=" 425" r=" 1.5"/>
</g>
<path d="M472,431v -1" fill="none" stroke="#ff0099"/>
<path d="M472,428v -1" fill="none" stroke="#ff0099"/>
<path d="M469,429h 2" fill="none" stroke="#ff0099"/>
<path d="M473,429h 1" fill="none" stroke="#ff0099"/>
<g stroke="#ff0099" stroke-width="1" fill="#ff0099">
<circle cx=" 472" cy=" 429" r=" 1.5"/>
</g>
<path d="M476,434" fill="none" stroke="#ff0099"/>
<path d="M476,432" fill="none" stroke="#ff0099"/>
<path d="M474,433h 1" fill="none" stroke="#ff0099"/>
<path d="M477,433h 1" fill="none" stroke="#ff0099"/>
<g stroke="#ff0099" stroke-width="1" fill="#ff0099">
<circle cx=" 476" cy=" 433" r=" 1.5"/>
</g>
<path d="M478,437h 2" fill="none" stroke="#ff0099"/>
<path d="M482,437h 1" fill="none" stroke="#ff0099"/>
<g stroke="#ff0099" stroke-width="1" fill="#ff0099">
<circle cx=" 481" cy=" 437" r=" 1.5"/>
</g>
<path d="M483,444h 1" fill="none" stroke="#ff0099"/>
<path d="M486,444h 2" fill="none" stroke="#ff0099"/>
<g stroke="#ff0099" stroke-width="1" fill="#ff0099">
<circle cx=" 485" cy=" 444" r=" 1.5"/>
</g>
<path d="M488,450h 1" fill="none" stroke="#ff0099"/>
<path d="M491,450h 1" fill="none" stroke="#ff0099"/>
<g stroke="#ff0099" stroke-width="1" fill="#ff0099">
<circle cx=" 490" cy=" 450" r=" 1.5"/>
</g>
<path d="M494,454" fill="none" stroke="#ff0099"/>
<path d="M494,452" fill="none" stroke="#ff0099"/>
<path d="M492,453h 1" fill="none" stroke="#ff0099"/>
<path d="M496,453h 1" fill="none" stroke="#ff0099"/>
<g stroke="#ff0099" stroke-width="1" fill="#ff0099">
<circle cx=" 494" cy=" 453" r=" 1.5"/>
</g>
<path d="M499,455v -2" fill="none" stroke="#ff0099"/>
<path d="M499,451v -3" fill="none" stroke="#ff0099"/>
<path d="M497,452h 1" fill="none" stroke="#ff0099"/>
<path d="M500,452h 1" fill="none" stroke="#ff0099"/>
<g stroke="#ff0099" stroke-width="1" fill="#ff0099">
<circle cx=" 499" cy=" 452" r=" 1.5"/>
</g>
<path d="M503,459v -5" fill="none" stroke="#ff0099"/>
<path d="M503,452v -6" fill="none" stroke="#ff0099"/>
<path d="M501,453h 1" fill="none" stroke="#ff0099"/>
<path d="M505,453h 1" fill="none" stroke="#ff0099"/>
<g stroke="#ff0099" stroke-width="1" fill="#ff0099">
<circle cx=" 503" cy=" 453" r=" 1.5"/>
</g>
<path d="M508,411v -41" fill="none" stroke="#ff0099"/>
<path d="M508,367v -5" fill="none" stroke="#ff0099"/>
<path d="M506,368h 1" fill="none" stroke="#ff0099"/>
<path d="M509,368h 1" fill="none" stroke="#ff0099"/>
<g stroke="#ff0099" stroke-width="1" fill="#ff0099">
<circle cx=" 508" cy=" 368" r=" 1.5"/>
</g>
<path d="M57,466h 453" fill="none" stroke="black"/>
<text x="447" y="488" fill="black" font-size="11" font-family="Helvetica" font-weight="bold">
 MVA output
</text>
<text x="442" y="488" fill="black" font-size="11" font-family="Times">
&#0947;
</text>
<path d="M57,463v 3" fill="none" stroke="black"/>
<path d="M66,464v 2" fill="none" stroke="black"/>
<path d="M75,464v 2" fill="none" stroke="black"/>
<path d="M84,464v 2" fill="none" stroke="black"/>
<path d="M93,464v 2" fill="none" stroke="black"/>
<path d="M102,463v 3" fill="none" stroke="black"/>
<path d="M111,464v 2" fill="none" stroke="black"/>
<path d="M120,464v 2" fill="none" stroke="black"/>
<path d="M129,464v 2" fill="none" stroke="black"/>
<path d="M138,464v 2" fill="none" stroke="black"/>
<path d="M147,463v 3" fill="none" stroke="black"/>
<path d="M156,464v 2" fill="none" stroke="black"/>
<path d="M166,464v 2" fill="none" stroke="black"/>
<path d="M175,464v 2" fill="none" stroke="black"/>
<path d="M184,464v 2" fill="none" stroke="black"/>
<path d="M193,463v 3" fill="none" stroke="black"/>
<path d="M202,464v 2" fill="none" stroke="black"/>
<path d="M211,464v 2" fill="none" stroke="black"/>
<path d="M220,464v 2" fill="none" stroke="black"/>
<path d="M229,464v 2" fill="none" stroke="black"/>
<path d="M238,463v 3" fill="none" stroke="black"/>
<path d="M247,464v 2" fill="none" stroke="black"/>
<path d="M256,464v 2" fill="none" stroke="black"/>
<path d="M265,464v 2" fill="none" stroke="black"/>
<path d="M274,464v 2" fill="none" stroke="black"/>
<path d="M283,463v 3" fill="none" stroke="black"/>
<path d="M293,464v 2" fill="none" stroke="black"/>
<path d="M302,464v 2" fill="none" stroke="black"/>
<path d="M311,464v 2" fill="none" stroke="black"/>
<path d="M320,464v 2" fill="none" stroke="black"/>
<path d="M329,463v 3" fill="none" stroke="black"/>
<path d="M338,464v 2" fill="none" stroke="black"/>
<path d="M347,464v 2" fill="none" stroke="black"/>
<path d="M356,464v 2" fill="none" stroke="black"/>
<path d="M365,464v 2" fill="none" stroke="black"/>
<path d="M374,463v 3" fill="none" stroke="black"/>
<path d="M383,464v 2" fill="none" stroke="black"/>
<path d="M392,464v 2" fill="none" stroke="black"/>
<path d="M401,464v 2" fill="none" stroke="black"/>
<path d="M410,464v 2" fill="none" stroke="black"/>
<path d="M420,463v 3" fill="none" stroke="black"/>
<path d="M429,464v 2" fill="none" stroke="black"/>
<path d="M438,464v 2" fill="none" stroke="black"/>
<path d="M447,464v 2" fill="none" stroke="black"/>
<path d="M456,464v 2" fill="none" stroke="black"/>
<path d="M465,463v 3" fill="none" stroke="black"/>
<path d="M474,464v 2" fill="none" stroke="black"/>
<path d="M483,464v 2" fill="none" stroke="black"/>
<path d="M492,464v 2" fill="none" stroke="black"/>
<path d="M501,464v 2" fill="none" stroke="black"/>
<path d="M510,463v 3" fill="none" stroke="black"/>
<text x="54" y="475" fill="black" font-size="10" font-family="Helvetica" font-weight="bold">
0
</text>
<text x="96" y="475" fill="black" font-size="10" font-family="Helvetica" font-weight="bold">
0.1
</text>
<text x="140" y="475" fill="black" font-size="10" font-family="Helvetica" font-weight="bold">
0.2
</text>
<text x="186" y="475" fill="black" font-size="10" font-family="Helvetica" font-weight="bold">
0.3
</text>
<text x="231" y="475" fill="black" font-size="10" font-family="Helvetica" font-weight="bold">
0.4
</text>
<text x="277" y="475" fill="black" font-size="10" font-family="Helvetica" font-weight="bold">
0.5
</text>
<text x="322" y="475" fill="black" font-size="10" font-family="Helvetica" font-weight="bold">
0.6
</text>
<text x="367" y="475" fill="black" font-size="10" font-family="Helvetica" font-weight="bold">
0.7
</text>
<text x="413" y="475" fill="black" font-size="10" font-family="Helvetica" font-weight="bold">
0.8
</text>
<text x="458" y="475" fill="black" font-size="10" font-family="Helvetica" font-weight="bold">
0.9
</text>
<text x="508" y="475" fill="black" font-size="10" font-family="Helvetica" font-weight="bold">
1
</text>
<path d="M57,466v -104" fill="none" stroke="black"/>
<g transform="rotate(-90,34,365)">
<text x="34" y="365" fill="black" font-size="11" font-family="Helvetica" font-weight="bold">
)
</text>
</g>
<g transform="rotate(-90,34,371)">
<text x="34" y="371" fill="black" font-size="11" font-family="Times">
&#0947;
</text>
</g>
<g transform="rotate(-90,34,424)">
<text x="34" y="424" fill="black" font-size="11" font-family="Helvetica" font-weight="bold">
MC(e)/MC(
</text>
</g>
<path d="M69,455h -12" fill="none" stroke="black"/>
<path d="M63,451h -6" fill="none" stroke="black"/>
<path d="M63,448h -6" fill="none" stroke="black"/>
<path d="M63,444h -6" fill="none" stroke="black"/>
<path d="M63,440h -6" fill="none" stroke="black"/>
<path d="M69,436h -12" fill="none" stroke="black"/>
<path d="M63,433h -6" fill="none" stroke="black"/>
<path d="M63,429h -6" fill="none" stroke="black"/>
<path d="M63,425h -6" fill="none" stroke="black"/>
<path d="M63,422h -6" fill="none" stroke="black"/>
<path d="M69,418h -12" fill="none" stroke="black"/>
<path d="M63,414h -6" fill="none" stroke="black"/>
<path d="M63,410h -6" fill="none" stroke="black"/>
<path d="M63,407h -6" fill="none" stroke="black"/>
<path d="M63,403h -6" fill="none" stroke="black"/>
<path d="M69,399h -12" fill="none" stroke="black"/>
<path d="M63,395h -6" fill="none" stroke="black"/>
<path d="M63,392h -6" fill="none" stroke="black"/>
<path d="M63,388h -6" fill="none" stroke="black"/>
<path d="M63,384h -6" fill="none" stroke="black"/>
<path d="M69,381h -12" fill="none" stroke="black"/>
<path d="M63,377h -6" fill="none" stroke="black"/>
<path d="M63,373h -6" fill="none" stroke="black"/>
<path d="M63,369h -6" fill="none" stroke="black"/>
<path d="M63,366h -6" fill="none" stroke="black"/>
<path d="M69,362h -12" fill="none" stroke="black"/>
<path d="M69,455h -12" fill="none" stroke="black"/>
<path d="M63,459h -6" fill="none" stroke="black"/>
<path d="M63,462h -6" fill="none" stroke="black"/>
<path d="M63,466h -6" fill="none" stroke="black"/>
<text x="40" y="459" fill="black" font-size="10" font-family="Helvetica" font-weight="bold">
0.5
</text>
<text x="50" y="440" fill="black" font-size="10" font-family="Helvetica" font-weight="bold">
1
</text>
<text x="40" y="421" fill="black" font-size="10" font-family="Helvetica" font-weight="bold">
1.5
</text>
<text x="48" y="403" fill="black" font-size="10" font-family="Helvetica" font-weight="bold">
2
</text>
<text x="40" y="384" fill="black" font-size="10" font-family="Helvetica" font-weight="bold">
2.5
</text>
<text x="48" y="366" fill="black" font-size="10" font-family="Helvetica" font-weight="bold">
3
</text>
<path d="M57,436h 453" fill="none" stroke="#0000ff" stroke-width="2"/>
<path d="M435,410v -3" fill="none" stroke="#ff0099"/>
<path d="M435,405v -3" fill="none" stroke="#ff0099"/>
<path d="M433,406h 1" fill="none" stroke="#ff0099"/>
<path d="M437,406h 1" fill="none" stroke="#ff0099"/>
<g stroke="#ff0099" stroke-width="1" fill="#ff0099">
<circle cx=" 435" cy=" 406" r=" 1.5"/>
</g>
<path d="M440,413v -1" fill="none" stroke="#ff0099"/>
<path d="M440,410v -1" fill="none" stroke="#ff0099"/>
<path d="M438,411h 1" fill="none" stroke="#ff0099"/>
<path d="M441,411h 1" fill="none" stroke="#ff0099"/>
<g stroke="#ff0099" stroke-width="1" fill="#ff0099">
<circle cx=" 440" cy=" 411" r=" 1.5"/>
</g>
<path d="M444,415" fill="none" stroke="#ff0099"/>
<path d="M444,412v -1" fill="none" stroke="#ff0099"/>
<path d="M442,413h 1" fill="none" stroke="#ff0099"/>
<path d="M446,413h 1" fill="none" stroke="#ff0099"/>
<g stroke="#ff0099" stroke-width="1" fill="#ff0099">
<circle cx=" 444" cy=" 413" r=" 1.5"/>
</g>
<path d="M449,419" fill="none" stroke="#ff0099"/>
<path d="M449,416" fill="none" stroke="#ff0099"/>
<path d="M447,417h 1" fill="none" stroke="#ff0099"/>
<path d="M450,417h 1" fill="none" stroke="#ff0099"/>
<g stroke="#ff0099" stroke-width="1" fill="#ff0099">
<circle cx=" 449" cy=" 417" r=" 1.5"/>
</g>
<path d="M454,419" fill="none" stroke="#ff0099"/>
<path d="M454,416" fill="none" stroke="#ff0099"/>
<path d="M451,418h 1" fill="none" stroke="#ff0099"/>
<path d="M455,418h 1" fill="none" stroke="#ff0099"/>
<g stroke="#ff0099" stroke-width="1" fill="#ff0099">
<circle cx=" 454" cy=" 418" r=" 1.5"/>
</g>
<path d="M458,423v -2" fill="none" stroke="#ff0099"/>
<path d="M458,419v -2" fill="none" stroke="#ff0099"/>
<path d="M456,420h 1" fill="none" stroke="#ff0099"/>
<path d="M459,420h 1" fill="none" stroke="#ff0099"/>
<g stroke="#ff0099" stroke-width="1" fill="#ff0099">
<circle cx=" 458" cy=" 420" r=" 1.5"/>
</g>
<path d="M463,427v -1" fill="none" stroke="#ff0099"/>
<path d="M463,424v -2" fill="none" stroke="#ff0099"/>
<path d="M460,425h 1" fill="none" stroke="#ff0099"/>
<path d="M464,425h 1" fill="none" stroke="#ff0099"/>
<g stroke="#ff0099" stroke-width="1" fill="#ff0099">
<circle cx=" 463" cy=" 425" r=" 1.5"/>
</g>
<path d="M467,427v -1" fill="none" stroke="#ff0099"/>
<path d="M467,424" fill="none" stroke="#ff0099"/>
<path d="M465,425h 1" fill="none" stroke="#ff0099"/>
<path d="M468,425h 1" fill="none" stroke="#ff0099"/>
<g stroke="#ff0099" stroke-width="1" fill="#ff0099">
<circle cx=" 467" cy=" 425" r=" 1.5"/>
</g>
<path d="M472,431v -1" fill="none" stroke="#ff0099"/>
<path d="M472,428v -1" fill="none" stroke="#ff0099"/>
<path d="M469,429h 2" fill="none" stroke="#ff0099"/>
<path d="M473,429h 1" fill="none" stroke="#ff0099"/>
<g stroke="#ff0099" stroke-width="1" fill="#ff0099">
<circle cx=" 472" cy=" 429" r=" 1.5"/>
</g>
<path d="M476,434" fill="none" stroke="#ff0099"/>
<path d="M476,432" fill="none" stroke="#ff0099"/>
<path d="M474,433h 1" fill="none" stroke="#ff0099"/>
<path d="M477,433h 1" fill="none" stroke="#ff0099"/>
<g stroke="#ff0099" stroke-width="1" fill="#ff0099">
<circle cx=" 476" cy=" 433" r=" 1.5"/>
</g>
<path d="M478,437h 2" fill="none" stroke="#ff0099"/>
<path d="M482,437h 1" fill="none" stroke="#ff0099"/>
<g stroke="#ff0099" stroke-width="1" fill="#ff0099">
<circle cx=" 481" cy=" 437" r=" 1.5"/>
</g>
<path d="M483,444h 1" fill="none" stroke="#ff0099"/>
<path d="M486,444h 2" fill="none" stroke="#ff0099"/>
<g stroke="#ff0099" stroke-width="1" fill="#ff0099">
<circle cx=" 485" cy=" 444" r=" 1.5"/>
</g>
<path d="M488,450h 1" fill="none" stroke="#ff0099"/>
<path d="M491,450h 1" fill="none" stroke="#ff0099"/>
<g stroke="#ff0099" stroke-width="1" fill="#ff0099">
<circle cx=" 490" cy=" 450" r=" 1.5"/>
</g>
<path d="M494,454" fill="none" stroke="#ff0099"/>
<path d="M494,452" fill="none" stroke="#ff0099"/>
<path d="M492,453h 1" fill="none" stroke="#ff0099"/>
<path d="M496,453h 1" fill="none" stroke="#ff0099"/>
<g stroke="#ff0099" stroke-width="1" fill="#ff0099">
<circle cx=" 494" cy=" 453" r=" 1.5"/>
</g>
<path d="M499,455v -2" fill="none" stroke="#ff0099"/>
<path d="M499,451v -3" fill="none" stroke="#ff0099"/>
<path d="M497,452h 1" fill="none" stroke="#ff0099"/>
<path d="M500,452h 1" fill="none" stroke="#ff0099"/>
<g stroke="#ff0099" stroke-width="1" fill="#ff0099">
<circle cx=" 499" cy=" 452" r=" 1.5"/>
</g>
<path d="M503,459v -5" fill="none" stroke="#ff0099"/>
<path d="M503,452v -6" fill="none" stroke="#ff0099"/>
<path d="M501,453h 1" fill="none" stroke="#ff0099"/>
<path d="M505,453h 1" fill="none" stroke="#ff0099"/>
<g stroke="#ff0099" stroke-width="1" fill="#ff0099">
<circle cx=" 503" cy=" 453" r=" 1.5"/>
</g>
<path d="M508,411v -41" fill="none" stroke="#ff0099"/>
<path d="M508,367v -5" fill="none" stroke="#ff0099"/>
<path d="M506,368h 1" fill="none" stroke="#ff0099"/>
<path d="M509,368h 1" fill="none" stroke="#ff0099"/>
<g stroke="#ff0099" stroke-width="1" fill="#ff0099">
<circle cx=" 508" cy=" 368" r=" 1.5"/>
</g></svg>
