<?xml version="1.0" standalone="no"?>
<svg width="567" height="496" viewBox="0 0 567 496" xmlns="http://www.w3.org/2000/svg">
<title>
../src/TagAndProbeZ/plots_dataZee_mcGJet_withEtaR9rhoReweight/hlt150//etaPhotEE.svg
</title>
<desc>
Creator: ROOT Version 5.32/00
CreationDate: Tue Dec  2 08:48:21 2014</desc>
<defs>
</defs>
<rect x="0" y="0" width="567" height="496" fill="white"/>
<rect x="74" y="44" width="453" height="402" fill="white"/>
<rect x="74" y="44" width="453" height="402" fill="none" stroke="black"/>
<rect x="74" y="44" width="453" height="402" fill="white"/>
<rect x="74" y="44" width="453" height="402" fill="none" stroke="black"/>
<path d="M111,401h 3" fill="none" stroke="#ff0099"/>
<path d="M116,401h 3" fill="none" stroke="#ff0099"/>
<g stroke="#ff0099" stroke-width="1" fill="#ff0099">
<circle cx=" 115" cy=" 401" r=" 1.5"/>
</g>
<path d="M123,377v -1" fill="none" stroke="#ff0099"/>
<path d="M123,374" fill="none" stroke="#ff0099"/>
<path d="M119,375h 3" fill="none" stroke="#ff0099"/>
<path d="M124,375h 3" fill="none" stroke="#ff0099"/>
<g stroke="#ff0099" stroke-width="1" fill="#ff0099">
<circle cx=" 123" cy=" 375" r=" 1.5"/>
</g>
<path d="M130,378v -1" fill="none" stroke="#ff0099"/>
<path d="M130,375v -1" fill="none" stroke="#ff0099"/>
<path d="M127,376h 2" fill="none" stroke="#ff0099"/>
<path d="M132,376h 2" fill="none" stroke="#ff0099"/>
<g stroke="#ff0099" stroke-width="1" fill="#ff0099">
<circle cx=" 130" cy=" 376" r=" 1.5"/>
</g>
<path d="M138,376v -1" fill="none" stroke="#ff0099"/>
<path d="M138,373v -1" fill="none" stroke="#ff0099"/>
<path d="M134,374h 3" fill="none" stroke="#ff0099"/>
<path d="M139,374h 3" fill="none" stroke="#ff0099"/>
<g stroke="#ff0099" stroke-width="1" fill="#ff0099">
<circle cx=" 138" cy=" 374" r=" 1.5"/>
</g>
<path d="M146,397" fill="none" stroke="#ff0099"/>
<path d="M146,395v -1" fill="none" stroke="#ff0099"/>
<path d="M142,396h 2" fill="none" stroke="#ff0099"/>
<path d="M147,396h 2" fill="none" stroke="#ff0099"/>
<g stroke="#ff0099" stroke-width="1" fill="#ff0099">
<circle cx=" 146" cy=" 396" r=" 1.5"/>
</g>
<path d="M153,88v -5" fill="none" stroke="#ff0099"/>
<path d="M153,81v -5" fill="none" stroke="#ff0099"/>
<path d="M149,82h 3" fill="none" stroke="#ff0099"/>
<path d="M154,82h 3" fill="none" stroke="#ff0099"/>
<g stroke="#ff0099" stroke-width="1" fill="#ff0099">
<circle cx=" 153" cy=" 82" r=" 1.5"/>
</g>
<path d="M161,171v -5" fill="none" stroke="#ff0099"/>
<path d="M161,164v -4" fill="none" stroke="#ff0099"/>
<path d="M157,165h 2" fill="none" stroke="#ff0099"/>
<path d="M162,165h 2" fill="none" stroke="#ff0099"/>
<g stroke="#ff0099" stroke-width="1" fill="#ff0099">
<circle cx=" 161" cy=" 165" r=" 1.5"/>
</g>
<path d="M168,215v -4" fill="none" stroke="#ff0099"/>
<path d="M168,209v -3" fill="none" stroke="#ff0099"/>
<path d="M164,210h 3" fill="none" stroke="#ff0099"/>
<path d="M169,210h 3" fill="none" stroke="#ff0099"/>
<g stroke="#ff0099" stroke-width="1" fill="#ff0099">
<circle cx=" 168" cy=" 210" r=" 1.5"/>
</g>
<path d="M176,137v -7" fill="none" stroke="#ff0099"/>
<path d="M176,128v -7" fill="none" stroke="#ff0099"/>
<path d="M172,129h 3" fill="none" stroke="#ff0099"/>
<path d="M177,129h 3" fill="none" stroke="#ff0099"/>
<g stroke="#ff0099" stroke-width="1" fill="#ff0099">
<circle cx=" 176" cy=" 129" r=" 1.5"/>
</g>
<path d="M183,326v -5" fill="none" stroke="#ff0099"/>
<path d="M183,319v -4" fill="none" stroke="#ff0099"/>
<path d="M180,320h 2" fill="none" stroke="#ff0099"/>
<path d="M184,320h 3" fill="none" stroke="#ff0099"/>
<g stroke="#ff0099" stroke-width="1" fill="#ff0099">
<circle cx=" 183" cy=" 320" r=" 1.5"/>
</g>
<path d="M418,325v -4" fill="none" stroke="#ff0099"/>
<path d="M418,319v -5" fill="none" stroke="#ff0099"/>
<path d="M414,320h 2" fill="none" stroke="#ff0099"/>
<path d="M419,320h 2" fill="none" stroke="#ff0099"/>
<g stroke="#ff0099" stroke-width="1" fill="#ff0099">
<circle cx=" 418" cy=" 320" r=" 1.5"/>
</g>
<path d="M425,149v -6" fill="none" stroke="#ff0099"/>
<path d="M425,140v -6" fill="none" stroke="#ff0099"/>
<path d="M421,142h 3" fill="none" stroke="#ff0099"/>
<path d="M426,142h 3" fill="none" stroke="#ff0099"/>
<g stroke="#ff0099" stroke-width="1" fill="#ff0099">
<circle cx=" 425" cy=" 142" r=" 1.5"/>
</g>
<path d="M433,206v -4" fill="none" stroke="#ff0099"/>
<path d="M433,200v -4" fill="none" stroke="#ff0099"/>
<path d="M429,201h 3" fill="none" stroke="#ff0099"/>
<path d="M434,201h 3" fill="none" stroke="#ff0099"/>
<g stroke="#ff0099" stroke-width="1" fill="#ff0099">
<circle cx=" 433" cy=" 201" r=" 1.5"/>
</g>
<path d="M440,171v -4" fill="none" stroke="#ff0099"/>
<path d="M440,165v -4" fill="none" stroke="#ff0099"/>
<path d="M437,166h 2" fill="none" stroke="#ff0099"/>
<path d="M441,166h 3" fill="none" stroke="#ff0099"/>
<g stroke="#ff0099" stroke-width="1" fill="#ff0099">
<circle cx=" 440" cy=" 166" r=" 1.5"/>
</g>
<path d="M448,76v -5" fill="none" stroke="#ff0099"/>
<path d="M448,68v -5" fill="none" stroke="#ff0099"/>
<path d="M444,70h 3" fill="none" stroke="#ff0099"/>
<path d="M449,70h 3" fill="none" stroke="#ff0099"/>
<g stroke="#ff0099" stroke-width="1" fill="#ff0099">
<circle cx=" 448" cy=" 70" r=" 1.5"/>
</g>
<path d="M455,397" fill="none" stroke="#ff0099"/>
<path d="M455,395" fill="none" stroke="#ff0099"/>
<path d="M452,396h 2" fill="none" stroke="#ff0099"/>
<path d="M457,396h 2" fill="none" stroke="#ff0099"/>
<g stroke="#ff0099" stroke-width="1" fill="#ff0099">
<circle cx=" 455" cy=" 396" r=" 1.5"/>
</g>
<path d="M463,385" fill="none" stroke="#ff0099"/>
<path d="M463,382" fill="none" stroke="#ff0099"/>
<path d="M459,383h 3" fill="none" stroke="#ff0099"/>
<path d="M464,383h 3" fill="none" stroke="#ff0099"/>
<g stroke="#ff0099" stroke-width="1" fill="#ff0099">
<circle cx=" 463" cy=" 383" r=" 1.5"/>
</g>
<path d="M471,386" fill="none" stroke="#ff0099"/>
<path d="M471,383" fill="none" stroke="#ff0099"/>
<path d="M467,384h 2" fill="none" stroke="#ff0099"/>
<path d="M472,384h 2" fill="none" stroke="#ff0099"/>
<g stroke="#ff0099" stroke-width="1" fill="#ff0099">
<circle cx=" 471" cy=" 384" r=" 1.5"/>
</g>
<path d="M478,382v -1" fill="none" stroke="#ff0099"/>
<path d="M478,379" fill="none" stroke="#ff0099"/>
<path d="M474,380h 3" fill="none" stroke="#ff0099"/>
<path d="M479,380h 3" fill="none" stroke="#ff0099"/>
<g stroke="#ff0099" stroke-width="1" fill="#ff0099">
<circle cx=" 478" cy=" 380" r=" 1.5"/>
</g>
<path d="M482,406h 3" fill="none" stroke="#ff0099"/>
<path d="M487,406h 2" fill="none" stroke="#ff0099"/>
<g stroke="#ff0099" stroke-width="1" fill="#ff0099">
<circle cx=" 486" cy=" 406" r=" 1.5"/>
</g>
<path d="M74,446h 453" fill="none" stroke="black"/>
<path d="M74,434v 12" fill="none" stroke="black"/>
<path d="M89,440v 6" fill="none" stroke="black"/>
<path d="M104,440v 6" fill="none" stroke="black"/>
<path d="M119,440v 6" fill="none" stroke="black"/>
<path d="M134,440v 6" fill="none" stroke="black"/>
<path d="M149,434v 12" fill="none" stroke="black"/>
<path d="M164,440v 6" fill="none" stroke="black"/>
<path d="M180,440v 6" fill="none" stroke="black"/>
<path d="M195,440v 6" fill="none" stroke="black"/>
<path d="M210,440v 6" fill="none" stroke="black"/>
<path d="M225,434v 12" fill="none" stroke="black"/>
<path d="M240,440v 6" fill="none" stroke="black"/>
<path d="M255,440v 6" fill="none" stroke="black"/>
<path d="M270,440v 6" fill="none" stroke="black"/>
<path d="M285,440v 6" fill="none" stroke="black"/>
<path d="M300,434v 12" fill="none" stroke="black"/>
<path d="M316,440v 6" fill="none" stroke="black"/>
<path d="M331,440v 6" fill="none" stroke="black"/>
<path d="M346,440v 6" fill="none" stroke="black"/>
<path d="M361,440v 6" fill="none" stroke="black"/>
<path d="M376,434v 12" fill="none" stroke="black"/>
<path d="M391,440v 6" fill="none" stroke="black"/>
<path d="M406,440v 6" fill="none" stroke="black"/>
<path d="M421,440v 6" fill="none" stroke="black"/>
<path d="M437,440v 6" fill="none" stroke="black"/>
<path d="M452,434v 12" fill="none" stroke="black"/>
<path d="M467,440v 6" fill="none" stroke="black"/>
<path d="M482,440v 6" fill="none" stroke="black"/>
<path d="M497,440v 6" fill="none" stroke="black"/>
<path d="M512,440v 6" fill="none" stroke="black"/>
<path d="M527,434v 12" fill="none" stroke="black"/>
<path d="M527,434v 12" fill="none" stroke="black"/>
<text x="65" y="465" fill="black" font-size="18" font-family="Helvetica" font-weight="bold">
-3
</text>
<text x="141" y="465" fill="black" font-size="18" font-family="Helvetica" font-weight="bold">
-2
</text>
<text x="218" y="465" fill="black" font-size="18" font-family="Helvetica" font-weight="bold">
-1
</text>
<text x="295" y="465" fill="black" font-size="18" font-family="Helvetica" font-weight="bold">
0
</text>
<text x="372" y="465" fill="black" font-size="18" font-family="Helvetica" font-weight="bold">
1
</text>
<text x="446" y="465" fill="black" font-size="18" font-family="Helvetica" font-weight="bold">
2
</text>
<text x="522" y="465" fill="black" font-size="18" font-family="Helvetica" font-weight="bold">
3
</text>
<path d="M74,44h 453" fill="none" stroke="black"/>
<path d="M74,56v -12" fill="none" stroke="black"/>
<path d="M89,50v -6" fill="none" stroke="black"/>
<path d="M104,50v -6" fill="none" stroke="black"/>
<path d="M119,50v -6" fill="none" stroke="black"/>
<path d="M134,50v -6" fill="none" stroke="black"/>
<path d="M149,56v -12" fill="none" stroke="black"/>
<path d="M164,50v -6" fill="none" stroke="black"/>
<path d="M180,50v -6" fill="none" stroke="black"/>
<path d="M195,50v -6" fill="none" stroke="black"/>
<path d="M210,50v -6" fill="none" stroke="black"/>
<path d="M225,56v -12" fill="none" stroke="black"/>
<path d="M240,50v -6" fill="none" stroke="black"/>
<path d="M255,50v -6" fill="none" stroke="black"/>
<path d="M270,50v -6" fill="none" stroke="black"/>
<path d="M285,50v -6" fill="none" stroke="black"/>
<path d="M300,56v -12" fill="none" stroke="black"/>
<path d="M316,50v -6" fill="none" stroke="black"/>
<path d="M331,50v -6" fill="none" stroke="black"/>
<path d="M346,50v -6" fill="none" stroke="black"/>
<path d="M361,50v -6" fill="none" stroke="black"/>
<path d="M376,56v -12" fill="none" stroke="black"/>
<path d="M391,50v -6" fill="none" stroke="black"/>
<path d="M406,50v -6" fill="none" stroke="black"/>
<path d="M421,50v -6" fill="none" stroke="black"/>
<path d="M437,50v -6" fill="none" stroke="black"/>
<path d="M452,56v -12" fill="none" stroke="black"/>
<path d="M467,50v -6" fill="none" stroke="black"/>
<path d="M482,50v -6" fill="none" stroke="black"/>
<path d="M497,50v -6" fill="none" stroke="black"/>
<path d="M512,50v -6" fill="none" stroke="black"/>
<path d="M527,56v -12" fill="none" stroke="black"/>
<path d="M527,56v -12" fill="none" stroke="black"/>
<path d="M74,446v -402" fill="none" stroke="black"/>
<path d="M87,446h -13" fill="none" stroke="black"/>
<path d="M81,430h -7" fill="none" stroke="black"/>
<path d="M81,414h -7" fill="none" stroke="black"/>
<path d="M81,398h -7" fill="none" stroke="black"/>
<path d="M87,381h -13" fill="none" stroke="black"/>
<path d="M81,365h -7" fill="none" stroke="black"/>
<path d="M81,349h -7" fill="none" stroke="black"/>
<path d="M81,333h -7" fill="none" stroke="black"/>
<path d="M87,316h -13" fill="none" stroke="black"/>
<path d="M81,300h -7" fill="none" stroke="black"/>
<path d="M81,284h -7" fill="none" stroke="black"/>
<path d="M81,268h -7" fill="none" stroke="black"/>
<path d="M87,251h -13" fill="none" stroke="black"/>
<path d="M81,235h -7" fill="none" stroke="black"/>
<path d="M81,219h -7" fill="none" stroke="black"/>
<path d="M81,203h -7" fill="none" stroke="black"/>
<path d="M87,186h -13" fill="none" stroke="black"/>
<path d="M81,170h -7" fill="none" stroke="black"/>
<path d="M81,154h -7" fill="none" stroke="black"/>
<path d="M81,138h -7" fill="none" stroke="black"/>
<path d="M87,121h -13" fill="none" stroke="black"/>
<path d="M81,105h -7" fill="none" stroke="black"/>
<path d="M81,89h -7" fill="none" stroke="black"/>
<path d="M81,73h -7" fill="none" stroke="black"/>
<path d="M87,56h -13" fill="none" stroke="black"/>
<path d="M87,56h -13" fill="none" stroke="black"/>
<text x="61" y="453" fill="black" font-size="18" font-family="Helvetica" font-weight="bold">
0
</text>
<text x="35" y="388" fill="black" font-size="18" font-family="Helvetica" font-weight="bold">
0.02
</text>
<text x="34" y="323" fill="black" font-size="18" font-family="Helvetica" font-weight="bold">
0.04
</text>
<text x="34" y="258" fill="black" font-size="18" font-family="Helvetica" font-weight="bold">
0.06
</text>
<text x="35" y="193" fill="black" font-size="18" font-family="Helvetica" font-weight="bold">
0.08
</text>
<text x="47" y="128" fill="black" font-size="18" font-family="Helvetica" font-weight="bold">
0.1
</text>
<text x="35" y="63" fill="black" font-size="18" font-family="Helvetica" font-weight="bold">
0.12
</text>
<path d="M115,367v -1" fill="none" stroke="#99ff99" stroke-width="2"/>
<path d="M115,366v -1" fill="none" stroke="#99ff99" stroke-width="2"/>
<g stroke="black" stroke-width="2" fill="none">
<line x1="114" y1="366" x2="115" y2="366"/>
</g>
<path d="M123,338v -2" fill="none" stroke="#99ff99" stroke-width="2"/>
<path d="M123,336v -3" fill="none" stroke="#99ff99" stroke-width="2"/>
<g stroke="black" stroke-width="2" fill="none">
<line x1="122" y1="336" x2="123" y2="336"/>
</g>
<path d="M130,315v -4" fill="none" stroke="#99ff99" stroke-width="2"/>
<path d="M130,311v -3" fill="none" stroke="#99ff99" stroke-width="2"/>
<g stroke="black" stroke-width="2" fill="none">
<line x1="129" y1="311" x2="130" y2="311"/>
</g>
<path d="M138,292v -4" fill="none" stroke="#99ff99" stroke-width="2"/>
<path d="M138,288v -4" fill="none" stroke="#99ff99" stroke-width="2"/>
<g stroke="black" stroke-width="2" fill="none">
<line x1="137" y1="288" x2="138" y2="288"/>
</g>
<path d="M146,271v -4" fill="none" stroke="#99ff99" stroke-width="2"/>
<path d="M146,267v -3" fill="none" stroke="#99ff99" stroke-width="2"/>
<g stroke="black" stroke-width="2" fill="none">
<line x1="145" y1="267" x2="146" y2="267"/>
</g>
<path d="M153,250v -4" fill="none" stroke="#99ff99" stroke-width="2"/>
<path d="M153,246v -4" fill="none" stroke="#99ff99" stroke-width="2"/>
<g stroke="black" stroke-width="2" fill="none">
<line x1="152" y1="246" x2="153" y2="246"/>
</g>
<path d="M161,233v -4" fill="none" stroke="#99ff99" stroke-width="2"/>
<path d="M161,229v -5" fill="none" stroke="#99ff99" stroke-width="2"/>
<g stroke="black" stroke-width="2" fill="none">
<line x1="160" y1="229" x2="161" y2="229"/>
</g>
<path d="M168,219v -4" fill="none" stroke="#99ff99" stroke-width="2"/>
<path d="M168,215v -3" fill="none" stroke="#99ff99" stroke-width="2"/>
<g stroke="black" stroke-width="2" fill="none">
<line x1="167" y1="215" x2="168" y2="215"/>
</g>
<path d="M176,214v -3" fill="none" stroke="#99ff99" stroke-width="2"/>
<path d="M176,211v -2" fill="none" stroke="#99ff99" stroke-width="2"/>
<g stroke="black" stroke-width="2" fill="none">
<line x1="175" y1="211" x2="176" y2="211"/>
</g>
<path d="M183,368v -3" fill="none" stroke="#99ff99" stroke-width="2"/>
<path d="M183,365v -2" fill="none" stroke="#99ff99" stroke-width="2"/>
<g stroke="black" stroke-width="2" fill="none">
<line x1="182" y1="365" x2="183" y2="365"/>
</g>
<path d="M418,372v -1" fill="none" stroke="#99ff99" stroke-width="2"/>
<path d="M418,371v -1" fill="none" stroke="#99ff99" stroke-width="2"/>
<g stroke="black" stroke-width="2" fill="none">
<line x1="417" y1="371" x2="418" y2="371"/>
</g>
<path d="M425,221v -2" fill="none" stroke="#99ff99" stroke-width="2"/>
<path d="M425,219v -1" fill="none" stroke="#99ff99" stroke-width="2"/>
<g stroke="black" stroke-width="2" fill="none">
<line x1="424" y1="219" x2="425" y2="219"/>
</g>
<path d="M433,228v -5" fill="none" stroke="#99ff99" stroke-width="2"/>
<path d="M433,223v -5" fill="none" stroke="#99ff99" stroke-width="2"/>
<g stroke="black" stroke-width="2" fill="none">
<line x1="432" y1="223" x2="433" y2="223"/>
</g>
<path d="M440,238v -2" fill="none" stroke="#99ff99" stroke-width="2"/>
<path d="M440,236v -3" fill="none" stroke="#99ff99" stroke-width="2"/>
<g stroke="black" stroke-width="2" fill="none">
<line x1="439" y1="236" x2="440" y2="236"/>
</g>
<path d="M448,249v -4" fill="none" stroke="#99ff99" stroke-width="2"/>
<path d="M448,245v -4" fill="none" stroke="#99ff99" stroke-width="2"/>
<g stroke="black" stroke-width="2" fill="none">
<line x1="447" y1="245" x2="448" y2="245"/>
</g>
<path d="M455,270v -3" fill="none" stroke="#99ff99" stroke-width="2"/>
<path d="M455,267v -3" fill="none" stroke="#99ff99" stroke-width="2"/>
<g stroke="black" stroke-width="2" fill="none">
<line x1="454" y1="267" x2="455" y2="267"/>
</g>
<path d="M463,290v -3" fill="none" stroke="#99ff99" stroke-width="2"/>
<path d="M463,287v -3" fill="none" stroke="#99ff99" stroke-width="2"/>
<g stroke="black" stroke-width="2" fill="none">
<line x1="462" y1="287" x2="463" y2="287"/>
</g>
<path d="M471,310v -2" fill="none" stroke="#99ff99" stroke-width="2"/>
<path d="M471,308v -2" fill="none" stroke="#99ff99" stroke-width="2"/>
<g stroke="black" stroke-width="2" fill="none">
<line x1="470" y1="308" x2="471" y2="308"/>
</g>
<path d="M478,330v -5" fill="none" stroke="#99ff99" stroke-width="2"/>
<path d="M478,325v -5" fill="none" stroke="#99ff99" stroke-width="2"/>
<g stroke="black" stroke-width="2" fill="none">
<line x1="477" y1="325" x2="478" y2="325"/>
</g>
<path d="M486,363v -3" fill="none" stroke="#99ff99" stroke-width="2"/>
<path d="M486,360v -3" fill="none" stroke="#99ff99" stroke-width="2"/>
<g stroke="black" stroke-width="2" fill="none">
<line x1="485" y1="360" x2="486" y2="360"/>
</g>
<path d="M74,446h 37v -80h 8v -30h 8v -25h 7v -23h 8v -21h 7v -21h 8v -17h 7v -14h 8v -4h 8v 154h 7v 81h 227v -75h 7v -152h 8v 4h 8v 13h 7v 9h 8v 22h 7v 20h 8v 21h 7v 17h 8v 35h 7v 86h 38z" fill="#99ff99"/>
<path d="M74,446h 37v -80h 8v -30h 8v -25h 7v -23h 8v -21h 7v -21h 8v -17h 7v -14h 8v -4h 8v 154h 7v 81h 227v -75h 7v -152h 8v 4h 8v 13h 7v 9h 8v 22h 7v 20h 8v 21h 7v 17h 8v 35h 7v 86h 38" fill="none" stroke="#99ff99" stroke-width="2"/>
<path d="M111,401h 3" fill="none" stroke="#ff0099"/>
<path d="M116,401h 3" fill="none" stroke="#ff0099"/>
<g stroke="#ff0099" stroke-width="1" fill="#ff0099">
<circle cx=" 115" cy=" 401" r=" 1.5"/>
</g>
<path d="M123,377v -1" fill="none" stroke="#ff0099"/>
<path d="M123,374" fill="none" stroke="#ff0099"/>
<path d="M119,375h 3" fill="none" stroke="#ff0099"/>
<path d="M124,375h 3" fill="none" stroke="#ff0099"/>
<g stroke="#ff0099" stroke-width="1" fill="#ff0099">
<circle cx=" 123" cy=" 375" r=" 1.5"/>
</g>
<path d="M130,378v -1" fill="none" stroke="#ff0099"/>
<path d="M130,375v -1" fill="none" stroke="#ff0099"/>
<path d="M127,376h 2" fill="none" stroke="#ff0099"/>
<path d="M132,376h 2" fill="none" stroke="#ff0099"/>
<g stroke="#ff0099" stroke-width="1" fill="#ff0099">
<circle cx=" 130" cy=" 376" r=" 1.5"/>
</g>
<path d="M138,376v -1" fill="none" stroke="#ff0099"/>
<path d="M138,373v -1" fill="none" stroke="#ff0099"/>
<path d="M134,374h 3" fill="none" stroke="#ff0099"/>
<path d="M139,374h 3" fill="none" stroke="#ff0099"/>
<g stroke="#ff0099" stroke-width="1" fill="#ff0099">
<circle cx=" 138" cy=" 374" r=" 1.5"/>
</g>
<path d="M146,397" fill="none" stroke="#ff0099"/>
<path d="M146,395v -1" fill="none" stroke="#ff0099"/>
<path d="M142,396h 2" fill="none" stroke="#ff0099"/>
<path d="M147,396h 2" fill="none" stroke="#ff0099"/>
<g stroke="#ff0099" stroke-width="1" fill="#ff0099">
<circle cx=" 146" cy=" 396" r=" 1.5"/>
</g>
<path d="M153,88v -5" fill="none" stroke="#ff0099"/>
<path d="M153,81v -5" fill="none" stroke="#ff0099"/>
<path d="M149,82h 3" fill="none" stroke="#ff0099"/>
<path d="M154,82h 3" fill="none" stroke="#ff0099"/>
<g stroke="#ff0099" stroke-width="1" fill="#ff0099">
<circle cx=" 153" cy=" 82" r=" 1.5"/>
</g>
<path d="M161,171v -5" fill="none" stroke="#ff0099"/>
<path d="M161,164v -4" fill="none" stroke="#ff0099"/>
<path d="M157,165h 2" fill="none" stroke="#ff0099"/>
<path d="M162,165h 2" fill="none" stroke="#ff0099"/>
<g stroke="#ff0099" stroke-width="1" fill="#ff0099">
<circle cx=" 161" cy=" 165" r=" 1.5"/>
</g>
<path d="M168,215v -4" fill="none" stroke="#ff0099"/>
<path d="M168,209v -3" fill="none" stroke="#ff0099"/>
<path d="M164,210h 3" fill="none" stroke="#ff0099"/>
<path d="M169,210h 3" fill="none" stroke="#ff0099"/>
<g stroke="#ff0099" stroke-width="1" fill="#ff0099">
<circle cx=" 168" cy=" 210" r=" 1.5"/>
</g>
<path d="M176,137v -7" fill="none" stroke="#ff0099"/>
<path d="M176,128v -7" fill="none" stroke="#ff0099"/>
<path d="M172,129h 3" fill="none" stroke="#ff0099"/>
<path d="M177,129h 3" fill="none" stroke="#ff0099"/>
<g stroke="#ff0099" stroke-width="1" fill="#ff0099">
<circle cx=" 176" cy=" 129" r=" 1.5"/>
</g>
<path d="M183,326v -5" fill="none" stroke="#ff0099"/>
<path d="M183,319v -4" fill="none" stroke="#ff0099"/>
<path d="M180,320h 2" fill="none" stroke="#ff0099"/>
<path d="M184,320h 3" fill="none" stroke="#ff0099"/>
<g stroke="#ff0099" stroke-width="1" fill="#ff0099">
<circle cx=" 183" cy=" 320" r=" 1.5"/>
</g>
<path d="M418,325v -4" fill="none" stroke="#ff0099"/>
<path d="M418,319v -5" fill="none" stroke="#ff0099"/>
<path d="M414,320h 2" fill="none" stroke="#ff0099"/>
<path d="M419,320h 2" fill="none" stroke="#ff0099"/>
<g stroke="#ff0099" stroke-width="1" fill="#ff0099">
<circle cx=" 418" cy=" 320" r=" 1.5"/>
</g>
<path d="M425,149v -6" fill="none" stroke="#ff0099"/>
<path d="M425,140v -6" fill="none" stroke="#ff0099"/>
<path d="M421,142h 3" fill="none" stroke="#ff0099"/>
<path d="M426,142h 3" fill="none" stroke="#ff0099"/>
<g stroke="#ff0099" stroke-width="1" fill="#ff0099">
<circle cx=" 425" cy=" 142" r=" 1.5"/>
</g>
<path d="M433,206v -4" fill="none" stroke="#ff0099"/>
<path d="M433,200v -4" fill="none" stroke="#ff0099"/>
<path d="M429,201h 3" fill="none" stroke="#ff0099"/>
<path d="M434,201h 3" fill="none" stroke="#ff0099"/>
<g stroke="#ff0099" stroke-width="1" fill="#ff0099">
<circle cx=" 433" cy=" 201" r=" 1.5"/>
</g>
<path d="M440,171v -4" fill="none" stroke="#ff0099"/>
<path d="M440,165v -4" fill="none" stroke="#ff0099"/>
<path d="M437,166h 2" fill="none" stroke="#ff0099"/>
<path d="M441,166h 3" fill="none" stroke="#ff0099"/>
<g stroke="#ff0099" stroke-width="1" fill="#ff0099">
<circle cx=" 440" cy=" 166" r=" 1.5"/>
</g>
<path d="M448,76v -5" fill="none" stroke="#ff0099"/>
<path d="M448,68v -5" fill="none" stroke="#ff0099"/>
<path d="M444,70h 3" fill="none" stroke="#ff0099"/>
<path d="M449,70h 3" fill="none" stroke="#ff0099"/>
<g stroke="#ff0099" stroke-width="1" fill="#ff0099">
<circle cx=" 448" cy=" 70" r=" 1.5"/>
</g>
<path d="M455,397" fill="none" stroke="#ff0099"/>
<path d="M455,395" fill="none" stroke="#ff0099"/>
<path d="M452,396h 2" fill="none" stroke="#ff0099"/>
<path d="M457,396h 2" fill="none" stroke="#ff0099"/>
<g stroke="#ff0099" stroke-width="1" fill="#ff0099">
<circle cx=" 455" cy=" 396" r=" 1.5"/>
</g>
<path d="M463,385" fill="none" stroke="#ff0099"/>
<path d="M463,382" fill="none" stroke="#ff0099"/>
<path d="M459,383h 3" fill="none" stroke="#ff0099"/>
<path d="M464,383h 3" fill="none" stroke="#ff0099"/>
<g stroke="#ff0099" stroke-width="1" fill="#ff0099">
<circle cx=" 463" cy=" 383" r=" 1.5"/>
</g>
<path d="M471,386" fill="none" stroke="#ff0099"/>
<path d="M471,383" fill="none" stroke="#ff0099"/>
<path d="M467,384h 2" fill="none" stroke="#ff0099"/>
<path d="M472,384h 2" fill="none" stroke="#ff0099"/>
<g stroke="#ff0099" stroke-width="1" fill="#ff0099">
<circle cx=" 471" cy=" 384" r=" 1.5"/>
</g>
<path d="M478,382v -1" fill="none" stroke="#ff0099"/>
<path d="M478,379" fill="none" stroke="#ff0099"/>
<path d="M474,380h 3" fill="none" stroke="#ff0099"/>
<path d="M479,380h 3" fill="none" stroke="#ff0099"/>
<g stroke="#ff0099" stroke-width="1" fill="#ff0099">
<circle cx=" 478" cy=" 380" r=" 1.5"/>
</g>
<path d="M482,406h 3" fill="none" stroke="#ff0099"/>
<path d="M487,406h 2" fill="none" stroke="#ff0099"/>
<g stroke="#ff0099" stroke-width="1" fill="#ff0099">
<circle cx=" 486" cy=" 406" r=" 1.5"/>
</g>
<rect x="357" y="59" width="142" height="99" fill="white"/>
<text x="360" y="82" fill="black" font-size="17" font-family="Helvetica" font-weight="bold">
EE
</text>
<text x="457" y="115" fill="black" font-size="17" font-family="Helvetica" font-weight="bold">
 ee
</text>
<text x="440" y="115" fill="black" font-size="17" font-family="Times">
&#8594;
</text>
<text x="392" y="115" fill="black" font-size="17" font-family="Helvetica" font-weight="bold">
MC Z 
</text>
<path d="M362,109h 25" fill="none" stroke="#ff0099"/>
<g stroke="#ff0099" stroke-width="1" fill="#ff0099">
<circle cx=" 375" cy=" 109" r=" 1.5"/>
</g>
<text x="455" y="147" fill="black" font-size="17" font-family="Helvetica" font-weight="bold">
 + jet
</text>
<text x="447" y="147" fill="black" font-size="17" font-family="Times">
&#0947;
</text>
<text x="392" y="147" fill="black" font-size="17" font-family="Helvetica" font-weight="bold">
signal 
</text>
<path d="M362,154h 25v -24h -25z" fill="#99ff99"/>
<path d="M362,130h 25" fill="none" stroke="#99ff99" stroke-width="2"/>
<path d="M362,154h 25" fill="none" stroke="#99ff99" stroke-width="2"/>
<path d="M387,154v -24" fill="none" stroke="#99ff99" stroke-width="2"/>
<path d="M362,154v -24" fill="none" stroke="#99ff99" stroke-width="2"/>
<text x="300" y="34" fill="black" font-size="17" font-family="Helvetica" font-weight="bold">
=8 TeV
</text>
<text x="291" y="34" fill="black" font-size="17" font-family="Helvetica" font-weight="bold">
s
</text>
<path d="M285,25l 2, 10" fill="none" stroke="black" stroke-width="2"/>
<path d="M287,35l 2, -14" fill="none" stroke="black"/>
<path d="M289,21h 11" fill="none" stroke="black"/>
<text x="142" y="34" fill="black" font-size="17" font-family="Helvetica" font-weight="bold">
CMS Preliminary 
</text></svg>
