<?xml version="1.0" standalone="no"?>
<svg width="567" height="496" viewBox="0 0 567 496" xmlns="http://www.w3.org/2000/svg">
<title>
../src/TagAndProbeZ/plots_dataZee_mcGJet_withEtaR9rhoReweight/hlt150//nvtxEE.svg
</title>
<desc>
Creator: ROOT Version 5.32/00
CreationDate: Tue Dec  2 08:48:36 2014</desc>
<defs>
</defs>
<rect x="0" y="0" width="567" height="496" fill="white"/>
<rect x="74" y="44" width="453" height="402" fill="white"/>
<rect x="74" y="44" width="453" height="402" fill="none" stroke="black"/>
<rect x="74" y="44" width="453" height="402" fill="white"/>
<rect x="74" y="44" width="453" height="402" fill="none" stroke="black"/>
<path d="M85,446h 4" fill="none" stroke="#ff0099"/>
<path d="M91,446h 5" fill="none" stroke="#ff0099"/>
<g stroke="#ff0099" stroke-width="1" fill="#ff0099">
<circle cx=" 90" cy=" 446" r=" 1.5"/>
</g>
<path d="M96,444h 4" fill="none" stroke="#ff0099"/>
<path d="M102,444h 5" fill="none" stroke="#ff0099"/>
<g stroke="#ff0099" stroke-width="1" fill="#ff0099">
<circle cx=" 101" cy=" 444" r=" 1.5"/>
</g>
<path d="M107,437h 4" fill="none" stroke="#ff0099"/>
<path d="M114,437h 4" fill="none" stroke="#ff0099"/>
<g stroke="#ff0099" stroke-width="1" fill="#ff0099">
<circle cx=" 112" cy=" 437" r=" 1.5"/>
</g>
<path d="M123,422v -1" fill="none" stroke="#ff0099"/>
<path d="M123,419v -1" fill="none" stroke="#ff0099"/>
<path d="M118,420h 4" fill="none" stroke="#ff0099"/>
<path d="M125,420h 4" fill="none" stroke="#ff0099"/>
<g stroke="#ff0099" stroke-width="1" fill="#ff0099">
<circle cx=" 123" cy=" 420" r=" 1.5"/>
</g>
<path d="M135,398v -1" fill="none" stroke="#ff0099"/>
<path d="M135,394v -1" fill="none" stroke="#ff0099"/>
<path d="M129,396h 4" fill="none" stroke="#ff0099"/>
<path d="M136,396h 4" fill="none" stroke="#ff0099"/>
<g stroke="#ff0099" stroke-width="1" fill="#ff0099">
<circle cx=" 135" cy=" 396" r=" 1.5"/>
</g>
<path d="M146,361v -2" fill="none" stroke="#ff0099"/>
<path d="M146,357v -3" fill="none" stroke="#ff0099"/>
<path d="M140,358h 4" fill="none" stroke="#ff0099"/>
<path d="M147,358h 4" fill="none" stroke="#ff0099"/>
<g stroke="#ff0099" stroke-width="1" fill="#ff0099">
<circle cx=" 146" cy=" 358" r=" 1.5"/>
</g>
<path d="M157,312v -3" fill="none" stroke="#ff0099"/>
<path d="M157,306v -3" fill="none" stroke="#ff0099"/>
<path d="M151,307h 5" fill="none" stroke="#ff0099"/>
<path d="M158,307h 4" fill="none" stroke="#ff0099"/>
<g stroke="#ff0099" stroke-width="1" fill="#ff0099">
<circle cx=" 157" cy=" 307" r=" 1.5"/>
</g>
<path d="M168,249v -5" fill="none" stroke="#ff0099"/>
<path d="M168,241v -5" fill="none" stroke="#ff0099"/>
<path d="M162,243h 5" fill="none" stroke="#ff0099"/>
<path d="M169,243h 4" fill="none" stroke="#ff0099"/>
<g stroke="#ff0099" stroke-width="1" fill="#ff0099">
<circle cx=" 168" cy=" 243" r=" 1.5"/>
</g>
<path d="M179,194v -6" fill="none" stroke="#ff0099"/>
<path d="M179,186v -6" fill="none" stroke="#ff0099"/>
<path d="M173,187h 5" fill="none" stroke="#ff0099"/>
<path d="M180,187h 4" fill="none" stroke="#ff0099"/>
<g stroke="#ff0099" stroke-width="1" fill="#ff0099">
<circle cx=" 179" cy=" 187" r=" 1.5"/>
</g>
<path d="M190,162v -6" fill="none" stroke="#ff0099"/>
<path d="M190,153v -6" fill="none" stroke="#ff0099"/>
<path d="M184,154h 5" fill="none" stroke="#ff0099"/>
<path d="M191,154h 4" fill="none" stroke="#ff0099"/>
<g stroke="#ff0099" stroke-width="1" fill="#ff0099">
<circle cx=" 190" cy=" 154" r=" 1.5"/>
</g>
<path d="M201,116v -7" fill="none" stroke="#ff0099"/>
<path d="M201,107v -7" fill="none" stroke="#ff0099"/>
<path d="M195,108h 5" fill="none" stroke="#ff0099"/>
<path d="M202,108h 4" fill="none" stroke="#ff0099"/>
<g stroke="#ff0099" stroke-width="1" fill="#ff0099">
<circle cx=" 201" cy=" 108" r=" 1.5"/>
</g>
<path d="M212,82v -7" fill="none" stroke="#ff0099"/>
<path d="M212,73v -7" fill="none" stroke="#ff0099"/>
<path d="M206,74h 5" fill="none" stroke="#ff0099"/>
<path d="M213,74h 5" fill="none" stroke="#ff0099"/>
<g stroke="#ff0099" stroke-width="1" fill="#ff0099">
<circle cx=" 212" cy=" 74" r=" 1.5"/>
</g>
<path d="M223,80v -7" fill="none" stroke="#ff0099"/>
<path d="M223,71v -8" fill="none" stroke="#ff0099"/>
<path d="M218,72h 4" fill="none" stroke="#ff0099"/>
<path d="M224,72h 5" fill="none" stroke="#ff0099"/>
<g stroke="#ff0099" stroke-width="1" fill="#ff0099">
<circle cx=" 223" cy=" 72" r=" 1.5"/>
</g>
<path d="M234,81v -7" fill="none" stroke="#ff0099"/>
<path d="M234,72v -8" fill="none" stroke="#ff0099"/>
<path d="M229,73h 4" fill="none" stroke="#ff0099"/>
<path d="M235,73h 5" fill="none" stroke="#ff0099"/>
<g stroke="#ff0099" stroke-width="1" fill="#ff0099">
<circle cx=" 234" cy=" 73" r=" 1.5"/>
</g>
<path d="M245,83v -8" fill="none" stroke="#ff0099"/>
<path d="M245,73v -7" fill="none" stroke="#ff0099"/>
<path d="M240,74h 4" fill="none" stroke="#ff0099"/>
<path d="M246,74h 5" fill="none" stroke="#ff0099"/>
<g stroke="#ff0099" stroke-width="1" fill="#ff0099">
<circle cx=" 245" cy=" 74" r=" 1.5"/>
</g>
<path d="M256,109v -7" fill="none" stroke="#ff0099"/>
<path d="M256,100v -7" fill="none" stroke="#ff0099"/>
<path d="M251,101h 4" fill="none" stroke="#ff0099"/>
<path d="M257,101h 5" fill="none" stroke="#ff0099"/>
<g stroke="#ff0099" stroke-width="1" fill="#ff0099">
<circle cx=" 256" cy=" 101" r=" 1.5"/>
</g>
<path d="M267,146v -7" fill="none" stroke="#ff0099"/>
<path d="M267,137v -6" fill="none" stroke="#ff0099"/>
<path d="M262,138h 4" fill="none" stroke="#ff0099"/>
<path d="M268,138h 5" fill="none" stroke="#ff0099"/>
<g stroke="#ff0099" stroke-width="1" fill="#ff0099">
<circle cx=" 267" cy=" 138" r=" 1.5"/>
</g>
<path d="M278,168v -7" fill="none" stroke="#ff0099"/>
<path d="M278,159v -6" fill="none" stroke="#ff0099"/>
<path d="M273,160h 4" fill="none" stroke="#ff0099"/>
<path d="M279,160h 5" fill="none" stroke="#ff0099"/>
<g stroke="#ff0099" stroke-width="1" fill="#ff0099">
<circle cx=" 278" cy=" 160" r=" 1.5"/>
</g>
<path d="M289,207v -6" fill="none" stroke="#ff0099"/>
<path d="M289,199v -6" fill="none" stroke="#ff0099"/>
<path d="M284,200h 4" fill="none" stroke="#ff0099"/>
<path d="M291,200h 4" fill="none" stroke="#ff0099"/>
<g stroke="#ff0099" stroke-width="1" fill="#ff0099">
<circle cx=" 289" cy=" 200" r=" 1.5"/>
</g>
<path d="M300,231v -6" fill="none" stroke="#ff0099"/>
<path d="M300,223v -5" fill="none" stroke="#ff0099"/>
<path d="M295,224h 4" fill="none" stroke="#ff0099"/>
<path d="M302,224h 4" fill="none" stroke="#ff0099"/>
<g stroke="#ff0099" stroke-width="1" fill="#ff0099">
<circle cx=" 300" cy=" 224" r=" 1.5"/>
</g>
<path d="M312,261v -5" fill="none" stroke="#ff0099"/>
<path d="M312,254v -5" fill="none" stroke="#ff0099"/>
<path d="M306,255h 4" fill="none" stroke="#ff0099"/>
<path d="M313,255h 4" fill="none" stroke="#ff0099"/>
<g stroke="#ff0099" stroke-width="1" fill="#ff0099">
<circle cx=" 312" cy=" 255" r=" 1.5"/>
</g>
<path d="M323,301v -5" fill="none" stroke="#ff0099"/>
<path d="M323,294v -5" fill="none" stroke="#ff0099"/>
<path d="M317,295h 4" fill="none" stroke="#ff0099"/>
<path d="M324,295h 4" fill="none" stroke="#ff0099"/>
<g stroke="#ff0099" stroke-width="1" fill="#ff0099">
<circle cx=" 323" cy=" 295" r=" 1.5"/>
</g>
<path d="M334,324v -4" fill="none" stroke="#ff0099"/>
<path d="M334,317v -4" fill="none" stroke="#ff0099"/>
<path d="M328,319h 5" fill="none" stroke="#ff0099"/>
<path d="M335,319h 4" fill="none" stroke="#ff0099"/>
<g stroke="#ff0099" stroke-width="1" fill="#ff0099">
<circle cx=" 334" cy=" 319" r=" 1.5"/>
</g>
<path d="M345,346v -4" fill="none" stroke="#ff0099"/>
<path d="M345,340v -4" fill="none" stroke="#ff0099"/>
<path d="M339,341h 5" fill="none" stroke="#ff0099"/>
<path d="M346,341h 4" fill="none" stroke="#ff0099"/>
<g stroke="#ff0099" stroke-width="1" fill="#ff0099">
<circle cx=" 345" cy=" 341" r=" 1.5"/>
</g>
<path d="M356,379v -3" fill="none" stroke="#ff0099"/>
<path d="M356,374v -3" fill="none" stroke="#ff0099"/>
<path d="M350,375h 5" fill="none" stroke="#ff0099"/>
<path d="M357,375h 4" fill="none" stroke="#ff0099"/>
<g stroke="#ff0099" stroke-width="1" fill="#ff0099">
<circle cx=" 356" cy=" 375" r=" 1.5"/>
</g>
<path d="M367,398v -2" fill="none" stroke="#ff0099"/>
<path d="M367,394v -1" fill="none" stroke="#ff0099"/>
<path d="M361,395h 5" fill="none" stroke="#ff0099"/>
<path d="M368,395h 4" fill="none" stroke="#ff0099"/>
<g stroke="#ff0099" stroke-width="1" fill="#ff0099">
<circle cx=" 367" cy=" 395" r=" 1.5"/>
</g>
<path d="M378,412v -1" fill="none" stroke="#ff0099"/>
<path d="M378,409v -1" fill="none" stroke="#ff0099"/>
<path d="M372,410h 5" fill="none" stroke="#ff0099"/>
<path d="M379,410h 4" fill="none" stroke="#ff0099"/>
<g stroke="#ff0099" stroke-width="1" fill="#ff0099">
<circle cx=" 378" cy=" 410" r=" 1.5"/>
</g>
<path d="M389,417v -2" fill="none" stroke="#ff0099"/>
<path d="M389,413v -1" fill="none" stroke="#ff0099"/>
<path d="M383,414h 5" fill="none" stroke="#ff0099"/>
<path d="M390,414h 4" fill="none" stroke="#ff0099"/>
<g stroke="#ff0099" stroke-width="1" fill="#ff0099">
<circle cx=" 389" cy=" 414" r=" 1.5"/>
</g>
<path d="M400,424v -1" fill="none" stroke="#ff0099"/>
<path d="M400,420v -1" fill="none" stroke="#ff0099"/>
<path d="M394,422h 5" fill="none" stroke="#ff0099"/>
<path d="M401,422h 5" fill="none" stroke="#ff0099"/>
<g stroke="#ff0099" stroke-width="1" fill="#ff0099">
<circle cx=" 400" cy=" 422" r=" 1.5"/>
</g>
<path d="M406,434h 4" fill="none" stroke="#ff0099"/>
<path d="M412,434h 5" fill="none" stroke="#ff0099"/>
<g stroke="#ff0099" stroke-width="1" fill="#ff0099">
<circle cx=" 411" cy=" 434" r=" 1.5"/>
</g>
<path d="M417,438h 4" fill="none" stroke="#ff0099"/>
<path d="M423,438h 5" fill="none" stroke="#ff0099"/>
<g stroke="#ff0099" stroke-width="1" fill="#ff0099">
<circle cx=" 422" cy=" 438" r=" 1.5"/>
</g>
<path d="M428,441h 4" fill="none" stroke="#ff0099"/>
<path d="M434,441h 5" fill="none" stroke="#ff0099"/>
<g stroke="#ff0099" stroke-width="1" fill="#ff0099">
<circle cx=" 433" cy=" 441" r=" 1.5"/>
</g>
<path d="M439,443h 4" fill="none" stroke="#ff0099"/>
<path d="M445,443h 5" fill="none" stroke="#ff0099"/>
<g stroke="#ff0099" stroke-width="1" fill="#ff0099">
<circle cx=" 444" cy=" 443" r=" 1.5"/>
</g>
<path d="M450,443h 4" fill="none" stroke="#ff0099"/>
<path d="M456,443h 5" fill="none" stroke="#ff0099"/>
<g stroke="#ff0099" stroke-width="1" fill="#ff0099">
<circle cx=" 455" cy=" 443" r=" 1.5"/>
</g>
<path d="M461,443h 4" fill="none" stroke="#ff0099"/>
<path d="M468,443h 4" fill="none" stroke="#ff0099"/>
<g stroke="#ff0099" stroke-width="1" fill="#ff0099">
<circle cx=" 466" cy=" 443" r=" 1.5"/>
</g>
<path d="M472,446h 4" fill="none" stroke="#ff0099"/>
<path d="M479,446h 4" fill="none" stroke="#ff0099"/>
<g stroke="#ff0099" stroke-width="1" fill="#ff0099">
<circle cx=" 477" cy=" 446" r=" 1.5"/>
</g>
<path d="M483,446h 4" fill="none" stroke="#ff0099"/>
<path d="M490,446h 4" fill="none" stroke="#ff0099"/>
<g stroke="#ff0099" stroke-width="1" fill="#ff0099">
<circle cx=" 489" cy=" 446" r=" 1.5"/>
</g>
<path d="M494,446h 4" fill="none" stroke="#ff0099"/>
<path d="M501,446h 4" fill="none" stroke="#ff0099"/>
<g stroke="#ff0099" stroke-width="1" fill="#ff0099">
<circle cx=" 500" cy=" 446" r=" 1.5"/>
</g>
<path d="M505,446h 5" fill="none" stroke="#ff0099"/>
<path d="M512,446h 4" fill="none" stroke="#ff0099"/>
<g stroke="#ff0099" stroke-width="1" fill="#ff0099">
<circle cx=" 511" cy=" 446" r=" 1.5"/>
</g>
<path d="M516,446h 5" fill="none" stroke="#ff0099"/>
<path d="M523,446h 4" fill="none" stroke="#ff0099"/>
<g stroke="#ff0099" stroke-width="1" fill="#ff0099">
<circle cx=" 522" cy=" 446" r=" 1.5"/>
</g>
<path d="M74,446h 453" fill="none" stroke="black"/>
<path d="M79,434v 12" fill="none" stroke="black"/>
<path d="M90,440v 6" fill="none" stroke="black"/>
<path d="M101,440v 6" fill="none" stroke="black"/>
<path d="M112,440v 6" fill="none" stroke="black"/>
<path d="M123,440v 6" fill="none" stroke="black"/>
<path d="M135,434v 12" fill="none" stroke="black"/>
<path d="M146,440v 6" fill="none" stroke="black"/>
<path d="M157,440v 6" fill="none" stroke="black"/>
<path d="M168,440v 6" fill="none" stroke="black"/>
<path d="M179,440v 6" fill="none" stroke="black"/>
<path d="M190,434v 12" fill="none" stroke="black"/>
<path d="M201,440v 6" fill="none" stroke="black"/>
<path d="M212,440v 6" fill="none" stroke="black"/>
<path d="M223,440v 6" fill="none" stroke="black"/>
<path d="M234,440v 6" fill="none" stroke="black"/>
<path d="M245,434v 12" fill="none" stroke="black"/>
<path d="M256,440v 6" fill="none" stroke="black"/>
<path d="M267,440v 6" fill="none" stroke="black"/>
<path d="M278,440v 6" fill="none" stroke="black"/>
<path d="M289,440v 6" fill="none" stroke="black"/>
<path d="M300,434v 12" fill="none" stroke="black"/>
<path d="M312,440v 6" fill="none" stroke="black"/>
<path d="M323,440v 6" fill="none" stroke="black"/>
<path d="M334,440v 6" fill="none" stroke="black"/>
<path d="M345,440v 6" fill="none" stroke="black"/>
<path d="M356,434v 12" fill="none" stroke="black"/>
<path d="M367,440v 6" fill="none" stroke="black"/>
<path d="M378,440v 6" fill="none" stroke="black"/>
<path d="M389,440v 6" fill="none" stroke="black"/>
<path d="M400,440v 6" fill="none" stroke="black"/>
<path d="M411,434v 12" fill="none" stroke="black"/>
<path d="M422,440v 6" fill="none" stroke="black"/>
<path d="M433,440v 6" fill="none" stroke="black"/>
<path d="M444,440v 6" fill="none" stroke="black"/>
<path d="M455,440v 6" fill="none" stroke="black"/>
<path d="M466,434v 12" fill="none" stroke="black"/>
<path d="M477,440v 6" fill="none" stroke="black"/>
<path d="M489,440v 6" fill="none" stroke="black"/>
<path d="M500,440v 6" fill="none" stroke="black"/>
<path d="M511,440v 6" fill="none" stroke="black"/>
<path d="M522,434v 12" fill="none" stroke="black"/>
<path d="M79,434v 12" fill="none" stroke="black"/>
<path d="M522,434v 12" fill="none" stroke="black"/>
<text x="74" y="465" fill="black" font-size="18" font-family="Helvetica" font-weight="bold">
0
</text>
<text x="129" y="465" fill="black" font-size="18" font-family="Helvetica" font-weight="bold">
5
</text>
<text x="179" y="465" fill="black" font-size="18" font-family="Helvetica" font-weight="bold">
10
</text>
<text x="235" y="465" fill="black" font-size="18" font-family="Helvetica" font-weight="bold">
15
</text>
<text x="290" y="465" fill="black" font-size="18" font-family="Helvetica" font-weight="bold">
20
</text>
<text x="346" y="465" fill="black" font-size="18" font-family="Helvetica" font-weight="bold">
25
</text>
<text x="401" y="465" fill="black" font-size="18" font-family="Helvetica" font-weight="bold">
30
</text>
<text x="456" y="465" fill="black" font-size="18" font-family="Helvetica" font-weight="bold">
35
</text>
<text x="511" y="465" fill="black" font-size="18" font-family="Helvetica" font-weight="bold">
40
</text>
<path d="M74,44h 453" fill="none" stroke="black"/>
<path d="M79,56v -12" fill="none" stroke="black"/>
<path d="M90,50v -6" fill="none" stroke="black"/>
<path d="M101,50v -6" fill="none" stroke="black"/>
<path d="M112,50v -6" fill="none" stroke="black"/>
<path d="M123,50v -6" fill="none" stroke="black"/>
<path d="M135,56v -12" fill="none" stroke="black"/>
<path d="M146,50v -6" fill="none" stroke="black"/>
<path d="M157,50v -6" fill="none" stroke="black"/>
<path d="M168,50v -6" fill="none" stroke="black"/>
<path d="M179,50v -6" fill="none" stroke="black"/>
<path d="M190,56v -12" fill="none" stroke="black"/>
<path d="M201,50v -6" fill="none" stroke="black"/>
<path d="M212,50v -6" fill="none" stroke="black"/>
<path d="M223,50v -6" fill="none" stroke="black"/>
<path d="M234,50v -6" fill="none" stroke="black"/>
<path d="M245,56v -12" fill="none" stroke="black"/>
<path d="M256,50v -6" fill="none" stroke="black"/>
<path d="M267,50v -6" fill="none" stroke="black"/>
<path d="M278,50v -6" fill="none" stroke="black"/>
<path d="M289,50v -6" fill="none" stroke="black"/>
<path d="M300,56v -12" fill="none" stroke="black"/>
<path d="M312,50v -6" fill="none" stroke="black"/>
<path d="M323,50v -6" fill="none" stroke="black"/>
<path d="M334,50v -6" fill="none" stroke="black"/>
<path d="M345,50v -6" fill="none" stroke="black"/>
<path d="M356,56v -12" fill="none" stroke="black"/>
<path d="M367,50v -6" fill="none" stroke="black"/>
<path d="M378,50v -6" fill="none" stroke="black"/>
<path d="M389,50v -6" fill="none" stroke="black"/>
<path d="M400,50v -6" fill="none" stroke="black"/>
<path d="M411,56v -12" fill="none" stroke="black"/>
<path d="M422,50v -6" fill="none" stroke="black"/>
<path d="M433,50v -6" fill="none" stroke="black"/>
<path d="M444,50v -6" fill="none" stroke="black"/>
<path d="M455,50v -6" fill="none" stroke="black"/>
<path d="M466,56v -12" fill="none" stroke="black"/>
<path d="M477,50v -6" fill="none" stroke="black"/>
<path d="M489,50v -6" fill="none" stroke="black"/>
<path d="M500,50v -6" fill="none" stroke="black"/>
<path d="M511,50v -6" fill="none" stroke="black"/>
<path d="M522,56v -12" fill="none" stroke="black"/>
<path d="M79,56v -12" fill="none" stroke="black"/>
<path d="M522,56v -12" fill="none" stroke="black"/>
<path d="M74,446v -402" fill="none" stroke="black"/>
<path d="M87,446h -13" fill="none" stroke="black"/>
<path d="M81,436h -7" fill="none" stroke="black"/>
<path d="M81,426h -7" fill="none" stroke="black"/>
<path d="M81,416h -7" fill="none" stroke="black"/>
<path d="M81,405h -7" fill="none" stroke="black"/>
<path d="M87,395h -13" fill="none" stroke="black"/>
<path d="M81,385h -7" fill="none" stroke="black"/>
<path d="M81,374h -7" fill="none" stroke="black"/>
<path d="M81,364h -7" fill="none" stroke="black"/>
<path d="M81,354h -7" fill="none" stroke="black"/>
<path d="M87,344h -13" fill="none" stroke="black"/>
<path d="M81,333h -7" fill="none" stroke="black"/>
<path d="M81,323h -7" fill="none" stroke="black"/>
<path d="M81,313h -7" fill="none" stroke="black"/>
<path d="M81,302h -7" fill="none" stroke="black"/>
<path d="M87,292h -13" fill="none" stroke="black"/>
<path d="M81,282h -7" fill="none" stroke="black"/>
<path d="M81,272h -7" fill="none" stroke="black"/>
<path d="M81,261h -7" fill="none" stroke="black"/>
<path d="M81,251h -7" fill="none" stroke="black"/>
<path d="M87,241h -13" fill="none" stroke="black"/>
<path d="M81,230h -7" fill="none" stroke="black"/>
<path d="M81,220h -7" fill="none" stroke="black"/>
<path d="M81,210h -7" fill="none" stroke="black"/>
<path d="M81,200h -7" fill="none" stroke="black"/>
<path d="M87,189h -13" fill="none" stroke="black"/>
<path d="M81,179h -7" fill="none" stroke="black"/>
<path d="M81,169h -7" fill="none" stroke="black"/>
<path d="M81,158h -7" fill="none" stroke="black"/>
<path d="M81,148h -7" fill="none" stroke="black"/>
<path d="M87,138h -13" fill="none" stroke="black"/>
<path d="M81,128h -7" fill="none" stroke="black"/>
<path d="M81,117h -7" fill="none" stroke="black"/>
<path d="M81,107h -7" fill="none" stroke="black"/>
<path d="M81,97h -7" fill="none" stroke="black"/>
<path d="M87,87h -13" fill="none" stroke="black"/>
<path d="M87,87h -13" fill="none" stroke="black"/>
<path d="M81,76h -7" fill="none" stroke="black"/>
<path d="M81,66h -7" fill="none" stroke="black"/>
<path d="M81,56h -7" fill="none" stroke="black"/>
<path d="M81,45h -7" fill="none" stroke="black"/>
<text x="61" y="453" fill="black" font-size="18" font-family="Helvetica" font-weight="bold">
0
</text>
<text x="37" y="402" fill="black" font-size="18" font-family="Helvetica" font-weight="bold">
0.01
</text>
<text x="35" y="350" fill="black" font-size="18" font-family="Helvetica" font-weight="bold">
0.02
</text>
<text x="35" y="298" fill="black" font-size="18" font-family="Helvetica" font-weight="bold">
0.03
</text>
<text x="34" y="247" fill="black" font-size="18" font-family="Helvetica" font-weight="bold">
0.04
</text>
<text x="34" y="196" fill="black" font-size="18" font-family="Helvetica" font-weight="bold">
0.05
</text>
<text x="34" y="144" fill="black" font-size="18" font-family="Helvetica" font-weight="bold">
0.06
</text>
<text x="35" y="93" fill="black" font-size="18" font-family="Helvetica" font-weight="bold">
0.07
</text>
<path d="M90,446" fill="none" stroke="#99ff99" stroke-width="2"/>
<path d="M90,446" fill="none" stroke="#99ff99" stroke-width="2"/>
<g stroke="black" stroke-width="2" fill="none">
<line x1="89" y1="446" x2="90" y2="446"/>
</g>
<path d="M101,445" fill="none" stroke="#99ff99" stroke-width="2"/>
<path d="M101,445v -1" fill="none" stroke="#99ff99" stroke-width="2"/>
<g stroke="black" stroke-width="2" fill="none">
<line x1="100" y1="445" x2="101" y2="445"/>
</g>
<path d="M112,439" fill="none" stroke="#99ff99" stroke-width="2"/>
<path d="M112,439" fill="none" stroke="#99ff99" stroke-width="2"/>
<g stroke="black" stroke-width="2" fill="none">
<line x1="111" y1="439" x2="112" y2="439"/>
</g>
<path d="M123,428v -1" fill="none" stroke="#99ff99" stroke-width="2"/>
<path d="M123,427v -1" fill="none" stroke="#99ff99" stroke-width="2"/>
<g stroke="black" stroke-width="2" fill="none">
<line x1="122" y1="427" x2="123" y2="427"/>
</g>
<path d="M135,407v -1" fill="none" stroke="#99ff99" stroke-width="2"/>
<path d="M135,406v -1" fill="none" stroke="#99ff99" stroke-width="2"/>
<g stroke="black" stroke-width="2" fill="none">
<line x1="134" y1="406" x2="135" y2="406"/>
</g>
<path d="M146,376v -2" fill="none" stroke="#99ff99" stroke-width="2"/>
<path d="M146,374v -1" fill="none" stroke="#99ff99" stroke-width="2"/>
<g stroke="black" stroke-width="2" fill="none">
<line x1="145" y1="374" x2="146" y2="374"/>
</g>
<path d="M157,331v -2" fill="none" stroke="#99ff99" stroke-width="2"/>
<path d="M157,329v -2" fill="none" stroke="#99ff99" stroke-width="2"/>
<g stroke="black" stroke-width="2" fill="none">
<line x1="156" y1="329" x2="157" y2="329"/>
</g>
<path d="M168,282v -3" fill="none" stroke="#99ff99" stroke-width="2"/>
<path d="M168,279v -2" fill="none" stroke="#99ff99" stroke-width="2"/>
<g stroke="black" stroke-width="2" fill="none">
<line x1="167" y1="279" x2="168" y2="279"/>
</g>
<path d="M179,236v -2" fill="none" stroke="#99ff99" stroke-width="2"/>
<path d="M179,234v -3" fill="none" stroke="#99ff99" stroke-width="2"/>
<g stroke="black" stroke-width="2" fill="none">
<line x1="178" y1="234" x2="179" y2="234"/>
</g>
<path d="M190,180v -8" fill="none" stroke="#99ff99" stroke-width="2"/>
<path d="M190,172v -7" fill="none" stroke="#99ff99" stroke-width="2"/>
<g stroke="black" stroke-width="2" fill="none">
<line x1="189" y1="172" x2="190" y2="172"/>
</g>
<path d="M201,143v -9" fill="none" stroke="#99ff99" stroke-width="2"/>
<path d="M201,134v -8" fill="none" stroke="#99ff99" stroke-width="2"/>
<g stroke="black" stroke-width="2" fill="none">
<line x1="200" y1="134" x2="201" y2="134"/>
</g>
<path d="M212,117v -7" fill="none" stroke="#99ff99" stroke-width="2"/>
<path d="M212,110v -8" fill="none" stroke="#99ff99" stroke-width="2"/>
<g stroke="black" stroke-width="2" fill="none">
<line x1="211" y1="110" x2="212" y2="110"/>
</g>
<path d="M223,100v -4" fill="none" stroke="#99ff99" stroke-width="2"/>
<path d="M223,96v -3" fill="none" stroke="#99ff99" stroke-width="2"/>
<g stroke="black" stroke-width="2" fill="none">
<line x1="222" y1="96" x2="223" y2="96"/>
</g>
<path d="M234,97v -3" fill="none" stroke="#99ff99" stroke-width="2"/>
<path d="M234,94v -3" fill="none" stroke="#99ff99" stroke-width="2"/>
<g stroke="black" stroke-width="2" fill="none">
<line x1="233" y1="94" x2="234" y2="94"/>
</g>
<path d="M245,95v -3" fill="none" stroke="#99ff99" stroke-width="2"/>
<path d="M245,92v -3" fill="none" stroke="#99ff99" stroke-width="2"/>
<g stroke="black" stroke-width="2" fill="none">
<line x1="244" y1="92" x2="245" y2="92"/>
</g>
<path d="M256,101v -8" fill="none" stroke="#99ff99" stroke-width="2"/>
<path d="M256,93v -7" fill="none" stroke="#99ff99" stroke-width="2"/>
<g stroke="black" stroke-width="2" fill="none">
<line x1="255" y1="93" x2="256" y2="93"/>
</g>
<path d="M267,117v -8" fill="none" stroke="#99ff99" stroke-width="2"/>
<path d="M267,109v -8" fill="none" stroke="#99ff99" stroke-width="2"/>
<g stroke="black" stroke-width="2" fill="none">
<line x1="266" y1="109" x2="267" y2="109"/>
</g>
<path d="M278,141v -6" fill="none" stroke="#99ff99" stroke-width="2"/>
<path d="M278,135v -6" fill="none" stroke="#99ff99" stroke-width="2"/>
<g stroke="black" stroke-width="2" fill="none">
<line x1="277" y1="135" x2="278" y2="135"/>
</g>
<path d="M289,174v -6" fill="none" stroke="#99ff99" stroke-width="2"/>
<path d="M289,168v -6" fill="none" stroke="#99ff99" stroke-width="2"/>
<g stroke="black" stroke-width="2" fill="none">
<line x1="288" y1="168" x2="289" y2="168"/>
</g>
<path d="M300,205v -6" fill="none" stroke="#99ff99" stroke-width="2"/>
<path d="M300,199v -6" fill="none" stroke="#99ff99" stroke-width="2"/>
<g stroke="black" stroke-width="2" fill="none">
<line x1="299" y1="199" x2="300" y2="199"/>
</g>
<path d="M312,240v -4" fill="none" stroke="#99ff99" stroke-width="2"/>
<path d="M312,236v -3" fill="none" stroke="#99ff99" stroke-width="2"/>
<g stroke="black" stroke-width="2" fill="none">
<line x1="311" y1="236" x2="312" y2="236"/>
</g>
<path d="M323,274v -2" fill="none" stroke="#99ff99" stroke-width="2"/>
<path d="M323,272v -2" fill="none" stroke="#99ff99" stroke-width="2"/>
<g stroke="black" stroke-width="2" fill="none">
<line x1="322" y1="272" x2="323" y2="272"/>
</g>
<path d="M334,304v -2" fill="none" stroke="#99ff99" stroke-width="2"/>
<path d="M334,302v -1" fill="none" stroke="#99ff99" stroke-width="2"/>
<g stroke="black" stroke-width="2" fill="none">
<line x1="333" y1="302" x2="334" y2="302"/>
</g>
<path d="M345,332v -2" fill="none" stroke="#99ff99" stroke-width="2"/>
<path d="M345,330v -3" fill="none" stroke="#99ff99" stroke-width="2"/>
<g stroke="black" stroke-width="2" fill="none">
<line x1="344" y1="330" x2="345" y2="330"/>
</g>
<path d="M356,359v -2" fill="none" stroke="#99ff99" stroke-width="2"/>
<path d="M356,357v -2" fill="none" stroke="#99ff99" stroke-width="2"/>
<g stroke="black" stroke-width="2" fill="none">
<line x1="355" y1="357" x2="356" y2="357"/>
</g>
<path d="M367,376v -4" fill="none" stroke="#99ff99" stroke-width="2"/>
<path d="M367,372v -3" fill="none" stroke="#99ff99" stroke-width="2"/>
<g stroke="black" stroke-width="2" fill="none">
<line x1="366" y1="372" x2="367" y2="372"/>
</g>
<path d="M378,396v -3" fill="none" stroke="#99ff99" stroke-width="2"/>
<path d="M378,393v -3" fill="none" stroke="#99ff99" stroke-width="2"/>
<g stroke="black" stroke-width="2" fill="none">
<line x1="377" y1="393" x2="378" y2="393"/>
</g>
<path d="M389,407" fill="none" stroke="#99ff99" stroke-width="2"/>
<path d="M389,407v -1" fill="none" stroke="#99ff99" stroke-width="2"/>
<g stroke="black" stroke-width="2" fill="none">
<line x1="388" y1="407" x2="389" y2="407"/>
</g>
<path d="M400,420v -2" fill="none" stroke="#99ff99" stroke-width="2"/>
<path d="M400,418v -1" fill="none" stroke="#99ff99" stroke-width="2"/>
<g stroke="black" stroke-width="2" fill="none">
<line x1="399" y1="418" x2="400" y2="418"/>
</g>
<path d="M411,427" fill="none" stroke="#99ff99" stroke-width="2"/>
<path d="M411,427v -1" fill="none" stroke="#99ff99" stroke-width="2"/>
<g stroke="black" stroke-width="2" fill="none">
<line x1="410" y1="427" x2="411" y2="427"/>
</g>
<path d="M422,433v -2" fill="none" stroke="#99ff99" stroke-width="2"/>
<path d="M422,431v -1" fill="none" stroke="#99ff99" stroke-width="2"/>
<g stroke="black" stroke-width="2" fill="none">
<line x1="421" y1="431" x2="422" y2="431"/>
</g>
<path d="M433,438v -2" fill="none" stroke="#99ff99" stroke-width="2"/>
<path d="M433,436v -1" fill="none" stroke="#99ff99" stroke-width="2"/>
<g stroke="black" stroke-width="2" fill="none">
<line x1="432" y1="436" x2="433" y2="436"/>
</g>
<path d="M444,440" fill="none" stroke="#99ff99" stroke-width="2"/>
<path d="M444,440v -1" fill="none" stroke="#99ff99" stroke-width="2"/>
<g stroke="black" stroke-width="2" fill="none">
<line x1="443" y1="440" x2="444" y2="440"/>
</g>
<path d="M455,442" fill="none" stroke="#99ff99" stroke-width="2"/>
<path d="M455,442" fill="none" stroke="#99ff99" stroke-width="2"/>
<g stroke="black" stroke-width="2" fill="none">
<line x1="454" y1="442" x2="455" y2="442"/>
</g>
<path d="M466,444v -1" fill="none" stroke="#99ff99" stroke-width="2"/>
<path d="M466,443v -1" fill="none" stroke="#99ff99" stroke-width="2"/>
<g stroke="black" stroke-width="2" fill="none">
<line x1="465" y1="443" x2="466" y2="443"/>
</g>
<path d="M477,444" fill="none" stroke="#99ff99" stroke-width="2"/>
<path d="M477,444" fill="none" stroke="#99ff99" stroke-width="2"/>
<g stroke="black" stroke-width="2" fill="none">
<line x1="476" y1="444" x2="477" y2="444"/>
</g>
<path d="M489,445" fill="none" stroke="#99ff99" stroke-width="2"/>
<path d="M489,445" fill="none" stroke="#99ff99" stroke-width="2"/>
<g stroke="black" stroke-width="2" fill="none">
<line x1="488" y1="445" x2="489" y2="445"/>
</g>
<path d="M500,446" fill="none" stroke="#99ff99" stroke-width="2"/>
<path d="M500,446v -1" fill="none" stroke="#99ff99" stroke-width="2"/>
<g stroke="black" stroke-width="2" fill="none">
<line x1="499" y1="446" x2="500" y2="446"/>
</g>
<path d="M511,446" fill="none" stroke="#99ff99" stroke-width="2"/>
<path d="M511,446" fill="none" stroke="#99ff99" stroke-width="2"/>
<g stroke="black" stroke-width="2" fill="none">
<line x1="510" y1="446" x2="511" y2="446"/>
</g>
<path d="M522,446" fill="none" stroke="#99ff99" stroke-width="2"/>
<path d="M522,446" fill="none" stroke="#99ff99" stroke-width="2"/>
<g stroke="black" stroke-width="2" fill="none">
<line x1="521" y1="446" x2="522" y2="446"/>
</g>
<path d="M74,446h 22v -1h 11v -6h 11v -12h 11v -21h 11v -32h 11v -45h 11v -50h 11v -45h 11v -62h 11v -38h 11v -24h 12v -14h 11v -2h 11v -2h 11v 1h 11v 16h 11v 26h 11v 33h 11v 31h 11v 37h 11v 36h 11v 30h 11v 28h 11v 27h 11v 15h 11v 21h 11v 14h 11v 11h
 12v 9h 11v 4h 11v 5h 11v 4h 11v 2h 11v 1h 11v 1h 11v 1h 11v 1h 33z" fill="#99ff99"/>
<path d="M74,446h 22v -1h 11v -6h 11v -12h 11v -21h 11v -32h 11v -45h 11v -50h 11v -45h 11v -62h 11v -38h 11v -24h 12v -14h 11v -2h 11v -2h 11v 1h 11v 16h 11v 26h 11v 33h 11v 31h 11v 37h 11v 36h 11v 30h 11v 28h 11v 27h 11v 15h 11v 21h 11v 14h 11v 11h
 12v 9h 11v 4h 11v 5h 11v 4h 11v 2h 11v 1h 11v 1h 11v 1h 11v 1h 33" fill="none" stroke="#99ff99" stroke-width="2"/>
<path d="M85,446h 4" fill="none" stroke="#ff0099"/>
<path d="M91,446h 5" fill="none" stroke="#ff0099"/>
<g stroke="#ff0099" stroke-width="1" fill="#ff0099">
<circle cx=" 90" cy=" 446" r=" 1.5"/>
</g>
<path d="M96,444h 4" fill="none" stroke="#ff0099"/>
<path d="M102,444h 5" fill="none" stroke="#ff0099"/>
<g stroke="#ff0099" stroke-width="1" fill="#ff0099">
<circle cx=" 101" cy=" 444" r=" 1.5"/>
</g>
<path d="M107,437h 4" fill="none" stroke="#ff0099"/>
<path d="M114,437h 4" fill="none" stroke="#ff0099"/>
<g stroke="#ff0099" stroke-width="1" fill="#ff0099">
<circle cx=" 112" cy=" 437" r=" 1.5"/>
</g>
<path d="M123,422v -1" fill="none" stroke="#ff0099"/>
<path d="M123,419v -1" fill="none" stroke="#ff0099"/>
<path d="M118,420h 4" fill="none" stroke="#ff0099"/>
<path d="M125,420h 4" fill="none" stroke="#ff0099"/>
<g stroke="#ff0099" stroke-width="1" fill="#ff0099">
<circle cx=" 123" cy=" 420" r=" 1.5"/>
</g>
<path d="M135,398v -1" fill="none" stroke="#ff0099"/>
<path d="M135,394v -1" fill="none" stroke="#ff0099"/>
<path d="M129,396h 4" fill="none" stroke="#ff0099"/>
<path d="M136,396h 4" fill="none" stroke="#ff0099"/>
<g stroke="#ff0099" stroke-width="1" fill="#ff0099">
<circle cx=" 135" cy=" 396" r=" 1.5"/>
</g>
<path d="M146,361v -2" fill="none" stroke="#ff0099"/>
<path d="M146,357v -3" fill="none" stroke="#ff0099"/>
<path d="M140,358h 4" fill="none" stroke="#ff0099"/>
<path d="M147,358h 4" fill="none" stroke="#ff0099"/>
<g stroke="#ff0099" stroke-width="1" fill="#ff0099">
<circle cx=" 146" cy=" 358" r=" 1.5"/>
</g>
<path d="M157,312v -3" fill="none" stroke="#ff0099"/>
<path d="M157,306v -3" fill="none" stroke="#ff0099"/>
<path d="M151,307h 5" fill="none" stroke="#ff0099"/>
<path d="M158,307h 4" fill="none" stroke="#ff0099"/>
<g stroke="#ff0099" stroke-width="1" fill="#ff0099">
<circle cx=" 157" cy=" 307" r=" 1.5"/>
</g>
<path d="M168,249v -5" fill="none" stroke="#ff0099"/>
<path d="M168,241v -5" fill="none" stroke="#ff0099"/>
<path d="M162,243h 5" fill="none" stroke="#ff0099"/>
<path d="M169,243h 4" fill="none" stroke="#ff0099"/>
<g stroke="#ff0099" stroke-width="1" fill="#ff0099">
<circle cx=" 168" cy=" 243" r=" 1.5"/>
</g>
<path d="M179,194v -6" fill="none" stroke="#ff0099"/>
<path d="M179,186v -6" fill="none" stroke="#ff0099"/>
<path d="M173,187h 5" fill="none" stroke="#ff0099"/>
<path d="M180,187h 4" fill="none" stroke="#ff0099"/>
<g stroke="#ff0099" stroke-width="1" fill="#ff0099">
<circle cx=" 179" cy=" 187" r=" 1.5"/>
</g>
<path d="M190,162v -6" fill="none" stroke="#ff0099"/>
<path d="M190,153v -6" fill="none" stroke="#ff0099"/>
<path d="M184,154h 5" fill="none" stroke="#ff0099"/>
<path d="M191,154h 4" fill="none" stroke="#ff0099"/>
<g stroke="#ff0099" stroke-width="1" fill="#ff0099">
<circle cx=" 190" cy=" 154" r=" 1.5"/>
</g>
<path d="M201,116v -7" fill="none" stroke="#ff0099"/>
<path d="M201,107v -7" fill="none" stroke="#ff0099"/>
<path d="M195,108h 5" fill="none" stroke="#ff0099"/>
<path d="M202,108h 4" fill="none" stroke="#ff0099"/>
<g stroke="#ff0099" stroke-width="1" fill="#ff0099">
<circle cx=" 201" cy=" 108" r=" 1.5"/>
</g>
<path d="M212,82v -7" fill="none" stroke="#ff0099"/>
<path d="M212,73v -7" fill="none" stroke="#ff0099"/>
<path d="M206,74h 5" fill="none" stroke="#ff0099"/>
<path d="M213,74h 5" fill="none" stroke="#ff0099"/>
<g stroke="#ff0099" stroke-width="1" fill="#ff0099">
<circle cx=" 212" cy=" 74" r=" 1.5"/>
</g>
<path d="M223,80v -7" fill="none" stroke="#ff0099"/>
<path d="M223,71v -8" fill="none" stroke="#ff0099"/>
<path d="M218,72h 4" fill="none" stroke="#ff0099"/>
<path d="M224,72h 5" fill="none" stroke="#ff0099"/>
<g stroke="#ff0099" stroke-width="1" fill="#ff0099">
<circle cx=" 223" cy=" 72" r=" 1.5"/>
</g>
<path d="M234,81v -7" fill="none" stroke="#ff0099"/>
<path d="M234,72v -8" fill="none" stroke="#ff0099"/>
<path d="M229,73h 4" fill="none" stroke="#ff0099"/>
<path d="M235,73h 5" fill="none" stroke="#ff0099"/>
<g stroke="#ff0099" stroke-width="1" fill="#ff0099">
<circle cx=" 234" cy=" 73" r=" 1.5"/>
</g>
<path d="M245,83v -8" fill="none" stroke="#ff0099"/>
<path d="M245,73v -7" fill="none" stroke="#ff0099"/>
<path d="M240,74h 4" fill="none" stroke="#ff0099"/>
<path d="M246,74h 5" fill="none" stroke="#ff0099"/>
<g stroke="#ff0099" stroke-width="1" fill="#ff0099">
<circle cx=" 245" cy=" 74" r=" 1.5"/>
</g>
<path d="M256,109v -7" fill="none" stroke="#ff0099"/>
<path d="M256,100v -7" fill="none" stroke="#ff0099"/>
<path d="M251,101h 4" fill="none" stroke="#ff0099"/>
<path d="M257,101h 5" fill="none" stroke="#ff0099"/>
<g stroke="#ff0099" stroke-width="1" fill="#ff0099">
<circle cx=" 256" cy=" 101" r=" 1.5"/>
</g>
<path d="M267,146v -7" fill="none" stroke="#ff0099"/>
<path d="M267,137v -6" fill="none" stroke="#ff0099"/>
<path d="M262,138h 4" fill="none" stroke="#ff0099"/>
<path d="M268,138h 5" fill="none" stroke="#ff0099"/>
<g stroke="#ff0099" stroke-width="1" fill="#ff0099">
<circle cx=" 267" cy=" 138" r=" 1.5"/>
</g>
<path d="M278,168v -7" fill="none" stroke="#ff0099"/>
<path d="M278,159v -6" fill="none" stroke="#ff0099"/>
<path d="M273,160h 4" fill="none" stroke="#ff0099"/>
<path d="M279,160h 5" fill="none" stroke="#ff0099"/>
<g stroke="#ff0099" stroke-width="1" fill="#ff0099">
<circle cx=" 278" cy=" 160" r=" 1.5"/>
</g>
<path d="M289,207v -6" fill="none" stroke="#ff0099"/>
<path d="M289,199v -6" fill="none" stroke="#ff0099"/>
<path d="M284,200h 4" fill="none" stroke="#ff0099"/>
<path d="M291,200h 4" fill="none" stroke="#ff0099"/>
<g stroke="#ff0099" stroke-width="1" fill="#ff0099">
<circle cx=" 289" cy=" 200" r=" 1.5"/>
</g>
<path d="M300,231v -6" fill="none" stroke="#ff0099"/>
<path d="M300,223v -5" fill="none" stroke="#ff0099"/>
<path d="M295,224h 4" fill="none" stroke="#ff0099"/>
<path d="M302,224h 4" fill="none" stroke="#ff0099"/>
<g stroke="#ff0099" stroke-width="1" fill="#ff0099">
<circle cx=" 300" cy=" 224" r=" 1.5"/>
</g>
<path d="M312,261v -5" fill="none" stroke="#ff0099"/>
<path d="M312,254v -5" fill="none" stroke="#ff0099"/>
<path d="M306,255h 4" fill="none" stroke="#ff0099"/>
<path d="M313,255h 4" fill="none" stroke="#ff0099"/>
<g stroke="#ff0099" stroke-width="1" fill="#ff0099">
<circle cx=" 312" cy=" 255" r=" 1.5"/>
</g>
<path d="M323,301v -5" fill="none" stroke="#ff0099"/>
<path d="M323,294v -5" fill="none" stroke="#ff0099"/>
<path d="M317,295h 4" fill="none" stroke="#ff0099"/>
<path d="M324,295h 4" fill="none" stroke="#ff0099"/>
<g stroke="#ff0099" stroke-width="1" fill="#ff0099">
<circle cx=" 323" cy=" 295" r=" 1.5"/>
</g>
<path d="M334,324v -4" fill="none" stroke="#ff0099"/>
<path d="M334,317v -4" fill="none" stroke="#ff0099"/>
<path d="M328,319h 5" fill="none" stroke="#ff0099"/>
<path d="M335,319h 4" fill="none" stroke="#ff0099"/>
<g stroke="#ff0099" stroke-width="1" fill="#ff0099">
<circle cx=" 334" cy=" 319" r=" 1.5"/>
</g>
<path d="M345,346v -4" fill="none" stroke="#ff0099"/>
<path d="M345,340v -4" fill="none" stroke="#ff0099"/>
<path d="M339,341h 5" fill="none" stroke="#ff0099"/>
<path d="M346,341h 4" fill="none" stroke="#ff0099"/>
<g stroke="#ff0099" stroke-width="1" fill="#ff0099">
<circle cx=" 345" cy=" 341" r=" 1.5"/>
</g>
<path d="M356,379v -3" fill="none" stroke="#ff0099"/>
<path d="M356,374v -3" fill="none" stroke="#ff0099"/>
<path d="M350,375h 5" fill="none" stroke="#ff0099"/>
<path d="M357,375h 4" fill="none" stroke="#ff0099"/>
<g stroke="#ff0099" stroke-width="1" fill="#ff0099">
<circle cx=" 356" cy=" 375" r=" 1.5"/>
</g>
<path d="M367,398v -2" fill="none" stroke="#ff0099"/>
<path d="M367,394v -1" fill="none" stroke="#ff0099"/>
<path d="M361,395h 5" fill="none" stroke="#ff0099"/>
<path d="M368,395h 4" fill="none" stroke="#ff0099"/>
<g stroke="#ff0099" stroke-width="1" fill="#ff0099">
<circle cx=" 367" cy=" 395" r=" 1.5"/>
</g>
<path d="M378,412v -1" fill="none" stroke="#ff0099"/>
<path d="M378,409v -1" fill="none" stroke="#ff0099"/>
<path d="M372,410h 5" fill="none" stroke="#ff0099"/>
<path d="M379,410h 4" fill="none" stroke="#ff0099"/>
<g stroke="#ff0099" stroke-width="1" fill="#ff0099">
<circle cx=" 378" cy=" 410" r=" 1.5"/>
</g>
<path d="M389,417v -2" fill="none" stroke="#ff0099"/>
<path d="M389,413v -1" fill="none" stroke="#ff0099"/>
<path d="M383,414h 5" fill="none" stroke="#ff0099"/>
<path d="M390,414h 4" fill="none" stroke="#ff0099"/>
<g stroke="#ff0099" stroke-width="1" fill="#ff0099">
<circle cx=" 389" cy=" 414" r=" 1.5"/>
</g>
<path d="M400,424v -1" fill="none" stroke="#ff0099"/>
<path d="M400,420v -1" fill="none" stroke="#ff0099"/>
<path d="M394,422h 5" fill="none" stroke="#ff0099"/>
<path d="M401,422h 5" fill="none" stroke="#ff0099"/>
<g stroke="#ff0099" stroke-width="1" fill="#ff0099">
<circle cx=" 400" cy=" 422" r=" 1.5"/>
</g>
<path d="M406,434h 4" fill="none" stroke="#ff0099"/>
<path d="M412,434h 5" fill="none" stroke="#ff0099"/>
<g stroke="#ff0099" stroke-width="1" fill="#ff0099">
<circle cx=" 411" cy=" 434" r=" 1.5"/>
</g>
<path d="M417,438h 4" fill="none" stroke="#ff0099"/>
<path d="M423,438h 5" fill="none" stroke="#ff0099"/>
<g stroke="#ff0099" stroke-width="1" fill="#ff0099">
<circle cx=" 422" cy=" 438" r=" 1.5"/>
</g>
<path d="M428,441h 4" fill="none" stroke="#ff0099"/>
<path d="M434,441h 5" fill="none" stroke="#ff0099"/>
<g stroke="#ff0099" stroke-width="1" fill="#ff0099">
<circle cx=" 433" cy=" 441" r=" 1.5"/>
</g>
<path d="M439,443h 4" fill="none" stroke="#ff0099"/>
<path d="M445,443h 5" fill="none" stroke="#ff0099"/>
<g stroke="#ff0099" stroke-width="1" fill="#ff0099">
<circle cx=" 444" cy=" 443" r=" 1.5"/>
</g>
<path d="M450,443h 4" fill="none" stroke="#ff0099"/>
<path d="M456,443h 5" fill="none" stroke="#ff0099"/>
<g stroke="#ff0099" stroke-width="1" fill="#ff0099">
<circle cx=" 455" cy=" 443" r=" 1.5"/>
</g>
<path d="M461,443h 4" fill="none" stroke="#ff0099"/>
<path d="M468,443h 4" fill="none" stroke="#ff0099"/>
<g stroke="#ff0099" stroke-width="1" fill="#ff0099">
<circle cx=" 466" cy=" 443" r=" 1.5"/>
</g>
<path d="M472,446h 4" fill="none" stroke="#ff0099"/>
<path d="M479,446h 4" fill="none" stroke="#ff0099"/>
<g stroke="#ff0099" stroke-width="1" fill="#ff0099">
<circle cx=" 477" cy=" 446" r=" 1.5"/>
</g>
<path d="M483,446h 4" fill="none" stroke="#ff0099"/>
<path d="M490,446h 4" fill="none" stroke="#ff0099"/>
<g stroke="#ff0099" stroke-width="1" fill="#ff0099">
<circle cx=" 489" cy=" 446" r=" 1.5"/>
</g>
<path d="M494,446h 4" fill="none" stroke="#ff0099"/>
<path d="M501,446h 4" fill="none" stroke="#ff0099"/>
<g stroke="#ff0099" stroke-width="1" fill="#ff0099">
<circle cx=" 500" cy=" 446" r=" 1.5"/>
</g>
<path d="M505,446h 5" fill="none" stroke="#ff0099"/>
<path d="M512,446h 4" fill="none" stroke="#ff0099"/>
<g stroke="#ff0099" stroke-width="1" fill="#ff0099">
<circle cx=" 511" cy=" 446" r=" 1.5"/>
</g>
<path d="M516,446h 5" fill="none" stroke="#ff0099"/>
<path d="M523,446h 4" fill="none" stroke="#ff0099"/>
<g stroke="#ff0099" stroke-width="1" fill="#ff0099">
<circle cx=" 522" cy=" 446" r=" 1.5"/>
</g>
<rect x="357" y="59" width="142" height="99" fill="white"/>
<text x="360" y="82" fill="black" font-size="17" font-family="Helvetica" font-weight="bold">
EE
</text>
<text x="457" y="115" fill="black" font-size="17" font-family="Helvetica" font-weight="bold">
 ee
</text>
<text x="440" y="115" fill="black" font-size="17" font-family="Times">
&#8594;
</text>
<text x="392" y="115" fill="black" font-size="17" font-family="Helvetica" font-weight="bold">
MC Z 
</text>
<path d="M362,109h 25" fill="none" stroke="#ff0099"/>
<g stroke="#ff0099" stroke-width="1" fill="#ff0099">
<circle cx=" 375" cy=" 109" r=" 1.5"/>
</g>
<text x="455" y="147" fill="black" font-size="17" font-family="Helvetica" font-weight="bold">
 + jet
</text>
<text x="447" y="147" fill="black" font-size="17" font-family="Times">
&#0947;
</text>
<text x="392" y="147" fill="black" font-size="17" font-family="Helvetica" font-weight="bold">
signal 
</text>
<path d="M362,154h 25v -24h -25z" fill="#99ff99"/>
<path d="M362,130h 25" fill="none" stroke="#99ff99" stroke-width="2"/>
<path d="M362,154h 25" fill="none" stroke="#99ff99" stroke-width="2"/>
<path d="M387,154v -24" fill="none" stroke="#99ff99" stroke-width="2"/>
<path d="M362,154v -24" fill="none" stroke="#99ff99" stroke-width="2"/>
<text x="300" y="34" fill="black" font-size="17" font-family="Helvetica" font-weight="bold">
=8 TeV
</text>
<text x="291" y="34" fill="black" font-size="17" font-family="Helvetica" font-weight="bold">
s
</text>
<path d="M285,25l 2, 10" fill="none" stroke="black" stroke-width="2"/>
<path d="M287,35l 2, -14" fill="none" stroke="black"/>
<path d="M289,21h 11" fill="none" stroke="black"/>
<text x="142" y="34" fill="black" font-size="17" font-family="Helvetica" font-weight="bold">
CMS Preliminary 
</text></svg>
