<?xml version="1.0" standalone="no"?>
<svg width="567" height="496" viewBox="0 0 567 496" xmlns="http://www.w3.org/2000/svg">
<title>
../src/TagAndProbeZ/plots_dataZee_mcGJet_withEtaR9rhoReweight/hlt150//nvtxEB.svg
</title>
<desc>
Creator: ROOT Version 5.32/00
CreationDate: Tue Dec  2 08:48:39 2014</desc>
<defs>
</defs>
<rect x="0" y="0" width="567" height="496" fill="white"/>
<rect x="74" y="44" width="453" height="402" fill="white"/>
<rect x="74" y="44" width="453" height="402" fill="none" stroke="black"/>
<rect x="74" y="44" width="453" height="402" fill="white"/>
<rect x="74" y="44" width="453" height="402" fill="none" stroke="black"/>
<path d="M85,446h 4" fill="none" stroke="#ff0099"/>
<path d="M91,446h 5" fill="none" stroke="#ff0099"/>
<g stroke="#ff0099" stroke-width="1" fill="#ff0099">
<circle cx=" 90" cy=" 446" r=" 1.5"/>
</g>
<path d="M96,444h 4" fill="none" stroke="#ff0099"/>
<path d="M102,444h 5" fill="none" stroke="#ff0099"/>
<g stroke="#ff0099" stroke-width="1" fill="#ff0099">
<circle cx=" 101" cy=" 444" r=" 1.5"/>
</g>
<path d="M107,439h 4" fill="none" stroke="#ff0099"/>
<path d="M114,439h 4" fill="none" stroke="#ff0099"/>
<g stroke="#ff0099" stroke-width="1" fill="#ff0099">
<circle cx=" 112" cy=" 439" r=" 1.5"/>
</g>
<path d="M118,424h 4" fill="none" stroke="#ff0099"/>
<path d="M125,424h 4" fill="none" stroke="#ff0099"/>
<g stroke="#ff0099" stroke-width="1" fill="#ff0099">
<circle cx=" 123" cy=" 424" r=" 1.5"/>
</g>
<path d="M129,398h 4" fill="none" stroke="#ff0099"/>
<path d="M136,398h 4" fill="none" stroke="#ff0099"/>
<g stroke="#ff0099" stroke-width="1" fill="#ff0099">
<circle cx=" 135" cy=" 398" r=" 1.5"/>
</g>
<path d="M140,361h 4" fill="none" stroke="#ff0099"/>
<path d="M147,361h 4" fill="none" stroke="#ff0099"/>
<g stroke="#ff0099" stroke-width="1" fill="#ff0099">
<circle cx=" 146" cy=" 361" r=" 1.5"/>
</g>
<path d="M157,317" fill="none" stroke="#ff0099"/>
<path d="M157,315v -1" fill="none" stroke="#ff0099"/>
<path d="M151,316h 5" fill="none" stroke="#ff0099"/>
<path d="M158,316h 4" fill="none" stroke="#ff0099"/>
<g stroke="#ff0099" stroke-width="1" fill="#ff0099">
<circle cx=" 157" cy=" 316" r=" 1.5"/>
</g>
<path d="M168,265" fill="none" stroke="#ff0099"/>
<path d="M168,263v -1" fill="none" stroke="#ff0099"/>
<path d="M162,264h 5" fill="none" stroke="#ff0099"/>
<path d="M169,264h 4" fill="none" stroke="#ff0099"/>
<g stroke="#ff0099" stroke-width="1" fill="#ff0099">
<circle cx=" 168" cy=" 264" r=" 1.5"/>
</g>
<path d="M179,205v -1" fill="none" stroke="#ff0099"/>
<path d="M179,202v -1" fill="none" stroke="#ff0099"/>
<path d="M173,203h 5" fill="none" stroke="#ff0099"/>
<path d="M180,203h 4" fill="none" stroke="#ff0099"/>
<g stroke="#ff0099" stroke-width="1" fill="#ff0099">
<circle cx=" 179" cy=" 203" r=" 1.5"/>
</g>
<path d="M190,156v -1" fill="none" stroke="#ff0099"/>
<path d="M190,152v -1" fill="none" stroke="#ff0099"/>
<path d="M184,153h 5" fill="none" stroke="#ff0099"/>
<path d="M191,153h 4" fill="none" stroke="#ff0099"/>
<g stroke="#ff0099" stroke-width="1" fill="#ff0099">
<circle cx=" 190" cy=" 153" r=" 1.5"/>
</g>
<path d="M201,118v -1" fill="none" stroke="#ff0099"/>
<path d="M201,114v -1" fill="none" stroke="#ff0099"/>
<path d="M195,115h 5" fill="none" stroke="#ff0099"/>
<path d="M202,115h 4" fill="none" stroke="#ff0099"/>
<g stroke="#ff0099" stroke-width="1" fill="#ff0099">
<circle cx=" 201" cy=" 115" r=" 1.5"/>
</g>
<path d="M212,87v -1" fill="none" stroke="#ff0099"/>
<path d="M212,84v -2" fill="none" stroke="#ff0099"/>
<path d="M206,85h 5" fill="none" stroke="#ff0099"/>
<path d="M213,85h 5" fill="none" stroke="#ff0099"/>
<g stroke="#ff0099" stroke-width="1" fill="#ff0099">
<circle cx=" 212" cy=" 85" r=" 1.5"/>
</g>
<path d="M223,71v -1" fill="none" stroke="#ff0099"/>
<path d="M223,67v -1" fill="none" stroke="#ff0099"/>
<path d="M218,68h 4" fill="none" stroke="#ff0099"/>
<path d="M224,68h 5" fill="none" stroke="#ff0099"/>
<g stroke="#ff0099" stroke-width="1" fill="#ff0099">
<circle cx=" 223" cy=" 68" r=" 1.5"/>
</g>
<path d="M234,69v -2" fill="none" stroke="#ff0099"/>
<path d="M234,65v -2" fill="none" stroke="#ff0099"/>
<path d="M229,66h 4" fill="none" stroke="#ff0099"/>
<path d="M235,66h 5" fill="none" stroke="#ff0099"/>
<g stroke="#ff0099" stroke-width="1" fill="#ff0099">
<circle cx=" 234" cy=" 66" r=" 1.5"/>
</g>
<path d="M245,75v -2" fill="none" stroke="#ff0099"/>
<path d="M245,71v -1" fill="none" stroke="#ff0099"/>
<path d="M240,72h 4" fill="none" stroke="#ff0099"/>
<path d="M246,72h 5" fill="none" stroke="#ff0099"/>
<g stroke="#ff0099" stroke-width="1" fill="#ff0099">
<circle cx=" 245" cy=" 72" r=" 1.5"/>
</g>
<path d="M256,94v -1" fill="none" stroke="#ff0099"/>
<path d="M256,90v -1" fill="none" stroke="#ff0099"/>
<path d="M251,92h 4" fill="none" stroke="#ff0099"/>
<path d="M257,92h 5" fill="none" stroke="#ff0099"/>
<g stroke="#ff0099" stroke-width="1" fill="#ff0099">
<circle cx=" 256" cy=" 92" r=" 1.5"/>
</g>
<path d="M267,113v -2" fill="none" stroke="#ff0099"/>
<path d="M267,109v -1" fill="none" stroke="#ff0099"/>
<path d="M262,110h 4" fill="none" stroke="#ff0099"/>
<path d="M268,110h 5" fill="none" stroke="#ff0099"/>
<g stroke="#ff0099" stroke-width="1" fill="#ff0099">
<circle cx=" 267" cy=" 110" r=" 1.5"/>
</g>
<path d="M278,149v -1" fill="none" stroke="#ff0099"/>
<path d="M278,146v -2" fill="none" stroke="#ff0099"/>
<path d="M273,147h 4" fill="none" stroke="#ff0099"/>
<path d="M279,147h 5" fill="none" stroke="#ff0099"/>
<g stroke="#ff0099" stroke-width="1" fill="#ff0099">
<circle cx=" 278" cy=" 147" r=" 1.5"/>
</g>
<path d="M289,184v -1" fill="none" stroke="#ff0099"/>
<path d="M289,180v -1" fill="none" stroke="#ff0099"/>
<path d="M284,181h 4" fill="none" stroke="#ff0099"/>
<path d="M291,181h 4" fill="none" stroke="#ff0099"/>
<g stroke="#ff0099" stroke-width="1" fill="#ff0099">
<circle cx=" 289" cy=" 181" r=" 1.5"/>
</g>
<path d="M300,217v -1" fill="none" stroke="#ff0099"/>
<path d="M300,213v -1" fill="none" stroke="#ff0099"/>
<path d="M295,215h 4" fill="none" stroke="#ff0099"/>
<path d="M302,215h 4" fill="none" stroke="#ff0099"/>
<g stroke="#ff0099" stroke-width="1" fill="#ff0099">
<circle cx=" 300" cy=" 215" r=" 1.5"/>
</g>
<path d="M312,252" fill="none" stroke="#ff0099"/>
<path d="M312,249" fill="none" stroke="#ff0099"/>
<path d="M306,251h 4" fill="none" stroke="#ff0099"/>
<path d="M313,251h 4" fill="none" stroke="#ff0099"/>
<g stroke="#ff0099" stroke-width="1" fill="#ff0099">
<circle cx=" 312" cy=" 251" r=" 1.5"/>
</g>
<path d="M323,289" fill="none" stroke="#ff0099"/>
<path d="M323,286" fill="none" stroke="#ff0099"/>
<path d="M317,288h 4" fill="none" stroke="#ff0099"/>
<path d="M324,288h 4" fill="none" stroke="#ff0099"/>
<g stroke="#ff0099" stroke-width="1" fill="#ff0099">
<circle cx=" 323" cy=" 288" r=" 1.5"/>
</g>
<path d="M334,319" fill="none" stroke="#ff0099"/>
<path d="M334,316" fill="none" stroke="#ff0099"/>
<path d="M328,318h 5" fill="none" stroke="#ff0099"/>
<path d="M335,318h 4" fill="none" stroke="#ff0099"/>
<g stroke="#ff0099" stroke-width="1" fill="#ff0099">
<circle cx=" 334" cy=" 318" r=" 1.5"/>
</g>
<path d="M345,347" fill="none" stroke="#ff0099"/>
<path d="M345,345" fill="none" stroke="#ff0099"/>
<path d="M339,346h 5" fill="none" stroke="#ff0099"/>
<path d="M346,346h 4" fill="none" stroke="#ff0099"/>
<g stroke="#ff0099" stroke-width="1" fill="#ff0099">
<circle cx=" 345" cy=" 346" r=" 1.5"/>
</g>
<path d="M356,370v -1" fill="none" stroke="#ff0099"/>
<path d="M356,367" fill="none" stroke="#ff0099"/>
<path d="M350,368h 5" fill="none" stroke="#ff0099"/>
<path d="M357,368h 4" fill="none" stroke="#ff0099"/>
<g stroke="#ff0099" stroke-width="1" fill="#ff0099">
<circle cx=" 356" cy=" 368" r=" 1.5"/>
</g>
<path d="M361,388h 5" fill="none" stroke="#ff0099"/>
<path d="M368,388h 4" fill="none" stroke="#ff0099"/>
<g stroke="#ff0099" stroke-width="1" fill="#ff0099">
<circle cx=" 367" cy=" 388" r=" 1.5"/>
</g>
<path d="M372,404h 5" fill="none" stroke="#ff0099"/>
<path d="M379,404h 4" fill="none" stroke="#ff0099"/>
<g stroke="#ff0099" stroke-width="1" fill="#ff0099">
<circle cx=" 378" cy=" 404" r=" 1.5"/>
</g>
<path d="M383,416h 5" fill="none" stroke="#ff0099"/>
<path d="M390,416h 4" fill="none" stroke="#ff0099"/>
<g stroke="#ff0099" stroke-width="1" fill="#ff0099">
<circle cx=" 389" cy=" 416" r=" 1.5"/>
</g>
<path d="M394,426h 5" fill="none" stroke="#ff0099"/>
<path d="M401,426h 5" fill="none" stroke="#ff0099"/>
<g stroke="#ff0099" stroke-width="1" fill="#ff0099">
<circle cx=" 400" cy=" 426" r=" 1.5"/>
</g>
<path d="M406,431h 4" fill="none" stroke="#ff0099"/>
<path d="M412,431h 5" fill="none" stroke="#ff0099"/>
<g stroke="#ff0099" stroke-width="1" fill="#ff0099">
<circle cx=" 411" cy=" 431" r=" 1.5"/>
</g>
<path d="M417,436h 4" fill="none" stroke="#ff0099"/>
<path d="M423,436h 5" fill="none" stroke="#ff0099"/>
<g stroke="#ff0099" stroke-width="1" fill="#ff0099">
<circle cx=" 422" cy=" 436" r=" 1.5"/>
</g>
<path d="M428,441h 4" fill="none" stroke="#ff0099"/>
<path d="M434,441h 5" fill="none" stroke="#ff0099"/>
<g stroke="#ff0099" stroke-width="1" fill="#ff0099">
<circle cx=" 433" cy=" 441" r=" 1.5"/>
</g>
<path d="M439,442h 4" fill="none" stroke="#ff0099"/>
<path d="M445,442h 5" fill="none" stroke="#ff0099"/>
<g stroke="#ff0099" stroke-width="1" fill="#ff0099">
<circle cx=" 444" cy=" 442" r=" 1.5"/>
</g>
<path d="M450,443h 4" fill="none" stroke="#ff0099"/>
<path d="M456,443h 5" fill="none" stroke="#ff0099"/>
<g stroke="#ff0099" stroke-width="1" fill="#ff0099">
<circle cx=" 455" cy=" 443" r=" 1.5"/>
</g>
<path d="M461,445h 4" fill="none" stroke="#ff0099"/>
<path d="M468,445h 4" fill="none" stroke="#ff0099"/>
<g stroke="#ff0099" stroke-width="1" fill="#ff0099">
<circle cx=" 466" cy=" 445" r=" 1.5"/>
</g>
<path d="M472,445h 4" fill="none" stroke="#ff0099"/>
<path d="M479,445h 4" fill="none" stroke="#ff0099"/>
<g stroke="#ff0099" stroke-width="1" fill="#ff0099">
<circle cx=" 477" cy=" 445" r=" 1.5"/>
</g>
<path d="M483,446h 4" fill="none" stroke="#ff0099"/>
<path d="M490,446h 4" fill="none" stroke="#ff0099"/>
<g stroke="#ff0099" stroke-width="1" fill="#ff0099">
<circle cx=" 489" cy=" 446" r=" 1.5"/>
</g>
<path d="M494,446h 4" fill="none" stroke="#ff0099"/>
<path d="M501,446h 4" fill="none" stroke="#ff0099"/>
<g stroke="#ff0099" stroke-width="1" fill="#ff0099">
<circle cx=" 500" cy=" 446" r=" 1.5"/>
</g>
<path d="M505,446h 5" fill="none" stroke="#ff0099"/>
<path d="M512,446h 4" fill="none" stroke="#ff0099"/>
<g stroke="#ff0099" stroke-width="1" fill="#ff0099">
<circle cx=" 511" cy=" 446" r=" 1.5"/>
</g>
<path d="M516,446h 5" fill="none" stroke="#ff0099"/>
<path d="M523,446h 4" fill="none" stroke="#ff0099"/>
<g stroke="#ff0099" stroke-width="1" fill="#ff0099">
<circle cx=" 522" cy=" 446" r=" 1.5"/>
</g>
<path d="M74,446h 453" fill="none" stroke="black"/>
<path d="M79,434v 12" fill="none" stroke="black"/>
<path d="M90,440v 6" fill="none" stroke="black"/>
<path d="M101,440v 6" fill="none" stroke="black"/>
<path d="M112,440v 6" fill="none" stroke="black"/>
<path d="M123,440v 6" fill="none" stroke="black"/>
<path d="M135,434v 12" fill="none" stroke="black"/>
<path d="M146,440v 6" fill="none" stroke="black"/>
<path d="M157,440v 6" fill="none" stroke="black"/>
<path d="M168,440v 6" fill="none" stroke="black"/>
<path d="M179,440v 6" fill="none" stroke="black"/>
<path d="M190,434v 12" fill="none" stroke="black"/>
<path d="M201,440v 6" fill="none" stroke="black"/>
<path d="M212,440v 6" fill="none" stroke="black"/>
<path d="M223,440v 6" fill="none" stroke="black"/>
<path d="M234,440v 6" fill="none" stroke="black"/>
<path d="M245,434v 12" fill="none" stroke="black"/>
<path d="M256,440v 6" fill="none" stroke="black"/>
<path d="M267,440v 6" fill="none" stroke="black"/>
<path d="M278,440v 6" fill="none" stroke="black"/>
<path d="M289,440v 6" fill="none" stroke="black"/>
<path d="M300,434v 12" fill="none" stroke="black"/>
<path d="M312,440v 6" fill="none" stroke="black"/>
<path d="M323,440v 6" fill="none" stroke="black"/>
<path d="M334,440v 6" fill="none" stroke="black"/>
<path d="M345,440v 6" fill="none" stroke="black"/>
<path d="M356,434v 12" fill="none" stroke="black"/>
<path d="M367,440v 6" fill="none" stroke="black"/>
<path d="M378,440v 6" fill="none" stroke="black"/>
<path d="M389,440v 6" fill="none" stroke="black"/>
<path d="M400,440v 6" fill="none" stroke="black"/>
<path d="M411,434v 12" fill="none" stroke="black"/>
<path d="M422,440v 6" fill="none" stroke="black"/>
<path d="M433,440v 6" fill="none" stroke="black"/>
<path d="M444,440v 6" fill="none" stroke="black"/>
<path d="M455,440v 6" fill="none" stroke="black"/>
<path d="M466,434v 12" fill="none" stroke="black"/>
<path d="M477,440v 6" fill="none" stroke="black"/>
<path d="M489,440v 6" fill="none" stroke="black"/>
<path d="M500,440v 6" fill="none" stroke="black"/>
<path d="M511,440v 6" fill="none" stroke="black"/>
<path d="M522,434v 12" fill="none" stroke="black"/>
<path d="M79,434v 12" fill="none" stroke="black"/>
<path d="M522,434v 12" fill="none" stroke="black"/>
<text x="74" y="465" fill="black" font-size="18" font-family="Helvetica" font-weight="bold">
0
</text>
<text x="129" y="465" fill="black" font-size="18" font-family="Helvetica" font-weight="bold">
5
</text>
<text x="179" y="465" fill="black" font-size="18" font-family="Helvetica" font-weight="bold">
10
</text>
<text x="235" y="465" fill="black" font-size="18" font-family="Helvetica" font-weight="bold">
15
</text>
<text x="290" y="465" fill="black" font-size="18" font-family="Helvetica" font-weight="bold">
20
</text>
<text x="346" y="465" fill="black" font-size="18" font-family="Helvetica" font-weight="bold">
25
</text>
<text x="401" y="465" fill="black" font-size="18" font-family="Helvetica" font-weight="bold">
30
</text>
<text x="456" y="465" fill="black" font-size="18" font-family="Helvetica" font-weight="bold">
35
</text>
<text x="511" y="465" fill="black" font-size="18" font-family="Helvetica" font-weight="bold">
40
</text>
<path d="M74,44h 453" fill="none" stroke="black"/>
<path d="M79,56v -12" fill="none" stroke="black"/>
<path d="M90,50v -6" fill="none" stroke="black"/>
<path d="M101,50v -6" fill="none" stroke="black"/>
<path d="M112,50v -6" fill="none" stroke="black"/>
<path d="M123,50v -6" fill="none" stroke="black"/>
<path d="M135,56v -12" fill="none" stroke="black"/>
<path d="M146,50v -6" fill="none" stroke="black"/>
<path d="M157,50v -6" fill="none" stroke="black"/>
<path d="M168,50v -6" fill="none" stroke="black"/>
<path d="M179,50v -6" fill="none" stroke="black"/>
<path d="M190,56v -12" fill="none" stroke="black"/>
<path d="M201,50v -6" fill="none" stroke="black"/>
<path d="M212,50v -6" fill="none" stroke="black"/>
<path d="M223,50v -6" fill="none" stroke="black"/>
<path d="M234,50v -6" fill="none" stroke="black"/>
<path d="M245,56v -12" fill="none" stroke="black"/>
<path d="M256,50v -6" fill="none" stroke="black"/>
<path d="M267,50v -6" fill="none" stroke="black"/>
<path d="M278,50v -6" fill="none" stroke="black"/>
<path d="M289,50v -6" fill="none" stroke="black"/>
<path d="M300,56v -12" fill="none" stroke="black"/>
<path d="M312,50v -6" fill="none" stroke="black"/>
<path d="M323,50v -6" fill="none" stroke="black"/>
<path d="M334,50v -6" fill="none" stroke="black"/>
<path d="M345,50v -6" fill="none" stroke="black"/>
<path d="M356,56v -12" fill="none" stroke="black"/>
<path d="M367,50v -6" fill="none" stroke="black"/>
<path d="M378,50v -6" fill="none" stroke="black"/>
<path d="M389,50v -6" fill="none" stroke="black"/>
<path d="M400,50v -6" fill="none" stroke="black"/>
<path d="M411,56v -12" fill="none" stroke="black"/>
<path d="M422,50v -6" fill="none" stroke="black"/>
<path d="M433,50v -6" fill="none" stroke="black"/>
<path d="M444,50v -6" fill="none" stroke="black"/>
<path d="M455,50v -6" fill="none" stroke="black"/>
<path d="M466,56v -12" fill="none" stroke="black"/>
<path d="M477,50v -6" fill="none" stroke="black"/>
<path d="M489,50v -6" fill="none" stroke="black"/>
<path d="M500,50v -6" fill="none" stroke="black"/>
<path d="M511,50v -6" fill="none" stroke="black"/>
<path d="M522,56v -12" fill="none" stroke="black"/>
<path d="M79,56v -12" fill="none" stroke="black"/>
<path d="M522,56v -12" fill="none" stroke="black"/>
<path d="M74,446v -402" fill="none" stroke="black"/>
<path d="M87,446h -13" fill="none" stroke="black"/>
<path d="M81,436h -7" fill="none" stroke="black"/>
<path d="M81,426h -7" fill="none" stroke="black"/>
<path d="M81,415h -7" fill="none" stroke="black"/>
<path d="M81,405h -7" fill="none" stroke="black"/>
<path d="M87,395h -13" fill="none" stroke="black"/>
<path d="M81,384h -7" fill="none" stroke="black"/>
<path d="M81,374h -7" fill="none" stroke="black"/>
<path d="M81,363h -7" fill="none" stroke="black"/>
<path d="M81,353h -7" fill="none" stroke="black"/>
<path d="M87,343h -13" fill="none" stroke="black"/>
<path d="M81,332h -7" fill="none" stroke="black"/>
<path d="M81,322h -7" fill="none" stroke="black"/>
<path d="M81,312h -7" fill="none" stroke="black"/>
<path d="M81,301h -7" fill="none" stroke="black"/>
<path d="M87,291h -13" fill="none" stroke="black"/>
<path d="M81,281h -7" fill="none" stroke="black"/>
<path d="M81,270h -7" fill="none" stroke="black"/>
<path d="M81,260h -7" fill="none" stroke="black"/>
<path d="M81,249h -7" fill="none" stroke="black"/>
<path d="M87,239h -13" fill="none" stroke="black"/>
<path d="M81,229h -7" fill="none" stroke="black"/>
<path d="M81,218h -7" fill="none" stroke="black"/>
<path d="M81,208h -7" fill="none" stroke="black"/>
<path d="M81,198h -7" fill="none" stroke="black"/>
<path d="M87,187h -13" fill="none" stroke="black"/>
<path d="M81,177h -7" fill="none" stroke="black"/>
<path d="M81,167h -7" fill="none" stroke="black"/>
<path d="M81,156h -7" fill="none" stroke="black"/>
<path d="M81,146h -7" fill="none" stroke="black"/>
<path d="M87,135h -13" fill="none" stroke="black"/>
<path d="M81,125h -7" fill="none" stroke="black"/>
<path d="M81,115h -7" fill="none" stroke="black"/>
<path d="M81,104h -7" fill="none" stroke="black"/>
<path d="M81,94h -7" fill="none" stroke="black"/>
<path d="M87,84h -13" fill="none" stroke="black"/>
<path d="M87,84h -13" fill="none" stroke="black"/>
<path d="M81,73h -7" fill="none" stroke="black"/>
<path d="M81,63h -7" fill="none" stroke="black"/>
<path d="M81,52h -7" fill="none" stroke="black"/>
<text x="61" y="453" fill="black" font-size="18" font-family="Helvetica" font-weight="bold">
0
</text>
<text x="37" y="401" fill="black" font-size="18" font-family="Helvetica" font-weight="bold">
0.01
</text>
<text x="35" y="349" fill="black" font-size="18" font-family="Helvetica" font-weight="bold">
0.02
</text>
<text x="35" y="297" fill="black" font-size="18" font-family="Helvetica" font-weight="bold">
0.03
</text>
<text x="34" y="246" fill="black" font-size="18" font-family="Helvetica" font-weight="bold">
0.04
</text>
<text x="34" y="194" fill="black" font-size="18" font-family="Helvetica" font-weight="bold">
0.05
</text>
<text x="34" y="142" fill="black" font-size="18" font-family="Helvetica" font-weight="bold">
0.06
</text>
<text x="35" y="90" fill="black" font-size="18" font-family="Helvetica" font-weight="bold">
0.07
</text>
<path d="M90,446" fill="none" stroke="#99ff99" stroke-width="2"/>
<path d="M90,446" fill="none" stroke="#99ff99" stroke-width="2"/>
<g stroke="black" stroke-width="2" fill="none">
<line x1="89" y1="446" x2="90" y2="446"/>
</g>
<path d="M101,444" fill="none" stroke="#99ff99" stroke-width="2"/>
<path d="M101,444" fill="none" stroke="#99ff99" stroke-width="2"/>
<g stroke="black" stroke-width="2" fill="none">
<line x1="100" y1="444" x2="101" y2="444"/>
</g>
<path d="M112,439v -1" fill="none" stroke="#99ff99" stroke-width="2"/>
<path d="M112,438" fill="none" stroke="#99ff99" stroke-width="2"/>
<g stroke="black" stroke-width="2" fill="none">
<line x1="111" y1="438" x2="112" y2="438"/>
</g>
<path d="M123,427v -1" fill="none" stroke="#99ff99" stroke-width="2"/>
<path d="M123,426v -2" fill="none" stroke="#99ff99" stroke-width="2"/>
<g stroke="black" stroke-width="2" fill="none">
<line x1="122" y1="426" x2="123" y2="426"/>
</g>
<path d="M135,405v -1" fill="none" stroke="#99ff99" stroke-width="2"/>
<path d="M135,404v -1" fill="none" stroke="#99ff99" stroke-width="2"/>
<g stroke="black" stroke-width="2" fill="none">
<line x1="134" y1="404" x2="135" y2="404"/>
</g>
<path d="M146,371v -3" fill="none" stroke="#99ff99" stroke-width="2"/>
<path d="M146,368v -3" fill="none" stroke="#99ff99" stroke-width="2"/>
<g stroke="black" stroke-width="2" fill="none">
<line x1="145" y1="368" x2="146" y2="368"/>
</g>
<path d="M157,328v -2" fill="none" stroke="#99ff99" stroke-width="2"/>
<path d="M157,326v -2" fill="none" stroke="#99ff99" stroke-width="2"/>
<g stroke="black" stroke-width="2" fill="none">
<line x1="156" y1="326" x2="157" y2="326"/>
</g>
<path d="M168,282v -2" fill="none" stroke="#99ff99" stroke-width="2"/>
<path d="M168,280v -1" fill="none" stroke="#99ff99" stroke-width="2"/>
<g stroke="black" stroke-width="2" fill="none">
<line x1="167" y1="280" x2="168" y2="280"/>
</g>
<path d="M179,229v -2" fill="none" stroke="#99ff99" stroke-width="2"/>
<path d="M179,227v -3" fill="none" stroke="#99ff99" stroke-width="2"/>
<g stroke="black" stroke-width="2" fill="none">
<line x1="178" y1="227" x2="179" y2="227"/>
</g>
<path d="M190,180v -4" fill="none" stroke="#99ff99" stroke-width="2"/>
<path d="M190,176v -4" fill="none" stroke="#99ff99" stroke-width="2"/>
<g stroke="black" stroke-width="2" fill="none">
<line x1="189" y1="176" x2="190" y2="176"/>
</g>
<path d="M201,142v -2" fill="none" stroke="#99ff99" stroke-width="2"/>
<path d="M201,140v -1" fill="none" stroke="#99ff99" stroke-width="2"/>
<g stroke="black" stroke-width="2" fill="none">
<line x1="200" y1="140" x2="201" y2="140"/>
</g>
<path d="M212,110v -4" fill="none" stroke="#99ff99" stroke-width="2"/>
<path d="M212,106v -3" fill="none" stroke="#99ff99" stroke-width="2"/>
<g stroke="black" stroke-width="2" fill="none">
<line x1="211" y1="106" x2="212" y2="106"/>
</g>
<path d="M223,89v -5" fill="none" stroke="#99ff99" stroke-width="2"/>
<path d="M223,84v -4" fill="none" stroke="#99ff99" stroke-width="2"/>
<g stroke="black" stroke-width="2" fill="none">
<line x1="222" y1="84" x2="223" y2="84"/>
</g>
<path d="M234,85v -4" fill="none" stroke="#99ff99" stroke-width="2"/>
<path d="M234,81v -4" fill="none" stroke="#99ff99" stroke-width="2"/>
<g stroke="black" stroke-width="2" fill="none">
<line x1="233" y1="81" x2="234" y2="81"/>
</g>
<path d="M245,84v -2" fill="none" stroke="#99ff99" stroke-width="2"/>
<path d="M245,82v -3" fill="none" stroke="#99ff99" stroke-width="2"/>
<g stroke="black" stroke-width="2" fill="none">
<line x1="244" y1="82" x2="245" y2="82"/>
</g>
<path d="M256,99v -3" fill="none" stroke="#99ff99" stroke-width="2"/>
<path d="M256,96v -4" fill="none" stroke="#99ff99" stroke-width="2"/>
<g stroke="black" stroke-width="2" fill="none">
<line x1="255" y1="96" x2="256" y2="96"/>
</g>
<path d="M267,115v -4" fill="none" stroke="#99ff99" stroke-width="2"/>
<path d="M267,111v -3" fill="none" stroke="#99ff99" stroke-width="2"/>
<g stroke="black" stroke-width="2" fill="none">
<line x1="266" y1="111" x2="267" y2="111"/>
</g>
<path d="M278,142v -3" fill="none" stroke="#99ff99" stroke-width="2"/>
<path d="M278,139v -3" fill="none" stroke="#99ff99" stroke-width="2"/>
<g stroke="black" stroke-width="2" fill="none">
<line x1="277" y1="139" x2="278" y2="139"/>
</g>
<path d="M289,172v -3" fill="none" stroke="#99ff99" stroke-width="2"/>
<path d="M289,169v -3" fill="none" stroke="#99ff99" stroke-width="2"/>
<g stroke="black" stroke-width="2" fill="none">
<line x1="288" y1="169" x2="289" y2="169"/>
</g>
<path d="M300,204v -3" fill="none" stroke="#99ff99" stroke-width="2"/>
<path d="M300,201v -2" fill="none" stroke="#99ff99" stroke-width="2"/>
<g stroke="black" stroke-width="2" fill="none">
<line x1="299" y1="201" x2="300" y2="201"/>
</g>
<path d="M312,236v -2" fill="none" stroke="#99ff99" stroke-width="2"/>
<path d="M312,234v -2" fill="none" stroke="#99ff99" stroke-width="2"/>
<g stroke="black" stroke-width="2" fill="none">
<line x1="311" y1="234" x2="312" y2="234"/>
</g>
<path d="M323,271v -3" fill="none" stroke="#99ff99" stroke-width="2"/>
<path d="M323,268v -2" fill="none" stroke="#99ff99" stroke-width="2"/>
<g stroke="black" stroke-width="2" fill="none">
<line x1="322" y1="268" x2="323" y2="268"/>
</g>
<path d="M334,300v -2" fill="none" stroke="#99ff99" stroke-width="2"/>
<path d="M334,298v -3" fill="none" stroke="#99ff99" stroke-width="2"/>
<g stroke="black" stroke-width="2" fill="none">
<line x1="333" y1="298" x2="334" y2="298"/>
</g>
<path d="M345,329v -2" fill="none" stroke="#99ff99" stroke-width="2"/>
<path d="M345,327v -3" fill="none" stroke="#99ff99" stroke-width="2"/>
<g stroke="black" stroke-width="2" fill="none">
<line x1="344" y1="327" x2="345" y2="327"/>
</g>
<path d="M356,355v -1" fill="none" stroke="#99ff99" stroke-width="2"/>
<path d="M356,354v -2" fill="none" stroke="#99ff99" stroke-width="2"/>
<g stroke="black" stroke-width="2" fill="none">
<line x1="355" y1="354" x2="356" y2="354"/>
</g>
<path d="M367,378v -1" fill="none" stroke="#99ff99" stroke-width="2"/>
<path d="M367,377" fill="none" stroke="#99ff99" stroke-width="2"/>
<g stroke="black" stroke-width="2" fill="none">
<line x1="366" y1="377" x2="367" y2="377"/>
</g>
<path d="M378,395v -1" fill="none" stroke="#99ff99" stroke-width="2"/>
<path d="M378,394v -2" fill="none" stroke="#99ff99" stroke-width="2"/>
<g stroke="black" stroke-width="2" fill="none">
<line x1="377" y1="394" x2="378" y2="394"/>
</g>
<path d="M389,408v -1" fill="none" stroke="#99ff99" stroke-width="2"/>
<path d="M389,407" fill="none" stroke="#99ff99" stroke-width="2"/>
<g stroke="black" stroke-width="2" fill="none">
<line x1="388" y1="407" x2="389" y2="407"/>
</g>
<path d="M400,419" fill="none" stroke="#99ff99" stroke-width="2"/>
<path d="M400,419v -1" fill="none" stroke="#99ff99" stroke-width="2"/>
<g stroke="black" stroke-width="2" fill="none">
<line x1="399" y1="419" x2="400" y2="419"/>
</g>
<path d="M411,427" fill="none" stroke="#99ff99" stroke-width="2"/>
<path d="M411,427v -1" fill="none" stroke="#99ff99" stroke-width="2"/>
<g stroke="black" stroke-width="2" fill="none">
<line x1="410" y1="427" x2="411" y2="427"/>
</g>
<path d="M422,433" fill="none" stroke="#99ff99" stroke-width="2"/>
<path d="M422,433" fill="none" stroke="#99ff99" stroke-width="2"/>
<g stroke="black" stroke-width="2" fill="none">
<line x1="421" y1="433" x2="422" y2="433"/>
</g>
<path d="M433,437" fill="none" stroke="#99ff99" stroke-width="2"/>
<path d="M433,437" fill="none" stroke="#99ff99" stroke-width="2"/>
<g stroke="black" stroke-width="2" fill="none">
<line x1="432" y1="437" x2="433" y2="437"/>
</g>
<path d="M444,440" fill="none" stroke="#99ff99" stroke-width="2"/>
<path d="M444,440" fill="none" stroke="#99ff99" stroke-width="2"/>
<g stroke="black" stroke-width="2" fill="none">
<line x1="443" y1="440" x2="444" y2="440"/>
</g>
<path d="M455,442" fill="none" stroke="#99ff99" stroke-width="2"/>
<path d="M455,442" fill="none" stroke="#99ff99" stroke-width="2"/>
<g stroke="black" stroke-width="2" fill="none">
<line x1="454" y1="442" x2="455" y2="442"/>
</g>
<path d="M466,444" fill="none" stroke="#99ff99" stroke-width="2"/>
<path d="M466,444v -1" fill="none" stroke="#99ff99" stroke-width="2"/>
<g stroke="black" stroke-width="2" fill="none">
<line x1="465" y1="444" x2="466" y2="444"/>
</g>
<path d="M477,445" fill="none" stroke="#99ff99" stroke-width="2"/>
<path d="M477,445v -1" fill="none" stroke="#99ff99" stroke-width="2"/>
<g stroke="black" stroke-width="2" fill="none">
<line x1="476" y1="445" x2="477" y2="445"/>
</g>
<path d="M489,445" fill="none" stroke="#99ff99" stroke-width="2"/>
<path d="M489,445" fill="none" stroke="#99ff99" stroke-width="2"/>
<g stroke="black" stroke-width="2" fill="none">
<line x1="488" y1="445" x2="489" y2="445"/>
</g>
<path d="M500,446" fill="none" stroke="#99ff99" stroke-width="2"/>
<path d="M500,446" fill="none" stroke="#99ff99" stroke-width="2"/>
<g stroke="black" stroke-width="2" fill="none">
<line x1="499" y1="446" x2="500" y2="446"/>
</g>
<path d="M511,446" fill="none" stroke="#99ff99" stroke-width="2"/>
<path d="M511,446v -1" fill="none" stroke="#99ff99" stroke-width="2"/>
<g stroke="black" stroke-width="2" fill="none">
<line x1="510" y1="446" x2="511" y2="446"/>
</g>
<path d="M522,446" fill="none" stroke="#99ff99" stroke-width="2"/>
<path d="M522,446" fill="none" stroke="#99ff99" stroke-width="2"/>
<g stroke="black" stroke-width="2" fill="none">
<line x1="521" y1="446" x2="522" y2="446"/>
</g>
<path d="M74,446h 22v -2h 11v -6h 11v -12h 11v -22h 11v -36h 11v -42h 11v -46h 11v -53h 11v -51h 11v -36h 11v -34h 12v -22h 11v -3h 11v 1h 11v 14h 11v 15h 11v 28h 11v 30h 11v 32h 11v 33h 11v 34h 11v 30h 11v 29h 11v 27h 11v 23h 11v 17h 11v 13h 11v 12h
 12v 8h 11v 6h 11v 4h 11v 3h 11v 2h 11v 2h 11v 1h 22v 1h 33z" fill="#99ff99"/>
<path d="M74,446h 22v -2h 11v -6h 11v -12h 11v -22h 11v -36h 11v -42h 11v -46h 11v -53h 11v -51h 11v -36h 11v -34h 12v -22h 11v -3h 11v 1h 11v 14h 11v 15h 11v 28h 11v 30h 11v 32h 11v 33h 11v 34h 11v 30h 11v 29h 11v 27h 11v 23h 11v 17h 11v 13h 11v 12h
 12v 8h 11v 6h 11v 4h 11v 3h 11v 2h 11v 2h 11v 1h 22v 1h 33" fill="none" stroke="#99ff99" stroke-width="2"/>
<path d="M85,446h 4" fill="none" stroke="#ff0099"/>
<path d="M91,446h 5" fill="none" stroke="#ff0099"/>
<g stroke="#ff0099" stroke-width="1" fill="#ff0099">
<circle cx=" 90" cy=" 446" r=" 1.5"/>
</g>
<path d="M96,444h 4" fill="none" stroke="#ff0099"/>
<path d="M102,444h 5" fill="none" stroke="#ff0099"/>
<g stroke="#ff0099" stroke-width="1" fill="#ff0099">
<circle cx=" 101" cy=" 444" r=" 1.5"/>
</g>
<path d="M107,439h 4" fill="none" stroke="#ff0099"/>
<path d="M114,439h 4" fill="none" stroke="#ff0099"/>
<g stroke="#ff0099" stroke-width="1" fill="#ff0099">
<circle cx=" 112" cy=" 439" r=" 1.5"/>
</g>
<path d="M118,424h 4" fill="none" stroke="#ff0099"/>
<path d="M125,424h 4" fill="none" stroke="#ff0099"/>
<g stroke="#ff0099" stroke-width="1" fill="#ff0099">
<circle cx=" 123" cy=" 424" r=" 1.5"/>
</g>
<path d="M129,398h 4" fill="none" stroke="#ff0099"/>
<path d="M136,398h 4" fill="none" stroke="#ff0099"/>
<g stroke="#ff0099" stroke-width="1" fill="#ff0099">
<circle cx=" 135" cy=" 398" r=" 1.5"/>
</g>
<path d="M140,361h 4" fill="none" stroke="#ff0099"/>
<path d="M147,361h 4" fill="none" stroke="#ff0099"/>
<g stroke="#ff0099" stroke-width="1" fill="#ff0099">
<circle cx=" 146" cy=" 361" r=" 1.5"/>
</g>
<path d="M157,317" fill="none" stroke="#ff0099"/>
<path d="M157,315v -1" fill="none" stroke="#ff0099"/>
<path d="M151,316h 5" fill="none" stroke="#ff0099"/>
<path d="M158,316h 4" fill="none" stroke="#ff0099"/>
<g stroke="#ff0099" stroke-width="1" fill="#ff0099">
<circle cx=" 157" cy=" 316" r=" 1.5"/>
</g>
<path d="M168,265" fill="none" stroke="#ff0099"/>
<path d="M168,263v -1" fill="none" stroke="#ff0099"/>
<path d="M162,264h 5" fill="none" stroke="#ff0099"/>
<path d="M169,264h 4" fill="none" stroke="#ff0099"/>
<g stroke="#ff0099" stroke-width="1" fill="#ff0099">
<circle cx=" 168" cy=" 264" r=" 1.5"/>
</g>
<path d="M179,205v -1" fill="none" stroke="#ff0099"/>
<path d="M179,202v -1" fill="none" stroke="#ff0099"/>
<path d="M173,203h 5" fill="none" stroke="#ff0099"/>
<path d="M180,203h 4" fill="none" stroke="#ff0099"/>
<g stroke="#ff0099" stroke-width="1" fill="#ff0099">
<circle cx=" 179" cy=" 203" r=" 1.5"/>
</g>
<path d="M190,156v -1" fill="none" stroke="#ff0099"/>
<path d="M190,152v -1" fill="none" stroke="#ff0099"/>
<path d="M184,153h 5" fill="none" stroke="#ff0099"/>
<path d="M191,153h 4" fill="none" stroke="#ff0099"/>
<g stroke="#ff0099" stroke-width="1" fill="#ff0099">
<circle cx=" 190" cy=" 153" r=" 1.5"/>
</g>
<path d="M201,118v -1" fill="none" stroke="#ff0099"/>
<path d="M201,114v -1" fill="none" stroke="#ff0099"/>
<path d="M195,115h 5" fill="none" stroke="#ff0099"/>
<path d="M202,115h 4" fill="none" stroke="#ff0099"/>
<g stroke="#ff0099" stroke-width="1" fill="#ff0099">
<circle cx=" 201" cy=" 115" r=" 1.5"/>
</g>
<path d="M212,87v -1" fill="none" stroke="#ff0099"/>
<path d="M212,84v -2" fill="none" stroke="#ff0099"/>
<path d="M206,85h 5" fill="none" stroke="#ff0099"/>
<path d="M213,85h 5" fill="none" stroke="#ff0099"/>
<g stroke="#ff0099" stroke-width="1" fill="#ff0099">
<circle cx=" 212" cy=" 85" r=" 1.5"/>
</g>
<path d="M223,71v -1" fill="none" stroke="#ff0099"/>
<path d="M223,67v -1" fill="none" stroke="#ff0099"/>
<path d="M218,68h 4" fill="none" stroke="#ff0099"/>
<path d="M224,68h 5" fill="none" stroke="#ff0099"/>
<g stroke="#ff0099" stroke-width="1" fill="#ff0099">
<circle cx=" 223" cy=" 68" r=" 1.5"/>
</g>
<path d="M234,69v -2" fill="none" stroke="#ff0099"/>
<path d="M234,65v -2" fill="none" stroke="#ff0099"/>
<path d="M229,66h 4" fill="none" stroke="#ff0099"/>
<path d="M235,66h 5" fill="none" stroke="#ff0099"/>
<g stroke="#ff0099" stroke-width="1" fill="#ff0099">
<circle cx=" 234" cy=" 66" r=" 1.5"/>
</g>
<path d="M245,75v -2" fill="none" stroke="#ff0099"/>
<path d="M245,71v -1" fill="none" stroke="#ff0099"/>
<path d="M240,72h 4" fill="none" stroke="#ff0099"/>
<path d="M246,72h 5" fill="none" stroke="#ff0099"/>
<g stroke="#ff0099" stroke-width="1" fill="#ff0099">
<circle cx=" 245" cy=" 72" r=" 1.5"/>
</g>
<path d="M256,94v -1" fill="none" stroke="#ff0099"/>
<path d="M256,90v -1" fill="none" stroke="#ff0099"/>
<path d="M251,92h 4" fill="none" stroke="#ff0099"/>
<path d="M257,92h 5" fill="none" stroke="#ff0099"/>
<g stroke="#ff0099" stroke-width="1" fill="#ff0099">
<circle cx=" 256" cy=" 92" r=" 1.5"/>
</g>
<path d="M267,113v -2" fill="none" stroke="#ff0099"/>
<path d="M267,109v -1" fill="none" stroke="#ff0099"/>
<path d="M262,110h 4" fill="none" stroke="#ff0099"/>
<path d="M268,110h 5" fill="none" stroke="#ff0099"/>
<g stroke="#ff0099" stroke-width="1" fill="#ff0099">
<circle cx=" 267" cy=" 110" r=" 1.5"/>
</g>
<path d="M278,149v -1" fill="none" stroke="#ff0099"/>
<path d="M278,146v -2" fill="none" stroke="#ff0099"/>
<path d="M273,147h 4" fill="none" stroke="#ff0099"/>
<path d="M279,147h 5" fill="none" stroke="#ff0099"/>
<g stroke="#ff0099" stroke-width="1" fill="#ff0099">
<circle cx=" 278" cy=" 147" r=" 1.5"/>
</g>
<path d="M289,184v -1" fill="none" stroke="#ff0099"/>
<path d="M289,180v -1" fill="none" stroke="#ff0099"/>
<path d="M284,181h 4" fill="none" stroke="#ff0099"/>
<path d="M291,181h 4" fill="none" stroke="#ff0099"/>
<g stroke="#ff0099" stroke-width="1" fill="#ff0099">
<circle cx=" 289" cy=" 181" r=" 1.5"/>
</g>
<path d="M300,217v -1" fill="none" stroke="#ff0099"/>
<path d="M300,213v -1" fill="none" stroke="#ff0099"/>
<path d="M295,215h 4" fill="none" stroke="#ff0099"/>
<path d="M302,215h 4" fill="none" stroke="#ff0099"/>
<g stroke="#ff0099" stroke-width="1" fill="#ff0099">
<circle cx=" 300" cy=" 215" r=" 1.5"/>
</g>
<path d="M312,252" fill="none" stroke="#ff0099"/>
<path d="M312,249" fill="none" stroke="#ff0099"/>
<path d="M306,251h 4" fill="none" stroke="#ff0099"/>
<path d="M313,251h 4" fill="none" stroke="#ff0099"/>
<g stroke="#ff0099" stroke-width="1" fill="#ff0099">
<circle cx=" 312" cy=" 251" r=" 1.5"/>
</g>
<path d="M323,289" fill="none" stroke="#ff0099"/>
<path d="M323,286" fill="none" stroke="#ff0099"/>
<path d="M317,288h 4" fill="none" stroke="#ff0099"/>
<path d="M324,288h 4" fill="none" stroke="#ff0099"/>
<g stroke="#ff0099" stroke-width="1" fill="#ff0099">
<circle cx=" 323" cy=" 288" r=" 1.5"/>
</g>
<path d="M334,319" fill="none" stroke="#ff0099"/>
<path d="M334,316" fill="none" stroke="#ff0099"/>
<path d="M328,318h 5" fill="none" stroke="#ff0099"/>
<path d="M335,318h 4" fill="none" stroke="#ff0099"/>
<g stroke="#ff0099" stroke-width="1" fill="#ff0099">
<circle cx=" 334" cy=" 318" r=" 1.5"/>
</g>
<path d="M345,347" fill="none" stroke="#ff0099"/>
<path d="M345,345" fill="none" stroke="#ff0099"/>
<path d="M339,346h 5" fill="none" stroke="#ff0099"/>
<path d="M346,346h 4" fill="none" stroke="#ff0099"/>
<g stroke="#ff0099" stroke-width="1" fill="#ff0099">
<circle cx=" 345" cy=" 346" r=" 1.5"/>
</g>
<path d="M356,370v -1" fill="none" stroke="#ff0099"/>
<path d="M356,367" fill="none" stroke="#ff0099"/>
<path d="M350,368h 5" fill="none" stroke="#ff0099"/>
<path d="M357,368h 4" fill="none" stroke="#ff0099"/>
<g stroke="#ff0099" stroke-width="1" fill="#ff0099">
<circle cx=" 356" cy=" 368" r=" 1.5"/>
</g>
<path d="M361,388h 5" fill="none" stroke="#ff0099"/>
<path d="M368,388h 4" fill="none" stroke="#ff0099"/>
<g stroke="#ff0099" stroke-width="1" fill="#ff0099">
<circle cx=" 367" cy=" 388" r=" 1.5"/>
</g>
<path d="M372,404h 5" fill="none" stroke="#ff0099"/>
<path d="M379,404h 4" fill="none" stroke="#ff0099"/>
<g stroke="#ff0099" stroke-width="1" fill="#ff0099">
<circle cx=" 378" cy=" 404" r=" 1.5"/>
</g>
<path d="M383,416h 5" fill="none" stroke="#ff0099"/>
<path d="M390,416h 4" fill="none" stroke="#ff0099"/>
<g stroke="#ff0099" stroke-width="1" fill="#ff0099">
<circle cx=" 389" cy=" 416" r=" 1.5"/>
</g>
<path d="M394,426h 5" fill="none" stroke="#ff0099"/>
<path d="M401,426h 5" fill="none" stroke="#ff0099"/>
<g stroke="#ff0099" stroke-width="1" fill="#ff0099">
<circle cx=" 400" cy=" 426" r=" 1.5"/>
</g>
<path d="M406,431h 4" fill="none" stroke="#ff0099"/>
<path d="M412,431h 5" fill="none" stroke="#ff0099"/>
<g stroke="#ff0099" stroke-width="1" fill="#ff0099">
<circle cx=" 411" cy=" 431" r=" 1.5"/>
</g>
<path d="M417,436h 4" fill="none" stroke="#ff0099"/>
<path d="M423,436h 5" fill="none" stroke="#ff0099"/>
<g stroke="#ff0099" stroke-width="1" fill="#ff0099">
<circle cx=" 422" cy=" 436" r=" 1.5"/>
</g>
<path d="M428,441h 4" fill="none" stroke="#ff0099"/>
<path d="M434,441h 5" fill="none" stroke="#ff0099"/>
<g stroke="#ff0099" stroke-width="1" fill="#ff0099">
<circle cx=" 433" cy=" 441" r=" 1.5"/>
</g>
<path d="M439,442h 4" fill="none" stroke="#ff0099"/>
<path d="M445,442h 5" fill="none" stroke="#ff0099"/>
<g stroke="#ff0099" stroke-width="1" fill="#ff0099">
<circle cx=" 444" cy=" 442" r=" 1.5"/>
</g>
<path d="M450,443h 4" fill="none" stroke="#ff0099"/>
<path d="M456,443h 5" fill="none" stroke="#ff0099"/>
<g stroke="#ff0099" stroke-width="1" fill="#ff0099">
<circle cx=" 455" cy=" 443" r=" 1.5"/>
</g>
<path d="M461,445h 4" fill="none" stroke="#ff0099"/>
<path d="M468,445h 4" fill="none" stroke="#ff0099"/>
<g stroke="#ff0099" stroke-width="1" fill="#ff0099">
<circle cx=" 466" cy=" 445" r=" 1.5"/>
</g>
<path d="M472,445h 4" fill="none" stroke="#ff0099"/>
<path d="M479,445h 4" fill="none" stroke="#ff0099"/>
<g stroke="#ff0099" stroke-width="1" fill="#ff0099">
<circle cx=" 477" cy=" 445" r=" 1.5"/>
</g>
<path d="M483,446h 4" fill="none" stroke="#ff0099"/>
<path d="M490,446h 4" fill="none" stroke="#ff0099"/>
<g stroke="#ff0099" stroke-width="1" fill="#ff0099">
<circle cx=" 489" cy=" 446" r=" 1.5"/>
</g>
<path d="M494,446h 4" fill="none" stroke="#ff0099"/>
<path d="M501,446h 4" fill="none" stroke="#ff0099"/>
<g stroke="#ff0099" stroke-width="1" fill="#ff0099">
<circle cx=" 500" cy=" 446" r=" 1.5"/>
</g>
<path d="M505,446h 5" fill="none" stroke="#ff0099"/>
<path d="M512,446h 4" fill="none" stroke="#ff0099"/>
<g stroke="#ff0099" stroke-width="1" fill="#ff0099">
<circle cx=" 511" cy=" 446" r=" 1.5"/>
</g>
<path d="M516,446h 5" fill="none" stroke="#ff0099"/>
<path d="M523,446h 4" fill="none" stroke="#ff0099"/>
<g stroke="#ff0099" stroke-width="1" fill="#ff0099">
<circle cx=" 522" cy=" 446" r=" 1.5"/>
</g>
<rect x="357" y="59" width="142" height="99" fill="white"/>
<text x="360" y="82" fill="black" font-size="17" font-family="Helvetica" font-weight="bold">
EB
</text>
<text x="457" y="115" fill="black" font-size="17" font-family="Helvetica" font-weight="bold">
 ee
</text>
<text x="440" y="115" fill="black" font-size="17" font-family="Times">
&#8594;
</text>
<text x="392" y="115" fill="black" font-size="17" font-family="Helvetica" font-weight="bold">
MC Z 
</text>
<path d="M362,109h 25" fill="none" stroke="#ff0099"/>
<g stroke="#ff0099" stroke-width="1" fill="#ff0099">
<circle cx=" 375" cy=" 109" r=" 1.5"/>
</g>
<text x="455" y="147" fill="black" font-size="17" font-family="Helvetica" font-weight="bold">
 + jet
</text>
<text x="447" y="147" fill="black" font-size="17" font-family="Times">
&#0947;
</text>
<text x="392" y="147" fill="black" font-size="17" font-family="Helvetica" font-weight="bold">
signal 
</text>
<path d="M362,154h 25v -24h -25z" fill="#99ff99"/>
<path d="M362,130h 25" fill="none" stroke="#99ff99" stroke-width="2"/>
<path d="M362,154h 25" fill="none" stroke="#99ff99" stroke-width="2"/>
<path d="M387,154v -24" fill="none" stroke="#99ff99" stroke-width="2"/>
<path d="M362,154v -24" fill="none" stroke="#99ff99" stroke-width="2"/>
<text x="300" y="34" fill="black" font-size="17" font-family="Helvetica" font-weight="bold">
=8 TeV
</text>
<text x="291" y="34" fill="black" font-size="17" font-family="Helvetica" font-weight="bold">
s
</text>
<path d="M285,25l 2, 10" fill="none" stroke="black" stroke-width="2"/>
<path d="M287,35l 2, -14" fill="none" stroke="black"/>
<path d="M289,21h 11" fill="none" stroke="black"/>
<text x="142" y="34" fill="black" font-size="17" font-family="Helvetica" font-weight="bold">
CMS Preliminary 
</text></svg>
