<?xml version="1.0" standalone="no"?>
<svg width="567" height="496" viewBox="0 0 567 496" xmlns="http://www.w3.org/2000/svg">
<title>
plots_mcZee_mcGJet//hlt150//etaPhotEB.svg
</title>
<desc>
Creator: ROOT Version 5.32/00
CreationDate: Sat Nov 29 19:43:02 2014</desc>
<defs>
</defs>
<rect x="0" y="0" width="567" height="496" fill="white"/>
<rect x="74" y="44" width="453" height="402" fill="white"/>
<rect x="74" y="44" width="453" height="402" fill="none" stroke="black"/>
<rect x="74" y="44" width="453" height="402" fill="white"/>
<rect x="74" y="44" width="453" height="402" fill="none" stroke="black"/>
<path d="M191,302v -6" fill="none" stroke="#ff0099"/>
<path d="M191,293v -6" fill="none" stroke="#ff0099"/>
<path d="M187,294h 3" fill="none" stroke="#ff0099"/>
<path d="M192,294h 3" fill="none" stroke="#ff0099"/>
<g stroke="#ff0099" stroke-width="1" fill="#ff0099">
<circle cx=" 191" cy=" 294" r=" 1.5"/>
</g>
<path d="M198,119v -9" fill="none" stroke="#ff0099"/>
<path d="M198,108v -9" fill="none" stroke="#ff0099"/>
<path d="M195,109h 2" fill="none" stroke="#ff0099"/>
<path d="M200,109h 2" fill="none" stroke="#ff0099"/>
<g stroke="#ff0099" stroke-width="1" fill="#ff0099">
<circle cx=" 198" cy=" 109" r=" 1.5"/>
</g>
<path d="M206,140v -8" fill="none" stroke="#ff0099"/>
<path d="M206,129v -8" fill="none" stroke="#ff0099"/>
<path d="M202,131h 3" fill="none" stroke="#ff0099"/>
<path d="M207,131h 3" fill="none" stroke="#ff0099"/>
<g stroke="#ff0099" stroke-width="1" fill="#ff0099">
<circle cx=" 206" cy=" 131" r=" 1.5"/>
</g>
<path d="M214,147v -8" fill="none" stroke="#ff0099"/>
<path d="M214,137v -9" fill="none" stroke="#ff0099"/>
<path d="M210,138h 2" fill="none" stroke="#ff0099"/>
<path d="M215,138h 2" fill="none" stroke="#ff0099"/>
<g stroke="#ff0099" stroke-width="1" fill="#ff0099">
<circle cx=" 214" cy=" 138" r=" 1.5"/>
</g>
<path d="M221,131v -7" fill="none" stroke="#ff0099"/>
<path d="M221,121v -8" fill="none" stroke="#ff0099"/>
<path d="M217,122h 3" fill="none" stroke="#ff0099"/>
<path d="M222,122h 3" fill="none" stroke="#ff0099"/>
<g stroke="#ff0099" stroke-width="1" fill="#ff0099">
<circle cx=" 221" cy=" 122" r=" 1.5"/>
</g>
<path d="M229,115v -9" fill="none" stroke="#ff0099"/>
<path d="M229,104v -9" fill="none" stroke="#ff0099"/>
<path d="M225,105h 3" fill="none" stroke="#ff0099"/>
<path d="M230,105h 2" fill="none" stroke="#ff0099"/>
<g stroke="#ff0099" stroke-width="1" fill="#ff0099">
<circle cx=" 229" cy=" 105" r=" 1.5"/>
</g>
<path d="M236,84v -9" fill="none" stroke="#ff0099"/>
<path d="M236,72v -9" fill="none" stroke="#ff0099"/>
<path d="M232,74h 3" fill="none" stroke="#ff0099"/>
<path d="M237,74h 3" fill="none" stroke="#ff0099"/>
<g stroke="#ff0099" stroke-width="1" fill="#ff0099">
<circle cx=" 236" cy=" 74" r=" 1.5"/>
</g>
<path d="M244,133v -8" fill="none" stroke="#ff0099"/>
<path d="M244,122v -7" fill="none" stroke="#ff0099"/>
<path d="M240,124h 3" fill="none" stroke="#ff0099"/>
<path d="M245,124h 3" fill="none" stroke="#ff0099"/>
<g stroke="#ff0099" stroke-width="1" fill="#ff0099">
<circle cx=" 244" cy=" 124" r=" 1.5"/>
</g>
<path d="M251,91v -8" fill="none" stroke="#ff0099"/>
<path d="M251,81v -9" fill="none" stroke="#ff0099"/>
<path d="M248,82h 2" fill="none" stroke="#ff0099"/>
<path d="M252,82h 3" fill="none" stroke="#ff0099"/>
<g stroke="#ff0099" stroke-width="1" fill="#ff0099">
<circle cx=" 251" cy=" 82" r=" 1.5"/>
</g>
<path d="M259,108v -7" fill="none" stroke="#ff0099"/>
<path d="M259,98v -7" fill="none" stroke="#ff0099"/>
<path d="M255,100h 3" fill="none" stroke="#ff0099"/>
<path d="M260,100h 3" fill="none" stroke="#ff0099"/>
<g stroke="#ff0099" stroke-width="1" fill="#ff0099">
<circle cx=" 259" cy=" 100" r=" 1.5"/>
</g>
<path d="M266,98v -8" fill="none" stroke="#ff0099"/>
<path d="M266,88v -8" fill="none" stroke="#ff0099"/>
<path d="M263,89h 2" fill="none" stroke="#ff0099"/>
<path d="M268,89h 2" fill="none" stroke="#ff0099"/>
<g stroke="#ff0099" stroke-width="1" fill="#ff0099">
<circle cx=" 266" cy=" 89" r=" 1.5"/>
</g>
<path d="M274,99v -8" fill="none" stroke="#ff0099"/>
<path d="M274,89v -8" fill="none" stroke="#ff0099"/>
<path d="M270,90h 3" fill="none" stroke="#ff0099"/>
<path d="M275,90h 3" fill="none" stroke="#ff0099"/>
<g stroke="#ff0099" stroke-width="1" fill="#ff0099">
<circle cx=" 274" cy=" 90" r=" 1.5"/>
</g>
<path d="M282,112v -7" fill="none" stroke="#ff0099"/>
<path d="M282,102v -7" fill="none" stroke="#ff0099"/>
<path d="M278,104h 2" fill="none" stroke="#ff0099"/>
<path d="M283,104h 2" fill="none" stroke="#ff0099"/>
<g stroke="#ff0099" stroke-width="1" fill="#ff0099">
<circle cx=" 282" cy=" 104" r=" 1.5"/>
</g>
<path d="M289,122v -7" fill="none" stroke="#ff0099"/>
<path d="M289,113v -7" fill="none" stroke="#ff0099"/>
<path d="M285,114h 3" fill="none" stroke="#ff0099"/>
<path d="M290,114h 3" fill="none" stroke="#ff0099"/>
<g stroke="#ff0099" stroke-width="1" fill="#ff0099">
<circle cx=" 289" cy=" 114" r=" 1.5"/>
</g>
<path d="M297,145v -7" fill="none" stroke="#ff0099"/>
<path d="M297,136v -7" fill="none" stroke="#ff0099"/>
<path d="M293,137h 3" fill="none" stroke="#ff0099"/>
<path d="M298,137h 2" fill="none" stroke="#ff0099"/>
<g stroke="#ff0099" stroke-width="1" fill="#ff0099">
<circle cx=" 297" cy=" 137" r=" 1.5"/>
</g>
<path d="M304,138v -6" fill="none" stroke="#ff0099"/>
<path d="M304,130v -7" fill="none" stroke="#ff0099"/>
<path d="M300,131h 3" fill="none" stroke="#ff0099"/>
<path d="M305,131h 3" fill="none" stroke="#ff0099"/>
<g stroke="#ff0099" stroke-width="1" fill="#ff0099">
<circle cx=" 304" cy=" 131" r=" 1.5"/>
</g>
<path d="M312,109v -7" fill="none" stroke="#ff0099"/>
<path d="M312,100v -7" fill="none" stroke="#ff0099"/>
<path d="M308,101h 3" fill="none" stroke="#ff0099"/>
<path d="M313,101h 3" fill="none" stroke="#ff0099"/>
<g stroke="#ff0099" stroke-width="1" fill="#ff0099">
<circle cx=" 312" cy=" 101" r=" 1.5"/>
</g>
<path d="M319,109v -7" fill="none" stroke="#ff0099"/>
<path d="M319,100v -7" fill="none" stroke="#ff0099"/>
<path d="M316,101h 2" fill="none" stroke="#ff0099"/>
<path d="M321,101h 2" fill="none" stroke="#ff0099"/>
<g stroke="#ff0099" stroke-width="1" fill="#ff0099">
<circle cx=" 319" cy=" 101" r=" 1.5"/>
</g>
<path d="M327,101v -7" fill="none" stroke="#ff0099"/>
<path d="M327,91v -7" fill="none" stroke="#ff0099"/>
<path d="M323,92h 3" fill="none" stroke="#ff0099"/>
<path d="M328,92h 3" fill="none" stroke="#ff0099"/>
<g stroke="#ff0099" stroke-width="1" fill="#ff0099">
<circle cx=" 327" cy=" 92" r=" 1.5"/>
</g>
<path d="M334,120v -8" fill="none" stroke="#ff0099"/>
<path d="M334,110v -7" fill="none" stroke="#ff0099"/>
<path d="M331,111h 2" fill="none" stroke="#ff0099"/>
<path d="M336,111h 2" fill="none" stroke="#ff0099"/>
<g stroke="#ff0099" stroke-width="1" fill="#ff0099">
<circle cx=" 334" cy=" 111" r=" 1.5"/>
</g>
<path d="M342,104v -8" fill="none" stroke="#ff0099"/>
<path d="M342,94v -8" fill="none" stroke="#ff0099"/>
<path d="M338,95h 3" fill="none" stroke="#ff0099"/>
<path d="M343,95h 3" fill="none" stroke="#ff0099"/>
<g stroke="#ff0099" stroke-width="1" fill="#ff0099">
<circle cx=" 342" cy=" 95" r=" 1.5"/>
</g>
<path d="M350,94v -8" fill="none" stroke="#ff0099"/>
<path d="M350,84v -8" fill="none" stroke="#ff0099"/>
<path d="M346,85h 2" fill="none" stroke="#ff0099"/>
<path d="M351,85h 2" fill="none" stroke="#ff0099"/>
<g stroke="#ff0099" stroke-width="1" fill="#ff0099">
<circle cx=" 350" cy=" 85" r=" 1.5"/>
</g>
<path d="M357,139v -7" fill="none" stroke="#ff0099"/>
<path d="M357,129v -7" fill="none" stroke="#ff0099"/>
<path d="M353,130h 3" fill="none" stroke="#ff0099"/>
<path d="M358,130h 3" fill="none" stroke="#ff0099"/>
<g stroke="#ff0099" stroke-width="1" fill="#ff0099">
<circle cx=" 357" cy=" 130" r=" 1.5"/>
</g>
<path d="M365,104v -8" fill="none" stroke="#ff0099"/>
<path d="M365,94v -9" fill="none" stroke="#ff0099"/>
<path d="M361,95h 3" fill="none" stroke="#ff0099"/>
<path d="M366,95h 3" fill="none" stroke="#ff0099"/>
<g stroke="#ff0099" stroke-width="1" fill="#ff0099">
<circle cx=" 365" cy=" 95" r=" 1.5"/>
</g>
<path d="M372,96v -9" fill="none" stroke="#ff0099"/>
<path d="M372,85v -10" fill="none" stroke="#ff0099"/>
<path d="M369,86h 2" fill="none" stroke="#ff0099"/>
<path d="M373,86h 3" fill="none" stroke="#ff0099"/>
<g stroke="#ff0099" stroke-width="1" fill="#ff0099">
<circle cx=" 372" cy=" 86" r=" 1.5"/>
</g>
<path d="M380,148v -7" fill="none" stroke="#ff0099"/>
<path d="M380,138v -7" fill="none" stroke="#ff0099"/>
<path d="M376,139h 3" fill="none" stroke="#ff0099"/>
<path d="M381,139h 3" fill="none" stroke="#ff0099"/>
<g stroke="#ff0099" stroke-width="1" fill="#ff0099">
<circle cx=" 380" cy=" 139" r=" 1.5"/>
</g>
<path d="M387,149v -8" fill="none" stroke="#ff0099"/>
<path d="M387,139v -8" fill="none" stroke="#ff0099"/>
<path d="M384,140h 2" fill="none" stroke="#ff0099"/>
<path d="M389,140h 2" fill="none" stroke="#ff0099"/>
<g stroke="#ff0099" stroke-width="1" fill="#ff0099">
<circle cx=" 387" cy=" 140" r=" 1.5"/>
</g>
<path d="M395,107v -9" fill="none" stroke="#ff0099"/>
<path d="M395,96v -9" fill="none" stroke="#ff0099"/>
<path d="M391,97h 3" fill="none" stroke="#ff0099"/>
<path d="M396,97h 3" fill="none" stroke="#ff0099"/>
<g stroke="#ff0099" stroke-width="1" fill="#ff0099">
<circle cx=" 395" cy=" 97" r=" 1.5"/>
</g>
<path d="M403,135v -8" fill="none" stroke="#ff0099"/>
<path d="M403,125v -9" fill="none" stroke="#ff0099"/>
<path d="M399,126h 2" fill="none" stroke="#ff0099"/>
<path d="M404,126h 2" fill="none" stroke="#ff0099"/>
<g stroke="#ff0099" stroke-width="1" fill="#ff0099">
<circle cx=" 403" cy=" 126" r=" 1.5"/>
</g>
<path d="M410,316v -5" fill="none" stroke="#ff0099"/>
<path d="M410,309v -5" fill="none" stroke="#ff0099"/>
<path d="M406,310h 3" fill="none" stroke="#ff0099"/>
<path d="M411,310h 3" fill="none" stroke="#ff0099"/>
<g stroke="#ff0099" stroke-width="1" fill="#ff0099">
<circle cx=" 410" cy=" 310" r=" 1.5"/>
</g>
<path d="M74,446h 453" fill="none" stroke="black"/>
<path d="M74,434v 12" fill="none" stroke="black"/>
<path d="M89,440v 6" fill="none" stroke="black"/>
<path d="M104,440v 6" fill="none" stroke="black"/>
<path d="M119,440v 6" fill="none" stroke="black"/>
<path d="M134,440v 6" fill="none" stroke="black"/>
<path d="M149,434v 12" fill="none" stroke="black"/>
<path d="M164,440v 6" fill="none" stroke="black"/>
<path d="M180,440v 6" fill="none" stroke="black"/>
<path d="M195,440v 6" fill="none" stroke="black"/>
<path d="M210,440v 6" fill="none" stroke="black"/>
<path d="M225,434v 12" fill="none" stroke="black"/>
<path d="M240,440v 6" fill="none" stroke="black"/>
<path d="M255,440v 6" fill="none" stroke="black"/>
<path d="M270,440v 6" fill="none" stroke="black"/>
<path d="M285,440v 6" fill="none" stroke="black"/>
<path d="M300,434v 12" fill="none" stroke="black"/>
<path d="M316,440v 6" fill="none" stroke="black"/>
<path d="M331,440v 6" fill="none" stroke="black"/>
<path d="M346,440v 6" fill="none" stroke="black"/>
<path d="M361,440v 6" fill="none" stroke="black"/>
<path d="M376,434v 12" fill="none" stroke="black"/>
<path d="M391,440v 6" fill="none" stroke="black"/>
<path d="M406,440v 6" fill="none" stroke="black"/>
<path d="M421,440v 6" fill="none" stroke="black"/>
<path d="M437,440v 6" fill="none" stroke="black"/>
<path d="M452,434v 12" fill="none" stroke="black"/>
<path d="M467,440v 6" fill="none" stroke="black"/>
<path d="M482,440v 6" fill="none" stroke="black"/>
<path d="M497,440v 6" fill="none" stroke="black"/>
<path d="M512,440v 6" fill="none" stroke="black"/>
<path d="M527,434v 12" fill="none" stroke="black"/>
<path d="M527,434v 12" fill="none" stroke="black"/>
<text x="65" y="465" fill="black" font-size="18" font-family="Helvetica" font-weight="bold">
-3
</text>
<text x="141" y="465" fill="black" font-size="18" font-family="Helvetica" font-weight="bold">
-2
</text>
<text x="218" y="465" fill="black" font-size="18" font-family="Helvetica" font-weight="bold">
-1
</text>
<text x="295" y="465" fill="black" font-size="18" font-family="Helvetica" font-weight="bold">
0
</text>
<text x="372" y="465" fill="black" font-size="18" font-family="Helvetica" font-weight="bold">
1
</text>
<text x="446" y="465" fill="black" font-size="18" font-family="Helvetica" font-weight="bold">
2
</text>
<text x="522" y="465" fill="black" font-size="18" font-family="Helvetica" font-weight="bold">
3
</text>
<path d="M74,44h 453" fill="none" stroke="black"/>
<path d="M74,56v -12" fill="none" stroke="black"/>
<path d="M89,50v -6" fill="none" stroke="black"/>
<path d="M104,50v -6" fill="none" stroke="black"/>
<path d="M119,50v -6" fill="none" stroke="black"/>
<path d="M134,50v -6" fill="none" stroke="black"/>
<path d="M149,56v -12" fill="none" stroke="black"/>
<path d="M164,50v -6" fill="none" stroke="black"/>
<path d="M180,50v -6" fill="none" stroke="black"/>
<path d="M195,50v -6" fill="none" stroke="black"/>
<path d="M210,50v -6" fill="none" stroke="black"/>
<path d="M225,56v -12" fill="none" stroke="black"/>
<path d="M240,50v -6" fill="none" stroke="black"/>
<path d="M255,50v -6" fill="none" stroke="black"/>
<path d="M270,50v -6" fill="none" stroke="black"/>
<path d="M285,50v -6" fill="none" stroke="black"/>
<path d="M300,56v -12" fill="none" stroke="black"/>
<path d="M316,50v -6" fill="none" stroke="black"/>
<path d="M331,50v -6" fill="none" stroke="black"/>
<path d="M346,50v -6" fill="none" stroke="black"/>
<path d="M361,50v -6" fill="none" stroke="black"/>
<path d="M376,56v -12" fill="none" stroke="black"/>
<path d="M391,50v -6" fill="none" stroke="black"/>
<path d="M406,50v -6" fill="none" stroke="black"/>
<path d="M421,50v -6" fill="none" stroke="black"/>
<path d="M437,50v -6" fill="none" stroke="black"/>
<path d="M452,56v -12" fill="none" stroke="black"/>
<path d="M467,50v -6" fill="none" stroke="black"/>
<path d="M482,50v -6" fill="none" stroke="black"/>
<path d="M497,50v -6" fill="none" stroke="black"/>
<path d="M512,50v -6" fill="none" stroke="black"/>
<path d="M527,56v -12" fill="none" stroke="black"/>
<path d="M527,56v -12" fill="none" stroke="black"/>
<path d="M74,446v -402" fill="none" stroke="black"/>
<path d="M87,446h -13" fill="none" stroke="black"/>
<path d="M81,437h -7" fill="none" stroke="black"/>
<path d="M81,427h -7" fill="none" stroke="black"/>
<path d="M81,417h -7" fill="none" stroke="black"/>
<path d="M81,407h -7" fill="none" stroke="black"/>
<path d="M87,398h -13" fill="none" stroke="black"/>
<path d="M81,388h -7" fill="none" stroke="black"/>
<path d="M81,378h -7" fill="none" stroke="black"/>
<path d="M81,368h -7" fill="none" stroke="black"/>
<path d="M81,359h -7" fill="none" stroke="black"/>
<path d="M87,349h -13" fill="none" stroke="black"/>
<path d="M81,339h -7" fill="none" stroke="black"/>
<path d="M81,329h -7" fill="none" stroke="black"/>
<path d="M81,320h -7" fill="none" stroke="black"/>
<path d="M81,310h -7" fill="none" stroke="black"/>
<path d="M87,300h -13" fill="none" stroke="black"/>
<path d="M81,291h -7" fill="none" stroke="black"/>
<path d="M81,281h -7" fill="none" stroke="black"/>
<path d="M81,271h -7" fill="none" stroke="black"/>
<path d="M81,261h -7" fill="none" stroke="black"/>
<path d="M87,252h -13" fill="none" stroke="black"/>
<path d="M81,242h -7" fill="none" stroke="black"/>
<path d="M81,232h -7" fill="none" stroke="black"/>
<path d="M81,222h -7" fill="none" stroke="black"/>
<path d="M81,213h -7" fill="none" stroke="black"/>
<path d="M87,203h -13" fill="none" stroke="black"/>
<path d="M81,193h -7" fill="none" stroke="black"/>
<path d="M81,183h -7" fill="none" stroke="black"/>
<path d="M81,174h -7" fill="none" stroke="black"/>
<path d="M81,164h -7" fill="none" stroke="black"/>
<path d="M87,154h -13" fill="none" stroke="black"/>
<path d="M81,144h -7" fill="none" stroke="black"/>
<path d="M81,135h -7" fill="none" stroke="black"/>
<path d="M81,125h -7" fill="none" stroke="black"/>
<path d="M81,115h -7" fill="none" stroke="black"/>
<path d="M87,105h -13" fill="none" stroke="black"/>
<path d="M81,96h -7" fill="none" stroke="black"/>
<path d="M81,86h -7" fill="none" stroke="black"/>
<path d="M81,76h -7" fill="none" stroke="black"/>
<path d="M81,67h -7" fill="none" stroke="black"/>
<path d="M87,57h -13" fill="none" stroke="black"/>
<path d="M87,57h -13" fill="none" stroke="black"/>
<path d="M81,47h -7" fill="none" stroke="black"/>
<text x="61" y="453" fill="black" font-size="18" font-family="Helvetica" font-weight="bold">
0
</text>
<text x="24" y="404" fill="black" font-size="18" font-family="Helvetica" font-weight="bold">
0.005
</text>
<text x="37" y="355" fill="black" font-size="18" font-family="Helvetica" font-weight="bold">
0.01
</text>
<text x="24" y="307" fill="black" font-size="18" font-family="Helvetica" font-weight="bold">
0.015
</text>
<text x="35" y="258" fill="black" font-size="18" font-family="Helvetica" font-weight="bold">
0.02
</text>
<text x="24" y="210" fill="black" font-size="18" font-family="Helvetica" font-weight="bold">
0.025
</text>
<text x="35" y="161" fill="black" font-size="18" font-family="Helvetica" font-weight="bold">
0.03
</text>
<text x="24" y="112" fill="black" font-size="18" font-family="Helvetica" font-weight="bold">
0.035
</text>
<text x="34" y="63" fill="black" font-size="18" font-family="Helvetica" font-weight="bold">
0.04
</text>
<path d="M191,307v -1" fill="none" stroke="#99ff99" stroke-width="2"/>
<path d="M191,306v -2" fill="none" stroke="#99ff99" stroke-width="2"/>
<g stroke="black" stroke-width="2" fill="none">
<line x1="190" y1="306" x2="191" y2="306"/>
</g>
<path d="M198,115v -6" fill="none" stroke="#99ff99" stroke-width="2"/>
<path d="M198,109v -5" fill="none" stroke="#99ff99" stroke-width="2"/>
<g stroke="black" stroke-width="2" fill="none">
<line x1="197" y1="109" x2="198" y2="109"/>
</g>
<path d="M206,119v -3" fill="none" stroke="#99ff99" stroke-width="2"/>
<path d="M206,116v -2" fill="none" stroke="#99ff99" stroke-width="2"/>
<g stroke="black" stroke-width="2" fill="none">
<line x1="205" y1="116" x2="206" y2="116"/>
</g>
<path d="M214,131v -4" fill="none" stroke="#99ff99" stroke-width="2"/>
<path d="M214,127v -4" fill="none" stroke="#99ff99" stroke-width="2"/>
<g stroke="black" stroke-width="2" fill="none">
<line x1="213" y1="127" x2="214" y2="127"/>
</g>
<path d="M221,101v -4" fill="none" stroke="#99ff99" stroke-width="2"/>
<path d="M221,97v -5" fill="none" stroke="#99ff99" stroke-width="2"/>
<g stroke="black" stroke-width="2" fill="none">
<line x1="220" y1="97" x2="221" y2="97"/>
</g>
<path d="M229,111v -5" fill="none" stroke="#99ff99" stroke-width="2"/>
<path d="M229,106v -4" fill="none" stroke="#99ff99" stroke-width="2"/>
<g stroke="black" stroke-width="2" fill="none">
<line x1="228" y1="106" x2="229" y2="106"/>
</g>
<path d="M236,89v -8" fill="none" stroke="#99ff99" stroke-width="2"/>
<path d="M236,81v -8" fill="none" stroke="#99ff99" stroke-width="2"/>
<g stroke="black" stroke-width="2" fill="none">
<line x1="235" y1="81" x2="236" y2="81"/>
</g>
<path d="M244,134v -5" fill="none" stroke="#99ff99" stroke-width="2"/>
<path d="M244,129v -4" fill="none" stroke="#99ff99" stroke-width="2"/>
<g stroke="black" stroke-width="2" fill="none">
<line x1="243" y1="129" x2="244" y2="129"/>
</g>
<path d="M251,102v -5" fill="none" stroke="#99ff99" stroke-width="2"/>
<path d="M251,97v -5" fill="none" stroke="#99ff99" stroke-width="2"/>
<g stroke="black" stroke-width="2" fill="none">
<line x1="250" y1="97" x2="251" y2="97"/>
</g>
<path d="M259,100v -4" fill="none" stroke="#99ff99" stroke-width="2"/>
<path d="M259,96v -4" fill="none" stroke="#99ff99" stroke-width="2"/>
<g stroke="black" stroke-width="2" fill="none">
<line x1="258" y1="96" x2="259" y2="96"/>
</g>
<path d="M266,117v -5" fill="none" stroke="#99ff99" stroke-width="2"/>
<path d="M266,112v -4" fill="none" stroke="#99ff99" stroke-width="2"/>
<g stroke="black" stroke-width="2" fill="none">
<line x1="265" y1="112" x2="266" y2="112"/>
</g>
<path d="M274,113v -4" fill="none" stroke="#99ff99" stroke-width="2"/>
<path d="M274,109v -4" fill="none" stroke="#99ff99" stroke-width="2"/>
<g stroke="black" stroke-width="2" fill="none">
<line x1="273" y1="109" x2="274" y2="109"/>
</g>
<path d="M282,108v -5" fill="none" stroke="#99ff99" stroke-width="2"/>
<path d="M282,103v -5" fill="none" stroke="#99ff99" stroke-width="2"/>
<g stroke="black" stroke-width="2" fill="none">
<line x1="281" y1="103" x2="282" y2="103"/>
</g>
<path d="M289,114v -7" fill="none" stroke="#99ff99" stroke-width="2"/>
<path d="M289,107v -7" fill="none" stroke="#99ff99" stroke-width="2"/>
<g stroke="black" stroke-width="2" fill="none">
<line x1="288" y1="107" x2="289" y2="107"/>
</g>
<path d="M297,131v -4" fill="none" stroke="#99ff99" stroke-width="2"/>
<path d="M297,127v -4" fill="none" stroke="#99ff99" stroke-width="2"/>
<g stroke="black" stroke-width="2" fill="none">
<line x1="296" y1="127" x2="297" y2="127"/>
</g>
<path d="M304,123v -4" fill="none" stroke="#99ff99" stroke-width="2"/>
<path d="M304,119v -3" fill="none" stroke="#99ff99" stroke-width="2"/>
<g stroke="black" stroke-width="2" fill="none">
<line x1="303" y1="119" x2="304" y2="119"/>
</g>
<path d="M312,108v -3" fill="none" stroke="#99ff99" stroke-width="2"/>
<path d="M312,105v -2" fill="none" stroke="#99ff99" stroke-width="2"/>
<g stroke="black" stroke-width="2" fill="none">
<line x1="311" y1="105" x2="312" y2="105"/>
</g>
<path d="M319,111v -3" fill="none" stroke="#99ff99" stroke-width="2"/>
<path d="M319,108v -2" fill="none" stroke="#99ff99" stroke-width="2"/>
<g stroke="black" stroke-width="2" fill="none">
<line x1="318" y1="108" x2="319" y2="108"/>
</g>
<path d="M327,106v -5" fill="none" stroke="#99ff99" stroke-width="2"/>
<path d="M327,101v -5" fill="none" stroke="#99ff99" stroke-width="2"/>
<g stroke="black" stroke-width="2" fill="none">
<line x1="326" y1="101" x2="327" y2="101"/>
</g>
<path d="M334,123v -4" fill="none" stroke="#99ff99" stroke-width="2"/>
<path d="M334,119v -4" fill="none" stroke="#99ff99" stroke-width="2"/>
<g stroke="black" stroke-width="2" fill="none">
<line x1="333" y1="119" x2="334" y2="119"/>
</g>
<path d="M342,104v -5" fill="none" stroke="#99ff99" stroke-width="2"/>
<path d="M342,99v -4" fill="none" stroke="#99ff99" stroke-width="2"/>
<g stroke="black" stroke-width="2" fill="none">
<line x1="341" y1="99" x2="342" y2="99"/>
</g>
<path d="M350,99v -5" fill="none" stroke="#99ff99" stroke-width="2"/>
<path d="M350,94v -6" fill="none" stroke="#99ff99" stroke-width="2"/>
<g stroke="black" stroke-width="2" fill="none">
<line x1="349" y1="94" x2="350" y2="94"/>
</g>
<path d="M357,127v -5" fill="none" stroke="#99ff99" stroke-width="2"/>
<path d="M357,122v -4" fill="none" stroke="#99ff99" stroke-width="2"/>
<g stroke="black" stroke-width="2" fill="none">
<line x1="356" y1="122" x2="357" y2="122"/>
</g>
<path d="M365,103v -4" fill="none" stroke="#99ff99" stroke-width="2"/>
<path d="M365,99v -4" fill="none" stroke="#99ff99" stroke-width="2"/>
<g stroke="black" stroke-width="2" fill="none">
<line x1="364" y1="99" x2="365" y2="99"/>
</g>
<path d="M372,111v -4" fill="none" stroke="#99ff99" stroke-width="2"/>
<path d="M372,107v -4" fill="none" stroke="#99ff99" stroke-width="2"/>
<g stroke="black" stroke-width="2" fill="none">
<line x1="371" y1="107" x2="372" y2="107"/>
</g>
<path d="M380,111v -2" fill="none" stroke="#99ff99" stroke-width="2"/>
<path d="M380,109v -3" fill="none" stroke="#99ff99" stroke-width="2"/>
<g stroke="black" stroke-width="2" fill="none">
<line x1="379" y1="109" x2="380" y2="109"/>
</g>
<path d="M387,133v -2" fill="none" stroke="#99ff99" stroke-width="2"/>
<path d="M387,131v -3" fill="none" stroke="#99ff99" stroke-width="2"/>
<g stroke="black" stroke-width="2" fill="none">
<line x1="386" y1="131" x2="387" y2="131"/>
</g>
<path d="M395,105v -6" fill="none" stroke="#99ff99" stroke-width="2"/>
<path d="M395,99v -5" fill="none" stroke="#99ff99" stroke-width="2"/>
<g stroke="black" stroke-width="2" fill="none">
<line x1="394" y1="99" x2="395" y2="99"/>
</g>
<path d="M403,118v -3" fill="none" stroke="#99ff99" stroke-width="2"/>
<path d="M403,115v -4" fill="none" stroke="#99ff99" stroke-width="2"/>
<g stroke="black" stroke-width="2" fill="none">
<line x1="402" y1="115" x2="403" y2="115"/>
</g>
<path d="M410,306v -5" fill="none" stroke="#99ff99" stroke-width="2"/>
<path d="M410,301v -6" fill="none" stroke="#99ff99" stroke-width="2"/>
<g stroke="black" stroke-width="2" fill="none">
<line x1="409" y1="301" x2="410" y2="301"/>
</g>
<path d="M74,446h 113v -140h 8v -197h 7v 7h 8v 11h 7v -30h 8v 9h 7v -25h 8v 48h 8v -32h 7v -1h 8v 16h 7v -3h 8v -6h 7v 4h 8v 20h 7v -8h 8v -14h 8v 3h 7v -7h 8v 18h 7v -20h 8v -5h 7v 28h 8v -23h 8v 8h 7v 2h 8v 22h 7v -32h 8v 16h 7v 186h 8v 145h 113z"
 fill="#99ff99"/>
<path d="M74,446h 113v -140h 8v -197h 7v 7h 8v 11h 7v -30h 8v 9h 7v -25h 8v 48h 8v -32h 7v -1h 8v 16h 7v -3h 8v -6h 7v 4h 8v 20h 7v -8h 8v -14h 8v 3h 7v -7h 8v 18h 7v -20h 8v -5h 7v 28h 8v -23h 8v 8h 7v 2h 8v 22h 7v -32h 8v 16h 7v 186h 8v 145h 113"
 fill="none" stroke="#99ff99" stroke-width="2"/>
<path d="M191,302v -6" fill="none" stroke="#ff0099"/>
<path d="M191,293v -6" fill="none" stroke="#ff0099"/>
<path d="M187,294h 3" fill="none" stroke="#ff0099"/>
<path d="M192,294h 3" fill="none" stroke="#ff0099"/>
<g stroke="#ff0099" stroke-width="1" fill="#ff0099">
<circle cx=" 191" cy=" 294" r=" 1.5"/>
</g>
<path d="M198,119v -9" fill="none" stroke="#ff0099"/>
<path d="M198,108v -9" fill="none" stroke="#ff0099"/>
<path d="M195,109h 2" fill="none" stroke="#ff0099"/>
<path d="M200,109h 2" fill="none" stroke="#ff0099"/>
<g stroke="#ff0099" stroke-width="1" fill="#ff0099">
<circle cx=" 198" cy=" 109" r=" 1.5"/>
</g>
<path d="M206,140v -8" fill="none" stroke="#ff0099"/>
<path d="M206,129v -8" fill="none" stroke="#ff0099"/>
<path d="M202,131h 3" fill="none" stroke="#ff0099"/>
<path d="M207,131h 3" fill="none" stroke="#ff0099"/>
<g stroke="#ff0099" stroke-width="1" fill="#ff0099">
<circle cx=" 206" cy=" 131" r=" 1.5"/>
</g>
<path d="M214,147v -8" fill="none" stroke="#ff0099"/>
<path d="M214,137v -9" fill="none" stroke="#ff0099"/>
<path d="M210,138h 2" fill="none" stroke="#ff0099"/>
<path d="M215,138h 2" fill="none" stroke="#ff0099"/>
<g stroke="#ff0099" stroke-width="1" fill="#ff0099">
<circle cx=" 214" cy=" 138" r=" 1.5"/>
</g>
<path d="M221,131v -7" fill="none" stroke="#ff0099"/>
<path d="M221,121v -8" fill="none" stroke="#ff0099"/>
<path d="M217,122h 3" fill="none" stroke="#ff0099"/>
<path d="M222,122h 3" fill="none" stroke="#ff0099"/>
<g stroke="#ff0099" stroke-width="1" fill="#ff0099">
<circle cx=" 221" cy=" 122" r=" 1.5"/>
</g>
<path d="M229,115v -9" fill="none" stroke="#ff0099"/>
<path d="M229,104v -9" fill="none" stroke="#ff0099"/>
<path d="M225,105h 3" fill="none" stroke="#ff0099"/>
<path d="M230,105h 2" fill="none" stroke="#ff0099"/>
<g stroke="#ff0099" stroke-width="1" fill="#ff0099">
<circle cx=" 229" cy=" 105" r=" 1.5"/>
</g>
<path d="M236,84v -9" fill="none" stroke="#ff0099"/>
<path d="M236,72v -9" fill="none" stroke="#ff0099"/>
<path d="M232,74h 3" fill="none" stroke="#ff0099"/>
<path d="M237,74h 3" fill="none" stroke="#ff0099"/>
<g stroke="#ff0099" stroke-width="1" fill="#ff0099">
<circle cx=" 236" cy=" 74" r=" 1.5"/>
</g>
<path d="M244,133v -8" fill="none" stroke="#ff0099"/>
<path d="M244,122v -7" fill="none" stroke="#ff0099"/>
<path d="M240,124h 3" fill="none" stroke="#ff0099"/>
<path d="M245,124h 3" fill="none" stroke="#ff0099"/>
<g stroke="#ff0099" stroke-width="1" fill="#ff0099">
<circle cx=" 244" cy=" 124" r=" 1.5"/>
</g>
<path d="M251,91v -8" fill="none" stroke="#ff0099"/>
<path d="M251,81v -9" fill="none" stroke="#ff0099"/>
<path d="M248,82h 2" fill="none" stroke="#ff0099"/>
<path d="M252,82h 3" fill="none" stroke="#ff0099"/>
<g stroke="#ff0099" stroke-width="1" fill="#ff0099">
<circle cx=" 251" cy=" 82" r=" 1.5"/>
</g>
<path d="M259,108v -7" fill="none" stroke="#ff0099"/>
<path d="M259,98v -7" fill="none" stroke="#ff0099"/>
<path d="M255,100h 3" fill="none" stroke="#ff0099"/>
<path d="M260,100h 3" fill="none" stroke="#ff0099"/>
<g stroke="#ff0099" stroke-width="1" fill="#ff0099">
<circle cx=" 259" cy=" 100" r=" 1.5"/>
</g>
<path d="M266,98v -8" fill="none" stroke="#ff0099"/>
<path d="M266,88v -8" fill="none" stroke="#ff0099"/>
<path d="M263,89h 2" fill="none" stroke="#ff0099"/>
<path d="M268,89h 2" fill="none" stroke="#ff0099"/>
<g stroke="#ff0099" stroke-width="1" fill="#ff0099">
<circle cx=" 266" cy=" 89" r=" 1.5"/>
</g>
<path d="M274,99v -8" fill="none" stroke="#ff0099"/>
<path d="M274,89v -8" fill="none" stroke="#ff0099"/>
<path d="M270,90h 3" fill="none" stroke="#ff0099"/>
<path d="M275,90h 3" fill="none" stroke="#ff0099"/>
<g stroke="#ff0099" stroke-width="1" fill="#ff0099">
<circle cx=" 274" cy=" 90" r=" 1.5"/>
</g>
<path d="M282,112v -7" fill="none" stroke="#ff0099"/>
<path d="M282,102v -7" fill="none" stroke="#ff0099"/>
<path d="M278,104h 2" fill="none" stroke="#ff0099"/>
<path d="M283,104h 2" fill="none" stroke="#ff0099"/>
<g stroke="#ff0099" stroke-width="1" fill="#ff0099">
<circle cx=" 282" cy=" 104" r=" 1.5"/>
</g>
<path d="M289,122v -7" fill="none" stroke="#ff0099"/>
<path d="M289,113v -7" fill="none" stroke="#ff0099"/>
<path d="M285,114h 3" fill="none" stroke="#ff0099"/>
<path d="M290,114h 3" fill="none" stroke="#ff0099"/>
<g stroke="#ff0099" stroke-width="1" fill="#ff0099">
<circle cx=" 289" cy=" 114" r=" 1.5"/>
</g>
<path d="M297,145v -7" fill="none" stroke="#ff0099"/>
<path d="M297,136v -7" fill="none" stroke="#ff0099"/>
<path d="M293,137h 3" fill="none" stroke="#ff0099"/>
<path d="M298,137h 2" fill="none" stroke="#ff0099"/>
<g stroke="#ff0099" stroke-width="1" fill="#ff0099">
<circle cx=" 297" cy=" 137" r=" 1.5"/>
</g>
<path d="M304,138v -6" fill="none" stroke="#ff0099"/>
<path d="M304,130v -7" fill="none" stroke="#ff0099"/>
<path d="M300,131h 3" fill="none" stroke="#ff0099"/>
<path d="M305,131h 3" fill="none" stroke="#ff0099"/>
<g stroke="#ff0099" stroke-width="1" fill="#ff0099">
<circle cx=" 304" cy=" 131" r=" 1.5"/>
</g>
<path d="M312,109v -7" fill="none" stroke="#ff0099"/>
<path d="M312,100v -7" fill="none" stroke="#ff0099"/>
<path d="M308,101h 3" fill="none" stroke="#ff0099"/>
<path d="M313,101h 3" fill="none" stroke="#ff0099"/>
<g stroke="#ff0099" stroke-width="1" fill="#ff0099">
<circle cx=" 312" cy=" 101" r=" 1.5"/>
</g>
<path d="M319,109v -7" fill="none" stroke="#ff0099"/>
<path d="M319,100v -7" fill="none" stroke="#ff0099"/>
<path d="M316,101h 2" fill="none" stroke="#ff0099"/>
<path d="M321,101h 2" fill="none" stroke="#ff0099"/>
<g stroke="#ff0099" stroke-width="1" fill="#ff0099">
<circle cx=" 319" cy=" 101" r=" 1.5"/>
</g>
<path d="M327,101v -7" fill="none" stroke="#ff0099"/>
<path d="M327,91v -7" fill="none" stroke="#ff0099"/>
<path d="M323,92h 3" fill="none" stroke="#ff0099"/>
<path d="M328,92h 3" fill="none" stroke="#ff0099"/>
<g stroke="#ff0099" stroke-width="1" fill="#ff0099">
<circle cx=" 327" cy=" 92" r=" 1.5"/>
</g>
<path d="M334,120v -8" fill="none" stroke="#ff0099"/>
<path d="M334,110v -7" fill="none" stroke="#ff0099"/>
<path d="M331,111h 2" fill="none" stroke="#ff0099"/>
<path d="M336,111h 2" fill="none" stroke="#ff0099"/>
<g stroke="#ff0099" stroke-width="1" fill="#ff0099">
<circle cx=" 334" cy=" 111" r=" 1.5"/>
</g>
<path d="M342,104v -8" fill="none" stroke="#ff0099"/>
<path d="M342,94v -8" fill="none" stroke="#ff0099"/>
<path d="M338,95h 3" fill="none" stroke="#ff0099"/>
<path d="M343,95h 3" fill="none" stroke="#ff0099"/>
<g stroke="#ff0099" stroke-width="1" fill="#ff0099">
<circle cx=" 342" cy=" 95" r=" 1.5"/>
</g>
<path d="M350,94v -8" fill="none" stroke="#ff0099"/>
<path d="M350,84v -8" fill="none" stroke="#ff0099"/>
<path d="M346,85h 2" fill="none" stroke="#ff0099"/>
<path d="M351,85h 2" fill="none" stroke="#ff0099"/>
<g stroke="#ff0099" stroke-width="1" fill="#ff0099">
<circle cx=" 350" cy=" 85" r=" 1.5"/>
</g>
<path d="M357,139v -7" fill="none" stroke="#ff0099"/>
<path d="M357,129v -7" fill="none" stroke="#ff0099"/>
<path d="M353,130h 3" fill="none" stroke="#ff0099"/>
<path d="M358,130h 3" fill="none" stroke="#ff0099"/>
<g stroke="#ff0099" stroke-width="1" fill="#ff0099">
<circle cx=" 357" cy=" 130" r=" 1.5"/>
</g>
<path d="M365,104v -8" fill="none" stroke="#ff0099"/>
<path d="M365,94v -9" fill="none" stroke="#ff0099"/>
<path d="M361,95h 3" fill="none" stroke="#ff0099"/>
<path d="M366,95h 3" fill="none" stroke="#ff0099"/>
<g stroke="#ff0099" stroke-width="1" fill="#ff0099">
<circle cx=" 365" cy=" 95" r=" 1.5"/>
</g>
<path d="M372,96v -9" fill="none" stroke="#ff0099"/>
<path d="M372,85v -10" fill="none" stroke="#ff0099"/>
<path d="M369,86h 2" fill="none" stroke="#ff0099"/>
<path d="M373,86h 3" fill="none" stroke="#ff0099"/>
<g stroke="#ff0099" stroke-width="1" fill="#ff0099">
<circle cx=" 372" cy=" 86" r=" 1.5"/>
</g>
<path d="M380,148v -7" fill="none" stroke="#ff0099"/>
<path d="M380,138v -7" fill="none" stroke="#ff0099"/>
<path d="M376,139h 3" fill="none" stroke="#ff0099"/>
<path d="M381,139h 3" fill="none" stroke="#ff0099"/>
<g stroke="#ff0099" stroke-width="1" fill="#ff0099">
<circle cx=" 380" cy=" 139" r=" 1.5"/>
</g>
<path d="M387,149v -8" fill="none" stroke="#ff0099"/>
<path d="M387,139v -8" fill="none" stroke="#ff0099"/>
<path d="M384,140h 2" fill="none" stroke="#ff0099"/>
<path d="M389,140h 2" fill="none" stroke="#ff0099"/>
<g stroke="#ff0099" stroke-width="1" fill="#ff0099">
<circle cx=" 387" cy=" 140" r=" 1.5"/>
</g>
<path d="M395,107v -9" fill="none" stroke="#ff0099"/>
<path d="M395,96v -9" fill="none" stroke="#ff0099"/>
<path d="M391,97h 3" fill="none" stroke="#ff0099"/>
<path d="M396,97h 3" fill="none" stroke="#ff0099"/>
<g stroke="#ff0099" stroke-width="1" fill="#ff0099">
<circle cx=" 395" cy=" 97" r=" 1.5"/>
</g>
<path d="M403,135v -8" fill="none" stroke="#ff0099"/>
<path d="M403,125v -9" fill="none" stroke="#ff0099"/>
<path d="M399,126h 2" fill="none" stroke="#ff0099"/>
<path d="M404,126h 2" fill="none" stroke="#ff0099"/>
<g stroke="#ff0099" stroke-width="1" fill="#ff0099">
<circle cx=" 403" cy=" 126" r=" 1.5"/>
</g>
<path d="M410,316v -5" fill="none" stroke="#ff0099"/>
<path d="M410,309v -5" fill="none" stroke="#ff0099"/>
<path d="M406,310h 3" fill="none" stroke="#ff0099"/>
<path d="M411,310h 3" fill="none" stroke="#ff0099"/>
<g stroke="#ff0099" stroke-width="1" fill="#ff0099">
<circle cx=" 410" cy=" 310" r=" 1.5"/>
</g>
<rect x="357" y="59" width="142" height="99" fill="white"/>
<text x="360" y="82" fill="black" font-size="17" font-family="Helvetica" font-weight="bold">
EB
</text>
<text x="457" y="115" fill="black" font-size="17" font-family="Helvetica" font-weight="bold">
 ee
</text>
<text x="440" y="115" fill="black" font-size="17" font-family="Times">
&#8594;
</text>
<text x="392" y="115" fill="black" font-size="17" font-family="Helvetica" font-weight="bold">
MC Z 
</text>
<path d="M362,109h 25" fill="none" stroke="#ff0099"/>
<g stroke="#ff0099" stroke-width="1" fill="#ff0099">
<circle cx=" 375" cy=" 109" r=" 1.5"/>
</g>
<text x="455" y="147" fill="black" font-size="17" font-family="Helvetica" font-weight="bold">
 + jet
</text>
<text x="447" y="147" fill="black" font-size="17" font-family="Times">
&#0947;
</text>
<text x="392" y="147" fill="black" font-size="17" font-family="Helvetica" font-weight="bold">
signal 
</text>
<path d="M362,154h 25v -24h -25z" fill="#99ff99"/>
<path d="M362,130h 25" fill="none" stroke="#99ff99" stroke-width="2"/>
<path d="M362,154h 25" fill="none" stroke="#99ff99" stroke-width="2"/>
<path d="M387,154v -24" fill="none" stroke="#99ff99" stroke-width="2"/>
<path d="M362,154v -24" fill="none" stroke="#99ff99" stroke-width="2"/>
<text x="300" y="34" fill="black" font-size="17" font-family="Helvetica" font-weight="bold">
=8 TeV
</text>
<text x="291" y="34" fill="black" font-size="17" font-family="Helvetica" font-weight="bold">
s
</text>
<path d="M285,25l 2, 10" fill="none" stroke="black" stroke-width="2"/>
<path d="M287,35l 2, -14" fill="none" stroke="black"/>
<path d="M289,21h 11" fill="none" stroke="black"/>
<text x="142" y="34" fill="black" font-size="17" font-family="Helvetica" font-weight="bold">
CMS Preliminary 
</text></svg>
