<?xml version="1.0" standalone="no"?>
<svg width="567" height="496" viewBox="0 0 567 496" xmlns="http://www.w3.org/2000/svg">
<title>
plots_mcZee_mcGJet//hlt150//etaPhotEE.svg
</title>
<desc>
Creator: ROOT Version 5.32/00
CreationDate: Sat Nov 29 19:43:00 2014</desc>
<defs>
</defs>
<rect x="0" y="0" width="567" height="496" fill="white"/>
<rect x="74" y="44" width="453" height="402" fill="white"/>
<rect x="74" y="44" width="453" height="402" fill="none" stroke="black"/>
<rect x="74" y="44" width="453" height="402" fill="white"/>
<rect x="74" y="44" width="453" height="402" fill="none" stroke="black"/>
<path d="M115,308v -6" fill="none" stroke="#ff0099"/>
<path d="M115,300v -6" fill="none" stroke="#ff0099"/>
<path d="M111,301h 3" fill="none" stroke="#ff0099"/>
<path d="M116,301h 3" fill="none" stroke="#ff0099"/>
<g stroke="#ff0099" stroke-width="1" fill="#ff0099">
<circle cx=" 115" cy=" 301" r=" 1.5"/>
</g>
<path d="M123,232v -9" fill="none" stroke="#ff0099"/>
<path d="M123,221v -9" fill="none" stroke="#ff0099"/>
<path d="M119,222h 3" fill="none" stroke="#ff0099"/>
<path d="M124,222h 3" fill="none" stroke="#ff0099"/>
<g stroke="#ff0099" stroke-width="1" fill="#ff0099">
<circle cx=" 123" cy=" 222" r=" 1.5"/>
</g>
<path d="M130,194v -12" fill="none" stroke="#ff0099"/>
<path d="M130,180v -12" fill="none" stroke="#ff0099"/>
<path d="M127,181h 2" fill="none" stroke="#ff0099"/>
<path d="M132,181h 2" fill="none" stroke="#ff0099"/>
<g stroke="#ff0099" stroke-width="1" fill="#ff0099">
<circle cx=" 130" cy=" 181" r=" 1.5"/>
</g>
<path d="M138,183v -11" fill="none" stroke="#ff0099"/>
<path d="M138,170v -12" fill="none" stroke="#ff0099"/>
<path d="M134,171h 3" fill="none" stroke="#ff0099"/>
<path d="M139,171h 3" fill="none" stroke="#ff0099"/>
<g stroke="#ff0099" stroke-width="1" fill="#ff0099">
<circle cx=" 138" cy=" 171" r=" 1.5"/>
</g>
<path d="M146,147v -14" fill="none" stroke="#ff0099"/>
<path d="M146,131v -13" fill="none" stroke="#ff0099"/>
<path d="M142,132h 2" fill="none" stroke="#ff0099"/>
<path d="M147,132h 2" fill="none" stroke="#ff0099"/>
<g stroke="#ff0099" stroke-width="1" fill="#ff0099">
<circle cx=" 146" cy=" 132" r=" 1.5"/>
</g>
<path d="M153,96v -15" fill="none" stroke="#ff0099"/>
<path d="M153,79v -16" fill="none" stroke="#ff0099"/>
<path d="M149,80h 3" fill="none" stroke="#ff0099"/>
<path d="M154,80h 3" fill="none" stroke="#ff0099"/>
<g stroke="#ff0099" stroke-width="1" fill="#ff0099">
<circle cx=" 153" cy=" 80" r=" 1.5"/>
</g>
<path d="M161,155v -12" fill="none" stroke="#ff0099"/>
<path d="M161,141v -12" fill="none" stroke="#ff0099"/>
<path d="M157,142h 2" fill="none" stroke="#ff0099"/>
<path d="M162,142h 2" fill="none" stroke="#ff0099"/>
<g stroke="#ff0099" stroke-width="1" fill="#ff0099">
<circle cx=" 161" cy=" 142" r=" 1.5"/>
</g>
<path d="M168,138v -13" fill="none" stroke="#ff0099"/>
<path d="M168,123v -14" fill="none" stroke="#ff0099"/>
<path d="M164,124h 3" fill="none" stroke="#ff0099"/>
<path d="M169,124h 3" fill="none" stroke="#ff0099"/>
<g stroke="#ff0099" stroke-width="1" fill="#ff0099">
<circle cx=" 168" cy=" 124" r=" 1.5"/>
</g>
<path d="M176,111v -17" fill="none" stroke="#ff0099"/>
<path d="M176,92v -18" fill="none" stroke="#ff0099"/>
<path d="M172,93h 3" fill="none" stroke="#ff0099"/>
<path d="M177,93h 3" fill="none" stroke="#ff0099"/>
<g stroke="#ff0099" stroke-width="1" fill="#ff0099">
<circle cx=" 176" cy=" 93" r=" 1.5"/>
</g>
<path d="M183,296v -16" fill="none" stroke="#ff0099"/>
<path d="M183,277v -16" fill="none" stroke="#ff0099"/>
<path d="M180,278h 2" fill="none" stroke="#ff0099"/>
<path d="M184,278h 3" fill="none" stroke="#ff0099"/>
<g stroke="#ff0099" stroke-width="1" fill="#ff0099">
<circle cx=" 183" cy=" 278" r=" 1.5"/>
</g>
<path d="M418,362v -6" fill="none" stroke="#ff0099"/>
<path d="M418,354v -6" fill="none" stroke="#ff0099"/>
<path d="M414,355h 2" fill="none" stroke="#ff0099"/>
<path d="M419,355h 2" fill="none" stroke="#ff0099"/>
<g stroke="#ff0099" stroke-width="1" fill="#ff0099">
<circle cx=" 418" cy=" 355" r=" 1.5"/>
</g>
<path d="M425,158v -15" fill="none" stroke="#ff0099"/>
<path d="M425,140v -15" fill="none" stroke="#ff0099"/>
<path d="M421,141h 3" fill="none" stroke="#ff0099"/>
<path d="M426,141h 3" fill="none" stroke="#ff0099"/>
<g stroke="#ff0099" stroke-width="1" fill="#ff0099">
<circle cx=" 425" cy=" 141" r=" 1.5"/>
</g>
<path d="M433,146v -15" fill="none" stroke="#ff0099"/>
<path d="M433,129v -14" fill="none" stroke="#ff0099"/>
<path d="M429,130h 3" fill="none" stroke="#ff0099"/>
<path d="M434,130h 3" fill="none" stroke="#ff0099"/>
<g stroke="#ff0099" stroke-width="1" fill="#ff0099">
<circle cx=" 433" cy=" 130" r=" 1.5"/>
</g>
<path d="M440,138v -15" fill="none" stroke="#ff0099"/>
<path d="M440,121v -15" fill="none" stroke="#ff0099"/>
<path d="M437,122h 2" fill="none" stroke="#ff0099"/>
<path d="M441,122h 3" fill="none" stroke="#ff0099"/>
<g stroke="#ff0099" stroke-width="1" fill="#ff0099">
<circle cx=" 440" cy=" 122" r=" 1.5"/>
</g>
<path d="M448,115v -15" fill="none" stroke="#ff0099"/>
<path d="M448,98v -15" fill="none" stroke="#ff0099"/>
<path d="M444,99h 3" fill="none" stroke="#ff0099"/>
<path d="M449,99h 3" fill="none" stroke="#ff0099"/>
<g stroke="#ff0099" stroke-width="1" fill="#ff0099">
<circle cx=" 448" cy=" 99" r=" 1.5"/>
</g>
<path d="M455,158v -12" fill="none" stroke="#ff0099"/>
<path d="M455,144v -12" fill="none" stroke="#ff0099"/>
<path d="M452,145h 2" fill="none" stroke="#ff0099"/>
<path d="M457,145h 2" fill="none" stroke="#ff0099"/>
<g stroke="#ff0099" stroke-width="1" fill="#ff0099">
<circle cx=" 455" cy=" 145" r=" 1.5"/>
</g>
<path d="M463,168v -11" fill="none" stroke="#ff0099"/>
<path d="M463,155v -12" fill="none" stroke="#ff0099"/>
<path d="M459,156h 3" fill="none" stroke="#ff0099"/>
<path d="M464,156h 3" fill="none" stroke="#ff0099"/>
<g stroke="#ff0099" stroke-width="1" fill="#ff0099">
<circle cx=" 463" cy=" 156" r=" 1.5"/>
</g>
<path d="M471,219v -9" fill="none" stroke="#ff0099"/>
<path d="M471,208v -9" fill="none" stroke="#ff0099"/>
<path d="M467,209h 2" fill="none" stroke="#ff0099"/>
<path d="M472,209h 2" fill="none" stroke="#ff0099"/>
<g stroke="#ff0099" stroke-width="1" fill="#ff0099">
<circle cx=" 471" cy=" 209" r=" 1.5"/>
</g>
<path d="M478,228v -9" fill="none" stroke="#ff0099"/>
<path d="M478,217v -9" fill="none" stroke="#ff0099"/>
<path d="M474,218h 3" fill="none" stroke="#ff0099"/>
<path d="M479,218h 3" fill="none" stroke="#ff0099"/>
<g stroke="#ff0099" stroke-width="1" fill="#ff0099">
<circle cx=" 478" cy=" 218" r=" 1.5"/>
</g>
<path d="M486,283v -7" fill="none" stroke="#ff0099"/>
<path d="M486,274v -8" fill="none" stroke="#ff0099"/>
<path d="M482,275h 3" fill="none" stroke="#ff0099"/>
<path d="M487,275h 2" fill="none" stroke="#ff0099"/>
<g stroke="#ff0099" stroke-width="1" fill="#ff0099">
<circle cx=" 486" cy=" 275" r=" 1.5"/>
</g>
<path d="M74,446h 453" fill="none" stroke="black"/>
<path d="M74,434v 12" fill="none" stroke="black"/>
<path d="M89,440v 6" fill="none" stroke="black"/>
<path d="M104,440v 6" fill="none" stroke="black"/>
<path d="M119,440v 6" fill="none" stroke="black"/>
<path d="M134,440v 6" fill="none" stroke="black"/>
<path d="M149,434v 12" fill="none" stroke="black"/>
<path d="M164,440v 6" fill="none" stroke="black"/>
<path d="M180,440v 6" fill="none" stroke="black"/>
<path d="M195,440v 6" fill="none" stroke="black"/>
<path d="M210,440v 6" fill="none" stroke="black"/>
<path d="M225,434v 12" fill="none" stroke="black"/>
<path d="M240,440v 6" fill="none" stroke="black"/>
<path d="M255,440v 6" fill="none" stroke="black"/>
<path d="M270,440v 6" fill="none" stroke="black"/>
<path d="M285,440v 6" fill="none" stroke="black"/>
<path d="M300,434v 12" fill="none" stroke="black"/>
<path d="M316,440v 6" fill="none" stroke="black"/>
<path d="M331,440v 6" fill="none" stroke="black"/>
<path d="M346,440v 6" fill="none" stroke="black"/>
<path d="M361,440v 6" fill="none" stroke="black"/>
<path d="M376,434v 12" fill="none" stroke="black"/>
<path d="M391,440v 6" fill="none" stroke="black"/>
<path d="M406,440v 6" fill="none" stroke="black"/>
<path d="M421,440v 6" fill="none" stroke="black"/>
<path d="M437,440v 6" fill="none" stroke="black"/>
<path d="M452,434v 12" fill="none" stroke="black"/>
<path d="M467,440v 6" fill="none" stroke="black"/>
<path d="M482,440v 6" fill="none" stroke="black"/>
<path d="M497,440v 6" fill="none" stroke="black"/>
<path d="M512,440v 6" fill="none" stroke="black"/>
<path d="M527,434v 12" fill="none" stroke="black"/>
<path d="M527,434v 12" fill="none" stroke="black"/>
<text x="65" y="465" fill="black" font-size="18" font-family="Helvetica" font-weight="bold">
-3
</text>
<text x="141" y="465" fill="black" font-size="18" font-family="Helvetica" font-weight="bold">
-2
</text>
<text x="218" y="465" fill="black" font-size="18" font-family="Helvetica" font-weight="bold">
-1
</text>
<text x="295" y="465" fill="black" font-size="18" font-family="Helvetica" font-weight="bold">
0
</text>
<text x="372" y="465" fill="black" font-size="18" font-family="Helvetica" font-weight="bold">
1
</text>
<text x="446" y="465" fill="black" font-size="18" font-family="Helvetica" font-weight="bold">
2
</text>
<text x="522" y="465" fill="black" font-size="18" font-family="Helvetica" font-weight="bold">
3
</text>
<path d="M74,44h 453" fill="none" stroke="black"/>
<path d="M74,56v -12" fill="none" stroke="black"/>
<path d="M89,50v -6" fill="none" stroke="black"/>
<path d="M104,50v -6" fill="none" stroke="black"/>
<path d="M119,50v -6" fill="none" stroke="black"/>
<path d="M134,50v -6" fill="none" stroke="black"/>
<path d="M149,56v -12" fill="none" stroke="black"/>
<path d="M164,50v -6" fill="none" stroke="black"/>
<path d="M180,50v -6" fill="none" stroke="black"/>
<path d="M195,50v -6" fill="none" stroke="black"/>
<path d="M210,50v -6" fill="none" stroke="black"/>
<path d="M225,56v -12" fill="none" stroke="black"/>
<path d="M240,50v -6" fill="none" stroke="black"/>
<path d="M255,50v -6" fill="none" stroke="black"/>
<path d="M270,50v -6" fill="none" stroke="black"/>
<path d="M285,50v -6" fill="none" stroke="black"/>
<path d="M300,56v -12" fill="none" stroke="black"/>
<path d="M316,50v -6" fill="none" stroke="black"/>
<path d="M331,50v -6" fill="none" stroke="black"/>
<path d="M346,50v -6" fill="none" stroke="black"/>
<path d="M361,50v -6" fill="none" stroke="black"/>
<path d="M376,56v -12" fill="none" stroke="black"/>
<path d="M391,50v -6" fill="none" stroke="black"/>
<path d="M406,50v -6" fill="none" stroke="black"/>
<path d="M421,50v -6" fill="none" stroke="black"/>
<path d="M437,50v -6" fill="none" stroke="black"/>
<path d="M452,56v -12" fill="none" stroke="black"/>
<path d="M467,50v -6" fill="none" stroke="black"/>
<path d="M482,50v -6" fill="none" stroke="black"/>
<path d="M497,50v -6" fill="none" stroke="black"/>
<path d="M512,50v -6" fill="none" stroke="black"/>
<path d="M527,56v -12" fill="none" stroke="black"/>
<path d="M527,56v -12" fill="none" stroke="black"/>
<path d="M74,446v -402" fill="none" stroke="black"/>
<path d="M87,446h -13" fill="none" stroke="black"/>
<path d="M81,436h -7" fill="none" stroke="black"/>
<path d="M81,425h -7" fill="none" stroke="black"/>
<path d="M81,414h -7" fill="none" stroke="black"/>
<path d="M81,404h -7" fill="none" stroke="black"/>
<path d="M87,393h -13" fill="none" stroke="black"/>
<path d="M81,382h -7" fill="none" stroke="black"/>
<path d="M81,371h -7" fill="none" stroke="black"/>
<path d="M81,361h -7" fill="none" stroke="black"/>
<path d="M81,350h -7" fill="none" stroke="black"/>
<path d="M87,339h -13" fill="none" stroke="black"/>
<path d="M81,329h -7" fill="none" stroke="black"/>
<path d="M81,318h -7" fill="none" stroke="black"/>
<path d="M81,307h -7" fill="none" stroke="black"/>
<path d="M81,296h -7" fill="none" stroke="black"/>
<path d="M87,286h -13" fill="none" stroke="black"/>
<path d="M81,275h -7" fill="none" stroke="black"/>
<path d="M81,264h -7" fill="none" stroke="black"/>
<path d="M81,254h -7" fill="none" stroke="black"/>
<path d="M81,243h -7" fill="none" stroke="black"/>
<path d="M87,232h -13" fill="none" stroke="black"/>
<path d="M81,221h -7" fill="none" stroke="black"/>
<path d="M81,211h -7" fill="none" stroke="black"/>
<path d="M81,200h -7" fill="none" stroke="black"/>
<path d="M81,189h -7" fill="none" stroke="black"/>
<path d="M87,179h -13" fill="none" stroke="black"/>
<path d="M81,168h -7" fill="none" stroke="black"/>
<path d="M81,157h -7" fill="none" stroke="black"/>
<path d="M81,146h -7" fill="none" stroke="black"/>
<path d="M81,136h -7" fill="none" stroke="black"/>
<path d="M87,125h -13" fill="none" stroke="black"/>
<path d="M81,114h -7" fill="none" stroke="black"/>
<path d="M81,104h -7" fill="none" stroke="black"/>
<path d="M81,93h -7" fill="none" stroke="black"/>
<path d="M81,82h -7" fill="none" stroke="black"/>
<path d="M87,72h -13" fill="none" stroke="black"/>
<path d="M87,72h -13" fill="none" stroke="black"/>
<path d="M81,61h -7" fill="none" stroke="black"/>
<path d="M81,50h -7" fill="none" stroke="black"/>
<text x="61" y="453" fill="black" font-size="18" font-family="Helvetica" font-weight="bold">
0
</text>
<text x="37" y="399" fill="black" font-size="18" font-family="Helvetica" font-weight="bold">
0.01
</text>
<text x="35" y="346" fill="black" font-size="18" font-family="Helvetica" font-weight="bold">
0.02
</text>
<text x="35" y="292" fill="black" font-size="18" font-family="Helvetica" font-weight="bold">
0.03
</text>
<text x="34" y="239" fill="black" font-size="18" font-family="Helvetica" font-weight="bold">
0.04
</text>
<text x="34" y="185" fill="black" font-size="18" font-family="Helvetica" font-weight="bold">
0.05
</text>
<text x="34" y="132" fill="black" font-size="18" font-family="Helvetica" font-weight="bold">
0.06
</text>
<text x="35" y="78" fill="black" font-size="18" font-family="Helvetica" font-weight="bold">
0.07
</text>
<path d="M115,313v -1" fill="none" stroke="#99ff99" stroke-width="2"/>
<path d="M115,312v -2" fill="none" stroke="#99ff99" stroke-width="2"/>
<g stroke="black" stroke-width="2" fill="none">
<line x1="114" y1="312" x2="115" y2="312"/>
</g>
<path d="M123,265v -4" fill="none" stroke="#99ff99" stroke-width="2"/>
<path d="M123,261v -3" fill="none" stroke="#99ff99" stroke-width="2"/>
<g stroke="black" stroke-width="2" fill="none">
<line x1="122" y1="261" x2="123" y2="261"/>
</g>
<path d="M130,226v -6" fill="none" stroke="#99ff99" stroke-width="2"/>
<path d="M130,220v -5" fill="none" stroke="#99ff99" stroke-width="2"/>
<g stroke="black" stroke-width="2" fill="none">
<line x1="129" y1="220" x2="130" y2="220"/>
</g>
<path d="M138,190v -7" fill="none" stroke="#99ff99" stroke-width="2"/>
<path d="M138,183v -7" fill="none" stroke="#99ff99" stroke-width="2"/>
<g stroke="black" stroke-width="2" fill="none">
<line x1="137" y1="183" x2="138" y2="183"/>
</g>
<path d="M146,153v -5" fill="none" stroke="#99ff99" stroke-width="2"/>
<path d="M146,148v -6" fill="none" stroke="#99ff99" stroke-width="2"/>
<g stroke="black" stroke-width="2" fill="none">
<line x1="145" y1="148" x2="146" y2="148"/>
</g>
<path d="M153,121v -7" fill="none" stroke="#99ff99" stroke-width="2"/>
<path d="M153,114v -7" fill="none" stroke="#99ff99" stroke-width="2"/>
<g stroke="black" stroke-width="2" fill="none">
<line x1="152" y1="114" x2="153" y2="114"/>
</g>
<path d="M161,92v -7" fill="none" stroke="#99ff99" stroke-width="2"/>
<path d="M161,85v -8" fill="none" stroke="#99ff99" stroke-width="2"/>
<g stroke="black" stroke-width="2" fill="none">
<line x1="160" y1="85" x2="161" y2="85"/>
</g>
<path d="M168,74v -6" fill="none" stroke="#99ff99" stroke-width="2"/>
<path d="M168,68v -5" fill="none" stroke="#99ff99" stroke-width="2"/>
<g stroke="black" stroke-width="2" fill="none">
<line x1="167" y1="68" x2="168" y2="68"/>
</g>
<path d="M176,68v -3" fill="none" stroke="#99ff99" stroke-width="2"/>
<path d="M176,65v -4" fill="none" stroke="#99ff99" stroke-width="2"/>
<g stroke="black" stroke-width="2" fill="none">
<line x1="175" y1="65" x2="176" y2="65"/>
</g>
<path d="M183,324v -5" fill="none" stroke="#99ff99" stroke-width="2"/>
<path d="M183,319v -5" fill="none" stroke="#99ff99" stroke-width="2"/>
<g stroke="black" stroke-width="2" fill="none">
<line x1="182" y1="319" x2="183" y2="319"/>
</g>
<path d="M418,329v -1" fill="none" stroke="#99ff99" stroke-width="2"/>
<path d="M418,328v -2" fill="none" stroke="#99ff99" stroke-width="2"/>
<g stroke="black" stroke-width="2" fill="none">
<line x1="417" y1="328" x2="418" y2="328"/>
</g>
<path d="M425,89v -3" fill="none" stroke="#99ff99" stroke-width="2"/>
<path d="M425,86v -3" fill="none" stroke="#99ff99" stroke-width="2"/>
<g stroke="black" stroke-width="2" fill="none">
<line x1="424" y1="86" x2="425" y2="86"/>
</g>
<path d="M433,94v -7" fill="none" stroke="#99ff99" stroke-width="2"/>
<path d="M433,87v -7" fill="none" stroke="#99ff99" stroke-width="2"/>
<g stroke="black" stroke-width="2" fill="none">
<line x1="432" y1="87" x2="433" y2="87"/>
</g>
<path d="M440,101v -4" fill="none" stroke="#99ff99" stroke-width="2"/>
<path d="M440,97v -4" fill="none" stroke="#99ff99" stroke-width="2"/>
<g stroke="black" stroke-width="2" fill="none">
<line x1="439" y1="97" x2="440" y2="97"/>
</g>
<path d="M448,117v -6" fill="none" stroke="#99ff99" stroke-width="2"/>
<path d="M448,111v -7" fill="none" stroke="#99ff99" stroke-width="2"/>
<g stroke="black" stroke-width="2" fill="none">
<line x1="447" y1="111" x2="448" y2="111"/>
</g>
<path d="M455,152v -5" fill="none" stroke="#99ff99" stroke-width="2"/>
<path d="M455,147v -5" fill="none" stroke="#99ff99" stroke-width="2"/>
<g stroke="black" stroke-width="2" fill="none">
<line x1="454" y1="147" x2="455" y2="147"/>
</g>
<path d="M463,185v -5" fill="none" stroke="#99ff99" stroke-width="2"/>
<path d="M463,180v -5" fill="none" stroke="#99ff99" stroke-width="2"/>
<g stroke="black" stroke-width="2" fill="none">
<line x1="462" y1="180" x2="463" y2="180"/>
</g>
<path d="M471,219v -3" fill="none" stroke="#99ff99" stroke-width="2"/>
<path d="M471,216v -2" fill="none" stroke="#99ff99" stroke-width="2"/>
<g stroke="black" stroke-width="2" fill="none">
<line x1="470" y1="216" x2="471" y2="216"/>
</g>
<path d="M478,252v -8" fill="none" stroke="#99ff99" stroke-width="2"/>
<path d="M478,244v -8" fill="none" stroke="#99ff99" stroke-width="2"/>
<g stroke="black" stroke-width="2" fill="none">
<line x1="477" y1="244" x2="478" y2="244"/>
</g>
<path d="M486,306v -5" fill="none" stroke="#99ff99" stroke-width="2"/>
<path d="M486,301v -5" fill="none" stroke="#99ff99" stroke-width="2"/>
<g stroke="black" stroke-width="2" fill="none">
<line x1="485" y1="301" x2="486" y2="301"/>
</g>
<path d="M74,446h 37v -134h 8v -51h 8v -41h 7v -37h 8v -35h 7v -34h 8v -29h 7v -17h 8v -3h 8v 254h 7v 127h 227v -118h 7v -242h 8v 1h 8v 10h 7v 14h 8v 36h 7v 33h 8v 36h 7v 28h 8v 57h 7v 145h 38z" fill="#99ff99"/>
<path d="M74,446h 37v -134h 8v -51h 8v -41h 7v -37h 8v -35h 7v -34h 8v -29h 7v -17h 8v -3h 8v 254h 7v 127h 227v -118h 7v -242h 8v 1h 8v 10h 7v 14h 8v 36h 7v 33h 8v 36h 7v 28h 8v 57h 7v 145h 38" fill="none" stroke="#99ff99" stroke-width="2"/>
<path d="M115,308v -6" fill="none" stroke="#ff0099"/>
<path d="M115,300v -6" fill="none" stroke="#ff0099"/>
<path d="M111,301h 3" fill="none" stroke="#ff0099"/>
<path d="M116,301h 3" fill="none" stroke="#ff0099"/>
<g stroke="#ff0099" stroke-width="1" fill="#ff0099">
<circle cx=" 115" cy=" 301" r=" 1.5"/>
</g>
<path d="M123,232v -9" fill="none" stroke="#ff0099"/>
<path d="M123,221v -9" fill="none" stroke="#ff0099"/>
<path d="M119,222h 3" fill="none" stroke="#ff0099"/>
<path d="M124,222h 3" fill="none" stroke="#ff0099"/>
<g stroke="#ff0099" stroke-width="1" fill="#ff0099">
<circle cx=" 123" cy=" 222" r=" 1.5"/>
</g>
<path d="M130,194v -12" fill="none" stroke="#ff0099"/>
<path d="M130,180v -12" fill="none" stroke="#ff0099"/>
<path d="M127,181h 2" fill="none" stroke="#ff0099"/>
<path d="M132,181h 2" fill="none" stroke="#ff0099"/>
<g stroke="#ff0099" stroke-width="1" fill="#ff0099">
<circle cx=" 130" cy=" 181" r=" 1.5"/>
</g>
<path d="M138,183v -11" fill="none" stroke="#ff0099"/>
<path d="M138,170v -12" fill="none" stroke="#ff0099"/>
<path d="M134,171h 3" fill="none" stroke="#ff0099"/>
<path d="M139,171h 3" fill="none" stroke="#ff0099"/>
<g stroke="#ff0099" stroke-width="1" fill="#ff0099">
<circle cx=" 138" cy=" 171" r=" 1.5"/>
</g>
<path d="M146,147v -14" fill="none" stroke="#ff0099"/>
<path d="M146,131v -13" fill="none" stroke="#ff0099"/>
<path d="M142,132h 2" fill="none" stroke="#ff0099"/>
<path d="M147,132h 2" fill="none" stroke="#ff0099"/>
<g stroke="#ff0099" stroke-width="1" fill="#ff0099">
<circle cx=" 146" cy=" 132" r=" 1.5"/>
</g>
<path d="M153,96v -15" fill="none" stroke="#ff0099"/>
<path d="M153,79v -16" fill="none" stroke="#ff0099"/>
<path d="M149,80h 3" fill="none" stroke="#ff0099"/>
<path d="M154,80h 3" fill="none" stroke="#ff0099"/>
<g stroke="#ff0099" stroke-width="1" fill="#ff0099">
<circle cx=" 153" cy=" 80" r=" 1.5"/>
</g>
<path d="M161,155v -12" fill="none" stroke="#ff0099"/>
<path d="M161,141v -12" fill="none" stroke="#ff0099"/>
<path d="M157,142h 2" fill="none" stroke="#ff0099"/>
<path d="M162,142h 2" fill="none" stroke="#ff0099"/>
<g stroke="#ff0099" stroke-width="1" fill="#ff0099">
<circle cx=" 161" cy=" 142" r=" 1.5"/>
</g>
<path d="M168,138v -13" fill="none" stroke="#ff0099"/>
<path d="M168,123v -14" fill="none" stroke="#ff0099"/>
<path d="M164,124h 3" fill="none" stroke="#ff0099"/>
<path d="M169,124h 3" fill="none" stroke="#ff0099"/>
<g stroke="#ff0099" stroke-width="1" fill="#ff0099">
<circle cx=" 168" cy=" 124" r=" 1.5"/>
</g>
<path d="M176,111v -17" fill="none" stroke="#ff0099"/>
<path d="M176,92v -18" fill="none" stroke="#ff0099"/>
<path d="M172,93h 3" fill="none" stroke="#ff0099"/>
<path d="M177,93h 3" fill="none" stroke="#ff0099"/>
<g stroke="#ff0099" stroke-width="1" fill="#ff0099">
<circle cx=" 176" cy=" 93" r=" 1.5"/>
</g>
<path d="M183,296v -16" fill="none" stroke="#ff0099"/>
<path d="M183,277v -16" fill="none" stroke="#ff0099"/>
<path d="M180,278h 2" fill="none" stroke="#ff0099"/>
<path d="M184,278h 3" fill="none" stroke="#ff0099"/>
<g stroke="#ff0099" stroke-width="1" fill="#ff0099">
<circle cx=" 183" cy=" 278" r=" 1.5"/>
</g>
<path d="M418,362v -6" fill="none" stroke="#ff0099"/>
<path d="M418,354v -6" fill="none" stroke="#ff0099"/>
<path d="M414,355h 2" fill="none" stroke="#ff0099"/>
<path d="M419,355h 2" fill="none" stroke="#ff0099"/>
<g stroke="#ff0099" stroke-width="1" fill="#ff0099">
<circle cx=" 418" cy=" 355" r=" 1.5"/>
</g>
<path d="M425,158v -15" fill="none" stroke="#ff0099"/>
<path d="M425,140v -15" fill="none" stroke="#ff0099"/>
<path d="M421,141h 3" fill="none" stroke="#ff0099"/>
<path d="M426,141h 3" fill="none" stroke="#ff0099"/>
<g stroke="#ff0099" stroke-width="1" fill="#ff0099">
<circle cx=" 425" cy=" 141" r=" 1.5"/>
</g>
<path d="M433,146v -15" fill="none" stroke="#ff0099"/>
<path d="M433,129v -14" fill="none" stroke="#ff0099"/>
<path d="M429,130h 3" fill="none" stroke="#ff0099"/>
<path d="M434,130h 3" fill="none" stroke="#ff0099"/>
<g stroke="#ff0099" stroke-width="1" fill="#ff0099">
<circle cx=" 433" cy=" 130" r=" 1.5"/>
</g>
<path d="M440,138v -15" fill="none" stroke="#ff0099"/>
<path d="M440,121v -15" fill="none" stroke="#ff0099"/>
<path d="M437,122h 2" fill="none" stroke="#ff0099"/>
<path d="M441,122h 3" fill="none" stroke="#ff0099"/>
<g stroke="#ff0099" stroke-width="1" fill="#ff0099">
<circle cx=" 440" cy=" 122" r=" 1.5"/>
</g>
<path d="M448,115v -15" fill="none" stroke="#ff0099"/>
<path d="M448,98v -15" fill="none" stroke="#ff0099"/>
<path d="M444,99h 3" fill="none" stroke="#ff0099"/>
<path d="M449,99h 3" fill="none" stroke="#ff0099"/>
<g stroke="#ff0099" stroke-width="1" fill="#ff0099">
<circle cx=" 448" cy=" 99" r=" 1.5"/>
</g>
<path d="M455,158v -12" fill="none" stroke="#ff0099"/>
<path d="M455,144v -12" fill="none" stroke="#ff0099"/>
<path d="M452,145h 2" fill="none" stroke="#ff0099"/>
<path d="M457,145h 2" fill="none" stroke="#ff0099"/>
<g stroke="#ff0099" stroke-width="1" fill="#ff0099">
<circle cx=" 455" cy=" 145" r=" 1.5"/>
</g>
<path d="M463,168v -11" fill="none" stroke="#ff0099"/>
<path d="M463,155v -12" fill="none" stroke="#ff0099"/>
<path d="M459,156h 3" fill="none" stroke="#ff0099"/>
<path d="M464,156h 3" fill="none" stroke="#ff0099"/>
<g stroke="#ff0099" stroke-width="1" fill="#ff0099">
<circle cx=" 463" cy=" 156" r=" 1.5"/>
</g>
<path d="M471,219v -9" fill="none" stroke="#ff0099"/>
<path d="M471,208v -9" fill="none" stroke="#ff0099"/>
<path d="M467,209h 2" fill="none" stroke="#ff0099"/>
<path d="M472,209h 2" fill="none" stroke="#ff0099"/>
<g stroke="#ff0099" stroke-width="1" fill="#ff0099">
<circle cx=" 471" cy=" 209" r=" 1.5"/>
</g>
<path d="M478,228v -9" fill="none" stroke="#ff0099"/>
<path d="M478,217v -9" fill="none" stroke="#ff0099"/>
<path d="M474,218h 3" fill="none" stroke="#ff0099"/>
<path d="M479,218h 3" fill="none" stroke="#ff0099"/>
<g stroke="#ff0099" stroke-width="1" fill="#ff0099">
<circle cx=" 478" cy=" 218" r=" 1.5"/>
</g>
<path d="M486,283v -7" fill="none" stroke="#ff0099"/>
<path d="M486,274v -8" fill="none" stroke="#ff0099"/>
<path d="M482,275h 3" fill="none" stroke="#ff0099"/>
<path d="M487,275h 2" fill="none" stroke="#ff0099"/>
<g stroke="#ff0099" stroke-width="1" fill="#ff0099">
<circle cx=" 486" cy=" 275" r=" 1.5"/>
</g>
<rect x="357" y="59" width="142" height="99" fill="white"/>
<text x="360" y="82" fill="black" font-size="17" font-family="Helvetica" font-weight="bold">
EE
</text>
<text x="457" y="115" fill="black" font-size="17" font-family="Helvetica" font-weight="bold">
 ee
</text>
<text x="440" y="115" fill="black" font-size="17" font-family="Times">
&#8594;
</text>
<text x="392" y="115" fill="black" font-size="17" font-family="Helvetica" font-weight="bold">
MC Z 
</text>
<path d="M362,109h 25" fill="none" stroke="#ff0099"/>
<g stroke="#ff0099" stroke-width="1" fill="#ff0099">
<circle cx=" 375" cy=" 109" r=" 1.5"/>
</g>
<text x="455" y="147" fill="black" font-size="17" font-family="Helvetica" font-weight="bold">
 + jet
</text>
<text x="447" y="147" fill="black" font-size="17" font-family="Times">
&#0947;
</text>
<text x="392" y="147" fill="black" font-size="17" font-family="Helvetica" font-weight="bold">
signal 
</text>
<path d="M362,154h 25v -24h -25z" fill="#99ff99"/>
<path d="M362,130h 25" fill="none" stroke="#99ff99" stroke-width="2"/>
<path d="M362,154h 25" fill="none" stroke="#99ff99" stroke-width="2"/>
<path d="M387,154v -24" fill="none" stroke="#99ff99" stroke-width="2"/>
<path d="M362,154v -24" fill="none" stroke="#99ff99" stroke-width="2"/>
<text x="300" y="34" fill="black" font-size="17" font-family="Helvetica" font-weight="bold">
=8 TeV
</text>
<text x="291" y="34" fill="black" font-size="17" font-family="Helvetica" font-weight="bold">
s
</text>
<path d="M285,25l 2, 10" fill="none" stroke="black" stroke-width="2"/>
<path d="M287,35l 2, -14" fill="none" stroke="black"/>
<path d="M289,21h 11" fill="none" stroke="black"/>
<text x="142" y="34" fill="black" font-size="17" font-family="Helvetica" font-weight="bold">
CMS Preliminary 
</text></svg>
