<?xml version="1.0" standalone="no"?>
<svg width="567" height="496" viewBox="0 0 567 496" xmlns="http://www.w3.org/2000/svg">
<title>
plots_mcZee_mcGJet//hlt150//nvtxEE.svg
</title>
<desc>
Creator: ROOT Version 5.32/00
CreationDate: Sat Nov 29 19:43:15 2014</desc>
<defs>
</defs>
<rect x="0" y="0" width="567" height="496" fill="white"/>
<rect x="74" y="44" width="453" height="402" fill="white"/>
<rect x="74" y="44" width="453" height="402" fill="none" stroke="black"/>
<rect x="74" y="44" width="453" height="402" fill="white"/>
<rect x="74" y="44" width="453" height="402" fill="none" stroke="black"/>
<path d="M85,445h 4" fill="none" stroke="#ff0099"/>
<path d="M91,445h 5" fill="none" stroke="#ff0099"/>
<g stroke="#ff0099" stroke-width="1" fill="#ff0099">
<circle cx=" 90" cy=" 445" r=" 1.5"/>
</g>
<path d="M96,443h 4" fill="none" stroke="#ff0099"/>
<path d="M102,443h 5" fill="none" stroke="#ff0099"/>
<g stroke="#ff0099" stroke-width="1" fill="#ff0099">
<circle cx=" 101" cy=" 443" r=" 1.5"/>
</g>
<path d="M112,441v -1" fill="none" stroke="#ff0099"/>
<path d="M112,438v -1" fill="none" stroke="#ff0099"/>
<path d="M107,439h 4" fill="none" stroke="#ff0099"/>
<path d="M114,439h 4" fill="none" stroke="#ff0099"/>
<g stroke="#ff0099" stroke-width="1" fill="#ff0099">
<circle cx=" 112" cy=" 439" r=" 1.5"/>
</g>
<path d="M123,430v -1" fill="none" stroke="#ff0099"/>
<path d="M123,427v -2" fill="none" stroke="#ff0099"/>
<path d="M118,428h 4" fill="none" stroke="#ff0099"/>
<path d="M125,428h 4" fill="none" stroke="#ff0099"/>
<g stroke="#ff0099" stroke-width="1" fill="#ff0099">
<circle cx=" 123" cy=" 428" r=" 1.5"/>
</g>
<path d="M135,403v -5" fill="none" stroke="#ff0099"/>
<path d="M135,396v -5" fill="none" stroke="#ff0099"/>
<path d="M129,397h 4" fill="none" stroke="#ff0099"/>
<path d="M136,397h 4" fill="none" stroke="#ff0099"/>
<g stroke="#ff0099" stroke-width="1" fill="#ff0099">
<circle cx=" 135" cy=" 397" r=" 1.5"/>
</g>
<path d="M146,376v -5" fill="none" stroke="#ff0099"/>
<path d="M146,369v -5" fill="none" stroke="#ff0099"/>
<path d="M140,370h 4" fill="none" stroke="#ff0099"/>
<path d="M147,370h 4" fill="none" stroke="#ff0099"/>
<g stroke="#ff0099" stroke-width="1" fill="#ff0099">
<circle cx=" 146" cy=" 370" r=" 1.5"/>
</g>
<path d="M157,335v -6" fill="none" stroke="#ff0099"/>
<path d="M157,327v -7" fill="none" stroke="#ff0099"/>
<path d="M151,328h 5" fill="none" stroke="#ff0099"/>
<path d="M158,328h 4" fill="none" stroke="#ff0099"/>
<g stroke="#ff0099" stroke-width="1" fill="#ff0099">
<circle cx=" 157" cy=" 328" r=" 1.5"/>
</g>
<path d="M168,278v -10" fill="none" stroke="#ff0099"/>
<path d="M168,266v -10" fill="none" stroke="#ff0099"/>
<path d="M162,267h 5" fill="none" stroke="#ff0099"/>
<path d="M169,267h 4" fill="none" stroke="#ff0099"/>
<g stroke="#ff0099" stroke-width="1" fill="#ff0099">
<circle cx=" 168" cy=" 267" r=" 1.5"/>
</g>
<path d="M179,217v -12" fill="none" stroke="#ff0099"/>
<path d="M179,203v -11" fill="none" stroke="#ff0099"/>
<path d="M173,204h 5" fill="none" stroke="#ff0099"/>
<path d="M180,204h 4" fill="none" stroke="#ff0099"/>
<g stroke="#ff0099" stroke-width="1" fill="#ff0099">
<circle cx=" 179" cy=" 204" r=" 1.5"/>
</g>
<path d="M190,194v -11" fill="none" stroke="#ff0099"/>
<path d="M190,181v -11" fill="none" stroke="#ff0099"/>
<path d="M184,182h 5" fill="none" stroke="#ff0099"/>
<path d="M191,182h 4" fill="none" stroke="#ff0099"/>
<g stroke="#ff0099" stroke-width="1" fill="#ff0099">
<circle cx=" 190" cy=" 182" r=" 1.5"/>
</g>
<path d="M201,167v -13" fill="none" stroke="#ff0099"/>
<path d="M201,152v -14" fill="none" stroke="#ff0099"/>
<path d="M195,153h 5" fill="none" stroke="#ff0099"/>
<path d="M202,153h 4" fill="none" stroke="#ff0099"/>
<g stroke="#ff0099" stroke-width="1" fill="#ff0099">
<circle cx=" 201" cy=" 153" r=" 1.5"/>
</g>
<path d="M212,95v -14" fill="none" stroke="#ff0099"/>
<path d="M212,78v -15" fill="none" stroke="#ff0099"/>
<path d="M206,79h 5" fill="none" stroke="#ff0099"/>
<path d="M213,79h 5" fill="none" stroke="#ff0099"/>
<g stroke="#ff0099" stroke-width="1" fill="#ff0099">
<circle cx=" 212" cy=" 79" r=" 1.5"/>
</g>
<path d="M223,116v -14" fill="none" stroke="#ff0099"/>
<path d="M223,100v -14" fill="none" stroke="#ff0099"/>
<path d="M218,101h 4" fill="none" stroke="#ff0099"/>
<path d="M224,101h 5" fill="none" stroke="#ff0099"/>
<g stroke="#ff0099" stroke-width="1" fill="#ff0099">
<circle cx=" 223" cy=" 101" r=" 1.5"/>
</g>
<path d="M234,129v -12" fill="none" stroke="#ff0099"/>
<path d="M234,114v -12" fill="none" stroke="#ff0099"/>
<path d="M229,116h 4" fill="none" stroke="#ff0099"/>
<path d="M235,116h 5" fill="none" stroke="#ff0099"/>
<g stroke="#ff0099" stroke-width="1" fill="#ff0099">
<circle cx=" 234" cy=" 116" r=" 1.5"/>
</g>
<path d="M245,135v -14" fill="none" stroke="#ff0099"/>
<path d="M245,119v -14" fill="none" stroke="#ff0099"/>
<path d="M240,120h 4" fill="none" stroke="#ff0099"/>
<path d="M246,120h 5" fill="none" stroke="#ff0099"/>
<g stroke="#ff0099" stroke-width="1" fill="#ff0099">
<circle cx=" 245" cy=" 120" r=" 1.5"/>
</g>
<path d="M256,132v -14" fill="none" stroke="#ff0099"/>
<path d="M256,116v -13" fill="none" stroke="#ff0099"/>
<path d="M251,117h 4" fill="none" stroke="#ff0099"/>
<path d="M257,117h 5" fill="none" stroke="#ff0099"/>
<g stroke="#ff0099" stroke-width="1" fill="#ff0099">
<circle cx=" 256" cy=" 117" r=" 1.5"/>
</g>
<path d="M267,166v -12" fill="none" stroke="#ff0099"/>
<path d="M267,152v -11" fill="none" stroke="#ff0099"/>
<path d="M262,153h 4" fill="none" stroke="#ff0099"/>
<path d="M268,153h 5" fill="none" stroke="#ff0099"/>
<g stroke="#ff0099" stroke-width="1" fill="#ff0099">
<circle cx=" 267" cy=" 153" r=" 1.5"/>
</g>
<path d="M278,190v -11" fill="none" stroke="#ff0099"/>
<path d="M278,177v -11" fill="none" stroke="#ff0099"/>
<path d="M273,178h 4" fill="none" stroke="#ff0099"/>
<path d="M279,178h 5" fill="none" stroke="#ff0099"/>
<g stroke="#ff0099" stroke-width="1" fill="#ff0099">
<circle cx=" 278" cy=" 178" r=" 1.5"/>
</g>
<path d="M289,218v -10" fill="none" stroke="#ff0099"/>
<path d="M289,206v -11" fill="none" stroke="#ff0099"/>
<path d="M284,207h 4" fill="none" stroke="#ff0099"/>
<path d="M291,207h 4" fill="none" stroke="#ff0099"/>
<g stroke="#ff0099" stroke-width="1" fill="#ff0099">
<circle cx=" 289" cy=" 207" r=" 1.5"/>
</g>
<path d="M300,247v -11" fill="none" stroke="#ff0099"/>
<path d="M300,233v -10" fill="none" stroke="#ff0099"/>
<path d="M295,235h 4" fill="none" stroke="#ff0099"/>
<path d="M302,235h 4" fill="none" stroke="#ff0099"/>
<g stroke="#ff0099" stroke-width="1" fill="#ff0099">
<circle cx=" 300" cy=" 235" r=" 1.5"/>
</g>
<path d="M312,271v -10" fill="none" stroke="#ff0099"/>
<path d="M312,259v -9" fill="none" stroke="#ff0099"/>
<path d="M306,260h 4" fill="none" stroke="#ff0099"/>
<path d="M313,260h 4" fill="none" stroke="#ff0099"/>
<g stroke="#ff0099" stroke-width="1" fill="#ff0099">
<circle cx=" 312" cy=" 260" r=" 1.5"/>
</g>
<path d="M323,308v -7" fill="none" stroke="#ff0099"/>
<path d="M323,298v -7" fill="none" stroke="#ff0099"/>
<path d="M317,299h 4" fill="none" stroke="#ff0099"/>
<path d="M324,299h 4" fill="none" stroke="#ff0099"/>
<g stroke="#ff0099" stroke-width="1" fill="#ff0099">
<circle cx=" 323" cy=" 299" r=" 1.5"/>
</g>
<path d="M334,343v -7" fill="none" stroke="#ff0099"/>
<path d="M334,334v -7" fill="none" stroke="#ff0099"/>
<path d="M328,335h 5" fill="none" stroke="#ff0099"/>
<path d="M335,335h 4" fill="none" stroke="#ff0099"/>
<g stroke="#ff0099" stroke-width="1" fill="#ff0099">
<circle cx=" 334" cy=" 335" r=" 1.5"/>
</g>
<path d="M345,348v -6" fill="none" stroke="#ff0099"/>
<path d="M345,340v -6" fill="none" stroke="#ff0099"/>
<path d="M339,341h 5" fill="none" stroke="#ff0099"/>
<path d="M346,341h 4" fill="none" stroke="#ff0099"/>
<g stroke="#ff0099" stroke-width="1" fill="#ff0099">
<circle cx=" 345" cy=" 341" r=" 1.5"/>
</g>
<path d="M356,375v -6" fill="none" stroke="#ff0099"/>
<path d="M356,367v -6" fill="none" stroke="#ff0099"/>
<path d="M350,368h 5" fill="none" stroke="#ff0099"/>
<path d="M357,368h 4" fill="none" stroke="#ff0099"/>
<g stroke="#ff0099" stroke-width="1" fill="#ff0099">
<circle cx=" 356" cy=" 368" r=" 1.5"/>
</g>
<path d="M367,400v -4" fill="none" stroke="#ff0099"/>
<path d="M367,394v -4" fill="none" stroke="#ff0099"/>
<path d="M361,395h 5" fill="none" stroke="#ff0099"/>
<path d="M368,395h 4" fill="none" stroke="#ff0099"/>
<g stroke="#ff0099" stroke-width="1" fill="#ff0099">
<circle cx=" 367" cy=" 395" r=" 1.5"/>
</g>
<path d="M378,412v -8" fill="none" stroke="#ff0099"/>
<path d="M378,402v -7" fill="none" stroke="#ff0099"/>
<path d="M372,403h 5" fill="none" stroke="#ff0099"/>
<path d="M379,403h 4" fill="none" stroke="#ff0099"/>
<g stroke="#ff0099" stroke-width="1" fill="#ff0099">
<circle cx=" 378" cy=" 403" r=" 1.5"/>
</g>
<path d="M389,422v -1" fill="none" stroke="#ff0099"/>
<path d="M389,418v -1" fill="none" stroke="#ff0099"/>
<path d="M383,419h 5" fill="none" stroke="#ff0099"/>
<path d="M390,419h 4" fill="none" stroke="#ff0099"/>
<g stroke="#ff0099" stroke-width="1" fill="#ff0099">
<circle cx=" 389" cy=" 419" r=" 1.5"/>
</g>
<path d="M400,422v -3" fill="none" stroke="#ff0099"/>
<path d="M400,417v -4" fill="none" stroke="#ff0099"/>
<path d="M394,418h 5" fill="none" stroke="#ff0099"/>
<path d="M401,418h 5" fill="none" stroke="#ff0099"/>
<g stroke="#ff0099" stroke-width="1" fill="#ff0099">
<circle cx=" 400" cy=" 418" r=" 1.5"/>
</g>
<path d="M411,437v -1" fill="none" stroke="#ff0099"/>
<path d="M411,434" fill="none" stroke="#ff0099"/>
<path d="M406,435h 4" fill="none" stroke="#ff0099"/>
<path d="M412,435h 5" fill="none" stroke="#ff0099"/>
<g stroke="#ff0099" stroke-width="1" fill="#ff0099">
<circle cx=" 411" cy=" 435" r=" 1.5"/>
</g>
<path d="M422,439v -2" fill="none" stroke="#ff0099"/>
<path d="M422,435v -1" fill="none" stroke="#ff0099"/>
<path d="M417,436h 4" fill="none" stroke="#ff0099"/>
<path d="M423,436h 5" fill="none" stroke="#ff0099"/>
<g stroke="#ff0099" stroke-width="1" fill="#ff0099">
<circle cx=" 422" cy=" 436" r=" 1.5"/>
</g>
<path d="M428,441h 4" fill="none" stroke="#ff0099"/>
<path d="M434,441h 5" fill="none" stroke="#ff0099"/>
<g stroke="#ff0099" stroke-width="1" fill="#ff0099">
<circle cx=" 433" cy=" 441" r=" 1.5"/>
</g>
<path d="M439,441h 4" fill="none" stroke="#ff0099"/>
<path d="M445,441h 5" fill="none" stroke="#ff0099"/>
<g stroke="#ff0099" stroke-width="1" fill="#ff0099">
<circle cx=" 444" cy=" 441" r=" 1.5"/>
</g>
<path d="M450,444h 4" fill="none" stroke="#ff0099"/>
<path d="M456,444h 5" fill="none" stroke="#ff0099"/>
<g stroke="#ff0099" stroke-width="1" fill="#ff0099">
<circle cx=" 455" cy=" 444" r=" 1.5"/>
</g>
<path d="M461,445h 4" fill="none" stroke="#ff0099"/>
<path d="M468,445h 4" fill="none" stroke="#ff0099"/>
<g stroke="#ff0099" stroke-width="1" fill="#ff0099">
<circle cx=" 466" cy=" 445" r=" 1.5"/>
</g>
<path d="M472,445h 4" fill="none" stroke="#ff0099"/>
<path d="M479,445h 4" fill="none" stroke="#ff0099"/>
<g stroke="#ff0099" stroke-width="1" fill="#ff0099">
<circle cx=" 477" cy=" 445" r=" 1.5"/>
</g>
<path d="M483,445h 4" fill="none" stroke="#ff0099"/>
<path d="M490,445h 4" fill="none" stroke="#ff0099"/>
<g stroke="#ff0099" stroke-width="1" fill="#ff0099">
<circle cx=" 489" cy=" 445" r=" 1.5"/>
</g>
<path d="M494,446h 4" fill="none" stroke="#ff0099"/>
<path d="M501,446h 4" fill="none" stroke="#ff0099"/>
<g stroke="#ff0099" stroke-width="1" fill="#ff0099">
<circle cx=" 500" cy=" 446" r=" 1.5"/>
</g>
<path d="M505,445h 5" fill="none" stroke="#ff0099"/>
<path d="M512,445h 4" fill="none" stroke="#ff0099"/>
<g stroke="#ff0099" stroke-width="1" fill="#ff0099">
<circle cx=" 511" cy=" 445" r=" 1.5"/>
</g>
<path d="M516,446h 5" fill="none" stroke="#ff0099"/>
<path d="M523,446h 4" fill="none" stroke="#ff0099"/>
<g stroke="#ff0099" stroke-width="1" fill="#ff0099">
<circle cx=" 522" cy=" 446" r=" 1.5"/>
</g>
<path d="M74,446h 453" fill="none" stroke="black"/>
<path d="M79,434v 12" fill="none" stroke="black"/>
<path d="M90,440v 6" fill="none" stroke="black"/>
<path d="M101,440v 6" fill="none" stroke="black"/>
<path d="M112,440v 6" fill="none" stroke="black"/>
<path d="M123,440v 6" fill="none" stroke="black"/>
<path d="M135,434v 12" fill="none" stroke="black"/>
<path d="M146,440v 6" fill="none" stroke="black"/>
<path d="M157,440v 6" fill="none" stroke="black"/>
<path d="M168,440v 6" fill="none" stroke="black"/>
<path d="M179,440v 6" fill="none" stroke="black"/>
<path d="M190,434v 12" fill="none" stroke="black"/>
<path d="M201,440v 6" fill="none" stroke="black"/>
<path d="M212,440v 6" fill="none" stroke="black"/>
<path d="M223,440v 6" fill="none" stroke="black"/>
<path d="M234,440v 6" fill="none" stroke="black"/>
<path d="M245,434v 12" fill="none" stroke="black"/>
<path d="M256,440v 6" fill="none" stroke="black"/>
<path d="M267,440v 6" fill="none" stroke="black"/>
<path d="M278,440v 6" fill="none" stroke="black"/>
<path d="M289,440v 6" fill="none" stroke="black"/>
<path d="M300,434v 12" fill="none" stroke="black"/>
<path d="M312,440v 6" fill="none" stroke="black"/>
<path d="M323,440v 6" fill="none" stroke="black"/>
<path d="M334,440v 6" fill="none" stroke="black"/>
<path d="M345,440v 6" fill="none" stroke="black"/>
<path d="M356,434v 12" fill="none" stroke="black"/>
<path d="M367,440v 6" fill="none" stroke="black"/>
<path d="M378,440v 6" fill="none" stroke="black"/>
<path d="M389,440v 6" fill="none" stroke="black"/>
<path d="M400,440v 6" fill="none" stroke="black"/>
<path d="M411,434v 12" fill="none" stroke="black"/>
<path d="M422,440v 6" fill="none" stroke="black"/>
<path d="M433,440v 6" fill="none" stroke="black"/>
<path d="M444,440v 6" fill="none" stroke="black"/>
<path d="M455,440v 6" fill="none" stroke="black"/>
<path d="M466,434v 12" fill="none" stroke="black"/>
<path d="M477,440v 6" fill="none" stroke="black"/>
<path d="M489,440v 6" fill="none" stroke="black"/>
<path d="M500,440v 6" fill="none" stroke="black"/>
<path d="M511,440v 6" fill="none" stroke="black"/>
<path d="M522,434v 12" fill="none" stroke="black"/>
<path d="M79,434v 12" fill="none" stroke="black"/>
<path d="M522,434v 12" fill="none" stroke="black"/>
<text x="74" y="465" fill="black" font-size="18" font-family="Helvetica" font-weight="bold">
0
</text>
<text x="129" y="465" fill="black" font-size="18" font-family="Helvetica" font-weight="bold">
5
</text>
<text x="179" y="465" fill="black" font-size="18" font-family="Helvetica" font-weight="bold">
10
</text>
<text x="235" y="465" fill="black" font-size="18" font-family="Helvetica" font-weight="bold">
15
</text>
<text x="290" y="465" fill="black" font-size="18" font-family="Helvetica" font-weight="bold">
20
</text>
<text x="346" y="465" fill="black" font-size="18" font-family="Helvetica" font-weight="bold">
25
</text>
<text x="401" y="465" fill="black" font-size="18" font-family="Helvetica" font-weight="bold">
30
</text>
<text x="456" y="465" fill="black" font-size="18" font-family="Helvetica" font-weight="bold">
35
</text>
<text x="511" y="465" fill="black" font-size="18" font-family="Helvetica" font-weight="bold">
40
</text>
<path d="M74,44h 453" fill="none" stroke="black"/>
<path d="M79,56v -12" fill="none" stroke="black"/>
<path d="M90,50v -6" fill="none" stroke="black"/>
<path d="M101,50v -6" fill="none" stroke="black"/>
<path d="M112,50v -6" fill="none" stroke="black"/>
<path d="M123,50v -6" fill="none" stroke="black"/>
<path d="M135,56v -12" fill="none" stroke="black"/>
<path d="M146,50v -6" fill="none" stroke="black"/>
<path d="M157,50v -6" fill="none" stroke="black"/>
<path d="M168,50v -6" fill="none" stroke="black"/>
<path d="M179,50v -6" fill="none" stroke="black"/>
<path d="M190,56v -12" fill="none" stroke="black"/>
<path d="M201,50v -6" fill="none" stroke="black"/>
<path d="M212,50v -6" fill="none" stroke="black"/>
<path d="M223,50v -6" fill="none" stroke="black"/>
<path d="M234,50v -6" fill="none" stroke="black"/>
<path d="M245,56v -12" fill="none" stroke="black"/>
<path d="M256,50v -6" fill="none" stroke="black"/>
<path d="M267,50v -6" fill="none" stroke="black"/>
<path d="M278,50v -6" fill="none" stroke="black"/>
<path d="M289,50v -6" fill="none" stroke="black"/>
<path d="M300,56v -12" fill="none" stroke="black"/>
<path d="M312,50v -6" fill="none" stroke="black"/>
<path d="M323,50v -6" fill="none" stroke="black"/>
<path d="M334,50v -6" fill="none" stroke="black"/>
<path d="M345,50v -6" fill="none" stroke="black"/>
<path d="M356,56v -12" fill="none" stroke="black"/>
<path d="M367,50v -6" fill="none" stroke="black"/>
<path d="M378,50v -6" fill="none" stroke="black"/>
<path d="M389,50v -6" fill="none" stroke="black"/>
<path d="M400,50v -6" fill="none" stroke="black"/>
<path d="M411,56v -12" fill="none" stroke="black"/>
<path d="M422,50v -6" fill="none" stroke="black"/>
<path d="M433,50v -6" fill="none" stroke="black"/>
<path d="M444,50v -6" fill="none" stroke="black"/>
<path d="M455,50v -6" fill="none" stroke="black"/>
<path d="M466,56v -12" fill="none" stroke="black"/>
<path d="M477,50v -6" fill="none" stroke="black"/>
<path d="M489,50v -6" fill="none" stroke="black"/>
<path d="M500,50v -6" fill="none" stroke="black"/>
<path d="M511,50v -6" fill="none" stroke="black"/>
<path d="M522,56v -12" fill="none" stroke="black"/>
<path d="M79,56v -12" fill="none" stroke="black"/>
<path d="M522,56v -12" fill="none" stroke="black"/>
<path d="M74,446v -402" fill="none" stroke="black"/>
<path d="M87,446h -13" fill="none" stroke="black"/>
<path d="M81,437h -7" fill="none" stroke="black"/>
<path d="M81,427h -7" fill="none" stroke="black"/>
<path d="M81,418h -7" fill="none" stroke="black"/>
<path d="M81,408h -7" fill="none" stroke="black"/>
<path d="M87,399h -13" fill="none" stroke="black"/>
<path d="M81,389h -7" fill="none" stroke="black"/>
<path d="M81,379h -7" fill="none" stroke="black"/>
<path d="M81,370h -7" fill="none" stroke="black"/>
<path d="M81,360h -7" fill="none" stroke="black"/>
<path d="M87,351h -13" fill="none" stroke="black"/>
<path d="M81,341h -7" fill="none" stroke="black"/>
<path d="M81,332h -7" fill="none" stroke="black"/>
<path d="M81,322h -7" fill="none" stroke="black"/>
<path d="M81,312h -7" fill="none" stroke="black"/>
<path d="M87,303h -13" fill="none" stroke="black"/>
<path d="M81,293h -7" fill="none" stroke="black"/>
<path d="M81,284h -7" fill="none" stroke="black"/>
<path d="M81,274h -7" fill="none" stroke="black"/>
<path d="M81,265h -7" fill="none" stroke="black"/>
<path d="M87,255h -13" fill="none" stroke="black"/>
<path d="M81,246h -7" fill="none" stroke="black"/>
<path d="M81,236h -7" fill="none" stroke="black"/>
<path d="M81,226h -7" fill="none" stroke="black"/>
<path d="M81,217h -7" fill="none" stroke="black"/>
<path d="M87,207h -13" fill="none" stroke="black"/>
<path d="M81,198h -7" fill="none" stroke="black"/>
<path d="M81,188h -7" fill="none" stroke="black"/>
<path d="M81,179h -7" fill="none" stroke="black"/>
<path d="M81,169h -7" fill="none" stroke="black"/>
<path d="M87,159h -13" fill="none" stroke="black"/>
<path d="M81,150h -7" fill="none" stroke="black"/>
<path d="M81,140h -7" fill="none" stroke="black"/>
<path d="M81,131h -7" fill="none" stroke="black"/>
<path d="M81,121h -7" fill="none" stroke="black"/>
<path d="M87,112h -13" fill="none" stroke="black"/>
<path d="M81,102h -7" fill="none" stroke="black"/>
<path d="M81,92h -7" fill="none" stroke="black"/>
<path d="M81,83h -7" fill="none" stroke="black"/>
<path d="M81,73h -7" fill="none" stroke="black"/>
<path d="M87,64h -13" fill="none" stroke="black"/>
<path d="M87,64h -13" fill="none" stroke="black"/>
<path d="M81,54h -7" fill="none" stroke="black"/>
<path d="M81,45h -7" fill="none" stroke="black"/>
<text x="61" y="453" fill="black" font-size="18" font-family="Helvetica" font-weight="bold">
0
</text>
<text x="37" y="405" fill="black" font-size="18" font-family="Helvetica" font-weight="bold">
0.01
</text>
<text x="35" y="357" fill="black" font-size="18" font-family="Helvetica" font-weight="bold">
0.02
</text>
<text x="35" y="309" fill="black" font-size="18" font-family="Helvetica" font-weight="bold">
0.03
</text>
<text x="34" y="261" fill="black" font-size="18" font-family="Helvetica" font-weight="bold">
0.04
</text>
<text x="34" y="214" fill="black" font-size="18" font-family="Helvetica" font-weight="bold">
0.05
</text>
<text x="34" y="166" fill="black" font-size="18" font-family="Helvetica" font-weight="bold">
0.06
</text>
<text x="35" y="118" fill="black" font-size="18" font-family="Helvetica" font-weight="bold">
0.07
</text>
<text x="35" y="70" fill="black" font-size="18" font-family="Helvetica" font-weight="bold">
0.08
</text>
<path d="M90,446" fill="none" stroke="#99ff99" stroke-width="2"/>
<path d="M90,446" fill="none" stroke="#99ff99" stroke-width="2"/>
<g stroke="black" stroke-width="2" fill="none">
<line x1="89" y1="446" x2="90" y2="446"/>
</g>
<path d="M101,445" fill="none" stroke="#99ff99" stroke-width="2"/>
<path d="M101,445" fill="none" stroke="#99ff99" stroke-width="2"/>
<g stroke="black" stroke-width="2" fill="none">
<line x1="100" y1="445" x2="101" y2="445"/>
</g>
<path d="M112,440" fill="none" stroke="#99ff99" stroke-width="2"/>
<path d="M112,440v -1" fill="none" stroke="#99ff99" stroke-width="2"/>
<g stroke="black" stroke-width="2" fill="none">
<line x1="111" y1="440" x2="112" y2="440"/>
</g>
<path d="M123,429v -1" fill="none" stroke="#99ff99" stroke-width="2"/>
<path d="M123,428" fill="none" stroke="#99ff99" stroke-width="2"/>
<g stroke="black" stroke-width="2" fill="none">
<line x1="122" y1="428" x2="123" y2="428"/>
</g>
<path d="M135,410v -1" fill="none" stroke="#99ff99" stroke-width="2"/>
<path d="M135,409v -1" fill="none" stroke="#99ff99" stroke-width="2"/>
<g stroke="black" stroke-width="2" fill="none">
<line x1="134" y1="409" x2="135" y2="409"/>
</g>
<path d="M146,380v -1" fill="none" stroke="#99ff99" stroke-width="2"/>
<path d="M146,379v -1" fill="none" stroke="#99ff99" stroke-width="2"/>
<g stroke="black" stroke-width="2" fill="none">
<line x1="145" y1="379" x2="146" y2="379"/>
</g>
<path d="M157,339v -2" fill="none" stroke="#99ff99" stroke-width="2"/>
<path d="M157,337v -1" fill="none" stroke="#99ff99" stroke-width="2"/>
<g stroke="black" stroke-width="2" fill="none">
<line x1="156" y1="337" x2="157" y2="337"/>
</g>
<path d="M168,293v -2" fill="none" stroke="#99ff99" stroke-width="2"/>
<path d="M168,291v -2" fill="none" stroke="#99ff99" stroke-width="2"/>
<g stroke="black" stroke-width="2" fill="none">
<line x1="167" y1="291" x2="168" y2="291"/>
</g>
<path d="M179,251v -2" fill="none" stroke="#99ff99" stroke-width="2"/>
<path d="M179,249v -3" fill="none" stroke="#99ff99" stroke-width="2"/>
<g stroke="black" stroke-width="2" fill="none">
<line x1="178" y1="249" x2="179" y2="249"/>
</g>
<path d="M190,197v -6" fill="none" stroke="#99ff99" stroke-width="2"/>
<path d="M190,191v -7" fill="none" stroke="#99ff99" stroke-width="2"/>
<g stroke="black" stroke-width="2" fill="none">
<line x1="189" y1="191" x2="190" y2="191"/>
</g>
<path d="M201,163v -8" fill="none" stroke="#99ff99" stroke-width="2"/>
<path d="M201,155v -8" fill="none" stroke="#99ff99" stroke-width="2"/>
<g stroke="black" stroke-width="2" fill="none">
<line x1="200" y1="155" x2="201" y2="155"/>
</g>
<path d="M212,141v -6" fill="none" stroke="#99ff99" stroke-width="2"/>
<path d="M212,135v -6" fill="none" stroke="#99ff99" stroke-width="2"/>
<g stroke="black" stroke-width="2" fill="none">
<line x1="211" y1="135" x2="212" y2="135"/>
</g>
<path d="M223,124v -3" fill="none" stroke="#99ff99" stroke-width="2"/>
<path d="M223,121v -3" fill="none" stroke="#99ff99" stroke-width="2"/>
<g stroke="black" stroke-width="2" fill="none">
<line x1="222" y1="121" x2="223" y2="121"/>
</g>
<path d="M234,122v -3" fill="none" stroke="#99ff99" stroke-width="2"/>
<path d="M234,119v -3" fill="none" stroke="#99ff99" stroke-width="2"/>
<g stroke="black" stroke-width="2" fill="none">
<line x1="233" y1="119" x2="234" y2="119"/>
</g>
<path d="M245,120v -2" fill="none" stroke="#99ff99" stroke-width="2"/>
<path d="M245,118v -3" fill="none" stroke="#99ff99" stroke-width="2"/>
<g stroke="black" stroke-width="2" fill="none">
<line x1="244" y1="118" x2="245" y2="118"/>
</g>
<path d="M256,124v -7" fill="none" stroke="#99ff99" stroke-width="2"/>
<path d="M256,117v -7" fill="none" stroke="#99ff99" stroke-width="2"/>
<g stroke="black" stroke-width="2" fill="none">
<line x1="255" y1="117" x2="256" y2="117"/>
</g>
<path d="M267,140v -8" fill="none" stroke="#99ff99" stroke-width="2"/>
<path d="M267,132v -7" fill="none" stroke="#99ff99" stroke-width="2"/>
<g stroke="black" stroke-width="2" fill="none">
<line x1="266" y1="132" x2="267" y2="132"/>
</g>
<path d="M278,162v -6" fill="none" stroke="#99ff99" stroke-width="2"/>
<path d="M278,156v -6" fill="none" stroke="#99ff99" stroke-width="2"/>
<g stroke="black" stroke-width="2" fill="none">
<line x1="277" y1="156" x2="278" y2="156"/>
</g>
<path d="M289,193v -6" fill="none" stroke="#99ff99" stroke-width="2"/>
<path d="M289,187v -5" fill="none" stroke="#99ff99" stroke-width="2"/>
<g stroke="black" stroke-width="2" fill="none">
<line x1="288" y1="187" x2="289" y2="187"/>
</g>
<path d="M300,222v -6" fill="none" stroke="#99ff99" stroke-width="2"/>
<path d="M300,216v -5" fill="none" stroke="#99ff99" stroke-width="2"/>
<g stroke="black" stroke-width="2" fill="none">
<line x1="299" y1="216" x2="300" y2="216"/>
</g>
<path d="M312,254v -4" fill="none" stroke="#99ff99" stroke-width="2"/>
<path d="M312,250v -3" fill="none" stroke="#99ff99" stroke-width="2"/>
<g stroke="black" stroke-width="2" fill="none">
<line x1="311" y1="250" x2="312" y2="250"/>
</g>
<path d="M323,287v -2" fill="none" stroke="#99ff99" stroke-width="2"/>
<path d="M323,285v -2" fill="none" stroke="#99ff99" stroke-width="2"/>
<g stroke="black" stroke-width="2" fill="none">
<line x1="322" y1="285" x2="323" y2="285"/>
</g>
<path d="M334,314v -2" fill="none" stroke="#99ff99" stroke-width="2"/>
<path d="M334,312v -1" fill="none" stroke="#99ff99" stroke-width="2"/>
<g stroke="black" stroke-width="2" fill="none">
<line x1="333" y1="312" x2="334" y2="312"/>
</g>
<path d="M345,341v -3" fill="none" stroke="#99ff99" stroke-width="2"/>
<path d="M345,338v -3" fill="none" stroke="#99ff99" stroke-width="2"/>
<g stroke="black" stroke-width="2" fill="none">
<line x1="344" y1="338" x2="345" y2="338"/>
</g>
<path d="M356,365v -2" fill="none" stroke="#99ff99" stroke-width="2"/>
<path d="M356,363v -2" fill="none" stroke="#99ff99" stroke-width="2"/>
<g stroke="black" stroke-width="2" fill="none">
<line x1="355" y1="363" x2="356" y2="363"/>
</g>
<path d="M367,381v -4" fill="none" stroke="#99ff99" stroke-width="2"/>
<path d="M367,377v -3" fill="none" stroke="#99ff99" stroke-width="2"/>
<g stroke="black" stroke-width="2" fill="none">
<line x1="366" y1="377" x2="367" y2="377"/>
</g>
<path d="M378,400v -3" fill="none" stroke="#99ff99" stroke-width="2"/>
<path d="M378,397v -3" fill="none" stroke="#99ff99" stroke-width="2"/>
<g stroke="black" stroke-width="2" fill="none">
<line x1="377" y1="397" x2="378" y2="397"/>
</g>
<path d="M389,410" fill="none" stroke="#99ff99" stroke-width="2"/>
<path d="M389,410v -1" fill="none" stroke="#99ff99" stroke-width="2"/>
<g stroke="black" stroke-width="2" fill="none">
<line x1="388" y1="410" x2="389" y2="410"/>
</g>
<path d="M400,422v -2" fill="none" stroke="#99ff99" stroke-width="2"/>
<path d="M400,420v -1" fill="none" stroke="#99ff99" stroke-width="2"/>
<g stroke="black" stroke-width="2" fill="none">
<line x1="399" y1="420" x2="400" y2="420"/>
</g>
<path d="M411,429v -1" fill="none" stroke="#99ff99" stroke-width="2"/>
<path d="M411,428" fill="none" stroke="#99ff99" stroke-width="2"/>
<g stroke="black" stroke-width="2" fill="none">
<line x1="410" y1="428" x2="411" y2="428"/>
</g>
<path d="M422,434v -2" fill="none" stroke="#99ff99" stroke-width="2"/>
<path d="M422,432v -1" fill="none" stroke="#99ff99" stroke-width="2"/>
<g stroke="black" stroke-width="2" fill="none">
<line x1="421" y1="432" x2="422" y2="432"/>
</g>
<path d="M433,438v -1" fill="none" stroke="#99ff99" stroke-width="2"/>
<path d="M433,437v -1" fill="none" stroke="#99ff99" stroke-width="2"/>
<g stroke="black" stroke-width="2" fill="none">
<line x1="432" y1="437" x2="433" y2="437"/>
</g>
<path d="M444,441v -1" fill="none" stroke="#99ff99" stroke-width="2"/>
<path d="M444,440v -1" fill="none" stroke="#99ff99" stroke-width="2"/>
<g stroke="black" stroke-width="2" fill="none">
<line x1="443" y1="440" x2="444" y2="440"/>
</g>
<path d="M455,443v -1" fill="none" stroke="#99ff99" stroke-width="2"/>
<path d="M455,442" fill="none" stroke="#99ff99" stroke-width="2"/>
<g stroke="black" stroke-width="2" fill="none">
<line x1="454" y1="442" x2="455" y2="442"/>
</g>
<path d="M466,444v -1" fill="none" stroke="#99ff99" stroke-width="2"/>
<path d="M466,443v -1" fill="none" stroke="#99ff99" stroke-width="2"/>
<g stroke="black" stroke-width="2" fill="none">
<line x1="465" y1="443" x2="466" y2="443"/>
</g>
<path d="M477,445" fill="none" stroke="#99ff99" stroke-width="2"/>
<path d="M477,445v -1" fill="none" stroke="#99ff99" stroke-width="2"/>
<g stroke="black" stroke-width="2" fill="none">
<line x1="476" y1="445" x2="477" y2="445"/>
</g>
<path d="M489,445" fill="none" stroke="#99ff99" stroke-width="2"/>
<path d="M489,445" fill="none" stroke="#99ff99" stroke-width="2"/>
<g stroke="black" stroke-width="2" fill="none">
<line x1="488" y1="445" x2="489" y2="445"/>
</g>
<path d="M500,446" fill="none" stroke="#99ff99" stroke-width="2"/>
<path d="M500,446" fill="none" stroke="#99ff99" stroke-width="2"/>
<g stroke="black" stroke-width="2" fill="none">
<line x1="499" y1="446" x2="500" y2="446"/>
</g>
<path d="M511,446" fill="none" stroke="#99ff99" stroke-width="2"/>
<path d="M511,446" fill="none" stroke="#99ff99" stroke-width="2"/>
<g stroke="black" stroke-width="2" fill="none">
<line x1="510" y1="446" x2="511" y2="446"/>
</g>
<path d="M522,446" fill="none" stroke="#99ff99" stroke-width="2"/>
<path d="M522,446" fill="none" stroke="#99ff99" stroke-width="2"/>
<g stroke="black" stroke-width="2" fill="none">
<line x1="521" y1="446" x2="522" y2="446"/>
</g>
<path d="M74,446h 22v -1h 11v -5h 11v -12h 11v -19h 11v -30h 11v -42h 11v -46h 11v -42h 11v -58h 11v -36h 11v -20h 12v -14h 11v -2h 11v -1h 11v -1h 11v 15h 11v 24h 11v 31h 11v 29h 11v 34h 11v 35h 11v 27h 11v 26h 11v 25h 11v 14h 11v 20h 11v 13h 11v
 10h 12v 8h 11v 4h 11v 5h 11v 3h 11v 2h 11v 1h 11v 2h 22v 1h 33z" fill="#99ff99"/>
<path d="M74,446h 22v -1h 11v -5h 11v -12h 11v -19h 11v -30h 11v -42h 11v -46h 11v -42h 11v -58h 11v -36h 11v -20h 12v -14h 11v -2h 11v -1h 11v -1h 11v 15h 11v 24h 11v 31h 11v 29h 11v 34h 11v 35h 11v 27h 11v 26h 11v 25h 11v 14h 11v 20h 11v 13h 11v
 10h 12v 8h 11v 4h 11v 5h 11v 3h 11v 2h 11v 1h 11v 2h 22v 1h 33" fill="none" stroke="#99ff99" stroke-width="2"/>
<path d="M85,445h 4" fill="none" stroke="#ff0099"/>
<path d="M91,445h 5" fill="none" stroke="#ff0099"/>
<g stroke="#ff0099" stroke-width="1" fill="#ff0099">
<circle cx=" 90" cy=" 445" r=" 1.5"/>
</g>
<path d="M96,443h 4" fill="none" stroke="#ff0099"/>
<path d="M102,443h 5" fill="none" stroke="#ff0099"/>
<g stroke="#ff0099" stroke-width="1" fill="#ff0099">
<circle cx=" 101" cy=" 443" r=" 1.5"/>
</g>
<path d="M112,441v -1" fill="none" stroke="#ff0099"/>
<path d="M112,438v -1" fill="none" stroke="#ff0099"/>
<path d="M107,439h 4" fill="none" stroke="#ff0099"/>
<path d="M114,439h 4" fill="none" stroke="#ff0099"/>
<g stroke="#ff0099" stroke-width="1" fill="#ff0099">
<circle cx=" 112" cy=" 439" r=" 1.5"/>
</g>
<path d="M123,430v -1" fill="none" stroke="#ff0099"/>
<path d="M123,427v -2" fill="none" stroke="#ff0099"/>
<path d="M118,428h 4" fill="none" stroke="#ff0099"/>
<path d="M125,428h 4" fill="none" stroke="#ff0099"/>
<g stroke="#ff0099" stroke-width="1" fill="#ff0099">
<circle cx=" 123" cy=" 428" r=" 1.5"/>
</g>
<path d="M135,403v -5" fill="none" stroke="#ff0099"/>
<path d="M135,396v -5" fill="none" stroke="#ff0099"/>
<path d="M129,397h 4" fill="none" stroke="#ff0099"/>
<path d="M136,397h 4" fill="none" stroke="#ff0099"/>
<g stroke="#ff0099" stroke-width="1" fill="#ff0099">
<circle cx=" 135" cy=" 397" r=" 1.5"/>
</g>
<path d="M146,376v -5" fill="none" stroke="#ff0099"/>
<path d="M146,369v -5" fill="none" stroke="#ff0099"/>
<path d="M140,370h 4" fill="none" stroke="#ff0099"/>
<path d="M147,370h 4" fill="none" stroke="#ff0099"/>
<g stroke="#ff0099" stroke-width="1" fill="#ff0099">
<circle cx=" 146" cy=" 370" r=" 1.5"/>
</g>
<path d="M157,335v -6" fill="none" stroke="#ff0099"/>
<path d="M157,327v -7" fill="none" stroke="#ff0099"/>
<path d="M151,328h 5" fill="none" stroke="#ff0099"/>
<path d="M158,328h 4" fill="none" stroke="#ff0099"/>
<g stroke="#ff0099" stroke-width="1" fill="#ff0099">
<circle cx=" 157" cy=" 328" r=" 1.5"/>
</g>
<path d="M168,278v -10" fill="none" stroke="#ff0099"/>
<path d="M168,266v -10" fill="none" stroke="#ff0099"/>
<path d="M162,267h 5" fill="none" stroke="#ff0099"/>
<path d="M169,267h 4" fill="none" stroke="#ff0099"/>
<g stroke="#ff0099" stroke-width="1" fill="#ff0099">
<circle cx=" 168" cy=" 267" r=" 1.5"/>
</g>
<path d="M179,217v -12" fill="none" stroke="#ff0099"/>
<path d="M179,203v -11" fill="none" stroke="#ff0099"/>
<path d="M173,204h 5" fill="none" stroke="#ff0099"/>
<path d="M180,204h 4" fill="none" stroke="#ff0099"/>
<g stroke="#ff0099" stroke-width="1" fill="#ff0099">
<circle cx=" 179" cy=" 204" r=" 1.5"/>
</g>
<path d="M190,194v -11" fill="none" stroke="#ff0099"/>
<path d="M190,181v -11" fill="none" stroke="#ff0099"/>
<path d="M184,182h 5" fill="none" stroke="#ff0099"/>
<path d="M191,182h 4" fill="none" stroke="#ff0099"/>
<g stroke="#ff0099" stroke-width="1" fill="#ff0099">
<circle cx=" 190" cy=" 182" r=" 1.5"/>
</g>
<path d="M201,167v -13" fill="none" stroke="#ff0099"/>
<path d="M201,152v -14" fill="none" stroke="#ff0099"/>
<path d="M195,153h 5" fill="none" stroke="#ff0099"/>
<path d="M202,153h 4" fill="none" stroke="#ff0099"/>
<g stroke="#ff0099" stroke-width="1" fill="#ff0099">
<circle cx=" 201" cy=" 153" r=" 1.5"/>
</g>
<path d="M212,95v -14" fill="none" stroke="#ff0099"/>
<path d="M212,78v -15" fill="none" stroke="#ff0099"/>
<path d="M206,79h 5" fill="none" stroke="#ff0099"/>
<path d="M213,79h 5" fill="none" stroke="#ff0099"/>
<g stroke="#ff0099" stroke-width="1" fill="#ff0099">
<circle cx=" 212" cy=" 79" r=" 1.5"/>
</g>
<path d="M223,116v -14" fill="none" stroke="#ff0099"/>
<path d="M223,100v -14" fill="none" stroke="#ff0099"/>
<path d="M218,101h 4" fill="none" stroke="#ff0099"/>
<path d="M224,101h 5" fill="none" stroke="#ff0099"/>
<g stroke="#ff0099" stroke-width="1" fill="#ff0099">
<circle cx=" 223" cy=" 101" r=" 1.5"/>
</g>
<path d="M234,129v -12" fill="none" stroke="#ff0099"/>
<path d="M234,114v -12" fill="none" stroke="#ff0099"/>
<path d="M229,116h 4" fill="none" stroke="#ff0099"/>
<path d="M235,116h 5" fill="none" stroke="#ff0099"/>
<g stroke="#ff0099" stroke-width="1" fill="#ff0099">
<circle cx=" 234" cy=" 116" r=" 1.5"/>
</g>
<path d="M245,135v -14" fill="none" stroke="#ff0099"/>
<path d="M245,119v -14" fill="none" stroke="#ff0099"/>
<path d="M240,120h 4" fill="none" stroke="#ff0099"/>
<path d="M246,120h 5" fill="none" stroke="#ff0099"/>
<g stroke="#ff0099" stroke-width="1" fill="#ff0099">
<circle cx=" 245" cy=" 120" r=" 1.5"/>
</g>
<path d="M256,132v -14" fill="none" stroke="#ff0099"/>
<path d="M256,116v -13" fill="none" stroke="#ff0099"/>
<path d="M251,117h 4" fill="none" stroke="#ff0099"/>
<path d="M257,117h 5" fill="none" stroke="#ff0099"/>
<g stroke="#ff0099" stroke-width="1" fill="#ff0099">
<circle cx=" 256" cy=" 117" r=" 1.5"/>
</g>
<path d="M267,166v -12" fill="none" stroke="#ff0099"/>
<path d="M267,152v -11" fill="none" stroke="#ff0099"/>
<path d="M262,153h 4" fill="none" stroke="#ff0099"/>
<path d="M268,153h 5" fill="none" stroke="#ff0099"/>
<g stroke="#ff0099" stroke-width="1" fill="#ff0099">
<circle cx=" 267" cy=" 153" r=" 1.5"/>
</g>
<path d="M278,190v -11" fill="none" stroke="#ff0099"/>
<path d="M278,177v -11" fill="none" stroke="#ff0099"/>
<path d="M273,178h 4" fill="none" stroke="#ff0099"/>
<path d="M279,178h 5" fill="none" stroke="#ff0099"/>
<g stroke="#ff0099" stroke-width="1" fill="#ff0099">
<circle cx=" 278" cy=" 178" r=" 1.5"/>
</g>
<path d="M289,218v -10" fill="none" stroke="#ff0099"/>
<path d="M289,206v -11" fill="none" stroke="#ff0099"/>
<path d="M284,207h 4" fill="none" stroke="#ff0099"/>
<path d="M291,207h 4" fill="none" stroke="#ff0099"/>
<g stroke="#ff0099" stroke-width="1" fill="#ff0099">
<circle cx=" 289" cy=" 207" r=" 1.5"/>
</g>
<path d="M300,247v -11" fill="none" stroke="#ff0099"/>
<path d="M300,233v -10" fill="none" stroke="#ff0099"/>
<path d="M295,235h 4" fill="none" stroke="#ff0099"/>
<path d="M302,235h 4" fill="none" stroke="#ff0099"/>
<g stroke="#ff0099" stroke-width="1" fill="#ff0099">
<circle cx=" 300" cy=" 235" r=" 1.5"/>
</g>
<path d="M312,271v -10" fill="none" stroke="#ff0099"/>
<path d="M312,259v -9" fill="none" stroke="#ff0099"/>
<path d="M306,260h 4" fill="none" stroke="#ff0099"/>
<path d="M313,260h 4" fill="none" stroke="#ff0099"/>
<g stroke="#ff0099" stroke-width="1" fill="#ff0099">
<circle cx=" 312" cy=" 260" r=" 1.5"/>
</g>
<path d="M323,308v -7" fill="none" stroke="#ff0099"/>
<path d="M323,298v -7" fill="none" stroke="#ff0099"/>
<path d="M317,299h 4" fill="none" stroke="#ff0099"/>
<path d="M324,299h 4" fill="none" stroke="#ff0099"/>
<g stroke="#ff0099" stroke-width="1" fill="#ff0099">
<circle cx=" 323" cy=" 299" r=" 1.5"/>
</g>
<path d="M334,343v -7" fill="none" stroke="#ff0099"/>
<path d="M334,334v -7" fill="none" stroke="#ff0099"/>
<path d="M328,335h 5" fill="none" stroke="#ff0099"/>
<path d="M335,335h 4" fill="none" stroke="#ff0099"/>
<g stroke="#ff0099" stroke-width="1" fill="#ff0099">
<circle cx=" 334" cy=" 335" r=" 1.5"/>
</g>
<path d="M345,348v -6" fill="none" stroke="#ff0099"/>
<path d="M345,340v -6" fill="none" stroke="#ff0099"/>
<path d="M339,341h 5" fill="none" stroke="#ff0099"/>
<path d="M346,341h 4" fill="none" stroke="#ff0099"/>
<g stroke="#ff0099" stroke-width="1" fill="#ff0099">
<circle cx=" 345" cy=" 341" r=" 1.5"/>
</g>
<path d="M356,375v -6" fill="none" stroke="#ff0099"/>
<path d="M356,367v -6" fill="none" stroke="#ff0099"/>
<path d="M350,368h 5" fill="none" stroke="#ff0099"/>
<path d="M357,368h 4" fill="none" stroke="#ff0099"/>
<g stroke="#ff0099" stroke-width="1" fill="#ff0099">
<circle cx=" 356" cy=" 368" r=" 1.5"/>
</g>
<path d="M367,400v -4" fill="none" stroke="#ff0099"/>
<path d="M367,394v -4" fill="none" stroke="#ff0099"/>
<path d="M361,395h 5" fill="none" stroke="#ff0099"/>
<path d="M368,395h 4" fill="none" stroke="#ff0099"/>
<g stroke="#ff0099" stroke-width="1" fill="#ff0099">
<circle cx=" 367" cy=" 395" r=" 1.5"/>
</g>
<path d="M378,412v -8" fill="none" stroke="#ff0099"/>
<path d="M378,402v -7" fill="none" stroke="#ff0099"/>
<path d="M372,403h 5" fill="none" stroke="#ff0099"/>
<path d="M379,403h 4" fill="none" stroke="#ff0099"/>
<g stroke="#ff0099" stroke-width="1" fill="#ff0099">
<circle cx=" 378" cy=" 403" r=" 1.5"/>
</g>
<path d="M389,422v -1" fill="none" stroke="#ff0099"/>
<path d="M389,418v -1" fill="none" stroke="#ff0099"/>
<path d="M383,419h 5" fill="none" stroke="#ff0099"/>
<path d="M390,419h 4" fill="none" stroke="#ff0099"/>
<g stroke="#ff0099" stroke-width="1" fill="#ff0099">
<circle cx=" 389" cy=" 419" r=" 1.5"/>
</g>
<path d="M400,422v -3" fill="none" stroke="#ff0099"/>
<path d="M400,417v -4" fill="none" stroke="#ff0099"/>
<path d="M394,418h 5" fill="none" stroke="#ff0099"/>
<path d="M401,418h 5" fill="none" stroke="#ff0099"/>
<g stroke="#ff0099" stroke-width="1" fill="#ff0099">
<circle cx=" 400" cy=" 418" r=" 1.5"/>
</g>
<path d="M411,437v -1" fill="none" stroke="#ff0099"/>
<path d="M411,434" fill="none" stroke="#ff0099"/>
<path d="M406,435h 4" fill="none" stroke="#ff0099"/>
<path d="M412,435h 5" fill="none" stroke="#ff0099"/>
<g stroke="#ff0099" stroke-width="1" fill="#ff0099">
<circle cx=" 411" cy=" 435" r=" 1.5"/>
</g>
<path d="M422,439v -2" fill="none" stroke="#ff0099"/>
<path d="M422,435v -1" fill="none" stroke="#ff0099"/>
<path d="M417,436h 4" fill="none" stroke="#ff0099"/>
<path d="M423,436h 5" fill="none" stroke="#ff0099"/>
<g stroke="#ff0099" stroke-width="1" fill="#ff0099">
<circle cx=" 422" cy=" 436" r=" 1.5"/>
</g>
<path d="M428,441h 4" fill="none" stroke="#ff0099"/>
<path d="M434,441h 5" fill="none" stroke="#ff0099"/>
<g stroke="#ff0099" stroke-width="1" fill="#ff0099">
<circle cx=" 433" cy=" 441" r=" 1.5"/>
</g>
<path d="M439,441h 4" fill="none" stroke="#ff0099"/>
<path d="M445,441h 5" fill="none" stroke="#ff0099"/>
<g stroke="#ff0099" stroke-width="1" fill="#ff0099">
<circle cx=" 444" cy=" 441" r=" 1.5"/>
</g>
<path d="M450,444h 4" fill="none" stroke="#ff0099"/>
<path d="M456,444h 5" fill="none" stroke="#ff0099"/>
<g stroke="#ff0099" stroke-width="1" fill="#ff0099">
<circle cx=" 455" cy=" 444" r=" 1.5"/>
</g>
<path d="M461,445h 4" fill="none" stroke="#ff0099"/>
<path d="M468,445h 4" fill="none" stroke="#ff0099"/>
<g stroke="#ff0099" stroke-width="1" fill="#ff0099">
<circle cx=" 466" cy=" 445" r=" 1.5"/>
</g>
<path d="M472,445h 4" fill="none" stroke="#ff0099"/>
<path d="M479,445h 4" fill="none" stroke="#ff0099"/>
<g stroke="#ff0099" stroke-width="1" fill="#ff0099">
<circle cx=" 477" cy=" 445" r=" 1.5"/>
</g>
<path d="M483,445h 4" fill="none" stroke="#ff0099"/>
<path d="M490,445h 4" fill="none" stroke="#ff0099"/>
<g stroke="#ff0099" stroke-width="1" fill="#ff0099">
<circle cx=" 489" cy=" 445" r=" 1.5"/>
</g>
<path d="M494,446h 4" fill="none" stroke="#ff0099"/>
<path d="M501,446h 4" fill="none" stroke="#ff0099"/>
<g stroke="#ff0099" stroke-width="1" fill="#ff0099">
<circle cx=" 500" cy=" 446" r=" 1.5"/>
</g>
<path d="M505,445h 5" fill="none" stroke="#ff0099"/>
<path d="M512,445h 4" fill="none" stroke="#ff0099"/>
<g stroke="#ff0099" stroke-width="1" fill="#ff0099">
<circle cx=" 511" cy=" 445" r=" 1.5"/>
</g>
<path d="M516,446h 5" fill="none" stroke="#ff0099"/>
<path d="M523,446h 4" fill="none" stroke="#ff0099"/>
<g stroke="#ff0099" stroke-width="1" fill="#ff0099">
<circle cx=" 522" cy=" 446" r=" 1.5"/>
</g>
<rect x="357" y="59" width="142" height="99" fill="white"/>
<text x="360" y="82" fill="black" font-size="17" font-family="Helvetica" font-weight="bold">
EE
</text>
<text x="457" y="115" fill="black" font-size="17" font-family="Helvetica" font-weight="bold">
 ee
</text>
<text x="440" y="115" fill="black" font-size="17" font-family="Times">
&#8594;
</text>
<text x="392" y="115" fill="black" font-size="17" font-family="Helvetica" font-weight="bold">
MC Z 
</text>
<path d="M362,109h 25" fill="none" stroke="#ff0099"/>
<g stroke="#ff0099" stroke-width="1" fill="#ff0099">
<circle cx=" 375" cy=" 109" r=" 1.5"/>
</g>
<text x="455" y="147" fill="black" font-size="17" font-family="Helvetica" font-weight="bold">
 + jet
</text>
<text x="447" y="147" fill="black" font-size="17" font-family="Times">
&#0947;
</text>
<text x="392" y="147" fill="black" font-size="17" font-family="Helvetica" font-weight="bold">
signal 
</text>
<path d="M362,154h 25v -24h -25z" fill="#99ff99"/>
<path d="M362,130h 25" fill="none" stroke="#99ff99" stroke-width="2"/>
<path d="M362,154h 25" fill="none" stroke="#99ff99" stroke-width="2"/>
<path d="M387,154v -24" fill="none" stroke="#99ff99" stroke-width="2"/>
<path d="M362,154v -24" fill="none" stroke="#99ff99" stroke-width="2"/>
<text x="300" y="34" fill="black" font-size="17" font-family="Helvetica" font-weight="bold">
=8 TeV
</text>
<text x="291" y="34" fill="black" font-size="17" font-family="Helvetica" font-weight="bold">
s
</text>
<path d="M285,25l 2, 10" fill="none" stroke="black" stroke-width="2"/>
<path d="M287,35l 2, -14" fill="none" stroke="black"/>
<path d="M289,21h 11" fill="none" stroke="black"/>
<text x="142" y="34" fill="black" font-size="17" font-family="Helvetica" font-weight="bold">
CMS Preliminary 
</text></svg>
