<?xml version="1.0" standalone="no"?>
<svg width="567" height="496" viewBox="0 0 567 496" xmlns="http://www.w3.org/2000/svg">
<title>
plots_mcZee_mcGJet//hlt150//ptPhotEE.svg
</title>
<desc>
Creator: ROOT Version 5.32/00
CreationDate: Sat Nov 29 19:43:01 2014</desc>
<defs>
</defs>
<rect x="0" y="0" width="567" height="496" fill="white"/>
<rect x="74" y="44" width="453" height="402" fill="white"/>
<rect x="74" y="44" width="453" height="402" fill="none" stroke="black"/>
<rect x="74" y="44" width="453" height="402" fill="white"/>
<rect x="74" y="44" width="453" height="402" fill="none" stroke="black"/>
<path d="M138,75v -5" fill="none" stroke="#ff0099"/>
<path d="M138,68v -5" fill="none" stroke="#ff0099"/>
<path d="M134,69h 3" fill="none" stroke="#ff0099"/>
<path d="M139,69h 3" fill="none" stroke="#ff0099"/>
<g stroke="#ff0099" stroke-width="1" fill="#ff0099">
<circle cx=" 138" cy=" 69" r=" 1.5"/>
</g>
<path d="M146,176v -4" fill="none" stroke="#ff0099"/>
<path d="M146,170v -4" fill="none" stroke="#ff0099"/>
<path d="M142,171h 2" fill="none" stroke="#ff0099"/>
<path d="M147,171h 2" fill="none" stroke="#ff0099"/>
<g stroke="#ff0099" stroke-width="1" fill="#ff0099">
<circle cx=" 146" cy=" 171" r=" 1.5"/>
</g>
<path d="M153,267v -4" fill="none" stroke="#ff0099"/>
<path d="M153,261v -4" fill="none" stroke="#ff0099"/>
<path d="M149,262h 3" fill="none" stroke="#ff0099"/>
<path d="M154,262h 3" fill="none" stroke="#ff0099"/>
<g stroke="#ff0099" stroke-width="1" fill="#ff0099">
<circle cx=" 153" cy=" 262" r=" 1.5"/>
</g>
<path d="M161,332v -4" fill="none" stroke="#ff0099"/>
<path d="M161,326v -5" fill="none" stroke="#ff0099"/>
<path d="M157,327h 2" fill="none" stroke="#ff0099"/>
<path d="M162,327h 2" fill="none" stroke="#ff0099"/>
<g stroke="#ff0099" stroke-width="1" fill="#ff0099">
<circle cx=" 161" cy=" 327" r=" 1.5"/>
</g>
<path d="M168,372v -4" fill="none" stroke="#ff0099"/>
<path d="M168,366v -4" fill="none" stroke="#ff0099"/>
<path d="M164,367h 3" fill="none" stroke="#ff0099"/>
<path d="M169,367h 3" fill="none" stroke="#ff0099"/>
<g stroke="#ff0099" stroke-width="1" fill="#ff0099">
<circle cx=" 168" cy=" 367" r=" 1.5"/>
</g>
<path d="M74,446h 453" fill="none" stroke="black"/>
<path d="M74,434v 12" fill="none" stroke="black"/>
<path d="M89,440v 6" fill="none" stroke="black"/>
<path d="M104,440v 6" fill="none" stroke="black"/>
<path d="M119,440v 6" fill="none" stroke="black"/>
<path d="M134,440v 6" fill="none" stroke="black"/>
<path d="M149,434v 12" fill="none" stroke="black"/>
<path d="M164,440v 6" fill="none" stroke="black"/>
<path d="M180,440v 6" fill="none" stroke="black"/>
<path d="M195,440v 6" fill="none" stroke="black"/>
<path d="M210,440v 6" fill="none" stroke="black"/>
<path d="M225,434v 12" fill="none" stroke="black"/>
<path d="M240,440v 6" fill="none" stroke="black"/>
<path d="M255,440v 6" fill="none" stroke="black"/>
<path d="M270,440v 6" fill="none" stroke="black"/>
<path d="M285,440v 6" fill="none" stroke="black"/>
<path d="M300,434v 12" fill="none" stroke="black"/>
<path d="M316,440v 6" fill="none" stroke="black"/>
<path d="M331,440v 6" fill="none" stroke="black"/>
<path d="M346,440v 6" fill="none" stroke="black"/>
<path d="M361,440v 6" fill="none" stroke="black"/>
<path d="M376,434v 12" fill="none" stroke="black"/>
<path d="M391,440v 6" fill="none" stroke="black"/>
<path d="M406,440v 6" fill="none" stroke="black"/>
<path d="M421,440v 6" fill="none" stroke="black"/>
<path d="M437,440v 6" fill="none" stroke="black"/>
<path d="M452,434v 12" fill="none" stroke="black"/>
<path d="M467,440v 6" fill="none" stroke="black"/>
<path d="M482,440v 6" fill="none" stroke="black"/>
<path d="M497,440v 6" fill="none" stroke="black"/>
<path d="M512,440v 6" fill="none" stroke="black"/>
<path d="M527,434v 12" fill="none" stroke="black"/>
<text x="68" y="465" fill="black" font-size="18" font-family="Helvetica" font-weight="bold">
0
</text>
<text x="139" y="465" fill="black" font-size="18" font-family="Helvetica" font-weight="bold">
50
</text>
<text x="209" y="465" fill="black" font-size="18" font-family="Helvetica" font-weight="bold">
100
</text>
<text x="285" y="465" fill="black" font-size="18" font-family="Helvetica" font-weight="bold">
150
</text>
<text x="360" y="465" fill="black" font-size="18" font-family="Helvetica" font-weight="bold">
200
</text>
<text x="436" y="465" fill="black" font-size="18" font-family="Helvetica" font-weight="bold">
250
</text>
<text x="512" y="465" fill="black" font-size="18" font-family="Helvetica" font-weight="bold">
300
</text>
<path d="M74,44h 453" fill="none" stroke="black"/>
<path d="M74,56v -12" fill="none" stroke="black"/>
<path d="M89,50v -6" fill="none" stroke="black"/>
<path d="M104,50v -6" fill="none" stroke="black"/>
<path d="M119,50v -6" fill="none" stroke="black"/>
<path d="M134,50v -6" fill="none" stroke="black"/>
<path d="M149,56v -12" fill="none" stroke="black"/>
<path d="M164,50v -6" fill="none" stroke="black"/>
<path d="M180,50v -6" fill="none" stroke="black"/>
<path d="M195,50v -6" fill="none" stroke="black"/>
<path d="M210,50v -6" fill="none" stroke="black"/>
<path d="M225,56v -12" fill="none" stroke="black"/>
<path d="M240,50v -6" fill="none" stroke="black"/>
<path d="M255,50v -6" fill="none" stroke="black"/>
<path d="M270,50v -6" fill="none" stroke="black"/>
<path d="M285,50v -6" fill="none" stroke="black"/>
<path d="M300,56v -12" fill="none" stroke="black"/>
<path d="M316,50v -6" fill="none" stroke="black"/>
<path d="M331,50v -6" fill="none" stroke="black"/>
<path d="M346,50v -6" fill="none" stroke="black"/>
<path d="M361,50v -6" fill="none" stroke="black"/>
<path d="M376,56v -12" fill="none" stroke="black"/>
<path d="M391,50v -6" fill="none" stroke="black"/>
<path d="M406,50v -6" fill="none" stroke="black"/>
<path d="M421,50v -6" fill="none" stroke="black"/>
<path d="M437,50v -6" fill="none" stroke="black"/>
<path d="M452,56v -12" fill="none" stroke="black"/>
<path d="M467,50v -6" fill="none" stroke="black"/>
<path d="M482,50v -6" fill="none" stroke="black"/>
<path d="M497,50v -6" fill="none" stroke="black"/>
<path d="M512,50v -6" fill="none" stroke="black"/>
<path d="M527,56v -12" fill="none" stroke="black"/>
<path d="M74,446v -402" fill="none" stroke="black"/>
<path d="M87,446h -13" fill="none" stroke="black"/>
<path d="M81,436h -7" fill="none" stroke="black"/>
<path d="M81,426h -7" fill="none" stroke="black"/>
<path d="M81,415h -7" fill="none" stroke="black"/>
<path d="M81,405h -7" fill="none" stroke="black"/>
<path d="M87,395h -13" fill="none" stroke="black"/>
<path d="M81,384h -7" fill="none" stroke="black"/>
<path d="M81,374h -7" fill="none" stroke="black"/>
<path d="M81,363h -7" fill="none" stroke="black"/>
<path d="M81,353h -7" fill="none" stroke="black"/>
<path d="M87,343h -13" fill="none" stroke="black"/>
<path d="M81,332h -7" fill="none" stroke="black"/>
<path d="M81,322h -7" fill="none" stroke="black"/>
<path d="M81,312h -7" fill="none" stroke="black"/>
<path d="M81,301h -7" fill="none" stroke="black"/>
<path d="M87,291h -13" fill="none" stroke="black"/>
<path d="M81,281h -7" fill="none" stroke="black"/>
<path d="M81,270h -7" fill="none" stroke="black"/>
<path d="M81,260h -7" fill="none" stroke="black"/>
<path d="M81,249h -7" fill="none" stroke="black"/>
<path d="M87,239h -13" fill="none" stroke="black"/>
<path d="M81,229h -7" fill="none" stroke="black"/>
<path d="M81,218h -7" fill="none" stroke="black"/>
<path d="M81,208h -7" fill="none" stroke="black"/>
<path d="M81,198h -7" fill="none" stroke="black"/>
<path d="M87,187h -13" fill="none" stroke="black"/>
<path d="M81,177h -7" fill="none" stroke="black"/>
<path d="M81,167h -7" fill="none" stroke="black"/>
<path d="M81,156h -7" fill="none" stroke="black"/>
<path d="M81,146h -7" fill="none" stroke="black"/>
<path d="M87,135h -13" fill="none" stroke="black"/>
<path d="M81,125h -7" fill="none" stroke="black"/>
<path d="M81,115h -7" fill="none" stroke="black"/>
<path d="M81,104h -7" fill="none" stroke="black"/>
<path d="M81,94h -7" fill="none" stroke="black"/>
<path d="M87,84h -13" fill="none" stroke="black"/>
<path d="M87,84h -13" fill="none" stroke="black"/>
<path d="M81,73h -7" fill="none" stroke="black"/>
<path d="M81,63h -7" fill="none" stroke="black"/>
<path d="M81,53h -7" fill="none" stroke="black"/>
<text x="61" y="453" fill="black" font-size="18" font-family="Helvetica" font-weight="bold">
0
</text>
<text x="34" y="401" fill="black" font-size="18" font-family="Helvetica" font-weight="bold">
0.05
</text>
<text x="47" y="349" fill="black" font-size="18" font-family="Helvetica" font-weight="bold">
0.1
</text>
<text x="34" y="297" fill="black" font-size="18" font-family="Helvetica" font-weight="bold">
0.15
</text>
<text x="45" y="246" fill="black" font-size="18" font-family="Helvetica" font-weight="bold">
0.2
</text>
<text x="34" y="194" fill="black" font-size="18" font-family="Helvetica" font-weight="bold">
0.25
</text>
<text x="45" y="142" fill="black" font-size="18" font-family="Helvetica" font-weight="bold">
0.3
</text>
<text x="34" y="90" fill="black" font-size="18" font-family="Helvetica" font-weight="bold">
0.35
</text>
<path d="M350,308v -2" fill="none" stroke="#99ff99" stroke-width="2"/>
<path d="M350,306v -2" fill="none" stroke="#99ff99" stroke-width="2"/>
<g stroke="black" stroke-width="2" fill="none">
<line x1="349" y1="306" x2="350" y2="306"/>
</g>
<path d="M357,326v -2" fill="none" stroke="#99ff99" stroke-width="2"/>
<path d="M357,324v -2" fill="none" stroke="#99ff99" stroke-width="2"/>
<g stroke="black" stroke-width="2" fill="none">
<line x1="356" y1="324" x2="357" y2="324"/>
</g>
<path d="M365,344v -1" fill="none" stroke="#99ff99" stroke-width="2"/>
<path d="M365,343v -2" fill="none" stroke="#99ff99" stroke-width="2"/>
<g stroke="black" stroke-width="2" fill="none">
<line x1="364" y1="343" x2="365" y2="343"/>
</g>
<path d="M372,360" fill="none" stroke="#99ff99" stroke-width="2"/>
<path d="M372,360v -1" fill="none" stroke="#99ff99" stroke-width="2"/>
<g stroke="black" stroke-width="2" fill="none">
<line x1="371" y1="360" x2="372" y2="360"/>
</g>
<path d="M380,370v -2" fill="none" stroke="#99ff99" stroke-width="2"/>
<path d="M380,368v -1" fill="none" stroke="#99ff99" stroke-width="2"/>
<g stroke="black" stroke-width="2" fill="none">
<line x1="379" y1="368" x2="380" y2="368"/>
</g>
<path d="M387,380v -1" fill="none" stroke="#99ff99" stroke-width="2"/>
<path d="M387,379v -1" fill="none" stroke="#99ff99" stroke-width="2"/>
<g stroke="black" stroke-width="2" fill="none">
<line x1="386" y1="379" x2="387" y2="379"/>
</g>
<path d="M395,389v -1" fill="none" stroke="#99ff99" stroke-width="2"/>
<path d="M395,388v -1" fill="none" stroke="#99ff99" stroke-width="2"/>
<g stroke="black" stroke-width="2" fill="none">
<line x1="394" y1="388" x2="395" y2="388"/>
</g>
<path d="M403,396v -1" fill="none" stroke="#99ff99" stroke-width="2"/>
<path d="M403,395v -1" fill="none" stroke="#99ff99" stroke-width="2"/>
<g stroke="black" stroke-width="2" fill="none">
<line x1="402" y1="395" x2="403" y2="395"/>
</g>
<path d="M410,401v -1" fill="none" stroke="#99ff99" stroke-width="2"/>
<path d="M410,400v -2" fill="none" stroke="#99ff99" stroke-width="2"/>
<g stroke="black" stroke-width="2" fill="none">
<line x1="409" y1="400" x2="410" y2="400"/>
</g>
<path d="M418,409v -1" fill="none" stroke="#99ff99" stroke-width="2"/>
<path d="M418,408" fill="none" stroke="#99ff99" stroke-width="2"/>
<g stroke="black" stroke-width="2" fill="none">
<line x1="417" y1="408" x2="418" y2="408"/>
</g>
<path d="M425,412v -2" fill="none" stroke="#99ff99" stroke-width="2"/>
<path d="M425,410v -1" fill="none" stroke="#99ff99" stroke-width="2"/>
<g stroke="black" stroke-width="2" fill="none">
<line x1="424" y1="410" x2="425" y2="410"/>
</g>
<path d="M433,417v -1" fill="none" stroke="#99ff99" stroke-width="2"/>
<path d="M433,416" fill="none" stroke="#99ff99" stroke-width="2"/>
<g stroke="black" stroke-width="2" fill="none">
<line x1="432" y1="416" x2="433" y2="416"/>
</g>
<path d="M440,421" fill="none" stroke="#99ff99" stroke-width="2"/>
<path d="M440,421v -1" fill="none" stroke="#99ff99" stroke-width="2"/>
<g stroke="black" stroke-width="2" fill="none">
<line x1="439" y1="421" x2="440" y2="421"/>
</g>
<path d="M448,423v -1" fill="none" stroke="#99ff99" stroke-width="2"/>
<path d="M448,422v -1" fill="none" stroke="#99ff99" stroke-width="2"/>
<g stroke="black" stroke-width="2" fill="none">
<line x1="447" y1="422" x2="448" y2="422"/>
</g>
<path d="M455,426" fill="none" stroke="#99ff99" stroke-width="2"/>
<path d="M455,426v -1" fill="none" stroke="#99ff99" stroke-width="2"/>
<g stroke="black" stroke-width="2" fill="none">
<line x1="454" y1="426" x2="455" y2="426"/>
</g>
<path d="M463,428" fill="none" stroke="#99ff99" stroke-width="2"/>
<path d="M463,428" fill="none" stroke="#99ff99" stroke-width="2"/>
<g stroke="black" stroke-width="2" fill="none">
<line x1="462" y1="428" x2="463" y2="428"/>
</g>
<path d="M471,430v -1" fill="none" stroke="#99ff99" stroke-width="2"/>
<path d="M471,429v -1" fill="none" stroke="#99ff99" stroke-width="2"/>
<g stroke="black" stroke-width="2" fill="none">
<line x1="470" y1="429" x2="471" y2="429"/>
</g>
<path d="M478,433v -1" fill="none" stroke="#99ff99" stroke-width="2"/>
<path d="M478,432" fill="none" stroke="#99ff99" stroke-width="2"/>
<g stroke="black" stroke-width="2" fill="none">
<line x1="477" y1="432" x2="478" y2="432"/>
</g>
<path d="M486,434" fill="none" stroke="#99ff99" stroke-width="2"/>
<path d="M486,434" fill="none" stroke="#99ff99" stroke-width="2"/>
<g stroke="black" stroke-width="2" fill="none">
<line x1="485" y1="434" x2="486" y2="434"/>
</g>
<path d="M493,435" fill="none" stroke="#99ff99" stroke-width="2"/>
<path d="M493,435" fill="none" stroke="#99ff99" stroke-width="2"/>
<g stroke="black" stroke-width="2" fill="none">
<line x1="492" y1="435" x2="493" y2="435"/>
</g>
<path d="M501,437" fill="none" stroke="#99ff99" stroke-width="2"/>
<path d="M501,437v -1" fill="none" stroke="#99ff99" stroke-width="2"/>
<g stroke="black" stroke-width="2" fill="none">
<line x1="500" y1="437" x2="501" y2="437"/>
</g>
<path d="M508,438" fill="none" stroke="#99ff99" stroke-width="2"/>
<path d="M508,438" fill="none" stroke="#99ff99" stroke-width="2"/>
<g stroke="black" stroke-width="2" fill="none">
<line x1="507" y1="438" x2="508" y2="438"/>
</g>
<path d="M516,439v -1" fill="none" stroke="#99ff99" stroke-width="2"/>
<path d="M516,438" fill="none" stroke="#99ff99" stroke-width="2"/>
<g stroke="black" stroke-width="2" fill="none">
<line x1="515" y1="438" x2="516" y2="438"/>
</g>
<path d="M523,440" fill="none" stroke="#99ff99" stroke-width="2"/>
<path d="M523,440" fill="none" stroke="#99ff99" stroke-width="2"/>
<g stroke="black" stroke-width="2" fill="none">
<line x1="522" y1="440" x2="523" y2="440"/>
</g>
<path d="M74,446h 272v -140h 7v 18h 8v 19h 8v 17h 7v 8h 8v 11h 7v 9h 8v 7h 7v 5h 8v 8h 7v 2h 8v 6h 8v 5h 7v 1h 8v 4h 7v 2h 8v 1h 7v 3h 8v 2h 7v 1h 8v 2h 8v 1h 15v 2h 7v 6z" fill="#99ff99"/>
<path d="M74,446h 272v -140h 7v 18h 8v 19h 8v 17h 7v 8h 8v 11h 7v 9h 8v 7h 7v 5h 8v 8h 7v 2h 8v 6h 8v 5h 7v 1h 8v 4h 7v 2h 8v 1h 7v 3h 8v 2h 7v 1h 8v 2h 8v 1h 15v 2h 7" fill="none" stroke="#99ff99" stroke-width="2"/>
<path d="M138,75v -5" fill="none" stroke="#ff0099"/>
<path d="M138,68v -5" fill="none" stroke="#ff0099"/>
<path d="M134,69h 3" fill="none" stroke="#ff0099"/>
<path d="M139,69h 3" fill="none" stroke="#ff0099"/>
<g stroke="#ff0099" stroke-width="1" fill="#ff0099">
<circle cx=" 138" cy=" 69" r=" 1.5"/>
</g>
<path d="M146,176v -4" fill="none" stroke="#ff0099"/>
<path d="M146,170v -4" fill="none" stroke="#ff0099"/>
<path d="M142,171h 2" fill="none" stroke="#ff0099"/>
<path d="M147,171h 2" fill="none" stroke="#ff0099"/>
<g stroke="#ff0099" stroke-width="1" fill="#ff0099">
<circle cx=" 146" cy=" 171" r=" 1.5"/>
</g>
<path d="M153,267v -4" fill="none" stroke="#ff0099"/>
<path d="M153,261v -4" fill="none" stroke="#ff0099"/>
<path d="M149,262h 3" fill="none" stroke="#ff0099"/>
<path d="M154,262h 3" fill="none" stroke="#ff0099"/>
<g stroke="#ff0099" stroke-width="1" fill="#ff0099">
<circle cx=" 153" cy=" 262" r=" 1.5"/>
</g>
<path d="M161,332v -4" fill="none" stroke="#ff0099"/>
<path d="M161,326v -5" fill="none" stroke="#ff0099"/>
<path d="M157,327h 2" fill="none" stroke="#ff0099"/>
<path d="M162,327h 2" fill="none" stroke="#ff0099"/>
<g stroke="#ff0099" stroke-width="1" fill="#ff0099">
<circle cx=" 161" cy=" 327" r=" 1.5"/>
</g>
<path d="M168,372v -4" fill="none" stroke="#ff0099"/>
<path d="M168,366v -4" fill="none" stroke="#ff0099"/>
<path d="M164,367h 3" fill="none" stroke="#ff0099"/>
<path d="M169,367h 3" fill="none" stroke="#ff0099"/>
<g stroke="#ff0099" stroke-width="1" fill="#ff0099">
<circle cx=" 168" cy=" 367" r=" 1.5"/>
</g>
<rect x="357" y="59" width="142" height="99" fill="white"/>
<text x="360" y="82" fill="black" font-size="17" font-family="Helvetica" font-weight="bold">
EE
</text>
<text x="457" y="115" fill="black" font-size="17" font-family="Helvetica" font-weight="bold">
 ee
</text>
<text x="440" y="115" fill="black" font-size="17" font-family="Times">
&#8594;
</text>
<text x="392" y="115" fill="black" font-size="17" font-family="Helvetica" font-weight="bold">
MC Z 
</text>
<path d="M362,109h 25" fill="none" stroke="#ff0099"/>
<g stroke="#ff0099" stroke-width="1" fill="#ff0099">
<circle cx=" 375" cy=" 109" r=" 1.5"/>
</g>
<text x="455" y="147" fill="black" font-size="17" font-family="Helvetica" font-weight="bold">
 + jet
</text>
<text x="447" y="147" fill="black" font-size="17" font-family="Times">
&#0947;
</text>
<text x="392" y="147" fill="black" font-size="17" font-family="Helvetica" font-weight="bold">
signal 
</text>
<path d="M362,154h 25v -24h -25z" fill="#99ff99"/>
<path d="M362,130h 25" fill="none" stroke="#99ff99" stroke-width="2"/>
<path d="M362,154h 25" fill="none" stroke="#99ff99" stroke-width="2"/>
<path d="M387,154v -24" fill="none" stroke="#99ff99" stroke-width="2"/>
<path d="M362,154v -24" fill="none" stroke="#99ff99" stroke-width="2"/>
<text x="300" y="34" fill="black" font-size="17" font-family="Helvetica" font-weight="bold">
=8 TeV
</text>
<text x="291" y="34" fill="black" font-size="17" font-family="Helvetica" font-weight="bold">
s
</text>
<path d="M285,25l 2, 10" fill="none" stroke="black" stroke-width="2"/>
<path d="M287,35l 2, -14" fill="none" stroke="black"/>
<path d="M289,21h 11" fill="none" stroke="black"/>
<text x="142" y="34" fill="black" font-size="17" font-family="Helvetica" font-weight="bold">
CMS Preliminary 
</text></svg>
