<?xml version="1.0" standalone="no"?>
<svg width="567" height="496" viewBox="0 0 567 496" xmlns="http://www.w3.org/2000/svg">
<title>
plots_mcZee_mcGJet//hlt150//r9PhotEB.svg
</title>
<desc>
Creator: ROOT Version 5.32/00
CreationDate: Sat Nov 29 19:43:03 2014</desc>
<defs>
</defs>
<rect x="0" y="0" width="567" height="496" fill="white"/>
<rect x="74" y="44" width="453" height="402" fill="white"/>
<rect x="74" y="44" width="453" height="402" fill="none" stroke="black"/>
<rect x="74" y="44" width="453" height="402" fill="white"/>
<rect x="74" y="44" width="453" height="402" fill="none" stroke="black"/>
<path d="M217,446h 3" fill="none" stroke="#ff0099"/>
<path d="M222,446h 3" fill="none" stroke="#ff0099"/>
<g stroke="#ff0099" stroke-width="1" fill="#ff0099">
<circle cx=" 221" cy=" 446" r=" 1.5"/>
</g>
<path d="M225,446h 3" fill="none" stroke="#ff0099"/>
<path d="M230,446h 2" fill="none" stroke="#ff0099"/>
<g stroke="#ff0099" stroke-width="1" fill="#ff0099">
<circle cx=" 229" cy=" 446" r=" 1.5"/>
</g>
<path d="M232,446h 3" fill="none" stroke="#ff0099"/>
<path d="M237,446h 3" fill="none" stroke="#ff0099"/>
<g stroke="#ff0099" stroke-width="1" fill="#ff0099">
<circle cx=" 236" cy=" 446" r=" 1.5"/>
</g>
<path d="M240,446h 3" fill="none" stroke="#ff0099"/>
<path d="M245,446h 3" fill="none" stroke="#ff0099"/>
<g stroke="#ff0099" stroke-width="1" fill="#ff0099">
<circle cx=" 244" cy=" 446" r=" 1.5"/>
</g>
<path d="M248,446h 2" fill="none" stroke="#ff0099"/>
<path d="M252,446h 3" fill="none" stroke="#ff0099"/>
<g stroke="#ff0099" stroke-width="1" fill="#ff0099">
<circle cx=" 251" cy=" 446" r=" 1.5"/>
</g>
<path d="M255,446h 3" fill="none" stroke="#ff0099"/>
<path d="M260,446h 3" fill="none" stroke="#ff0099"/>
<g stroke="#ff0099" stroke-width="1" fill="#ff0099">
<circle cx=" 259" cy=" 446" r=" 1.5"/>
</g>
<path d="M263,446h 2" fill="none" stroke="#ff0099"/>
<path d="M268,446h 2" fill="none" stroke="#ff0099"/>
<g stroke="#ff0099" stroke-width="1" fill="#ff0099">
<circle cx=" 266" cy=" 446" r=" 1.5"/>
</g>
<path d="M270,445h 3" fill="none" stroke="#ff0099"/>
<path d="M275,445h 3" fill="none" stroke="#ff0099"/>
<g stroke="#ff0099" stroke-width="1" fill="#ff0099">
<circle cx=" 274" cy=" 445" r=" 1.5"/>
</g>
<path d="M278,445h 2" fill="none" stroke="#ff0099"/>
<path d="M283,445h 2" fill="none" stroke="#ff0099"/>
<g stroke="#ff0099" stroke-width="1" fill="#ff0099">
<circle cx=" 282" cy=" 445" r=" 1.5"/>
</g>
<path d="M285,445h 3" fill="none" stroke="#ff0099"/>
<path d="M290,445h 3" fill="none" stroke="#ff0099"/>
<g stroke="#ff0099" stroke-width="1" fill="#ff0099">
<circle cx=" 289" cy=" 445" r=" 1.5"/>
</g>
<path d="M293,443h 3" fill="none" stroke="#ff0099"/>
<path d="M298,443h 2" fill="none" stroke="#ff0099"/>
<g stroke="#ff0099" stroke-width="1" fill="#ff0099">
<circle cx=" 297" cy=" 443" r=" 1.5"/>
</g>
<path d="M300,444h 3" fill="none" stroke="#ff0099"/>
<path d="M305,444h 3" fill="none" stroke="#ff0099"/>
<g stroke="#ff0099" stroke-width="1" fill="#ff0099">
<circle cx=" 304" cy=" 444" r=" 1.5"/>
</g>
<path d="M308,444h 3" fill="none" stroke="#ff0099"/>
<path d="M313,444h 3" fill="none" stroke="#ff0099"/>
<g stroke="#ff0099" stroke-width="1" fill="#ff0099">
<circle cx=" 312" cy=" 444" r=" 1.5"/>
</g>
<path d="M316,442h 2" fill="none" stroke="#ff0099"/>
<path d="M321,442h 2" fill="none" stroke="#ff0099"/>
<g stroke="#ff0099" stroke-width="1" fill="#ff0099">
<circle cx=" 319" cy=" 442" r=" 1.5"/>
</g>
<path d="M323,442h 3" fill="none" stroke="#ff0099"/>
<path d="M328,442h 3" fill="none" stroke="#ff0099"/>
<g stroke="#ff0099" stroke-width="1" fill="#ff0099">
<circle cx=" 327" cy=" 442" r=" 1.5"/>
</g>
<path d="M331,442h 2" fill="none" stroke="#ff0099"/>
<path d="M336,442h 2" fill="none" stroke="#ff0099"/>
<g stroke="#ff0099" stroke-width="1" fill="#ff0099">
<circle cx=" 334" cy=" 442" r=" 1.5"/>
</g>
<path d="M338,440h 3" fill="none" stroke="#ff0099"/>
<path d="M343,440h 3" fill="none" stroke="#ff0099"/>
<g stroke="#ff0099" stroke-width="1" fill="#ff0099">
<circle cx=" 342" cy=" 440" r=" 1.5"/>
</g>
<path d="M346,440h 2" fill="none" stroke="#ff0099"/>
<path d="M351,440h 2" fill="none" stroke="#ff0099"/>
<g stroke="#ff0099" stroke-width="1" fill="#ff0099">
<circle cx=" 350" cy=" 440" r=" 1.5"/>
</g>
<path d="M353,440h 3" fill="none" stroke="#ff0099"/>
<path d="M358,440h 3" fill="none" stroke="#ff0099"/>
<g stroke="#ff0099" stroke-width="1" fill="#ff0099">
<circle cx=" 357" cy=" 440" r=" 1.5"/>
</g>
<path d="M361,439h 3" fill="none" stroke="#ff0099"/>
<path d="M366,439h 3" fill="none" stroke="#ff0099"/>
<g stroke="#ff0099" stroke-width="1" fill="#ff0099">
<circle cx=" 365" cy=" 439" r=" 1.5"/>
</g>
<path d="M369,438h 2" fill="none" stroke="#ff0099"/>
<path d="M373,438h 3" fill="none" stroke="#ff0099"/>
<g stroke="#ff0099" stroke-width="1" fill="#ff0099">
<circle cx=" 372" cy=" 438" r=" 1.5"/>
</g>
<path d="M376,438h 3" fill="none" stroke="#ff0099"/>
<path d="M381,438h 3" fill="none" stroke="#ff0099"/>
<g stroke="#ff0099" stroke-width="1" fill="#ff0099">
<circle cx=" 380" cy=" 438" r=" 1.5"/>
</g>
<path d="M384,438h 2" fill="none" stroke="#ff0099"/>
<path d="M389,438h 2" fill="none" stroke="#ff0099"/>
<g stroke="#ff0099" stroke-width="1" fill="#ff0099">
<circle cx=" 387" cy=" 438" r=" 1.5"/>
</g>
<path d="M391,439h 3" fill="none" stroke="#ff0099"/>
<path d="M396,439h 3" fill="none" stroke="#ff0099"/>
<g stroke="#ff0099" stroke-width="1" fill="#ff0099">
<circle cx=" 395" cy=" 439" r=" 1.5"/>
</g>
<path d="M399,437h 2" fill="none" stroke="#ff0099"/>
<path d="M404,437h 2" fill="none" stroke="#ff0099"/>
<g stroke="#ff0099" stroke-width="1" fill="#ff0099">
<circle cx=" 403" cy=" 437" r=" 1.5"/>
</g>
<path d="M406,437h 3" fill="none" stroke="#ff0099"/>
<path d="M411,437h 3" fill="none" stroke="#ff0099"/>
<g stroke="#ff0099" stroke-width="1" fill="#ff0099">
<circle cx=" 410" cy=" 437" r=" 1.5"/>
</g>
<path d="M414,437h 2" fill="none" stroke="#ff0099"/>
<path d="M419,437h 2" fill="none" stroke="#ff0099"/>
<g stroke="#ff0099" stroke-width="1" fill="#ff0099">
<circle cx=" 418" cy=" 437" r=" 1.5"/>
</g>
<path d="M421,435h 3" fill="none" stroke="#ff0099"/>
<path d="M426,435h 3" fill="none" stroke="#ff0099"/>
<g stroke="#ff0099" stroke-width="1" fill="#ff0099">
<circle cx=" 425" cy=" 435" r=" 1.5"/>
</g>
<path d="M429,436h 3" fill="none" stroke="#ff0099"/>
<path d="M434,436h 3" fill="none" stroke="#ff0099"/>
<g stroke="#ff0099" stroke-width="1" fill="#ff0099">
<circle cx=" 433" cy=" 436" r=" 1.5"/>
</g>
<path d="M437,435h 2" fill="none" stroke="#ff0099"/>
<path d="M441,435h 3" fill="none" stroke="#ff0099"/>
<g stroke="#ff0099" stroke-width="1" fill="#ff0099">
<circle cx=" 440" cy=" 435" r=" 1.5"/>
</g>
<path d="M444,436h 3" fill="none" stroke="#ff0099"/>
<path d="M449,436h 3" fill="none" stroke="#ff0099"/>
<g stroke="#ff0099" stroke-width="1" fill="#ff0099">
<circle cx=" 448" cy=" 436" r=" 1.5"/>
</g>
<path d="M452,435h 2" fill="none" stroke="#ff0099"/>
<path d="M457,435h 2" fill="none" stroke="#ff0099"/>
<g stroke="#ff0099" stroke-width="1" fill="#ff0099">
<circle cx=" 455" cy=" 435" r=" 1.5"/>
</g>
<path d="M459,434h 3" fill="none" stroke="#ff0099"/>
<path d="M464,434h 3" fill="none" stroke="#ff0099"/>
<g stroke="#ff0099" stroke-width="1" fill="#ff0099">
<circle cx=" 463" cy=" 434" r=" 1.5"/>
</g>
<path d="M467,435h 2" fill="none" stroke="#ff0099"/>
<path d="M472,435h 2" fill="none" stroke="#ff0099"/>
<g stroke="#ff0099" stroke-width="1" fill="#ff0099">
<circle cx=" 471" cy=" 435" r=" 1.5"/>
</g>
<path d="M474,434h 3" fill="none" stroke="#ff0099"/>
<path d="M479,434h 3" fill="none" stroke="#ff0099"/>
<g stroke="#ff0099" stroke-width="1" fill="#ff0099">
<circle cx=" 478" cy=" 434" r=" 1.5"/>
</g>
<path d="M482,431h 3" fill="none" stroke="#ff0099"/>
<path d="M487,431h 2" fill="none" stroke="#ff0099"/>
<g stroke="#ff0099" stroke-width="1" fill="#ff0099">
<circle cx=" 486" cy=" 431" r=" 1.5"/>
</g>
<path d="M489,408h 3" fill="none" stroke="#ff0099"/>
<path d="M494,408h 3" fill="none" stroke="#ff0099"/>
<g stroke="#ff0099" stroke-width="1" fill="#ff0099">
<circle cx=" 493" cy=" 408" r=" 1.5"/>
</g>
<path d="M501,273" fill="none" stroke="#ff0099"/>
<path d="M501,270" fill="none" stroke="#ff0099"/>
<path d="M497,271h 3" fill="none" stroke="#ff0099"/>
<path d="M502,271h 3" fill="none" stroke="#ff0099"/>
<g stroke="#ff0099" stroke-width="1" fill="#ff0099">
<circle cx=" 501" cy=" 271" r=" 1.5"/>
</g>
<path d="M508,70v -2" fill="none" stroke="#ff0099"/>
<path d="M508,66v -3" fill="none" stroke="#ff0099"/>
<path d="M505,67h 2" fill="none" stroke="#ff0099"/>
<path d="M509,67h 3" fill="none" stroke="#ff0099"/>
<g stroke="#ff0099" stroke-width="1" fill="#ff0099">
<circle cx=" 508" cy=" 67" r=" 1.5"/>
</g>
<path d="M512,417h 3" fill="none" stroke="#ff0099"/>
<path d="M517,417h 3" fill="none" stroke="#ff0099"/>
<g stroke="#ff0099" stroke-width="1" fill="#ff0099">
<circle cx=" 516" cy=" 417" r=" 1.5"/>
</g>
<path d="M520,446h 2" fill="none" stroke="#ff0099"/>
<path d="M525,446h 2" fill="none" stroke="#ff0099"/>
<g stroke="#ff0099" stroke-width="1" fill="#ff0099">
<circle cx=" 523" cy=" 446" r=" 1.5"/>
</g>
<path d="M74,446h 453" fill="none" stroke="black"/>
<path d="M74,434v 12" fill="none" stroke="black"/>
<path d="M83,440v 6" fill="none" stroke="black"/>
<path d="M92,440v 6" fill="none" stroke="black"/>
<path d="M101,440v 6" fill="none" stroke="black"/>
<path d="M110,440v 6" fill="none" stroke="black"/>
<path d="M119,434v 12" fill="none" stroke="black"/>
<path d="M128,440v 6" fill="none" stroke="black"/>
<path d="M137,440v 6" fill="none" stroke="black"/>
<path d="M146,440v 6" fill="none" stroke="black"/>
<path d="M155,440v 6" fill="none" stroke="black"/>
<path d="M164,434v 12" fill="none" stroke="black"/>
<path d="M173,440v 6" fill="none" stroke="black"/>
<path d="M183,440v 6" fill="none" stroke="black"/>
<path d="M192,440v 6" fill="none" stroke="black"/>
<path d="M201,440v 6" fill="none" stroke="black"/>
<path d="M210,434v 12" fill="none" stroke="black"/>
<path d="M219,440v 6" fill="none" stroke="black"/>
<path d="M228,440v 6" fill="none" stroke="black"/>
<path d="M237,440v 6" fill="none" stroke="black"/>
<path d="M246,440v 6" fill="none" stroke="black"/>
<path d="M255,434v 12" fill="none" stroke="black"/>
<path d="M264,440v 6" fill="none" stroke="black"/>
<path d="M273,440v 6" fill="none" stroke="black"/>
<path d="M282,440v 6" fill="none" stroke="black"/>
<path d="M291,440v 6" fill="none" stroke="black"/>
<path d="M300,434v 12" fill="none" stroke="black"/>
<path d="M310,440v 6" fill="none" stroke="black"/>
<path d="M319,440v 6" fill="none" stroke="black"/>
<path d="M328,440v 6" fill="none" stroke="black"/>
<path d="M337,440v 6" fill="none" stroke="black"/>
<path d="M346,434v 12" fill="none" stroke="black"/>
<path d="M355,440v 6" fill="none" stroke="black"/>
<path d="M364,440v 6" fill="none" stroke="black"/>
<path d="M373,440v 6" fill="none" stroke="black"/>
<path d="M382,440v 6" fill="none" stroke="black"/>
<path d="M391,434v 12" fill="none" stroke="black"/>
<path d="M400,440v 6" fill="none" stroke="black"/>
<path d="M409,440v 6" fill="none" stroke="black"/>
<path d="M418,440v 6" fill="none" stroke="black"/>
<path d="M427,440v 6" fill="none" stroke="black"/>
<path d="M437,434v 12" fill="none" stroke="black"/>
<path d="M446,440v 6" fill="none" stroke="black"/>
<path d="M455,440v 6" fill="none" stroke="black"/>
<path d="M464,440v 6" fill="none" stroke="black"/>
<path d="M473,440v 6" fill="none" stroke="black"/>
<path d="M482,434v 12" fill="none" stroke="black"/>
<path d="M491,440v 6" fill="none" stroke="black"/>
<path d="M500,440v 6" fill="none" stroke="black"/>
<path d="M509,440v 6" fill="none" stroke="black"/>
<path d="M518,440v 6" fill="none" stroke="black"/>
<path d="M527,434v 12" fill="none" stroke="black"/>
<text x="68" y="465" fill="black" font-size="18" font-family="Helvetica" font-weight="bold">
0
</text>
<text x="107" y="465" fill="black" font-size="18" font-family="Helvetica" font-weight="bold">
0.1
</text>
<text x="151" y="465" fill="black" font-size="18" font-family="Helvetica" font-weight="bold">
0.2
</text>
<text x="196" y="465" fill="black" font-size="18" font-family="Helvetica" font-weight="bold">
0.3
</text>
<text x="242" y="465" fill="black" font-size="18" font-family="Helvetica" font-weight="bold">
0.4
</text>
<text x="287" y="465" fill="black" font-size="18" font-family="Helvetica" font-weight="bold">
0.5
</text>
<text x="332" y="465" fill="black" font-size="18" font-family="Helvetica" font-weight="bold">
0.6
</text>
<text x="378" y="465" fill="black" font-size="18" font-family="Helvetica" font-weight="bold">
0.7
</text>
<text x="423" y="465" fill="black" font-size="18" font-family="Helvetica" font-weight="bold">
0.8
</text>
<text x="468" y="465" fill="black" font-size="18" font-family="Helvetica" font-weight="bold">
0.9
</text>
<text x="523" y="465" fill="black" font-size="18" font-family="Helvetica" font-weight="bold">
1
</text>
<path d="M74,44h 453" fill="none" stroke="black"/>
<path d="M74,56v -12" fill="none" stroke="black"/>
<path d="M83,50v -6" fill="none" stroke="black"/>
<path d="M92,50v -6" fill="none" stroke="black"/>
<path d="M101,50v -6" fill="none" stroke="black"/>
<path d="M110,50v -6" fill="none" stroke="black"/>
<path d="M119,56v -12" fill="none" stroke="black"/>
<path d="M128,50v -6" fill="none" stroke="black"/>
<path d="M137,50v -6" fill="none" stroke="black"/>
<path d="M146,50v -6" fill="none" stroke="black"/>
<path d="M155,50v -6" fill="none" stroke="black"/>
<path d="M164,56v -12" fill="none" stroke="black"/>
<path d="M173,50v -6" fill="none" stroke="black"/>
<path d="M183,50v -6" fill="none" stroke="black"/>
<path d="M192,50v -6" fill="none" stroke="black"/>
<path d="M201,50v -6" fill="none" stroke="black"/>
<path d="M210,56v -12" fill="none" stroke="black"/>
<path d="M219,50v -6" fill="none" stroke="black"/>
<path d="M228,50v -6" fill="none" stroke="black"/>
<path d="M237,50v -6" fill="none" stroke="black"/>
<path d="M246,50v -6" fill="none" stroke="black"/>
<path d="M255,56v -12" fill="none" stroke="black"/>
<path d="M264,50v -6" fill="none" stroke="black"/>
<path d="M273,50v -6" fill="none" stroke="black"/>
<path d="M282,50v -6" fill="none" stroke="black"/>
<path d="M291,50v -6" fill="none" stroke="black"/>
<path d="M300,56v -12" fill="none" stroke="black"/>
<path d="M310,50v -6" fill="none" stroke="black"/>
<path d="M319,50v -6" fill="none" stroke="black"/>
<path d="M328,50v -6" fill="none" stroke="black"/>
<path d="M337,50v -6" fill="none" stroke="black"/>
<path d="M346,56v -12" fill="none" stroke="black"/>
<path d="M355,50v -6" fill="none" stroke="black"/>
<path d="M364,50v -6" fill="none" stroke="black"/>
<path d="M373,50v -6" fill="none" stroke="black"/>
<path d="M382,50v -6" fill="none" stroke="black"/>
<path d="M391,56v -12" fill="none" stroke="black"/>
<path d="M400,50v -6" fill="none" stroke="black"/>
<path d="M409,50v -6" fill="none" stroke="black"/>
<path d="M418,50v -6" fill="none" stroke="black"/>
<path d="M427,50v -6" fill="none" stroke="black"/>
<path d="M437,56v -12" fill="none" stroke="black"/>
<path d="M446,50v -6" fill="none" stroke="black"/>
<path d="M455,50v -6" fill="none" stroke="black"/>
<path d="M464,50v -6" fill="none" stroke="black"/>
<path d="M473,50v -6" fill="none" stroke="black"/>
<path d="M482,56v -12" fill="none" stroke="black"/>
<path d="M491,50v -6" fill="none" stroke="black"/>
<path d="M500,50v -6" fill="none" stroke="black"/>
<path d="M509,50v -6" fill="none" stroke="black"/>
<path d="M518,50v -6" fill="none" stroke="black"/>
<path d="M527,56v -12" fill="none" stroke="black"/>
<path d="M74,446v -402" fill="none" stroke="black"/>
<path d="M87,446h -13" fill="none" stroke="black"/>
<path d="M81,438h -7" fill="none" stroke="black"/>
<path d="M81,430h -7" fill="none" stroke="black"/>
<path d="M81,421h -7" fill="none" stroke="black"/>
<path d="M81,413h -7" fill="none" stroke="black"/>
<path d="M87,404h -13" fill="none" stroke="black"/>
<path d="M81,396h -7" fill="none" stroke="black"/>
<path d="M81,387h -7" fill="none" stroke="black"/>
<path d="M81,379h -7" fill="none" stroke="black"/>
<path d="M81,371h -7" fill="none" stroke="black"/>
<path d="M87,362h -13" fill="none" stroke="black"/>
<path d="M81,354h -7" fill="none" stroke="black"/>
<path d="M81,345h -7" fill="none" stroke="black"/>
<path d="M81,337h -7" fill="none" stroke="black"/>
<path d="M81,328h -7" fill="none" stroke="black"/>
<path d="M87,320h -13" fill="none" stroke="black"/>
<path d="M81,312h -7" fill="none" stroke="black"/>
<path d="M81,303h -7" fill="none" stroke="black"/>
<path d="M81,295h -7" fill="none" stroke="black"/>
<path d="M81,286h -7" fill="none" stroke="black"/>
<path d="M87,278h -13" fill="none" stroke="black"/>
<path d="M81,269h -7" fill="none" stroke="black"/>
<path d="M81,261h -7" fill="none" stroke="black"/>
<path d="M81,253h -7" fill="none" stroke="black"/>
<path d="M81,244h -7" fill="none" stroke="black"/>
<path d="M87,236h -13" fill="none" stroke="black"/>
<path d="M81,227h -7" fill="none" stroke="black"/>
<path d="M81,219h -7" fill="none" stroke="black"/>
<path d="M81,211h -7" fill="none" stroke="black"/>
<path d="M81,202h -7" fill="none" stroke="black"/>
<path d="M87,194h -13" fill="none" stroke="black"/>
<path d="M81,185h -7" fill="none" stroke="black"/>
<path d="M81,177h -7" fill="none" stroke="black"/>
<path d="M81,168h -7" fill="none" stroke="black"/>
<path d="M81,160h -7" fill="none" stroke="black"/>
<path d="M87,152h -13" fill="none" stroke="black"/>
<path d="M81,143h -7" fill="none" stroke="black"/>
<path d="M81,135h -7" fill="none" stroke="black"/>
<path d="M81,126h -7" fill="none" stroke="black"/>
<path d="M81,118h -7" fill="none" stroke="black"/>
<path d="M87,109h -13" fill="none" stroke="black"/>
<path d="M81,101h -7" fill="none" stroke="black"/>
<path d="M81,93h -7" fill="none" stroke="black"/>
<path d="M81,84h -7" fill="none" stroke="black"/>
<path d="M81,76h -7" fill="none" stroke="black"/>
<path d="M87,67h -13" fill="none" stroke="black"/>
<path d="M87,67h -13" fill="none" stroke="black"/>
<path d="M81,59h -7" fill="none" stroke="black"/>
<path d="M81,50h -7" fill="none" stroke="black"/>
<text x="61" y="453" fill="black" font-size="18" font-family="Helvetica" font-weight="bold">
0
</text>
<text x="34" y="411" fill="black" font-size="18" font-family="Helvetica" font-weight="bold">
0.05
</text>
<text x="47" y="368" fill="black" font-size="18" font-family="Helvetica" font-weight="bold">
0.1
</text>
<text x="34" y="326" fill="black" font-size="18" font-family="Helvetica" font-weight="bold">
0.15
</text>
<text x="45" y="284" fill="black" font-size="18" font-family="Helvetica" font-weight="bold">
0.2
</text>
<text x="34" y="242" fill="black" font-size="18" font-family="Helvetica" font-weight="bold">
0.25
</text>
<text x="45" y="200" fill="black" font-size="18" font-family="Helvetica" font-weight="bold">
0.3
</text>
<text x="34" y="158" fill="black" font-size="18" font-family="Helvetica" font-weight="bold">
0.35
</text>
<text x="44" y="116" fill="black" font-size="18" font-family="Helvetica" font-weight="bold">
0.4
</text>
<text x="34" y="74" fill="black" font-size="18" font-family="Helvetica" font-weight="bold">
0.45
</text>
<path d="M266,446" fill="none" stroke="#99ff99" stroke-width="2"/>
<path d="M266,446" fill="none" stroke="#99ff99" stroke-width="2"/>
<g stroke="black" stroke-width="2" fill="none">
<line x1="265" y1="446" x2="266" y2="446"/>
</g>
<path d="M274,446" fill="none" stroke="#99ff99" stroke-width="2"/>
<path d="M274,446" fill="none" stroke="#99ff99" stroke-width="2"/>
<g stroke="black" stroke-width="2" fill="none">
<line x1="273" y1="446" x2="274" y2="446"/>
</g>
<path d="M304,446" fill="none" stroke="#99ff99" stroke-width="2"/>
<path d="M304,446" fill="none" stroke="#99ff99" stroke-width="2"/>
<g stroke="black" stroke-width="2" fill="none">
<line x1="303" y1="446" x2="304" y2="446"/>
</g>
<path d="M312,446" fill="none" stroke="#99ff99" stroke-width="2"/>
<path d="M312,446" fill="none" stroke="#99ff99" stroke-width="2"/>
<g stroke="black" stroke-width="2" fill="none">
<line x1="311" y1="446" x2="312" y2="446"/>
</g>
<path d="M319,446" fill="none" stroke="#99ff99" stroke-width="2"/>
<path d="M319,446" fill="none" stroke="#99ff99" stroke-width="2"/>
<g stroke="black" stroke-width="2" fill="none">
<line x1="318" y1="446" x2="319" y2="446"/>
</g>
<path d="M327,446" fill="none" stroke="#99ff99" stroke-width="2"/>
<path d="M327,446" fill="none" stroke="#99ff99" stroke-width="2"/>
<g stroke="black" stroke-width="2" fill="none">
<line x1="326" y1="446" x2="327" y2="446"/>
</g>
<path d="M334,446" fill="none" stroke="#99ff99" stroke-width="2"/>
<path d="M334,446" fill="none" stroke="#99ff99" stroke-width="2"/>
<g stroke="black" stroke-width="2" fill="none">
<line x1="333" y1="446" x2="334" y2="446"/>
</g>
<path d="M342,446" fill="none" stroke="#99ff99" stroke-width="2"/>
<path d="M342,446" fill="none" stroke="#99ff99" stroke-width="2"/>
<g stroke="black" stroke-width="2" fill="none">
<line x1="341" y1="446" x2="342" y2="446"/>
</g>
<path d="M350,446" fill="none" stroke="#99ff99" stroke-width="2"/>
<path d="M350,446" fill="none" stroke="#99ff99" stroke-width="2"/>
<g stroke="black" stroke-width="2" fill="none">
<line x1="349" y1="446" x2="350" y2="446"/>
</g>
<path d="M357,446" fill="none" stroke="#99ff99" stroke-width="2"/>
<path d="M357,446" fill="none" stroke="#99ff99" stroke-width="2"/>
<g stroke="black" stroke-width="2" fill="none">
<line x1="356" y1="446" x2="357" y2="446"/>
</g>
<path d="M365,446" fill="none" stroke="#99ff99" stroke-width="2"/>
<path d="M365,446" fill="none" stroke="#99ff99" stroke-width="2"/>
<g stroke="black" stroke-width="2" fill="none">
<line x1="364" y1="446" x2="365" y2="446"/>
</g>
<path d="M372,446" fill="none" stroke="#99ff99" stroke-width="2"/>
<path d="M372,446" fill="none" stroke="#99ff99" stroke-width="2"/>
<g stroke="black" stroke-width="2" fill="none">
<line x1="371" y1="446" x2="372" y2="446"/>
</g>
<path d="M380,446" fill="none" stroke="#99ff99" stroke-width="2"/>
<path d="M380,446" fill="none" stroke="#99ff99" stroke-width="2"/>
<g stroke="black" stroke-width="2" fill="none">
<line x1="379" y1="446" x2="380" y2="446"/>
</g>
<path d="M387,446" fill="none" stroke="#99ff99" stroke-width="2"/>
<path d="M387,446" fill="none" stroke="#99ff99" stroke-width="2"/>
<g stroke="black" stroke-width="2" fill="none">
<line x1="386" y1="446" x2="387" y2="446"/>
</g>
<path d="M395,446" fill="none" stroke="#99ff99" stroke-width="2"/>
<path d="M395,446" fill="none" stroke="#99ff99" stroke-width="2"/>
<g stroke="black" stroke-width="2" fill="none">
<line x1="394" y1="446" x2="395" y2="446"/>
</g>
<path d="M403,446" fill="none" stroke="#99ff99" stroke-width="2"/>
<path d="M403,446" fill="none" stroke="#99ff99" stroke-width="2"/>
<g stroke="black" stroke-width="2" fill="none">
<line x1="402" y1="446" x2="403" y2="446"/>
</g>
<path d="M410,446" fill="none" stroke="#99ff99" stroke-width="2"/>
<path d="M410,446" fill="none" stroke="#99ff99" stroke-width="2"/>
<g stroke="black" stroke-width="2" fill="none">
<line x1="409" y1="446" x2="410" y2="446"/>
</g>
<path d="M418,446" fill="none" stroke="#99ff99" stroke-width="2"/>
<path d="M418,446" fill="none" stroke="#99ff99" stroke-width="2"/>
<g stroke="black" stroke-width="2" fill="none">
<line x1="417" y1="446" x2="418" y2="446"/>
</g>
<path d="M425,445" fill="none" stroke="#99ff99" stroke-width="2"/>
<path d="M425,445" fill="none" stroke="#99ff99" stroke-width="2"/>
<g stroke="black" stroke-width="2" fill="none">
<line x1="424" y1="445" x2="425" y2="445"/>
</g>
<path d="M433,445" fill="none" stroke="#99ff99" stroke-width="2"/>
<path d="M433,445" fill="none" stroke="#99ff99" stroke-width="2"/>
<g stroke="black" stroke-width="2" fill="none">
<line x1="432" y1="445" x2="433" y2="445"/>
</g>
<path d="M440,444" fill="none" stroke="#99ff99" stroke-width="2"/>
<path d="M440,444" fill="none" stroke="#99ff99" stroke-width="2"/>
<g stroke="black" stroke-width="2" fill="none">
<line x1="439" y1="444" x2="440" y2="444"/>
</g>
<path d="M448,442" fill="none" stroke="#99ff99" stroke-width="2"/>
<path d="M448,442" fill="none" stroke="#99ff99" stroke-width="2"/>
<g stroke="black" stroke-width="2" fill="none">
<line x1="447" y1="442" x2="448" y2="442"/>
</g>
<path d="M455,440" fill="none" stroke="#99ff99" stroke-width="2"/>
<path d="M455,440" fill="none" stroke="#99ff99" stroke-width="2"/>
<g stroke="black" stroke-width="2" fill="none">
<line x1="454" y1="440" x2="455" y2="440"/>
</g>
<path d="M463,437" fill="none" stroke="#99ff99" stroke-width="2"/>
<path d="M463,437" fill="none" stroke="#99ff99" stroke-width="2"/>
<g stroke="black" stroke-width="2" fill="none">
<line x1="462" y1="437" x2="463" y2="437"/>
</g>
<path d="M471,433" fill="none" stroke="#99ff99" stroke-width="2"/>
<path d="M471,433v -1" fill="none" stroke="#99ff99" stroke-width="2"/>
<g stroke="black" stroke-width="2" fill="none">
<line x1="470" y1="433" x2="471" y2="433"/>
</g>
<path d="M478,427" fill="none" stroke="#99ff99" stroke-width="2"/>
<path d="M478,427v -1" fill="none" stroke="#99ff99" stroke-width="2"/>
<g stroke="black" stroke-width="2" fill="none">
<line x1="477" y1="427" x2="478" y2="427"/>
</g>
<path d="M486,419" fill="none" stroke="#99ff99" stroke-width="2"/>
<path d="M486,419v -1" fill="none" stroke="#99ff99" stroke-width="2"/>
<g stroke="black" stroke-width="2" fill="none">
<line x1="485" y1="419" x2="486" y2="419"/>
</g>
<path d="M493,400" fill="none" stroke="#99ff99" stroke-width="2"/>
<path d="M493,400v -1" fill="none" stroke="#99ff99" stroke-width="2"/>
<g stroke="black" stroke-width="2" fill="none">
<line x1="492" y1="400" x2="493" y2="400"/>
</g>
<path d="M501,297v -1" fill="none" stroke="#99ff99" stroke-width="2"/>
<path d="M501,296v -1" fill="none" stroke="#99ff99" stroke-width="2"/>
<g stroke="black" stroke-width="2" fill="none">
<line x1="500" y1="296" x2="501" y2="296"/>
</g>
<path d="M516,435" fill="none" stroke="#99ff99" stroke-width="2"/>
<path d="M516,435" fill="none" stroke="#99ff99" stroke-width="2"/>
<g stroke="black" stroke-width="2" fill="none">
<line x1="515" y1="435" x2="516" y2="435"/>
</g>
<path d="M523,446" fill="none" stroke="#99ff99" stroke-width="2"/>
<path d="M523,446" fill="none" stroke="#99ff99" stroke-width="2"/>
<g stroke="black" stroke-width="2" fill="none">
<line x1="522" y1="446" x2="523" y2="446"/>
</g>
<path d="M74,446h 347v -1h 16v -1h 7v -2h 8v -2h 7v -3h 8v -4h 7v -6h 8v -8h 7v -19h 8v -104h 8v -252h 7v 391h 8v 11h 7z" fill="#99ff99"/>
<path d="M74,446h 347v -1h 16v -1h 7v -2h 8v -2h 7v -3h 8v -4h 7v -6h 8v -8h 7v -19h 8v -104h 8v -252" fill="none" stroke="#99ff99" stroke-width="2"/>
<path d="M512,44v 391" fill="none" stroke="#99ff99" stroke-width="2"/>
<path d="M512,435h 8v 11h 7" fill="none" stroke="#99ff99" stroke-width="2"/>
<path d="M217,446h 3" fill="none" stroke="#ff0099"/>
<path d="M222,446h 3" fill="none" stroke="#ff0099"/>
<g stroke="#ff0099" stroke-width="1" fill="#ff0099">
<circle cx=" 221" cy=" 446" r=" 1.5"/>
</g>
<path d="M225,446h 3" fill="none" stroke="#ff0099"/>
<path d="M230,446h 2" fill="none" stroke="#ff0099"/>
<g stroke="#ff0099" stroke-width="1" fill="#ff0099">
<circle cx=" 229" cy=" 446" r=" 1.5"/>
</g>
<path d="M232,446h 3" fill="none" stroke="#ff0099"/>
<path d="M237,446h 3" fill="none" stroke="#ff0099"/>
<g stroke="#ff0099" stroke-width="1" fill="#ff0099">
<circle cx=" 236" cy=" 446" r=" 1.5"/>
</g>
<path d="M240,446h 3" fill="none" stroke="#ff0099"/>
<path d="M245,446h 3" fill="none" stroke="#ff0099"/>
<g stroke="#ff0099" stroke-width="1" fill="#ff0099">
<circle cx=" 244" cy=" 446" r=" 1.5"/>
</g>
<path d="M248,446h 2" fill="none" stroke="#ff0099"/>
<path d="M252,446h 3" fill="none" stroke="#ff0099"/>
<g stroke="#ff0099" stroke-width="1" fill="#ff0099">
<circle cx=" 251" cy=" 446" r=" 1.5"/>
</g>
<path d="M255,446h 3" fill="none" stroke="#ff0099"/>
<path d="M260,446h 3" fill="none" stroke="#ff0099"/>
<g stroke="#ff0099" stroke-width="1" fill="#ff0099">
<circle cx=" 259" cy=" 446" r=" 1.5"/>
</g>
<path d="M263,446h 2" fill="none" stroke="#ff0099"/>
<path d="M268,446h 2" fill="none" stroke="#ff0099"/>
<g stroke="#ff0099" stroke-width="1" fill="#ff0099">
<circle cx=" 266" cy=" 446" r=" 1.5"/>
</g>
<path d="M270,445h 3" fill="none" stroke="#ff0099"/>
<path d="M275,445h 3" fill="none" stroke="#ff0099"/>
<g stroke="#ff0099" stroke-width="1" fill="#ff0099">
<circle cx=" 274" cy=" 445" r=" 1.5"/>
</g>
<path d="M278,445h 2" fill="none" stroke="#ff0099"/>
<path d="M283,445h 2" fill="none" stroke="#ff0099"/>
<g stroke="#ff0099" stroke-width="1" fill="#ff0099">
<circle cx=" 282" cy=" 445" r=" 1.5"/>
</g>
<path d="M285,445h 3" fill="none" stroke="#ff0099"/>
<path d="M290,445h 3" fill="none" stroke="#ff0099"/>
<g stroke="#ff0099" stroke-width="1" fill="#ff0099">
<circle cx=" 289" cy=" 445" r=" 1.5"/>
</g>
<path d="M293,443h 3" fill="none" stroke="#ff0099"/>
<path d="M298,443h 2" fill="none" stroke="#ff0099"/>
<g stroke="#ff0099" stroke-width="1" fill="#ff0099">
<circle cx=" 297" cy=" 443" r=" 1.5"/>
</g>
<path d="M300,444h 3" fill="none" stroke="#ff0099"/>
<path d="M305,444h 3" fill="none" stroke="#ff0099"/>
<g stroke="#ff0099" stroke-width="1" fill="#ff0099">
<circle cx=" 304" cy=" 444" r=" 1.5"/>
</g>
<path d="M308,444h 3" fill="none" stroke="#ff0099"/>
<path d="M313,444h 3" fill="none" stroke="#ff0099"/>
<g stroke="#ff0099" stroke-width="1" fill="#ff0099">
<circle cx=" 312" cy=" 444" r=" 1.5"/>
</g>
<path d="M316,442h 2" fill="none" stroke="#ff0099"/>
<path d="M321,442h 2" fill="none" stroke="#ff0099"/>
<g stroke="#ff0099" stroke-width="1" fill="#ff0099">
<circle cx=" 319" cy=" 442" r=" 1.5"/>
</g>
<path d="M323,442h 3" fill="none" stroke="#ff0099"/>
<path d="M328,442h 3" fill="none" stroke="#ff0099"/>
<g stroke="#ff0099" stroke-width="1" fill="#ff0099">
<circle cx=" 327" cy=" 442" r=" 1.5"/>
</g>
<path d="M331,442h 2" fill="none" stroke="#ff0099"/>
<path d="M336,442h 2" fill="none" stroke="#ff0099"/>
<g stroke="#ff0099" stroke-width="1" fill="#ff0099">
<circle cx=" 334" cy=" 442" r=" 1.5"/>
</g>
<path d="M338,440h 3" fill="none" stroke="#ff0099"/>
<path d="M343,440h 3" fill="none" stroke="#ff0099"/>
<g stroke="#ff0099" stroke-width="1" fill="#ff0099">
<circle cx=" 342" cy=" 440" r=" 1.5"/>
</g>
<path d="M346,440h 2" fill="none" stroke="#ff0099"/>
<path d="M351,440h 2" fill="none" stroke="#ff0099"/>
<g stroke="#ff0099" stroke-width="1" fill="#ff0099">
<circle cx=" 350" cy=" 440" r=" 1.5"/>
</g>
<path d="M353,440h 3" fill="none" stroke="#ff0099"/>
<path d="M358,440h 3" fill="none" stroke="#ff0099"/>
<g stroke="#ff0099" stroke-width="1" fill="#ff0099">
<circle cx=" 357" cy=" 440" r=" 1.5"/>
</g>
<path d="M361,439h 3" fill="none" stroke="#ff0099"/>
<path d="M366,439h 3" fill="none" stroke="#ff0099"/>
<g stroke="#ff0099" stroke-width="1" fill="#ff0099">
<circle cx=" 365" cy=" 439" r=" 1.5"/>
</g>
<path d="M369,438h 2" fill="none" stroke="#ff0099"/>
<path d="M373,438h 3" fill="none" stroke="#ff0099"/>
<g stroke="#ff0099" stroke-width="1" fill="#ff0099">
<circle cx=" 372" cy=" 438" r=" 1.5"/>
</g>
<path d="M376,438h 3" fill="none" stroke="#ff0099"/>
<path d="M381,438h 3" fill="none" stroke="#ff0099"/>
<g stroke="#ff0099" stroke-width="1" fill="#ff0099">
<circle cx=" 380" cy=" 438" r=" 1.5"/>
</g>
<path d="M384,438h 2" fill="none" stroke="#ff0099"/>
<path d="M389,438h 2" fill="none" stroke="#ff0099"/>
<g stroke="#ff0099" stroke-width="1" fill="#ff0099">
<circle cx=" 387" cy=" 438" r=" 1.5"/>
</g>
<path d="M391,439h 3" fill="none" stroke="#ff0099"/>
<path d="M396,439h 3" fill="none" stroke="#ff0099"/>
<g stroke="#ff0099" stroke-width="1" fill="#ff0099">
<circle cx=" 395" cy=" 439" r=" 1.5"/>
</g>
<path d="M399,437h 2" fill="none" stroke="#ff0099"/>
<path d="M404,437h 2" fill="none" stroke="#ff0099"/>
<g stroke="#ff0099" stroke-width="1" fill="#ff0099">
<circle cx=" 403" cy=" 437" r=" 1.5"/>
</g>
<path d="M406,437h 3" fill="none" stroke="#ff0099"/>
<path d="M411,437h 3" fill="none" stroke="#ff0099"/>
<g stroke="#ff0099" stroke-width="1" fill="#ff0099">
<circle cx=" 410" cy=" 437" r=" 1.5"/>
</g>
<path d="M414,437h 2" fill="none" stroke="#ff0099"/>
<path d="M419,437h 2" fill="none" stroke="#ff0099"/>
<g stroke="#ff0099" stroke-width="1" fill="#ff0099">
<circle cx=" 418" cy=" 437" r=" 1.5"/>
</g>
<path d="M421,435h 3" fill="none" stroke="#ff0099"/>
<path d="M426,435h 3" fill="none" stroke="#ff0099"/>
<g stroke="#ff0099" stroke-width="1" fill="#ff0099">
<circle cx=" 425" cy=" 435" r=" 1.5"/>
</g>
<path d="M429,436h 3" fill="none" stroke="#ff0099"/>
<path d="M434,436h 3" fill="none" stroke="#ff0099"/>
<g stroke="#ff0099" stroke-width="1" fill="#ff0099">
<circle cx=" 433" cy=" 436" r=" 1.5"/>
</g>
<path d="M437,435h 2" fill="none" stroke="#ff0099"/>
<path d="M441,435h 3" fill="none" stroke="#ff0099"/>
<g stroke="#ff0099" stroke-width="1" fill="#ff0099">
<circle cx=" 440" cy=" 435" r=" 1.5"/>
</g>
<path d="M444,436h 3" fill="none" stroke="#ff0099"/>
<path d="M449,436h 3" fill="none" stroke="#ff0099"/>
<g stroke="#ff0099" stroke-width="1" fill="#ff0099">
<circle cx=" 448" cy=" 436" r=" 1.5"/>
</g>
<path d="M452,435h 2" fill="none" stroke="#ff0099"/>
<path d="M457,435h 2" fill="none" stroke="#ff0099"/>
<g stroke="#ff0099" stroke-width="1" fill="#ff0099">
<circle cx=" 455" cy=" 435" r=" 1.5"/>
</g>
<path d="M459,434h 3" fill="none" stroke="#ff0099"/>
<path d="M464,434h 3" fill="none" stroke="#ff0099"/>
<g stroke="#ff0099" stroke-width="1" fill="#ff0099">
<circle cx=" 463" cy=" 434" r=" 1.5"/>
</g>
<path d="M467,435h 2" fill="none" stroke="#ff0099"/>
<path d="M472,435h 2" fill="none" stroke="#ff0099"/>
<g stroke="#ff0099" stroke-width="1" fill="#ff0099">
<circle cx=" 471" cy=" 435" r=" 1.5"/>
</g>
<path d="M474,434h 3" fill="none" stroke="#ff0099"/>
<path d="M479,434h 3" fill="none" stroke="#ff0099"/>
<g stroke="#ff0099" stroke-width="1" fill="#ff0099">
<circle cx=" 478" cy=" 434" r=" 1.5"/>
</g>
<path d="M482,431h 3" fill="none" stroke="#ff0099"/>
<path d="M487,431h 2" fill="none" stroke="#ff0099"/>
<g stroke="#ff0099" stroke-width="1" fill="#ff0099">
<circle cx=" 486" cy=" 431" r=" 1.5"/>
</g>
<path d="M489,408h 3" fill="none" stroke="#ff0099"/>
<path d="M494,408h 3" fill="none" stroke="#ff0099"/>
<g stroke="#ff0099" stroke-width="1" fill="#ff0099">
<circle cx=" 493" cy=" 408" r=" 1.5"/>
</g>
<path d="M501,273" fill="none" stroke="#ff0099"/>
<path d="M501,270" fill="none" stroke="#ff0099"/>
<path d="M497,271h 3" fill="none" stroke="#ff0099"/>
<path d="M502,271h 3" fill="none" stroke="#ff0099"/>
<g stroke="#ff0099" stroke-width="1" fill="#ff0099">
<circle cx=" 501" cy=" 271" r=" 1.5"/>
</g>
<path d="M508,70v -2" fill="none" stroke="#ff0099"/>
<path d="M508,66v -3" fill="none" stroke="#ff0099"/>
<path d="M505,67h 2" fill="none" stroke="#ff0099"/>
<path d="M509,67h 3" fill="none" stroke="#ff0099"/>
<g stroke="#ff0099" stroke-width="1" fill="#ff0099">
<circle cx=" 508" cy=" 67" r=" 1.5"/>
</g>
<path d="M512,417h 3" fill="none" stroke="#ff0099"/>
<path d="M517,417h 3" fill="none" stroke="#ff0099"/>
<g stroke="#ff0099" stroke-width="1" fill="#ff0099">
<circle cx=" 516" cy=" 417" r=" 1.5"/>
</g>
<path d="M520,446h 2" fill="none" stroke="#ff0099"/>
<path d="M525,446h 2" fill="none" stroke="#ff0099"/>
<g stroke="#ff0099" stroke-width="1" fill="#ff0099">
<circle cx=" 523" cy=" 446" r=" 1.5"/>
</g>
<rect x="357" y="59" width="142" height="99" fill="white"/>
<text x="360" y="82" fill="black" font-size="17" font-family="Helvetica" font-weight="bold">
EB
</text>
<text x="457" y="115" fill="black" font-size="17" font-family="Helvetica" font-weight="bold">
 ee
</text>
<text x="440" y="115" fill="black" font-size="17" font-family="Times">
&#8594;
</text>
<text x="392" y="115" fill="black" font-size="17" font-family="Helvetica" font-weight="bold">
MC Z 
</text>
<path d="M362,109h 25" fill="none" stroke="#ff0099"/>
<g stroke="#ff0099" stroke-width="1" fill="#ff0099">
<circle cx=" 375" cy=" 109" r=" 1.5"/>
</g>
<text x="455" y="147" fill="black" font-size="17" font-family="Helvetica" font-weight="bold">
 + jet
</text>
<text x="447" y="147" fill="black" font-size="17" font-family="Times">
&#0947;
</text>
<text x="392" y="147" fill="black" font-size="17" font-family="Helvetica" font-weight="bold">
signal 
</text>
<path d="M362,154h 25v -24h -25z" fill="#99ff99"/>
<path d="M362,130h 25" fill="none" stroke="#99ff99" stroke-width="2"/>
<path d="M362,154h 25" fill="none" stroke="#99ff99" stroke-width="2"/>
<path d="M387,154v -24" fill="none" stroke="#99ff99" stroke-width="2"/>
<path d="M362,154v -24" fill="none" stroke="#99ff99" stroke-width="2"/>
<text x="300" y="34" fill="black" font-size="17" font-family="Helvetica" font-weight="bold">
=8 TeV
</text>
<text x="291" y="34" fill="black" font-size="17" font-family="Helvetica" font-weight="bold">
s
</text>
<path d="M285,25l 2, 10" fill="none" stroke="black" stroke-width="2"/>
<path d="M287,35l 2, -14" fill="none" stroke="black"/>
<path d="M289,21h 11" fill="none" stroke="black"/>
<text x="142" y="34" fill="black" font-size="17" font-family="Helvetica" font-weight="bold">
CMS Preliminary 
</text></svg>
