<?xml version="1.0" standalone="no"?>
<svg width="567" height="496" viewBox="0 0 567 496" xmlns="http://www.w3.org/2000/svg">
<title>
../src/TagAndProbeZ/plots_mcZee_mcGJet_withEtaR9rhoReweight/hlt150//etaPhotEE.svg
</title>
<desc>
Creator: ROOT Version 5.32/00
CreationDate: Fri Dec  5 12:51:47 2014</desc>
<defs>
</defs>
<rect x="0" y="0" width="567" height="496" fill="white"/>
<rect x="74" y="44" width="453" height="402" fill="white"/>
<rect x="74" y="44" width="453" height="402" fill="none" stroke="black"/>
<rect x="74" y="44" width="453" height="402" fill="white"/>
<rect x="74" y="44" width="453" height="402" fill="none" stroke="black"/>
<path d="M115,288v -1" fill="none" stroke="#ff0099"/>
<path d="M115,285v -1" fill="none" stroke="#ff0099"/>
<path d="M111,286h 3" fill="none" stroke="#ff0099"/>
<path d="M116,286h 3" fill="none" stroke="#ff0099"/>
<g stroke="#ff0099" stroke-width="1" fill="#ff0099">
<circle cx=" 115" cy=" 286" r=" 1.5"/>
</g>
<path d="M123,244v -1" fill="none" stroke="#ff0099"/>
<path d="M123,240v -1" fill="none" stroke="#ff0099"/>
<path d="M119,242h 3" fill="none" stroke="#ff0099"/>
<path d="M124,242h 3" fill="none" stroke="#ff0099"/>
<g stroke="#ff0099" stroke-width="1" fill="#ff0099">
<circle cx=" 123" cy=" 242" r=" 1.5"/>
</g>
<path d="M130,213v -1" fill="none" stroke="#ff0099"/>
<path d="M130,210v -1" fill="none" stroke="#ff0099"/>
<path d="M127,211h 2" fill="none" stroke="#ff0099"/>
<path d="M132,211h 2" fill="none" stroke="#ff0099"/>
<g stroke="#ff0099" stroke-width="1" fill="#ff0099">
<circle cx=" 130" cy=" 211" r=" 1.5"/>
</g>
<path d="M138,174v -1" fill="none" stroke="#ff0099"/>
<path d="M138,171v -2" fill="none" stroke="#ff0099"/>
<path d="M134,172h 3" fill="none" stroke="#ff0099"/>
<path d="M139,172h 3" fill="none" stroke="#ff0099"/>
<g stroke="#ff0099" stroke-width="1" fill="#ff0099">
<circle cx=" 138" cy=" 172" r=" 1.5"/>
</g>
<path d="M146,152v -2" fill="none" stroke="#ff0099"/>
<path d="M146,148v -2" fill="none" stroke="#ff0099"/>
<path d="M142,149h 2" fill="none" stroke="#ff0099"/>
<path d="M147,149h 2" fill="none" stroke="#ff0099"/>
<g stroke="#ff0099" stroke-width="1" fill="#ff0099">
<circle cx=" 146" cy=" 149" r=" 1.5"/>
</g>
<path d="M153,121v -2" fill="none" stroke="#ff0099"/>
<path d="M153,117v -2" fill="none" stroke="#ff0099"/>
<path d="M149,118h 3" fill="none" stroke="#ff0099"/>
<path d="M154,118h 3" fill="none" stroke="#ff0099"/>
<g stroke="#ff0099" stroke-width="1" fill="#ff0099">
<circle cx=" 153" cy=" 118" r=" 1.5"/>
</g>
<path d="M161,85v -2" fill="none" stroke="#ff0099"/>
<path d="M161,81v -2" fill="none" stroke="#ff0099"/>
<path d="M157,82h 2" fill="none" stroke="#ff0099"/>
<path d="M162,82h 2" fill="none" stroke="#ff0099"/>
<g stroke="#ff0099" stroke-width="1" fill="#ff0099">
<circle cx=" 161" cy=" 82" r=" 1.5"/>
</g>
<path d="M168,72v -2" fill="none" stroke="#ff0099"/>
<path d="M168,67v -2" fill="none" stroke="#ff0099"/>
<path d="M164,69h 3" fill="none" stroke="#ff0099"/>
<path d="M169,69h 3" fill="none" stroke="#ff0099"/>
<g stroke="#ff0099" stroke-width="1" fill="#ff0099">
<circle cx=" 168" cy=" 69" r=" 1.5"/>
</g>
<path d="M176,70v -2" fill="none" stroke="#ff0099"/>
<path d="M176,65v -2" fill="none" stroke="#ff0099"/>
<path d="M172,67h 3" fill="none" stroke="#ff0099"/>
<path d="M177,67h 3" fill="none" stroke="#ff0099"/>
<g stroke="#ff0099" stroke-width="1" fill="#ff0099">
<circle cx=" 176" cy=" 67" r=" 1.5"/>
</g>
<path d="M183,318" fill="none" stroke="#ff0099"/>
<path d="M183,315" fill="none" stroke="#ff0099"/>
<path d="M180,316h 2" fill="none" stroke="#ff0099"/>
<path d="M184,316h 3" fill="none" stroke="#ff0099"/>
<g stroke="#ff0099" stroke-width="1" fill="#ff0099">
<circle cx=" 183" cy=" 316" r=" 1.5"/>
</g>
<path d="M418,323" fill="none" stroke="#ff0099"/>
<path d="M418,320" fill="none" stroke="#ff0099"/>
<path d="M414,321h 2" fill="none" stroke="#ff0099"/>
<path d="M419,321h 2" fill="none" stroke="#ff0099"/>
<g stroke="#ff0099" stroke-width="1" fill="#ff0099">
<circle cx=" 418" cy=" 321" r=" 1.5"/>
</g>
<path d="M425,83v -2" fill="none" stroke="#ff0099"/>
<path d="M425,78v -2" fill="none" stroke="#ff0099"/>
<path d="M421,80h 3" fill="none" stroke="#ff0099"/>
<path d="M426,80h 3" fill="none" stroke="#ff0099"/>
<g stroke="#ff0099" stroke-width="1" fill="#ff0099">
<circle cx=" 425" cy=" 80" r=" 1.5"/>
</g>
<path d="M433,83v -2" fill="none" stroke="#ff0099"/>
<path d="M433,79v -2" fill="none" stroke="#ff0099"/>
<path d="M429,80h 3" fill="none" stroke="#ff0099"/>
<path d="M434,80h 3" fill="none" stroke="#ff0099"/>
<g stroke="#ff0099" stroke-width="1" fill="#ff0099">
<circle cx=" 433" cy=" 80" r=" 1.5"/>
</g>
<path d="M440,106v -2" fill="none" stroke="#ff0099"/>
<path d="M440,102v -2" fill="none" stroke="#ff0099"/>
<path d="M437,103h 2" fill="none" stroke="#ff0099"/>
<path d="M441,103h 3" fill="none" stroke="#ff0099"/>
<g stroke="#ff0099" stroke-width="1" fill="#ff0099">
<circle cx=" 440" cy=" 103" r=" 1.5"/>
</g>
<path d="M448,114v -2" fill="none" stroke="#ff0099"/>
<path d="M448,110v -2" fill="none" stroke="#ff0099"/>
<path d="M444,111h 3" fill="none" stroke="#ff0099"/>
<path d="M449,111h 3" fill="none" stroke="#ff0099"/>
<g stroke="#ff0099" stroke-width="1" fill="#ff0099">
<circle cx=" 448" cy=" 111" r=" 1.5"/>
</g>
<path d="M455,145v -1" fill="none" stroke="#ff0099"/>
<path d="M455,142v -2" fill="none" stroke="#ff0099"/>
<path d="M452,143h 2" fill="none" stroke="#ff0099"/>
<path d="M457,143h 2" fill="none" stroke="#ff0099"/>
<g stroke="#ff0099" stroke-width="1" fill="#ff0099">
<circle cx=" 455" cy=" 143" r=" 1.5"/>
</g>
<path d="M463,177v -2" fill="none" stroke="#ff0099"/>
<path d="M463,173v -1" fill="none" stroke="#ff0099"/>
<path d="M459,174h 3" fill="none" stroke="#ff0099"/>
<path d="M464,174h 3" fill="none" stroke="#ff0099"/>
<g stroke="#ff0099" stroke-width="1" fill="#ff0099">
<circle cx=" 463" cy=" 174" r=" 1.5"/>
</g>
<path d="M471,201v -1" fill="none" stroke="#ff0099"/>
<path d="M471,198v -1" fill="none" stroke="#ff0099"/>
<path d="M467,199h 2" fill="none" stroke="#ff0099"/>
<path d="M472,199h 2" fill="none" stroke="#ff0099"/>
<g stroke="#ff0099" stroke-width="1" fill="#ff0099">
<circle cx=" 471" cy=" 199" r=" 1.5"/>
</g>
<path d="M478,233v -1" fill="none" stroke="#ff0099"/>
<path d="M478,230v -1" fill="none" stroke="#ff0099"/>
<path d="M474,231h 3" fill="none" stroke="#ff0099"/>
<path d="M479,231h 3" fill="none" stroke="#ff0099"/>
<g stroke="#ff0099" stroke-width="1" fill="#ff0099">
<circle cx=" 478" cy=" 231" r=" 1.5"/>
</g>
<path d="M486,282v -1" fill="none" stroke="#ff0099"/>
<path d="M486,279" fill="none" stroke="#ff0099"/>
<path d="M482,280h 3" fill="none" stroke="#ff0099"/>
<path d="M487,280h 2" fill="none" stroke="#ff0099"/>
<g stroke="#ff0099" stroke-width="1" fill="#ff0099">
<circle cx=" 486" cy=" 280" r=" 1.5"/>
</g>
<path d="M74,446h 453" fill="none" stroke="black"/>
<path d="M74,434v 12" fill="none" stroke="black"/>
<path d="M89,440v 6" fill="none" stroke="black"/>
<path d="M104,440v 6" fill="none" stroke="black"/>
<path d="M119,440v 6" fill="none" stroke="black"/>
<path d="M134,440v 6" fill="none" stroke="black"/>
<path d="M149,434v 12" fill="none" stroke="black"/>
<path d="M164,440v 6" fill="none" stroke="black"/>
<path d="M180,440v 6" fill="none" stroke="black"/>
<path d="M195,440v 6" fill="none" stroke="black"/>
<path d="M210,440v 6" fill="none" stroke="black"/>
<path d="M225,434v 12" fill="none" stroke="black"/>
<path d="M240,440v 6" fill="none" stroke="black"/>
<path d="M255,440v 6" fill="none" stroke="black"/>
<path d="M270,440v 6" fill="none" stroke="black"/>
<path d="M285,440v 6" fill="none" stroke="black"/>
<path d="M300,434v 12" fill="none" stroke="black"/>
<path d="M316,440v 6" fill="none" stroke="black"/>
<path d="M331,440v 6" fill="none" stroke="black"/>
<path d="M346,440v 6" fill="none" stroke="black"/>
<path d="M361,440v 6" fill="none" stroke="black"/>
<path d="M376,434v 12" fill="none" stroke="black"/>
<path d="M391,440v 6" fill="none" stroke="black"/>
<path d="M406,440v 6" fill="none" stroke="black"/>
<path d="M421,440v 6" fill="none" stroke="black"/>
<path d="M437,440v 6" fill="none" stroke="black"/>
<path d="M452,434v 12" fill="none" stroke="black"/>
<path d="M467,440v 6" fill="none" stroke="black"/>
<path d="M482,440v 6" fill="none" stroke="black"/>
<path d="M497,440v 6" fill="none" stroke="black"/>
<path d="M512,440v 6" fill="none" stroke="black"/>
<path d="M527,434v 12" fill="none" stroke="black"/>
<path d="M527,434v 12" fill="none" stroke="black"/>
<text x="65" y="465" fill="black" font-size="18" font-family="Helvetica" font-weight="bold">
-3
</text>
<text x="141" y="465" fill="black" font-size="18" font-family="Helvetica" font-weight="bold">
-2
</text>
<text x="218" y="465" fill="black" font-size="18" font-family="Helvetica" font-weight="bold">
-1
</text>
<text x="295" y="465" fill="black" font-size="18" font-family="Helvetica" font-weight="bold">
0
</text>
<text x="372" y="465" fill="black" font-size="18" font-family="Helvetica" font-weight="bold">
1
</text>
<text x="446" y="465" fill="black" font-size="18" font-family="Helvetica" font-weight="bold">
2
</text>
<text x="522" y="465" fill="black" font-size="18" font-family="Helvetica" font-weight="bold">
3
</text>
<path d="M74,44h 453" fill="none" stroke="black"/>
<path d="M74,56v -12" fill="none" stroke="black"/>
<path d="M89,50v -6" fill="none" stroke="black"/>
<path d="M104,50v -6" fill="none" stroke="black"/>
<path d="M119,50v -6" fill="none" stroke="black"/>
<path d="M134,50v -6" fill="none" stroke="black"/>
<path d="M149,56v -12" fill="none" stroke="black"/>
<path d="M164,50v -6" fill="none" stroke="black"/>
<path d="M180,50v -6" fill="none" stroke="black"/>
<path d="M195,50v -6" fill="none" stroke="black"/>
<path d="M210,50v -6" fill="none" stroke="black"/>
<path d="M225,56v -12" fill="none" stroke="black"/>
<path d="M240,50v -6" fill="none" stroke="black"/>
<path d="M255,50v -6" fill="none" stroke="black"/>
<path d="M270,50v -6" fill="none" stroke="black"/>
<path d="M285,50v -6" fill="none" stroke="black"/>
<path d="M300,56v -12" fill="none" stroke="black"/>
<path d="M316,50v -6" fill="none" stroke="black"/>
<path d="M331,50v -6" fill="none" stroke="black"/>
<path d="M346,50v -6" fill="none" stroke="black"/>
<path d="M361,50v -6" fill="none" stroke="black"/>
<path d="M376,56v -12" fill="none" stroke="black"/>
<path d="M391,50v -6" fill="none" stroke="black"/>
<path d="M406,50v -6" fill="none" stroke="black"/>
<path d="M421,50v -6" fill="none" stroke="black"/>
<path d="M437,50v -6" fill="none" stroke="black"/>
<path d="M452,56v -12" fill="none" stroke="black"/>
<path d="M467,50v -6" fill="none" stroke="black"/>
<path d="M482,50v -6" fill="none" stroke="black"/>
<path d="M497,50v -6" fill="none" stroke="black"/>
<path d="M512,50v -6" fill="none" stroke="black"/>
<path d="M527,56v -12" fill="none" stroke="black"/>
<path d="M527,56v -12" fill="none" stroke="black"/>
<path d="M74,446v -402" fill="none" stroke="black"/>
<path d="M87,446h -13" fill="none" stroke="black"/>
<path d="M81,435h -7" fill="none" stroke="black"/>
<path d="M81,424h -7" fill="none" stroke="black"/>
<path d="M81,413h -7" fill="none" stroke="black"/>
<path d="M81,402h -7" fill="none" stroke="black"/>
<path d="M87,391h -13" fill="none" stroke="black"/>
<path d="M81,380h -7" fill="none" stroke="black"/>
<path d="M81,369h -7" fill="none" stroke="black"/>
<path d="M81,358h -7" fill="none" stroke="black"/>
<path d="M81,347h -7" fill="none" stroke="black"/>
<path d="M87,336h -13" fill="none" stroke="black"/>
<path d="M81,325h -7" fill="none" stroke="black"/>
<path d="M81,314h -7" fill="none" stroke="black"/>
<path d="M81,303h -7" fill="none" stroke="black"/>
<path d="M81,293h -7" fill="none" stroke="black"/>
<path d="M87,282h -13" fill="none" stroke="black"/>
<path d="M81,271h -7" fill="none" stroke="black"/>
<path d="M81,260h -7" fill="none" stroke="black"/>
<path d="M81,249h -7" fill="none" stroke="black"/>
<path d="M81,238h -7" fill="none" stroke="black"/>
<path d="M87,227h -13" fill="none" stroke="black"/>
<path d="M81,216h -7" fill="none" stroke="black"/>
<path d="M81,205h -7" fill="none" stroke="black"/>
<path d="M81,194h -7" fill="none" stroke="black"/>
<path d="M81,183h -7" fill="none" stroke="black"/>
<path d="M87,172h -13" fill="none" stroke="black"/>
<path d="M81,161h -7" fill="none" stroke="black"/>
<path d="M81,150h -7" fill="none" stroke="black"/>
<path d="M81,139h -7" fill="none" stroke="black"/>
<path d="M81,128h -7" fill="none" stroke="black"/>
<path d="M87,117h -13" fill="none" stroke="black"/>
<path d="M81,106h -7" fill="none" stroke="black"/>
<path d="M81,95h -7" fill="none" stroke="black"/>
<path d="M81,84h -7" fill="none" stroke="black"/>
<path d="M81,73h -7" fill="none" stroke="black"/>
<path d="M87,62h -13" fill="none" stroke="black"/>
<path d="M87,62h -13" fill="none" stroke="black"/>
<path d="M81,51h -7" fill="none" stroke="black"/>
<text x="61" y="453" fill="black" font-size="18" font-family="Helvetica" font-weight="bold">
0
</text>
<text x="37" y="398" fill="black" font-size="18" font-family="Helvetica" font-weight="bold">
0.01
</text>
<text x="35" y="343" fill="black" font-size="18" font-family="Helvetica" font-weight="bold">
0.02
</text>
<text x="35" y="288" fill="black" font-size="18" font-family="Helvetica" font-weight="bold">
0.03
</text>
<text x="34" y="233" fill="black" font-size="18" font-family="Helvetica" font-weight="bold">
0.04
</text>
<text x="34" y="178" fill="black" font-size="18" font-family="Helvetica" font-weight="bold">
0.05
</text>
<text x="34" y="123" fill="black" font-size="18" font-family="Helvetica" font-weight="bold">
0.06
</text>
<text x="35" y="69" fill="black" font-size="18" font-family="Helvetica" font-weight="bold">
0.07
</text>
<path d="M115,313v -2" fill="none" stroke="#99ff99" stroke-width="2"/>
<path d="M115,311v -2" fill="none" stroke="#99ff99" stroke-width="2"/>
<g stroke="black" stroke-width="2" fill="none">
<line x1="114" y1="311" x2="115" y2="311"/>
</g>
<path d="M123,263v -4" fill="none" stroke="#99ff99" stroke-width="2"/>
<path d="M123,259v -4" fill="none" stroke="#99ff99" stroke-width="2"/>
<g stroke="black" stroke-width="2" fill="none">
<line x1="122" y1="259" x2="123" y2="259"/>
</g>
<path d="M130,224v -6" fill="none" stroke="#99ff99" stroke-width="2"/>
<path d="M130,218v -6" fill="none" stroke="#99ff99" stroke-width="2"/>
<g stroke="black" stroke-width="2" fill="none">
<line x1="129" y1="218" x2="130" y2="218"/>
</g>
<path d="M138,185v -7" fill="none" stroke="#99ff99" stroke-width="2"/>
<path d="M138,178v -7" fill="none" stroke="#99ff99" stroke-width="2"/>
<g stroke="black" stroke-width="2" fill="none">
<line x1="137" y1="178" x2="138" y2="178"/>
</g>
<path d="M146,149v -5" fill="none" stroke="#99ff99" stroke-width="2"/>
<path d="M146,144v -6" fill="none" stroke="#99ff99" stroke-width="2"/>
<g stroke="black" stroke-width="2" fill="none">
<line x1="145" y1="144" x2="146" y2="144"/>
</g>
<path d="M153,115v -7" fill="none" stroke="#99ff99" stroke-width="2"/>
<path d="M153,108v -6" fill="none" stroke="#99ff99" stroke-width="2"/>
<g stroke="black" stroke-width="2" fill="none">
<line x1="152" y1="108" x2="153" y2="108"/>
</g>
<path d="M161,86v -8" fill="none" stroke="#99ff99" stroke-width="2"/>
<path d="M161,78v -7" fill="none" stroke="#99ff99" stroke-width="2"/>
<g stroke="black" stroke-width="2" fill="none">
<line x1="160" y1="78" x2="161" y2="78"/>
</g>
<path d="M168,61v -5" fill="none" stroke="#99ff99" stroke-width="2"/>
<path d="M168,56v -6" fill="none" stroke="#99ff99" stroke-width="2"/>
<g stroke="black" stroke-width="2" fill="none">
<line x1="167" y1="56" x2="168" y2="56"/>
</g>
<path d="M176,53v -4" fill="none" stroke="#99ff99" stroke-width="2"/>
<path d="M176,49v -4" fill="none" stroke="#99ff99" stroke-width="2"/>
<g stroke="black" stroke-width="2" fill="none">
<line x1="175" y1="49" x2="176" y2="49"/>
</g>
<path d="M183,314v -5" fill="none" stroke="#99ff99" stroke-width="2"/>
<path d="M183,309v -4" fill="none" stroke="#99ff99" stroke-width="2"/>
<g stroke="black" stroke-width="2" fill="none">
<line x1="182" y1="309" x2="183" y2="309"/>
</g>
<path d="M418,321v -2" fill="none" stroke="#99ff99" stroke-width="2"/>
<path d="M418,319v -1" fill="none" stroke="#99ff99" stroke-width="2"/>
<g stroke="black" stroke-width="2" fill="none">
<line x1="417" y1="319" x2="418" y2="319"/>
</g>
<path d="M425,66v -3" fill="none" stroke="#99ff99" stroke-width="2"/>
<path d="M425,63v -3" fill="none" stroke="#99ff99" stroke-width="2"/>
<g stroke="black" stroke-width="2" fill="none">
<line x1="424" y1="63" x2="425" y2="63"/>
</g>
<path d="M433,77v -8" fill="none" stroke="#99ff99" stroke-width="2"/>
<path d="M433,69v -8" fill="none" stroke="#99ff99" stroke-width="2"/>
<g stroke="black" stroke-width="2" fill="none">
<line x1="432" y1="69" x2="433" y2="69"/>
</g>
<path d="M440,94v -4" fill="none" stroke="#99ff99" stroke-width="2"/>
<path d="M440,90v -4" fill="none" stroke="#99ff99" stroke-width="2"/>
<g stroke="black" stroke-width="2" fill="none">
<line x1="439" y1="90" x2="440" y2="90"/>
</g>
<path d="M448,112v -6" fill="none" stroke="#99ff99" stroke-width="2"/>
<path d="M448,106v -7" fill="none" stroke="#99ff99" stroke-width="2"/>
<g stroke="black" stroke-width="2" fill="none">
<line x1="447" y1="106" x2="448" y2="106"/>
</g>
<path d="M455,149v -5" fill="none" stroke="#99ff99" stroke-width="2"/>
<path d="M455,144v -5" fill="none" stroke="#99ff99" stroke-width="2"/>
<g stroke="black" stroke-width="2" fill="none">
<line x1="454" y1="144" x2="455" y2="144"/>
</g>
<path d="M463,182v -5" fill="none" stroke="#99ff99" stroke-width="2"/>
<path d="M463,177v -5" fill="none" stroke="#99ff99" stroke-width="2"/>
<g stroke="black" stroke-width="2" fill="none">
<line x1="462" y1="177" x2="463" y2="177"/>
</g>
<path d="M471,216v -3" fill="none" stroke="#99ff99" stroke-width="2"/>
<path d="M471,213v -3" fill="none" stroke="#99ff99" stroke-width="2"/>
<g stroke="black" stroke-width="2" fill="none">
<line x1="470" y1="213" x2="471" y2="213"/>
</g>
<path d="M478,249v -8" fill="none" stroke="#99ff99" stroke-width="2"/>
<path d="M478,241v -8" fill="none" stroke="#99ff99" stroke-width="2"/>
<g stroke="black" stroke-width="2" fill="none">
<line x1="477" y1="241" x2="478" y2="241"/>
</g>
<path d="M486,305v -4" fill="none" stroke="#99ff99" stroke-width="2"/>
<path d="M486,301v -5" fill="none" stroke="#99ff99" stroke-width="2"/>
<g stroke="black" stroke-width="2" fill="none">
<line x1="485" y1="301" x2="486" y2="301"/>
</g>
<path d="M74,446h 37v -135h 8v -52h 8v -41h 7v -40h 8v -34h 7v -36h 8v -30h 7v -22h 8v -7h 8v 260h 7v 137h 227v -127h 7v -256h 8v 6h 8v 21h 7v 16h 8v 38h 7v 33h 8v 36h 7v 28h 8v 60h 7v 145h 38z" fill="#99ff99"/>
<path d="M74,446h 37v -135h 8v -52h 8v -41h 7v -40h 8v -34h 7v -36h 8v -30h 7v -22h 8v -7h 8v 260h 7v 137h 227v -127h 7v -256h 8v 6h 8v 21h 7v 16h 8v 38h 7v 33h 8v 36h 7v 28h 8v 60h 7v 145h 38" fill="none" stroke="#99ff99" stroke-width="2"/>
<path d="M115,288v -1" fill="none" stroke="#ff0099"/>
<path d="M115,285v -1" fill="none" stroke="#ff0099"/>
<path d="M111,286h 3" fill="none" stroke="#ff0099"/>
<path d="M116,286h 3" fill="none" stroke="#ff0099"/>
<g stroke="#ff0099" stroke-width="1" fill="#ff0099">
<circle cx=" 115" cy=" 286" r=" 1.5"/>
</g>
<path d="M123,244v -1" fill="none" stroke="#ff0099"/>
<path d="M123,240v -1" fill="none" stroke="#ff0099"/>
<path d="M119,242h 3" fill="none" stroke="#ff0099"/>
<path d="M124,242h 3" fill="none" stroke="#ff0099"/>
<g stroke="#ff0099" stroke-width="1" fill="#ff0099">
<circle cx=" 123" cy=" 242" r=" 1.5"/>
</g>
<path d="M130,213v -1" fill="none" stroke="#ff0099"/>
<path d="M130,210v -1" fill="none" stroke="#ff0099"/>
<path d="M127,211h 2" fill="none" stroke="#ff0099"/>
<path d="M132,211h 2" fill="none" stroke="#ff0099"/>
<g stroke="#ff0099" stroke-width="1" fill="#ff0099">
<circle cx=" 130" cy=" 211" r=" 1.5"/>
</g>
<path d="M138,174v -1" fill="none" stroke="#ff0099"/>
<path d="M138,171v -2" fill="none" stroke="#ff0099"/>
<path d="M134,172h 3" fill="none" stroke="#ff0099"/>
<path d="M139,172h 3" fill="none" stroke="#ff0099"/>
<g stroke="#ff0099" stroke-width="1" fill="#ff0099">
<circle cx=" 138" cy=" 172" r=" 1.5"/>
</g>
<path d="M146,152v -2" fill="none" stroke="#ff0099"/>
<path d="M146,148v -2" fill="none" stroke="#ff0099"/>
<path d="M142,149h 2" fill="none" stroke="#ff0099"/>
<path d="M147,149h 2" fill="none" stroke="#ff0099"/>
<g stroke="#ff0099" stroke-width="1" fill="#ff0099">
<circle cx=" 146" cy=" 149" r=" 1.5"/>
</g>
<path d="M153,121v -2" fill="none" stroke="#ff0099"/>
<path d="M153,117v -2" fill="none" stroke="#ff0099"/>
<path d="M149,118h 3" fill="none" stroke="#ff0099"/>
<path d="M154,118h 3" fill="none" stroke="#ff0099"/>
<g stroke="#ff0099" stroke-width="1" fill="#ff0099">
<circle cx=" 153" cy=" 118" r=" 1.5"/>
</g>
<path d="M161,85v -2" fill="none" stroke="#ff0099"/>
<path d="M161,81v -2" fill="none" stroke="#ff0099"/>
<path d="M157,82h 2" fill="none" stroke="#ff0099"/>
<path d="M162,82h 2" fill="none" stroke="#ff0099"/>
<g stroke="#ff0099" stroke-width="1" fill="#ff0099">
<circle cx=" 161" cy=" 82" r=" 1.5"/>
</g>
<path d="M168,72v -2" fill="none" stroke="#ff0099"/>
<path d="M168,67v -2" fill="none" stroke="#ff0099"/>
<path d="M164,69h 3" fill="none" stroke="#ff0099"/>
<path d="M169,69h 3" fill="none" stroke="#ff0099"/>
<g stroke="#ff0099" stroke-width="1" fill="#ff0099">
<circle cx=" 168" cy=" 69" r=" 1.5"/>
</g>
<path d="M176,70v -2" fill="none" stroke="#ff0099"/>
<path d="M176,65v -2" fill="none" stroke="#ff0099"/>
<path d="M172,67h 3" fill="none" stroke="#ff0099"/>
<path d="M177,67h 3" fill="none" stroke="#ff0099"/>
<g stroke="#ff0099" stroke-width="1" fill="#ff0099">
<circle cx=" 176" cy=" 67" r=" 1.5"/>
</g>
<path d="M183,318" fill="none" stroke="#ff0099"/>
<path d="M183,315" fill="none" stroke="#ff0099"/>
<path d="M180,316h 2" fill="none" stroke="#ff0099"/>
<path d="M184,316h 3" fill="none" stroke="#ff0099"/>
<g stroke="#ff0099" stroke-width="1" fill="#ff0099">
<circle cx=" 183" cy=" 316" r=" 1.5"/>
</g>
<path d="M418,323" fill="none" stroke="#ff0099"/>
<path d="M418,320" fill="none" stroke="#ff0099"/>
<path d="M414,321h 2" fill="none" stroke="#ff0099"/>
<path d="M419,321h 2" fill="none" stroke="#ff0099"/>
<g stroke="#ff0099" stroke-width="1" fill="#ff0099">
<circle cx=" 418" cy=" 321" r=" 1.5"/>
</g>
<path d="M425,83v -2" fill="none" stroke="#ff0099"/>
<path d="M425,78v -2" fill="none" stroke="#ff0099"/>
<path d="M421,80h 3" fill="none" stroke="#ff0099"/>
<path d="M426,80h 3" fill="none" stroke="#ff0099"/>
<g stroke="#ff0099" stroke-width="1" fill="#ff0099">
<circle cx=" 425" cy=" 80" r=" 1.5"/>
</g>
<path d="M433,83v -2" fill="none" stroke="#ff0099"/>
<path d="M433,79v -2" fill="none" stroke="#ff0099"/>
<path d="M429,80h 3" fill="none" stroke="#ff0099"/>
<path d="M434,80h 3" fill="none" stroke="#ff0099"/>
<g stroke="#ff0099" stroke-width="1" fill="#ff0099">
<circle cx=" 433" cy=" 80" r=" 1.5"/>
</g>
<path d="M440,106v -2" fill="none" stroke="#ff0099"/>
<path d="M440,102v -2" fill="none" stroke="#ff0099"/>
<path d="M437,103h 2" fill="none" stroke="#ff0099"/>
<path d="M441,103h 3" fill="none" stroke="#ff0099"/>
<g stroke="#ff0099" stroke-width="1" fill="#ff0099">
<circle cx=" 440" cy=" 103" r=" 1.5"/>
</g>
<path d="M448,114v -2" fill="none" stroke="#ff0099"/>
<path d="M448,110v -2" fill="none" stroke="#ff0099"/>
<path d="M444,111h 3" fill="none" stroke="#ff0099"/>
<path d="M449,111h 3" fill="none" stroke="#ff0099"/>
<g stroke="#ff0099" stroke-width="1" fill="#ff0099">
<circle cx=" 448" cy=" 111" r=" 1.5"/>
</g>
<path d="M455,145v -1" fill="none" stroke="#ff0099"/>
<path d="M455,142v -2" fill="none" stroke="#ff0099"/>
<path d="M452,143h 2" fill="none" stroke="#ff0099"/>
<path d="M457,143h 2" fill="none" stroke="#ff0099"/>
<g stroke="#ff0099" stroke-width="1" fill="#ff0099">
<circle cx=" 455" cy=" 143" r=" 1.5"/>
</g>
<path d="M463,177v -2" fill="none" stroke="#ff0099"/>
<path d="M463,173v -1" fill="none" stroke="#ff0099"/>
<path d="M459,174h 3" fill="none" stroke="#ff0099"/>
<path d="M464,174h 3" fill="none" stroke="#ff0099"/>
<g stroke="#ff0099" stroke-width="1" fill="#ff0099">
<circle cx=" 463" cy=" 174" r=" 1.5"/>
</g>
<path d="M471,201v -1" fill="none" stroke="#ff0099"/>
<path d="M471,198v -1" fill="none" stroke="#ff0099"/>
<path d="M467,199h 2" fill="none" stroke="#ff0099"/>
<path d="M472,199h 2" fill="none" stroke="#ff0099"/>
<g stroke="#ff0099" stroke-width="1" fill="#ff0099">
<circle cx=" 471" cy=" 199" r=" 1.5"/>
</g>
<path d="M478,233v -1" fill="none" stroke="#ff0099"/>
<path d="M478,230v -1" fill="none" stroke="#ff0099"/>
<path d="M474,231h 3" fill="none" stroke="#ff0099"/>
<path d="M479,231h 3" fill="none" stroke="#ff0099"/>
<g stroke="#ff0099" stroke-width="1" fill="#ff0099">
<circle cx=" 478" cy=" 231" r=" 1.5"/>
</g>
<path d="M486,282v -1" fill="none" stroke="#ff0099"/>
<path d="M486,279" fill="none" stroke="#ff0099"/>
<path d="M482,280h 3" fill="none" stroke="#ff0099"/>
<path d="M487,280h 2" fill="none" stroke="#ff0099"/>
<g stroke="#ff0099" stroke-width="1" fill="#ff0099">
<circle cx=" 486" cy=" 280" r=" 1.5"/>
</g>
<rect x="357" y="59" width="142" height="99" fill="white"/>
<text x="360" y="82" fill="black" font-size="17" font-family="Helvetica" font-weight="bold">
EE
</text>
<text x="457" y="115" fill="black" font-size="17" font-family="Helvetica" font-weight="bold">
 ee
</text>
<text x="440" y="115" fill="black" font-size="17" font-family="Times">
&#8594;
</text>
<text x="392" y="115" fill="black" font-size="17" font-family="Helvetica" font-weight="bold">
MC Z 
</text>
<path d="M362,109h 25" fill="none" stroke="#ff0099"/>
<g stroke="#ff0099" stroke-width="1" fill="#ff0099">
<circle cx=" 375" cy=" 109" r=" 1.5"/>
</g>
<text x="455" y="147" fill="black" font-size="17" font-family="Helvetica" font-weight="bold">
 + jet
</text>
<text x="447" y="147" fill="black" font-size="17" font-family="Times">
&#0947;
</text>
<text x="392" y="147" fill="black" font-size="17" font-family="Helvetica" font-weight="bold">
signal 
</text>
<path d="M362,154h 25v -24h -25z" fill="#99ff99"/>
<path d="M362,130h 25" fill="none" stroke="#99ff99" stroke-width="2"/>
<path d="M362,154h 25" fill="none" stroke="#99ff99" stroke-width="2"/>
<path d="M387,154v -24" fill="none" stroke="#99ff99" stroke-width="2"/>
<path d="M362,154v -24" fill="none" stroke="#99ff99" stroke-width="2"/>
<text x="300" y="34" fill="black" font-size="17" font-family="Helvetica" font-weight="bold">
=8 TeV
</text>
<text x="291" y="34" fill="black" font-size="17" font-family="Helvetica" font-weight="bold">
s
</text>
<path d="M285,25l 2, 10" fill="none" stroke="black" stroke-width="2"/>
<path d="M287,35l 2, -14" fill="none" stroke="black"/>
<path d="M289,21h 11" fill="none" stroke="black"/>
<text x="142" y="34" fill="black" font-size="17" font-family="Helvetica" font-weight="bold">
CMS Preliminary 
</text></svg>
