<?xml version="1.0" standalone="no"?>
<svg width="567" height="496" viewBox="0 0 567 496" xmlns="http://www.w3.org/2000/svg">
<title>
../src/TagAndProbeZ/plots_mcZee_mcGJet_withEtaR9rhoReweight/hlt150//r9PhotEE.svg
</title>
<desc>
Creator: ROOT Version 5.32/00
CreationDate: Fri Dec  5 12:51:47 2014</desc>
<defs>
</defs>
<rect x="0" y="0" width="567" height="496" fill="white"/>
<rect x="74" y="44" width="453" height="402" fill="white"/>
<rect x="74" y="44" width="453" height="402" fill="none" stroke="black"/>
<rect x="74" y="44" width="453" height="402" fill="white"/>
<rect x="74" y="44" width="453" height="402" fill="none" stroke="black"/>
<path d="M74,428h 2" fill="none" stroke="#ff0099"/>
<path d="M79,428h 2" fill="none" stroke="#ff0099"/>
<g stroke="#ff0099" stroke-width="1" fill="#ff0099">
<circle cx=" 77" cy=" 428" r=" 1.5"/>
</g>
<path d="M119,428h 3" fill="none" stroke="#ff0099"/>
<path d="M124,428h 3" fill="none" stroke="#ff0099"/>
<g stroke="#ff0099" stroke-width="1" fill="#ff0099">
<circle cx=" 123" cy=" 428" r=" 1.5"/>
</g>
<path d="M127,428h 2" fill="none" stroke="#ff0099"/>
<path d="M132,428h 2" fill="none" stroke="#ff0099"/>
<g stroke="#ff0099" stroke-width="1" fill="#ff0099">
<circle cx=" 130" cy=" 428" r=" 1.5"/>
</g>
<path d="M142,428h 2" fill="none" stroke="#ff0099"/>
<path d="M147,428h 2" fill="none" stroke="#ff0099"/>
<g stroke="#ff0099" stroke-width="1" fill="#ff0099">
<circle cx=" 146" cy=" 428" r=" 1.5"/>
</g>
<path d="M149,428h 3" fill="none" stroke="#ff0099"/>
<path d="M154,428h 3" fill="none" stroke="#ff0099"/>
<g stroke="#ff0099" stroke-width="1" fill="#ff0099">
<circle cx=" 153" cy=" 428" r=" 1.5"/>
</g>
<path d="M157,428h 2" fill="none" stroke="#ff0099"/>
<path d="M162,428h 2" fill="none" stroke="#ff0099"/>
<g stroke="#ff0099" stroke-width="1" fill="#ff0099">
<circle cx=" 161" cy=" 428" r=" 1.5"/>
</g>
<path d="M164,428h 3" fill="none" stroke="#ff0099"/>
<path d="M169,428h 3" fill="none" stroke="#ff0099"/>
<g stroke="#ff0099" stroke-width="1" fill="#ff0099">
<circle cx=" 168" cy=" 428" r=" 1.5"/>
</g>
<path d="M172,428h 3" fill="none" stroke="#ff0099"/>
<path d="M177,428h 3" fill="none" stroke="#ff0099"/>
<g stroke="#ff0099" stroke-width="1" fill="#ff0099">
<circle cx=" 176" cy=" 428" r=" 1.5"/>
</g>
<path d="M180,428h 2" fill="none" stroke="#ff0099"/>
<path d="M184,428h 3" fill="none" stroke="#ff0099"/>
<g stroke="#ff0099" stroke-width="1" fill="#ff0099">
<circle cx=" 183" cy=" 428" r=" 1.5"/>
</g>
<path d="M187,428h 3" fill="none" stroke="#ff0099"/>
<path d="M192,428h 3" fill="none" stroke="#ff0099"/>
<g stroke="#ff0099" stroke-width="1" fill="#ff0099">
<circle cx=" 191" cy=" 428" r=" 1.5"/>
</g>
<path d="M195,428h 2" fill="none" stroke="#ff0099"/>
<path d="M200,428h 2" fill="none" stroke="#ff0099"/>
<g stroke="#ff0099" stroke-width="1" fill="#ff0099">
<circle cx=" 198" cy=" 428" r=" 1.5"/>
</g>
<path d="M202,428h 3" fill="none" stroke="#ff0099"/>
<path d="M207,428h 3" fill="none" stroke="#ff0099"/>
<g stroke="#ff0099" stroke-width="1" fill="#ff0099">
<circle cx=" 206" cy=" 428" r=" 1.5"/>
</g>
<path d="M210,428h 2" fill="none" stroke="#ff0099"/>
<path d="M215,428h 2" fill="none" stroke="#ff0099"/>
<g stroke="#ff0099" stroke-width="1" fill="#ff0099">
<circle cx=" 214" cy=" 428" r=" 1.5"/>
</g>
<path d="M217,427h 3" fill="none" stroke="#ff0099"/>
<path d="M222,427h 3" fill="none" stroke="#ff0099"/>
<g stroke="#ff0099" stroke-width="1" fill="#ff0099">
<circle cx=" 221" cy=" 427" r=" 1.5"/>
</g>
<path d="M225,427h 3" fill="none" stroke="#ff0099"/>
<path d="M230,427h 2" fill="none" stroke="#ff0099"/>
<g stroke="#ff0099" stroke-width="1" fill="#ff0099">
<circle cx=" 229" cy=" 427" r=" 1.5"/>
</g>
<path d="M232,427h 3" fill="none" stroke="#ff0099"/>
<path d="M237,427h 3" fill="none" stroke="#ff0099"/>
<g stroke="#ff0099" stroke-width="1" fill="#ff0099">
<circle cx=" 236" cy=" 427" r=" 1.5"/>
</g>
<path d="M240,427h 3" fill="none" stroke="#ff0099"/>
<path d="M245,427h 3" fill="none" stroke="#ff0099"/>
<g stroke="#ff0099" stroke-width="1" fill="#ff0099">
<circle cx=" 244" cy=" 427" r=" 1.5"/>
</g>
<path d="M248,426h 2" fill="none" stroke="#ff0099"/>
<path d="M252,426h 3" fill="none" stroke="#ff0099"/>
<g stroke="#ff0099" stroke-width="1" fill="#ff0099">
<circle cx=" 251" cy=" 426" r=" 1.5"/>
</g>
<path d="M255,426h 3" fill="none" stroke="#ff0099"/>
<path d="M260,426h 3" fill="none" stroke="#ff0099"/>
<g stroke="#ff0099" stroke-width="1" fill="#ff0099">
<circle cx=" 259" cy=" 426" r=" 1.5"/>
</g>
<path d="M263,426h 2" fill="none" stroke="#ff0099"/>
<path d="M268,426h 2" fill="none" stroke="#ff0099"/>
<g stroke="#ff0099" stroke-width="1" fill="#ff0099">
<circle cx=" 266" cy=" 426" r=" 1.5"/>
</g>
<path d="M270,425h 3" fill="none" stroke="#ff0099"/>
<path d="M275,425h 3" fill="none" stroke="#ff0099"/>
<g stroke="#ff0099" stroke-width="1" fill="#ff0099">
<circle cx=" 274" cy=" 425" r=" 1.5"/>
</g>
<path d="M278,424h 2" fill="none" stroke="#ff0099"/>
<path d="M283,424h 2" fill="none" stroke="#ff0099"/>
<g stroke="#ff0099" stroke-width="1" fill="#ff0099">
<circle cx=" 282" cy=" 424" r=" 1.5"/>
</g>
<path d="M285,424h 3" fill="none" stroke="#ff0099"/>
<path d="M290,424h 3" fill="none" stroke="#ff0099"/>
<g stroke="#ff0099" stroke-width="1" fill="#ff0099">
<circle cx=" 289" cy=" 424" r=" 1.5"/>
</g>
<path d="M293,423h 3" fill="none" stroke="#ff0099"/>
<path d="M298,423h 2" fill="none" stroke="#ff0099"/>
<g stroke="#ff0099" stroke-width="1" fill="#ff0099">
<circle cx=" 297" cy=" 423" r=" 1.5"/>
</g>
<path d="M300,422h 3" fill="none" stroke="#ff0099"/>
<path d="M305,422h 3" fill="none" stroke="#ff0099"/>
<g stroke="#ff0099" stroke-width="1" fill="#ff0099">
<circle cx=" 304" cy=" 422" r=" 1.5"/>
</g>
<path d="M308,421h 3" fill="none" stroke="#ff0099"/>
<path d="M313,421h 3" fill="none" stroke="#ff0099"/>
<g stroke="#ff0099" stroke-width="1" fill="#ff0099">
<circle cx=" 312" cy=" 421" r=" 1.5"/>
</g>
<path d="M316,421h 2" fill="none" stroke="#ff0099"/>
<path d="M321,421h 2" fill="none" stroke="#ff0099"/>
<g stroke="#ff0099" stroke-width="1" fill="#ff0099">
<circle cx=" 319" cy=" 421" r=" 1.5"/>
</g>
<path d="M323,420h 3" fill="none" stroke="#ff0099"/>
<path d="M328,420h 3" fill="none" stroke="#ff0099"/>
<g stroke="#ff0099" stroke-width="1" fill="#ff0099">
<circle cx=" 327" cy=" 420" r=" 1.5"/>
</g>
<path d="M331,418h 2" fill="none" stroke="#ff0099"/>
<path d="M336,418h 2" fill="none" stroke="#ff0099"/>
<g stroke="#ff0099" stroke-width="1" fill="#ff0099">
<circle cx=" 334" cy=" 418" r=" 1.5"/>
</g>
<path d="M338,418h 3" fill="none" stroke="#ff0099"/>
<path d="M343,418h 3" fill="none" stroke="#ff0099"/>
<g stroke="#ff0099" stroke-width="1" fill="#ff0099">
<circle cx=" 342" cy=" 418" r=" 1.5"/>
</g>
<path d="M346,416h 2" fill="none" stroke="#ff0099"/>
<path d="M351,416h 2" fill="none" stroke="#ff0099"/>
<g stroke="#ff0099" stroke-width="1" fill="#ff0099">
<circle cx=" 350" cy=" 416" r=" 1.5"/>
</g>
<path d="M353,414h 3" fill="none" stroke="#ff0099"/>
<path d="M358,414h 3" fill="none" stroke="#ff0099"/>
<g stroke="#ff0099" stroke-width="1" fill="#ff0099">
<circle cx=" 357" cy=" 414" r=" 1.5"/>
</g>
<path d="M361,413h 3" fill="none" stroke="#ff0099"/>
<path d="M366,413h 3" fill="none" stroke="#ff0099"/>
<g stroke="#ff0099" stroke-width="1" fill="#ff0099">
<circle cx=" 365" cy=" 413" r=" 1.5"/>
</g>
<path d="M369,411h 2" fill="none" stroke="#ff0099"/>
<path d="M373,411h 3" fill="none" stroke="#ff0099"/>
<g stroke="#ff0099" stroke-width="1" fill="#ff0099">
<circle cx=" 372" cy=" 411" r=" 1.5"/>
</g>
<path d="M376,409h 3" fill="none" stroke="#ff0099"/>
<path d="M381,409h 3" fill="none" stroke="#ff0099"/>
<g stroke="#ff0099" stroke-width="1" fill="#ff0099">
<circle cx=" 380" cy=" 409" r=" 1.5"/>
</g>
<path d="M384,405h 2" fill="none" stroke="#ff0099"/>
<path d="M389,405h 2" fill="none" stroke="#ff0099"/>
<g stroke="#ff0099" stroke-width="1" fill="#ff0099">
<circle cx=" 387" cy=" 405" r=" 1.5"/>
</g>
<path d="M391,402h 3" fill="none" stroke="#ff0099"/>
<path d="M396,402h 3" fill="none" stroke="#ff0099"/>
<g stroke="#ff0099" stroke-width="1" fill="#ff0099">
<circle cx=" 395" cy=" 402" r=" 1.5"/>
</g>
<path d="M399,400h 2" fill="none" stroke="#ff0099"/>
<path d="M404,400h 2" fill="none" stroke="#ff0099"/>
<g stroke="#ff0099" stroke-width="1" fill="#ff0099">
<circle cx=" 403" cy=" 400" r=" 1.5"/>
</g>
<path d="M406,395h 3" fill="none" stroke="#ff0099"/>
<path d="M411,395h 3" fill="none" stroke="#ff0099"/>
<g stroke="#ff0099" stroke-width="1" fill="#ff0099">
<circle cx=" 410" cy=" 395" r=" 1.5"/>
</g>
<path d="M414,389h 2" fill="none" stroke="#ff0099"/>
<path d="M419,389h 2" fill="none" stroke="#ff0099"/>
<g stroke="#ff0099" stroke-width="1" fill="#ff0099">
<circle cx=" 418" cy=" 389" r=" 1.5"/>
</g>
<path d="M421,385h 3" fill="none" stroke="#ff0099"/>
<path d="M426,385h 3" fill="none" stroke="#ff0099"/>
<g stroke="#ff0099" stroke-width="1" fill="#ff0099">
<circle cx=" 425" cy=" 385" r=" 1.5"/>
</g>
<path d="M429,377h 3" fill="none" stroke="#ff0099"/>
<path d="M434,377h 3" fill="none" stroke="#ff0099"/>
<g stroke="#ff0099" stroke-width="1" fill="#ff0099">
<circle cx=" 433" cy=" 377" r=" 1.5"/>
</g>
<path d="M437,367h 2" fill="none" stroke="#ff0099"/>
<path d="M441,367h 3" fill="none" stroke="#ff0099"/>
<g stroke="#ff0099" stroke-width="1" fill="#ff0099">
<circle cx=" 440" cy=" 367" r=" 1.5"/>
</g>
<path d="M444,354h 3" fill="none" stroke="#ff0099"/>
<path d="M449,354h 3" fill="none" stroke="#ff0099"/>
<g stroke="#ff0099" stroke-width="1" fill="#ff0099">
<circle cx=" 448" cy=" 354" r=" 1.5"/>
</g>
<path d="M452,341h 2" fill="none" stroke="#ff0099"/>
<path d="M457,341h 2" fill="none" stroke="#ff0099"/>
<g stroke="#ff0099" stroke-width="1" fill="#ff0099">
<circle cx=" 455" cy=" 341" r=" 1.5"/>
</g>
<path d="M459,321h 3" fill="none" stroke="#ff0099"/>
<path d="M464,321h 3" fill="none" stroke="#ff0099"/>
<g stroke="#ff0099" stroke-width="1" fill="#ff0099">
<circle cx=" 463" cy=" 321" r=" 1.5"/>
</g>
<path d="M471,298" fill="none" stroke="#ff0099"/>
<path d="M471,295" fill="none" stroke="#ff0099"/>
<path d="M467,297h 2" fill="none" stroke="#ff0099"/>
<path d="M472,297h 2" fill="none" stroke="#ff0099"/>
<g stroke="#ff0099" stroke-width="1" fill="#ff0099">
<circle cx=" 471" cy=" 297" r=" 1.5"/>
</g>
<path d="M478,267" fill="none" stroke="#ff0099"/>
<path d="M478,264" fill="none" stroke="#ff0099"/>
<path d="M474,266h 3" fill="none" stroke="#ff0099"/>
<path d="M479,266h 3" fill="none" stroke="#ff0099"/>
<g stroke="#ff0099" stroke-width="1" fill="#ff0099">
<circle cx=" 478" cy=" 266" r=" 1.5"/>
</g>
<path d="M486,220" fill="none" stroke="#ff0099"/>
<path d="M486,218v -1" fill="none" stroke="#ff0099"/>
<path d="M482,219h 3" fill="none" stroke="#ff0099"/>
<path d="M487,219h 2" fill="none" stroke="#ff0099"/>
<g stroke="#ff0099" stroke-width="1" fill="#ff0099">
<circle cx=" 486" cy=" 219" r=" 1.5"/>
</g>
<path d="M493,168v -1" fill="none" stroke="#ff0099"/>
<path d="M493,165" fill="none" stroke="#ff0099"/>
<path d="M489,166h 3" fill="none" stroke="#ff0099"/>
<path d="M494,166h 3" fill="none" stroke="#ff0099"/>
<g stroke="#ff0099" stroke-width="1" fill="#ff0099">
<circle cx=" 493" cy=" 166" r=" 1.5"/>
</g>
<path d="M501,101v -1" fill="none" stroke="#ff0099"/>
<path d="M501,98v -1" fill="none" stroke="#ff0099"/>
<path d="M497,99h 3" fill="none" stroke="#ff0099"/>
<path d="M502,99h 3" fill="none" stroke="#ff0099"/>
<g stroke="#ff0099" stroke-width="1" fill="#ff0099">
<circle cx=" 501" cy=" 99" r=" 1.5"/>
</g>
<path d="M508,67v -1" fill="none" stroke="#ff0099"/>
<path d="M508,64v -1" fill="none" stroke="#ff0099"/>
<path d="M505,65h 2" fill="none" stroke="#ff0099"/>
<path d="M509,65h 3" fill="none" stroke="#ff0099"/>
<g stroke="#ff0099" stroke-width="1" fill="#ff0099">
<circle cx=" 508" cy=" 65" r=" 1.5"/>
</g>
<path d="M512,285h 3" fill="none" stroke="#ff0099"/>
<path d="M517,285h 3" fill="none" stroke="#ff0099"/>
<g stroke="#ff0099" stroke-width="1" fill="#ff0099">
<circle cx=" 516" cy=" 285" r=" 1.5"/>
</g>
<path d="M520,426h 2" fill="none" stroke="#ff0099"/>
<path d="M525,426h 2" fill="none" stroke="#ff0099"/>
<g stroke="#ff0099" stroke-width="1" fill="#ff0099">
<circle cx=" 523" cy=" 426" r=" 1.5"/>
</g>
<path d="M74,446h 453" fill="none" stroke="black"/>
<path d="M74,434v 12" fill="none" stroke="black"/>
<path d="M83,440v 6" fill="none" stroke="black"/>
<path d="M92,440v 6" fill="none" stroke="black"/>
<path d="M101,440v 6" fill="none" stroke="black"/>
<path d="M110,440v 6" fill="none" stroke="black"/>
<path d="M119,434v 12" fill="none" stroke="black"/>
<path d="M128,440v 6" fill="none" stroke="black"/>
<path d="M137,440v 6" fill="none" stroke="black"/>
<path d="M146,440v 6" fill="none" stroke="black"/>
<path d="M155,440v 6" fill="none" stroke="black"/>
<path d="M164,434v 12" fill="none" stroke="black"/>
<path d="M173,440v 6" fill="none" stroke="black"/>
<path d="M183,440v 6" fill="none" stroke="black"/>
<path d="M192,440v 6" fill="none" stroke="black"/>
<path d="M201,440v 6" fill="none" stroke="black"/>
<path d="M210,434v 12" fill="none" stroke="black"/>
<path d="M219,440v 6" fill="none" stroke="black"/>
<path d="M228,440v 6" fill="none" stroke="black"/>
<path d="M237,440v 6" fill="none" stroke="black"/>
<path d="M246,440v 6" fill="none" stroke="black"/>
<path d="M255,434v 12" fill="none" stroke="black"/>
<path d="M264,440v 6" fill="none" stroke="black"/>
<path d="M273,440v 6" fill="none" stroke="black"/>
<path d="M282,440v 6" fill="none" stroke="black"/>
<path d="M291,440v 6" fill="none" stroke="black"/>
<path d="M300,434v 12" fill="none" stroke="black"/>
<path d="M310,440v 6" fill="none" stroke="black"/>
<path d="M319,440v 6" fill="none" stroke="black"/>
<path d="M328,440v 6" fill="none" stroke="black"/>
<path d="M337,440v 6" fill="none" stroke="black"/>
<path d="M346,434v 12" fill="none" stroke="black"/>
<path d="M355,440v 6" fill="none" stroke="black"/>
<path d="M364,440v 6" fill="none" stroke="black"/>
<path d="M373,440v 6" fill="none" stroke="black"/>
<path d="M382,440v 6" fill="none" stroke="black"/>
<path d="M391,434v 12" fill="none" stroke="black"/>
<path d="M400,440v 6" fill="none" stroke="black"/>
<path d="M409,440v 6" fill="none" stroke="black"/>
<path d="M418,440v 6" fill="none" stroke="black"/>
<path d="M427,440v 6" fill="none" stroke="black"/>
<path d="M437,434v 12" fill="none" stroke="black"/>
<path d="M446,440v 6" fill="none" stroke="black"/>
<path d="M455,440v 6" fill="none" stroke="black"/>
<path d="M464,440v 6" fill="none" stroke="black"/>
<path d="M473,440v 6" fill="none" stroke="black"/>
<path d="M482,434v 12" fill="none" stroke="black"/>
<path d="M491,440v 6" fill="none" stroke="black"/>
<path d="M500,440v 6" fill="none" stroke="black"/>
<path d="M509,440v 6" fill="none" stroke="black"/>
<path d="M518,440v 6" fill="none" stroke="black"/>
<path d="M527,434v 12" fill="none" stroke="black"/>
<text x="68" y="465" fill="black" font-size="18" font-family="Helvetica" font-weight="bold">
0
</text>
<text x="107" y="465" fill="black" font-size="18" font-family="Helvetica" font-weight="bold">
0.1
</text>
<text x="151" y="465" fill="black" font-size="18" font-family="Helvetica" font-weight="bold">
0.2
</text>
<text x="196" y="465" fill="black" font-size="18" font-family="Helvetica" font-weight="bold">
0.3
</text>
<text x="242" y="465" fill="black" font-size="18" font-family="Helvetica" font-weight="bold">
0.4
</text>
<text x="287" y="465" fill="black" font-size="18" font-family="Helvetica" font-weight="bold">
0.5
</text>
<text x="332" y="465" fill="black" font-size="18" font-family="Helvetica" font-weight="bold">
0.6
</text>
<text x="378" y="465" fill="black" font-size="18" font-family="Helvetica" font-weight="bold">
0.7
</text>
<text x="423" y="465" fill="black" font-size="18" font-family="Helvetica" font-weight="bold">
0.8
</text>
<text x="468" y="465" fill="black" font-size="18" font-family="Helvetica" font-weight="bold">
0.9
</text>
<text x="523" y="465" fill="black" font-size="18" font-family="Helvetica" font-weight="bold">
1
</text>
<path d="M74,44h 453" fill="none" stroke="black"/>
<path d="M74,56v -12" fill="none" stroke="black"/>
<path d="M83,50v -6" fill="none" stroke="black"/>
<path d="M92,50v -6" fill="none" stroke="black"/>
<path d="M101,50v -6" fill="none" stroke="black"/>
<path d="M110,50v -6" fill="none" stroke="black"/>
<path d="M119,56v -12" fill="none" stroke="black"/>
<path d="M128,50v -6" fill="none" stroke="black"/>
<path d="M137,50v -6" fill="none" stroke="black"/>
<path d="M146,50v -6" fill="none" stroke="black"/>
<path d="M155,50v -6" fill="none" stroke="black"/>
<path d="M164,56v -12" fill="none" stroke="black"/>
<path d="M173,50v -6" fill="none" stroke="black"/>
<path d="M183,50v -6" fill="none" stroke="black"/>
<path d="M192,50v -6" fill="none" stroke="black"/>
<path d="M201,50v -6" fill="none" stroke="black"/>
<path d="M210,56v -12" fill="none" stroke="black"/>
<path d="M219,50v -6" fill="none" stroke="black"/>
<path d="M228,50v -6" fill="none" stroke="black"/>
<path d="M237,50v -6" fill="none" stroke="black"/>
<path d="M246,50v -6" fill="none" stroke="black"/>
<path d="M255,56v -12" fill="none" stroke="black"/>
<path d="M264,50v -6" fill="none" stroke="black"/>
<path d="M273,50v -6" fill="none" stroke="black"/>
<path d="M282,50v -6" fill="none" stroke="black"/>
<path d="M291,50v -6" fill="none" stroke="black"/>
<path d="M300,56v -12" fill="none" stroke="black"/>
<path d="M310,50v -6" fill="none" stroke="black"/>
<path d="M319,50v -6" fill="none" stroke="black"/>
<path d="M328,50v -6" fill="none" stroke="black"/>
<path d="M337,50v -6" fill="none" stroke="black"/>
<path d="M346,56v -12" fill="none" stroke="black"/>
<path d="M355,50v -6" fill="none" stroke="black"/>
<path d="M364,50v -6" fill="none" stroke="black"/>
<path d="M373,50v -6" fill="none" stroke="black"/>
<path d="M382,50v -6" fill="none" stroke="black"/>
<path d="M391,56v -12" fill="none" stroke="black"/>
<path d="M400,50v -6" fill="none" stroke="black"/>
<path d="M409,50v -6" fill="none" stroke="black"/>
<path d="M418,50v -6" fill="none" stroke="black"/>
<path d="M427,50v -6" fill="none" stroke="black"/>
<path d="M437,56v -12" fill="none" stroke="black"/>
<path d="M446,50v -6" fill="none" stroke="black"/>
<path d="M455,50v -6" fill="none" stroke="black"/>
<path d="M464,50v -6" fill="none" stroke="black"/>
<path d="M473,50v -6" fill="none" stroke="black"/>
<path d="M482,56v -12" fill="none" stroke="black"/>
<path d="M491,50v -6" fill="none" stroke="black"/>
<path d="M500,50v -6" fill="none" stroke="black"/>
<path d="M509,50v -6" fill="none" stroke="black"/>
<path d="M518,50v -6" fill="none" stroke="black"/>
<path d="M527,56v -12" fill="none" stroke="black"/>
<path d="M74,446v -402" fill="none" stroke="black"/>
<path d="M87,428h -13" fill="none" stroke="black"/>
<path d="M81,416h -7" fill="none" stroke="black"/>
<path d="M81,405h -7" fill="none" stroke="black"/>
<path d="M81,393h -7" fill="none" stroke="black"/>
<path d="M87,382h -13" fill="none" stroke="black"/>
<path d="M81,370h -7" fill="none" stroke="black"/>
<path d="M81,358h -7" fill="none" stroke="black"/>
<path d="M81,347h -7" fill="none" stroke="black"/>
<path d="M87,335h -13" fill="none" stroke="black"/>
<path d="M81,323h -7" fill="none" stroke="black"/>
<path d="M81,312h -7" fill="none" stroke="black"/>
<path d="M81,300h -7" fill="none" stroke="black"/>
<path d="M87,288h -13" fill="none" stroke="black"/>
<path d="M81,277h -7" fill="none" stroke="black"/>
<path d="M81,265h -7" fill="none" stroke="black"/>
<path d="M81,253h -7" fill="none" stroke="black"/>
<path d="M87,242h -13" fill="none" stroke="black"/>
<path d="M81,230h -7" fill="none" stroke="black"/>
<path d="M81,218h -7" fill="none" stroke="black"/>
<path d="M81,207h -7" fill="none" stroke="black"/>
<path d="M87,195h -13" fill="none" stroke="black"/>
<path d="M81,184h -7" fill="none" stroke="black"/>
<path d="M81,172h -7" fill="none" stroke="black"/>
<path d="M81,160h -7" fill="none" stroke="black"/>
<path d="M87,149h -13" fill="none" stroke="black"/>
<path d="M81,137h -7" fill="none" stroke="black"/>
<path d="M81,125h -7" fill="none" stroke="black"/>
<path d="M81,114h -7" fill="none" stroke="black"/>
<path d="M87,102h -13" fill="none" stroke="black"/>
<path d="M81,90h -7" fill="none" stroke="black"/>
<path d="M81,79h -7" fill="none" stroke="black"/>
<path d="M81,67h -7" fill="none" stroke="black"/>
<path d="M87,55h -13" fill="none" stroke="black"/>
<path d="M87,428h -13" fill="none" stroke="black"/>
<path d="M81,440h -7" fill="none" stroke="black"/>
<path d="M87,55h -13" fill="none" stroke="black"/>
<text x="61" y="435" fill="black" font-size="18" font-family="Helvetica" font-weight="bold">
0
</text>
<text x="35" y="388" fill="black" font-size="18" font-family="Helvetica" font-weight="bold">
0.02
</text>
<text x="34" y="342" fill="black" font-size="18" font-family="Helvetica" font-weight="bold">
0.04
</text>
<text x="34" y="295" fill="black" font-size="18" font-family="Helvetica" font-weight="bold">
0.06
</text>
<text x="35" y="248" fill="black" font-size="18" font-family="Helvetica" font-weight="bold">
0.08
</text>
<text x="47" y="202" fill="black" font-size="18" font-family="Helvetica" font-weight="bold">
0.1
</text>
<text x="35" y="155" fill="black" font-size="18" font-family="Helvetica" font-weight="bold">
0.12
</text>
<text x="34" y="108" fill="black" font-size="18" font-family="Helvetica" font-weight="bold">
0.14
</text>
<text x="34" y="62" fill="black" font-size="18" font-family="Helvetica" font-weight="bold">
0.16
</text>
<path d="M93,428" fill="none" stroke="#99ff99" stroke-width="2"/>
<path d="M93,428" fill="none" stroke="#99ff99" stroke-width="2"/>
<g stroke="black" stroke-width="2" fill="none">
<line x1="92" y1="428" x2="93" y2="428"/>
</g>
<path d="M236,428" fill="none" stroke="#99ff99" stroke-width="2"/>
<path d="M236,428" fill="none" stroke="#99ff99" stroke-width="2"/>
<g stroke="black" stroke-width="2" fill="none">
<line x1="235" y1="428" x2="236" y2="428"/>
</g>
<path d="M244,428" fill="none" stroke="#99ff99" stroke-width="2"/>
<path d="M244,428" fill="none" stroke="#99ff99" stroke-width="2"/>
<g stroke="black" stroke-width="2" fill="none">
<line x1="243" y1="428" x2="244" y2="428"/>
</g>
<path d="M259,428" fill="none" stroke="#99ff99" stroke-width="2"/>
<path d="M259,428" fill="none" stroke="#99ff99" stroke-width="2"/>
<g stroke="black" stroke-width="2" fill="none">
<line x1="258" y1="428" x2="259" y2="428"/>
</g>
<path d="M297,428" fill="none" stroke="#99ff99" stroke-width="2"/>
<path d="M297,428" fill="none" stroke="#99ff99" stroke-width="2"/>
<g stroke="black" stroke-width="2" fill="none">
<line x1="296" y1="428" x2="297" y2="428"/>
</g>
<path d="M304,428" fill="none" stroke="#99ff99" stroke-width="2"/>
<path d="M304,428" fill="none" stroke="#99ff99" stroke-width="2"/>
<g stroke="black" stroke-width="2" fill="none">
<line x1="303" y1="428" x2="304" y2="428"/>
</g>
<path d="M312,428" fill="none" stroke="#99ff99" stroke-width="2"/>
<path d="M312,428" fill="none" stroke="#99ff99" stroke-width="2"/>
<g stroke="black" stroke-width="2" fill="none">
<line x1="311" y1="428" x2="312" y2="428"/>
</g>
<path d="M319,428" fill="none" stroke="#99ff99" stroke-width="2"/>
<path d="M319,428" fill="none" stroke="#99ff99" stroke-width="2"/>
<g stroke="black" stroke-width="2" fill="none">
<line x1="318" y1="428" x2="319" y2="428"/>
</g>
<path d="M327,428" fill="none" stroke="#99ff99" stroke-width="2"/>
<path d="M327,428" fill="none" stroke="#99ff99" stroke-width="2"/>
<g stroke="black" stroke-width="2" fill="none">
<line x1="326" y1="428" x2="327" y2="428"/>
</g>
<path d="M334,428" fill="none" stroke="#99ff99" stroke-width="2"/>
<path d="M334,428" fill="none" stroke="#99ff99" stroke-width="2"/>
<g stroke="black" stroke-width="2" fill="none">
<line x1="333" y1="428" x2="334" y2="428"/>
</g>
<path d="M342,428" fill="none" stroke="#99ff99" stroke-width="2"/>
<path d="M342,428" fill="none" stroke="#99ff99" stroke-width="2"/>
<g stroke="black" stroke-width="2" fill="none">
<line x1="341" y1="428" x2="342" y2="428"/>
</g>
<path d="M350,428" fill="none" stroke="#99ff99" stroke-width="2"/>
<path d="M350,428" fill="none" stroke="#99ff99" stroke-width="2"/>
<g stroke="black" stroke-width="2" fill="none">
<line x1="349" y1="428" x2="350" y2="428"/>
</g>
<path d="M357,428" fill="none" stroke="#99ff99" stroke-width="2"/>
<path d="M357,428" fill="none" stroke="#99ff99" stroke-width="2"/>
<g stroke="black" stroke-width="2" fill="none">
<line x1="356" y1="428" x2="357" y2="428"/>
</g>
<path d="M365,428" fill="none" stroke="#99ff99" stroke-width="2"/>
<path d="M365,428" fill="none" stroke="#99ff99" stroke-width="2"/>
<g stroke="black" stroke-width="2" fill="none">
<line x1="364" y1="428" x2="365" y2="428"/>
</g>
<path d="M372,428" fill="none" stroke="#99ff99" stroke-width="2"/>
<path d="M372,428" fill="none" stroke="#99ff99" stroke-width="2"/>
<g stroke="black" stroke-width="2" fill="none">
<line x1="371" y1="428" x2="372" y2="428"/>
</g>
<path d="M380,427v -1" fill="none" stroke="#99ff99" stroke-width="2"/>
<path d="M380,426v -2" fill="none" stroke="#99ff99" stroke-width="2"/>
<g stroke="black" stroke-width="2" fill="none">
<line x1="379" y1="426" x2="380" y2="426"/>
</g>
<path d="M387,428" fill="none" stroke="#99ff99" stroke-width="2"/>
<path d="M387,428" fill="none" stroke="#99ff99" stroke-width="2"/>
<g stroke="black" stroke-width="2" fill="none">
<line x1="386" y1="428" x2="387" y2="428"/>
</g>
<path d="M395,428v -1" fill="none" stroke="#99ff99" stroke-width="2"/>
<path d="M395,427" fill="none" stroke="#99ff99" stroke-width="2"/>
<g stroke="black" stroke-width="2" fill="none">
<line x1="394" y1="427" x2="395" y2="427"/>
</g>
<path d="M403,428v -1" fill="none" stroke="#99ff99" stroke-width="2"/>
<path d="M403,427" fill="none" stroke="#99ff99" stroke-width="2"/>
<g stroke="black" stroke-width="2" fill="none">
<line x1="402" y1="427" x2="403" y2="427"/>
</g>
<path d="M410,427" fill="none" stroke="#99ff99" stroke-width="2"/>
<path d="M410,427" fill="none" stroke="#99ff99" stroke-width="2"/>
<g stroke="black" stroke-width="2" fill="none">
<line x1="409" y1="427" x2="410" y2="427"/>
</g>
<path d="M418,427" fill="none" stroke="#99ff99" stroke-width="2"/>
<path d="M418,427" fill="none" stroke="#99ff99" stroke-width="2"/>
<g stroke="black" stroke-width="2" fill="none">
<line x1="417" y1="427" x2="418" y2="427"/>
</g>
<path d="M425,427" fill="none" stroke="#99ff99" stroke-width="2"/>
<path d="M425,427v -1" fill="none" stroke="#99ff99" stroke-width="2"/>
<g stroke="black" stroke-width="2" fill="none">
<line x1="424" y1="427" x2="425" y2="427"/>
</g>
<path d="M433,426" fill="none" stroke="#99ff99" stroke-width="2"/>
<path d="M433,426" fill="none" stroke="#99ff99" stroke-width="2"/>
<g stroke="black" stroke-width="2" fill="none">
<line x1="432" y1="426" x2="433" y2="426"/>
</g>
<path d="M440,425" fill="none" stroke="#99ff99" stroke-width="2"/>
<path d="M440,425v -1" fill="none" stroke="#99ff99" stroke-width="2"/>
<g stroke="black" stroke-width="2" fill="none">
<line x1="439" y1="425" x2="440" y2="425"/>
</g>
<path d="M448,424" fill="none" stroke="#99ff99" stroke-width="2"/>
<path d="M448,424v -1" fill="none" stroke="#99ff99" stroke-width="2"/>
<g stroke="black" stroke-width="2" fill="none">
<line x1="447" y1="424" x2="448" y2="424"/>
</g>
<path d="M455,421" fill="none" stroke="#99ff99" stroke-width="2"/>
<path d="M455,421v -1" fill="none" stroke="#99ff99" stroke-width="2"/>
<g stroke="black" stroke-width="2" fill="none">
<line x1="454" y1="421" x2="455" y2="421"/>
</g>
<path d="M463,418" fill="none" stroke="#99ff99" stroke-width="2"/>
<path d="M463,418v -1" fill="none" stroke="#99ff99" stroke-width="2"/>
<g stroke="black" stroke-width="2" fill="none">
<line x1="462" y1="418" x2="463" y2="418"/>
</g>
<path d="M471,410v -1" fill="none" stroke="#99ff99" stroke-width="2"/>
<path d="M471,409v -1" fill="none" stroke="#99ff99" stroke-width="2"/>
<g stroke="black" stroke-width="2" fill="none">
<line x1="470" y1="409" x2="471" y2="409"/>
</g>
<path d="M478,397v -1" fill="none" stroke="#99ff99" stroke-width="2"/>
<path d="M478,396" fill="none" stroke="#99ff99" stroke-width="2"/>
<g stroke="black" stroke-width="2" fill="none">
<line x1="477" y1="396" x2="478" y2="396"/>
</g>
<path d="M486,375v -1" fill="none" stroke="#99ff99" stroke-width="2"/>
<path d="M486,374v -1" fill="none" stroke="#99ff99" stroke-width="2"/>
<g stroke="black" stroke-width="2" fill="none">
<line x1="485" y1="374" x2="486" y2="374"/>
</g>
<path d="M493,333v -2" fill="none" stroke="#99ff99" stroke-width="2"/>
<path d="M493,331v -2" fill="none" stroke="#99ff99" stroke-width="2"/>
<g stroke="black" stroke-width="2" fill="none">
<line x1="492" y1="331" x2="493" y2="331"/>
</g>
<path d="M501,235v -4" fill="none" stroke="#99ff99" stroke-width="2"/>
<path d="M501,231v -4" fill="none" stroke="#99ff99" stroke-width="2"/>
<g stroke="black" stroke-width="2" fill="none">
<line x1="500" y1="231" x2="501" y2="231"/>
</g>
<path d="M523,389" fill="none" stroke="#99ff99" stroke-width="2"/>
<path d="M523,389v -1" fill="none" stroke="#99ff99" stroke-width="2"/>
<g stroke="black" stroke-width="2" fill="none">
<line x1="522" y1="389" x2="523" y2="389"/>
</g>
<path d="M74,428h 302v -2h 8v 2h 7v -1h 38v -1h 8v -1h 7v -1h 8v -3h 7v -3h 8v -9h 7v -13h 8v -22h 7v -43h 8v -100h 8v -187h 15v 345h 7v 39z" fill="#99ff99"/>
<path d="M74,428h 302v -2h 8v 2h 7v -1h 38v -1h 8v -1h 7v -1h 8v -3h 7v -3h 8v -9h 7v -13h 8v -22h 7v -43h 8v -100h 8v -187" fill="none" stroke="#99ff99" stroke-width="2"/>
<path d="M520,44v 345" fill="none" stroke="#99ff99" stroke-width="2"/>
<path d="M520,389h 7" fill="none" stroke="#99ff99" stroke-width="2"/>
<path d="M74,428h 2" fill="none" stroke="#ff0099"/>
<path d="M79,428h 2" fill="none" stroke="#ff0099"/>
<g stroke="#ff0099" stroke-width="1" fill="#ff0099">
<circle cx=" 77" cy=" 428" r=" 1.5"/>
</g>
<path d="M119,428h 3" fill="none" stroke="#ff0099"/>
<path d="M124,428h 3" fill="none" stroke="#ff0099"/>
<g stroke="#ff0099" stroke-width="1" fill="#ff0099">
<circle cx=" 123" cy=" 428" r=" 1.5"/>
</g>
<path d="M127,428h 2" fill="none" stroke="#ff0099"/>
<path d="M132,428h 2" fill="none" stroke="#ff0099"/>
<g stroke="#ff0099" stroke-width="1" fill="#ff0099">
<circle cx=" 130" cy=" 428" r=" 1.5"/>
</g>
<path d="M142,428h 2" fill="none" stroke="#ff0099"/>
<path d="M147,428h 2" fill="none" stroke="#ff0099"/>
<g stroke="#ff0099" stroke-width="1" fill="#ff0099">
<circle cx=" 146" cy=" 428" r=" 1.5"/>
</g>
<path d="M149,428h 3" fill="none" stroke="#ff0099"/>
<path d="M154,428h 3" fill="none" stroke="#ff0099"/>
<g stroke="#ff0099" stroke-width="1" fill="#ff0099">
<circle cx=" 153" cy=" 428" r=" 1.5"/>
</g>
<path d="M157,428h 2" fill="none" stroke="#ff0099"/>
<path d="M162,428h 2" fill="none" stroke="#ff0099"/>
<g stroke="#ff0099" stroke-width="1" fill="#ff0099">
<circle cx=" 161" cy=" 428" r=" 1.5"/>
</g>
<path d="M164,428h 3" fill="none" stroke="#ff0099"/>
<path d="M169,428h 3" fill="none" stroke="#ff0099"/>
<g stroke="#ff0099" stroke-width="1" fill="#ff0099">
<circle cx=" 168" cy=" 428" r=" 1.5"/>
</g>
<path d="M172,428h 3" fill="none" stroke="#ff0099"/>
<path d="M177,428h 3" fill="none" stroke="#ff0099"/>
<g stroke="#ff0099" stroke-width="1" fill="#ff0099">
<circle cx=" 176" cy=" 428" r=" 1.5"/>
</g>
<path d="M180,428h 2" fill="none" stroke="#ff0099"/>
<path d="M184,428h 3" fill="none" stroke="#ff0099"/>
<g stroke="#ff0099" stroke-width="1" fill="#ff0099">
<circle cx=" 183" cy=" 428" r=" 1.5"/>
</g>
<path d="M187,428h 3" fill="none" stroke="#ff0099"/>
<path d="M192,428h 3" fill="none" stroke="#ff0099"/>
<g stroke="#ff0099" stroke-width="1" fill="#ff0099">
<circle cx=" 191" cy=" 428" r=" 1.5"/>
</g>
<path d="M195,428h 2" fill="none" stroke="#ff0099"/>
<path d="M200,428h 2" fill="none" stroke="#ff0099"/>
<g stroke="#ff0099" stroke-width="1" fill="#ff0099">
<circle cx=" 198" cy=" 428" r=" 1.5"/>
</g>
<path d="M202,428h 3" fill="none" stroke="#ff0099"/>
<path d="M207,428h 3" fill="none" stroke="#ff0099"/>
<g stroke="#ff0099" stroke-width="1" fill="#ff0099">
<circle cx=" 206" cy=" 428" r=" 1.5"/>
</g>
<path d="M210,428h 2" fill="none" stroke="#ff0099"/>
<path d="M215,428h 2" fill="none" stroke="#ff0099"/>
<g stroke="#ff0099" stroke-width="1" fill="#ff0099">
<circle cx=" 214" cy=" 428" r=" 1.5"/>
</g>
<path d="M217,427h 3" fill="none" stroke="#ff0099"/>
<path d="M222,427h 3" fill="none" stroke="#ff0099"/>
<g stroke="#ff0099" stroke-width="1" fill="#ff0099">
<circle cx=" 221" cy=" 427" r=" 1.5"/>
</g>
<path d="M225,427h 3" fill="none" stroke="#ff0099"/>
<path d="M230,427h 2" fill="none" stroke="#ff0099"/>
<g stroke="#ff0099" stroke-width="1" fill="#ff0099">
<circle cx=" 229" cy=" 427" r=" 1.5"/>
</g>
<path d="M232,427h 3" fill="none" stroke="#ff0099"/>
<path d="M237,427h 3" fill="none" stroke="#ff0099"/>
<g stroke="#ff0099" stroke-width="1" fill="#ff0099">
<circle cx=" 236" cy=" 427" r=" 1.5"/>
</g>
<path d="M240,427h 3" fill="none" stroke="#ff0099"/>
<path d="M245,427h 3" fill="none" stroke="#ff0099"/>
<g stroke="#ff0099" stroke-width="1" fill="#ff0099">
<circle cx=" 244" cy=" 427" r=" 1.5"/>
</g>
<path d="M248,426h 2" fill="none" stroke="#ff0099"/>
<path d="M252,426h 3" fill="none" stroke="#ff0099"/>
<g stroke="#ff0099" stroke-width="1" fill="#ff0099">
<circle cx=" 251" cy=" 426" r=" 1.5"/>
</g>
<path d="M255,426h 3" fill="none" stroke="#ff0099"/>
<path d="M260,426h 3" fill="none" stroke="#ff0099"/>
<g stroke="#ff0099" stroke-width="1" fill="#ff0099">
<circle cx=" 259" cy=" 426" r=" 1.5"/>
</g>
<path d="M263,426h 2" fill="none" stroke="#ff0099"/>
<path d="M268,426h 2" fill="none" stroke="#ff0099"/>
<g stroke="#ff0099" stroke-width="1" fill="#ff0099">
<circle cx=" 266" cy=" 426" r=" 1.5"/>
</g>
<path d="M270,425h 3" fill="none" stroke="#ff0099"/>
<path d="M275,425h 3" fill="none" stroke="#ff0099"/>
<g stroke="#ff0099" stroke-width="1" fill="#ff0099">
<circle cx=" 274" cy=" 425" r=" 1.5"/>
</g>
<path d="M278,424h 2" fill="none" stroke="#ff0099"/>
<path d="M283,424h 2" fill="none" stroke="#ff0099"/>
<g stroke="#ff0099" stroke-width="1" fill="#ff0099">
<circle cx=" 282" cy=" 424" r=" 1.5"/>
</g>
<path d="M285,424h 3" fill="none" stroke="#ff0099"/>
<path d="M290,424h 3" fill="none" stroke="#ff0099"/>
<g stroke="#ff0099" stroke-width="1" fill="#ff0099">
<circle cx=" 289" cy=" 424" r=" 1.5"/>
</g>
<path d="M293,423h 3" fill="none" stroke="#ff0099"/>
<path d="M298,423h 2" fill="none" stroke="#ff0099"/>
<g stroke="#ff0099" stroke-width="1" fill="#ff0099">
<circle cx=" 297" cy=" 423" r=" 1.5"/>
</g>
<path d="M300,422h 3" fill="none" stroke="#ff0099"/>
<path d="M305,422h 3" fill="none" stroke="#ff0099"/>
<g stroke="#ff0099" stroke-width="1" fill="#ff0099">
<circle cx=" 304" cy=" 422" r=" 1.5"/>
</g>
<path d="M308,421h 3" fill="none" stroke="#ff0099"/>
<path d="M313,421h 3" fill="none" stroke="#ff0099"/>
<g stroke="#ff0099" stroke-width="1" fill="#ff0099">
<circle cx=" 312" cy=" 421" r=" 1.5"/>
</g>
<path d="M316,421h 2" fill="none" stroke="#ff0099"/>
<path d="M321,421h 2" fill="none" stroke="#ff0099"/>
<g stroke="#ff0099" stroke-width="1" fill="#ff0099">
<circle cx=" 319" cy=" 421" r=" 1.5"/>
</g>
<path d="M323,420h 3" fill="none" stroke="#ff0099"/>
<path d="M328,420h 3" fill="none" stroke="#ff0099"/>
<g stroke="#ff0099" stroke-width="1" fill="#ff0099">
<circle cx=" 327" cy=" 420" r=" 1.5"/>
</g>
<path d="M331,418h 2" fill="none" stroke="#ff0099"/>
<path d="M336,418h 2" fill="none" stroke="#ff0099"/>
<g stroke="#ff0099" stroke-width="1" fill="#ff0099">
<circle cx=" 334" cy=" 418" r=" 1.5"/>
</g>
<path d="M338,418h 3" fill="none" stroke="#ff0099"/>
<path d="M343,418h 3" fill="none" stroke="#ff0099"/>
<g stroke="#ff0099" stroke-width="1" fill="#ff0099">
<circle cx=" 342" cy=" 418" r=" 1.5"/>
</g>
<path d="M346,416h 2" fill="none" stroke="#ff0099"/>
<path d="M351,416h 2" fill="none" stroke="#ff0099"/>
<g stroke="#ff0099" stroke-width="1" fill="#ff0099">
<circle cx=" 350" cy=" 416" r=" 1.5"/>
</g>
<path d="M353,414h 3" fill="none" stroke="#ff0099"/>
<path d="M358,414h 3" fill="none" stroke="#ff0099"/>
<g stroke="#ff0099" stroke-width="1" fill="#ff0099">
<circle cx=" 357" cy=" 414" r=" 1.5"/>
</g>
<path d="M361,413h 3" fill="none" stroke="#ff0099"/>
<path d="M366,413h 3" fill="none" stroke="#ff0099"/>
<g stroke="#ff0099" stroke-width="1" fill="#ff0099">
<circle cx=" 365" cy=" 413" r=" 1.5"/>
</g>
<path d="M369,411h 2" fill="none" stroke="#ff0099"/>
<path d="M373,411h 3" fill="none" stroke="#ff0099"/>
<g stroke="#ff0099" stroke-width="1" fill="#ff0099">
<circle cx=" 372" cy=" 411" r=" 1.5"/>
</g>
<path d="M376,409h 3" fill="none" stroke="#ff0099"/>
<path d="M381,409h 3" fill="none" stroke="#ff0099"/>
<g stroke="#ff0099" stroke-width="1" fill="#ff0099">
<circle cx=" 380" cy=" 409" r=" 1.5"/>
</g>
<path d="M384,405h 2" fill="none" stroke="#ff0099"/>
<path d="M389,405h 2" fill="none" stroke="#ff0099"/>
<g stroke="#ff0099" stroke-width="1" fill="#ff0099">
<circle cx=" 387" cy=" 405" r=" 1.5"/>
</g>
<path d="M391,402h 3" fill="none" stroke="#ff0099"/>
<path d="M396,402h 3" fill="none" stroke="#ff0099"/>
<g stroke="#ff0099" stroke-width="1" fill="#ff0099">
<circle cx=" 395" cy=" 402" r=" 1.5"/>
</g>
<path d="M399,400h 2" fill="none" stroke="#ff0099"/>
<path d="M404,400h 2" fill="none" stroke="#ff0099"/>
<g stroke="#ff0099" stroke-width="1" fill="#ff0099">
<circle cx=" 403" cy=" 400" r=" 1.5"/>
</g>
<path d="M406,395h 3" fill="none" stroke="#ff0099"/>
<path d="M411,395h 3" fill="none" stroke="#ff0099"/>
<g stroke="#ff0099" stroke-width="1" fill="#ff0099">
<circle cx=" 410" cy=" 395" r=" 1.5"/>
</g>
<path d="M414,389h 2" fill="none" stroke="#ff0099"/>
<path d="M419,389h 2" fill="none" stroke="#ff0099"/>
<g stroke="#ff0099" stroke-width="1" fill="#ff0099">
<circle cx=" 418" cy=" 389" r=" 1.5"/>
</g>
<path d="M421,385h 3" fill="none" stroke="#ff0099"/>
<path d="M426,385h 3" fill="none" stroke="#ff0099"/>
<g stroke="#ff0099" stroke-width="1" fill="#ff0099">
<circle cx=" 425" cy=" 385" r=" 1.5"/>
</g>
<path d="M429,377h 3" fill="none" stroke="#ff0099"/>
<path d="M434,377h 3" fill="none" stroke="#ff0099"/>
<g stroke="#ff0099" stroke-width="1" fill="#ff0099">
<circle cx=" 433" cy=" 377" r=" 1.5"/>
</g>
<path d="M437,367h 2" fill="none" stroke="#ff0099"/>
<path d="M441,367h 3" fill="none" stroke="#ff0099"/>
<g stroke="#ff0099" stroke-width="1" fill="#ff0099">
<circle cx=" 440" cy=" 367" r=" 1.5"/>
</g>
<path d="M444,354h 3" fill="none" stroke="#ff0099"/>
<path d="M449,354h 3" fill="none" stroke="#ff0099"/>
<g stroke="#ff0099" stroke-width="1" fill="#ff0099">
<circle cx=" 448" cy=" 354" r=" 1.5"/>
</g>
<path d="M452,341h 2" fill="none" stroke="#ff0099"/>
<path d="M457,341h 2" fill="none" stroke="#ff0099"/>
<g stroke="#ff0099" stroke-width="1" fill="#ff0099">
<circle cx=" 455" cy=" 341" r=" 1.5"/>
</g>
<path d="M459,321h 3" fill="none" stroke="#ff0099"/>
<path d="M464,321h 3" fill="none" stroke="#ff0099"/>
<g stroke="#ff0099" stroke-width="1" fill="#ff0099">
<circle cx=" 463" cy=" 321" r=" 1.5"/>
</g>
<path d="M471,298" fill="none" stroke="#ff0099"/>
<path d="M471,295" fill="none" stroke="#ff0099"/>
<path d="M467,297h 2" fill="none" stroke="#ff0099"/>
<path d="M472,297h 2" fill="none" stroke="#ff0099"/>
<g stroke="#ff0099" stroke-width="1" fill="#ff0099">
<circle cx=" 471" cy=" 297" r=" 1.5"/>
</g>
<path d="M478,267" fill="none" stroke="#ff0099"/>
<path d="M478,264" fill="none" stroke="#ff0099"/>
<path d="M474,266h 3" fill="none" stroke="#ff0099"/>
<path d="M479,266h 3" fill="none" stroke="#ff0099"/>
<g stroke="#ff0099" stroke-width="1" fill="#ff0099">
<circle cx=" 478" cy=" 266" r=" 1.5"/>
</g>
<path d="M486,220" fill="none" stroke="#ff0099"/>
<path d="M486,218v -1" fill="none" stroke="#ff0099"/>
<path d="M482,219h 3" fill="none" stroke="#ff0099"/>
<path d="M487,219h 2" fill="none" stroke="#ff0099"/>
<g stroke="#ff0099" stroke-width="1" fill="#ff0099">
<circle cx=" 486" cy=" 219" r=" 1.5"/>
</g>
<path d="M493,168v -1" fill="none" stroke="#ff0099"/>
<path d="M493,165" fill="none" stroke="#ff0099"/>
<path d="M489,166h 3" fill="none" stroke="#ff0099"/>
<path d="M494,166h 3" fill="none" stroke="#ff0099"/>
<g stroke="#ff0099" stroke-width="1" fill="#ff0099">
<circle cx=" 493" cy=" 166" r=" 1.5"/>
</g>
<path d="M501,101v -1" fill="none" stroke="#ff0099"/>
<path d="M501,98v -1" fill="none" stroke="#ff0099"/>
<path d="M497,99h 3" fill="none" stroke="#ff0099"/>
<path d="M502,99h 3" fill="none" stroke="#ff0099"/>
<g stroke="#ff0099" stroke-width="1" fill="#ff0099">
<circle cx=" 501" cy=" 99" r=" 1.5"/>
</g>
<path d="M508,67v -1" fill="none" stroke="#ff0099"/>
<path d="M508,64v -1" fill="none" stroke="#ff0099"/>
<path d="M505,65h 2" fill="none" stroke="#ff0099"/>
<path d="M509,65h 3" fill="none" stroke="#ff0099"/>
<g stroke="#ff0099" stroke-width="1" fill="#ff0099">
<circle cx=" 508" cy=" 65" r=" 1.5"/>
</g>
<path d="M512,285h 3" fill="none" stroke="#ff0099"/>
<path d="M517,285h 3" fill="none" stroke="#ff0099"/>
<g stroke="#ff0099" stroke-width="1" fill="#ff0099">
<circle cx=" 516" cy=" 285" r=" 1.5"/>
</g>
<path d="M520,426h 2" fill="none" stroke="#ff0099"/>
<path d="M525,426h 2" fill="none" stroke="#ff0099"/>
<g stroke="#ff0099" stroke-width="1" fill="#ff0099">
<circle cx=" 523" cy=" 426" r=" 1.5"/>
</g>
<rect x="357" y="59" width="142" height="99" fill="white"/>
<text x="360" y="82" fill="black" font-size="17" font-family="Helvetica" font-weight="bold">
EE
</text>
<text x="457" y="115" fill="black" font-size="17" font-family="Helvetica" font-weight="bold">
 ee
</text>
<text x="440" y="115" fill="black" font-size="17" font-family="Times">
&#8594;
</text>
<text x="392" y="115" fill="black" font-size="17" font-family="Helvetica" font-weight="bold">
MC Z 
</text>
<path d="M362,109h 25" fill="none" stroke="#ff0099"/>
<g stroke="#ff0099" stroke-width="1" fill="#ff0099">
<circle cx=" 375" cy=" 109" r=" 1.5"/>
</g>
<text x="455" y="147" fill="black" font-size="17" font-family="Helvetica" font-weight="bold">
 + jet
</text>
<text x="447" y="147" fill="black" font-size="17" font-family="Times">
&#0947;
</text>
<text x="392" y="147" fill="black" font-size="17" font-family="Helvetica" font-weight="bold">
signal 
</text>
<path d="M362,154h 25v -24h -25z" fill="#99ff99"/>
<path d="M362,130h 25" fill="none" stroke="#99ff99" stroke-width="2"/>
<path d="M362,154h 25" fill="none" stroke="#99ff99" stroke-width="2"/>
<path d="M387,154v -24" fill="none" stroke="#99ff99" stroke-width="2"/>
<path d="M362,154v -24" fill="none" stroke="#99ff99" stroke-width="2"/>
<text x="300" y="34" fill="black" font-size="17" font-family="Helvetica" font-weight="bold">
=8 TeV
</text>
<text x="291" y="34" fill="black" font-size="17" font-family="Helvetica" font-weight="bold">
s
</text>
<path d="M285,25l 2, 10" fill="none" stroke="black" stroke-width="2"/>
<path d="M287,35l 2, -14" fill="none" stroke="black"/>
<path d="M289,21h 11" fill="none" stroke="black"/>
<text x="142" y="34" fill="black" font-size="17" font-family="Helvetica" font-weight="bold">
CMS Preliminary 
</text></svg>
